<?xml version="1.0" encoding="UTF-8"?>
<svg width="180px" height="180px" viewBox="0 0 180 180" version="1.1" xmlns="http://www.w3.org/2000/svg" xmlns:xlink="http://www.w3.org/1999/xlink">
    <title>simple-icons:akamai</title>
    <g id="Page-1" stroke="none" stroke-width="1" fill="none" fill-rule="evenodd">
        <g id="simple-icons:akamai">
            <rect id="ViewBox" x="0" y="0" width="180" height="180"></rect>
            <path d="M97.9125,0 C47.88,0 7.2,40.35 7.2,90.06 C7.2,139.77 47.775,180 97.9125,180 C102.54,180 102.75,177.3225 98.5575,176.025 C61.545,164.73 34.545,130.515 34.545,90.06 C34.545,49.065 62.085,14.535 99.7425,3.66 C103.6125,2.5875 102.54,0 97.9125,0 M115.3425,13.6649901 C96.3917466,13.6550431 78.2144162,21.1793047 64.8149116,34.5802162 C51.4154069,47.9811276 43.8930536,66.1592478 43.9049858,85.11 C43.9049858,94.2525 45.615,102.9675 48.735,110.9325 C50.025,114.375 52.0725,114.3675 51.75,111.0375 C51.5018121,108.60742 51.361674,106.167516 51.33,103.725 C51.3200449,84.7755469 58.8432773,66.5993546 72.242566,53.200066 C85.6418546,39.8007773 103.818047,32.2775449 122.7675,32.2875 C160.1025,32.2875 171.2925,48.96 172.6875,47.8875 C174.195,46.7025 159.135,13.6649901 115.3425,13.6649901 M118.86,44.19 C104.944551,44.6420003 91.5354612,49.5180328 80.58,58.11 C78.645,59.61 79.4025,60.57 81.6675,59.61 C100.17,51.5325 123.5175,51.3225 146.445,59.28 C161.82,64.665 170.745,72.3075 171.5025,71.985 C172.6875,71.445 162.57,55.3125 144.1725,48.4275 C136.09305,45.3748574 127.492997,43.937693 118.86,44.1975" id="Shape" fill="#0096D6" fill-rule="nonzero"></path>
        </g>
    </g>
</svg>