<?xml version="1.0" encoding="UTF-8"?>
<!DOCTYPE svg PUBLIC "-//W3C//DTD SVG 1.1//EN" "http://www.w3.org/Graphics/SVG/1.1/DTD/svg11.dtd">
<svg xmlns="http://www.w3.org/2000/svg" version="1.1" width="480px" height="480px" style="shape-rendering:geometricPrecision; text-rendering:geometricPrecision; image-rendering:optimizeQuality; fill-rule:evenodd; clip-rule:evenodd" xmlns:xlink="http://www.w3.org/1999/xlink">
<g><path style="opacity:1" fill="#fefefe" d="M -0.5,-0.5 C 159.5,-0.5 319.5,-0.5 479.5,-0.5C 479.5,159.5 479.5,319.5 479.5,479.5C 319.5,479.5 159.5,479.5 -0.5,479.5C -0.5,319.5 -0.5,159.5 -0.5,-0.5 Z"/></g>
<g><path style="opacity:1" fill="#165353" d="M 384.5,261.5 C 382.534,251.758 380.7,241.758 379,231.5C 377.333,229.833 375.667,228.167 374,226.5C 373.383,227.449 373.549,228.282 374.5,229C 373.151,229.772 372.318,230.939 372,232.5C 369.736,227.079 366.236,222.746 361.5,219.5C 360.201,220.09 359.368,221.09 359,222.5C 358.333,221.167 357.667,221.167 357,222.5C 356.383,221.551 356.549,220.718 357.5,220C 355.924,219.56 354.59,218.727 353.5,217.5C 351.807,219.027 349.973,220.36 348,221.5C 348.584,219.3 348.418,217.133 347.5,215C 343.807,214.449 343.64,214.949 347,216.5C 347.281,218.905 346.615,218.905 345,216.5C 343.915,217.293 342.748,217.96 341.5,218.5C 339.808,216.641 338.308,214.641 337,212.5C 336.667,213.167 336.333,213.833 336,214.5C 334.451,211.997 332.784,211.997 331,214.5C 330.667,213.5 330.333,212.5 330,211.5C 329.333,213.5 329.333,215.5 330,217.5C 332.499,215.732 334.999,216.232 337.5,219C 335.557,218.695 333.557,218.695 331.5,219C 334.167,219.667 334.167,220.333 331.5,221C 332.654,221.914 332.487,222.747 331,223.5C 330.501,227.486 330.334,231.486 330.5,235.5C 328.58,212.537 325.746,189.537 322,166.5C 308.142,188.231 294.309,209.898 280.5,231.5C 281.014,229.634 281.68,227.8 282.5,226C 281.746,222.912 280.58,222.746 279,225.5C 277.161,223.289 277.328,221.123 279.5,219C 282.226,218.818 284.893,218.318 287.5,217.5C 287.167,216.833 286.833,216.167 286.5,215.5C 286.846,214.304 287.346,214.304 288,215.5C 288.788,213.835 289.122,212.169 289,210.5C 287.527,210.132 286.027,210.632 284.5,212C 284.833,212.333 285.167,212.667 285.5,213C 283.256,215.349 282.089,214.849 282,211.5C 281.309,213.891 280.309,213.891 279,211.5C 277.66,212.868 276.326,214.201 275,215.5C 273.333,215.167 271.667,214.833 270,214.5C 263.827,216.67 257.993,219.503 252.5,223C 251.809,224.067 251.309,225.234 251,226.5C 249.293,225.862 247.46,225.862 245.5,226.5C 245.5,227.5 245.5,228.5 245.5,229.5C 242.99,229.991 240.656,230.991 238.5,232.5C 235.167,238.033 230.833,242.533 225.5,246C 225.833,246.333 226.167,246.667 226.5,247C 224.131,249.299 221.964,251.799 220,254.5C 219.517,253.552 219.351,252.552 219.5,251.5C 242.674,205.149 266.341,159.149 290.5,113.5C 290.376,112.893 290.043,112.56 289.5,112.5C 301.845,100.653 313.345,87.9861 324,74.5C 334.459,64.8908 344.459,65.2241 354,75.5C 367.555,136.876 377.722,198.876 384.5,261.5 Z"/></g>
<g><path style="opacity:1" fill="#257474" d="M 289.5,112.5 C 290.043,112.56 290.376,112.893 290.5,113.5C 266.341,159.149 242.674,205.149 219.5,251.5C 217.12,255.633 215.12,259.966 213.5,264.5C 213.5,264.833 213.5,265.167 213.5,265.5C 203.514,270.974 194.18,277.474 185.5,285C 183.409,286.675 181.242,287.175 179,286.5C 178.758,288.138 177.925,289.638 176.5,291C 175.056,291.781 173.723,291.614 172.5,290.5C 171.485,285.681 169.152,284.681 165.5,287.5C 164.749,286.624 164.249,285.624 164,284.5C 162.413,285.727 161.079,285.394 160,283.5C 159.517,284.448 159.351,285.448 159.5,286.5C 158.5,286.5 157.5,286.5 156.5,286.5C 156.307,282.551 155.807,282.551 155,286.5C 154.667,286.167 154.333,285.833 154,285.5C 152.933,286.191 151.766,286.691 150.5,287C 150.908,289.861 150.075,290.028 148,287.5C 145.239,288.64 142.406,288.64 139.5,287.5C 138.029,286.619 137.196,285.286 137,283.5C 136.517,284.448 136.351,285.448 136.5,286.5C 135.167,286.5 133.833,286.5 132.5,286.5C 132.535,280.04 131.702,280.04 130,286.5C 128.956,285.377 128.29,284.044 128,282.5C 126.667,283.833 125.333,285.167 124,286.5C 123.683,284.699 123.016,284.366 122,285.5C 122.148,284.175 121.982,283.008 121.5,282C 122.549,281.508 123.549,281.674 124.5,282.5C 126.461,281.152 126.628,279.819 125,278.5C 124.667,279.167 124.333,279.833 124,280.5C 123.667,278.5 123.333,276.5 123,274.5C 122.667,275.167 122.333,275.833 122,276.5C 119.418,275.716 117.751,274.049 117,271.5C 116.23,272.598 115.397,272.598 114.5,271.5C 112.784,257.604 110.451,243.938 107.5,230.5C 105.647,215.86 103.98,201.193 102.5,186.5C 106.078,186.451 109.411,185.785 112.5,184.5C 131.589,181.402 151.589,178.235 172.5,175C 216.599,163.618 255.599,142.785 289.5,112.5 Z"/></g>
<g><path style="opacity:1" fill="#fefefe" d="M 330.5,235.5 C 330.959,247.88 331.959,260.214 333.5,272.5C 308.158,272.833 282.825,272.5 257.5,271.5C 258.127,270.583 258.461,269.583 258.5,268.5C 266.585,256.67 273.919,244.337 280.5,231.5C 294.309,209.898 308.142,188.231 322,166.5C 325.746,189.537 328.58,212.537 330.5,235.5 Z"/></g>
<g><path style="opacity:0.745" fill="#175051" d="M 76.5,224.5 C 75.7784,224.082 75.2784,223.416 75,222.5C 73.264,213.238 72.0974,203.904 71.5,194.5C 67.3929,194.925 63.7262,196.425 60.5,199C 55.9983,202.67 51.665,206.503 47.5,210.5C 49.5566,206.933 52.2232,203.766 55.5,201C 60.5832,197.708 65.7498,194.541 71,191.5C 72.117,192.949 72.7837,194.616 73,196.5C 74.4961,205.803 75.6628,215.136 76.5,224.5 Z"/></g>
<g><path style="opacity:0.465" fill="#144a4a" d="M 112.5,184.5 C 109.411,185.785 106.078,186.451 102.5,186.5C 103.98,201.193 105.647,215.86 107.5,230.5C 104.718,215.702 102.384,200.702 100.5,185.5C 104.422,185.155 108.255,184.488 112,183.5C 112.399,183.728 112.565,184.062 112.5,184.5 Z"/></g>
<g><path style="opacity:1" fill="#226e6d" d="M 76.5,224.5 C 79.5204,240.65 81.8537,257.317 83.5,274.5C 84.6056,287.905 86.2722,301.239 88.5,314.5C 84.753,314.608 81.0863,314.108 77.5,313C 73.1211,310.306 68.4544,308.473 63.5,307.5C 56.8861,303.551 51.2194,298.551 46.5,292.5C 43.5681,287.353 40.7348,282.019 38,276.5C 33.9675,264.514 32.4675,252.18 33.5,239.5C 34.7507,228.003 39.4173,218.336 47.5,210.5C 51.665,206.503 55.9983,202.67 60.5,199C 63.7262,196.425 67.3929,194.925 71.5,194.5C 72.0974,203.904 73.264,213.238 75,222.5C 75.2784,223.416 75.7784,224.082 76.5,224.5 Z"/></g>
<g><path style="opacity:1" fill="#195959" d="M 280.5,231.5 C 273.919,244.337 266.585,256.67 258.5,268.5C 259.31,265.935 259.643,263.435 259.5,261C 258.285,258.904 257.451,259.071 257,261.5C 256.167,260.5 255.333,259.5 254.5,258.5C 252.223,258.015 250.056,258.681 248,260.5C 247,259.167 246,259.167 245,260.5C 243.271,257.921 241.438,257.921 239.5,260.5C 237.844,258.978 236.677,259.311 236,261.5C 235.667,260.833 235.333,260.167 235,259.5C 228.099,260.915 220.932,262.582 213.5,264.5C 215.12,259.966 217.12,255.633 219.5,251.5C 219.351,252.552 219.517,253.552 220,254.5C 221.964,251.799 224.131,249.299 226.5,247C 226.167,246.667 225.833,246.333 225.5,246C 230.833,242.533 235.167,238.033 238.5,232.5C 240.656,230.991 242.99,229.991 245.5,229.5C 245.5,228.5 245.5,227.5 245.5,226.5C 247.46,225.862 249.293,225.862 251,226.5C 251.309,225.234 251.809,224.067 252.5,223C 257.993,219.503 263.827,216.67 270,214.5C 271.667,214.833 273.333,215.167 275,215.5C 276.326,214.201 277.66,212.868 279,211.5C 280.309,213.891 281.309,213.891 282,211.5C 282.089,214.849 283.256,215.349 285.5,213C 285.167,212.667 284.833,212.333 284.5,212C 286.027,210.632 287.527,210.132 289,210.5C 289.122,212.169 288.788,213.835 288,215.5C 287.346,214.304 286.846,214.304 286.5,215.5C 286.833,216.167 287.167,216.833 287.5,217.5C 284.893,218.318 282.226,218.818 279.5,219C 277.328,221.123 277.161,223.289 279,225.5C 280.58,222.746 281.746,222.912 282.5,226C 281.68,227.8 281.014,229.634 280.5,231.5 Z"/></g>
<g><path style="opacity:0.999" fill="#195959" d="M 384.5,261.5 C 388.314,289.644 392.314,317.81 396.5,346C 391.941,357.951 383.274,362.617 370.5,360C 354.852,349.84 338.852,340.34 322.5,331.5C 323.873,331.343 325.207,331.51 326.5,332C 333.072,335.785 339.738,339.285 346.5,342.5C 347.614,341.277 347.781,339.944 347,338.5C 346.549,340.929 345.715,341.096 344.5,339C 346.584,337.229 348.918,335.896 351.5,335C 350.24,333.887 349.073,333.72 348,334.5C 347.493,333.004 347.993,331.837 349.5,331C 348.874,330.25 348.374,329.416 348,328.5C 347.388,331.032 345.888,331.865 343.5,331C 344.308,330.692 344.975,330.192 345.5,329.5C 344.349,328.269 343.183,328.269 342,329.5C 341.833,329.167 341.667,328.833 341.5,328.5C 346.721,327.376 346.721,326.542 341.5,326C 342.641,325.259 342.641,324.425 341.5,323.5C 342.381,322.029 343.714,321.196 345.5,321C 342.286,318.598 339.786,319.098 338,322.5C 337.327,319.52 338.494,317.52 341.5,316.5C 341.192,315.692 340.692,315.025 340,314.5C 336.85,316.161 335.35,315.161 335.5,311.5C 330.633,311.839 330.299,310.672 334.5,308C 329.277,306.156 329.277,305.323 334.5,305.5C 333.194,304.088 332.36,302.421 332,300.5C 331.851,303.279 331.017,303.779 329.5,302C 329.833,301.667 330.167,301.333 330.5,301C 329.216,300.316 328.049,300.483 327,301.5C 326.493,300.004 326.993,298.837 328.5,298C 327.257,295.966 325.757,295.133 324,295.5C 323.383,294.551 323.549,293.718 324.5,293C 320.713,292.919 318.213,290.752 317,286.5C 316.385,288.116 315.385,289.449 314,290.5C 313.508,289.451 313.674,288.451 314.5,287.5C 313.833,286.833 313.167,286.167 312.5,285.5C 315.469,284.332 315.802,282.999 313.5,281.5C 311.696,282.716 310.029,283.716 308.5,284.5C 307.5,283.5 306.5,282.5 305.5,281.5C 306.855,280.325 306.688,279.325 305,278.5C 302.871,279.863 302.371,279.529 303.5,277.5C 302.5,274.833 301.5,274.833 300.5,277.5C 299.304,277.154 299.304,276.654 300.5,276C 299.007,274.632 297.507,274.465 296,275.5C 293.843,272.922 292.677,272.922 292.5,275.5C 280.683,273.549 268.683,272.882 256.5,273.5C 256.12,271.302 256.787,269.635 258.5,268.5C 258.461,269.583 258.127,270.583 257.5,271.5C 282.825,272.5 308.158,272.833 333.5,272.5C 331.959,260.214 330.959,247.88 330.5,235.5C 330.334,231.486 330.501,227.486 331,223.5C 332.487,222.747 332.654,221.914 331.5,221C 334.167,220.333 334.167,219.667 331.5,219C 333.557,218.695 335.557,218.695 337.5,219C 334.999,216.232 332.499,215.732 330,217.5C 329.333,215.5 329.333,213.5 330,211.5C 330.333,212.5 330.667,213.5 331,214.5C 332.784,211.997 334.451,211.997 336,214.5C 336.333,213.833 336.667,213.167 337,212.5C 338.308,214.641 339.808,216.641 341.5,218.5C 342.748,217.96 343.915,217.293 345,216.5C 346.615,218.905 347.281,218.905 347,216.5C 343.64,214.949 343.807,214.449 347.5,215C 348.418,217.133 348.584,219.3 348,221.5C 349.973,220.36 351.807,219.027 353.5,217.5C 354.59,218.727 355.924,219.56 357.5,220C 356.549,220.718 356.383,221.551 357,222.5C 357.667,221.167 358.333,221.167 359,222.5C 359.368,221.09 360.201,220.09 361.5,219.5C 366.236,222.746 369.736,227.079 372,232.5C 372.318,230.939 373.151,229.772 374.5,229C 373.549,228.282 373.383,227.449 374,226.5C 375.667,228.167 377.333,229.833 379,231.5C 380.7,241.758 382.534,251.758 384.5,261.5 Z"/></g>
<g><path style="opacity:0.394" fill="#134848" d="M 107.5,230.5 C 110.451,243.938 112.784,257.604 114.5,271.5C 116.609,285.151 118.609,298.818 120.5,312.5C 142.199,309.614 163.866,306.781 185.5,304C 184.934,304.995 184.267,305.828 183.5,306.5C 163.124,308.277 142.624,310.944 122,314.5C 121.167,314.167 120.333,313.833 119.5,313.5C 114.941,285.921 110.941,258.254 107.5,230.5 Z"/></g>
<g><path style="opacity:1" fill="#1b5e5e" d="M 258.5,268.5 C 256.787,269.635 256.12,271.302 256.5,273.5C 268.683,272.882 280.683,273.549 292.5,275.5C 292.677,272.922 293.843,272.922 296,275.5C 297.507,274.465 299.007,274.632 300.5,276C 299.304,276.654 299.304,277.154 300.5,277.5C 301.5,274.833 302.5,274.833 303.5,277.5C 302.371,279.529 302.871,279.863 305,278.5C 306.688,279.325 306.855,280.325 305.5,281.5C 306.5,282.5 307.5,283.5 308.5,284.5C 310.029,283.716 311.696,282.716 313.5,281.5C 315.802,282.999 315.469,284.332 312.5,285.5C 313.167,286.167 313.833,286.833 314.5,287.5C 313.674,288.451 313.508,289.451 314,290.5C 315.385,289.449 316.385,288.116 317,286.5C 318.213,290.752 320.713,292.919 324.5,293C 323.549,293.718 323.383,294.551 324,295.5C 325.757,295.133 327.257,295.966 328.5,298C 326.993,298.837 326.493,300.004 327,301.5C 328.049,300.483 329.216,300.316 330.5,301C 330.167,301.333 329.833,301.667 329.5,302C 331.017,303.779 331.851,303.279 332,300.5C 332.36,302.421 333.194,304.088 334.5,305.5C 329.277,305.323 329.277,306.156 334.5,308C 330.299,310.672 330.633,311.839 335.5,311.5C 335.35,315.161 336.85,316.161 340,314.5C 340.692,315.025 341.192,315.692 341.5,316.5C 338.494,317.52 337.327,319.52 338,322.5C 339.786,319.098 342.286,318.598 345.5,321C 343.714,321.196 342.381,322.029 341.5,323.5C 342.641,324.425 342.641,325.259 341.5,326C 346.721,326.542 346.721,327.376 341.5,328.5C 341.667,328.833 341.833,329.167 342,329.5C 343.183,328.269 344.349,328.269 345.5,329.5C 344.975,330.192 344.308,330.692 343.5,331C 345.888,331.865 347.388,331.032 348,328.5C 348.374,329.416 348.874,330.25 349.5,331C 347.993,331.837 347.493,333.004 348,334.5C 349.073,333.72 350.24,333.887 351.5,335C 348.918,335.896 346.584,337.229 344.5,339C 345.715,341.096 346.549,340.929 347,338.5C 347.781,339.944 347.614,341.277 346.5,342.5C 339.738,339.285 333.072,335.785 326.5,332C 325.207,331.51 323.873,331.343 322.5,331.5C 307.089,324.619 291.422,318.619 275.5,313.5C 274.571,312.685 273.571,311.852 272.5,311C 264.364,309.205 256.364,307.372 248.5,305.5C 251.214,305.75 253.881,305.917 256.5,306C 255.692,305.692 255.025,305.192 254.5,304.5C 255.641,303.575 255.641,302.741 254.5,302C 253.256,301.544 252.423,302.044 252,303.5C 250.35,302.109 249.85,300.609 250.5,299C 247.833,298 247.833,297 250.5,296C 249.207,295.51 247.873,295.343 246.5,295.5C 246.64,293.876 245.973,292.71 244.5,292C 244.833,291.667 245.167,291.333 245.5,291C 244.417,288.944 242.75,287.611 240.5,287C 241.308,286.692 241.975,286.192 242.5,285.5C 240.576,285.433 238.576,285.1 236.5,284.5C 237.826,284.795 239.159,284.295 240.5,283C 239,282.167 237.833,281 237,279.5C 236.026,281.878 235.359,281.544 235,278.5C 233.581,277.54 232.081,276.707 230.5,276C 226.304,271.19 220.638,267.69 213.5,265.5C 213.5,265.167 213.5,264.833 213.5,264.5C 220.932,262.582 228.099,260.915 235,259.5C 235.333,260.167 235.667,260.833 236,261.5C 236.677,259.311 237.844,258.978 239.5,260.5C 241.438,257.921 243.271,257.921 245,260.5C 246,259.167 247,259.167 248,260.5C 250.056,258.681 252.223,258.015 254.5,258.5C 255.333,259.5 256.167,260.5 257,261.5C 257.451,259.071 258.285,258.904 259.5,261C 259.643,263.435 259.31,265.935 258.5,268.5 Z"/></g>
<g><path style="opacity:1" fill="#216d6d" d="M 213.5,265.5 C 212.912,269.887 212.912,273.887 213.5,277.5C 212.833,279.5 212.167,281.5 211.5,283.5C 213.658,285.026 213.325,286.526 210.5,288C 209.976,289.123 209.976,290.456 210.5,292C 209.494,293.338 208.494,294.671 207.5,296C 208.406,297.699 208.739,299.533 208.5,301.5C 205.402,301.413 205.068,301.913 207.5,303C 206.449,304.385 205.116,305.385 203.5,306C 204.167,306.333 204.833,306.667 205.5,307C 202.084,309.882 200.084,313.215 199.5,317C 198.5,317.333 197.5,317.667 196.5,318C 196.833,318.333 197.167,318.667 197.5,319C 192.363,322.81 189.529,327.644 189,333.5C 188.751,332.376 188.251,331.376 187.5,330.5C 186.796,332.071 185.463,333.738 183.5,335.5C 183.709,336.086 184.043,336.586 184.5,337C 181.719,337.14 179.553,338.306 178,340.5C 177.676,338.431 176.842,338.098 175.5,339.5C 175.738,341.565 175.238,343.565 174,345.5C 173.085,344.672 172.419,343.672 172,342.5C 171.017,344.448 169.85,346.282 168.5,348C 169.535,349.507 169.368,351.007 168,352.5C 164.028,348.331 163.194,348.665 165.5,353.5C 164.635,354.583 163.635,354.749 162.5,354C 163.28,352.927 163.113,351.76 162,350.5C 161.29,351.973 160.124,352.64 158.5,352.5C 158.5,351.5 158.5,350.5 158.5,349.5C 161.849,341.639 165.682,333.973 170,326.5C 174.771,319.94 179.271,313.274 183.5,306.5C 184.267,305.828 184.934,304.995 185.5,304C 163.866,306.781 142.199,309.614 120.5,312.5C 118.609,298.818 116.609,285.151 114.5,271.5C 115.397,272.598 116.23,272.598 117,271.5C 117.751,274.049 119.418,275.716 122,276.5C 122.333,275.833 122.667,275.167 123,274.5C 123.333,276.5 123.667,278.5 124,280.5C 124.333,279.833 124.667,279.167 125,278.5C 126.628,279.819 126.461,281.152 124.5,282.5C 123.549,281.674 122.549,281.508 121.5,282C 121.982,283.008 122.148,284.175 122,285.5C 123.016,284.366 123.683,284.699 124,286.5C 125.333,285.167 126.667,283.833 128,282.5C 128.29,284.044 128.956,285.377 130,286.5C 131.702,280.04 132.535,280.04 132.5,286.5C 133.833,286.5 135.167,286.5 136.5,286.5C 136.351,285.448 136.517,284.448 137,283.5C 137.196,285.286 138.029,286.619 139.5,287.5C 142.406,288.64 145.239,288.64 148,287.5C 150.075,290.028 150.908,289.861 150.5,287C 151.766,286.691 152.933,286.191 154,285.5C 154.333,285.833 154.667,286.167 155,286.5C 155.807,282.551 156.307,282.551 156.5,286.5C 157.5,286.5 158.5,286.5 159.5,286.5C 159.351,285.448 159.517,284.448 160,283.5C 161.079,285.394 162.413,285.727 164,284.5C 164.249,285.624 164.749,286.624 165.5,287.5C 169.152,284.681 171.485,285.681 172.5,290.5C 173.723,291.614 175.056,291.781 176.5,291C 177.925,289.638 178.758,288.138 179,286.5C 181.242,287.175 183.409,286.675 185.5,285C 194.18,277.474 203.514,270.974 213.5,265.5 Z"/></g>
<g><path style="opacity:1" fill="#1f6767" d="M 213.5,265.5 C 220.638,267.69 226.304,271.19 230.5,276C 232.081,276.707 233.581,277.54 235,278.5C 235.359,281.544 236.026,281.878 237,279.5C 237.833,281 239,282.167 240.5,283C 239.159,284.295 237.826,284.795 236.5,284.5C 238.576,285.1 240.576,285.433 242.5,285.5C 241.975,286.192 241.308,286.692 240.5,287C 242.75,287.611 244.417,288.944 245.5,291C 245.167,291.333 244.833,291.667 244.5,292C 245.973,292.71 246.64,293.876 246.5,295.5C 247.873,295.343 249.207,295.51 250.5,296C 247.833,297 247.833,298 250.5,299C 249.85,300.609 250.35,302.109 252,303.5C 252.423,302.044 253.256,301.544 254.5,302C 255.641,302.741 255.641,303.575 254.5,304.5C 255.025,305.192 255.692,305.692 256.5,306C 253.881,305.917 251.214,305.75 248.5,305.5C 245.615,305.194 242.948,305.527 240.5,306.5C 223.931,337.97 207.098,369.303 190,400.5C 183.926,405.629 177.093,406.796 169.5,404C 163.468,400.652 157.468,397.319 151.5,394C 144.31,388.764 142.144,381.931 145,373.5C 149.288,365.244 153.788,357.244 158.5,349.5C 158.5,350.5 158.5,351.5 158.5,352.5C 160.124,352.64 161.29,351.973 162,350.5C 163.113,351.76 163.28,352.927 162.5,354C 163.635,354.749 164.635,354.583 165.5,353.5C 163.194,348.665 164.028,348.331 168,352.5C 169.368,351.007 169.535,349.507 168.5,348C 169.85,346.282 171.017,344.448 172,342.5C 172.419,343.672 173.085,344.672 174,345.5C 175.238,343.565 175.738,341.565 175.5,339.5C 176.842,338.098 177.676,338.431 178,340.5C 179.553,338.306 181.719,337.14 184.5,337C 184.043,336.586 183.709,336.086 183.5,335.5C 185.463,333.738 186.796,332.071 187.5,330.5C 188.251,331.376 188.751,332.376 189,333.5C 189.529,327.644 192.363,322.81 197.5,319C 197.167,318.667 196.833,318.333 196.5,318C 197.5,317.667 198.5,317.333 199.5,317C 200.084,313.215 202.084,309.882 205.5,307C 204.833,306.667 204.167,306.333 203.5,306C 205.116,305.385 206.449,304.385 207.5,303C 205.068,301.913 205.402,301.413 208.5,301.5C 208.739,299.533 208.406,297.699 207.5,296C 208.494,294.671 209.494,293.338 210.5,292C 209.976,290.456 209.976,289.123 210.5,288C 213.325,286.526 213.658,285.026 211.5,283.5C 212.167,281.5 212.833,279.5 213.5,277.5C 212.912,273.887 212.912,269.887 213.5,265.5 Z"/></g>
<g><path style="opacity:0.659" fill="#134848" d="M 33.5,239.5 C 32.4675,252.18 33.9675,264.514 38,276.5C 40.7348,282.019 43.5681,287.353 46.5,292.5C 39.6385,284.44 35.1385,275.107 33,264.5C 31.9005,259.447 31.4005,254.447 31.5,249.5C 32.0111,245.998 32.6778,242.665 33.5,239.5 Z"/></g>
<g><path style="opacity:0.697" fill="#114242" d="M 240.5,306.5 C 242.948,305.527 245.615,305.194 248.5,305.5C 256.364,307.372 264.364,309.205 272.5,311C 273.571,311.852 274.571,312.685 275.5,313.5C 263.91,310.782 252.244,308.449 240.5,306.5 Z"/></g>
<g><path style="opacity:0.729" fill="#144a4a" d="M 83.5,274.5 C 86.1348,288.277 88.1348,302.277 89.5,316.5C 79.9335,315.868 71.2669,312.868 63.5,307.5C 68.4544,308.473 73.1211,310.306 77.5,313C 81.0863,314.108 84.753,314.608 88.5,314.5C 86.2722,301.239 84.6056,287.905 83.5,274.5 Z"/></g>
</svg>
