<?xml version="1.0" encoding="UTF-8"?>
<svg width="180px" height="180px" viewBox="0 0 180 180" version="1.1" xmlns="http://www.w3.org/2000/svg" xmlns:xlink="http://www.w3.org/1999/xlink">
    <title>logos:aws-lightsail</title>
    <g id="Page-1" stroke="none" stroke-width="1" fill="none" fill-rule="evenodd">
        <g id="logos:aws-lightsail">
            <rect id="ViewBox" x="0" y="0" width="180" height="180"></rect>
            <path d="M102.463594,12 C123.070781,12 142.454531,19.9903125 157.097813,34.5189844 C171.779063,49.1235938 179.922656,68.5460156 179.999833,89.2678125 C180.075234,109.990313 172.084922,129.488672 157.479609,144.169922 C142.875703,158.851172 123.453281,166.994766 102.730781,167.070703 L102.424922,167.070703 C64.4603906,167.070703 32.3444531,140.0025 25.9980469,102.611016 C25.8150004,101.536161 26.0667278,100.432628 26.6977836,99.5434787 C27.3288394,98.6543296 28.2874601,98.0524993 29.3625,97.8705469 C31.618125,97.5260156 33.7211719,98.979375 34.1036719,101.235 C39.8003906,134.650312 68.5125,158.851172 102.424922,158.851172 L102.692109,158.851172 C121.196953,158.774531 138.593672,151.510547 151.630313,138.358594 C164.667656,125.206641 171.817031,107.772656 171.740391,89.2678125 C171.664453,70.7636719 164.399766,53.3676562 151.247813,40.3303125 C138.1725,27.3309375 120.853125,20.2202344 102.424922,20.2202344 L102.157734,20.2202344 C68.2832813,20.3348437 39.6091406,44.6503125 34.0270312,78.0276562 C33.8501991,79.1053974 33.249465,80.0675685 32.3587852,80.699617 C31.4681054,81.3316654 30.3615471,81.5810314 29.2858594,81.3921094 C28.2081182,81.2152773 27.2459471,80.6145431 26.6138987,79.7238633 C25.9818502,78.8331836 25.7324842,77.7266253 25.9214062,76.6509375 C32.2298438,39.3360938 64.2691406,12.1532812 102.157734,12 L102.463594,12 Z M106.974844,33.3721875 L113.283281,39.106875 C114.162188,39.9098437 135.113906,59.255625 136.146094,87.7385156 C136.795781,105.899531 129.15,123.409453 113.474531,139.849922 L106.860234,146.770078 L107.127422,137.173125 C107.166094,135.720469 107.547891,102.343828 74.17125,93.894375 C72.1828125,93.3972656 70.8067969,91.6000781 70.768125,89.5736719 C70.768125,87.5092969 72.106875,85.7121094 74.0946094,85.1770313 C106.210547,76.4990625 107.06625,44.2586719 107.08875,42.0178125 L107.08875,41.8982813 L106.974844,33.3721875 Z M66.448125,112.054688 C66.448125,119.739844 72.6799219,125.932969 80.3264063,125.932969 C72.6799219,125.932969 66.4860938,132.126797 66.448125,139.81125 C66.448125,132.126094 60.2163281,125.932969 52.5698438,125.932969 C60.255,125.932969 66.448125,119.701172 66.448125,112.054688 M113.589141,50.3470313 C111.562734,61.4353125 105.063047,80.2453125 84.1879688,89.4210938 C105.253594,98.2910156 111.715313,117.177656 113.665078,128.417812 C124.179609,115.381172 129.264609,101.846719 128.7675,88.0064063 C128.19375,71.2228125 119.477109,57.6496875 113.589141,50.3470313 M152.929688,93.2460938 L152.9325,93.4682812 C153.050625,99.3288281 157.822031,104.026406 163.711406,104.026406 C157.7475,104.026406 152.930391,108.843516 152.930391,114.808125 C152.933754,111.947606 151.798907,109.203278 149.776213,107.180584 C147.753519,105.15789 145.009191,104.023042 142.148672,104.026406 C145.009191,104.02977 147.753519,102.894922 149.776213,100.872228 C151.798907,98.8495342 152.933754,96.105207 152.930391,93.2446875 L152.929688,93.2460938 Z M28.6741406,85.828125 C30.7005469,85.828125 32.383125,87.4720313 32.383125,89.5364062 C32.383125,91.5628125 30.7392187,93.2446875 28.6741406,93.2446875 L22.1364844,93.2446875 C20.1100781,93.2446875 18.4282031,91.6007813 18.4282031,89.5364062 C18.4282031,87.51 20.0721094,85.828125 22.1364844,85.828125 L28.6741406,85.828125 Z M10.2846094,85.828125 C12.3110156,85.828125 13.9928906,87.4720313 13.9928906,89.5364062 C13.9549219,91.5628125 12.3110156,93.2446875 10.2846094,93.2446875 L3.70828125,93.2446875 C1.68257813,93.2446875 0,91.6007813 0,89.5364062 C0,87.51 1.64390625,85.828125 3.70828125,85.828125 L10.2846094,85.828125 Z M46.3760156,85.828125 C48.4024219,85.828125 50.085,87.4720313 50.085,89.5364062 C50.0463281,91.5628125 48.4024219,93.2446875 46.3760156,93.2446875 L38.5382812,93.2446875 C36.511875,93.2446875 34.83,91.6007813 34.83,89.5364062 C34.83,87.51 36.4739062,85.828125 38.5382812,85.828125 L46.3760156,85.828125 Z M62.7398437,85.828125 C64.76625,85.828125 66.448125,87.4720313 66.448125,89.5364062 C66.448125,91.5628125 64.8042188,93.2446875 62.7398437,93.2446875 L56.1635156,93.2446875 C54.1371094,93.2446875 52.4552344,91.6007813 52.4552344,89.5364062 C52.4552344,87.51 54.0991406,85.828125 56.1635156,85.828125 L62.7398437,85.828125 Z M80.3264062,37.9607812 C80.3224792,40.6187041 81.3766446,43.1688846 83.2561478,45.0482559 C85.135651,46.9276273 87.6859056,47.9816136 90.3438281,47.9775 C87.6859056,47.9733864 85.135651,49.0273727 83.2561478,50.9067441 C81.3766446,52.7861154 80.3224792,55.3362959 80.3264062,57.9942187 L80.3264062,57.97875 L80.3242969,57.7734375 C80.2145552,52.4104537 75.8934447,48.089033 70.5304687,47.9789062 L70.3089844,47.9767969 C72.9667851,47.9807234 75.5168588,46.9266545 77.3962098,45.0473035 C79.2755608,43.1679525 80.3296297,40.6178789 80.3257031,37.9600781" id="Shape" fill="#E17107" fill-rule="nonzero"></path>
        </g>
    </g>
</svg>