<?xml version="1.0" encoding="UTF-8"?>
<!DOCTYPE svg PUBLIC "-//W3C//DTD SVG 1.1//EN" "http://www.w3.org/Graphics/SVG/1.1/DTD/svg11.dtd">
<svg xmlns="http://www.w3.org/2000/svg" version="1.1" width="200px" height="200px" style="shape-rendering:geometricPrecision; text-rendering:geometricPrecision; image-rendering:optimizeQuality; fill-rule:evenodd; clip-rule:evenodd" xmlns:xlink="http://www.w3.org/1999/xlink">
<g><path style="opacity:1" fill="#000000" d="M -0.5,-0.5 C 66.1667,-0.5 132.833,-0.5 199.5,-0.5C 199.5,66.1667 199.5,132.833 199.5,199.5C 132.833,199.5 66.1667,199.5 -0.5,199.5C -0.5,132.833 -0.5,66.1667 -0.5,-0.5 Z"/></g>
<g><path style="opacity:1" fill="#f8f8f8" d="M 92.5,26.5 C 97.544,26.1725 102.544,26.5059 107.5,27.5C 118.994,59.1604 130.327,90.8271 141.5,122.5C 153.299,124.299 164.965,126.632 176.5,129.5C 176.5,130.5 176.5,131.5 176.5,132.5C 165.456,130.483 154.456,128.649 143.5,127C 148.923,141.1 154.257,155.267 159.5,169.5C 154.544,170.494 149.544,170.827 144.5,170.5C 139.367,155.103 134.034,139.769 128.5,124.5C 118.828,124.334 109.161,124.5 99.5,125C 92.593,126.644 85.593,127.477 78.5,127.5C 78.3433,126.127 78.51,124.793 79,123.5C 86.3768,116.619 93.8768,109.952 101.5,103.5C 100.619,102.029 99.2861,101.196 97.5,101C 91.3427,100.035 85.3427,100.535 79.5,102.5C 71.2962,125.069 62.9628,147.569 54.5,170C 49.798,170.828 45.1313,170.662 40.5,169.5C 48.902,148.287 56.2353,126.954 62.5,105.5C 48.994,109.667 35.994,115 23.5,121.5C 23.1667,121.167 22.8333,120.833 22.5,120.5C 26.8318,116.346 31.8318,113.179 37.5,111C 47.0507,107.153 56.5507,103.32 66,99.5C 74.8534,75.1358 83.6867,50.8024 92.5,26.5 Z"/></g>
<g><path style="opacity:1" fill="#050505" d="M 99.5,47.5 C 108.864,71.2462 117.864,95.2462 126.5,119.5C 112.033,120.104 97.6992,121.271 83.5,123C 89.9592,118.21 96.1259,113.043 102,107.5C 104.915,102.04 103.415,98.5399 97.5,97C 92.0444,96.677 86.711,96.5103 81.5,96.5C 87.5104,80.132 93.5104,63.7987 99.5,47.5 Z"/></g>
</svg>
