<?xml version="1.0" encoding="UTF-8"?>
<svg width="180px" height="180px" viewBox="0 0 180 180" version="1.1" xmlns="http://www.w3.org/2000/svg" xmlns:xlink="http://www.w3.org/1999/xlink">
    <title>devicon:azure</title>
    <defs>
        <linearGradient x1="58.9722515%" y1="7.41181011%" x2="37.1905394%" y2="103.761482%" id="linearGradient-1">
            <stop stop-color="#114A8B" offset="0%"></stop>
            <stop stop-color="#0669BC" offset="100%"></stop>
        </linearGradient>
        <linearGradient x1="59.7182733%" y1="52.3126701%" x2="52.6911482%" y2="54.8630746%" id="linearGradient-2">
            <stop stop-color="#000000" stop-opacity="0.3" offset="0%"></stop>
            <stop stop-color="#000000" stop-opacity="0.2" offset="7.1%"></stop>
            <stop stop-color="#000000" stop-opacity="0.1" offset="32.1%"></stop>
            <stop stop-color="#000000" stop-opacity="0.05" offset="62.3%"></stop>
            <stop stop-color="#000000" stop-opacity="0" offset="100%"></stop>
        </linearGradient>
        <linearGradient x1="37.2790122%" y1="4.59976842%" x2="62.4735153%" y2="99.9791584%" id="linearGradient-3">
            <stop stop-color="#3CCBF4" offset="0%"></stop>
            <stop stop-color="#2892DF" offset="100%"></stop>
        </linearGradient>
    </defs>
    <g id="Page-1" stroke="none" stroke-width="1" fill="none" fill-rule="evenodd">
        <g id="devicon:azure">
            <rect id="ViewBox" x="0" y="0" width="180" height="180"></rect>
            <path d="M60.3921847,6.2857098 L112.973479,6.2857098 L58.3902571,168.010184 C57.2408961,171.418928 54.0444672,173.713545 50.4471667,173.713545 L9.52719795,173.713545 C6.83099002,173.713545 4.29979319,172.415007 2.72658915,170.225357 C1.15267865,168.03594 0.7311501,165.2219 1.59444675,162.667402 L52.4490943,11.9877786 C53.599691,8.57976644 56.7951837,6.283125 60.3921847,6.283125 L60.3921847,6.2857098 Z" id="Path" fill="url(#linearGradient-1)" fill-rule="nonzero"></path>
            <path d="M136.8,114.759836 L53.4192188,114.759836 C51.8324515,114.756766 50.4056832,115.725714 49.8234492,117.201804 C49.2412152,118.677895 49.6223157,120.359944 50.7839063,121.440937 L104.362031,171.45 C105.922747,172.904053 107.976278,173.713004 110.109375,173.714063 L157.322812,173.714063 L136.8,114.759836 Z" id="Path" fill="#0078D4" fill-rule="nonzero"></path>
            <path d="M60.3921848,6.28563531 C56.7515783,6.27036747 53.5248587,8.62650138 52.4310007,12.098925 L1.65777435,162.530408 C0.73853136,165.095084 1.12637367,167.94679 2.69716892,170.172812 C4.26796418,172.398835 6.82473663,173.720032 9.54916875,173.713569 L51.5263207,173.713569 C54.7093262,173.145418 57.3401918,170.908096 58.4122279,167.857681 L68.5368895,138.017457 L104.704704,171.750389 C106.220027,173.003989 108.120966,173.697272 110.08755,173.713569 L157.12574,173.713569 L136.495159,114.759427 L76.3559096,114.773643 L113.163462,6.28563531 L60.3921848,6.28563531 Z" id="Path" fill="url(#linearGradient-2)" fill-rule="nonzero"></path>
            <path d="M127.551751,11.9800242 C126.40217,8.5772134 123.210748,6.2857098 119.619,6.2857098 L61.0189988,6.2857098 C64.6102719,6.2857098 67.8010286,8.57766364 68.9504575,11.9800242 L119.806398,162.66611 C120.67017,165.221155 120.249724,168.03588 118.677003,170.226978 C117.104282,172.418076 114.572041,173.71613 111.874939,173.71613 L170.477524,173.71613 C173.173523,173.714266 175.703763,172.414622 177.275672,170.224299 C178.846547,168.033976 179.268913,165.220852 178.407691,162.66611 L127.551751,11.9800242 Z" id="Path" fill="url(#linearGradient-3)" fill-rule="nonzero"></path>
        </g>
    </g>
</svg>