<?xml version="1.0" encoding="UTF-8"?>
<!DOCTYPE svg PUBLIC "-//W3C//DTD SVG 1.1//EN" "http://www.w3.org/Graphics/SVG/1.1/DTD/svg11.dtd">
<svg xmlns="http://www.w3.org/2000/svg" version="1.1" width="256px" height="256px" style="shape-rendering:geometricPrecision; text-rendering:geometricPrecision; image-rendering:optimizeQuality; fill-rule:evenodd; clip-rule:evenodd" xmlns:xlink="http://www.w3.org/1999/xlink">
<g><path style="opacity:1" fill="#3569b0" d="M -0.5,-0.5 C 14.5,-0.5 29.5,-0.5 44.5,-0.5C 29.8173,17.8418 14.8173,35.8418 -0.5,53.5C -0.5,35.5 -0.5,17.5 -0.5,-0.5 Z"/></g>
<g><path style="opacity:1" fill="#3260ab" d="M 44.5,-0.5 C 49.5,-0.5 54.5,-0.5 59.5,-0.5C 57.0515,1.45345 55.0515,3.95345 53.5,7C 52.1667,7.33333 50.8333,7.66667 49.5,8C 50.3081,8.30762 50.9747,8.80762 51.5,9.5C 35.7996,26.9726 22.133,43.3059 10.5,58.5C 8.67214,59.7952 6.67214,60.7952 4.5,61.5C 5.02527,62.1924 5.69194,62.6924 6.5,63C 5.18684,65.3258 3.18684,66.6592 0.5,67C 1.79965,68.5788 1.46632,69.7455 -0.5,70.5C -0.5,64.8333 -0.5,59.1667 -0.5,53.5C 14.8173,35.8418 29.8173,17.8418 44.5,-0.5 Z"/></g>
<g><path style="opacity:1" fill="#2f56a6" d="M 59.5,-0.5 C 68.8333,-0.5 78.1667,-0.5 87.5,-0.5C 57.0182,35.7898 27.6848,71.1231 -0.5,105.5C -0.5,93.8333 -0.5,82.1667 -0.5,70.5C 1.46632,69.7455 1.79965,68.5788 0.5,67C 3.18684,66.6592 5.18684,65.3258 6.5,63C 5.69194,62.6924 5.02527,62.1924 4.5,61.5C 6.67214,60.7952 8.67214,59.7952 10.5,58.5C 22.133,43.3059 35.7996,26.9726 51.5,9.5C 50.9747,8.80762 50.3081,8.30762 49.5,8C 50.8333,7.66667 52.1667,7.33333 53.5,7C 55.0515,3.95345 57.0515,1.45345 59.5,-0.5 Z"/></g>
<g><path style="opacity:1" fill="#2c4da1" d="M 87.5,-0.5 C 93.1667,-0.5 98.8333,-0.5 104.5,-0.5C 103.391,0.28997 102.058,0.78997 100.5,1C 104.5,1.66667 104.5,2.33333 100.5,3C 100.833,3.33333 101.167,3.66667 101.5,4C 100.207,4.49001 98.8734,4.65668 97.5,4.5C 97.5,5.5 97.5,6.5 97.5,7.5C 94.4017,7.41253 94.0684,7.91253 96.5,9C 94.913,9.86241 93.2464,10.5291 91.5,11C 92.5,11.3333 93.5,11.6667 94.5,12C 93.0506,13.117 91.3839,13.7837 89.5,14C 90.5,14.3333 91.5,14.6667 92.5,15C 90.913,15.8624 89.2464,16.5291 87.5,17C 87.8333,17.3333 88.1667,17.6667 88.5,18C 87.4431,20.2897 85.4431,22.123 82.5,23.5C 81.6143,24.325 81.281,25.325 81.5,26.5C 77.551,26.6932 77.551,27.1932 81.5,28C 79.913,28.8624 78.2464,29.5291 76.5,30C 77.1667,30.3333 77.8333,30.6667 78.5,31C 76.6161,31.2163 74.9494,31.883 73.5,33C 74.1667,33.3333 74.8333,33.6667 75.5,34C 72.6113,35.0252 70.6113,36.3586 69.5,38C 70.1667,38.3333 70.8333,38.6667 71.5,39C 69.8442,40.8294 67.8442,42.1628 65.5,43C 66.1667,43.3333 66.8333,43.6667 67.5,44C 65.5,46 63.1667,48.3333 60.5,51C 61.2524,51.6708 61.5858,52.5041 61.5,53.5C 52.738,61.5931 45.0713,70.5931 38.5,80.5C 37.603,79.4019 36.7697,79.4019 36,80.5C 32.5316,86.6304 28.0316,91.797 22.5,96C 22.8333,96.3333 23.1667,96.6667 23.5,97C 21.5,97.6667 20.1667,99 19.5,101C 18.1667,101.333 16.8333,101.667 15.5,102C 17.421,103.031 17.421,104.531 15.5,106.5C 12.6511,109.516 9.65106,112.35 6.5,115C 6.83333,115.333 7.16667,115.667 7.5,116C 5.91302,116.862 4.24635,117.529 2.5,118C 3.16667,118.333 3.83333,118.667 4.5,119C 2.59809,120.73 0.93142,122.563 -0.5,124.5C -0.5,118.167 -0.5,111.833 -0.5,105.5C 27.6848,71.1231 57.0182,35.7898 87.5,-0.5 Z"/></g>
<g><path style="opacity:1" fill="#3548a1" d="M 104.5,-0.5 C 129.5,-0.5 154.5,-0.5 179.5,-0.5C 177.346,0.062682 175.346,1.56268 173.5,4C 174.5,4.33333 175.5,4.66667 176.5,5C 173.572,6.33801 170.572,7.50467 167.5,8.5C 167.64,10.1238 166.973,11.2904 165.5,12C 166.833,12.6667 168.167,13.3333 169.5,14C 167.167,14.3333 164.833,14.6667 162.5,15C 164.286,16.293 165.953,16.793 167.5,16.5C 165.234,17.3142 162.9,17.8142 160.5,18C 161.5,18.3333 162.5,18.6667 163.5,19C 161.295,20.0765 159.295,20.7432 157.5,21C 161.5,21.6667 161.5,22.3333 157.5,23C 158.5,23.3333 159.5,23.6667 160.5,24C 158.5,24.6667 156.5,25.3333 154.5,26C 155.5,26.3333 156.5,26.6667 157.5,27C 151.771,27.6715 151.437,28.6715 156.5,30C 153.149,30.0572 150.149,30.8906 147.5,32.5C 115.652,26.6288 86.9855,33.6288 61.5,53.5C 61.5858,52.5041 61.2524,51.6708 60.5,51C 63.1667,48.3333 65.5,46 67.5,44C 66.8333,43.6667 66.1667,43.3333 65.5,43C 67.8442,42.1628 69.8442,40.8294 71.5,39C 70.8333,38.6667 70.1667,38.3333 69.5,38C 70.6113,36.3586 72.6113,35.0252 75.5,34C 74.8333,33.6667 74.1667,33.3333 73.5,33C 74.9494,31.883 76.6161,31.2163 78.5,31C 77.8333,30.6667 77.1667,30.3333 76.5,30C 78.2464,29.5291 79.913,28.8624 81.5,28C 77.551,27.1932 77.551,26.6932 81.5,26.5C 81.281,25.325 81.6143,24.325 82.5,23.5C 85.4431,22.123 87.4431,20.2897 88.5,18C 88.1667,17.6667 87.8333,17.3333 87.5,17C 89.2464,16.5291 90.913,15.8624 92.5,15C 91.5,14.6667 90.5,14.3333 89.5,14C 91.3839,13.7837 93.0506,13.117 94.5,12C 93.5,11.6667 92.5,11.3333 91.5,11C 93.2464,10.5291 94.913,9.86241 96.5,9C 94.0684,7.91253 94.4017,7.41253 97.5,7.5C 97.5,6.5 97.5,5.5 97.5,4.5C 98.8734,4.65668 100.207,4.49001 101.5,4C 101.167,3.66667 100.833,3.33333 100.5,3C 104.5,2.33333 104.5,1.66667 100.5,1C 102.058,0.78997 103.391,0.28997 104.5,-0.5 Z"/></g>
<g><path style="opacity:1" fill="#4b49a4" d="M 179.5,-0.5 C 200.5,-0.5 221.5,-0.5 242.5,-0.5C 240.697,1.48131 239.03,3.64798 237.5,6C 234.456,6.35886 234.122,7.02552 236.5,8C 235.552,8.48278 234.552,8.64945 233.5,8.5C 233.271,10.433 232.438,12.0997 231,13.5C 226.787,17.3767 222.954,21.5434 219.5,26C 219.833,26.3333 220.167,26.6667 220.5,27C 219.552,27.4828 218.552,27.6495 217.5,27.5C 217.271,29.433 216.438,31.0997 215,32.5C 208.301,40.0296 201.801,47.6962 195.5,55.5C 181.631,43.5671 165.631,35.9004 147.5,32.5C 150.149,30.8906 153.149,30.0572 156.5,30C 151.437,28.6715 151.771,27.6715 157.5,27C 156.5,26.6667 155.5,26.3333 154.5,26C 156.5,25.3333 158.5,24.6667 160.5,24C 159.5,23.6667 158.5,23.3333 157.5,23C 161.5,22.3333 161.5,21.6667 157.5,21C 159.295,20.7432 161.295,20.0765 163.5,19C 162.5,18.6667 161.5,18.3333 160.5,18C 162.9,17.8142 165.234,17.3142 167.5,16.5C 165.953,16.793 164.286,16.293 162.5,15C 164.833,14.6667 167.167,14.3333 169.5,14C 168.167,13.3333 166.833,12.6667 165.5,12C 166.973,11.2904 167.64,10.1238 167.5,8.5C 170.572,7.50467 173.572,6.33801 176.5,5C 175.5,4.66667 174.5,4.33333 173.5,4C 175.346,1.56268 177.346,0.062682 179.5,-0.5 Z"/></g>
<g><path style="opacity:1" fill="#5849a6" d="M 242.5,-0.5 C 246.833,-0.5 251.167,-0.5 255.5,-0.5C 255.5,10.8333 255.5,22.1667 255.5,33.5C 253.621,33.3932 253.288,33.8932 254.5,35C 250.82,38.8627 247.153,42.696 243.5,46.5C 244.609,48.2141 243.942,48.8808 241.5,48.5C 241.5,49.5 241.5,50.5 241.5,51.5C 240.5,51.5 239.5,51.5 238.5,51.5C 237.116,55.0569 234.782,57.8903 231.5,60C 231.833,60.3333 232.167,60.6667 232.5,61C 230.493,62.7127 228.493,64.3793 226.5,66C 227.167,66.3333 227.833,66.6667 228.5,67C 226.956,67.2896 225.623,67.9563 224.5,69C 224.833,69.3333 225.167,69.6667 225.5,70C 222.218,72.1097 219.884,74.9431 218.5,78.5C 217.5,78.5 216.5,78.5 215.5,78.5C 209.551,70.2167 202.884,62.5501 195.5,55.5C 201.801,47.6962 208.301,40.0296 215,32.5C 216.438,31.0997 217.271,29.433 217.5,27.5C 218.552,27.6495 219.552,27.4828 220.5,27C 220.167,26.6667 219.833,26.3333 219.5,26C 222.954,21.5434 226.787,17.3767 231,13.5C 232.438,12.0997 233.271,10.433 233.5,8.5C 234.552,8.64945 235.552,8.48278 236.5,8C 234.122,7.02552 234.456,6.35886 237.5,6C 239.03,3.64798 240.697,1.48131 242.5,-0.5 Z"/></g>
<g><path style="opacity:1" fill="#f8f8fa" d="M 147.5,32.5 C 165.631,35.9004 181.631,43.5671 195.5,55.5C 202.884,62.5501 209.551,70.2167 215.5,78.5C 222.727,90.1776 227.394,102.844 229.5,116.5C 231.492,132.406 230.492,148.072 226.5,163.5C 212.769,204.728 184.435,228.895 141.5,236C 93.8917,240.283 58.3917,221.783 35,180.5C 32.7279,175.178 30.5613,169.845 28.5,164.5C 20.4461,135.098 23.7794,107.098 38.5,80.5C 45.0713,70.5931 52.738,61.5931 61.5,53.5C 86.9855,33.6288 115.652,26.6288 147.5,32.5 Z"/></g>
<g><path style="opacity:1" fill="#6248a8" d="M 255.5,33.5 C 255.5,51.1667 255.5,68.8333 255.5,86.5C 253.365,89.4372 250.865,92.1039 248,94.5C 246.562,95.9003 245.729,97.567 245.5,99.5C 243.058,99.1192 242.391,99.7859 243.5,101.5C 242.675,102.386 241.675,102.719 240.5,102.5C 240.64,104.124 239.973,105.29 238.5,106C 238.833,106.333 239.167,106.667 239.5,107C 235.969,110.033 232.635,113.2 229.5,116.5C 227.394,102.844 222.727,90.1776 215.5,78.5C 216.5,78.5 217.5,78.5 218.5,78.5C 219.884,74.9431 222.218,72.1097 225.5,70C 225.167,69.6667 224.833,69.3333 224.5,69C 225.623,67.9563 226.956,67.2896 228.5,67C 227.833,66.6667 227.167,66.3333 226.5,66C 228.493,64.3793 230.493,62.7127 232.5,61C 232.167,60.6667 231.833,60.3333 231.5,60C 234.782,57.8903 237.116,55.0569 238.5,51.5C 239.5,51.5 240.5,51.5 241.5,51.5C 241.5,50.5 241.5,49.5 241.5,48.5C 243.942,48.8808 244.609,48.2141 243.5,46.5C 247.153,42.696 250.82,38.8627 254.5,35C 253.288,33.8932 253.621,33.3932 255.5,33.5 Z"/></g>
<g><path style="opacity:1" fill="#3f48a2" d="M 125.5,37.5 C 137.739,36.9116 149.406,38.9116 160.5,43.5C 158.721,44.6697 157.721,46.3364 157.5,48.5C 156.448,48.3505 155.448,48.5172 154.5,49C 154.833,49.3333 155.167,49.6667 155.5,50C 154.377,51.0437 153.044,51.7104 151.5,52C 152.552,53.7165 151.886,54.7165 149.5,55C 151.878,55.9745 151.544,56.6411 148.5,57C 147.167,57.6667 147.167,58.3333 148.5,59C 144.226,62.7515 140.226,66.7515 136.5,71C 137.345,72.5581 136.679,73.5581 134.5,74C 134.833,74.3333 135.167,74.6667 135.5,75C 134.552,75.4828 133.552,75.6495 132.5,75.5C 124.356,86.5342 115.356,97.5342 105.5,108.5C 100.572,103.072 94.9055,98.5724 88.5,95C 78.172,94.5002 67.8387,94.3335 57.5,94.5C 64.3213,93.6715 71.3213,93.1715 78.5,93C 78.1667,92.6667 77.8333,92.3333 77.5,92C 79.373,90.9153 81.0397,89.582 82.5,88C 82.1667,87.6667 81.8333,87.3333 81.5,87C 84.8431,83.9438 88.1764,80.9438 91.5,78C 91.0426,77.586 90.7093,77.086 90.5,76.5C 92.9939,74.5061 95.3273,72.3394 97.5,70C 97.1667,69.6667 96.8333,69.3333 96.5,69C 97.8333,68.3333 99.1667,67.6667 100.5,67C 99.8333,66.6667 99.1667,66.3333 98.5,66C 101.218,64.9338 103.551,63.2671 105.5,61C 105.167,60.6667 104.833,60.3333 104.5,60C 106.176,58.8231 107.509,57.3231 108.5,55.5C 109.325,54.6143 110.325,54.281 111.5,54.5C 111.5,53.5 111.5,52.5 111.5,51.5C 113.942,51.8808 114.609,51.2141 113.5,49.5C 114.376,48.7492 115.376,48.2492 116.5,48C 116.043,47.586 115.709,47.086 115.5,46.5C 118.593,43.1766 121.927,40.1766 125.5,37.5 Z"/></g>
<g><path style="opacity:1" fill="#3349a0" d="M 125.5,37.5 C 121.927,40.1766 118.593,43.1766 115.5,46.5C 115.709,47.086 116.043,47.586 116.5,48C 115.376,48.2492 114.376,48.7492 113.5,49.5C 114.609,51.2141 113.942,51.8808 111.5,51.5C 111.5,52.5 111.5,53.5 111.5,54.5C 110.325,54.281 109.325,54.6143 108.5,55.5C 107.509,57.3231 106.176,58.8231 104.5,60C 104.833,60.3333 105.167,60.6667 105.5,61C 103.551,63.2671 101.218,64.9338 98.5,66C 99.1667,66.3333 99.8333,66.6667 100.5,67C 99.1667,67.6667 97.8333,68.3333 96.5,69C 96.8333,69.3333 97.1667,69.6667 97.5,70C 95.3273,72.3394 92.9939,74.5061 90.5,76.5C 90.7093,77.086 91.0426,77.586 91.5,78C 88.1764,80.9438 84.8431,83.9438 81.5,87C 81.8333,87.3333 82.1667,87.6667 82.5,88C 81.0397,89.582 79.373,90.9153 77.5,92C 77.8333,92.3333 78.1667,92.6667 78.5,93C 71.3213,93.1715 64.3213,93.6715 57.5,94.5C 53.6828,95.5335 52.6828,97.8668 54.5,101.5C 56.0709,102.309 57.7376,102.643 59.5,102.5C 62.3054,103.319 65.3054,103.819 68.5,104C 65.6147,108.035 62.6147,111.202 59.5,113.5C 59.7093,114.086 60.0426,114.586 60.5,115C 58.1144,115.284 57.4477,116.284 58.5,118C 56.0537,119.604 53.7204,121.437 51.5,123.5C 48.2213,127.753 45.2213,132.087 42.5,136.5C 41.5,136.5 40.5,136.5 39.5,136.5C 37.9508,139.892 35.7841,142.892 33,145.5C 32.51,146.793 32.3433,148.127 32.5,149.5C 27.4604,112.131 39.4604,81.2974 68.5,57C 85.3962,44.4233 104.396,37.9233 125.5,37.5 Z"/></g>
<g><path style="opacity:1" fill="#4c49a4" d="M 160.5,43.5 C 172.273,47.2131 182.606,53.2131 191.5,61.5C 189.545,62.6151 187.712,63.9485 186,65.5C 183.686,69.7882 181.186,73.4549 178.5,76.5C 175.223,78.1767 174.723,80.5101 177,83.5C 180.5,87 184,90.5 187.5,94C 175.43,94.0618 163.43,94.7285 151.5,96C 149.999,97.2515 148.332,98.2515 146.5,99C 139.5,106.667 132.5,114.333 125.5,122C 127.041,123.371 128.375,124.871 129.5,126.5C 126.833,126.5 124.167,126.5 121.5,126.5C 115.824,120.823 110.491,114.823 105.5,108.5C 115.356,97.5342 124.356,86.5342 132.5,75.5C 133.552,75.6495 134.552,75.4828 135.5,75C 135.167,74.6667 134.833,74.3333 134.5,74C 136.679,73.5581 137.345,72.5581 136.5,71C 140.226,66.7515 144.226,62.7515 148.5,59C 147.167,58.3333 147.167,57.6667 148.5,57C 151.544,56.6411 151.878,55.9745 149.5,55C 151.886,54.7165 152.552,53.7165 151.5,52C 153.044,51.7104 154.377,51.0437 155.5,50C 155.167,49.6667 154.833,49.3333 154.5,49C 155.448,48.5172 156.448,48.3505 157.5,48.5C 157.721,46.3364 158.721,44.6697 160.5,43.5 Z"/></g>
<g><path style="opacity:1" fill="#fbfafc" d="M 178.5,76.5 C 187.317,81.4724 194.817,88.1391 201,96.5C 201.418,98.788 200.751,100.788 199,102.5C 192.918,109.253 186.252,115.253 179,120.5C 175.928,119.553 174.928,117.553 176,114.5C 179.131,110.367 182.631,106.534 186.5,103C 176.093,102.074 165.759,102.408 155.5,104C 151.421,106.075 147.921,108.908 145,112.5C 140.664,117.2 136.831,122.2 133.5,127.5C 132.038,128.471 130.705,128.138 129.5,126.5C 128.375,124.871 127.041,123.371 125.5,122C 132.5,114.333 139.5,106.667 146.5,99C 148.332,98.2515 149.999,97.2515 151.5,96C 163.43,94.7285 175.43,94.0618 187.5,94C 184,90.5 180.5,87 177,83.5C 174.723,80.5101 175.223,78.1767 178.5,76.5 Z"/></g>
<g><path style="opacity:1" fill="#fafafa" d="M 57.5,94.5 C 67.8387,94.3335 78.172,94.5002 88.5,95C 94.9055,98.5724 100.572,103.072 105.5,108.5C 110.491,114.823 115.824,120.823 121.5,126.5C 130.879,139.054 141.212,150.887 152.5,162C 153.833,162.667 155.167,163.333 156.5,164C 166.184,164.832 175.851,164.665 185.5,163.5C 181.583,159.755 178.25,155.588 175.5,151C 175.978,149.697 176.645,148.531 177.5,147.5C 179.292,147.366 180.958,147.699 182.5,148.5C 185.474,151.138 188.474,153.805 191.5,156.5C 194.186,160.508 197.353,164.175 201,167.5C 201.667,168.5 201.667,169.5 201,170.5C 195.199,177.302 189.032,183.802 182.5,190C 177.603,192.436 175.436,190.936 176,185.5C 178.797,181.701 181.964,178.201 185.5,175C 175.549,173.802 165.549,173.135 155.5,173C 148.663,171.175 143.163,167.341 139,161.5C 129.482,150.428 119.982,139.428 110.5,128.5C 103.682,120.182 96.349,112.349 88.5,105C 86.913,104.138 85.2464,103.471 83.5,103C 75.5069,102.5 67.5069,102.334 59.5,102.5C 57.7376,102.643 56.0709,102.309 54.5,101.5C 52.6828,97.8668 53.6828,95.5335 57.5,94.5 Z"/></g>
<g><path style="opacity:1" fill="#2f499f" d="M 38.5,80.5 C 23.7794,107.098 20.4461,135.098 28.5,164.5C 18.2631,163.31 8.59644,160.31 -0.5,155.5C -0.5,145.167 -0.5,134.833 -0.5,124.5C 0.93142,122.563 2.59809,120.73 4.5,119C 3.83333,118.667 3.16667,118.333 2.5,118C 4.24635,117.529 5.91302,116.862 7.5,116C 7.16667,115.667 6.83333,115.333 6.5,115C 9.65106,112.35 12.6511,109.516 15.5,106.5C 17.421,104.531 17.421,103.031 15.5,102C 16.8333,101.667 18.1667,101.333 19.5,101C 20.1667,99 21.5,97.6667 23.5,97C 23.1667,96.6667 22.8333,96.3333 22.5,96C 28.0316,91.797 32.5316,86.6304 36,80.5C 36.7697,79.4019 37.603,79.4019 38.5,80.5 Z"/></g>
<g><path style="opacity:1" fill="#5a49a6" d="M 191.5,61.5 C 204.391,73.0702 213.724,87.0702 219.5,103.5C 217.697,104.046 216.03,104.88 214.5,106C 215.634,107.016 215.301,107.683 213.5,108C 214.167,108.333 214.833,108.667 215.5,109C 213.754,109.471 212.087,110.138 210.5,111C 211.833,111.333 213.167,111.667 214.5,112C 210.113,112.438 206.113,113.772 202.5,116C 205.167,117 205.167,118 202.5,119C 204.044,119.29 205.377,119.956 206.5,121C 204.167,121.333 201.833,121.667 199.5,122C 200.345,123.558 199.679,124.558 197.5,125C 198.833,125.667 198.833,126.333 197.5,127C 201.185,127.914 200.852,128.581 196.5,129C 197.5,129.333 198.5,129.667 199.5,130C 197.1,131.057 194.767,131.724 192.5,132C 192.833,132.333 193.167,132.667 193.5,133C 191.114,133.284 190.448,134.284 191.5,136C 190.5,136.333 189.5,136.667 188.5,137C 189.672,137.419 190.672,138.085 191.5,139C 188.096,139.014 185.43,140.347 183.5,143C 184.167,143.333 184.833,143.667 185.5,144C 184.062,144.219 182.729,144.719 181.5,145.5C 182.127,146.417 182.461,147.417 182.5,148.5C 180.958,147.699 179.292,147.366 177.5,147.5C 168.995,142.522 160.328,137.689 151.5,133C 145.703,130.456 139.703,128.623 133.5,127.5C 136.831,122.2 140.664,117.2 145,112.5C 147.921,108.908 151.421,106.075 155.5,104C 165.759,102.408 176.093,102.074 186.5,103C 182.631,106.534 179.131,110.367 176,114.5C 174.928,117.553 175.928,119.553 179,120.5C 186.252,115.253 192.918,109.253 199,102.5C 200.751,100.788 201.418,98.788 201,96.5C 194.817,88.1391 187.317,81.4724 178.5,76.5C 181.186,73.4549 183.686,69.7882 186,65.5C 187.712,63.9485 189.545,62.6151 191.5,61.5 Z"/></g>
<g><path style="opacity:1" fill="#694aa9" d="M 219.5,103.5 C 226.088,123.463 226.088,143.463 219.5,163.5C 215.818,163.665 212.152,163.499 208.5,163C 202.625,161.32 196.959,159.154 191.5,156.5C 188.474,153.805 185.474,151.138 182.5,148.5C 182.461,147.417 182.127,146.417 181.5,145.5C 182.729,144.719 184.062,144.219 185.5,144C 184.833,143.667 184.167,143.333 183.5,143C 185.43,140.347 188.096,139.014 191.5,139C 190.672,138.085 189.672,137.419 188.5,137C 189.5,136.667 190.5,136.333 191.5,136C 190.448,134.284 191.114,133.284 193.5,133C 193.167,132.667 192.833,132.333 192.5,132C 194.767,131.724 197.1,131.057 199.5,130C 198.5,129.667 197.5,129.333 196.5,129C 200.852,128.581 201.185,127.914 197.5,127C 198.833,126.333 198.833,125.667 197.5,125C 199.679,124.558 200.345,123.558 199.5,122C 201.833,121.667 204.167,121.333 206.5,121C 205.377,119.956 204.044,119.29 202.5,119C 205.167,118 205.167,117 202.5,116C 206.113,113.772 210.113,112.438 214.5,112C 213.167,111.667 211.833,111.333 210.5,111C 212.087,110.138 213.754,109.471 215.5,109C 214.833,108.667 214.167,108.333 213.5,108C 215.301,107.683 215.634,107.016 214.5,106C 216.03,104.88 217.697,104.046 219.5,103.5 Z"/></g>
<g><path style="opacity:1" fill="#4048a2" d="M 59.5,102.5 C 67.5069,102.334 75.5069,102.5 83.5,103C 85.2464,103.471 86.913,104.138 88.5,105C 96.349,112.349 103.682,120.182 110.5,128.5C 104.739,130.488 99.0718,132.988 93.5,136C 80.4931,144.172 67.1597,151.839 53.5,159C 47.7203,161.445 41.7203,162.945 35.5,163.5C 34.2455,158.894 33.2455,154.228 32.5,149.5C 32.3433,148.127 32.51,146.793 33,145.5C 35.7841,142.892 37.9508,139.892 39.5,136.5C 40.5,136.5 41.5,136.5 42.5,136.5C 45.2213,132.087 48.2213,127.753 51.5,123.5C 53.7204,121.437 56.0537,119.604 58.5,118C 57.4477,116.284 58.1144,115.284 60.5,115C 60.0426,114.586 59.7093,114.086 59.5,113.5C 62.6147,111.202 65.6147,108.035 68.5,104C 65.3054,103.819 62.3054,103.319 59.5,102.5 Z"/></g>
<g><path style="opacity:1" fill="#7248aa" d="M 255.5,86.5 C 255.5,108.833 255.5,131.167 255.5,153.5C 246.381,158.429 236.714,161.762 226.5,163.5C 230.492,148.072 231.492,132.406 229.5,116.5C 232.635,113.2 235.969,110.033 239.5,107C 239.167,106.667 238.833,106.333 238.5,106C 239.973,105.29 240.64,104.124 240.5,102.5C 241.675,102.719 242.675,102.386 243.5,101.5C 242.391,99.7859 243.058,99.1192 245.5,99.5C 245.729,97.567 246.562,95.9003 248,94.5C 250.865,92.1039 253.365,89.4372 255.5,86.5 Z"/></g>
<g><path style="opacity:1" fill="#262626" d="M 121.5,126.5 C 124.167,126.5 126.833,126.5 129.5,126.5C 130.705,128.138 132.038,128.471 133.5,127.5C 139.703,128.623 145.703,130.456 151.5,133C 160.328,137.689 168.995,142.522 177.5,147.5C 176.645,148.531 175.978,149.697 175.5,151C 178.25,155.588 181.583,159.755 185.5,163.5C 175.851,164.665 166.184,164.832 156.5,164C 155.167,163.333 153.833,162.667 152.5,162C 141.212,150.887 130.879,139.054 121.5,126.5 Z"/></g>
<g><path style="opacity:1" fill="#262626" d="M 110.5,128.5 C 119.982,139.428 129.482,150.428 139,161.5C 143.163,167.341 148.663,171.175 155.5,173C 165.549,173.135 175.549,173.802 185.5,175C 181.964,178.201 178.797,181.701 176,185.5C 175.436,190.936 177.603,192.436 182.5,190C 189.032,183.802 195.199,177.302 201,170.5C 201.667,169.5 201.667,168.5 201,167.5C 197.353,164.175 194.186,160.508 191.5,156.5C 196.959,159.154 202.625,161.32 208.5,163C 212.152,163.499 215.818,163.665 219.5,163.5C 202.905,205.647 171.905,227.98 126.5,230.5C 81.9075,227.384 51.5741,205.051 35.5,163.5C 41.7203,162.945 47.7203,161.445 53.5,159C 67.1597,151.839 80.4931,144.172 93.5,136C 99.0718,132.988 104.739,130.488 110.5,128.5 Z"/></g>
<g><path style="opacity:1" fill="#f8f8f8" d="M 109.5,140.5 C 110.822,140.33 111.989,140.663 113,141.5C 114.751,143.212 115.418,145.212 115,147.5C 108.905,155.599 102.072,163.099 94.5,170C 91.9109,171.197 89.2442,172.197 86.5,173C 75.59,173.82 64.7567,173.653 54,172.5C 53.2419,170.231 53.4086,168.064 54.5,166C 64.4575,164.835 74.4575,164.168 84.5,164C 86.6079,163.64 88.6079,162.973 90.5,162C 97.0416,154.962 103.375,147.795 109.5,140.5 Z"/></g>
<g><path style="opacity:1" fill="#262626" d="M 255.5,153.5 C 255.5,187.5 255.5,221.5 255.5,255.5C 170.167,255.5 84.8333,255.5 -0.5,255.5C -0.5,222.167 -0.5,188.833 -0.5,155.5C 8.59644,160.31 18.2631,163.31 28.5,164.5C 30.5613,169.845 32.7279,175.178 35,180.5C 58.3917,221.783 93.8917,240.283 141.5,236C 184.435,228.895 212.769,204.728 226.5,163.5C 236.714,161.762 246.381,158.429 255.5,153.5 Z"/></g>
</svg>
