<?xml version="1.0" encoding="UTF-8"?>
<svg width="180px" height="180px" viewBox="0 0 180 180" version="1.1" xmlns="http://www.w3.org/2000/svg" xmlns:xlink="http://www.w3.org/1999/xlink">
    <title>simple-icons:coder</title>
    <g id="Page-1" stroke="none" stroke-width="1" fill="none" fill-rule="evenodd">
        <g id="simple-icons:coder">
            <rect id="ViewBox" fill="#000000" x="0" y="0" width="180" height="180" rx="30"></rect>
            <path d="M84.9769231,37 C72.0134615,37 67,44.2116856 67,57.2578252 L67,64 C69.9556582,62.8730511 73.0633954,62.287045 76.1961538,62.2659402 C78.0365385,62.2659402 79.8769231,62.4537445 81.6365385,62.910735 L81.6365385,59.167169 C81.6365385,53.8773476 84.1403846,50.7785764 89.1538462,50.7785764 L91,50.7785764 L91,37.0062601 L84.9769231,37 Z M128.080721,37 L128.080721,50.7955513 L129.92,50.7955513 C135.016937,50.7955513 137.444324,53.8180312 137.444324,59.2108377 L137.444324,77.2955513 C137.444324,85.1527449 139.618018,88.3570752 144.380541,90 C139.618018,91.5551349 137.444324,94.8472551 137.444324,102.704449 L137.444324,116.130028 C137.444324,119.873639 137.444324,123.535731 136.521802,127.285613 C135.610765,130.773132 134.076668,134.031183 132.007207,136.873521 C130.837667,138.477831 129.491919,139.920374 128,141.168954 L128,143 L134.013694,143 C146.969369,143 151.97982,135.776148 151.97982,122.707998 L151.97982,102.240416 C151.97982,98.5845954 153.732613,96.9416706 156.569369,96.9416706 L160,96.9416706 L160,83.1461193 L156.655856,83.1461193 L156.655856,83.0583294 C153.905586,83.0583294 152.072072,81.3213441 152.072072,77.7533128 L152.072072,57.2982726 C152.072072,44.2238523 147.05009,37 134.094414,37 L128.080721,37 Z M97.7443458,54.47 C97.333255,54.47 97,54.8192179 97,55.25 L97,56.75 C97,57.182 97.3320928,57.53 97.7443458,57.53 L116.175494,57.53 C116.587747,57.53 117,57.182 117,56.75 L117,55.25 C117,54.8192179 116.666745,54.47 116.255654,54.47 L97.7443458,54.47 Z M96.7626947,64.473 C96.3414701,64.473 96,64.8222179 96,65.253 L96,66.747 C96,67.185 96.3402792,67.527 96.7626947,67.527 L124.319442,67.527 C124.747724,67.527 125,67.095 125,66.747 L125,65.259 C125,64.8282179 124.65853,64.479 124.237305,64.479 L96.7626947,64.473 Z M75.4875587,72 C64.7045892,72.0427077 54.8917197,78.6635725 50.2191416,89.0489145 C50.1322488,89.0489145 50.1380417,89.1417735 50.0453561,89.1417735 C47.0143252,88.7711159 43.9456443,88.9849887 40.9853367,89.7732148 C30.527521,92.5242719 22.7044152,101.824628 21.2548855,113.229401 C21.0958908,114.362856 21.0107242,115.506741 21,116.652803 C21,120.082396 23.1839049,123.245793 26.3757659,123.697707 C28.2180254,124.013243 30.0964275,123.440275 31.5052626,122.133059 C32.9140977,120.825842 33.7085588,118.918741 33.6747585,116.92519 C33.6747585,116.293748 33.6747585,115.575639 33.7674441,114.944197 C34.5048127,109.08428 38.5407703,104.313572 43.9223123,102.940623 C45.5386578,102.489398 47.2246474,102.398783 48.8752001,102.674427 C53.9960806,103.392536 59.0358612,100.600575 61.2139732,95.7285727 C62.8128002,92.1194524 65.3268976,88.9622461 68.6867513,87.2474496 C72.3588703,85.3462665 76.5881754,85.0856432 80.4404465,86.5231494 C84.4722709,88.0584183 87.4961393,91.3084837 89.3440588,95.3695178 C91.2730783,99.3376929 92.1941416,102.129654 96.307066,102.674427 C97.9869929,102.940623 102.690788,102.860145 104.451815,102.761095 C107.892768,102.761095 111.339515,104.023978 113.772512,106.636411 C115.409237,108.471259 116.541608,110.752287 117.045473,113.229401 C117.817221,117.159172 116.926914,121.252618 114.612476,124.415817 C113.038807,126.580075 110.865318,128.157448 108.402539,128.922574 C107.250513,129.251178 106.061033,129.405383 104.8689,129.380678 L86.3201905,129.380678 C82.6243514,129.380678 79.6873758,126.223472 79.6873758,122.249106 L79.6873758,95.8152411 C79.6779467,94.7253704 78.8535093,93.8443253 77.8336634,93.8342488 L75.2326732,93.8342488 C70.1117927,93.9271079 65.9988684,100.061993 65.9988684,106.555933 L65.9988684,130.272125 C65.9850112,133.639418 67.2258231,136.874142 69.4473667,139.262159 C71.6689102,141.650177 74.6884868,142.995098 77.8394563,143 L107.394583,142.907141 C114.145515,142.146124 120.321568,138.499985 124.518251,132.79789 C128.718069,127.294446 130.647088,120.082396 129.807125,112.678438 C128.463183,101.225826 120.237334,91.6737292 109.659588,89.5070189 C106.786953,88.8544637 103.824423,88.791439 100.929761,89.3213009 C100.842869,89.3213009 100.842869,89.2346325 100.755976,89.2346325 C96.1390733,78.8591856 86.2332977,72 75.4875587,72 M105.667244,74.473 C105.283819,74.5162908 104.994863,74.85671 105,75.259 L105,76.741 C104.998536,76.9489065 105.076634,77.1488474 105.21702,77.2964261 C105.357407,77.4440047 105.548463,77.5270062 105.747765,77.527 L119.252304,77.527 C119.672164,77.527 120,77.089 120,76.747 L120,75.253 C120,74.8222179 119.665245,74.473 119.252304,74.473 L105.667244,74.473 Z" id="Shape" fill="#FFFFFF" fill-rule="nonzero"></path>
        </g>
    </g>
</svg>