<?xml version="1.0" encoding="UTF-8"?>
<svg width="158px" height="158px" viewBox="0 0 158 158" version="1.1" xmlns="http://www.w3.org/2000/svg" xmlns:xlink="http://www.w3.org/1999/xlink">
    <title>dt-logo-symbol</title>
    <g id="Page-1" stroke="none" stroke-width="1" fill="none" fill-rule="evenodd">
        <g id="dt-logo-symbol" transform="translate(0, -0)">
            <rect id="Rectangle" x="0" y="0" width="157.89" height="157.89"></rect>
            <g id="Group" transform="translate(46, 16)" fill="#FF00CF" fill-rule="nonzero">
                <path d="M36.6656288,28.1803941 C36.6656288,32.8598395 32.8578448,36.6656288 28.1803941,36.6656288 L12.8196059,36.6656288 C8.14215519,36.6656288 4.3343712,32.8598395 4.3343712,28.1803941 L4.3343712,12.8216006 C4.3343712,8.14215519 8.14215519,4.33636585 12.8196059,4.33636585 L28.1803941,4.33636585 C32.8578448,4.33636585 36.6656288,8.14215519 36.6656288,12.8216006 L36.6656288,28.1803941 Z M28.8964729,0 L12.1035271,0 C5.41945999,0 0,5.41945999 0,12.1035271 L0,28.8984675 C0,35.5825347 5.41945999,41 12.1035271,41 L28.8964729,41 C35.5825347,41 41,35.5825347 41,28.8984675 L41,12.1035271 C41,5.41945999 35.5825347,0 28.8964729,0" id="Shape"></path>
            </g>
            <g id="Group" transform="translate(85, 60)" fill="#FF00CF" fill-rule="nonzero">
                <path d="M36.6656288,28.1803941 C36.6656288,32.8598395 32.8578448,36.6656288 28.1803941,36.6656288 L12.8196059,36.6656288 C8.14215519,36.6656288 4.3343712,32.8598395 4.3343712,28.1803941 L4.3343712,12.8216006 C4.3343712,8.14215519 8.14215519,4.33636585 12.8196059,4.33636585 L28.1803941,4.33636585 C32.8578448,4.33636585 36.6656288,8.14215519 36.6656288,12.8216006 L36.6656288,28.1803941 Z M28.8964729,0 L12.1035271,0 C5.41945999,0 0,5.41945999 0,12.1035271 L0,28.8984675 C0,35.5825347 5.41945999,41 12.1035271,41 L28.8964729,41 C35.5825347,41 41,35.5825347 41,28.8984675 L41,12.1035271 C41,5.41945999 35.5825347,0 28.8964729,0" id="Shape"></path>
            </g>
            <g id="Group" transform="translate(46, 101)" fill="#FF00CF" fill-rule="nonzero">
                <path d="M36.6656288,28.1803941 C36.6656288,32.8598395 32.8578448,36.6656288 28.1803941,36.6656288 L12.8196059,36.6656288 C8.14215519,36.6656288 4.3343712,32.8598395 4.3343712,28.1803941 L4.3343712,12.8216006 C4.3343712,8.14215519 8.14215519,4.33636585 12.8196059,4.33636585 L28.1803941,4.33636585 C32.8578448,4.33636585 36.6656288,8.14215519 36.6656288,12.8216006 L36.6656288,28.1803941 Z M28.8964729,0 L12.1035271,0 C5.41945999,0 0,5.41945999 0,12.1035271 L0,28.8984675 C0,35.5825347 5.41945999,41 12.1035271,41 L28.8964729,41 C35.5825347,41 41,35.5825347 41,28.8984675 L41,12.1035271 C41,5.41945999 35.5825347,0 28.8964729,0" id="Shape"></path>
            </g>
        </g>
    </g>
</svg>