<?xml version="1.0" encoding="UTF-8"?>
<svg width="180px" height="180px" viewBox="0 0 180 180" version="1.1" xmlns="http://www.w3.org/2000/svg" xmlns:xlink="http://www.w3.org/1999/xlink">
    <title>devicon:digitalocean</title>
    <g id="Page-1" stroke="none" stroke-width="1" fill="none" fill-rule="evenodd">
        <g id="devicon:digitalocean" transform="translate(0.0002, 0)">
            <rect id="ViewBox" x="0" y="0" width="180" height="180"></rect>
            <path d="M90.1996875,144.7875 L55.18125,144.7875 L55.18125,110.421563 L90.2010938,110.421563 L90.1996875,144.7875 Z M55.18125,171.746719 L28.6495313,171.746719 L28.6495313,144.784687 L55.18125,144.784687 L55.18125,171.746719 Z M28.6509375,144.784688 L6.3703125,144.784688 L6.3703125,122.578594 L28.6495312,122.578594 L28.6509375,144.784688 Z M89.67375,179.679375 L89.67375,144.784687 C126.812812,144.784687 155.46375,108.306562 141.138281,69.7078125 C135.829688,55.434375 124.693594,43.8046875 109.835156,38.5157812 C71.6315625,24.7739062 35.0226562,53.319375 35.0226562,89.7989063 L0,89.7989063 C0,31.6448438 56.7703125,-14.3535937 118.85625,4.67859375 C145.915312,13.14 167.138438,34.2871875 175.626562,61.2520312 C194.724844,123.105937 148.563281,179.679375 89.6723437,179.679375 L89.67375,179.679375 Z" id="Shape" fill="#0080FF" fill-rule="nonzero"></path>
        </g>
    </g>
</svg>