<?xml version="1.0" encoding="UTF-8"?>
<svg width="180px" height="180px" viewBox="0 0 180 180" version="1.1" xmlns="http://www.w3.org/2000/svg" xmlns:xlink="http://www.w3.org/1999/xlink">
    <title>skill-icons:discord</title>
    <g id="Page-1" stroke="none" stroke-width="1" fill="none" fill-rule="evenodd">
        <g id="skill-icons:discord">
            <rect id="ViewBox" x="0" y="0" width="180" height="180"></rect>
            <g id="Group" fill-rule="nonzero">
                <rect id="Rectangle" fill="#5865F2" x="0" y="0" width="180" height="180" rx="42.1875"></rect>
                <path d="M138.732188,45.5603906 C129.614989,41.3758767 119.993563,38.3915308 110.108672,36.6820312 C109.924487,36.6484002 109.739398,36.7361339 109.648828,36.9 C108.412734,39.0979687 107.043047,41.9667188 106.084688,44.2209375 C95.2755469,42.6023438 84.5226562,42.6023438 73.9357031,44.2209375 C72.9766406,41.9160938 71.5577344,39.0979687 70.3160156,36.9 C70.2223789,36.7390601 70.0392949,36.6524097 69.8554687,36.6820313 C59.969647,38.3876611 50.3477289,41.3721598 41.2319531,45.5603906 C41.154339,45.5941717 41.0886817,45.6505194 41.0435156,45.7221094 C22.8128906,72.9583594 17.8192969,99.5252344 20.2689844,125.763047 C20.283912,125.892625 20.3496641,126.010979 20.4517969,126.092109 C32.4794531,134.925469 44.1309375,140.288203 55.5658594,143.8425 C55.7480106,143.896412 55.9445192,143.832028 56.0594531,143.680781 C58.764375,139.986563 61.1753906,136.091953 63.2432812,131.99625 C63.3008801,131.88278 63.3071553,131.750083 63.2605215,131.631684 C63.2138876,131.513285 63.1188052,131.420509 62.9992969,131.376797 C59.1742969,129.925547 55.5328125,128.157188 52.0298437,126.148359 C51.9002807,126.072037 51.817229,125.93621 51.808341,125.786101 C51.799453,125.635992 51.8658957,125.491313 51.9855469,125.400234 C52.7245698,124.847865 53.4508537,124.278653 54.1638281,123.693047 C54.2912936,123.588055 54.4671424,123.5641 54.6180469,123.631172 C77.6327344,134.138672 102.547969,134.138672 125.290547,123.631172 C125.442121,123.559887 125.621133,123.581751 125.751094,123.687422 C126.464864,124.276235 127.193054,124.847346 127.935,125.400234 C128.055196,125.490428 128.122627,125.634522 128.11487,125.784594 C128.107112,125.934667 128.025183,126.071039 127.896328,126.148359 C124.391402,128.194931 120.720016,129.942067 116.92125,131.371172 C116.80224,131.417123 116.708326,131.51143 116.662872,131.630631 C116.617417,131.749832 116.624693,131.882724 116.682891,131.99625 C118.786456,136.059567 121.185399,139.96302 123.860391,143.675156 C123.972587,143.830237 124.170607,143.897373 124.353984,143.8425 C135.844453,140.288203 147.495937,134.925469 159.524297,126.092109 C159.628283,126.015046 159.694719,125.897507 159.707109,125.768672 C162.639141,95.4351563 154.795781,69.0855469 138.915,45.7277344 C138.876397,45.651611 138.811418,45.5921309 138.732188,45.5603906 M66.6801563,109.787344 C59.7508594,109.787344 54.0414844,103.426172 54.0414844,95.61375 C54.0414844,87.8013281 59.6404688,81.4401562 66.6801563,81.4401562 C73.7746875,81.4401562 79.4285156,87.8575781 79.3174219,95.61375 C79.3174219,103.426172 73.7191406,109.787344 66.6801563,109.787344 M113.407031,109.787344 C106.477734,109.787344 100.769063,103.426172 100.769063,95.61375 C100.769063,87.8013281 106.367344,81.4401562 113.407031,81.4401562 C120.501563,81.4401562 126.155391,87.8575781 126.045,95.61375 C126.045,103.426172 120.501562,109.787344 113.407031,109.787344" id="Shape" fill="#FFFFFF"></path>
            </g>
        </g>
    </g>
</svg>