<?xml version="1.0" encoding="UTF-8"?>
<!DOCTYPE svg PUBLIC "-//W3C//DTD SVG 1.1//EN" "http://www.w3.org/Graphics/SVG/1.1/DTD/svg11.dtd">
<svg xmlns="http://www.w3.org/2000/svg" version="1.1" width="600px" height="600px" style="shape-rendering:geometricPrecision; text-rendering:geometricPrecision; image-rendering:optimizeQuality; fill-rule:evenodd; clip-rule:evenodd" xmlns:xlink="http://www.w3.org/1999/xlink">
<g><path style="opacity:0.996" fill="#120f0d" d="M 103.5,24.5 C 102.167,26.1667 100.833,27.8333 99.5,29.5C 90.6538,23.5503 80.9871,19.5503 70.5,17.5C 61.5141,15.8242 52.8474,17.1575 44.5,21.5C 37.068,24.2585 31.068,28.9252 26.5,35.5C 22.8442,38.8033 20.1775,42.8033 18.5,47.5C 15.5197,53.2717 14.8531,59.2717 16.5,65.5C 17.6731,74.1899 20.1731,82.5232 24,90.5C 28.7997,99.1021 33.2997,107.769 37.5,116.5C 43.4169,130.252 47.0836,144.585 48.5,159.5C 48.3336,167.84 48.5003,176.173 49,184.5C 49.7172,183.956 50.2172,183.289 50.5,182.5C 56.7416,173.255 63.7416,164.588 71.5,156.5C 73.8333,154.833 75.8333,152.833 77.5,150.5C 81.1219,148.213 84.4552,145.547 87.5,142.5C 92.059,139.061 96.3923,135.394 100.5,131.5C 106.701,128.235 112.368,124.235 117.5,119.5C 121.836,117.668 125.836,115.335 129.5,112.5C 134.701,109.737 139.701,106.737 144.5,103.5C 150.818,101.008 156.818,98.0078 162.5,94.5C 171.693,90.7121 181.027,87.2121 190.5,84C 181.573,80.8573 172.573,78.024 163.5,75.5C 164.351,73.1184 165.684,71.1184 167.5,69.5C 179.806,74.1033 192.306,78.4366 205,82.5C 206.932,87.1391 206.932,91.8058 205,96.5C 191.576,114.592 176.076,130.759 158.5,145C 137.935,161.56 116.269,176.56 93.5,190C 81.7356,197.198 69.0689,201.698 55.5,203.5C 50.607,204.201 46.4403,202.868 43,199.5C 46.677,169.903 42.3437,141.57 30,114.5C 21.7247,100.287 15.3914,85.2871 11,69.5C 8.41089,54.6786 12.2442,41.8452 22.5,31C 14.5541,28.277 11.3875,22.777 13,14.5C 17.2794,5.27749 24.4461,1.77749 34.5,4C 36.6238,5.12173 38.4571,6.62173 40,8.5C 40.7824,11.2165 42.1157,13.5498 44,15.5C 57.4383,10.3958 70.9383,10.2291 84.5,15C 90.9286,18.2143 97.2619,21.3809 103.5,24.5 Z"/></g>
<g><path style="opacity:1" fill="#f1ce35" d="M 31.5,9.5 C 36.0779,10.8432 37.5779,13.8432 36,18.5C 34.5198,21.8172 32.0198,23.8172 28.5,24.5C 26.712,24.7852 25.0453,24.4519 23.5,23.5C 26.1973,19.2758 27.1973,14.6091 26.5,9.5C 28.1667,9.5 29.8333,9.5 31.5,9.5 Z"/></g>
<g><path style="opacity:1" fill="#dab242" d="M 31.5,9.5 C 29.8333,9.5 28.1667,9.5 26.5,9.5C 27.1973,14.6091 26.1973,19.2758 23.5,23.5C 25.0453,24.4519 26.712,24.7852 28.5,24.5C 20.6445,26.1416 17.4778,22.8083 19,14.5C 22.0754,9.52903 26.2421,7.86236 31.5,9.5 Z"/></g>
<g><path style="opacity:1" fill="#d44930" d="M 167.5,69.5 C 165.684,71.1184 164.351,73.1184 163.5,75.5C 160.86,78.8062 157.86,81.8062 154.5,84.5C 149.66,87.9191 144.327,90.2524 138.5,91.5C 130.65,93.0353 122.983,92.3687 115.5,89.5C 112.202,87.5146 108.869,85.5146 105.5,83.5C 104.833,82.1667 103.833,81.1667 102.5,80.5C 98.1031,75.035 94.7698,69.035 92.5,62.5C 89.6611,50.3626 91.9944,39.3626 99.5,29.5C 100.833,27.8333 102.167,26.1667 103.5,24.5C 108.588,18.9514 114.922,15.4514 122.5,14C 146.557,10.7713 162.391,20.6046 170,43.5C 171.243,52.4416 170.41,61.1083 167.5,69.5 Z"/></g>
<g><path style="opacity:1" fill="#d29f54" d="M 70.5,17.5 C 66.774,17.1774 63.1073,17.5108 59.5,18.5C 60.934,20.2199 61.7674,22.2199 62,24.5C 72.0501,36.8822 81.7168,49.5489 91,62.5C 91.69,63.7383 92.19,63.7383 92.5,62.5C 94.7698,69.035 98.1031,75.035 102.5,80.5C 99.3777,81.5612 96.3777,82.8946 93.5,84.5C 92.1779,84.67 91.0113,84.3366 90,83.5C 76.9172,65.0412 63.2506,47.0412 49,29.5C 47.3621,26.9239 45.8621,24.2573 44.5,21.5C 52.8474,17.1575 61.5141,15.8242 70.5,17.5 Z"/></g>
<g><path style="opacity:1" fill="#ddaf4b" d="M 70.5,17.5 C 80.9871,19.5503 90.6538,23.5503 99.5,29.5C 91.9944,39.3626 89.6611,50.3626 92.5,62.5C 92.19,63.7383 91.69,63.7383 91,62.5C 81.7168,49.5489 72.0501,36.8822 62,24.5C 61.7674,22.2199 60.934,20.2199 59.5,18.5C 63.1073,17.5108 66.774,17.1774 70.5,17.5 Z"/></g>
<g><path style="opacity:1" fill="#cd975a" d="M 44.5,21.5 C 45.8621,24.2573 47.3621,26.9239 49,29.5C 63.2506,47.0412 76.9172,65.0412 90,83.5C 91.0113,84.3366 92.1779,84.67 93.5,84.5C 87.238,88.7538 81.238,93.4204 75.5,98.5C 70.7499,90.5451 65.5833,82.8784 60,75.5C 59,74.8333 58,74.1667 57,73.5C 51.9532,65.6404 46.6198,57.9738 41,50.5C 40,49.8333 39,49.1667 38,48.5C 35.6667,44.8333 33.3333,41.1667 31,37.5C 29.6703,36.4178 28.1703,35.7512 26.5,35.5C 31.068,28.9252 37.068,24.2585 44.5,21.5 Z"/></g>
<g><path style="opacity:1" fill="#fefbfb" d="M 129.5,33.5 C 132.167,33.5 134.833,33.5 137.5,33.5C 137.5,46.5 137.5,59.5 137.5,72.5C 134.5,72.5 131.5,72.5 128.5,72.5C 128.5,63.5 128.5,54.5 128.5,45.5C 124.833,45.5 121.167,45.5 117.5,45.5C 117.5,43.5 117.5,41.5 117.5,39.5C 120.941,39.6989 124.274,39.1989 127.5,38C 129.037,36.8904 129.703,35.3904 129.5,33.5 Z"/></g>
<g><path style="opacity:1" fill="#d4a253" d="M 26.5,35.5 C 28.1703,35.7512 29.6703,36.4178 31,37.5C 33.3333,41.1667 35.6667,44.8333 38,48.5C 39,49.1667 40,49.8333 41,50.5C 46.6198,57.9738 51.9532,65.6404 57,73.5C 58,74.1667 59,74.8333 60,75.5C 65.5833,82.8784 70.7499,90.5451 75.5,98.5C 72.7365,101.651 69.7365,104.651 66.5,107.5C 52.5503,88.3773 38.3837,69.3773 24,50.5C 22.5123,48.84 20.679,47.84 18.5,47.5C 20.1775,42.8033 22.8442,38.8033 26.5,35.5 Z"/></g>
<g><path style="opacity:1" fill="#d8a94e" d="M 18.5,47.5 C 20.679,47.84 22.5123,48.84 24,50.5C 38.3837,69.3773 52.5503,88.3773 66.5,107.5C 65.1891,110.135 63.5224,112.469 61.5,114.5C 46.8831,94.7102 32.0498,75.0435 17,55.5C 16.5017,58.8168 16.335,62.1501 16.5,65.5C 14.8531,59.2717 15.5197,53.2717 18.5,47.5 Z"/></g>
<g><path style="opacity:1" fill="#e1b547" d="M 61.5,114.5 C 59.0441,119.246 56.7108,124.079 54.5,129C 56.8062,132.345 58.8062,132.178 60.5,128.5C 62.1927,129.475 63.6927,130.808 65,132.5C 69.4328,138.384 73.5995,144.384 77.5,150.5C 75.8333,152.833 73.8333,154.833 71.5,156.5C 60.5493,141.71 49.3827,127.043 38,112.5C 37.51,113.793 37.3433,115.127 37.5,116.5C 33.2997,107.769 28.7997,99.1021 24,90.5C 20.1731,82.5232 17.6731,74.1899 16.5,65.5C 16.335,62.1501 16.5017,58.8168 17,55.5C 32.0498,75.0435 46.8831,94.7102 61.5,114.5 Z"/></g>
<g><path style="opacity:1" fill="#f1cd38" d="M 163.5,75.5 C 172.573,78.024 181.573,80.8573 190.5,84C 181.027,87.2121 171.693,90.7121 162.5,94.5C 158.894,91.9759 156.228,88.6426 154.5,84.5C 157.86,81.8062 160.86,78.8062 163.5,75.5 Z"/></g>
<g><path style="opacity:1" fill="#100b05" d="M 102.5,80.5 C 103.833,81.1667 104.833,82.1667 105.5,83.5C 102.167,85.5 98.8333,87.5 95.5,89.5C 89.2264,93.4413 83.5597,98.1079 78.5,103.5C 74.1245,106.874 70.4578,110.874 67.5,115.5C 64.4074,119.347 62.0741,123.68 60.5,128.5C 58.8062,132.178 56.8062,132.345 54.5,129C 56.7108,124.079 59.0441,119.246 61.5,114.5C 63.5224,112.469 65.1891,110.135 66.5,107.5C 69.7365,104.651 72.7365,101.651 75.5,98.5C 81.238,93.4204 87.238,88.7538 93.5,84.5C 96.3777,82.8946 99.3777,81.5612 102.5,80.5 Z"/></g>
<g><path style="opacity:1" fill="#d29f54" d="M 105.5,83.5 C 108.869,85.5146 112.202,87.5146 115.5,89.5C 112.093,89.1253 111.593,90.1253 114,92.5C 119.413,99.0666 124.579,105.733 129.5,112.5C 125.836,115.335 121.836,117.668 117.5,119.5C 109.756,109.762 102.422,99.7625 95.5,89.5C 98.8333,87.5 102.167,85.5 105.5,83.5 Z"/></g>
<g><path style="opacity:1" fill="#e4ba44" d="M 154.5,84.5 C 156.228,88.6426 158.894,91.9759 162.5,94.5C 156.818,98.0078 150.818,101.008 144.5,103.5C 141.365,100.192 138.365,96.6919 135.5,93C 136.737,92.7679 137.737,92.2679 138.5,91.5C 144.327,90.2524 149.66,87.9191 154.5,84.5 Z"/></g>
<g><path style="opacity:1" fill="#dbad4c" d="M 115.5,89.5 C 122.983,92.3687 130.65,93.0353 138.5,91.5C 137.737,92.2679 136.737,92.7679 135.5,93C 138.365,96.6919 141.365,100.192 144.5,103.5C 139.701,106.737 134.701,109.737 129.5,112.5C 124.579,105.733 119.413,99.0666 114,92.5C 111.593,90.1253 112.093,89.1253 115.5,89.5 Z"/></g>
<g><path style="opacity:1" fill="#f0a11f" d="M 185.5,111.5 C 181.567,107.151 178.233,102.318 175.5,97C 175.743,96.0979 176.077,95.2646 176.5,94.5C 184.426,90.7472 192.76,88.4139 201.5,87.5C 198.679,97.1315 193.346,105.131 185.5,111.5 Z"/></g>
<g><path style="opacity:1" fill="#cc9659" d="M 95.5,89.5 C 102.422,99.7625 109.756,109.762 117.5,119.5C 112.368,124.235 106.701,128.235 100.5,131.5C 100.649,130.448 100.483,129.448 100,128.5C 97,125.167 94,121.833 91,118.5C 88.6667,114.833 86.3333,111.167 84,107.5C 82.0083,106.335 80.175,105.002 78.5,103.5C 83.5597,98.1079 89.2264,93.4413 95.5,89.5 Z"/></g>
<g><path style="opacity:1" fill="#ea932c" d="M 176.5,94.5 C 176.077,95.2646 175.743,96.0979 175.5,97C 178.233,102.318 181.567,107.151 185.5,111.5C 182.5,115.167 179.167,118.5 175.5,121.5C 170.344,115.192 165.677,108.525 161.5,101.5C 166.07,98.3836 171.07,96.0502 176.5,94.5 Z"/></g>
<g><path style="opacity:1" fill="#d4a253" d="M 78.5,103.5 C 80.175,105.002 82.0083,106.335 84,107.5C 86.3333,111.167 88.6667,114.833 91,118.5C 94,121.833 97,125.167 100,128.5C 100.483,129.448 100.649,130.448 100.5,131.5C 96.3923,135.394 92.059,139.061 87.5,142.5C 87.6567,141.127 87.49,139.793 87,138.5C 81.4241,131.68 76.0907,124.68 71,117.5C 70.1841,116.177 69.0174,115.511 67.5,115.5C 70.4578,110.874 74.1245,106.874 78.5,103.5 Z"/></g>
<g><path style="opacity:1" fill="#e38636" d="M 161.5,101.5 C 165.677,108.525 170.344,115.192 175.5,121.5C 173.12,124.881 170.12,127.547 166.5,129.5C 160.154,122.805 154.487,115.471 149.5,107.5C 153.182,104.992 157.182,102.992 161.5,101.5 Z"/></g>
<g><path style="opacity:1" fill="#de7d3e" d="M 149.5,107.5 C 154.487,115.471 160.154,122.805 166.5,129.5C 163.789,133.212 160.456,136.212 156.5,138.5C 149.299,131.125 143.299,122.792 138.5,113.5C 141.999,111.25 145.665,109.25 149.5,107.5 Z"/></g>
<g><path style="opacity:0.903" fill="#070a0c" d="M 305.5,599.5 C 305.167,599.5 304.833,599.5 304.5,599.5C 303.833,598.167 303.167,598.167 302.5,599.5C 300.833,599.5 299.167,599.5 297.5,599.5C 297.167,598.167 296.833,598.167 296.5,599.5C 293.5,599.5 290.5,599.5 287.5,599.5C 287.167,598.167 286.833,598.167 286.5,599.5C 280.167,599.5 273.833,599.5 267.5,599.5C 266.5,598.167 265.5,598.167 264.5,599.5C 263.833,599.5 263.167,599.5 262.5,599.5C 260.833,598.167 259.167,598.167 257.5,599.5C 256.833,599.5 256.167,599.5 255.5,599.5C 252.834,599.02 250.334,598.02 248,596.5C 141.633,586.208 78.4666,527.041 58.5,419C 58.5012,417.601 58.8346,416.101 59.5,414.5C 58.7647,410.578 57.7647,406.744 56.5,403C 57.1276,400.63 57.4609,398.297 57.5,396C 55.8654,384.869 54.8654,373.869 54.5,363C 55.1959,358.866 55.8625,354.7 56.5,350.5C 55.6694,317.992 65.1694,287.992 85,260.5C 105.571,238.962 130.738,225.962 160.5,221.5C 161.308,211.88 161.808,202.214 162,192.5C 162.388,191.572 163.055,190.905 164,190.5C 190.475,185.908 216.975,181.408 243.5,177C 244.565,172.879 244.565,168.546 243.5,164C 244.297,160.255 244.797,156.421 245,152.5C 267.565,145.557 290.732,139.057 314.5,133C 333.536,126.932 352.536,120.766 371.5,114.5C 388.743,117.568 405.909,120.901 423,124.5C 450.902,111.704 473.402,118.037 490.5,143.5C 495.628,151.428 498.795,160.095 500,169.5C 508.905,141.758 527.738,125.758 556.5,121.5C 573.978,122.09 586.311,130.59 593.5,147C 593.566,152.298 593.4,157.798 593,163.5C 590.521,172.275 586.521,180.275 581,187.5C 563.291,206.208 545.291,224.542 527,242.5C 520.087,252.166 519.754,262.166 526,272.5C 537.184,287.705 545.518,304.372 551,322.5C 574.311,401.394 554.811,468.394 492.5,523.5C 438.373,568.377 376.04,593.71 305.5,599.5 Z M 446.5,237.5 C 450.023,242.999 450.19,248.665 447,254.5C 446.501,248.843 446.334,243.176 446.5,237.5 Z"/></g>
<g><path style="opacity:1" fill="#d87247" d="M 138.5,113.5 C 143.299,122.792 149.299,131.125 156.5,138.5C 154.54,140.156 152.54,141.823 150.5,143.5C 149.167,142.067 147.667,140.733 146,139.5C 140.525,132.538 135.692,125.204 131.5,117.5C 133.67,115.914 136.004,114.58 138.5,113.5 Z"/></g>
<g><path style="opacity:1" fill="#2551df" d="M 370.5,118.5 C 393.867,123.284 417.201,128.284 440.5,133.5C 439.732,137.445 439.232,141.445 439,145.5C 438.5,164.164 438.333,182.83 438.5,201.5C 415.937,198.197 393.604,193.864 371.5,188.5C 371.813,165.122 371.48,141.788 370.5,118.5 Z"/></g>
<g><path style="opacity:1" fill="#dcae4b" d="M 67.5,115.5 C 69.0174,115.511 70.1841,116.177 71,117.5C 76.0907,124.68 81.4241,131.68 87,138.5C 87.49,139.793 87.6567,141.127 87.5,142.5C 84.4552,145.547 81.1219,148.213 77.5,150.5C 73.5995,144.384 69.4328,138.384 65,132.5C 63.6927,130.808 62.1927,129.475 60.5,128.5C 62.0741,123.68 64.4074,119.347 67.5,115.5 Z"/></g>
<g><path style="opacity:1" fill="#7d9efb" d="M 313.5,176.5 C 305.451,175.325 297.451,173.825 289.5,172C 284.833,171.333 280.167,171.333 275.5,172C 273.942,172.21 272.609,172.71 271.5,173.5C 266.18,174.26 260.847,174.927 255.5,175.5C 254.167,175.5 252.833,175.5 251.5,175.5C 251.5,169.5 251.5,163.5 251.5,157.5C 257.576,154.904 263.91,152.737 270.5,151C 303.571,143.475 335.904,133.642 367.5,121.5C 366.707,143.342 366.04,165.008 365.5,186.5C 348.157,183.164 330.823,179.83 313.5,176.5 Z"/></g>
<g><path style="opacity:1" fill="#d3694e" d="M 131.5,117.5 C 135.692,125.204 140.525,132.538 146,139.5C 147.667,140.733 149.167,142.067 150.5,143.5C 148.14,145.853 145.473,147.853 142.5,149.5C 135.431,141.034 129.098,132.034 123.5,122.5C 126.131,120.847 128.797,119.181 131.5,117.5 Z"/></g>
<g><path style="opacity:1" fill="#eac23f" d="M 71.5,156.5 C 63.7416,164.588 56.7416,173.255 50.5,182.5C 49.8333,174.833 49.1667,167.167 48.5,159.5C 47.0836,144.585 43.4169,130.252 37.5,116.5C 37.3433,115.127 37.51,113.793 38,112.5C 49.3827,127.043 60.5493,141.71 71.5,156.5 Z"/></g>
<g><path style="opacity:1" fill="#cc5d57" d="M 123.5,122.5 C 129.098,132.034 135.431,141.034 142.5,149.5C 136.078,155.55 129.078,160.883 121.5,165.5C 117.582,159.067 113.415,152.733 109,146.5C 106.699,143.494 104.199,140.828 101.5,138.5C 108.441,132.689 115.774,127.356 123.5,122.5 Z"/></g>
<g><path style="opacity:1" fill="#2653e4" d="M 392.5,175.5 C 392.205,177.735 392.539,179.735 393.5,181.5C 393.5,182.833 393.5,184.167 393.5,185.5C 390.117,185.743 386.951,185.076 384,183.5C 383.029,166.179 382.529,148.846 382.5,131.5C 385.833,132.167 389.167,132.833 392.5,133.5C 392.5,147.5 392.5,161.5 392.5,175.5 Z"/></g>
<g><path style="opacity:1" fill="#6fdbfe" d="M 544.5,363.5 C 544.966,369.491 545.299,375.491 545.5,381.5C 545.726,403.206 541.893,424.206 534,444.5C 524.444,464.585 512.11,482.919 497,499.5C 463.272,533.608 423.438,557.274 377.5,570.5C 334.967,577.639 295.967,569.139 260.5,545C 239.618,527.426 226.118,505.259 220,478.5C 217.686,468.618 216.02,458.618 215,448.5C 213.941,429.085 214.441,409.752 216.5,390.5C 214.912,388.384 212.912,388.051 210.5,389.5C 191.198,407.458 168.532,419.291 142.5,425C 113.02,429.74 89.5196,420.24 72,396.5C 69.5281,379.39 69.3614,362.89 71.5,347C 76.4224,262.645 121.756,223.479 207.5,229.5C 224.666,231.77 241.666,233.937 258.5,236C 293.558,242.61 328.225,249.61 362.5,257C 367.519,257.411 372.519,257.911 377.5,258.5C 398.123,263.847 419.123,266.013 440.5,265C 455.227,259.939 461.06,249.773 458,234.5C 454.754,226.079 450.754,218.079 446,210.5C 445.167,183.827 445.333,157.16 446.5,130.5C 450.35,131.982 454.35,132.816 458.5,133C 460.221,134.527 462.221,135.527 464.5,136C 476.87,146.037 485.037,158.87 489,174.5C 489.464,179.096 490.797,183.429 493,187.5C 493.886,192.47 494.552,197.47 495,202.5C 497.586,190.74 500.586,179.073 504,167.5C 513.444,146.36 529.444,134.027 552,130.5C 577.004,131.511 585.337,143.844 577,167.5C 565.802,184.035 552.469,198.702 537,211.5C 526.861,222.915 519.528,235.915 515,250.5C 514.728,257.512 515.061,264.512 516,271.5C 523.484,290.429 530.817,309.429 538,328.5C 541.422,339.959 543.588,351.626 544.5,363.5 Z M 446.5,237.5 C 446.334,243.176 446.501,248.843 447,254.5C 450.19,248.665 450.023,242.999 446.5,237.5 Z"/></g>
<g><path style="opacity:1" fill="#0a0919" d="M 393.5,167.5 C 393.806,170.385 393.473,173.052 392.5,175.5C 392.5,161.5 392.5,147.5 392.5,133.5C 389.167,132.833 385.833,132.167 382.5,131.5C 382.529,148.846 383.029,166.179 384,183.5C 386.951,185.076 390.117,185.743 393.5,185.5C 393.5,184.167 393.5,182.833 393.5,181.5C 393.328,180.508 393.662,179.842 394.5,179.5C 394.5,182.167 394.5,184.833 394.5,187.5C 390.208,186.942 386.041,185.942 382,184.5C 381.167,166.158 381.334,147.824 382.5,129.5C 386.074,130.313 389.574,131.313 393,132.5C 393.5,144.162 393.667,155.829 393.5,167.5 Z"/></g>
<g><path style="opacity:1" fill="#2552e3" d="M 401.5,135.5 C 404.821,136.495 408.154,137.495 411.5,138.5C 412.342,146.494 413.008,154.494 413.5,162.5C 413.5,171.167 413.5,179.833 413.5,188.5C 409.833,187.833 406.167,187.167 402.5,186.5C 402.403,169.494 402.07,152.494 401.5,135.5 Z"/></g>
<g><path style="opacity:1" fill="#cf654f" d="M 101.5,138.5 C 104.199,140.828 106.699,143.494 109,146.5C 113.415,152.733 117.582,159.067 121.5,165.5C 115.609,169.367 109.775,173.367 104,177.5C 111.918,163.652 109.418,151.819 96.5,142C 97.7893,140.198 99.4559,139.031 101.5,138.5 Z"/></g>
<g><path style="opacity:1" fill="#0d0f26" d="M 430.5,155.5 C 430.813,159.042 430.479,162.375 429.5,165.5C 429.5,157.5 429.5,149.5 429.5,141.5C 426.873,140.908 424.206,140.575 421.5,140.5C 421.167,156.847 421.501,173.18 422.5,189.5C 424.53,190.172 426.53,190.838 428.5,191.5C 428.5,191.833 428.5,192.167 428.5,192.5C 425.904,191.735 423.237,191.401 420.5,191.5C 420.658,173.82 420.325,156.154 419.5,138.5C 422.959,138.531 426.292,139.198 429.5,140.5C 430.494,145.456 430.827,150.456 430.5,155.5 Z"/></g>
<g><path style="opacity:1" fill="#2653e4" d="M 429.5,165.5 C 429.826,174.349 429.493,183.016 428.5,191.5C 426.53,190.838 424.53,190.172 422.5,189.5C 421.501,173.18 421.167,156.847 421.5,140.5C 424.206,140.575 426.873,140.908 429.5,141.5C 429.5,149.5 429.5,157.5 429.5,165.5 Z"/></g>
<g><path style="opacity:1" fill="#0e173e" d="M 401.5,135.5 C 401.917,134.876 402.584,134.543 403.5,134.5C 407.268,135.309 410.768,136.643 414,138.5C 414.5,146.493 414.666,154.493 414.5,162.5C 414.167,162.5 413.833,162.5 413.5,162.5C 413.008,154.494 412.342,146.494 411.5,138.5C 408.154,137.495 404.821,136.495 401.5,135.5 Z"/></g>
<g><path style="opacity:1" fill="#f2d036" d="M 94.5,147.5 C 106.718,158.481 106.384,169.314 93.5,180C 91.9221,181.094 90.2554,181.928 88.5,182.5C 87.7611,182.631 87.0944,182.464 86.5,182C 93.1973,171.87 95.1973,160.87 92.5,149C 92.8361,147.97 93.5028,147.47 94.5,147.5 Z"/></g>
<g><path style="opacity:1" fill="#ebc33f" d="M 94.5,147.5 C 93.5028,147.47 92.8361,147.97 92.5,149C 95.1973,160.87 93.1973,171.87 86.5,182C 87.0944,182.464 87.7611,182.631 88.5,182.5C 85.32,184.867 81.6533,185.867 77.5,185.5C 74.1864,185.657 71.1864,184.991 68.5,183.5C 76.8753,175.73 81.2087,166.063 81.5,154.5C 84.6043,151.899 87.6043,149.066 90.5,146C 92.1398,145.652 93.4732,146.152 94.5,147.5 Z"/></g>
<g><path style="opacity:1" fill="#ddb146" d="M 81.5,154.5 C 81.2087,166.063 76.8753,175.73 68.5,183.5C 64.5508,182.072 62.3841,179.405 62,175.5C 67.6315,167.702 74.1315,160.702 81.5,154.5 Z"/></g>
<g><path style="opacity:1" fill="#3b4a75" d="M 251.5,157.5 C 251.5,163.5 251.5,169.5 251.5,175.5C 252.833,175.5 254.167,175.5 255.5,175.5C 254.081,176.451 252.415,176.784 250.5,176.5C 250.177,169.978 250.51,163.645 251.5,157.5 Z"/></g>
<g><path style="opacity:1" fill="#0f1c4c" d="M 430.5,155.5 C 431.66,167.66 431.827,179.993 431,192.5C 430.023,193.774 429.189,193.774 428.5,192.5C 428.5,192.167 428.5,191.833 428.5,191.5C 429.493,183.016 429.826,174.349 429.5,165.5C 430.479,162.375 430.813,159.042 430.5,155.5 Z"/></g>
<g><path style="opacity:1" fill="#534712" d="M 48.5,159.5 C 49.1667,167.167 49.8333,174.833 50.5,182.5C 50.2172,183.289 49.7172,183.956 49,184.5C 48.5003,176.173 48.3336,167.84 48.5,159.5 Z"/></g>
<g><path style="opacity:1" fill="#0d1e53" d="M 393.5,167.5 C 394.483,171.298 394.817,175.298 394.5,179.5C 393.662,179.842 393.328,180.508 393.5,181.5C 392.539,179.735 392.205,177.735 392.5,175.5C 393.473,173.052 393.806,170.385 393.5,167.5 Z"/></g>
<g><path style="opacity:1" fill="#2551df" d="M 312.5,180.5 C 330.082,184.55 347.749,188.216 365.5,191.5C 365.5,195.833 365.5,200.167 365.5,204.5C 365.625,220.286 365.958,235.953 366.5,251.5C 363.14,251.384 359.807,251.051 356.5,250.5C 356.666,244.158 356.5,237.825 356,231.5C 355.501,237.491 355.334,243.491 355.5,249.5C 350.907,248.815 346.407,247.815 342,246.5C 341.167,179.837 340.667,179.837 340.5,246.5C 337.52,246.38 334.687,245.713 332,244.5C 331.5,230.504 331.333,216.504 331.5,202.5C 332.523,199.607 332.523,196.774 331.5,194C 325.75,193.566 320.083,192.732 314.5,191.5C 314.5,197.167 314.5,202.833 314.5,208.5C 315.476,219.085 315.809,229.752 315.5,240.5C 313.139,240.326 310.806,239.993 308.5,239.5C 307.864,232.067 307.198,224.734 306.5,217.5C 306.666,207.828 306.5,198.161 306,188.5C 302.878,187.355 299.711,186.355 296.5,185.5C 295.09,184.172 293.924,184.505 293,186.5C 292.501,191.489 292.334,196.489 292.5,201.5C 292.828,213.012 292.495,224.346 291.5,235.5C 288.794,235.425 286.127,235.092 283.5,234.5C 283.213,214.477 283.213,194.477 283.5,174.5C 293.322,175.776 302.989,177.776 312.5,180.5 Z"/></g>
<g><path style="opacity:1" fill="#7d9efb" d="M 276.5,176.5 C 278.482,190.127 279.149,204.127 278.5,218.5C 278.5,223.167 278.5,227.833 278.5,232.5C 277.5,232.5 276.5,232.5 275.5,232.5C 260.007,229.105 244.34,226.771 228.5,225.5C 208.599,222.373 188.599,221.373 168.5,222.5C 167.88,213.399 168.546,204.566 170.5,196C 206.109,190.677 241.442,184.177 276.5,176.5 Z"/></g>
<g><path style="opacity:1" fill="#e99a22" d="M 56.5,181.5 C 59.9938,184.144 63.6605,186.644 67.5,189C 71.0836,190.073 74.7502,190.74 78.5,191C 69.7101,195.598 60.3768,197.932 50.5,198C 49.6919,197.692 49.0253,197.192 48.5,196.5C 51.2239,191.466 53.8906,186.466 56.5,181.5 Z"/></g>
<g><path style="opacity:1" fill="#2652e3" d="M 295.5,186.5 C 298.707,187.402 301.873,188.402 305,189.5C 305.5,200.495 305.667,211.495 305.5,222.5C 305.195,227.762 305.529,232.928 306.5,238C 305.906,238.464 305.239,238.631 304.5,238.5C 301.097,238.149 297.763,237.482 294.5,236.5C 294.5,225.833 294.5,215.167 294.5,204.5C 294.177,198.31 294.51,192.31 295.5,186.5 Z"/></g>
<g><path style="opacity:1" fill="#0d112a" d="M 401.5,135.5 C 402.07,152.494 402.403,169.494 402.5,186.5C 406.167,187.167 409.833,187.833 413.5,188.5C 413.5,179.833 413.5,171.167 413.5,162.5C 413.833,162.5 414.167,162.5 414.5,162.5C 414.666,171.506 414.5,180.506 414,189.5C 413.586,189.957 413.086,190.291 412.5,190.5C 408.649,188.871 404.649,187.871 400.5,187.5C 400.17,169.992 400.503,152.659 401.5,135.5 Z"/></g>
<g><path style="opacity:1" fill="#2653e4" d="M 330.5,202.5 C 330.667,216.504 330.5,230.504 330,244.5C 325.849,243.556 321.682,242.556 317.5,241.5C 316.501,230.186 316.168,218.853 316.5,207.5C 316.173,202.456 316.506,197.456 317.5,192.5C 321.618,194.391 325.951,195.391 330.5,195.5C 330.5,197.833 330.5,200.167 330.5,202.5 Z"/></g>
<g><path style="opacity:1" fill="#2552e2" d="M 438.5,230.5 C 438.173,239.682 438.507,248.682 439.5,257.5C 437.331,259.416 434.665,260.75 431.5,261.5C 430.506,256.544 430.173,251.544 430.5,246.5C 430.5,239.167 430.5,231.833 430.5,224.5C 430.665,221.482 430.498,218.482 430,215.5C 426.6,214.46 423.1,213.794 419.5,213.5C 418.501,228.422 418.168,244.088 418.5,260.5C 417.5,260.5 416.5,260.5 415.5,260.5C 410.781,260.112 406.114,259.445 401.5,258.5C 401.5,242.833 401.5,227.167 401.5,211.5C 404.786,212.207 408.119,212.54 411.5,212.5C 411.667,227.842 412.167,243.176 413,258.5C 413.667,242.833 413.667,227.167 413,211.5C 409.209,210.725 405.376,210.059 401.5,209.5C 399.515,225.132 398.849,241.132 399.5,257.5C 398.5,257.5 397.5,257.5 396.5,257.5C 395.833,257.5 395.167,257.5 394.5,257.5C 394.5,247.5 394.5,237.5 394.5,227.5C 394.666,221.158 394.5,214.825 394,208.5C 392.301,207.594 390.467,207.261 388.5,207.5C 386.039,206.469 383.373,205.802 380.5,205.5C 380.5,214.5 380.5,223.5 380.5,232.5C 380.5,239.833 380.5,247.167 380.5,254.5C 379.167,254.5 377.833,254.5 376.5,254.5C 375.122,253.766 373.622,253.099 372,252.5C 371.5,236.837 371.333,221.17 371.5,205.5C 371.5,201.5 371.5,197.5 371.5,193.5C 393.717,198.294 416.05,202.628 438.5,206.5C 438.5,214.5 438.5,222.5 438.5,230.5 Z"/></g>
<g><path style="opacity:1" fill="#0d1639" d="M 331.5,202.5 C 331.167,202.5 330.833,202.5 330.5,202.5C 330.5,200.167 330.5,197.833 330.5,195.5C 325.951,195.391 321.618,194.391 317.5,192.5C 316.506,197.456 316.173,202.456 316.5,207.5C 315.833,207.833 315.167,208.167 314.5,208.5C 314.5,202.833 314.5,197.167 314.5,191.5C 320.083,192.732 325.75,193.566 331.5,194C 332.523,196.774 332.523,199.607 331.5,202.5 Z"/></g>
<g><path style="opacity:1" fill="#132972" d="M 296.5,185.5 C 295.833,185.5 295.5,185.833 295.5,186.5C 294.51,192.31 294.177,198.31 294.5,204.5C 293.833,203.5 293.167,202.5 292.5,201.5C 292.334,196.489 292.501,191.489 293,186.5C 293.924,184.505 295.09,184.172 296.5,185.5 Z"/></g>
<g><path style="opacity:1" fill="#060715" d="M 295.5,186.5 C 295.5,185.833 295.833,185.5 296.5,185.5C 299.711,186.355 302.878,187.355 306,188.5C 306.5,198.161 306.666,207.828 306.5,217.5C 306.784,219.415 306.451,221.081 305.5,222.5C 305.667,211.495 305.5,200.495 305,189.5C 301.873,188.402 298.707,187.402 295.5,186.5 Z"/></g>
<g><path style="opacity:1" fill="#070716" d="M 342.5,196.5 C 342.735,195.903 343.235,195.57 344,195.5C 347.808,196.532 351.475,197.865 355,199.5C 355.219,208.861 355.719,218.194 356.5,227.5C 356.167,228.167 355.833,228.833 355.5,229.5C 354.668,219.851 354.168,210.184 354,200.5C 350.128,199.265 346.295,197.932 342.5,196.5 Z"/></g>
<g><path style="opacity:1" fill="#060910" d="M 313.5,176.5 C 313.167,177.833 312.833,179.167 312.5,180.5C 302.989,177.776 293.322,175.776 283.5,174.5C 283.213,194.477 283.213,214.477 283.5,234.5C 286.127,235.092 288.794,235.425 291.5,235.5C 292.209,236.404 293.209,236.737 294.5,236.5C 297.763,237.482 301.097,238.149 304.5,238.5C 305.568,239.434 306.901,239.768 308.5,239.5C 310.806,239.993 313.139,240.326 315.5,240.5C 315.809,229.752 315.476,219.085 314.5,208.5C 315.167,208.167 315.833,207.833 316.5,207.5C 316.168,218.853 316.501,230.186 317.5,241.5C 321.682,242.556 325.849,243.556 330,244.5C 330.5,230.504 330.667,216.504 330.5,202.5C 330.833,202.5 331.167,202.5 331.5,202.5C 331.333,216.504 331.5,230.504 332,244.5C 334.687,245.713 337.52,246.38 340.5,246.5C 340.667,179.837 341.167,179.837 342,246.5C 346.407,247.815 350.907,248.815 355.5,249.5C 355.334,243.491 355.501,237.491 356,231.5C 356.5,237.825 356.666,244.158 356.5,250.5C 359.807,251.051 363.14,251.384 366.5,251.5C 365.958,235.953 365.625,220.286 365.5,204.5C 366.151,205.091 366.818,205.757 367.5,206.5C 368.333,205.5 369.167,204.5 370,203.5C 370.278,204.416 370.778,205.082 371.5,205.5C 371.333,221.17 371.5,236.837 372,252.5C 373.622,253.099 375.122,253.766 376.5,254.5C 375.761,254.369 375.094,254.536 374.5,255C 376.056,255.72 377.056,256.887 377.5,258.5C 372.519,257.911 367.519,257.411 362.5,257C 328.225,249.61 293.558,242.61 258.5,236C 241.666,233.937 224.666,231.77 207.5,229.5C 208.47,228.371 209.636,227.371 211,226.5C 211.546,227.289 212.213,228.289 213,229.5C 213.451,227.071 214.285,226.904 215.5,229C 215.167,229.333 214.833,229.667 214.5,230C 216.81,230.497 219.143,230.663 221.5,230.5C 221.5,229.5 221.5,228.5 221.5,227.5C 224.067,227.279 226.401,226.612 228.5,225.5C 244.34,226.771 260.007,229.105 275.5,232.5C 276.568,233.434 277.901,233.768 279.5,233.5C 279.821,228.305 279.487,223.305 278.5,218.5C 279.149,204.127 278.482,190.127 276.5,176.5C 275.33,174.721 273.664,173.721 271.5,173.5C 272.609,172.71 273.942,172.21 275.5,172C 280.167,171.333 284.833,171.333 289.5,172C 297.451,173.825 305.451,175.325 313.5,176.5 Z"/></g>
<g><path style="opacity:1" fill="#2653e5" d="M 386.5,207.5 C 388.343,208.283 390.343,208.95 392.5,209.5C 393.452,211.045 393.785,212.712 393.5,214.5C 392.17,228.235 392.17,242.069 393.5,256C 392.552,256.483 391.552,256.649 390.5,256.5C 387.482,256.296 384.482,255.963 381.5,255.5C 381.5,251.833 381.5,248.167 381.5,244.5C 382.495,232.345 382.829,220.011 382.5,207.5C 383.833,207.5 385.167,207.5 386.5,207.5 Z"/></g>
<g><path style="opacity:1" fill="#060818" d="M 419.5,213.5 C 423.1,213.794 426.6,214.46 430,215.5C 430.498,218.482 430.665,221.482 430.5,224.5C 429.532,222.393 429.198,220.059 429.5,217.5C 427.562,215.837 425.228,215.171 422.5,215.5C 421.5,214.833 420.5,214.167 419.5,213.5 Z"/></g>
<g><path style="opacity:1" fill="#050818" d="M 386.5,207.5 C 387.167,207.5 387.833,207.5 388.5,207.5C 390.467,207.261 392.301,207.594 394,208.5C 394.5,214.825 394.666,221.158 394.5,227.5C 393.515,223.366 393.182,219.032 393.5,214.5C 393.785,212.712 393.452,211.045 392.5,209.5C 390.343,208.95 388.343,208.283 386.5,207.5 Z"/></g>
<g><path style="opacity:1" fill="#2653e4" d="M 422.5,215.5 C 425.228,215.171 427.562,215.837 429.5,217.5C 428.167,228.167 428.167,238.833 429.5,249.5C 429.5,253.5 429.5,257.5 429.5,261.5C 426.5,261.5 423.5,261.5 420.5,261.5C 420.5,246.5 420.5,231.5 420.5,216.5C 420.842,215.662 421.508,215.328 422.5,215.5 Z"/></g>
<g><path style="opacity:1" fill="#0d173b" d="M 401.5,209.5 C 405.376,210.059 409.209,210.725 413,211.5C 413.667,227.167 413.667,242.833 413,258.5C 412.167,243.176 411.667,227.842 411.5,212.5C 408.119,212.54 404.786,212.207 401.5,211.5C 401.5,210.833 401.5,210.167 401.5,209.5 Z"/></g>
<g><path style="opacity:1" fill="#0e1e55" d="M 388.5,207.5 C 387.833,207.5 387.167,207.5 386.5,207.5C 385.167,207.5 383.833,207.5 382.5,207.5C 382.829,220.011 382.495,232.345 381.5,244.5C 381.817,240.298 381.483,236.298 380.5,232.5C 380.5,223.5 380.5,214.5 380.5,205.5C 383.373,205.802 386.039,206.469 388.5,207.5 Z"/></g>
<g><path style="opacity:1" fill="#0d1d51" d="M 429.5,217.5 C 429.198,220.059 429.532,222.393 430.5,224.5C 430.5,231.833 430.5,239.167 430.5,246.5C 429.596,247.209 429.263,248.209 429.5,249.5C 428.167,238.833 428.167,228.167 429.5,217.5 Z"/></g>
<g><path style="opacity:1" fill="#303c5f" d="M 278.5,218.5 C 279.487,223.305 279.821,228.305 279.5,233.5C 277.901,233.768 276.568,233.434 275.5,232.5C 276.5,232.5 277.5,232.5 278.5,232.5C 278.5,227.833 278.5,223.167 278.5,218.5 Z"/></g>
<g><path style="opacity:1" fill="#183696" d="M 419.5,213.5 C 420.5,214.167 421.5,214.833 422.5,215.5C 421.508,215.328 420.842,215.662 420.5,216.5C 419.504,231.324 419.171,246.324 419.5,261.5C 417.901,261.768 416.568,261.434 415.5,260.5C 416.5,260.5 417.5,260.5 418.5,260.5C 418.168,244.088 418.501,228.422 419.5,213.5 Z"/></g>
<g><path style="opacity:1" fill="#0d1b49" d="M 292.5,201.5 C 293.167,202.5 293.833,203.5 294.5,204.5C 294.5,215.167 294.5,225.833 294.5,236.5C 293.209,236.737 292.209,236.404 291.5,235.5C 292.495,224.346 292.828,213.012 292.5,201.5 Z"/></g>
<g><path style="opacity:1" fill="#0e1c4b" d="M 306.5,217.5 C 307.198,224.734 307.864,232.067 308.5,239.5C 306.901,239.768 305.568,239.434 304.5,238.5C 305.239,238.631 305.906,238.464 306.5,238C 305.529,232.928 305.195,227.762 305.5,222.5C 306.451,221.081 306.784,219.415 306.5,217.5 Z"/></g>
<g><path style="opacity:1" fill="#0f225e" d="M 438.5,230.5 C 439.326,235.316 439.826,240.316 440,245.5C 440.654,244.304 441.154,244.304 441.5,245.5C 439.669,249.241 439.003,253.241 439.5,257.5C 438.507,248.682 438.173,239.682 438.5,230.5 Z"/></g>
<g><path style="opacity:1" fill="#0c1b49" d="M 393.5,214.5 C 393.182,219.032 393.515,223.366 394.5,227.5C 394.5,237.5 394.5,247.5 394.5,257.5C 392.901,257.768 391.568,257.434 390.5,256.5C 391.552,256.649 392.552,256.483 393.5,256C 392.17,242.069 392.17,228.235 393.5,214.5 Z"/></g>
<g><path style="opacity:1" fill="#192768" d="M 401.5,209.5 C 401.5,210.167 401.5,210.833 401.5,211.5C 401.5,227.167 401.5,242.833 401.5,258.5C 399.585,258.784 397.919,258.451 396.5,257.5C 397.5,257.5 398.5,257.5 399.5,257.5C 398.849,241.132 399.515,225.132 401.5,209.5 Z"/></g>
<g><path style="opacity:1" fill="#020202" d="M 322.5,273.5 C 322.092,274.643 321.425,275.643 320.5,276.5C 317.431,273.539 316.431,273.873 317.5,277.5C 314.824,276.992 312.157,276.825 309.5,277C 338.559,288.948 345.726,308.781 331,336.5C 312.109,356.692 289.609,362.192 263.5,353C 244.754,341.258 239.088,325.091 246.5,304.5C 248.515,302.324 250.182,299.824 251.5,297C 250.552,296.517 249.552,296.351 248.5,296.5C 258.99,286.548 271.324,279.714 285.5,276C 297.689,273.15 310.023,272.316 322.5,273.5 Z"/></g>
<g><path style="opacity:1" fill="#fcfcfc" d="M 317.5,277.5 C 340.971,279.811 359.471,290.478 373,309.5C 384.105,331.984 382.771,353.651 369,374.5C 351.156,395.627 328.322,407.127 300.5,409C 277.738,411.084 258.572,403.917 243,387.5C 225.056,360.947 225.056,334.28 243,307.5C 243.759,305.937 244.926,304.937 246.5,304.5C 239.088,325.091 244.754,341.258 263.5,353C 289.609,362.192 312.109,356.692 331,336.5C 345.726,308.781 338.559,288.948 309.5,277C 312.157,276.825 314.824,276.992 317.5,277.5 Z"/></g>
<g><path style="opacity:1" fill="#6fd4f8" d="M 268.5,414.5 C 270.827,414.247 272.827,414.914 274.5,416.5C 276.061,415.653 277.561,415.986 279,417.5C 279.414,417.043 279.914,416.709 280.5,416.5C 286.193,418.023 291.86,418.69 297.5,418.5C 301.514,418.334 305.514,418.501 309.5,419C 311.587,419.792 313.421,420.959 315,422.5C 315.333,422.167 315.667,421.833 316,421.5C 316.918,423.632 318.251,424.299 320,423.5C 322.333,424.833 324.667,426.167 327,427.5C 327.333,427.167 327.667,426.833 328,426.5C 329.667,427.167 331.333,427.833 333,428.5C 333.333,428.167 333.667,427.833 334,427.5C 336.333,428.167 338.667,428.833 341,429.5C 343.86,429.112 346.86,429.112 350,429.5C 351.333,428.833 352.667,428.167 354,427.5C 355.779,428.479 357.445,428.146 359,426.5C 360,426.833 361,427.167 362,427.5C 368.238,424.243 374.071,421.743 379.5,420C 383.666,416.558 388.166,412.725 393,408.5C 394.959,406.474 395.793,404.308 395.5,402C 400.365,400.381 405.032,398.381 409.5,396C 401.972,397.767 394.638,400.1 387.5,403C 389.345,401.577 391.345,400.41 393.5,399.5C 393.167,399.167 392.833,398.833 392.5,398.5C 390.669,399.929 388.669,400.429 386.5,400C 395.062,396.218 403.729,392.718 412.5,389.5C 412.167,389.167 411.833,388.833 411.5,388.5C 407.932,390.118 404.265,391.451 400.5,392.5C 400.912,391.218 400.246,390.218 398.5,389.5C 404.906,387.642 411.239,385.476 417.5,383C 416.833,382.833 416.167,382.667 415.5,382.5C 405.025,385.436 394.692,388.77 384.5,392.5C 385.562,391.425 385.562,390.425 384.5,389.5C 383.232,390.428 381.899,390.595 380.5,390C 391.466,386.01 402.466,382.177 413.5,378.5C 405.634,379.426 397.8,381.426 390,384.5C 389.05,383.978 388.216,383.311 387.5,382.5C 386.005,383.705 384.672,383.705 383.5,382.5C 394.857,379.103 406.19,375.603 417.5,372C 402.252,375.064 387.252,379.23 372.5,384.5C 373.833,382.5 375.167,380.5 376.5,378.5C 391.426,374.518 406.426,370.685 421.5,367C 420.5,366.833 419.5,366.667 418.5,366.5C 414.851,367.33 411.185,367.996 407.5,368.5C 409.894,355.34 406.227,343.507 396.5,333C 393.594,330.381 390.261,328.547 386.5,327.5C 384.244,317.624 380.244,308.624 374.5,300.5C 375.822,300.67 376.989,300.337 378,299.5C 377.392,301.684 378.059,303.684 380,305.5C 380.333,305.167 380.667,304.833 381,304.5C 382.667,305.5 384.333,306.5 386,307.5C 387,307.167 388,306.833 389,306.5C 390.101,308.394 391.434,309.061 393,308.5C 395.64,309.047 397.974,310.713 400,313.5C 400.333,313.167 400.667,312.833 401,312.5C 402.667,314.167 404.333,315.833 406,317.5C 406.333,317.167 406.667,316.833 407,316.5C 412.989,321.687 417.322,326.687 420,331.5C 420.333,330.167 420.667,328.833 421,327.5C 421.465,328.931 422.299,330.097 423.5,331C 422.377,332.044 421.044,332.71 419.5,333C 422.778,335.832 424.445,339.165 424.5,343C 425.471,344.204 426.471,344.704 427.5,344.5C 426.835,346.101 426.501,347.601 426.5,349C 427.471,350.204 428.471,350.704 429.5,350.5C 429.654,353.32 429.654,356.154 429.5,359C 430.293,360.085 430.96,361.252 431.5,362.5C 431.242,366.458 430.908,369.958 430.5,373C 433.167,375 433.167,377 430.5,379C 430.65,381.442 430.984,383.942 431.5,386.5C 430.595,388.638 429.595,390.805 428.5,393C 428.957,393.414 429.291,393.914 429.5,394.5C 428.787,396.776 428.287,399.109 428,401.5C 426.638,402.925 425.138,403.758 423.5,404C 423.461,405.245 423.795,406.578 424.5,408C 423.195,408.193 421.861,409.193 420.5,411C 420.665,412.117 420.998,413.284 421.5,414.5C 420.333,416.833 419.167,419.167 418,421.5C 416.636,420.742 415.469,421.242 414.5,423C 414.833,423.333 415.167,423.667 415.5,424C 410.84,426.608 406.506,430.275 402.5,435C 403.673,438.11 403.173,438.277 401,435.5C 399.833,436.667 398.667,437.833 397.5,439C 397.833,439.333 398.167,439.667 398.5,440C 397.809,441.067 397.309,442.234 397,443.5C 396.333,439.5 395.667,439.5 395,443.5C 393.434,442.939 392.101,443.606 391,445.5C 390.163,451.837 389.497,451.503 389,444.5C 388.667,446.5 388.333,448.5 388,450.5C 387.086,446.815 386.419,447.148 386,451.5C 385.333,446.167 384.667,446.167 384,451.5C 383.667,450.5 383.333,449.5 383,448.5C 382.529,450.246 381.862,451.913 381,453.5C 380.026,451.122 379.359,451.456 379,454.5C 378.333,450.5 377.667,450.5 377,454.5C 376.74,452.382 375.74,450.716 374,449.5C 370.966,450.761 367.966,452.761 365,455.5C 364.333,452.833 363.667,452.833 363,455.5C 362,454.5 361,453.5 360,452.5C 359,453.5 358,454.5 357,455.5C 356.333,452.833 355.667,452.833 355,455.5C 354.667,454.833 354.333,454.167 354,453.5C 353.5,454.667 352.667,455.5 351.5,456C 354.228,456.639 354.728,457.806 353,459.5C 352.026,457.122 351.359,457.456 351,460.5C 350.333,456.5 349.667,456.5 349,460.5C 348.333,456.5 347.667,456.5 347,460.5C 346.641,457.456 345.974,457.122 345,459.5C 344.276,457.041 342.943,456.041 341,456.5C 340.558,454.321 339.558,453.655 338,454.5C 337.333,453.833 336.667,453.167 336,452.5C 334.333,453.5 332.667,454.5 331,455.5C 329.333,454.5 327.667,453.5 326,452.5C 324.434,451.939 323.101,452.606 322,454.5C 321.633,450.719 320.3,450.052 318,452.5C 317.333,449.833 316.667,449.833 316,452.5C 315.333,449.833 314.667,449.833 314,452.5C 313.333,447.167 312.667,447.167 312,452.5C 310.915,450.627 309.582,448.96 308,447.5C 307.667,448.167 307.333,448.833 307,449.5C 305.318,447.401 303.652,446.068 302,445.5C 301.195,447.901 300.362,447.734 299.5,445C 299.833,444.667 300.167,444.333 300.5,444C 297.435,439.34 295.269,439.84 294,445.5C 293.727,443.899 293.227,442.399 292.5,441C 292.908,438.139 292.075,437.972 290,440.5C 289.383,439.551 289.549,438.718 290.5,438C 286.659,436.527 283.493,433.694 281,429.5C 280.667,430.167 280.333,430.833 280,431.5C 279.667,430.167 279.333,428.833 279,427.5C 276.294,425.129 273.961,422.463 272,419.5C 271.667,420.167 271.333,420.833 271,421.5C 269.589,419.35 268.755,417.016 268.5,414.5 Z"/></g>
<g><path style="opacity:1" fill="#6ec2e8" d="M 386.5,327.5 C 390.261,328.547 393.594,330.381 396.5,333C 406.227,343.507 409.894,355.34 407.5,368.5C 397.98,371.299 388.314,373.966 378.5,376.5C 380.703,370.42 383.203,364.42 386,358.5C 387.707,348.174 387.873,337.841 386.5,327.5 Z"/></g>
<g><path style="opacity:1" fill="#6d92bd" d="M 376.5,378.5 C 376.833,377.5 377.5,376.833 378.5,376.5C 388.314,373.966 397.98,371.299 407.5,368.5C 411.185,367.996 414.851,367.33 418.5,366.5C 419.5,366.667 420.5,366.833 421.5,367C 406.426,370.685 391.426,374.518 376.5,378.5 Z"/></g>
<g><path style="opacity:1" fill="#284f5a" d="M 544.5,363.5 C 545.188,366.02 546.188,368.52 547.5,371C 546.865,374.603 546.198,378.103 545.5,381.5C 545.299,375.491 544.966,369.491 544.5,363.5 Z"/></g>
<g><path style="opacity:1" fill="#6c86b3" d="M 383.5,382.5 C 379.167,383.833 374.833,385.167 370.5,386.5C 370.833,385.5 371.5,384.833 372.5,384.5C 387.252,379.23 402.252,375.064 417.5,372C 406.19,375.603 394.857,379.103 383.5,382.5 Z"/></g>
<g><path style="opacity:1" fill="#6d91bd" d="M 398.5,389.5 C 387.16,393.337 375.993,397.67 365,402.5C 364.312,401.668 364.479,401.002 365.5,400.5C 372.038,398.057 378.371,395.39 384.5,392.5C 394.692,388.77 405.025,385.436 415.5,382.5C 416.167,382.667 416.833,382.833 417.5,383C 411.239,385.476 404.906,387.642 398.5,389.5 Z"/></g>
<g><path style="opacity:1" fill="#bdeefe" d="M 216.5,390.5 C 214.441,409.752 213.941,429.085 215,448.5C 216.02,458.618 217.686,468.618 220,478.5C 226.118,505.259 239.618,527.426 260.5,545C 295.967,569.139 334.967,577.639 377.5,570.5C 377.389,571.117 377.056,571.617 376.5,572C 321.295,588.348 265.629,589.682 209.5,576C 135.746,555.265 91.7457,507.598 77.5,433C 76.3558,428.786 75.0225,424.62 73.5,420.5C 73.9312,419.707 74.2645,418.873 74.5,418C 73.2966,412.878 72.7966,407.712 73,402.5C 85.1016,418.763 101.268,427.929 121.5,430C 129.167,430.667 136.833,430.667 144.5,430C 167.526,425.151 188.193,415.484 206.5,401C 210.67,398.127 214.003,394.627 216.5,390.5 Z"/></g>
<g><path style="opacity:1" fill="#6fc0e7" d="M 384.5,392.5 C 378.371,395.39 372.038,398.057 365.5,400.5C 364.479,401.002 364.312,401.668 365,402.5C 375.993,397.67 387.16,393.337 398.5,389.5C 400.246,390.218 400.912,391.218 400.5,392.5C 404.265,391.451 407.932,390.118 411.5,388.5C 411.833,388.833 412.167,389.167 412.5,389.5C 403.729,392.718 395.062,396.218 386.5,400C 388.669,400.429 390.669,399.929 392.5,398.5C 392.833,398.833 393.167,399.167 393.5,399.5C 391.345,400.41 389.345,401.577 387.5,403C 394.638,400.1 401.972,397.767 409.5,396C 405.032,398.381 400.365,400.381 395.5,402C 395.793,404.308 394.959,406.474 393,408.5C 388.166,412.725 383.666,416.558 379.5,420C 374.071,421.743 368.238,424.243 362,427.5C 361,427.167 360,426.833 359,426.5C 357.445,428.146 355.779,428.479 354,427.5C 352.667,428.167 351.333,428.833 350,429.5C 346.86,429.112 343.86,429.112 341,429.5C 338.667,428.833 336.333,428.167 334,427.5C 333.667,427.833 333.333,428.167 333,428.5C 331.333,427.833 329.667,427.167 328,426.5C 327.667,426.833 327.333,427.167 327,427.5C 324.667,426.167 322.333,424.833 320,423.5C 318.251,424.299 316.918,423.632 316,421.5C 315.667,421.833 315.333,422.167 315,422.5C 313.421,420.959 311.587,419.792 309.5,419C 305.514,418.501 301.514,418.334 297.5,418.5C 318.624,416.514 338.29,410.014 356.5,399C 361.387,394.939 366.053,390.773 370.5,386.5C 374.833,385.167 379.167,383.833 383.5,382.5C 384.672,383.705 386.005,383.705 387.5,382.5C 388.216,383.311 389.05,383.978 390,384.5C 397.8,381.426 405.634,379.426 413.5,378.5C 402.466,382.177 391.466,386.01 380.5,390C 381.899,390.595 383.232,390.428 384.5,389.5C 385.562,390.425 385.562,391.425 384.5,392.5 Z"/></g>
<g><path style="opacity:1" fill="#0c1011" d="M 322.5,273.5 C 343.442,275.637 360.775,284.637 374.5,300.5C 380.244,308.624 384.244,317.624 386.5,327.5C 387.873,337.841 387.707,348.174 386,358.5C 383.203,364.42 380.703,370.42 378.5,376.5C 377.5,376.833 376.833,377.5 376.5,378.5C 375.167,380.5 373.833,382.5 372.5,384.5C 371.5,384.833 370.833,385.5 370.5,386.5C 366.053,390.773 361.387,394.939 356.5,399C 338.29,410.014 318.624,416.514 297.5,418.5C 291.86,418.69 286.193,418.023 280.5,416.5C 279.914,416.709 279.414,417.043 279,417.5C 277.561,415.986 276.061,415.653 274.5,416.5C 272.827,414.914 270.827,414.247 268.5,414.5C 236.67,401.201 221.837,377.201 224,342.5C 226.644,324.212 234.81,308.878 248.5,296.5C 249.552,296.351 250.552,296.517 251.5,297C 250.182,299.824 248.515,302.324 246.5,304.5C 244.926,304.937 243.759,305.937 243,307.5C 225.056,334.28 225.056,360.947 243,387.5C 258.572,403.917 277.738,411.084 300.5,409C 328.322,407.127 351.156,395.627 369,374.5C 382.771,353.651 384.105,331.984 373,309.5C 359.471,290.478 340.971,279.811 317.5,277.5C 316.431,273.873 317.431,273.539 320.5,276.5C 321.425,275.643 322.092,274.643 322.5,273.5 Z"/></g>
</svg>
