<?xml version="1.0" encoding="UTF-8"?>
<!DOCTYPE svg PUBLIC "-//W3C//DTD SVG 1.1//EN" "http://www.w3.org/Graphics/SVG/1.1/DTD/svg11.dtd">
<svg xmlns="http://www.w3.org/2000/svg" version="1.1" width="200px" height="200px" style="shape-rendering:geometricPrecision; text-rendering:geometricPrecision; image-rendering:optimizeQuality; fill-rule:evenodd; clip-rule:evenodd" xmlns:xlink="http://www.w3.org/1999/xlink">
<g><path style="opacity:1" fill="#0182ed" d="M -0.5,-0.5 C 66.1667,-0.5 132.833,-0.5 199.5,-0.5C 199.5,66.1667 199.5,132.833 199.5,199.5C 132.833,199.5 66.1667,199.5 -0.5,199.5C -0.5,132.833 -0.5,66.1667 -0.5,-0.5 Z"/></g>
<g><path style="opacity:1" fill="#fcfdfe" d="M 89.5,59.5 C 103.167,59.5 116.833,59.5 130.5,59.5C 129.392,66.4824 128.392,73.4824 127.5,80.5C 120.8,80.17 114.134,80.5033 107.5,81.5C 106.607,84.0841 106.274,86.7508 106.5,89.5C 110.5,89.5 114.5,89.5 118.5,89.5C 117.703,96.1522 117.036,102.819 116.5,109.5C 111.901,109.2 107.401,109.533 103,110.5C 101.652,116.772 100.818,123.105 100.5,129.5C 97.1501,129.335 93.8168,129.502 90.5,130C 89.5495,133.057 89.2161,136.223 89.5,139.5C 82.5,139.5 75.5,139.5 68.5,139.5C 71.9976,116.185 75.3309,92.8518 78.5,69.5C 81.8333,69.5 85.1667,69.5 88.5,69.5C 89.0508,66.1933 89.3841,62.8599 89.5,59.5 Z"/></g>
</svg>
