<?xml version="1.0" encoding="UTF-8"?>
<svg width="180px" height="180px" viewBox="0 0 180 180" version="1.1" xmlns="http://www.w3.org/2000/svg" xmlns:xlink="http://www.w3.org/1999/xlink">
    <title>devicon:googlecloud</title>
    <g id="Page-1" stroke="none" stroke-width="1" fill="none" fill-rule="evenodd">
        <g id="devicon:googlecloud">
            <rect id="ViewBox" x="0" y="0" width="180" height="180"></rect>
            <path d="M113.34375,56.671875 L113.90625,56.671875 L113.625,56.390625 L133.3125,36.703125 L133.3125,36.28125 C116.71875,21.65625 93.796875,16.59375 72.5625,22.921875 C51.328125,29.25 35.015625,46.125 29.109375,67.5 C29.390625,67.359375 29.8125,67.21875 30.234375,67.21875 C37.546875,62.4375 46.265625,59.625 55.40625,59.625 C58.5,59.625 61.453125,59.90625 64.40625,60.46875 C64.546875,60.328125 64.6875,60.328125 64.828125,60.328125 C77.484375,46.40625 98.859375,44.71875 113.484375,56.671875 L113.34375,56.671875 Z" id="Path" fill="#EA4535" fill-rule="nonzero"></path>
            <path d="M152.015625,67.21875 C148.78125,55.265625 142.03125,44.4375 132.609375,36.140625 L112.5,56.109375 C120.9375,63 125.859375,73.40625 125.578125,84.234375 L125.578125,87.75 C149.34375,87.75 149.34375,123.1875 125.578125,123.1875 L89.859375,123.1875 L89.859375,151.3125 L89.71875,151.3125 L89.859375,151.594861 L125.578125,151.594861 C146.109375,151.734375 164.25,138.515625 170.296875,119.109375 C176.34375,99.703125 168.890625,78.609375 152.015625,67.21875" id="Path" fill="#557EBF" fill-rule="nonzero"></path>
            <path d="M54.84375,151.734375 L91.828125,151.734375 L91.828125,123.328125 L54.84375,123.328125 C52.171875,123.328125 49.640625,122.765625 47.25,121.78125 L25.875,142.3125 L25.875,142.59375 C34.3125,148.640625 44.4375,151.875 54.984375,151.875 L54.84375,151.734375 Z" id="Path" fill="#36A852" fill-rule="nonzero"></path>
            <path d="M56.53125,58.921875 C35.578125,59.0625 17.015625,72 10.265625,90.984375 C3.515625,110.109375 10.265625,131.0625 26.859375,143.4375 L48.796875,122.484375 C36.703125,117.28125 33.890625,102.09375 43.171875,93.234375 C52.453125,84.234375 68.203125,87.046875 73.6875,98.578125 L95.625,77.625 C86.34375,65.953125 71.859375,59.0625 56.53125,59.203125 L56.53125,58.921875 Z" id="Path" fill="#F9BC15" fill-rule="nonzero"></path>
        </g>
    </g>
</svg>