<?xml version="1.0" encoding="UTF-8"?>
<!DOCTYPE svg PUBLIC "-//W3C//DTD SVG 1.1//EN" "http://www.w3.org/Graphics/SVG/1.1/DTD/svg11.dtd">
<svg xmlns="http://www.w3.org/2000/svg" version="1.1" width="432px" height="433px" style="shape-rendering:geometricPrecision; text-rendering:geometricPrecision; image-rendering:optimizeQuality; fill-rule:evenodd; clip-rule:evenodd" xmlns:xlink="http://www.w3.org/1999/xlink">
<g><path style="opacity:1" fill="#fefefe" d="M -0.5,-0.5 C 54.1667,-0.5 108.833,-0.5 163.5,-0.5C 154.067,5.1813 151.901,12.848 157,22.5C 159.029,25.5956 161.862,27.2623 165.5,27.5C 173.851,64.2357 182.517,100.902 191.5,137.5C 184.867,144.703 184.867,151.87 191.5,159C 181.167,169.333 170.833,179.667 160.5,190C 158.369,189.602 156.369,188.602 154.5,187C 150.833,186.333 147.167,186.333 143.5,187C 141.547,188.633 139.38,189.799 137,190.5C 100.815,182.079 64.6485,173.579 28.5,165C 21.964,152.067 13.1307,150.233 2,159.5C 1.24316,161.315 0.409824,162.981 -0.5,164.5C -0.5,109.5 -0.5,54.5 -0.5,-0.5 Z"/></g>
<g><path style="opacity:1" fill="#1e6d8b" d="M 163.5,-0.5 C 166.833,-0.5 170.167,-0.5 173.5,-0.5C 181.17,3.51714 184.004,9.85047 182,18.5C 181.117,21.1024 179.617,23.2691 177.5,25C 186.56,61.0759 195.394,97.2426 204,133.5C 205.995,135.177 208.161,136.677 210.5,138C 214.817,143.067 215.817,148.567 213.5,154.5C 226.5,155.833 239.5,155.833 252.5,154.5C 238.868,134.605 231.201,112.605 229.5,88.5C 229.772,81.9758 230.939,75.6424 233,69.5C 238.51,63.9569 244.677,63.1236 251.5,67C 269.167,84.6667 286.833,102.333 304.5,120C 312.493,120.5 320.493,120.666 328.5,120.5C 327.967,106.91 334.467,99.2435 348,97.5C 363.269,100.421 369.269,109.421 366,124.5C 361.846,133.828 354.679,137.828 344.5,136.5C 344.334,144.507 344.5,152.507 345,160.5C 362.667,178.167 380.333,195.833 398,213.5C 403.628,226.598 399.128,233.765 384.5,235C 357.282,235.862 332.615,228.362 310.5,212.5C 309.334,226.154 309.167,239.821 310,253.5C 317.441,261.148 317.275,268.648 309.5,276C 312.667,279.167 315.833,282.333 319,285.5C 321.5,283 324,280.5 326.5,278C 328.5,277.333 330.5,277.333 332.5,278C 365.368,311.035 398.368,343.868 431.5,376.5C 431.5,378.5 431.5,380.5 431.5,382.5C 430.373,383.122 429.373,383.955 428.5,385C 413.837,385.5 399.17,385.667 384.5,385.5C 384.667,400.17 384.5,414.837 384,429.5C 382.955,430.373 382.122,431.373 381.5,432.5C 379.5,432.5 377.5,432.5 375.5,432.5C 342.895,400.395 310.395,368.062 278,335.5C 276.578,332.97 276.245,330.303 277,327.5C 279.833,324.667 282.667,321.833 285.5,319C 282.333,315.833 279.167,312.667 276,309.5C 270.659,316.398 264.159,317.898 256.5,314C 222.667,280.167 188.833,246.333 155,212.5C 149.456,215.295 144.289,214.629 139.5,210.5C 137.609,207.869 135.609,205.369 133.5,203C 97.646,194.578 61.8127,186.078 26,177.5C 14.6709,185.716 5.83757,183.716 -0.5,171.5C -0.5,169.167 -0.5,166.833 -0.5,164.5C 0.409824,162.981 1.24316,161.315 2,159.5C 13.1307,150.233 21.964,152.067 28.5,165C 64.6485,173.579 100.815,182.079 137,190.5C 139.38,189.799 141.547,188.633 143.5,187C 147.167,186.333 150.833,186.333 154.5,187C 156.369,188.602 158.369,189.602 160.5,190C 170.833,179.667 181.167,169.333 191.5,159C 184.867,151.87 184.867,144.703 191.5,137.5C 182.517,100.902 173.851,64.2357 165.5,27.5C 161.862,27.2623 159.029,25.5956 157,22.5C 151.901,12.848 154.067,5.1813 163.5,-0.5 Z"/></g>
<g><path style="opacity:1" fill="#fefefe" d="M 173.5,-0.5 C 259.5,-0.5 345.5,-0.5 431.5,-0.5C 431.5,125.167 431.5,250.833 431.5,376.5C 398.368,343.868 365.368,311.035 332.5,278C 330.5,277.333 328.5,277.333 326.5,278C 324,280.5 321.5,283 319,285.5C 315.833,282.333 312.667,279.167 309.5,276C 317.275,268.648 317.441,261.148 310,253.5C 309.167,239.821 309.334,226.154 310.5,212.5C 332.615,228.362 357.282,235.862 384.5,235C 399.128,233.765 403.628,226.598 398,213.5C 380.333,195.833 362.667,178.167 345,160.5C 344.5,152.507 344.334,144.507 344.5,136.5C 354.679,137.828 361.846,133.828 366,124.5C 369.269,109.421 363.269,100.421 348,97.5C 334.467,99.2435 327.967,106.91 328.5,120.5C 320.493,120.666 312.493,120.5 304.5,120C 286.833,102.333 269.167,84.6667 251.5,67C 244.677,63.1236 238.51,63.9569 233,69.5C 230.939,75.6424 229.772,81.9758 229.5,88.5C 231.201,112.605 238.868,134.605 252.5,154.5C 239.5,155.833 226.5,155.833 213.5,154.5C 215.817,148.567 214.817,143.067 210.5,138C 208.161,136.677 205.995,135.177 204,133.5C 195.394,97.2426 186.56,61.0759 177.5,25C 179.617,23.2691 181.117,21.1024 182,18.5C 184.004,9.85047 181.17,3.51714 173.5,-0.5 Z"/></g>
<g><path style="opacity:1" fill="#fefefe" d="M 242.5,78.5 C 290.917,125.416 338.917,172.916 386.5,221C 371.056,223.486 356.056,221.486 341.5,215C 328.341,208.926 316.007,201.592 304.5,193C 293.333,181.833 282.167,170.667 271,159.5C 256.865,141.455 247.532,121.121 243,98.5C 242.5,91.8417 242.334,85.175 242.5,78.5 Z"/></g>
<g><path style="opacity:0.998" fill="#fefefe" d="M 345.5,110.5 C 353.018,110.887 355.518,114.554 353,121.5C 347.158,125.72 342.991,124.387 340.5,117.5C 341.065,114.284 342.732,111.951 345.5,110.5 Z"/></g>
<g><path style="opacity:0.918" fill="#ececec" d="M 317.5,134.5 C 318.946,133.387 320.613,133.22 322.5,134C 320.977,135.788 319.31,135.955 317.5,134.5 Z"/></g>
<g><path style="opacity:1" fill="#fefffe" d="M 330.5,143.5 C 331.598,144.601 331.765,145.934 331,147.5C 329.232,146.318 329.065,144.985 330.5,143.5 Z"/></g>
<g><path style="opacity:1" fill="#fefefe" d="M 201.5,240.5 C 215.862,247.697 228.362,245.364 239,233.5C 246.32,219.62 244.154,207.453 232.5,197C 221.018,190.5 210.018,191.166 199.5,199C 189.618,209.898 188.285,221.731 195.5,234.5C 185.035,224.535 174.702,214.369 164.5,204C 177.333,191.167 190.167,178.333 203,165.5C 236.167,198.667 269.333,231.833 302.5,265C 289.667,277.833 276.833,290.667 264,303.5C 242.965,282.632 222.132,261.632 201.5,240.5 Z"/></g>
<g><path style="opacity:1" fill="#fefffe" d="M 225.5,169.5 C 234.318,168.507 243.318,168.173 252.5,168.5C 252.666,177.506 252.5,186.506 252,195.5C 243.298,186.631 234.465,177.964 225.5,169.5 Z"/></g>
<g><path style="opacity:1" fill="#fefefe" d="M -0.5,171.5 C 5.83757,183.716 14.6709,185.716 26,177.5C 61.8127,186.078 97.646,194.578 133.5,203C 135.609,205.369 137.609,207.869 139.5,210.5C 144.289,214.629 149.456,215.295 155,212.5C 188.833,246.333 222.667,280.167 256.5,314C 264.159,317.898 270.659,316.398 276,309.5C 279.167,312.667 282.333,315.833 285.5,319C 282.667,321.833 279.833,324.667 277,327.5C 276.245,330.303 276.578,332.97 278,335.5C 310.395,368.062 342.895,400.395 375.5,432.5C 250.167,432.5 124.833,432.5 -0.5,432.5C -0.5,345.5 -0.5,258.5 -0.5,171.5 Z"/></g>
<g><path style="opacity:1" fill="#fefffe" d="M 264.5,171.5 C 274.298,180.798 283.965,190.298 293.5,200C 283.839,200.5 274.172,200.666 264.5,200.5C 264.5,190.833 264.5,181.167 264.5,171.5 Z"/></g>
<g><path style="opacity:1" fill="#1e6d8b" d="M 201.5,240.5 C 201.5,239.833 201.167,239.5 200.5,239.5C 200.5,238.833 200.167,238.5 199.5,238.5C 199.5,237.833 199.167,237.5 198.5,237.5C 198.5,236.833 198.167,236.5 197.5,236.5C 197.5,235.833 197.167,235.5 196.5,235.5C 196.5,234.833 196.167,234.5 195.5,234.5C 188.285,221.731 189.618,209.898 199.5,199C 210.018,191.166 221.018,190.5 232.5,197C 244.154,207.453 246.32,219.62 239,233.5C 228.362,245.364 215.862,247.697 201.5,240.5 Z"/></g>
<g><path style="opacity:0.998" fill="#fefefe" d="M 212.5,205.5 C 227.922,205.076 233.089,212.076 228,226.5C 223.359,231.556 217.859,233.056 211.5,231C 204.366,226.599 202.199,220.432 205,212.5C 206.742,209.254 209.242,206.921 212.5,205.5 Z"/></g>
<g><path style="opacity:0.982" fill="#fefefe" d="M 269.5,213.5 C 278.318,212.507 287.318,212.173 296.5,212.5C 296.666,221.506 296.5,230.506 296,239.5C 287.298,230.631 278.465,221.964 269.5,213.5 Z"/></g>
<g><path style="opacity:1" fill="#fefefe" d="M 299.5,285.5 C 303.415,287.743 306.749,290.743 309.5,294.5C 304.804,300.03 299.637,305.03 294,309.5C 291.108,306.313 287.941,303.48 284.5,301C 289.703,295.965 294.703,290.798 299.5,285.5 Z"/></g>
<g><path style="opacity:1" fill="#fefffe" d="M 323.5,298.5 C 324.494,307.652 324.827,316.985 324.5,326.5C 315.161,326.666 305.827,326.5 296.5,326C 305.702,316.965 314.702,307.798 323.5,298.5 Z"/></g>
<g><path style="opacity:1" fill="#fefffe" d="M 337.5,301.5 C 345.965,309.464 354.298,317.631 362.5,326C 354.173,326.5 345.84,326.666 337.5,326.5C 337.5,318.167 337.5,309.833 337.5,301.5 Z"/></g>
<g><path style="opacity:1" fill="#fefffe" d="M 300.5,340.5 C 308.316,339.508 316.316,339.174 324.5,339.5C 324.666,347.507 324.5,355.507 324,363.5C 316.298,355.631 308.465,347.964 300.5,340.5 Z"/></g>
<g><path style="opacity:1" fill="#fefffe" d="M 337.5,339.5 C 348.833,339.5 360.167,339.5 371.5,339.5C 371.5,350.833 371.5,362.167 371.5,373.5C 360.167,373.5 348.833,373.5 337.5,373.5C 337.5,362.167 337.5,350.833 337.5,339.5 Z"/></g>
<g><path style="opacity:1" fill="#fefffe" d="M 384.5,348.5 C 392.965,356.464 401.298,364.631 409.5,373C 401.173,373.5 392.84,373.666 384.5,373.5C 384.5,365.167 384.5,356.833 384.5,348.5 Z"/></g>
<g><path style="opacity:1" fill="#fefffe" d="M 431.5,382.5 C 431.5,399.167 431.5,415.833 431.5,432.5C 414.833,432.5 398.167,432.5 381.5,432.5C 382.122,431.373 382.955,430.373 384,429.5C 384.5,414.837 384.667,400.17 384.5,385.5C 399.17,385.667 413.837,385.5 428.5,385C 429.373,383.955 430.373,383.122 431.5,382.5 Z"/></g>
<g><path style="opacity:1" fill="#fefffe" d="M 347.5,387.5 C 355.316,386.508 363.316,386.174 371.5,386.5C 371.666,394.507 371.5,402.507 371,410.5C 363.298,402.631 355.465,394.964 347.5,387.5 Z"/></g>
</svg>
