<?xml version="1.0" encoding="UTF-8"?>
<!DOCTYPE svg PUBLIC "-//W3C//DTD SVG 1.1//EN" "http://www.w3.org/Graphics/SVG/1.1/DTD/svg11.dtd">
<svg xmlns="http://www.w3.org/2000/svg" version="1.1" width="200px" height="200px" style="shape-rendering:geometricPrecision; text-rendering:geometricPrecision; image-rendering:optimizeQuality; fill-rule:evenodd; clip-rule:evenodd" xmlns:xlink="http://www.w3.org/1999/xlink">
<g><path style="opacity:0.498" fill="#837192" d="M 81.5,23.5 C 81.5,42.1667 81.5,60.8333 81.5,79.5C 81.5,85.8333 81.5,92.1667 81.5,98.5C 81.5,105.833 81.5,113.167 81.5,120.5C 93.5,120.5 105.5,120.5 117.5,120.5C 117.5,113.167 117.5,105.833 117.5,98.5C 117.5,92.1667 117.5,85.8333 117.5,79.5C 117.5,60.8333 117.5,42.1667 117.5,23.5C 118.498,55.9957 118.832,88.6624 118.5,121.5C 105.833,121.5 93.1667,121.5 80.5,121.5C 80.1684,88.6624 80.5017,55.9957 81.5,23.5 Z"/></g>
<g><path style="opacity:1" fill="#d6b3f2" d="M 81.5,98.5 C 93.6533,98.6715 105.653,98.6715 117.5,98.5C 117.5,105.833 117.5,113.167 117.5,120.5C 105.5,120.5 93.5,120.5 81.5,120.5C 81.5,113.167 81.5,105.833 81.5,98.5 Z"/></g>
<g><path style="opacity:1" fill="#dec0f7" d="M 81.5,79.5 C 93.2773,79.5809 105.277,79.5809 117.5,79.5C 117.5,85.8333 117.5,92.1667 117.5,98.5C 105.653,98.6715 93.6533,98.6715 81.5,98.5C 81.5,92.1667 81.5,85.8333 81.5,79.5 Z"/></g>
<g><path style="opacity:1" fill="#e9d0fe" d="M 81.5,23.5 C 93.5,23.5 105.5,23.5 117.5,23.5C 117.5,42.1667 117.5,60.8333 117.5,79.5C 105.277,79.5809 93.2773,79.5809 81.5,79.5C 81.5,60.8333 81.5,42.1667 81.5,23.5 Z"/></g>
<g><path style="opacity:0.333" fill="#41344d" d="M 25.5,137.5 C 44.1667,137.5 62.8333,137.5 81.5,137.5C 81.8287,150.344 81.4954,163.011 80.5,175.5C 80.5,170.167 80.5,164.833 80.5,159.5C 80.5,155.167 80.5,150.833 80.5,146.5C 80.5,143.833 80.5,141.167 80.5,138.5C 61.9924,138.83 43.6591,138.497 25.5,137.5 Z"/></g>
<g><path style="opacity:0.333" fill="#41344c" d="M 173.5,137.5 C 155.341,138.497 137.008,138.83 118.5,138.5C 118.5,141.5 118.5,144.5 118.5,147.5C 118.5,151.5 118.5,155.5 118.5,159.5C 118.5,164.833 118.5,170.167 118.5,175.5C 117.505,163.011 117.171,150.344 117.5,137.5C 136.167,137.5 154.833,137.5 173.5,137.5 Z"/></g>
<g><path style="opacity:1" fill="#cba3eb" d="M 25.5,137.5 C 43.6591,138.497 61.9924,138.83 80.5,138.5C 80.5,141.167 80.5,143.833 80.5,146.5C 77.9022,146.555 75.2356,146.889 72.5,147.5C 69.7235,147.054 67.2235,146.054 65,144.5C 64.3333,145.833 63.3333,146.833 62,147.5C 52.816,147.201 43.4826,147.201 34,147.5C 32.8061,146.57 31.4728,145.903 30,145.5C 28.909,147.346 27.5756,148.013 26,147.5C 25.501,151.821 25.3343,156.154 25.5,160.5C 25.5,165.5 25.5,170.5 25.5,175.5C 24.1667,162.833 24.1667,150.167 25.5,137.5 Z"/></g>
<g><path style="opacity:1" fill="#cba3eb" d="M 173.5,137.5 C 174.833,150.167 174.833,162.833 173.5,175.5C 173.5,170.167 173.5,164.833 173.5,159.5C 173.824,155.445 173.491,151.445 172.5,147.5C 169.724,147.054 167.224,146.054 165,144.5C 164.333,145.833 163.333,146.833 162,147.5C 152.816,147.201 143.483,147.201 134,147.5C 131.8,145.169 129.8,145.169 128,147.5C 125.159,146.237 121.992,146.237 118.5,147.5C 118.5,144.5 118.5,141.5 118.5,138.5C 137.008,138.83 155.341,138.497 173.5,137.5 Z"/></g>
<g><path style="opacity:1" fill="#c397e7" d="M 80.5,146.5 C 80.5,150.833 80.5,155.167 80.5,159.5C 78.2075,159.756 76.0408,159.423 74,158.5C 70.2302,160.602 66.5635,160.268 63,157.5C 61.3123,159.045 59.3123,160.045 57,160.5C 55.3333,159.167 53.6667,159.167 52,160.5C 51.6667,159.833 51.3333,159.167 51,158.5C 48.2037,159.211 45.3704,159.878 42.5,160.5C 40.6293,159.233 38.7959,159.233 37,160.5C 36.3333,159.833 35.6667,159.167 35,158.5C 31.833,160.051 28.6663,160.717 25.5,160.5C 25.3343,156.154 25.501,151.821 26,147.5C 27.5756,148.013 28.909,147.346 30,145.5C 31.4728,145.903 32.8061,146.57 34,147.5C 43.4826,147.201 52.816,147.201 62,147.5C 63.3333,146.833 64.3333,145.833 65,144.5C 67.2235,146.054 69.7235,147.054 72.5,147.5C 75.2356,146.889 77.9022,146.555 80.5,146.5 Z"/></g>
<g><path style="opacity:1" fill="#c397e7" d="M 173.5,159.5 C 169.749,160.512 166.249,159.846 163,157.5C 161.312,159.045 159.312,160.045 157,160.5C 155.333,159.167 153.667,159.167 152,160.5C 151.667,159.833 151.333,159.167 151,158.5C 148.204,159.211 145.37,159.878 142.5,160.5C 140.629,159.233 138.796,159.233 137,160.5C 136.333,159.833 135.667,159.167 135,158.5C 133.215,159.24 131.382,159.907 129.5,160.5C 125.886,159.779 122.22,159.446 118.5,159.5C 118.5,155.5 118.5,151.5 118.5,147.5C 121.992,146.237 125.159,146.237 128,147.5C 129.8,145.169 131.8,145.169 134,147.5C 143.483,147.201 152.816,147.201 162,147.5C 163.333,146.833 164.333,145.833 165,144.5C 167.224,146.054 169.724,147.054 172.5,147.5C 173.491,151.445 173.824,155.445 173.5,159.5 Z"/></g>
<g><path style="opacity:1" fill="#bd8ee3" d="M 80.5,159.5 C 80.5,164.833 80.5,170.167 80.5,175.5C 62.1667,175.5 43.8333,175.5 25.5,175.5C 25.5,170.5 25.5,165.5 25.5,160.5C 28.6663,160.717 31.833,160.051 35,158.5C 35.6667,159.167 36.3333,159.833 37,160.5C 38.7959,159.233 40.6293,159.233 42.5,160.5C 45.3704,159.878 48.2037,159.211 51,158.5C 51.3333,159.167 51.6667,159.833 52,160.5C 53.6667,159.167 55.3333,159.167 57,160.5C 59.3123,160.045 61.3123,159.045 63,157.5C 66.5635,160.268 70.2302,160.602 74,158.5C 76.0408,159.423 78.2075,159.756 80.5,159.5 Z"/></g>
<g><path style="opacity:1" fill="#bd8ee3" d="M 173.5,159.5 C 173.5,164.833 173.5,170.167 173.5,175.5C 155.167,175.5 136.833,175.5 118.5,175.5C 118.5,170.167 118.5,164.833 118.5,159.5C 122.22,159.446 125.886,159.779 129.5,160.5C 131.382,159.907 133.215,159.24 135,158.5C 135.667,159.167 136.333,159.833 137,160.5C 138.796,159.233 140.629,159.233 142.5,160.5C 145.37,159.878 148.204,159.211 151,158.5C 151.333,159.167 151.667,159.833 152,160.5C 153.667,159.167 155.333,159.167 157,160.5C 159.312,160.045 161.312,159.045 163,157.5C 166.249,159.846 169.749,160.512 173.5,159.5 Z"/></g>
</svg>
