<?xml version="1.0" encoding="UTF-8"?>
<!DOCTYPE svg PUBLIC "-//W3C//DTD SVG 1.1//EN" "http://www.w3.org/Graphics/SVG/1.1/DTD/svg11.dtd">
<svg xmlns="http://www.w3.org/2000/svg" version="1.1" width="512px" height="512px" style="shape-rendering:geometricPrecision; text-rendering:geometricPrecision; image-rendering:optimizeQuality; fill-rule:evenodd; clip-rule:evenodd" xmlns:xlink="http://www.w3.org/1999/xlink">
<g><path style="opacity:0.972" fill="#131019" d="M 402.5,-0.5 C 414.833,-0.5 427.167,-0.5 439.5,-0.5C 455.13,3.62639 467.63,12.2931 477,25.5C 479.789,30.5343 481.789,35.8677 483,41.5C 484.728,52.1135 486.061,62.7801 487,73.5C 494.737,165.691 502.904,257.691 511.5,349.5C 511.5,361.5 511.5,373.5 511.5,385.5C 504.221,405.44 490.221,418.106 469.5,423.5C 369.082,430.735 268.416,437.735 167.5,444.5C 146.013,444.674 129.18,436.008 117,418.5C 114.803,412.909 112.803,407.242 111,401.5C 102.451,311.242 94.6175,220.908 87.5,130.5C 87.2167,121.612 86.2167,112.945 84.5,104.5C 84.666,99.1563 84.4994,93.8229 84,88.5C 83.6174,87.944 83.1174,87.6107 82.5,87.5C 77.4741,55.7601 89.8074,34.2601 119.5,23C 131.343,20.2395 143.343,18.5729 155.5,18C 232.16,12.5719 308.827,7.23855 385.5,2C 391.43,1.95147 397.097,1.11813 402.5,-0.5 Z"/></g>
<g><path style="opacity:1" fill="#fefefe" d="M 463.5,39.5 C 463.41,42.1522 464.076,44.4855 465.5,46.5C 465.5,46.8333 465.5,47.1667 465.5,47.5C 465.189,52.7664 465.855,57.7664 467.5,62.5C 476.326,163.647 484.992,264.981 493.5,366.5C 494.922,387.503 485.588,401.003 465.5,407C 452.228,408.901 438.894,410.234 425.5,411C 339.715,417.452 253.881,423.286 168,428.5C 154.146,429.24 142.813,424.24 134,413.5C 131.555,409.503 129.888,405.169 129,400.5C 124.082,355.907 119.916,311.241 116.5,266.5C 116.55,260.611 115.884,254.944 114.5,249.5C 110.947,204.478 107.114,159.478 103,114.5C 101.382,97.1928 100.716,79.8595 101,62.5C 106.647,48.0166 117.147,39.6833 132.5,37.5C 137.731,37.5557 142.731,36.889 147.5,35.5C 200.454,31.402 253.454,27.7353 306.5,24.5C 314.729,24.8221 322.729,24.1554 330.5,22.5C 364.764,19.2126 399.097,17.3793 433.5,17C 444.18,18.3225 453.013,23.1558 460,31.5C 461.481,34.11 462.648,36.7766 463.5,39.5 Z"/></g>
<g><path style="opacity:1" fill="#bab9bc" d="M 330.5,22.5 C 322.729,24.1554 314.729,24.8221 306.5,24.5C 314.319,23.4429 322.319,22.7762 330.5,22.5 Z"/></g>
<g><path style="opacity:1" fill="#b1b0b2" d="M 147.5,35.5 C 142.731,36.889 137.731,37.5557 132.5,37.5C 137.269,36.111 142.269,35.4443 147.5,35.5 Z"/></g>
<g><path style="opacity:1" fill="#aaa8ac" d="M 463.5,39.5 C 464.924,41.5145 465.59,43.8478 465.5,46.5C 464.076,44.4855 463.41,42.1522 463.5,39.5 Z"/></g>
<g><path style="opacity:1" fill="#bebdbf" d="M 465.5,47.5 C 466.889,52.2688 467.556,57.2688 467.5,62.5C 465.855,57.7664 465.189,52.7664 465.5,47.5 Z"/></g>
<g><path style="opacity:0.99" fill="#602ad2" d="M 82.5,87.5 C 83.1174,87.6107 83.6174,87.944 84,88.5C 84.4994,93.8229 84.666,99.1563 84.5,104.5C 84.7208,113.396 85.7208,122.063 87.5,130.5C 94.6175,220.908 102.451,311.242 111,401.5C 112.803,407.242 114.803,412.909 117,418.5C 129.18,436.008 146.013,444.674 167.5,444.5C 268.416,437.735 369.082,430.735 469.5,423.5C 461.867,438.278 449.867,447.778 433.5,452C 340.109,472.177 246.775,492.01 153.5,511.5C 141.833,511.5 130.167,511.5 118.5,511.5C 102.215,506.389 90.3817,496.055 83,480.5C 79.9292,471.954 77.2625,463.288 75,454.5C 50.27,355.91 25.1033,257.577 -0.5,159.5C -0.5,150.5 -0.5,141.5 -0.5,132.5C 7.29679,114.542 20.6301,102.709 39.5,97C 53.805,93.6393 68.1383,90.4726 82.5,87.5 Z"/></g>
<g><path style="opacity:1" fill="#131019" d="M 259.5,94.5 C 261.5,94.5 263.5,94.5 265.5,94.5C 265.19,97.7131 265.523,100.713 266.5,103.5C 266.5,105.833 266.5,108.167 266.5,110.5C 266.187,113.247 266.52,115.914 267.5,118.5C 268.107,118.376 268.44,118.043 268.5,117.5C 281.788,104.664 297.788,99.4972 316.5,102C 339.004,105.506 354.838,117.673 364,138.5C 374.2,165.518 376.2,193.185 370,221.5C 359.282,257.463 335.115,273.297 297.5,269C 291.524,267.737 286.191,265.237 281.5,261.5C 281.44,260.957 281.107,260.624 280.5,260.5C 279.203,262.973 279.203,265.307 280.5,267.5C 282.216,291.529 284.216,315.529 286.5,339.5C 269.731,344.089 253.065,349.089 236.5,354.5C 234.726,342.551 233.393,330.551 232.5,318.5C 232.55,312.611 231.884,306.944 230.5,301.5C 225.608,236.125 220.274,170.792 214.5,105.5C 214.5,102.833 214.5,100.167 214.5,97.5C 217.385,97.8064 220.052,97.4731 222.5,96.5C 234.815,95.5428 247.148,94.8762 259.5,94.5 Z"/></g>
<g><path style="opacity:1" fill="#a5a4a7" d="M 259.5,94.5 C 261.607,93.5318 263.941,93.1984 266.5,93.5C 266.5,96.8333 266.5,100.167 266.5,103.5C 265.523,100.713 265.19,97.7131 265.5,94.5C 263.5,94.5 261.5,94.5 259.5,94.5 Z"/></g>
<g><path style="opacity:1" fill="#757478" d="M 222.5,96.5 C 220.052,97.4731 217.385,97.8064 214.5,97.5C 214.5,100.167 214.5,102.833 214.5,105.5C 213.523,102.713 213.19,99.7131 213.5,96.5C 216.5,96.5 219.5,96.5 222.5,96.5 Z"/></g>
<g><path style="opacity:1" fill="#5e5c61" d="M 266.5,110.5 C 267.167,112.833 267.833,115.167 268.5,117.5C 268.44,118.043 268.107,118.376 267.5,118.5C 266.52,115.914 266.187,113.247 266.5,110.5 Z"/></g>
<g><path style="opacity:1" fill="#412085" d="M 84.5,104.5 C 86.2167,112.945 87.2167,121.612 87.5,130.5C 85.7208,122.063 84.7208,113.396 84.5,104.5 Z"/></g>
<g><path style="opacity:1" fill="#fcfcfc" d="M 284.5,126.5 C 295.564,124.782 304.398,128.449 311,137.5C 320.504,154.195 324.337,172.195 322.5,191.5C 323.042,207.846 318.708,222.679 309.5,236C 301.942,241.179 293.609,242.846 284.5,241C 282.333,239.5 280.167,238 278,236.5C 275.493,206.463 272.66,176.463 269.5,146.5C 269.72,142.005 271.22,138.005 274,134.5C 277.4,131.586 280.9,128.92 284.5,126.5 Z"/></g>
<g><path style="opacity:1" fill="#6f6e73" d="M 114.5,249.5 C 115.884,254.944 116.55,260.611 116.5,266.5C 115.116,261.056 114.45,255.389 114.5,249.5 Z"/></g>
<g><path style="opacity:1" fill="#878589" d="M 281.5,261.5 C 280.539,263.265 280.205,265.265 280.5,267.5C 279.203,265.307 279.203,262.973 280.5,260.5C 281.107,260.624 281.44,260.957 281.5,261.5 Z"/></g>
<g><path style="opacity:1" fill="#98969b" d="M 230.5,301.5 C 231.884,306.944 232.55,312.611 232.5,318.5C 231.116,313.056 230.45,307.389 230.5,301.5 Z"/></g>
</svg>
