<?xml version="1.0" encoding="UTF-8"?>
<svg width="180px" height="180px" viewBox="0 0 180 180" version="1.1" xmlns="http://www.w3.org/2000/svg" xmlns:xlink="http://www.w3.org/1999/xlink">
    <title>devicon:replit</title>
    <g id="Page-1" stroke="none" stroke-width="1" fill="none" fill-rule="evenodd">
        <g id="devicon:replit">
            <rect id="ViewBox" x="0" y="1.32116256e-06" width="180" height="180"></rect>
            <path d="M15.46875,11.2500013 C15.46875,8.26593882 16.6570313,5.40422007 18.7734375,3.29484507 C20.8933455,1.18377354 23.7635519,-0.00102097049 26.7553125,6.60154193e-07 L79.419375,6.60154193e-07 C82.4106485,-0.000648859451 85.280281,1.18411747 87.3998438,3.29484507 C89.5126975,5.40333094 90.7009966,8.2650626 90.703125,11.2500013 L90.703125,60.0004701 L26.7539063,60.0004701 C23.76312,60.0004701 20.8940614,58.8160101 18.7748438,56.7056263 C16.6606137,54.5972572 15.4712508,51.7348941 15.46875,48.7490638 L15.46875,11.2500013 Z M90.703125,60.0004698 L154.652344,60.0004698 C157.643617,59.9998199 160.51325,61.1845862 162.632812,63.2953138 C164.746182,65.4035692 165.934999,68.2653293 165.9375,71.2504701 L165.9375,108.749533 C165.934999,111.734673 164.746182,114.596433 162.632812,116.704689 C160.51325,118.815416 157.643617,120.000183 154.652344,119.999533 L90.703125,119.999533 L90.703125,60.0004698 Z M15.46875,131.249533 C15.46875,128.266876 16.6570313,125.405158 18.7734375,123.295783 C20.8927708,121.184539 23.7624315,119.999533 26.7539063,119.999533 L90.703125,119.999533 L90.703125,168.750001 C90.7006238,171.735142 89.5118071,174.596902 87.3984375,176.705158 C85.2788747,178.815885 82.4092422,180.000652 79.4179688,180.000002 L26.7539063,180.000002 C23.76312,180.000002 20.8940614,178.815541 18.7748438,176.705158 C16.6609583,174.597133 15.4716239,171.735344 15.46875,168.750001 L15.46875,131.249533 Z" id="Shape" fill="#F26207" fill-rule="nonzero"></path>
        </g>
    </g>
</svg>