<?xml version="1.0" encoding="UTF-8"?>
<!DOCTYPE svg PUBLIC "-//W3C//DTD SVG 1.1//EN" "http://www.w3.org/Graphics/SVG/1.1/DTD/svg11.dtd">
<svg xmlns="http://www.w3.org/2000/svg" version="1.1" width="460px" height="460px" style="shape-rendering:geometricPrecision; text-rendering:geometricPrecision; image-rendering:optimizeQuality; fill-rule:evenodd; clip-rule:evenodd" xmlns:xlink="http://www.w3.org/1999/xlink">
<g><path style="opacity:1" fill="#f2f3f5" d="M -0.5,-0.5 C 152.833,-0.5 306.167,-0.5 459.5,-0.5C 459.5,152.833 459.5,306.167 459.5,459.5C 306.167,459.5 152.833,459.5 -0.5,459.5C -0.5,306.167 -0.5,152.833 -0.5,-0.5 Z"/></g>
<g><path style="opacity:1" fill="#020202" d="M 193.5,181.5 C 193.5,183.833 193.5,186.167 193.5,188.5C 181.5,188.5 169.5,188.5 157.5,188.5C 155.394,176.56 148.394,169.394 136.5,167C 129.167,166.333 121.833,166.333 114.5,167C 99.0237,170.791 93.5237,180.291 98,195.5C 103.2,201.701 109.7,205.867 117.5,208C 135.142,210.994 152.142,215.994 168.5,223C 197.102,240.218 204.268,264.051 190,294.5C 177.393,311.06 160.56,320.226 139.5,322C 118.094,324.706 97.7612,321.372 78.5,312C 61.0133,300.198 52.0133,283.698 51.5,262.5C 64.1667,262.5 76.8333,262.5 89.5,262.5C 90.7532,276.263 98.0865,285.096 111.5,289C 125.335,292.083 138.335,290.083 150.5,283C 157.94,275.581 159.44,267.081 155,257.5C 152.257,255.212 149.423,253.045 146.5,251C 131.368,246.031 116.035,241.698 100.5,238C 86.0084,234.176 73.8417,226.676 64,215.5C 48.44,178.771 59.2733,152.938 96.5,138C 120.478,130.951 143.811,132.617 166.5,143C 181.616,151.605 190.616,164.439 193.5,181.5 Z"/></g>
<g><path style="opacity:1" fill="#8622e6" d="M 228.5,138.5 C 258.192,138.085 287.858,138.585 317.5,140C 334.799,141.558 348.299,149.391 358,163.5C 368.215,185.098 364.382,203.598 346.5,219C 340.829,221.608 335.163,224.108 329.5,226.5C 359.107,232.288 372.607,250.288 370,280.5C 364.345,302.82 350.178,316.32 327.5,321C 322.53,321.886 317.53,322.552 312.5,323C 284.502,323.5 256.502,323.667 228.5,323.5C 228.5,261.833 228.5,200.167 228.5,138.5 Z"/></g>
<g><path style="opacity:1" fill="#f2f3f5" d="M 267.5,170.5 C 279.838,170.333 292.171,170.5 304.5,171C 322.555,175.785 328.055,186.952 321,204.5C 317.681,208.747 313.514,211.914 308.5,214C 294.907,215.446 281.24,215.946 267.5,215.5C 267.5,200.5 267.5,185.5 267.5,170.5 Z"/></g>
<g><path style="opacity:1" fill="#777879" d="M 193.5,181.5 C 194.473,183.948 194.806,186.615 194.5,189.5C 181.989,189.829 169.655,189.495 157.5,188.5C 169.5,188.5 181.5,188.5 193.5,188.5C 193.5,186.167 193.5,183.833 193.5,181.5 Z"/></g>
<g><path style="opacity:1" fill="#f2f3f5" d="M 267.5,242.5 C 280.837,242.333 294.171,242.5 307.5,243C 328.075,248.23 334.575,260.73 327,280.5C 324.011,284.491 320.178,287.324 315.5,289C 299.557,290.438 283.557,290.938 267.5,290.5C 267.5,274.5 267.5,258.5 267.5,242.5 Z"/></g>
<g><path style="opacity:1" fill="#8622e6" d="M 393.5,282.5 C 405.56,280.894 414.06,285.56 419,296.5C 421.788,307.766 418.288,316.6 408.5,323C 386.524,327.688 376.357,318.855 378,296.5C 381.524,289.799 386.691,285.132 393.5,282.5 Z"/></g>
</svg>
