<?xml version="1.0" encoding="UTF-8"?>
<svg width="180px" height="180px" viewBox="0 0 180 180" version="1.1" xmlns="http://www.w3.org/2000/svg" xmlns:xlink="http://www.w3.org/1999/xlink">
    <title>simple-icons:vk</title>
    <g id="Page-1" stroke="none" stroke-width="1" fill="none" fill-rule="evenodd">
        <g id="simple-icons:vk">
            <rect id="ViewBox" x="0" y="0" width="180" height="180"></rect>
            <path d="M71.1675,0.03 L76.635,0.0075 L103.365,0.0075 L108.84,0.03 L115.695,0.105 L118.9425,0.1575 L122.0775,0.24 L125.1,0.345 L128.01,0.465 L130.815,0.6225 L133.515,0.81 L136.1025,1.035 L138.6,1.2825 C151.65,2.7525 160.5975,5.9025 167.3475,12.6525 C174.0975,19.4025 177.2475,28.3425 178.7175,41.4 L178.9725,43.8975 L179.19,46.4925 L179.3775,49.1925 L179.5275,51.99 L179.715,56.4 L179.805,59.475 L179.9025,64.305 L179.97,71.1675 L180,78.5175 L179.9925,103.365 L179.97,108.84 L179.895,115.695 L179.8425,118.9425 L179.76,122.0775 L179.655,125.1 L179.535,128.01 L179.3775,130.815 L179.19,133.515 L178.965,136.1025 L178.7175,138.6 C177.2475,151.65 174.0975,160.5975 167.3475,167.3475 C160.5975,174.0975 151.6575,177.2475 138.6,178.7175 L136.1025,178.9725 L133.5075,179.19 L130.8075,179.3775 L128.01,179.5275 L123.6,179.715 L120.525,179.805 L115.695,179.9025 L108.8325,179.97 L101.4825,180 L76.635,179.9925 L71.16,179.97 L64.305,179.895 L61.0575,179.8425 L57.9225,179.76 L54.9,179.655 L51.99,179.535 L49.185,179.3775 L46.485,179.19 L43.8975,178.965 L41.4,178.7175 C28.35,177.2475 19.4025,174.0975 12.6525,167.3475 C5.9025,160.5975 2.7525,151.6575 1.2825,138.6 L1.0275,136.1025 L0.81,133.5075 L0.6225,130.8075 L0.4725,128.01 L0.285,123.6 L0.195,120.525 L0.0975,115.695 L0.03,108.8325 L0,101.4825 L0.0075,76.635 L0.03,71.16 L0.105,64.305 L0.1575,61.0575 L0.24,57.9225 L0.345,54.9 L0.465,51.99 L0.6225,49.185 L0.81,46.485 L1.035,43.8975 L1.2825,41.4 C2.7525,28.35 5.9025,19.4025 12.6525,12.6525 C19.4025,5.9025 28.3425,2.7525 41.4,1.2825 L43.8975,1.0275 L46.4925,0.81 L49.1925,0.6225 L51.99,0.4725 L56.4,0.285 L59.475,0.195 L64.305,0.0975 L71.1675,0.03 Z" id="Path" fill="#0077FF" fill-rule="nonzero"></path>
            <path d="M50.925,54.75 L30.375,54.75 C31.35,101.55 54.75,129.675 95.775,129.675 L98.1,129.675 L98.1,102.9 C113.175,104.4 124.575,115.425 129.15,129.675 L150.45,129.675 C144.6,108.375 129.225,96.6 119.625,92.1 C129.225,86.55 142.725,73.05 145.95,54.75 L126.6,54.75 C122.4,69.6 109.95,83.1 98.1,84.375 L98.1,54.75 L78.75,54.75 L78.75,106.65 C66.75,103.65 51.6,89.1 50.925,54.75" id="Path" fill="#FFFFFF" fill-rule="nonzero"></path>
        </g>
    </g>
</svg>