<?xml version="1.0" encoding="UTF-8"?>
<!DOCTYPE svg PUBLIC "-//W3C//DTD SVG 1.1//EN" "http://www.w3.org/Graphics/SVG/1.1/DTD/svg11.dtd">
<svg xmlns="http://www.w3.org/2000/svg" version="1.1" width="200px" height="200px" style="shape-rendering:geometricPrecision; text-rendering:geometricPrecision; image-rendering:optimizeQuality; fill-rule:evenodd; clip-rule:evenodd" xmlns:xlink="http://www.w3.org/1999/xlink">
<g><path style="opacity:1" fill="#fefefe" d="M -0.5,-0.5 C 66.1667,-0.5 132.833,-0.5 199.5,-0.5C 199.5,66.1667 199.5,132.833 199.5,199.5C 132.833,199.5 66.1667,199.5 -0.5,199.5C -0.5,132.833 -0.5,66.1667 -0.5,-0.5 Z"/></g>
<g><path style="opacity:1" fill="#89563e" d="M 96.5,25.5 C 99.3198,25.2475 101.986,25.7475 104.5,27C 127,49.5 149.5,72 172,94.5C 174,97.8333 174,101.167 172,104.5C 149.5,127 127,149.5 104.5,172C 101.167,174 97.8333,174 94.5,172C 72,149.5 49.5,127 27,104.5C 25,101.167 25,97.8333 27,94.5C 50.0616,71.2712 73.2283,48.2712 96.5,25.5 Z"/></g>
<g><path style="opacity:1" fill="#faf8f7" d="M 90.5,50.5 C 94.8461,50.3343 99.1794,50.501 103.5,51C 106.934,52.5293 108.6,55.196 108.5,59C 108.424,61.7384 107.424,64.0717 105.5,66C 106.833,68.3333 108.167,70.6667 109.5,73C 109.237,74.9457 108.237,75.6123 106.5,75C 104.126,72.961 102.126,70.6277 100.5,68C 98.2305,67.2419 96.0639,67.4086 94,68.5C 93.7638,70.764 93.2638,72.9307 92.5,75C 91.5509,75.6172 90.7175,75.4506 90,74.5C 89.2004,66.4211 89.3671,58.4211 90.5,50.5 Z"/></g>
<g><path style="opacity:1" fill="#92614b" d="M 94.5,54.5 C 98.287,53.8144 101.454,54.8144 104,57.5C 104.711,59.3668 104.211,60.8668 102.5,62C 94.6219,64.5814 91.9553,62.0814 94.5,54.5 Z"/></g>
<g><path style="opacity:1" fill="#f7f4f3" d="M 50.5,87.5 C 56.8333,87.5 63.1667,87.5 69.5,87.5C 69.67,88.8221 69.3366,89.9887 68.5,91C 66.567,91.2511 64.7337,91.7511 63,92.5C 62.6667,98.5 62.3333,104.5 62,110.5C 60.6667,111.833 59.3333,111.833 58,110.5C 57.6667,104.5 57.3333,98.5 57,92.5C 54.9592,91.5769 52.7925,91.2436 50.5,91.5C 50.5,90.1667 50.5,88.8333 50.5,87.5 Z"/></g>
<g><path style="opacity:1" fill="#f7f4f3" d="M 132.5,87.5 C 137.511,87.3341 142.511,87.5007 147.5,88C 148.833,89 148.833,90 147.5,91C 143.848,91.4986 140.182,91.6653 136.5,91.5C 136.5,93.5 136.5,95.5 136.5,97.5C 139.187,97.3359 141.854,97.5026 144.5,98C 145.727,99.5874 145.394,100.921 143.5,102C 141.19,102.497 138.857,102.663 136.5,102.5C 136.664,105.187 136.497,107.854 136,110.5C 134.644,111.38 133.144,111.714 131.5,111.5C 131.199,103.414 131.533,95.4144 132.5,87.5 Z"/></g>
<g><path style="opacity:1" fill="#f4efed" d="M 92.5,123.5 C 93.4959,123.414 94.3292,123.748 95,124.5C 95.4995,130.825 95.6662,137.158 95.5,143.5C 99.1817,143.335 102.848,143.501 106.5,144C 107.833,145.333 107.833,146.667 106.5,148C 101.833,148.667 97.1667,148.667 92.5,148C 92,147.5 91.5,147 91,146.5C 90.3333,139.5 90.3333,132.5 91,125.5C 91.7172,124.956 92.2172,124.289 92.5,123.5 Z"/></g>
</svg>
