<?xml version="1.0" encoding="UTF-8"?>
<svg width="240px" height="240px" viewBox="0 0 240 240" version="1.1" xmlns="http://www.w3.org/2000/svg" xmlns:xlink="http://www.w3.org/1999/xlink">
    <title>13ft</title>
    <g id="Page-1" stroke="none" stroke-width="1" fill="none" fill-rule="evenodd">
        <g id="13ft">
            <rect id="box" fill="#FFFFFF" x="0" y="0" width="240" height="240" rx="32"></rect>
            <g id="text" transform="translate(26, 88)" fill="#000000" fill-rule="nonzero">
                <polygon id="Path" points="40.4512821 52.4307692 40.4512821 62.2358974 3.48717949 62.2358974 3.48717949 52.4307692 17.1897436 52.4307692 17.1897436 18.1333333 5.4974359 25.4358974 0 16.5333333 18.3384615 5.37435897 29.825641 5.37435897 29.825641 52.4307692"></polygon>
                <path d="M66.7897436,3.93846154 C70.8923077,3.93846154 74.3863248,4.6017094 77.2717949,5.92820513 C80.157265,7.25470085 82.3589744,9.01880342 83.8769231,11.2205128 C85.3948718,13.4222222 86.1538462,15.8495726 86.1538462,18.5025641 C86.1538462,22.1128205 85.0940171,25.0324786 82.974359,27.2615385 C80.8547009,29.4905983 78.0444444,31.1111111 74.5435897,32.1230769 C78.4547009,32.642735 81.6683761,33.9760684 84.1846154,36.1230769 C86.7008547,38.2700855 87.9589744,41.6410256 87.9589744,46.2358974 C87.9589744,49.4358974 87.0769231,52.3487179 85.3128205,54.974359 C83.5487179,57.6 81.025641,59.6991453 77.7435897,61.2717949 C74.4615385,62.8444444 70.5367521,63.6307692 65.9692308,63.6307692 C61.7299145,63.6307692 57.9282051,62.8854701 54.5641026,61.3948718 C51.2,59.9042735 48.3282051,57.8051282 45.9487179,55.0974359 L53.2512821,48.2871795 C54.8923077,50.174359 56.7179487,51.5487179 58.7282051,52.4102564 C60.7384615,53.2717949 62.8649573,53.7025641 65.1076923,53.7025641 C67.9247863,53.7025641 70.2222222,52.9846154 72,51.5487179 C73.7777778,50.1128205 74.6666667,48.0410256 74.6666667,45.3333333 C74.6666667,42.3247863 73.825641,40.157265 72.1435897,38.8307692 C70.4615385,37.5042735 68.0888889,36.8410256 65.025641,36.8410256 L59.8564103,36.8410256 L61.3333333,27.8974359 L65.025641,27.8974359 C67.5418803,27.8974359 69.6,27.2820513 71.2,26.0512821 C72.8,24.8205128 73.6,22.9606838 73.6,20.4717949 C73.6,18.3384615 72.834188,16.6564103 71.3025641,15.425641 C69.7709402,14.1948718 67.7880342,13.5794872 65.3538462,13.5794872 C63.0837607,13.5794872 61.025641,14.017094 59.1794872,14.8923077 C57.3333333,15.7675214 55.6034188,16.9709402 53.9897436,18.5025641 L47.3435897,11.6102564 C49.9418803,9.09401709 52.8547009,7.18632479 56.0820513,5.88717949 C59.3094017,4.58803419 62.8786325,3.93846154 66.7897436,3.93846154 Z" id="Path"></path>
                <path d="M127.179487,0 C130.352137,0 133.155556,0.252991453 135.589744,0.758974359 C138.023932,1.26495726 140.198291,1.92820513 142.112821,2.74871795 L138.54359,11.2 C137.039316,10.625641 135.494017,10.208547 133.907692,9.94871795 C132.321368,9.68888889 130.748718,9.55897436 129.189744,9.55897436 C126.618803,9.55897436 124.779487,10.0239316 123.671795,10.9538462 C122.564103,11.8837607 122.010256,13.4290598 122.010256,15.5897436 L122.010256,21.4153846 L136.205128,21.4153846 L134.769231,30.4 L122.010256,30.4 L122.010256,62.2358974 L109.128205,62.2358974 L109.128205,30.4 L99.9794872,30.4 L99.9794872,21.4153846 L109.128205,21.4153846 L109.128205,15.0974359 C109.128205,12.225641 109.811966,9.65470085 111.179487,7.38461538 C112.547009,5.11452991 114.57094,3.31623932 117.251282,1.98974359 C119.931624,0.663247863 123.241026,0 127.179487,0 Z" id="Path"></path>
                <path d="M187.897436,59.6923077 C186.201709,60.7863248 184.150427,61.7162393 181.74359,62.4820513 C179.336752,63.2478632 176.62906,63.6307692 173.620513,63.6307692 C167.931624,63.6307692 163.705983,62.174359 160.94359,59.2615385 C158.181197,56.3487179 156.8,52.3897436 156.8,47.3846154 L156.8,27.6102564 L147.651282,27.6102564 L147.651282,18.6666667 L156.8,18.6666667 L156.8,9.23076923 L169.764103,7.67179487 L169.764103,18.6666667 L183.794872,18.6666667 L182.523077,27.6102564 L169.764103,27.6102564 L169.764103,47.3846154 C169.764103,49.5452991 170.25641,51.0905983 171.241026,52.0205128 C172.225641,52.9504274 173.798291,53.4153846 175.958974,53.4153846 C177.490598,53.4153846 178.892308,53.2307692 180.164103,52.8615385 C181.435897,52.4923077 182.577778,52.0205128 183.589744,51.4461538 L187.897436,59.6923077 Z" id="Path"></path>
            </g>
        </g>
    </g>
</svg>