<?xml version="1.0" encoding="UTF-8"?>
<svg width="241px" height="240px" viewBox="0 0 241 240" version="1.1" xmlns="http://www.w3.org/2000/svg" xmlns:xlink="http://www.w3.org/1999/xlink">
    <title>abuseipdb</title>
    <g id="Page-1" stroke="none" stroke-width="1" fill="none" fill-rule="evenodd">
        <g id="abuseipdb" transform="translate(0.2088, 0)">
            <rect id="Rectangle" stroke="#FF0000" stroke-width="21" x="11.2911817" y="10.5" width="219" height="219" rx="109.5"></rect>
            <rect id="Rectangle" fill="#D8D8D8" x="47.7911817" y="103" width="135" height="49"></rect>
            <g id="hat" transform="translate(115.2912, 120) rotate(-12) translate(-115.2912, -120)translate(13.7912, 43)" fill="#000000" fill-rule="nonzero">
                <path d="M135.401,88.7992074 C148.799,88.7992074 168.084,86.0528402 168.084,70.0832232 C168.1855,68.8626156 168.084,67.6420079 167.7795,66.4214003 L159.8625,31.8375165 C158.0355,24.2087186 156.4115,20.7503303 143.0135,14.0369881 C132.6605,8.74768824 110.1275,-1.15753476e-13 103.4285,-1.15753476e-13 C97.237,-1.15753476e-13 95.9682636,4.04105073 88.5587636,4.04105073 C81.4537636,4.04105073 75.6175,2.0343461 68.9185,2.0343461 C62.524,2.0343461 58.3625,6.40819022 55.1145,15.3593131 C55.1145,15.3593131 46.1825,40.7886394 44.9645,44.4504624 C44.863,45.1624835 44.7615,45.7727873 44.7615,46.4848085 C44.7615,56.3513871 83.5345,88.6974901 135.401,88.6974901 M170.555143,91.6781237 C170.555143,106.935719 153.579191,114.828525 132.606135,111.412932 C87.7891889,104.114214 40.7846859,91.479897 36.9687155,72.2690508 C35.1786147,63.2570963 45.9491508,44.2362169 46.9641508,41.7950016 C28.9986508,42.60874 7.876876e-14,58.2840159 7.876876e-14,78.8309115 C7.876876e-14,112.601057 79.576,154 142.6075,154 C190.9215,154 203,132.130779 203,114.838838 C203,101.208719 188.226943,81.9864254 167.114943,72.831868 C168.884584,75.5432217 170.555143,90.7626679 170.555143,91.6781237 Z" id="Shape"></path>
            </g>
            <line x1="51.7911817" y1="49" x2="195.791182" y2="192" id="Line" stroke="#FF0000" stroke-width="21" stroke-linecap="square"></line>
        </g>
    </g>
</svg>