<?xml version="1.0" encoding="UTF-8"?>
<svg width="240px" height="240px" viewBox="0 0 240 240" version="1.1" xmlns="http://www.w3.org/2000/svg" xmlns:xlink="http://www.w3.org/1999/xlink">
    <title>abusech</title>
    <g id="Page-1" stroke="none" stroke-width="1" fill="none" fill-rule="evenodd">
        <g id="abusech">
            <rect id="box" fill="#FFC107" x="0" y="0" width="240" height="240" rx="32"></rect>
            <g id="shape" transform="translate(39, 58)" fill="#000000" fill-rule="nonzero">
                <polygon id="rect5110-1-7-8-9" points="83.2730562 124 94.3414017 124 94.3414017 0 83.2730562 0"></polygon>
                <path d="M49.2895642,69.1608286 L28.4154544,69.1608286 L15.7461162,102.031496 L0,102.031496 L32.0352523,21.480315 L45.549085,21.480315 L77.5843373,102.031496 L61.9589025,102.031496 L49.2895642,69.1608286 Z M38.6708641,40.519685 C35.8409442,49.0993822 33.3141479,56.2695458 31.0906592,62.0301757 L28.4301202,69.1682261 L49.303242,69.1682261 L46.4936782,62.0301757 C44.2701894,56.228652 41.7433932,49.0584885 38.9134733,40.519685 L38.6708641,40.519685 Z" id="path5322"></path>
                <path d="M116.85453,23.1023094 C118.526071,23.1023094 120.124934,23.284593 121.651119,23.6491601 C123.177309,23.9894234 124.485471,24.4755134 125.575603,25.1074301 L125.575603,29.8103502 C124.049413,29.2270423 122.644351,28.7895614 121.360417,28.4979075 C120.076484,28.2062536 118.768322,28.0604266 117.435933,28.0604266 C116.030871,28.0604266 114.637923,28.2913192 113.257089,28.7531045 C111.876249,29.2148904 110.640763,29.9804821 109.55063,31.0498797 C108.460498,32.0949729 107.576277,33.4924816 106.897968,35.2424058 C106.243888,36.968025 105.916847,39.1189729 105.916847,41.6952495 C105.916847,43.5666957 106.159101,45.2923152 106.643609,46.872108 C107.152333,48.4519003 107.891201,49.8251043 108.860211,50.99172 C109.853443,52.1340314 111.088929,53.0332979 112.566669,53.6895195 C114.044404,54.3214362 115.752281,54.6373945 117.690301,54.6373945 C119.095363,54.6373945 120.512536,54.4915675 121.94182,54.1999136 C123.37111,53.8839553 124.764061,53.4464744 126.120672,52.8874709 L126.120672,57.590391 C125.708843,57.8334362 125.163776,58.076481 124.485473,58.3195256 C123.831393,58.5625707 123.104634,58.769159 122.305197,58.9392904 C121.505765,59.1337267 120.657884,59.2795537 119.761552,59.3767713 C118.86522,59.4982938 117.968888,59.5590551 117.072556,59.5590551 C114.746935,59.5590551 112.542441,59.2066399 110.459076,58.5018095 C108.399934,57.796979 106.595156,56.715429 105.044743,55.2571593 C103.494331,53.7988896 102.270958,51.9517478 101.374627,49.7157339 C100.478289,47.47972 100.03012,44.8305299 100.03012,41.7681636 C100.03012,39.4835403 100.26026,37.4298103 100.72054,35.6069735 C101.205048,33.7841361 101.859129,32.1800391 102.682783,30.7946827 C103.506442,29.4093262 104.463338,28.230558 105.553471,27.258378 C106.667831,26.286198 107.842753,25.4963019 109.078237,24.8886896 C110.337948,24.2567729 111.633998,23.8071398 112.966388,23.5397903 C114.298771,23.2481364 115.594819,23.1023094 116.85453,23.1023094 Z" id="path842"></path>
                <path d="M139.288872,28.7531045 L139.397881,28.7531045 C140.027739,27.9510565 140.73027,27.2097695 141.505473,26.5292434 C142.280683,25.824413 143.140678,25.2289526 144.08546,24.7428624 C145.030242,24.2324682 146.0477,23.8314442 147.137832,23.5397903 C148.227965,23.2481364 149.402887,23.1023094 150.662598,23.1023094 C151.97076,23.1023094 153.278921,23.284593 154.587083,23.6491601 C155.895244,23.9894234 157.106506,24.6091882 158.220866,25.5084544 C159.335227,26.4077206 160.243673,27.6594023 160.946204,29.2634995 C161.648735,30.8675962 162,32.9334784 162,35.4611462 L162,58.6476367 L156.367641,58.6476367 L156.367641,36.3725646 C156.367641,33.5775473 155.834686,31.4752081 154.768775,30.0655473 C153.727093,28.6558864 152.007102,27.9510559 149.608802,27.9510559 C147.622337,27.9510559 145.732773,28.4979072 143.94011,29.5916098 C142.14744,30.6610079 140.597028,32.1435823 139.288872,34.0393329 L139.288872,58.6476367 L133.656504,58.6476367 L133.656504,5.85826772 L139.288872,5.85826772 L139.288872,28.7531045 Z" id="path844"></path>
            </g>
        </g>
    </g>
</svg>