<svg width="93" height="93" viewBox="0 0 93 93" fill="none" xmlns="http://www.w3.org/2000/svg">
<path d="M0 8C0 5.19974 0 3.79961 0.544967 2.73005C1.02433 1.78924 1.78924 1.02433 2.73005 0.544967C3.79961 0 5.19974 0 8 0H85C87.8003 0 89.2004 0 90.27 0.544967C91.2108 1.02433 91.9757 1.78924 92.455 2.73005C93 3.79961 93 5.19974 93 8V85C93 87.8003 93 89.2004 92.455 90.27C91.9757 91.2108 91.2108 91.9757 90.27 92.455C89.2004 93 87.8003 93 85 93H8C5.19974 93 3.79961 93 2.73005 92.455C1.78924 91.9757 1.02433 91.2108 0.544967 90.27C0 89.2004 0 87.8003 0 85V8Z" fill="url(#paint0_radial_748_63)"/>
<path fill-rule="evenodd" clip-rule="evenodd" d="M62.3811 77.5L59.0218 69.6315H34.4607L31.1013 77.5H17.9209L44.7273 15.9844H48.8237L75.5615 77.5H62.3811ZM50.7348 49.2615L54.7369 59.4681H46.7326H38.7284L42.7305 49.2615L46.7326 39.0549L50.7348 49.2615Z" fill="white"/>
<defs>
<radialGradient id="paint0_radial_748_63" cx="0" cy="0" r="1" gradientUnits="userSpaceOnUse" gradientTransform="translate(36.27 46.5) rotate(90) scale(62.31 75.795)">
<stop stop-color="#431658"/>
<stop offset="0.25" stop-color="#3F1353"/>
<stop offset="1" stop-color="#180427"/>
</radialGradient>
</defs>
</svg>
