<?xml version="1.0" encoding="UTF-8"?>
<svg width="240px" height="240px" viewBox="0 0 240 240" version="1.1" xmlns="http://www.w3.org/2000/svg" xmlns:xlink="http://www.w3.org/1999/xlink">
    <title>adobe-illustrator</title>
    <g id="Page-1" stroke="none" stroke-width="1" fill="none" fill-rule="evenodd">
        <g id="adobe-illustrator">
            <rect id="ViewBox" x="0" y="0" width="239.812646" height="240"></rect>
            <path d="M42.529274,3 L197.470726,3 C220.88993,3 240,21.9375 240,45.5625 L240,194.625 C240,218.0625 221.077283,237.1875 197.470726,237.1875 L42.529274,237.1875 C18.9227166,237 0,218.0625 0,194.4375 L0,45.5625 C0,21.9375 18.9227166,3 42.529274,3" id="Path" fill="#330000" fill-rule="nonzero"></path>
            <path d="M115.971897,143.0625 L78.6885246,143.0625 L71.1943794,166.5 C71.0070258,167.4375 70.2576112,168 69.3208431,167.8125 L50.5854801,167.8125 C49.4613583,167.8125 49.2740047,167.25 49.4613583,165.9375 L81.6861827,73.3125 C82.0608899,72.375 82.2482436,71.25 82.6229508,69.9375 C82.9976581,67.875 83.1850117,65.625 83.1850117,63.375 C82.9976581,62.8125 83.559719,62.4375 83.9344262,62.25 L109.789227,62.25 C110.538642,62.25 110.913349,62.625 111.100703,63 L147.63466,165.9375 C148.009368,167.0625 147.63466,167.625 146.697892,167.625 L125.714286,167.625 C124.964871,167.8125 124.40281,167.25 124.028103,166.5 L115.971897,143.0625 Z M84.4964871,122.625 L109.789227,122.625 C109.227166,120.5625 108.477752,117.9375 107.540984,115.5 C106.604215,112.875 105.667447,109.875 104.918033,106.875 C103.981265,103.6875 103.044496,100.6875 102.107728,97.6875 C101.17096,94.5 100.234192,91.6875 99.4847775,88.875 C98.735363,86.0625 97.9859485,83.4375 97.236534,81 L97.0491803,81 C96.1124122,85.3125 94.9882904,89.625 93.676815,93.9375 C92.1779859,98.8125 90.6791569,103.6875 88.9929742,108.75 C87.4941452,113.8125 85.9953162,118.5 84.4964871,122.625 M169.929742,80.0625 C166.557377,80.25 163.372365,78.9375 161.124122,76.5 C158.875878,74.0625 157.564403,70.6875 157.751756,67.3125 C157.564403,63.9375 158.875878,60.75 161.311475,58.5 C163.747073,56.25 166.932084,54.9375 170.117096,54.9375 C174.051522,54.9375 177.04918,56.0625 179.297424,58.5 C181.545667,60.9375 182.669789,64.125 182.669789,67.3125 C182.857143,70.6875 181.545667,74.0625 179.11007,76.5 C176.674473,78.9375 173.302108,80.25 169.929742,80.0625 M158.688525,166.875 L158.688525,89.8125 C158.688525,88.875 159.063232,88.5 160,88.5 L179.859485,88.5 C180.796253,88.5 181.17096,89.0625 181.17096,89.8125 L181.17096,166.875 C181.17096,168 180.796253,168.5625 179.859485,168.5625 L160.187354,168.5625 C159.250585,168.375 158.688525,167.8125 158.688525,166.875" id="Shape" fill="#FF9A00" fill-rule="nonzero"></path>
        </g>
    </g>
</svg>