<?xml version="1.0" encoding="UTF-8"?>
<svg width="240px" height="240px" viewBox="0 0 240 240" version="1.1" xmlns="http://www.w3.org/2000/svg" xmlns:xlink="http://www.w3.org/1999/xlink">
    <title>adobe-lightroom</title>
    <g id="Page-1" stroke="none" stroke-width="1" fill="none" fill-rule="evenodd">
        <g id="adobe-lightroom">
            <rect id="ViewBox" x="0" y="0" width="240" height="240"></rect>
            <rect id="Rectangle" fill="#001E36" fill-rule="nonzero" x="0" y="0" width="240" height="239.616" rx="39.84375"></rect>
            <path d="M126.040312,169.3536 L62.60625,169.3536 C61.531875,169.3536 60.9953125,168.74784 60.9965625,167.53824 L60.9965625,62.8512 C60.9394095,62.4425909 61.0734732,62.0302743 61.3584189,61.738301 C61.6433647,61.4463277 62.0459308,61.3087797 62.445,61.36704 L82.0875,61.36704 C82.3979039,61.3222259 82.7108249,61.4294363 82.9323922,61.65651 C83.1539595,61.8835836 83.2583969,62.2041038 83.214375,62.52192 L83.214375,148.58112 L129.420937,148.58112 C130.386562,148.58112 130.7625,149.07552 130.54875,150.06432 L127.65,167.86944 C127.636156,168.362112 127.397798,168.819715 127.005937,169.10592 C126.707334,169.264473 126.376647,169.349293 126.040312,169.3536 M141.977812,87.41568 L159.526875,87.41568 C160.505625,87.42528 161.360625,88.09728 161.619375,89.06496 C162.002756,89.7870547 162.274723,90.5655432 162.425625,91.3728 C162.649375,92.43456 162.81,93.50624 162.9075,94.58784 C163.01375,95.74176 163.0675,96.97824 163.06875,98.29728 C166.077988,94.708543 169.707355,91.7184435 173.775,89.4768 C178.344281,86.9468271 183.474537,85.6690311 188.668125,85.76736 C189.067194,85.7090997 189.46976,85.8466477 189.754706,86.138621 C190.039652,86.4305943 190.173716,86.8429109 190.116562,87.25152 L190.116562,107.20032 C190.116562,107.97024 189.58,108.35488 188.506875,108.35424 C182.021376,107.94328 175.534168,109.130371 169.589062,111.816 C167.569214,112.711919 165.737741,113.999585 164.195625,115.608 L164.195625,167.8704 C164.195625,168.8592 163.76625,169.3536 162.9075,169.3536 L143.42625,169.3536 C142.982867,169.418716 142.535434,169.266133 142.218707,168.941804 C141.901979,168.617476 141.752972,168.159305 141.816562,167.70528 L141.816562,110.99136 C141.816562,109.61088 141.807812,108.18464 141.790312,106.71264 L141.7575,104.472 C141.75125,104.09248 141.744062,103.7104 141.735937,103.32576 C141.694982,101.321201 141.639355,99.316985 141.569062,97.31328 L141.494062,95.32992 C141.42287,93.0649153 141.208042,90.8070399 140.850937,88.57056 C140.774264,88.2671419 140.84907,87.9445298 141.050763,87.7087943 C141.252455,87.4730588 141.554934,87.3547027 141.85875,87.39264 L141.977812,87.41568 Z" id="Shape" fill="#31A8FF" fill-rule="nonzero"></path>
        </g>
    </g>
</svg>