<?xml version="1.0" encoding="UTF-8"?>
<svg width="240px" height="240px" viewBox="0 0 240 240" version="1.1" xmlns="http://www.w3.org/2000/svg" xmlns:xlink="http://www.w3.org/1999/xlink">
    <title>adobe-after-effects</title>
    <g id="Page-1" stroke="none" stroke-width="1" fill="none" fill-rule="evenodd">
        <g id="adobe-after-effects" transform="translate(0, 0)">
            <rect id="ViewBox" x="0" y="0" width="240" height="240"></rect>
            <rect id="Rectangle" fill="#00005B" fill-rule="nonzero" x="0" y="0" width="240" height="239.616" rx="39.84375"></rect>
            <path d="M96.4153125,143.35968 L59.22375,143.35968 L51.65625,167.47584 C51.4568344,168.325533 50.7270504,168.933671 49.8740625,168.96096 L30.8878125,168.96 C29.8128125,168.96 29.4371875,168.3552 29.7609375,167.1456 L61.96125,72.57696 L62.2828125,71.58336 L62.3896875,71.24352 L62.6053125,70.53312 C62.7121875,70.1664 62.8190625,69.7776 62.926875,69.35616 C63.34875,67.1568 63.564375,64.92096 63.5709375,62.67936 C63.5268352,62.3616072 63.6312847,62.0411217 63.8529088,61.8141786 C64.0745329,61.5872355 64.387507,61.4802793 64.6978125,61.52544 L90.2971875,61.52544 C91.0471875,61.52544 91.4765625,61.80032 91.5853125,62.35008 L128.131875,167.31168 C128.45375,168.4112 128.131875,168.96064 127.16625,168.96 L106.235625,168.96 C105.492386,169.043172 104.803961,168.549668 104.625938,167.80608 L96.4153125,143.35968 Z M65.0203125,123.02592 L90.4584375,123.02592 L90.095625,121.8 L89.5134375,119.85888 L88.66125,117.07872 L87.0253125,111.8304 L85.4671875,106.78656 L82.5684375,97.38912 C81.7675431,94.7950237 80.9987316,92.1906553 80.2621875,89.57664 L79.4390625,86.60448 L78.5503125,83.3472 L77.7384375,80.32608 L77.5771875,80.32608 C76.7713575,84.2832593 75.7903457,88.2008996 74.6371875,92.06688 L73.5496875,95.64096 L70.9340625,104.28096 L69.6084375,108.68256 C69.3690625,109.47744 69.13,110.26336 68.89125,111.04032 L68.17875,113.3424 L67.47,115.59072 L66.765,117.78336 L66.06375,119.92128 C65.714375,120.97728 65.3665625,122.01216 65.0203125,123.02592 M187.380938,133.97376 L155.664375,133.97376 C156.052188,137.187117 157.094342,140.281343 158.723437,143.05632 C160.523795,145.804641 163.069901,147.953681 166.048125,149.23872 C170.084458,151.028201 174.450433,151.904473 178.847812,151.80768 C182.336576,151.738542 185.812174,151.347844 189.2325,150.64032 C192.291422,150.217853 195.28916,149.417795 198.160312,148.2576 C198.697187,147.8192 198.965937,148.09376 198.966562,149.08128 L198.966562,164.74368 C198.992812,165.17088 198.909375,165.59712 198.72375,165.98016 C198.54,166.27968 198.2925,166.53312 198,166.72224 C194.81487,168.166776 191.462826,169.189427 188.025,169.76544 C183.354663,170.663252 178.607903,171.07718 173.856562,171.00096 C166.472812,171.00096 160.24875,169.86656 155.184375,167.59776 L154.696875,167.37408 C149.828051,165.178457 145.527981,161.847566 142.14,157.64736 C138.975027,153.689794 136.620444,149.120309 135.216562,144.2112 C133.827393,139.365501 133.123056,134.341061 133.124795,129.29088 C133.109671,123.776417 133.952096,118.294642 135.620625,113.05152 C137.227138,107.937332 139.767449,103.182057 143.106563,99.0384 C146.401092,94.9438721 150.519878,91.6257581 155.181563,89.31072 C159.90375,86.94912 165.485625,86.10144 171.925313,86.10144 C177.266179,85.9645418 182.57093,87.0340419 187.4625,89.23392 C191.575112,91.0297532 195.195591,93.8297275 198.0075,97.38912 C200.646027,100.873925 202.662638,104.808622 203.964375,109.01184 C205.232108,113.062306 205.883792,117.288371 205.896562,121.54176 C205.896562,123.96096 205.81625,126.15936 205.655625,128.13696 L205.512188,129.8304 L205.362188,131.43744 L205.273125,132.25152 L205.2525,132.42336 C205.166,133.175438 204.54359,133.742245 203.804063,133.7424 L203.3625,133.752 L202.812188,133.7808 L202.38375,133.81248 L201.3825,133.89984 L200.503125,133.98912 C200.26375,134.01472 200.015313,134.03872 199.757813,134.06112 L198.96,134.12544 L198.107813,134.18304 L197.203125,134.23104 L196.245,134.27232 L195.745313,134.2896 L194.7075,134.3184 C193.680938,134.34432 192.629063,134.27904 191.55,134.1984 L189.913125,134.07552 C189.070735,134.012419 188.226503,133.97848 187.381875,133.97376 M155.665313,118.95456 L177.589688,118.95456 L179.457188,118.94208 L180.726563,118.92384 L181.54875,118.90464 L182.47125,118.872 C183.296897,118.787538 184.09407,118.517075 184.805625,118.08 L184.805625,117.0912 C184.773999,115.801745 184.557304,114.524068 184.1625,113.2992 C182.377216,107.517654 177.039176,103.670519 171.121875,103.9008 C165.585283,103.558412 160.374172,106.598403 157.838438,111.64992 C156.734876,113.949511 156.001063,116.416442 155.665313,118.95552" id="Shape" fill="#9999FF" fill-rule="nonzero"></path>
        </g>
    </g>
</svg>