<?xml version="1.0" encoding="UTF-8"?>
<svg width="240px" height="240px" viewBox="0 0 240 240" version="1.1" xmlns="http://www.w3.org/2000/svg" xmlns:xlink="http://www.w3.org/1999/xlink">
    <title>adobe-premiere</title>
    <g id="Page-1" stroke="none" stroke-width="1" fill="none" fill-rule="evenodd">
        <g id="adobe-premiere">
            <rect id="ViewBox" x="0" y="0" width="240" height="240"></rect>
            <path d="M42.4996875,0 L197.500313,0 C220.999687,0 240,19.45632 240,43.51968 L240,196.09632 C240,220.15968 220.999687,239.616 197.500313,239.616 L42.4996875,239.616 C19.0003125,239.616 0,220.15968 0,196.09632 L0,43.51968 C0,19.45632 19.0003125,0 42.4996875,0" id="Path" fill="#00005B" fill-rule="nonzero"></path>
            <path d="M57,168.0384 L57,62.6688 C57,61.95168 57.3,61.54272 58.0003125,61.54272 L59.4515625,61.53984 L60.5746875,61.53024 L61.366875,61.51488 L62.210625,61.4928 L63.1171875,61.46016 L63.6,61.44 C64.5,61.4016 65.4140625,61.3776 66.346875,61.35744 L69.2109375,61.296 C69.5365625,61.28832 69.865,61.27936 70.19625,61.26912 L71.199375,61.23552 C72.099375,61.20224 73.021875,61.17664 73.966875,61.15872 L76.8665625,61.10592 L78.87375,61.0608 L79.9003125,61.03008 C81.9665625,60.96288 83.98875,60.93984 85.9959375,60.93216 L88.9996875,60.92832 C97.2,60.92832 103.999688,61.95168 109.600313,64.10208 C114.620084,65.8481601 119.197342,68.7165687 123,72.4992 C126.221597,75.8102779 128.711171,79.7912434 130.300312,84.1728 C131.800312,88.4736 132.6,92.87712 132.6,97.48512 C132.6,106.29152 130.6,113.56192 126.6,119.29632 C122.599688,125.0304 117,129.3312 110.500312,131.7888 C103.926562,134.26368 96.699375,135.2064 88.8178125,135.26688 L85.959375,135.26688 L84.8465625,135.25536 L84.133125,135.23808 L83.713125,135.21984 L83.33625,135.1968 L82.9996875,135.168 C82.7838154,135.146559 82.5675145,135.129915 82.3509375,135.11808 L81.8634375,135.096 L81.3290625,135.0816 L80.4375,135.06912 L78.7003125,135.06528 L78.7003125,167.93568 C78.7996875,168.6528 78.3,169.2672 77.5996875,169.36992 L58.2,169.36992 C57.4003125,169.36992 57,168.96 57,168.0384 M78.7996875,81.30528 L78.7996875,115.71168 L79.9753125,115.79808 C80.8818667,115.869209 81.7905114,115.908912 82.6996875,115.91712 L88.0003125,115.91712 C91.9003125,115.91712 95.8003125,115.30272 99.4996875,114.07392 C102.700312,113.15232 105.499687,111.2064 107.7,108.64608 C109.8,106.08672 110.800312,102.6048 110.800312,98.09952 C110.8942,94.8993695 110.096206,91.7380095 108.499687,88.98528 C106.87125,86.43456 104.59875,84.44736 101.860312,83.2944 L101.500312,83.14848 C97.8,81.61248 93.7996875,80.99808 89.7,81.1008 L87.388125,81.10368 L86.3015625,81.1104 L85.26375,81.1248 L84.2784375,81.14784 C83.7978125,81.16064 83.3384375,81.1792 82.9003125,81.20352 C82.6853986,81.1925116 82.4703893,81.1835512 82.2553125,81.17664 L81.65625,81.1632 L81.375,81.16128 L80.844375,81.16416 L80.3625,81.1776 L80.139375,81.1872 L79.7296875,81.2112 L79.3696875,81.24 L79.2075,81.25536 L78.9234375,81.28896 L78.7996875,81.30528 Z M146.599688,87.2448 L164.1,87.2448 C165.044062,87.2448 165.810937,87.88416 166.145625,88.73184 L166.2,88.88352 C166.5,89.7024 166.699687,90.52128 166.8,91.44288 C166.999687,92.4672 167.200312,93.59328 167.299687,94.6176 L167.384062,95.60832 C167.449687,96.45408 167.500312,97.3536 167.500312,98.304 C170.364309,94.8802806 173.798781,92.0040292 177.644062,89.80896 L178.2,89.49792 C182.800312,86.83488 188.1,85.50432 193.399687,85.50432 C194.1,85.4016 194.7,85.91328 194.800312,86.6304 L194.800312,107.00832 C194.800312,107.8272 194.299687,108.1344 193.2,108.1344 C189.84,108.0384 186.39375,108.30048 183.103125,109.00128 L182.4,109.15872 C179.5,109.77312 176.7,110.69472 174,111.92352 C172.099687,112.84512 170.299687,114.07392 168.9,115.71168 L168.9,167.93568 C168.9,168.96 168.499687,169.36992 167.599687,169.36992 L147.9,169.36992 C147.100313,169.47168 146.4,168.96 146.299688,168.14112 L146.299688,111.00192 C146.299688,108.54432 146.299688,105.984 146.200312,103.32192 L146.140313,101.32512 L146.059687,97.33152 C146.044688,96.66592 146.024688,96.00032 145.999688,95.33472 C145.999688,92.97888 145.8,90.72672 145.600313,88.37088 C145.5,87.8592 145.8,87.34752 146.299688,87.2448 C146.299688,87.15744 146.446875,87.14496 146.551875,87.2064 L146.599688,87.2448 Z" id="Shape" fill="#9999FF" fill-rule="nonzero"></path>
        </g>
    </g>
</svg>