<?xml version="1.0" encoding="UTF-8"?>
<svg width="240px" height="240px" viewBox="0 0 240 240" version="1.1" xmlns="http://www.w3.org/2000/svg" xmlns:xlink="http://www.w3.org/1999/xlink">
    <title>adobe-incopy</title>
    <g id="Page-1" stroke="none" stroke-width="1" fill="none" fill-rule="evenodd">
        <g id="adobe-incopy">
            <rect id="ViewBox" x="0" y="0" width="240" height="240"></rect>
            <rect id="Rectangle" fill="#49021F" fill-rule="nonzero" x="0" y="0" width="240" height="239.616" rx="39.84375"></rect>
            <path d="M96.496875,62.68512 L96.496875,167.70336 C96.496875,168.80288 96.01375,169.35264 95.0475,169.35264 L75.56625,169.35264 C74.70625,169.35264 74.276875,168.80288 74.2781223,167.70336 L74.2781223,62.68512 C74.2781223,61.8064 74.76125,61.36672 75.7275,61.36608 L95.20875,61.36608 C95.5633187,61.314747 95.9208208,61.4371425 96.1739399,61.6965252 C96.427059,61.955908 96.5463255,62.3220792 96.4959375,62.68512 M173.292188,150.06432 L173.292188,167.0448 C173.317977,167.654804 173.00713,168.22798 172.487813,168.528 C169.94106,169.505997 167.283714,170.150151 164.579063,170.44512 L163.95375,170.50656 C161.0925,170.79968 158.315313,170.96256 155.622187,170.9952 L154.61625,171.00096 C148.521172,171.101227 142.461107,170.038979 136.745625,167.86848 C131.711556,165.932543 127.150977,162.894433 123.3825,158.9664 C119.710645,155.084194 116.836466,150.487303 114.93,145.44768 C112.917982,140.140043 111.907309,134.489793 111.951563,128.79648 C111.803446,121.014983 113.75298,113.342264 117.585938,106.62144 C121.292987,100.31631 126.587947,95.1482642 132.915938,91.65888 L133.444687,91.37088 C140.260312,87.63648 148.229688,85.76832 157.352813,85.7664 C160.529063,85.70688 163.705313,85.9008 166.8525,86.34336 C168.700967,86.6361271 170.529354,87.0491227 172.326563,87.57984 C172.900313,87.98688 173.209688,88.68384 173.130938,89.39424 L172.970625,106.37472 C172.970625,107.36288 172.54125,107.74752 171.6825,107.52864 C169.906225,106.88067 168.072582,106.411258 166.2075,106.12704 C163.544062,105.711897 160.852063,105.519262 158.158125,105.55104 C154.05948,105.488122 149.99581,106.331299 146.244375,108.02304 C142.795583,109.588804 139.88086,112.171735 137.8725,115.44192 C135.8325,118.7392 134.812813,122.91584 134.813438,127.97184 C134.813438,133.68768 136.020938,138.19392 138.435938,141.49056 C140.745632,144.709629 143.941101,147.149459 147.613125,148.4976 C151.196327,149.849575 154.983499,150.546879 158.802188,150.55776 C161.061563,150.56832 163.319063,150.46464 165.567188,150.24576 L166.53,150.14592 C168.385142,149.975326 170.219147,149.616444 172.005,149.07456 C172.861875,148.85568 173.290938,149.18528 173.292187,150.06336" id="Shape" fill="#FF3366" fill-rule="nonzero"></path>
        </g>
    </g>
</svg>