<?xml version="1.0" encoding="UTF-8"?>
<svg width="240px" height="240px" viewBox="0 0 240 240" version="1.1" xmlns="http://www.w3.org/2000/svg" xmlns:xlink="http://www.w3.org/1999/xlink">
    <title>adobe-indesign</title>
    <g id="Page-1" stroke="none" stroke-width="1" fill="none" fill-rule="evenodd">
        <g id="adobe-indesign">
            <rect id="ViewBox" x="0" y="0" width="240" height="240"></rect>
            <rect id="Rectangle" fill="#49021F" fill-rule="nonzero" x="0" y="0" width="240" height="239.616" rx="39.84375"></rect>
            <path d="M87.1584375,62.68512 L87.1584375,167.70336 C87.1584375,168.80288 86.6753125,169.35264 85.7090625,169.35264 L66.2278125,169.35264 C65.3678125,169.35264 64.93875,168.80288 64.9406189,167.70336 L64.9406189,62.68512 C64.9406189,61.8064 65.4234375,61.36672 66.3890625,61.36608 L85.8703125,61.36608 C86.2018808,61.3179957 86.5373141,61.4217533 86.7874348,61.649768 C87.0375554,61.8777827 87.1770197,62.2069506 87.16875,62.54976 L87.1584375,62.68512 Z M145.832813,170.9904 L144.795938,171.00096 C137.385651,171.116714 130.04331,169.539936 123.302813,166.38528 C117.02329,163.40921 111.774018,158.551161 108.249375,152.45376 C104.688125,146.3968 102.864375,138.848 102.778125,129.80736 L102.775313,129.12576 C102.714853,121.559089 104.603295,114.109788 108.250313,107.52864 C111.905866,101.004945 117.237379,95.631802 123.665625,91.99296 L124.18875,91.70112 C131.16375,87.74464 139.589375,85.7664 149.465625,85.7664 L149.67375,85.76736 L150.135938,85.77792 L150.659063,85.79904 L151.243125,85.82976 L151.887188,85.87104 L152.59125,85.92384 L154.182188,86.05728 L154.617188,86.09568 L154.617188,53.61888 C154.617188,52.85024 154.939063,52.46528 155.582813,52.464 L175.869375,52.464 C176.135355,52.4249279 176.403769,52.5164568 176.593771,52.7110188 C176.783773,52.9055808 176.873156,53.1804361 176.835,53.4528 L176.835,150.888 C176.841294,152.923658 176.921975,154.958361 177.076875,156.98784 L177.22875,159.11328 L177.362813,161.09184 L177.479063,162.92256 C177.519809,163.623546 177.136437,164.278343 176.513438,164.57184 C171.279897,166.80652 165.828854,168.464185 160.2525,169.5168 C155.494507,170.416838 150.671605,170.909739 145.83375,170.9904 M154.618125,150.55776 L154.618125,105.55008 C153.74806,105.308663 152.859561,105.14327 151.962188,105.05568 C150.865404,104.942227 149.763611,104.887113 148.66125,104.89056 C144.75375,104.8512 140.893125,105.75456 137.391563,107.52864 C133.981191,109.265906 131.068943,111.878919 128.939063,115.11264 C126.737813,118.40928 125.6375,122.75072 125.638125,128.13696 C125.560141,131.730496 126.133257,135.30771 127.328438,138.68736 C128.30158,141.410826 129.839713,143.885902 131.836875,145.94208 C133.748661,147.83379 136.063614,149.244661 138.599063,150.06336 C141.276938,150.950933 144.075682,151.396504 146.890313,151.383643 C148.392188,151.383643 149.7875,151.328 151.07625,151.21728 C152.104339,151.138008 153.123418,150.964514 154.12125,150.69888 L154.618125,150.55776 Z" id="Shape" fill="#FF3366" fill-rule="nonzero"></path>
        </g>
    </g>
</svg>