<?xml version="1.0" encoding="UTF-8"?>
<svg width="240px" height="240px" viewBox="0 0 240 240" version="1.1" xmlns="http://www.w3.org/2000/svg" xmlns:xlink="http://www.w3.org/1999/xlink">
    <title>adobe-animate</title>
    <g id="Page-1" stroke="none" stroke-width="1" fill="none" fill-rule="evenodd">
        <g id="adobe-animate" transform="translate(0, 0)">
            <rect id="ViewBox" x="0" y="0" width="240" height="240"></rect>
            <rect id="Rectangle" fill="#00005B" fill-rule="nonzero" x="0" y="0" width="240" height="239.616" rx="39.84375"></rect>
            <path d="M97.0434375,143.35968 L59.8528125,143.35968 L52.2140625,167.39136 C52.0143789,168.240338 51.2851745,168.84792 50.4328125,168.87552 L31.445625,168.87552 C30.370625,168.87552 29.995,168.27072 30.31875,167.06112 L62.653125,72.57792 L63.0815625,71.27904 C63.260625,70.72896 63.4396875,70.14432 63.61875,69.4416 C64.040625,67.24224 64.25625,65.0064 64.2628125,62.7648 C64.2187102,62.4470472 64.3231597,62.1265617 64.5447838,61.8996186 C64.7664079,61.6726755 65.079382,61.5657193 65.3896875,61.61088 L90.988125,61.61088 C91.738125,61.61088 92.1675,61.88576 92.27625,62.43552 L128.68875,167.22624 C129.010625,168.32576 128.68875,168.8752 127.723125,168.87456 L106.793437,168.87456 C106.049862,168.958244 105.360879,168.464627 105.182812,167.72064 L97.0434375,143.35968 Z M65.7121875,123.02592 L91.149375,123.02592 L90.7875,121.8 L90.204375,119.85888 L89.353125,117.07872 L87.7171875,111.8304 L83.2603125,97.38912 C82.4592258,94.7950846 81.6904135,92.1907137 80.9540625,89.57664 L80.1309375,86.60448 L79.4559375,84.14016 L78.62625,81.05856 L78.4303125,80.32608 L78.27,80.32608 C77.4638611,84.2832747 76.4825365,88.2009151 75.3290625,92.06688 L74.2415625,95.64096 L71.6259375,104.28096 L69.94125,109.86816 L69.2259375,112.19808 L68.5153125,114.47328 L67.8084375,116.69376 C67.1285839,118.8111 66.4294911,120.921911 65.71125,123.02592 M139.958438,167.30592 L139.958438,106.53888 C139.959063,106.12416 139.957813,105.69856 139.954688,105.26208 L139.943438,103.91808 L139.92375,102.50976 L139.87875,100.27488 L139.825313,98.3232 C139.796252,97.3809245 139.761877,96.4388288 139.722188,95.49696 L139.637813,93.67968 L139.515938,91.4256 L139.414688,89.7744 L139.354688,88.93152 L139.315313,88.44384 C139.187474,88.1090917 139.249624,87.7295302 139.475625,87.45504 C139.741383,87.2165074 140.089848,87.0977953 140.442188,87.12576 L156.51375,87.12576 C157.06823,87.1069712 157.619449,87.2196637 158.124375,87.45504 C158.558438,87.68448 158.8575,88.11456 158.92875,88.60896 L159.653438,90.8352 C159.950033,91.9260155 160.138794,93.0445988 160.216875,94.17408 C163.329658,91.3819946 166.936758,89.2275168 170.8425,87.82752 C174.72578,86.4504759 178.807985,85.7536714 182.9175,85.7662287 C186.117802,85.7819907 189.295984,86.3106336 192.336562,87.33312 C199.452266,89.6629357 205.086273,95.2796537 207.55125,102.50112 C209.160938,106.7328 209.791875,112.20096 209.791875,118.90368 L209.791875,167.30592 C209.791875,168.29472 209.3625,168.78912 208.50375,168.78912 L189.69375,168.96 C189.250217,169.025454 188.802499,168.87302 188.485542,168.548645 C188.168585,168.22427 188.019464,167.765895 188.083125,167.31168 L188.083125,121.38912 C188.030453,118.313626 187.36932,115.281004 186.139688,112.47456 C185.276078,110.40404 183.851071,108.630338 182.033437,107.36352 C179.980017,106.074933 177.597646,105.443485 175.191563,105.55008 C172.604062,105.51168 170.035313,105.9888 167.625,106.95168 C165.421928,107.853349 163.401926,109.166904 161.668125,110.82528 L161.668125,167.30592 C161.668125,168.29472 161.23875,168.78912 160.38,168.78912 L141.409688,168.78912 C141.010655,168.847645 140.608002,168.710363 140.322872,168.418579 C140.037742,168.126795 139.903418,167.714567 139.960313,167.30592" id="Shape" fill="#9999FF" fill-rule="nonzero"></path>
        </g>
    </g>
</svg>