<?xml version="1.0" encoding="UTF-8"?>
<svg width="240px" height="240px" viewBox="0 0 240 240" version="1.1" xmlns="http://www.w3.org/2000/svg" xmlns:xlink="http://www.w3.org/1999/xlink">
    <title>ai21-brand-color</title>
    <g id="Page-1" stroke="none" stroke-width="1" fill="none" fill-rule="evenodd">
        <g id="ai21-brand-color">
            <rect id="box" x="0" y="0" width="240" height="240"></rect>
            <g id="Group" transform="translate(0, 14)">
                <path d="M66.1502884,99.43172 L62.4032574,87.6127966 L27.7837288,87.6127966 L24.0316342,99.43172 L0,99.43172 L34.7461175,2.10149395 L55.4560593,2.10149395 L90.6173884,99.4367816 L66.1502884,99.4367816 L66.1502884,99.43172 Z M45.1669146,29.91013 L33.2169238,69.9527436 L56.8434735,69.9527436 L45.1719782,29.91013 L45.1669146,29.91013 Z M93.2909456,2.10149395 L116.082009,2.10149395 L116.082009,99.4367816 L93.2909456,99.4367816 L93.2909456,2.09643231 L93.2909456,2.10149395 Z M122.224101,79.5445465 C123.248301,74.7414169 125.056538,70.139597 127.57628,65.9236802 C129.76743,62.3602511 132.512525,59.1685359 135.70835,56.4685415 C138.972629,53.7589631 142.433816,51.2955995 146.063321,49.0987974 C148.934356,47.4284571 151.597787,45.8289797 154.053611,44.3003651 C156.31702,42.9084149 158.479159,41.3544922 160.514708,39.6436587 C162.276825,38.1808455 163.755383,36.414334 164.894683,34.4301722 C165.978284,32.4510719 166.530212,30.2188898 166.489703,27.9613995 C166.489703,24.0690004 165.426357,21.2648532 163.299663,19.5489581 C161.036254,17.79257 158.236108,16.8865369 155.375199,16.9776463 C152.121045,16.8825823 148.957594,18.0570816 146.554485,20.2525257 C144.189805,22.4290298 143.009997,26.0734088 143.009997,31.165416 L120.629082,31.165416 C120.590554,26.9306545 121.371153,22.7283612 122.927936,18.7897125 C124.416621,15.0441008 126.720539,11.6730503 129.662464,8.91951956 C132.801332,6.0342261 136.490319,3.81168706 140.5086,2.38494564 C145.237398,0.727291656 150.222996,-0.0781909071 155.233419,0.00597605254 C159.534043,-0.0132713726 163.815957,0.572883269 167.953071,1.74717933 C171.801373,2.81012319 175.406624,4.60700447 178.586537,7.0315288 C181.705593,9.47425558 184.203828,12.6184121 185.878057,16.2082774 C187.771827,20.374005 188.698457,24.9142938 188.592123,29.4849524 C188.641454,33.3544888 187.733485,37.1762533 185.948947,40.6104315 C184.241484,43.8760203 182.064675,46.8739667 179.48785,49.5087901 C176.971263,52.0801019 174.201498,54.3831469 171.219064,56.392617 C168.251821,58.3869021 165.563073,60.077489 163.157884,61.4694393 C159.815937,63.6965598 157.061363,65.619982 154.889098,67.239706 C153.021425,68.5887789 151.276199,70.0996055 149.673636,71.7546865 C148.476349,72.9850177 147.553118,74.4547278 146.964633,76.0672016 C146.429191,77.7294828 146.172548,79.4688623 146.2051,81.2148869 L187.898416,81.2148869 L187.898416,99.4266583 L120.350586,99.4266583 C120.234124,92.7452969 120.867069,86.0791204 122.229165,79.5445465 L122.224101,79.5445465 Z M192.202438,19.1997052 C196.096312,19.2806914 199.990186,18.9314384 203.808107,18.1570079 C206.358409,17.6722084 208.761025,16.601318 210.826195,15.0289159 C212.484051,13.652008 213.693456,11.8121531 214.299794,9.74456646 C214.993501,7.25930248 215.322632,4.68292903 215.271996,2.10149395 L235.151515,2.10149395 L235.151515,99.4367816 L212.223736,99.4367816 L212.223736,35.0476919 L192.202438,35.0476919 L192.202438,19.1997052 L192.202438,19.1997052 Z" id="Shape" fill="#FFFFFF"></path>
                <path d="M0.0050561347,111.568295 L21.2357657,111.568295 L21.2357657,209.191938 L0,209.191938 L0,111.563218 L0.0050561347,111.568295 Z M99.6311342,141.916404 L99.6311342,209.136095 L78.3953685,209.136095 L78.3953685,199.652945 C77.5240449,201.285105 76.3992816,202.767449 75.0633757,204.044232 C73.6367343,205.421178 72.0270832,206.593163 70.2802723,207.526802 C68.4044463,208.531975 66.4274976,209.32393 64.3797631,209.892513 C62.3067479,210.491556 60.1578906,210.796154 57.9989211,210.80123 C53.4372163,210.853232 48.9171483,209.925476 44.7417359,208.080155 C40.8315109,206.348521 37.3147304,203.833261 34.4069966,200.688578 C31.4657756,197.455195 29.1998223,193.662721 27.7430111,189.535217 C24.5973828,180.45771 24.5973828,170.579559 27.7430111,161.502052 C29.1992157,157.372746 31.4651994,153.578494 34.4069966,150.343614 C37.3152099,147.20076 40.8319564,144.687252 44.7417359,142.957114 C48.9174836,141.113387 53.4375688,140.187358 57.9989211,140.241115 C60.1578906,140.246192 62.3067479,140.55079 64.3848192,141.149832 C66.4376099,141.723492 68.4196147,142.54083 70.2802723,143.586616 C72.034751,144.571483 73.647658,145.789875 75.0684318,147.216408 C76.3678584,148.49572 77.4953765,149.952713 78.4004246,151.536623 L78.4004246,141.916404 L99.6311342,141.916404 L99.6311342,141.916404 Z M62.4382074,192.682729 C64.6881873,192.713189 66.9179427,192.235985 68.9606211,191.286655 C72.8224103,189.474753 75.798662,186.182849 77.2223452,182.148716 C78.0111022,180.031761 78.4105369,177.787889 78.4004246,175.528788 C78.4325885,171.118466 76.8511011,166.849745 73.9560822,163.532705 C72.5622706,161.948111 70.8606106,160.66626 68.955565,159.765844 C64.8042327,157.907541 60.0620698,157.907541 55.9107375,159.765844 C54.0059866,160.666752 52.3044195,161.948532 50.9102203,163.532705 C48.0182645,166.851226 46.4387864,171.119378 46.470934,175.528788 C46.4608217,177.787889 46.8602564,180.036837 47.6490134,182.153793 C49.0756691,186.186141 52.0510046,189.477032 55.9107375,191.291732 C57.9534159,192.241062 60.1831713,192.713189 62.4331512,192.677652 L62.4382074,192.682729 Z M125.43259,209.186861 L104.196824,209.186861 L104.196824,111.568295 L125.43259,111.568295 L125.43259,151.587389 C127.393037,148.241347 130.222558,145.493359 133.618472,143.637382 C135.489241,142.611903 137.461134,141.789488 139.513925,141.200599 C141.612221,140.591403 143.786358,140.286805 145.965553,140.291882 C150.527257,140.239879 155.047325,141.167636 159.222738,143.012957 C163.13113,144.739012 166.655256,147.257021 169.557477,150.404534 C172.497048,153.63915 174.76279,157.431272 176.221463,161.557895 C179.362737,170.63614 179.362737,180.512814 176.221463,189.59106 C174.763396,193.719485 172.497623,197.513383 169.557477,200.749498 C166.650121,203.894612 163.133245,206.40994 159.222738,208.141075 C155.046943,209.984651 150.52689,210.910674 145.965553,210.857073 C143.783333,210.862786 141.611277,210.558559 139.513925,209.953433 C137.474248,209.366785 135.499012,208.574168 133.618472,207.587722 C131.842158,206.665142 130.207418,205.490539 128.764582,204.100075 C127.426943,202.823615 126.300465,201.341261 125.427533,199.708788 L125.427533,209.186861 L125.43259,209.186861 Z M141.531322,192.733495 C143.735797,192.753802 145.920047,192.276598 147.917221,191.337421 C151.778666,189.525052 154.754765,186.233317 156.178945,182.199483 C156.967702,180.087604 157.367136,177.838655 157.351968,175.579554 C157.385058,171.169978 155.805459,166.9015 152.912682,163.583471 C151.516906,162.000153 149.813514,160.720021 147.907108,159.821687 C145.913623,158.879785 143.734418,158.400881 141.531322,158.420536 C137.082635,158.34792 132.824801,160.232301 129.876932,163.578395 C126.983075,166.894125 125.401667,171.160824 125.43259,175.569401 C125.420378,177.831326 125.819619,180.07648 126.610669,182.194406 C127.343808,184.199676 128.451102,186.04757 129.871876,187.636556 C132.866526,190.913303 137.102159,192.764914 141.531322,192.733495 L141.531322,192.733495 Z M218.480636,169.584051 C221.291508,170.371692 224.0681,171.277828 226.803034,172.300049 C229.224923,173.18846 231.515352,174.406852 233.603535,175.924765 C235.524866,177.346222 237.117549,179.183963 238.255179,181.295842 C239.488876,183.803699 240.0855,186.585693 239.989433,189.382918 C240.103726,192.903829 239.289147,196.392524 237.628218,199.49557 C236.050328,202.24343 233.80682,204.546672 231.105805,206.191648 C228.137854,207.983699 224.866534,209.237627 221.463756,209.88236 C217.595813,210.643855 213.667196,211.019525 209.733523,210.999219 C200.202709,210.999219 192.684237,208.907646 187.183163,204.724501 C181.671976,200.541356 180.038844,194.540776 180.038844,186.732916 L199.742601,186.732916 C199.742601,190.266252 200.73866,192.799491 202.725721,194.332634 C204.964743,195.945058 207.678588,196.755003 210.43127,196.632349 C212.625632,196.728805 214.809883,196.226218 216.741326,195.170279 C218.386145,194.150871 219.323476,192.292138 219.168271,190.357631 C219.225834,189.218477 218.856,188.09904 218.131763,187.220272 C217.222297,186.273096 216.136649,185.514202 214.936286,184.986554 C213.141661,184.15218 211.287681,183.453059 209.389706,182.894981 C207.114446,182.199483 204.409413,181.341532 201.269554,180.316052 C198.59747,179.515304 195.95781,178.60927 193.356703,177.600054 C191.014208,176.708868 188.797716,175.51421 186.763503,174.046411 C184.870706,172.654594 183.32802,170.837935 182.258487,168.74133 C181.063889,166.21918 180.49159,163.445338 180.589963,160.654254 C180.589963,153.678961 183.24949,148.521103 188.568543,145.170525 C193.892653,141.825025 201.082477,140.149736 210.148126,140.144659 C214.445721,140.073055 218.728935,140.661987 222.849137,141.891021 C226.145737,142.865734 229.219866,144.50041 231.869281,146.703668 C234.179935,148.683555 236.005199,151.160952 237.213615,153.958176 C238.416975,156.775707 239.033824,159.811533 239.018655,162.882896 L218.060977,162.882896 C218.208919,160.522396 217.438529,158.196396 215.91212,156.39496 C214.133895,154.732188 211.740867,153.897497 209.31892,154.095245 C207.367385,154.046959 205.442268,154.555715 203.767284,155.562392 C202.202239,156.513034 201.292509,158.257722 201.406069,160.090748 C201.36818,161.199013 201.767994,162.277413 202.518419,163.091038 C203.453804,164.014985 204.566154,164.751097 205.779626,165.253684 C207.518936,166.015178 209.303752,166.670064 211.12396,167.20311 C213.247537,167.863073 215.699762,168.649951 218.480636,169.578974 L218.480636,169.584051 Z" id="Shape" fill="#E91E63"></path>
            </g>
        </g>
    </g>
</svg>