<?xml version="1.0" encoding="UTF-8"?>
<svg width="240px" height="240px" viewBox="0 0 240 240" version="1.1" xmlns="http://www.w3.org/2000/svg" xmlns:xlink="http://www.w3.org/1999/xlink">
    <title>aistudio</title>
    <g id="Page-1" stroke="none" stroke-width="1" fill="none" fill-rule="evenodd">
        <g id="aistudio">
            <rect id="box" x="0" y="0" width="240" height="240"></rect>
            <g id="shape" transform="translate(0, 25)" fill-rule="nonzero">
                <path d="M150.596547,112 C150.245659,115.820367 151.488804,119.690479 154.135498,122.515959 C156.792218,125.341439 160.541701,126.83377 163.940297,128.166919 C167.649679,129.609506 170.877844,130.783473 174.346618,132.822992 C177.654986,134.763022 180.58239,137.17065 183.028577,140.145363 C193.083356,152.357427 192.164072,170.146711 180.903202,181.274005 C169.707562,192.349111 151.791264,192.957109 139.859389,182.666847 C136.799403,179.913235 134.113455,176.776222 131.869179,173.334804 C128.480609,151.307999 135.057243,128.236561 150.596547,112 L150.596547,112 Z" id="Path" fill="#85A8FF"></path>
                <path d="M164.589145,100.107144 C168.308051,97.940032 171.787028,96.4120683 175.835836,94.9839715 C179.734689,93.6257816 183.703522,92.4972855 187.712342,91.4886297 C191.711166,90.4699873 195.739981,89.6111319 199.778793,88.7422898 C203.807607,87.8834344 207.816428,87.0445523 211.715281,85.5665221 C230.809663,78.2462778 242.376261,58.602457 239.587081,38.1696876 C236.787905,17.7469049 220.392728,1.99789355 200.038716,0.170329139 C190.791437,-0.648579506 181.864063,1.54849247 173.606492,5.40335511 C165.368916,9.23824438 157.831133,14.6909776 151.273063,20.9326593 C138.02696,33.5158897 128.229842,49.6743554 122.261598,66.8714369 C116.290083,84.2752949 113.962611,102.719394 115.423609,121.059221 C116.123404,130.14711 117.762921,139.304905 120.382151,148.053246 C122.941398,156.631814 126.650307,165.490009 131.638839,173 C129.469506,158.896275 131.359106,144.467089 137.087236,131.395446 C142.805554,118.412748 152.292763,107.277588 164.589145,100.107144 L164.589145,100.107144 Z" id="Path" fill="#0057CC"></path>
                <path d="M79.9884066,113.149085 C78.7089785,111.659821 77.3178348,110.272674 75.8273689,109 C77.6943739,112.265019 77.8830606,115.982117 77.0985212,119.548521 C76.2559736,123.079745 74.6481285,126.37739 72.3912852,129.20293 C70.1223768,132.004346 67.4978131,134.490495 64.5856154,136.596941 C62.0731034,138.505721 58.3986787,140.926858 56.1245077,143.207348 C49.4308089,149.945614 48.0684353,160.401744 52.8075946,168.664446 C57.4867242,176.912258 67.1437079,180.841511 76.1650187,178.168162 C81.1304576,176.681323 85.3510805,173.345981 88.6977863,169.52842 C92.0742847,165.660629 94.8251378,161.069511 97,156.428162 C96.4579007,140.44358 90.444782,125.145647 79.9884066,113.149085 L79.9884066,113.149085 Z" id="Path" fill="#85A8FF"></path>
                <path d="M36.7512446,24 C50.5738391,23.989996 63.9878349,31.780619 73.704511,40.5225392 C84.0191363,49.8051967 92.0017593,61.6313223 97.2637131,74.4888544 C102.545599,87.4064684 105.096849,101.38553 104.997191,115.344564 C104.897532,128.903052 102.266556,143.603096 96.4265841,156 C95.8838623,140.060961 89.8497175,124.805859 79.3551318,112.84115 C77.5721055,110.753959 75.5442704,108.891232 73.3158439,107.293586 C71.064802,105.742905 68.6182862,104.500306 66.0407942,103.598547 C60.9980885,101.786076 55.2976386,100.934915 50.0556164,100.354123 C44.6441753,99.7332768 39.2128026,99.3727852 33.8113273,98.5616792 C28.2703305,97.7305459 23.2973856,96.4988664 18.3543381,93.584893 C3.92704436,85.0522883 -3.06108034,67.8955002 1.27291993,51.647709 C5.50013774,35.4216428 20.0587196,24.0804785 36.7512446,24.0100233 L36.7512446,24 Z" id="Path" fill="#0057CC"></path>
            </g>
        </g>
    </g>
</svg>