<?xml version="1.0" encoding="UTF-8"?>
<svg width="240px" height="241px" viewBox="0 0 240 241" version="1.1" xmlns="http://www.w3.org/2000/svg" xmlns:xlink="http://www.w3.org/1999/xlink">
    <title>aivalley</title>
    <g id="Page-1" stroke="none" stroke-width="1" fill="none" fill-rule="evenodd">
        <g id="aivalley" transform="translate(-123, 156.7885)">
            <rect id="box" x="123" y="-156" width="240" height="240"></rect>
            <g id="shape" transform="translate(137, -155)">
                <path d="M211.052207,120.473914 L211.082904,170.721393 C211.086202,176.118783 208.189487,181.101794 203.497625,183.769803 L114.028582,234.646034 C111.80796,235.62088 110.477781,236.178647 110.038045,236.319335 C109.598309,236.460023 108.252294,236.758471 106,237.214679 L106,180.211456 L211.052207,120.473914 Z M144.98507,96.0427449 L145.099105,141.977899 L106,164.211456 L106,118.211456 L144.98507,96.0427449 Z M209.002654,59.6393899 C209.813674,60.3933419 210.355181,61.2073317 210.627175,62.0813592 C210.899169,62.9553868 211.040604,64.3359712 211.051481,66.2231126 L211.035166,104.483609 L159.055152,134.041847 L159.041727,88.0494803 L209.002654,59.6393899 Z" id="right" fill="#60AD50"></path>
                <path d="M106,73.5241518 L145.099105,95.9778992 L106,118.211456 L66.0650528,96.3737252 L106,73.5241518 Z M39.9349472,37.0086505 L91.0991051,65.9778992 L52,88.2114564 L1.98131178,60.9385431 C3.13413816,59.681798 4.36070497,58.5028398 5.66101222,57.4016686 C6.96131948,56.3004974 8.42142745,55.2042325 10.0413361,54.112874 L39.9349472,37.0086505 Z M112.941793,2.00793086 L201.996637,53.4003883 C203.049656,54.0770194 204.104415,54.8621631 205.160914,55.7558193 C206.217412,56.6494755 207.499802,57.94297 209.008083,59.6363027 L159.041727,88.0494803 L53.1510992,28.039669 L99.0256532,1.96263465 C103.343938,-0.492060816 108.639579,-0.474823815 112.941793,2.00793086 Z" id="top" fill="#BCFDAA"></path>
                <path d="M66.0409325,158.360009 L106,180.211456 L106,237.215989 C104.160107,236.961534 102.589112,236.640625 101.287014,236.253262 C99.984916,235.865898 98.8885548,235.393291 97.9979305,234.835439 L66.0136063,217.34447 L66.0409325,158.360009 Z M66.0650528,96.3737252 L106,118.211456 L106,164.211456 L66.0331529,142.355585 L66.0650528,96.3737252 Z M52,88.2114564 L2.03586429,60.9539641 C1.42316331,62.0140329 0.944157216,63.4239794 0.598846005,65.1838035 C0.253534795,66.9436276 0.0621671405,68.9501351 0.0247430429,71.2033261 L0.00202882314,170.960584 C0.00077827184,176.452807 3.00124687,181.506568 7.82374333,184.134885 L52,208.211456 L52,208.211456 L52,88.2114564 Z" id="left" fill="#A1FD92"></path>
            </g>
        </g>
    </g>
</svg>