<?xml version="1.0" encoding="UTF-8"?>
<svg width="240px" height="240px" viewBox="0 0 240 240" version="1.1" xmlns="http://www.w3.org/2000/svg" xmlns:xlink="http://www.w3.org/1999/xlink">
    <title>alibabacloud</title>
    <g id="Page-1" stroke="none" stroke-width="1" fill="none" fill-rule="evenodd">
        <g id="alibabacloud">
            <rect id="box" x="0" y="0" width="240" height="240"></rect>
            <path d="M142.932643,57 L186.882097,57 C205.348535,57 219.998353,72.2763257 219.998353,90.7244662 L219.998353,149.9067 C220.061009,158.700777 216.592379,167.152948 210.368485,173.372238 C204.144592,179.591529 195.684911,183.05885 186.882097,182.999244 L142.932643,182.999244 L153.757508,167.722143 L185.607113,157.549026 C191.340375,155.634282 195.156995,149.9067 195.156995,144.187444 L195.156995,95.8193497 C195.156995,90.1000932 191.340375,84.3725117 185.607113,82.4577678 L153.749175,72.2763257 L142.915976,57 L142.932643,57 Z M44.8338596,144.170794 C44.8338596,149.898375 48.6671454,155.625957 54.3920743,157.540701 L86.2416792,167.08112 L97.0748782,182.358221 L53.1170902,182.358221 C44.3142761,182.417827 35.8545953,178.950506 29.6307021,172.731216 C23.406809,166.511925 19.9381782,158.059754 20.0008343,149.265677 L20.0008343,90.7161412 C20.0008343,72.2680007 34.6506526,57 53.1254234,57 L97.0665449,57 L86.2500125,72.2680007 L54.3920743,82.4494429 C48.6588121,84.3641867 44.8421928,90.0917682 44.8421928,95.8193497 L44.8421928,144.170794 L44.8338596,144.170794 Z" id="Shape" fill="#FF6A00" fill-rule="nonzero"></path>
            <polygon id="Path" fill="#FF6A00" fill-rule="nonzero" points="153.999188 111 86.9991876 111 86.9991876 131 153.999188 131 153.999188 111"></polygon>
        </g>
    </g>
</svg>