<?xml version="1.0" encoding="UTF-8"?>
<svg width="240px" height="240px" viewBox="0 0 240 240" version="1.1" xmlns="http://www.w3.org/2000/svg" xmlns:xlink="http://www.w3.org/1999/xlink">
    <title>alienvault</title>
    <g id="Page-1" stroke="none" stroke-width="1" fill="none" fill-rule="evenodd">
        <g id="alienvault">
            <rect id="box" fill="#FFFFFF" x="0" y="0" width="240" height="240" rx="32"></rect>
            <g id="shape" transform="translate(39, 13)">
                <path d="M110.887029,0.0155809001 C119.946025,-0.0260170959 128.983682,0.0156809554 138,0.14065004 C117.117364,56.7727071 96.1968201,113.387379 75.2384937,169.984542 C66.1378243,170.025815 57.0583682,169.984542 48,169.859473 C68.9630962,113.24355 89.9254393,56.6290026 110.887029,0.0155809001 Z" id="Path" fill="#33A6FE"></path>
                <path d="M27.2384937,190.984541 C18.1378243,191.025817 9.0583682,190.984541 0,190.859462 C20.8890377,134.250098 41.8513808,77.6735039 62.8870293,21.1276794 C71.9244351,20.9817126 80.9620921,20.9609495 90,21.0651401 C69.0972803,77.7112777 48.1767364,134.351412 27.2384937,190.984541 Z" id="Path" fill="#011AFE"></path>
                <path d="M134.924791,44.0078297 C143.949861,43.9869557 152.97493,44.0078297 162,44.0703268 C141.071866,100.700094 120.180084,157.34386 99.3259053,214 C90.2172284,214 81.1086769,214 72,214 C92.9500696,157.32761 113.924958,100.663095 134.924791,44.0078297 Z" id="Path" fill="#CBE9FE"></path>
            </g>
        </g>
    </g>
</svg>