<?xml version="1.0" encoding="UTF-8"?>
<svg width="240px" height="240px" viewBox="0 0 240 240" version="1.1" xmlns="http://www.w3.org/2000/svg" xmlns:xlink="http://www.w3.org/1999/xlink">
    <title>alpine</title>
    <g id="Page-1" stroke="none" stroke-width="1" fill="none" fill-rule="evenodd">
        <g id="alpine" transform="translate(0, 0)">
            <rect id="ViewBox" x="0" y="0" width="240" height="240"></rect>
            <polygon id="Path" fill="#FFFFFF" points="59.98 16.07 0 120 59.98 223.93 180.02 223.93 240 120 180.02 16.07"></polygon>
            <path d="M59.98,16.07 L0,120 L59.98,223.93 L180.02,223.93 L240,120 L180.02,16.07 L59.98,16.07 Z M99.65,71.2 L126.6,99 L142.58,114.95 L142.6,114.93 L166.7,138.56 C164.706667,139.946667 162.83,141.093333 161.07,142 C159.467571,142.834519 157.810443,143.559513 156.11,144.17 C154.72236,144.643356 153.301887,145.01435 151.86,145.28 C150.553333,145.506667 149.36,145.62 148.28,145.62 C146.986667,145.606667 145.86,145.493333 144.9,145.28 C144.078683,145.117837 143.274951,144.876718 142.5,144.56 C141.79214,144.26141 141.121047,143.882242 140.5,143.43 L129.88,132.51 L99.49,102.1 L88.49,112.63 L57.79,143.35 C57.1679835,143.795279 56.496928,144.167715 55.79,144.46 C55.0250671,144.7783 54.2314572,145.022745 53.42,145.19 C52.3071724,145.412543 51.1748572,145.523094 50.04,145.52 C48.96,145.526667 47.7666667,145.423333 46.46,145.21 C45.0173376,144.934547 43.5968509,144.553522 42.21,144.07 C40.509557,143.459513 38.852429,142.734519 37.25,141.9 C35.2999199,140.881767 33.4191662,139.735943 31.62,138.47 L99.65,71.2 Z M146.85,79.05 L192.64,125.03 L206.46,138.56 C204.657891,139.829747 202.773779,140.978921 200.82,142 C199.224051,142.833695 197.573631,143.558677 195.88,144.17 C194.4891,144.643828 193.065268,145.014826 191.62,145.28 C190.313333,145.506667 189.113333,145.62 188.02,145.62 C186.733333,145.606667 185.61,145.493333 184.65,145.28 C183.297254,145.000951 181.997623,144.508104 180.8,143.82 C180.602279,143.71713 180.423144,143.581934 180.27,143.42 L167.95,131.24 L146.84,110.13 L143.5,113.47 L127.9,98 L146.86,79.03 L146.85,79.05 Z M87.19,120.25 L87.19,145.54 C85.9952611,145.529903 84.8038302,145.412768 83.63,145.19 C82.1969675,144.906591 80.7865487,144.518893 79.41,144.03 C77.7375754,143.425928 76.1072923,142.711009 74.53,141.89 C72.6081205,140.878407 70.7541936,139.742668 68.98,138.49 L87.18,120.24 L87.19,120.25 Z" id="Shape" fill="#0D597F" fill-rule="nonzero"></path>
        </g>
    </g>
</svg>