<?xml version="1.0" encoding="UTF-8"?>
<svg width="240px" height="240px" viewBox="0 0 240 240" version="1.1" xmlns="http://www.w3.org/2000/svg" xmlns:xlink="http://www.w3.org/1999/xlink">
    <title>amex</title>
    <g id="Page-1" stroke="none" stroke-width="1" fill="none" fill-rule="evenodd">
        <g id="amex">
            <rect id="ViewBox" x="0" y="0" width="240" height="240"></rect>
            <polygon id="Path" fill="#FFFFFF" fill-rule="nonzero" points="0 0 240 0 240 240 0 240"></polygon>
            <path d="M0,0 L0,240 L240,240 L240,202.08 L206.88,202.08 L194.64,187.761562 L181.92,202.08 L87.84,202.08 L87.84,125.841562 L56.7984375,125.841562 L95.6015625,38.0015625 L133.358438,38.0015625 L142.478438,57.9215625 L142.478438,38.0015625 L189.36,38.0015625 L197.198438,58.8815625 L204.878438,38.0015625 L240,38.0015625 L240,0 L0,0 Z M212.88,50.4 L200.558437,82.8815625 L197.28,91.6846875 L193.92,82.8815625 L181.521563,50.4 L154.401563,50.4 L154.401563,114.403125 L170.721563,114.403125 L170.721563,72.7246875 L170.64,64.32 L173.841563,72.7246875 L189.441563,114.403125 L204.96,114.403125 L220.641563,72.7246875 L223.68,64.4015625 L223.68,114.403125 L240,114.403125 L240,50.4 L212.88,50.4 Z M104.4,50.4 L76.08,114.403125 L94.636875,114.403125 L99.6,102.081563 L130.641563,102.081563 L135.6,114.403125 L154.401563,114.403125 L126.24,50.4 L104.4,50.4 Z M111.916875,72.0815625 L115.118437,64.0846875 L118.32,72.0815625 L124.958438,88.2384375 L105.278438,88.2384375 L111.916875,72.0815625 Z M214.161563,125.923125 L194.88,146.64 L175.68,125.923125 L100.958438,125.923125 L100.958438,189.681562 L154.401563,189.681562 L154.401563,175.844063 L117.278438,175.844063 L117.278438,164.721563 L153.681563,164.721563 L153.681563,150.964687 L117.278438,150.964687 L117.278438,139.761562 L154.401563,139.761562 L154.401563,125.924063 L184.238438,157.92 L154.401563,189.681562 L175.041563,189.681562 L194.481562,168.883125 L213.84,189.681562 L235.036875,189.681562 L205.118438,157.68 L235.036875,125.923125 L214.161563,125.923125 Z M221.918438,157.603125 L240,176.001563 L240,139.44 L221.918438,157.603125 Z" id="Shape" fill="#006FCF" fill-rule="nonzero"></path>
        </g>
    </g>
</svg>