<?xml version="1.0" encoding="UTF-8"?>
<svg width="241px" height="241px" viewBox="0 0 241 241" version="1.1" xmlns="http://www.w3.org/2000/svg" xmlns:xlink="http://www.w3.org/1999/xlink">
    <title>angularjs</title>
    <g id="Page-1" stroke="none" stroke-width="1" fill="none" fill-rule="evenodd">
        <g id="angularjs" transform="translate(35.157, 139.1758)">
            <rect id="box" x="-35" y="-139" width="240" height="240"></rect>
            <g id="shape" transform="translate(-29, -139)" fill-rule="nonzero">
                <polygon id="Path" fill="#B3B3B3" points="113.13724 0 0 39.7383047 17.8764362 187.67936 113.257524 240 209.129292 186.972401 227 39.0351574"></polygon>
                <polygon id="Path" fill="#A6120D" points="216 48.0164916 113 13 113 228 199.319675 180.37536"></polygon>
                <polygon id="Path" fill="#DD1B16" points="13 48.6506512 28.2963598 181.009079 113 228 113 13"></polygon>
                <path d="M141,127.389925 L113,140.955818 L83.0073837,140.575993 L69.0171767,175.51698 L43,176 L113,21 L141,127.389925 Z M138.269368,120.751251 L112.952939,70.6978211 L92.1856602,119.889802 L112.764422,119.889802 L138.269368,120.751251 Z" id="Shape" fill="#F2F2F2"></path>
                <polygon id="Path" fill="#B3B3B3" points="113 21 113.186667 70.8691653 136.758095 120.268911 113.051429 120.268911 113 140.955818 145.779048 140.988257 161.097143 176.538213 186 177"></polygon>
            </g>
        </g>
    </g>
</svg>