<?xml version="1.0" encoding="UTF-8"?>
<svg width="240px" height="240px" viewBox="0 0 240 240" version="1.1" xmlns="http://www.w3.org/2000/svg" xmlns:xlink="http://www.w3.org/1999/xlink">
    <title>angular</title>
    <defs>
        <linearGradient x1="25.2044864%" y1="90.9292007%" x2="95.8860608%" y2="55.1837089%" id="linearGradient-1">
            <stop stop-color="#E40035" offset="0%"></stop>
            <stop stop-color="#F60A48" offset="24%"></stop>
            <stop stop-color="#F20755" offset="35.2%"></stop>
            <stop stop-color="#DC087D" offset="49.4%"></stop>
            <stop stop-color="#9717E7" offset="74.5%"></stop>
            <stop stop-color="#6C00F5" offset="100%"></stop>
        </linearGradient>
        <linearGradient x1="22.0129826%" y1="12.0575311%" x2="68.2690004%" y2="68.2103006%" id="linearGradient-2">
            <stop stop-color="#FF31D9" offset="0%"></stop>
            <stop stop-color="#FF5BE1" stop-opacity="0" offset="100%"></stop>
        </linearGradient>
    </defs>
    <g id="Page-1" stroke="none" stroke-width="1" fill="none" fill-rule="evenodd">
        <g id="angular">
            <rect id="box" x="0" y="0" width="240" height="240"></rect>
            <g id="shape" transform="translate(7.0662, 0.1337)" fill-rule="nonzero">
                <path d="M226,39.9911516 L217.839344,168.481807 L139.813947,0 L226,39.9911516 Z M171.956898,206.136264 L113.000509,239.866299 L54.0431022,206.136264 L66.0342494,176.997988 L159.965751,176.997988 L171.956898,206.136264 Z M113.000509,63.952986 L143.893767,139.260879 L82.1062334,139.260879 L113.000509,63.952986 Z M8.07720746,168.481807 L0,39.9911516 L86.1860526,0 L8.07720746,168.481807 Z" id="Shape" fill="url(#linearGradient-1)"></path>
                <path d="M226,39.9911516 L217.839344,168.481807 L139.813947,0 L226,39.9911516 Z M171.956898,206.136264 L113.000509,239.866299 L54.0431022,206.136264 L66.0342494,176.997988 L159.965751,176.997988 L171.956898,206.136264 Z M113.000509,63.952986 L143.893767,139.260879 L82.1062334,139.260879 L113.000509,63.952986 Z M8.07720746,168.481807 L0,39.9911516 L86.1860526,0 L8.07720746,168.481807 Z" id="Shape" fill="url(#linearGradient-2)"></path>
            </g>
        </g>
    </g>
</svg>