<?xml version="1.0" encoding="UTF-8"?>
<svg width="240px" height="240px" viewBox="0 0 240 240" version="1.1" xmlns="http://www.w3.org/2000/svg" xmlns:xlink="http://www.w3.org/1999/xlink">
    <title>anyrun</title>
    <g id="Page-1" stroke="none" stroke-width="1" fill="none" fill-rule="evenodd">
        <g id="anyrun" transform="translate(-0, 0)">
            <rect id="box" x="0" y="0" width="240" height="240"></rect>
            <g id="shape" transform="translate(14, 0)" fill="#00B0E8" fill-rule="nonzero">
                <path d="M48.3361356,0.701770421 C46.5810759,1.33822656 44.34751,2.69069084 43.2303246,3.72494709 C38.7627903,7.86189194 39.0022446,3.00893894 39.0022446,93.4651822 C39.0022446,139.369696 39.2412965,177 39.6401189,177 C39.9592572,177 43.4697789,175.090752 47.379123,172.783543 L54.559132,168.567086 L54.7985864,93.2267265 C54.8782703,51.7775257 55.1177247,17.8860861 55.2770927,17.8860861 C55.4368631,17.8860861 190.265367,95.3744304 193.217296,97.2043269 C193.616118,97.4431833 190.823557,99.3524315 187.073983,101.579888 C183.244726,103.727992 180.372481,105.796745 180.611935,106.194305 C180.771303,106.512513 184.281825,108.660618 188.270853,110.967826 L195.610632,115.104931 L198.163336,113.672594 C205.662886,109.694994 209.332776,106.592265 210.848381,102.932472 C213.002666,97.6022873 212.124935,92.6696621 208.295677,88.6123093 C206.221479,86.5439571 183.164639,72.7804579 133.541646,44.2988354 C94.0501876,21.545759 60.622358,2.45203482 59.3458047,1.73602667 C55.596231,-0.173341738 51.6872894,-0.491589844 48.3361356,0.701770421 Z" id="Path"></path>
                <path d="M9.66248309,22.7214047 C6.07604078,23.7589019 1.69287038,28.3872407 0.656818311,32.1376663 C0.0989317523,34.2922517 -0.0604701504,62.7798097 0.0192509021,121.749525 L0.258333655,208.249696 L2.41011863,211.52137 C5.27923228,215.910132 10.6984949,218.543469 15.4005496,217.905133 C18.1101809,217.505972 35.5639857,207.770944 90.8734308,175.772136 C130.482291,152.950414 162.919071,134.118292 163,134.038299 C163.078272,133.958708 159.571832,131.804123 155.188179,129.250778 L147.218888,124.702031 L82.1865296,162.206689 C46.4821115,182.874228 16.9149681,199.791341 16.5165639,199.791341 C16.1177576,199.791341 15.7989538,167.712941 15.7989538,119.994101 C15.7989538,72.1160783 16.1177576,40.1972627 16.5165639,40.1972627 C16.9149681,40.1972627 20.0230037,41.793103 23.2906422,43.7881044 C26.6378812,45.7831057 29.5867159,47.378946 29.8259192,47.378946 C29.9851201,47.378946 30.0647206,43.1497682 29.9851201,38.0426774 L29.7459168,28.7064087 L23.1310393,25.2751511 C16.4365614,21.7639005 14.2849373,21.3651414 9.66248309,22.7214047 Z" id="Path"></path>
                <path d="M62.9879414,57.4072314 L63.2259416,66.7349446 L128.199209,104.364673 L193.172077,141.994402 L190.550868,143.58878 C185.388186,146.777937 55.5213846,221.877957 55.2036502,221.877957 C55.0449834,221.877957 54.8859159,218.290004 54.8859159,213.825746 C54.8859159,209.441006 54.5681815,205.932973 54.2504472,206.092411 C53.9327129,206.17233 50.3587023,208.245022 46.3074893,210.55707 L39,214.861891 L39,222.35627 C39,230.726955 39.7945362,233.198442 43.7660152,236.547037 C47.3400257,239.576355 51.7883065,240.692419 55.600718,239.576355 C58.1425928,238.779166 193.092743,161.208062 204.213044,154.112477 C208.978659,151.00324 210.885065,147.654644 210.964398,142.074322 C210.964398,133.38436 215.015211,136.094802 136.697902,90.731738 C98.0953827,68.3293225 65.6884829,49.5943779 64.6559465,49.0361448 L62.7495404,48 L62.9879414,57.4072314 Z" id="Path"></path>
            </g>
        </g>
    </g>
</svg>