<svg width="240" height="240" viewBox="0 0 240 240" fill="none" xmlns="http://www.w3.org/2000/svg">
<path d="M162.136 1.13515C158.372 3.35704 152.108 9.64769 144.664 18.7734L151.512 31.7165C156.33 24.8428 161.219 18.6346 166.15 13.3415C164.552 15.0908 159.706 20.759 152.4 31.9809C159.441 31.634 170.247 30.1884 179.067 28.6884C181.705 13.9808 176.498 7.25893 176.498 7.25893C176.498 7.25893 169.885 -3.43237 162.136 1.13515Z" fill="url(#paint0_linear_1_66)"/>
<path d="M131.29 65.1742C133.336 61.3405 135.442 57.5394 137.608 53.7723C139.773 49.996 142.014 46.264 144.33 42.5785C144.456 42.3685 144.608 42.1472 144.734 41.9391C146.911 38.486 149.166 35.0827 151.497 31.7315L144.651 18.7865C144.126 19.4254 143.608 20.0692 143.095 20.7177C141.004 23.3264 138.957 25.9706 136.956 28.649C134.47 31.9786 132.039 35.3491 129.664 38.7591C127.301 42.1511 124.987 45.5765 122.721 49.0341C120.701 52.1181 118.724 55.2297 116.79 58.3679C116.721 58.4804 116.652 58.6042 116.584 58.7298L125.513 76.368C127.38 72.6067 129.306 68.875 131.29 65.1742Z" fill="url(#paint1_linear_1_66)"/>
<path d="M90.6245 164.503C89.4174 167.805 88.2324 171.115 87.0695 174.433C87.0545 174.474 87.0414 174.53 87.0133 174.572C86.8464 175.044 86.6664 175.53 86.5145 176.002C85.7083 178.28 85.0145 180.335 83.417 184.989C86.042 186.184 88.1533 189.349 90.152 192.932C89.9679 189.148 88.2894 185.592 85.4851 183.045C98.4433 183.626 109.611 180.35 115.388 170.878C115.902 170.03 116.374 169.155 116.803 168.197C114.178 171.53 110.916 172.933 104.79 172.599C113.818 168.558 118.332 164.683 122.346 158.266C123.291 156.74 124.221 155.086 125.166 153.24C117.276 161.336 108.152 163.642 98.5277 161.893L91.3051 162.684C91.0689 163.295 90.8608 163.892 90.6245 164.503Z" fill="url(#paint2_linear_1_66)"/>
<path d="M93.9995 148.35C95.5558 144.324 97.1664 140.24 98.8052 136.13C100.395 132.155 102.016 128.191 103.667 124.241C105.342 120.238 107.036 116.243 108.748 112.256C110.5 108.187 112.305 104.131 114.152 100.089C115.955 96.1081 117.798 92.1454 119.68 88.2012C120.345 86.7837 121.041 85.3681 121.722 83.9637C122.903 81.5337 124.095 79.1168 125.303 76.728C125.374 76.6043 125.428 76.4655 125.498 76.3399L116.569 58.7017C116.429 58.943 116.281 59.1793 116.125 59.4105C114.014 62.8519 111.953 66.3242 109.945 69.8261C107.872 73.4418 105.857 77.0904 103.901 80.7706C102.24 83.9044 100.615 87.0571 99.0264 90.2281C98.7077 90.8656 98.4021 91.52 98.0833 92.1594C96.2285 95.9828 94.4642 99.8495 92.792 103.756C91.0851 107.726 89.4968 111.746 88.0295 115.811C87.1108 118.323 86.2914 120.742 85.5282 123.074C84.9039 125.06 84.3189 127.061 83.7357 129.046C82.4122 133.657 81.2676 138.318 80.3045 143.017L89.2783 160.725C90.4595 157.56 91.6801 154.337 92.9308 151.087C93.3058 150.157 93.6395 149.24 93.9995 148.35Z" fill="url(#paint3_linear_1_66)"/>
<path d="M80.2088 143.615C79.0838 149.281 78.2776 154.921 77.8745 160.532L77.8332 161.113C75.0282 156.628 67.5432 152.253 67.5563 152.295C72.9319 160.072 77.0007 167.795 77.597 175.376C74.7226 175.961 70.7907 175.113 66.2513 173.447C70.9875 177.808 74.5426 179.002 75.9451 179.334C71.5838 179.613 67.0575 182.6 62.4863 186.045C69.1669 183.322 74.5707 182.238 78.4313 183.114C72.2926 200.473 66.1538 219.639 60 240C61.89 239.445 63.015 238.166 63.6394 236.458C64.7363 232.777 72.0019 208.584 83.402 176.822C83.7357 175.92 84.0564 175.003 84.3882 174.099C84.4726 173.837 84.5701 173.585 84.6676 173.349C85.862 170.017 87.1239 166.614 88.4026 163.142C88.6951 162.35 88.9858 161.559 89.2914 160.768C89.2914 160.753 89.3064 160.74 89.3064 160.725L80.3195 143.017C80.2868 143.217 80.2512 143.417 80.2088 143.615Z" fill="url(#paint4_linear_1_66)"/>
<path d="M126.887 77.8118C126.625 78.3405 126.373 78.8674 126.109 79.3961C125.333 80.9918 124.553 82.6174 123.748 84.2843C122.886 86.0899 122.027 87.9218 121.152 89.8118C120.707 90.7568 120.263 91.7149 119.818 92.6862C118.448 95.6776 117.096 98.6777 115.763 101.686C114.01 105.625 112.293 109.579 110.61 113.548C108.958 117.463 107.248 121.505 105.555 125.698C103.93 129.673 102.293 133.783 100.624 138.003C99.0977 141.871 97.6026 145.751 96.139 149.643C96.0696 149.823 96.0002 150.031 95.9308 150.211C94.4308 154.17 92.9158 158.24 91.4027 162.407C91.3746 162.502 91.3333 162.587 91.3052 162.697L98.5277 161.906C98.389 161.878 98.2352 161.865 98.0965 161.837C106.721 160.768 118.208 154.308 125.61 146.351C129.027 142.685 132.124 138.352 134.985 133.282C137.11 129.519 139.124 125.324 141.04 120.701C142.808 116.374 144.411 111.981 145.845 107.533C143.858 108.575 141.595 109.351 139.095 109.88C138.651 109.978 138.207 110.06 137.749 110.143C137.29 110.227 136.83 110.296 136.36 110.353C136.36 110.353 136.373 110.353 136.373 110.339C144.428 107.242 149.498 101.27 153.179 93.9518C151.067 95.3956 147.623 97.2837 143.498 98.1856C142.79 98.3405 142.077 98.4705 141.36 98.5756H141.387C144.192 97.4093 146.539 96.0893 148.581 94.5481C149.025 94.2143 149.457 93.8806 149.845 93.5206C150.469 92.9768 151.054 92.4087 151.637 91.8256C151.997 91.4374 152.344 91.0474 152.693 90.6443C153.499 89.6881 154.249 88.6587 154.943 87.5487C155.149 87.1999 155.374 86.868 155.567 86.5062C155.845 85.9924 156.094 85.4787 156.345 84.993C157.339 83.0172 158.252 81.0018 159.081 78.9518C159.441 78.063 159.747 77.2568 160.024 76.4786C160.137 76.173 160.232 75.8824 160.33 75.5899C160.622 74.7424 160.844 73.9924 161.024 73.3267C161.303 72.3255 161.47 71.5342 161.552 70.9642C161.275 71.1742 160.971 71.3955 160.607 71.6036C158.177 73.0624 154.011 74.3674 150.651 74.9936C150.608 75.0067 150.554 75.0067 150.497 75.0199C150.15 75.0761 149.832 75.1324 149.485 75.1736L149.65 75.0892L126.972 77.5755C126.958 77.6587 126.929 77.7388 126.887 77.8118Z" fill="url(#paint5_linear_1_66)"/>
<path d="M152.414 31.9809C150.151 35.4724 147.951 39.0049 145.817 42.5766C143.462 46.5422 141.165 50.5427 138.928 54.5767C136.825 58.3979 134.769 62.2451 132.762 66.1174C130.801 69.9169 128.88 73.7365 126.998 77.5755L149.678 75.0893C156.289 72.048 159.233 69.3124 162.094 65.3261C162.844 64.2292 163.622 63.0911 164.372 61.8948C166.773 58.1278 168.993 54.2484 171.025 50.2698C172.996 46.426 174.732 42.6197 176.065 39.1754C176.842 37.2138 177.51 35.2107 178.066 33.1753C178.482 31.6059 178.802 30.1059 179.052 28.6753C170.26 30.1884 159.441 31.6341 152.414 31.9809Z" fill="url(#paint6_linear_1_66)"/>
<defs>
<linearGradient id="paint0_linear_1_66" x1="150.426" y1="20.3821" x2="200.678" y2="6.41143" gradientUnits="userSpaceOnUse">
<stop stop-color="#F59723"/>
<stop offset="0.312" stop-color="#F69822"/>
<stop offset="0.838" stop-color="#E87726"/>
</linearGradient>
<linearGradient id="paint1_linear_1_66" x1="40.4268" y1="245.917" x2="142.639" y2="26.7215" gradientUnits="userSpaceOnUse">
<stop offset="0.323" stop-color="#9C2063"/>
<stop offset="0.63" stop-color="#C82037"/>
<stop offset="0.751" stop-color="#CC2135"/>
<stop offset="1" stop-color="#E87726"/>
</linearGradient>
<linearGradient id="paint2_linear_1_66" x1="74.7245" y1="229.697" x2="135.632" y2="99.0762" gradientUnits="userSpaceOnUse">
<stop stop-color="#282661"/>
<stop offset="0.095" stop-color="#662E8C"/>
<stop offset="0.788" stop-color="#9E2064"/>
<stop offset="0.949" stop-color="#CC2032"/>
</linearGradient>
<linearGradient id="paint3_linear_1_66" x1="44.1112" y1="232.646" x2="146.324" y2="13.4503" gradientUnits="userSpaceOnUse">
<stop offset="0.323" stop-color="#9C2063"/>
<stop offset="0.63" stop-color="#C82037"/>
<stop offset="0.751" stop-color="#CC2135"/>
<stop offset="1" stop-color="#E87726"/>
</linearGradient>
<linearGradient id="paint4_linear_1_66" x1="54.54" y1="218.047" x2="108.255" y2="102.853" gradientUnits="userSpaceOnUse">
<stop stop-color="#282661"/>
<stop offset="0.095" stop-color="#662E8C"/>
<stop offset="0.788" stop-color="#9E2064"/>
<stop offset="0.949" stop-color="#CC2032"/>
</linearGradient>
<linearGradient id="paint5_linear_1_66" x1="66.8063" y1="243.229" x2="169.017" y2="24.0328" gradientUnits="userSpaceOnUse">
<stop offset="0.323" stop-color="#9C2063"/>
<stop offset="0.63" stop-color="#C82037"/>
<stop offset="0.751" stop-color="#CC2135"/>
<stop offset="1" stop-color="#E87726"/>
</linearGradient>
<linearGradient id="paint6_linear_1_66" x1="59.3287" y1="256.298" x2="161.541" y2="37.1016" gradientUnits="userSpaceOnUse">
<stop offset="0.323" stop-color="#9C2063"/>
<stop offset="0.63" stop-color="#C82037"/>
<stop offset="0.751" stop-color="#CC2135"/>
<stop offset="1" stop-color="#E87726"/>
</linearGradient>
</defs>
</svg>
