<?xml version="1.0" encoding="UTF-8"?>
<svg width="240px" height="240px" viewBox="0 0 240 240" version="1.1" xmlns="http://www.w3.org/2000/svg" xmlns:xlink="http://www.w3.org/1999/xlink">
    <title>apktool</title>
    <g id="Page-1" stroke="none" stroke-width="1" fill="none" fill-rule="evenodd">
        <g id="apktool" transform="translate(88, -25)">
            <rect id="box" x="-88" y="25" width="240" height="240"></rect>
            <g id="shape" transform="translate(-85, 26)" fill-rule="nonzero" stroke="#FFFFFF">
                <path d="M72.4909091,1.2969562 C73.1272727,1.61370948 73.5409091,2.0888394 73.7318182,2.72234595 C73.9227273,3.35585251 73.8272727,3.95768374 73.4454545,4.52783964 L66.3818182,16.6911656 C72.3636364,20.0487503 77.1516364,24.5783222 80.7458182,30.2798812 C84.34,35.9814402 86.4247273,42.2214798 87,49 L3,49 C3.57272727,42.2214798 5.65745455,35.9814402 9.25418182,30.2798812 C12.8509091,24.5783222 17.6389091,20.0487503 23.6181818,16.6911656 L16.5545455,4.52783964 C16.1727273,3.95768374 16.0772727,3.35585251 16.2681818,2.72234595 C16.4590909,2.0888394 16.8727273,1.61370948 17.5090909,1.2969562 C18.0181818,0.98020292 18.5909091,0.916852264 19.2272727,1.10690423 C19.8636364,1.2969562 20.3727273,1.67706013 20.7545455,2.24721604 L27.8181818,14.4105419 C33.2909091,12.1299183 39.0181818,10.9896065 45,10.9896065 C50.9818182,10.9896065 56.7090909,12.1299183 62.1818182,14.4105419 L69.2454545,2.24721604 C69.6272727,1.67706013 70.1363636,1.2969562 70.7727273,1.10690423 C71.4090909,0.916852264 71.9818182,0.98020292 72.4909091,1.2969562 Z M30,28 L24,28 L24,34 L30,34 L30,28 Z M67,28 L61,28 L61,34 L67,34 L67,28 Z M87,52 L87,157 L48.1261315,157 L48.1261315,104.5 L42,104.5 L42.1006703,157 L3,157 L3,52 L87,52 Z M48,78 L42,78 L42,84 L48,84 L48,78 Z M146,52 L146,127.001624 L115.73799,127.001624 L115.73799,157 L91,157 L91,52 L146,52 Z M122,77 L116,77 L116,105 L122,105 L122,77 Z M174,52 L174,77 L180,77 L180,52 L205,52 L205,88 L189,88 L189,94 L205,94 L205,157 L180,157 L180,104 L174,104 L174,157 L150,157 L150,52 L174,52 Z" id="Combined-Shape" fill="#A4C939"></path>
                <path d="M115,133 L115,238 L60,238 L60,133 L115,133 Z M55.75,133.75 L55.75,159.75 L42,159.75 L42,238 L16,238 L16,159.75 L0.25,159.75 L0.25,133.75 L55.75,133.75 Z M174,133 L174,238 L119,238 L119,133 L174,133 Z M202,133 L202,214 L233,214 L233,238 L178,238 L178,133 L202,133 Z M149.999,157 L142.999,157 L142.999,214 L149.999,214 L149.999,157 Z M91,157 L84,157 L84,214 L91,214 L91,157 Z" id="Combined-Shape" fill="#1AC4BC"></path>
            </g>
        </g>
    </g>
</svg>