<?xml version="1.0" encoding="UTF-8"?>
<svg width="240px" height="240px" viewBox="0 0 240 240" version="1.1" xmlns="http://www.w3.org/2000/svg" xmlns:xlink="http://www.w3.org/1999/xlink">
    <title>apprise-api</title>
    <defs>
        <radialGradient cx="43.748889%" cy="81.8858619%" fx="43.748889%" fy="81.8858619%" r="81.8858619%" gradientTransform="translate(0.4375, 0.8189), rotate(-90), scale(1, 0.778), translate(-0.4375, -0.8189)" id="radialGradient-1">
            <stop stop-color="#A7D5DA" offset="0%"></stop>
            <stop stop-color="#DFEAE5" offset="75.6565129%"></stop>
            <stop stop-color="#A8D5DA" offset="100%"></stop>
        </radialGradient>
    </defs>
    <g id="Page-1" stroke="none" stroke-width="1" fill="none" fill-rule="evenodd">
        <g id="apprise-api">
            <circle id="Oval" stroke="#000000" stroke-width="10" fill="url(#radialGradient-1)" cx="120" cy="120" r="115"></circle>
            <g id="shape" transform="translate(119.75, 120.092) rotate(-20) translate(-119.75, -120.092)translate(27, 61.1841)">
                <path d="M129.003826,6.54424321 C129.003826,3.91067672 127.411264,1.52209317 124.961169,0.501330962 C122.511073,-0.519431243 119.71388,0.0521955919 117.835474,1.9099828 L108.933459,10.8314445 C99.1330768,20.6307616 85.8413079,26.1428775 71.9778499,26.1428775 L44.0671769,26.1428775 C36.8598121,26.1428775 31,32.0020526 31,39.2086338 L31,58.8072681 C31,66.0138492 36.8598121,71.8730243 44.0671769,71.8730243 L70.2015306,71.8730243 L71.9778499,71.8730243 C85.8413079,71.8730243 99.1330768,77.3851402 108.933459,87.1844574 L117.835474,96.0855038 C119.71388,97.9637062 122.511073,98.5149178 124.961169,97.4941556 C127.411264,96.4733934 129.003826,94.1052251 129.003826,91.4512434 L129.003826,6.54424321 Z" id="Path" fill="#000000" fill-rule="nonzero"></path>
                <path d="M26,48.8159041 L31.5049682,53.1819134 C33.2358235,54.5546607 33.5261274,57.0706277 32.1533801,58.8014829 C31.3946235,59.7581761 30.2404436,60.3159041 29.0193894,60.3159041 L-6.01938938,60.3159041 C-8.22852838,60.3159041 -10.0193894,58.5250431 -10.0193894,56.3159041 C-10.0193894,55.0948499 -9.46166136,53.94067 -8.50496823,53.1819134 L-3,48.8159041 C5.49321083,42.0799093 17.5067892,42.0799093 26,48.8159041 Z" id="Triangle" fill="#000000" transform="translate(11.5, 48.8159) scale(-1, 1) rotate(90) translate(-11.5, -48.8159)"></path>
                <path d="M142.5,26.3159041 C155.66887,30.0168722 162.253305,37.5782375 162.253305,49 C162.253305,60.4217625 155.66887,68.1937306 142.5,72.3159041" id="Line" stroke="#000000" stroke-width="6" stroke-linecap="square"></path>
                <path d="M31,84.8159041 L57,84.8159041 L57,112.815904 C57,115.577328 54.7614237,117.815904 52,117.815904 L36,117.815904 C33.2385763,117.815904 31,115.577328 31,112.815904 L31,84.8159041 L31,84.8159041 Z" id="Rectangle" fill="#000000"></path>
                <path d="M158.5,12.8159041 C176.5,18.6087237 185.5,30.4439041 185.5,48.3214455 C185.5,66.1989869 176.5,78.3638064 158.5,84.8159041" id="Line-Copy" stroke="#000000" stroke-width="6" stroke-linecap="square"></path>
            </g>
        </g>
    </g>
</svg>