<?xml version="1.0" encoding="UTF-8"?>
<svg width="405px" height="406px" viewBox="0 0 405 406" version="1.1" xmlns="http://www.w3.org/2000/svg" xmlns:xlink="http://www.w3.org/1999/xlink">
    <title>appsmith</title>
    <g id="Page-1" stroke="none" stroke-width="1" fill="none" fill-rule="evenodd">
        <g id="appsmith">
            <rect id="orange" fill="#FE6C2D" x="32" y="33" width="373" height="373"></rect>
            <rect id="white" stroke="#000000" stroke-width="5" fill="#FFFFFF" x="2.5" y="2.5" width="368" height="368"></rect>
            <rect id="underscore" fill="#000000" x="196" y="247" width="120" height="24"></rect>
            <path d="M145.522916,229.106476 C144.069198,226.532698 142.936615,221.485696 142.142164,213.948524 C133.758101,225.976816 120.370728,232 101.996703,232 C88.2880818,232 77.3685956,228.703123 69.2211349,222.124057 C61.0737079,215.529173 57,206.394405 57,194.667781 C57,172.039318 72.95679,159.118114 104.887254,155.921453 L123.751367,154.239007 C130.039442,153.431509 134.552552,151.950965 137.290922,149.780653 C140.029292,147.61034 141.398477,144.363289 141.398477,140.039499 C141.398477,134.739865 139.674277,130.853437 136.209104,128.363493 C132.743932,125.873548 126.895405,124.628576 118.663411,124.628576 C109.789148,124.628576 103.433536,126.109007 99.5626962,129.08693 C95.6917434,132.048018 93.4435741,137.14575 92.7844203,144.363289 L62.7978521,144.363289 C64.5727048,116.11556 83.2847712,102 118.91701,102 C153.585731,102 170.912269,114.433113 170.912269,139.316062 L170.912269,205.518778 C170.912269,216.437565 172.601801,224.294482 176,229.106476 L145.522916,229.106476 Z M133.093682,203.109273 C139.03687,197.848789 142,190.280574 142,180.40349 L142,169 C139.104138,171.579415 134.37322,173.293403 127.790318,174.091137 L111.408796,176.025072 C103.378075,176.992609 97.6369125,178.893494 94.1855333,181.727729 C90.7341541,184.560823 89,188.650918 89,193.996874 C89,199.341691 90.8015336,203.499023 94.4211935,206.503061 C98.0409654,209.507098 103.209682,211 109.960976,211 C119.456445,211 127.150605,208.369758 133.093682,203.109273 Z" id="Shape" fill="#000000" fill-rule="nonzero"></path>
        </g>
    </g>
</svg>