<?xml version="1.0" encoding="UTF-8"?>
<svg width="240px" height="240px" viewBox="0 0 240 240" version="1.1" xmlns="http://www.w3.org/2000/svg" xmlns:xlink="http://www.w3.org/1999/xlink">
    <title>appstore</title>
    <defs>
        <linearGradient x1="50%" y1="0%" x2="50%" y2="100%" id="linearGradient-1">
            <stop stop-color="#17C9FB" offset="0%"></stop>
            <stop stop-color="#1A74E8" offset="100%"></stop>
        </linearGradient>
    </defs>
    <g id="Page-1" stroke="none" stroke-width="1" fill="none" fill-rule="evenodd">
        <g id="appstore">
            <rect id="ViewBox" x="0" y="0" width="240" height="240"></rect>
            <path d="M52.56,0 L187.44,0 C216.46875,0 240,23.53125 240,52.56 L240,187.44 C240,216.46875 216.46875,240 187.44,240 L52.56,240 C23.53125,240 0,216.46875 0,187.44 L0,52.56 C0,23.53125 23.53125,0 52.56,0" id="Path" fill="url(#linearGradient-1)" fill-rule="nonzero"></path>
            <path d="M76.914375,174.196875 L76.936875,174.204375 L68.7309375,188.416875 C65.735625,193.605 59.101875,195.3825 53.91375,192.387187 C48.725625,189.391875 46.948125,182.758125 49.9434375,177.57 L55.9884375,167.1 L56.56875,166.095 C57.6046875,164.60625 60.16125,162.035625 65.2753125,162.519375 C65.2753125,162.519375 77.31,163.825312 78.1809375,170.080312 C78.1809375,170.080312 78.2990625,172.138125 76.914375,174.196875 M193.298437,137.896875 L167.710312,137.896875 C165.9675,137.779687 165.207187,137.157187 164.907187,136.795312 L164.888437,136.7625 L137.4975,89.319375 L137.461875,89.3428125 L135.819375,86.9878125 C133.126875,82.8703125 128.851875,93.4003125 128.851875,93.4003125 C123.747187,105.134062 129.576562,118.47375 131.608125,122.505937 L169.65375,188.402812 C172.648125,193.59 179.281875,195.368437 184.470937,192.372187 C189.658125,189.376875 191.436562,182.743125 188.440312,177.555 L178.9275,161.0775 C178.742812,160.678125 178.422187,159.594375 180.373125,159.589687 L193.298437,159.589687 C199.289062,159.589687 204.145312,154.733437 204.145312,148.742812 C204.145312,142.752187 199.289062,137.895937 193.298437,137.895937 M143.597812,152.640937 C143.597812,152.640937 144.96375,159.58875 139.679062,159.58875 L45.08625,159.58875 C39.095625,159.58875 34.239375,154.7325 34.239375,148.741875 C34.239375,142.75125 39.095625,137.895 45.08625,137.895 L69.405,137.895 C73.33125,137.668125 74.26125,135.40125 74.26125,135.40125 L74.28375,135.4125 L106.0275,80.43 L106.018125,80.428125 C106.596562,79.3659375 106.114687,78.361875 106.03125,78.2034375 L95.5471875,60.045 C92.551875,54.8578125 94.329375,48.223125 99.5175,45.22875 C104.705625,42.234375 111.339375,44.01 114.334687,49.198125 L119.196562,57.6196875 L124.05,49.213125 C127.045312,44.0259375 133.679062,42.2475 138.867187,45.24375 C144.055312,48.24 145.832812,54.871875 142.8375,60.06 L98.664375,136.569375 C98.47125,137.035313 98.4121875,137.766562 99.849375,137.895 L126.253125,137.895 L126.25875,138.152812 C126.25875,138.152812 141.519375,138.39 143.597812,152.640938" id="Shape" fill="#FFFFFF" fill-rule="nonzero"></path>
        </g>
    </g>
</svg>