<?xml version="1.0" encoding="UTF-8"?>
<svg width="240px" height="240px" viewBox="0 0 240 240" version="1.1" xmlns="http://www.w3.org/2000/svg" xmlns:xlink="http://www.w3.org/1999/xlink">
    <title>arangodb</title>
    <g id="Page-1" stroke="none" stroke-width="1" fill="none" fill-rule="evenodd">
        <g id="arangodb" transform="translate(0, -113)">
            <rect id="box" x="0" y="113" width="240" height="240"></rect>
            <g id="shapes" transform="translate(0, 150)" fill-rule="nonzero">
                <path d="M235.752238,83.7457011 C233.534702,76.3133306 232.427593,72.5966302 230.821035,68.6439978 C227.725061,60.999134 223.785866,54.7840279 217.883838,47.0819841 C204.071265,29.0865089 197.16753,20.0721582 185.90146,12.8904009 C161.456763,-2.70686238 135.731668,0.0529744057 132.797498,0.411250931 C124.018211,1.47809591 104.705568,5.3665939 88.1553378,21.4823408 C78.7793664,30.6241875 72.8870362,43.7315448 70.1297278,50.4226358 C67.0804571,103.755097 118.921887,125.120845 131.127902,134.053031 C135.049231,135.937653 144.069948,139.94592 151.390443,143.761011 C168.29746,152.567248 180.017297,154.389796 186.063775,155.456383 C199.239084,157.787628 219.731827,152.523203 229.457949,141.519658 C238.777008,130.975871 241.490675,116.751186 239.268035,104.072421 C238.593255,100.173877 238.583047,93.2424759 235.744071,83.7209746 L235.752238,83.7457011 L235.752238,83.7457011 Z" id="Path" fill="#577138"></path>
                <path d="M228.868258,78.1175549 C225.326095,68.6364582 221.173726,62.3450111 216.243939,54.8837433 C210.209996,45.7453214 204.81673,39.5160387 200.485626,34.5541903 C191.249063,23.9751986 186.626812,18.6855743 180.350374,14.8447398 C169.516725,8.21241615 159.04413,7.0148526 153.09136,6.39166746 C139.042288,4.93054746 128.304665,7.91854813 123.083731,9.42153918 C117.713511,10.973337 107.071656,14.1547665 95.9550549,22.9081289 C85.8875567,30.8392259 79.6940838,42.7806966 76.3239967,49.2090594 C73.2307171,55.0044758 92.2613002,101.517566 136.225304,129.009895 C138.474845,130.176634 144.738224,133.044672 148.605848,135.007474 C149.86467,135.646843 151.021064,136.219166 152.102688,136.745252 C153.849315,137.54748 155.477384,138.315545 157.011221,139.050472 C161.948945,141.287362 165.006631,142.424559 169.053245,144.548937 C183.073125,151.902573 197.873495,149.805938 200.069262,149.463263 C202.978943,149.014498 223.213293,145.873912 231.589474,129.72119 C236.008408,121.202613 235.238929,112.72 234.18829,101.103223 C233.890997,97.8090239 232.888754,88.8974249 228.852126,78.0980322" id="Path" fill="#A3B34F"></path>
                <path d="M160.977582,134.438369 C175.650226,140.100005 180.476428,143.058439 186.760078,143.830562 C188.825136,144.079626 208.526434,145.328285 220.073571,134.330673 C228.671391,126.148329 229.084454,117.874481 229.579874,113.972741 C231.293318,100.540011 227.503852,83.3132375 223.077709,74.85664 C217.266786,63.7469622 215.765482,61.412344 200.177726,40.5891841 C188.633903,25.1875922 182.848988,22.3371115 176.824394,18.3371854 C166.469274,11.5114536 154.49148,11.3564635 146.361543,11.018467 C140.380805,10.7727447 129.178651,12.9824456 118.441065,16.7764894 C101.663077,22.7239441 91.8650812,32.6890601 84.9822356,46.7993251 C77.3413437,63.070969 115.979519,116.101476 142.847196,126.941785" id="Path" fill="#EAECA2"></path>
                <path d="M165.829722,102.731728 C175.172479,101.083264 181.392327,91.4078221 183.295863,83.5702312 C185.967587,72.484537 180.441577,63.2333531 176.759014,57.0637557 C173.283711,51.2580282 167.172076,43.1346864 156.106817,38.603788 C145.919996,34.4254526 138.009983,39.4941897 134.322582,41.5661403 C118.069448,65.820272 130.659624,90.4333911 154.570442,102.723505 C157.588194,103.024674 163.455648,103.149818 165.824884,102.733526" id="Path" fill="#949952"></path>
                <path d="M138.879847,125.603361 C143.003461,120.644923 150.930671,110.364001 154.137499,103.971039 C154.346406,103.554913 154.555569,103.113006 154.764476,102.654856 C158.223222,95.0859664 161.654318,81.9885932 161.981248,71.6718337 C162.274384,62.4325135 159.137191,56.1885729 159.137191,56.1885729 C155.937019,47.7861439 146.733325,44.908847 142.697268,43.3531472 C139.383427,42.1444762 136.414179,41.5272496 133.400897,41.179963 C127.467267,40.6439504 119.237705,41.2833497 105.009229,43.3858906 C90.9143918,45.3739584 76.8454123,48.0841865 63.8854844,51.2265248 C48.1723847,55.0830308 39.5101595,57.206971 29.5261354,62.0723357 C17.9954042,67.6892525 7.10219848,72.9949777 2.38652766,84.6544759 C-0.498168683,91.7961538 -0.247748836,98.9868179 0.470981598,103.765039 C0.470981598,103.765039 3.58170224,135.026509 24.9437453,150.960185 C42.8306578,164.319764 69.2059621,169.252162 88.8655138,163.841503 C104.370218,160.872679 119.159621,146.237396 131.452889,133.43162 C133.963615,130.870413 136.989698,127.863947 138.8842,125.592533 L138.879847,125.603361 L138.879847,125.603361 Z" id="Path" fill="#423334"></path>
                <path d="M118.748348,120.278686 C104.294983,128.768432 83.0904503,140.287176 56.554257,139.994444 C55.6994812,139.984456 54.8388175,139.963455 53.9720098,139.928368 C45.0730232,139.569303 21.4360277,138.616835 9.27363565,122.799307 C5.91919745,118.430093 3.93711087,113.600396 2.86233079,110.317595 L2.83322387,110.246141 L2.83486225,110.245116 C2.1844749,108.244395 1.9444772,107.068344 1.93697647,107.026086 C1.75291424,106.172732 1.60138929,105.339098 1.47147054,104.475244 L1.4548819,104.416851 C1.45324352,104.407119 1.45163073,104.398667 1.44999235,104.389447 L1.45163073,104.388679 L1.44674118,104.375618 C0.763842134,99.8386524 0.529681182,93.0358937 3.26299254,86.3191876 C7.73770159,75.3375037 17.8611244,70.4378886 29.5877319,64.7655936 C39.4136855,60.01068 48.010339,57.9154549 63.6034053,54.112241 C65.6019782,53.6281956 67.5237517,53.1692489 69.3774299,52.7433402 C71.4732818,52.2682586 73.4861905,51.8182756 75.4179479,51.4092701 C79.2033836,50.6066255 82.8211409,49.8969483 86.4829297,49.2392613 L86.5011055,49.2277364 C93.219761,48.0311966 99.1138485,47.1522317 104.582212,46.3534287 C118.674621,44.2858634 126.793327,43.6514822 132.581687,44.1736878 C135.757337,44.4536145 138.402815,45.0687876 141.428706,46.2281916 C145.562043,47.8111993 153.254513,50.7584979 156.971597,58.1682341 C158.09005,60.4015018 158.75206,62.8757677 158.942266,65.5339197 C158.964794,65.7913089 158.979642,66.0571497 158.987322,66.3222222 C159.214648,72.9997437 156.463698,79.5635529 154.985824,83.0932427 C146.681776,102.874052 131.246404,112.927086 118.74246,120.27971" id="Path" fill="#A3B34F"></path>
                <path d="M109.94627,121.282937 C123.6981,114.188605 134.856544,106.045264 140.608965,99.7032631 C150.163587,89.1642034 154.058655,78.4492406 154.902139,69.7358811 C155.847701,59.9719747 149.721762,56.3221127 147.643369,54.546927 C139.908748,47.9295329 129.395261,48.0354338 119.840383,47.9999137 C115.498629,47.9864578 109.268566,48.3190327 90.1687879,52.4899372 C74.9789164,55.9605626 71.8718158,56.7146896 53.5098619,61.743827 C41.2692416,65.1593224 34.3681269,67.4588842 28.7295516,71.0077172 C20.8468285,75.9686473 11.0337377,82.1444886 8.54757112,94.0533363 C5.4585324,108.828687 16.361961,121.138061 18.5783765,123.467111 C29.2494058,134.625165 43.9601007,135.963926 54.0998145,135.999914 C58.0826339,136.012646 61.8541347,135.80187 65.1786939,135.616735 C85.7830303,134.475673 99.9690103,126.421309 109.94627,121.291143" id="Path" fill="#EAECA2"></path>
                <path d="M56.9211398,62.3277583 C55.3482493,63.5281968 52.7845859,66.0732706 51.4690821,67.4338705 L47.8105686,71.5635642 C41.3248826,79.7869024 36.6972787,95.6379946 40.2101354,99.9067352 C42.0118424,102.099814 42.9579745,102.338769 43.6028443,102.775479 C52.608063,107.17168 60.8258161,113.206574 74.257627,113.999914 L85.4290776,113.986781 C86.3336299,113.949187 87.6618882,113.894599 88.6161832,113.8225 C91.1063805,113.59642 90.0196933,113.575306 91.7382406,113.390167 C107.192157,110.829129 127.77238,99.7926652 126.978282,84.3437792 C126.674469,78.5704993 120.142612,69.1140208 115.708111,64.8486276 C110.993266,60.308488 102.180641,55.8991554 99.8718137,55.0666763 C98.7912487,54.7298738 97.4999786,54.2851811 95.3449708,53.9030596 C94.2087959,53.6986091 93.0897122,53.5186206 91.9764955,53.3888434 C91.4461616,53.3200924 90.9148072,53.2680786 90.383708,53.2160647 C89.847762,53.1658534 89.3181933,53.1367565 88.7878594,53.1032822 C77.5676865,52.3985203 67.4979735,55.3504351 59.7370881,60.3419622 C59.0929836,60.7565281 58.4590828,61.1806212 57.847885,61.6227389 C57.5315723,61.8565438 57.2236776,62.0810788 56.916038,62.3231234" id="Path" fill="#5E3108"></path>
            </g>
        </g>
    </g>
</svg>