<?xml version="1.0" encoding="UTF-8"?>
<svg width="240px" height="240px" viewBox="0 0 240 240" version="1.1" xmlns="http://www.w3.org/2000/svg" xmlns:xlink="http://www.w3.org/1999/xlink">
    <title>arbitrum</title>
    <g id="Page-1" stroke="none" stroke-width="1" fill="none" fill-rule="evenodd">
        <g id="arbitrum">
            <rect id="box" x="0" y="0" width="240" height="240"></rect>
            <g id="Group" transform="translate(13, 0)" fill-rule="nonzero">
                <path d="M8.07400722,73.0184147 L8.07400722,167.173739 C8.07400722,173.226581 11.2459386,178.702962 16.532491,181.777422 L98.1376354,228.855084 C103.328069,231.833467 109.768051,231.833467 114.958484,228.855084 L196.563628,181.777422 C201.754061,178.799039 205.022112,173.226581 205.022112,167.173739 L205.022112,73.0184147 C205.022112,66.9655725 201.850181,61.4891914 196.563628,58.4147318 L114.958484,11.3370697 C109.768051,8.35868695 103.328069,8.35868695 98.1376354,11.3370697 L16.532491,58.4147318 C11.3420578,61.3931145 8.17012635,66.9655725 8.17012635,73.0184147 L8.07400722,73.0184147 Z" id="Path" fill="#213147"></path>
                <g transform="translate(112.4354, 83.4428)" fill="#12AAFF" id="Path">
                    <path d="M11.8466832,54.9079263 L0.216268051,86.8054444 C-0.0720893502,87.6701361 -0.0720893502,88.6309047 0.216268051,89.5916733 L20.2090478,144.451561 L43.373759,131.096878 L15.5953294,54.9079263 C14.9224955,53.1785428 12.5195171,53.1785428 11.8466832,54.9079263 Z"></path>
                    <path d="M35.2036327,1.29703763 C34.5307987,-0.432345877 32.1278204,-0.432345877 31.4549865,1.29703763 L19.8245713,33.1945556 C19.5362139,34.0592474 19.5362139,35.020016 19.8245713,35.9807846 L52.6011958,125.81265 L75.765907,112.457966 L35.2036327,1.39311449 L35.2036327,1.29703763 Z"></path>
                </g>
                <path d="M106.5,14.8919135 C107.076715,14.8919135 107.65343,15.0840673 108.134025,15.3722978 L196.37139,66.2930344 C197.4287,66.8694956 198.005415,68.0224179 198.005415,69.1753403 L198.005415,171.016813 C198.005415,172.169736 197.332581,173.322658 196.37139,173.899119 L108.134025,224.819856 C107.65343,225.108086 107.076715,225.30024 106.5,225.30024 C105.923285,225.30024 105.34657,225.108086 104.865975,224.819856 L16.6286101,173.899119 C15.5712996,173.322658 14.9945848,172.169736 14.9945848,171.016813 L14.9945848,69.0792634 C14.9945848,67.9263411 15.6674188,66.7734187 16.6286101,66.1969576 L104.865975,15.276221 C105.34657,14.9879904 105.923285,14.7958367 106.5,14.7958367 L106.5,14.7958367 L106.5,14.8919135 Z M106.5,0 C103.328069,0 100.252256,0.768614892 97.3686823,2.40192154 L9.13131769,53.3226581 C3.46028881,56.5892714 0,62.5460368 0,69.0792634 L0,170.920737 C0,177.453963 3.46028881,183.410729 9.13131769,186.677342 L97.3686823,237.598078 C100.156137,239.231385 103.328069,240 106.5,240 C109.671931,240 112.747744,239.231385 115.631318,237.598078 L203.868682,186.677342 C209.539711,183.410729 213,177.453963 213,170.920737 L213,69.0792634 C213,62.5460368 209.539711,56.5892714 203.868682,53.3226581 L115.535199,2.40192154 C112.747744,0.768614892 109.575812,0 106.403881,0 L106.403881,0 L106.5,0 Z" id="Shape" fill="#9DCCED"></path>
                <polygon id="Path" fill="#213147" points="48.0595668 209.351481 56.2296931 187.061649 72.5699458 200.608487 57.2870036 214.635709"></polygon>
                <g transform="translate(24.8949, 61.7774)" fill="#FFFFFF" id="Path">
                    <path d="M74.107852,0.0960768615 L51.7120939,0.0960768615 C50.0780686,0.0960768615 48.5401625,1.15292234 47.9634477,2.69015212 L0,134.123299 L23.1647112,147.477982 L76.0302347,2.69015212 C76.5108303,1.34507606 75.549639,0 74.2039711,0 L74.107852,0.0960768615 Z"></path>
                    <path d="M113.324458,0.0960768615 L90.9287004,0.0960768615 C89.2946751,0.0960768615 87.756769,1.15292234 87.1800542,2.69015212 L32.392148,152.76221 L55.5568592,166.116894 L115.150722,2.69015212 C115.631318,1.34507606 114.670126,0 113.324458,0 L113.324458,0.0960768615 Z"></path>
                </g>
            </g>
        </g>
    </g>
</svg>