<?xml version="1.0" encoding="UTF-8"?>
<svg width="240px" height="240px" viewBox="0 0 240 240" version="1.1" xmlns="http://www.w3.org/2000/svg" xmlns:xlink="http://www.w3.org/1999/xlink">
    <title>arc</title>
    <g id="Page-1" stroke="none" stroke-width="1" fill="none" fill-rule="evenodd">
        <g id="arc" transform="translate(-0.0008, 0)">
            <rect id="ViewBox" x="0" y="0" width="240" height="240"></rect>
            <g id="shape" transform="translate(0, 18)" fill-rule="nonzero">
                <path d="M115.905809,0.01125 C128.877059,0.384375 140.592059,7.99875 146.205809,19.7821875 L168.481746,66.6421875 L168.839871,65.7365625 C169.724185,63.4007993 170.449282,61.0078231 171.010184,58.5740625 L171.321434,57.1228125 C175.075184,38.3540625 193.317996,26.206875 212.121434,29.9203125 C221.141386,31.7216036 229.075812,37.0335162 234.178056,44.6867058 C239.280299,52.3398953 241.1321,61.7069846 239.325809,70.7259375 C234.322371,95.7121875 221.424246,118.90125 202.923621,137.2725 L202.337684,137.841563 L210.147059,154.260938 C219.210809,173.320313 209.819871,196.3575 190.084559,202.8225 L189.193934,203.100938 L188.514246,203.30625 C185.494576,204.156293 182.372839,204.589368 179.235809,204.593438 C165.850376,204.593438 153.658016,196.896152 147.904559,184.810312 L141.876434,172.137187 L140.355809,172.514062 C132.207059,174.439687 123.942059,175.506563 115.673309,175.670625 L113.418621,175.693125 C105.461121,175.693125 97.3723711,174.767812 89.2911211,172.974375 L87.6973711,172.603125 L81.9064336,184.778437 C78.0020184,192.988407 71.0282071,199.335643 62.4879961,202.452188 L61.4567461,202.810313 C52.4685028,205.774562 42.6589064,204.933159 34.3067461,200.481563 C17.8442461,191.730938 11.5667461,171.244688 19.5992461,154.32375 L26.7898711,139.202813 L26.1617461,138.593438 C16.3039336,128.86875 8.48893358,117.815625 3.30455858,105.93375 L2.61362108,104.309062 L2.51424608,104.045625 C-4.62106642,86.304375 3.94768358,66.1096875 21.6776836,58.93125 C35.5845586,53.3015625 51.0008086,57.3440625 60.4808086,67.910625 L60.6589336,68.115 L83.5770586,19.906875 C89.118671,8.06431598 100.869668,0.363597519 113.939871,0.009375 L114.910184,0 L115.905809,0.01125 Z" id="Path" fill="#FFFFFF"></path>
                <path d="M81.6739336,159.417187 L102.201434,116.228437 C86.5226836,112.898437 70.7473711,103.2 61.8251836,91.4015625 L40.3601836,136.528125 C52.2879961,146.646562 66.6092461,154.599375 81.6739336,159.41625" id="Path" fill="#1A007F"></path>
                <path d="M167.339871,90.1078125 C157.027371,102.748125 142.707059,112.123125 127.383621,115.775625 L147.846434,158.835 C162.781746,153.79125 176.746746,145.645312 188.805809,135.204375 L167.339871,90.1078125 Z" id="Path" fill="#4E000A"></path>
                <path d="M40.3601836,136.529062 L29.6276836,159.09375 C24.1639336,170.569687 28.2692461,184.696875 39.5192461,190.677187 C51.4479961,197.012812 66.1245586,192.0675 71.8789336,180.008437 L81.6739336,159.417187 C66.547665,154.541136 52.5153818,146.766828 40.3601836,136.528125" id="Path" fill="#1A007F"></path>
                <path d="M209.946434,40.8421875 C203.816314,39.6147734 197.44969,40.8735051 192.247857,44.3413349 C187.046024,47.8091647 183.435332,53.2018653 182.210496,59.3325 C179.947371,70.648125 174.645809,81.185625 167.339871,90.140625 L188.772996,135.269062 C208.557059,118.103437 223.167996,94.7315625 228.405809,68.578125 C230.959559,55.7765625 222.683309,43.363125 209.946434,40.8421875" id="Path" fill="#FF9396"></path>
                <path d="M127.383621,115.775625 C122.793621,116.874375 118.106121,117.456563 113.418621,117.456563 C109.766121,117.456563 105.984246,117.036563 102.201434,116.228438 C86.5226836,112.898438 70.7473711,103.2 61.8251836,91.4015625 C59.5939336,88.4596875 57.7845586,85.3884375 56.5236211,82.2525 C51.6420586,70.194375 37.9029961,64.37625 25.8448711,69.225 C13.7867461,74.1065625 7.96955858,87.845625 12.8173711,99.9028125 C18.3448711,113.609063 28.1079961,126.184688 40.3601836,136.529063 C52.5043445,146.76571 66.5255618,154.539743 81.6411211,159.417188 C92.0183086,162.74625 102.782684,164.589375 113.386746,164.589375 C125.153309,164.589375 136.758621,162.552188 147.814559,158.835 L127.383621,115.775625 Z" id="Path" fill="#002DC8"></path>
                <path d="M200.086746,158.99625 L188.772996,135.204375 L167.339871,90.1078125 L167.307996,90.140625 C167.307996,90.140625 167.307996,90.1078125 167.339871,90.1078125 L136.177371,24.5484375 C132.273522,16.3386796 123.996158,11.1059557 114.905496,11.1009375 C105.821121,11.1009375 97.5458086,16.3378125 93.6345586,24.549375 L61.8570586,91.4015625 C70.7792461,103.2 86.5545586,112.898438 102.233309,116.228438 L112.512996,94.6340625 C113.483309,92.596875 116.392371,92.596875 117.362684,94.6340625 L127.416434,115.775625 L127.481121,115.775625 L127.415496,115.775625 L147.879246,158.835 L157.932996,179.976563 C161.834226,188.20312 170.131107,193.44093 179.235809,193.425036 C181.337684,193.425036 183.438621,193.134375 185.507684,192.552188 C199.699559,188.64 206.423309,172.315313 200.086746,158.99625" id="Path" fill="#FF536A"></path>
            </g>
        </g>
    </g>
</svg>