<?xml version="1.0" encoding="UTF-8"?>
<svg width="240px" height="240px" viewBox="0 0 240 240" version="1.1" xmlns="http://www.w3.org/2000/svg" xmlns:xlink="http://www.w3.org/1999/xlink">
    <title>arduino</title>
    <g id="Page-1" stroke="none" stroke-width="1" fill="none" fill-rule="evenodd">
        <g id="arduino">
            <rect id="ViewBox" x="0" y="0" width="240" height="240"></rect>
            <g id="Group" fill="#00979C">
                <path d="M0.5625,124.6875 L0.5625,106.6875 C0.9375,106.5 0.9375,106.125 0.9375,105.75 C6.5625,81.1875 21.9375,66.375 46.3125,60.5625 C48.375,60 50.625,60.1875 52.6875,59.4375 L64.6875,59.4375 C64.875,59.8125 65.4375,59.625 65.8125,59.625 C77.8125,60.9375 88.6875,65.25 98.25,72.75 C106.5,78.9375 112.875,86.8125 118.6875,95.25 C119.4375,96.375 119.8125,96.375 120.5625,95.25 C123.9375,90.375 127.5,85.6875 131.625,81.375 C141.5625,70.6875 153.5625,63.1875 168.1875,60.5625 C170.25,60 172.6875,60.1875 174.75,59.4375 L186.375,59.4375 C186.5625,59.8125 186.9375,59.625 187.3125,59.625 C190.875,60 194.25,60.75 197.625,61.6875 C222.75,69 240.5625,92.0625 239.0625,118.125 C237.9375,140.0625 226.875,155.8125 207.5625,165.75 C198,171 187.5,172.3125 176.625,172.125 C162.375,171.9375 150,167.0625 139.3125,157.6875 C131.8125,151.125 126,143.25 120.5625,135 C119.8125,133.875 119.4375,134.0625 118.6875,135.1875 C115.3125,140.25 111.75,145.3125 107.625,150.1875 C100.3125,158.4375 91.875,165.1875 81.375,168.75 C68.4375,173.25 55.3125,173.4375 42.1875,169.875 C23.25,164.4375 10.3125,152.4375 3.1875,134.0625 C2.0625,131.0625 1.5,127.6875 0.5625,124.6875 M60.1875,152.25 C70.875,152.625 80.0625,149.0625 87.9375,141.75 C96,134.25 101.8125,124.875 107.625,115.6875 C107.8125,115.125 107.8125,114.75 107.4375,114.1875 C102.5625,106.5 97.5,98.8125 90.75,92.4375 C77.8125,80.0625 62.625,75.9375 45.5625,81.375 C31.5,86.0625 22.5,96 20.4375,111 C18.375,125.0625 23.8125,136.3125 35.0625,144.75 C42.5625,150.1875 51,152.4375 60.1875,152.25 M179.0625,152.25 C183.1875,152.25 187.3125,152.0625 191.25,150.9375 C206.0625,146.4375 215.8125,137.25 218.625,121.875 C221.4375,106.6875 215.625,94.5 202.875,85.875 C188.8125,76.125 168.375,77.0625 154.125,87.75 C144.5625,94.875 138.1875,104.4375 131.8125,114.375 C131.4375,114.9375 131.625,115.3125 131.8125,115.875 C136.875,123.9375 141.9375,132 148.5,138.9375 C156.75,147.75 166.6875,152.8125 179.0625,152.25" id="Shape"></path>
                <path d="M60,109.6875 C66,109.6875 72.1875,109.875 78.1875,109.6875 C79.6875,109.6875 79.875,110.0625 79.875,111.5625 C79.6875,113.25 79.6875,114.9375 79.875,116.625 C80.0625,118.125 79.6875,118.5 78,118.5 L54,118.5 C49.875,118.5 45.75,118.3125 41.625,118.5 C40.3125,118.5 39.9375,118.125 39.9375,116.625 C40.125,114.9375 40.125,113.25 39.9375,111.375 C39.9375,110.0625 40.3125,109.6875 41.625,109.6875 C47.625,109.875 53.8125,109.6875 60,109.6875 M178.125,97.6875 C179.625,97.6875 181.125,97.875 182.4375,97.6875 C183.375,97.6875 183.75,98.0625 183.75,99 C183.5625,101.625 183.75,104.25 183.5625,106.875 C183.5625,108.1875 183.9375,108.5625 185.25,108.5625 C187.6875,108.375 190.3125,108.5625 192.9375,108.375 C194.0625,108.375 194.4375,108.5625 194.4375,109.875 L194.4375,118.5 C194.4375,119.4375 194.0625,119.8125 193.125,119.8125 C190.5,119.625 187.875,119.8125 185.0625,119.625 C183.9375,119.625 183.5625,120 183.5625,121.125 C183.75,123.75 183.5625,126.375 183.75,129 C183.75,130.125 183.375,130.6875 182.25,130.6875 C179.4375,130.5 176.625,130.5 173.8125,130.6875 C172.6875,130.6875 172.3125,130.3125 172.3125,129.1875 C172.5,126.375 172.3125,123.75 172.5,120.9375 C172.5,120 172.125,119.625 171.1875,119.625 C168.5625,119.8125 165.9375,119.625 163.3125,119.8125 C161.8125,119.8125 161.625,119.25 161.625,118.125 C161.625,115.5 161.8125,112.875 161.625,110.25 C161.4375,108.75 162.1875,108.375 163.5,108.375 C166.125,108.5625 168.5625,108.375 171.1875,108.5625 C172.125,108.5625 172.5,108.1875 172.5,107.25 C172.3125,104.625 172.5,101.8125 172.3125,99.1875 C172.3125,98.0625 172.6875,97.6875 173.8125,97.6875 C175.3125,97.875 176.625,97.6875 178.125,97.6875 M234.0975,45.894375 C233.848125,46.2675 233.76,46.39125 233.679375,46.516875 C233.225625,47.1975 233.57625,48.57375 232.434375,48.553125 C231.421875,48.530625 231.67875,47.270625 231.320625,46.5825 C231.226875,46.39875 231.114375,46.23 230.80125,45.718125 C230.80125,46.663125 230.81625,47.1975 230.80125,47.739375 C230.78625,48.105 230.866875,48.56625 230.2875,48.59625 C229.7025,48.62625 229.738125,48.1575 229.730625,47.79 C229.718125,46.51625 229.71625,45.246875 229.725,43.981875 C229.725,43.550625 229.6575,43.051875 230.3325,43.036875 C230.83875,43.029375 231.2775,43.00875 231.489375,43.666875 C231.759375,44.473125 231.855,45.373125 232.4775,46.149375 C233.071875,45.395625 233.173125,44.52375 233.4,43.725 C233.59125,43.074375 233.994375,43.03125 234.52125,43.03125 C235.18875,43.036875 235.15875,43.505625 235.16625,43.94625 C235.17375,45.22125 235.17375,46.486875 235.15875,47.761875 C235.15125,48.12 235.201875,48.59625 234.631875,48.60375 C234.06,48.60375 234.103125,48.15 234.0975,47.775 C234.0825,47.233125 234.0975,46.69875 234.0975,45.894375 M227.1375,43.021875 C227.300625,43.021875 227.475,42.99375 227.62875,43.021875 C228.238125,43.14 229.18125,42.67125 229.38,43.396875 C229.65,44.415 228.58125,43.903125 228.1275,44.120625 C227.67375,44.34 227.761875,44.743125 227.7525,45.110625 C227.731875,45.988125 227.739375,46.8675 227.739375,47.746875 C227.739375,48.230625 227.645625,48.63375 227.02125,48.609375 C226.449375,48.590625 226.471875,48.170625 226.471875,47.79 C226.454747,46.9676095 226.452246,46.1449794 226.464375,45.3225 C226.486875,44.619375 226.494375,43.959375 225.48375,44.055 C225.13125,44.085 224.82375,43.981875 224.82375,43.535625 C224.82375,42.920625 225.3,43.044375 225.6525,43.029375 C226.149375,43.006875 226.640625,43.021875 227.139375,43.021875 L227.1375,43.021875 Z" id="Shape"></path>
            </g>
        </g>
    </g>
</svg>