<?xml version="1.0" encoding="UTF-8"?>
<svg width="241px" height="240px" viewBox="0 0 241 240" version="1.1" xmlns="http://www.w3.org/2000/svg" xmlns:xlink="http://www.w3.org/1999/xlink">
    <title>asana</title>
    <g id="Page-1" stroke="none" stroke-width="1" fill="none" fill-rule="evenodd">
        <g id="asana" transform="translate(-190.0241, -118)">
            <rect id="box" x="191" y="118" width="240" height="240"></rect>
            <path d="M378.958155,243.99229 C350.216237,243.99229 326.916308,267.275209 326.916308,295.996145 C326.916308,324.717081 350.216237,348 378.958155,348 C407.700072,348 431,324.717081 431,295.996145 C431,267.27521 407.700072,243.99229 378.958155,243.99229 Z M243.761337,244.002372 C224.999516,243.741307 207.549993,253.593771 198.092854,269.78801 C188.635715,285.982249 188.635715,306.010042 198.092854,322.204281 C207.549993,338.39852 224.999516,348.250984 243.761337,347.989919 C272.215159,347.593992 295.073604,324.431952 295.073604,295.996145 C295.073604,267.560338 272.215159,244.398298 243.761337,244.002372 L243.761337,244.002372 Z M363.391504,178.998813 C363.391504,207.716965 340.093834,230.997628 311.354702,230.997628 C282.615569,230.997628 259.3179,207.716965 259.3179,178.998813 C259.3179,150.280662 282.61557,127 311.354702,127 C340.093834,127 363.391504,150.280662 363.391504,178.998813 L363.391504,178.998813 Z" id="shape" fill="#FF584A" fill-rule="nonzero"></path>
        </g>
    </g>
</svg>