<?xml version="1.0" encoding="UTF-8"?>
<svg width="240px" height="241px" viewBox="0 0 240 241" version="1.1" xmlns="http://www.w3.org/2000/svg" xmlns:xlink="http://www.w3.org/1999/xlink">
    <title>asnlookup</title>
    <g id="Page-1" stroke="none" stroke-width="1" fill="none" fill-rule="evenodd">
        <g id="asnlookup" transform="translate(0, 0.6875)">
            <rect id="box" fill="#FFFFFF" x="0" y="0" width="240" height="240" rx="32"></rect>
            <g id="shape" transform="translate(31, 84.3125)">
                <polyline id="Path-2" stroke="#3832DF" stroke-width="5" points="0 70 31.0688806 7 63 70"></polyline>
                <g id="SN" transform="translate(66, 0)" fill="#3832DC" fill-rule="nonzero">
                    <path d="M43.0409357,52.2894385 C43.0409357,50.4177807 42.7329435,48.7527852 42.1169591,47.2944519 C41.5009747,45.8361185 40.4795322,44.5220588 39.0526316,43.3522727 C37.625731,42.1824866 35.7192982,41.0906863 33.3333333,40.0768717 C30.9473684,39.063057 27.9844055,38.057041 24.4444444,37.0588235 C21.0292398,36.0918004 17.9493177,35.0311943 15.2046784,33.8770053 C12.460039,32.7228164 10.1169591,31.3970588 8.1754386,29.8997326 C6.23391813,28.4024064 4.74853801,26.6516266 3.71929825,24.647393 C2.69005848,22.6431595 2.1754386,20.2918895 2.1754386,17.5935829 C2.1754386,14.973262 2.73294347,12.5868984 3.84795322,10.434492 C4.96296296,8.28208556 6.54191033,6.42992424 8.58479532,4.87800802 C10.6276803,3.3260918 13.0448343,2.12511141 15.8362573,1.27506684 C18.6276803,0.425022282 21.6998051,0 25.0526316,0 C29.8245614,0 33.9532164,0.908533868 37.4385965,2.7256016 C40.9239766,4.54266934 43.6218324,6.98752228 45.5321637,10.0601604 C47.4424951,13.1327986 48.3976608,16.5641711 48.3976608,20.3542781 L42.6432749,20.3542781 C42.6432749,17.39082 41.9493177,14.7510027 40.5614035,12.4348262 C39.1734893,10.1186497 37.1734893,8.29378342 34.5614035,6.96022727 C31.9493177,5.62667112 28.7797271,4.95989305 25.0526316,4.95989305 C21.3099415,4.95989305 18.1676413,5.52918895 15.625731,6.66778075 C13.0838207,7.80637255 11.1695906,9.32319519 9.88304094,11.2182487 C8.59649123,13.1133021 7.95321637,15.2072193 7.95321637,17.5 C7.95321637,19.1221034 8.26510721,20.6155303 8.88888889,21.9802807 C9.51267057,23.3450312 10.5302144,24.6084002 11.9415205,25.7703877 C13.3528265,26.9323752 15.2319688,28.016377 17.5789474,29.022393 C19.9259259,30.0284091 22.8148148,30.991533 26.245614,31.9117647 C29.8635478,32.894385 33.0721248,33.993984 35.871345,35.2105615 C38.6705653,36.427139 41.037037,37.8269831 42.9707602,39.4100936 C44.9044834,40.9932041 46.3703704,42.8297683 47.3684211,44.9197861 C48.3664717,47.0098039 48.8654971,49.4351604 48.8654971,52.1958556 C48.8654971,54.972148 48.2846004,57.459893 47.122807,59.6590909 C45.9610136,61.8582888 44.3274854,63.7260472 42.2222222,65.2623663 C40.1169591,66.7986854 37.6374269,67.9723708 34.7836257,68.7834225 C31.9298246,69.5944742 28.8109162,70 25.4269006,70 C22.4015595,70 19.3879142,69.6100713 16.3859649,68.8302139 C13.3840156,68.0503565 10.6471735,66.8376783 8.1754386,65.1921791 C5.7037037,63.54668 3.72319688,61.4332665 2.23391813,58.8519385 C0.744639376,56.2706105 0,53.1784759 0,49.5755348 L5.75438596,49.5755348 C5.75438596,52.44541 6.33138402,54.8668672 7.48538012,56.8399064 C8.63937622,58.8129456 10.1754386,60.4038547 12.0935673,61.6126337 C14.0116959,62.8214127 16.1325536,63.6987522 18.4561404,64.2446524 C20.7797271,64.7905526 23.1033138,65.0635027 25.4269006,65.0635027 C28.9980507,65.0635027 32.1013645,64.5331996 34.7368421,63.4725936 C37.3723197,62.4119875 39.4152047,60.9224599 40.8654971,59.0040107 C42.3157895,57.0855615 43.0409357,54.8473708 43.0409357,52.2894385 Z" id="Path"></path>
                    <polygon id="Path" points="112 0.935828877 112 69.0641711 106.19883 69.0641711 67.0643275 10.8790107 67.0643275 69.0641711 61.2631579 69.0641711 61.2631579 0.935828877 67.0643275 0.935828877 106.269006 59.1209893 106.269006 0.935828877"></polygon>
                </g>
            </g>
        </g>
    </g>
</svg>