<?xml version="1.0" encoding="UTF-8"?>
<svg width="240px" height="240px" viewBox="0 0 240 240" version="1.1" xmlns="http://www.w3.org/2000/svg" xmlns:xlink="http://www.w3.org/1999/xlink">
    <title>assemblyai</title>
    <g id="Page-1" stroke="none" stroke-width="1" fill="none" fill-rule="evenodd">
        <g id="assemblyai">
            <rect id="box" fill="#FFFFFF" x="0" y="0" width="240" height="240" rx="32"></rect>
            <g id="Group" transform="translate(41, 52)">
                <path d="M69.3662449,0 C59.3837318,0 50.4262478,6.1288825 46.8147564,15.4304325 L0,136 L35.5630081,136 L72.4120273,41.0972875 L72.4275291,41.0972875 C73.3521151,38.7840125 75.6145264,37.1498875 78.2587488,37.1498875 C80.9031836,37.1498875 83.1653826,38.7840125 84.0903933,41.0972875 L89,41.0972875 L89,21.8467 L79.886224,21.8467 L88.3690985,0 L69.3662449,0 Z" id="Path" fill="#2545D3"></path>
                <path d="M47.4377885,15.4304819 C50.91083,6.50703206 59.3151348,0.503538723 68.8271009,0.0301859911 L68.8151814,0 L70.0418246,0 L83.7545596,0 L88.4723364,0 C98.4778971,0 107.456253,6.12886702 111.076373,15.4304394 L158,136 L121.744529,136 L76.2418752,19.0823586 C73.6366152,13.3524229 67.8503412,9.3667724 61.1305158,9.3667724 C54.394301,9.3667724 48.5961075,13.3719941 46,19.1246036 L47.4377885,15.4304819 Z" id="Path" fill="#566DE8"></path>
            </g>
        </g>
    </g>
</svg>