<?xml version="1.0" encoding="UTF-8"?>
<svg width="240px" height="240px" viewBox="0 0 240 240" version="1.1" xmlns="http://www.w3.org/2000/svg" xmlns:xlink="http://www.w3.org/1999/xlink">
    <title>assembly</title>
    <defs>
        <linearGradient x1="64.2747826%" y1="37.2702023%" x2="41.169441%" y2="117.153138%" id="linearGradient-1">
            <stop stop-color="#FFFFFF" stop-opacity="0" offset="0%"></stop>
            <stop stop-color="#FFFFFF" stop-opacity="0.275" offset="100%"></stop>
        </linearGradient>
    </defs>
    <g id="Page-1" stroke="none" stroke-width="1" fill="none" fill-rule="evenodd">
        <g id="assembly" transform="translate(0, -0.3737)" fill-rule="nonzero">
            <path d="M120.012859,0.373720558 C109.331714,26.5642648 102.868164,43.7132435 90.9440297,69.1238991 C100.196407,79.1706728 110.518712,88.1770828 121.727328,95.9829192 C109.349783,91.2824557 97.7810316,84.6812414 87.4379398,76.4171429 C72.2648855,108.17832 48.3994714,153.394718 0,240.33944 C44.4561917,214.680248 77.2539915,200.50513 108.791656,197.779805 L108.791656,190.632255 L101.642319,190.632255 L101.642319,183.458994 L108.791656,183.458994 L108.791656,190.632255 L123.150338,190.632255 L123.150338,176.242882 L108.791656,176.242882 L108.791656,169.095332 L101.642319,169.095332 L101.642319,154.74881 L108.791656,154.74881 L108.791656,147.601259 L123.150338,147.601259 L123.150338,154.74881 L130.299675,154.74881 L130.299675,161.922071 L123.12462,161.922071 L123.12462,154.74881 L108.791656,154.74881 L108.791656,169.103902 L123.150338,169.103902 L123.150338,176.251452 L130.299675,176.251452 L130.299675,190.632255 L123.12462,190.632255 L123.12462,197.342725 C157.242562,198.199745 191.754831,212.529127 240,240.373721 C232.602065,226.755666 225.97564,214.483133 219.666393,202.793375 C207.001169,191.710561 193.099194,182.125687 178.23624,174.228884 C189.827131,176.941181 200.965932,181.311302 211.308354,187.204173 C147.187199,67.8383685 142.000929,51.9663502 120.012859,0.373720558 Z M72.9592456,147.601259 L87.2836375,147.601259 L87.2836375,154.74881 L94.458692,154.74881 L94.458692,197.779805 L87.2836375,197.779805 L87.2836375,176.242882 L72.9592456,176.242882 L72.9592456,197.771235 L65.7756188,197.771235 L65.7756188,154.74881 L72.9506733,154.74881 L72.9592456,147.601259 Z M72.9592456,154.74881 L72.9592456,169.103902 L87.2836375,169.103902 L87.2836375,154.74881 L72.9592456,154.74881 Z M137.474729,147.601259 L144.649784,147.601259 L144.649784,154.74881 L151.824838,154.74881 L151.824838,161.922071 L158.974176,161.922071 L158.974176,154.74881 L166.14923,154.74881 L166.14923,147.601259 L173.324285,147.601259 L173.324285,197.779805 L166.14923,197.779805 L166.14923,161.922071 L158.974176,161.922071 L158.974176,169.095332 L151.824838,169.095332 L151.824838,161.922071 L144.649784,161.922071 L144.649784,197.779805 L137.474729,197.779805 L137.474729,147.601259 Z" id="Shape" fill="#FFFFFF"></path>
            <path d="M188,142.373721 C136.081844,71.8180435 124.045455,14.9503562 121,1.37372056 C140.874812,49.5059291 163.238403,96.5696057 188,142.373721 L188,142.373721 Z" id="Path" fill-opacity="0.165680468" fill="#FFFFFF"></path>
            <path d="M120.101827,1.37372056 L116.232878,10.8289544 C114.86888,14.1686079 113.564932,17.3630591 112.278142,20.4891797 C110.991352,23.6153004 109.704561,26.6730906 108.434928,29.6881742 C107.165295,32.7032578 105.861347,35.6670935 104.591714,38.6821771 C103.322081,41.6972607 102.018134,44.7123443 100.602664,47.787217 C99.1871949,50.8620898 97.7803041,54.0138344 96.2618915,57.2766161 C94.7434789,60.5393978 93.1564374,63.9217579 91.4492956,67.4664029 C91.2090947,67.9532578 90.9260008,68.5169844 90.6858,69.0123806 C99.9171851,78.9688783 110.209155,87.8958277 121.380039,95.6356542 C109.031604,90.9580333 97.4874345,84.3999183 87.1599944,76.1956251 L85.9589901,78.646982 C85.4013809,79.7829767 84.7236714,81.0641737 84.1403264,82.2343336 L83.2309946,84.1048812 C75.6989817,99.419456 66.0223183,118.133473 53,142.373721 C83.4626168,125.291094 116.318664,100.632322 176,121.874569 C173.006068,116.228761 170.252336,110.941688 167.670177,105.962102 C165.088018,100.982516 162.686009,96.3275005 160.455573,91.9201829 C158.225136,87.5128652 156.166271,83.3788696 154.236086,79.4242415 C152.3059,75.4696135 150.521551,71.7370595 148.840145,68.2094972 C147.158739,64.6819348 145.580276,61.2227029 144.087599,57.9599212 C142.594923,54.6971395 141.179453,51.519771 139.798298,48.4107329 C138.417143,45.3016949 137.224718,42.2011981 135.963663,39.1775732 C134.702608,36.1539483 133.46729,33.1217821 132.24055,30.0725333 C131.93172,29.2952737 131.614312,28.483849 131.305482,27.7065895 C127.805412,19.541094 124.262449,11.0937351 120.101827,1.37372056 Z" id="Path" fill="url(#linearGradient-1)"></path>
        </g>
    </g>
</svg>