<?xml version="1.0" encoding="UTF-8"?>
<svg width="240px" height="240px" viewBox="0 0 240 240" version="1.1" xmlns="http://www.w3.org/2000/svg" xmlns:xlink="http://www.w3.org/1999/xlink">
    <title>astro</title>
    <defs>
        <linearGradient x1="0%" y1="91.4158518%" x2="116.842%" y2="41.0833836%" id="linearGradient-1">
            <stop stop-color="#D83333" offset="0%"></stop>
            <stop stop-color="#F041FF" offset="100%"></stop>
        </linearGradient>
    </defs>
    <g id="Page-1" stroke="none" stroke-width="1" fill="none" fill-rule="evenodd">
        <g id="astro">
            <rect id="ViewBox" x="0" y="0" width="240" height="240"></rect>
            <g id="shape" transform="translate(25, 0)" fill-rule="nonzero">
                <path d="M62.4056421,204.596335 C51.6360278,194.73351 48.4918142,174.011669 52.9789074,159 C60.759341,168.46346 71.5385526,171.463131 82.704608,173.153775 C99.9427829,175.766654 116.870892,174.78969 132.883569,166.897064 C134.71591,165.994796 136.408721,164.790786 138.410121,163.574942 C139.912463,167.940588 140.303736,172.349129 139.778839,176.836803 C138.50314,187.7646 133.074038,196.206722 124.440186,202.604689 C120.987383,205.16432 117.333776,207.452531 113.768021,209.867207 C102.813105,217.282075 99.8497632,225.979347 103.966254,238.631807 C104.063703,238.940205 104.150817,239.247863 104.372292,240 C98.7792983,237.492878 94.693814,233.840912 91.580607,229.041142 C88.2931726,223.97365 86.7288175,218.368495 86.6461333,212.30481 C86.6047912,209.35395 86.6047912,206.374986 86.2090884,203.467021 C85.2419788,196.373863 81.9176318,193.197436 75.6550435,193.014024 C69.2285634,192.827654 64.1449628,196.805769 62.7969154,203.075052 C62.6935602,203.555029 62.5444334,204.029829 62.3953066,204.588939 L62.4056421,204.596335 Z" id="Path" fill="#FFFFFF"></path>
                <path d="M62.4056421,204.596335 C51.6360278,194.73351 48.4918142,174.011669 52.9789074,159 C60.759341,168.46346 71.5385526,171.463131 82.704608,173.153775 C99.9427829,175.766654 116.870892,174.78969 132.883569,166.897064 C134.71591,165.994796 136.408721,164.790786 138.410121,163.574942 C139.912463,167.940588 140.303736,172.349129 139.778839,176.836803 C138.50314,187.7646 133.074038,196.206722 124.440186,202.604689 C120.987383,205.16432 117.333776,207.452531 113.768021,209.867207 C102.813105,217.282075 99.8497632,225.979347 103.966254,238.631807 C104.063703,238.940205 104.150817,239.247863 104.372292,240 C98.7792983,237.492878 94.693814,233.840912 91.580607,229.041142 C88.2931726,223.97365 86.7288175,218.368495 86.6461333,212.30481 C86.6047912,209.35395 86.6047912,206.374986 86.2090884,203.467021 C85.2419788,196.373863 81.9176318,193.197436 75.6550435,193.014024 C69.2285634,192.827654 64.1449628,196.805769 62.7969154,203.075052 C62.6935602,203.555029 62.5444334,204.029829 62.3953066,204.588939 L62.4056421,204.596335 Z" id="Path" fill="url(#linearGradient-1)"></path>
                <path d="M0,156 C0,156 32.0602734,140.369617 64.2103516,140.369617 L88.4501953,65.2834606 C89.3586328,61.6516493 92.0082422,59.1846325 94.9992578,59.1846325 C97.9902734,59.1846325 100.640625,61.6516493 101.54832,65.2834606 L125.788164,140.369617 C163.865352,140.369617 190,156 190,156 C190,156 135.54125,7.51544993 135.435117,7.21756563 C133.87207,2.82730082 131.234336,0 127.676289,0 L62.3289063,0 C58.7716016,0 56.24,2.82730082 54.5700781,7.21756563 C54.4520703,7.5095071 0,156 0,156" id="Path" fill="#FFFFFF"></path>
            </g>
        </g>
    </g>
</svg>