<?xml version="1.0" encoding="UTF-8"?>
<svg width="240px" height="240px" viewBox="0 0 240 240" version="1.1" xmlns="http://www.w3.org/2000/svg" xmlns:xlink="http://www.w3.org/1999/xlink">
    <title>avalanche</title>
    <g id="Page-1" stroke="none" stroke-width="1" fill="none" fill-rule="evenodd">
        <g id="avalanche">
            <rect id="Rectangle" fill="#FFFFFF" fill-rule="nonzero" x="46" y="41" width="148" height="135"></rect>
            <path d="M240,120 C240,186.274834 186.274834,240 120,240 C53.7258056,240 0,186.274834 0,120 C0,53.7258056 53.7258056,0 120,0 C186.274834,0 240,53.7258056 240,120 Z M85.9954194,167.753928 L62.7067909,167.753928 C57.8131558,167.753928 55.3958988,167.753928 53.922024,166.811185 C52.3300666,165.778961 51.3572836,164.069241 51.2393609,162.182157 C51.1508389,160.443675 52.3596272,158.320426 54.7768842,154.075366 L112.279414,52.7193076 C114.726232,48.4152863 115.964261,46.2632756 117.526658,45.4673768 C119.206977,44.6125166 121.211664,44.6125166 122.891984,45.4673768 C124.454381,46.2632756 125.69257,48.4152863 128.139228,52.7193076 L139.960586,73.3548336 L140.020826,73.4601332 C142.663542,78.0774967 144.003675,80.4190146 144.588815,82.8765379 C145.23723,85.5592011 145.23723,88.3891877 144.588815,91.0718509 C143.999201,93.5480692 142.67265,95.9065246 139.989987,100.593715 L109.7853,153.987004 L109.707164,154.123782 C107.047031,158.779174 105.698908,161.138748 103.830519,162.918775 C101.796431,164.86498 99.3496138,166.279095 96.6669507,167.076431 C94.2201332,167.753928 91.4786684,167.753928 85.9954194,167.753928 Z M144.806924,167.753928 L178.176831,167.753928 C183.099867,167.753928 185.576565,167.753928 187.051398,166.782423 C188.642876,165.7502 189.64474,164.01012 189.734221,162.124634 C189.818908,160.442077 188.636485,158.401598 186.319574,154.403249 C186.23968,154.267111 186.159787,154.128575 186.078296,153.987643 L169.362983,125.39281 L169.172836,125.070839 C166.823968,121.098855 165.638349,119.093049 164.115579,118.317763 C162.436218,117.462743 160.459654,117.462743 158.780133,118.317763 C157.247137,119.113662 156.009108,121.206711 153.56229,125.42221 L136.906418,154.017204 L136.849374,154.115632 C134.411185,158.324421 133.19265,160.427696 133.280533,162.153395 C133.398455,164.040479 134.371238,165.778961 135.963036,166.811185 C137.40767,167.753928 139.883888,167.753928 144.806924,167.753928 Z" id="Shape" fill="#E84142"></path>
        </g>
    </g>
</svg>