<?xml version="1.0" encoding="UTF-8"?>
<svg width="512px" height="307px" viewBox="0 0 512 307" version="1.1" xmlns="http://www.w3.org/2000/svg" xmlns:xlink="http://www.w3.org/1999/xlink">
    <title>aws</title>
    <g id="Page-1" stroke="none" stroke-width="1" fill="none" fill-rule="evenodd">
        <g id="aws" transform="translate(0.0248, 0.6)">
            <path d="M144.27522,111.5 C144.27522,117.8 144.97522,122.9 146.17522,126.7 C147.57522,130.4 149.27522,134.5 151.57522,139 C152.47522,140.4 152.77522,141.7 152.77522,142.9 C152.77522,144.6 151.77522,146.3 149.57522,148 L138.87522,155.2 C137.37522,156.2 135.77522,156.7 134.47522,156.7 C132.77522,156.7 131.07522,155.8 129.37522,154.3 C126.97522,151.7 124.97522,149 123.27522,146.3 C121.57522,143.4 119.87522,140.2 117.97522,136.3 C104.67522,152 87.9752196,159.8 67.8752196,159.8 C53.5752196,159.8 42.1752196,155.7 33.7752196,147.5 C25.4752196,139.3 21.1752196,128.4 21.1752196,114.8 C21.1752196,100.3 26.2752196,88.6 36.6752196,79.7 C47.0752196,70.8 60.7752196,66.4 78.3752196,66.4 C84.1752196,66.4 90.0752196,66.9 96.4752196,67.8 C102.87522,68.7 109.27522,70 116.07522,71.5 L116.07522,59.1 C116.07522,46.2 113.37522,37.1 108.07522,31.9 C102.67522,26.6 93.4752196,24.1 80.2752196,24.1 C74.2752196,24.1 68.1752196,24.8 61.8752196,26.3 C55.5752196,27.8 49.4752196,29.7 43.4752196,32.1 C40.7752196,33.3 38.6752196,34 37.4752196,34.3 C36.2752196,34.6 35.4752196,34.8 34.7752196,34.8 C32.3752196,34.8 31.1752196,33.1 31.1752196,29.5 L31.1752196,21.2 C31.1752196,18.5 31.4752196,16.4 32.3752196,15.2 C33.2752196,14 34.7752196,12.8 37.1752196,11.6 C43.1752196,8.5 50.2752196,6 58.6752196,3.9 C66.9752196,1.7 75.8752196,0.7 85.2752196,0.7 C105.57522,0.7 120.37522,5.3 129.87522,14.5 C139.27522,23.7 143.97522,37.7 143.97522,56.4 L143.97522,111.6 L144.27522,111.5 Z M75.1752196,137.4 C80.7752196,137.4 86.5752196,136.4 92.6752196,134.3 C98.7752196,132.3 104.27522,128.5 108.87522,123.4 C111.57522,120.2 113.67522,116.6 114.67522,112.5 C115.67522,108.4 116.37522,103.5 116.37522,97.7 L116.37522,90.5 C111.47522,89.3 106.17522,88.3 100.67522,87.6 C95.2752196,86.9 89.9752196,86.6 84.6752196,86.6 C73.2752196,86.6 64.8752196,88.8 59.2752196,93.4 C53.6752196,98 50.9752196,104.5 50.9752196,113 C50.9752196,121 52.9752196,127 57.2752196,131.1 C61.3752196,135.3 67.2752196,137.4 75.1752196,137.4 M211.87522,155.8 C208.77522,155.8 206.77522,155.3 205.37522,154.1 C203.97522,153.1 202.77522,150.7 201.77522,147.5 L161.77522,15.9 C160.77522,12.5 160.27522,10.3 160.27522,9.1 C160.27522,6.4 161.67522,4.8 164.37522,4.8 L181.07522,4.8 C184.27522,4.8 186.47522,5.3 187.67522,6.5 C189.07522,7.5 190.07522,9.9 191.07522,13.1 L219.67522,125.8 L246.27522,13.1 C247.17522,9.7 248.17522,7.5 249.47522,6.5 C250.87522,5.5 253.17522,4.8 256.27522,4.8 L269.97522,4.8 C273.17522,4.8 275.37522,5.3 276.77522,6.5 C278.17522,7.5 279.37522,9.9 279.97522,13.1 L306.87522,127.2 L336.37522,13.1 C337.37522,9.7 338.57522,7.5 339.77522,6.5 C341.17522,5.5 343.37522,4.8 346.37522,4.8 L362.17522,4.8 C364.87522,4.8 366.47522,6.2 366.47522,9.1 C366.47522,10 366.27522,10.8 366.17522,11.8 C365.97522,12.8 365.67522,14.2 364.97522,16.1 L323.97522,147.7 C322.97522,151.1 321.77522,153.3 320.37522,154.3 C318.97522,155.3 316.77522,156 313.87522,156 L299.27522,156 C296.07522,156 293.87522,155.5 292.47522,154.3 C291.07522,153.1 289.87522,150.9 289.27522,147.5 L262.87522,37.7 L236.67522,147.4 C235.77522,150.8 234.77522,153 233.47522,154.2 C232.07522,155.4 229.77522,155.9 226.67522,155.9 L211.87522,155.8 Z M430.67522,160.4 C421.77522,160.4 412.97522,159.4 404.47522,157.3 C395.97522,155.3 389.27522,153 384.87522,150.5 C382.17522,149 380.27522,147.3 379.57522,145.7 C378.87522,144.1 378.57522,142.5 378.57522,140.9 L378.57522,132.2 C378.57522,128.6 379.97522,126.9 382.47522,126.9 C383.47522,126.9 384.47522,127.1 385.57522,127.4 C386.57522,127.7 388.17522,128.4 389.87522,129.1 C395.67522,131.7 401.97522,133.7 408.57522,135.1 C415.37522,136.5 422.07522,137.1 428.87522,137.1 C439.57522,137.1 447.97522,135.2 453.77522,131.5 C459.57522,127.8 462.67522,122.3 462.67522,115.3 C462.67522,110.5 461.17522,106.6 458.07522,103.4 C454.97522,100.2 449.17522,97.3 440.87522,94.5 L416.17522,86.8 C403.77522,82.9 394.57522,77.1 388.97522,69.4 C383.37522,61.9 380.47522,53.6 380.47522,44.7 C380.47522,37.5 381.97522,31.2 385.07522,25.8 C388.17522,20.4 392.27522,15.6 397.37522,11.8 C402.47522,7.9 408.27522,5 415.07522,2.9 C421.87522,0.9 429.07522,1.42108547e-14 436.57522,1.42108547e-14 C440.27522,1.42108547e-14 444.27522,0.2 447.97522,0.7 C451.87522,1.2 455.47522,1.9 459.07522,2.6 C462.47522,3.5 465.67522,4.3 468.77522,5.3 C471.87522,6.3 474.17522,7.3 475.97522,8.4 C478.37522,9.8 480.07522,11.1 481.07522,12.7 C482.07522,14.1 482.57522,15.9 482.57522,18.3 L482.57522,26.3 C482.57522,29.9 481.17522,31.7 478.67522,31.7 C477.27522,31.7 475.07522,31 472.17522,29.7 C462.47522,25.3 451.57522,23.1 439.47522,23.1 C429.77522,23.1 422.07522,24.6 416.87522,27.9 C411.67522,31.2 408.87522,36.1 408.87522,43.1 C408.87522,47.9 410.57522,52 413.97522,55.2 C417.37522,58.4 423.67522,61.7 432.67522,64.6 L456.87522,72.3 C469.17522,76.2 477.97522,81.7 483.27522,88.6 C488.57522,95.5 491.07522,103.6 491.07522,112.4 C491.07522,119.7 489.57522,126.4 486.67522,132.2 C483.57522,138 479.47522,143.1 474.27522,147.2 C468.97522,151.5 462.67522,154.5 455.37522,156.7 C447.37522,159.2 439.37522,160.4 430.67522,160.4" id="Shape" fill="#FFFFFF" fill-rule="nonzero"></path>
            <path d="M462.87522,243.1 C406.87522,284.5 325.47522,306.4 255.47522,306.4 C157.37522,306.4 68.9752196,270.1 2.27521955,209.8 C-3.02478045,205 1.77521955,198.6 8.07521955,202.3 C80.2752196,244.2 169.37522,269.6 261.47522,269.6 C323.67522,269.6 391.87522,256.7 454.77522,230.1 C464.07522,225.9 472.07522,236.3 462.87522,243.1 M486.17522,216.6 C478.97522,207.4 438.87522,212.2 420.57522,214.4 C415.17522,215.1 414.27522,210.3 419.17522,206.7 C451.17522,184.2 503.77522,190.7 509.97522,198.2 C516.07522,205.9 508.27522,258.5 478.27522,283.7 C473.67522,287.6 469.27522,285.6 471.27522,280.5 C478.17522,263.6 493.37522,225.6 486.17522,216.6" id="Shape" fill="#FF9900"></path>
        </g>
    </g>
</svg>