<?xml version="1.0" encoding="UTF-8"?>
<svg width="223px" height="240px" viewBox="0 0 223 240" version="1.1" xmlns="http://www.w3.org/2000/svg" xmlns:xlink="http://www.w3.org/1999/xlink">
    <title>azureai</title>
    <defs>
        <linearGradient x1="52.2655995%" y1="102.160063%" x2="45.142632%" y2="3.73763728%" id="linearGradient-1">
            <stop stop-color="#712575" offset="0%"></stop>
            <stop stop-color="#9A2884" offset="9%"></stop>
            <stop stop-color="#BF2C92" offset="18%"></stop>
            <stop stop-color="#DA2E9C" offset="27%"></stop>
            <stop stop-color="#EB30A2" offset="34%"></stop>
            <stop stop-color="#F131A5" offset="40%"></stop>
            <stop stop-color="#EC30A3" offset="50%"></stop>
            <stop stop-color="#DF2F9E" offset="61%"></stop>
            <stop stop-color="#C92D96" offset="72%"></stop>
            <stop stop-color="#AA2A8A" offset="83%"></stop>
            <stop stop-color="#83267C" offset="95%"></stop>
            <stop stop-color="#712575" offset="100%"></stop>
        </linearGradient>
        <linearGradient x1="50.1205845%" y1="-67.942982%" x2="50.1205845%" y2="170.138383%" id="linearGradient-2">
            <stop stop-color="#DA7ED0" offset="0%"></stop>
            <stop stop-color="#B17BD5" offset="8%"></stop>
            <stop stop-color="#8778DB" offset="19%"></stop>
            <stop stop-color="#6276E1" offset="30%"></stop>
            <stop stop-color="#4574E5" offset="41%"></stop>
            <stop stop-color="#2E72E8" offset="54%"></stop>
            <stop stop-color="#1D71EB" offset="67%"></stop>
            <stop stop-color="#1471EC" offset="81%"></stop>
            <stop stop-color="#1171ED" offset="100%"></stop>
        </linearGradient>
        <linearGradient x1="75.7239212%" y1="3.57926628%" x2="35.8270441%" y2="104.929118%" id="linearGradient-3">
            <stop stop-color="#DA7ED0" offset="0%"></stop>
            <stop stop-color="#B77BD4" offset="5%"></stop>
            <stop stop-color="#9079DA" offset="11%"></stop>
            <stop stop-color="#6E77DF" offset="18%"></stop>
            <stop stop-color="#5175E3" offset="25%"></stop>
            <stop stop-color="#3973E7" offset="33%"></stop>
            <stop stop-color="#2772E9" offset="42%"></stop>
            <stop stop-color="#1A71EB" offset="54%"></stop>
            <stop stop-color="#1371EC" offset="68%"></stop>
            <stop stop-color="#1171ED" offset="100%"></stop>
        </linearGradient>
    </defs>
    <g id="Page-1" stroke="none" stroke-width="1" fill="none" fill-rule="evenodd">
        <g id="azureai">
            <path d="M152.814461,0 C159.925203,0 166.228132,5.51635216 168.492001,13.3053213 C170.75587,21.0942904 184,69.2697652 184,69.2697652 L184,165 L136,165 L136.977353,0 L152.814461,0 Z" id="Path" fill="url(#linearGradient-1)"></path>
            <path d="M223,74.9931329 C223,71.5970242 220.269116,69 217.041708,69 L188.888779,69 C169.070888,69.0165304 153.010951,85.1748464 153,105.108626 L153,165 L187.121152,165 C206.93129,164.977971 222.983581,148.827346 223,128.901363 L223,74.9931329 L223,74.9931329 Z" id="Path" fill="url(#linearGradient-2)" fill-rule="nonzero"></path>
            <path d="M151.840519,0 C149.220331,-0.0185543417 146.702022,1.01738321 144.849222,2.87620756 C142.996423,4.7350319 141.963843,7.26152984 141.982588,9.89023717 L141.015733,191.869971 C141.01023,218.44911 119.534791,239.99438 93.0417984,240 L5.98500507,240 C4.05090438,240.011092 2.232039,239.078537 1.10803464,237.499417 C-0.0159697187,235.920296 -0.304873142,233.891633 0.333390477,232.059912 L70.1064101,32.2502044 C76.8423944,12.9695497 94.9648831,0.0457962741 115.329294,0 L152,0 L151.840519,0 L151.840519,0 Z" id="Path" fill="url(#linearGradient-3)"></path>
        </g>
    </g>
</svg>