<?xml version="1.0" encoding="UTF-8"?>
<svg width="240px" height="240px" viewBox="0 0 240 240" version="1.1" xmlns="http://www.w3.org/2000/svg" xmlns:xlink="http://www.w3.org/1999/xlink">
    <title>babel</title>
    <g id="Page-1" stroke="none" stroke-width="1" fill="none" fill-rule="evenodd">
        <g id="babel">
            <rect id="ViewBox" x="0" y="0" width="240" height="240"></rect>
            <path d="M163.95,82.10625 L163.95,81.6 L163.125,81.6 L163.125,82.10625 L163.95,82.10625 Z M169.4625,95.38125 L169.4625,95.625 L170.04375,95.625 C170.049907,95.3481555 170.107116,95.074826 170.2125,94.81875 L170.2125,94.3125 C169.96875,94.3125 169.725,94.70625 169.5,95.4 L169.4625,95.38125 Z M147.9375,112.10625 C146.731998,110.039181 145.249518,108.146652 143.53125,106.48125 C143.53125,105.88125 144.46875,105 146.5125,103.81875 L152.34375,98.7375 C153.88656,96.3273895 154.688421,93.5176167 154.651319,90.65625 L154.651319,89.79375 C154.425,87.20625 152.55,85.125 149.025,83.53125 C146.925,82.11875 143.175,81.3375 137.775,81.1875 C131.649419,82.0066861 125.66728,83.6725982 120,86.1375 C117.811785,87.6925981 115.539595,89.1260182 113.19375,90.43125 L113.19375,90.8625 C113.438932,90.816076 113.669994,90.7133818 113.86875,90.5625 C113.988161,90.5331727 114.114417,90.5613119 114.210072,90.6385719 C114.305727,90.7158319 114.359799,90.8333418 114.35625,90.95625 L114.7875,90.73125 L114.99375,90.73125 L114.99375,90.91875 C113.576927,92.3637505 111.983028,93.6237491 110.25,94.66875 L110.49375,95.11875 L110.2875,95.11875 L109.7625,94.93125 C109.7625,95.08125 109.55625,95.19375 109.125,95.23125 L109.125,95.41875 L109.63125,96.05625 C109.378619,96.0498537 109.129887,95.9924541 108.9,95.8875 C108.056053,96.005411 107.283388,96.425048 106.725,97.06875 L107.025,95.775 C107.989073,91.7588137 108.715335,87.689242 109.2,83.5875 L109.2,83.3625 C108.390145,82.8274143 107.674255,82.1622073 107.08125,81.39375 C107.100025,81.0877878 107.100025,80.7809622 107.08125,80.475 L107.08125,80.2875 L106.875,80.2875 C104.575,83.75 100.13125,89.65625 93.54375,98.00625 C88.54375,103.94375 85.95625,107.24375 85.78125,107.90625 C83.7375,110.025 82.7625,111.3 82.85625,111.65625 C82.3125,112.0125 82.0875,112.35 82.18125,112.74375 C82.119101,112.767036 82.0498417,112.761696 81.9919967,112.729159 C81.9341518,112.696621 81.8936228,112.640205 81.88125,112.575 C81.0160699,113.98433 79.6028579,114.969502 77.98125,115.29375 L76.10625,115.70625 C75.9870298,115.724029 75.8806918,115.790893 75.8130092,115.890636 C75.7453266,115.990378 75.7224776,116.113896 75.75,116.23125 L75.75,116.45625 L76.425,116.30625 L76.425,116.49375 L74.8875,117.09375 L72.16875,117.73125 L70.74375,117.73125 C70.5375,117.9375 71.8875,117.73125 71.3625,117.84375 L69.4875,118.25625 C68.4,118.5 67.81875,118.40625 67.6125,117.975 L67.40625,117.975 C67.4393763,118.123171 67.4393763,118.276829 67.40625,118.425 L67.63125,118.125 L66.20625,118.4625 C66.10625,117.8 64.175,115.3875 60.4125,111.225 C60.4125,110.41875 61.66875,109.25625 64.3875,107.7375 L72.0375,101.00625 C73.75,98.80625 74.76875,95.275 75.09375,90.4125 L75,89.30625 C74.7,85.875 72.225,83.11875 67.5,80.98125 C64.74375,79.10625 59.775,78.1125 52.6125,77.9625 C44.6281425,79.047661 36.8265897,81.204598 29.41875,84.375 C26.5466171,86.4278286 23.5537233,88.3062138 20.45625,90 L20.45625,90.6 C20.7777703,90.5451668 21.0843064,90.4238296 21.35625,90.24375 C21.5080515,90.2030001 21.6701698,90.2350695 21.7950237,90.330546 C21.9198776,90.4260225 21.993303,90.5740748 21.99375,90.73125 L22.59375,90.39375 L22.89375,90.39375 L22.89375,90.675 C20.9985482,92.5329995 18.8974473,94.168587 16.63125,95.55 L16.96875,96.075 L16.6875,96.075 L16.05,95.85 C16.05,96.01875 15.76875,96.15 15.15,96.20625 L15.15,96.525 L15.84375,97.29375 C15.5224071,97.2891655 15.2046375,97.2256116 14.90625,97.10625 C13.20953,97.4584025 11.7509802,98.5334838 10.9125,100.05 L11.25,100.575 C11.8280175,99.9462192 12.4981544,99.4088452 13.2375,98.98125 L13.2375,99.84375 C12.9191664,99.9095961 12.6146578,100.030131 12.3375,100.2 L13.125,101.25 C14.4810564,99.8144918 16.0117438,98.5546667 17.68125,97.5 C18.50625,97.70625 18.9375,97.96875 18.95625,98.25 L19.59375,98.25 C23.6498477,95.1515362 28.1673815,92.7092841 32.98125,91.0125 L32.98125,91.6125 C32.15625,92.8625 31.6,93.4875 31.3125,93.4875 C31.3326171,93.89323 31.4839581,94.2814525 31.74375,94.59375 C31.81875,95.34375 29.8125,100.40625 25.725,109.78125 C16.5375,131.44375 8.8,147.48125 2.5125,157.89375 C2.57213048,158.199725 2.70034293,158.488203 2.8875,158.7375 C3.93452678,158.564673 4.93582248,158.182012 5.83125,157.6125 L6.16875,157.6125 L6.16875,158.2125 L6.75,158.2125 L7.35,157.875 C7.35,158.04375 7.55625,158.1375 7.96875,158.1 L7.96875,158.7 C7.8940069,159.613461 7.58393812,160.49199 7.06875,161.25 C6.1302925,162.616955 5.44444806,164.141054 5.04375,165.75 L5.04375,166.03125 L5.625,166.03125 C7.9095185,163.552658 9.84030599,160.770052 11.3625,157.7625 C17.1816378,156.208251 22.833835,154.085537 28.2375,151.425 C31.441999,151.334478 34.5425745,150.268246 37.125,148.36875 L37.125,148.05 L35.6625,148.48125 L35.325,148.48125 L35.325,148.1625 C37.4267025,148.016616 39.4637742,147.374007 41.26875,146.2875 C46.84375,141.9875 51.05625,138.94375 53.90625,137.15625 C59.75625,132.85625 63.55,128.66875 65.2875,124.59375 L66.2625,124.36875 C66.7309132,124.39388 67.2003368,124.39388 67.66875,124.36875 C67.66875,124.21875 67.66875,124.125 67.85625,124.0875 C69.16875,123.95625 68.53125,124.0875 69.375,123.975 L71.56875,123.46875 C71.4375,123.46875 71.38125,123.58125 71.41875,123.7125 L71.75625,123.50625 L71.5875,123.50625 L71.9625,123.50625 L71.79375,123.61875 C72.0603079,123.667294 72.3334421,123.667294 72.6,123.61875 L72.75,124.25625 L62.5875,139.875 L60.375,142.65 L59.2875,146.25 L59.49375,146.25 L60.58125,145.8 L60.225,147.20625 L60.3375,147.61875 L60.6375,147.99375 C60.50625,147.99375 60.45,148.125 60.4875,148.275 L60.4875,148.5 L60.9375,148.3875 C61.6,147.8125 61.88125,147.2875 61.78125,146.8125 C62.2460836,146.932642 62.7283226,146.970714 63.20625,146.925 L63.20625,147.15 C62.775,147.2625 62.55,147.6 62.5125,148.2 L62.5125,148.425 L62.75625,148.425 C66.39375,144.45 75.3,130.89375 82.44375,121.66875 C82.21875,120.66875 85.96875,119.28125 93.69375,117.50625 L93.9375,117.50625 C94.2125,118.75625 93.5875,121.675 92.0625,126.2625 C91.465708,127.738741 91.0196902,129.271534 90.73125,130.8375 C89.9768423,132.79436 89.399528,134.81496 89.00625,136.875 L86.2875,145.8 C84.4959447,150.483994 83.1402031,155.323239 82.2375,160.25625 C82.4843349,160.199991 82.7406651,160.199991 82.9875,160.25625 L83.3625,159.91875 C83.3748728,159.983955 83.4154018,160.040371 83.4732467,160.072909 C83.5310917,160.105446 83.600351,160.110786 83.6625,160.0875 L83.68125,159.375 L84.8625,159.375 C85.21875,159.375 85.5,158.85 85.7625,158.04375 C85.7625,156.84375 85.95,156.16875 86.49375,156.05625 C86.7705918,154.558076 87.2237424,153.097924 87.84375,151.70625 C88.1320022,150.021193 88.6427149,148.381868 89.3625,146.83125 C90.39375,143.08125 91.2375,141.20625 91.63125,141.09375 L91.74375,141.54375 L90.99375,143.41875 C90.0156189,148.105533 88.6868822,152.712238 87.01875,157.2 L87.4125,158.86875 L87.65625,158.86875 C90.90625,151.88125 95.58125,138.04375 101.68125,117.35625 C101.817838,115.611665 102.788515,114.040426 104.2875,113.1375 L103.93125,112.7625 L103.93125,112.575 C104.502753,112.486706 105.022597,112.19346 105.39375,111.75 C105.39375,111.6 104.75625,111.35625 103.51875,111.05625 L106.55625,97.93125 C106.891793,97.5695514 107.284533,97.2654945 107.71875,97.03125 L107.71875,97.6875 C107.473568,97.733924 107.242506,97.8366182 107.04375,97.9875 L107.625,98.8125 C108.645832,97.6964474 109.797955,96.7080142 111.05625,95.86875 C111.69375,96.0375 111.99375,96.2625 112.03125,96.46875 L112.48125,96.46875 C115.569536,94.1299378 119.004859,92.2889084 122.6625,91.0125 L122.6625,91.44375 C122.05,92.36875 121.63125,92.8375 121.40625,92.85 C121.430974,93.1497362 121.527437,93.4391269 121.6875,93.69375 C120.484318,97.6555472 118.973472,101.517296 117.16875,105.24375 C112.067632,117.832398 106.155217,130.07686 99.46875,141.9 C99.5283997,142.132771 99.6370734,142.350118 99.7875,142.5375 C100.577974,142.410722 101.332281,142.116671 102,141.675 L102.20625,141.675 L102.20625,142.10625 L102.69375,142.10625 L103.125,141.88125 C103.125,142.00625 103.28125,142.05625 103.59375,142.03125 L103.59375,142.5 C103.530557,143.2187 103.271115,143.906223 102.84375,144.4875 C102.099829,145.513008 101.558865,146.671307 101.25,147.9 L101.25,148.125 L101.7,148.125 C103.434575,146.243351 104.898638,144.129295 106.05,141.84375 C110.445353,140.660228 114.715391,139.052684 118.8,137.04375 C121.246661,136.979073 123.615045,136.167803 125.5875,134.71875 L125.5875,134.49375 L124.44375,134.83125 L124.2,134.83125 L124.2,134.60625 C125.793436,134.489537 127.336085,133.994604 128.7,133.1625 C132.91875,129.91875 136.2,127.5375 138.3,126.225 C145.05,121.3125 148.18125,116.60625 147.80625,112.06875 L147.9375,112.10625 Z M146.79375,112.40625 L146.94375,114.16875 C146.7375,114.6 146.5125,114.825 146.30625,114.84375 L146.04375,111.84375 C146.53125,112.0125 146.775,112.2 146.79375,112.40625 M14.49375,98.19375 L14.19375,98.19375 L14.19375,97.65 L15.35625,97.5 L15.35625,97.78125 C15.0404821,97.8358882 14.7400284,97.9573482 14.475,98.1375 L14.49375,98.19375 Z M8.60625,157.0875 C8.025887,156.796113 7.37980061,156.660434 6.73125,156.69375 L6.73125,155.83125 C6.73125,155.49375 6.88125,155.26875 7.3125,155.19375 C7.74375,155.11875 7.93125,155.4375 7.95,156 C8.44507232,155.323124 9.00387701,154.695253 9.61875,154.125 L10.25625,154.3875 C10.05,156.13125 9.50625,157.03125 8.64375,157.0875 L8.60625,157.0875 Z M71.5125,91.275 C71.2125,91.275 70.6125,90.375 69.76875,88.55625 L69.76875,88.0125 C70.33125,88.0125 70.9125,88.875 71.5125,90.73125 L71.5125,91.275 Z M70.6875,84.75 L70.44375,85.33125 L61.875,81.76875 C67.575,81.95625 70.50625,82.95 70.66875,84.75 L70.6875,84.75 Z M34.6125,115.725 L33.4125,115.8375 L33.4125,115.29375 L34.6125,115.18125 L34.6125,115.725 Z M33.6375,97.125 L33.9375,97.125 L33.9375,97.9875 C33.65625,97.9875 33.3,98.41875 32.83125,99.225 L32.83125,98.625 C33.375,97.9875 33.65625,97.48125 33.61875,97.14375 L33.6375,97.125 Z M31.0875,103.125 L31.2,104.26875 L30.9,104.26875 L30.7875,103.125 L31.0875,103.125 Z M29.75625,105.2625 L30.3375,105.2625 C30.3375,106.2 30.01875,106.70625 29.55,106.74375 L29.25,106.74375 C29.5525342,106.320394 29.7281433,105.819583 29.75625,105.3 L29.75625,105.2625 Z M28.7625,108.225 L29.1,108.225 L29.1,108.50625 L28.55625,109.40625 L27.975,109.40625 L27.975,109.125 C28.2133469,109.143244 28.4461141,109.046777 28.601682,108.865281 C28.7572498,108.683785 28.8169821,108.439003 28.7625,108.20625 L28.7625,108.225 Z M27.7875,110.90625 L27.61875,112.33125 L27.31875,112.33125 L27.1875,110.925 L27.7875,110.925 L27.7875,110.90625 Z M17.98125,138.75 C17.5875,140.625 17.175,141.69375 16.74375,141.73125 L16.74375,141.45 C16.676018,140.399173 17.1409993,139.384668 17.98125,138.75 M16.10625,142.65 L16.10625,142.93125 C16.1492159,143.089611 16.1127643,143.258975 16.0084534,143.385638 C15.9041424,143.512301 15.7449114,143.580552 15.58125,143.56875 L15.58125,143.2875 C15.58125,142.95 15.75625,142.7375 16.10625,142.65 M15.58125,150.73125 L16.48125,150.73125 L16.48125,151.05 C16.1597297,151.104833 15.8531936,151.22617 15.58125,151.40625 L15,151.40625 C15,151.10625 15.15,150.88125 15.525,150.76875 L15.58125,150.73125 Z M41.4375,142.74375 C38.2617139,144.120506 35.2441635,145.836738 32.4375,147.8625 C26.975,149.775 24.2875,150.96875 24.375,151.44375 C21.0456117,152.644574 17.7899573,154.040749 14.625,155.625 C14.0684439,155.616655 13.5219695,155.475214 13.03125,155.2125 C12.9596456,154.209468 13.4798997,153.25689 14.3625,152.775 C15.1995773,152.697911 16.0428086,152.826649 16.81875,153.15 C18.341598,152.467747 19.9314477,151.946176 21.5625,151.59375 L21.5625,150.99375 L19.6875,151.14375 C21.3352579,150.122203 23.0973381,149.297802 24.9375,148.6875 L25.8375,148.6875 L25.8375,148.96875 C24.28125,149.1 23.41875,149.56875 23.23125,150.375 C23.23125,150.75 23.475,150.9 23.86875,150.8625 C25.03125,150.13125 25.6125,149.7 25.59375,149.56875 C27.81875,149.14375 33.95,145.9375 43.9875,139.95 L43.9875,140.49375 C43.9875,140.75625 43.14375,141.4875 41.41875,142.74375 L41.4375,142.74375 Z M26.025,147.80625 C27.443433,147.692628 28.7740333,147.073899 29.775,146.0625 C30.1875,146.0625 30.4125,146.19375 30.43125,146.55 C28.9669677,146.94011 27.578816,147.573969 26.325,148.425 L26.025,148.425 L26.025,147.84375 L26.025,147.80625 Z M50.98125,128.7 L43.275,134.8125 C40.3263648,136.897223 37.2378257,138.776659 34.03125,140.4375 C24.90625,145.4375 19.2375,148.04375 17.025,148.25625 L16.6875,148.25625 C16.9625,147.23125 21.025,138.9125 28.875,123.3 C34.5034497,122.393527 39.9921249,120.76772 45.20625,118.4625 L47.08125,118.3125 C50.0672116,117.781704 53.1368399,118.567912 55.5,120.46875 L55.6125,121.6125 C54.2125,125.625 52.68125,127.975 51.01875,128.6625 L50.98125,128.7 Z M35.98125,120.225 L37.21875,120.1125 L37.21875,120.39375 L35.98125,120.50625 L35.98125,120.225 Z M53.4,117.28125 L54.3,117.28125 C55.14375,117.675 55.575,118.03125 55.6125,118.35 L55.6125,118.63125 C54.6971779,118.643343 53.845602,118.163884 53.38125,117.375 L53.4,117.28125 Z M55.85625,103.25625 C53.8533572,105.143151 51.6385908,106.791642 49.25625,108.16875 C48.075,108.28125 43.63125,110.04375 36,113.34375 C35.6182196,113.171424 35.1984733,113.10039 34.78125,113.1375 L34.78125,112.59375 C34.8214658,111.084347 35.3401622,109.626745 36.2625,108.43125 C36.8625,105.28125 37.5,103.48125 38.1375,103.05 L44.5125,88.70625 C44.4375,87.81875 45.8,87.1375 48.6,86.6625 L49.5,86.6625 L49.5,87.4875 C52.2375,87.075 53.9625,86.83125 54.61875,86.775 C59.68125,86.34375 62.325,87.375 62.53125,89.83125 L63.1125,89.83125 L62.98125,88.3875 L63.75,88.125 C65.0072397,88.6428623 65.9125488,89.7674259 66.15,91.10625 C66.0913533,92.2232598 65.6320305,93.2816992 64.85625,94.0875 C64.48125,94.0875 64.2375,93.84375 64.21875,93.28125 L63.58125,93.28125 L63.45,95.025 C60.8875,98.8625 59.0125,100.8375 57.825,100.95 C56.775,102.39375 56.1375,103.125 55.95,103.125 L55.85625,103.25625 Z M59.775,113.30625 C59.4158867,113.019227 58.9774699,112.849095 58.51875,112.81875 L58.51875,111.95625 L59.1,111.95625 L60.375,112.70625 C60.4179659,112.864611 60.3815143,113.033975 60.2772034,113.160638 C60.1728924,113.287301 60.0136614,113.355552 59.85,113.34375 L59.775,113.30625 Z M63.75,118.125 C64.3125,118.35 64.65,118.59375 64.70625,118.81875 L64.25625,118.81875 L63.84375,119.15625 L63.75,118.125 Z M64.14375,120.54375 L64.14375,120.31875 L64.875,120.15 L64.875,120.375 L64.14375,120.54375 Z M65.90625,122.5125 C66.65625,122.38125 67.03125,122.34375 68.41875,122.025 L68.41875,122.25 L65.75625,122.86875 C65.7618938,122.750067 65.7618938,122.631183 65.75625,122.5125 L65.90625,122.5125 Z M68.49375,123.61875 C67.59445,123.636862 66.7005673,123.762761 65.83125,123.99375 L65.83125,123.76875 L68.04375,123.05625 L69.1125,122.8125 L69.225,123.225 C68.75625,123.3375 69.09375,123.3375 68.55,123.61875 L68.49375,123.61875 Z M70.85625,123.05625 C70.7293695,123.090247 70.5941386,123.071602 70.4811914,123.004539 C70.3682442,122.937477 70.2871395,122.827673 70.25625,122.7 L70.93125,122.55 C71.0536875,122.501864 71.1917422,122.515018 71.3028865,122.585409 C71.4140308,122.655801 71.4849324,122.774986 71.49375,122.90625 L70.85625,123.05625 Z M77.25,116.175 L77.25,115.95 L78.35625,115.6875 L78.46875,116.1 L77.30625,116.1 L77.25,116.175 Z M84.075,158.0625 C84.1230477,157.833746 84.1230477,157.597504 84.075,157.36875 L84.31875,157.36875 C84.4330918,157.320718 84.5633812,157.329363 84.6703737,157.392083 C84.7773662,157.454803 84.848556,157.564266 84.8625,157.6875 L84.8625,157.9125 L83.9625,158.11875 L84.075,158.0625 Z M88.875,117.95625 L88.3875,117.95625 C87.7424676,118.224728 87.0780778,118.444102 86.4,118.6125 L85.95,118.725 C85.8306493,118.765398 85.6998284,118.753908 85.5893479,118.693321 C85.4788674,118.632735 85.3988489,118.528605 85.36875,118.40625 L88.575,117.675 L89.625,117.1875 L89.98125,117.58125 C89.5861556,117.635499 89.211657,117.790464 88.89375,118.03125 L88.875,117.95625 Z M91.33125,117.16875 L91.33125,116.94375 C91.5639461,116.87079 91.7717137,116.734442 91.93125,116.55 L94.2,116.025 L94.2,116.25 C93.2198606,116.467741 92.2601195,116.768836 91.33125,117.15 L91.33125,117.16875 Z M91.6875,112.5 C91.4506719,112.587021 91.2338431,112.720944 91.05,112.89375 C91.05,112.74375 90.69375,112.74375 90.1125,112.89375 C90,112.4625 91.6875,111.84375 95.15625,111.01875 L95.64375,110.90625 L95.75625,111.31875 C93.31875,112.03125 92.00625,112.44375 91.6875,112.48125 L91.6875,112.5 Z M97.8,105.9 C97.5,108.75 96.58125,110.30625 94.8375,110.625 L94.8375,110.4 L93.3,111 L92.625,111.15 C92.3187726,111.238548 91.9937274,111.238548 91.6875,111.15 L91.48125,110.625 C93.5140219,107.421366 95.7432907,104.346729 98.15625,101.41875 L98.68125,101.41875 C98.7479045,102.96329 98.4390831,104.500964 97.78125,105.9 L97.8,105.9 Z M108.61875,96.6375 L108.4125,96.6375 L108.4125,96.20625 L109.3125,96.20625 L109.3125,96.43125 C109.076873,96.4971248 108.85019,96.5915763 108.6375,96.7125 L108.61875,96.6375 Z M104.15625,141.45 C103.723163,141.223353 103.238485,141.113493 102.75,141.13125 L102.75,140.475 C102.75,140.25 102.8875,140.09375 103.1625,140.00625 C103.4625,140.00625 103.63125,140.175 103.66875,140.64375 C104.024129,140.110829 104.446316,139.62563 104.925,139.2 L105.39375,139.3875 C105.225,140.71875 104.8125,141.4125 104.19375,141.46875 L104.15625,141.45 Z M151.875,91.48125 C151.65,91.48125 151.21875,90.80625 150.525,89.38125 L150.525,88.95 C150.95625,88.95 151.425,89.5875 151.875,90.99375 L151.875,91.48125 Z M151.2375,86.49375 L151.03125,86.94375 L144.5625,84.24375 C148.875,84.375 151.10625,85.14375 151.2375,86.49375 M123.88125,110.00625 L122.98125,110.00625 L122.98125,109.575 L123.88125,109.575 L123.88125,109.9875 L123.88125,110.00625 Z M123.13125,95.86875 L123.375,95.86875 L123.375,96.525 C123.15,96.525 122.86875,96.8375 122.53125,97.4625 L122.53125,97.03125 C122.84747,96.7181431 123.051747,96.3095904 123.1125,95.86875 L123.13125,95.86875 Z M121.25625,100.40625 L121.25625,101.26875 L121.0125,101.26875 L121.0125,100.40625 L121.25625,100.40625 Z M120.225,102.0375 L120.675,102.0375 C120.675,102.775 120.48125,103.1625 120.09375,103.2 L119.85,103.2 C120.071653,102.857521 120.200846,102.463482 120.225,102.05625 L120.225,102.0375 Z M119.49375,104.26875 L119.7,104.26875 L119.7,104.49375 L119.30625,105.1875 L118.85625,105.1875 L118.85625,105 C119.325,105 119.53125,104.71875 119.49375,104.2875 L119.49375,104.26875 Z M118.7625,106.29375 L118.6125,107.41875 L118.40625,107.41875 L118.40625,106.3125 L118.85625,106.3125 L118.7625,106.29375 Z M111.2625,127.48125 C110.9625,128.94375 110.65,129.69375 110.325,129.73125 L110.325,129.54375 C110.29361,128.742493 110.649437,127.975022 111.28125,127.48125 L111.2625,127.48125 Z M109.875,130.425 L109.875,130.6125 C109.912952,130.737828 109.886115,130.873823 109.803398,130.975338 C109.720682,131.076854 109.59291,131.130606 109.4625,131.11875 L109.4625,130.89375 C109.4625,130.66875 109.6,130.5125 109.875,130.425 M109.48125,136.575 L110.175,136.575 L110.175,136.8 C109.936278,136.847002 109.707756,136.935871 109.5,137.0625 L109.05,137.0625 C109.05,136.8125 109.1875,136.65625 109.4625,136.59375 L109.48125,136.575 Z M129.09375,130.51875 C126.694779,131.585522 124.403132,132.87889 122.25,134.38125 C118.05,135.84375 115.9875,136.7625 116.00625,137.11875 C113.523745,138.058498 111.100543,139.147999 108.75,140.38125 C108.32926,140.363207 107.918463,140.24767 107.55,140.04375 C107.465039,139.269067 107.868133,138.522596 108.5625,138.16875 C109.201079,138.10838 109.844737,138.204929 110.4375,138.45 C111.605397,137.951942 112.81679,137.56279 114.05625,137.2875 L114.05625,136.85625 L112.63125,136.96875 C113.889978,136.187424 115.236872,135.558034 116.64375,135.09375 L117.3375,135.09375 L117.3375,135.28125 C116.15625,135.39375 115.4625,135.73125 115.35,136.36875 C115.346451,136.491658 115.400523,136.609168 115.496178,136.686428 C115.591833,136.763688 115.718089,136.791827 115.8375,136.7625 C116.71875,136.18125 117.13125,135.8625 117.13125,135.75 C118.80625,135.45 123.45625,133.0125 131.08125,128.4375 L131.08125,128.86875 C131.08125,129.05625 130.44375,129.61875 129.20625,130.575 L129.09375,130.51875 Z M117.39375,134.26875 C118.486118,134.184338 119.514407,133.719949 120.3,132.95625 C120.419411,132.926923 120.545667,132.955062 120.641322,133.032322 C120.736977,133.109582 120.791049,133.227092 120.7875,133.35 C119.688792,133.634219 118.639414,134.083049 117.675,134.68125 L117.43125,134.68125 L117.43125,134.26875 L117.39375,134.26875 Z M136.3125,119.86875 L130.5,124.55625 C128.252899,126.165462 125.890249,127.606866 123.43125,128.86875 C116.51875,132.61875 112.2125,134.59375 110.5125,134.79375 L110.26875,134.79375 C110.48125,134.00625 113.575,127.69375 119.55,115.85625 C123.823334,115.135927 127.987897,113.875848 131.94375,112.10625 L133.35,111.975 C135.616767,111.572668 137.946079,112.1824 139.725,113.64375 L139.725,114.50625 C138.65625,117.50625 137.5125,119.26875 136.25625,119.8125 L136.3125,119.86875 Z M124.89375,113.4375 L125.79375,113.4375 L125.79375,113.6625 L124.89375,113.6625 L124.89375,113.4375 Z M138.1125,111.1875 L138.80625,111.1875 C139.44375,111.50625 139.78125,111.7875 139.8,112.0125 L139.8,112.2 C139.096878,112.22665 138.438022,111.8574 138.09375,111.24375 L138.1125,111.1875 Z M139.9875,100.55625 C138.476617,101.996104 136.802784,103.254624 135,104.30625 C131.544991,105.335291 128.177971,106.639463 124.93125,108.20625 C124.637449,108.099128 124.324543,108.054427 124.0125,108.075 L124.0125,107.64375 C124.041674,106.497963 124.428481,105.389991 125.11875,104.475 C125.56875,102.05625 126.075,100.725 126.6,100.40625 L131.475,89.5125 C131.475,88.875 132.45,88.35 134.55,87.9375 L135.24375,87.9375 L135.24375,88.59375 C137.30625,88.25625 138.6,88.0625 139.125,88.0125 C142.875,87.675 144.975,88.44375 145.14375,90.3375 L145.59375,90.3375 L145.59375,89.2875 L146.04375,89.2875 C147.01836,89.6381836 147.732671,90.4810701 147.91875,91.5 C147.824886,92.3604019 147.425753,93.1586675 146.79375,93.75 C146.49375,93.75 146.325,93.58125 146.2875,93.1125 L145.8375,93.1125 L145.70625,94.425 C143.83125,97.36875 142.35,98.90625 141.46875,98.9625 C140.68125,100.03125 140.19375,100.575 139.96875,100.59375 L139.9875,100.55625 Z M142.03125,107.83125 L142.03125,107.175 L142.48125,107.175 L143.45625,107.775 C143.472604,107.893768 143.436477,108.013775 143.357275,108.103777 C143.278073,108.193779 143.163633,108.244871 143.04375,108.24375 C142.76612,108.032177 142.434942,107.902303 142.0875,107.86875 L142.03125,107.83125 Z M60.675,150.24375 L60.225,150.35625 L59.83125,150.69375 C59.845194,150.816984 59.9163838,150.926447 60.0233763,150.989167 C60.1303688,151.051887 60.2606582,151.060532 60.375,151.0125 C60.675,151.0125 60.7875,150.76875 60.73125,150.4875 L60.73125,150.2625 L60.675,150.24375 Z M58.95,146.79375 L58.95,147.01875 C59.25,147.01875 59.3625,146.775 59.30625,146.49375 L59.30625,146.26875 C59.1842225,146.280655 59.0738151,146.346227 59.0049712,146.447681 C58.9361273,146.549136 58.9159824,146.675957 58.95,146.79375 M71.25,117.54375 L71.775,117.4125 L71.6625,116.9625 L71.1375,117.09375 L71.25,117.54375 Z M229.78125,130.85625 C227.471102,131.499862 225.090964,131.858772 222.69375,131.925 L222.69375,132.35625 L223.44375,132.35625 L224.025,132.13125 C229.275,131.55 229.89375,131.75625 229.8375,131.175 L229.8375,130.96875 L229.78125,130.85625 Z M201.1875,134.60625 L201.1875,135.0375 L201.1875,134.60625 Z M197.90625,123.09375 L197.4375,122.94375 C197.172747,123.542922 196.983787,124.172788 196.875,124.81875 L196.875,125.00625 C197.25,125.00625 197.56875,124.36875 197.8875,123.13125 L197.90625,123.09375 Z M230.86875,130.725 L230.86875,131.15625 L231.6375,131.2875 L231.6375,130.85625 L230.86875,130.725 Z M194.7,135.1875 L193.51875,135.05625 L193.3125,135.50625 L193.3125,135.73125 L200.38125,135.13125 L200.38125,134.7 L194.75625,135.1875 L194.7,135.1875 Z M191.49375,119.7 L191.49375,119.475 L191.25,119.475 L190.81875,119.75625 L191.0625,120.16875 C191.4,120.16875 191.55,119.98125 191.5125,119.68125 L191.49375,119.7 Z M234.20625,127.5 L234.54375,127.5 C234.73125,127.5 234.825,127.33125 234.80625,127.05 L234.61875,126.6375 C233.662102,126.6322 232.719909,126.870975 231.88125,127.33125 L231.88125,127.125 L230.4375,127.25625 C230.4375,126.825 230.2875,126.6 230.08125,126.61875 L229.33125,126.61875 C228.45,126.61875 228.0375,126.61875 227.60625,126.99375 C227.60625,126.84375 227.60625,126.76875 227.45625,126.76875 L226.6125,126.76875 L226.125,127.05 C226.125,126.9 226.125,126.825 225.975,126.825 L225.675,127.0875 L225.675,126.8625 L224.23125,126.8625 L224.23125,127.29375 L224.83125,127.44375 L225.39375,127.44375 C225.586013,127.55647 225.810096,127.602605 226.03125,127.575 L226.51875,127.33125 L226.51875,127.5 C225.002305,127.894874 223.461458,128.189263 221.90625,128.38125 C221.774811,128.269001 221.610093,128.203114 221.4375,128.19375 C221.338,128.1889 221.244518,128.144658 221.177683,128.070787 C221.110847,127.996916 221.076151,127.899488 221.08125,127.8 L222.05625,127.66875 C222.27141,127.738136 222.490558,127.794489 222.7125,127.8375 C223.5,127.44375 223.5375,127.29375 223.95,127.25625 L223.95,126.825 C222.304752,127.129292 220.635633,127.286164 218.9625,127.29375 L218.8125,127.29375 L218.8125,126.8625 C223.14375,126.3375 221.7,126.6375 223.18125,126.225 C223.18125,126.375 223.18125,126.45 223.33125,126.45 C223.49135,126.284727 223.702971,126.178916 223.93125,126.15 L224.23125,126.15 C225.93053,126.200656 227.626971,125.979105 229.25625,125.49375 L229.25625,125.68125 L229.74375,125.4375 L230.19375,125.4375 C230.19375,125.00625 230.83125,124.93125 231.05625,124.9125 L231.05625,124.44375 C225.7875,125.5125 224.4,125.2125 222.9375,125.625 L222.9375,125.4375 C222.323355,125.579938 221.691479,125.630488 221.0625,125.5875 C220.89532,125.639167 220.745936,125.736591 220.63125,125.86875 C220.63125,125.71875 220.63125,125.64375 220.4625,125.64375 L215.98125,126.375 C215.98125,126.24375 215.98125,126.1875 215.8125,126.20625 C214.248476,126.666813 212.639024,126.956011 211.0125,127.06875 C210.803674,127.107917 210.60555,127.191001 210.43125,127.3125 C210.43125,127.18125 210.43125,127.125 210.1875,127.14375 L208.3125,127.29375 L207.0375,127.6125 C207.0375,127.48125 207.0375,127.425 206.79375,127.44375 C206.181361,127.621272 205.553573,127.740552 204.91875,127.8 C204.6,127.8 205.06875,127.8 204.91875,127.6125 L204.525,127.8375 L202.35,127.8375 C198.975,128.25 199.35,128.30625 198.975,128.325 L197.71875,128.325 C197.731678,128.379245 197.716974,128.436374 197.679463,128.477637 C197.641952,128.518899 197.586478,128.538965 197.53125,128.53125 C196.10625,128.34375 195.35625,128.11875 195.35625,127.85625 C195.54375,126.49375 195.875,125.79375 196.35,125.75625 L196.59375,125.75625 L196.3875,126.20625 L196.63125,126.20625 C197.08125,125.9625 197.2875,125.7375 197.26875,125.53125 L197.26875,125.0625 L196.81875,125.0625 L196.81875,124.63125 C196.77677,124.33099 196.822344,124.024995 196.95,123.75 L197.98125,122.08125 L197.98125,122.5125 L198.46875,122.5125 L198.46875,122.08125 L198.1875,121.6875 C198.429042,121.440839 198.733995,121.265653 199.06875,121.18125 L199.06875,120.95625 L198.4125,120.95625 L198.4125,120.3 C199.257041,118.78805 199.88804,117.166384 200.2875,115.48125 L200.75625,115.66875 C201.05625,115.66875 201.1875,115.48125 201.16875,115.1625 L200.71875,115.1625 L200.71875,114.975 C200.687428,114.658972 200.745919,114.34052 200.8875,114.05625 C201.536567,113.476728 201.893923,112.638316 201.8625,111.76875 C201.99375,111.76875 202.06875,111.76875 202.0875,111.975 C202.70625,111.61875 203.175,110.7 203.5125,109.1625 C205.203658,105.379894 206.625937,101.482726 207.76875,97.5 C211.51875,87.15 211.51875,86.0625 211.9875,83.60625 L211.5375,83.60625 C211.571624,83.9163418 211.512891,84.2295828 211.36875,84.50625 C211.138863,84.4012959 210.890131,84.3438963 210.6375,84.3375 L210.6375,84.15 C210.65628,82.9846424 211.058223,81.8578848 211.78125,80.94375 L211.875,80.94375 L212.26875,82.44375 L212.71875,82.44375 C212.791841,81.8109328 212.910906,81.1842765 213.075,80.56875 C213.075,80.34375 212.8875,80.19375 212.53125,80.175 L212.1,80.45625 L212.1,78.01875 L211.875,78.01875 C211.571151,77.7783338 211.359289,77.4406793 211.275,77.0625 L208.78125,77.30625 C208.735295,77.0349584 208.639967,76.7743971 208.5,76.5375 C208.5,76.3125 209.04375,76.0875 210.1875,75.8625 L210.69375,76.05 L211.1625,75.76875 C211.1625,75.91875 211.275,75.99375 211.44375,75.975 L211.9125,75.69375 C211.9125,75.84375 212.025,75.91875 212.19375,75.9 L212.41875,75.9 L212.41875,75.39375 L209.68125,75.39375 L209.2125,75.7125 L209.2125,75.375 C197.4875,76.3375 190.83125,76.89375 189.24375,77.04375 L186.76875,77.04375 C186.76875,77.23125 186.61875,77.34375 186.2625,77.38125 L185.75625,77.15625 L184.05,77.5875 C183.376372,77.6483735 182.698628,77.6483735 182.025,77.5875 C181.75113,77.8056735 181.417921,77.9363438 181.06875,77.9625 L186.075,77.64375 C185.715473,77.8902958 185.292066,78.0270888 184.85625,78.0375 C184.515544,78.0838049 184.168822,78.0249277 183.8625,77.86875 C182.634109,78.2478588 181.381171,78.5422993 180.1125,78.75 L179.60625,78.5625 L171.43125,79.81875 C171.085098,79.6616273 170.702255,79.6032276 170.325,79.65 C169.588039,79.7444069 168.860426,79.9012202 168.15,80.11875 L164.19375,81.76875 L164.49375,82.25625 C164.780622,82.2032718 165.054455,82.0950124 165.3,81.9375 L166.70625,82.06875 L166.5375,83.38125 C165.409507,83.7823335 164.562185,84.7285103 164.2875,85.89375 C162.4125,86.75625 161.38125,87.35625 161.38125,87.76875 L161.38125,87.99375 L161.68125,87.99375 L162.20625,87.7125 L162.825,88.44375 L162.825,89.45625 C162.825,89.76875 159.56875,96.64375 153.05625,110.08125 C147.43125,123.01875 144.43125,130.0875 144.15,131.3625 C142.275,131.90625 141.09375,132.69375 140.75625,133.74375 C140.75625,134.08125 141.375,134.30625 142.48125,134.38125 L142.48125,134.8875 L141.975,135.73125 L141.975,136.74375 C141.975,137.26875 143.3875,137.66875 146.2125,137.94375 C146.2125,137.775 146.2125,137.6625 146.475,137.64375 C146.45911,138.910908 146.282705,140.170946 145.95,141.39375 L146.25,141.39375 C147.242905,140.424399 147.899887,139.162992 148.125,137.79375 L148.36875,137.79375 C148.65,137.79375 148.95,138.09375 149.2875,138.76875 C148.9375,138.90625 147.6875,141.6875 145.5375,147.1125 L145.8375,147.6 L146.25,147.6 C148.8125,141.1 150.425,137.50625 151.0875,136.81875 C154.4625,136.51875 160.29375,135.89375 168.58125,134.94375 L169.10625,134.625 C169.102332,134.705029 169.137995,134.781873 169.201642,134.830545 C169.26529,134.879216 169.348793,134.8935 169.425,134.86875 L169.96875,134.86875 L170.49375,134.55 C170.489832,134.630029 170.525495,134.706873 170.589142,134.755545 C170.65279,134.804216 170.736293,134.8185 170.8125,134.79375 L177.09375,134.25 C178.7625,134.11875 179.53125,133.6125 179.475,132.75 C179.475,132.525 180.43125,132.2625 182.41875,131.98125 C182.712947,131.978788 183.005159,132.029608 183.28125,132.13125 C183.28125,131.98125 184.25625,131.8125 186.24375,131.64375 C186.24375,130.59375 186.6375,130.03125 187.21875,129.975 L187.21875,129.46875 C186.579623,129.542123 185.950711,129.686773 185.34375,129.9 C184.5042,129.888911 183.668226,129.788343 182.85,129.6 C182.604455,129.757512 182.330622,129.865772 182.04375,129.91875 L177.675,130.05 L177.15,130.33125 C177.15,130.16875 177.04375,130.1 176.83125,130.125 L176.5875,130.125 L176.025,130.40625 C176.025,130.25625 175.55625,130.125 174.6375,130.0125 L174.075,130.35 L172.9875,130.35 L172.9875,130.06875 C178.6125,129.45625 181.3875,128.69375 181.3125,127.78125 C181.46317,127.745159 181.622024,127.782835 181.740437,127.882746 C181.85885,127.982657 181.922721,128.132906 181.9125,128.2875 L183.5625,127.875 L183.5625,127.36875 L170.1,127.74375 C170.1,127.9125 170.1,128.025 169.8375,128.04375 L168.1875,127.9125 C167.808889,127.934757 167.444551,128.064877 167.1375,128.2875 L166.51875,128.0625 C165.251019,128.1412 163.994565,128.348515 162.76875,128.68125 C161.520605,128.584953 160.266895,128.584953 159.01875,128.68125 L156,128.94375 L154.59375,128.79375 C154.59375,127.89375 156.2625,123.525 159.825,115.66875 C160.35185,113.800452 161.34554,112.096984 162.7125,110.71875 C163.011554,110.724147 163.305856,110.794524 163.575,110.925 L165.73125,110.19375 L166.8375,110.3625 C169.05455,110.118569 171.229635,109.582679 173.30625,108.76875 C173.778765,108.699963 174.260875,108.74496 174.7125,108.9 L176.3625,108.50625 L181.25625,108.09375 C183.561794,107.874876 185.837268,107.409724 188.04375,106.70625 L188.04375,106.2 C187.14375,106.2 186.65625,106.2 186.6375,105.76875 C186.6375,105.09375 185.925,104.8125 184.65,104.90625 L184.65,104.4 L186,104.00625 L189.525,103.70625 L189.525,103.2 L187.35,103.2 L187.35,102.65625 L188.71875,102.525 C189.09375,102.525 189.24375,102.31875 189.20625,101.9625 C187.33125,101.9625 186.45,101.9625 186.43125,101.68125 C173.64375,102.30625 167.23125,102.425 167.19375,102.0375 C166.904141,102.101932 166.630134,102.223004 166.3875,102.39375 L166.05,101.86875 C169.4375,94.66875 171.425,91.04375 172.0125,90.99375 C171.978629,91.4717333 171.830753,91.9346491 171.58125,92.34375 L171.58125,92.56875 L172.125,92.56875 C173.475,89.3625 174.6,87.69375 175.55625,87.61875 C179.56875,87.2625 174.99375,87 183.6,85.74375 C183.836139,85.8728133 184.09972,85.9435302 184.36875,85.95 C187.74375,85.275 192.44375,84.5625 198.46875,83.8125 L198.46875,83.30625 L195.2625,83.60625 L195.2625,83.1 C195.611671,83.0738438 195.94488,82.9431735 196.21875,82.725 L196.21875,83.00625 C196.485632,82.9424395 196.735255,82.8208282 196.95,82.65 C197.380549,82.575119 197.823586,82.627241 198.225,82.8 C199.104317,82.5537009 200.000452,82.3719672 200.90625,82.25625 L202.9125,82.06875 C203.4,81.75 203.625,81.46875 203.60625,81.20625 L203.60625,80.98125 C203.016376,81.0257043 202.423185,80.987841 201.84375,80.86875 C201.827973,80.7343236 201.866682,80.5991772 201.951234,80.4934873 C202.035786,80.3877974 202.159139,80.3203661 202.29375,80.30625 L206.04375,79.95 L207.75,79.51875 C207.75,79.70625 207.8625,79.78125 207.99375,79.78125 C208.260632,79.7174395 208.510255,79.5958282 208.725,79.425 L209.00625,79.425 C208.703109,80.0855555 208.452337,80.7689084 208.25625,81.46875 L207.76875,81.46875 C207.743164,81.1515544 207.647076,80.8440738 207.4875,80.56875 L207.24375,80.56875 C202.70625,93.225 200.68125,99.1125 196.48125,108.825 C195.7125,111.3 195.075,112.6875 194.5125,112.9875 C194.508951,113.110408 194.563023,113.227918 194.658678,113.305178 C194.754333,113.382438 194.880589,113.410577 195,113.38125 C195.096725,114.647914 194.795169,115.913139 194.1375,117 C192.2625,122.625 190.9125,125.64375 190.2375,126.20625 L190.66875,128.85 C190.685104,128.968768 190.648977,129.088775 190.569775,129.178777 C190.490573,129.268779 190.376133,129.319871 190.25625,129.31875 L189.80625,129.31875 C189.80625,128.5875 189.46875,128.23125 189,128.2875 L188.75625,128.2875 C188.125978,129.277829 187.669418,130.368499 187.40625,131.5125 L187.85625,131.5125 C188.388159,131.24893 188.717748,130.699614 188.7,130.10625 L189.6,130.10625 L190.125,130.29375 C189.77183,130.752512 189.568844,131.309087 189.54375,131.8875 L189.7875,132.3 L189.1875,133.70625 L189.1875,133.93125 C189.793955,133.905367 190.392509,134.076382 190.89375,134.41875 C191.396356,134.351526 191.873722,134.157999 192.28125,133.85625 L198.13125,133.85625 L199.81875,133.275 C201.026662,133.280533 202.234189,133.230481 203.4375,133.125 L204.16875,133.125 L204.5625,132.8625 L204.5625,133.0875 C205.744669,132.913839 206.946749,132.926493 208.125,133.125 L208.125,133.35 L207.09375,133.35 L207.09375,133.78125 C207.394536,133.760331 207.682036,133.649251 207.91875,133.4625 C208.18125,133.4625 208.33125,133.59375 208.35,133.89375 C207.870429,133.944832 207.398476,134.051808 206.94375,134.2125 L206.49375,134.0625 C205.78125,134.25 205.93125,134.30625 205.44375,134.34375 L204.73125,134.2125 C204.742844,134.263291 204.730327,134.31659 204.697337,134.356912 C204.664346,134.397233 204.614581,134.420056 204.5625,134.41875 C204.555511,134.531981 204.600158,134.64229 204.683937,134.718784 C204.767716,134.795277 204.88162,134.829732 204.99375,134.8125 L205.725,134.8125 L209.475,134.475 L210.91875,134.15625 C210.91875,134.2875 210.91875,134.34375 211.10625,134.325 L211.8,134.0625 L213.1125,133.95 C214.125,133.95 214.10625,133.8 216.3,133.44375 C216.3,133.3125 216.3,133.25625 216.43125,133.2375 L216.43125,133.425 C217.911685,133.246721 219.377786,132.964779 220.81875,132.58125 L220.81875,132.69375 C221.71875,132.4875 221.2125,132.54375 221.45625,132.35625 C221.45625,132.50625 221.45625,132.58125 221.60625,132.58125 L222.24375,132.58125 L222.24375,132.1125 L220.66875,132.1125 C220.199071,132.200331 219.721393,132.238042 219.24375,132.225 L216.0375,132.39375 L216.0375,132.16875 L217.9125,131.925 L218.55,131.925 L218.925,131.6625 L218.925,131.8875 C221.4375,131.68125 222.3375,132.3 233.925,129.825 C234.5625,129.825 234.50625,129.24375 234.9,128.15625 C234.685442,128.172574 234.470704,128.127024 234.28125,128.025 C233.192379,128.289385 232.081405,128.452579 230.9625,128.5125 C230.8125,128.5125 230.68125,128.38125 230.625,128.11875 L230.625,127.93125 L232.5,127.93125 C233.164585,127.860622 233.805094,127.642848 234.375,127.29375 C234.375,127.44375 234.01875,127.5375 234.24375,127.51875 L234.20625,127.5 Z M148.125,128.94375 L147.3,128.94375 C147.575487,127.642808 148.016581,126.382541 148.6125,125.19375 L149.15625,125.19375 C148.985497,126.485006 148.638516,127.746754 148.125,128.94375 M149.11875,124.96875 L149.11875,124.74375 C149.11875,124.4625 149.26875,124.275 149.6625,124.18125 L149.6625,124.40625 C149.6625,124.74375 149.5125,124.93125 149.11875,124.96875 M160.03125,133.40625 L160.03125,133.63125 L158.6625,133.7625 L158.6625,133.5375 L160.03125,133.40625 Z M158.38125,133.275 C158.38125,133.55625 157.9875,133.875 157.06875,134.175 L155.4,134.04375 L154.85625,134.04375 L154.85625,133.5375 L158.4375,133.2 L158.38125,133.275 Z M169.5,82.5 L168.75,82.5 L168.75,82.21875 C168.75,81.9375 168.88125,81.75 169.2375,81.65625 L169.5375,81.65625 L170.1,81.88125 C170.122775,82.0262883 170.078972,82.1738669 169.980757,82.282994 C169.882543,82.3921211 169.740378,82.451174 169.59375,82.44375 L169.5,82.5 Z M181.9875,80.0625 L182.25,80.0625 L182.25,80.56875 L181.5,80.56875 C181.484223,80.4343236 181.522932,80.2991772 181.607484,80.1934873 C181.692036,80.0877974 181.815389,80.0203661 181.95,80.00625 L181.9875,80.0625 Z M178.8375,81.16875 L177.6,81.0375 L177.6,80.625 C178.67643,80.5523371 179.74027,80.3509001 180.76875,80.025 C180.76875,80.2125 180.95625,80.2875 181.275,80.25 L181.275,80.75625 L180.7875,80.75625 C180.446794,80.8025549 180.100072,80.7436777 179.79375,80.5875 C179.508436,80.7817109 179.180337,80.903944 178.8375,80.94375 L178.8375,81.16875 Z M180.39375,85.6875 L180.39375,85.4625 L182.4,85.275 L182.4,85.5 L180.39375,85.6875 Z M182.55,83.94375 L182.55,83.6625 L183.525,83.6625 L183.525,83.94375 L182.55,83.94375 Z M182.775,80.5125 L182.5125,80.5125 L182.7375,79.96875 L184.96875,79.7625 L184.96875,80.04375 C184.219693,80.1299204 183.479455,80.2804773 182.75625,80.49375 L182.775,80.5125 Z M183.91875,85.33125 L183.91875,84.825 L184.89375,84.825 C185.23125,84.825 185.40625,84.98125 185.41875,85.29375 L183.95625,85.425 L183.91875,85.33125 Z M189.84375,77.26875 L188.5875,77.625 L188.3625,77.625 C187.607668,77.6904841 186.848582,77.6904841 186.09375,77.625 C187.725,77.5125 189.28125,77.4 189.84375,77.30625 L189.84375,77.26875 Z M188.49375,82.89375 L188.49375,83.11875 L186.76875,83.26875 L186.76875,83.04375 L188.49375,82.89375 Z M191.325,84.24375 C191.325,84.0375 190.96875,83.8875 190.29375,83.83125 L188.56875,84.31875 L187.2375,84.31875 C186.9375,84.1125 186.7875,83.9625 186.76875,83.86875 L188.30625,83.86875 L191.75625,83.30625 L193.51875,83.30625 L193.51875,83.5875 C192.76655,83.6529609 192.02426,83.8039351 191.30625,84.0375 L191.325,84.24375 Z M209.11875,79.65 L209.5125,79.65 C210.112156,79.0551631 210.818127,78.5781559 211.59375,78.24375 C211.209262,80.5238715 210.188879,82.6491272 208.65,84.375 L207.675,83.775 C208.251679,82.4224598 208.734081,81.0316383 209.11875,79.6125 L209.11875,79.65 Z M206.11875,84.80625 L206.3625,84.80625 C206.025,85.44375 205.725,85.7625 205.48125,85.78125 L205.48125,85.125 C205.727739,85.0828293 205.959775,84.9797026 206.15625,84.825 L206.11875,84.80625 Z M204.24375,89.4375 C204.393851,88.2602037 204.860409,87.1456491 205.59375,86.2125 L205.59375,86.25 C205.35,87.99375 204.95625,88.93125 204.45,88.9875 L204.45,90.09375 C204.106601,90.4874311 203.896577,90.9796752 203.85,91.5 L203.60625,91.5 L203.475,89.98125 C203.75625,89.98125 203.98125,89.7 204.13125,89.25 L204.24375,89.4375 Z M203.49375,91.95 C203.421752,92.5971876 203.251021,93.2295238 202.9875,93.825 L202.74375,93.825 L202.74375,93.16875 C203.08125,92.4 203.3625,92.00625 203.55,92.00625 L203.49375,91.95 Z M189.375,132.75 L189.375,132.5625 L189.825,132.5625 L189.825,133.21875 C189.58125,133.21875 189.4125,133.0875 189.3375,132.7875 L189.375,132.75 Z M209.5125,133.275 C209.5125,133.125 209.5125,133.05 209.26875,133.06875 L208.125,133.125 L208.125,132.9375 L210.80625,132.7125 L210.80625,132.9375 C210.313745,132.900236 209.821946,133.018268 209.4,133.275 L209.5125,133.275 Z M208.29375,129.5625 L206.79375,129.69375 L206.79375,129.375 L208.125,129.375 L209.30625,129.075 C209.30625,129.20625 209.30625,129.2625 209.55,129.24375 C210.95625,129 210.825,128.925 211.425,128.86875 C211.65,128.86875 211.8,129 211.81875,129.2625 L208.2,129.58125 L208.29375,129.5625 Z M213.54375,129.1125 C213.056566,129.013786 212.559004,128.975996 212.0625,129 L212.0625,128.8125 L213.4125,128.68125 L213.4125,128.86875 C213.28125,128.86875 213.7875,128.86875 213.54375,129.09375 L213.54375,129.1125 Z M213.65625,128.86875 L213.65625,128.68125 L214.3875,128.68125 L214.3875,128.86875 L213.65625,128.86875 Z M215.2875,128.7375 L215.2875,128.55 C215.48174,128.497719 215.661364,128.401492 215.8125,128.26875 C215.957875,128.247488 216.105508,128.288116 216.219536,128.380764 C216.333564,128.473411 216.403552,128.609601 216.4125,128.75625 L215.2875,128.7375 Z M217.36875,128.475 L217.36875,128.25 L218.26875,128.25 L218.26875,128.475 L217.36875,128.475 Z M218.60625,128.3625 C218.60625,128.1 218.60625,127.95 218.925,127.9125 L219.225,128.30625 C219.213867,128.26141 219.221605,128.213966 219.246409,128.174988 C219.271214,128.136009 219.310915,128.108906 219.35625,128.1 L219.58125,128.5125 L218.60625,128.38125 L218.60625,128.3625 Z M205.48125,133.9875 L205.48125,133.55625 L205.35,133.55625 L205.35,133.9875 L205.48125,133.9875 Z M236.175,126.0375 C236.30625,126.0375 236.38125,125.86875 236.04375,125.8125 C235.70625,125.75625 236.2125,126.0375 235.875,126.05625 L235.875,126.20625 L236.0625,126.075 L235.875,126.225 L235.5,126.69375 L236.23125,126.43125 L236.23125,126 L236.175,126.0375 Z M237.45,127.03125 L237.31875,127.03125 L237.31875,127.4625 L238.35,127.4625 C238.35,127.18125 237.65625,127.0875 237.43125,127.0875 L237.45,127.03125 Z" id="Shape" fill="#000000" fill-rule="nonzero"></path>
            <path d="M168.75,93.99375 L168.75,94.275 L169.33125,94.275 C169.337407,93.9981555 169.394616,93.724826 169.5,93.46875 L169.5,92.9625 C169.25625,92.9625 169.0125,93.35625 168.7875,94.05 L168.75,93.99375 Z M163.125,80.625 L163.125,80.11875 L162.3,80.11875 L162.3,80.625 L163.125,80.625 Z M147.15,110.625 C145.944498,108.557931 144.462018,106.665402 142.74375,105 C142.74375,104.4 143.68125,103.51875 145.725,102.3375 L151.575,97.5 C153.11781,95.0898895 153.919671,92.2801167 153.882569,89.41875 L153.882569,88.55625 C153.65625,85.96875 151.78125,83.8875 148.25625,82.29375 C146.15625,80.88125 142.40625,80.1 137.00625,79.95 C130.93085,80.7450683 124.99385,82.3728536 119.3625,84.7875 C117.174285,86.3425981 114.902095,87.7760182 112.55625,89.08125 L112.55625,89.5125 C112.800644,89.4635757 113.031166,89.3611215 113.23125,89.2125 C113.350661,89.1831727 113.476917,89.2113119 113.572572,89.2885719 C113.668227,89.3658319 113.722299,89.4833418 113.71875,89.60625 L114.15,89.38125 L114.35625,89.38125 L114.35625,89.56875 C112.945233,91.0124964 111.357697,92.272446 109.63125,93.31875 L109.875,93.76875 L109.66875,93.76875 L109.14375,93.58125 C109.14375,93.73125 108.9375,93.84375 108.50625,93.88125 L108.50625,94.06875 L109.0125,94.70625 C108.759869,94.6998537 108.511137,94.6424541 108.28125,94.5375 C107.437303,94.655411 106.664638,95.075048 106.10625,95.71875 L106.40625,94.425 C107.370323,90.4088137 108.096585,86.339242 108.58125,82.2375 L108.58125,82.0125 C107.771395,81.4774143 107.055505,80.8122073 106.4625,80.04375 C106.481275,79.7377878 106.481275,79.4309622 106.4625,79.125 L106.4625,78.9375 L106.25625,78.9375 C103.94375,82.4 99.5,88.30625 92.925,96.65625 C87.925,102.59375 85.3375,105.89375 85.1625,106.55625 C83.11875,108.675 82.14375,109.95 82.2375,110.30625 C81.69375,110.6625 81.46875,111 81.5625,111.39375 C81.500351,111.417036 81.4310917,111.411696 81.3732467,111.379159 C81.3154018,111.346621 81.2748728,111.290205 81.2625,111.225 C80.3973199,112.63433 78.9841079,113.619502 77.3625,113.94375 L75.4875,114.35625 C75.3682798,114.374029 75.2619418,114.440893 75.1942592,114.540636 C75.1265766,114.640378 75.1037276,114.763896 75.13125,114.88125 L75.13125,115.10625 L75.80625,114.95625 L75.80625,115.14375 L74.26875,115.74375 L71.55,116.38125 L70.125,116.38125 C69.91875,116.5875 71.26875,116.38125 70.74375,116.49375 L68.86875,116.90625 C67.78125,117.15 67.2,117.05625 66.99375,116.625 L66.7875,116.625 C66.8212553,116.773101 66.8212553,116.926899 66.7875,117.075 L66.675,116.64375 L65.25,116.98125 C65.15,116.31875 63.21875,113.90625 59.45625,109.74375 C59.45625,108.9375 60.7125,107.775 63.43125,106.25625 L71.25,99.6375 C72.9625,97.4375 73.98125,93.90625 74.30625,89.04375 L74.19375,87.9 C73.89375,84.46875 71.41875,81.7125 66.69375,79.575 C63.9375,77.7 58.96875,76.70625 51.80625,76.55625 C43.8327132,77.6130546 36.0377197,79.7383886 28.63125,82.875 C25.7591171,84.9278286 22.7662233,86.8062138 19.66875,88.5 L19.66875,89.1 C19.9902703,89.0451668 20.2968064,88.9238296 20.56875,88.74375 C20.7205515,88.7030001 20.8826698,88.7350695 21.0075237,88.830546 C21.1323776,88.9260225 21.205803,89.0740748 21.20625,89.23125 L21.80625,88.89375 L22.10625,88.89375 L22.10625,89.175 C20.2110482,91.0329995 18.1099473,92.668587 15.84375,94.05 L16.18125,94.575 L15.91875,94.575 L15.28125,94.35 C15.28125,94.51875 15,94.65 14.38125,94.70625 L14.38125,95.025 L15.075,95.79375 C14.7536571,95.7891655 14.4358875,95.7256116 14.1375,95.60625 C12.44078,95.9584025 10.9822302,97.0334838 10.14375,98.55 L10.48125,99.075 C11.0663251,98.4513691 11.7428027,97.9203026 12.4875,97.5 L12.4875,98.3625 C12.1691664,98.4283461 11.8646578,98.5488808 11.5875,98.71875 L12.3,99.80625 C13.6560564,98.3707418 15.1867438,97.1109167 16.85625,96.05625 C17.68125,96.2625 18.1125,96.525 18.13125,96.80625 L18.76875,96.80625 C22.8248477,93.7077862 27.3423815,91.2655341 32.15625,89.56875 L32.15625,90.16875 C31.33125,91.41875 30.775,92.04375 30.4875,92.04375 C30.5076171,92.44948 30.6589581,92.8377025 30.91875,93.15 C30.99375,93.9 28.9875,98.9625 24.9,108.3375 C15.8,130.025 8.075,146.08125 1.725,156.50625 C1.78463048,156.812225 1.91284293,157.100703 2.1,157.35 C3.14702678,157.177173 4.14832248,156.794512 5.04375,156.225 L5.38125,156.225 L5.38125,156.825 L5.9625,156.825 L6.5625,156.4875 C6.5625,156.65625 6.76875,156.75 7.18125,156.7125 L7.18125,157.3125 C7.10377512,158.27201 6.76674191,159.19237 6.20625,159.975 C5.2677925,161.341955 4.58194806,162.866054 4.18125,164.475 L4.18125,164.75625 L4.7625,164.75625 C7.04514921,162.27616 8.97574879,159.493825 10.5,156.4875 C16.3191378,154.933251 21.971335,152.810537 27.375,150.15 C30.579499,150.059478 33.6800745,148.993246 36.2625,147.09375 L36.2625,146.775 L34.8,147.20625 L34.4625,147.20625 L34.4625,146.8875 C36.5642025,146.741616 38.6012742,146.099007 40.40625,145.0125 C45.98125,140.7125 50.19375,137.66875 53.04375,135.88125 C58.89375,131.58125 62.69375,127.39375 64.44375,123.31875 L65.41875,123.09375 C65.8871632,123.11888 66.3565868,123.11888 66.825,123.09375 C66.825,122.94375 66.825,122.85 67.0125,122.8125 C68.325,122.68125 67.6875,122.8125 68.53125,122.7 L70.66875,121.875 L71.04375,121.875 L70.875,121.9875 C71.141133,122.04054 71.415117,122.04054 71.68125,121.9875 L71.83125,122.625 L61.875,138.46875 L59.6625,141.24375 L58.575,144.88125 L58.78125,144.88125 L59.86875,144.43125 L59.5125,145.8375 L59.625,146.25 L59.925,146.625 C59.79375,146.625 59.7375,146.75625 59.775,146.90625 L59.775,147.13125 L60.225,147.01875 C60.8875,146.44375 61.16875,145.91875 61.06875,145.44375 C61.5335836,145.563892 62.0158226,145.601964 62.49375,145.55625 L62.49375,145.78125 C62.0625,145.89375 61.8375,146.23125 61.8,146.83125 L61.8,147.05625 L62.04375,147.05625 C65.68125,143.08125 74.5875,129.525 81.73125,120.3 C81.50625,119.3 85.25625,117.9125 92.98125,116.1375 L93.225,116.1375 C93.5,117.3875 92.875,120.30625 91.35,124.89375 C90.7975646,126.343849 90.3893428,127.844849 90.13125,129.375 C89.3768423,131.33186 88.799528,133.35246 88.40625,135.4125 L85.66875,144.375 C83.8771947,149.058994 82.5214531,153.898239 81.61875,158.83125 C81.8661987,158.78074 82.1213013,158.78074 82.36875,158.83125 L82.7625,158.49375 C82.7748728,158.558955 82.8154018,158.615371 82.8732467,158.647909 C82.9310917,158.680446 83.000351,158.685786 83.0625,158.6625 L82.9125,158.025 L84.09375,158.025 C84.45,158.025 84.73125,157.5 84.99375,156.69375 C84.99375,155.49375 85.18125,154.81875 85.725,154.70625 C86.0018418,153.208076 86.4549924,151.747924 87.075,150.35625 C87.3632522,148.671193 87.8739649,147.031868 88.59375,145.48125 C89.625,141.73125 90.46875,139.85625 90.8625,139.74375 L90.975,140.19375 L90.225,142.06875 C89.2486887,146.768233 87.9199331,151.387539 86.25,155.8875 L86.64375,157.55625 L86.8875,157.55625 C90.1375,150.56875 94.8125,136.73125 100.9125,116.04375 C101.049088,114.299165 102.019765,112.727926 103.51875,111.825 L103.1625,111.45 L103.1625,111.2625 C103.734003,111.174206 104.253847,110.88096 104.625,110.4375 C104.625,110.2875 103.9875,110.04375 102.75,109.74375 L105.7875,96.61875 C106.123043,96.2570514 106.515783,95.9529945 106.95,95.71875 L106.95,96.375 C106.705606,96.4239243 106.475084,96.5263785 106.275,96.675 L106.875,97.5 C107.895832,96.3839474 109.047955,95.3955142 110.30625,94.55625 C110.94375,94.725 111.24375,94.95 111.28125,95.15625 L111.73125,95.15625 C114.809285,92.8274684 118.231651,90.9929284 121.875,89.71875 L121.875,90.15 C121.2625,91.075 120.84375,91.54375 120.61875,91.55625 C120.643474,91.8559862 120.739937,92.1453769 120.9,92.4 C119.696097,96.3615471 118.185273,100.22324 116.38125,103.95 C111.301535,116.544677 105.407839,128.795547 98.7375,140.625 C98.7971497,140.857771 98.9058234,141.075118 99.05625,141.2625 C99.8402088,141.133165 100.587873,140.839212 101.25,140.4 L101.45625,140.4 L101.45625,140.83125 L101.94375,140.83125 L102.375,140.60625 C102.375,140.73125 102.53125,140.78125 102.84375,140.75625 L102.84375,141.225 C102.780557,141.9437 102.521115,142.631223 102.09375,143.2125 C101.349829,144.238008 100.808865,145.396307 100.5,146.625 L100.5,146.85 L100.95,146.85 C102.684575,144.968351 104.148638,142.854295 105.3,140.56875 C109.72401,139.358564 114.019365,137.719547 118.125,135.675 C120.571661,135.610323 122.940045,134.799053 124.9125,133.35 L124.9125,133.125 L123.76875,133.4625 L123.5625,133.4625 L123.5625,133.2375 C125.155936,133.120787 126.698585,132.625854 128.0625,131.79375 C132.28125,128.55 135.5625,126.16875 137.6625,124.85625 C144.375,120 147.525,115.2375 147.15,110.625 M145.9875,110.925 L146.1375,112.6875 C145.93125,113.11875 145.70625,113.34375 145.5,113.3625 L145.2375,110.3625 C145.725,110.53125 145.96875,110.71875 145.9875,110.925 M13.70625,96.7875 L13.40625,96.7875 L13.40625,96.24375 L14.60625,96.13125 L14.60625,96.4125 C14.2904821,96.4671382 13.9900284,96.5885982 13.725,96.76875 L13.70625,96.7875 Z M7.81875,155.625 C7.238387,155.333613 6.59230061,155.197934 5.94375,155.23125 L5.94375,154.36875 C5.94375,154.03125 6.09375,153.80625 6.525,153.73125 C6.95625,153.65625 7.14375,153.975 7.1625,154.5375 C7.65757232,153.860624 8.21637701,153.232753 8.83125,152.6625 L9.46875,152.925 C9.2625,154.66875 8.71875,155.56875 7.85625,155.625 L7.81875,155.625 Z M70.725,89.8125 C70.425,89.8125 69.825,88.9125 68.98125,87.09375 L68.98125,86.55 C69.54375,86.55 70.125,87.4125 70.725,89.26875 L70.725,89.8125 Z M69.88125,83.2875 L69.6375,83.86875 L61.0875,80.30625 C66.7875,80.49375 69.71875,81.4875 69.88125,83.2875 M33.75,114.375 L32.55,114.4875 L32.55,113.94375 L33.75,113.83125 L33.75,114.375 Z M32.775,95.775 L33.075,95.775 L33.075,96.6375 C32.79375,96.6375 32.4375,97.06875 31.96875,97.875 L31.96875,97.275 C32.5125,96.6375 32.79375,96.13125 32.75625,95.79375 L32.775,95.775 Z M30.24375,101.75625 L30.35625,102.9 L30.05625,102.9 L30,101.71875 L30.24375,101.75625 Z M28.9125,103.89375 L29.49375,103.89375 C29.49375,104.83125 29.175,105.3375 28.70625,105.375 L28.40625,105.375 C28.7087842,104.951644 28.8843933,104.450833 28.9125,103.93125 L28.9125,103.89375 Z M27.975,106.875 L28.3125,106.875 L28.3125,107.15625 L27.76875,108.05625 L27.1875,108.05625 L27.1875,107.775 C27.4258469,107.793244 27.6586141,107.696777 27.814182,107.515281 C27.9697498,107.333785 28.0294821,107.089003 27.975,106.85625 L27.975,106.875 Z M27,109.55625 L26.83125,110.98125 L26.53125,110.98125 L26.4,109.575 L27,109.575 L27,109.55625 Z M17.19375,137.34375 C16.8,139.21875 16.3875,140.2875 15.95625,140.325 L15.95625,140.04375 C15.8928443,138.98948 16.3651917,137.974285 17.2125,137.34375 L17.19375,137.34375 Z M15.31875,141.24375 L15.31875,141.525 C15.3617159,141.683361 15.3252643,141.852725 15.2209534,141.979388 C15.1166424,142.106051 14.9574114,142.174302 14.79375,142.1625 L14.79375,141.88125 C14.79375,141.54375 14.96875,141.33125 15.31875,141.24375 M14.79375,149.325 L15.69375,149.325 L15.69375,149.64375 C15.3722297,149.698583 15.0656936,149.81992 14.79375,150 L14.2125,150 C14.2125,149.7 14.3625,149.475 14.7375,149.3625 L14.79375,149.325 Z M40.65,141.3375 C37.4742139,142.714256 34.4566635,144.430488 31.65,146.45625 C26.1875,148.38125 23.48125,149.5625 23.53125,150 C20.2180072,151.245624 16.9811343,152.685626 13.8375,154.3125 C13.2809439,154.304155 12.7344695,154.162714 12.24375,153.9 C12.1721456,152.896968 12.6923997,151.94439 13.575,151.4625 C14.4151566,151.397221 15.2585085,151.538853 16.03125,151.875 C17.554098,151.192747 19.1439477,150.671176 20.775,150.31875 L20.775,149.71875 L18.9,149.86875 C20.5477579,148.847203 22.3098381,148.022802 24.15,147.4125 L25.05,147.4125 L25.05,147.69375 C23.49375,147.825 22.63125,148.29375 22.44375,149.1 C22.44375,149.475 22.6875,149.625 23.08125,149.5875 C24.24375,148.85625 24.825,148.425 24.80625,148.29375 C27.01875,147.86875 33.15,144.6625 43.2,138.675 L43.2,139.21875 C43.2,139.48125 42.35625,140.2125 40.63125,141.46875 L40.65,141.3375 Z M25.2375,146.4 C26.655933,146.286378 27.9865333,145.667649 28.9875,144.65625 C29.4,144.65625 29.625,144.7875 29.64375,145.14375 C28.1794677,145.53386 26.791316,146.167719 25.5375,147.01875 L25.2375,147.01875 L25.2375,146.4375 L25.2375,146.4 Z M50.19375,127.3125 L42.4875,133.425 C39.5361638,135.515552 36.4409756,137.395221 33.225,139.05 C24.1,144.05 18.43125,146.65625 16.21875,146.86875 L15.88125,146.86875 C16.15625,145.84375 20.21875,137.525 28.06875,121.9125 C33.6971997,121.006027 39.1858749,119.38022 44.4,117.075 L46.275,116.925 C49.2609616,116.394204 52.3305899,117.180412 54.69375,119.08125 L54.80625,120.225 C53.41875,124.21875 51.88125,126.5625 50.23125,127.25625 L50.19375,127.3125 Z M35.19375,118.8375 L36.43125,118.725 L36.43125,119.00625 L35.19375,119.11875 L35.19375,118.8375 Z M52.5,115.89375 L53.4,115.89375 C54.24375,116.2875 54.675,116.64375 54.7125,116.9625 L54.7125,117.24375 C53.7842418,117.230044 52.9367738,116.712945 52.5,115.89375 M54.95625,101.86875 C52.9533572,103.755651 50.7385908,105.404142 48.35625,106.78125 C47.175,106.89375 42.73125,108.65625 35.1,111.95625 C34.7182196,111.783924 34.2984733,111.71289 33.88125,111.75 L33.88125,111.20625 C33.9214658,109.696847 34.4401622,108.239245 35.3625,107.04375 C35.9625,103.89375 36.6,102.09375 37.2375,101.6625 L43.6125,87.31875 C43.5375,86.43125 44.9,85.75 47.7,85.275 L48.6,85.275 L48.6,86.1 C51.3375,85.6875 53.0625,85.44375 53.71875,85.3875 C58.78125,84.95625 61.425,85.9875 61.63125,88.44375 L62.2125,88.44375 L62.08125,87 L62.71875,87 C63.9759897,87.5178623 64.8812988,88.6424259 65.11875,89.98125 C65.0601033,91.0982598 64.6007805,92.1566992 63.825,92.9625 C63.43125,92.9625 63.20625,92.71875 63.1875,92.15625 L62.55,92.15625 L62.41875,93.9 C59.85625,97.7375 57.98125,99.7125 56.79375,99.825 C55.74375,101.26875 55.10625,102 54.91875,102 L54.95625,101.86875 Z M58.875,111.91875 C58.5158867,111.631727 58.0774699,111.461595 57.61875,111.43125 L57.61875,110.56875 L58.2,110.56875 L59.475,111.31875 C59.5179659,111.477111 59.4815143,111.646475 59.3772034,111.773138 C59.2728924,111.899801 59.1136614,111.968052 58.95,111.95625 L58.875,111.91875 Z M62.925,116.71875 C63.4875,116.94375 63.825,117.1875 63.88125,117.4125 L63.43125,117.4125 L63.01875,117.75 L62.90625,116.5875 L62.925,116.71875 Z M63.3,119.1375 L63.3,118.9125 L64.03125,118.74375 L64.03125,118.96875 L63.3,119.1375 Z M65.0625,121.10625 C65.8125,120.975 66.1875,120.9375 67.575,120.61875 L67.575,120.84375 L64.9125,121.4625 C64.9181438,121.343817 64.9181438,121.224933 64.9125,121.10625 L65.0625,121.10625 Z M67.65,122.2125 C66.7507,122.230612 65.8568173,122.356511 64.9875,122.5875 L64.9875,122.3625 L67.21875,121.65 L68.2875,121.40625 L68.4,121.81875 C67.9125,121.93125 68.26875,121.93125 67.70625,122.2125 L67.65,122.2125 Z M70.0125,121.65 C69.8856195,121.683997 69.7503886,121.665352 69.6374414,121.598289 C69.5244942,121.531227 69.4433895,121.421423 69.4125,121.29375 L70.0875,121.14375 C70.2099375,121.095614 70.3479922,121.108768 70.4591365,121.179159 C70.5702808,121.249551 70.6411824,121.368736 70.65,121.5 L70.0125,121.65 Z M76.40625,114.76875 L76.40625,114.54375 L77.5125,114.28125 L77.625,114.69375 L76.4625,114.69375 L76.40625,114.76875 Z M83.23125,156.65625 C83.2792977,156.427496 83.2792977,156.191254 83.23125,155.9625 L83.475,155.9625 C83.5893418,155.914468 83.7196312,155.923113 83.8266237,155.985833 C83.9336162,156.048553 84.004806,156.158016 84.01875,156.28125 L84.01875,156.50625 L83.11875,156.7125 L83.23125,156.65625 Z M88.125,116.55 L87.6375,116.55 C86.9924676,116.818478 86.3280778,117.037852 85.65,117.20625 L85.2,117.31875 C85.0806493,117.359148 84.9498284,117.347658 84.8393479,117.287071 C84.7288674,117.226485 84.6488489,117.122355 84.61875,117 L87.76875,116.25 L88.81875,115.7625 L89.175,116.15625 C88.7801258,116.211311 88.4058248,116.366194 88.0875,116.60625 L88.125,116.55 Z M90.58125,115.7625 L90.58125,115.5375 C90.8139461,115.46454 91.0217137,115.328192 91.18125,115.14375 L93.45,114.61875 L93.45,114.84375 C92.4698606,115.061491 91.5101195,115.362586 90.58125,115.74375 L90.58125,115.7625 Z M90.9375,111.16875 C90.7006719,111.255771 90.4838431,111.389694 90.3,111.5625 C90.3,111.4125 89.94375,111.4125 89.3625,111.5625 C89.25,111.13125 90.9375,110.5125 94.40625,109.6875 L94.89375,109.575 L95.00625,109.9875 C92.56875,110.7 91.25625,111.1125 90.9375,111.15 L90.9375,111.16875 Z M97.05,104.56875 C96.80625,107.34375 95.83125,108.91875 94.10625,109.3125 L94.10625,109.0875 L92.56875,109.6875 L91.89375,109.8375 C91.5875226,109.926048 91.2624774,109.926048 90.95625,109.8375 L90.825,109.21875 C92.8577719,106.015116 95.0870407,102.940479 97.5,100.0125 L98.025,100.0125 C98.0916545,101.55704 97.7828331,103.094714 97.125,104.49375 L97.05,104.56875 Z M107.86875,95.30625 L107.6625,95.30625 L107.6625,94.875 L108.5625,94.875 L108.5625,95.1 C108.326873,95.1658748 108.10019,95.2603263 107.8875,95.38125 L107.86875,95.30625 Z M103.36875,140.04375 C102.935663,139.817103 102.450985,139.707243 101.9625,139.725 L101.9625,139.06875 C101.9625,138.84375 102.1,138.6875 102.375,138.6 C102.675,138.6 102.84375,138.76875 102.88125,139.2375 C103.236629,138.704579 103.658816,138.21938 104.1375,137.79375 L104.60625,137.98125 C104.4375,139.3125 104.025,140.00625 103.40625,140.0625 L103.36875,140.04375 Z M151.125,90 C150.9,90 150.46875,89.325 149.775,87.9 L149.775,87.46875 C150.20625,87.46875 150.675,88.10625 151.125,89.5125 L151.125,90 Z M150.4875,85.0125 L150.28125,85.4625 L143.8125,82.7625 C148.125,82.89375 150.35625,83.6625 150.4875,85.0125 M123.09375,108.61875 L122.19375,108.61875 L122.19375,108.1875 L123.09375,108.1875 L123.09375,108.61875 Z M122.34375,94.48125 L122.5875,94.48125 L122.5875,95.1375 C122.3625,95.1375 122.08125,95.45 121.74375,96.075 L121.74375,95.64375 C122.05997,95.3306431 122.264247,94.9220904 122.325,94.48125 L122.34375,94.48125 Z M120.46875,99.01875 L120.46875,99.88125 L120.225,99.88125 L120.225,99.01875 L120.46875,99.01875 Z M119.4375,100.65 L119.8875,100.65 C119.8875,101.3875 119.69375,101.76875 119.30625,101.79375 L119.0625,101.79375 C119.284153,101.451271 119.413346,101.057232 119.4375,100.65 M118.70625,102.88125 L118.9125,102.88125 L118.9125,103.125 L118.51875,103.81875 L118.06875,103.81875 L118.06875,103.59375 C118.5375,103.59375 118.74375,103.3125 118.70625,102.88125 M117.9375,105 L117.7875,106.125 L117.5625,106.125 L117.5625,105.01875 L118.0125,105.01875 L117.9375,105 Z M110.4375,126.1875 C110.1375,127.65 109.825,128.4 109.5,128.4375 L109.5,128.25 C109.46861,127.448743 109.824437,126.681272 110.45625,126.1875 L110.4375,126.1875 Z M109.05,129.13125 L109.05,129.31875 C109.087952,129.444078 109.061115,129.580073 108.978398,129.681588 C108.895682,129.783104 108.76791,129.836856 108.6375,129.825 L108.6375,129.6 C108.6375,129.375 108.775,129.21875 109.05,129.13125 M108.75,135.20625 L109.44375,135.20625 L109.44375,135.43125 C109.205028,135.478252 108.976506,135.567121 108.76875,135.69375 L108.31875,135.69375 C108.31875,135.44375 108.45625,135.2875 108.73125,135.225 L108.75,135.20625 Z M128.3625,129.15 C125.963529,130.216772 123.671882,131.51014 121.51875,133.0125 C117.31875,134.475 115.25625,135.39375 115.275,135.75 C112.774244,136.67544 110.332217,137.752436 107.9625,138.975 C107.54176,138.956957 107.130963,138.84142 106.7625,138.6375 C106.677539,137.862817 107.080633,137.116346 107.775,136.7625 C108.413579,136.70213 109.057237,136.798679 109.65,137.04375 C110.817897,136.545692 112.02929,136.15654 113.26875,135.88125 L113.26875,135.45 L111.8625,135.58125 C113.121228,134.799924 114.468122,134.170534 115.875,133.70625 L116.56875,133.70625 L116.56875,133.89375 C115.3875,134.00625 114.69375,134.34375 114.58125,134.98125 C114.577701,135.104158 114.631773,135.221668 114.727428,135.298928 C114.823083,135.376188 114.949339,135.404327 115.06875,135.375 C115.95,134.79375 116.3625,134.475 116.3625,134.3625 C118.0375,134.0625 122.6875,131.625 130.3125,127.05 L130.3125,127.48125 C130.3125,127.65 129.675,128.2125 128.4375,129.16875 L128.3625,129.15 Z M116.6625,132.9 C117.754868,132.815588 118.783157,132.351199 119.56875,131.5875 C119.86875,131.5875 120.0375,131.7 120.05625,131.98125 C118.957542,132.265469 117.908164,132.714299 116.94375,133.3125 L116.7,133.3125 L116.7,132.9 L116.6625,132.9 Z M135.5625,118.3875 L129.75,123.075 C127.494448,124.72446 125.119122,126.203555 122.64375,127.5 C115.73125,131.25 111.425,133.225 109.725,133.425 L109.48125,133.425 C109.69375,132.6375 112.7875,126.325 118.7625,114.4875 C123.035834,113.767177 127.200397,112.507098 131.15625,110.7375 L132.5625,110.625 C134.829267,110.222668 137.158579,110.8324 138.9375,112.29375 L138.9375,113.15625 C137.94375,116.25 136.875,117.9375 135.525,118.4625 L135.5625,118.3875 Z M124.14375,111.95625 L125.04375,111.95625 L125.04375,112.18125 L124.14375,112.18125 L124.14375,111.95625 Z M137.3625,109.70625 L138.05625,109.70625 C138.69375,110.025 139.03125,110.30625 139.05,110.53125 L139.05,110.71875 C138.346878,110.7454 137.688022,110.37615 137.34375,109.7625 L137.3625,109.70625 Z M139.2375,99.075 C137.726617,100.514854 136.052784,101.773374 134.25,102.825 C130.771295,103.89972 127.385248,105.254139 124.125,106.875 C123.831199,106.767878 123.518293,106.723177 123.20625,106.74375 L123.20625,106.3125 C123.213954,105.166282 123.581213,104.05139 124.25625,103.125 C124.70625,100.70625 125.2125,99.375 125.7375,99.05625 L130.63125,88.125 C130.63125,87.4875 131.60625,86.9625 133.70625,86.55 L134.4,86.55 L134.4,87.20625 C136.4625,86.86875 137.75625,86.675 138.28125,86.625 C142.03125,86.2875 144.13125,87.05625 144.3,88.95 L144.75,88.95 L144.75,87.9 L145.2,87.9 C146.17461,88.2506836 146.888921,89.0935701 147.075,90.1125 C147.045901,90.9590256 146.720775,91.7685224 146.15625,92.4 C145.85625,92.4 145.6875,92.23125 145.65,91.7625 L145.2,91.7625 L145.06875,93.075 C142.96875,95.925 141.5625,97.5 140.625,97.5 C139.8375,98.56875 139.35,99.1125 139.125,99.13125 L139.2375,99.075 Z M141.28125,106.35 L141.28125,105.69375 L141.73125,105.69375 L142.70625,106.29375 C142.722604,106.412518 142.686477,106.532525 142.607275,106.622527 C142.528073,106.712529 142.413633,106.763621 142.29375,106.7625 C142.01612,106.550927 141.684942,106.421053 141.3375,106.3875 L141.28125,106.35 Z M59.8875,148.85625 L59.4375,148.96875 L59.04375,149.30625 C59.057694,149.429484 59.1288838,149.538947 59.2358763,149.601667 C59.3428688,149.664387 59.4731582,149.673032 59.5875,149.625 C59.8875,149.625 60,149.38125 59.94375,149.1 L59.94375,148.875 L59.8875,148.85625 Z M58.125,145.40625 L58.125,145.63125 C58.425,145.63125 58.5375,145.3875 58.48125,145.10625 L58.48125,144.88125 C58.3592225,144.893155 58.2488151,144.958727 58.1799712,145.060181 C58.1111273,145.161636 58.0909824,145.288457 58.125,145.40625 M70.5,122.175 L70.8375,121.96875 L70.66875,121.96875 C70.561339,121.996445 70.4950691,122.104133 70.51875,122.2125 L70.5,122.175 Z M70.5,116.15625 L71.025,116.025 L70.9125,115.575 L70.3875,115.70625 L70.5,116.15625 Z M193.96875,133.8 L192.7875,133.66875 L192.58125,134.11875 L192.58125,134.34375 L199.65,133.74375 L199.65,133.3125 L194.025,133.8 L193.96875,133.8 Z M200.4375,133.25625 L200.4375,133.6875 L200.4375,133.25625 Z M230.0625,129.375 L230.0625,129.80625 L230.83125,129.9375 L230.83125,129.50625 L230.0625,129.375 Z M228.975,129.375 C226.664852,130.018612 224.284714,130.377522 221.8875,130.44375 L221.8875,130.875 L222.6375,130.875 L223.21875,130.65 C228.46875,130.06875 229.0875,130.275 229.03125,129.69375 L229.03125,129.375 L228.975,129.375 Z M197.1,121.65 L196.63125,121.5 C196.366497,122.099172 196.177537,122.729038 196.06875,123.375 L196.06875,123.5625 C196.44375,123.5625 196.7625,122.925 197.08125,121.6875 L197.1,121.65 Z M190.70625,118.2 L190.70625,118.125 L190.4625,118.125 L190.03125,118.40625 L190.275,118.81875 C190.6125,118.81875 190.7625,118.63125 190.725,118.33125 L190.70625,118.2 Z M204.6,132.5625 L204.6,132.13125 L204.375,132.13125 L204.375,132.5625 L204.6,132.5625 Z M233.41875,126.05625 L233.75625,126.05625 C233.94375,126.05625 234.0375,125.8875 234.01875,125.60625 L233.83125,125.19375 C232.874602,125.18845 231.932409,125.427225 231.09375,125.8875 L231.09375,125.6625 L229.65,125.79375 C229.65,125.3625 229.5,125.1375 229.29375,125.15625 L228.54375,125.15625 C227.6625,125.15625 227.25,125.15625 226.81875,125.53125 C226.81875,125.38125 226.81875,125.30625 226.66875,125.30625 L225.825,125.30625 L225.3375,125.5875 C225.3375,125.4375 225.3375,125.3625 225.1875,125.3625 L224.8875,125.625 L223.44375,125.625 L223.44375,126.05625 L224.04375,126.20625 L224.60625,126.20625 C224.798513,126.31897 225.022596,126.365105 225.24375,126.3375 L225.73125,126.09375 L225.73125,126.28125 C224.214805,126.676124 222.673958,126.970513 221.11875,127.1625 C220.986602,127.05143 220.822294,126.985706 220.65,126.975 C220.5505,126.97015 220.457018,126.925908 220.390183,126.852037 C220.323347,126.778166 220.288651,126.680738 220.29375,126.58125 L221.26875,126.45 C221.48391,126.519386 221.703058,126.575739 221.925,126.61875 C222.7125,126.225 222.75,126.075 223.1625,126.0375 L223.1625,125.60625 C221.517252,125.910542 219.848133,126.067414 218.175,126.075 L218.025,126.075 L218.025,125.64375 C222.35625,125.11875 220.9125,125.41875 222.39375,125.00625 C222.39375,125.15625 222.39375,125.23125 222.54375,125.23125 C222.70385,125.065977 222.915471,124.960166 223.14375,124.93125 L223.44375,124.93125 C225.14303,124.981906 226.839471,124.760355 228.46875,124.275 L228.46875,124.4625 L228.95625,124.21875 L229.40625,124.21875 C229.40625,123.7875 230.04375,123.7125 230.26875,123.69375 L230.26875,123.225 C225,124.29375 223.6125,123.99375 222.15,124.40625 L222.15,124.21875 C221.535855,124.361188 220.903979,124.411738 220.275,124.36875 C220.10782,124.420417 219.958436,124.517841 219.84375,124.65 C219.84375,124.5 219.84375,124.425 219.675,124.425 L215.19375,125.15625 C215.19375,125.025 215.19375,124.96875 215.025,124.9875 C213.460976,125.448063 211.851524,125.737261 210.225,125.85 C210.016174,125.889167 209.81805,125.972251 209.64375,126.09375 C209.64375,125.9625 209.64375,125.90625 209.4,125.925 L207.525,126.075 L206.25,126.39375 C206.25,126.2625 206.25,126.20625 206.00625,126.225 C205.393861,126.402522 204.766073,126.521802 204.13125,126.58125 C203.8125,126.58125 204.28125,126.58125 204.13125,126.39375 L203.7375,126.61875 L201.5625,126.61875 C198.1875,127.03125 198.5625,127.0875 198.1875,127.10625 L196.93125,127.10625 C196.944178,127.160495 196.929474,127.217624 196.891963,127.258887 C196.854452,127.300149 196.798978,127.320215 196.74375,127.3125 C195.31875,127.125 194.56875,126.9 194.56875,126.6375 C194.75625,125.275 195.0875,124.575 195.5625,124.5375 L195.80625,124.5375 L195.6,124.9875 L195.84375,124.9875 C196.29375,124.74375 196.5,124.51875 196.48125,124.3125 L196.48125,123.84375 L196.03125,123.84375 L196.03125,123.4125 C195.98927,123.11224 196.034844,122.806245 196.1625,122.53125 L197.19375,120.8625 L197.19375,121.29375 L197.68125,121.29375 L197.68125,120.8625 L197.4,120.46875 C197.641542,120.222089 197.946495,120.046903 198.28125,119.9625 L198.28125,119.7375 L197.625,119.7375 L197.625,119.08125 C198.469541,117.5693 199.10054,115.947634 199.5,114.2625 L199.96875,114.45 C200.26875,114.45 200.4,114.2625 200.38125,113.94375 L199.93125,113.94375 L199.93125,113.75625 C199.899928,113.440222 199.958419,113.12177 200.1,112.8375 C200.749067,112.257978 201.106423,111.419566 201.075,110.55 C201.20625,110.55 201.28125,110.55 201.3,110.75625 C201.91875,110.4 202.3875,109.48125 202.725,107.94375 C204.546401,104.153013 206.094106,100.236755 207.35625,96.225 C211.2,85.875 211.10625,84.7875 211.575,82.33125 L211.125,82.33125 C211.159124,82.6413418 211.100391,82.9545828 210.95625,83.23125 C210.726363,83.1262959 210.477631,83.0688963 210.225,83.0625 L210.225,82.875 C210.24378,81.7096424 210.645723,80.5828848 211.36875,79.66875 L211.575,79.66875 L211.96875,81.16875 L212.41875,81.16875 C212.491841,80.5359328 212.610906,79.9092765 212.775,79.29375 C212.775,79.06875 212.5875,78.91875 212.23125,78.9 L211.8,79.18125 L211.8,76.74375 L211.575,76.74375 C211.271151,76.5033338 211.059289,76.1656793 210.975,75.7875 L208.48125,76.03125 C208.435295,75.7599584 208.339967,75.4993971 208.2,75.2625 C208.2,75.0375 208.74375,74.8125 209.8875,74.5875 L210.39375,74.775 L210.8625,74.49375 C210.8625,74.64375 210.975,74.71875 211.14375,74.7 L211.6125,74.41875 C211.6125,74.56875 211.725,74.64375 211.89375,74.625 L212.11875,74.625 L212.11875,74.11875 L209.38125,74.11875 L208.9125,74.4375 L208.9125,74.15625 C197.1875,75.11875 190.53125,75.675 188.94375,75.825 L186.46875,75.825 C186.46875,76.0125 186.31875,76.125 185.9625,76.1625 L185.45625,75.9375 L183.75,76.36875 C183.076372,76.4296235 182.398628,76.4296235 181.725,76.36875 C181.45113,76.5869235 181.117921,76.7175938 180.76875,76.74375 L185.775,76.425 C185.415473,76.6715458 184.992066,76.8083388 184.55625,76.81875 C184.215544,76.8650549 183.868822,76.8061777 183.5625,76.65 C182.334109,77.0291088 181.081171,77.3235493 179.8125,77.53125 L179.30625,77.34375 L171.13125,78.6 C170.785098,78.4428773 170.402255,78.3844776 170.025,78.43125 C169.288039,78.5256569 168.560426,78.6824702 167.85,78.9 L163.89375,80.55 L164.19375,81.0375 C164.480622,80.9845218 164.754455,80.8762624 165,80.71875 L166.40625,80.85 L166.2375,82.1625 C165.024042,82.3834043 164.014302,83.2224837 163.575,84.375 C161.7,85.2375 160.66875,85.8375 160.66875,86.25 L160.66875,86.475 L160.96875,86.475 L161.49375,86.19375 L162.1125,86.925 L162.1125,87.9375 C162.1125,88.25 158.85625,95.125 152.34375,108.5625 C146.71875,121.5 143.71875,128.56875 143.4375,129.84375 C141.5625,130.3875 140.38125,131.175 140.04375,132.225 C140.04375,132.5625 140.6625,132.7875 141.76875,132.8625 L141.76875,133.36875 L141.2625,134.2125 L141.2625,135.225 C141.2625,135.75 142.675,136.15 145.5,136.425 C145.5,136.25625 145.5,136.14375 145.7625,136.125 C145.742682,137.391857 145.566345,138.651407 145.2375,139.875 L145.5375,139.875 C146.384859,138.972717 146.957254,137.84744 147.1875,136.63125 L147.43125,136.63125 C147.7125,136.63125 148.0125,136.93125 148.35,137.60625 C148,137.74375 146.75,140.525 144.6,145.95 L144.9,146.4375 L145.2,146.4375 C147.7625,139.9375 149.375,136.34375 150.0375,135.65625 C153.4125,135.35625 159.24375,134.73125 167.53125,133.78125 L168.05625,133.4625 C168.052332,133.542529 168.087995,133.619373 168.151642,133.668045 C168.21529,133.716716 168.298793,133.731 168.375,133.70625 L168.91875,133.70625 L169.44375,133.3875 C169.439832,133.467529 169.475495,133.544373 169.539142,133.593045 C169.60279,133.641716 169.686293,133.656 169.7625,133.63125 L176.25,132.88125 C177.91875,132.75 178.6875,132.24375 178.63125,131.38125 C178.63125,131.15625 179.5875,130.89375 181.575,130.6125 C181.869197,130.610038 182.161409,130.660858 182.4375,130.7625 C182.4375,130.6125 183.4125,130.44375 185.4,130.275 C185.4,129.225 185.775,128.6625 186.375,128.60625 L186.375,128.1 C185.735873,128.173373 185.106961,128.318023 184.5,128.53125 C183.66045,128.520161 182.824476,128.419593 182.00625,128.23125 C181.760705,128.388762 181.486872,128.497022 181.2,128.55 L176.83125,128.68125 L176.30625,128.9625 C176.30625,128.8 176.2,128.73125 175.9875,128.75625 L175.74375,128.75625 L175.18125,129.0375 C175.18125,128.8875 174.7125,128.75625 173.79375,128.64375 L173.23125,128.98125 L172.14375,128.98125 L172.14375,128.8125 C177.76875,128.2 180.54375,127.4375 180.46875,126.525 C180.61942,126.488909 180.778274,126.526585 180.896687,126.626496 C181.0151,126.726407 181.078971,126.876656 181.06875,127.03125 L182.71875,126.61875 L182.71875,126.1125 L169.25625,126.4875 C169.25625,126.65625 169.25625,126.76875 168.99375,126.7875 L167.34375,126.65625 C166.965139,126.678507 166.600801,126.808627 166.29375,127.03125 L165.675,126.80625 C164.407269,126.88495 163.150815,127.092265 161.925,127.425 C160.676855,127.328703 159.423145,127.328703 158.175,127.425 L155.15625,127.6875 L153.5625,127.5 C153.5625,126.6 155.23125,122.23125 158.79375,114.375 C159.3206,112.506702 160.31429,110.803234 161.68125,109.425 C161.980304,109.430397 162.274606,109.500774 162.54375,109.63125 L164.7,108.9 L165.80625,109.06875 C168.0233,108.824819 170.198385,108.288929 172.275,107.475 C172.747515,107.406213 173.229625,107.45121 173.68125,107.60625 L175.33125,107.2125 L180.16875,106.875 C182.474294,106.656126 184.749768,106.190974 186.95625,105.4875 L186.95625,104.98125 C186.05625,104.98125 185.56875,104.98125 185.55,104.55 C185.55,103.875 184.8375,103.59375 183.5625,103.6875 L183.5625,103.18125 L184.9125,102.7875 L188.4375,102.4875 L188.4375,101.98125 L186.2625,101.98125 L186.2625,101.4375 L187.63125,101.30625 C188.00625,101.30625 188.15625,101.1 188.11875,100.74375 C186.24375,100.74375 185.3625,100.74375 185.34375,100.4625 C172.55625,101.0875 166.14375,101.20625 166.10625,100.81875 C165.816641,100.883182 165.542634,101.004254 165.3,101.175 L164.9625,100.65 C168.35,93.45 170.3375,89.825 170.925,89.775 C170.890124,90.2501737 170.749168,90.7114848 170.5125,91.125 L170.5125,91.35 L171.05625,91.35 C172.40625,88.14375 173.53125,86.475 174.4875,86.4 C178.5,86.04375 173.925,85.78125 182.53125,84.525 C182.767389,84.6540633 183.03097,84.7247802 183.3,84.73125 C186.675,84.04375 191.375,83.33125 197.4,82.59375 L197.4,82.0875 L194.19375,82.3875 L194.19375,81.88125 C194.542921,81.8550938 194.87613,81.7244235 195.15,81.50625 L195.15,81.7875 C195.416882,81.7236895 195.666505,81.6020782 195.88125,81.43125 C196.311881,81.3595682 196.754013,81.4115837 197.15625,81.58125 C198.041703,81.3340547 198.944137,81.1523145 199.85625,81.0375 L201.8625,80.85 C202.35,80.53125 202.575,80.25 202.55625,79.9875 L202.55625,79.7625 C201.966376,79.8069543 201.373185,79.769091 200.79375,79.65 C200.777973,79.5155736 200.816682,79.3804272 200.901234,79.2747373 C200.985786,79.1690474 201.109139,79.1016161 201.24375,79.0875 L204.99375,78.73125 L206.7,78.3 C206.7,78.4875 206.8125,78.5625 206.94375,78.5625 C207.210632,78.4986895 207.460255,78.3770782 207.675,78.20625 L207.95625,78.20625 C207.653814,78.8670961 207.403063,79.5503931 207.20625,80.25 L206.71875,80.25 C206.693164,79.9328044 206.597076,79.6253238 206.4375,79.35 L206.19375,79.35 C201.65625,92.00625 199.63125,97.89375 195.43125,107.60625 C194.6625,110.08125 194.025,111.46875 193.4625,111.76875 C193.458951,111.891658 193.513023,112.009168 193.608678,112.086428 C193.704333,112.163688 193.830589,112.191827 193.95,112.1625 C194.046725,113.429164 193.745169,114.694389 193.0875,115.78125 C191.2125,121.40625 189.8625,124.425 189.1875,124.9875 L189.375,127.5 C189.391354,127.618768 189.355227,127.738775 189.276025,127.828777 C189.196823,127.918779 189.082383,127.969871 188.9625,127.96875 L188.5125,127.96875 C188.5125,127.2375 188.175,126.88125 187.70625,126.9375 L187.4625,126.9375 C186.832228,127.927829 186.375668,129.018499 186.1125,130.1625 L186.5625,130.1625 C187.094409,129.89893 187.423998,129.349614 187.40625,128.75625 L188.30625,128.75625 L188.83125,128.94375 C188.47808,129.402512 188.275094,129.959087 188.25,130.5375 L188.49375,130.95 L187.89375,132.35625 L187.89375,132.58125 C188.500205,132.555367 189.098759,132.726382 189.6,133.06875 C190.102606,133.001526 190.579972,132.807999 190.9875,132.50625 L196.8375,132.50625 L198.525,131.925 C199.920091,131.955371 201.31581,131.911559 202.70625,131.79375 L203.4375,131.79375 L203.83125,131.53125 L203.83125,131.75625 C204.981266,131.62518 206.144516,131.669434 207.28125,131.8875 L207.28125,132.1125 L206.25,132.1125 L206.25,132.54375 C206.550786,132.522831 206.838286,132.411751 207.075,132.225 C207.3375,132.225 207.4875,132.35625 207.50625,132.65625 C207.026679,132.707332 206.554726,132.814308 206.1,132.975 L205.65,132.825 C204.9375,133.0125 205.0875,133.06875 204.6,133.10625 L203.8875,132.975 C203.899094,133.025791 203.886577,133.07909 203.853587,133.119412 C203.820596,133.159733 203.770831,133.182556 203.71875,133.18125 C203.711761,133.294481 203.756408,133.40479 203.840187,133.481284 C203.923966,133.557777 204.03787,133.592232 204.15,133.575 L204.88125,133.575 L208.63125,133.2375 L210.075,132.91875 C210.075,133.05 210.075,133.10625 210.2625,133.0875 L210.95625,132.825 L212.26875,132.7125 C213.28125,132.7125 213.2625,132.5625 215.475,132.20625 C215.475,132.075 215.475,132.01875 215.60625,132 L215.60625,132.1875 C217.133174,131.984594 218.643381,131.671273 220.125,131.25 L220.125,131.3625 C221.025,131.15625 220.51875,131.2125 220.7625,131.025 C220.7625,131.175 220.7625,131.25 220.9125,131.25 L221.55,131.25 L221.55,130.78125 L219.975,130.78125 C219.505321,130.869081 219.027643,130.906792 218.55,130.89375 L215.34375,131.0625 L215.34375,130.8375 L217.21875,130.59375 L217.85625,130.59375 L218.23125,130.33125 L218.23125,130.55625 C220.74375,130.35 221.64375,130.96875 233.23125,128.49375 C233.86875,128.49375 233.8125,127.9125 234.20625,126.825 C233.991692,126.841324 233.776954,126.795774 233.5875,126.69375 C232.498629,126.958135 231.387655,127.121329 230.26875,127.18125 C230.11875,127.18125 229.9875,127.05 229.93125,126.7875 L229.93125,126.6 L231.80625,126.6 C232.470835,126.529372 233.111344,126.311598 233.68125,125.9625 C233.68125,126.1125 233.30625,126.20625 233.53125,126.1875 L233.41875,126.05625 Z M147.39375,127.5 L146.56875,127.5 C146.844237,126.199058 147.285331,124.938791 147.88125,123.75 L148.425,123.75 C148.254247,125.041256 147.907266,126.303004 147.39375,127.5 M148.3875,123.525 L148.3875,123.3 C148.3875,123.01875 148.5375,122.83125 148.93125,122.7375 L148.93125,122.9625 C148.93125,123.3 148.78125,123.4875 148.3875,123.525 M159.375,132 L159.375,132.225 L158.00625,132.35625 L158.00625,132.13125 L159.375,132 Z M157.725,131.86875 C157.725,132.15 157.33125,132.46875 156.4125,132.76875 L154.74375,132.6375 L154.2,132.6375 L154.2,132.13125 L157.78125,131.79375 L157.725,131.86875 Z M168.75,81.0375 L167.925,81.0375 L167.925,80.75625 C167.925,80.475 168.05625,80.2875 168.4125,80.19375 L168.7125,80.19375 L169.275,80.41875 C169.297775,80.5637883 169.253972,80.7113669 169.155757,80.820494 C169.057543,80.9296211 168.915378,80.988674 168.76875,80.98125 L168.75,81.0375 Z M181.2375,78.6 L181.5,78.6 L181.5,79.10625 L180.75,79.10625 C180.734223,78.9718236 180.772932,78.8366772 180.857484,78.7309873 C180.942036,78.6252974 181.065389,78.5578661 181.2,78.54375 L181.2375,78.6 Z M178.125,79.6875 L176.8875,79.55625 L176.8875,79.3125 C177.943457,79.2476057 178.988125,79.0588103 180,78.75 C180,78.9375 180.1875,79.0125 180.50625,78.975 L180.50625,79.48125 L180.01875,79.48125 C179.678044,79.5275549 179.331322,79.4686777 179.025,79.3125 C178.739686,79.5067109 178.411587,79.628944 178.06875,79.66875 L178.125,79.6875 Z M179.68125,84.20625 L179.68125,83.98125 L181.6875,83.79375 L181.6875,84.01875 L179.68125,84.20625 Z M181.7625,82.5 L181.7625,82.21875 L182.7375,82.21875 L182.7375,82.5 L181.7625,82.5 Z M181.9875,79.06875 L181.725,79.06875 L181.95,78.525 L184.18125,78.31875 L184.18125,78.6 C183.432193,78.6861704 182.691955,78.8367273 181.96875,79.05 L181.9875,79.06875 Z M183.13125,83.8875 L183.13125,83.38125 L184.10625,83.38125 C184.44375,83.38125 184.61875,83.5375 184.63125,83.85 L183.16875,83.98125 L183.13125,83.8875 Z M189.05625,75.825 L187.8,76.18125 L187.5,76.18125 C186.745168,76.2467341 185.986082,76.2467341 185.23125,76.18125 C186.8625,76.06875 188.41875,75.95625 188.98125,75.8625 L189.05625,75.825 Z M187.70625,81.45 L187.70625,81.675 L185.98125,81.825 L185.98125,81.6 L187.70625,81.45 Z M190.5375,82.8 C190.5375,82.59375 190.18125,82.44375 189.50625,82.3875 L187.78125,82.875 L186.45,82.875 C186.15,82.66875 186,82.51875 185.98125,82.425 L187.51875,82.425 L190.96875,81.8625 L192.73125,81.8625 L192.73125,82.14375 C191.97905,82.2092109 191.23676,82.3601851 190.51875,82.59375 L190.5375,82.8 Z M208.33125,78.20625 L208.725,78.20625 C209.324656,77.6114131 210.030627,77.1344059 210.80625,76.8 C210.421762,79.0801215 209.401379,81.2053772 207.8625,82.93125 L206.8875,82.33125 C207.464179,80.9787098 207.946581,79.5878883 208.33125,78.16875 L208.33125,78.20625 Z M205.33125,83.3625 L205.575,83.3625 C205.2375,84 204.9375,84.31875 204.69375,84.3375 L204.69375,83.68125 C204.940239,83.6390793 205.172275,83.5359526 205.36875,83.38125 L205.33125,83.3625 Z M203.45625,87.99375 C203.606351,86.8164537 204.072909,85.7018991 204.80625,84.76875 L204.80625,84.99375 C204.5625,86.7375 204.16875,87.675 203.6625,87.73125 L203.6625,88.8375 C203.319101,89.2311811 203.109077,89.7234252 203.0625,90.24375 L202.81875,90.24375 L202.6875,88.725 C202.96875,88.725 203.19375,88.44375 203.34375,87.99375 L203.45625,87.99375 Z M202.70625,90.50625 C202.634252,91.1534376 202.463521,91.7857738 202.2,92.38125 L201.95625,92.38125 L201.95625,91.725 C202.29375,90.95625 202.575,90.5625 202.7625,90.5625 L202.70625,90.50625 Z M188.60625,131.41875 L188.60625,131.23125 L189.05625,131.23125 L189.05625,131.8875 C188.8125,131.8875 188.64375,131.75625 188.56875,131.45625 L188.60625,131.41875 Z M208.74375,131.94375 C208.74375,131.79375 208.74375,131.71875 208.5,131.7375 L207.35625,131.85 L207.35625,131.625 L207.46875,131.625 L210,131.25 L210,131.475 C209.507495,131.437736 209.015696,131.555768 208.59375,131.8125 L208.74375,131.94375 Z M207.525,128.23125 L206.025,128.3625 L206.025,128.0625 L207.39375,127.93125 L208.575,127.63125 C208.575,127.7625 208.575,127.81875 208.81875,127.8 C210.225,127.55625 210.09375,127.48125 210.69375,127.425 C210.91875,127.425 211.06875,127.55625 211.0875,127.81875 L207.46875,128.1375 L207.525,128.23125 Z M212.775,127.78125 C212.287816,127.682536 211.790254,127.644746 211.29375,127.66875 L211.29375,127.5 L212.64375,127.36875 L212.64375,127.5 C212.5125,127.5 213.01875,127.5 212.775,127.725 L212.775,127.78125 Z M212.8875,127.5375 L212.8875,127.35 L213.61875,127.35 L213.61875,127.5375 L212.8875,127.5375 Z M214.51875,127.40625 L214.51875,127.21875 C214.71299,127.166469 214.892614,127.070242 215.04375,126.9375 C215.189125,126.916238 215.336758,126.956866 215.450786,127.049514 C215.564814,127.142161 215.634802,127.278351 215.64375,127.425 L214.51875,127.40625 Z M216.6,127.14375 L216.6,126.91875 L217.5,126.91875 L217.5,127.14375 L216.6,127.14375 Z M217.8375,127.03125 C217.8375,126.76875 217.8375,126.61875 218.15625,126.58125 L218.45625,126.975 C218.445117,126.93016 218.452855,126.882716 218.477659,126.843738 C218.502464,126.804759 218.542165,126.777656 218.5875,126.76875 L218.8125,127.18125 L217.8375,127.05 L217.8375,127.03125 Z M235.35,124.78125 C235.48125,124.78125 235.55625,124.6125 235.21875,124.55625 C234.88125,124.5 235.3875,124.78125 235.05,124.8 L235.05,124.95 L235.2375,124.81875 L235.05,124.96875 L234.675,125.4375 L235.40625,125.175 L235.40625,124.74375 L235.35,124.78125 Z M236.625,125.775 L236.49375,125.775 L236.49375,126.20625 L237.525,126.20625 C237.525,125.925 236.83125,125.83125 236.60625,125.83125 L236.625,125.775 Z" id="Shape" fill="#F9DC3E" fill-rule="nonzero"></path>
        </g>
    </g>
</svg>