<?xml version="1.0" encoding="UTF-8"?>
<svg width="240px" height="240px" viewBox="0 0 240 240" version="1.1" xmlns="http://www.w3.org/2000/svg" xmlns:xlink="http://www.w3.org/1999/xlink">
    <title>baseten</title>
    <g id="Page-1" stroke="none" stroke-width="1" fill="none" fill-rule="evenodd">
        <g id="baseten">
            <rect id="box" x="0" y="0" width="240" height="240"></rect>
            <path d="M23.16,48.0000899 L169.98,48.0000899 L169.98,95.9995558 L73.1,95.9995558 C72.2921583,95.9834863 71.5115667,96.2918049 70.9327558,96.8555755 C70.3539448,97.4193462 70.0251912,98.1915465 70.02,98.9995224 L70.02,140.999055 C70.02,142.709036 71.42,143.999022 73.1,143.999022 L169.98,143.999022 L169.98,191.998487 L123.12,191.998487 C122.312158,191.982418 121.531567,192.290737 120.952756,192.854507 C120.373945,193.418278 120.045191,194.190478 120.04,194.998454 L120.04,236.997987 C120.04,238.707968 121.45,240 123.12,240 L166.9,240 C167.711809,240.028088 168.500529,239.72438 169.082468,239.157563 C169.664406,238.590746 169.988765,237.810298 169.98,236.997987 L169.98,191.998487 L216.92,191.998487 C217.727842,192.014557 218.508433,191.706238 219.087244,191.142468 C219.666055,190.578697 219.994809,189.806497 220,188.998521 L220,146.998988 C220,145.289007 218.6,143.999022 216.92,143.999022 L169.98,143.999022 L169.98,95.9995558 L216.92,95.9995558 C217.727842,96.0156253 218.508433,95.7073067 219.087244,95.143536 C219.666055,94.5797654 219.994809,93.8075651 220,92.9995892 L220,51.0000565 C220,49.2900756 218.6,48.0000899 216.92,48.0000899 L169.98,48.0000899 L169.98,3.00059068 C169.98,1.29060971 168.58,0 166.9,0 L23.16,0 C21.4629985,-0.0330997952 20.0544177,1.30414552 20,3.00059068 L20,45.0001233 C20,46.7101043 21.4,48.0000899 23.16,48.0000899 Z" id="Path" fill="#FFFFFF"></path>
        </g>
    </g>
</svg>