<?xml version="1.0" encoding="UTF-8"?>
<svg width="240px" height="240px" viewBox="0 0 240 240" version="1.1" xmlns="http://www.w3.org/2000/svg" xmlns:xlink="http://www.w3.org/1999/xlink">
    <title>bash</title>
    <g id="Page-1" stroke="none" stroke-width="1" fill="none" fill-rule="evenodd">
        <g id="bash" transform="translate(0.3, -0.0987)">
            <rect id="box" x="-0.3" y="0.0987205584" width="240" height="240"></rect>
            <g id="shape" transform="translate(14.7, 0.0987)" fill-rule="nonzero">
                <path d="M195.375,49.0405742 L119.625,4.04277135 C110.578125,-1.34759045 99.421875,-1.34759045 90.375,4.04277135 L14.625,49.0405742 C5.578125,54.3840633 0,64.3210781 0,75.054929 L0,165.003662 C0,175.737513 5.578125,185.674528 14.625,191.018017 L90.375,235.968947 C94.875,238.640691 99.9375,240 105,240 C110.0625,240 115.078125,238.640691 119.625,235.968947 L195.375,191.018017 C204.421875,185.627655 210,175.737513 210,165.003662 L210,75.054929 C210,64.3210781 204.421875,54.3840633 195.375,49.0405742 Z" id="Path" fill="#FFFFFF"></path>
                <path d="M195.375,49.0405742 L119.625,4.04277135 C115.125,1.37102681 110.0625,0.0117181778 105,0.0117181778 C99.9375,0.0117181778 94.921875,1.37102681 90.375,4.04277135 L14.625,49.0405742 C5.578125,54.3840633 0,64.3210781 0,75.054929 L0,165.003662 C0,175.737513 5.578125,185.674528 14.625,191.018017 L90.375,235.968947 C94.875,238.640691 99.9375,240 105,240 C110.0625,240 115.078125,238.640691 119.625,235.968947 L195.375,191.018017 C204.421875,185.627655 210,175.737513 210,165.003662 L210,75.054929 C210,64.3210781 204.421875,54.3840633 195.375,49.0405742 Z M93.046875,231.375421 L17.296875,186.424491 C9.890625,182.018456 5.296875,173.815732 5.296875,165.003662 L5.296875,75.054929 C5.296875,66.2428592 9.890625,58.0401348 17.296875,53.6340999 L93.046875,8.68316977 C96.703125,6.52702505 100.828125,5.40207998 105,5.40207998 C109.171875,5.40207998 113.34375,6.52702505 116.953125,8.68316977 L192.703125,53.6340999 C198.9375,57.3370441 203.15625,63.7586055 204.328125,70.9770031 C201.796875,65.633514 196.171875,64.1335872 189.5625,68.0240223 L117.890625,112.318734 C108.9375,117.521605 102.375,123.427567 102.375,134.161418 L102.375,222.469606 C102.375,228.93804 104.953125,233.109711 108.984375,234.328402 C107.671875,234.562765 106.359375,234.703384 105,234.703384 C100.828125,234.656511 96.65625,233.531566 93.046875,231.375421 Z" id="Shape" fill="#283037"></path>
                <path d="M175.546875,173.675114 L156.65625,184.971437 C156.140625,185.252673 155.765625,185.580782 155.765625,186.190127 L155.765625,191.111762 C155.765625,191.721107 156.1875,191.955471 156.65625,191.674235 L175.828125,180.049802 C176.34375,179.768566 176.390625,179.206093 176.390625,178.596748 L176.390625,174.237586 C176.4375,173.628241 176.015625,173.393877 175.546875,173.675114 Z" id="Path" fill="#4DA825"></path>
                <path d="M135.375,132.145891 C135.984375,131.817782 136.5,132.239637 136.5,133.036473 L136.546875,139.55178 C139.265625,138.473707 141.65625,138.192471 143.8125,138.661198 C144.28125,138.801816 144.46875,139.411162 144.28125,140.161125 L142.828125,145.926468 C142.734375,146.348323 142.453125,146.81705 142.171875,147.098286 C142.03125,147.238904 141.9375,147.33265 141.796875,147.379522 C141.609375,147.473268 141.421875,147.520141 141.234375,147.473268 C140.25,147.238904 137.90625,146.723305 134.25,148.598213 C130.40625,150.566867 129.046875,153.894829 129.09375,156.379083 C129.140625,159.332064 130.640625,160.269518 135.890625,160.316391 C142.875,160.410136 145.921875,163.503735 145.96875,170.534642 C146.0625,177.471803 142.359375,184.877692 136.6875,189.471217 L136.828125,195.939651 C136.828125,196.736487 136.3125,197.627069 135.703125,197.908305 L131.859375,200.111323 C131.25,200.439432 130.734375,200.06445 130.734375,199.267614 L130.6875,192.892925 C127.40625,194.252234 124.078125,194.580343 121.96875,193.736634 C121.546875,193.596016 121.40625,192.986671 121.546875,192.330453 L122.953125,186.471364 C123.046875,186.002637 123.328125,185.533909 123.65625,185.252673 C123.796875,185.158928 123.890625,185.065182 124.03125,184.971437 C124.265625,184.877692 124.453125,184.830819 124.640625,184.924564 C126.9375,185.674528 129.84375,185.346419 132.65625,183.893365 C136.21875,182.065329 138.609375,178.45613 138.5625,174.800059 C138.515625,171.518969 136.734375,170.15966 132.421875,170.112787 C126.9375,170.112787 121.78125,169.034715 121.6875,160.925736 C121.640625,154.269811 125.109375,147.33265 130.59375,142.926615 L130.546875,136.411308 C130.546875,135.614472 131.015625,134.72389 131.671875,134.395781 L135.375,132.145891 Z" id="Path" fill="#FFFFFF"></path>
            </g>
        </g>
    </g>
</svg>