<?xml version="1.0" encoding="UTF-8"?>
<svg width="229px" height="240px" viewBox="0 0 229 240" version="1.1" xmlns="http://www.w3.org/2000/svg" xmlns:xlink="http://www.w3.org/1999/xlink">
    <title>bedrock</title>
    <defs>
        <linearGradient x1="79.9726337%" y1="20%" x2="20.0273663%" y2="80%" id="linearGradient-1">
            <stop stop-color="#6350FB" offset="0%"></stop>
            <stop stop-color="#3D8FFF" offset="50%"></stop>
            <stop stop-color="#9AD8F8" offset="100%"></stop>
        </linearGradient>
    </defs>
    <g id="Page-1" stroke="none" stroke-width="1" fill="none" fill-rule="evenodd">
        <g id="bedrock" fill="url(#linearGradient-1)" fill-rule="nonzero">
            <path d="M120.491881,158.327443 L154.076949,158.327443 C156.410457,158.327443 158.318699,160.258375 158.318699,162.625675 L158.318699,182.480455 C166.644307,184.534503 172.483624,192.021796 172.450598,200.600669 C172.450598,210.888063 164.217894,219.233616 154.076949,219.233616 C143.925099,219.233616 135.692396,210.888063 135.692396,200.600669 C135.692396,191.796929 141.733346,184.411387 149.835198,182.469546 L149.835198,166.923908 L120.502786,166.923908 L120.502786,217.793599 C120.5088,219.296224 119.731989,220.693469 118.452788,221.480915 L89.1203752,239.382944 C87.7631001,240.213477 86.0531671,240.205029 84.7041569,239.361126 L30.9898576,205.695274 C29.7298047,204.903985 28.9671251,203.518162 28.9725727,202.029776 L28.9725727,166.912999 L2.13723156,151.312815 C0.89800068,150.594143 0.0969533802,149.306158 0,147.876411 L0,147.581862 L0,91.7048392 C0,90.1775484 0.796009714,88.7593499 2.09361459,87.9957045 L28.9725727,72.0464256 L28.9725727,37.6169287 C28.9725727,36.2096393 29.6486358,34.900533 30.7717728,34.10416 L31.0007619,33.9514309 L84.7259654,0.6346744 C86.0843999,-0.211558133 87.8055578,-0.211558133 89.1639922,0.6346744 L118.496405,18.9076171 C119.756458,19.698906 120.519137,21.0847294 120.51369,22.5731149 L120.51369,72.0027887 L162.56045,72.0027887 L162.56045,51.0898148 C154.230871,49.0348095 148.39048,41.5416296 148.428551,32.9586919 C148.428551,22.6712979 156.661254,14.3257449 166.8022,14.3257449 C176.95405,14.3257449 185.175849,22.6712979 185.175849,32.9586919 C185.175849,41.7624321 179.145803,49.1479737 171.04395,51.0898148 L171.04395,76.3010212 C171.052656,77.4341916 170.610298,78.5242534 169.814498,79.33065 C169.018699,80.1370465 167.934872,80.5934907 166.8022,80.5992537 L120.51369,80.5992537 L120.51369,100.301304 L192.743393,100.301304 C194.653656,91.9496536 202.062816,86.0151005 210.626351,85.9774989 C220.767297,85.9774989 229,94.3121426 229,104.599537 C229,114.886931 220.778201,123.232484 210.626351,123.232484 C202.059568,123.193708 194.649308,117.253753 192.743393,108.897769 L120.491881,108.897769 L120.491881,130.028927 L174.500595,130.028927 L184.477977,142.901807 C187.25676,141.276216 190.418574,140.421384 193.637541,140.425414 C203.789391,140.425414 212.01119,148.760057 212.01119,159.047451 C212.01119,169.334845 203.789391,177.680398 193.637541,177.680398 C183.496595,177.680398 175.263892,169.334845 175.263892,159.047451 C175.263892,155.272861 176.376125,151.760093 178.273463,148.825513 L170.378791,138.625392 L120.491881,138.625392 L120.491881,158.327443 Z M86.9395267,9.3402316 L64.6621589,23.1513035 L64.6621589,55.5298672 L56.1786582,55.5298672 L56.1786582,28.4095474 L37.4560735,40.0278662 L37.4560735,72.1555177 L60.4640255,86.9920563 L84.0935194,72.1118809 L84.0935194,47.2824972 L92.5770201,47.2824972 L92.5770201,74.5119092 C92.5770201,75.995563 91.8137232,77.3810339 90.5706395,78.1664977 L65.021999,94.2357781 L65.021999,116.937864 L80.527832,127.945267 L75.6645398,134.992622 L60.3331746,124.105221 L43.6496833,135.068987 L39.0371887,127.868902 L56.5384982,116.359675 L56.5384982,94.6503285 L33.1270892,79.5301502 L8.48350079,94.1485044 L8.48350079,112.432356 L29.9866673,99.4612943 L34.3265559,106.846836 L8.48350079,122.436111 L8.48350079,145.09456 L32.1020904,158.818358 L56.8547212,143.894545 L61.1837055,151.280087 L37.4560735,165.582074 L37.4560735,199.640657 L57.9124327,212.45899 L83.7009666,196.902443 L88.0408552,204.298894 L66.0469978,217.564505 L86.9613352,230.666478 L112.019285,215.360843 L112.019285,152.305554 L60.1368982,183.865926 L55.7752012,176.502203 L112.019285,142.29089 L112.019285,24.9731432 L86.9286224,9.3402316 L86.9395267,9.3402316 Z M157.267902,190.589333 C153.771546,190.608138 150.426398,191.999625 147.970347,194.456853 C145.514295,196.914081 144.149132,200.235161 144.175991,203.687515 C144.175991,210.905752 150.029863,216.757223 157.267902,216.757223 C160.759237,216.734642 164.098482,215.343454 166.551004,212.889722 C169.003526,210.435991 170.368415,207.120723 170.345395,203.673278 C170.372258,200.223376 169.00907,196.904446 166.556133,194.447629 C164.103196,191.990811 160.761753,190.597666 157.267902,190.575096 L157.267902,190.589333 Z M196.850303,149.021879 C193.353947,149.040674 190.008799,150.431404 187.552748,152.887297 C185.096696,155.343189 183.731533,158.662464 183.758392,162.112942 C183.758392,169.341486 189.612264,175.204006 196.835885,175.204006 C200.332242,175.18521 203.677389,173.79448 206.133441,171.338588 C208.589492,168.882695 209.954655,165.56342 209.927796,162.112942 C209.954655,158.662464 208.589492,155.343189 206.133441,152.887297 C203.677389,150.431404 200.332242,149.040674 196.835885,149.021879 L196.850303,149.021879 Z M213.8064,94.5882011 C210.310044,94.6070064 206.964896,95.998493 204.508845,98.455721 C202.052793,100.912949 200.68763,104.234029 200.714489,107.686383 C200.714489,114.90462 206.58278,120.756091 213.8064,120.756091 C217.297735,120.73351 220.63698,119.342322 223.089502,116.88859 C225.542024,114.434859 226.906913,111.119591 226.883893,107.672146 C226.910756,104.222244 225.547568,100.903314 223.094631,98.4464966 C220.641694,95.9896792 217.300251,94.5965345 213.8064,94.5739639 L213.8064,94.5882011 Z M169.978735,22.9113007 C166.484885,22.933859 163.143441,24.3262466 160.690504,26.7817288 C158.237568,29.237211 156.87438,32.5543371 156.901243,36.0023642 C156.901243,43.2309079 162.755115,49.0934276 169.978735,49.0934276 C173.475092,49.0746325 176.820239,47.6839021 179.276291,45.2280097 C181.732342,42.7721172 183.097505,39.4528421 183.070646,36.0023642 C183.097505,32.5518862 181.732342,29.2326112 179.276291,26.7767187 C176.820239,24.3208262 173.475092,22.9300958 169.978735,22.9113007 L169.978735,22.9113007 Z" id="Shape"></path>
        </g>
    </g>
</svg>