<?xml version="1.0" encoding="UTF-8"?>
<svg width="240px" height="240px" viewBox="0 0 240 240" version="1.1" xmlns="http://www.w3.org/2000/svg" xmlns:xlink="http://www.w3.org/1999/xlink">
    <title>bigdatacloud</title>
    <g id="Page-1" stroke="none" stroke-width="1" fill="none" fill-rule="evenodd">
        <g id="bigdatacloud">
            <rect id="box" fill="#FFFFFF" x="0" y="0" width="240" height="240" rx="32"></rect>
            <g id="shape" transform="translate(31, 74)" fill-rule="nonzero">
                <path d="M0,7.03068239 L25.2742594,7.03068239 C30.3432307,6.75631164 35.3445677,8.32891697 39.4021152,11.4731223 C41.0701723,12.8008716 42.4143573,14.5115903 43.3280012,16.4693045 C44.2413874,18.4270446 44.6992399,20.5776483 44.6644565,22.7498533 C44.6644565,29.5227692 40.8246273,34.1066993 33.1452265,36.5019013 C36.7696563,36.9109829 40.1122118,38.7104777 42.5089166,41.5428582 C44.8046207,44.2625932 46.0447132,47.7610523 45.990348,51.3659707 C46.0704787,53.5461923 45.650759,55.7148142 44.7654572,57.6962948 C43.8801553,59.6777755 42.5540062,61.415921 40.8947094,62.7699886 C37.4962428,65.5899962 32.759002,67 26.6824716,67 L0,67 L0,7.03068239 Z M14.1708327,18.1378778 L14.1708327,31.1227497 L23.4520475,31.1227497 C25.2315918,31.2127116 26.9826394,30.6368526 28.3829932,29.5011165 C29.0266148,28.893294 29.5290416,28.14344 29.8518831,27.307233 C30.1749822,26.471026 30.3102509,25.5703764 30.2481561,24.6728201 C30.3071591,23.7695928 30.170602,22.8643033 29.8480183,22.0224254 C29.5254345,21.1805474 29.0248112,20.423115 28.3829932,19.805523 C26.9937186,18.6445512 25.2381362,18.0528136 23.4520475,18.143291 L14.1708327,18.1378778 Z M14.1708327,55.8968 L24.8603627,55.8968 C26.6265605,55.959696 28.3479521,55.3173323 29.6658563,54.1034917 C30.3120545,53.4683456 30.8170579,52.6963234 31.146083,51.8410414 C31.4751082,50.9855016 31.6204255,50.0662926 31.5722441,49.1473413 C31.6160454,48.2237501 31.4766541,47.3006745 31.1630883,46.4343084 C30.8495224,45.5679422 30.3682233,44.7765873 29.7483059,44.1081887 C29.1268425,43.4797446 28.3873733,42.9886921 27.5749878,42.6651903 C26.7628599,42.3419463 25.8950786,42.1934706 25.0251845,42.2282696 L14.1690548,42.2282696 L14.1708327,55.8968 Z" id="Shape" fill="#304659"></path>
                <path d="M63.5965994,15.3297263 C62.2233471,16.8337306 60.4010975,17.7832729 58.4416256,18.0158372 C56.4824112,18.2484015 54.5077496,17.7494309 52.8564485,16.6044602 C51.2051474,15.4594894 49.9794155,13.7398419 49.3893341,11.7397624 C48.7995101,9.73968288 48.881895,7.58378133 49.6225861,5.64121203 C50.3632773,3.69861617 51.7161908,2.09029662 53.4493619,1.09158505 C55.1827903,0.0928469254 57.1888611,-0.234071265 59.123875,0.166773416 C61.0588889,0.567618098 62.8028729,1.67128243 64.0569246,3.28879299 C65.3107189,4.90630355 65.9968301,6.93661241 65.997345,9.03274587 C66.0256648,10.2014113 65.8271688,11.3641265 65.4142148,12.4475228 C65.0010034,13.5309192 64.3823447,14.5119394 63.5965994,15.3297263 Z M50.6794291,70 L50.6794291,20.8747975 L64.8390657,20.8747975 L64.8390657,70 L50.6794291,70 Z" id="Shape" fill="#304659"></path>
                <path d="M92.8043879,50.979679 C92.6965075,50.979679 92.5865221,50.9981994 92.4767998,50.9981994 C91.4158879,51.0054018 90.365764,50.7834143 89.3972082,50.3474133 C88.4283893,49.9114123 87.5637671,49.2714297 86.8612287,48.4704226 C86.1589534,47.6694155 85.6348124,46.7261614 85.3245904,45.7041957 C85.0143684,44.6822299 84.9251697,43.6052175 85.062783,42.5454393 C85.2006595,41.4859183 85.5621905,40.467811 86.1231687,39.5605688 C86.6841469,38.6535838 87.4314163,37.8780423 88.3149833,37.2861613 C89.1982872,36.6945375 90.1976284,36.3002074 91.2448579,36.1301799 C92.2923506,35.9601524 93.3637874,36.0182858 94.3870728,36.3002074 L100.851742,38.0274916 L100.921206,31.2901831 C100.966463,26.964899 102.438637,22.7777461 105.105388,19.3874847 C107.772403,15.9973263 111.4827,13.5968 115.652411,12.5639535 C119.822121,11.5310813 124.214433,11.9245111 128.13786,13.6822253 C132.061287,15.4399395 135.292964,18.4620309 137.324273,22.2730653 L139.483461,26.3094827 L143.741317,24.6894625 C145.540815,24.0047223 147.465034,23.7155984 149.384779,23.8411255 C151.304525,23.9669099 153.175329,24.5050303 154.871683,25.4189604 C156.568037,26.3328904 158.050735,27.6015376 159.220317,29.1402738 C160.389899,30.6787528 161.219262,32.4515663 161.652889,34.3396177 C162.086516,36.2276692 162.114144,38.1874872 161.734194,40.0871139 C161.354244,41.9869979 160.5754,43.7824474 159.450023,45.3541087 C158.324383,46.9257701 156.878259,48.2366026 155.208481,49.1988915 C153.538702,50.1614376 151.683948,50.7528042 149.768676,50.9338925 L149.056928,51 L92.8043879,50.979679 Z" id="Path" fill="#E36327"></path>
                <path d="M94.4995374,56.8201644 L94.4995374,56.7748062 C94.2226118,56.7955189 93.9456861,56.8201644 93.6635891,56.8201644 C91.8965395,56.823835 90.1491411,56.4326531 88.5382663,55.6736239 C86.92765,54.9143324 85.4905325,53.8044979 84.3236178,52.4183191 C83.1567032,51.0318781 82.2863654,49.4010794 81.7712991,47.6349927 C81.2562329,45.8689059 81.1083324,44.0079078 81.3371645,42.177061 C81.5659966,40.3462142 82.1666487,38.5877309 83.0985255,37.0190704 C84.0304024,35.4504099 85.2723016,34.1080162 86.7409644,33.0812948 C88.2096271,32.0548355 89.8714397,31.3681696 91.6147011,31.0666554 C93.3579624,30.7654034 95.1428531,30.856382 96.8496564,31.3340854 C96.8799088,28.0517754 97.5255516,24.8072203 98.7503853,21.7842126 C95.8952842,19.8722191 92.5545935,18.9044109 89.1647751,19.0074502 C86.3275151,18.9700624 83.5163704,19.5763682 80.9247495,20.7839457 C78.3333871,21.9916019 76.0236046,23.7718467 74.154421,26.0025275 C70.1768788,31.0165778 68,37.3247796 68,43.8374867 C68,50.3501937 70.1768788,56.6583955 74.154421,61.672708 C75.9972308,63.8766458 78.2741752,65.639062 80.8290796,66.8388264 C83.3839839,68.0385908 86.1568606,68.6479117 88.9579211,68.6245771 C91.6914956,68.6814715 94.3937834,68.0089637 96.8093199,66.6710272 C99.225115,65.3330906 101.274262,63.3735104 102.76361,60.9776522 L102.76361,67.7562161 C103.022177,70.8788547 102.096247,73.982878 100.185176,76.3989245 C99.3435389,77.2979612 98.3325404,78.005602 97.2165636,78.4767507 C96.1003281,78.9478995 94.9029026,79.1723309 93.6995299,79.1361492 C88.3771788,79.1361492 85.0507093,77.3105462 83.7201215,73.6596023 L69.7489498,73.6596023 C69.8425512,76.3729681 70.5280134,79.0278663 71.7531057,81.4224135 C72.9779394,83.8166986 74.7100823,85.8874458 76.8174065,87.4760324 C80.9756873,90.4882905 86.6028894,91.9945507 93.6995299,91.9945507 C97.3450715,92.0669141 100.970703,91.4180031 104.385603,90.0819018 C107.222346,88.985701 109.732518,87.1273247 111.662465,84.6937117 C115.305162,79.884691 117.191929,73.8782657 116.984558,67.7488749 L116.984558,56.8159695 L94.4995374,56.8201644 Z" id="Path" fill="#304659"></path>
                <path d="M169.92841,15.3346479 C163.874938,9.77822456 156.147491,7 146.74659,7 L126,7 L126,7.24409754 C129.204057,8.12418973 132.19841,9.65972184 134.799993,11.7567943 C137.401576,13.8538669 139.555807,16.4686634 141.131329,19.4412634 C143.606254,18.4902759 146.252493,18.088914 148.892465,18.2641536 C151.532437,18.4393674 154.105032,19.1867727 156.43789,20.4568793 C158.770488,21.7270634 160.80903,23.490033 162.417196,25.627724 C164.0251,27.7656728 165.165284,30.2285693 165.761229,32.8516184 C166.356914,35.4746676 166.39452,38.1972643 165.871435,40.8363029 C165.34835,43.4753416 164.276849,45.9699591 162.728487,48.1530396 C161.180125,50.3358621 159.190679,52.1563423 156.894121,53.4927538 C154.597562,54.8289074 152.046642,55.6503027 149.412416,55.9009765 L149.412416,55.9894345 L126,55.9894345 L126,67 L146.74659,67 C156.153759,67 163.880945,64.2082875 169.92841,58.6248626 C172.796367,55.8254133 175.078562,52.4647847 176.63737,48.7449084 C178.196439,45.0250321 179,41.0230188 179,36.9789687 C179,32.9349185 178.196439,28.9326473 176.63737,25.212771 C175.078562,21.4928948 172.796367,18.1321888 169.92841,15.3328426 L169.92841,15.3346479 Z" id="Path" fill="#304659"></path>
            </g>
        </g>
    </g>
</svg>