<svg width="240" height="240" viewBox="0 0 240 240" fill="none" xmlns="http://www.w3.org/2000/svg">
<circle cx="120" cy="120" r="117" stroke="white" stroke-width="6"/>
<circle cx="120" cy="120" r="104.5" stroke="black" stroke-width="19"/>
<circle cx="120" cy="120" r="95" fill="#D83727"/>
<rect x="60" y="103" width="121" height="32" fill="white"/>
<path d="M189 95V125C189 136.046 180.046 145 169 145H141.657C140.419 143.291 138.898 141.229 137.301 139.153C135.369 136.642 133.185 133.924 131.191 131.764C130.218 130.709 129.072 129.549 127.876 128.577C127.284 128.096 126.452 127.473 125.442 126.926C124.618 126.479 122.64 125.5 120 125.5C116.356 125.5 113.753 127.382 113.138 127.817C112.046 128.59 111.089 129.478 110.353 130.214C108.841 131.723 107.256 133.606 105.817 135.414C103.287 138.595 100.658 142.257 98.7383 145H71C59.9543 145 51 136.046 51 125V95H189Z" stroke="black" stroke-width="20"/>
</svg>
