<?xml version="1.0" encoding="UTF-8"?>
<svg width="240px" height="240px" viewBox="0 0 240 240" version="1.1" xmlns="http://www.w3.org/2000/svg" xmlns:xlink="http://www.w3.org/1999/xlink">
    <title>bitcoin-cash</title>
    <g id="Page-1" stroke="none" stroke-width="1" fill="none" fill-rule="evenodd">
        <g id="bitcoin-cash" fill-rule="nonzero">
            <circle id="Oval" fill="#0AC18E" cx="120" cy="120" r="120"></circle>
            <path d="M157.525287,79.9333061 C151.511721,66.2465221 137.692669,63.3201718 120.775719,66.1550736 L115.339213,45 L102.522422,48.3226268 L107.867813,69.4167349 C104.496572,70.2702537 101.034216,71.0018412 97.6022316,71.9772913 L92.25684,51.0051146 L79.4400487,54.3277414 L84.876555,75.4828151 C82.1127445,76.2753682 59,82.2195172 59,82.2195172 L62.523099,95.9977496 C62.523099,95.9977496 71.9382775,93.3457447 71.8471629,93.5591244 C77.0710683,92.1873977 79.5311633,94.8089198 80.685282,97.2780278 L95.6280813,155.256342 C95.8103106,156.932897 95.5065951,159.798282 91.922753,160.773732 C92.1353538,160.895663 82.5986892,163.181874 82.5986892,163.181874 L83.9957802,179.246318 C83.9957802,179.246318 106.895924,173.363134 109.902707,172.601064 L115.399956,194 L128.216747,190.677373 L122.719498,169.126023 C126.242597,168.302987 129.674581,167.449468 133.015451,166.565466 L138.482329,187.994885 L151.29912,184.672259 L145.801871,163.303805 C165.543374,158.48752 179.483913,145.989566 176.628988,126.876841 C174.806695,115.354337 162.263247,105.904664 151.845808,104.837766 C158.254204,99.1374795 161.503959,90.815671 157.525287,79.9333061 L157.525287,79.9333061 Z M151.359863,130.382365 C153.911073,149.312193 127.700431,151.628887 119.044541,153.915098 L111.512399,125.596563 C120.19866,123.310352 147.047104,113.708265 151.359863,130.382365 Z M135.566661,91.8216039 C138.269728,108.648118 115.855529,110.599018 108.627102,112.45847 L101.763133,86.7614566 C109.021932,84.9629705 130.069412,76.2448854 135.566661,91.8216039 Z" id="symbol_1_" fill="#FFFFFF"></path>
        </g>
    </g>
</svg>