<?xml version="1.0" encoding="UTF-8"?>
<svg width="240px" height="240px" viewBox="0 0 240 240" version="1.1" xmlns="http://www.w3.org/2000/svg" xmlns:xlink="http://www.w3.org/1999/xlink">
    <title>bitcoin</title>
    <g id="Page-1" stroke="none" stroke-width="1" fill="none" fill-rule="evenodd">
        <g id="bitcoin" fill-rule="nonzero">
            <path d="M236.409518,149.028584 C220.380842,213.314949 155.261852,252.438358 90.960604,236.407385 C26.6863402,220.380519 -12.441486,155.264774 3.59422946,90.9836886 C19.6158662,26.6902856 84.734856,-12.4360565 149.016159,3.59081023 C213.312714,19.6176769 252.438194,84.7404603 236.407758,149.029757 L236.408931,149.028584 L236.409518,149.028584 Z" id="Path" fill="#F7931A"></path>
            <path d="M172.699556,103.105401 C175.091896,87.1337445 162.913991,78.5483779 146.261611,72.8210848 L151.663764,51.1860783 L138.474167,47.9044561 L133.215366,68.9698425 C129.747883,68.1063194 126.186985,67.2926601 122.647826,66.4860405 L127.944815,45.2816222 L114.763443,42 L109.358352,63.6279669 C106.488954,62.9756316 103.670669,62.3309225 100.936398,61.651602 L100.951673,61.5835527 L82.7629543,57.0482968 L79.2543453,71.1145709 C79.2543453,71.1145709 89.03991,73.3543337 88.833694,73.4921924 C94.1747464,74.8232615 95.1406127,78.3536159 94.9802225,81.1518529 L88.8266439,105.799217 C89.1944251,105.892492 89.6714831,106.027417 90.197892,106.238605 C89.7578471,106.129491 89.2896017,106.010405 88.803731,105.894252 L80.1784983,140.421681 C79.5257749,142.04196 77.868997,144.473551 74.1347841,143.550192 C74.2669738,143.741434 64.5483852,141.161424 64.5483852,141.161424 L58,156.236706 L75.1641014,160.509151 C78.3572177,161.308731 81.4862954,162.145269 84.5677847,162.931943 L79.1098179,184.815095 L92.2841396,188.096717 L97.6892306,166.445872 C101.288316,167.421441 104.781062,168.321336 108.20037,169.169606 L102.813492,190.718378 L116.003676,194 L121.461056,172.157912 C143.952109,176.408065 160.863582,174.694511 167.981851,154.381774 C173.71771,138.027633 167.696322,128.594583 155.863872,122.443155 C164.482055,120.458577 170.973452,114.798746 172.704256,103.107161 L172.700143,103.104228 L172.699556,103.105401 Z M142.564411,145.29953 C138.488267,161.653671 110.911728,152.813119 101.971003,150.596235 L109.213825,121.604857 C118.153963,123.833474 146.824445,128.243777 142.564999,145.29953 L142.564411,145.29953 Z M146.643492,102.868401 C142.925142,117.744228 119.972893,110.186642 112.52738,108.33347 L119.093978,82.0400145 C126.539491,83.8931866 150.516945,87.3519718 146.644667,102.868401 L146.643492,102.868401 Z" id="Shape" fill="#FFFFFF"></path>
        </g>
    </g>
</svg>