<?xml version="1.0" encoding="UTF-8"?>
<svg width="240px" height="240px" viewBox="0 0 240 240" version="1.1" xmlns="http://www.w3.org/2000/svg" xmlns:xlink="http://www.w3.org/1999/xlink">
    <title>bizone</title>
    <g id="Page-1" stroke="none" stroke-width="1" fill="none" fill-rule="evenodd">
        <g id="bizone">
            <rect id="box" fill="#FFFFFF" x="0" y="0" width="240" height="240" rx="32"></rect>
            <g id="shape" transform="translate(32, 60)" fill="#141A20">
                <path d="M111.533794,6.53952577 C111.578835,6.24883846 111.606986,5.95077344 111.606986,5.64710492 C111.606986,2.52706204 109.029412,0 105.84393,0 C102.658597,0 100.081023,2.52706204 100.081023,5.64710492 L100.097914,6.0548005 L61.349713,31.8171099 L64.5858662,36.4901957 L103.328289,10.7293944 C104.088063,11.091227 104.94355,11.2941951 105.84393,11.2941951 L106.226633,11.282027 C106.507992,11.2639746 106.78387,11.225992 107.053969,11.1695577 C107.346589,11.1086141 107.627948,11.0261287 107.903826,10.9238759 L149.178336,43.7655843 L136.099637,43.7655843 L136.099637,49.412704 L153.315018,49.412704 L141.226633,84.7064998 L128.895855,84.7064998 L128.895855,90.3536195 L145.374278,90.3536195 L155.533002,60.7069434 L169.2365,60.7069434 L169.2365,55.0598237 L157.463552,55.0598237 L159.398547,49.412704 L175,49.412704 L175,43.7655843 L158.318447,43.7655843 L111.533794,6.53952577 Z" id="Path" fill-rule="nonzero"></path>
                <path d="M121.517686,75.8185145 L125.198325,79.4247168 L129.272927,75.432331 L115.084939,61.5332754 L111.010337,65.525809 L115.40571,69.8306012 L106.260414,78.7950249 L105.551311,78.015709 C105.618872,77.8187732 105.669544,77.6169584 105.720215,77.4110037 L105.753848,77.2355061 C105.798889,76.9982073 105.82704,76.7557338 105.8383,76.5092683 L105.84393,76.2358942 C105.84393,73.1158218 103.266357,70.5887745 100.081023,70.5887745 C96.8955416,70.5887745 94.3179682,73.1158218 94.3179682,76.2358942 C94.3179682,79.3544882 96.8955416,81.8830139 100.081023,81.8830139 C100.480616,81.8830139 100.863318,81.843538 101.240391,81.7682825 L107.644839,88.8276627 L92.9729541,103.206047 L92.8885018,103.205308 C90.0971307,103.205308 87.8290677,105.427489 87.8290677,108.166257 C87.8290677,110.905173 90.0971307,113.125876 92.8885018,113.125876 C95.6856512,113.125876 97.9537142,110.905173 97.9537142,108.166257 C97.9537142,107.773864 97.9143031,107.392116 97.8242207,107.025892 L122.586971,82.7584321 L120.549596,80.7621653 L113.925572,87.2506977 L112.012209,85.1371861 L121.517686,75.8185145 Z M119.480311,73.8223955 L117.443085,71.8265723 L108.173925,80.90898 L110.093067,83.0235266 L119.480311,73.8223955 Z" id="Shape"></path>
                <path d="M17.9587094,60.7048735 L17.9587094,70.5080486 L21.4310327,64.3212774 L26.4848367,67.0431906 L12.8541303,91.3186346 L7.80589727,88.5968693 L12.195669,80.7757674 L12.195669,57.8827182 L45.3046633,33.5216692 L45.293403,33.1767358 C45.293403,30.4463952 47.5502057,28.2354507 50.3359466,28.2354507 C53.1218357,28.2354507 55.3784903,30.4463952 55.3784903,33.1767358 C55.3784903,35.9057458 53.1218357,38.1178732 50.3359466,38.1178732 C49.8462714,38.1178732 49.3736348,38.0494188 48.9233706,37.9218245 L17.9587094,60.7048735 Z" id="Path" fill-rule="nonzero"></path>
                <path d="M7.60893078,114.35288 L22.0950946,88.5421649 L35.2926198,86.3115563 L56.7236526,65.3168974 L56.4141423,64.9344102 L56.1382647,64.9416548 C53.3525238,64.9416548 51.0957211,62.7293796 51.0957211,60.0003696 C51.0957211,57.270029 53.3525238,55.0592323 56.1382647,55.0592323 C58.9241538,55.0592323 61.1809565,57.270029 61.1809565,60.0003696 C61.1809565,60.5089726 61.1021344,60.9996858 60.9557504,61.4614205 L79.8598811,84.7064998 L95.758695,84.7051692 L95.758695,90.352141 L88.2962223,90.3527324 L79.6742342,98.8021956 L77.6368593,96.8059288 L84.2216206,90.3530281 L80.1526491,90.3533238 L71.5306611,98.8021956 L69.4932861,96.8059288 L76.6351364,89.8073149 L74.8285978,87.585873 L63.3814577,98.8021956 L61.3440828,96.8059288 L73.0220592,85.3604391 L71.2042603,83.1246558 L45.9799854,107.791162 L45.8673824,107.805208 L49.5198706,114.35288 L62.1151176,114.35288 L62.1151176,120 L0,120 L0,114.35288 L7.60893078,114.35288 Z M46.2388244,114.35288 L41.3312562,105.563363 L44.629193,105.12144 L69.3920915,80.9012918 L67.5911831,78.6850247 L43.4756041,102.320427 L36.7671275,103.394703 L42.8845861,114.35288 L46.2388244,114.35288 Z M39.6035398,114.35288 L32.2873029,101.250291 L42.0910307,99.6804229 L65.7844963,76.4628435 L63.9666974,74.227208 L40.8079483,96.9233214 L29.5014139,98.8333919 L20.7669709,114.35288 L39.6035398,114.35288 Z M17.4802945,114.35288 L27.6442039,96.2823929 L39.4122627,94.2932229 L62.1601588,72.004879 L60.3367298,69.7611118 L38.0783607,91.5704227 L25.8095145,93.6443106 L14.1823133,114.35288 L17.4802945,114.35288 Z" id="Shape"></path>
                <polygon id="Path" fill-rule="nonzero" points="107.284657 120 130.387253 120 130.387253 114.35288 114.792319 114.35288 122.56445 106.738029 120.527224 104.741762 110.717718 114.35288 107.284657 114.35288"></polygon>
                <path d="M87.1030741,40.2160084 C87.0692932,42.9618733 84.7843397,45.177549 81.9760782,45.177549 C79.1451479,45.177549 76.8490822,42.9271286 76.8490822,40.151546 C76.8490822,37.3774418 79.1451479,35.1270214 81.9760782,35.1270214 C82.3475202,35.1270214 82.713332,35.1659059 83.0622534,35.2396829 C83.3605034,35.3028147 83.6531233,35.3916724 83.9288526,35.5037424 L102.647336,23.4547303 L117.94965,35.5169011 L114.336425,39.917352 L102.304045,30.4316103 L87.1030741,40.151546 L87.1030741,40.2160084 Z" id="Path" fill-rule="nonzero"></path>
                <polygon id="Path" fill-rule="nonzero" points="103.733512 105.227005 105.770738 107.223124 122.339392 90.987747 120.302018 88.9914802"></polygon>
                <polygon id="Path" fill-rule="nonzero" points="109.84534 111.215953 107.808113 109.219686 120.774802 96.5137777 122.812029 98.5100445"></polygon>
                <polygon id="Path" fill-rule="nonzero" points="0.675348816 66.352141 6.43831807 66.352141 6.43831807 55.0692861 21.8925572 43.6987562 18.431346 39.1840174 0.675348816 52.2471308"></polygon>
            </g>
        </g>
    </g>
</svg>