<?xml version="1.0" encoding="UTF-8"?>
<svg width="240px" height="240px" viewBox="0 0 240 240" version="1.1" xmlns="http://www.w3.org/2000/svg" xmlns:xlink="http://www.w3.org/1999/xlink">
    <title>blacklistchecker</title>
    <g id="Page-1" stroke="none" stroke-width="1" fill="none" fill-rule="evenodd">
        <g id="blacklistchecker">
            <rect id="box" fill="#FFFFFF" x="0" y="0" width="240" height="240" rx="32"></rect>
            <path d="M45,82 L83.453125,82 C102.460109,82.0797936 111.963542,89.1818214 111.963542,103.306063 C111.963542,107.934386 110.605943,111.844407 107.890625,115.036366 C105.175307,118.228325 101.182292,120.223194 95.9114583,121.021214 L95.9114583,121.140911 C101.821141,121.938931 106.293443,124.013638 109.328125,127.365153 C112.442708,130.63683 114,134.746506 114,139.69394 C114,146.556526 111.564276,151.823193 106.692708,155.49394 C101.821141,159.164686 94.673651,161 85.25,161 L45,161 L45,82 Z M78.8571429,114 C86.2857143,114 90,111.166667 90,105.5 C90,99.8333333 86.2857143,97 78.8571429,97 L64,97 L64,114 L78.8571429,114 Z M81.8717949,146 C85.5413504,146 88.2934872,145.262596 90.1282051,143.787671 C92.042735,142.312747 93,140.178082 93,137.383562 C93,134.666705 92.042735,132.609589 90.1282051,131.212329 C88.2934872,129.737404 85.5413504,129 81.8717949,129 L65,129 L65,146 L81.8717949,146 Z M195,137.295588 C192.777013,145.237162 188.648762,151.193044 182.615008,155.163235 C176.581254,159.054809 169.237669,161 160.584013,161 C152.644876,161 145.777636,159.412162 139.982055,156.235294 C134.186475,152.979809 129.74062,148.334221 126.644372,142.298529 C123.548124,136.184221 122,128.918044 122,120.5 C122,112.161765 123.548124,104.934897 126.644372,98.8205882 C129.74062,92.7059221 134.186475,88.0603338 139.982055,84.8838235 C145.777636,81.6279809 152.60522,80 160.464927,80 C169.039152,80 176.303426,81.8264309 182.257749,85.4794118 C188.212072,89.0529412 192.141925,94.4529015 194.047308,101.679412 L176.065253,108.945588 C174.953819,104.180882 173.246834,100.845588 170.944535,98.9397059 C168.642237,97.0338235 165.387127,96.0808824 161.179445,96.0808824 C155.383865,96.0808824 150.898354,98.1853338 147.722675,102.394118 C144.546997,106.523926 142.959217,112.558426 142.959217,120.5 C142.959217,128.441574 144.467685,134.516574 147.484502,138.725 C150.58075,142.854809 155.026605,144.919118 160.822186,144.919118 C165.188729,144.919118 168.642237,143.886368 171.182708,141.822059 C173.723179,139.75775 175.469821,136.501074 176.422512,132.054412 L195,137.295588 Z" id="Shape" fill="#1B2023" fill-rule="nonzero"></path>
        </g>
    </g>
</svg>