<?xml version="1.0" encoding="UTF-8"?>
<svg width="240px" height="240px" viewBox="0 0 240 240" version="1.1" xmlns="http://www.w3.org/2000/svg" xmlns:xlink="http://www.w3.org/1999/xlink">
    <title>blender</title>
    <g id="Page-1" stroke="none" stroke-width="1" fill="none" fill-rule="evenodd">
        <g id="blender" transform="translate(-1.0008, -0)">
            <rect id="ViewBox" x="1" y="0" width="240" height="240"></rect>
            <g id="shape" transform="translate(0, 22)" fill-rule="nonzero">
                <path d="M95.1539606,108.995327 C96.0267731,93.4272016 103.649586,79.7125141 115.150836,69.9897016 C126.428961,60.4403266 141.608961,54.6034516 158.172711,54.6034516 C174.719586,54.6034516 189.900523,60.4403266 201.187086,69.9897016 C212.678961,79.7115766 220.302711,93.4272016 221.183961,108.978452 C222.055836,124.974077 215.626461,139.833452 204.348336,150.848139 C192.848023,162.052202 176.489586,169.082514 158.172711,169.082514 C139.855836,169.082514 123.465523,162.052202 111.972711,150.848139 C100.686148,139.832514 94.2727106,124.973139 95.1539606,108.995327" id="Path" fill="#FFFFFF"></path>
                <path d="M125.845836,110.383764 C126.293023,102.396264 130.205211,95.3584516 136.105836,90.3700141 C141.893023,85.4706391 149.681773,82.4753266 158.181148,82.4753266 C166.671148,82.4753266 174.460836,85.4706391 180.251773,90.3700141 C186.148648,95.3584516 190.059898,102.396264 190.511773,110.376264 C190.959898,118.583139 187.661773,126.207827 181.873648,131.859077 C175.973023,137.607827 167.579586,141.215327 158.181148,141.215327 C148.782711,141.215327 140.372398,137.607827 134.475523,131.859077 C128.684586,126.207827 125.393961,118.583139 125.845836,110.383764" id="Path" fill="#265787"></path>
                <path d="M74.5102106,126.793764 C74.5664606,129.925014 75.5648981,136.013139 77.0639606,140.766264 C80.2130231,150.828452 85.5548981,160.137827 92.9883356,168.340952 C100.616773,176.773764 110.009586,183.547202 120.860211,188.355639 C132.263961,193.405952 144.620211,195.979389 157.454586,195.958887 C170.268336,195.940952 182.625523,193.316889 194.029273,188.228139 C204.878961,183.372827 214.263336,176.570327 221.879586,168.133764 C229.308336,159.895952 234.641773,150.570639 237.800211,140.508452 C239.387398,135.424389 240.390523,130.264389 240.792711,125.086577 C241.186123,119.978788 241.020138,114.8433 240.297711,109.771577 C238.883961,99.8237641 235.441461,90.4900141 230.141773,81.9812641 C225.294898,74.1625141 219.047398,67.3178266 211.617711,61.5559516 L211.634586,61.5437641 L136.662711,3.97657663 C136.594273,3.92595163 136.538961,3.87157663 136.466773,3.82470163 C131.548648,0.0484516253 123.276148,0.0615766253 117.866773,3.84532663 C112.397398,7.67220163 111.771148,14.0012641 116.638648,17.9922016 L116.618023,18.0137641 L147.888336,43.4425141 L52.5792731,43.5437641 L52.4517731,43.5437641 C44.5739606,43.5531391 37.0017731,48.7215766 35.5017731,55.2531391 C33.9614606,61.9075141 39.3127106,67.4275141 47.5036481,67.4575141 L47.4905231,67.4865766 L95.7998981,67.3928266 L9.59489814,133.562514 C9.48521064,133.643139 9.36614814,133.727514 9.26489814,133.808139 C1.13302314,140.035014 -1.49572686,150.389702 3.62583564,156.941889 C8.82427314,163.605639 19.8773981,163.617827 28.0936481,156.980327 L75.1411481,118.476264 C75.1411481,118.476264 74.4548981,123.673764 74.5102106,126.793764 M195.405523,144.199389 C185.711773,154.075952 172.139586,159.675639 157.455523,159.705725 C142.748961,159.730952 129.177711,154.180952 119.483961,144.322202 C114.746773,139.517514 111.267711,133.989077 109.120836,128.100639 C107.009783,122.305952 106.197825,116.118171 106.742398,109.975014 C107.254273,103.916889 109.058023,98.1390766 111.936148,92.9106391 C114.763648,87.7722016 118.658023,83.1278266 123.467398,79.1997016 C132.889273,71.5215766 144.886461,67.3637641 157.433023,67.3468375 C169.993648,67.3300141 181.981461,71.4493891 191.413648,79.1031391 C196.213648,83.0134516 200.104273,87.6409516 202.931773,92.7718891 C205.847313,98.0281134 207.624243,103.838993 208.147086,109.826889 C208.683658,115.966325 207.868612,122.14877 205.759273,127.939389 C203.608648,133.845639 200.141773,139.374077 195.405523,144.199389" id="Shape" fill="#EA7600"></path>
            </g>
        </g>
    </g>
</svg>