<?xml version="1.0" encoding="UTF-8"?>
<svg width="240px" height="240px" viewBox="0 0 240 240" version="1.1" xmlns="http://www.w3.org/2000/svg" xmlns:xlink="http://www.w3.org/1999/xlink">
    <title>bluetooth</title>
    <g id="Page-1" stroke="none" stroke-width="1" fill="none" fill-rule="evenodd">
        <g id="bluetooth" fill-rule="nonzero">
            <rect id="box" x="0" y="0" width="240" height="240"></rect>
            <g id="shape" transform="translate(41, 0)">
                <rect id="Rectangle" fill="#0A3D91" x="0" y="0" width="157" height="240" rx="78.5"></rect>
                <path d="M70.7726562,26.5177903 L82.1907758,39.7541304 L118.251713,81.5574091 L122.246004,86.1877502 L117.885234,90.4730012 L87.0000781,120.823033 L117.946119,152.046641 L122.097937,156.23572 L118.34683,160.788785 L82.2858923,204.559277 L70.7726562,218.533955 L70.7726562,136.769508 L43.0649214,163.997591 L33.9632036,154.690933 L68.5520875,120.70082 L33.9023186,85.7402443 L43.1258064,76.5548376 L70.7726562,104.449918 L70.7726562,26.5177903 Z M83.7742187,136.05959 L83.7742187,182.285656 L104.570831,157.042869 L83.7742187,136.05959 Z M83.7742187,61.5152459 L83.7742187,105.742377 L104.422417,85.4515574 L83.7742187,61.5152459 Z" id="Path" fill="#FFFFFF"></path>
            </g>
        </g>
    </g>
</svg>