<?xml version="1.0" encoding="UTF-8"?>
<svg width="240px" height="240px" viewBox="0 0 240 240" version="1.1" xmlns="http://www.w3.org/2000/svg" xmlns:xlink="http://www.w3.org/1999/xlink">
    <title>bnb</title>
    <g id="Page-1" stroke="none" stroke-width="1" fill="none" fill-rule="evenodd">
        <g id="bnb">
            <path d="M120,0 C186.278846,0 240,53.7211538 240,120 C240,186.278846 186.278846,240 120,240 C53.7211538,240 0,186.278846 0,120 C0,53.7211538 53.7211538,0 120,0 L120,0 Z" id="Path" fill="#F0B90B"></path>
            <path d="M65.7955236,119.531947 L65.8825779,151.40416 L93.0048364,167.340267 L93.0048364,186 L50.0096727,160.820951 L50.0096727,110.211738 L65.7955236,119.531947 L65.7955236,119.531947 Z M65.7955236,87.6597325 L65.7955236,106.232541 L50,96.9026746 L50,78.3298663 L65.7955236,69 L81.6684287,78.3298663 L65.7955236,87.6597325 L65.7955236,87.6597325 Z M104.331571,78.3298663 L120.127095,69 L136,78.3298663 L120.127095,87.6597325 L104.331571,78.3298663 L104.331571,78.3298663 Z" id="Shape" fill="#FFFFFF" fill-rule="nonzero"></path>
            <path d="M77,145.269636 L77,126.739955 L92.7784523,136.004795 L92.7784523,154.448158 L77,145.269636 L77,145.269636 Z M104.092946,174.291797 L119.871398,183.556637 L135.727148,174.291797 L135.727148,192.735159 L119.871398,202 L104.092946,192.735159 L104.092946,174.291797 L104.092946,174.291797 Z M158.356135,79.2648405 L174.134587,70 L189.990338,79.2648405 L189.990338,97.7082032 L174.134587,106.973044 L174.134587,88.529681 L158.356135,79.2648405 L158.356135,79.2648405 L158.356135,79.2648405 Z M174.134587,151.829834 L174.221548,120.179757 L190,110.914917 L190,161.171402 L147.051304,186.174962 L147.051304,167.645281 L174.134587,151.829834 L174.134587,151.829834 L174.134587,151.829834 Z" id="Shape" fill="#FFFFFF" fill-rule="nonzero"></path>
            <polygon id="Path" fill="#FFFFFF" fill-rule="nonzero" points="162 144.724818 146 154 146 135.362409 162 126"></polygon>
            <path d="M162.912946,94.7344863 L163,113.265514 L135.80036,129.091702 L135.80036,160.820811 L120.004836,170 L104.209313,160.820811 L104.209313,129.091702 L77.0096727,113.265514 L77.0096727,94.7344863 L92.8729052,85.4689725 L119.908109,101.371894 L147.107749,85.4689725 L162.980655,94.7344863 L162.912946,94.7344863 L162.912946,94.7344863 Z M77,63.0917018 L119.917782,38 L162.912946,63.0917018 L147.117422,72.3572155 L119.917782,56.4542944 L92.7955236,72.3572155 L77,63.0917018 L77,63.0917018 Z" id="Shape" fill="#FFFFFF" fill-rule="nonzero"></path>
        </g>
    </g>
</svg>