<?xml version="1.0" encoding="UTF-8"?>
<svg width="240px" height="240px" viewBox="0 0 240 240" version="1.1" xmlns="http://www.w3.org/2000/svg" xmlns:xlink="http://www.w3.org/1999/xlink">
    <title>bootstrap</title>
    <defs>
        <linearGradient x1="14.8591797%" y1="19.4407261%" x2="102.242188%" y2="75.6152711%" id="linearGradient-1">
            <stop stop-color="#9013FE" offset="0%"></stop>
            <stop stop-color="#6610F2" offset="100%"></stop>
        </linearGradient>
        <linearGradient x1="27.0878294%" y1="6.58202765%" x2="61.341855%" y2="84.5230415%" id="linearGradient-2">
            <stop stop-color="#FFFFFF" offset="0%"></stop>
            <stop stop-color="#F1E5FC" offset="100%"></stop>
        </linearGradient>
    </defs>
    <g id="Page-1" stroke="none" stroke-width="1" fill="none" fill-rule="evenodd">
        <g id="bootstrap" transform="translate(0.3037, 0)">
            <rect id="box" x="0" y="0" width="239.004149" height="240"></rect>
            <g id="shape" transform="translate(0, 24)" fill-rule="nonzero">
                <path d="M26.365612,25.0917647 C25.9146784,12.0376471 36.0037344,0 49.6409751,0 L189.380446,0 C203.017687,0 213.106743,12.0376471 212.655809,25.0917647 C212.222614,37.6315294 212.785114,53.8752941 216.840249,67.12 C220.908454,80.4056471 227.76862,88.8032941 239.004149,89.8823529 L239.004149,102.117647 C227.76862,103.196706 220.908454,111.594353 216.840249,124.88 C212.785114,138.124706 212.222614,154.368471 212.655809,166.908706 C213.106743,179.962353 203.017687,192 189.380446,192 L49.6409751,192 C36.0037344,192 25.9146784,179.962353 26.3660788,166.908706 C26.7988071,154.368471 26.2363071,138.124706 22.1807054,124.88 C18.1129668,111.594353 11.2359959,103.196706 0,102.117647 L0,89.8823529 C11.235529,88.8032941 18.1129668,80.4056471 22.1807054,67.12 C26.2363071,53.8752941 26.7988071,37.6315294 26.365612,25.0917647 Z" id="Path" fill="url(#linearGradient-1)"></path>
                <path d="M124.110473,147 C146.090822,147 159.3361,136.114673 159.3361,118.160323 C159.3361,104.588682 149.885344,94.7633088 135.852349,93.2079263 L135.852349,92.6424608 C146.16239,90.9460645 154.25288,81.2621751 154.25288,70.4473548 C154.25288,55.0378341 142.22473,45 123.895768,45 L82.6556017,45 L82.6556017,147 L124.110473,147 Z M98.693444,57.9356682 L120.029676,57.9356682 C131.628415,57.9356682 138.215037,63.166341 138.215037,72.6382396 C138.215037,82.7465806 130.554423,88.401235 116.664564,88.401235 L98.693444,88.401235 L98.693444,57.9356682 L98.693444,57.9356682 Z M98.693444,134.064802 L98.693444,100.48894 L119.886075,100.48894 C135.064631,100.48894 142.940415,106.143594 142.940415,117.170876 C142.940415,128.197687 135.279801,134.064802 120.816929,134.064802 L98.693444,134.064802 L98.693444,134.064802 Z" id="Shape" stroke="#FFFFFF" fill="url(#linearGradient-2)"></path>
            </g>
        </g>
    </g>
</svg>