<?xml version="1.0" encoding="UTF-8"?>
<svg width="240px" height="240px" viewBox="0 0 240 240" version="1.1" xmlns="http://www.w3.org/2000/svg" xmlns:xlink="http://www.w3.org/1999/xlink">
    <title>bscscan</title>
    <g id="Page-1" stroke="none" stroke-width="1" fill="none" fill-rule="evenodd">
        <g id="bscscan" fill-rule="nonzero">
            <path d="M50.0704477,114.367229 C50.0706462,113.021825 50.3364546,111.68953 50.852786,110.447207 C51.3691174,109.204685 52.1254506,108.076564 53.0787083,107.127394 C54.0319661,106.178223 55.1632896,105.426871 56.4075669,104.916436 C57.6518441,104.406001 58.984658,104.146414 60.3295812,104.152571 L77.3381447,104.208182 C80.0500259,104.208182 82.6509386,105.286054 84.5685708,107.204654 C86.4862029,109.123254 87.563531,111.725479 87.563531,114.438729 L87.563531,178.789486 C89.4791781,178.221454 91.9308092,177.615486 94.6285961,176.979925 C96.4975927,176.539998 98.1633123,175.481391 99.3555792,173.975509 C100.547846,172.469626 101.196983,170.605049 101.19738,168.683867 L101.19738,88.8673269 C101.19738,86.1538783 102.274509,83.5514543 104.192141,81.6326557 C106.109773,79.7136585 108.710686,78.6353894 111.422766,78.6347936 L128.482943,78.6347936 C131.195022,78.6353894 133.795935,79.7136585 135.713369,81.6326557 C137.631001,83.5514543 138.708329,86.1538783 138.708329,88.8673269 L138.708329,162.949914 C138.708329,162.949914 142.976351,161.221983 147.131221,159.466245 C148.675053,158.813008 149.992582,157.719247 150.919239,156.321608 C151.845896,154.92397 152.340788,153.284421 152.342178,151.607135 L152.342178,63.289966 C152.342178,60.5771133 153.419109,57.9752851 155.336344,56.0566851 C157.253579,54.1380851 159.853896,53.0600147 162.565579,53.0594188 L179.607889,53.0594188 C182.317984,53.0621994 184.916316,54.1410643 186.831765,56.0594657 C188.747412,57.9778671 189.82335,60.5785035 189.82335,63.289966 L189.82335,136.016028 C204.599043,125.302851 219.572852,112.416851 231.455819,96.9230634 C233.178909,94.6741703 234.320357,92.0332154 234.776936,89.2357537 C235.23153,86.4382919 234.989344,83.5715142 234.068246,80.8910354 C228.56746,65.0580174 219.822978,50.5479595 208.39659,38.289774 C196.96921,26.0315884 183.110049,16.2949517 167.706064,9.70309101 C152.302078,3.11125019 135.692128,-0.190722551 118.939447,0.00850751273 C102.186767,0.2077371 85.6599933,3.90377498 70.4170013,10.8600902 C55.1738108,17.8164055 41.5500864,27.8798795 30.4172988,40.406391 C19.2846501,52.9329025 10.8881806,67.6467371 5.76526397,83.6062715 C0.642343414,99.5656072 -1.09419955,116.419495 0.666744588,133.08907 C2.42769071,149.758447 7.64734251,165.876673 15.9917025,180.411955 C17.44549,182.919442 19.5843248,184.959791 22.1569891,186.293278 C24.7295145,187.626566 27.6289902,188.197776 30.514967,187.939381 C33.7388124,187.655365 37.7527381,187.254167 42.524982,186.694079 C44.6018213,186.457729 46.5194535,185.465261 47.9122182,183.905753 C49.3051815,182.346245 50.0762046,180.328736 50.0783882,178.237144 L50.0783882,114.367229" id="Path" fill="#FFFFFF"></path>
            <path d="M49,217.081077 C66.9408025,230.080721 88.1425599,237.884851 110.259478,239.626562 C132.376198,241.370248 154.54625,236.984375 174.316185,226.956699 C194.086318,216.929023 210.685505,201.648567 222.277676,182.807279 C233.869847,163.965794 240.003963,142.297088 240,120.199076 C240,117.434455 239.87113,114.713278 239.68675,112 C195.746732,177.27468 114.615613,207.789975 49,217.081077 Z" id="Path" fill="#F0B90B"></path>
        </g>
    </g>
</svg>