<?xml version="1.0" encoding="UTF-8"?>
<svg width="240px" height="240px" viewBox="0 0 240 240" version="1.1" xmlns="http://www.w3.org/2000/svg" xmlns:xlink="http://www.w3.org/1999/xlink">
    <title>bugcrowd</title>
    <g id="Page-1" stroke="none" stroke-width="1" fill="none" fill-rule="evenodd">
        <g id="bugcrowd">
            <rect id="box" x="0" y="0" width="240" height="240"></rect>
            <g id="shape" transform="translate(0, 14)" fill-rule="nonzero">
                <path d="M178.542379,2.5 L237.127285,106 L178.542379,209.5 L61.4576208,209.5 L2.87271509,106 L61.4576208,2.5 L178.542379,2.5 Z" id="Path" stroke="#FFFFFF" stroke-width="5" fill="#FF6900"></path>
                <path d="M170.251829,118.610654 C170.228046,125.142993 169.284649,131.033975 167.445424,136.275683 C165.745573,141.255462 163.078479,145.851237 159.597003,149.799605 C156.30156,153.514343 152.235539,156.467582 147.681673,158.453965 C142.937944,160.502427 137.818735,161.540655 132.650758,161.50341 C129.583694,161.524953 126.528485,161.119867 123.573544,160.298856 C121.169314,159.640311 118.857459,158.682651 116.692302,157.44838 C114.995216,156.458579 113.399398,155.304951 111.927756,154.004056 C110.544018,152.793542 109.304421,151.427935 108.233449,149.934211 L107.916341,149.934211 L108.074895,151.462382 C108.162099,152.776768 108.217593,154.083236 108.233449,155.397622 L108.233449,159.578319 L88.9374322,159.578319 L88.9374322,66.383611 C88.9374322,65.1879949 88.6203242,64.3011804 88.0336746,63.7152493 C87.4232419,63.1293183 86.527412,62.8521888 85.4175343,62.8521888 L78.9881714,62.8521888 L78.9881714,45.5034102 L98.4268864,45.5034102 C102.176687,45.4801251 104.959309,46.3590217 106.735114,48.1247328 C108.495063,49.8904439 109.375037,52.6854934 109.351254,56.4307012 L109.351254,80.2084164 C109.327471,82.2512571 109.271977,83.9061164 109.1927,85.1650763 L109.034146,87.1208191 L109.351254,87.1208191 C110.411167,85.6421354 111.643321,84.2945401 113.021778,83.1063997 C114.258499,81.9741275 115.828183,80.8576914 117.778397,79.7333372 C119.720683,78.608983 122.043498,77.6667426 124.72306,76.8828618 C127.735585,76.0910631 130.827387,75.6951638 133.935045,75.7109998 C139.500289,75.7347537 144.510594,76.779928 148.950105,78.8386047 C153.380656,80.876148 157.297769,83.8793773 160.413556,87.6275703 C163.584635,91.4282041 166.018438,95.9572927 167.707038,101.206918 C169.38771,106.416954 170.220118,112.228756 170.243901,118.610654" id="Path" fill="#FFFFFF"></path>
                <path d="M148.022564,129.743344 C149.116586,126.584067 149.65567,122.997219 149.679453,118.927373 C149.65567,113.70942 148.791551,109.180331 147.079168,105.324271 C145.366785,101.491966 142.980548,98.5227205 139.928384,96.416536 C136.786563,94.2898256 133.0687,93.1736228 129.273559,93.2176692 C126.641708,93.2084211 124.032992,93.708552 121.591619,94.6904148 C119.086274,95.7511636 116.841274,97.3423507 115.01163,99.3541092 C112.940169,101.686146 111.377017,104.42303 110.421493,107.390866 C109.303688,110.660995 108.740821,114.564562 108.70911,119.085733 C108.70911,122.229174 109.129278,125.356779 109.969614,128.38145 C110.770312,131.279433 112.070454,134.019057 113.798692,136.457797 C115.471437,138.833193 117.651554,140.796853 120.180489,142.174583 C122.717353,143.568149 125.714022,144.288686 129.115005,144.312761 C131.834205,144.328276 134.529622,143.758181 137.018919,142.625909 C139.525202,141.468215 141.753008,139.785905 143.551342,137.693003 C145.45399,135.531392 146.944397,132.886784 148.022564,129.743344 L148.022564,129.743344 Z" id="Path" fill="#FF6900"></path>
            </g>
        </g>
    </g>
</svg>