<?xml version="1.0" encoding="UTF-8"?>
<svg width="240px" height="240px" viewBox="0 0 240 240" version="1.1" xmlns="http://www.w3.org/2000/svg" xmlns:xlink="http://www.w3.org/1999/xlink">
    <title>bugrap</title>
    <g id="Page-1" stroke="none" stroke-width="1" fill="none" fill-rule="evenodd">
        <g id="bugrap">
            <rect id="box" fill="#01FAFE" x="0" y="0" width="240" height="240" rx="32"></rect>
            <g id="Group" transform="translate(31, 87)" fill="#000000">
                <g id="BUG" transform="translate(5.2429, 0)">
                    <path d="M85.4267505,57.111499 C95.8430434,58.0733069 101.608625,58.4536925 102.745234,58.303294 C102.935097,58.4700408 102.954657,58.6186254 102.943547,58.7999795 C102.916273,59.2451999 102.760562,59.8339949 102.439135,60.4188934 C102.016199,61.1885067 101.304754,61.9510383 100.211,62.372117 C100.046286,62.4355294 99.8830005,62.4990402 99.7220229,62.5616582 C96.5132354,63.7892912 94.0590055,64.5014235 89.9301463,62.801305 C88.3770517,62.1617955 87.2206445,61.3456389 86.4682686,60.3440915 C85.7755525,59.4219619 85.4298297,58.3439051 85.4267505,57.111499 Z" id="Rectangle" stroke="#01FAFE" stroke-width="0.5" transform="translate(94.1873, 60.459) rotate(-18) translate(-94.1873, -60.459)"></path>
                    <path d="M63.4267505,57.111499 C73.8430434,58.0733069 79.6086248,58.4536925 80.7452341,58.303294 C80.9350974,58.4700408 80.954657,58.6186254 80.9435473,58.7999795 C80.9162732,59.2451999 80.7605622,59.8339949 80.4391348,60.4188934 C80.0161986,61.1885067 79.3047539,61.9510383 78.2109998,62.372117 C78.0462857,62.4355294 77.8830005,62.4990402 77.7220229,62.5616582 C74.5132354,63.7892912 72.0590055,64.5014235 67.9301463,62.801305 C66.3770517,62.1617955 65.2206445,61.3456389 64.4682686,60.3440915 C63.7755525,59.4219619 63.4298297,58.3439051 63.4267505,57.111499 Z" id="Rectangle-Copy-2" stroke="#01FAFE" stroke-width="0.5" transform="translate(72.1873, 60.459) scale(-1, 1) rotate(-18) translate(-72.1873, -60.459)"></path>
                    <path d="M0.0875541047,27.2805148 L5.68882331,4.60681115 L5.68882331,4.60681115 L2.41082501,1.75437754 C1.9941938,1.39183529 1.95034603,0.760190405 2.31288828,0.343559195 C2.50280871,0.125303861 2.77794737,3.33066907e-16 3.06726581,2.22044605e-16 L50.620831,-4.4408921e-16 C51.7254005,-4.4408921e-16 52.620831,0.8954305 52.620831,2 C52.620831,2.16004422 52.6016206,2.3195099 52.5636121,2.47497535 L50.7166871,10.0294118 L50.7166871,10.0294118 L49.2677707,15.5479876 L46.0881461,28.7047298 C45.7627038,30.0513543 44.5574863,31 43.1720946,31 L3,31 C1.34314575,31 -6.43929354e-14,29.6568542 -6.43929354e-14,28 C-6.43929354e-14,27.7575145 0.0293992062,27.5159234 0.0875541047,27.2805148 Z M17.1686995,19.3390093 L16.1656035,23.3219814 L32.2708667,23.3219814 L33.2739626,19.3390093 L17.1686995,19.3390093 Z M20.332765,11.6609907 L33.5634098,11.6609907 C33.9997436,11.6609907 34.3857035,11.3780822 34.5170365,10.9619827 L35.1277732,9.02699814 C35.2940064,8.50032467 35.0018119,7.93861278 34.4751384,7.77237951 C34.3777638,7.74164528 34.2762563,7.72600619 34.1741465,7.72600619 L20.7986228,7.72600619 C20.3365019,7.72600619 19.9345697,8.04265561 19.8264024,8.49193896 L19.3605446,10.4269235 C19.2312728,10.963866 19.5617552,11.5039394 20.0986977,11.6332111 C20.1753522,11.6516661 20.2539202,11.6609907 20.332765,11.6609907 Z" id="Shape" fill-rule="nonzero"></path>
                    <path d="M64.165558,3.79159448 L61.678908,1.7770018 C61.2497818,1.42933945 61.1837422,0.799627872 61.5314046,0.370501627 C61.7212753,0.136140575 62.0067841,-1.11022302e-16 62.3084064,-1.11022302e-16 L79.9923562,8.8817842e-16 C81.0969257,2.66453526e-15 81.9923562,0.8954305 81.9923562,2 C81.9923562,2.17253106 81.9700314,2.34433693 81.9259377,2.51113837 L77.0884478,20.8108431 C76.8061538,21.8787306 77.4430033,22.973269 78.5108909,23.255563 C78.6776924,23.2996566 78.8494983,23.3219814 79.0220293,23.3219814 L92.2427306,23.3219814 C93.150443,23.3219814 93.9443288,22.7106878 94.1763121,21.8331198 L99.5542757,1.48886163 C99.786259,0.611293648 100.580145,-1.55431223e-15 101.487857,-1.77635684e-15 L113.570865,-6.66133815e-16 C114.675434,-6.66133815e-16 115.570865,0.8954305 115.570865,2 C115.570865,2.17264044 115.548511,2.3445543 115.504363,2.51145428 L108.362247,29.5114543 C108.130152,30.3888668 107.33634,31 106.428749,31 L60.7685804,31 C59.6640109,31 58.7685804,30.1045695 58.7685804,29 C58.7685804,28.8268501 58.7910657,28.6544332 58.8354722,28.4870744 L64.8396695,5.85852369 C65.0417541,5.09690942 64.777811,4.28761943 64.165558,3.79159448 Z" id="Path" fill-rule="nonzero"></path>
                    <path d="M163.961665,31 L121.723533,31 C120.618963,31 119.723533,30.1045695 119.723533,29 C119.723533,28.8381821 119.743171,28.6769622 119.782018,28.5198763 L125.401969,5.79402264 C125.582185,5.0652725 125.339129,4.29697491 124.772564,3.80447277 L122.41456,1.75471306 C121.997744,1.39238387 121.953573,0.760761488 122.315902,0.343944974 C122.505828,0.125457886 122.781118,-2.22044605e-16 123.070615,-3.33066907e-16 L170.618324,-2.44249065e-15 C171.722893,-6.43929354e-15 172.618324,0.8954305 172.618324,2 C172.618324,2.16068337 172.59896,2.32078124 172.56065,2.47683102 L171.645935,6.20283721 C171.426378,7.09718279 170.62451,7.72600619 169.703609,7.72600619 L141.598737,7.72600619 C140.678758,7.72600619 139.877443,8.3535967 139.657002,9.24677501 L136.79505,20.8427502 C136.530378,21.9151412 137.185164,22.999045 138.257555,23.2637171 C138.41436,23.3024175 138.575276,23.3219814 138.736786,23.3219814 L150.540222,23.3219814 C151.548559,23.3219814 152.399201,22.5713572 152.524677,21.570858 L153.152354,16.5659844 C153.248193,15.8017959 152.896715,15.0504722 152.248678,14.6342778 L150.464154,13.4881871 C150.003042,13.1920427 149.869309,12.5781648 150.165453,12.1170523 C150.347991,11.8328303 150.66258,11.6609907 151.000371,11.6609907 L167.766886,11.6609907 C168.871456,11.6609907 169.766886,12.5564212 169.766886,13.6609907 C169.766886,13.8233013 169.747128,13.9850084 169.708047,14.1425439 L165.902826,29.4815531 C165.681531,30.3736013 164.880752,31 163.961665,31 Z" id="Path" fill-rule="nonzero"></path>
                </g>
                <g id="RAP" transform="translate(0, 36)">
                    <path d="M55.7651361,2.50058863 L51.5639347,18.7513626 C51.3357238,19.634111 50.5393653,20.250774 49.6275951,20.250774 L44.0987725,20.250774 C43.5464878,20.250774 43.0987725,20.6984892 43.0987725,21.250774 C43.0987725,21.4185573 43.1409891,21.5836435 43.2215344,21.7308294 L46.6740728,28.0398891 C47.2043274,29.0088596 46.8486779,30.2242217 45.8797074,30.7544763 C45.5853356,30.9155668 45.255163,31 44.9195965,31 L33.4569196,31 C32.7379627,31 32.0743274,30.6141058 31.7187107,29.9892572 L26.7515405,21.2615168 C26.3959239,20.6366682 25.7322885,20.250774 25.0133316,20.250774 L19.7188027,20.250774 C18.8099249,20.250774 18.0153274,20.8636075 17.7844229,21.742665 L15.7446519,29.508109 C15.5137474,30.3871664 14.7191499,31 13.8102721,31 L2,31 C0.8954305,31 9.85878046e-14,30.1045695 9.85878046e-14,29 C9.85878046e-14,28.8297144 0.0217475395,28.6601259 0.064714839,28.4953503 L5.9717471,5.84242628 C6.16823214,5.08892429 5.90950659,4.28988565 5.30865545,3.79455795 L2.85474261,1.7716093 C2.42859456,1.42030277 2.36792353,0.790051296 2.71923006,0.363903244 C2.9091926,0.133471535 3.19220156,1.11022302e-16 3.49083937,1.11022302e-16 L53.8287965,0 C54.933366,3.77475828e-15 55.8287965,0.8954305 55.8287965,2 C55.8287965,2.1688814 55.8074062,2.33708277 55.7651361,2.50058863 Z M21.368813,6.69958882 L20.761096,10.6995888 C20.5951835,11.7916267 21.3459564,12.8113971 22.4379944,12.9773096 C22.5374185,12.992415 22.6378404,13 22.7384055,13 L35.4770698,13 C36.4656321,13 37.3058918,12.277758 37.4543794,11.3004112 L38.0620964,7.30041118 C38.228009,6.20837326 37.477236,5.18860295 36.3851981,5.02269043 C36.2857739,5.00758499 36.185352,5 36.0847869,5 L23.3461226,5 C22.3575603,5 21.5173006,5.72224201 21.368813,6.69958882 Z" id="Shape" fill-rule="nonzero"></path>
                    <path d="M169.714181,2.46104323 L165.671077,19.5276067 C165.457392,20.4296057 164.651907,21.0665635 163.724943,21.0665635 L136.781554,21.0665635 C135.855155,21.0665635 135.050007,21.7027602 134.835769,22.6040467 L133.205498,29.4625168 C132.99126,30.3638033 132.186112,31 131.259713,31 L120.828797,31 C119.724227,31 118.828797,30.1045695 118.828797,29 C118.828797,28.8441244 118.847019,28.6887833 118.883094,28.5371395 L124.306138,5.74056553 C124.472826,5.03986817 124.24988,4.30366354 123.722461,3.81316296 L121.484947,1.73227104 C121.080525,1.35615777 121.057576,0.723408814 121.43369,0.318986689 C121.622876,0.115560435 121.888159,4.4408921e-16 122.165961,4.4408921e-16 L167.768047,0 C168.872616,0 169.768047,0.8954305 169.768047,2 C169.768047,2.15525085 169.74997,2.30997372 169.714181,2.46104323 Z M142.013448,6.38854489 L141.025793,14.3885449 L152.482583,14.3885449 L153.470238,6.38854489" id="Shape" fill-rule="nonzero"></path>
                    <path d="M73.5415515,1.74241214 L99.2908531,1.74241214 C99.642116,1.74241214 99.9676228,1.92671097 100.148346,2.22791638 L116.502899,29.4855042 C116.787047,29.9590845 116.633482,30.5733448 116.159902,30.8574929 C116.004486,30.9507422 115.82665,31 115.645406,31 L105.273965,31 C104.900559,31 104.558259,30.791958 104.386305,30.4605006 L100.136925,22.2694095 C99.9649717,21.937952 99.6226721,21.7299101 99.249266,21.7299101 L78.4292901,21.7299101 C78.1539713,21.7299101 77.8908322,21.8434206 77.7019014,22.0436843 L69.5484417,30.6862257 C69.3595109,30.8864895 69.0963718,31 68.821053,31 L53.9596637,30.9999962 C53.407381,30.998477 52.960899,30.5495319 52.9624182,29.9972492 C52.9631809,29.720009 53.0790049,29.4555276 53.2822355,29.2669539 C63.271569,19.9783871 70.0692111,12.7941482 73.6765631,7.7157471 C73.3861786,6.11884997 73.0208349,4.55351078 72.580532,3.01972952 L72.5809017,3.01962286 C72.4278024,2.48898262 72.7338598,1.93470224 73.2645001,1.78160299 C73.3545575,1.75561981 73.4478207,1.74242708 73.5415515,1.74241215 Z" id="Combined-Shape"></path>
                </g>
            </g>
        </g>
    </g>
</svg>