<?xml version="1.0" encoding="UTF-8"?>
<svg width="240px" height="240px" viewBox="0 0 240 240" version="1.1" xmlns="http://www.w3.org/2000/svg" xmlns:xlink="http://www.w3.org/1999/xlink">
    <title>bugsink</title>
    <g id="Page-1" stroke="none" stroke-width="1" fill="none" fill-rule="evenodd">
        <g id="bugsink" transform="translate(0, -0.005)" fill-rule="nonzero">
            <path d="M120,240.005 C186.275,240.005 240,186.277761 240,120 C240,53.7372388 186.275,0.005 120,0.005 C53.725,0.005 0,53.7322386 0,120.005 C0,186.277761 53.725,240.005 120,240.005" id="Path" fill="#83D6E0"></path>
            <path d="M152.825026,59.987812 C149.891696,53.9022437 143.763547,50.0281115 137.034093,50.005 C127.364281,50.0161137 119.528107,57.889847 119.517047,67.6060084 C114.871698,67.6046709 110.416156,69.4579359 107.130928,72.7579647 C103.845701,76.0579936 102,80.5343607 102,85.2019749 L102,94.005 L137.034093,94.005 L137.034093,85.2070167 C137.027408,77.1451419 131.568988,70.119059 123.787172,68.1555672 C124.359198,65.95229 124.85094,54.4065125 137.034093,54.4065125 C142.051867,54.4065125 146.703342,57.3458961 148.876038,61.8936215 C149.431491,62.9302775 150.699922,63.3449771 151.75614,62.835239 C152.812357,62.3255009 153.283107,61.0714601 152.825026,59.987812" id="Path" fill="#3E3E3F"></path>
            <path d="M101.738204,50.005 C95.1420316,50.005 89.030436,53.9275392 86.1724245,59.987812 C85.7210178,61.0714601 86.1849085,62.3255009 87.2257352,62.835239 C88.266562,63.3449771 89.5165101,62.9302775 90.0638693,61.8936215 C92.2293248,57.3277646 96.759303,54.4213195 101.733259,54.4065125 C113.728996,54.4065125 114.223462,65.95229 114.787153,68.1555672 C107.118729,70.119059 101.739847,77.1451419 101.733259,85.2070167 L101.733259,94.005 L119,94.005 L119,67.6060084 C118.986377,57.8918161 111.265185,50.0211497 101.738204,50.0100418" id="Path" fill="#5B5C5F"></path>
            <path d="M119.504985,190.005 C143.528722,190.002247 163.001835,170.525415 163,146.501677 C162.998165,122.477939 143.522076,103.004083 119.498339,103.005 C95.474601,103.005917 76,122.481262 76,146.505 C76,158.042781 80.5837067,169.107931 88.7426173,177.265907 C96.9015279,185.423883 107.967204,190.006322 119.504985,190.005" id="Path" fill="#3E3E3F"></path>
            <path d="M76,146.500015 C76,158.039118 80.6358618,169.105537 88.8876074,177.264447 C97.139353,185.423358 108.330938,190.006322 120,190.005 L120,103.005 C108.331811,103.003678 97.1409904,107.585958 88.8893897,115.74379 C80.637789,123.901623 76.0013369,134.966761 76,146.505" id="Path" fill="#5B5C5F"></path>
            <path d="M181,145.999095 C181,162.679236 176.221792,175.634927 162.930051,189.005 C142.648989,180.682404 128.118824,154.561334 119.36964,111.14604 C113.438244,145.3251 102.041741,174.301913 75.8493396,189.005 C64.4179492,177.587001 58,162.121733 58,145.999095 C58,111.969812 85.7767813,85.005 119.234265,85.005 C153.062775,85.005 181,112.324284 181,145.999095" id="Path" fill="#FF3F4A"></path>
            <path d="M130.971115,86.005 L59,157.679562 C61.3353319,169.541328 67.1571981,180.44454 75.7264947,189.005 C101.945727,174.282144 113.356088,145.271369 119.294696,111.041354 C128.05452,154.520022 142.602354,180.671214 162.908077,189.005 C176.210962,175.61695 181,162.648838 181,145.946271 C181,116.235597 159.288689,91.4842021 130.971115,86.005" id="Path" fill="#DF2C2C"></path>
            <path d="M137.380172,110.892865 C142.212112,110.892865 146.129173,107.003635 146.129173,102.206027 C146.129173,97.4084188 142.212112,93.5191889 137.380172,93.5191889 C132.549615,93.5191889 128.633676,97.4073048 128.633676,102.203539 C128.633676,106.999773 132.549615,110.887889 137.380172,110.887889 M137.380172,141.290578 C142.210728,141.290578 146.126667,137.402462 146.126667,132.606228 C146.126667,127.809994 142.210728,123.921878 137.380172,123.921878 C132.549615,123.921878 128.633676,127.809994 128.633676,132.606228 C128.633676,137.402462 132.549615,141.290578 137.380172,141.290578 M84.8911732,163.003941 C89.7217294,163.003941 93.6376688,159.115825 93.6376688,154.319591 C93.6376688,149.523357 89.7217294,145.635241 84.8911732,145.635241 C80.0606171,145.635241 76.1446776,149.523357 76.1446776,154.319591 C76.1446776,159.115825 80.0606171,163.003941 84.8911732,163.003941 M76.1396653,128.266542 C76.1320607,132.129326 73.5557143,135.522811 69.8177415,136.593589 C66.0797686,137.664366 62.0787868,136.155018 60,132.8899 C60.9423159,128.440726 62.4059128,124.180667 64.265483,120.164466 C66.9528675,119.140865 69.97544,119.495586 72.348423,121.113059 C74.7214061,122.730532 76.1409953,125.403678 76.1446776,128.261565 M102.389177,136.950892 C105.513999,136.950892 108.401453,135.295664 109.963865,132.608717 C111.526276,129.92177 111.526276,126.611314 109.963865,123.924367 C108.401453,121.237419 105.513999,119.582192 102.389177,119.582192 C97.5586208,119.582192 93.6426815,123.470308 93.6426815,128.266542 C93.6426815,133.062776 97.5586208,136.950892 102.389177,136.950892 M102.384164,93.5241656 C102.362101,97.9022071 99.0612669,101.579349 94.683467,102.102773 C90.305667,102.626197 86.2200109,99.8322078 85.1518138,95.5845214 C89.8409255,92.3464287 94.9741596,89.793858 100.394274,88.005 C101.647354,89.5029881 102.384164,91.4389263 102.384164,93.5191889 M163.629683,147.800108 C168.460239,147.800108 172.376179,143.911992 172.376179,139.115758 C172.376179,134.319524 168.460239,130.431408 163.629683,130.431408 C158.799127,130.431408 154.883187,134.319524 154.883187,139.115758 C154.883187,143.911992 158.799127,147.800108 163.629683,147.800108 M178,167.224187 C176.095319,172.240705 173.318495,177.127829 169.378812,182.005 C165.919901,180.775772 163.616539,177.515757 163.629627,173.868088 C163.632537,170.494003 165.603446,167.426966 168.684073,166.002685 C171.764699,164.578403 175.397354,165.054716 178,167.224187" id="Shape" fill="#3E3E3F"></path>
        </g>
    </g>
</svg>