<?xml version="1.0" encoding="UTF-8"?>
<!DOCTYPE svg PUBLIC "-//W3C//DTD SVG 1.1//EN" "http://www.w3.org/Graphics/SVG/1.1/DTD/svg11.dtd">
<svg xmlns="http://www.w3.org/2000/svg" version="1.1" width="512px" height="512px" style="shape-rendering:geometricPrecision; text-rendering:geometricPrecision; image-rendering:optimizeQuality; fill-rule:evenodd; clip-rule:evenodd" xmlns:xlink="http://www.w3.org/1999/xlink">
<g><path style="opacity:1" fill="#959f9f" d="M 164.5,10.5 C 164.5,11.8333 164.5,13.1667 164.5,14.5C 154.784,10.3833 145.117,10.55 135.5,15C 134.663,16.0113 134.33,17.1779 134.5,18.5C 139.363,18.1805 144.03,18.5139 148.5,19.5C 132.079,18.2088 119.746,24.5421 111.5,38.5C 121.333,14.3329 139,4.99959 164.5,10.5 Z"/></g>
<g><path style="opacity:1" fill="#829192" d="M 164.5,10.5 C 165.609,10.5569 166.609,10.8902 167.5,11.5C 176.758,17.4062 185.258,24.4062 193,32.5C 195.238,38.3126 193.405,41.9792 187.5,43.5C 185.186,41.5227 182.853,39.5227 180.5,37.5C 179.482,38.1925 178.482,38.8592 177.5,39.5C 171.591,34.7699 165.257,30.6032 158.5,27C 139.963,19.2882 125.963,24.1216 116.5,41.5C 114.279,40.7078 112.279,40.3744 110.5,40.5C 110.328,39.5084 110.662,38.8417 111.5,38.5C 119.746,24.5421 132.079,18.2088 148.5,19.5C 154.878,20.5191 161.211,21.3525 167.5,22C 170.378,18.2908 169.378,15.7908 164.5,14.5C 164.5,13.1667 164.5,11.8333 164.5,10.5 Z"/></g>
<g><path style="opacity:1" fill="#3c5a63" d="M 177.5,39.5 C 184.26,46.2527 190.593,53.2527 196.5,60.5C 200.552,67.9879 203.218,75.9879 204.5,84.5C 204.5,90.5 204.5,96.5 204.5,102.5C 202.5,102.167 200.5,101.833 198.5,101.5C 199.613,77.231 190.613,57.731 171.5,43C 166.029,40.2848 160.362,37.9514 154.5,36C 137.095,32.6957 126.095,39.529 121.5,56.5C 119.466,57.5478 118.133,59.2145 117.5,61.5C 116.675,62.3857 115.675,62.719 114.5,62.5C 114.737,61.209 114.404,60.209 113.5,59.5C 113.059,53.2204 114.059,47.2204 116.5,41.5C 125.963,24.1216 139.963,19.2882 158.5,27C 165.257,30.6032 171.591,34.7699 177.5,39.5 Z"/></g>
<g><path style="opacity:1" fill="#728589" d="M 167.5,11.5 C 175.795,14.3101 183.128,18.6435 189.5,24.5C 191.833,26.1667 193.833,28.1667 195.5,30.5C 194.588,31.7382 194.421,33.0715 195,34.5C 198.352,39.2027 201.185,44.2027 203.5,49.5C 203.628,51.6547 203.128,53.6547 202,55.5C 200.951,56.5171 199.784,56.6838 198.5,56C 194.997,51.6653 191.33,47.4986 187.5,43.5C 193.405,41.9792 195.238,38.3126 193,32.5C 185.258,24.4062 176.758,17.4062 167.5,11.5 Z"/></g>
<g><path style="opacity:1" fill="#273b47" d="M 198.5,101.5 C 197.442,100.4 196.608,99.0664 196,97.5C 195.733,76.469 187.566,59.3024 171.5,46C 168.044,44.5186 164.711,42.852 161.5,41C 154.168,37.7411 146.835,37.7411 139.5,41C 135.661,44.5153 133.327,48.8486 132.5,54C 132.921,67.7729 132.921,82.2729 132.5,97.5C 131.167,105.833 131.167,114.167 132.5,122.5C 132.583,129.076 132.916,135.409 133.5,141.5C 132.167,149.167 132.167,156.833 133.5,164.5C 132.494,170.123 132.328,175.79 133,181.5C 130.531,184.649 127.365,186.649 123.5,187.5C 121.143,187.663 118.81,187.497 116.5,187C 114.68,186.8 113.347,185.966 112.5,184.5C 115.455,185.159 118.455,185.492 121.5,185.5C 121.5,142.5 121.5,99.5 121.5,56.5C 126.095,39.529 137.095,32.6957 154.5,36C 160.362,37.9514 166.029,40.2848 171.5,43C 190.613,57.731 199.613,77.231 198.5,101.5 Z"/></g>
<g><path style="opacity:1" fill="#344d59" d="M 195.5,30.5 C 199.515,34.3555 203.015,38.6888 206,43.5C 208.309,52.0714 210.309,60.7381 212,69.5C 213.162,74.1253 213.496,78.792 213,83.5C 210.705,88.432 207.871,88.7653 204.5,84.5C 203.218,75.9879 200.552,67.9879 196.5,60.5C 201.927,62.2807 204.927,60.2807 205.5,54.5C 205.564,52.4434 204.898,50.7767 203.5,49.5C 201.185,44.2027 198.352,39.2027 195,34.5C 194.421,33.0715 194.588,31.7382 195.5,30.5 Z"/></g>
<g><path style="opacity:1" fill="#253844" d="M 189.5,24.5 C 189.56,23.9569 189.893,23.6236 190.5,23.5C 191.852,24.5244 193.185,25.5244 194.5,26.5C 213.218,44.1207 222.885,65.954 223.5,92C 221.901,102.981 215.568,107.315 204.5,105C 201.736,104.994 199.736,103.828 198.5,101.5C 200.5,101.833 202.5,102.167 204.5,102.5C 204.5,96.5 204.5,90.5 204.5,84.5C 207.871,88.7653 210.705,88.432 213,83.5C 213.496,78.792 213.162,74.1253 212,69.5C 210.309,60.7381 208.309,52.0714 206,43.5C 203.015,38.6888 199.515,34.3555 195.5,30.5C 193.833,28.1667 191.833,26.1667 189.5,24.5 Z"/></g>
<g><path style="opacity:1" fill="#567176" d="M 187.5,43.5 C 191.33,47.4986 194.997,51.6653 198.5,56C 199.784,56.6838 200.951,56.5171 202,55.5C 203.128,53.6547 203.628,51.6547 203.5,49.5C 204.898,50.7767 205.564,52.4434 205.5,54.5C 204.927,60.2807 201.927,62.2807 196.5,60.5C 190.593,53.2527 184.26,46.2527 177.5,39.5C 178.482,38.8592 179.482,38.1925 180.5,37.5C 182.853,39.5227 185.186,41.5227 187.5,43.5 Z"/></g>
<g><path style="opacity:1" fill="#36525b" d="M 121.5,56.5 C 121.5,99.5 121.5,142.5 121.5,185.5C 118.455,185.492 115.455,185.159 112.5,184.5C 112.167,184.5 111.833,184.5 111.5,184.5C 108.5,183.5 106.5,181.5 105.5,178.5C 105.938,177.494 106.604,177.494 107.5,178.5C 108.144,181.144 109.811,182.811 112.5,183.5C 113.5,142.172 113.833,100.839 113.5,59.5C 114.404,60.209 114.737,61.209 114.5,62.5C 115.675,62.719 116.675,62.3857 117.5,61.5C 118.133,59.2145 119.466,57.5478 121.5,56.5 Z"/></g>
<g><path style="opacity:0.024" fill="#2e2f2e" d="M 136.5,78.5 C 137.833,79.1667 137.833,79.1667 136.5,78.5 Z"/></g>
<g><path style="opacity:1" fill="#859495" d="M 107.5,178.5 C 107.5,177.833 107.5,177.167 107.5,176.5C 107.333,139.498 107.5,102.498 108,65.5C 108.667,66.1667 109.333,66.8333 110,67.5C 110.667,104.833 110.667,142.167 110,179.5C 109.329,178.748 108.496,178.414 107.5,178.5 Z"/></g>
<g><path style="opacity:1" fill="#4a5d64" d="M 194.5,26.5 C 193.185,25.5244 191.852,24.5244 190.5,23.5C 189.893,23.6236 189.56,23.9569 189.5,24.5C 183.128,18.6435 175.795,14.3101 167.5,11.5C 166.609,10.8902 165.609,10.5569 164.5,10.5C 139,4.99959 121.333,14.3329 111.5,38.5C 110.662,38.8417 110.328,39.5084 110.5,40.5C 108.282,44.4222 107.115,48.7556 107,53.5C 106.169,94.6687 106.335,135.669 107.5,176.5C 107.5,177.167 107.5,177.833 107.5,178.5C 106.604,177.494 105.938,177.494 105.5,178.5C 104.513,173.695 104.179,168.695 104.5,163.5C 104.414,162.504 104.748,161.671 105.5,161C 104.906,160.536 104.239,160.369 103.5,160.5C 103.655,135.578 103.655,110.411 103.5,85C 104.321,74.2431 104.821,63.4098 105,52.5C 108.954,25.162 124.454,9.4953 151.5,5.5C 166.864,7.51943 180.531,13.3528 192.5,23C 193.823,23.8159 194.489,24.9826 194.5,26.5 Z"/></g>
<g><path style="opacity:1" fill="#bbbcbd" d="M 164.5,14.5 C 169.378,15.7908 170.378,18.2908 167.5,22C 161.211,21.3525 154.878,20.5191 148.5,19.5C 144.03,18.5139 139.363,18.1805 134.5,18.5C 134.33,17.1779 134.663,16.0113 135.5,15C 145.117,10.55 154.784,10.3833 164.5,14.5 Z"/></g>
<g><path style="opacity:1" fill="#687e82" d="M 110.5,40.5 C 112.279,40.3744 114.279,40.7078 116.5,41.5C 114.059,47.2204 113.059,53.2204 113.5,59.5C 113.833,100.839 113.5,142.172 112.5,183.5C 109.811,182.811 108.144,181.144 107.5,178.5C 108.496,178.414 109.329,178.748 110,179.5C 110.667,142.167 110.667,104.833 110,67.5C 109.333,66.8333 108.667,66.1667 108,65.5C 107.5,102.498 107.333,139.498 107.5,176.5C 106.335,135.669 106.169,94.6687 107,53.5C 107.115,48.7556 108.282,44.4222 110.5,40.5 Z"/></g>
<g><path style="opacity:0.024" fill="#19292d" d="M 201.5,105.5 C 202.833,106.167 202.833,106.167 201.5,105.5 Z"/></g>
<g><path style="opacity:0.498" fill="#121a20" d="M 132.5,97.5 C 132.912,105.537 132.912,113.871 132.5,122.5C 131.167,114.167 131.167,105.833 132.5,97.5 Z"/></g>
<g><path style="opacity:0.024" fill="#2e2f2e" d="M 136.5,116.5 C 137.833,117.167 137.833,117.167 136.5,116.5 Z"/></g>
<g><path style="opacity:0.997" fill="#91d7df" d="M 288.5,137.5 C 287.761,137.369 287.094,137.536 286.5,138C 287.833,140.667 287.833,143.333 286.5,146C 296.719,149.073 306.719,152.74 316.5,157C 320.253,157.091 323.92,157.258 327.5,157.5C 325.297,159.295 324.131,161.629 324,164.5C 322.887,165.305 321.721,165.972 320.5,166.5C 318.167,165.833 315.833,165.167 313.5,164.5C 290.786,159.649 267.786,158.149 244.5,160C 227.932,161.207 212.265,165.373 197.5,172.5C 185.174,176.306 173.841,182.139 163.5,190C 136.198,205.317 109.531,221.65 83.5,239C 75.0452,245.12 66.8785,251.62 59,258.5C 48.7583,270.697 47.7583,283.697 56,297.5C 59.4105,301.112 63.2438,304.112 67.5,306.5C 71.8377,310.445 71.5044,313.778 66.5,316.5C 58.8792,309.358 50.5458,303.191 41.5,298C 38.8231,295.655 36.4897,292.988 34.5,290C 33.0563,289.219 31.723,289.386 30.5,290.5C 37.7912,298.626 46.1245,305.46 55.5,311C 61.0954,316.051 66.5954,321.218 72,326.5C 72.4935,328.134 72.6602,329.801 72.5,331.5C 71.209,331.263 70.209,331.596 69.5,332.5C 48.9676,317.134 29.4676,300.468 11,282.5C 8.39768,278.294 6.06434,273.961 4,269.5C 3.50074,264.511 3.33407,259.511 3.5,254.5C 4.48224,249.53 6.31558,244.863 9,240.5C 18.2799,225.543 29.4466,212.043 42.5,200C 47.4537,196.715 52.1203,193.048 56.5,189C 64.18,184.494 71.5134,179.494 78.5,174C 79.448,173.517 80.448,173.351 81.5,173.5C 83.153,173.34 84.4863,172.674 85.5,171.5C 89.228,168.441 93.228,165.774 97.5,163.5C 99.0269,163.573 100.027,162.906 100.5,161.5C 100.833,161.5 101.167,161.5 101.5,161.5C 102.239,161.369 102.906,161.536 103.5,162C 93.7252,168.5 90.3918,177.333 93.5,188.5C 95.3186,197.817 100.985,203.317 110.5,205C 121.145,206.974 130.978,205.14 140,199.5C 141.705,197.423 142.872,195.09 143.5,192.5C 147.506,180.525 144.172,171.191 133.5,164.5C 132.167,156.833 132.167,149.167 133.5,141.5C 138.688,141.404 143.688,140.404 148.5,138.5C 148.5,136.833 148.5,135.167 148.5,133.5C 153.179,133.666 157.845,133.499 162.5,133C 168.317,130.712 174.317,129.046 180.5,128C 193.154,126.706 205.821,125.539 218.5,124.5C 231.856,125.802 245.19,127.302 258.5,129C 268.704,131.574 278.704,134.408 288.5,137.5 Z"/></g>
<g><path style="opacity:0.997" fill="#89d7e3" d="M 288.5,137.5 C 301.458,141.156 314.458,144.656 327.5,148C 359.014,159.691 389.347,173.858 418.5,190.5C 419.514,191.674 420.847,192.34 422.5,192.5C 425.054,193.388 427.721,193.721 430.5,193.5C 431.329,197.338 433.662,200.005 437.5,201.5C 440.291,203.735 443.291,205.735 446.5,207.5C 458.054,215.564 469.721,223.397 481.5,231C 485.633,232.863 489.967,233.696 494.5,233.5C 494.5,236.167 494.5,238.833 494.5,241.5C 497.167,241.5 499.833,241.5 502.5,241.5C 502.498,247.844 503.998,253.844 507,259.5C 507.495,261.473 507.662,263.473 507.5,265.5C 505.838,271.826 503.338,277.826 500,283.5C 498.961,284.71 497.794,285.71 496.5,286.5C 497.485,283.841 498.485,281.174 499.5,278.5C 498.256,272.695 495.922,272.195 492.5,277C 489.487,277.909 486.487,278.742 483.5,279.5C 483.509,281.308 483.009,282.975 482,284.5C 479.957,286.208 478.29,288.208 477,290.5C 475.736,292.607 473.903,293.607 471.5,293.5C 472.881,289.758 475.048,286.424 478,283.5C 478.333,281.833 478.667,280.167 479,278.5C 483.728,274.79 484.561,270.457 481.5,265.5C 477.992,260.406 473.326,256.74 467.5,254.5C 465.48,250.981 462.48,248.814 458.5,248C 427.521,225.838 395.521,205.171 362.5,186C 348.786,178.76 334.786,172.26 320.5,166.5C 321.721,165.972 322.887,165.305 324,164.5C 324.131,161.629 325.297,159.295 327.5,157.5C 323.92,157.258 320.253,157.091 316.5,157C 306.719,152.74 296.719,149.073 286.5,146C 287.833,143.333 287.833,140.667 286.5,138C 287.094,137.536 287.761,137.369 288.5,137.5 Z"/></g>
<g><path style="opacity:0.035" fill="#4a4557" d="M 76.5,156.5 C 79.1667,156.5 81.8333,156.5 84.5,156.5C 83.484,159.838 81.1506,161.838 77.5,162.5C 76.5344,160.604 76.2011,158.604 76.5,156.5 Z"/></g>
<g><path style="opacity:1" fill="#76d4e1" d="M 313.5,164.5 C 316.33,166.362 317.163,169.029 316,172.5C 314.687,173.573 313.187,174.24 311.5,174.5C 289.736,169.967 267.736,168.3 245.5,169.5C 245.5,177.5 245.5,185.5 245.5,193.5C 243.167,193.5 240.833,193.5 238.5,193.5C 238.49,198.915 237.823,204.248 236.5,209.5C 234.448,206.512 233.281,203.179 233,199.5C 232.606,192.104 231.773,184.77 230.5,177.5C 232.833,177.5 235.167,177.5 237.5,177.5C 237.663,175.143 237.497,172.81 237,170.5C 227.968,173.217 218.801,175.55 209.5,177.5C 208.287,177.747 207.62,178.414 207.5,179.5C 205.266,175.734 201.932,173.4 197.5,172.5C 212.265,165.373 227.932,161.207 244.5,160C 267.786,158.149 290.786,159.649 313.5,164.5 Z"/></g>
<g><path style="opacity:0.502" fill="#456165" d="M 100.5,161.5 C 100.027,162.906 99.0269,163.573 97.5,163.5C 97.9731,162.094 98.9731,161.427 100.5,161.5 Z"/></g>
<g><path style="opacity:1" fill="#7ad4e3" d="M 313.5,164.5 C 315.833,165.167 318.167,165.833 320.5,166.5C 334.786,172.26 348.786,178.76 362.5,186C 395.521,205.171 427.521,225.838 458.5,248C 462.48,248.814 465.48,250.981 467.5,254.5C 473.326,256.74 477.992,260.406 481.5,265.5C 480.644,270.994 479.311,276.327 477.5,281.5C 475.801,281.34 474.134,281.506 472.5,282C 459.293,296.379 443.96,307.879 426.5,316.5C 432.553,308.259 431.553,300.926 423.5,294.5C 416.356,289.191 409.356,283.691 402.5,278C 382.831,265.497 362.831,253.497 342.5,242C 327.175,236.448 311.509,232.114 295.5,229C 283.074,226.669 270.741,226.169 258.5,227.5C 251.737,225.018 244.737,224.018 237.5,224.5C 227.291,223.537 216.957,223.87 206.5,225.5C 205.565,222.887 205.398,220.221 206,217.5C 207.993,215.182 209.159,212.516 209.5,209.5C 210.268,208.737 210.768,207.737 211,206.5C 212.355,197.052 211.188,188.052 207.5,179.5C 207.62,178.414 208.287,177.747 209.5,177.5C 218.801,175.55 227.968,173.217 237,170.5C 237.497,172.81 237.663,175.143 237.5,177.5C 235.167,177.5 232.833,177.5 230.5,177.5C 231.773,184.77 232.606,192.104 233,199.5C 233.281,203.179 234.448,206.512 236.5,209.5C 237.823,204.248 238.49,198.915 238.5,193.5C 240.833,193.5 243.167,193.5 245.5,193.5C 245.5,185.5 245.5,177.5 245.5,169.5C 267.736,168.3 289.736,169.967 311.5,174.5C 313.187,174.24 314.687,173.573 316,172.5C 317.163,169.029 316.33,166.362 313.5,164.5 Z"/></g>
<g><path style="opacity:1" fill="#b7babb" d="M 104.5,163.5 C 104.179,168.695 104.513,173.695 105.5,178.5C 106.5,181.5 108.5,183.5 111.5,184.5C 110.833,185.167 110.167,185.833 109.5,186.5C 109.5,187.833 109.5,189.167 109.5,190.5C 99.611,188.448 95.4443,182.448 97,172.5C 99.3644,169.31 101.864,166.31 104.5,163.5 Z"/></g>
<g><path style="opacity:0.004" fill="#66686b" d="M 406.5,170.5 C 408.607,169.532 410.941,169.198 413.5,169.5C 413.762,170.978 413.429,172.311 412.5,173.5C 410.757,171.962 408.757,170.962 406.5,170.5 Z"/></g>
<g><path style="opacity:0.086" fill="#586971" d="M 85.5,171.5 C 84.4863,172.674 83.153,173.34 81.5,173.5C 82.287,171.896 83.6203,171.229 85.5,171.5 Z"/></g>
<g><path style="opacity:1" fill="#859499" d="M 101.5,161.5 C 101.842,160.662 102.508,160.328 103.5,160.5C 104.239,160.369 104.906,160.536 105.5,161C 104.748,161.671 104.414,162.504 104.5,163.5C 101.864,166.31 99.3644,169.31 97,172.5C 95.4443,182.448 99.611,188.448 109.5,190.5C 109.5,189.167 109.5,187.833 109.5,186.5C 111.487,187.164 113.154,188.331 114.5,190C 112.15,191.175 109.816,192.342 107.5,193.5C 101.18,191.442 96.68,187.442 94,181.5C 93.5034,183.81 93.3367,186.143 93.5,188.5C 90.3918,177.333 93.7252,168.5 103.5,162C 102.906,161.536 102.239,161.369 101.5,161.5 Z"/></g>
<g><path style="opacity:1" fill="#209ab3" d="M 197.5,172.5 C 201.932,173.4 205.266,175.734 207.5,179.5C 211.188,188.052 212.355,197.052 211,206.5C 210.768,207.737 210.268,208.737 209.5,209.5C 208.152,206.145 205.819,205.145 202.5,206.5C 203.637,208.607 204.637,210.773 205.5,213C 202.814,215.512 201.814,218.679 202.5,222.5C 201.778,222.082 201.278,221.416 201,220.5C 196.678,223.399 192.511,226.399 188.5,229.5C 183.558,226.112 178.392,223.112 173,220.5C 170.527,222.225 170.027,224.392 171.5,227C 174.5,227.333 177.5,227.667 180.5,228C 182.544,228.498 183.878,229.665 184.5,231.5C 163.203,246.154 141.537,260.32 119.5,274C 107.346,283.576 95.0127,292.91 82.5,302C 79.4799,304.184 76.1466,305.684 72.5,306.5C 70.8333,306.5 69.1667,306.5 67.5,306.5C 63.2438,304.112 59.4105,301.112 56,297.5C 47.7583,283.697 48.7583,270.697 59,258.5C 66.8785,251.62 75.0452,245.12 83.5,239C 109.531,221.65 136.198,205.317 163.5,190C 173.841,182.139 185.174,176.306 197.5,172.5 Z"/></g>
<g><path style="opacity:1" fill="#2e4552" d="M 133.5,164.5 C 144.172,171.191 147.506,180.525 143.5,192.5C 143.665,188.818 143.499,185.152 143,181.5C 137.536,191.486 129.036,196.153 117.5,195.5C 114.975,195.497 112.641,195.163 110.5,194.5C 115.207,194.051 119.874,193.385 124.5,192.5C 125.652,190.603 125.319,188.936 123.5,187.5C 127.365,186.649 130.531,184.649 133,181.5C 132.328,175.79 132.494,170.123 133.5,164.5 Z"/></g>
<g><path style="opacity:1" fill="#192532" d="M 107.5,193.5 C 108.209,194.404 109.209,194.737 110.5,194.5C 112.641,195.163 114.975,195.497 117.5,195.5C 129.036,196.153 137.536,191.486 143,181.5C 143.499,185.152 143.665,188.818 143.5,192.5C 142.872,195.09 141.705,197.423 140,199.5C 130.978,205.14 121.145,206.974 110.5,205C 100.985,203.317 95.3186,197.817 93.5,188.5C 93.3367,186.143 93.5034,183.81 94,181.5C 96.68,187.442 101.18,191.442 107.5,193.5 Z"/></g>
<g><path style="opacity:1" fill="#516770" d="M 111.5,184.5 C 111.833,184.5 112.167,184.5 112.5,184.5C 113.347,185.966 114.68,186.8 116.5,187C 118.81,187.497 121.143,187.663 123.5,187.5C 125.319,188.936 125.652,190.603 124.5,192.5C 119.874,193.385 115.207,194.051 110.5,194.5C 109.209,194.737 108.209,194.404 107.5,193.5C 109.816,192.342 112.15,191.175 114.5,190C 113.154,188.331 111.487,187.164 109.5,186.5C 110.167,185.833 110.833,185.167 111.5,184.5 Z"/></g>
<g><path style="opacity:0.045" fill="#4d5e64" d="M 418.5,190.5 C 420.483,190.157 421.817,190.824 422.5,192.5C 420.847,192.34 419.514,191.674 418.5,190.5 Z"/></g>
<g><path style="opacity:0.051" fill="#97b9c0" d="M 437.5,201.5 C 440.5,201.5 443.5,201.5 446.5,201.5C 446.5,203.5 446.5,205.5 446.5,207.5C 443.291,205.735 440.291,203.735 437.5,201.5 Z"/></g>
<g><path style="opacity:1" fill="#85a6ba" d="M 227.5,225.5 C 230.734,225.205 233.734,225.871 236.5,227.5C 232.861,228.46 229.195,228.46 225.5,227.5C 223.897,227.688 222.563,227.188 221.5,226C 223.473,225.505 225.473,225.338 227.5,225.5 Z"/></g>
<g><path style="opacity:1" fill="#162341" d="M 237.5,224.5 C 244.737,224.018 251.737,225.018 258.5,227.5C 259.5,228.167 260.5,228.833 261.5,229.5C 259.194,229.993 256.861,230.326 254.5,230.5C 254.423,229.25 253.756,228.417 252.5,228C 248.181,227.24 243.848,226.573 239.5,226C 238.584,225.722 237.918,225.222 237.5,224.5 Z"/></g>
<g><path style="opacity:1" fill="#d7e7e9" d="M 426.5,316.5 C 417.858,324.153 408.525,330.819 398.5,336.5C 405.681,327.082 405.014,318.249 396.5,310C 376.098,294.283 354.431,280.283 331.5,268C 329.564,267.187 327.564,266.687 325.5,266.5C 325.068,265.29 324.401,264.29 323.5,263.5C 319.783,257.45 314.783,252.783 308.5,249.5C 303.277,244.051 296.944,240.384 289.5,238.5C 287.208,236.733 284.542,235.733 281.5,235.5C 278.378,233.572 275.045,232.239 271.5,231.5C 268.456,229.989 265.122,229.322 261.5,229.5C 260.5,228.833 259.5,228.167 258.5,227.5C 270.741,226.169 283.074,226.669 295.5,229C 311.509,232.114 327.175,236.448 342.5,242C 362.831,253.497 382.831,265.497 402.5,278C 409.356,283.691 416.356,289.191 423.5,294.5C 431.553,300.926 432.553,308.259 426.5,316.5 Z"/></g>
<g><path style="opacity:1" fill="#536b7e" d="M 227.5,225.5 C 230.625,224.521 233.958,224.187 237.5,224.5C 237.918,225.222 238.584,225.722 239.5,226C 243.848,226.573 248.181,227.24 252.5,228C 253.756,228.417 254.423,229.25 254.5,230.5C 253.329,231.345 251.995,232.011 250.5,232.5C 241.48,233.609 233.147,231.943 225.5,227.5C 229.195,228.46 232.861,228.46 236.5,227.5C 233.734,225.871 230.734,225.205 227.5,225.5 Z"/></g>
<g><path style="opacity:1" fill="#0a1a2b" d="M 237.5,224.5 C 233.958,224.187 230.625,224.521 227.5,225.5C 225.473,225.338 223.473,225.505 221.5,226C 222.563,227.188 223.897,227.688 225.5,227.5C 233.147,231.943 241.48,233.609 250.5,232.5C 247.755,234.378 244.755,236.045 241.5,237.5C 239.549,238.774 238.215,240.44 237.5,242.5C 235.254,243.455 232.921,244.122 230.5,244.5C 230.083,240.277 227.749,237.777 223.5,237C 215.607,234.859 207.607,233.359 199.5,232.5C 202.69,230.824 206.19,229.824 210,229.5C 213.155,230.278 216.322,230.445 219.5,230C 221.125,229.147 221.458,228.147 220.5,227C 216.577,226.021 212.91,226.521 209.5,228.5C 208.145,227.812 207.145,226.812 206.5,225.5C 216.957,223.87 227.291,223.537 237.5,224.5 Z"/></g>
<g><path style="opacity:1" fill="#64070c" d="M 260.5,232.5 C 263.962,231.518 267.629,231.185 271.5,231.5C 275.045,232.239 278.378,233.572 281.5,235.5C 274.672,233.529 267.672,232.529 260.5,232.5 Z"/></g>
<g><path style="opacity:1" fill="#76d4e2" d="M 184.5,231.5 C 186.022,232.191 187.022,233.358 187.5,235C 179.862,241.634 176.195,250.134 176.5,260.5C 175.566,261.568 175.232,262.901 175.5,264.5C 158.587,276.232 141.254,287.398 123.5,298C 115.967,304.168 108.801,310.668 102,317.5C 100.432,321.814 100.265,326.148 101.5,330.5C 101.631,331.239 101.464,331.906 101,332.5C 98.8995,329.533 96.0662,327.7 92.5,327C 85.9457,320.811 79.1124,314.978 72,309.5C 71.5304,308.423 71.6971,307.423 72.5,306.5C 76.1466,305.684 79.4799,304.184 82.5,302C 95.0127,292.91 107.346,283.576 119.5,274C 141.537,260.32 163.203,246.154 184.5,231.5 Z"/></g>
<g><path style="opacity:1" fill="#851b19" d="M 260.5,232.5 C 259.41,233.857 258.076,234.857 256.5,235.5C 256.167,235.5 255.833,235.5 255.5,235.5C 254.391,235.557 253.391,235.89 252.5,236.5C 252.167,236.5 251.833,236.5 251.5,236.5C 250.833,236.5 250.167,236.5 249.5,236.5C 252.939,234.796 256.605,233.462 260.5,232.5 Z"/></g>
<g><path style="opacity:1" fill="#080d18" d="M 209.5,209.5 C 209.159,212.516 207.993,215.182 206,217.5C 205.398,220.221 205.565,222.887 206.5,225.5C 207.145,226.812 208.145,227.812 209.5,228.5C 212.91,226.521 216.577,226.021 220.5,227C 221.458,228.147 221.125,229.147 219.5,230C 216.322,230.445 213.155,230.278 210,229.5C 206.19,229.824 202.69,230.824 199.5,232.5C 196.335,232.752 194.335,234.418 193.5,237.5C 194.592,240.024 195.926,242.357 197.5,244.5C 197.5,245.833 197.5,247.167 197.5,248.5C 195.585,248.216 193.919,248.549 192.5,249.5C 188.732,252.225 184.732,254.725 180.5,257C 178.393,258.264 177.393,260.097 177.5,262.5C 176.662,262.158 176.328,261.492 176.5,260.5C 176.195,250.134 179.862,241.634 187.5,235C 187.022,233.358 186.022,232.191 184.5,231.5C 183.878,229.665 182.544,228.498 180.5,228C 177.5,227.667 174.5,227.333 171.5,227C 170.027,224.392 170.527,222.225 173,220.5C 178.392,223.112 183.558,226.112 188.5,229.5C 189.479,230.765 190.479,232.099 191.5,233.5C 195.065,230.54 199.065,228.54 203.5,227.5C 203.784,225.585 203.451,223.919 202.5,222.5C 201.814,218.679 202.814,215.512 205.5,213C 204.637,210.773 203.637,208.607 202.5,206.5C 205.819,205.145 208.152,206.145 209.5,209.5 Z"/></g>
<g><path style="opacity:1" fill="#71ccda" d="M 202.5,222.5 C 203.451,223.919 203.784,225.585 203.5,227.5C 199.065,228.54 195.065,230.54 191.5,233.5C 190.479,232.099 189.479,230.765 188.5,229.5C 192.511,226.399 196.678,223.399 201,220.5C 201.278,221.416 201.778,222.082 202.5,222.5 Z"/></g>
<g><path style="opacity:1" fill="#201414" d="M 261.5,229.5 C 265.122,229.322 268.456,229.989 271.5,231.5C 267.629,231.185 263.962,231.518 260.5,232.5C 256.605,233.462 252.939,234.796 249.5,236.5C 249.5,236.833 249.5,237.167 249.5,237.5C 245.017,238.077 241.017,239.744 237.5,242.5C 238.215,240.44 239.549,238.774 241.5,237.5C 244.755,236.045 247.755,234.378 250.5,232.5C 251.995,232.011 253.329,231.345 254.5,230.5C 256.861,230.326 259.194,229.993 261.5,229.5 Z"/></g>
<g><path style="opacity:1" fill="#f6262a" d="M 260.5,232.5 C 267.672,232.529 274.672,233.529 281.5,235.5C 282.899,236.89 284.566,237.89 286.5,238.5C 288.089,240.306 290.089,241.639 292.5,242.5C 289.694,243.168 287.028,243.834 284.5,244.5C 283.18,245.942 281.514,246.608 279.5,246.5C 279.703,244.61 279.037,243.11 277.5,242C 271.845,239.232 265.845,237.898 259.5,238C 257.881,237.764 256.881,236.931 256.5,235.5C 258.076,234.857 259.41,233.857 260.5,232.5 Z"/></g>
<g><path style="opacity:1" fill="#81090f" d="M 281.5,235.5 C 284.542,235.733 287.208,236.733 289.5,238.5C 288.5,238.5 287.5,238.5 286.5,238.5C 284.566,237.89 282.899,236.89 281.5,235.5 Z"/></g>
<g><path style="opacity:1" fill="#5e181c" d="M 289.5,238.5 C 296.944,240.384 303.277,244.051 308.5,249.5C 301.995,246.083 295.662,242.416 289.5,238.5 Z"/></g>
<g><path style="opacity:1" fill="#0a2840" d="M 199.5,232.5 C 207.607,233.359 215.607,234.859 223.5,237C 227.749,237.777 230.083,240.277 230.5,244.5C 229.778,245.551 228.778,246.218 227.5,246.5C 228.374,243.769 227.374,241.602 224.5,240C 215.64,233.582 207.307,234.082 199.5,241.5C 198.833,242.5 198.167,243.5 197.5,244.5C 195.926,242.357 194.592,240.024 193.5,237.5C 194.335,234.418 196.335,232.752 199.5,232.5 Z"/></g>
<g><path style="opacity:1" fill="#6fa0ac" d="M 227.5,246.5 C 223.79,249.533 219.79,252.2 215.5,254.5C 210.029,251.6 204.362,248.933 198.5,246.5C 199.309,244.929 199.643,243.262 199.5,241.5C 207.307,234.082 215.64,233.582 224.5,240C 227.374,241.602 228.374,243.769 227.5,246.5 Z"/></g>
<g><path style="opacity:1" fill="#fd857e" d="M 251.5,236.5 C 251.833,236.5 252.167,236.5 252.5,236.5C 252.833,237.833 253.167,239.167 253.5,240.5C 260.656,249.987 266.989,259.987 272.5,270.5C 270.251,269.92 268.585,268.587 267.5,266.5C 266.392,264.219 265.058,262.052 263.5,260C 253.564,255.441 249.564,247.607 251.5,236.5 Z"/></g>
<g><path style="opacity:1" fill="#92b1d6" d="M 190.5,240.5 C 191.338,240.842 191.672,241.508 191.5,242.5C 191.5,243.5 191.5,244.5 191.5,245.5C 189.801,245.66 188.134,245.494 186.5,245C 185.324,241.691 186.657,240.191 190.5,240.5 Z"/></g>
<g><path style="opacity:1" fill="#f89589" d="M 249.5,236.5 C 250.167,236.5 250.833,236.5 251.5,236.5C 249.564,247.607 253.564,255.441 263.5,260C 265.058,262.052 266.392,264.219 267.5,266.5C 259.977,261.147 252.31,255.981 244.5,251C 245.5,250.667 246.5,250.333 247.5,250C 244.137,249.073 241.137,249.573 238.5,251.5C 237.833,251.167 237.167,250.833 236.5,250.5C 236.047,249.542 235.381,248.708 234.5,248C 235.252,247.329 235.586,246.496 235.5,245.5C 235.5,244.833 235.833,244.5 236.5,244.5C 237.425,246.884 239.258,247.884 242,247.5C 248.087,247.027 250.587,243.693 249.5,237.5C 249.5,237.167 249.5,236.833 249.5,236.5 Z"/></g>
<g><path style="opacity:1" fill="#5c0911" d="M 285.5,244.5 C 288.187,244.336 290.854,244.503 293.5,245C 296.025,245.424 298.025,246.59 299.5,248.5C 296.168,247.5 292.834,246.5 289.5,245.5C 285.011,245.833 283.511,248.167 285,252.5C 287.04,254.37 288.873,256.37 290.5,258.5C 283.395,255.727 281.728,251.06 285.5,244.5 Z"/></g>
<g><path style="opacity:1" fill="#061437" d="M 190.5,240.5 C 186.657,240.191 185.324,241.691 186.5,245C 188.134,245.494 189.801,245.66 191.5,245.5C 191.5,244.5 191.5,243.5 191.5,242.5C 192.782,243.708 192.782,245.042 191.5,246.5C 184.918,248.665 182.751,246.332 185,239.5C 187.235,238.02 189.068,238.353 190.5,240.5 Z"/></g>
<g><path style="opacity:1" fill="#fbc4ad" d="M 249.5,237.5 C 250.587,243.693 248.087,247.027 242,247.5C 239.258,247.884 237.425,246.884 236.5,244.5C 236.833,243.833 237.167,243.167 237.5,242.5C 241.017,239.744 245.017,238.077 249.5,237.5 Z"/></g>
<g><path style="opacity:1" fill="#67302e" d="M 235.5,245.5 C 235.586,246.496 235.252,247.329 234.5,248C 235.381,248.708 236.047,249.542 236.5,250.5C 233.028,249.423 232.695,247.756 235.5,245.5 Z"/></g>
<g><path style="opacity:1" fill="#b20c17" d="M 286.5,238.5 C 287.5,238.5 288.5,238.5 289.5,238.5C 295.662,242.416 301.995,246.083 308.5,249.5C 308.5,250.167 308.5,250.833 308.5,251.5C 303.763,248.348 302.763,249.015 305.5,253.5C 303.475,251.804 301.475,250.137 299.5,248.5C 298.025,246.59 296.025,245.424 293.5,245C 290.854,244.503 288.187,244.336 285.5,244.5C 285.167,244.5 284.833,244.5 284.5,244.5C 287.028,243.834 289.694,243.168 292.5,242.5C 290.089,241.639 288.089,240.306 286.5,238.5 Z"/></g>
<g><path style="opacity:1" fill="#fb4346" d="M 255.5,235.5 C 255.833,235.5 256.167,235.5 256.5,235.5C 256.881,236.931 257.881,237.764 259.5,238C 265.845,237.898 271.845,239.232 277.5,242C 279.037,243.11 279.703,244.61 279.5,246.5C 281.514,246.608 283.18,245.942 284.5,244.5C 284.833,244.5 285.167,244.5 285.5,244.5C 281.728,251.06 283.395,255.727 290.5,258.5C 292.588,259.201 294.588,260.201 296.5,261.5C 296.5,261.833 296.5,262.167 296.5,262.5C 293.956,262.104 291.789,262.771 290,264.5C 290.454,269.198 288.954,273.031 285.5,276C 286.191,277.067 286.691,278.234 287,279.5C 288.992,280.328 290.492,281.661 291.5,283.5C 286.366,281.769 282.7,278.435 280.5,273.5C 283.773,268.104 284.273,262.438 282,256.5C 281.727,258.101 281.227,259.601 280.5,261C 281.872,264.541 281.706,268.041 280,271.5C 279.667,271.167 279.333,270.833 279,270.5C 279.482,267.24 279.482,263.907 279,260.5C 277.001,256.354 274.834,252.354 272.5,248.5C 269.929,247.272 268.595,245.272 268.5,242.5C 264.377,242.202 260.377,241.369 256.5,240C 254.452,238.774 254.119,237.274 255.5,235.5 Z"/></g>
<g><path style="opacity:1" fill="#090009" d="M 299.5,248.5 C 301.475,250.137 303.475,251.804 305.5,253.5C 305.833,254.167 306.167,254.833 306.5,255.5C 306.92,257.094 307.586,258.594 308.5,260C 308.355,260.772 308.022,261.439 307.5,262C 303.812,262.45 300.146,262.283 296.5,261.5C 294.588,260.201 292.588,259.201 290.5,258.5C 288.873,256.37 287.04,254.37 285,252.5C 283.511,248.167 285.011,245.833 289.5,245.5C 292.834,246.5 296.168,247.5 299.5,248.5 Z"/></g>
<g><path style="opacity:0.059" fill="#526467" d="M 507.5,249.5 C 508.833,250.167 508.833,250.167 507.5,249.5 Z"/></g>
<g><path style="opacity:1" fill="#fd6867" d="M 253.5,240.5 C 263.28,245.445 270.447,252.778 275,262.5C 275.711,264.899 275.544,267.232 274.5,269.5C 276.756,270.421 277.756,272.088 277.5,274.5C 275.611,273.396 273.945,272.063 272.5,270.5C 266.989,259.987 260.656,249.987 253.5,240.5 Z"/></g>
<g><path style="opacity:1" fill="#652837" d="M 308.5,249.5 C 314.783,252.783 319.783,257.45 323.5,263.5C 322.167,262.5 320.833,261.5 319.5,260.5C 316.71,256.372 313.043,253.372 308.5,251.5C 308.5,250.833 308.5,250.167 308.5,249.5 Z"/></g>
<g><path style="opacity:1" fill="#e5b6b3" d="M 267.5,266.5 C 268.585,268.587 270.251,269.92 272.5,270.5C 273.945,272.063 275.611,273.396 277.5,274.5C 278.936,275.429 280.269,276.595 281.5,278C 280.906,278.464 280.239,278.631 279.5,278.5C 267.834,270.332 255.834,262.666 243.5,255.5C 241.611,254.396 239.945,253.063 238.5,251.5C 241.137,249.573 244.137,249.073 247.5,250C 246.5,250.333 245.5,250.667 244.5,251C 252.31,255.981 259.977,261.147 267.5,266.5 Z"/></g>
<g><path style="opacity:1" fill="#fa5255" d="M 255.5,235.5 C 254.119,237.274 254.452,238.774 256.5,240C 260.377,241.369 264.377,242.202 268.5,242.5C 268.595,245.272 269.929,247.272 272.5,248.5C 274.834,252.354 277.001,256.354 279,260.5C 279.482,263.907 279.482,267.24 279,270.5C 279.333,270.833 279.667,271.167 280,271.5C 281.706,268.041 281.872,264.541 280.5,261C 281.227,259.601 281.727,258.101 282,256.5C 284.273,262.438 283.773,268.104 280.5,273.5C 282.7,278.435 286.366,281.769 291.5,283.5C 291.5,283.833 291.5,284.167 291.5,284.5C 290.167,284.5 288.833,284.5 287.5,284.5C 287.158,283.662 286.492,283.328 285.5,283.5C 284.415,281.413 282.749,280.08 280.5,279.5C 279.833,279.5 279.5,279.167 279.5,278.5C 280.239,278.631 280.906,278.464 281.5,278C 280.269,276.595 278.936,275.429 277.5,274.5C 277.756,272.088 276.756,270.421 274.5,269.5C 275.544,267.232 275.711,264.899 275,262.5C 270.447,252.778 263.28,245.445 253.5,240.5C 253.167,239.167 252.833,237.833 252.5,236.5C 253.391,235.89 254.391,235.557 255.5,235.5 Z"/></g>
<g><path style="opacity:1" fill="#e7edef" d="M 192.5,249.5 C 193.833,249.5 195.167,249.5 196.5,249.5C 196.186,255.463 194.186,260.796 190.5,265.5C 188.5,267.833 186.5,270.167 184.5,272.5C 183.128,273.512 181.795,274.512 180.5,275.5C 178.876,275.64 177.71,274.973 177,273.5C 176.421,269.797 176.588,266.131 177.5,262.5C 177.393,260.097 178.393,258.264 180.5,257C 184.732,254.725 188.732,252.225 192.5,249.5 Z"/></g>
<g><path style="opacity:1" fill="#f1091d" d="M 323.5,267.5 C 324.593,269.349 325.926,271.016 327.5,272.5C 328.249,277.496 326.915,277.662 323.5,273C 321.655,271.872 319.655,271.372 317.5,271.5C 317.334,276.511 317.501,281.511 318,286.5C 319.039,287.71 320.206,288.71 321.5,289.5C 321.5,289.833 321.5,290.167 321.5,290.5C 321.631,291.376 321.298,292.043 320.5,292.5C 317.122,291.386 314.122,289.719 311.5,287.5C 310.081,286.549 308.415,286.216 306.5,286.5C 306.5,285.5 306.5,284.5 306.5,283.5C 304.631,282.835 302.631,282.169 300.5,281.5C 301.101,278.757 299.767,277.424 296.5,277.5C 296.826,275.339 297.826,273.506 299.5,272C 298.132,270.66 296.799,269.326 295.5,268C 295.759,266.739 296.426,265.739 297.5,265C 300.695,264.819 303.695,264.319 306.5,263.5C 308.027,263.573 309.027,262.906 309.5,261.5C 311.06,261.481 312.56,261.148 314,260.5C 316.58,262.542 318.247,265.209 319,268.5C 320.084,266.218 321.584,265.884 323.5,267.5 Z"/></g>
<g><path style="opacity:1" fill="#7d181b" d="M 319.5,260.5 C 320.833,261.5 322.167,262.5 323.5,263.5C 324.401,264.29 325.068,265.29 325.5,266.5C 325.833,267.167 326.167,267.833 326.5,268.5C 326.833,269.833 327.167,271.167 327.5,272.5C 325.926,271.016 324.593,269.349 323.5,267.5C 322.167,265.167 320.833,262.833 319.5,260.5 Z"/></g>
<g><path style="opacity:1" fill="#42798c" d="M 199.5,241.5 C 199.643,243.262 199.309,244.929 198.5,246.5C 204.362,248.933 210.029,251.6 215.5,254.5C 206.908,260.755 198.908,267.755 191.5,275.5C 189.616,275.288 188.283,274.288 187.5,272.5C 188.833,270.5 190.167,268.5 191.5,266.5C 191.376,265.893 191.043,265.56 190.5,265.5C 194.186,260.796 196.186,255.463 196.5,249.5C 195.167,249.5 193.833,249.5 192.5,249.5C 193.919,248.549 195.585,248.216 197.5,248.5C 197.5,247.167 197.5,245.833 197.5,244.5C 198.167,243.5 198.833,242.5 199.5,241.5 Z"/></g>
<g><path style="opacity:1" fill="#77111a" d="M 306.5,255.5 C 308.975,256.687 309.975,258.687 309.5,261.5C 309.027,262.906 308.027,263.573 306.5,263.5C 303.098,263.658 299.764,263.324 296.5,262.5C 296.5,262.167 296.5,261.833 296.5,261.5C 300.146,262.283 303.812,262.45 307.5,262C 308.022,261.439 308.355,260.772 308.5,260C 307.586,258.594 306.92,257.094 306.5,255.5 Z"/></g>
<g><path style="opacity:1" fill="#fdddd1" d="M 232.5,255.5 C 235.077,255.455 237.077,256.455 238.5,258.5C 240.393,260.228 242.06,262.228 243.5,264.5C 243.062,264.435 242.728,264.601 242.5,265C 244.527,266.879 246.86,268.046 249.5,268.5C 249.343,269.873 249.51,271.207 250,272.5C 251.697,273.364 252.863,274.697 253.5,276.5C 251.274,279.164 249.608,282.164 248.5,285.5C 244.84,288.214 242.174,291.547 240.5,295.5C 231.178,295.681 225.011,291.347 222,282.5C 220.069,274.591 222.569,268.758 229.5,265C 228.328,264.581 227.328,263.915 226.5,263C 228.482,261.195 229.816,259.028 230.5,256.5C 231.167,256.167 231.833,255.833 232.5,255.5 Z"/></g>
<g><path style="opacity:1" fill="#7d999e" d="M 175.5,264.5 C 174.403,269.321 174.403,273.987 175.5,278.5C 176.002,282.693 177.002,286.693 178.5,290.5C 172.72,292.763 167.886,296.429 164,301.5C 163.333,302.833 163.333,304.167 164,305.5C 171.665,315.328 169.498,320.828 157.5,322C 154.659,325.836 155.659,328.336 160.5,329.5C 174.242,325.65 177.242,317.816 169.5,306C 169.93,304.566 170.764,303.399 172,302.5C 172.49,301.207 172.657,299.873 172.5,298.5C 174.833,298.5 177.167,298.5 179.5,298.5C 179.106,310.866 181.773,322.532 187.5,333.5C 188.72,335.284 188.72,336.95 187.5,338.5C 187.728,336.645 187.061,335.812 185.5,336C 179.167,341 172.833,346 166.5,351C 166.833,351.167 167.167,351.333 167.5,351.5C 169.071,350.691 170.738,350.357 172.5,350.5C 171.07,351.537 169.403,352.204 167.5,352.5C 165.787,353.635 165.12,355.302 165.5,357.5C 164.698,356.048 164.198,354.382 164,352.5C 158.996,358.318 152.83,359.984 145.5,357.5C 129.606,350.55 114.939,341.55 101.5,330.5C 100.265,326.148 100.432,321.814 102,317.5C 108.801,310.668 115.967,304.168 123.5,298C 141.254,287.398 158.587,276.232 175.5,264.5 Z"/></g>
<g><path style="opacity:1" fill="#dc0818" d="M 308.5,251.5 C 313.043,253.372 316.71,256.372 319.5,260.5C 320.833,262.833 322.167,265.167 323.5,267.5C 321.584,265.884 320.084,266.218 319,268.5C 318.247,265.209 316.58,262.542 314,260.5C 312.56,261.148 311.06,261.481 309.5,261.5C 309.975,258.687 308.975,256.687 306.5,255.5C 306.167,254.833 305.833,254.167 305.5,253.5C 302.763,249.015 303.763,248.348 308.5,251.5 Z"/></g>
<g><path style="opacity:0.999" fill="#60c9da" d="M 3.5,254.5 C 3.33407,259.511 3.50074,264.511 4,269.5C 6.06434,273.961 8.39768,278.294 11,282.5C 29.4676,300.468 48.9676,317.134 69.5,332.5C 76.4338,337.311 83.4338,342.144 90.5,347C 117.289,362.808 144.289,378.141 171.5,393C 173.5,393.333 175.5,393.667 177.5,394C 194.947,403.931 213.614,410.931 233.5,415C 238.155,415.499 242.821,415.666 247.5,415.5C 251.97,416.486 256.637,416.819 261.5,416.5C 261.5,446.167 261.5,475.833 261.5,505.5C 252.161,505.666 242.827,505.5 233.5,505C 210.846,497.45 188.513,489.116 166.5,480C 147.025,469.094 127.358,458.427 107.5,448C 92.4313,436.908 77.4313,425.908 62.5,415C 59.4119,414.421 56.7452,413.087 54.5,411C 55.5981,410.23 55.5981,409.397 54.5,408.5C 52.0819,405.453 49.0819,403.12 45.5,401.5C 43.5475,397.713 40.7142,394.713 37,392.5C 34.746,388.993 32.746,385.327 31,381.5C 18.2797,348.343 8.61302,314.343 2,279.5C 1.22224,270.948 1.72224,262.615 3.5,254.5 Z"/></g>
<g><path style="opacity:1" fill="#363e49" d="M 176.5,260.5 C 176.328,261.492 176.662,262.158 177.5,262.5C 176.588,266.131 176.421,269.797 177,273.5C 177.71,274.973 178.876,275.64 180.5,275.5C 178.58,276.065 176.913,277.065 175.5,278.5C 174.403,273.987 174.403,269.321 175.5,264.5C 175.232,262.901 175.566,261.568 176.5,260.5 Z"/></g>
<g><path style="opacity:1" fill="#d5d8d8" d="M 325.5,266.5 C 327.564,266.687 329.564,267.187 331.5,268C 354.431,280.283 376.098,294.283 396.5,310C 405.014,318.249 405.681,327.082 398.5,336.5C 392.355,341.647 385.688,345.98 378.5,349.5C 380.329,339.139 378.495,329.472 373,320.5C 367.306,315.895 362.14,310.728 357.5,305C 352.057,301.359 346.391,298.193 340.5,295.5C 338.176,285.182 333.509,276.182 326.5,268.5C 326.167,267.833 325.833,267.167 325.5,266.5 Z"/></g>
<g><path style="opacity:1" fill="#7a282e" d="M 211.5,261.5 C 206.973,265.605 202.64,269.939 198.5,274.5C 197.5,275.167 196.5,275.833 195.5,276.5C 199.548,270.118 204.882,265.118 211.5,261.5 Z"/></g>
<g><path style="opacity:1" fill="#f62630" d="M 296.5,262.5 C 299.764,263.324 303.098,263.658 306.5,263.5C 303.695,264.319 300.695,264.819 297.5,265C 296.426,265.739 295.759,266.739 295.5,268C 296.799,269.326 298.132,270.66 299.5,272C 297.826,273.506 296.826,275.339 296.5,277.5C 299.767,277.424 301.101,278.757 300.5,281.5C 302.631,282.169 304.631,282.835 306.5,283.5C 303.512,283.439 300.679,284.105 298,285.5C 295.774,284.967 293.607,284.3 291.5,283.5C 290.492,281.661 288.992,280.328 287,279.5C 286.691,278.234 286.191,277.067 285.5,276C 288.954,273.031 290.454,269.198 290,264.5C 291.789,262.771 293.956,262.104 296.5,262.5 Z"/></g>
<g><path style="opacity:0.999" fill="#187f92" d="M 507.5,265.5 C 508.773,281.379 508.439,297.379 506.5,313.5C 504.58,318.542 503.58,323.875 503.5,329.5C 502.138,337.203 500.638,344.87 499,352.5C 494.124,366.333 488.79,379.999 483,393.5C 477.362,401.304 470.862,408.304 463.5,414.5C 437.537,431.154 411.203,447.321 384.5,463C 376.078,467.738 367.412,472.071 358.5,476C 342.129,486.185 325.462,495.852 308.5,505C 300.841,505.5 293.174,505.666 285.5,505.5C 285.611,474.872 285.611,444.205 285.5,413.5C 296.046,411.15 306.046,407.317 315.5,402C 364.919,375.459 413.252,347.126 460.5,317C 468.806,309.849 477.473,303.182 486.5,297C 490.037,293.631 493.371,290.131 496.5,286.5C 497.794,285.71 498.961,284.71 500,283.5C 503.338,277.826 505.838,271.826 507.5,265.5 Z"/></g>
<g><path style="opacity:1" fill="#82d9e6" d="M 481.5,265.5 C 484.561,270.457 483.728,274.79 479,278.5C 478.667,280.167 478.333,281.833 478,283.5C 475.048,286.424 472.881,289.758 471.5,293.5C 473.903,293.607 475.736,292.607 477,290.5C 478.29,288.208 479.957,286.208 482,284.5C 483.009,282.975 483.509,281.308 483.5,279.5C 486.487,278.742 489.487,277.909 492.5,277C 495.922,272.195 498.256,272.695 499.5,278.5C 498.485,281.174 497.485,283.841 496.5,286.5C 493.371,290.131 490.037,293.631 486.5,297C 477.473,303.182 468.806,309.849 460.5,317C 413.252,347.126 364.919,375.459 315.5,402C 306.046,407.317 296.046,411.15 285.5,413.5C 283.236,414.219 280.903,414.552 278.5,414.5C 275.833,414.833 273.167,415.167 270.5,415.5C 267.609,416.403 264.609,416.736 261.5,416.5C 256.637,416.819 251.97,416.486 247.5,415.5C 252.789,413.289 253.789,409.789 250.5,405C 258.835,404.949 267.169,404.949 275.5,405C 276.91,404.632 277.91,403.799 278.5,402.5C 284.53,401.808 290.53,400.975 296.5,400C 299.234,399.002 300.901,397.168 301.5,394.5C 327.923,380.789 353.59,365.789 378.5,349.5C 385.688,345.98 392.355,341.647 398.5,336.5C 408.525,330.819 417.858,324.153 426.5,316.5C 443.96,307.879 459.293,296.379 472.5,282C 474.134,281.506 475.801,281.34 477.5,281.5C 479.311,276.327 480.644,270.994 481.5,265.5 Z"/></g>
<g><path style="opacity:1" fill="#842729" d="M 262.5,273.5 C 265.243,275.239 267.243,277.573 268.5,280.5C 268.167,280.5 267.833,280.5 267.5,280.5C 265.42,278.427 263.754,276.093 262.5,273.5 Z"/></g>
<g><path style="opacity:1" fill="#100101" d="M 330.5,283.5 C 331.479,286.625 331.813,289.958 331.5,293.5C 327.662,293.978 324.329,292.978 321.5,290.5C 321.5,290.167 321.5,289.833 321.5,289.5C 318.93,284.51 317.93,279.176 318.5,273.5C 319.873,273.343 321.207,273.51 322.5,274C 323.878,275.713 325.545,277.047 327.5,278C 328.609,279.876 329.609,281.709 330.5,283.5 Z"/></g>
<g><path style="opacity:1" fill="#18425e" d="M 190.5,265.5 C 191.043,265.56 191.376,265.893 191.5,266.5C 190.167,268.5 188.833,270.5 187.5,272.5C 188.283,274.288 189.616,275.288 191.5,275.5C 189.416,278.752 186.582,281.085 183,282.5C 181.925,278.933 182.758,275.933 185.5,273.5C 185.376,272.893 185.043,272.56 184.5,272.5C 186.5,270.167 188.5,267.833 190.5,265.5 Z"/></g>
<g><path style="opacity:1" fill="#0c0a11" d="M 237.5,242.5 C 237.167,243.167 236.833,243.833 236.5,244.5C 235.833,244.5 235.5,244.833 235.5,245.5C 232.695,247.756 233.028,249.423 236.5,250.5C 237.167,250.833 237.833,251.167 238.5,251.5C 239.945,253.063 241.611,254.396 243.5,255.5C 243.539,256.583 243.873,257.583 244.5,258.5C 244.043,259.298 243.376,259.631 242.5,259.5C 241.041,259.567 239.708,259.234 238.5,258.5C 237.077,256.455 235.077,255.455 232.5,255.5C 232.179,253.952 231.179,253.285 229.5,253.5C 228.594,251.086 226.928,250.253 224.5,251C 219.731,254.04 215.397,257.54 211.5,261.5C 204.882,265.118 199.548,270.118 195.5,276.5C 193.1,278.296 191.433,280.63 190.5,283.5C 184.5,292.103 182.333,301.769 184,312.5C 184.204,315.797 185.037,318.797 186.5,321.5C 186.707,324.241 187.707,326.574 189.5,328.5C 189.149,331.812 190.482,334.145 193.5,335.5C 195.755,339.759 198.422,343.759 201.5,347.5C 202.167,348.833 203.167,349.833 204.5,350.5C 206.403,353.748 208.737,356.748 211.5,359.5C 216.96,363.227 222.96,365.894 229.5,367.5C 231.746,368.455 234.079,369.122 236.5,369.5C 241.473,371.76 246.806,372.76 252.5,372.5C 257.267,373.797 261.934,373.797 266.5,372.5C 267.5,371.833 268.5,371.167 269.5,370.5C 270.045,372.369 270.045,374.036 269.5,375.5C 267.143,375.337 264.81,375.503 262.5,376C 261.944,376.383 261.611,376.883 261.5,377.5C 261.5,385.5 261.5,393.5 261.5,401.5C 259.579,393.493 257.912,385.16 256.5,376.5C 255.878,380.126 255.711,383.793 256,387.5C 255.329,386.748 254.496,386.414 253.5,386.5C 252.146,382.968 250.146,379.802 247.5,377C 227.82,373.413 211.32,364.247 198,349.5C 196.581,347.007 195.081,344.674 193.5,342.5C 193.804,341.85 194.137,341.183 194.5,340.5C 193.13,337.13 190.797,334.797 187.5,333.5C 181.773,322.532 179.106,310.866 179.5,298.5C 178.737,297.732 177.737,297.232 176.5,297C 177.973,296.29 178.64,295.124 178.5,293.5C 177.448,293.649 176.448,293.483 175.5,293C 176.938,292.781 178.271,292.281 179.5,291.5C 179.376,290.893 179.043,290.56 178.5,290.5C 177.002,286.693 176.002,282.693 175.5,278.5C 176.913,277.065 178.58,276.065 180.5,275.5C 181.795,274.512 183.128,273.512 184.5,272.5C 185.043,272.56 185.376,272.893 185.5,273.5C 182.758,275.933 181.925,278.933 183,282.5C 186.582,281.085 189.416,278.752 191.5,275.5C 198.908,267.755 206.908,260.755 215.5,254.5C 219.79,252.2 223.79,249.533 227.5,246.5C 228.778,246.218 229.778,245.551 230.5,244.5C 232.921,244.122 235.254,243.455 237.5,242.5 Z"/></g>
<g><path style="opacity:1" fill="#811f27" d="M 195.5,276.5 C 194.833,278.167 194.167,279.833 193.5,281.5C 192.5,282.167 191.5,282.833 190.5,283.5C 191.433,280.63 193.1,278.296 195.5,276.5 Z"/></g>
<g><path style="opacity:1" fill="#760915" d="M 327.5,272.5 C 329.558,274.927 331.391,277.593 333,280.5C 334.009,282.025 334.509,283.692 334.5,285.5C 333.069,284.097 331.902,282.431 331,280.5C 330.517,281.448 330.351,282.448 330.5,283.5C 329.609,281.709 328.609,279.876 327.5,278C 325.545,277.047 323.878,275.713 322.5,274C 321.207,273.51 319.873,273.343 318.5,273.5C 317.93,279.176 318.93,284.51 321.5,289.5C 320.206,288.71 319.039,287.71 318,286.5C 317.501,281.511 317.334,276.511 317.5,271.5C 319.655,271.372 321.655,271.872 323.5,273C 326.915,277.662 328.249,277.496 327.5,272.5 Z"/></g>
<g><path style="opacity:1" fill="#fd5e5a" d="M 198.5,274.5 C 199.434,275.568 199.768,276.901 199.5,278.5C 201.5,278.5 203.5,278.5 205.5,278.5C 206.302,289.794 211.135,298.794 220,305.5C 220.495,307.473 220.662,309.473 220.5,311.5C 217.956,311.896 215.789,311.229 214,309.5C 211.02,304.455 208.186,299.455 205.5,294.5C 205.67,290.356 205.003,286.356 203.5,282.5C 200.932,281.132 198.599,281.466 196.5,283.5C 195.749,282.624 195.249,281.624 195,280.5C 194.617,281.056 194.117,281.389 193.5,281.5C 194.167,279.833 194.833,278.167 195.5,276.5C 196.5,275.833 197.5,275.167 198.5,274.5 Z"/></g>
<g><path style="opacity:1" fill="#6a141e" d="M 280.5,279.5 C 282.749,280.08 284.415,281.413 285.5,283.5C 283.251,282.92 281.585,281.587 280.5,279.5 Z"/></g>
<g><path style="opacity:1" fill="#f0383d" d="M 205.5,294.5 C 202.706,292.181 200.872,289.181 200,285.5C 198.644,284.62 197.144,284.286 195.5,284.5C 195.567,285.959 195.234,287.292 194.5,288.5C 194.167,288.5 193.833,288.5 193.5,288.5C 193.44,287.957 193.107,287.624 192.5,287.5C 187.412,292.599 185.412,298.765 186.5,306C 186.667,309.167 186.833,312.333 187,315.5C 189.118,319.974 190.618,324.64 191.5,329.5C 190.833,329.167 190.167,328.833 189.5,328.5C 187.707,326.574 186.707,324.241 186.5,321.5C 185.456,312.861 185.289,304.194 186,295.5C 187.322,291.376 188.822,287.376 190.5,283.5C 191.5,282.833 192.5,282.167 193.5,281.5C 194.117,281.389 194.617,281.056 195,280.5C 195.249,281.624 195.749,282.624 196.5,283.5C 198.599,281.466 200.932,281.132 203.5,282.5C 205.003,286.356 205.67,290.356 205.5,294.5 Z"/></g>
<g><path style="opacity:1" fill="#110409" d="M 243.5,255.5 C 255.834,262.666 267.834,270.332 279.5,278.5C 279.5,279.167 279.833,279.5 280.5,279.5C 281.585,281.587 283.251,282.92 285.5,283.5C 286.492,283.328 287.158,283.662 287.5,284.5C 290.45,287.808 294.116,289.808 298.5,290.5C 301.24,292.56 304.24,294.226 307.5,295.5C 309.133,297.644 311.133,299.311 313.5,300.5C 310.203,298.614 307.703,299.281 306,302.5C 304.706,301.146 304.54,299.812 305.5,298.5C 304.38,296.404 302.88,296.07 301,297.5C 300.667,299.833 300.333,302.167 300,304.5C 296.211,296.44 289.877,292.44 281,292.5C 280.506,294.134 280.34,295.801 280.5,297.5C 278.833,294.833 277.167,292.167 275.5,289.5C 274.306,285.637 271.973,282.637 268.5,280.5C 267.243,277.573 265.243,275.239 262.5,273.5C 261.833,272.167 260.833,271.167 259.5,270.5C 258.5,269.833 257.5,269.167 256.5,268.5C 251.797,265.486 247.13,262.486 242.5,259.5C 243.376,259.631 244.043,259.298 244.5,258.5C 243.873,257.583 243.539,256.583 243.5,255.5 Z"/></g>
<g><path style="opacity:1" fill="#a72732" d="M 287.5,284.5 C 288.833,284.5 290.167,284.5 291.5,284.5C 294.888,285.348 297.221,287.348 298.5,290.5C 294.116,289.808 290.45,287.808 287.5,284.5 Z"/></g>
<g><path style="opacity:1" fill="#f65154" d="M 267.5,280.5 C 267.833,280.5 268.167,280.5 268.5,280.5C 271.973,282.637 274.306,285.637 275.5,289.5C 273.695,288.763 272.029,287.763 270.5,286.5C 269.672,290.796 269.172,295.129 269,299.5C 266.337,305.174 262.503,310.007 257.5,314C 253.345,315.098 249.678,316.932 246.5,319.5C 246.833,318.167 247.167,316.833 247.5,315.5C 248.434,314.432 248.768,313.099 248.5,311.5C 251.518,311.665 254.518,311.498 257.5,311C 262.667,306.792 265.834,301.292 267,294.5C 267.081,289.643 267.248,284.977 267.5,280.5 Z"/></g>
<g><path style="opacity:1" fill="#fda69a" d="M 212.5,267.5 C 212.897,274.646 214.23,281.646 216.5,288.5C 218.442,292.182 220.942,295.515 224,298.5C 224.813,300.436 225.313,302.436 225.5,304.5C 224.833,305.833 223.833,306.833 222.5,307.5C 222.579,306.07 222.246,304.736 221.5,303.5C 215.843,299.515 212.177,294.182 210.5,287.5C 209.338,282.533 209.171,277.533 210,272.5C 210.757,270.685 211.59,269.019 212.5,267.5 Z"/></g>
<g><path style="opacity:1" fill="#d61222" d="M 291.5,284.5 C 291.5,284.167 291.5,283.833 291.5,283.5C 293.607,284.3 295.774,284.967 298,285.5C 300.679,284.105 303.512,283.439 306.5,283.5C 306.5,284.5 306.5,285.5 306.5,286.5C 308.415,286.216 310.081,286.549 311.5,287.5C 311.217,289.441 309.883,291.107 307.5,292.5C 309.977,293.88 309.977,294.88 307.5,295.5C 304.24,294.226 301.24,292.56 298.5,290.5C 297.221,287.348 294.888,285.348 291.5,284.5 Z"/></g>
<g><path style="opacity:1" fill="#8adbe3" d="M 67.5,306.5 C 69.1667,306.5 70.8333,306.5 72.5,306.5C 71.6971,307.423 71.5304,308.423 72,309.5C 79.1124,314.978 85.9457,320.811 92.5,327C 96.0662,327.7 98.8995,329.533 101,332.5C 101.464,331.906 101.631,331.239 101.5,330.5C 114.939,341.55 129.606,350.55 145.5,357.5C 146.574,358.885 147.907,360.051 149.5,361C 159.786,365.809 169.786,371.143 179.5,377C 194.598,384.143 209.598,391.477 224.5,399C 234.679,401.21 245.013,402.377 255.5,402.5C 257.735,402.795 259.735,402.461 261.5,401.5C 261.833,401.5 262.167,401.5 262.5,401.5C 271.563,401.877 280.229,400.544 288.5,397.5C 292.725,396.121 297.058,395.121 301.5,394.5C 300.901,397.168 299.234,399.002 296.5,400C 290.53,400.975 284.53,401.808 278.5,402.5C 277.91,403.799 276.91,404.632 275.5,405C 267.169,404.949 258.835,404.949 250.5,405C 253.789,409.789 252.789,413.289 247.5,415.5C 242.821,415.666 238.155,415.499 233.5,415C 213.614,410.931 194.947,403.931 177.5,394C 175.5,393.667 173.5,393.333 171.5,393C 144.289,378.141 117.289,362.808 90.5,347C 83.4338,342.144 76.4338,337.311 69.5,332.5C 70.209,331.596 71.209,331.263 72.5,331.5C 72.6602,329.801 72.4935,328.134 72,326.5C 66.5954,321.218 61.0954,316.051 55.5,311C 46.1245,305.46 37.7912,298.626 30.5,290.5C 31.723,289.386 33.0563,289.219 34.5,290C 36.4897,292.988 38.8231,295.655 41.5,298C 50.5458,303.191 58.8792,309.358 66.5,316.5C 71.5044,313.778 71.8377,310.445 67.5,306.5 Z"/></g>
<g><path style="opacity:1" fill="#fdc0b7" d="M 229.5,253.5 C 231.179,253.285 232.179,253.952 232.5,255.5C 231.833,255.833 231.167,256.167 230.5,256.5C 227.069,257.76 223.735,259.26 220.5,261C 219.949,263.355 218.615,265.688 216.5,268C 217.073,272.198 217.573,276.698 218,281.5C 221.715,288.174 225.882,294.508 230.5,300.5C 230.5,300.833 230.5,301.167 230.5,301.5C 228.589,302.075 226.922,303.075 225.5,304.5C 225.313,302.436 224.813,300.436 224,298.5C 220.942,295.515 218.442,292.182 216.5,288.5C 214.23,281.646 212.897,274.646 212.5,267.5C 215.693,259.985 221.36,255.319 229.5,253.5 Z"/></g>
<g><path style="opacity:1" fill="#fb7d73" d="M 259.5,270.5 C 260.833,271.167 261.833,272.167 262.5,273.5C 263.754,276.093 265.42,278.427 267.5,280.5C 267.248,284.977 267.081,289.643 267,294.5C 265.834,301.292 262.667,306.792 257.5,311C 254.518,311.498 251.518,311.665 248.5,311.5C 248.768,313.099 248.434,314.432 247.5,315.5C 247.5,313.167 247.5,310.833 247.5,308.5C 253.884,305.653 259.384,301.319 264,295.5C 264.446,292.657 264.946,289.824 265.5,287C 265.1,284.785 264.1,282.952 262.5,281.5C 260.624,278.079 259.624,274.412 259.5,270.5 Z"/></g>
<g><path style="opacity:1" fill="#ac0b1c" d="M 334.5,285.5 C 336.001,294.385 337.335,303.219 338.5,312C 338.333,314.833 338.167,317.667 338,320.5C 337.329,319.748 336.496,319.414 335.5,319.5C 335.5,318.5 335.5,317.5 335.5,316.5C 336.175,309.41 335.341,302.41 333,295.5C 327.872,297.053 322.706,297.553 317.5,297C 318.982,298.983 320.649,300.816 322.5,302.5C 322.376,303.107 322.043,303.44 321.5,303.5C 319.579,302.637 317.579,301.971 315.5,301.5C 315.158,300.662 314.492,300.328 313.5,300.5C 311.133,299.311 309.133,297.644 307.5,295.5C 309.977,294.88 309.977,293.88 307.5,292.5C 309.883,291.107 311.217,289.441 311.5,287.5C 314.122,289.719 317.122,291.386 320.5,292.5C 321.298,292.043 321.631,291.376 321.5,290.5C 324.329,292.978 327.662,293.978 331.5,293.5C 331.813,289.958 331.479,286.625 330.5,283.5C 330.351,282.448 330.517,281.448 331,280.5C 331.902,282.431 333.069,284.097 334.5,285.5 Z"/></g>
<g><path style="opacity:1" fill="#fba196" d="M 256.5,268.5 C 257.5,269.167 258.5,269.833 259.5,270.5C 259.624,274.412 260.624,278.079 262.5,281.5C 262.661,284.528 261.994,287.361 260.5,290C 256.689,295.145 252.189,299.645 247,303.5C 246.517,304.448 246.351,305.448 246.5,306.5C 244.833,305.5 243.5,304.167 242.5,302.5C 251.498,296.152 256.832,287.486 258.5,276.5C 258.41,273.664 257.743,270.997 256.5,268.5 Z"/></g>
<g><path style="opacity:1" fill="#f98277" d="M 229.5,253.5 C 221.36,255.319 215.693,259.985 212.5,267.5C 211.59,269.019 210.757,270.685 210,272.5C 209.171,277.533 209.338,282.533 210.5,287.5C 212.177,294.182 215.843,299.515 221.5,303.5C 222.246,304.736 222.579,306.07 222.5,307.5C 222.5,308.167 222.5,308.833 222.5,309.5C 221.662,309.842 221.328,310.508 221.5,311.5C 221.167,311.5 220.833,311.5 220.5,311.5C 220.662,309.473 220.495,307.473 220,305.5C 211.135,298.794 206.302,289.794 205.5,278.5C 203.5,278.5 201.5,278.5 199.5,278.5C 199.768,276.901 199.434,275.568 198.5,274.5C 202.64,269.939 206.973,265.605 211.5,261.5C 215.397,257.54 219.731,254.04 224.5,251C 226.928,250.253 228.594,251.086 229.5,253.5 Z"/></g>
<g><path style="opacity:1" fill="#fdcdc3" d="M 230.5,256.5 C 229.816,259.028 228.482,261.195 226.5,263C 227.328,263.915 228.328,264.581 229.5,265C 222.569,268.758 220.069,274.591 222,282.5C 225.011,291.347 231.178,295.681 240.5,295.5C 242.174,291.547 244.84,288.214 248.5,285.5C 249.608,282.164 251.274,279.164 253.5,276.5C 252.863,274.697 251.697,273.364 250,272.5C 249.51,271.207 249.343,269.873 249.5,268.5C 246.86,268.046 244.527,266.879 242.5,265C 242.728,264.601 243.062,264.435 243.5,264.5C 247.085,266.315 250.752,267.982 254.5,269.5C 255.552,271.542 256.219,273.708 256.5,276C 253.961,280.96 251.794,286.127 250,291.5C 246.944,294.726 243.777,297.726 240.5,300.5C 237.167,299.167 233.833,299.167 230.5,300.5C 225.882,294.508 221.715,288.174 218,281.5C 217.573,276.698 217.073,272.198 216.5,268C 218.615,265.688 219.949,263.355 220.5,261C 223.735,259.26 227.069,257.76 230.5,256.5 Z"/></g>
<g><path style="opacity:1" fill="#801428" d="M 275.5,289.5 C 277.167,292.167 278.833,294.833 280.5,297.5C 280.629,299.216 280.962,300.883 281.5,302.5C 279.13,298.414 277.13,294.081 275.5,289.5 Z"/></g>
<g><path style="opacity:1" fill="#291115" d="M 326.5,268.5 C 333.509,276.182 338.176,285.182 340.5,295.5C 340.5,296.5 340.5,297.5 340.5,298.5C 340.825,305.687 340.491,312.687 339.5,319.5C 339.666,312.825 339.5,306.158 339,299.5C 338.304,294.45 336.804,289.784 334.5,285.5C 334.509,283.692 334.009,282.025 333,280.5C 331.391,277.593 329.558,274.927 327.5,272.5C 327.167,271.167 326.833,269.833 326.5,268.5 Z"/></g>
<g><path style="opacity:1" fill="#030311" d="M 313.5,300.5 C 314.492,300.328 315.158,300.662 315.5,301.5C 317.8,303.984 320.467,305.984 323.5,307.5C 327.543,311.509 331.543,315.509 335.5,319.5C 336.68,321.014 337.68,322.681 338.5,324.5C 339.452,322.955 339.785,321.288 339.5,319.5C 340.491,312.687 340.825,305.687 340.5,298.5C 341.924,300.515 342.59,302.848 342.5,305.5C 342.5,310.167 342.5,314.833 342.5,319.5C 344.167,319.5 345.833,319.5 347.5,319.5C 353.608,319.383 357.942,322.05 360.5,327.5C 360.291,328.086 359.957,328.586 359.5,329C 352.551,330.572 346.718,328.739 342,323.5C 338.55,337.567 332.05,350.067 322.5,361C 312.468,368.016 301.468,372.849 289.5,375.5C 287.143,375.663 284.81,375.497 282.5,375C 285.101,374.08 287.768,373.413 290.5,373C 288.167,372.667 285.833,372.333 283.5,372C 286.457,371.721 289.123,370.887 291.5,369.5C 299.076,366.049 306.743,362.549 314.5,359C 325.268,351.254 332.434,341.088 336,328.5C 330.262,339.164 322.762,348.33 313.5,356C 301.245,363.557 287.912,368.057 273.5,369.5C 272.833,369.833 272.167,370.167 271.5,370.5C 273.045,371.452 274.712,371.785 276.5,371.5C 277.952,372.302 279.618,372.802 281.5,373C 277.598,374.249 273.598,375.082 269.5,375.5C 270.045,374.036 270.045,372.369 269.5,370.5C 270.6,369.395 271.267,368.062 271.5,366.5C 275.597,361.516 278.764,355.849 281,349.5C 282.011,350.337 283.178,350.67 284.5,350.5C 284.664,347.813 284.497,345.146 284,342.5C 283.237,345.063 282.737,345.063 282.5,342.5C 282.556,341.263 283.056,340.263 284,339.5C 284.825,329.658 284.658,319.991 283.5,310.5C 283.405,308.214 282.738,306.214 281.5,304.5C 281.5,303.833 281.5,303.167 281.5,302.5C 280.962,300.883 280.629,299.216 280.5,297.5C 280.34,295.801 280.506,294.134 281,292.5C 289.877,292.44 296.211,296.44 300,304.5C 300.333,302.167 300.667,299.833 301,297.5C 302.88,296.07 304.38,296.404 305.5,298.5C 304.54,299.812 304.706,301.146 306,302.5C 307.703,299.281 310.203,298.614 313.5,300.5 Z"/></g>
<g><path style="opacity:1" fill="#890115" d="M 335.5,316.5 C 333.416,314.224 331.916,311.557 331,308.5C 330.612,309.428 329.945,310.095 329,310.5C 327.269,309.259 325.436,308.259 323.5,307.5C 322.4,306.395 321.733,305.062 321.5,303.5C 322.043,303.44 322.376,303.107 322.5,302.5C 320.649,300.816 318.982,298.983 317.5,297C 322.706,297.553 327.872,297.053 333,295.5C 335.341,302.41 336.175,309.41 335.5,316.5 Z"/></g>
<g><path style="opacity:1" fill="#7d999f" d="M 340.5,295.5 C 346.391,298.193 352.057,301.359 357.5,305C 362.14,310.728 367.306,315.895 373,320.5C 378.495,329.472 380.329,339.139 378.5,349.5C 353.59,365.789 327.923,380.789 301.5,394.5C 297.058,395.121 292.725,396.121 288.5,397.5C 280.6,394.811 272.434,392.478 264,390.5C 263.722,391.416 263.222,392.082 262.5,392.5C 262.5,387.833 262.5,383.167 262.5,378.5C 268.358,378.822 274.025,378.489 279.5,377.5C 282.983,376.99 286.316,376.323 289.5,375.5C 301.468,372.849 312.468,368.016 322.5,361C 332.05,350.067 338.55,337.567 342,323.5C 346.718,328.739 352.551,330.572 359.5,329C 359.957,328.586 360.291,328.086 360.5,327.5C 357.942,322.05 353.608,319.383 347.5,319.5C 346.432,318.566 345.099,318.232 343.5,318.5C 343.818,313.968 343.485,309.634 342.5,305.5C 342.59,302.848 341.924,300.515 340.5,298.5C 340.5,297.5 340.5,296.5 340.5,295.5 Z"/></g>
<g><path style="opacity:1" fill="#fab6ac" d="M 238.5,258.5 C 239.708,259.234 241.041,259.567 242.5,259.5C 247.13,262.486 251.797,265.486 256.5,268.5C 257.743,270.997 258.41,273.664 258.5,276.5C 256.832,287.486 251.498,296.152 242.5,302.5C 241.5,302.167 240.833,301.5 240.5,300.5C 243.777,297.726 246.944,294.726 250,291.5C 251.794,286.127 253.961,280.96 256.5,276C 256.219,273.708 255.552,271.542 254.5,269.5C 250.752,267.982 247.085,266.315 243.5,264.5C 242.06,262.228 240.393,260.228 238.5,258.5 Z"/></g>
<g><path style="opacity:1" fill="#fe9487" d="M 262.5,281.5 C 264.1,282.952 265.1,284.785 265.5,287C 264.946,289.824 264.446,292.657 264,295.5C 259.384,301.319 253.884,305.653 247.5,308.5C 247.167,308.5 246.833,308.5 246.5,308.5C 246.5,307.833 246.5,307.167 246.5,306.5C 246.351,305.448 246.517,304.448 247,303.5C 252.189,299.645 256.689,295.145 260.5,290C 261.994,287.361 262.661,284.528 262.5,281.5 Z"/></g>
<g><path style="opacity:1" fill="#ed1125" d="M 193.5,288.5 C 193.833,288.5 194.167,288.5 194.5,288.5C 195.794,289.29 196.961,290.29 198,291.5C 198.333,294.5 198.667,297.5 199,300.5C 202.777,303.724 205.277,307.724 206.5,312.5C 207.873,312.343 209.207,312.51 210.5,313C 212.452,315.074 214.285,317.241 216,319.5C 216.667,318.833 217.333,318.167 218,317.5C 218.671,318.252 219.504,318.586 220.5,318.5C 220.34,320.199 220.506,321.866 221,323.5C 223.4,325.415 225.9,327.081 228.5,328.5C 232.182,328.665 235.848,328.499 239.5,328C 240.381,327.292 241.047,326.458 241.5,325.5C 241.833,325.5 242.167,325.5 242.5,325.5C 242.833,325.5 243.167,325.5 243.5,325.5C 244.5,325.5 245.5,325.5 246.5,325.5C 246.5,324.5 246.5,323.5 246.5,322.5C 250.509,322.961 254.176,322.128 257.5,320C 259.5,318 261.5,316 263.5,314C 263.167,313.667 262.833,313.333 262.5,313C 265.018,311.498 267.518,309.998 270,308.5C 271.615,304.386 273.948,300.72 277,297.5C 277.129,300.003 278.129,302.003 280,303.5C 280.259,306.587 280.759,309.587 281.5,312.5C 281.82,315.898 281.487,319.232 280.5,322.5C 271.337,328.296 261.671,332.962 251.5,336.5C 247.036,333.556 242.536,333.223 238,335.5C 230.246,335.878 223.412,333.711 217.5,329C 212.859,328.181 208.525,326.514 204.5,324C 201.538,322.436 198.538,322.269 195.5,323.5C 194.304,323.154 194.304,322.654 195.5,322C 194.552,321.517 193.552,321.351 192.5,321.5C 192.852,318.927 192.352,316.594 191,314.5C 190.536,315.094 190.369,315.761 190.5,316.5C 189.347,310.681 189.181,304.681 190,298.5C 191.727,295.366 192.894,292.033 193.5,288.5 Z"/></g>
<g><path style="opacity:1" fill="#504f62" d="M 240.5,300.5 C 240.833,301.5 241.5,302.167 242.5,302.5C 243.5,304.167 244.833,305.5 246.5,306.5C 246.5,307.167 246.5,307.833 246.5,308.5C 246.5,309.167 246.5,309.833 246.5,310.5C 246.167,310.5 245.833,310.5 245.5,310.5C 243.308,302.997 238.308,299.997 230.5,301.5C 230.5,301.167 230.5,300.833 230.5,300.5C 233.833,299.167 237.167,299.167 240.5,300.5 Z"/></g>
<g><path style="opacity:1" fill="#6b091f" d="M 315.5,301.5 C 317.579,301.971 319.579,302.637 321.5,303.5C 321.733,305.062 322.4,306.395 323.5,307.5C 320.467,305.984 317.8,303.984 315.5,301.5 Z"/></g>
<g><path style="opacity:1" fill="#51434d" d="M 230.5,301.5 C 228.5,303.833 226.5,306.167 224.5,308.5C 223.833,308.833 223.167,309.167 222.5,309.5C 222.5,308.833 222.5,308.167 222.5,307.5C 223.833,306.833 224.833,305.833 225.5,304.5C 226.922,303.075 228.589,302.075 230.5,301.5 Z"/></g>
<g><path style="opacity:1" fill="#0f1721" d="M 178.5,290.5 C 179.043,290.56 179.376,290.893 179.5,291.5C 178.271,292.281 176.938,292.781 175.5,293C 176.448,293.483 177.448,293.649 178.5,293.5C 178.64,295.124 177.973,296.29 176.5,297C 177.737,297.232 178.737,297.732 179.5,298.5C 177.167,298.5 174.833,298.5 172.5,298.5C 172.657,299.873 172.49,301.207 172,302.5C 170.764,303.399 169.93,304.566 169.5,306C 177.242,317.816 174.242,325.65 160.5,329.5C 155.659,328.336 154.659,325.836 157.5,322C 169.498,320.828 171.665,315.328 164,305.5C 163.333,304.167 163.333,302.833 164,301.5C 167.886,296.429 172.72,292.763 178.5,290.5 Z"/></g>
<g><path style="opacity:1" fill="#780d1d" d="M 334.5,285.5 C 336.804,289.784 338.304,294.45 339,299.5C 339.5,306.158 339.666,312.825 339.5,319.5C 339.785,321.288 339.452,322.955 338.5,324.5C 337.68,322.681 336.68,321.014 335.5,319.5C 336.496,319.414 337.329,319.748 338,320.5C 338.167,317.667 338.333,314.833 338.5,312C 337.335,303.219 336.001,294.385 334.5,285.5 Z"/></g>
<g><path style="opacity:1" fill="#790911" d="M 190.5,283.5 C 188.822,287.376 187.322,291.376 186,295.5C 185.289,304.194 185.456,312.861 186.5,321.5C 185.037,318.797 184.204,315.797 184,312.5C 182.333,301.769 184.5,292.103 190.5,283.5 Z"/></g>
<g><path style="opacity:1" fill="#184761" d="M 230.5,301.5 C 238.308,299.997 243.308,302.997 245.5,310.5C 245.5,311.5 245.5,312.5 245.5,313.5C 240.821,313.666 236.155,313.499 231.5,313C 228.686,311.946 226.353,310.446 224.5,308.5C 226.5,306.167 228.5,303.833 230.5,301.5 Z"/></g>
<g><path style="opacity:1" fill="#69061a" d="M 323.5,307.5 C 325.436,308.259 327.269,309.259 329,310.5C 329.945,310.095 330.612,309.428 331,308.5C 331.916,311.557 333.416,314.224 335.5,316.5C 335.5,317.5 335.5,318.5 335.5,319.5C 331.543,315.509 327.543,311.509 323.5,307.5 Z"/></g>
<g><path style="opacity:1" fill="#fd2833" d="M 205.5,294.5 C 208.186,299.455 211.02,304.455 214,309.5C 215.789,311.229 217.956,311.896 220.5,311.5C 220.5,313.833 220.5,316.167 220.5,318.5C 219.504,318.586 218.671,318.252 218,317.5C 217.333,318.167 216.667,318.833 216,319.5C 214.285,317.241 212.452,315.074 210.5,313C 209.207,312.51 207.873,312.343 206.5,312.5C 205.277,307.724 202.777,303.724 199,300.5C 198.667,297.5 198.333,294.5 198,291.5C 196.961,290.29 195.794,289.29 194.5,288.5C 195.234,287.292 195.567,285.959 195.5,284.5C 197.144,284.286 198.644,284.62 200,285.5C 200.872,289.181 202.706,292.181 205.5,294.5 Z"/></g>
<g><path style="opacity:1" fill="#090d1f" d="M 224.5,308.5 C 226.353,310.446 228.686,311.946 231.5,313C 236.155,313.499 240.821,313.666 245.5,313.5C 245.5,312.5 245.5,311.5 245.5,310.5C 245.833,310.5 246.167,310.5 246.5,310.5C 246.374,315.87 245.041,320.87 242.5,325.5C 242.167,325.5 241.833,325.5 241.5,325.5C 237.435,327.278 233.101,327.945 228.5,327.5C 226.833,326.5 225.5,325.167 224.5,323.5C 223.063,318.972 222.396,314.306 222.5,309.5C 223.167,309.167 223.833,308.833 224.5,308.5 Z"/></g>
<g><path style="opacity:1" fill="#2f0414" d="M 222.5,309.5 C 222.396,314.306 223.063,318.972 224.5,323.5C 223.21,322.942 222.377,321.942 222,320.5C 221.502,317.518 221.335,314.518 221.5,311.5C 221.328,310.508 221.662,309.842 222.5,309.5 Z"/></g>
<g><path style="opacity:1" fill="#a5162c" d="M 281.5,304.5 C 282.738,306.214 283.405,308.214 283.5,310.5C 283.666,318.507 283.5,326.507 283,334.5C 282.722,335.416 282.222,336.082 281.5,336.5C 282.092,333.873 282.425,331.206 282.5,328.5C 282.5,323.167 282.5,317.833 282.5,312.5C 282.167,309.833 281.833,307.167 281.5,304.5 Z"/></g>
<g><path style="opacity:1" fill="#263341" d="M 342.5,305.5 C 343.485,309.634 343.818,313.968 343.5,318.5C 345.099,318.232 346.432,318.566 347.5,319.5C 345.833,319.5 344.167,319.5 342.5,319.5C 342.5,314.833 342.5,310.167 342.5,305.5 Z"/></g>
<g><path style="opacity:1" fill="#fa333f" d="M 275.5,289.5 C 277.13,294.081 279.13,298.414 281.5,302.5C 281.5,303.167 281.5,303.833 281.5,304.5C 281.833,307.167 282.167,309.833 282.5,312.5C 282.167,312.5 281.833,312.5 281.5,312.5C 280.759,309.587 280.259,306.587 280,303.5C 278.129,302.003 277.129,300.003 277,297.5C 273.948,300.72 271.615,304.386 270,308.5C 267.518,309.998 265.018,311.498 262.5,313C 262.833,313.333 263.167,313.667 263.5,314C 261.5,316 259.5,318 257.5,320C 254.176,322.128 250.509,322.961 246.5,322.5C 246.5,323.5 246.5,324.5 246.5,325.5C 245.5,325.5 244.5,325.5 243.5,325.5C 245.025,323.784 246.025,321.784 246.5,319.5C 249.678,316.932 253.345,315.098 257.5,314C 262.503,310.007 266.337,305.174 269,299.5C 269.172,295.129 269.672,290.796 270.5,286.5C 272.029,287.763 273.695,288.763 275.5,289.5 Z"/></g>
<g><path style="opacity:0.256" fill="#8aaeb8" d="M 506.5,313.5 C 506.63,317.868 506.297,322.202 505.5,326.5C 505.36,328.03 504.693,329.03 503.5,329.5C 503.58,323.875 504.58,318.542 506.5,313.5 Z"/></g>
<g><path style="opacity:1" fill="#a91127" d="M 220.5,311.5 C 220.833,311.5 221.167,311.5 221.5,311.5C 221.335,314.518 221.502,317.518 222,320.5C 222.377,321.942 223.21,322.942 224.5,323.5C 225.5,325.167 226.833,326.5 228.5,327.5C 228.5,327.833 228.5,328.167 228.5,328.5C 225.9,327.081 223.4,325.415 221,323.5C 220.506,321.866 220.34,320.199 220.5,318.5C 220.5,316.167 220.5,313.833 220.5,311.5 Z"/></g>
<g><path style="opacity:1" fill="#8b292c" d="M 246.5,308.5 C 246.833,308.5 247.167,308.5 247.5,308.5C 247.5,310.833 247.5,313.167 247.5,315.5C 247.167,316.833 246.833,318.167 246.5,319.5C 246.025,321.784 245.025,323.784 243.5,325.5C 243.167,325.5 242.833,325.5 242.5,325.5C 245.041,320.87 246.374,315.87 246.5,310.5C 246.5,309.833 246.5,309.167 246.5,308.5 Z"/></g>
<g><path style="opacity:1" fill="#071727" d="M 285.5,294.5 C 286.873,294.343 288.207,294.51 289.5,295C 298.1,305.537 303.767,317.537 306.5,331C 306.357,333.151 305.357,334.818 303.5,336C 298.422,337.448 293.422,337.948 288.5,337.5C 287.784,328.525 287.284,319.525 287,310.5C 286.082,305.902 284.916,301.402 283.5,297C 284.381,296.292 285.047,295.458 285.5,294.5 Z"/></g>
<g><path style="opacity:1" fill="#0c2133" d="M 288.5,308.5 C 290.806,308.993 293.139,309.326 295.5,309.5C 295.351,310.552 295.517,311.552 296,312.5C 301.513,316.553 303.346,321.886 301.5,328.5C 298.081,328.329 294.581,328.663 291,329.5C 288.836,322.688 288.003,315.688 288.5,308.5 Z"/></g>
<g><path style="opacity:1" fill="#621217" d="M 189.5,328.5 C 190.167,328.833 190.833,329.167 191.5,329.5C 191.704,331.685 192.37,333.685 193.5,335.5C 190.482,334.145 189.149,331.812 189.5,328.5 Z"/></g>
<g><path style="opacity:1" fill="#38484e" d="M 291.5,369.5 C 286.5,370.167 281.5,370.833 276.5,371.5C 274.712,371.785 273.045,371.452 271.5,370.5C 272.167,370.167 272.833,369.833 273.5,369.5C 287.912,368.057 301.245,363.557 313.5,356C 322.762,348.33 330.262,339.164 336,328.5C 332.434,341.088 325.268,351.254 314.5,359C 306.743,362.549 299.076,366.049 291.5,369.5 Z"/></g>
<g><path style="opacity:1" fill="#ccd0d0" d="M 187.5,338.5 C 185.445,340.555 183.779,342.888 182.5,345.5C 179.101,347.199 175.768,348.866 172.5,350.5C 170.738,350.357 169.071,350.691 167.5,351.5C 167.167,351.333 166.833,351.167 166.5,351C 172.833,346 179.167,341 185.5,336C 187.061,335.812 187.728,336.645 187.5,338.5 Z"/></g>
<g><path style="opacity:1" fill="#d4041b" d="M 281.5,312.5 C 281.833,312.5 282.167,312.5 282.5,312.5C 282.5,317.833 282.5,323.167 282.5,328.5C 281.732,329.263 281.232,330.263 281,331.5C 280.439,330.978 279.772,330.645 279,330.5C 273.797,332.999 268.631,335.499 263.5,338C 250.148,343.143 236.815,344.143 223.5,341C 220.833,339 218.167,337 215.5,335C 212.533,333.3 209.367,332.133 206,331.5C 202.078,332.208 200.578,334.541 201.5,338.5C 195.207,332.581 191.54,325.247 190.5,316.5C 190.369,315.761 190.536,315.094 191,314.5C 192.352,316.594 192.852,318.927 192.5,321.5C 193.552,321.351 194.552,321.517 195.5,322C 194.304,322.654 194.304,323.154 195.5,323.5C 198.538,322.269 201.538,322.436 204.5,324C 208.525,326.514 212.859,328.181 217.5,329C 223.412,333.711 230.246,335.878 238,335.5C 242.536,333.223 247.036,333.556 251.5,336.5C 261.671,332.962 271.337,328.296 280.5,322.5C 281.487,319.232 281.82,315.898 281.5,312.5 Z"/></g>
<g><path style="opacity:1" fill="#49020c" d="M 241.5,325.5 C 241.047,326.458 240.381,327.292 239.5,328C 235.848,328.499 232.182,328.665 228.5,328.5C 228.5,328.167 228.5,327.833 228.5,327.5C 233.101,327.945 237.435,327.278 241.5,325.5 Z"/></g>
<g><path style="opacity:1" fill="#bd0116" d="M 282.5,328.5 C 282.425,331.206 282.092,333.873 281.5,336.5C 281.5,336.833 281.5,337.167 281.5,337.5C 280.857,339.076 279.857,340.41 278.5,341.5C 277.883,341.611 277.383,341.944 277,342.5C 275.981,341.313 274.814,340.313 273.5,339.5C 262.892,346.578 251.392,350.578 239,351.5C 234.486,351.123 229.986,350.623 225.5,350C 219.482,343.958 212.482,341.458 204.5,342.5C 203.026,341.564 202.026,340.23 201.5,338.5C 200.578,334.541 202.078,332.208 206,331.5C 209.367,332.133 212.533,333.3 215.5,335C 218.167,337 220.833,339 223.5,341C 236.815,344.143 250.148,343.143 263.5,338C 268.631,335.499 273.797,332.999 279,330.5C 279.772,330.645 280.439,330.978 281,331.5C 281.232,330.263 281.732,329.263 282.5,328.5 Z"/></g>
<g><path style="opacity:1" fill="#f3525d" d="M 193.5,288.5 C 192.894,292.033 191.727,295.366 190,298.5C 189.181,304.681 189.347,310.681 190.5,316.5C 191.54,325.247 195.207,332.581 201.5,338.5C 202.026,340.23 203.026,341.564 204.5,342.5C 209.251,348.587 214.918,353.587 221.5,357.5C 221.44,358.043 221.107,358.376 220.5,358.5C 214.371,354.346 208.038,350.68 201.5,347.5C 198.422,343.759 195.755,339.759 193.5,335.5C 192.37,333.685 191.704,331.685 191.5,329.5C 190.618,324.64 189.118,319.974 187,315.5C 186.833,312.333 186.667,309.167 186.5,306C 185.412,298.765 187.412,292.599 192.5,287.5C 193.107,287.624 193.44,287.957 193.5,288.5 Z"/></g>
<g><path style="opacity:1" fill="#07080f" d="M 187.5,333.5 C 190.797,334.797 193.13,337.13 194.5,340.5C 194.137,341.183 193.804,341.85 193.5,342.5C 192.217,346.489 189.55,349.155 185.5,350.5C 184.36,348.955 183.36,347.288 182.5,345.5C 183.779,342.888 185.445,340.555 187.5,338.5C 188.72,336.95 188.72,335.284 187.5,333.5 Z"/></g>
<g><path style="opacity:1" fill="#25080f" d="M 283.5,310.5 C 284.658,319.991 284.825,329.658 284,339.5C 283.056,340.263 282.556,341.263 282.5,342.5C 282.737,345.063 283.237,345.063 284,342.5C 284.497,345.146 284.664,347.813 284.5,350.5C 283.178,350.67 282.011,350.337 281,349.5C 278.764,355.849 275.597,361.516 271.5,366.5C 271.833,365.167 272.167,363.833 272.5,362.5C 276.882,354.722 279.882,346.388 281.5,337.5C 281.5,337.167 281.5,336.833 281.5,336.5C 282.222,336.082 282.722,335.416 283,334.5C 283.5,326.507 283.666,318.507 283.5,310.5 Z"/></g>
<g><path style="opacity:1" fill="#7a99a0" d="M 193.5,342.5 C 195.081,344.674 196.581,347.007 198,349.5C 211.32,364.247 227.82,373.413 247.5,377C 250.146,379.802 252.146,382.968 253.5,386.5C 253.629,388.216 253.962,389.883 254.5,391.5C 251.924,390.944 249.257,390.777 246.5,391C 227.352,382.535 211.019,370.202 197.5,354C 195.134,353.438 192.801,353.604 190.5,354.5C 184.569,357.364 178.569,360.031 172.5,362.5C 174.5,360.167 176.5,357.833 178.5,355.5C 181.135,354.189 183.469,352.522 185.5,350.5C 189.55,349.155 192.217,346.489 193.5,342.5 Z"/></g>
<g><path style="opacity:1" fill="#b00113" d="M 278.5,341.5 C 278.795,343.735 278.461,345.735 277.5,347.5C 273.128,346.115 268.795,346.282 264.5,348C 257.952,352.293 250.952,355.626 243.5,358C 241.664,359.851 240.83,362.017 241,364.5C 242.395,365.43 243.895,365.43 245.5,364.5C 247.16,365.172 248.493,366.172 249.5,367.5C 239.493,366 230.159,362.667 221.5,357.5C 214.918,353.587 209.251,348.587 204.5,342.5C 212.482,341.458 219.482,343.958 225.5,350C 229.986,350.623 234.486,351.123 239,351.5C 251.392,350.578 262.892,346.578 273.5,339.5C 274.814,340.313 275.981,341.313 277,342.5C 277.383,341.944 277.883,341.611 278.5,341.5 Z"/></g>
<g><path style="opacity:1" fill="#0f1a2f" d="M 182.5,345.5 C 183.36,347.288 184.36,348.955 185.5,350.5C 183.469,352.522 181.135,354.189 178.5,355.5C 175.355,355.592 172.022,355.259 168.5,354.5C 168.137,353.817 167.804,353.15 167.5,352.5C 169.403,352.204 171.07,351.537 172.5,350.5C 175.768,348.866 179.101,347.199 182.5,345.5 Z"/></g>
<g><path style="opacity:1" fill="#930110" d="M 281.5,337.5 C 279.882,346.388 276.882,354.722 272.5,362.5C 271.167,364.5 269.833,366.5 268.5,368.5C 268.719,367.325 268.386,366.325 267.5,365.5C 266.389,366.611 265.055,367.278 263.5,367.5C 258.891,366.345 254.225,365.512 249.5,365C 250.87,363.559 251.87,361.892 252.5,360C 256.675,358.416 260.341,356.082 263.5,353C 267.095,352.416 270.595,351.582 274,350.5C 274.333,351.5 274.667,352.5 275,353.5C 275.655,351.372 276.489,349.372 277.5,347.5C 278.461,345.735 278.795,343.735 278.5,341.5C 279.857,340.41 280.857,339.076 281.5,337.5 Z"/></g>
<g><path style="opacity:1" fill="#d5d8d8" d="M 165.5,357.5 C 166.72,360.719 169.053,362.385 172.5,362.5C 178.569,360.031 184.569,357.364 190.5,354.5C 192.801,353.604 195.134,353.438 197.5,354C 211.019,370.202 227.352,382.535 246.5,391C 249.257,390.777 251.924,390.944 254.5,391.5C 255.423,395.064 255.756,398.731 255.5,402.5C 245.013,402.377 234.679,401.21 224.5,399C 209.598,391.477 194.598,384.143 179.5,377C 169.786,371.143 159.786,365.809 149.5,361C 147.907,360.051 146.574,358.885 145.5,357.5C 152.83,359.984 158.996,358.318 164,352.5C 164.198,354.382 164.698,356.048 165.5,357.5 Z"/></g>
<g><path style="opacity:1" fill="#0c1014" d="M 167.5,352.5 C 167.804,353.15 168.137,353.817 168.5,354.5C 172.022,355.259 175.355,355.592 178.5,355.5C 176.5,357.833 174.5,360.167 172.5,362.5C 169.053,362.385 166.72,360.719 165.5,357.5C 165.12,355.302 165.787,353.635 167.5,352.5 Z"/></g>
<g><path style="opacity:1" fill="#30070b" d="M 204.5,350.5 C 210.669,356.417 217.669,361.084 225.5,364.5C 227.076,365.143 228.41,366.143 229.5,367.5C 222.96,365.894 216.96,363.227 211.5,359.5C 208.737,356.748 206.403,353.748 204.5,350.5 Z"/></g>
<g><path style="opacity:1" fill="#d6273a" d="M 201.5,347.5 C 208.038,350.68 214.371,354.346 220.5,358.5C 221.107,358.376 221.44,358.043 221.5,357.5C 230.159,362.667 239.493,366 249.5,367.5C 255.09,368.955 260.756,369.955 266.5,370.5C 266.5,370.833 266.5,371.167 266.5,371.5C 259.49,371.332 252.49,370.999 245.5,370.5C 242.873,369.908 240.206,369.575 237.5,369.5C 233.837,367.056 229.837,365.389 225.5,364.5C 217.669,361.084 210.669,356.417 204.5,350.5C 203.167,349.833 202.167,348.833 201.5,347.5 Z"/></g>
<g><path style="opacity:1" fill="#a30211" d="M 277.5,347.5 C 276.489,349.372 275.655,351.372 275,353.5C 274.667,352.5 274.333,351.5 274,350.5C 270.595,351.582 267.095,352.416 263.5,353C 260.341,356.082 256.675,358.416 252.5,360C 251.87,361.892 250.87,363.559 249.5,365C 254.225,365.512 258.891,366.345 263.5,367.5C 265.055,367.278 266.389,366.611 267.5,365.5C 268.386,366.325 268.719,367.325 268.5,368.5C 268.167,369.5 267.5,370.167 266.5,370.5C 260.756,369.955 255.09,368.955 249.5,367.5C 248.493,366.172 247.16,365.172 245.5,364.5C 243.895,365.43 242.395,365.43 241,364.5C 240.83,362.017 241.664,359.851 243.5,358C 250.952,355.626 257.952,352.293 264.5,348C 268.795,346.282 273.128,346.115 277.5,347.5 Z"/></g>
<g><path style="opacity:1" fill="#7a0f1b" d="M 225.5,364.5 C 229.837,365.389 233.837,367.056 237.5,369.5C 237.167,369.5 236.833,369.5 236.5,369.5C 234.079,369.122 231.746,368.455 229.5,367.5C 228.41,366.143 227.076,365.143 225.5,364.5 Z"/></g>
<g><path style="opacity:1" fill="#500612" d="M 272.5,362.5 C 272.167,363.833 271.833,365.167 271.5,366.5C 271.267,368.062 270.6,369.395 269.5,370.5C 268.5,371.167 267.5,371.833 266.5,372.5C 266.5,372.167 266.5,371.833 266.5,371.5C 266.5,371.167 266.5,370.833 266.5,370.5C 267.5,370.167 268.167,369.5 268.5,368.5C 269.833,366.5 271.167,364.5 272.5,362.5 Z"/></g>
<g><path style="opacity:1" fill="#48050b" d="M 236.5,369.5 C 236.833,369.5 237.167,369.5 237.5,369.5C 240.206,369.575 242.873,369.908 245.5,370.5C 247.833,371.167 250.167,371.833 252.5,372.5C 246.806,372.76 241.473,371.76 236.5,369.5 Z"/></g>
<g><path style="opacity:1" fill="#84131e" d="M 245.5,370.5 C 252.49,370.999 259.49,371.332 266.5,371.5C 266.5,371.833 266.5,372.167 266.5,372.5C 261.934,373.797 257.267,373.797 252.5,372.5C 250.167,371.833 247.833,371.167 245.5,370.5 Z"/></g>
<g><path style="opacity:1" fill="#040f28" d="M 291.5,369.5 C 289.123,370.887 286.457,371.721 283.5,372C 285.833,372.333 288.167,372.667 290.5,373C 287.768,373.413 285.101,374.08 282.5,375C 284.81,375.497 287.143,375.663 289.5,375.5C 286.316,376.323 282.983,376.99 279.5,377.5C 273.5,377.5 267.5,377.5 261.5,377.5C 261.611,376.883 261.944,376.383 262.5,376C 264.81,375.503 267.143,375.337 269.5,375.5C 273.598,375.082 277.598,374.249 281.5,373C 279.618,372.802 277.952,372.302 276.5,371.5C 281.5,370.833 286.5,370.167 291.5,369.5 Z"/></g>
<g><path style="opacity:1" fill="#33485a" d="M 261.5,377.5 C 267.5,377.5 273.5,377.5 279.5,377.5C 274.025,378.489 268.358,378.822 262.5,378.5C 262.5,383.167 262.5,387.833 262.5,392.5C 262.5,395.5 262.5,398.5 262.5,401.5C 262.167,401.5 261.833,401.5 261.5,401.5C 261.5,393.5 261.5,385.5 261.5,377.5 Z"/></g>
<g><path style="opacity:1" fill="#131a2b" d="M 261.5,401.5 C 259.735,402.461 257.735,402.795 255.5,402.5C 255.756,398.731 255.423,395.064 254.5,391.5C 253.962,389.883 253.629,388.216 253.5,386.5C 254.496,386.414 255.329,386.748 256,387.5C 255.711,383.793 255.878,380.126 256.5,376.5C 257.912,385.16 259.579,393.493 261.5,401.5 Z"/></g>
<g><path style="opacity:1" fill="#d1d6d7" d="M 288.5,397.5 C 280.229,400.544 271.563,401.877 262.5,401.5C 262.5,398.5 262.5,395.5 262.5,392.5C 263.222,392.082 263.722,391.416 264,390.5C 272.434,392.478 280.6,394.811 288.5,397.5 Z"/></g>
<g><path style="opacity:0.03" fill="#8daab3" d="M 45.5,401.5 C 49.0819,403.12 52.0819,405.453 54.5,408.5C 51.5739,407.539 48.5739,406.873 45.5,406.5C 45.5,404.833 45.5,403.167 45.5,401.5 Z"/></g>
<g><path style="opacity:1" fill="#49b7cc" d="M 270.5,415.5 C 269.516,445.456 269.182,475.456 269.5,505.5C 266.833,505.5 264.167,505.5 261.5,505.5C 261.5,475.833 261.5,446.167 261.5,416.5C 264.609,416.736 267.609,416.403 270.5,415.5 Z"/></g>
<g><path style="opacity:1" fill="#259ab4" d="M 278.5,414.5 C 277.523,444.802 277.19,475.135 277.5,505.5C 274.833,505.5 272.167,505.5 269.5,505.5C 269.182,475.456 269.516,445.456 270.5,415.5C 273.167,415.167 275.833,414.833 278.5,414.5 Z"/></g>
<g><path style="opacity:1" fill="#1d90a8" d="M 285.5,413.5 C 285.611,444.205 285.611,474.872 285.5,505.5C 282.833,505.5 280.167,505.5 277.5,505.5C 277.19,475.135 277.523,444.802 278.5,414.5C 280.903,414.552 283.236,414.219 285.5,413.5 Z"/></g>
</svg>
