<?xml version="1.0" encoding="UTF-8"?>
<svg width="241px" height="240px" viewBox="0 0 241 240" version="1.1" xmlns="http://www.w3.org/2000/svg" xmlns:xlink="http://www.w3.org/1999/xlink">
    <title>builderio</title>
    <g id="Page-1" stroke="none" stroke-width="1" fill="none" fill-rule="evenodd">
        <g id="builderio" transform="translate(84.0114, 25.0006)">
            <rect id="box" x="-84" y="-25" width="240" height="240"></rect>
            <g id="shape" transform="translate(-69, -25)" fill-rule="nonzero">
                <path d="M210,67.4952883 C210,88.6983669 200.22463,107.621538 184.929268,120 L4.7999523,17.7230692 C4.09841487,17.3261461 3.4707881,16.8460538 2.90771201,16.3014383 C2.76001992,16.153746 0,13.7169151 0,9.47999167 C0,6.8584807 1.06154243,4.4861636 2.77846297,2.77847116 C4.49538351,1.06154796 6.86769693,0 9.48001923,0 L142.495484,0 C179.769275,0 210,30.2214394 210,67.5045191 L210,67.4952883 Z" id="Path" fill="#18B4F4"></path>
                <path d="M210,172.490192 C210,209.776137 179.778506,240 142.495484,240 L9.48001923,240 C4.82769995,240 0,236.325871 0,230.519271 C0,226.328179 2.64002933,223.96492 2.916952,223.678745 L2.92619199,223.678745 C3.48003732,223.134087 4.10763639,222.663282 4.79071231,222.27556 L75.6552138,182.035541 L184.901576,120 C200.196938,132.379414 209.972308,151.294715 209.972308,172.499423 L210,172.490192 Z" id="Path" fill="#FD6B3C"></path>
                <path d="M184.981541,119.52769 L75.7480795,181.45074 L4.89200601,221.617789 C4.20901133,222.004808 3.58137614,222.47476 3.02759668,223 C29.0552408,196.258826 45.0872487,159.759243 45.0872487,119.518476 C45.0872487,79.2777082 29.0461035,42.7503887 3,16 C3.56300912,16.5436696 4.19978167,17.0228361 4.89200601,17.4190699 L185,119.518476 L184.981541,119.52769 Z" id="Path" fill="#A97FF2"></path>
            </g>
        </g>
    </g>
</svg>