<?xml version="1.0" encoding="UTF-8"?>
<svg width="240px" height="240px" viewBox="0 0 240 240" version="1.1" xmlns="http://www.w3.org/2000/svg" xmlns:xlink="http://www.w3.org/1999/xlink">
    <title>bun</title>
    <g id="Page-1" stroke="none" stroke-width="1" fill="none" fill-rule="evenodd">
        <g id="bun" transform="translate(-7, 22)">
            <rect id="box" x="7" y="-22" width="240" height="240"></rect>
            <g id="shape" transform="translate(7, -6.875)">
                <path d="M214.410067,61.4729813 C213.923219,60.9582222 213.405943,60.4434631 212.888668,59.958984 C212.371392,59.4745049 211.884544,58.9294658 211.367269,58.4449867 C210.849993,57.9605075 210.363145,57.4154685 209.845869,56.9309893 C209.328594,56.4465102 208.841746,55.9014711 208.32447,55.416992 C207.807195,54.9325129 207.320347,54.3874738 206.803071,53.9029947 C206.285796,53.4185155 205.798948,52.8734765 205.281672,52.3889973 C204.764396,51.9045182 204.277549,51.3594791 203.760273,50.875 C218.853049,65.6356222 227.499403,85.7159192 227.828807,106.771782 C227.828807,156.945653 176.648941,197.763021 113.723873,197.763021 C78.4882696,197.763021 46.9648799,184.954604 26,164.878999 L27.5213991,166.392997 L29.0427982,167.906994 L30.5641974,169.420991 L32.0855965,170.934989 L33.6069956,172.448986 L35.1283947,173.962983 L36.6497938,175.476981 C57.5842457,196.400424 89.807479,209.875 125.895066,209.875 C188.820134,209.875 240,169.057632 240,119.03516 C240,97.6575176 230.749893,77.4002333 214.410067,61.4729813 Z" id="Shadow" fill="#000000" fill-rule="nonzero"></path>
                <g id="Body" transform="translate(0, -0.125)">
                    <path d="M220.4,106.813793 C220.4,152.968276 172.7632,190.383448 114,190.383448 C55.2368,190.383448 7.6,152.968276 7.6,106.813793 C7.6,78.1986207 25.84,52.9213793 53.8688,37.9310345 C81.8976,22.9406897 99.3472,7.5862069 114,7.5862069 C128.6528,7.5862069 141.1776,20.1186207 174.1312,37.9310345 C202.16,52.9213793 220.4,78.1986207 220.4,106.813793 Z" id="Background" fill="#FBF0DF" fill-rule="nonzero"></path>
                    <path d="M220.4,106.813793 C220.385216,100.884649 219.567134,94.9847379 217.968,89.2744828 C209.6688,190.322759 86.184,195.177931 37.6352,164.954483 C59.4594471,181.83948 86.3909781,190.807499 114,190.383448 C172.672,190.383448 220.4,152.907586 220.4,106.813793 Z" id="Bottom_Shadow" fill="#F6DECE" fill-rule="nonzero"></path>
                    <path d="M73.0512,32.377931 C86.64,24.2455172 104.6976,8.98206897 122.4512,8.95172414 C119.720019,8.0705099 116.870216,7.61004805 114,7.5862069 C106.6432,7.5862069 98.8,11.3793103 88.92,17.0841379 C85.4848,19.0868966 81.928,21.302069 78.1584,23.6082759 C71.0752,27.977931 62.9584,32.9241379 53.8384,37.8703448 C24.8976,53.497931 7.6,79.2606897 7.6,106.813793 C7.6,108.027586 7.6,109.241379 7.6,110.424828 C26.0224,45.4565517 59.4928,40.5103448 73.0512,32.377931 Z" id="Light_Shine" fill="#FFFEFC" fill-rule="nonzero"></path>
                    <path d="M105.2448,15.2634483 C105.330848,29.7624821 99.0816298,43.5788808 88.1296,53.1034483 C87.2784,53.862069 87.9472,55.3186207 89.0416,54.8937931 C99.2864,50.9186207 113.1184,39.0234483 107.2816,15.0206897 C107.0384,13.6551724 105.2448,14.0193103 105.2448,15.2634483 Z M112.1456,15.2634483 C119.672962,27.5230505 121.460686,42.4528317 117.04,56.137931 C116.6752,57.2 117.9824,58.1103448 118.712,57.2303448 C125.3696,48.7337931 131.176,31.862069 113.7872,13.6551724 C112.9056,12.8662069 111.5376,14.08 112.1456,15.142069 L112.1456,15.2634483 Z M120.536,14.7475862 C132.321619,23.0762366 139.916457,36.0913029 141.36,50.4331034 C141.296064,50.9636728 141.660768,51.450866 142.188628,51.5400341 C142.716488,51.6292022 143.221481,51.2889213 143.336,50.7668966 C146.1328,40.1765517 144.552,22.1213793 121.5392,12.7448276 C120.3232,12.2593103 119.5328,13.897931 120.536,14.6262069 L120.536,14.7475862 Z M64.4176,46.3062069 C78.4309869,42.1272851 90.0032899,32.1978003 96.2464,18.9958621 C96.7936,17.9034483 98.5264,18.3282759 98.2528,19.542069 C92.9936,43.817931 75.392,48.8855172 64.448,48.217931 C63.2928,48.2482759 63.3232,46.64 64.4176,46.3062069 Z" id="Top" fill="#CCBEA7"></path>
                    <path d="M114,198 C51.1328,198 0,157.095172 0,106.813793 C0,76.4689655 18.7872,48.1572414 50.2512,31.1944828 C59.3712,26.3393103 67.184,21.4537931 74.1456,17.1751724 C77.976,14.8082759 81.5936,12.5931034 85.0896,10.5296552 C95.76,4.21793103 104.88,0 114,0 C123.12,0 131.0848,3.64137931 141.056,9.52827586 C144.096,11.257931 147.136,13.1393103 150.3888,15.2027586 C157.9584,19.8758621 166.5008,25.1558621 177.7488,31.1944828 C209.2128,48.1572414 228,76.4386207 228,106.813793 C228,157.095172 176.8672,198 114,198 Z M114,7.5862069 C106.6432,7.5862069 98.8,11.3793103 88.92,17.0841379 C85.4848,19.0868966 81.928,21.302069 78.1584,23.6082759 C71.0752,27.977931 62.9584,32.9241379 53.8384,37.8703448 C24.8976,53.497931 7.6,79.2606897 7.6,106.813793 C7.6,152.907586 55.328,190.413793 114,190.413793 C172.672,190.413793 220.4,152.907586 220.4,106.813793 C220.4,79.2606897 203.1024,53.497931 174.1312,37.9310345 C162.64,31.862069 153.672,26.1572414 146.4064,21.6662069 C143.0928,19.6331034 140.0528,17.7517241 137.2864,16.0827586 C128.0752,10.6206897 121.3568,7.5862069 114,7.5862069 Z" id="Outline" fill="#000000" fill-rule="nonzero"></path>
                </g>
                <g id="Mouth" transform="translate(91, 124.875)" fill-rule="nonzero">
                    <g id="Background-2" transform="translate(1.8375, 1.6871)" fill="#B71422">
                        <path d="M42.2976126,2.4758721 C40.934171,8.06398849 37.8305489,13.0735992 33.4352323,16.7807955 C30.1353927,19.9817771 25.8635577,21.9909135 21.2949852,22.4906163 C16.5891657,22.0701108 12.1674408,20.0559386 8.76018022,16.7807955 C4.40975437,13.0560663 1.34981897,8.04837243 0.0192023726,2.4758721 C-0.0701612296,1.80543978 0.155533663,1.13135934 0.630494643,0.650132261 C1.10545562,0.168905179 1.77621955,-0.0653000839 2.44725177,0.0157897418 L39.8999138,0.0157897418 C40.5659982,-0.0551205078 41.2277882,0.183585971 41.6954817,0.663447959 C42.1631752,1.14330995 42.3851017,1.81131257 42.2976126,2.4758721 L42.2976126,2.4758721 Z" id="Path"></path>
                    </g>
                    <g id="Tongue" transform="translate(8.5642, 6.9268)">
                        <path d="M2.03349137,11.7840982 C5.43381121,15.061133 9.8395623,17.0943018 14.5379458,17.5546618 C19.2256275,17.0876757 23.619682,15.0549709 27.0120496,11.7840982 C28.0971935,10.7719635 29.1112869,9.68614096 30.0471113,8.5343598 C26.2681888,4.24436782 20.8870608,1.70581432 15.1753088,1.51856936 C9.03701733,1.66403395 3.36280613,4.82105432 0,9.961815 C0.698064203,10.5996141 1.30507655,11.2070419 2.03349137,11.7840982 Z" id="Background-3" fill="#FF6164"></path>
                        <path d="M2.51910125,9.38475864 C5.56771975,5.44142885 10.2539869,3.11347988 15.23601,3.06751011 C19.7812239,3.20165729 24.1118351,5.0325926 27.376257,8.20027454 C28.0743212,7.44098986 28.7420348,6.65133379 29.3793978,5.86167773 C25.5182368,2.18193783 20.4155345,0.0895907458 15.0842569,0 C9.31529904,0.0497840594 3.87100073,2.67909624 0.24280494,7.16764738 C0.960413027,7.94785148 1.72032414,8.68800445 2.51910125,9.38475864 L2.51910125,9.38475864 Z" id="Outline-2" fill="#000000"></path>
                    </g>
                    <path d="M23.0111242,26 C17.9535987,25.5565522 13.1941875,23.4160271 9.5050994,19.9257226 C4.80699688,15.9493807 1.50012109,10.5760203 0.0660573522,4.58817203 C-0.142225522,3.50850659 0.147750168,2.39245225 0.855173408,1.55103332 C1.69805701,0.532505087 2.96391039,-0.0392002341 4.28479319,0.00209256862 L41.7374552,0.00209256862 C43.0556162,-0.0256881879 44.3158662,0.543486417 45.167075,1.55103332 C45.8677692,2.39558151 46.1469374,3.51301833 45.9258404,4.58817203 L45.9258404,4.58817203 C44.4917767,10.5760203 41.1849009,15.9493807 36.4867984,19.9257226 C32.8056762,23.4098247 28.0579757,25.549892 23.0111242,26 L23.0111242,26 Z M4.28479319,3.52517348 C3.79918331,3.52517348 3.67778084,3.73777319 3.64743022,3.79851597 C4.93038097,8.99102508 7.83251898,13.6397511 11.9331488,17.0708122 C14.931676,20.0269956 18.8302083,21.8974341 23.0111242,22.3858049 C27.1812443,21.9029561 31.0754192,20.0559608 34.0890996,17.1315549 C38.1768913,13.6946825 41.0677439,9.04700934 42.3444675,3.85925874 C42.2095236,3.6612541 41.9750436,3.55566589 41.7374552,3.58591626 L4.28479319,3.52517348 Z" id="Outline-3" fill="#000000"></path>
                </g>
                <g id="Face" transform="translate(50, 82.875)">
                    <ellipse id="Right_Blush" fill="#FEBBD0" fill-rule="nonzero" cx="110.158685" cy="37.5758583" rx="17.8413152" ry="10.4241417"></ellipse>
                    <ellipse id="Left_Bluch" fill="#FEBBD0" fill-rule="nonzero" cx="17.8413152" cy="37.5758583" rx="17.8413152" ry="10.4241417"></ellipse>
                    <path d="M26.2282583,33.3941083 C33.0277589,33.4063419 39.164601,29.3460783 41.7752124,23.1078891 C44.3858239,16.8697 42.9556498,9.68314051 38.1520377,4.90160158 C33.3484257,0.120062652 26.1181738,-1.3140082 19.8350608,1.26855488 C13.5519478,3.85111797 9.45437217,9.94128847 9.45437217,16.6972722 C9.45437217,25.9068438 16.9593657,33.3773663 26.2282583,33.3941083 L26.2282583,33.3941083 Z M101.771742,33.3940806 C108.579364,33.4431856 114.744193,29.4064205 117.383674,23.1712994 C120.023154,16.9361782 118.61571,9.7347934 113.819436,4.93437454 C109.023162,0.133955685 101.785826,-1.31690941 95.4914686,1.26017598 C89.1971108,3.83726137 85.0893207,9.93305171 85.0893207,16.6972722 C85.0724117,25.8783621 92.5316209,33.3440172 101.771742,33.3940806 L101.771742,33.3940806 Z" id="Eyes" fill="#000000" fill-rule="nonzero"></path>
                    <path d="M21.0436026,17.7579418 C23.5997445,17.7701377 25.9110664,16.2496553 26.8978279,13.9067184 C27.8845895,11.5637816 27.352023,8.86084069 25.5489184,7.06058202 C23.7458138,5.26032335 21.0280691,4.71808317 18.6652861,5.68717045 C16.3025031,6.65625773 14.7610198,8.94539337 14.7610198,11.4852014 C14.7610198,14.9377 17.5689004,17.7411893 21.0436026,17.7579418 Z M96.587086,17.7579418 C99.1432279,17.7701377 101.45455,16.2496553 102.441311,13.9067184 C103.428073,11.5637816 102.895506,8.86084069 101.092402,7.06058202 C99.2892973,5.26032335 96.5715525,4.71808317 94.2087695,5.68717045 C91.8459866,6.65625773 90.3045032,8.94539337 90.3045032,11.4852014 C90.3041408,14.914306 93.0752546,17.7081709 96.5260901,17.7579418 L96.587086,17.7579418 Z" id="Iris" fill="#FFFFFF"></path>
                </g>
            </g>
        </g>
    </g>
</svg>