<?xml version="1.0" encoding="UTF-8"?>
<!DOCTYPE svg PUBLIC "-//W3C//DTD SVG 1.1//EN" "http://www.w3.org/Graphics/SVG/1.1/DTD/svg11.dtd">
<svg xmlns="http://www.w3.org/2000/svg" version="1.1" width="192px" height="192px" style="shape-rendering:geometricPrecision; text-rendering:geometricPrecision; image-rendering:optimizeQuality; fill-rule:evenodd; clip-rule:evenodd" xmlns:xlink="http://www.w3.org/1999/xlink">
<g><path style="opacity:0.941" fill="#2462ea" d="M 36.5,4.5 C 77.2275,4.01713 117.894,4.51713 158.5,6C 162.388,8.22151 165.221,11.3882 167,15.5C 169,37.1667 169,58.8333 167,80.5C 163.985,85.8422 159.485,89.3422 153.5,91C 139.167,91.3333 124.833,91.6667 110.5,92C 107.833,94 105.167,96 102.5,98C 97.8333,101.333 93.1667,101.333 88.5,98C 85.8333,96 83.1667,94 80.5,92C 66.1667,91.6667 51.8333,91.3333 37.5,91C 28.073,88.9822 23.2397,83.1489 23,73.5C 22.3333,56.1667 22.3333,38.8333 23,21.5C 23.6953,12.6539 28.1953,6.98721 36.5,4.5 Z M 39.5,20.5 C 76.8348,20.3333 114.168,20.5 151.5,21C 152.825,38.769 152.825,56.6023 151.5,74.5C 135.878,75.3182 120.211,75.8182 104.5,76C 101.5,77.8333 98.5,79.6667 95.5,81.5C 92.5,79.6667 89.5,77.8333 86.5,76C 71.1667,75.6667 55.8333,75.3333 40.5,75C 39.1813,66.2306 38.5146,57.2306 38.5,48C 38.5129,38.7585 38.8462,29.5918 39.5,20.5 Z"/></g>
<g><path style="opacity:0.934" fill="#2661e9" d="M 65.5,27.5 C 74.6809,28.3503 77.3476,33.0169 73.5,41.5C 71.6357,43.1955 69.9691,45.0288 68.5,47C 69.9443,49.4485 71.7776,51.6152 74,53.5C 76.7684,65.887 72.2684,69.387 60.5,64C 55.2166,59.2202 50.8832,53.7202 47.5,47.5C 51.7598,39.2416 57.7598,32.5749 65.5,27.5 Z"/></g>
<g><path style="opacity:0.931" fill="#2461ea" d="M 97.5,27.5 C 103.065,27.7736 106.398,30.6069 107.5,36C 104.734,45.6318 101.567,55.1318 98,64.5C 90.8384,68.4459 86.005,66.6126 83.5,59C 85.8968,50.0365 88.7302,41.2031 92,32.5C 93.3516,30.251 95.1849,28.5844 97.5,27.5 Z"/></g>
<g><path style="opacity:0.93" fill="#2560e9" d="M 121.5,27.5 C 124.425,27.4598 127.091,28.2932 129.5,30C 133,33.5 136.5,37 140,40.5C 142.374,43.8005 143.04,47.4672 142,51.5C 137.833,56.3333 133.333,60.8333 128.5,65C 117.375,68.5417 113.542,64.7084 117,53.5C 119.222,51.6152 121.056,49.4485 122.5,47C 121.031,45.0288 119.364,43.1955 117.5,41.5C 114.224,35.3416 115.557,30.6749 121.5,27.5 Z"/></g>
<g><path style="opacity:0.951" fill="#2562ea" d="M 45.5,113.5 C 78.835,113.333 112.168,113.5 145.5,114C 151.637,121.475 157.803,128.975 164,136.5C 165.717,145.116 162.217,148.949 153.5,148C 151.43,147.052 149.93,145.552 149,143.5C 148.667,153.167 148.333,162.833 148,172.5C 143.806,184.685 135.306,189.185 122.5,186C 120.667,185.5 119.5,184.333 119,182.5C 117.431,177.375 118.931,173.541 123.5,171C 126.426,170.782 129.26,170.282 132,169.5C 132.499,165.514 132.666,161.514 132.5,157.5C 107.84,158.824 83.1732,158.824 58.5,157.5C 58.203,161.767 58.5363,165.934 59.5,170C 70.8333,170.333 82.1667,170.667 93.5,171C 95.286,171.785 96.786,172.951 98,174.5C 98.6667,177.5 98.6667,180.5 98,183.5C 97.0975,184.701 95.9308,185.535 94.5,186C 81.8333,186.667 69.1667,186.667 56.5,186C 49.7718,184.273 45.2718,180.106 43,173.5C 42.6667,163.5 42.3333,153.5 42,143.5C 37.4865,149.747 32.4865,150.08 27,144.5C 26.2585,141.438 26.4252,138.438 27.5,135.5C 33.9315,128.413 39.9315,121.08 45.5,113.5 Z M 58.5,128.5 C 83.1667,128.5 107.833,128.5 132.5,128.5C 132.665,131.85 132.498,135.183 132,138.5C 131.5,139.667 130.667,140.5 129.5,141C 106.136,141.803 82.8029,141.636 59.5,140.5C 58.7279,136.548 58.3946,132.548 58.5,128.5 Z"/></g>
</svg>
