<?xml version="1.0" encoding="UTF-8"?>
<svg width="240px" height="241px" viewBox="0 0 240 241" version="1.1" xmlns="http://www.w3.org/2000/svg" xmlns:xlink="http://www.w3.org/1999/xlink">
    <title>c</title>
    <g id="Page-1" stroke="none" stroke-width="1" fill="none" fill-rule="evenodd">
        <g id="c" transform="translate(-90, -64.3737)">
            <rect id="box" x="90" y="65" width="240" height="240"></rect>
            <g id="shape" transform="translate(102, 65)">
                <path d="M102.235553,1.63287657 C106.113,-0.54429219 110.887,-0.54429219 114.758737,1.63287657 C133.917553,12.3930048 191.571026,44.7819616 210.735553,55.5420896 C214.613,57.7135457 217,61.7364507 217,66.0907882 C217,87.6110442 217,152.383243 217,173.903499 C217,178.257837 214.613,182.280742 210.735553,184.457911 C191.576737,195.218039 133.923263,227.606995 114.758737,238.367123 C110.881289,240.544292 106.107289,240.544292 102.235553,238.367123 C83.0767368,227.606995 25.4232632,195.218039 6.25873684,184.457911 C2.387,182.280742 0,178.263551 0,173.909214 C0,152.388958 0,87.6167586 0,66.0965026 C0,61.742165 2.387,57.71926 6.26444737,55.5420896 C25.4175526,44.7819616 83.0824474,12.3930048 102.235553,1.63287657 Z" id="path2" fill="#004482"></path>
                <path d="M1.73542828,179 C0.216928535,176.97085 0,175.044297 0,172.450861 C0,151.110587 0,86.8731684 0,65.527194 C0,61.2067003 2.38050524,57.2167986 6.24525836,55.0622499 C25.3292608,44.3921127 82.7696535,12.2734035 101.853656,1.59756613 C105.718409,-0.562680684 110.953237,-0.517081807 114.81799,1.643165 C133.901993,12.3133025 191.148291,44.1584184 210.232294,54.8285557 C211.773628,55.6949343 212.949609,56.7380087 214,58.1116766 L1.73542828,179 Z" id="path4" fill="#659AD2"></path>
                <path d="M108,40 C152.154286,40 188,75.845716 188,120 C188,164.154287 152.154286,200 108,200 C63.8457143,200 28,164.154287 28,120 C28,75.845716 63.8457143,40 108,40 L108,40 Z M108,80.0000017 C130.074286,80.0000017 148,97.9200017 148,120.000002 C148,142.074287 130.074286,160.000002 108,160.000002 C85.9257143,160.000002 68,142.074287 68,120.000002 C68,97.9200017 85.92,80.0000017 108,80.0000017 Z" id="path6" fill="#FFFFFF"></path>
                <path d="M214.053917,58 C217.00521,60.7671284 216.948014,64.9378727 216.948014,68.2206152 C216.948014,89.9623386 216.764988,151.801644 217,173.543367 C217.022369,175.812069 216.273106,178.20108 215.152073,180 L106,119.845034 L214.053917,58 Z" id="path8" fill="#00599C"></path>
            </g>
        </g>
    </g>
</svg>