<?xml version="1.0" encoding="UTF-8"?>
<svg width="244px" height="241px" viewBox="0 0 244 241" version="1.1" xmlns="http://www.w3.org/2000/svg" xmlns:xlink="http://www.w3.org/1999/xlink">
    <title>c99nl</title>
    <g id="Page-1" stroke="none" stroke-width="1" fill="none" fill-rule="evenodd">
        <g id="c99nl" transform="translate(0.9109, 0.0937)">
            <rect id="box" x="0" y="0" width="240" height="240"></rect>
            <g id="shape" transform="translate(0, 9)">
                <path d="M109.451694,0.00151611777 C138.848995,0.154340658 167.312464,11.8513315 188.718451,33.2573188 L167.749279,54.2264913 C152.060782,38.5379943 131.268978,29.9936548 109.746202,29.8817667 C88.502201,29.7713278 68.2183884,37.8862832 53.0523486,53.0523231 C37.7815404,68.3231312 29.6614409,88.7821706 29.8851556,110.175835 C30.1086855,131.551839 38.6450638,152.1678 54.2265169,167.749253 C86.2343141,199.75705 137.585771,200.261098 168.923447,168.923421 L190.210704,190.210678 C147.270536,233.150846 77.0000149,232.461096 33.2573443,188.718426 C11.9977485,167.45883 0.311450831,139.23559 0.00613497062,110.038458 C-0.299889265,80.7735849 10.8504375,52.6797204 31.7650917,31.7650662 C52.5360681,10.9940899 80.3902878,-0.149562244 109.451694,0.00151611777 Z" id="Combined-Shape" fill="#FF970F"></path>
                <g transform="translate(47.9472, 66.9295)">
                    <path d="M0,29.807325 C0,45.5981102 11.3005049,57.0715647 26.8311453,57.0715647 C32.269891,57.0715647 37.8899282,54.94247 40.8510231,51.5714035 L41.9387722,51.8671111 C41.3344671,53.109083 40.5488705,54.2327718 38.3733723,57.1898477 L15.711932,87.0563142 L32.269891,87.0563142 C33.9015147,85.1637856 49.0695721,65.0556696 51.0637789,61.9803107 C59.8262025,49.797158 63.4520329,40.4527982 63.4520329,30.4578817 C63.4520329,12.4788603 50.3386128,0 31.6051554,0 C13.4155727,0 0,12.7154263 0,29.807325 Z M31.7260165,12.1831527 C41.6970502,12.1831527 49.1300026,19.5167009 49.1300026,29.2750513 C49.1300026,39.0334018 41.6970502,46.36695 31.7260165,46.36695 C21.8154132,46.36695 14.3824608,39.0334018 14.3824608,29.2750513 C14.3824608,19.5167009 21.8154132,12.1831527 31.7260165,12.1831527 Z" id="9" fill="#FFFFFF" fill-rule="nonzero"></path>
                    <path d="M66.5609032,29.807325 C66.5609032,45.5981102 77.8614081,57.0715647 93.3920486,57.0715647 C98.8307942,57.0715647 104.450831,54.94247 107.411926,51.5714035 L108.499675,51.8671111 C107.89537,53.109083 107.109774,54.2327718 104.934275,57.1898477 L82.2728352,87.0563142 L98.8307942,87.0563142 C100.462418,85.1637856 115.630475,65.0556696 117.624682,61.9803107 C126.387106,49.797158 130.012936,40.4527982 130.012936,30.4578817 C130.012936,12.4788603 116.899516,0 98.1660586,0 C79.9764759,0 66.5609032,12.7154263 66.5609032,29.807325 Z M98.2869197,12.1831527 C108.257953,12.1831527 115.690906,19.5167009 115.690906,29.2750513 C115.690906,39.0334018 108.257953,46.36695 98.2869197,46.36695 C88.3763164,46.36695 80.943364,39.0334018 80.943364,29.2750513 C80.943364,19.5167009 88.3763164,12.1831527 98.2869197,12.1831527 Z" id="9" fill="#FFFFFF" fill-rule="nonzero"></path>
                    <ellipse id="Oval" fill="#FFFFFF" cx="133.81498" cy="83.0441338" rx="4.16005645" ry="4.07132197"></ellipse>
                    <path d="M140.387819,62.4878713 L161.562607,62.4878713 C166.732062,62.4878713 170.922734,66.6785429 170.922734,71.8479984 C170.922734,77.0174538 166.732062,81.2081254 161.562607,81.2081254 L140.387819,81.2081254 L140.387819,81.2081254" id="Rectangle" stroke="#FFFFFF" stroke-width="6" transform="translate(155.6553, 71.848) rotate(270) translate(-155.6553, -71.848)"></path>
                    <polyline id="Rectangle-Copy" stroke="#FFFFFF" stroke-width="6" stroke-linecap="round" transform="translate(184.2557, 70.3213) scale(-1, 1) rotate(90) translate(-184.2557, -70.3213)" points="170.514953 62.5211468 197.996376 62.5211468 197.996376 78.1213585"></polyline>
                </g>
            </g>
        </g>
    </g>
</svg>