<?xml version="1.0" encoding="UTF-8"?>
<svg width="240px" height="240px" viewBox="0 0 240 240" version="1.1" xmlns="http://www.w3.org/2000/svg" xmlns:xlink="http://www.w3.org/1999/xlink">
    <title>caddy</title>
    <g id="Page-1" stroke="none" stroke-width="1" fill="none" fill-rule="evenodd">
        <g id="caddy" transform="translate(120, -78)">
            <rect id="box" x="-120" y="78" width="240" height="240"></rect>
            <g id="shape" transform="translate(-120.2155, 77.8203)" fill-rule="nonzero">
                <path d="M119.715507,51.1797411 C138.677283,51.1797411 154.04884,66.5139885 154.04884,85.4297411 L154.04884,102.554741 L171.215507,102.554741 L171.215507,188.179741 L111.132173,188.179741 L111.132173,171.054741 L154.04884,171.054741 L154.04884,119.679741 L85.3821734,119.679741 L85.3821734,145.367241 L68.2155067,145.367241 L68.2155067,102.554741 L85.3821734,102.554741 L85.3821734,85.4297411 C85.3821734,66.7534284 100.36704,51.5685238 118.997189,51.1870884 L119.715507,51.1797411 Z M119.715507,68.3047411 C110.234619,68.3047411 102.54884,75.9718648 102.54884,85.4297411 L102.54884,102.554741 L136.882173,102.554741 L136.882173,85.4297411 C136.882173,76.1573134 129.494843,68.6061011 120.271091,68.3135401 L119.715507,68.3047411 Z" id="Shape" fill="#22B638"></path>
                <path d="M240.207114,61.0832823 C240.028424,68.1315556 237.00792,74.4740738 232.247839,79.0093435 L232.037245,79.2031677 L232.490405,80.4794886 C248.223165,125.850016 235.829869,176.146483 200.782959,208.399284 L199.703024,209.380954 C165.552717,240.215444 116.67744,248.619198 74.1784293,230.96401 L74.8525114,231.239562 L74.7914816,231.298833 C68.8729892,236.667938 61.0670027,239.996401 52.4860981,240.172396 L51.7692527,240.179741 C32.846345,240.179741 17.5062974,224.850033 17.5062974,205.93988 C17.5062974,199.955655 19.0425144,194.32999 21.7423487,189.435234 L21.9482243,189.06975 L21.7714801,188.819696 C-14.2857001,137.071836 -4.14293997,66.1991838 44.9775446,26.6304609 L46.4934007,25.4290055 C94.8156542,-12.3250388 163.932051,-7.21467142 206.168068,37.2351218 L205.376097,36.4147551 L205.682725,36.2988264 C208.241005,35.3627461 210.989741,34.8215082 213.855034,34.7489644 L214.51829,34.7405771 C228.710471,34.7405771 240.215507,46.237858 240.215507,60.4204726 L240.207114,61.0832823 Z M86.024858,206.656243 C85.9563693,209.991012 85.4107969,213.208666 84.4535752,216.243814 L84.3456342,216.566641 L85.2357537,216.895122 C120.15782,229.515451 159.332512,222.158317 187.33625,197.46468 L188.235703,196.662101 C219.276773,168.791207 230.172978,124.563615 215.881207,84.8910117 L216.285422,86.0374439 L215.840666,86.0669536 C215.621672,86.078047 215.401954,86.0864006 215.181547,86.0919809 L214.51829,86.1003681 C210.748492,86.1003681 207.16829,85.2891586 203.942945,83.8318896 L203.439098,83.5972831 L186.312227,100.713143 L174.198443,88.6075239 L191.323717,71.4900684 L191.091082,70.9886892 C189.71861,67.9551168 188.918812,64.6074189 188.829467,61.0832823 L188.821074,60.4204726 C188.821074,55.7668022 190.059775,51.4022509 192.22566,47.6381266 L192.289933,47.5267312 L191.548178,46.7807549 C155.596993,11.1761605 98.7610973,7.31708969 58.285453,37.9622313 L57.0388862,38.9210236 C14.6657273,71.9642503 4.98234364,131.735502 33.9896122,176.303805 L34.1595415,176.560787 L34.6692422,176.262535 C39.508191,173.47209 45.0934458,171.829584 51.0524074,171.707365 L51.7692527,171.70002 C70.6921604,171.70002 86.032208,187.029728 86.032208,205.93988 L86.024858,206.656243 Z M105.672532,139.967315 L117.786316,152.072934 L83.5233612,186.312794 L71.4095772,174.207176 L105.672532,139.967315 Z M68.8919281,205.385809 C68.5992564,196.187168 61.0451879,188.81995 51.7692527,188.81995 C42.3077989,188.81995 34.6377751,196.484804 34.6377751,205.93988 C34.6377751,215.394957 42.3077989,223.059811 51.7692527,223.059811 C61.2307066,223.059811 68.9007304,215.394957 68.9007304,205.93988 L68.8919281,205.385809 Z M223.072156,59.9658618 C222.835677,55.449669 219.096413,51.8605075 214.51829,51.8605075 C209.787563,51.8605075 205.952551,55.6929344 205.952551,60.4204726 C205.952551,65.1480108 209.787563,68.9804378 214.51829,68.9804378 C219.249017,68.9804378 223.084029,65.1480108 223.084029,60.4204726 L223.072156,59.9658618 Z" id="Shape" fill="#1F88C0"></path>
            </g>
        </g>
    </g>
</svg>