<?xml version="1.0" encoding="UTF-8"?>
<svg width="240px" height="240px" viewBox="0 0 240 240" version="1.1" xmlns="http://www.w3.org/2000/svg" xmlns:xlink="http://www.w3.org/1999/xlink">
    <title>caido</title>
    <defs>
        <path d="M74.8106068,0.632191079 C72.263503,1.99211662 71.3042042,5.15670012 72.6604543,7.70380391 C78.6514776,18.9470802 81.8197366,31.6678973 81.8197366,44.4879521 C81.8197366,53.0224038 80.4598111,61.4171874 77.7767147,69.4186953 L77.089401,71.4549081 L91.3612683,100.531586 C72.2965823,129.836144 40.3052528,147.23584 5.22652466,147.23584 C2.33760175,147.23584 -4.17853067e-14,149.577117 -4.17853067e-14,152.462365 C-4.17853067e-14,155.347612 2.34127722,157.68889 5.22652466,157.68889 C44.9216487,157.68889 81.0221586,137.466429 101.803291,103.58223 L103.302885,101.127013 L88.3584056,70.6646811 C90.971668,62.1816861 92.2948388,53.3531965 92.2874878,44.4769257 C92.2874878,29.9404243 88.7002248,15.5141871 81.907948,2.77131721 C81.0001058,1.06222159 79.2248516,-0.00366599941 77.2915521,0 C76.4645703,0 75.6265622,0.202160569 74.8363352,0.610138233" id="path-1"></path>
        <linearGradient x1="3.77705855%" y1="81.1303391%" x2="94.0590396%" y2="20.3344513%" id="linearGradient-3">
            <stop stop-color="#A73E3B" offset="0%"></stop>
            <stop stop-color="#A73E3B" offset="20%"></stop>
            <stop stop-color="#DFAF5E" offset="80%"></stop>
            <stop stop-color="#DFAF5E" offset="100%"></stop>
        </linearGradient>
        <path d="M0.279884838,3.56521021 C-0.650010196,6.2997632 0.812828632,9.2621956 3.54738162,10.1920906 C24.0491781,17.1497638 37.8395582,36.379846 37.8395582,58.0541188 C37.8395582,75.0348108 29.3822915,90.7805433 15.2243639,100.178731 C12.8169282,101.773887 12.1626937,105.019331 13.7578496,107.426767 C13.7578496,107.426767 13.7578496,107.426767 13.7578496,107.426767 C14.7612541,108.941063 16.4299195,109.768044 18.1206378,109.768044 C19.1130159,109.768044 20.1164204,109.488708 21.0095607,108.889606 C38.1041923,97.5434163 48.3036339,78.530187 48.3036339,58.0504434 C48.3036339,31.8994427 31.6684366,8.67411969 6.91411621,0.279336058 C6.35544409,0.0882113867 5.7930965,0 5.23442439,0 C3.05854352,0 1.02600615,1.37462744 0.272533889,3.55050831" id="path-4"></path>
        <linearGradient x1="-31.7769296%" y1="105.578745%" x2="113.512584%" y2="6.3123766%" id="linearGradient-6">
            <stop stop-color="#A73E3B" offset="0%"></stop>
            <stop stop-color="#A73E3B" offset="20%"></stop>
            <stop stop-color="#DFAF5E" offset="80%"></stop>
            <stop stop-color="#DFAF5E" offset="100%"></stop>
        </linearGradient>
        <path d="M60.7115196,4.71931877 L58.4364009,5.3919306 L40.8566067,36.1335988 C30.0764401,43.3044495 20.9392107,52.6769093 14.0440206,63.6334986 C1.03284107,84.21248 -3.11309411,108.444883 2.34130997,131.872357 C7.79938952,155.299831 22.2329777,175.117989 42.9553026,187.67341 C48.6265596,191.106303 54.6690396,193.918041 60.9283726,196.042465 L64.7067603,197.328882 L80.7318289,178.403864 C85.6275609,178.72363 95.1543906,178.811841 103.868941,175.89719 C106.908558,174.879084 108.562521,171.637315 107.570143,168.660181 C106.577765,165.683047 103.310268,164.08054 100.270651,165.098646 C92.3205998,167.756014 82.3122829,167.234097 79.1329975,166.804066 L75.9390102,166.37036 L61.0974444,183.898698 C56.9404828,182.252085 52.9268647,180.259978 49.1043713,177.944429 C11.7211207,155.303507 0.378606614,106.691682 23.8428355,69.5767408 C30.1646515,59.5794503 38.3940388,51.2618517 48.3141443,44.8628507 L49.5086735,44.0873255 L66.1328444,15.0106472 C90.7070665,8.37274037 116.439063,10.9786518 138.848431,22.4498075 C141.671195,23.9016199 145.170247,22.7916266 146.684542,19.9945906 C148.121653,17.3225206 147.20646,14.0550239 144.663031,12.5150001 C144.549092,12.4378151 144.42045,12.375332 144.30651,12.312849 C128.494619,4.2121033 110.980984,-0.00734136047 93.2137401,0 C82.3637396,0 71.4255276,1.5657617 60.7151951,4.71931877" id="path-7"></path>
        <linearGradient x1="22.0000619%" y1="68.8329235%" x2="90.2393689%" y2="23.1691147%" id="linearGradient-9">
            <stop stop-color="#A73E3B" offset="0%"></stop>
            <stop stop-color="#A73E3B" offset="20%"></stop>
            <stop stop-color="#DFAF5E" offset="80%"></stop>
            <stop stop-color="#DFAF5E" offset="100%"></stop>
        </linearGradient>
        <path d="M53.2955169,0.127521703 C35.1974807,3.94266418 19.8450239,14.5500834 10.1013412,29.9797251 C-9.4742357,60.9382464 0.269447049,101.677205 31.8270706,120.797023 C34.5358953,122.436285 38.09743,121.609303 39.7771218,118.951935 C41.4274099,116.346024 40.6518848,112.898429 38.0496489,111.248141 C38.0055432,111.222412 37.9651129,111.196684 37.9210073,111.16728 C11.7700066,95.3333362 3.70601565,61.5741035 19.9222089,35.9192918 C28.0119282,23.1359917 40.7180433,14.3479323 55.7286809,11.1796734 C58.8454833,10.518088 60.8302395,7.51522534 60.1686541,4.46458155 C59.8341859,2.95028608 58.8932644,1.6381417 57.5627427,0.840563746 C56.287353,0.0760650612 54.7693821,-0.18121815 53.3138942,0.127521703" id="path-10"></path>
        <linearGradient x1="10.2530609%" y1="76.6624701%" x2="131.581053%" y2="-5.4622496%" id="linearGradient-12">
            <stop stop-color="#A73E3B" offset="0%"></stop>
            <stop stop-color="#A73E3B" offset="20%"></stop>
            <stop stop-color="#DFAF5E" offset="80%"></stop>
            <stop stop-color="#DFAF5E" offset="100%"></stop>
        </linearGradient>
        <path d="M62.9387709,17.8297265 C61.2480526,16.8005937 60.7114333,14.6100109 61.7809964,12.9707493 C62.8101293,11.3057594 65.0631951,10.8095703 66.7171586,11.8129749 C68.4078768,12.8421077 68.9297942,15.0069622 67.874933,16.6719521 C67.2023212,17.7525416 66.0188184,18.3516439 64.8095874,18.3516439 C64.1737303,18.3516439 63.5121449,18.1862475 62.9277444,17.8297265 M51.9748306,7.03118261 C49.9643461,10.1737133 49.328489,13.7720027 49.8871611,17.1681411 C36.0232715,24.4308786 21.9682572,27.5219526 6.33646442,26.0444119 C3.16820545,25.750374 0.334414656,28.0291681 0.0293502774,31.1459704 C-0.290415999,34.2627728 2.0398348,37.0083522 5.20441829,37.3281185 C23.3281828,39.0188367 39.9413273,35.3433623 55.9406675,26.8236125 C56.2347055,27.0404655 56.525068,27.2426166 56.8705626,27.4594696 C63.9568773,31.7340463 73.3036088,29.5691919 77.7178536,22.6262207 C82.1063701,15.6575211 79.9047609,6.50926524 72.8331481,2.21263562 C70.3669047,0.713042042 67.6176498,0 64.8977987,0 C59.8109421,0 54.8490516,2.50667357 51.9895325,7.04588451" id="path-13"></path>
        <linearGradient x1="-25.5576622%" y1="98.866436%" x2="170.691239%" y2="-27.2468603%" id="linearGradient-15">
            <stop stop-color="#A73E3B" offset="0%"></stop>
            <stop stop-color="#A73E3B" offset="20%"></stop>
            <stop stop-color="#DFAF5E" offset="80%"></stop>
            <stop stop-color="#DFAF5E" offset="100%"></stop>
        </linearGradient>
        <path d="M47.791064,18.3589948 C46.0047834,17.2857563 45.4240584,14.9665319 46.5009724,13.1802514 C46.5156743,13.154523 46.5303762,13.1324702 46.5450781,13.1067419 C47.6513959,11.3131103 50.0551562,10.7544382 51.8745161,11.860756 C53.6938759,12.9670738 54.2782763,15.3193775 53.1462302,17.113009 C51.9958067,18.9139915 49.6177748,19.4689881 47.791064,18.3589948 M36.713184,7.15247327 C34.1624047,11.1844687 33.7103214,16.1978159 35.4929265,20.6230871 C28.726378,27.1250014 22.7721094,34.4244936 17.7624377,42.359843 C1.14929326,68.6394852 -4.02577476,99.6604895 3.14875135,129.714844 C10.3343039,159.769199 29.0314424,185.258614 55.8183001,201.489509 C85.2772278,219.322911 121.120455,223.571759 154.16297,213.115035 C157.176859,212.137358 158.867577,208.943371 157.889901,205.980939 C156.912225,203.018506 153.666781,201.390271 150.627163,202.331193 C120.826417,211.780837 88.4932679,207.954669 61.9232632,191.874468 C12.0250221,161.654717 -3.37889126,97.2567293 27.57963,48.2883832 C32.0710598,41.1800157 37.3747694,34.6928033 43.3768191,28.8524744 C50.3455187,31.995005 58.7807325,29.6169731 62.9266677,23.0636021 C67.4180975,15.9552346 65.1650316,6.6305559 57.9537508,2.25306583 C55.4360508,0.72774394 52.6353393,0 49.8787334,0 C44.7036654,0 39.6278352,2.54342832 36.7021576,7.15982422" id="path-16"></path>
        <linearGradient x1="31.2758107%" y1="62.4870874%" x2="92.6326848%" y2="21.3447281%" id="linearGradient-18">
            <stop stop-color="#A73E3B" offset="0%"></stop>
            <stop stop-color="#A73E3B" offset="20%"></stop>
            <stop stop-color="#DFAF5E" offset="80%"></stop>
            <stop stop-color="#DFAF5E" offset="100%"></stop>
        </linearGradient>
        <path d="M76.0968818,25.6511361 C74.6230165,24.7469694 74.1635822,22.8541001 75.0934773,21.4022877 C76.0233723,19.9504753 77.9419699,19.4947165 79.4305371,20.3988832 C80.9044023,21.3030499 81.389565,23.1959192 80.4596699,24.6477316 C79.8605676,25.5886531 78.8204083,26.1105705 77.7618717,26.1105705 C77.1884977,26.1105705 76.6187991,25.9562005 76.1079082,25.6511361 M4.43615654,2.47726978 C1.34508253,3.21604014 -0.588217024,6.28138582 0.161579762,9.32100319 C0.900350126,12.3348922 4.01715245,14.2057087 7.13027931,13.4669384 C26.3346333,8.92772742 46.1160367,11.5961219 63.2363967,20.9722572 C62.4241168,26.4670915 64.9013866,32.1787788 70.0286735,35.2698528 C76.9238635,39.4415163 85.9802326,37.3317939 90.2658358,30.5909738 C94.5404125,23.8244253 92.4012864,14.9224262 85.5355001,10.7470873 C80.3604321,7.63028495 73.9357028,8.02356071 69.2678503,11.3057594 C55.7604817,3.8261689 40.8013007,0 25.6032139,0 C18.5573294,0 11.4710146,0.82698175 4.45085844,2.48094525" id="path-19"></path>
        <linearGradient x1="-63.5381679%" y1="122.21105%" x2="113.118771%" y2="9.22116528%" id="linearGradient-21">
            <stop stop-color="#A73E3B" offset="0%"></stop>
            <stop stop-color="#A73E3B" offset="20%"></stop>
            <stop stop-color="#DFAF5E" offset="80%"></stop>
            <stop stop-color="#DFAF5E" offset="100%"></stop>
        </linearGradient>
        <path d="M8.97308972,13.7205461 C0.681219378,23.6553535 -2.06803551,36.7290161 1.58171062,49.3616218 C3.40107047,55.6466831 6.88542024,61.4061515 11.6157558,65.9490379 C18.7241234,72.7927714 27.7547641,76.5454308 37.1566278,76.8357933 C41.1518685,76.9644349 45.2095923,76.4682458 49.2268858,75.3104714 C55.3575772,73.5682965 60.9553248,70.2346412 65.4430791,65.7726152 L65.520264,65.6954302 C67.5564769,63.6592174 69.3243801,61.4465818 70.7982453,59.1200064 C72.0956878,57.0837936 71.8273782,54.7057616 70.555664,53.0150434 C70.5299357,55.0769845 68.8906741,56.7162461 66.8287329,56.7162461 C64.7667918,56.7162461 63.1275302,55.0512562 63.1275302,52.9893151 C63.1275302,52.3791863 63.2561718,51.8315406 63.5208059,51.3243251 C62.5651826,51.7690575 61.7529027,52.4820996 61.1685023,53.3862663 C60.9001927,53.8309987 60.5841019,54.2647047 60.2643356,54.6837088 C58.9154365,56.4773403 57.4158429,58.0908736 55.7251247,59.465501 C50.5500566,63.7768326 43.8717196,66.0151965 36.686167,65.647649 C33.4039684,65.4932791 30.1879282,64.6920257 27.196092,63.2953454 C16.7393672,58.4363682 10.5829475,48.2111983 11.1563215,36.7253406 C11.3474462,33.4578439 12.1339977,30.2013735 13.5343535,27.2095373 C18.5072704,16.4881784 28.8868103,10.853676 39.2920784,11.1697668 C44.6582711,11.3608915 50.0391657,13.1030664 54.6702635,16.5359595 C57.6584242,18.7485951 60.0879128,21.49785 61.9072727,24.588924 C62.8849489,26.253914 64.5793426,27.3602318 66.4979402,27.4116884 L66.8397594,27.4374167 C71.0371512,27.5660583 73.8856439,23.0231719 71.8016499,19.3844522 C68.7105759,13.9410746 64.2706027,9.29895034 58.7500401,5.79989867 C52.5311374,1.89654481 45.4962793,0 38.5018514,0 C27.3982431,0 16.4085745,4.75606393 8.92898403,13.7242216" id="path-22"></path>
        <linearGradient x1="-17.7392365%" y1="95.1890639%" x2="140.223616%" y2="-9.41922668%" id="linearGradient-24">
            <stop stop-color="#A73E3B" offset="0%"></stop>
            <stop stop-color="#A73E3B" offset="20%"></stop>
            <stop stop-color="#DFAF5E" offset="80%"></stop>
            <stop stop-color="#DFAF5E" offset="100%"></stop>
        </linearGradient>
        <path d="M9.15560684,12.8641606 C9.15560684,12.2540318 9.28424845,11.7063861 9.54888261,11.1991706 C10.427321,9.44229385 12.6399566,8.51607429 14.9040489,9.69957706 C15.9478836,10.2472227 16.5837407,11.3388387 16.5837407,12.511315 L16.5837407,13.0185305 C16.5837407,14.2277616 15.9993403,15.3965624 14.9444791,15.9956648 C12.0959864,17.6349264 9.15560684,15.602389 9.15560684,12.8531341 M0,12.8641606 C0,15.2164642 0.635857079,17.4290998 1.76790321,19.336671 C3.75265941,22.7952925 7.31419414,25.1990528 11.4601293,25.6437852 C11.93059,25.6952418 12.3900244,25.7209702 12.8604851,25.7209702 C19.9688527,25.7209702 25.7209702,19.9578262 25.7209702,12.8604851 C25.7209702,5.76314393 19.9578262,0 12.8604851,0 C5.76314393,0 0,5.76314393 0,12.8604851" id="path-25"></path>
        <linearGradient x1="-181.93092%" y1="203.620676%" x2="287.997827%" y2="-107.418376%" id="linearGradient-27">
            <stop stop-color="#A73E3B" offset="0%"></stop>
            <stop stop-color="#A73E3B" offset="20%"></stop>
            <stop stop-color="#DFAF5E" offset="80%"></stop>
            <stop stop-color="#DFAF5E" offset="100%"></stop>
        </linearGradient>
        <path d="M11.4233746,14.7276261 C11.4233746,12.9009153 12.9009153,11.4196991 14.7276261,11.4160168 C16.5543369,11.4123481 18.0355531,12.8935643 18.0392286,14.7202751 L18.0392286,14.7276261 C18.0392286,16.5543369 16.5543369,18.0318776 14.7239506,18.0318776 C12.9009153,18.0318776 11.4233746,16.5506614 11.4196991,14.7276261 M0,14.7276261 C0,22.868802 6.59012568,29.4552522 14.7276261,29.4552522 C22.8651265,29.4552522 29.4552522,22.8651265 29.4552522,14.7276261 C29.4552522,6.59012568 22.8651265,0 14.7276261,0 C6.59012568,0 0,6.59012568 0,14.7276261" id="path-28"></path>
        <linearGradient x1="-240.353623%" y1="243.095125%" x2="170.150773%" y2="-28.6118068%" id="linearGradient-30">
            <stop stop-color="#A73E3B" offset="0%"></stop>
            <stop stop-color="#A73E3B" offset="20%"></stop>
            <stop stop-color="#DFAF5E" offset="80%"></stop>
            <stop stop-color="#DFAF5E" offset="100%"></stop>
        </linearGradient>
        <path d="M1.89995958,1.23495941 C-0.327377934,3.06534569 -0.643468736,6.36224626 1.20161943,8.5859083 C16.3261968,26.9154994 24.6548219,50.1261205 24.6548219,73.9358439 C24.6548219,78.6919078 24.3130027,83.4369454 23.6624438,88.1305262 C24.8827013,87.8364883 26.143389,87.6600655 27.4408315,87.6600655 C29.807837,87.6600655 32.0572274,88.1819829 34.0787383,89.1118779 C34.7513502,84.0875043 35.1078712,79.026376 35.1078712,73.9248175 C35.1078712,47.6856054 25.9228605,22.1190052 9.25090847,1.90757124 C8.22177562,0.646883502 6.71850658,0 5.218913,0 C4.05011213,0 2.86660936,0.393275766 1.89995958,1.19452919" id="path-31"></path>
        <linearGradient x1="-94.1218333%" y1="148.903044%" x2="89.5646746%" y2="22.9489528%" id="linearGradient-33">
            <stop stop-color="#A73E3B" offset="0%"></stop>
            <stop stop-color="#A73E3B" offset="20%"></stop>
            <stop stop-color="#DFAF5E" offset="80%"></stop>
            <stop stop-color="#DFAF5E" offset="100%"></stop>
        </linearGradient>
    </defs>
    <g id="Page-1" stroke="none" stroke-width="1" fill="none" fill-rule="evenodd">
        <g id="caido" transform="translate(-115, -69)">
            <rect id="box" x="115" y="69" width="240" height="240"></rect>
            <g id="shape" transform="translate(115, 77)">
                <g id="Clipped" transform="translate(113.2219, 67.4927)">
                    <mask id="mask-2" fill="white">
                        <use xlink:href="#path-1"></use>
                    </mask>
                    <g id="Path"></g>
                    <polygon id="Path" fill="url(#linearGradient-3)" fill-rule="nonzero" mask="url(#mask-2)" points="-72.6016467 48.0605133 71.8150952 -47.5275506 175.860426 109.668816 31.4436839 205.25688"></polygon>
                </g>
                <g id="Clipped" transform="translate(132.8704, 53.9119)">
                    <mask id="mask-5" fill="white">
                        <use xlink:href="#path-4"></use>
                    </mask>
                    <g id="Path"></g>
                    <polygon id="Path" fill="url(#linearGradient-6)" fill-rule="nonzero" mask="url(#mask-5)" points="-51.1730819 33.4688703 33.3812077 -22.4975791 98.8083283 76.3543061 14.2540387 132.320755"></polygon>
                </g>
                <g id="Clipped" transform="translate(27.043, 0)">
                    <mask id="mask-8" fill="white">
                        <use xlink:href="#path-7"></use>
                    </mask>
                    <g id="Path"></g>
                    <polygon id="Path" fill="url(#linearGradient-9)" fill-rule="nonzero" mask="url(#mask-8)" points="-93.9303921 60.127096 102.064283 -69.60245 238.957328 137.223848 42.9626535 266.949718"></polygon>
                </g>
                <g id="Clipped" transform="translate(51.8954, 46.7054)">
                    <mask id="mask-11" fill="white">
                        <use xlink:href="#path-10"></use>
                    </mask>
                    <g id="Path"></g>
                    <polygon id="Path" fill="url(#linearGradient-12)" fill-rule="nonzero" mask="url(#mask-11)" points="-65.8339608 37.3196476 39.391197 -32.3269176 117.15321 85.159623 11.928052 154.806188"></polygon>
                </g>
                <g id="Clipped" transform="translate(105.8746, 163.2168)">
                    <mask id="mask-14" fill="white">
                        <use xlink:href="#path-13"></use>
                    </mask>
                    <g id="Shape"></g>
                    <polygon id="Path" fill="url(#linearGradient-15)" fill-rule="nonzero" mask="url(#mask-14)" points="-18.2561351 11.8828089 56.9955287 -37.9272208 100.057387 27.1323523 24.8057235 76.942382"></polygon>
                </g>
                <g id="Clipped" transform="translate(0, 7.079)">
                    <mask id="mask-17" fill="white">
                        <use xlink:href="#path-16"></use>
                    </mask>
                    <g id="Shape"></g>
                    <polygon id="Path" fill="url(#linearGradient-18)" fill-rule="nonzero" mask="url(#mask-17)" points="-106.924357 68.1249188 109.263374 -74.9686522 261.791888 155.476244 45.6004812 298.569816"></polygon>
                </g>
                <g id="Clipped" transform="translate(93.062, 23.7767)">
                    <mask id="mask-20" fill="white">
                        <use xlink:href="#path-19"></use>
                    </mask>
                    <g id="Shape"></g>
                    <polygon id="Path" fill="url(#linearGradient-21)" fill-rule="nonzero" mask="url(#mask-20)" points="-18.7303589 12.007775 65.570323 -43.7896025 112.704607 27.4227148 28.4039254 83.2200924"></polygon>
                </g>
                <g id="Clipped" transform="translate(78.2227, 72.734)">
                    <mask id="mask-23" fill="white">
                        <use xlink:href="#path-22"></use>
                    </mask>
                    <g id="Path"></g>
                    <polygon id="Path" fill="url(#linearGradient-24)" fill-rule="nonzero" mask="url(#mask-23)" points="-37.4922582 23.4568779 50.7742606 -34.9647884 109.342946 53.5259343 21.0764271 111.947601"></polygon>
                </g>
                <g id="Clipped" transform="translate(132.2094, 112.8408)">
                    <mask id="mask-26" fill="white">
                        <use xlink:href="#path-25"></use>
                    </mask>
                    <g id="Shape"></g>
                    <polygon id="Path" fill="url(#linearGradient-27)" fill-rule="nonzero" mask="url(#mask-26)" points="-11.8460541 7.86183984 17.8848586 -11.8166503 37.5633488 17.9142624 7.83243604 37.5927526"></polygon>
                </g>
                <g id="Clipped" transform="translate(210.5447, 123.8488)">
                    <mask id="mask-29" fill="white">
                        <use xlink:href="#path-28"></use>
                    </mask>
                    <g id="Shape"></g>
                    <polygon id="Path" fill="url(#linearGradient-30)" fill-rule="nonzero" mask="url(#mask-29)" points="-13.5551497 8.98653502 20.4797436 -13.5404479 43.0067265 20.4944455 8.97183312 43.0214284 -13.5551497 8.98653502"></polygon>
                </g>
                <g id="Clipped" transform="translate(196.5231, 38.0301)">
                    <mask id="mask-32" fill="white">
                        <use xlink:href="#path-31"></use>
                    </mask>
                    <g id="Path"></g>
                    <polygon id="Path" fill="url(#linearGradient-33)" fill-rule="nonzero" mask="url(#mask-32)" points="-41.6470616 27.2021864 24.2284668 -16.399967 76.1298415 62.0126048 10.254313 105.614758"></polygon>
                </g>
            </g>
        </g>
    </g>
</svg>