<?xml version="1.0" encoding="UTF-8"?>
<svg width="400px" height="400px" viewBox="0 0 400 400" version="1.1" xmlns="http://www.w3.org/2000/svg" xmlns:xlink="http://www.w3.org/1999/xlink">
    <title>canarytokens</title>
    <g id="Page-1" stroke="none" stroke-width="1" fill="none" fill-rule="evenodd">
        <g id="canarytokens">
            <rect id="box" x="0" y="0" width="400" height="400"></rect>
            <g id="Group" transform="translate(20, 21)" fill-rule="nonzero">
                <polygon id="Fill-1" fill="#39D47D" points="76.424581 94.5251397 127.709497 145.636335 127.709497 212.080627 76.424581 264.469274"></polygon>
                <polygon id="Fill-2" fill="#39D47D" points="0 341.899441 0 18.1005587 51.2849162 69.2942348 51.2849162 290.705765"></polygon>
                <g id="Group-13" transform="translate(18.1006, 0)">
                    <path d="M129.332719,128.113995 L128.051996,128.113995 L76.8314925,76.8682918 L139.576925,76.8682918 C162.626257,76.8682918 181.833946,69.1818314 198.480715,52.5270436 L199.761438,51.2457035 L51.2207141,51.2457035 L0.000210645268,0 L323.972107,0 C295.800409,26.9039285 268.909434,55.0891971 242.018459,81.9931256 C211.285841,112.740547 172.870463,128.113995 129.332719,128.113995" id="Fill-3" fill="#39D47D"></path>
                    <polygon id="Fill-5" fill="#39D47D" points="76.8313345 283.131708 128.052365 231.886005 194.63944 231.886005 247.140668 283.131708"></polygon>
                    <polygon id="Fill-7" fill="#39D47D" points="323.971897 360 0 360 51.2210301 308.754297 272.750867 308.754297"></polygon>
                    <path d="M213.84713,212.669116 L213.84713,212.669116 L265.06816,265.195633 L265.06816,202.419975 C265.06816,179.359541 272.750919,160.142599 289.397688,143.487812 L290.678411,142.206472 L290.678411,290.818748 L341.899441,342.063925 L341.899441,17.9359699 C315.008466,44.8398983 286.836769,73.025167 259.945793,99.9290954 C229.213176,130.676518 213.84713,169.1104 213.84713,212.669116" id="Fill-9" fill="#39D47D"></path>
                    <path d="M161.345744,153.736794 C176.71179,153.736794 188.23672,165.267276 188.23672,179.359383 C188.23672,194.733357 176.71179,206.263311 161.345744,206.263311 C147.259896,206.263311 135.735493,194.733357 135.735493,179.359383 C135.735493,165.267276 147.259896,153.736794 161.345744,153.736794" id="Fill-11" fill="#EA4458"></path>
                </g>
            </g>
        </g>
    </g>
</svg>