<?xml version="1.0" encoding="UTF-8"?>
<svg width="240px" height="240px" viewBox="0 0 240 240" version="1.1" xmlns="http://www.w3.org/2000/svg" xmlns:xlink="http://www.w3.org/1999/xlink">
    <title>cardano</title>
    <g id="Page-1" stroke="none" stroke-width="1" fill="none" fill-rule="evenodd">
        <g id="cardano">
            <rect id="box" x="0" y="0" width="240.004149" height="240" rx="32"></rect>
            <g id="shape" transform="translate(0, 10)" fill="#FFFFFF" fill-rule="nonzero">
                <path d="M65.3006948,108.618048 C64.7761702,117.701098 71.791687,125.477235 80.9053022,126 C81.2331301,126 81.560958,126 81.8887858,126 C91.0679666,126 98.4768768,118.615938 98.4113113,109.467542 C98.4113113,100.319147 91.0024011,92.9350847 81.8232203,93.0004304 C73.0374329,93.0004304 65.7596539,99.861727 65.3006948,108.618048 Z" id="Path"></path>
                <path d="M5.2948563,106.010982 C2.52699149,105.827337 0.128175333,107.96986 0.0051591201,110.724533 C-0.117857093,113.479206 1.97341853,115.866589 4.74128334,115.989018 C7.50914814,116.172663 9.84645619,114.03014 10.0309805,111.275467 C10.2155048,108.520794 8.0627211,106.194626 5.2948563,106.010982 C5.2948563,106.010982 5.2948563,106.010982 5.2948563,106.010982 Z" id="Path"></path>
                <path d="M65.5410882,17.4484995 C68.0020571,16.2262649 68.9864446,13.1706786 67.7559602,10.7262096 C66.5254757,8.28174052 63.4492647,7.3039529 60.9882958,8.52618743 C58.5273269,9.74842196 57.5429394,12.7428965 58.7734238,15.1873656 C60.0039082,17.6929464 63.0185951,18.7318457 65.5410882,17.4484995 C65.479564,17.4484995 65.5410882,17.4484995 65.5410882,17.4484995 Z" id="Path"></path>
                <path d="M81.9356769,45.1539402 C85.8948576,43.1826322 87.4913015,38.3497482 85.5117111,34.4071322 C83.5321208,30.4645163 78.6789315,28.8747518 74.7197509,30.8460598 C70.7605702,32.8173678 69.1641263,37.6502518 71.1437167,41.5928678 C73.123307,45.5354837 77.9764963,47.1252482 81.9356769,45.1539402 Z" id="Path"></path>
                <path d="M27.0651381,63.9481312 C30.0772278,65.8894194 34.0933474,65.0753308 36.1014072,62.0694653 C38.0467151,59.0635998 37.2309408,55.0557791 34.2188511,53.0518688 C31.2067614,51.1105806 27.1906418,51.9246692 25.182582,54.9305347 C25.182582,54.9305347 25.182582,54.9305347 25.182582,54.9305347 C23.1745222,57.9364002 24.0530484,62.0068431 27.0651381,63.9481312 Z" id="Path"></path>
                <path d="M36.5968136,103.013456 C32.1412029,102.759915 28.3857596,106.119334 28.1311533,110.556303 C27.876547,114.993272 31.2500808,118.733003 35.7056915,118.986544 C40.1613022,119.240085 43.9167455,115.880666 44.1713519,111.443697 C44.1713519,111.443697 44.1713519,111.443697 44.1713519,111.443697 C44.4259582,107.070113 41.0524244,103.266997 36.5968136,103.013456 Z" id="Path"></path>
                <path d="M27.6833154,156.697377 C24.4878624,158.319616 23.1720877,162.188031 24.8011421,165.432508 C26.4301966,168.614592 30.3148648,169.924862 33.5729737,168.302623 C36.7684266,166.680384 38.0842014,162.811969 36.4551469,159.567492 C36.4551469,159.567492 36.4551469,159.567492 36.4551469,159.567492 C34.8260925,156.385408 30.8787683,155.075138 27.6833154,156.697377 C27.6833154,156.697377 27.6833154,156.697377 27.6833154,156.697377 Z" id="Path"></path>
                <path d="M58.5588844,86.439244 C62.9952508,89.3204212 68.9104059,88.1039242 71.7393931,83.6861191 C74.6326755,79.2683139 73.4110674,73.3779071 68.9747011,70.560756 C64.5383347,67.6795788 58.6231796,68.8960758 55.7941923,73.3138809 C52.9009099,77.6676599 54.122518,83.5580667 58.5588844,86.439244 C58.5588844,86.439244 58.5588844,86.439244 58.5588844,86.439244 Z" id="Path"></path>
                <path d="M157.283497,44.6924873 C160.968044,47.1030514 165.98665,46.0880771 168.400663,42.4087949 C170.814676,38.7295128 169.79825,33.7180769 166.113703,31.3075127 C162.429157,28.8969486 157.410551,29.9119229 154.996537,33.5912051 C154.996537,33.5912051 154.996537,33.5912051 154.996537,33.5912051 C152.518998,37.3339231 153.535424,42.2819231 157.283497,44.6924873 C157.283497,44.6924873 157.283497,44.6924873 157.283497,44.6924873 Z" id="Path"></path>
                <path d="M173.979241,15.1809215 C176.318079,16.7062648 179.395499,16.0351137 180.934208,13.7165919 C182.472918,11.3980701 181.795886,8.34738344 179.457047,6.82204013 C177.118208,5.29669681 174.040789,5.96784787 172.502079,8.22535598 C171.024918,10.5438778 171.70195,13.6555782 173.979241,15.1809215 C173.979241,15.1809215 173.979241,15.1809215 173.979241,15.1809215 Z" id="Path"></path>
                <path d="M159.095062,93.0275393 C149.963388,92.5041669 142.079929,99.5042727 141.620061,108.597868 C141.094497,117.691463 148.123914,125.542049 157.255588,126 C157.584065,126 157.912543,126 158.175325,126 C167.306998,126 174.730589,118.607365 174.730589,109.448348 C174.796284,100.747282 167.898258,93.4854901 159.095062,93.0275393 L159.095062,93.0275393 Z" id="Path"></path>
                <path d="M86.1389742,84.9389021 C88.9593961,90.4798613 94.6658311,94 100.962587,94 C110.079765,94 117.491571,86.6337837 117.491571,77.5074981 C117.491571,74.9651757 116.90125,72.4228532 115.720608,70.0760941 C111.588362,61.9276248 101.618499,58.668237 93.4851893,62.7750656 C85.2862886,66.9470819 82.0067282,76.8556206 86.1389742,84.9389021 L86.1389742,84.9389021 Z" id="Path"></path>
                <path d="M212.366486,64.2999656 C215.565468,62.6715456 216.819971,58.7257586 215.189117,55.5315501 C213.558264,52.3373416 209.60658,51.0847108 206.407598,52.7131308 C203.208615,54.3415508 201.954112,58.2247063 203.522241,61.4189148 C205.21582,64.6131233 209.104779,65.9283856 212.366486,64.2999656 C212.366486,64.2999656 212.366486,64.2999656 212.366486,64.2999656 Z" id="Path"></path>
                <path d="M171.961575,69.9895968 C167.267861,72.3621579 165.338937,78.0691293 167.717943,82.7501282 C170.096949,87.4311272 175.819423,89.3548254 180.513137,86.9822643 C185.206852,84.6097032 187.135776,78.9027318 184.75677,74.2217329 C182.377764,69.5407339 176.65529,67.681159 171.961575,69.9895968 Z" id="Path"></path>
                <path d="M119.62299,12.9909663 C123.193724,13.1782029 126.263303,10.4320661 126.513881,6.87457075 C126.764459,3.31707536 123.945458,0.258877567 120.374723,0.00922876756 C116.803989,-0.178007832 113.73441,2.50571676 113.483832,6.06321216 C113.295899,9.68311975 116.052255,12.7413175 119.62299,12.9909663 C119.62299,12.9909663 119.62299,12.9909663 119.62299,12.9909663 Z" id="Path"></path>
                <path d="M119.484146,54.9821748 C124.761548,55.3025185 129.266648,51.2661874 129.524083,46.01255 C129.845875,40.7589126 125.791285,36.2741002 120.513883,36.0178252 C115.23648,35.6974815 110.73138,39.7338126 110.473946,44.98745 C110.216512,50.2410874 114.206743,54.7258998 119.484146,54.9821748 C119.484146,54.9821748 119.484146,54.9821748 119.484146,54.9821748 Z" id="Path"></path>
                <path d="M68.0425739,151.983769 C72.7362885,149.614717 74.6652123,143.916185 72.2862063,139.242108 C69.9072002,134.568032 64.1847262,132.647178 59.4910116,135.016231 C54.797297,137.385283 52.8683731,143.083815 55.2473792,147.757892 C57.6263852,152.431968 63.3488592,154.352822 68.0425739,151.983769 Z" id="Path"></path>
                <path d="M125.217948,68.4617111 C120.224297,76.119783 122.326887,86.3305456 130.014482,91.3050196 C137.702077,96.2794937 147.952205,94.1849783 152.945856,86.5269064 C157.939508,78.8688345 155.836918,68.6580719 148.149322,63.6835978 C145.455379,61.9163505 142.301493,61 139.081902,61 C133.496897,61 128.306128,63.8145051 125.217948,68.4617111 Z" id="Path"></path>
                <path d="M153.855084,135.089919 C149.726155,126.929038 139.764295,123.664685 131.637514,127.777769 C123.445195,131.890854 120.168267,141.814486 124.297196,149.910081 C128.426125,158.070962 138.387985,161.335315 146.514766,157.222231 C146.514766,157.222231 146.514766,157.222231 146.514766,157.222231 C154.641547,153.174433 157.984013,143.381375 153.920623,135.220494 C153.920623,135.155207 153.920623,135.155207 153.855084,135.089919 Z" id="Path"></path>
                <path d="M181.445265,133.560756 C177.008898,130.679579 171.093743,131.896076 168.264756,136.313881 C165.371473,140.731686 166.593082,146.622093 171.029448,149.439244 C175.465814,152.320421 181.380969,151.103924 184.209957,146.686119 C187.103239,142.33234 185.881631,136.441933 181.445265,133.560756 C181.445265,133.560756 181.445265,133.560756 181.445265,133.560756 Z" id="Path"></path>
                <path d="M212.877197,111.443817 C213.131803,107.006785 209.75827,103.267001 205.302659,103.013456 C200.847048,102.759911 197.091605,106.119379 196.836999,110.556411 C196.582392,114.993443 199.955926,118.733227 204.411537,118.986772 C204.411537,118.986772 204.411537,118.986772 204.411537,118.986772 C208.803496,119.240316 212.622591,115.817463 212.877197,111.443817 Z" id="Path"></path>
                <path d="M235.26009,106.010982 C232.490605,105.827337 230.090385,107.96986 229.967297,110.724533 C229.844208,113.479206 231.936708,115.866589 234.706193,115.989018 C237.475678,116.172663 239.814355,114.03014 239.998987,111.275467 C240.122075,108.520794 238.029575,106.194626 235.26009,106.010982 Z" id="Path"></path>
                <path d="M212.939011,156.051869 C209.926921,154.110581 205.910802,154.924669 203.902742,157.930535 C201.957434,160.9364 202.773208,164.944221 205.785298,166.948131 C208.797388,168.889419 212.813507,168.075331 214.821567,165.069465 C216.829627,162.0636 215.951101,157.993157 212.939011,156.051869 C212.939011,156.051869 212.939011,156.051869 212.939011,156.051869 Z" id="Path"></path>
                <path d="M66.0047187,204.82684 C63.6728438,203.29259 60.6045874,203.96766 59.0704592,206.23835 C57.536331,208.57041 58.2113474,211.63891 60.4818571,213.17316 C62.813732,214.70741 65.8819884,214.03234 67.4161166,211.76165 C67.4161166,211.76165 67.4161166,211.76165 67.4161166,211.76165 C69.0116099,209.49096 68.3365935,206.36109 66.0047187,204.82684 Z" id="Path"></path>
                <path d="M174.463061,204.551501 C172.002092,205.773735 171.017704,208.829321 172.248189,211.27379 C173.478673,213.718259 176.554884,214.696047 179.015853,213.473813 C181.476822,212.251578 182.46121,209.257103 181.230725,206.812634 C180.000241,204.307054 176.985554,203.268154 174.463061,204.551501 C174.524585,204.551501 174.463061,204.551501 174.463061,204.551501 Z" id="Path"></path>
                <path d="M114.79391,151.552196 C119.773332,143.909542 117.676733,133.719336 110.011045,128.689555 C102.345357,123.725095 92.12444,125.815394 87.0795001,133.458049 C82.0345602,141.100703 84.1966773,151.290909 91.8623652,156.32069 C94.5486319,158.084379 97.6935295,158.998885 100.903946,158.998885 C106.538554,159.064207 111.714531,156.255368 114.79391,151.552196 Z" id="Path"></path>
                <path d="M82.7206517,177.307513 C79.0361052,174.896949 74.0174989,175.911923 71.6034857,179.591205 C69.1894725,183.270487 70.2058991,188.281923 73.8904456,190.692487 C77.574992,193.103051 82.5935983,192.088077 85.0076115,188.408795 C85.0076115,188.408795 85.0076115,188.408795 85.0076115,188.408795 C87.4851513,184.729513 86.4687247,179.718077 82.7206517,177.307513 Z" id="Path"></path>
                <path d="M120.381159,207.009034 C116.810425,206.821797 113.740846,209.567934 113.490268,213.125429 C113.23969,216.682925 116.058691,219.741122 119.629426,219.990771 C123.20016,220.178008 126.269739,217.494283 126.520317,213.936788 C126.70825,210.31688 123.951894,207.258682 120.381159,207.009034 C120.381159,207.009034 120.381159,207.009034 120.381159,207.009034 Z" id="Path"></path>
                <path d="M120.516778,165.017831 C115.241068,164.697384 110.737412,168.73501 110.480061,173.990333 C110.158371,179.245656 114.211661,183.731907 119.487371,183.988264 C124.763081,184.244621 129.266737,180.271085 129.524088,175.015762 C129.845778,169.824529 125.792488,165.274188 120.516778,165.017831 C120.516778,165.017831 120.516778,165.017831 120.516778,165.017831 Z" id="Path"></path>
                <path d="M158.017321,176.870218 C154.083897,178.896367 152.497839,183.70847 154.527993,187.634134 C156.558148,191.559797 161.379765,193.142726 165.313189,191.116577 C169.246613,189.153745 170.832672,184.341642 168.865959,180.415979 C166.835805,176.490315 162.014188,174.844069 158.017321,176.870218 C158.017321,176.870218 158.017321,176.870218 158.017321,176.870218 Z" id="Path"></path>
            </g>
        </g>
    </g>
</svg>