<?xml version="1.0" encoding="UTF-8"?>
<svg width="240px" height="240px" viewBox="0 0 240 240" version="1.1" xmlns="http://www.w3.org/2000/svg" xmlns:xlink="http://www.w3.org/1999/xlink">
    <title>cassandra</title>
    <g id="Page-1" stroke="none" stroke-width="1" fill="none" fill-rule="evenodd">
        <g id="cassandra" transform="translate(238, 117)">
            <rect id="box" x="-238" y="-117" width="240" height="240"></rect>
            <g id="shape" transform="translate(-238, -60.1415)" fill-rule="nonzero">
                <path d="M119.861682,16.1718738 C97.1095952,16.677193 73.9527603,23.5943285 47.7584411,37.9246638 C43.0026516,43.3536063 40.5479297,49.2378915 41.0688554,55.212875 C42.8302589,75.5181938 78.030222,89.1136875 119.687416,85.5838568 C161.352104,82.0521751 193.694471,62.731581 191.931194,42.4318152 C191.599526,38.6224856 190.09109,35.0463802 187.5839,31.7793895 C163.748738,21.2287681 141.984161,15.6776605 119.863556,16.1718738 L119.861682,16.1718738 Z" id="Path" fill="#BAE6FA"></path>
                <path d="M122.616246,16.1415 C104.171802,16.1082327 85.5480859,20.291537 65.3071895,29.2716968 C64.4575163,32.5067854 64,35.8720212 64,39.3395157 C64,63.5283104 85.9383754,83.1415 113.000934,83.1415 C140.059757,83.1415 162,63.5301697 162,39.3395157 C162,32.820998 160.390289,26.6408632 157.531279,21.0817167 C145.729225,17.8800945 134.207283,16.1640101 122.616246,16.1415 Z" id="Path" fill="#FFFFFF" opacity="0.35"></path>
                <path d="M112.710929,14.1845259 C103.883984,13.6472347 88.6750274,18.2338667 75.9955723,22.8092662 C74.0149834,27.4547149 72.9961146,32.4506427 73,37.4977212 C73,58.8396008 92.4222978,76.1415 112.96839,76.1415 C133.377295,76.1415 151.437108,58.8096473 152.936768,37.5014654 C153.425379,30.5578661 151.025548,24.0223835 147.699234,18.3798901 C134.549961,16.0772136 120.600117,14.6656542 112.70905,14.186398" id="Path" fill="#FFFFFF"></path>
                <path d="M90.4609572,34.6536359 C91.5491184,32.2701376 93.1964736,31.1045396 94.7928212,29.107706 C94.6171285,28.6351158 94.2260705,27.0865891 94.2260705,26.5486208 C94.2282335,25.1127886 94.9488985,23.7710649 96.1507789,22.9652263 C97.3526593,22.1593877 98.8799779,21.9938801 100.229849,22.5231985 C107.743979,16.8377605 117.420159,14.7376497 126.651763,16.7886062 C127.532116,16.9847405 128.389798,17.2201016 129.234257,17.4816139 C119.741184,16.179656 109.042821,19.5045988 101.765743,25.312041 C101.986776,25.8294619 102.602645,27.3107426 102.602645,27.910353 C102.602645,30.305059 101.036524,30.88599 98.6164987,30.88599 C98.0629723,30.88599 97.5396725,30.7813851 97.052267,30.6001944 C95.4086902,32.7819546 93.3929471,36.940001 92.406801,39.540181 C96.4307305,43.1004849 100.06927,44.3874993 104.805416,46.1415 C104.79597,45.9173466 104.967884,45.7118726 104.967884,45.4839832 C104.967884,38.2625064 111.396725,32.3952899 118.702141,32.3952899 C125.1443,32.3976569 130.645375,36.9940495 131.722292,43.2742038 C134.990554,41.2194639 138.145466,39.6447859 140.552267,36.600035 C139.993073,35.9238387 139.384761,34.0035909 139.384761,33.0602785 C139.384761,30.8897259 141.168136,29.1282534 143.369018,29.1282534 C143.678841,29.1282534 143.97733,29.1712162 144.270151,29.2403301 C145.4957,26.74841 146.412291,24.1192193 147,21.4099031 C135.579975,13.0527154 113.486146,14.1940301 113.486146,14.1940301 C113.486146,14.1940301 95.9017632,13.2862086 84,19.0208009 C84.7934509,24.695619 87.0831234,30.0883773 90.4609572,34.6555038" id="Path" fill="#353333"></path>
                <path d="M144.434692,31.6739803 C145.239624,32.3961094 145.676802,33.033614 146.018289,33.6523131 C147.082151,35.5629464 144.95255,37.3137334 142.77229,37.3137334 C142.553829,37.309753 142.336067,37.2877389 142.121214,37.2479143 C139.661385,41.097389 135.355277,46.0375795 131.527626,48.5236594 C137.396691,49.4883787 142.929899,51.8409399 147.333575,55.4816742 C150.538295,49.7215662 153,41.4095594 153,34.3499952 C153,28.9716378 150.628357,25.031897 147.057759,22.1415 C146.868252,25.0206137 145.331563,29.0506206 144.434692,31.6758608 M96.8066985,68.1396195 C98.7599266,62.7292928 103.570759,58.5356785 108.120786,54.8479306 C107.452823,53.933986 106.456508,51.6735715 106.041846,50.6016611 C100.559348,48.9277655 95.6294605,45.8013639 91.7725862,41.5524807 C91.7481944,41.6747161 91.7162973,41.7969515 91.6825239,41.9173064 C90.9859827,45.0656752 90.8210839,48.3088175 91.1946859,51.5118446 C93.9013225,52.0199913 95.8619591,54.3897768 95.8591671,57.1497172 C95.8591671,58.8139991 94.4012822,61.2229766 93.2736261,62.274201 C94.5026024,64.9314105 95.3375558,66.2139418 96.8066985,68.1415" id="Shape" fill="#353333"></path>
                <path d="M96.1331988,72.1178262 C93.813726,69.8066279 92.2120964,65.2010469 90.7074224,62.3087794 C90.4220921,62.3565559 90.1334255,62.3815463 89.8441459,62.383515 C86.7005517,62.383515 83.4077953,59.7378749 84.1536065,56.6793207 C84.5675317,54.9865595 85.7309971,53.8804727 87.6309512,52.9574881 C87.1965161,49.4505204 87.0790509,44.4096045 87.8919851,40.7662443 C88.1250511,39.7255511 88.619151,39.2341646 88.9473079,38.243918 C85.4792859,33.1562924 83.2362587,26.4805354 83.2362587,19.8608301 C83.2362587,19.6179394 83.2511749,19.3806539 83.254904,19.1415 C77.3946925,22.0860824 73,26.7271628 73,34.026962 C73,50.1847976 82.2853494,66.0362172 96.1015018,72.2467451 C96.112689,72.2037721 96.1201471,72.1589308 96.1331988,72.1159578 M130.108628,49.7812254 C128.274888,55.0172486 123.342235,58.5227234 117.804608,58.5252899 C114.882347,58.5274918 112.045133,57.5398501 109.753576,55.7227051 C105.178024,59.2913298 101.027585,65.5635145 98.9206682,71.0042658 C99.8641193,72.0225383 100.524162,72.8651821 101.586943,73.7694828 C104.786473,74.6065215 109.194217,73.7694828 112.656646,73.7694828 C126.590264,73.7694828 138.927845,67.5570865 146,56.6681104 C141.295796,53.4040333 135.748825,50.2987694 130.108628,49.7812254" id="Shape" fill="#353333"></path>
                <path d="M89.4609572,36.6542866 C90.5337201,34.305073 91.8933292,32.094542 93.5094458,30.0720199 C93.007066,28.7406609 93.19587,27.2504585 94.0148731,26.0827556 C94.8338761,24.9150528 96.1792749,24.2178483 97.6164987,24.2163428 C98.1851385,24.2163428 98.7311083,24.3284132 99.231738,24.5245363 C107.495103,18.2798158 118.314514,16.3999748 128.236146,19.4851051 C118.741184,18.1850888 108.934509,21.0596939 101.655542,26.8668072 C102.335493,28.4664421 101.985713,30.3128126 100.766321,31.5607119 C99.5469285,32.8086112 97.6926322,33.217843 96.052267,32.6010747 C94.3930271,34.8031633 93.0555962,37.2252361 92.0793451,39.7959927 C95.5365239,43.4775046 99.7758186,46.3894665 104.513854,48.1415 C104.502519,47.9173593 104.481738,47.698822 104.481738,47.4690778 C104.480736,44.0022437 105.872954,40.677063 108.352015,38.2252908 C110.831076,35.7735185 114.193829,34.3960684 117.700252,34.3960685 C124.248111,34.3960685 129.668136,39.1030243 130.726071,45.2743662 C134.007406,43.1962954 136.906054,40.5798863 139.297229,37.5377747 C138.713465,36.8425494 138.392242,35.9683337 138.388539,35.0647551 C138.388539,32.8905898 140.170025,31.1292171 142.369018,31.1292171 C142.678841,31.1292171 142.97733,31.1740452 143.270151,31.2412875 C144.49567,28.7507991 145.412266,26.1229968 146,23.4150396 C134.583753,15.0527218 112.486146,16.1939718 112.486146,16.1939718 C112.486146,16.1939718 94.9017632,15.2862018 83,21.0242049 C83.7953401,26.6968338 86.0831234,32.0930223 89.4609572,36.6542866" id="Path" fill="#1185B0"></path>
                <path d="M145.4067,32.3455182 C146.211618,33.0613426 146.725715,34.0922042 146.725715,35.2498264 C146.72468,37.4186164 144.955336,39.1765112 142.77242,39.1775398 C142.551021,39.1775398 142.33525,39.1458496 142.121355,39.1104312 C139.661706,42.9310219 136.407244,46.1841282 132.576783,48.6510278 C138.230586,49.5299716 143.54292,51.9017694 147.958423,55.5184677 C151.271443,49.6265954 153.00731,42.9886484 152.999977,36.2396773 C152.999977,30.9082771 150.630228,27.0047974 147.057815,24.1415 C146.870188,26.9936127 146.307308,29.7450626 145.4067,32.3455182 M97.7720234,69.1415 C99.7437699,63.7210304 103.167907,58.9384072 107.674963,55.3096856 C107.003908,54.3988064 106.455172,53.4049393 106.04261,52.3531819 C100.561559,50.6932953 95.6331208,47.5942321 91.7773491,43.3830079 C91.7492051,43.5041761 91.7154323,43.621616 91.6872883,43.74092 C90.9872901,46.8612714 90.8204775,50.0763677 91.19383,53.2516906 C93.3189548,53.649235 95.0370318,55.2029825 95.6346703,57.2677763 C96.2323088,59.3325701 95.6074256,61.5557209 94.0194886,63.0141181 C95.0505222,65.1817102 96.3082939,67.2354813 97.7720234,69.1415" id="Shape" fill="#1185B0"></path>
                <path d="M96.5025574,71.577081 C94.1866427,69.2999936 92.2407169,66.6822253 90.7337988,63.8166243 C90.4461412,63.8629895 90.1552641,63.8870717 89.8638177,63.8886514 C86.7166989,63.8876317 84.1660016,61.3635202 84.1660017,58.2502235 C84.1660017,56.0173838 85.4821748,54.0948147 87.3845583,53.1824717 C86.9398658,49.6248969 87.1185962,46.0181068 87.9128945,42.5206163 C88.1424856,41.5022252 88.4228651,40.4956939 88.753005,39.5047129 C85.1587573,34.3060852 83.240015,28.1526434 83.2493479,21.8543835 C83.2493479,21.61614 83.2624162,21.3797434 83.268017,21.1415 C77.3984451,24.052133 73,28.6415511 73,35.8608812 C73,51.8305787 82.6407345,65.5674366 96.4745537,71.7082073 L96.5025574,71.577081 M130.179786,51.4279657 C128.343701,56.6036204 123.404741,60.068679 117.860033,60.0712159 C114.934727,60.072996 112.094398,59.0982194 109.798706,57.3046371 C105.217303,60.8339643 101.761649,65.6431573 99.6501713,71.0193328 C100.599591,72.0307138 101.609541,72.9847886 102.674569,73.8764072 C105.950471,74.7170865 109.321154,75.1421942 112.705488,75.1414991 C126.656923,75.1414991 138.916935,68.0163574 146,57.2529254 C141.291647,54.0264813 135.829062,51.9413896 130.179786,51.4279657" id="Shape" fill="#1185B0"></path>
                <polygon id="Path" fill="#FFFFFF" points="114.424074 35.8167146 107.576843 23.5615969 111.281787 36.5707318 100.174431 28.4879671 108.876003 39.4296356 95.0862075 34.3535845 105.967379 42.4120261 92.0149544 42.8423585 106.281421 46.5282488 92 49.6210289 106.09636 50.6407296 94.2076385 58.2613547 106.451527 53.8195762 97.9555767 64.5891117 108.687204 55.9225918 104.825239 70.3705337 113.109959 58.6131047 111.947257 72.5016145 116.652274 59.9097148 120.658175 73.1415 121.630209 59.8704236 127.57457 71.1937782 124.064033 58.2463866 134.943335 66.6809013 127.918521 55.9225918 139.855844 60.5814076 130.728072 51.6005579 142.968222 52.5622572 130.911263 47.9333776 143 45.0482797 130.86827 44.4271042 140.738152 36.8738355 129.537331 40.8927657 137.150973 30.3309123 126.634314 37.328491 130.311219 24.9648546 123.08826 35.156248 122.925631 22.2762127 118.170143 33.7473772 114.210974 22.1415"></polygon>
                <path d="M2,71.1415 C39.6430648,34.0250184 69.713213,22.5695427 96.9993663,17.3377769 C100.613116,16.6456367 101.294565,8.86738722 101.294565,8.86738722 C101.294565,8.86738722 101.797674,14.5969757 104.32636,15.3446352 C106.851292,16.090444 110.138395,6.37457207 110.138395,6.37457207 C110.138395,6.37457207 107.106601,15.0929479 110.138395,15.5944719 C113.17019,16.090444 118.726916,7.12223155 118.726916,7.12223155 C118.726916,7.12223155 116.455417,14.8449618 117.972253,15.3427846 C119.487212,15.842458 127.06576,4.13344426 127.06576,4.13344426 C127.06576,4.13344426 122.520884,11.8561745 126.814205,12.603834 C131.113159,13.3533441 137.379494,7.33320477 137.379494,7.33320477 C137.379494,7.33320477 132.451654,12.8388656 134.648063,13.6013302 C143.996879,16.8399542 151.562287,4.86074668 151.562287,4.86074668 C151.562287,4.86074668 149.808914,10.1128695 145.262161,15.842458 C155.114086,18.3352731 162.433571,3.70224461 162.433571,3.70224461 L155.112209,18.3352731 C158.904299,20.3265642 174.06515,3.1415 174.06515,3.1415 C174.06515,3.1415 166.231293,16.5901175 161.684539,19.3272174 C164.20947,21.3259111 173.304855,13.3533441 173.304855,13.3533441 C173.304855,13.3533441 165.979738,22.3160047 168.759978,22.8156781 C172.801746,26.0543021 187.707288,6.126586 187.707288,6.126586 C187.707288,6.126586 181.899008,17.8337491 173.304855,27.0499476 C180.485421,30.5902263 198.321386,7.87174167 198.321386,7.87174167 C198.321386,7.87174167 197.814522,15.0929479 184.930802,26.5539755 C194.529296,25.3084933 206.913661,7.3739189 206.913661,7.3739189 C206.913661,7.3739189 202.363153,20.824387 191.497501,30.286721 C200.925163,29.324387 216.005291,6.37642271 216.005291,6.37642271 C216.005291,6.37642271 210.193256,22.3160047 198.321386,31.5340539 C211.458538,34.4025494 230.409602,15.0929479 230.409602,15.0929479 C230.409602,15.0929479 222.954953,28.7951033 213.228805,34.4006988 C224.094458,38.5091246 239,21.5720465 239,21.5720465 C239,21.5720465 224.094458,44.2387132 200.341331,43.2430676 C192.550651,42.9155039 168.979619,19.9342281 118.475362,21.8200325 C51.7758759,24.3128477 37.6231198,52.2094295 2,71.1415" id="Path" fill="#FFFFFF"></path>
                <path d="M175.141875,0.1415 C175.141875,0.1415 160.00125,17.4573108 156.21375,15.4492212 L163.524375,0.704585482 C163.524375,0.704585482 156.211875,15.4473567 146.375625,12.9395753 C150.913125,7.16701688 152.66625,1.87364044 152.66625,1.87364044 C152.66625,1.87364044 145.11,13.9445524 135.7725,10.6797753 C133.57875,9.91532152 138.500625,4.36837016 138.500625,4.36837016 C138.500625,4.36837016 132.238125,10.4299294 127.95,9.67666277 C123.66,8.92526062 128.20125,1.14461255 128.20125,1.14461255 C128.20125,1.14461255 120.631875,12.9414399 119.113125,12.4380191 C117.601875,11.9383273 119.8725,4.15581471 119.8725,4.15581471 C119.8725,4.15581471 114.3225,13.1912857 111.294375,12.6897295 C108.26625,12.1863087 111.294375,3.40441256 111.294375,3.40441256 C111.294375,3.40441256 108.013125,13.1931503 105.489375,12.4380191 C102.96375,11.6866169 102.46125,5.91405845 102.46125,5.91405845 C102.46125,5.91405845 101.77875,13.7506422 98.17125,14.4442442 C70.91625,19.7171109 40.884375,31.2622278 3.28125,68.6514767 C38.863125,49.5774221 52.995,21.4716256 119.619375,18.9638442 C170.0625,17.0620323 193.603125,40.2137953 201.38625,40.5438156 C225.110625,41.5506572 240,18.7102693 240,18.7102693 C240,18.7102693 225.110625,35.7743697 214.25625,31.6332675 C223.974375,25.9893611 231.418125,12.1863087 231.418125,12.1863087 C231.418125,12.1863087 212.49,31.6332675 199.370625,28.7469883 C211.228125,19.4635359 217.03125,3.40814161 217.03125,3.40814161 C217.03125,3.40814161 201.969375,26.5226142 192.553125,27.4977589 C203.405625,17.9607316 207.946875,4.40566059 207.946875,4.40566059 C207.946875,4.40566059 195.58125,22.4766026 185.990625,23.7332901 C198.864375,12.1881732 199.370625,4.91094591 199.370625,4.91094591 C199.370625,4.91094591 181.558125,27.7998114 174.38625,24.2329818 C182.960625,14.947665 188.7675,3.15270217 188.7675,3.15270217 C188.7675,3.15270217 173.88,23.2298693 169.84125,19.9669567 C167.064375,19.4635359 174.38625,10.4299294 174.38625,10.4299294 C174.38625,10.4299294 165.301875,18.4604234 162.77625,16.4523338 C167.3175,13.692842 175.14,0.1415 175.14,0.1415 L175.141875,0.1415 Z M199.359375,42.3505369 C196.820625,42.1790009 194.581875,43.1224488 193.438125,46.219419 C181.700625,68.4295986 157.096875,80.8529052 128.325,84.9921428 C99.555,89.1313805 78.35625,83.1164342 60.943125,78.2369815 C38.04375,71.8155696 19.875,83.2376281 0,73.3239675 C4.5975,76.9411391 9.84375,80.4762718 24.984375,80.5210203 C30.118125,80.5396656 46.56,79.7192761 49.588125,82.3538449 C52.61625,84.9902783 39.369375,97.4117203 39.369375,97.4117203 C39.369375,97.4117203 61.785,78.5651373 63.973125,84.9902783 C65.334375,88.9896768 57.538125,99.6733848 57.538125,99.6733848 C57.538125,99.6733848 65.356875,89.1239224 71.169375,86.873445 C75.155625,85.3258922 78.519375,85.5123443 81.388125,89.5098783 C83.281875,92.1425826 72.30375,104.942522 72.30375,104.942522 C72.30375,104.942522 87.06375,90.6397783 89.715,91.393045 C92.36625,92.1425826 89.715,104.942522 89.715,104.942522 C89.715,104.942522 95.145,91.9729112 98.04,91.0145471 C102.015,89.698195 88.955625,121.126569 88.955625,121.126569 C88.955625,121.126569 104.90625,92.0493566 107.88375,91.3949095 C112.995,90.2650095 116.40375,111.718193 116.40375,111.718193 C116.40375,111.718193 113.91375,92.9760237 116.59125,91.7678138 C133.54125,84.141921 123.7875,124.1415 123.7875,124.1415 C123.7875,124.1415 134.8725,96.9977965 128.0625,90.9772567 C146.04,102.831884 143.85,124.1415 143.85,124.1415 C143.85,124.1415 148.575,113.994774 135.315,89.0456125 C142.51125,88.6727082 153.3075,107.578956 153.3075,107.578956 C153.3075,107.578956 141.575625,86.8753095 149.525625,86.5005407 C165.320625,85.7547321 166.93875,113.977993 166.93875,113.977993 C166.93875,113.977993 171.669375,110.025208 158.98875,82.3557095 C167.0625,77.2133593 186.6225,107.955589 186.6225,107.955589 C186.6225,107.955589 168.579375,77.9666259 171.481875,75.9585363 C174.380625,73.9504467 184.985625,85.4974281 184.985625,85.4974281 C184.985625,85.4974281 176.91,74.455732 179.05125,73.325832 C181.19625,72.1940675 202.65,95.2843013 202.65,95.2843013 C202.65,95.2843013 183.72,72.6956238 187.00125,69.9342675 C188.941875,68.2990821 194.566875,71.323336 198.860625,74.066047 C192.841875,69.7851057 184.19625,63.0858801 187.00125,61.6371469 C192.80625,58.640861 209.338125,68.8043675 209.338125,68.8043675 C209.338125,68.8043675 199.36875,60.6489506 201.0075,58.6427255 C202.648125,56.6327713 222.204375,71.4408008 222.204375,71.4408008 C222.204375,71.4408008 204.916875,57.8857298 204.035625,54.4997588 C203.150625,51.1137878 217.666875,55.6296588 217.666875,55.6296588 C217.666875,55.6296588 201.639375,48.2275086 201.388125,46.094496 C201.133125,43.9577544 211.985625,48.4773544 211.985625,48.4773544 C211.985625,48.4773544 204.946875,42.7234412 199.359375,42.3505369 L199.359375,42.3505369 Z M198.860625,74.066047 C200.608251,75.3091505 202.375342,76.5249676 204.16125,77.713051 C204.16125,77.713051 201.8175,75.9566718 198.860625,74.066047 Z" id="Shape" fill="#FFFFFF"></path>
                <path d="M1,75.2056973 C20.8548465,85.1420659 39.0106321,73.6975819 61.8908184,80.1280962 C79.2860542,85.0187256 100.465306,91.0530559 129.206972,86.8987306 C157.952383,82.7537493 182.533504,70.3001175 194.262081,48.0390637 C197.914968,38.1026951 212.792522,50.3003024 212.792522,50.3003024 C212.792522,50.3003024 201.950004,45.777825 202.201023,47.9138546 C202.455788,50.051753 218.461054,57.4689896 218.461054,57.4689896 C218.461054,57.4689896 203.967521,52.9465123 204.849834,56.3383703 C205.73402,59.7358347 223,73.3182171 223,73.3182171 C223,73.3182171 203.465484,58.4762687 201.824494,60.4870892 C200.185378,62.4997785 210.141837,70.6794823 210.141837,70.6794823 C210.141837,70.6794823 193.630788,60.4870892 187.831127,63.493976 C183.661216,65.6524311 204.975344,79.6085719 204.975344,79.6085719 C204.975344,79.6085719 191.107486,69.0442891 187.831127,71.8119705 C184.552895,74.5777831 203.465484,97.2144641 203.465484,97.2144641 C203.465484,97.2144641 182.027719,74.0732091 179.888439,75.2056973 C177.741665,76.3363166 185.813609,87.4033046 185.813609,87.4033046 C185.813609,87.4033046 175.22211,75.8354803 172.326026,77.8481696 C169.426195,79.8608589 187.454598,109.914777 187.454598,109.914777 C187.454598,109.914777 167.912589,79.103998 159.842518,84.2599959 C172.515227,111.989136 167.785206,115.954713 167.785206,115.954713 C167.785206,115.954713 166.170443,87.6611979 150.38997,88.4087148 C142.447282,88.7862109 154.17024,109.539149 154.17024,109.539149 C154.17024,109.539149 143.380174,90.5858578 136.194289,90.9633539 C149.438346,115.967795 144.717692,126.134025 144.717692,126.134025 C144.717692,126.134025 146.903805,104.78681 128.939093,92.9012915 C135.746576,98.9374906 124.668025,126.1415 124.668025,126.1415 C124.668025,126.1415 134.416551,86.0502989 117.482141,93.6936594 C114.80523,94.9008992 117.294813,113.689737 117.294813,113.689737 C117.294813,113.689737 113.887325,92.1799377 108.786396,93.3180322 C105.807888,93.9758471 89.8756803,123.121532 89.8756803,123.121532 C89.8756803,123.121532 102.923044,91.6174312 98.9516999,92.9405361 C96.0593626,93.9029642 90.6343569,106.900415 90.6343569,106.900415 C90.6343569,106.900415 93.2775485,94.0730243 90.6343569,93.3180322 C87.9836721,92.5611713 73.2335013,106.900415 73.2335013,106.900415 C73.2335013,106.900415 84.2052755,94.0730243 82.3095208,91.430552 C79.4434094,87.4275989 76.0846265,87.2388508 72.1001696,88.7880797 C66.2986355,91.043712 58.4852037,101.617339 58.4852037,101.617339 C58.4852037,101.617339 66.274283,90.9091589 64.914285,86.9005994 C62.7300458,80.4607412 40.3331646,99.3542313 40.3331646,99.3542313 C40.3331646,99.3542313 53.5678556,86.9005994 50.5425158,84.2618647 C47.5171759,81.6193924 31.0885502,82.4379234 25.9613953,82.4248419 C10.8346961,82.3762533 5.5932714,78.8348919 1,75.2075661" id="Path" fill="#FFFFFF"></path>
            </g>
        </g>
    </g>
</svg>