<?xml version="1.0" encoding="UTF-8"?>
<svg width="240px" height="240px" viewBox="0 0 240 240" version="1.1" xmlns="http://www.w3.org/2000/svg" xmlns:xlink="http://www.w3.org/1999/xlink">
    <title>censys</title>
    <g id="Page-1" stroke="none" stroke-width="1" fill="none" fill-rule="evenodd">
        <g id="censys">
            <rect id="box" x="0" y="0" width="240" height="240"></rect>
            <g id="shape" transform="translate(0, 20)" fill="#FFAD5B" fill-rule="nonzero">
                <path d="M230.076629,66.5993225 C221.013491,52.4017479 206.94177,42.5927194 190.485004,38.9526076 C186.691663,38.1134519 182.886953,37.6485156 179.093612,37.5124378 C159.865657,13.6305788 131.483712,0 100.64859,0 C45.1453545,0 0,45.0761636 0,100.494333 C0,155.912503 45.1453545,201 100.64859,201 C131.472361,201 159.877025,187.369417 179.093612,163.476224 C190.24651,163.102005 201.149529,159.790752 210.803252,153.633186 C225.022624,144.58393 234.846701,130.533775 238.492409,114.10224 C242.126748,97.6593631 239.139784,80.7969058 230.076629,66.5993355 L230.076629,66.5993226 L230.076629,66.5993225 Z M100.64859,190.68067 C50.8467349,190.68067 10.32381,150.21986 10.32381,100.494324 C10.32381,50.7687886 50.8467307,10.3193234 100.64859,10.3193234 C125.805059,10.3193234 149.132991,20.4231878 166.134903,38.3629357 C157.968986,39.7690872 150.09837,42.7855044 142.909183,47.3668269 C140.649079,48.8069968 138.525257,50.3832442 136.492295,52.0615512 C126.157134,44.4411267 113.60729,40.2680419 100.65995,40.2680419 C67.3943527,40.2680419 40.3412123,67.2910622 40.3412123,100.494333 C40.3412123,133.697604 67.4057124,160.731967 100.65995,160.731967 C113.584579,160.731967 126.145783,156.57022 136.469584,148.961129 C144.124417,155.334156 153.232985,159.836103 163.2388,162.047384 C164.21553,162.262845 165.192261,162.444288 166.168991,162.614379 C149.167079,180.576801 125.816428,190.692004 100.659958,190.692004 L100.64859,190.68067 L100.64859,190.68067 Z M123.635807,134.400673 C125.282615,136.97483 127.088434,139.390238 129.041894,141.669554 C120.728335,147.384864 110.824749,150.503341 100.64859,150.503341 C73.0389429,150.503341 50.5741572,128.07299 50.5741572,100.505658 C50.5741572,72.9383268 73.0389429,50.5079711 100.64859,50.5079711 C110.836109,50.5079711 120.716975,53.6151099 129.030535,59.3304239 C122.272932,67.1436249 117.514211,76.5444115 115.220027,86.9090935 C111.585688,103.351971 114.57266,120.214428 123.635807,134.411998 L123.635807,134.400673 Z M228.407101,111.879609 C225.363347,125.62359 217.14064,137.371734 205.249523,144.946807 C199.400509,148.677631 193.006331,151.161075 186.38501,152.385788 L143.238538,126.882321 L141.659871,129.218341 L172.994718,153.100209 C170.484742,152.907432 167.963433,152.544547 165.453457,151.988902 C151.688388,148.949813 139.922202,140.739708 132.335502,128.866815 C124.748811,116.993922 122.250203,102.887065 125.293966,89.1430928 C128.337729,75.3991124 136.560427,63.6509637 148.451545,56.0758999 C155.754294,51.4265363 163.908861,48.6936169 172.301921,47.979201 L141.228287,71.2487079 L142.784243,73.59607 L185.896636,48.5915575 C186.680294,48.7276353 187.452584,48.8750554 188.236242,49.0451558 C202.001311,52.0842535 213.767497,60.2943542 221.354197,72.1672426 C228.94088,84.040131 231.439504,98.1469885 228.395733,111.89096 L228.407101,111.879609 L228.407101,111.879609 Z" id="Shape"></path>
                <polygon id="Path" points="147.069673 82 195 65.9369209 191.677196 58 146 79.4397"></polygon>
                <polygon id="Path" points="149.548751 92 200 85.4062292 198.30799 77 149 89.2868775"></polygon>
                <polygon id="Path" points="151 101.727268 200.966271 105 201 96 151.011237 98.8285705"></polygon>
                <polygon id="Path" points="150 111.80925 199.249272 125 201 116.27167 150.560697 109"></polygon>
                <polygon id="Path" points="147 120.616545 192.601028 143 196 134.876144 148.094963 118"></polygon>
            </g>
        </g>
    </g>
</svg>