<?xml version="1.0" encoding="UTF-8"?>
<svg width="240px" height="240px" viewBox="0 0 240 240" version="1.1" xmlns="http://www.w3.org/2000/svg" xmlns:xlink="http://www.w3.org/1999/xlink">
    <title>centos</title>
    <g id="Page-1" stroke="none" stroke-width="1" fill="none" fill-rule="evenodd">
        <g id="centos">
            <rect id="ViewBox" x="0" y="0" width="240" height="240"></rect>
            <path d="M101.11875,111.225938 L109.770937,119.829375 L101.11875,128.430938 L40.2196875,128.430938 L40.2196875,157.09125 L3.080625,119.829375 L40.2196875,83.191875 L40.2196875,111.225937 L101.11875,111.225938 Z M127.888125,38.0371875 L201.884062,38.0371875 L201.884062,112.034063 L127.888125,112.034063 L127.888125,38.0371875 Z" id="Shape" fill="#932279" fill-rule="nonzero"></path>
            <path d="M128.695313,101.11875 L120.09375,109.770938 L111.492188,101.11875 L111.492188,40.2196875 L82.83,40.2196875 L120.09375,3.080625 L156.728438,40.2196875 L128.695313,40.2196875 L128.695313,101.11875 Z M127.889063,127.888125 L201.884063,127.888125 L201.884063,201.885 L127.888125,201.885 L127.889063,127.888125 Z" id="Shape" fill="#EFA724" fill-rule="nonzero"></path>
            <path d="M138.803437,128.695313 L130.150312,120.09375 L138.803437,111.492188 L199.701562,111.492188 L199.701562,82.83 L236.8425,120.09375 L199.701562,156.728438 L199.701562,128.695313 L138.803437,128.695313 Z M38.0371875,127.889063 L112.033125,127.889063 L112.033125,201.885938 L38.0371875,201.885938 L38.0371875,127.889063 Z" id="Shape" fill="#262577" fill-rule="nonzero"></path>
            <path d="M111.225937,138.803438 L119.8275,130.150313 L128.430937,138.803438 L128.430937,199.703438 L157.09125,199.703438 L119.8275,236.8425 L83.19375,199.703438 L111.225937,199.703438 L111.225937,138.803438 Z M38.0371875,38.0371875 L112.033125,38.0371875 L112.033125,112.034063 L38.0371875,112.034063 L38.0371875,38.0371875 Z" id="Shape" fill="#9CCD2A" fill-rule="nonzero"></path>
            <path d="M35.394375,35.394375 L114.675938,35.394375 L114.675938,114.675937 L35.394375,114.675937 L35.394375,35.394375 Z M40.6790625,109.39125 L109.389375,109.39125 L109.389375,40.6809375 L40.6790625,40.6809375 L40.6790625,109.39125 Z M125.247188,35.394375 L204.52875,35.394375 L204.52875,114.675937 L125.247188,114.675937 L125.247188,35.394375 Z M130.531875,109.39125 L199.242188,109.39125 L199.242188,40.6809375 L130.531875,40.6809375 L130.531875,109.39125 Z M125.247188,125.247187 L204.52875,125.247187 L204.52875,204.530625 L125.247188,204.530625 L125.247188,125.247187 Z M130.531875,199.242188 L199.242188,199.242188 L199.242188,130.531875 L130.531875,130.531875 L130.531875,199.242188 Z M35.394375,125.247187 L114.675938,125.247187 L114.675938,204.530625 L35.394375,204.530625 L35.394375,125.247187 Z M40.6790625,199.242188 L109.389375,199.242188 L109.389375,130.531875 L40.6790625,130.531875 L40.6790625,199.242188 Z" id="Shape" fill="#FFFFFF" fill-rule="nonzero"></path>
            <path d="M56.42625,176.023125 L0.36375,119.960625 L56.4253125,63.9 L112.487813,119.960625 L56.42625,176.023125 Z M7.839375,119.960625 L56.42625,168.5475 L105.01125,119.960625 L56.424375,71.375625 L7.839375,119.960625 Z M119.960625,112.486875 L63.9,56.42625 L119.960625,0.36375 L176.02125,56.42625 L119.960625,112.486875 Z M71.375625,56.42625 L119.960625,105.01125 L168.5475,56.42625 L119.960625,7.839375 L71.375625,56.42625 Z M183.496875,176.023125 L127.43625,119.960625 L183.496875,63.9 L239.5575,119.960625 L183.496875,176.023125 Z M134.91,119.960625 L183.496875,168.5475 L232.081875,119.960625 L183.496875,71.375625 L134.91,119.960625 Z M119.960625,239.5575 L63.9,183.496875 L119.960625,127.43625 L176.02125,183.496875 L119.960625,239.5575 Z M71.375625,183.496875 L119.960625,232.081875 L168.5475,183.496875 L119.960625,134.911875 L71.375625,183.496875 Z" id="Shape" fill="#FFFFFF" fill-rule="nonzero"></path>
        </g>
    </g>
</svg>