<?xml version="1.0" encoding="UTF-8"?>
<svg width="240px" height="240px" viewBox="0 0 240 240" version="1.1" xmlns="http://www.w3.org/2000/svg" xmlns:xlink="http://www.w3.org/1999/xlink">
    <title>cerebras</title>
    <g id="Page-1" stroke="none" stroke-width="1" fill="none" fill-rule="evenodd">
        <g id="cerebras">
            <rect id="box" x="0" y="0" width="240" height="240"></rect>
            <g id="shape" transform="translate(29, 0)">
                <path d="M119.739497,15.7226298 C62.2679418,15.7226298 15.6780407,62.4117091 15.6780407,120.005607 C15.6780407,177.599505 62.2679418,224.288585 119.739497,224.288585 L119.739497,240 C53.6030086,240 0,186.27167 0,119.994393 C0,53.717116 53.591818,0 119.728307,0 L119.728307,15.7114154 L119.739497,15.7226298 Z M172.917263,56.9580861 C150.42091,37.8204748 119.420872,32.2201977 91.6721275,42.2808367 C63.9233827,52.3414757 43.6750714,76.5224542 38.6051979,105.65453 C33.5353245,134.786607 44.4202342,164.408811 67.1324528,183.288631 L57.0497156,195.332928 C37.1416335,178.598213 24.6836732,154.622821 22.41707,128.682269 C20.1504668,102.741717 28.2609362,76.9614612 44.9638598,57.0141582 C61.6650101,37.0629814 85.5913741,24.5782387 111.478653,22.3068339 C137.365931,20.0354292 163.093228,28.1634545 183,44.9025746 L172.917263,56.9580861 L172.917263,56.9580861 Z M147.682444,66.4230643 C118.17885,51.1518946 81.9066615,62.5623828 66.405108,91.9912508 C50.9035544,121.420119 61.9654844,157.869954 91.1922583,173.666651 L83.85122,187.572543 C47.3586593,167.519795 33.6686052,121.836323 53.0991892,84.9535523 C72.5297732,48.0707817 117.894019,33.6308963 155.001101,52.5171721 L147.682444,66.4230643 L147.682444,66.4230643 Z M119.728307,81.1924676 C98.3379364,81.1924676 80.9976151,98.5697021 80.9976151,120.005607 C80.9976151,141.441512 98.3379364,158.818747 119.728307,158.818747 L119.728307,174.541377 C89.6730132,174.541377 65.3083838,150.124881 65.3083838,120.005607 C65.3083838,89.8863335 89.6730132,65.4698379 119.728307,65.4698379 L119.728307,81.1924676 L119.728307,81.1924676 Z" id="Shape" fill="#F15A29"></path>
                <path d="M134.123002,107.424313 C132.437364,105.625732 130.494547,104.081914 128.35661,102.842169 C126.494237,101.745929 124.371913,101.158348 122.205791,101.13927 C119.322595,101.13927 116.744679,101.665824 114.472042,102.70773 C110.033416,104.689008 106.603067,108.379338 104.974455,112.925126 C104.137763,115.199392 103.730724,117.585692 103.730724,119.994398 C103.730724,122.436714 104.137763,124.811811 104.974455,127.063671 C106.616387,131.604149 110.04205,135.293479 114.472042,137.29227 C116.733372,138.334176 119.333902,138.86073 122.205791,138.86073 C124.648028,138.86073 126.920665,138.345379 129.012395,137.348287 C131.138046,136.339991 132.969723,134.827547 134.383055,132.956599 L144.875627,144.227103 C143.292696,145.795563 141.483632,147.151161 139.425821,148.293896 C135.620098,150.396919 131.478235,151.836918 127.180718,152.551144 C125.258587,152.842429 123.59651,152.999275 122.205791,152.999275 C117.643591,153.027513 113.114517,152.230211 108.84133,150.646586 C104.801337,149.165898 101.105337,146.890831 97.9756383,143.958225 C94.8634648,141.012261 92.3864059,137.471655 90.694155,133.550373 C88.8553064,129.266372 87.9387826,124.649333 88.0031721,119.994398 C88.0031721,115.02014 88.9077042,110.505216 90.694155,106.438424 C92.3901527,102.517274 94.8550026,98.9770361 97.9643317,96.0305721 C101.107581,93.1065148 104.804856,90.832248 108.84133,89.3534144 C113.114517,87.7697886 117.643591,86.9724871 122.205791,87.0007246 C126.219653,87.0007246 130.256127,87.762548 134.326521,89.2861947 C138.408222,90.832248 142.071577,93.3193772 145,96.5571265 L134.123002,107.424313 L134.123002,107.424313 Z" id="Path" fill="#FFFFFF" fill-rule="nonzero"></path>
            </g>
        </g>
    </g>
</svg>