<?xml version="1.0" encoding="UTF-8"?>
<svg width="408px" height="408px" viewBox="0 0 408 408" version="1.1" xmlns="http://www.w3.org/2000/svg" xmlns:xlink="http://www.w3.org/1999/xlink">
    <title>Group</title>
    <g id="Page-1" stroke="none" stroke-width="1" fill="none" fill-rule="evenodd">
        <g id="Group">
            <rect id="box" x="0" y="0" width="408" height="408"></rect>
            <rect id="Rectangle" fill="#FFBD19" x="185" y="192" width="196" height="117" rx="55"></rect>
            <rect id="Rectangle" fill="#43CCF2" x="36" y="71" width="240" height="134" rx="47"></rect>
            <path d="M249,71 L360,71 C369.388841,71 377,78.6111593 377,88 L377,217 C377,226.388841 369.388841,234 360,234 L256,234 C242.192881,234 231,222.807119 231,209 L231,89 C231,79.0588745 239.058875,71 249,71 Z" id="Rectangle-Copy" fill="#1991FF"></path>
            <ellipse id="Oval" fill="#F5245B" cx="128.5" cy="236.5" rx="102.5" ry="95.5"></ellipse>
            <path d="M221.027252,195.358598 C227.420329,207.817464 231,221.769243 231,236.5 C231,259.911673 221.958139,281.35573 206.950519,297.966144 C193.61851,287.927988 185,271.970474 185,254 L185,247 C185,223.306984 199.981448,203.113073 220.988115,195.374494 Z" id="Combined-Shape" fill="#F51B09"></path>
            <path d="M326,192 C347.95603,192 366.907203,204.865324 375.72621,223.468664 C373.180621,229.649446 367.098374,234 360,234 L256,234 C242.192881,234 231,222.807119 231,209 L231.000454,192.73268 C233.928827,192.250689 236.935138,192 240,192 L326,192 Z" id="Combined-Shape" fill="#196B19"></path>
            <path d="M128.5,141 C173.262776,141 211.323789,167.734093 225.293311,205.000143 L81,205 C64.9786478,205 50.8296127,196.983658 42.345095,184.743173 C60.5968865,158.421797 92.3647754,141 128.5,141 Z" id="Combined-Shape" fill="#401D56"></path>
            <path d="M276,118 L276,158 C276,183.287211 256.029921,203.91016 231.000412,204.958198 L231,89 C231,81.7615446 235.272628,75.5210149 241.433467,72.6628278 C261.357504,78.113887 276,96.3469745 276,118 Z" id="Combined-Shape" fill="#0774F2"></path>
            <path d="M61.4252496,198.750359 L87.3159923,204 C78.8731414,213.590106 69.7233419,220.360456 59.8665938,224.311052 C52.4324841,227.290651 51.0263146,222.153095 58.3276777,212.000017 C59.9118848,209.797061 60.9444088,205.380508 61.4252496,198.750359 Z" id="Path" fill="#401D56"></path>
            <path d="M71.6543442,307.27237 L65.3234542,328.5 C64.6623431,332.095309 64.6623431,334.287733 65.3234542,335.077271 C66.594721,336.595493 69.5445447,337.250875 73.9568413,333.532174 C81.8110019,326.912658 87.2089049,322.065295 90.1505503,318.990087 L71.6543442,307.27237 Z" id="Path-2" fill="#F5245B"></path>
            <path d="M284.582592,308.716957 C290.1798,322.988374 299.39441,332.130266 312.226423,336.142631 C331.474443,342.16118 319.48333,327.593897 318.046065,322.429794 C316.608799,317.265691 314.54273,310.36917 315.575765,304.345275 C316.264455,300.329345 305.933397,301.786572 284.582592,308.716957 Z" id="Path-4" fill="#FFBD19"></path>
            <path d="M282.722961,231.434284 C289.939351,241.035432 296.684926,248.223792 302.959686,252.999367 C312.371825,260.162729 330.998384,271.690696 334.750513,269.363513 C337.251932,267.812057 337.251932,255.168981 334.750513,231.434284 L282.722961,231.434284 Z" id="Path-3" fill="#196B19"></path>
        </g>
    </g>
</svg>