<?xml version="1.0" encoding="UTF-8"?>
<svg width="240px" height="240px" viewBox="0 0 240 240" version="1.1" xmlns="http://www.w3.org/2000/svg" xmlns:xlink="http://www.w3.org/1999/xlink">
    <title>chrome</title>
    <defs>
        <linearGradient x1="-9.61604394e-15%" y1="50.0000741%" x2="100%" y2="50.0000741%" id="linearGradient-1">
            <stop stop-color="#D93025" offset="0%"></stop>
            <stop stop-color="#EA4335" offset="100%"></stop>
        </linearGradient>
        <linearGradient x1="22.1837558%" y1="99.1085337%" x2="60.0276802%" y2="-0.887298623%" id="linearGradient-2">
            <stop stop-color="#FCC934" offset="0%"></stop>
            <stop stop-color="#FBBC04" offset="100%"></stop>
        </linearGradient>
        <linearGradient x1="74.9587266%" y1="95.8368035%" x2="19.782865%" y2="-4.16736111%" id="linearGradient-3">
            <stop stop-color="#1E8E3E" offset="0%"></stop>
            <stop stop-color="#34A853" offset="100%"></stop>
        </linearGradient>
    </defs>
    <g id="Page-1" stroke="none" stroke-width="1" fill="none" fill-rule="evenodd">
        <g id="chrome">
            <circle id="Oval" fill="#FFFFFF" fill-rule="nonzero" cx="119.5" cy="120.5" r="59.5"></circle>
            <path d="M16.0952473,179.997391 C40.360368,222.029632 87.5535109,245.304825 135.668581,238.969781 C183.783652,232.634737 223.345208,197.937035 235.905752,151.056164 C248.466297,104.175292 231.552245,54.3436394 193.050595,24.797633 C154.548945,-4.74837352 102.04194,-8.19015151 60.0135205,16.0771951 C2.624629,49.2137286 -17.0382467,122.603282 16.0952473,179.997391 L16.0952473,179.997391 Z M171.962972,89.9989307 C184.095547,111.015043 182.374813,137.270922 167.603147,156.523489 C152.831481,175.776057 127.91791,184.233848 104.479596,177.953008 C81.041282,171.672167 63.6940014,151.889598 60.5267661,127.829885 C57.3595308,103.770172 68.9960739,80.171465 90.010292,68.0378064 C118.704749,51.4695597 155.396204,61.3018875 171.962972,89.9989307 L171.962972,89.9989307 Z" id="Shape"></path>
            <path d="M120.003753,60.0001335 L224,60.0001335 C202.551743,22.8701868 162.903392,-0.00299114913 119.99581,0 C77.0882273,0.00299114913 37.4430713,22.8816967 16,60.0146334 L67.9981234,150 L68.0446638,149.988 C57.2783105,131.438232 57.2525674,108.55451 67.9771582,89.9806079 C78.701749,71.4067056 98.5420069,59.9737002 120.003753,60.0001335 Z" id="Path" fill="url(#linearGradient-1)" fill-rule="nonzero"></path>
            <circle id="Oval" fill="#1A73E8" fill-rule="nonzero" cx="119.5" cy="120.5" r="47.5"></circle>
            <path d="M172.537956,150.00675 L121.021319,240 C163.531425,240.005885 202.814077,217.133649 224.06643,180.002214 C245.318782,142.870779 245.310679,97.1237737 224.045172,60 L121.012395,60 L121,60.046504 C142.263079,60.005144 161.927517,71.4256309 172.565278,89.9939952 C183.203038,108.56236 183.192619,131.448246 172.537956,150.00675 L172.537956,150.00675 Z" id="Path" fill="url(#linearGradient-2)" fill-rule="nonzero"></path>
            <path d="M68.0515714,150.000498 L16.0856092,60 C-5.36027156,97.1298937 -5.3619767,142.880773 16.0811363,180.012265 C37.5242493,217.143757 77.1530045,240.012181 120.034038,240 L172,149.999497 L171.966492,149.965492 C161.277722,168.559368 141.467681,180.025442 120.019156,180.032667 C98.5706309,180.039892 78.7528677,168.587168 68.0515714,150.000498 L68.0515714,150.000498 Z" id="Path" fill="url(#linearGradient-3)" fill-rule="nonzero"></path>
        </g>
    </g>
</svg>