<?xml version="1.0" encoding="UTF-8"?>
<svg width="240px" height="240px" viewBox="0 0 240 240" version="1.1" xmlns="http://www.w3.org/2000/svg" xmlns:xlink="http://www.w3.org/1999/xlink">
    <title>chrome-canary</title>
    <g id="Page-1" stroke="none" stroke-width="1" fill="none" fill-rule="evenodd">
        <g id="chrome-canary" transform="translate(-0.004, -0.0001)">
            <circle id="Oval" fill="#FFFFFF" fill-rule="nonzero" cx="120.003996" cy="120.000094" r="60"></circle>
            <path d="M16.0992433,179.997485 C40.3643639,222.029726 87.5575068,245.304919 135.672577,238.969875 C183.787648,232.634831 223.349204,197.937129 235.909748,151.056258 C248.470293,104.175386 231.556241,54.3437334 193.054591,24.797727 C154.552941,-4.7482795 102.045936,-8.19005749 60.0175164,16.0772891 C2.62862493,49.2138226 -17.0342507,122.603376 16.0992433,179.997485 L16.0992433,179.997485 Z M171.966967,89.9990247 C184.099542,111.015137 182.378809,137.271016 167.607143,156.523583 C152.835477,175.776151 127.921906,184.233942 104.483592,177.953102 C81.0452779,171.672261 63.6979973,151.889693 60.530762,127.829979 C57.3635268,103.770266 69.0000698,80.171559 90.0142879,68.0379004 C118.708745,51.4696537 155.4002,61.3019815 171.966967,89.9990247 L171.966967,89.9990247 Z" id="Shape"></path>
            <path d="M120.007749,60.0002275 L224.003996,60.0002275 C202.555739,22.8702808 162.907388,-0.00289713014 119.999805,9.40189863e-05 C77.0922233,0.00308516812 37.4470672,22.8817908 16.0039959,60.0147275 L68.0021193,150.000094 L68.0486597,149.988094 C57.2823064,131.438326 57.2565633,108.554604 67.9811541,89.9807019 C78.705745,71.4067996 98.5460029,59.9737942 120.007749,60.0002275 Z" id="Path" fill="#F29900" fill-rule="nonzero"></path>
            <circle id="Oval" fill="#FBBC04" fill-rule="nonzero" cx="120.503996" cy="119.500094" r="47.5"></circle>
            <path d="M171.975044,150.006844 L120.025495,240.000094 C162.892828,240.005979 202.505586,217.133743 223.93653,180.002308 C245.367474,142.870873 245.359302,97.1238677 223.915094,60.000094 L120.016495,60.000094 L120.003996,60.046598 C141.445757,60.005238 161.275442,71.4257249 172.002595,89.9940893 C182.729749,108.562454 182.719242,131.44834 171.975044,150.006844 L171.975044,150.006844 Z" id="Path" fill="#FDD663" fill-rule="nonzero"></path>
            <path d="M68.0555673,150.000592 L16.0896051,60.000094 C-5.35627563,97.1299877 -5.35798077,142.880867 16.0851322,180.012359 C37.5282452,217.143851 77.1570004,240.012275 120.038034,240.000094 L172.003996,149.999592 L171.970488,149.965586 C161.281718,168.559462 141.471677,180.025536 120.023152,180.032761 C98.5746268,180.039986 78.7568636,168.587262 68.0555673,150.000592 L68.0555673,150.000592 Z" id="Path" fill="#FBBC04" fill-rule="nonzero"></path>
        </g>
    </g>
</svg>