<svg width="240" height="240" viewBox="0 0 240 240" fill="none" xmlns="http://www.w3.org/2000/svg">
<rect width="240" height="240" rx="32" fill="#02C8FF"/>
<path d="M68.9048 167.77V159.254L68.738 159.327C66.8186 160.256 64.7306 160.786 62.6004 160.885C60.3864 161.058 58.1861 160.409 56.4202 159.063C55.1592 158.089 54.2215 156.758 53.7302 155.242C53.1881 153.591 53.1255 151.82 53.5498 150.135C53.9436 148.411 54.909 146.871 56.2891 145.766C57.513 144.743 59.0086 144.098 60.5931 143.91C63.3936 143.6 66.2231 144.13 68.721 145.434L68.9048 145.529V136.966L68.5167 136.862C66.0158 136.059 63.3901 135.715 60.7668 135.847C58.3774 135.909 56.0244 136.447 53.846 137.431C51.6468 138.438 49.7079 139.936 48.1783 141.809C45.8539 144.751 44.5638 148.377 44.5078 152.125C44.4517 155.874 45.6329 159.537 47.8685 162.546C50.1307 165.44 53.3065 167.482 56.8782 168.34C60.6425 169.256 64.5872 169.116 68.28 167.941L68.9048 167.77" fill="white"/>
<path d="M153.18 167.77V159.254L153.013 159.327C151.094 160.256 149.006 160.786 146.875 160.885C144.661 161.058 142.461 160.409 140.695 159.063C139.434 158.089 138.496 156.758 138.005 155.242C137.463 153.591 137.4 151.82 137.825 150.135C138.218 148.411 139.184 146.871 140.564 145.766C141.788 144.743 143.284 144.098 144.868 143.91C147.668 143.6 150.498 144.13 152.996 145.434L153.18 145.529V136.966L152.792 136.862C150.291 136.059 147.665 135.715 145.042 135.847C142.652 135.909 140.299 136.447 138.121 137.431C135.922 138.438 133.983 139.936 132.453 141.809C130.129 144.751 128.839 148.377 128.783 152.125C128.727 155.874 129.908 159.537 132.143 162.546C134.406 165.44 137.581 167.482 141.153 168.34C144.917 169.256 148.862 169.116 152.555 167.941L153.18 167.77" fill="white"/>
<path fill-rule="evenodd" clip-rule="evenodd" d="M98.9782 160.701L98.9458 168.035L99.4821 168.127C101.166 168.442 102.865 168.66 104.573 168.782C106.068 168.921 107.571 168.95 109.071 168.869C110.504 168.767 111.922 168.498 113.293 168.073C114.904 167.617 116.397 166.821 117.674 165.738C118.822 164.757 119.7 163.498 120.224 162.081C121.137 159.709 121.119 157.079 120.173 154.72C119.675 153.495 118.891 152.408 117.886 151.55C116.915 150.674 115.773 150.009 114.532 149.597L108.999 147.543C108.338 147.263 107.802 146.751 107.489 146.105C107.369 145.839 107.312 145.55 107.322 145.258C107.333 144.967 107.411 144.682 107.55 144.426C107.65 144.244 107.774 144.078 107.92 143.931C108.157 143.689 108.433 143.489 108.737 143.34C109.355 143.034 110.022 142.841 110.709 142.766C111.879 142.597 113.069 142.61 114.236 142.804C115.615 142.953 116.982 143.197 118.326 143.536L118.612 143.599V136.833L118.084 136.719C116.713 136.391 115.323 136.143 113.923 135.978C112.108 135.736 110.27 135.728 108.453 135.954C106.151 136.165 103.962 137.046 102.155 138.488C100.93 139.449 99.9988 140.733 99.4651 142.196C98.662 144.424 98.6602 146.862 99.46 149.091C99.872 150.198 100.533 151.197 101.394 152.009C102.138 152.728 102.981 153.337 103.897 153.822C105.102 154.469 106.379 154.972 107.702 155.317C108.139 155.448 108.574 155.586 109.006 155.731L109.662 155.971L109.849 156.048C110.496 156.279 111.085 156.643 111.582 157.117C111.926 157.44 112.191 157.837 112.357 158.28C112.459 158.683 112.46 159.105 112.362 159.511C112.155 160.163 111.7 160.708 111.095 161.029C110.436 161.372 109.722 161.595 108.986 161.688C107.905 161.86 106.809 161.915 105.717 161.853C104.284 161.746 102.859 161.556 101.449 161.285C100.711 161.131 99.9775 160.961 99.2506 160.769L98.9782 160.701ZM80.0052 168.331H88.0582V136.39H80.0052V168.331ZM173.234 145.822C174.094 145.121 175.085 144.598 176.15 144.282C177.214 143.966 178.33 143.865 179.434 143.983C180.537 144.101 181.607 144.437 182.58 144.971C183.553 145.505 184.411 146.226 185.103 147.094C185.796 147.961 186.31 148.957 186.615 150.025C186.92 151.092 187.011 152.209 186.882 153.311C186.753 154.414 186.407 155.48 185.864 156.448C185.32 157.416 184.59 158.266 183.716 158.95C181.972 160.299 179.767 160.907 177.578 160.644C175.389 160.381 173.391 159.268 172.015 157.546C170.64 155.823 169.996 153.628 170.224 151.435C170.452 149.242 171.533 147.225 173.234 145.822ZM161.543 152.375C161.581 154.868 162.173 157.322 163.277 159.557C164.381 161.793 165.969 163.755 167.925 165.301C169.882 166.847 172.157 167.938 174.588 168.496C177.018 169.053 179.542 169.063 181.976 168.524C185.246 167.908 188.251 166.312 190.592 163.948C192.933 161.584 194.5 158.563 195.083 155.287C195.666 152.011 195.239 148.636 193.858 145.608C192.477 142.581 190.207 140.046 187.351 138.34C184.814 136.77 181.907 135.898 178.925 135.815C175.943 135.731 172.991 136.438 170.37 137.863C167.749 139.288 165.552 141.381 164.001 143.93C162.451 146.479 161.602 149.392 161.541 152.375" fill="white"/>
<path d="M28 110.721C28.0573 111.471 28.3246 112.188 28.7712 112.793C29.2178 113.397 29.8256 113.863 30.5249 114.137C31.2242 114.412 31.9868 114.484 32.7251 114.345C33.4635 114.206 34.1477 113.862 34.6994 113.352C35.4383 112.666 35.8912 111.726 35.9661 110.721V101.868C35.9446 100.826 35.5155 99.8341 34.7708 99.1047C34.0262 98.3753 33.0254 97.9668 31.9831 97.9668C30.9407 97.9668 29.9399 98.3753 29.1953 99.1047C28.4507 99.8341 28.0215 100.826 28 101.868V110.721Z" fill="white"/>
<path d="M50.0477 110.721C50.1241 111.726 50.5768 112.665 51.3154 113.35C52.054 114.035 53.0241 114.417 54.0316 114.418C55.0392 114.417 56.0095 114.036 56.748 113.351C57.4865 112.666 57.9387 111.726 58.0138 110.721V90.8752C57.9769 89.8435 57.5411 88.8664 56.7981 88.1496C56.0552 87.4328 55.0631 87.0322 54.0308 87.0322C52.9984 87.0322 52.0064 87.4328 51.2634 88.1496C50.5205 88.8664 50.0847 89.8435 50.0477 90.8752V110.723" fill="white"/>
<path d="M71.9796 118.715C72.0518 119.722 72.5027 120.664 73.2415 121.351C73.9804 122.039 74.9524 122.422 75.9618 122.422C76.9713 122.422 77.9432 122.039 78.6821 121.351C79.421 120.664 79.8719 119.722 79.944 118.715V75.7856C79.8923 74.7643 79.4501 73.8019 78.709 73.0974C77.9679 72.3929 76.9844 72 75.9618 72C74.9392 72 73.9558 72.3929 73.2146 73.0974C72.4735 73.8019 72.0314 74.7643 71.9796 75.7856V118.715Z" fill="white"/>
<path d="M94.1005 110.721C94.1768 111.726 94.6296 112.665 95.3682 113.35C96.1068 114.035 97.0768 114.417 98.0844 114.418C99.092 114.417 100.062 114.036 100.801 113.351C101.539 112.666 101.991 111.726 102.067 110.721V90.8752C102.03 89.8435 101.594 88.8664 100.851 88.1496C100.108 87.4328 99.1159 87.0322 98.0835 87.0322C97.0512 87.0322 96.0591 87.4328 95.3162 88.1496C94.5732 88.8664 94.1374 89.8435 94.1005 90.8752V110.723" fill="white"/>
<path d="M116.106 110.721C116.163 111.471 116.43 112.188 116.877 112.793C117.323 113.397 117.931 113.863 118.63 114.137C119.33 114.412 120.092 114.484 120.831 114.345C121.569 114.206 122.253 113.862 122.805 113.352C123.544 112.666 123.997 111.726 124.072 110.721V101.868C124.05 100.826 123.621 99.8341 122.876 99.1047C122.132 98.3753 121.131 97.9668 120.089 97.9668C119.046 97.9668 118.045 98.3753 117.301 99.1047C116.556 99.8341 116.127 100.826 116.106 101.868V110.721Z" fill="white"/>
<path d="M138.153 110.721C138.23 111.726 138.682 112.665 139.421 113.35C140.16 114.035 141.13 114.417 142.137 114.418C143.145 114.417 144.115 114.036 144.853 113.351C145.592 112.666 146.044 111.726 146.119 110.721V90.8752C146.082 89.8435 145.647 88.8664 144.904 88.1496C144.161 87.4328 143.169 87.0322 142.136 87.0322C141.104 87.0322 140.112 87.4328 139.369 88.1496C138.626 88.8664 138.19 89.8435 138.153 90.8752V110.723" fill="white"/>
<path d="M160.085 118.715C160.157 119.722 160.608 120.664 161.347 121.351C162.086 122.039 163.058 122.422 164.067 122.422C165.077 122.422 166.049 122.039 166.788 121.351C167.527 120.664 167.977 119.722 168.05 118.715V75.7856C167.998 74.7643 167.556 73.8019 166.815 73.0974C166.073 72.3929 165.09 72 164.067 72C163.045 72 162.061 72.3929 161.32 73.0974C160.579 73.8019 160.137 74.7643 160.085 75.7856V118.715Z" fill="white"/>
<path d="M182.206 110.721C182.282 111.726 182.735 112.665 183.474 113.35C184.212 114.035 185.182 114.417 186.19 114.418C187.198 114.417 188.168 114.036 188.906 113.351C189.645 112.666 190.097 111.726 190.172 110.721V90.8752C190.135 89.8435 189.699 88.8664 188.956 88.1496C188.214 87.4328 187.221 87.0322 186.189 87.0322C185.157 87.0322 184.165 87.4328 183.422 88.1496C182.679 88.8664 182.243 89.8435 182.206 90.8752V110.723" fill="white"/>
<path d="M203.998 110.721C204.056 111.471 204.323 112.188 204.769 112.793C205.216 113.397 205.824 113.863 206.523 114.137C207.223 114.412 207.985 114.484 208.723 114.345C209.462 114.206 210.146 113.862 210.698 113.352C211.437 112.666 211.889 111.726 211.964 110.721V101.868C211.943 100.826 211.514 99.8341 210.769 99.1047C210.025 98.3753 209.024 97.9668 207.981 97.9668C206.939 97.9668 205.938 98.3753 205.194 99.1047C204.449 99.8341 204.02 100.826 203.998 101.868V110.721Z" fill="white"/>
</svg>
