<?xml version="1.0" encoding="UTF-8"?>
<svg width="240px" height="240px" viewBox="0 0 240 240" version="1.1" xmlns="http://www.w3.org/2000/svg" xmlns:xlink="http://www.w3.org/1999/xlink">
    <title>clickup</title>
    <defs>
        <linearGradient x1="0%" y1="68.01%" x2="100%" y2="68.01%" id="linearGradient-1">
            <stop stop-color="#8930FD" offset="0%"></stop>
            <stop stop-color="#49CCF9" offset="100%"></stop>
        </linearGradient>
        <linearGradient x1="0%" y1="68.01%" x2="100%" y2="68.01%" id="linearGradient-2">
            <stop stop-color="#FF02F0" offset="0%"></stop>
            <stop stop-color="#FFC800" offset="100%"></stop>
        </linearGradient>
    </defs>
    <g id="Page-1" stroke="none" stroke-width="1" fill="none" fill-rule="evenodd">
        <g id="clickup" transform="translate(52, -189)">
            <rect id="box" x="-52" y="189" width="240" height="240"></rect>
            <g id="Group" transform="translate(-32, 189)" fill-rule="nonzero">
                <path d="M0,184.310421 L36.9061459,156 C56.513989,181.625277 77.3463536,193.436807 100.534759,193.436807 C123.599163,193.436807 143.842517,181.764967 162.566845,156.341463 L200,183.968958 C172.983027,220.629712 139.40944,240 100.534759,240 C61.7840812,240 27.884988,220.75388 0,184.310421 Z" id="Path" fill="url(#linearGradient-1)"></path>
                <polygon id="Path" fill="url(#linearGradient-2)" points="100.240718 61.4467192 34.4236836 118 4 82.8167979 100.38049 0 196 82.8787402 165.436545 117.938058"></polygon>
            </g>
        </g>
    </g>
</svg>