<?xml version="1.0" encoding="UTF-8"?>
<svg width="240px" height="241px" viewBox="0 0 240 241" version="1.1" xmlns="http://www.w3.org/2000/svg" xmlns:xlink="http://www.w3.org/1999/xlink">
    <title>clickhouse</title>
    <g id="Page-1" stroke="none" stroke-width="1" fill="none" fill-rule="evenodd">
        <g id="clickhouse" transform="translate(-14, 207.6263)">
            <rect id="box" x="14" y="-207" width="240" height="240"></rect>
            <g id="path" transform="translate(14, -193)" fill-rule="nonzero">
                <polygon id="Path" fill="#FF0000" points="0 186 27 186 27 213 0 213"></polygon>
                <path d="M0,0 L26.6666667,0 L26.6666667,186.375 L0,186.375 L0,0 Z M53.3333333,0 L80,0 L80,213 L53.3333333,213 L53.3333333,0 Z M106.666667,0 L133.333333,0 L133.333333,213 L106.666667,213 L106.666667,0 Z M160,0 L186.666667,0 L186.666667,213 L160,213 L160,0 Z M213.333333,86.53125 L240,86.53125 L240,126.46875 L213.333333,126.46875 L213.333333,86.53125 Z" id="Shape" fill="#FFCC00"></path>
            </g>
        </g>
    </g>
</svg>