<?xml version="1.0" encoding="UTF-8"?>
<svg width="240px" height="240px" viewBox="0 0 240 240" version="1.1" xmlns="http://www.w3.org/2000/svg" xmlns:xlink="http://www.w3.org/1999/xlink">
    <title>Group</title>
    <g id="Page-1" stroke="none" stroke-width="1" fill="none" fill-rule="evenodd">
        <g id="Group">
            <rect id="Rectangle" stroke="#979797" fill="#D8D8D8" x="0.5" y="0.5" width="239" height="239" rx="32"></rect>
            <g id="cline" transform="translate(36, 32)" fill="#24292F" fill-rule="nonzero">
                <g id="Group-3-Copy-4">
                    <path d="M120.398223,30.0397906 C140.42778,30.0397906 156.663944,46.3769952 156.663944,66.5298429 L156.663944,78.6931937 L167.221597,99.821941 C168.263983,101.90804 168.259207,104.365334 167.20872,106.44735 L156.663944,127.346597 L156.663944,139.509948 C156.663944,159.663404 140.42778,176 120.398223,176 L47.8667808,176 C27.8378276,176 11.60106,159.663404 11.60106,139.509948 L11.60106,127.346597 L0.825059411,106.51315 C-0.270296583,104.395477 -0.275262227,101.877739 0.811732023,99.7557464 L11.60106,78.6931937 L11.60106,66.5298429 C11.60106,46.3769952 27.8378276,30.0397906 47.8667808,30.0397906 L120.398223,30.0397906 Z M115.764209,40.5445026 L53.6960521,40.5445026 C36.5564477,40.5445026 22.6619736,54.4682566 22.6619736,71.6439791 L22.6619736,82.0104712 L13.6916763,99.450994 C12.5972428,101.578849 12.6022399,104.106598 13.7050779,106.230094 L22.6619736,123.47644 L22.6619736,133.842932 C22.6619736,151.019173 36.5564477,164.942408 53.6960521,164.942408 L115.764209,164.942408 C132.90433,164.942408 146.798287,151.019173 146.798287,133.842932 L146.798287,123.47644 L155.568782,106.164194 C156.6265,104.076345 156.631307,101.609262 155.581733,99.5172922 L146.798287,82.0104712 L146.798287,71.6439791 C146.798287,54.4682566 132.90433,40.5445026 115.764209,40.5445026 Z" id="Combined-Shape"></path>
                    <ellipse id="Oval" cx="84.1325017" cy="20.2722513" rx="20.2352211" ry="20.2722513"></ellipse>
                </g>
                <rect id="Rectangle-Copy" stroke="#24292F" stroke-width="8" x="57" y="82" width="9" height="41" rx="2.5"></rect>
                <rect id="Rectangle-Copy-2" stroke="#24292F" stroke-width="8" x="101" y="82" width="9" height="41" rx="2.5"></rect>
            </g>
        </g>
    </g>
</svg>