<?xml version="1.0" encoding="UTF-8"?>
<svg width="240px" height="241px" viewBox="0 0 240 241" version="1.1" xmlns="http://www.w3.org/2000/svg" xmlns:xlink="http://www.w3.org/1999/xlink">
    <title>clojure</title>
    <g id="Page-1" stroke="none" stroke-width="1" fill="none" fill-rule="evenodd">
        <g id="clojure" transform="translate(-137, 18.6263)">
            <circle id="Oval" fill="#FFFFFF" cx="257" cy="102" r="120"></circle>
            <g id="shape" transform="translate(145, -9.6263)" fill-rule="nonzero">
                <path d="M20,46.414009 C48.3464539,7.16174889 98.9467864,-9.43431703 145.243318,5.33628755 C191.53985,20.1068921 222.954811,62.8693991 223,111.179827 C223,169.860265 160.875,161.601537 160.875,161.601537 C184.847554,137.584807 188.390252,100.081948 169.334186,72.0529473 C150.27812,44.0239464 113.938225,33.2863849 82.5625,46.414009 C48,26.8538627 20,46.414009 20,46.414009" id="Path" fill="#466ACD"></path>
                <path d="M203,176.585991 C174.653546,215.838251 124.053214,232.434317 77.7566819,217.663712 C31.4601501,202.893108 0.0451890987,160.130601 0,111.820173 C0,53.1397347 62.125,61.3984632 62.125,61.3984632 C38.1524464,85.4151926 34.6097477,122.918052 53.6658137,150.947053 C72.7218797,178.976054 109.061775,189.713615 140.4375,176.585991 C175,196.146137 203,176.585991 203,176.585991" id="Path" fill="#53A526"></path>
                <path d="M93,55.1970991 C120.23558,45.7164392 150.19623,57.918322 163.45742,83.8918434 C176.71861,109.865365 169.288742,141.792535 145.984859,158.973862 C130.046324,160.287492 116.692416,111.683185 114.53856,104.239282 C112.384704,96.7953795 106.353907,69.6470281 93,55.1970991" id="Path" fill="#71AEFD"></path>
                <path d="M77.1496775,159.339731 C61.8278621,148.108054 52.8303721,130.075349 53.0024236,110.943978 C53.1744751,91.8126078 62.4947933,73.9482383 78.0160762,63 C93.6112534,71.3202495 103.574839,102.411708 103.574839,102.411708 C103.574839,102.411708 80.182073,147.078311 77.1496775,159.339731 M91.4452565,167.222073 C91.4452565,167.222073 107.906832,175.104415 130,168.097889 C117.004019,157.150192 109.20643,119.490115 107.040434,114.235221 C104.008038,120.365931 88.412861,152.333205 91.4452565,167.222073" id="Shape" fill="#81D837"></path>
            </g>
        </g>
    </g>
</svg>