<svg id="Layer_1" data-name="Layer 1" xmlns="http://www.w3.org/2000/svg" viewBox="0 0 476.98 334.03"><defs><style>.cls-1{fill:#451e84;}.cls-2{fill:#fff;}.cls-3{fill:#8568bc;}</style></defs><path class="cls-1" d="M698.63,315c.12-1.69.21-3.4.21-5.12a71.32,71.32,0,0,0-103.11-63.83,114.72,114.72,0,0,0-204.25,67.09,103.68,103.68,0,1,0,79.1,188.56c-12-1.53-16.05-20.38-2.59-22.44,17.66-2.69,20.65-26.39,26.55-40.13,3.75-8.72,8.4-16.23,16.67-21.35,8.66-5.38,19-7.42,27.94-12.2s20.83-9.23,29.92-7.23c0-.47.11-.93.17-1.4,0-.06,0-.11,0-.18h0c.13-1,.22-2.06.38-3.09,2.18-14.1,21.5-8.65,22.8,3.08,1.7,15.44,2.45,30,6.87,45,4.12,14,12.13,25.88,16.59,39.61a10.34,10.34,0,0,1,.44,4.52c.18.78.35,1.57.48,2.37a11.83,11.83,0,0,1-3.7,11A103.12,103.12,0,0,0,663,518.92a10.47,10.47,0,0,1,5.18-12.58c6.84-3.87,14.34-4.74,21.91-6.32a192.39,192.39,0,0,0,24.8-7.25c8.71-3.06,14.33,4.26,14.11,11.5A103.68,103.68,0,0,0,698.63,315Z" transform="translate(-311.51 -202.98)"/><path class="cls-2" d="M696,326.33a11.62,11.62,0,0,1-8.92-12.12c.12-1.67.18-3,.18-4.3a59.77,59.77,0,0,0-59.71-59.7,59,59,0,0,0-26.61,6.26,11.61,11.61,0,0,1-14.24-3.13,103.12,103.12,0,0,0-183.59,60.29,11.62,11.62,0,0,1-9,10.85,92.48,92.48,0,0,0-50.76,32,91,91,0,0,0-20.24,57.58,92.18,92.18,0,0,0,131.63,83.2L545,505.23l62.69,14.47,46.39-14.09A92.06,92.06,0,0,0,696,326.33Z" transform="translate(-311.51 -202.98)"/><path class="cls-2" d="M611.73,490.35l-.23-.16c-1.16-.79-4.62-3.15-8.49-.09a189.3,189.3,0,0,1-17.16,9,52.77,52.77,0,0,1,10.31,4.5c3.6-1.84,7.26-3.86,11-6.07,1.78,1.2,3.55,2.43,5.32,3.67s3.83,2.67,5.8,4a81.81,81.81,0,0,1,5.19-6.81c-2-1.34-4-2.73-6.09-4.18C615.51,492.93,613.63,491.62,611.73,490.35Z" transform="translate(-311.51 -202.98)"/><path class="cls-2" d="M392.86,315.36Z" transform="translate(-311.51 -202.98)"/><path class="cls-2" d="M696.1,313.4Z" transform="translate(-311.51 -202.98)"/><path class="cls-2" d="M597.15,247.85Z" transform="translate(-311.51 -202.98)"/><path class="cls-3" d="M469,404.55a33.66,33.66,0,1,1,33.65-33.66A33.7,33.7,0,0,1,469,404.55Z" transform="translate(-311.51 -202.98)"/><path class="cls-2" d="M469,347.19a23.71,23.71,0,1,0,23.71,23.7A23.73,23.73,0,0,0,469,347.19Z" transform="translate(-311.51 -202.98)"/><path class="cls-1" d="M478,354.61a18.63,18.63,0,0,0-23.71,27.82,18.83,18.83,0,0,0,22.82,5.31c7.35-3.48,11.92-12.06,10.16-19.38-4.18,1.47-8.07,1.09-10.7-2.82S474.92,358,478,354.61Z" transform="translate(-311.51 -202.98)"/><path class="cls-3" d="M601,404.55a33.66,33.66,0,1,1,33.65-33.66A33.7,33.7,0,0,1,601,404.55Z" transform="translate(-311.51 -202.98)"/><path class="cls-2" d="M601,347.19a23.71,23.71,0,1,0,23.7,23.7A23.73,23.73,0,0,0,601,347.19Z" transform="translate(-311.51 -202.98)"/><path class="cls-1" d="M610.05,354.61a18.63,18.63,0,0,0-23.71,27.82,18.83,18.83,0,0,0,22.82,5.31c7.35-3.48,11.92-12.06,10.16-19.38-4.18,1.47-8.08,1.09-10.71-2.82S607,358,610.05,354.61Z" transform="translate(-311.51 -202.98)"/><path class="cls-1" d="M485.44,316.25s8.74,1.86,5.38-5.51a10.66,10.66,0,0,0-3.07-2.73c-13.26-7.2-26.56-6.5-39,2.06a4.75,4.75,0,0,0-1.26,1.37c-2.2,3.39,1.68,7.83,5.18,5.8l.07,0C463.59,310.66,474.29,310.23,485.44,316.25Z" transform="translate(-311.51 -202.98)"/><path class="cls-1" d="M582.9,318.18s-8.45,2.91-6-4.81a10.5,10.5,0,0,1,2.7-3.08c12.27-8.78,25.56-9.71,38.95-2.74a4.71,4.71,0,0,1,1.42,1.2c2.6,3.1-.71,8-4.43,6.39l-.07,0C603.9,310,593.22,310.84,582.9,318.18Z" transform="translate(-311.51 -202.98)"/><path class="cls-1" d="M674.68,328.77l-.24-.14c-.85-.44-1.71-.87-2.55-1.28a31.24,31.24,0,0,0-6.2-2.44c-26.28-5.91-53.18-6.23-82.26-1a159.64,159.64,0,0,1-58.15,0c-29.08-5.24-56-4.93-82.26,1-4.81,1.08-9.62,2.16-14.44,3.19a15.94,15.94,0,0,1-3.12.33c-2.29,0-4.58,0-6.86,0-2.75,0-5.49,0-8.24,0-3.85,0-6.2,2.24-6.28,5.85-.1,5.06-.11,10.43,0,16,.07,3.48,2.53,5.66,6.43,5.7,1,0,1.95,0,2.93,0,3.4.06,6.92.11,10.4-.12,2.33-.16,3.5.58,4.14,2.63.71,2.26,1.36,4.53,2,6.81.89,3.11,1.81,6.32,2.87,9.45,2.24,6.6,4.55,13.43,7.4,20.05A34.49,34.49,0,0,0,462.6,415a83.16,83.16,0,0,0,24.68,3.88,73.1,73.1,0,0,0,18.48-2.35c15.54-4,26.67-14.23,34-31.14,1.77-4.06,3.3-8.27,4.79-12.34.8-2.2,1.6-4.4,2.44-6.58.51-1.33,1.12-2.67,1.71-4l.73-1.63a4.92,4.92,0,0,1,9.74,0l.74,1.63c.58,1.29,1.19,2.63,1.7,4,.84,2.18,1.65,4.38,2.45,6.58,1.48,4.07,3,8.28,4.79,12.34,7.37,16.91,18.51,27.1,34.05,31.14,13.78,3.58,28.3,3.07,43.16-1.53a34.51,34.51,0,0,0,22.34-20.17c2.86-6.64,5.16-13.46,7.4-20.09C685.84,343,679.4,332.3,674.68,328.77ZM659.08,392c-3.54,7.7-9.71,12.83-18.35,15.24a62.3,62.3,0,0,1-32.9.4c-10.64-2.79-19.57-9.75-27.28-21.27a63.78,63.78,0,0,1-10.3-27C569,350.24,572,343.77,579.84,339c8.67-5.26,18.61-6.87,28.06-7.84,2-.21,4.07-.31,6.22-.42l2.91-.17c11.15.2,24.24.93,36.85,4.76,10.33,3.14,14.44,8.74,14.16,19.33a94.93,94.93,0,0,1-9,37.29ZM538.46,359.4a63.92,63.92,0,0,1-10.3,27c-7.72,11.52-16.64,18.48-27.29,21.27a62.2,62.2,0,0,1-32.9-.4c-8.63-2.41-14.81-7.54-18.35-15.24a95.11,95.11,0,0,1-9-37.29c-.27-10.59,3.83-16.19,14.16-19.33,12.61-3.83,25.71-4.56,36.72-4.76l3,.17c2.16.11,4.19.21,6.22.42,9.45,1,19.4,2.58,28.07,7.84C536.68,343.77,539.72,350.24,538.46,359.4Z" transform="translate(-311.51 -202.98)"/><path class="cls-3" d="M556.8,515.13h-2.26V517l52.09,20-.93-56.85-79.14,10.4a2.52,2.52,0,0,0-2.19,2.5v10.66a2.52,2.52,0,0,0,1.59,2.34l24.87,9.54v-2.7h2.37v-1.64h2.33v-1.42h1.57v-1.34h2.22v2.8h-.23v2.29H556.8Z" transform="translate(-311.51 -202.98)"/><path class="cls-1" d="M607.66,519.7l-64.1-22.2a.6.6,0,0,1,.11-1.16l69.48-10Z" transform="translate(-311.51 -202.98)"/><path class="cls-1" d="M714.24,395.75l-97,17.4a12.82,12.82,0,0,0-10.57,12.62V532a20.14,20.14,0,0,1,5.87-.9,20.72,20.72,0,0,1,9.79,2.43l105.76-28.38a11.47,11.47,0,0,0,1.28-.46V408.37A12.82,12.82,0,0,0,714.24,395.75Z" transform="translate(-311.51 -202.98)"/><path class="cls-3" d="M715.3,385.35,605.51,405a12.26,12.26,0,0,0-10.09,12.06V524.81a12.11,12.11,0,0,0,2.36,7.21,2.39,2.39,0,0,1,3.06.15c1.6,1.26,3.84,1.61,5.79,2.3V425.77a12.82,12.82,0,0,1,10.57-12.62l97-17.4a12.82,12.82,0,0,1,15.09,12.62v96.36a12.22,12.22,0,0,0,7.79-11.37V403.61A18.55,18.55,0,0,0,715.3,385.35Z" transform="translate(-311.51 -202.98)"/><polyline class="cls-3" points="294.19 324.16 422.13 290.13 417.82 301.75 299.33 333.65 295.12 334.03 291.66 330.39"/><circle class="cls-3" cx="443.94" cy="258.19" r="30.48"/><path class="cls-1" d="M778.87,439.81a30.48,30.48,0,0,1-53.74,23.81,30.48,30.48,0,1,0,53.74-23.81Z" transform="translate(-311.51 -202.98)"/><path class="cls-2" d="M755.45,494.21a33,33,0,1,1,33-33A33.08,33.08,0,0,1,755.45,494.21Zm0-60.95a27.91,27.91,0,1,0,27.91,27.91A27.94,27.94,0,0,0,755.45,433.26Z" transform="translate(-311.51 -202.98)"/><path class="cls-1" d="M553.49,452.69c-10.93.08-22.26-9.74-23.86-20.48-.74-5,1.63-7.43,6.17-7.79,11.29-.9,22.6-1.56,33.9-2.24,4.73-.29,7.26,1.9,7.2,6.82C576.74,441.16,565.46,452.6,553.49,452.69Z" transform="translate(-311.51 -202.98)"/><path class="cls-3" d="M536.05,433.53c9.23,11.93,16,14.12,29.45,9.33C557.29,433.58,547.7,431.5,536.05,433.53Z" transform="translate(-311.51 -202.98)"/><path class="cls-2" d="M531.39,531.7a34.55,34.55,0,0,1-24.83-10.54,95.28,95.28,0,0,1-36.22,1.66c-44.87-6.48-78.67-43-80.36-86.9a8.75,8.75,0,0,1,4.24-7.86l1.42,2.14-1.32-2.2a8.49,8.49,0,0,1,7.64-.59,8.75,8.75,0,0,1,5.18,5.94c8.15,31.25,34.67,54.52,67.56,59.27a84.1,84.1,0,0,0,22.41.22c0-.2.05-.41.08-.61A34.55,34.55,0,0,1,536.3,463h0a34.54,34.54,0,0,1-4.91,68.72Z" transform="translate(-311.51 -202.98)"/><path class="cls-2" d="M508.29,515.42l1,1.18a29.39,29.39,0,1,0,26.24-48.54h0A29.41,29.41,0,0,0,502.26,493c-.1.72-.15,1.47-.21,2.31l-.13,2.06-2.05.31a88.85,88.85,0,0,1-25.9.05c-34.94-5-63.12-29.79-71.79-63.05a3.66,3.66,0,0,0-2.16-2.48,3.37,3.37,0,0,0-3.06.24l-.1.06a3.63,3.63,0,0,0-1.76,3.26c1.6,41.4,33.56,75.9,76,82a89.89,89.89,0,0,0,35.69-1.92Z" transform="translate(-311.51 -202.98)"/><path class="cls-3" d="M534.76,462a32,32,0,0,0-36.21,27.07c-.12.84-.2,1.68-.25,2.51a86.4,86.4,0,0,1-25.14.05c-34.78-5-61.55-30-69.68-61.16a6.1,6.1,0,0,0-9-3.8l-.11.07a6.2,6.2,0,0,0-3,5.56c1.62,41.82,33.92,78.07,78.17,84.46a93.08,93.08,0,0,0,36.69-2A32,32,0,1,0,534.76,462Z" transform="translate(-311.51 -202.98)"/><path class="cls-1" d="M525.62,511.84a31.79,31.79,0,0,1-19.4-10.49,93.08,93.08,0,0,1-36.69,2c-40.73-5.89-71.32-37.07-77.19-74.61a6.25,6.25,0,0,0-1,3.58c1.61,41.82,33.91,78.07,78.16,84.46a93.08,93.08,0,0,0,36.69-2,32,32,0,0,0,55.22-27.89A32,32,0,0,1,525.62,511.84Z" transform="translate(-311.51 -202.98)"/></svg>