<?xml version="1.0" encoding="UTF-8"?>
<svg width="240px" height="240px" viewBox="0 0 240 240" version="1.1" xmlns="http://www.w3.org/2000/svg" xmlns:xlink="http://www.w3.org/1999/xlink">
    <title>cloudsek-bevigil</title>
    <g id="Page-1" stroke="none" stroke-width="1" fill="none" fill-rule="evenodd">
        <g id="cloudsek-bevigil">
            <rect id="box" fill="#FFFFFF" x="0" y="0" width="240" height="240" rx="32"></rect>
            <g id="shape" transform="translate(35, 35)" fill-rule="nonzero">
                <path d="M79.0915252,47.3155956 C80.3177367,46.5715738 81.6975098,46.1101616 83.12847,45.9655377 C84.5856655,45.7053843 86.0086412,45.2835177 87.3701637,44.7075645 C92.8085542,42.5045932 97.7199589,39.510004 101.360096,34.889244 C104.72348,30.5498226 107.054993,25.5159525 108.181396,20.1617632 C108.742602,17.8114845 108.96389,15.3941196 108.838703,12.9821216 C108.565799,9.06103595 110.283494,6.01729727 113.030635,3.47070305 C114.390161,2.25397024 115.984379,1.32224809 117.717615,0.73174781 C119.450708,0.141247535 121.286888,-0.0957434869 123.115084,0.0348981669 C124.94328,0.165681055 126.725849,0.661413168 128.355284,1.49243532 C129.984577,2.32331624 131.426944,3.47225662 132.595552,4.86976923 C132.72958,5.06707344 132.851773,5.27200429 132.961419,5.48343192 C133.128812,6.03579896 132.713325,6.36713444 132.446696,6.71075729 C127.436053,13.7124438 122.487577,20.7631385 117.470804,27.764825 C117.191484,28.147711 116.866681,28.4958533 116.50338,28.8019079 C114.60817,29.8991565 112.775982,31.0996474 111.015371,32.3978724 C104.310988,37.634696 99.8759524,45.2032966 98.6129545,53.5623852 C98.2885788,55.4769563 98.1869173,58.3586993 98.1335914,58.4205599 C96.6624228,60.0593006 94.7871747,61.2925578 92.6907808,62 C92.3400273,61.926417 92.0313357,61.7220511 91.8287257,61.4292725 C90.1793286,59.5209157 88.3870637,57.7474376 86.6321555,55.9433117 C84.3067737,53.5563121 82.1425105,51.0341514 79.7178911,48.7330223 C79.3272145,48.3893994 78.7814078,48.0151287 79.0915252,47.3155956 Z" id="Path" fill="#051843"></path>
                <path d="M64.7319962,40 C60.2519961,34.0084498 54.3304754,29.9015689 47.2967409,27.2987217 C45.7673576,26.7356804 44.1793991,26.3424699 42.5621531,26.1261547 C37.709272,25.4692968 34.7516547,22.5103984 32.9559687,18.3236886 C32.2994983,16.6899505 31.9751918,14.944452 32.0014792,13.1869438 C32.0277666,11.4294356 32.4042192,9.69425119 33.1092642,8.08043507 C33.8144521,6.46661894 34.8342314,5.00582004 36.1107414,3.78154087 C37.3872515,2.5571204 38.8953477,1.59309769 40.5488818,0.944575884 C42.2024158,0.295912791 43.9691,-0.0245332757 45.7480706,0.00146411243 C47.5268984,0.0274615006 49.2832962,0.399478474 50.9166861,1.09603893 C52.5500761,1.79259938 54.0287419,2.80028075 55.2679638,4.06143666 C56.5071857,5.32259257 57.4829623,6.81249723 58.1394327,8.44623527 C58.463882,9.18546535 58.620892,9.98587407 58.5991763,10.7912279 C58.2071513,17.4526348 59.8735434,24.0743391 63.3774812,29.7787877 C63.4639153,29.9452275 63.532634,30.1201448 63.5824943,30.3005723 C64.6387046,33.179783 64.5641284,36.2368781 64.9867268,39.2203609 C65.0115855,39.3609446 65.001442,39.5054845 64.9570106,39.6414056 C64.9125792,39.7771854 64.8354314,39.9002492 64.7319962,40 L64.7319962,40 Z" id="Path" fill="#11658A"></path>
                <path d="M71.7646533,131.973614 C68.705079,134.723194 66.6673794,138.195002 64.8072381,141.801871 C63.7119201,142.740198 63.136755,144.069493 62.3595505,145.211124 C56.8522886,152.96369 51.5408754,160.815775 46.0704758,168.574028 C45.7667132,168.993432 45.5731155,169.485342 45.5074105,170 C40.4897705,168.919503 37.2282975,165.805966 35.6373076,160.976428 C34.7551439,158.205522 34.7896144,155.219938 35.735654,152.471779 C36.681553,149.722199 38.487667,147.357901 40.8813274,145.737155 C41.7457634,145.158521 42.7217712,144.770395 43.7451936,144.59979 C56.3077952,142.278143 64.9601746,135.068669 69.8065877,123.129177 C69.9289931,122.826353 70.3145001,121.818363 70.4124245,121.639228 C70.7375728,121.26532 71.109995,120.935484 71.5199831,120.658251 C75.4238739,118.038614 79.3156648,115.400922 83.2258869,112.794223 C83.6419249,112.510024 84.3089644,111.902244 84.8901794,112.013422 C85.2573959,112.538458 84.6087875,113.121642 84.3334455,113.495977 C80.6252628,118.923627 76.8762782,124.321989 73.0863512,129.691775 C72.5785795,130.392676 71.90549,131.029601 71.7646533,131.973614 Z" id="Path" fill="#01384D"></path>
                <path d="M21.9890216,134.975901 C18.4390878,137.905255 14.3855533,138.620562 9.99640896,137.49225 C7.23481083,136.749977 4.7814483,135.157567 2.98838432,132.946359 C1.19532321,130.733732 0.154735437,128.015849 0.0159443725,125.181586 C-0.122847264,122.345904 0.64729341,119.54102 2.21585844,117.167449 C3.78441061,114.793737 6.07075444,112.973961 8.74678477,111.969125 C9.45508478,111.676899 10.2181619,111.538095 10.9849127,111.562223 C18.1724925,111.957487 25.2989483,110.06022 31.3208564,106.148029 C31.447364,106.083736 31.5807332,106.034062 31.7186765,106 C32.2781692,106.690612 31.8679127,107.387469 31.6440585,108.01024 C29.6919808,113.418331 27.913869,118.881774 25.9369186,124.283195 C24.9172811,127.096168 24.0095707,129.944624 23.0148059,132.768952 C22.7194784,133.525417 22.3768355,134.262013 21.9890216,134.975901 L21.9890216,134.975901 Z" id="Path" fill="#034774"></path>
                <path d="M113.45169,138 C116.050565,139.760547 118.828559,141.225537 121.737073,142.372237 C123.486457,143.02587 125.297909,143.491939 127.141851,143.760497 C128.89193,144.020529 130.54162,144.756577 131.918606,145.890488 C134.593433,148.02048 136.362535,151.122395 136.858233,154.552548 C137.35407,157.98128 136.538459,161.473954 134.580798,164.303049 C132.623275,167.133564 129.674356,169.084517 126.34679,169.749518 C123.019223,170.414518 119.568774,169.743834 116.712746,167.875296 C116.605692,167.790039 116.508496,167.693415 116.422825,167.585424 C115.668031,165.492377 115.818962,163.26434 115.53515,161.115877 C115.281469,159.089614 115.203018,157.040617 114.931287,155.00867 C114.659416,151.403741 114.043473,147.847125 113.66913,144.260668 C113.5,142.649321 113.318809,141.043657 113.065267,139.445098 C112.984872,139.19217 112.978624,138.92077 113.047216,138.66358 C113.115948,138.40781 113.256465,138.176197 113.45169,138 L113.45169,138 Z" id="Path" fill="#11658A"></path>
                <path d="M131.575428,97.048978 C131.619805,97.0606978 131.661382,97.0818507 131.697219,97.1110075 C135.28332,101.408338 139.947057,104.028871 145.024322,105.997379 C145.147513,106.062267 145.263703,106.13916 145.371495,106.227202 C146.086839,107.942304 146.960371,109.5848 147.978092,111.132965 C152.239361,118.392419 156.385838,125.732198 160.60511,133.02281 C160.812294,133.377264 161.141268,133.718855 160.934084,134.203371 C156.782007,135.729812 152.915508,134.985172 149.279991,132.631195 C147.941695,131.737913 146.788185,130.585936 145.883855,129.24101 C145.234306,128.317714 144.79754,127.25578 144.604355,126.136676 C142.553514,114.386942 136.226987,105.916626 125.730603,100.675561 C125.481003,100.551359 125.243581,100.402288 125,100.27194 C126.790041,99.2534555 128.555583,98.1915216 130.40036,97.2725129 C130.567227,97.1474534 130.759432,97.0625558 130.962836,97.0238231 C131.16638,96.9850904 131.375664,96.9936659 131.575428,97.048978 L131.575428,97.048978 Z" id="Path" fill="#23628D"></path>
                <path d="M131,97.815454 C129.250002,98.6323284 127.546453,99.5450801 125.897023,100.549448 C125.409665,100.825148 124.862933,100.979688 124.303132,101 C122.184243,100.197614 120.009529,99.5619829 117.834958,98.9448173 C117.653566,98.7529207 117.525725,98.5169916 117.463935,98.2603246 C117.402146,98.0037996 117.40868,97.7354852 117.482827,97.4822272 C117.872031,95.3161109 117.668196,93.1622101 117.69902,90.9527716 C117.69902,89.1014169 117.544617,89.0088065 115.709818,89.551827 C111.793061,90.7182628 107.863946,91.8352686 103.971905,92.989347 C101.741793,93.6435851 101.587248,93.6065126 100.110829,91.7551578 C99.0544385,90.4221086 97.8744682,89.1693122 97.2504632,87.5462164 C96.0149532,82.1955541 99.4250347,75.0673982 105.83142,73 C108.302582,75.3328717 110.193063,78.1346188 112.342918,80.7267143 C114.097462,82.8496502 115.796324,85.0467313 117.550867,87.151202 C117.873594,87.5643976 118.266633,87.91751 118.712229,88.1942048 C120.707682,88.971734 122.78964,89.4778239 124.809808,90.1875999 C125.409097,90.3383047 125.975006,90.5999432 126.477846,90.9590213 C127.845032,93.3336529 129.355257,95.6233443 131,97.815454 L131,97.815454 Z" id="Path" fill="#295177"></path>
                <path d="M158.359457,32 C161.794347,32.4185772 164.926829,34.1516313 167.090753,36.8291382 C169.25325,39.5066452 170.274587,42.9164146 169.936519,46.330289 C169.432982,51.8163826 166.44885,55.6295828 161.293663,57.7454008 C160.777288,58.000907 160.208135,58.1356671 159.63185,58.1389228 C156.092829,57.9724545 152.548103,58.2619338 149.084684,59 C148.762307,57.7700313 149.438444,56.7797147 149.805041,55.7402786 C152.359812,48.4582807 154.891759,41.1680726 157.39803,33.8696543 C157.640527,33.2054797 157.738952,32.4735004 158.359457,32 Z" id="Path" fill="#034774"></path>
                <path d="M26.3961795,64 C23.9594383,63.1453765 21.4579734,62.4783973 18.9145447,62.0054611 C16.8409676,61.663417 14.7349575,61.5468521 12.6350641,61.6579921 C10.7295268,61.7278198 8.84127284,61.2824251 7.17837122,60.3707711 C-1.04997321,56.0555065 -2.49766776,45.1406954 4.36341593,39.0848865 C5.13675764,38.7767825 5.51414669,39.3750468 5.89153574,39.7980465 C9.21998481,43.5633141 12.5360724,47.334563 15.9140671,51.0635258 C18.908428,54.3693498 21.8224177,57.7477835 24.8352711,61.0415059 C25.503419,61.7728878 26.1283229,62.5343151 26.7469678,63.3018627 C27.1306158,63.7793892 27.1262061,63.836837 26.3961795,64 Z" id="Path" fill="#082746"></path>
                <path d="M92.1322649,61.7942073 L92.7515509,62.346276 C93.2779938,63.0025193 92.8382708,63.6096396 92.6152766,64.1861287 C91.8164277,66.3082973 90.8811621,68.375132 90.0636591,70.4909485 C89.7985153,71.0482401 89.6529852,71.6538077 89.6363247,72.2696799 C87.6738049,72.9535901 85.5741564,73.1613746 83.5136672,72.8752475 C81.453178,72.5892615 79.4922245,71.8179744 77.7951332,70.6258955 C71.248986,66.2837358 70.0350489,56.758962 75.2496387,51 C76.667916,51.3740686 77.7269249,52.3676794 78.9160849,53.1343082 C83.3255603,56.0229645 87.9208642,58.6295872 92.1322649,61.7942073 Z" id="Path" fill="#2F7FA4"></path>
                <path d="M42.9756047,78.9211578 C41.8573308,77.2135018 40.8126667,75.443822 39.5468909,73.8294876 C37.6902597,71.4688664 35.4900224,69.4066457 33.0210603,67.7132809 C27.0422867,57.6416977 21.2907,47.4397787 15.3425853,37.3557621 C14.949388,36.691364 13.7603302,35.906634 14.0429858,35 C16.3900751,35.1317649 18.6643459,35.8697627 20.6486992,37.143109 C22.6330524,38.4165982 24.2610839,40.182991 25.3770971,42.2736513 C25.5833738,42.7574085 25.7020535,43.274893 25.7273436,43.8010952 C26.8218815,50.8026419 30.0590122,57.2818452 34.984362,62.3290697 C39.9095705,67.3762943 46.2756074,70.7378714 53.1882774,71.9417624 C54.2611986,72.1045392 54.0485641,72.1435542 54.9886771,72.2833222 C55.0809364,72.866975 54.5892633,72.9911655 54.2452334,73.1775228 C51.0376313,74.9719264 47.8546128,76.8472182 44.5855516,78.511286 C44.0694361,78.753379 43.6024879,79.1756841 42.9756047,78.9211578 Z" id="Path" fill="#24628D"></path>
                <path d="M158,32.1919023 C157.381542,34.6307215 156.441771,36.9903937 155.644174,39.3865521 C154.643268,42.4352514 153.567009,45.3923144 152.509233,48.3921784 C151.451457,51.3920424 150.345342,54.4894367 149.244914,57.495335 C149.166718,58.0044573 149.008905,58.4984238 148.774317,58.9587107 C146.496687,59.6323013 144.270239,60.4615195 142.109191,61.4401906 C134.22805,65.2340496 128.16489,71.9171914 125.215628,80.0610427 C125.15165,80.4138358 124.983884,80.7403869 124.733373,81 C124.350783,80.4195894 124.136953,79.7468407 124.115058,79.055007 C123.781091,78.0489713 124.226238,77.2259277 124.78285,76.4454046 C129.958275,68.9458147 134.979298,61.3426603 140.068281,53.7821666 C144.499139,47.2093252 148.91507,40.6242749 153.312517,34.0271562 C153.696387,33.321149 154.205371,32.6890964 154.815298,32.1614504 C155.865965,31.9363589 156.95502,31.9467434 158,32.1919023 Z" id="Path" fill="#052B50"></path>
                <path d="M14.3142733,36.1214185 C15.2491907,38.2764926 16.5941222,40.202143 17.7395989,42.2419463 C18.9778982,44.4030285 20.2905126,46.4914551 21.4917968,48.658685 C22.7796395,50.989809 24.315199,53.1874984 25.6897426,55.469999 C27.6464207,58.7239877 29.5534131,62.0021482 31.4914413,65.268153 C31.8691382,65.9117131 32.3211502,66.5188057 32.729883,67.1562181 C32.8783707,67.4050632 33.2127884,67.6843677 32.804198,68 C30.5812955,66.7858147 28.2457815,65.6257019 25.9424422,64.5694026 C26.1343516,64.4966074 26.6124166,64.5214779 26.2965064,64.1936898 C25.0086637,62.7003397 23.6836635,61.2371696 22.3771709,59.7559753 C20.6682096,57.8194266 18.9655124,55.8707221 17.2504294,53.9341734 C16.4702638,53.053924 15.6529406,52.2100024 14.872775,51.3237449 C12.4517703,48.573734 9.91933565,45.9025264 7.59741761,43.0735724 C6.9163245,42.2418066 6.11140146,41.5072874 5.43029411,40.6453416 C5.11834176,40.1085292 4.60524051,39.7121375 4,39.540419 C6.66245748,37.0319876 9.88219237,36 13.535332,36 C13.7985667,36.0138325 14.0595805,36.0544916 14.3142733,36.1214185 L14.3142733,36.1214185 Z" id="Path" fill="#104372"></path>
                <path d="M155,33.0014098 C154.561695,34.3151813 153.655296,35.3784628 152.890744,36.4722644 C151.039648,39.0999481 149.343165,41.8070966 147.554481,44.4653004 C143.791295,50.0506226 140.033926,55.6400235 136.28308,61.2335031 C132.581598,66.7944936 128.879974,72.3736274 125.116788,77.922241 C124.653943,78.5199853 124.392662,79.2469829 124.370392,80 C123.736622,78.2244886 122.771925,76.582872 121.526371,75.1602407 C120.016842,73.494433 118.107021,72.233263 115.974077,71.4936072 C115.286689,71.3097833 114.623982,71.0450881 114,70.7054287 C114.111066,70.2348282 114.518165,70.3692854 114.802,70.3265292 C117.574104,69.889121 120.29713,69.1870177 122.93292,68.2304862 C131.83506,65.0284055 137.436717,58.5264953 141.292387,50.2767809 C142.369994,48.0150573 143.104759,45.6077655 143.470723,43.1331043 C144.087755,38.6661968 146.887803,35.9345759 150.731841,34.0279828 C152.041084,33.3282704 153.512031,32.9746871 155,33.0014098 L155,33.0014098 Z" id="Path" fill="#095883"></path>
                <path d="M22.0147939,135 C21.9056683,134.050895 22.4270461,133.254733 22.6997904,132.417119 C24.0332689,128.269072 25.4698801,124.145325 26.8821018,119.995849 C28.2277053,116.046342 29.5915661,112.102696 30.9250445,108.152761 C31.2097745,107.399194 31.3933229,106.609464 31.4706725,105.805298 C32.6829003,104.780579 33.9800036,103.817895 35.1498633,102.69998 C39.2284844,98.9330049 42.3227454,94.1806183 44.1511216,88.8756352 C44.2187154,88.5298694 44.4033787,88.2198379 44.6723601,88 C45.278474,89.9189362 45.7392265,91.8441616 46.8544537,93.4899442 C47.9798549,95.0814105 49.3711713,96.4566124 50.9641541,97.5516567 C51.2247733,99.1662789 50.0064133,99.973733 49.1820482,100.998452 C48.3091828,101.333783 47.4484426,101.68155 46.5695844,101.9983 C39.1321808,104.687383 34.0103859,110.07184 30.1734299,116.903253 C28.2033158,120.343187 26.8928331,124.138178 26.3123631,128.081824 C25.894118,131.050636 24.2575129,133.224716 22.0147939,135 Z" id="Path" fill="#052B50"></path>
                <path d="M149.899111,108.094937 C152.699897,108.546726 155.537987,108.717383 158.373208,108.604365 C159.918519,108.64039 161.425089,109.078899 162.742261,109.874827 C165.860143,111.495786 168.217567,114.243109 169.319515,117.538992 C170.420028,120.835158 170.178977,124.422063 168.645146,127.547007 C168.454313,128.032984 168.178826,128.48223 167.827293,128.872141 C167.035268,129.277593 166.666517,128.626327 166.299201,128.203923 C161.462394,122.678762 156.482104,117.2467 151.671125,111.67944 C150.808793,110.798183 150.003854,109.863243 149.262048,108.880553 C148.70103,108.051849 149.099912,107.855481 149.899111,108.094937 Z" id="Path" fill="#082746"></path>
                <path d="M115.818853,154.558716 C116.148428,156.522317 116.210626,158.523814 116.440828,160.493029 C116.51332,161.87976 116.660735,163.262281 116.882215,164.633574 C117.025484,165.415364 117.03821,166.213998 116.919534,167 C114.352709,165.387293 112.46162,162.92402 111.590283,160.059324 C111.440152,159.368766 111.410697,158.657154 111.503207,157.955366 C111.627602,147.356976 107.703585,138.527089 99.5199716,131.556938 C96.4918844,129.006644 93.0175482,127.017779 89.2655397,125.682979 C88.8943567,125.587536 88.5370429,125.445775 88.2021775,125.263311 C88.0584799,125.120146 88.164859,125.215589 88,125.034528 C90.4457187,124.491345 92.7503136,123.458314 94.7689431,122 C96.1867593,122.23159 96.8459095,123.427435 97.691652,124.324319 C100.514988,127.318144 103.288423,130.355479 106.267181,133.21456 C107.361571,134.270048 108.28195,135.471507 109.326725,136.574717 C110.371356,137.67933 110.570388,139.11238 110.999479,140.428932 C112.448465,144.655095 114.10878,148.813886 115.43952,153.065313 C115.537177,153.569196 115.66386,154.068869 115.818853,154.558716 Z" id="Path" fill="#051E48"></path>
                <path d="M45.362427,169.686837 C45.268358,169.640822 45.1871361,169.572497 45.1254703,169.488834 C45.0636617,169.405172 45.0232649,169.308959 45.0074202,169.207169 C44.9917182,169.10538 45.0009966,169.000801 45.0346845,168.903194 C45.0683723,168.805588 45.1253275,168.717742 45.2009824,168.645234 C47.5973853,165.361466 49.9937882,162.073514 52.3901912,158.782774 C53.4083912,157.382815 54.4140297,155.977279 55.4198109,154.541066 C58.3066856,150.512698 63.4179556,142.606556 64.9991418,142 C65.0171277,142.036254 64.7507656,142.45178 64.3535062,143.27307 C62.9640265,145.919606 62.1002765,148.800398 61.8080775,151.76067 C61.5515648,154.121357 61.4623492,156.495989 61.5411444,158.867832 C61.465775,160.26779 61.0393957,161.628707 60.2995485,162.829269 C59.0047086,165.272225 56.9644545,167.260613 54.4609928,168.521134 C51.9575311,169.783049 49.1144791,170.25435 46.324671,169.869501 C46.0003543,169.829064 45.6788926,169.767711 45.362427,169.686837 L45.362427,169.686837 Z" id="Path" fill="#051843"></path>
                <path d="M150.461769,107.440948 C150.253901,107.527863 152.447759,110.826033 153.784862,112.428374 C155.373373,114.291743 156.949243,116.154969 158.537754,118.049359 C159.300408,118.943805 160.088344,119.825814 160.865043,120.719831 C162.80047,122.974172 164.780842,125.192775 166.674134,127.490001 C167.015432,127.913137 167.345494,128.440627 168,128.464928 C166.456433,131.165277 163.942344,133.14944 160.987236,134 C159.502659,131.459757 158.005442,128.918084 156.520865,126.372122 C155.037693,123.826161 153.626151,121.347387 152.178092,118.838164 L145.84371,107.819912 C145.581065,107.366471 145.300162,106.925466 145.055775,106.465878 C144.884424,106.142808 145.141451,106.068331 145.373196,106 L150.461769,107.440948 Z" id="Path" fill="#104372"></path>
                <path d="M116,29 C116.614677,27.4280546 117.844031,26.2187587 118.778413,24.8341219 C120.475029,22.3309212 122.282312,19.9003618 124.052564,17.4455886 C126.802427,13.6242694 129.556247,9.8090732 132.314166,6 C135.541467,10.3229891 135.744287,14.9181742 133.543661,19.6948233 C132.689135,21.4749513 131.403811,23.0215697 129.800054,24.1992764 C128.703275,25.0915669 127.37866,25.6707487 125.970514,25.8740607 C122.730352,26.3417757 119.587853,27.3197885 116.663862,28.7702477 C116.448747,28.8633454 116.226847,28.9401614 116,29 L116,29 Z" id="Path" fill="#01384D"></path>
                <path d="M90.3873374,99 C91.9223429,99.6500747 93.3052926,100.612073 94.447955,101.824844 C95.5906174,103.037616 96.4683045,104.474653 97.024907,106.044509 C98.7575569,110.657445 98.2085291,115.02676 95.1581563,119 C92.1932097,116.848793 89.1000537,114.911051 85.9520511,113.052413 C85.7220037,112.943716 85.5186081,112.785791 85.3561721,112.589997 C85.1938765,112.394063 85.0766084,112.165029 85.012644,111.918884 C84.9642499,111.450017 85.0554272,110.977363 85.2749542,110.559969 C86.6475237,107.12923 88.0080298,103.692319 89.3989751,100.261439 C89.6064386,99.7556855 89.7345077,99.1645173 90.3873374,99 Z" id="Path" fill="#2F7FA4"></path>
                <path d="M71.1349808,121.379775 C70.7945731,121.648444 70.4109115,121.85852 70,122 C70.420139,119.944969 71.0158886,117.933239 71.2540731,115.840766 C71.5337813,113.466476 71.5820814,111.071036 71.3983967,108.687743 C71.3141959,107.643364 71.5317627,106.596699 72.0254333,105.670077 C72.934629,103.912868 73.9441737,102.248836 75.5745552,101.050402 C76.101387,100.864191 76.4022896,101.230467 76.6593616,101.553298 C79.2805444,104.838061 82.0459067,108.010926 84.6105712,111.33899 C84.7954093,111.595512 84.9276219,111.885331 85,112.192157 C84.9717408,112.400232 75.612186,118.428133 71.1349808,121.379775 Z" id="Path" fill="#095883"></path>
                <path d="M43,79.5525011 C46.9690946,77.6033697 50.7509441,75.2985812 54.6415569,73.2023056 C54.7140657,73.1654843 54.7624049,73.0674352 54.822829,73 L55.9942216,73 C57.3993928,73.1121569 57.397587,73.087045 58.7858117,73.1121569 C60.342668,73.1312024 59.9578989,73.4412915 59.9578989,74.219759 C59.9909584,74.5929098 59.9909584,74.9683179 59.9578989,75.3414688 C59.6014666,78.988613 59.764542,82.6542384 59.6074395,86.3012415 C59.5703517,86.4639042 59.5070106,86.6192309 59.4201945,86.7610141 C59.3267109,86.8885485 59.1880829,86.9741828 59.0334807,87 C58.2007404,86.9294611 57.3846688,86.7224999 56.6170753,86.3871579 C53.1130374,85.1611915 49.5607991,84.0946431 46.0327305,82.954452 C45.5033605,82.778669 44.9562105,82.6635495 44.4015596,82.6112096 C43.8669111,81.6249345 43.3986597,80.6029667 43,79.5525011 Z" id="Path" fill="#234F72"></path>
                <path d="M118.281496,88 C117.154592,87.2914135 116.473572,86.1345063 115.678102,85.1412585 C113.026628,81.8887029 110.459398,78.5633788 107.807785,75.3048289 C107.20519,74.5415963 106.289174,73.9358894 106,72.8820012 C113.147036,70.0171259 121.234337,74.4810953 123,81.2284893 C121.722343,83.2151244 120.450921,85.2017595 119.125046,87.158144 C118.926213,87.5275625 118.739435,87.9273709 118.281496,88 Z" id="Path" fill="#095883"></path>
                <path d="M85.5445053,112.064404 C85.6378851,111.917132 85.6653834,111.953844 86.6245305,112.923183 C88.9541539,115.058128 91.1903975,117.291349 93.3518801,119.58585 C93.7380023,120.002955 94.2487263,120.493767 93.8626041,121.199626 C92.2718549,122.661047 90.2743597,123.62262 88.125767,123.960088 C85.142056,124.433108 82.444929,125.610717 79.7602623,126.880106 C79.37414,127.063666 72.2550826,131.881413 72.0782054,131.978841 C71.5797983,132.303601 73.5936207,128.800427 74.4452093,127.61011 C76.0149051,125.414449 77.6032195,123.235731 79.1729153,121.045718 C81.1370401,118.317873 83.0908531,115.585793 85.0343542,112.849618 L85.5445053,112.064404 Z" id="Path" fill="#051843"></path>
                <path d="M97,87 L100.611921,91.4155799 C101.420097,92.4046829 101.687393,92.4702391 103.055031,92.0888338 C107.58705,90.8255741 112.119068,89.5564172 116.663379,88.316884 C117.906804,87.971274 117.987564,88.0427275 118,89.240568 L118,95.0206219 C118,96.0276912 117.799028,96.8582525 117.74514,98 C114.203116,97.4305663 110.602058,97.2765504 107.021298,97.5412438 C105.970698,97.6126973 105.087907,97.106214 104.211407,96.6533551 C100.145655,94.5796948 97.6652373,91.4095454 97,87 Z" id="Path" fill="#367598"></path>
                <path d="M60.0249128,86.8901967 C60.0249128,84.3542445 59.968859,81.8182922 60.0249128,79.2883877 C60.0748021,77.7057206 60.0249128,73.214254 60.0249128,73.214254 C60.0249128,73.214254 60.6964112,72.9655954 63.0240048,73.0127111 C63.450501,72.9689708 63.8812979,73.0385896 64.2709505,73.214254 C68.9036302,75.0903045 72.0334666,78.2313073 73,83.1992758 C72.586693,83.5967358 72.0568343,83.8573492 71.4848277,83.9448298 C68.2176524,84.8736428 64.9318403,85.7781245 61.6834451,86.7679771 C61.4294111,86.8962444 61.1517227,86.9731767 60.8668663,86.9941326 C60.5818665,87.0150886 60.2955765,86.979787 60.0249128,86.8901967 L60.0249128,86.8901967 Z" id="Path" fill="#367598"></path>
                <path d="M44,82.4100876 C44.0742729,82.2009203 44.0680124,81.9178292 44.4331164,82.0224837 C45.2128396,82.2439717 45.9988234,82.4347289 46.7661679,82.6808581 C50.7555622,83.9361454 54.7408303,85.2016291 58.7218298,86.4773091 C58.8023633,86.4773091 58.8642574,86.6003737 58.9322697,86.6618352 C59.1612067,87.2771583 58.7589663,87.6647622 58.480514,88.0832385 C56.6673728,90.8151595 54.8789893,93.5656321 53.0287117,96.2729119 C52.7750171,96.6481952 52.5706954,97.1527742 51.939518,96.9559275 C50.4752603,96.1566448 49.1959734,95.0608175 48.1843252,93.7391122 C47.1726769,92.4174068 46.4512906,90.8994212 46.0668358,89.2830122 C45.558166,86.9422356 44.8670864,84.6443687 44,82.4100876 L44,82.4100876 Z" id="Path" fill="#052B50"></path>
                <path d="M85.5134521,112 C82.9808409,108.857419 80.2042278,105.947535 77.5638831,102.894644 C77.0763161,102.331983 76.7598125,101.625625 76,101.296488 C79.4254892,98.0281209 86.3462031,96.8308816 91,99.3629945 C89.885686,101.45217 89.1321337,103.690829 88.1507396,105.833873 C87.3465234,107.599698 86.6437806,109.425453 85.8713021,111.191278 L85.5134521,112 Z" id="Path" fill="#2B5178"></path>
                <path d="M115.940682,155 C115.635332,154.421599 115.364068,153.826392 115.128173,153.21718 C113.474061,148.496137 111.819948,143.768091 110.165836,139.033043 C109.83624,138.108722 109.304979,137.265628 108.608991,136.562584 C105.327721,133.094977 101.972003,129.687591 98.6844579,126.218584 C97.4748935,124.959546 96.327369,123.638886 95,122.494688 L97.3259977,120 C99.0920673,120.48891 100.675583,121.469531 101.885147,122.823803 C102.573576,124.320924 103.218649,125.865661 103.95072,127.302561 C105.980495,131.20712 108.947999,134.56969 112.597373,137.09897 C113.128349,137.41408 113.614257,137.796413 114.042689,138.236166 C114.006891,138.421031 113.992344,138.608696 113.999332,138.796361 C114.317661,141.335445 114.638129,143.871727 114.960737,146.402408 C115.202621,148.294466 115.518954,150.175321 115.68639,152.067379 C115.736022,153.058925 116.151618,154.002853 115.940682,155 Z" id="Path" fill="#1C5678"></path>
                <path d="M65.1303849,40.5946593 C64.7569099,37.7702061 64.3773815,34.9518909 64.0161539,32.1091632 C63.9946154,31.7397676 63.9946154,31.3693956 64.0161539,31 C64.4456572,31.424498 64.8106858,31.9082834 65.0998369,32.4365693 C66.6103484,34.5564088 68.3765067,36.4859706 70.3590356,38.1824281 C70.7080159,38.4794232 71.0325013,38.7885549 71.3692342,39.1219595 C73.040792,40.9402004 74.7428978,42.7584412 76.5245413,44.4737312 C77.1895606,44.9990876 77.6993054,45.6921228 78,46.4800179 C76.4702023,47.4019723 75.0772375,48.5301075 73.8612264,49.8317804 C73.8080136,49.9071104 73.7300245,49.9615153 73.6406326,49.9859278 C73.5510999,50.0102007 73.4559363,50.0029467 73.3713307,49.9651423 C71.5958813,48.8862505 69.6978172,47.9831286 68.2223585,46.4981528 C68.1497188,46.401061 68.0862295,46.2975521 68.0324536,46.1890212 C67.1644373,44.2753624 66.1957672,42.4080176 65.1303849,40.5946593 Z" id="Path" fill="#1D5878"></path>
                <path d="M60.0443713,86.5977473 C64.2327052,85.3206153 68.4210392,84.0494177 72.6699969,83 C73.6094558,87.1973948 72.5183678,90.9451575 69.7121158,94.2010574 C69.1589764,94.9449239 68.4471004,95.5590624 67.6269379,96 C66.7359779,95.8320435 66.4571087,95.010616 65.9601334,94.4409164 C64.1418393,92.3182055 62.3900223,90.0995785 60.5838529,87.9469198 C60.2686094,87.5751245 59.8746248,87.1914604 60.0383786,86.609754 L60.0443713,86.5977473 Z" id="Path" fill="#234F72"></path>
                <path d="M59.2620435,87 C60.6896405,89.0920502 62.5130027,90.8903801 64.0704846,92.886409 C65.0036948,94.0852955 66.0234475,95.2241688 67,96.3870474 C63.4833025,99.0484653 59.5401449,99.5220875 55.3249964,98.502965 C54.1180901,98.2554618 52.982521,97.7519018 52,97.028431 C52.2576382,96.9165442 52.4734972,96.730158 52.618019,96.4949334 C54.5093079,93.6836892 56.412818,90.8783774 58.3041069,88.0669953 C58.538866,87.719332 58.7427881,87.3537336 58.9653261,87 L59.2620435,87 Z" id="Path" fill="#095883"></path>
                <path d="M89.4621509,72 C88.9558833,71.928389 88.9142536,71.7018953 89.1047372,71.2489078 C89.8909104,69.3594479 90.6711951,67.4639518 91.3858855,65.5506216 C91.7789036,64.4956628 92.434025,63.5180769 92.4578526,62.3378675 C93.5895256,62.1352441 94.3220182,61.2351681 95.2511568,60.6868365 C96.1802955,60.1385049 96.9008743,59.5602668 97.7288141,59 C97.8180991,60.2278128 97.8954702,61.4616618 97.9907806,62.6896119 C98.0295346,63.1967877 97.9457273,63.705747 97.7466164,64.1736878 C96.1088127,67.9586438 93.5299567,70.7780862 89.4621509,72 Z" id="Path" fill="#20547C"></path>
                <path d="M92,61 C89.4459179,59.6819227 87.0975145,58.0436112 84.6929649,56.497585 C81.6779678,54.5635638 78.6545202,52.6418757 75.6229084,50.7325206 C75.3721122,50.5961482 75.1584127,50.4016545 75,50.1659089 C76.0402814,48.7976488 77.4111383,47.7090797 78.9868144,47 C79.0597186,47.326188 79.2314517,47.6227483 79.4789536,47.8499884 C81.0238352,49.4083476 82.5562558,50.9728025 84.0451344,52.5864478 C86.468304,55.2165069 89.0285449,57.7418058 91.5203218,60.3162952 C91.7391777,60.4976053 91.9048951,60.7337762 92,61 Z" id="Path" fill="#1D5A77"></path>
                <path d="M118,87.5620239 C119.314012,85.4823551 120.731868,83.4497393 122.16195,81.4640416 C122.229401,81.3457326 122.322706,81.2428376 122.435685,81.1626579 C122.548664,81.0824783 122.678365,81.0270421 122.815935,81 L122.889287,81.2819134 C122.962639,81.4522783 122.962639,81.6403558 123.042033,81.8107207 C123.49437,84.7480282 124.802199,87.3446059 126,90 C124.349862,89.8296351 122.846428,89.1539895 121.282008,88.6841338 C120.181869,88.3727446 118.977886,88.2610609 118,87.5620239 Z" id="Path" fill="#062B50"></path>
                <path d="M68,46 C69.749507,46.942312 71.4307112,47.9291707 73.0663804,49.0542728 C73.3398907,49.2424085 73.7178021,49.3767912 74,49.5484446 C72.5767282,51.5010765 71.5075517,53.6841636 70.8404024,56 L70.5406795,55.9355557 C70.3648301,55.0000742 70.1823901,54.0645928 70.0065407,53.1291113 C69.4682078,50.7186874 68.7983623,48.3387037 68,46 Z" id="Path" fill="#3180A5"></path>
                <path d="M77.6534796,47 C75.9779615,44.9720565 74.0658555,43.193641 72.4510547,41.0934975 C72.0624641,40.5947436 71.6254392,40.1354127 71.2368485,39.6562948 C71.091127,39.4791179 70.8665428,39.3084359 71.1032705,39 C73.7178826,41.2028548 76.5974175,43.0110264 79.6628729,44.3748206 L82,45.3265614 L77.6534796,47 Z" id="Path" fill="#091B45"></path>
                <path d="M93.0682257,121 C92.8696674,120.242899 92.4172012,119.571813 91.7822912,119.092797 C90.6121006,117.908208 89.4298593,116.723755 88.2292614,115.598463 C87.4061624,114.800194 86.6599925,113.930359 86,113 C87.2583297,113.527817 88.2474777,114.354576 89.4176683,114.988311 C91.0326182,115.864962 92.5379897,116.930956 94.0981503,117.908208 C94.5716354,118.266038 94.9757582,118.441341 95,119.021777 C94.4865791,119.790874 93.8316311,120.46155 93.0682257,121 Z" id="Path" fill="#1D5A77"></path>
                <path d="M102,122 L97,119.196308 C98.0704789,117.535453 98.9807927,115.797139 99.7210874,114 C100.380987,116.719002 101.115651,119.37751 102,122 Z" id="Path" fill="#3280A5"></path>
                <path d="M50,101 C50.1623749,100.291864 50.7543696,99.8107738 51.1256838,99.2107489 C51.4329553,98.8633989 51.633489,98.4450112 51.7059373,98 C53.0637759,98.6918388 54.5609073,99.0809903 56,99.7783031 C53.9922615,100.113461 52.0077385,100.664842 50,101 Z" id="Path" fill="#0F5C86"></path>
            </g>
        </g>
    </g>
</svg>