<?xml version="1.0" encoding="UTF-8"?>
<svg width="240px" height="240px" viewBox="0 0 240 240" version="1.1" xmlns="http://www.w3.org/2000/svg" xmlns:xlink="http://www.w3.org/1999/xlink">
    <title>cloudflare-worker</title>
    <defs>
        <linearGradient x1="50%" y1="100%" x2="25.7%" y2="8.7%" id="linearGradient-1">
            <stop stop-color="#EB6F07" offset="0%"></stop>
            <stop stop-color="#FAB743" offset="100%"></stop>
        </linearGradient>
        <linearGradient x1="81%" y1="83.7%" x2="40.5%" y2="29.5%" id="linearGradient-2">
            <stop stop-color="#D96504" offset="0%"></stop>
            <stop stop-color="#D96504" stop-opacity="0" offset="100%"></stop>
        </linearGradient>
        <linearGradient x1="42%" y1="8.7%" x2="84%" y2="79.9%" id="linearGradient-3">
            <stop stop-color="#EB6F07" offset="0%"></stop>
            <stop stop-color="#EB720A" stop-opacity="0" offset="100%"></stop>
        </linearGradient>
        <linearGradient x1="50%" y1="100%" x2="25.7%" y2="8.7%" id="linearGradient-4">
            <stop stop-color="#EE6F05" offset="0%"></stop>
            <stop stop-color="#FAB743" offset="100%"></stop>
        </linearGradient>
        <linearGradient x1="-33.2%" y1="100%" x2="91.7%" y2="0%" id="linearGradient-5">
            <stop stop-color="#D96504" stop-opacity="0.8" offset="0%"></stop>
            <stop stop-color="#D96504" stop-opacity="0.2" offset="49.8%"></stop>
            <stop stop-color="#D96504" stop-opacity="0" offset="100%"></stop>
        </linearGradient>
        <linearGradient x1="50%" y1="100%" x2="25.7%" y2="8.7%" id="linearGradient-6">
            <stop stop-color="#FFA95F" offset="0%"></stop>
            <stop stop-color="#FFEBC8" offset="100%"></stop>
        </linearGradient>
        <linearGradient x1="8.1%" y1="1.1%" x2="96.5%" y2="48.8%" id="linearGradient-7">
            <stop stop-color="#FFFFFF" stop-opacity="0.5" offset="0%"></stop>
            <stop stop-color="#FFFFFF" stop-opacity="0.1" offset="100%"></stop>
        </linearGradient>
        <linearGradient x1="-13.7%" y1="104.2%" x2="100%" y2="46.2%" id="linearGradient-8">
            <stop stop-color="#FFFFFF" stop-opacity="0.5" offset="0%"></stop>
            <stop stop-color="#FFFFFF" stop-opacity="0.1" offset="100%"></stop>
        </linearGradient>
    </defs>
    <g id="Page-1" stroke="none" stroke-width="1" fill="none" fill-rule="evenodd">
        <g id="cloudflare-worker" transform="translate(0, 0)">
            <rect id="ViewBox" x="0" y="0" width="240" height="240"></rect>
            <g id="Group" transform="translate(0, 12)" fill-rule="nonzero">
                <path d="M61.705488,3.114375 L89.9814255,54.1265625 L64.0145505,100.8675 C61.4864216,105.405728 61.4864216,110.928959 64.0145505,115.467187 L89.9814255,162.323437 L61.7064255,213.33375 C56.3857239,210.696756 51.96731,206.540015 49.0108005,201.39 L4.00236304,123.19875 C-1.33412101,113.908358 -1.33412101,102.482579 4.00236304,93.1921875 L49.011738,15.001875 C51.9769596,9.87269385 56.3945136,5.73633402 61.707363,3.114375" id="Path" fill="url(#linearGradient-1)"></path>
                <path d="M64.0145505,100.925625 C61.5082983,105.448513 61.5082983,110.943362 64.0145505,115.46625 L89.9814255,162.3225 L61.7064255,213.33375 C56.3857239,210.696756 51.96731,206.540015 49.0108005,201.39 L4.00236304,123.19875 C0.424863036,117.024375 20.447988,109.637813 64.015488,100.981875 L64.0145505,100.925625 Z" id="Path" fill="url(#linearGradient-2)" opacity="0.7"></path>
                <path d="M64.591113,8.251875 L89.9814255,54.1265625 L85.769238,61.4559375 L63.379863,23.5434375 C56.916738,12.9834375 47.048613,18.4659375 34.7008005,39.8165625 L36.5476755,36.6421875 L49.0108005,15.0028125 C51.9452748,9.89040914 56.3208532,5.75579891 61.591113,3.1153125 L64.5339255,8.251875 L64.591113,8.251875 Z" id="Path" fill="url(#linearGradient-3)" opacity="0.5"></path>
                <path d="M190.964238,15.0028125 L235.973613,93.193125 C241.340801,102.425625 241.340801,113.967187 235.973613,123.199688 L190.964238,201.389062 C185.607274,210.666829 175.710624,216.385148 164.997363,216.392812 L119.987988,216.392812 L175.961426,115.467187 C178.468024,110.944056 178.468024,105.448757 175.961426,100.925625 L119.987988,0 L164.997363,0 C175.710431,0.00747099365 185.607036,5.72540651 190.964238,15.0028125" id="Path" fill="url(#linearGradient-4)"></path>
                <path d="M162.689238,216.046875 L118.256426,216.45 L172.037988,115.005 C174.479322,110.424357 174.479322,104.928768 172.037988,100.348125 L118.255488,0 L128.412363,0 L184.847051,99.886875 C187.567865,104.688389 187.545755,110.570949 184.788926,115.351875 C172.643244,136.46136 160.583145,157.619971 148.608926,178.827188 C137.644863,198.100313 142.376426,210.50625 162.688301,216.045938" id="Path" fill="url(#linearGradient-5)"></path>
                <path d="M74.978613,216.39375 C70.362363,216.39375 65.7451755,215.295938 61.7064255,213.33375 L117.217676,113.21625 C118.948004,110.093019 118.948004,106.298856 117.217676,103.175625 L61.7064255,3.11625 C65.8327119,1.07271457 70.3740246,0.00643474172 74.978613,0 L119.987988,0 L175.961426,100.925625 C178.467678,105.448513 178.467678,110.943362 175.961426,115.46625 L119.987988,216.39375 L74.978613,216.39375 Z" id="Path" fill="url(#linearGradient-6)"></path>
                <path d="M172.037988,103.175625 L114.794238,0 L119.987988,0 L175.961426,100.925625 C178.467678,105.448513 178.467678,110.943362 175.961426,115.46625 L119.987988,216.39375 L114.794238,216.39375 L172.037988,113.217187 C173.768317,110.093957 173.768317,106.299793 172.037988,103.176562" id="Path" fill="url(#linearGradient-7)" opacity="0.6"></path>
                <path d="M117.217676,103.175625 L61.7064255,3.11625 C63.4370505,2.1928125 65.5145505,1.5 67.476738,0.9225 C79.7101755,22.90875 97.7720505,56.2621875 121.719551,100.925625 C124.225803,105.448513 124.225803,110.943362 121.719551,115.46625 L66.6114255,215.239688 C64.649238,214.662187 63.610488,214.258125 61.7645505,213.392813 L117.160488,113.275313 C118.890817,110.152082 118.890817,106.357918 117.160488,103.234688 L117.217676,103.175625 Z" id="Path" fill="url(#linearGradient-8)" opacity="0.6"></path>
            </g>
        </g>
    </g>
</svg>