<?xml version="1.0" encoding="UTF-8"?>
<svg width="240px" height="240px" viewBox="0 0 240 240" version="1.1" xmlns="http://www.w3.org/2000/svg" xmlns:xlink="http://www.w3.org/1999/xlink">
    <title>cloudflare-workers</title>
    <defs>
        <linearGradient x1="52.830533%" y1="95.9116312%" x2="48.4058106%" y2="4.67982654%" id="linearGradient-1">
            <stop stop-color="#EB6F07" offset="0%"></stop>
            <stop stop-color="#FAB743" offset="100%"></stop>
        </linearGradient>
        <linearGradient x1="71.8210677%" y1="79.0843349%" x2="47.8517918%" y2="25.083164%" id="linearGradient-2">
            <stop stop-color="#D96504" offset="0%"></stop>
            <stop stop-color="#D96504" stop-opacity="0" offset="100%"></stop>
        </linearGradient>
        <linearGradient x1="22.2478734%" y1="22.278292%" x2="59.8964727%" y2="93.388076%" id="linearGradient-3">
            <stop stop-color="#EB6F07" offset="0%"></stop>
            <stop stop-color="#EB720A" stop-opacity="0" offset="100%"></stop>
        </linearGradient>
        <linearGradient x1="51.9215412%" y1="98.3130892%" x2="44.4935506%" y2="7.08037423%" id="linearGradient-4">
            <stop stop-color="#EE6F05" offset="0%"></stop>
            <stop stop-color="#FAB743" offset="100%"></stop>
        </linearGradient>
        <linearGradient x1="41.7398863%" y1="101.335128%" x2="54.3125668%" y2="1.38180485%" id="linearGradient-5">
            <stop stop-color="#D96504" stop-opacity="0.8" offset="0%"></stop>
            <stop stop-color="#D96504" stop-opacity="0.2" offset="49.8%"></stop>
            <stop stop-color="#D96504" stop-opacity="0" offset="100%"></stop>
        </linearGradient>
        <linearGradient x1="51.8981007%" y1="98.3122099%" x2="44.8456175%" y2="7.0803109%" id="linearGradient-6">
            <stop stop-color="#FFA95F" offset="0%"></stop>
            <stop stop-color="#FFEBC8" offset="100%"></stop>
        </linearGradient>
        <linearGradient x1="44.651755%" y1="40.2860388%" x2="52.1683534%" y2="87.9144567%" id="linearGradient-7">
            <stop stop-color="#FFFFFF" stop-opacity="0.5" offset="0%"></stop>
            <stop stop-color="#FFFFFF" stop-opacity="0.1" offset="100%"></stop>
        </linearGradient>
        <linearGradient x1="43.1905354%" y1="68.7429671%" x2="52.6735048%" y2="10.7164338%" id="linearGradient-8">
            <stop stop-color="#FFFFFF" stop-opacity="0.5" offset="0%"></stop>
            <stop stop-color="#FFFFFF" stop-opacity="0.1" offset="100%"></stop>
        </linearGradient>
    </defs>
    <g id="Page-1" stroke="none" stroke-width="1" fill="none" fill-rule="evenodd">
        <g id="cloudflare-workers">
            <rect id="ViewBox" x="0" y="0" width="240" height="240"></rect>
            <path d="M63.52875,18.17625 L90.920625,67.59375 L65.765625,112.873125 C63.3166198,117.26945 63.3166198,122.619925 65.765625,127.01625 L90.920625,172.408125 L63.52875,221.825625 C58.3743231,219.270382 54.0942315,215.242828 51.230625,210.253125 L7.6275,134.506875 C2.45692408,125.507298 2.45692408,114.438327 7.6275,105.43875 L51.230625,29.6925 C54.1029442,24.7236302 58.3821758,20.7164584 63.52875,18.17625" id="Path" fill="url(#linearGradient-1)" fill-rule="nonzero"></path>
            <path d="M65.765625,112.929375 C63.337455,117.31109 63.337455,122.634535 65.765625,127.01625 L90.920625,172.408125 L63.52875,221.825625 C58.3743231,219.270382 54.0942315,215.242828 51.230625,210.253125 L7.6275,134.506875 C4.1625,128.525625 23.559375,121.370625 65.765625,112.985625 L65.765625,112.929375 Z" id="Path" fill="url(#linearGradient-2)" fill-rule="nonzero" opacity="0.7"></path>
            <path d="M66.324375,23.150625 L90.920625,67.591875 L86.840625,74.690625 L65.150625,37.965 C58.89,27.735 49.33125,33.045 37.366875,53.73 L39.155625,50.655 L51.230625,29.6925 C54.0729464,24.7399975 58.3112267,20.7345324 63.41625,18.17625 L66.268125,23.150625 L66.324375,23.150625 Z" id="Path" fill="url(#linearGradient-3)" fill-rule="nonzero" opacity="0.5"></path>
            <path d="M188.746875,29.690625 L232.35,105.436875 C237.547553,114.429235 237.547553,125.51264 232.35,134.505 L188.746875,210.25125 C183.558789,219.240374 173.970726,224.780525 163.591875,224.78625 L119.98875,224.78625 L174.21375,127.014375 C176.64192,122.63266 176.64192,117.309215 174.21375,112.9275 L119.98875,15.1575 L163.591875,15.1575 C173.97034,15.162838 183.558313,20.7022224 188.746875,29.690625" id="Path" fill="url(#linearGradient-4)" fill-rule="nonzero"></path>
            <path d="M161.356875,224.4525 L118.3125,224.8425 L170.413125,126.568125 C172.778459,122.130513 172.778459,116.806362 170.413125,112.36875 L118.3125,15.1575 L128.150625,15.1575 L182.821875,111.9225 C185.457622,116.573805 185.436225,122.272369 182.765625,126.90375 C170.999703,147.353947 159.316483,167.851614 147.71625,188.39625 C137.094375,207.065625 141.67875,219.084375 161.356875,224.4525" id="Path" fill="url(#linearGradient-5)" fill-rule="nonzero"></path>
            <path d="M76.385625,224.788125 C71.91375,224.788125 67.441875,223.725 63.52875,221.82375 L117.305625,124.835625 C118.982959,121.810045 118.982959,118.133705 117.305625,115.108125 L63.52875,18.17625 C67.5259311,16.1966988 71.9251273,15.1637826 76.385625,15.1575 L119.98875,15.1575 L174.21375,112.929375 C176.64192,117.31109 176.64192,122.634535 174.21375,127.01625 L119.98875,224.788125 L76.385625,224.788125 L76.385625,224.788125 Z" id="Path" fill="url(#linearGradient-6)" fill-rule="nonzero"></path>
            <path d="M170.41125,115.108125 L114.958125,15.1575 L119.98875,15.1575 L174.21375,112.929375 C176.64192,117.31109 176.64192,122.634535 174.21375,127.01625 L119.98875,224.788125 L114.958125,224.788125 L170.413125,124.835625 C172.089875,121.809721 172.089167,118.133382 170.41125,115.108125" id="Path" fill="url(#linearGradient-7)" fill-rule="nonzero" opacity="0.6"></path>
            <path d="M117.305625,115.108125 L63.52875,18.17625 C65.205,17.281875 67.21875,16.610625 69.118125,16.051875 C80.97,37.35 98.465625,69.661875 121.665,112.929375 C124.09317,117.31109 124.09317,122.634535 121.665,127.01625 L68.28,223.66875 C66.37875,223.11 65.37375,222.718125 63.585,221.88 L117.25125,124.891875 C118.928584,121.866295 118.928584,118.189955 117.25125,115.164375 L117.305625,115.108125 Z" id="Path" fill="url(#linearGradient-8)" fill-rule="nonzero" opacity="0.6"></path>
        </g>
    </g>
</svg>