<?xml version="1.0" encoding="UTF-8"?>
<svg width="240px" height="240px" viewBox="0 0 240 240" version="1.1" xmlns="http://www.w3.org/2000/svg" xmlns:xlink="http://www.w3.org/1999/xlink">
    <title>coalitioninc</title>
    <g id="Page-1" stroke="none" stroke-width="1" fill="none" fill-rule="evenodd">
        <g id="coalitioninc">
            <rect id="box" fill="#FFFFFF" x="0" y="0" width="240" height="240" rx="32"></rect>
            <path d="M196.914345,145.9063 L155.7902,128.9522 C154.985572,128.629625 154.086433,128.629625 153.281805,128.9522 C152.882045,129.12135 152.518473,129.364025 152.210245,129.6679 C151.913938,129.97815 151.675529,130.3394 151.505664,130.733375 C149.017278,136.734375 144.513065,141.689875 138.761892,144.7554 C133.011144,147.82135 126.369772,148.806925 119.969788,147.544675 C113.570655,146.282425 107.808839,142.8497 103.668624,137.833 C99.5279837,132.8163 97.2652341,126.525875 97.2652341,120.034 C97.2652341,113.54255 99.5279837,107.2517 103.668624,102.235 C107.808839,97.217875 113.570655,93.785575 119.969788,92.5229 C126.369772,91.261075 133.011144,92.24665 138.761892,95.312175 C144.513065,98.3777 149.017278,103.333625 151.505664,109.3342 C151.839861,110.119175 152.468663,110.7435 153.25839,111.073725 C154.048543,111.40395 154.936614,111.413725 155.734004,111.100925 L196.858149,94.161275 C197.433309,93.90075 197.922045,93.48255 198.267312,92.95555 C198.633864,92.4175 198.830125,91.78255 198.830551,91.1323 C198.832254,79.65135 194.338684,68.622175 186.303475,60.3834225 C178.26784,52.144585 167.323199,47.3445925 155.7902,47.0017875 C147.575759,39.293435 136.710729,35 125.419119,35 C114.127508,35 103.262904,39.293435 95.0484632,47.0017875 C83.75813,47.3230025 73.0182644,51.929365 65.0315883,59.8764825 C57.0445716,67.8236 52.4152369,78.5098 52.0923641,89.74425 C44.3268542,97.917425 40,108.7375 40,119.985125 C40,131.2319 44.3268542,142.0524 52.0923641,150.225575 C52.4152369,161.460025 57.0445716,172.1458 65.0315883,180.0933 C73.0182644,188.040375 83.75813,192.646525 95.0484632,192.967825 C103.262479,200.69475 114.136875,205 125.440405,205 C136.744362,205 147.618758,200.69475 155.832347,192.967825 C167.38493,192.678825 178.366184,187.907775 186.431194,179.67255 C194.497056,171.43775 199.007229,160.392 199,148.8932 C198.989774,148.25145 198.788404,147.6267 198.421851,147.09885 C198.053596,146.556975 197.52782,146.141325 196.914345,145.9063 Z M190,150.402706 C184.309291,154.778498 177.482817,157.41602 170.337293,158 C169.871871,151.6843 168.051336,145.544179 165,140 L190,150.402706 Z M156.042571,138 C160.58181,143.755213 163.345947,150.704205 164,158 C156.706085,157.361968 149.755751,154.615544 144,150.09676 C148.958504,147.126745 153.097398,142.969412 156.042571,138 Z M126.500214,155.027554 C129.366142,155.027554 132.2218,154.682545 135,154 C134.133845,160.996919 131.180189,167.599008 126.500214,173 C121.820239,167.60399 118.866583,161.006053 118,154.013701 C120.774777,154.689188 123.624443,155.034612 126.485664,155.041255 L126.500214,155.027554 Z M108,150.105104 C102.233251,154.595534 95.2896753,157.336092 88,158 C88.6555184,150.704777 91.4251807,143.757458 95.971518,138 C98.9120725,142.964218 103.038947,147.127436 107.985759,150.119331 L108,150.105104 Z M92.9713336,129 C85.6171086,128.140855 78.6763741,125.186442 73,120.5 C78.6876669,115.813987 85.6370882,112.860004 93,112 C91.5692879,117.57736 91.5592981,123.417058 92.9713336,129 Z M95.9516157,102 C91.4139739,96.243617 88.6514266,89.2951754 88,82 C95.2950327,82.6513089 102.242867,85.4032393 108,89.9206728 C103.07133,92.9057667 98.9530767,97.0532361 96.0087659,102 L95.9516157,102 Z M117,85.9862996 C117.867011,78.9936851 120.820239,72.3963072 125.500214,67 C130.18618,72.3979679 133.140264,79.0011581 134,86 C128.441032,84.6353545 122.618024,84.6303726 117.056916,85.9862996 L117,85.9862996 Z M156.113928,102 C153.152228,97.0264755 148.987809,92.8665892 144,89.8974558 C149.763297,85.4065177 156.708167,82.6646864 164,82 C163.382458,89.2870119 160.64214,96.2373757 156.113928,102 Z M165,101 C168.05086,95.4562478 169.871364,89.3161267 170.336778,83 C177.483878,83.5891064 184.309388,86.2313279 190,90.6118192 L165,101 Z M181.838489,64.1527592 C186.997036,69.3041279 190.530563,75.8576218 192,83 C185.636632,78.6260932 178.21396,76.0445158 170.510318,75.5280319 C169.962214,67.8119231 167.369731,60.3812064 163,54 C170.140862,55.4677065 176.695039,58.9974759 181.852327,64.1527592 L181.838489,64.1527592 Z M153.995885,53.0281603 C159.767736,59.2011947 163.291288,67.1353992 164,75.5531928 C155.745743,76.1594924 147.831583,79.0881626 141.173524,84 C139.934875,75.8219956 136.408343,68.1598365 131,61.8975852 C137.435443,56.4337634 145.527526,53.2989684 153.967367,53 L153.995885,53.0281603 Z M126.49979,42 C133.788081,42.0013047 140.915774,44.1301005 147,48.1229415 C139.408591,49.538892 132.335972,52.9489538 126.514084,58 C120.678742,52.9546216 113.597715,49.5498498 106,48.1367962 C112.084226,44.1312341 119.219066,41.9969804 126.514084,42 L126.49979,42 Z M98.0083747,54 C106.45181,54.3061898 114.54819,57.4358313 121,62.8875722 C115.600426,69.1565022 112.082186,76.8212788 110.850674,85 C104.177857,80.0970359 96.2594748,77.1678926 88,76.5493662 C88.7098652,68.1213562 92.2404542,60.1776238 98.0224273,54 L98.0083747,54 Z M70.1667007,64.1346865 C75.3096917,58.9727323 81.8619916,55.4469095 89,54 C84.6453659,60.3772133 82.0663183,67.8007299 81.5280202,75.5065416 C73.8126945,76.0378461 66.3801536,78.6252697 60,83 C61.4603695,75.8465596 64.9968576,69.2846749 70.1667007,64.1346865 Z M81.5494655,82 C82.1548985,90.2620691 85.0846327,98.1840685 90,104.850032 C81.8200596,106.078726 74.1545032,109.597763 67.8874419,115 C62.424079,108.555338 59.2930585,100.455187 59,92.0081302 C65.1815009,86.2346361 73.1236078,82.7091905 81.5494655,82 Z M47,119.520858 C46.9923757,112.221987 49.1283493,105.083235 53.140041,99 C54.5530227,106.595932 57.9567698,113.675272 63,119.506953 C57.9545139,125.33147 54.5502238,132.407017 53.140041,140 C49.1368713,133.928142 47.0013572,126.80498 47,119.520858 Z M59,147.97639 C59.2910588,139.53577 62.4223771,131.440762 67.8874419,125 C74.1536523,130.406912 81.8170814,133.939411 90,135.193002 C85.0850582,141.845399 82.155324,149.753093 81.5494655,158 C73.1261606,157.287441 65.1883083,153.761343 59.0140828,147.990044 L59,147.97639 Z M70.1812833,175.865653 C65.0040249,170.715687 61.4624642,164.153409 60,157 C66.3754395,161.369234 73.8051961,163.952012 81.5168826,164.479943 C82.053852,172.190777 84.6365989,179.618896 89,186 C81.8706605,184.533758 75.3278698,181.010562 70.1812833,175.865653 Z M88,164.447176 C96.2594748,163.828507 104.178282,160.901137 110.850674,156 C112.072392,164.190748 115.591057,171.868641 121,178.14493 C114.546061,183.595615 106.44159,186.714559 97.9943222,187 C92.2187367,180.818432 88.697516,172.873018 88,164.447176 Z M126.50693,198 C119.213085,198.002515 112.080934,195.864819 106,191.854542 C113.593293,190.440039 120.671266,187.038435 126.50693,182 C132.335874,187.040952 139.410487,190.442975 147,191.854542 C140.924946,195.8644 133.796575,198.002515 126.50693,198 Z M154.005678,187 C145.554578,186.710029 137.447977,183.576719 131,178.108693 C136.413627,171.849759 139.939106,164.183248 141.163378,156 C147.831938,160.903031 155.745209,163.832635 164,164.454856 C163.309297,172.881526 159.786373,180.827332 154.005678,187 Z M181.842213,175.860497 C176.694689,181.022357 170.140128,184.549452 163,186 C167.350399,179.616493 169.930667,172.190918 170.475097,164.482905 C178.187778,163.952598 185.619639,161.368928 192,157 C190.538813,164.149039 187.005688,170.708754 181.842213,175.860497 Z" id="Shape" fill="#303030" fill-rule="nonzero"></path>
        </g>
    </g>
</svg>