<?xml version="1.0" encoding="UTF-8"?>
<svg width="240px" height="240px" viewBox="0 0 240 240" version="1.1" xmlns="http://www.w3.org/2000/svg" xmlns:xlink="http://www.w3.org/1999/xlink">
    <title>cocroachdb</title>
    <defs>
        <path d="M54.3993837,95 C61.1600972,106.060368 69.5508449,116.065523 79.3015908,124.686317 C86.126131,130.751368 90.0146461,139.386683 90,148.443116 L90,218 C54.3159181,187.669907 40.3231557,139.328598 54.3993837,95 M104,148.445219 C103.985351,139.38843 107.874669,130.752775 114.700619,124.687485 C124.448469,116.066352 132.836039,106.055962 139.593238,95 C143.178089,106.264109 145.004891,118.002597 145,129.808855 C144.990158,163.673789 130.04673,195.859032 104.054101,218 L104.004994,218 L104.004994,148.440378 L104,148.445219 Z M73.6650246,98.6509439 C64.7783251,87.0519871 64.7783251,71.0113953 73.6650246,59.4124384 C80.408867,50.5340438 88.3940887,42.6502637 97.3842364,36 C106.551724,42.7428993 114.689655,50.7583196 121.541872,59.7976076 C130.152709,71.2064176 130.152709,86.8618403 121.541872,98.2657747 C114.679803,107.280685 106.541872,115.276603 97.3842364,122 C88.4039409,115.359487 80.4187192,107.500085 73.6650246,98.6509439 M167.233433,0 C142.334985,0 117.951372,7.04397426 96.9558711,20.3017921 C76.0143052,7.07310164 51.6993379,0.0339819565 26.8695345,0 L26.3988273,0 C17.528939,0 8.68846989,0.893240016 0,2.65544722 L3.23120861,15.4569359 C10.8949098,13.9520207 18.6909973,13.2044176 26.5017945,13.2189813 C47.1099429,13.1752902 67.3601578,18.5056029 85.2274175,28.6759173 C28.6395895,73.672883 19.6127989,155.5694 65.0605571,211.595937 C73.1214174,221.533233 82.6091088,230.242323 93.2294394,237.441643 L96.9607743,240 L100.741141,237.441643 C127.257646,219.450624 146.208512,192.473804 154.019309,161.603624 C166.365566,112.388041 148.704241,60.5558476 108.772582,28.8069906 C133.602386,14.762733 162.727393,10.0780776 190.768792,15.6219912 L194,2.82050244 C185.287014,1.00489502 176.417125,0.0631093493 167.512915,0.00485456527 L167.233433,0.00485456527" id="path-1"></path>
    </defs>
    <g id="Page-1" stroke="none" stroke-width="1" fill="none" fill-rule="evenodd">
        <g id="cocroachdb" transform="translate(0, -1)">
            <rect id="box" fill-rule="nonzero" x="0" y="1" width="240" height="240"></rect>
            <g id="shape" transform="translate(23, 1)">
                <mask id="mask-2" fill="white">
                    <use xlink:href="#path-1"></use>
                </mask>
                <use id="path-1" fill="#ACB9FF" xlink:href="#path-1"></use>
            </g>
        </g>
    </g>
</svg>