<svg width="240" height="240" viewBox="0 0 240 240" fill="none" xmlns="http://www.w3.org/2000/svg">
<path d="M66.6739 107.962C68.931 110.972 68.931 113.981 68.1786 116.991C71.9404 116.991 75.7021 120.752 75.7021 124.514C79.4639 123.762 83.2256 126.019 84.7303 129.028C87.7398 126.771 92.2539 127.524 94.5109 130.533C95.514 131.887 95.514 131.887 94.5109 130.533H95.2633C96.768 128.276 99.7774 127.524 102.034 129.028C102.034 128.276 102.787 127.524 103.539 126.771C105.044 125.266 108.053 125.266 109.558 126.771C109.558 125.266 111.063 124.514 111.815 124.514C111.063 123.009 110.31 121.505 110.31 120C108.806 120 107.301 120 106.549 118.495C106.197 117.843 106.197 117.843 106.549 118.495C105.044 119.248 103.539 119.248 102.034 118.495C100.53 117.743 99.7774 116.238 99.025 114.734H95.2633C92.2539 113.981 90.7492 110.972 91.5015 107.962C89.2445 107.962 86.9874 106.458 85.4827 104.953C83.978 102.696 83.978 100.439 85.4827 98.1818C82.4733 98.1818 80.9686 95.1724 80.2162 92.163C80.2162 89.1536 80.2162 86.1442 82.4733 84.6395C79.4639 81.6301 78.7115 77.116 81.7209 73.3542C81.7209 74.859 80.2162 76.3637 78.7115 77.116C77.2068 77.8684 75.7021 77.8684 74.1974 77.116C74.1974 80.8778 71.188 83.1348 67.4263 83.8872C68.1786 85.3919 68.931 88.4013 67.4263 89.906C66.6739 92.163 65.1692 93.6677 62.9122 94.4201C65.9216 97.4295 65.1692 102.696 62.9122 105.705C64.4169 105.705 65.9216 106.458 67.4263 108.715L66.6739 107.962Z" fill="#F05656"/>
<path d="M110.31 155.361C110.31 151.599 112.567 147.837 116.329 147.837C116.329 144.075 117.082 141.818 119.339 141.066C119.339 141.066 117.834 139.561 117.834 138.809C117.834 136.552 117.834 134.295 120.843 133.543C120.843 133.543 120.843 132.79 120.091 132.038V130.533C118.586 130.533 117.082 130.533 115.577 129.028C115.577 129.028 115.577 130.533 114.072 131.285C114.072 131.285 112.567 132.038 111.063 131.285C111.063 132.79 110.31 135.047 108.806 135.8C107.301 136.552 105.044 136.552 103.539 135.8C103.539 138.057 101.282 139.561 99.7774 140.314C97.5204 140.314 95.2633 140.314 94.511 138.809C94.511 138.809 93.7586 140.314 93.0063 140.314C91.5016 141.818 89.2445 142.571 86.9875 141.818C84.7304 141.818 83.2257 140.314 82.4734 138.057C80.2163 139.561 77.2069 140.314 74.9499 139.561C72.6928 138.809 70.4358 136.552 70.4358 133.543C66.674 135.047 62.1599 133.543 60.6552 129.781H59.9028C60.6552 130.533 61.4075 132.038 61.4075 132.79C61.4075 135.047 61.4075 136.552 59.9028 138.057C62.9122 140.314 63.6646 144.075 62.1599 147.085C64.4169 147.085 65.9216 148.59 67.4263 150.094C68.931 151.599 68.931 153.856 68.931 156.113C73.4452 156.113 77.2069 158.37 77.9593 162.132C82.4734 159.122 88.4922 159.122 91.5016 163.637C93.7586 160.627 98.2727 159.122 102.034 160.627C103.539 157.618 106.549 154.608 110.31 155.361Z" fill="#F05656"/>
<path d="M130.624 84.6396C130.624 86.1443 130.624 88.4013 129.119 89.906C127.614 91.4107 126.11 92.1631 123.853 92.1631C123.853 95.9248 123.853 98.1819 120.843 98.9342C123.1 101.191 123.1 104.201 120.843 105.705L119.339 106.458C119.339 106.458 120.091 107.962 119.339 108.715C120.843 108.715 123.1 108.715 124.605 110.22C124.605 108.715 126.862 107.962 128.367 108.715C128.367 107.21 129.119 104.953 130.624 104.201C132.128 103.448 134.386 103.448 135.89 104.201C135.89 102.696 135.89 101.944 137.395 101.191C139.652 98.9343 143.414 99.6866 144.918 101.191C146.423 98.1819 150.937 96.6772 153.947 98.1819C155.451 98.1819 156.204 99.6866 156.956 101.191C159.213 99.6866 162.223 98.9342 164.48 99.6866C166.737 100.439 168.994 102.696 168.994 105.705C172.755 104.201 177.27 105.705 178.774 109.467H179.527C177.27 106.458 177.27 103.448 179.527 100.439C176.517 98.1819 175.765 94.4201 177.27 91.4107C175.012 91.4107 172.755 90.6584 172.003 88.4013C170.498 86.8966 170.498 84.6396 170.498 82.3825C165.984 82.3825 162.223 80.1255 161.47 76.3637C156.956 79.3731 150.937 79.3731 147.928 74.859C145.671 77.8684 141.157 79.3731 137.395 77.8684C137.395 81.6302 132.881 83.8872 129.871 83.8872L130.624 84.6396Z" fill="#F05656"/>
<path d="M93.7587 84.6393C96.7681 87.6487 96.7681 91.4105 93.7587 94.4199C95.2634 94.4199 96.7681 96.6769 97.5205 98.1816V103.448H98.2728C100.53 104.2 102.787 106.457 102.035 109.467C103.539 109.467 105.044 109.467 106.549 110.219C108.053 110.972 108.806 113.229 108.053 114.733H111.063C111.815 113.229 113.32 111.724 114.072 110.972V106.457C112.567 105.705 111.815 104.2 111.815 101.943C111.815 99.6863 112.567 98.934 114.072 97.4293C112.567 95.9246 111.815 93.6675 112.567 92.1628C112.567 89.9058 114.825 88.4011 117.082 88.4011C115.577 86.144 115.577 83.8869 117.082 81.6299C118.586 79.3728 120.843 78.6205 123.1 78.6205C123.1 75.6111 123.1 73.354 126.11 71.097C128.367 69.5923 131.376 68.8399 133.633 69.5923C133.633 66.5829 137.395 63.5735 140.404 63.5735V62.0688H136.643C134.386 62.0688 133.633 59.8117 132.881 57.5547C129.872 59.0594 126.11 58.307 123.853 55.2976C122.348 56.8023 120.843 58.307 118.586 58.307C116.329 58.307 114.072 58.307 112.567 56.8023C111.063 60.5641 107.301 63.5735 102.787 62.0688C103.539 67.3352 99.7775 72.6017 94.5111 73.354C96.0158 77.1158 94.5111 80.8775 91.5016 83.8869L93.7587 84.6393Z" fill="#F05656"/>
<path d="M172.756 150.846C173.508 148.589 175.013 147.085 177.27 146.332C174.26 143.323 175.013 138.056 177.27 135.047C175.765 135.047 174.26 133.542 172.756 132.038C170.499 129.028 170.499 126.019 171.251 123.009C167.489 123.009 163.727 119.248 163.727 115.486C159.966 116.238 156.204 113.981 155.451 110.972C153.947 112.476 151.69 112.476 150.185 112.476C148.68 112.476 146.423 110.972 145.671 109.467H144.919C143.414 111.724 140.404 112.476 138.147 110.972C138.147 111.724 137.395 112.476 136.643 113.229C135.138 114.733 132.129 114.733 130.624 113.229C130.624 113.981 129.872 114.733 129.119 115.486C129.119 116.991 130.624 118.495 130.624 120H132.129C133.633 120 133.633 121.505 134.386 122.257C135.89 121.505 137.395 121.505 139.652 122.257C141.157 123.009 142.662 124.514 142.662 126.771H146.423C149.433 127.523 150.937 130.533 150.185 133.542C153.194 133.542 155.451 134.295 156.956 136.552C158.461 138.809 158.461 141.818 156.956 144.075C159.213 144.827 161.47 147.085 161.47 150.094C161.47 153.103 161.47 155.36 159.213 157.617C162.223 160.627 162.975 165.141 159.966 168.903H160.718C160.718 167.398 162.223 166.646 163.727 165.893C165.232 165.141 166.737 165.141 168.241 165.893C168.241 162.132 171.251 159.122 175.013 159.122C173.508 156.865 173.508 154.608 175.013 152.351L172.756 150.846Z" fill="#F05656"/>
<path d="M147.175 155.36C144.166 152.351 144.166 148.589 147.175 145.58C145.671 145.58 144.166 143.323 143.414 141.818C142.661 140.313 143.414 138.056 143.414 136.552H142.661C140.404 135.799 138.9 133.542 138.9 130.533C137.395 130.533 135.89 130.533 134.385 129.78C132.881 129.028 132.128 127.523 132.128 125.266C131.376 125.266 129.871 125.266 129.119 124.514C128.367 126.019 126.862 127.523 125.357 128.276C126.862 129.78 126.862 131.285 125.357 132.79C124.705 133.442 124.705 133.442 125.357 132.79C127.614 134.295 128.367 137.304 126.862 139.561C126.862 139.561 126.11 141.066 125.357 141.066C126.862 142.57 127.614 144.827 126.862 146.332C126.862 148.589 124.605 150.094 123.1 150.094V152.351C123.1 154.608 123.1 156.865 121.596 158.37C120.091 159.875 117.834 160.627 116.329 160.627C116.329 165.141 114.072 168.903 110.31 169.655H106.549C106.549 172.664 102.787 175.674 99.7773 175.674V177.179H104.291C105.796 177.931 106.549 179.436 107.301 180.94C110.31 179.436 114.072 180.188 116.329 183.197C117.834 181.693 119.338 180.188 121.596 180.188C123.853 180.188 126.11 180.188 127.614 181.693C129.119 177.179 133.633 175.674 137.395 176.426C136.643 171.16 140.404 165.893 145.671 165.141C144.166 161.379 145.671 157.617 148.68 154.608L147.175 155.36Z" fill="#F05656"/>
<path d="M108.806 193.73C105.796 193.73 104.292 190.721 103.539 188.464C101.282 189.216 99.0251 188.464 97.5204 188.464C96.0157 186.959 95.2633 185.455 95.2633 183.197H93.0063C90.7492 182.445 89.2445 180.188 89.9969 177.179C88.4922 178.683 86.9875 179.436 84.7304 179.436C79.464 179.436 74.1975 176.426 74.1975 171.16C71.1881 172.665 68.1787 172.665 65.1693 171.16C62.1599 168.903 61.4075 165.893 62.1599 162.884C58.3981 162.884 54.6364 160.627 53.884 156.113C53.884 154.608 53.884 152.351 55.3887 151.599C51.627 151.599 49.3699 147.837 49.3699 144.075C49.3699 142.571 50.8746 141.066 51.627 139.561C50.1223 138.056 49.3699 136.552 49.3699 134.295C49.3699 132.038 50.8746 130.533 53.1317 129.781C51.627 128.276 51.627 125.266 53.1317 123.762C51.627 123.762 50.8746 122.257 50.1223 120.752C47.1129 116.238 47.8652 110.219 51.627 107.21C48.6176 105.705 47.1129 102.696 47.8652 98.9342C47.8652 95.9248 50.8746 92.9154 53.884 92.163C52.3793 89.906 52.3793 86.8966 53.884 84.6395C55.3887 82.3824 58.3981 80.8777 60.6552 80.8777C59.9028 78.6207 60.6552 75.6113 62.1599 73.3542C63.6646 71.8495 66.674 71.0972 69.6834 71.8495C69.6834 69.5925 71.1881 68.0878 73.4451 67.3354C75.7022 66.5831 77.9593 67.3354 79.464 68.0878C80.2163 65.8307 82.4734 65.0784 83.9781 65.0784C83.9781 62.069 85.4828 59.0596 88.4922 57.5549C91.5016 56.0502 94.511 55.2978 97.5204 56.8025V53.7931C99.0251 50.7837 101.282 49.279 103.539 48.5266C106.549 48.5266 108.806 48.5266 111.063 50.7837C111.815 47.7743 114.824 46.2696 117.834 46.2696C120.843 46.2696 123.1 47.7743 124.605 50.0313C126.11 47.7743 129.119 47.0219 131.376 47.7743C134.386 47.7743 135.89 50.7837 136.643 53.0408C138.9 52.2884 141.157 53.0407 142.661 53.7931C144.166 55.2978 144.918 57.5549 144.918 59.0596C147.176 59.0596 150.185 60.5643 150.185 62.8213V64.326C151.69 62.8213 153.194 62.069 155.451 62.069C160.718 62.069 165.232 65.8307 165.984 71.0972C168.994 69.5925 172.755 69.5925 175.013 71.0972C178.022 73.3542 178.774 76.3636 178.022 80.1254C181.784 80.1254 185.545 82.3824 186.298 86.8966C186.298 88.4013 186.298 90.6583 184.793 91.4107C187.802 91.4107 189.307 93.6677 190.06 96.6771C190.06 99.6865 190.06 101.944 187.803 103.448C189.307 104.201 190.06 105.705 190.06 107.21C190.06 110.219 188.555 112.476 186.298 113.981C187.803 115.486 187.803 118.495 186.298 120C189.307 121.505 190.812 124.514 190.812 127.524C190.812 130.533 189.307 133.542 187.05 135.799C187.803 135.799 188.555 136.552 189.307 137.304C190.812 139.561 191.564 142.571 190.812 144.828C190.06 147.837 187.802 149.342 185.545 150.094C187.802 153.103 187.05 157.618 184.041 159.875C182.536 161.379 181.031 162.132 178.774 161.379C179.527 163.636 178.774 166.646 177.27 168.903C175.765 170.408 172.755 171.16 169.746 170.408C169.746 172.665 168.241 174.169 166.737 174.922C164.48 175.674 162.223 174.922 160.718 174.169C159.966 175.674 157.708 177.179 156.204 177.179C156.204 178.683 156.204 179.436 155.451 180.188C153.194 184.702 147.928 187.712 142.661 185.455C142.661 189.969 139.652 193.73 134.386 193.73C132.129 193.73 129.871 193.73 128.367 191.473C126.862 194.483 124.605 195.987 122.348 195.987M209.621 45.5172L140.404 5.64263C128.367 -1.88088 112.567 -1.88088 100.53 5.64263L31.3135 45.5172C19.2759 53.0408 11 65.8307 11 80.1254V159.875C11 174.169 18.5235 187.712 31.3135 194.483L100.53 234.357C112.567 241.881 128.367 241.881 140.404 234.357L209.621 194.483C221.658 186.959 229.934 174.169 229.934 159.875V79.373C229.934 65.0784 222.411 52.2884 209.621 44.7649V45.5172Z" fill="#F05656"/>
</svg>
