<?xml version="1.0" encoding="UTF-8"?>
<svg width="240px" height="240px" viewBox="0 0 240 240" version="1.1" xmlns="http://www.w3.org/2000/svg" xmlns:xlink="http://www.w3.org/1999/xlink">
    <title>codehawks</title>
    <g id="Page-1" stroke="none" stroke-width="1" fill="none" fill-rule="evenodd">
        <g id="codehawks">
            <rect id="box" fill="#FF692E" x="0" y="0" width="240" height="240" rx="32"></rect>
            <g id="shape" transform="translate(45, 52)" fill="#FFFFFF" fill-rule="nonzero">
                <path d="M73.8381605,19.6107767 C74.0610408,18.7964078 74.9389592,18.7964078 75.1618395,19.6107767 L86.9556633,62.7620055 C87.1994714,63.6531352 86.3832898,64.3890827 85.8360296,63.7719871 L74.9583173,51.5011782 C74.6946279,51.203789 74.3053721,51.203789 74.0416827,51.5011782 L63.1639704,63.7719871 C62.6167102,64.3890827 61.8005286,63.6531352 62.0443367,62.7620055 L73.8381605,19.6107767 Z" id="Path"></path>
                <path d="M74.6170679,77.8574794 C74.8497833,78.0475069 75.1503306,78.0475069 75.383046,77.8574794 L86.6775714,68.6203659 C87.3637167,68.0591912 86.8560214,66.729989 86.0775204,67.0486808 L75.2171189,71.4890869 C75.0762373,71.5469859 74.9238765,71.5469859 74.7824732,71.4890869 L63.9225935,67.0486808 C63.1435707,66.729989 62.6363972,68.0591912 63.3225424,68.6203659 L74.6170679,77.8574794 Z" id="Path"></path>
                <path d="M148.994631,0.908219729 L145.657765,31.5327286 C145.637447,31.7191508 145.556695,31.8924285 145.429055,32.0231952 L131.873719,45.9264079 C131.377748,46.4349743 131.718468,47.3232702 132.410327,47.3232702 L141.410749,47.3232702 C142.021336,47.3232702 142.389147,48.0383927 142.056241,48.5792986 L132.492641,64.1299533 C132.364481,64.3385959 132.153484,64.473692 131.919565,64.4966427 L115.12218,66.1809101 C114.431884,66.2502838 114.172958,67.1714408 114.715817,67.6273249 L121.880312,73.6414479 C122.016287,73.7556797 122.185084,73.8177509 122.359612,73.8177509 L130.25556,73.8177509 C130.964612,73.8177509 131.296996,74.7446457 130.765077,75.2406935 L117.589534,87.536002 C117.493153,87.6257183 117.376454,87.6888327 117.250898,87.7190859 L97.0280805,92.5961067 C96.3357002,92.7630207 96.2080605,93.746249 96.8321926,94.1035495 L101.832022,96.9671692 C101.980501,97.052191 102.151903,97.0834874 102.319137,97.0553207 L107.687298,96.1592007 C108.418752,96.0371448 108.87565,96.9692556 108.35936,97.5299826 L95.5557956,111.423493 C95.2666526,111.737501 94.7941252,111.753149 94.486748,111.458963 L89.763037,106.939242 C89.2681076,106.465624 88.4756995,106.836486 88.4756995,107.542219 L88.4756995,117.699463 C88.4756995,117.875766 88.4215177,118.047374 88.3214899,118.188208 C88.317843,118.192903 88.318885,118.191338 88.3157591,118.196032 C88.2110425,118.343125 76.8313118,134.316803 75.8810473,135.297945 C75.813841,135.36784 75.7487187,135.434084 75.6867223,135.498242 C75.0287266,136.174765 73.9565531,136.163812 73.3001204,135.485723 C73.2422918,135.425738 73.1818583,135.363146 73.1188199,135.297945 C72.1706393,134.316803 60.7877828,118.34156 60.6841081,118.196032 C60.6809822,118.191338 60.6815032,118.192903 60.6783773,118.188208 C60.5783495,118.047374 60.5241677,117.875766 60.5241677,117.699463 L60.5241677,107.542219 C60.5241677,106.836486 59.7317596,106.465624 59.2368301,106.939242 L54.5131192,111.458963 C54.205742,111.753149 53.7332146,111.737501 53.4440716,111.423493 L40.6405591,97.5299826 C40.1240091,96.9692556 40.5812197,96.0371448 41.3127775,96.1592007 L46.6807303,97.0553207 C46.8479644,97.0834874 47.0193663,97.052191 47.1678451,96.9671692 L52.1676746,94.1035495 C52.7918067,93.746249 52.664167,92.7630207 51.9717867,92.5961067 L31.7488128,87.7190859 C31.623257,87.6888327 31.5068705,87.6257183 31.4103332,87.536002 L18.2344775,75.2406935 C17.7029754,74.7446457 18.0351512,73.8177509 18.7444632,73.8177509 L26.6404636,73.8177509 C26.8144703,73.8177509 26.9834236,73.7556797 27.1196595,73.6414479 L34.2842062,67.6273249 C34.8269094,67.1714408 34.567931,66.2502838 33.877791,66.1809101 L17.0802499,64.4966427 C16.8462264,64.473692 16.6351781,64.3385959 16.5071737,64.1299533 L6.94336527,48.5792986 C6.61061639,48.0383927 6.97832292,47.3232702 7.58927426,47.3232702 L16.5895925,47.3232702 C17.2811913,47.3232702 17.6222758,46.4349743 17.1262002,45.9264079 L3.57075967,32.0231952 C3.44327626,31.8924285 3.36257671,31.7191508 3.34225855,31.5327286 L0.00539206088,0.908219729 C-0.0692641402,0.223037426 0.646820636,-0.243122307 1.19296227,0.135198891 L24.378115,16.1960891 L60.0026683,38.3709377 C60.2850386,38.5467191 60.4309126,38.8925442 60.3663113,39.2321101 L55.2831252,65.9336686 C55.2315484,66.2064688 55.3149049,66.4881363 55.505062,66.6806091 L74.2628884,85.6994255 C74.4144931,85.8527778 74.4999336,86.0650716 74.4999336,86.2862328 C74.4999336,86.0650716 74.585374,85.8527778 74.7364578,85.6994255 L93.4948051,66.6806091 C93.6849622,66.4881363 93.7683188,66.2064688 93.7167419,65.9336686 L88.6335559,39.2321101 C88.5689546,38.8925442 88.7148285,38.5467191 88.9971988,38.3709377 L124.6217,16.1960891 L147.806801,0.135198891 C148.352786,-0.243122307 149.069131,0.223037426 148.994631,0.908219729 Z" id="Path"></path>
            </g>
        </g>
    </g>
</svg>