<?xml version="1.0" encoding="UTF-8"?>
<svg width="240px" height="240px" viewBox="0 0 240 240" version="1.1" xmlns="http://www.w3.org/2000/svg" xmlns:xlink="http://www.w3.org/1999/xlink">
    <title>codecov</title>
    <g id="Page-1" stroke="none" stroke-width="1" fill="none" fill-rule="evenodd">
        <g id="codecov">
            <rect id="ViewBox" x="0" y="0" width="240" height="240"></rect>
            <path d="M120.267187,5 C53.9859375,5 0,58.415 0,123.580625 L0,124.115 L20.311875,135.865625 L20.84625,135.865625 C33.675,127.319375 49.175625,124.115 64.6771875,126.785938 C75.3675,128.9225 85.5234375,133.729063 93.5409375,141.2075 L97.2825,144.412813 L99.4209375,140.13875 C101.558438,135.865625 103.696875,132.126875 105.835313,128.388125 C106.904063,126.785 107.972813,125.717188 109.041563,124.115 L111.18,121.444063 L108.508125,119.3075 C97.2825,110.226875 83.919375,103.817188 69.4875,101.14625 C55.59,98.4753125 41.6925,99.0096875 28.86375,103.28375 C38.4853125,61.085 75.901875,31.173125 120.267188,31.173125 C145.389375,31.173125 168.908438,40.788125 186.548438,58.415 C199.37625,70.7 207.929063,86.1903125 211.670625,103.28375 C203.652188,100.611875 195.100313,99.5440625 186.5475,99.5440625 L184.944375,99.5440625 C181.737188,99.5440625 178.53,100.078438 174.788438,100.078438 L174.254063,100.078438 C173.185313,100.078438 171.58125,100.612813 170.5125,100.612813 C168.375,101.147188 166.770937,101.147188 164.6325,101.680625 L163.029375,102.215 L158.218125,103.817188 L157.68375,103.817188 C153.942187,104.885938 150.735,106.488125 146.993437,108.090313 C145.390312,108.624688 143.78625,109.693438 142.182187,110.76125 L141.647813,110.76125 C133.630313,115.56875 126.147188,121.444063 120.267187,128.9225 L119.732813,129.99125 C118.129688,132.126875 117.060938,133.729063 115.99125,134.797813 C114.9225,135.866563 114.388125,137.46875 113.319375,139.070938 L112.784063,140.139688 C111.715313,141.741875 111.180938,143.344063 110.646563,144.412812 L110.646563,144.947187 C109.0425,148.151563 107.438438,151.890312 106.369688,155.629063 L106.369688,156.163437 C103.697813,164.709687 102.09375,173.790312 102.09375,183.405312 L102.09375,193.554687 C102.09375,194.6225 102.628125,196.224687 102.628125,197.2925 C105.3,210.112812 111.18,222.397812 120.267187,233.615 L120.801562,234.149375 L121.335937,233.615 C125.0775,229.341875 133.630313,215.988125 134.699062,207.97625 C130.423125,199.963437 128.284687,190.882812 128.284687,182.336562 C128.284687,152.424687 151.80375,127.319375 182.271562,125.717187 L184.409062,125.717187 C196.703437,125.182812 208.997812,128.9225 219.152812,135.865625 L219.688125,135.865625 L240,124.115 L240,123.580625 C240,92.065625 227.705625,62.15375 204.721875,39.719375 C182.271563,17.285 152.338125,5 120.267187,5" id="Path" fill="#FF0077" fill-rule="nonzero"></path>
        </g>
    </g>
</svg>