<?xml version="1.0" encoding="UTF-8"?>
<svg width="240px" height="240px" viewBox="0 0 240 240" version="1.1" xmlns="http://www.w3.org/2000/svg" xmlns:xlink="http://www.w3.org/1999/xlink">
    <title>codepen</title>
    <g id="Page-1" stroke="none" stroke-width="1" fill="none" fill-rule="evenodd">
        <g id="codepen" fill="#FFFFFF" fill-rule="nonzero">
            <path d="M120.046892,240 C117.655387,240 115.451451,239.249524 113.622652,238.03 L5.30152822,166.124982 C4.08232942,165.374505 2.95691514,164.3426 2.06596217,163.076171 L2.01906991,163.029267 L1.97217765,162.982362 C1.92528538,162.935457 1.92528538,162.888552 1.87839312,162.841648 L1.87839312,162.794743 C1.87839312,162.794743 1.92528538,162.888552 1.87839312,162.747838 L1.87839312,162.700933 C0.612302061,160.730933 0.00270266071,158.526408 0.00270266071,156.321884 L0.00270266071,83.5256755 C-0.0441896008,81.4149607 0.518517538,79.2573411 1.73771634,77.3342454 L1.73771634,77.2873406 C1.83150086,77.0997215 1.97217765,76.9590072 2.06596217,76.7713881 C2.95691514,75.551864 4.03543716,74.519959 5.25463596,73.7694826 L113.57576,1.86446475 C117.233357,-0.621488249 122.766643,-0.621488249 126.42424,1.86446475 L234.745364,73.7694826 C235.964563,74.519959 237.043085,75.551864 237.934038,76.8182929 C238.074715,77.005912 238.168499,77.1466263 238.262284,77.3342454 L238.262284,77.3811501 C239.481482,79.3042459 240.04419,81.4618654 239.997297,83.5725803 L239.997297,156.415694 C240.04419,158.620218 239.43459,160.824742 238.121607,162.794743 C238.121607,162.841648 238.121607,162.841648 238.074715,162.841648 C238.074715,162.841648 238.168499,162.794743 238.027822,162.888552 C237.98093,162.935457 237.98093,162.982362 237.934038,163.029267 L237.887146,163.076171 L237.887146,163.169981 C236.996193,164.43641 235.917671,165.468315 234.698472,166.218791 L126.377348,238.123809 C124.642334,239.249524 122.438398,240 120.046892,240 M131.39482,161.575219 L131.39482,207.448087 L208.251236,156.415694 L173.972993,133.338545 L131.39482,161.575219 Z M31.795656,156.415694 L108.652073,207.448087 L108.652073,161.575219 L66.1207915,133.338545 L31.795656,156.415694 Z M86.5189252,119.595446 L120.046892,141.828309 L153.574859,119.595446 L120.046892,97.0342503 L86.5189252,119.595446 Z M194.464911,119.736161 L217.348335,135.120926 L217.348335,104.539014 L194.464911,119.736161 Z M22.7454495,104.539014 L22.7454495,135.120926 L45.6288732,119.736161 L22.7454495,104.539014 Z M131.39482,77.2873406 L174.066778,105.993062 L208.204344,83.3380564 L131.39482,32.3994723 L131.39482,77.2873406 Z M31.8894405,83.3380564 L66.0270069,105.993062 L108.698965,77.2873406 L108.698965,32.3994723 L31.8894405,83.3380564 Z" id="Shape"></path>
        </g>
    </g>
</svg>