<?xml version="1.0" encoding="UTF-8"?>
<svg width="240px" height="240px" viewBox="0 0 240 240" version="1.1" xmlns="http://www.w3.org/2000/svg" xmlns:xlink="http://www.w3.org/1999/xlink">
    <title>coderabbit</title>
    <g id="Page-1" stroke="none" stroke-width="1" fill="none" fill-rule="evenodd">
        <g id="coderabbit">
            <rect id="box" x="0" y="0" width="240" height="240"></rect>
            <polygon id="Polygon" fill="#FFFFFF" points="103.308104 45 208 111.394062 178.176718 201 60.7400532 201 29 119.203589"></polygon>
            <path d="M214,131.900629 C214,159.18213 202.341062,183.845351 183.643875,201 L161.084022,201 C161.566947,198.795829 160.39415,197.280369 158.876344,196.246568 C155.702669,194.042396 153.701937,190.390315 154.185009,186.601667 C155.426838,176.611676 161.497916,163.866838 183.643875,152.155068 C198.614844,144.163515 201.374625,127.698166 202.410094,125.286941 C203.927312,121.291238 203.513125,117.915376 200.339156,114.67755 C194.613969,108.821591 188.404094,103.516895 180.884094,100.072309 C170.328775,95.1119694 159.566216,95.3876009 148.872687,99.3833036 C147.009872,100.072309 147.423913,98.6255739 147.28585,98.0054396 C145.837075,90.9785243 143.42245,84.2269468 139.972797,77.8888901 C133.004753,65.3503721 123.277075,56.1186982 108.789031,53.0186144 C106.650238,52.5363694 104.442559,52.398627 102.234881,52.1229955 C101.2,51.9852532 100.648044,52.2607378 100.924022,53.5008595 C102.855722,62.7323865 105.546472,71.6195577 111.410603,79.197736 C114.101206,82.7113405 117.757806,85.0536946 121.345375,87.4649198 C125.139744,90.0827586 129.141353,92.4941306 132.728775,95.4564721 C136.109397,98.3499423 138.869031,101.725658 140.179744,106.548108 C139.696819,106.065863 139.489872,105.928121 139.351956,105.721507 C128.313419,88.2226495 106.719269,80.5067288 84.9872031,86.8449324 C82.9864719,87.3960486 83.26245,88.0849072 84.2283,89.5316423 C90.5064719,99.1766901 99.1302375,106.065863 109.340841,111.370705 C116.929872,115.297537 124.794881,118.53551 133.349762,119.637742 C137.213163,120.119987 135.350494,122.737973 135.971334,125.838057 C136.799269,130.660654 138.8,132.17626 138.110128,131.762886 C125.001828,126.527062 114.101206,124.460193 105.0634,124.460193 C67.7393781,124.460193 61.6683,160.008877 61.9441312,160.422251 C61.3923219,160.215491 52.4235469,156.908647 50.4228156,165.864689 C48.3530531,174.95818 60.5643875,180.88345 60.5643875,180.88345 C62.151225,170.136023 71.8098719,167.793816 72.9826688,167.518185 C72.0168187,168.069301 65.7386469,171.720648 63.8069469,181.710198 C62.151225,190.528351 69.1192688,198.312703 71.7408406,201 L56.2869469,201 C37.6594516,183.845351 26,159.18213 26,131.900629 C26,80.0244838 68.0153562,38 119.965484,38 C171.915613,38 214,80.0244838 214,131.900629 Z M145.699012,201 L135.764387,201 C136.247312,200.518342 136.592322,199.828162 136.730237,199.070432 C137.558172,194.247982 133.418794,193.284667 133.418794,193.284667 L110.513784,193.284667 C110.513784,193.284667 119.620475,192.870559 127.968409,189.425532 C136.247312,185.912955 142.939525,179.780631 144.112322,178.127135 C140.248775,187.22136 142.111591,194.869144 143.698281,198.726811 C144.043291,199.691595 144.802194,200.518342 145.699012,201 Z" id="Shape" fill="#FF4702"></path>
        </g>
    </g>
</svg>