<?xml version="1.0" encoding="UTF-8"?>
<svg width="240px" height="240px" viewBox="0 0 240 240" version="1.1" xmlns="http://www.w3.org/2000/svg" xmlns:xlink="http://www.w3.org/1999/xlink">
    <title>code4rena</title>
    <g id="Page-1" stroke="none" stroke-width="1" fill="none" fill-rule="evenodd">
        <g id="code4rena">
            <rect id="box" x="0" y="0" width="240" height="240"></rect>
            <g id="shape" transform="translate(0, 2)" fill-rule="nonzero">
                <path d="M239.884862,140.3455 L226.23064,75.9817767 C226.110092,75.4099811 225.938957,74.8499076 225.718311,74.308116 C223.778779,67.6136883 221.183766,66.1640355 217.683567,63.3472139 C214.44599,60.9192605 213.053229,60 213.053229,60 C213.053229,60 204.196175,80.2483586 201.779832,82.1694712 C178.09106,101.027002 138.402761,130.409786 128.700794,135.712633 L128.523201,135.807269 C125.334058,137.733329 121.725151,138.872188 118,139.131362 L118,236 C126.283375,235.785993 134.374087,233.472786 141.498263,229.281913 C152.211973,223.388666 180.709752,200.736228 214.11233,173.88754 L227.206864,163.374331 C235.908928,156.432559 240.08721,149.538105 239.991418,142.266182 C240.018326,141.624163 239.981731,140.981067 239.884862,140.3455 Z" id="Path" fill="#4D26BC"></path>
                <path d="M110.455522,137.004211 L35.0603203,81.565954 C34.4313951,81.0450253 33.8714065,80.4464519 33.3936901,79.7844294 C33.327012,77.9650504 32.7765949,76.1962157 31.7989002,74.659562 C30.8212054,73.1229083 29.4516155,71.8739269 27.8305845,71.0408066 L28.3118499,60 C28.3118499,60 26.7391068,61.0314259 23.1477375,63.199668 C18.6292198,65.9072284 15.2373472,67.8879189 12.9136149,78.542008 L11.16482,87.2621868 L0.202962817,142.044659 C0.0503890964,142.815728 -0.0165219609,143.601853 0.00344292909,144.387978 C0.261644935,154.292506 8.77059178,161.231053 10.7188402,162.683932 L96.7002576,228.74208 C103.127705,233.55239 110.968514,236.103263 119,235.996798 L119,139.594874 C115.932807,139.781996 112.900028,138.86252 110.455522,137.004211 Z" id="Path" fill="#2C0E83"></path>
                <path d="M220.492236,64.7320436 C220.343367,64.6254134 220.200924,64.5104982 220.063836,64.3878358 C217.375624,62.1203039 164.297889,25.7461821 132.899354,4.27069423 C128.743871,1.4084866 123.793705,-0.0836705715 118.745006,0.0036228446 C113.696308,0.0909162607 108.801834,1.75328617 104.748202,4.75742705 L100.905022,7.65406622 C94.2421114,12.651976 81.8681951,21.8998566 66.9479741,32.5010042 C49.83852,44.6693247 34.0973768,55.2586365 20.09329,63.6517541 C14.1443082,67.2132663 8.64736381,76.8409697 23.6627219,88.5818012 C25.2452328,89.7690436 104.236585,148.236377 104.236585,148.236377 C113.30325,154.895651 124.03468,154.302783 134.683642,148.140614 C145.046647,142.430359 181.74021,115.019627 204.882398,96.7257206 L210.760051,92.0601397 C211.307332,91.6209224 211.80749,91.1935409 212.283014,90.7661594 C222.170495,82.6105118 230.463255,71.6056544 220.492236,64.7320436 Z" id="Path" fill="#7547F5"></path>
            </g>
        </g>
    </g>
</svg>