<?xml version="1.0" encoding="UTF-8"?>
<svg width="236px" height="240px" viewBox="0 0 236 240" version="1.1" xmlns="http://www.w3.org/2000/svg" xmlns:xlink="http://www.w3.org/1999/xlink">
    <title>coinmarketcap</title>
    <g id="Page-1" stroke="none" stroke-width="1" fill="none" fill-rule="evenodd">
        <g id="coinmarketcap" fill="#FFFFFF" fill-rule="nonzero">
            <path d="M235.918652,120.049838 L235.918652,119.584432 C235.686399,53.7377814 182.749446,0 117.959326,0 C53.169206,0 0,53.7377814 0,120.049838 C0,186.370206 52.9286589,239.999973 117.959326,239.999973 C147.79978,240.020282 176.499143,228.512308 198.086398,207.870305 C202.513984,203.817387 202.824076,196.935615 198.779007,192.499438 C194.733939,188.06326 187.865495,187.752566 183.437908,191.805484 L183.205656,192.038187 C164.384741,209.965051 139.082709,219.428907 113.141257,218.244753 C87.1998049,217.060599 62.86146,205.3308 45.7454245,185.763515 L96.1358967,104.799478 L96.1358967,142.264668 C96.1358967,160.166181 103.103468,165.992068 108.959546,167.620989 C114.815624,169.24991 123.599741,168.069773 133.113794,152.952386 L160.760122,107.974212 C161.498353,106.661102 162.35271,105.414479 163.298309,104.242653 L163.298309,127.055862 C163.298309,143.80217 170.033628,157.298947 181.637952,163.806321 C192.551847,169.760399 205.847731,169.227276 216.251852,162.418414 C229.656132,153.70036 236.855956,138.433379 235.918652,120.049838 Z M205.261337,143.611021 C201.470606,146.227393 196.562588,146.580464 192.437688,144.533523 C187.79264,141.749397 184.997317,135.474726 184.997317,126.864713 L184.997317,100.494472 C184.997317,87.9451289 180.120017,78.8613993 171.767226,76.5509905 C157.591536,72.2626059 146.924516,89.8067532 142.967931,96.3224384 L117.959326,136.563443 L117.959326,87.0143167 C117.727074,75.6201784 114.002741,68.8717901 107.035169,66.7691519 C102.390122,65.3812444 95.4225501,66.0876644 88.6955258,76.3265983 L32.7309964,166.125041 C25.2858508,151.910789 21.3841353,136.102558 21.3589244,120.049838 C21.3589244,65.8383397 64.7735304,21.8657753 117.959326,21.8657753 C171.145121,21.8657753 214.559727,65.8383397 214.559727,120.049838 L214.559727,120.523555 C215.115474,130.97857 211.764404,139.372502 205.269632,143.544535 L205.269632,143.611021 L205.261337,143.611021 Z" id="Shape"></path>
        </g>
    </g>
</svg>