<?xml version="1.0" encoding="UTF-8"?>
<svg width="240px" height="240px" viewBox="0 0 240 240" version="1.1" xmlns="http://www.w3.org/2000/svg" xmlns:xlink="http://www.w3.org/1999/xlink">
    <title>confluence</title>
    <defs>
        <linearGradient x1="99.14%" y1="112.708%" x2="33.859%" y2="37.755%" id="linearGradient-1">
            <stop stop-color="#0052CC" offset="18%"></stop>
            <stop stop-color="#2684FF" offset="100%"></stop>
        </linearGradient>
        <linearGradient x1="0.926%" y1="-12.582%" x2="66.18%" y2="62.306%" id="linearGradient-2">
            <stop stop-color="#0052CC" offset="18%"></stop>
            <stop stop-color="#2684FF" offset="100%"></stop>
        </linearGradient>
    </defs>
    <g id="Page-1" stroke="none" stroke-width="1" fill="none" fill-rule="evenodd">
        <g id="confluence">
            <rect id="ViewBox" x="0" y="0" width="240" height="240"></rect>
            <g id="shape" transform="translate(0, 5)" fill-rule="nonzero">
                <path d="M8.68108763,175.621782 C6.20608763,179.659595 3.42452513,184.34522 1.06296263,188.078345 C-1.0507705,191.650618 0.0838736664,196.257556 3.61483763,198.439595 L53.1364001,228.914907 C54.8747786,229.988266 56.9714046,230.318492 58.9555526,229.831445 C60.9397006,229.344398 62.6451138,228.080889 63.6889001,226.324595 C65.6698376,223.009595 68.2217126,218.705532 71.0023376,214.095845 C90.6204626,181.71647 110.352963,185.678345 145.932025,202.66772 L195.034525,226.01897 C196.894162,226.903951 199.032853,226.998407 200.963268,226.280816 C202.893683,225.563224 204.451375,224.094714 205.2814,222.209907 L228.8614,168.879282 C230.527268,165.070368 228.832312,160.629189 225.052338,158.898657 C214.691088,154.02272 194.082963,144.309282 175.530775,135.357095 C108.791088,102.939282 52.0704626,105.034595 8.68202513,175.621782" id="Path" fill="url(#linearGradient-1)"></path>
                <path d="M230.73265,54.5924075 C233.208588,50.554595 235.989213,45.86897 238.351713,42.135845 C240.465277,38.5633305 239.330199,33.9563238 235.7989,31.774595 L186.277338,1.29928247 C184.524817,0.119183795 182.360957,-0.280205796 180.302632,0.196514897 C178.244308,0.673235591 176.476358,1.98325697 175.421088,3.81365747 C173.44015,7.12771997 170.888275,11.43272 168.106713,16.04147 C148.488588,48.420845 128.756088,44.4599075 93.1770251,27.469595 L44.2273376,4.23271997 C42.3677012,3.34773889 40.2290094,3.25328248 38.2985945,3.97087403 C36.3681797,4.68846557 34.810488,6.15697559 33.9804626,8.04178247 L10.3995251,61.373345 C8.73427446,65.1820076 10.4291335,69.6225132 14.2085876,71.3530325 C24.5698376,76.2299075 45.1789001,85.943345 63.7301501,94.8955325 C130.621713,127.274907 187.343275,125.103657 230.731713,54.5924075" id="Path" fill="url(#linearGradient-2)"></path>
            </g>
        </g>
    </g>
</svg>