<?xml version="1.0" encoding="UTF-8"?>
<svg width="240px" height="241px" viewBox="0 0 240 241" version="1.1" xmlns="http://www.w3.org/2000/svg" xmlns:xlink="http://www.w3.org/1999/xlink">
    <title>consensus</title>
    <g id="Page-1" stroke="none" stroke-width="1" fill="none" fill-rule="evenodd">
        <g id="consensus" transform="translate(-30, 130.9809)">
            <rect id="box" x="30" y="-130" width="240" height="240"></rect>
            <g id="shape" transform="translate(39, -130)" fill-rule="nonzero">
                <path d="M10,72.0361226 C20.2836953,68.3187448 32.0669809,68.451211 42.0845228,72.3586037 L48.0986106,74.7044161 C56.9654423,78.1630246 63.2832354,84.1077555 67.6525,91 C69.2997303,88.0297156 71.2050901,85.1890959 73.356383,82.5125583 C81.8231421,71.9772131 93.6030576,64.5968847 106.793578,61.564009 C119.984099,58.5311333 133.814125,60.0227588 146.049799,65.797885 C149.12296,67.2485299 152.050888,68.9480993 154.807105,70.8718607 C168.424498,80.3738895 186.294568,87.4214116 201.182949,80.0569311 C216.070529,72.6926907 222.395784,54.336477 211.558679,41.7691563 C200.641335,29.1080288 187.121834,18.7726235 171.788927,11.5356468 C147.317579,-0.0146227154 119.656723,-2.9978565 93.2764841,3.06793495 C66.8956037,9.1337264 43.3353715,23.8942231 26.4020138,44.9648334 C19.7167252,53.2835508 14.2184952,62.3939438 10,72.0361226 Z" id="Path" fill="#068EF1"></path>
                <path d="M217.765276,188.919003 C227.442238,175.447381 219.544459,157.705969 204.093364,151.666442 L198.089322,149.319338 C185.953868,144.575482 172.511864,151.077864 163.483771,160.470282 C158.016448,166.157464 151.482897,170.713135 144.255617,173.875438 C137.028337,177.038543 129.247515,178.74742 121.35935,178.905175 C113.471184,179.062129 105.629481,177.664757 98.2812387,174.793139 C90.9329964,171.92072 84.2232092,167.629308 78.5336686,162.164745 C72.8444485,156.700182 68.2877051,150.168972 65.123547,142.944281 C61.9593889,135.71879 60.2498191,127.941557 60.0924083,120.056218 C59.8324601,107.033037 54.3684215,93.1410025 42.2328871,88.3971467 L36.2287652,86.0500432 C20.7772693,80.0105158 2.93541983,87.6908535 0.904067026,104.151008 C0.205515381,109.811764 -0.0904161916,115.526973 0.0239179884,121.254194 C0.338735417,137.025673 3.75790548,152.580138 10.0862297,167.03032 C10.9838319,169.079532 11.9375093,171.101516 12.9456596,173.093071 L0.816333515,219.954262 C-2.27306044,231.890777 8.72160188,242.693379 20.606801,239.400547 L66.9525568,226.557543 C70.0358065,228.079837 73.1881088,229.471603 76.4012925,230.727235 C91.0972163,236.472073 106.781424,239.266816 122.558556,238.952107 C138.334887,238.637398 153.894928,235.219644 168.35029,228.893435 C182.805651,222.567226 195.872753,213.457486 206.805797,202.083123 C210.776716,197.951868 214.437619,193.551549 217.765276,188.919003 Z" id="Path" fill="#3BCDAA"></path>
            </g>
        </g>
    </g>
</svg>