<?xml version="1.0" encoding="UTF-8"?>
<svg width="240px" height="223px" viewBox="0 0 240 223" version="1.1" xmlns="http://www.w3.org/2000/svg" xmlns:xlink="http://www.w3.org/1999/xlink">
    <title>continue</title>
    <g id="Page-1" stroke="none" stroke-width="1" fill="none" fill-rule="evenodd">
        <g id="continue" fill="#FFFFFF" fill-rule="nonzero">
            <path d="M193.36884,30.7635513 L180.394441,53.2502161 L213.18932,109.992938 C213.428575,110.423124 213.572693,110.950266 213.572693,111.428459 C213.572693,111.906653 213.428575,112.432854 213.18932,112.863981 L180.394441,169.654145 L193.36884,192.140528 L240,111.428459 L193.36884,30.715732 L193.36884,30.7635513 Z M175.368204,50.3317307 L188.342602,27.8450659 L162.393805,27.8450659 L149.419406,50.3317307 L175.416243,50.3317307 L175.368204,50.3317307 Z M149.371367,56.1686074 L179.676676,108.557417 L205.625473,108.557417 L175.368204,56.1686074 L149.371367,56.1686074 Z M175.368204,166.783103 L205.625473,114.346568 L179.676676,114.346568 L149.371367,166.783103 L175.368204,166.783103 Z M149.371367,172.620262 L162.345766,195.01157 L188.294563,195.01157 L175.320164,172.620262 L149.323328,172.620262 L149.371367,172.620262 Z M61.4242732,200.561625 C60.8976298,200.561625 60.4188374,200.417602 59.9879902,200.178506 C59.5571429,199.939409 59.1740525,199.55629 58.9347033,199.126104 L26.0921618,142.334998 L0.143630191,142.334998 L46.7743366,223 L139.987676,223 L127.013278,200.561625 L61.4721242,200.561625 L61.4242732,200.561625 Z M132.040457,197.642575 L145.014855,220.081891 L157.989254,197.594567 L145.014855,175.108185 L132.040457,197.594567 L132.040457,197.642575 Z M139.987676,172.238084 L79.4733252,172.238084 L66.4990208,194.724466 L127.013278,194.724466 L139.987676,172.238084 Z M74.3984835,169.367041 L44.0933628,116.930507 L31.1190584,139.416889 L61.4242732,191.853423 L74.3984835,169.367041 Z M0.0957528327,136.49878 L26.0443108,136.49878 L39.0185211,114.011456 L13.1178574,114.011456 L0.0957528327,136.49878 Z M58.7910562,23.9219038 C59.0304995,23.4913415 59.4134958,23.1085986 59.844343,22.8693136 C60.2752844,22.6301228 60.8018337,22.4865707 61.2806261,22.4865707 L126.918141,22.4865707 L139.892539,0 L46.6306895,0 L0,80.712539 L25.9485147,80.712539 L58.6953542,23.9697231 L58.7910562,23.9219038 Z M39.0185211,108.988544 L26.0443108,86.5015965 L0.0957528327,86.5015965 L13.0700064,108.988544 L39.0185211,108.988544 Z M61.3284771,31.1942077 L31.0712074,83.583111 L44.0454176,106.069493 L74.3027815,53.6807784 L61.3284771,31.1942077 Z M126.96618,28.2757222 L66.3553736,28.2757222 L79.329678,50.762293 L139.939637,50.762293 L126.96618,28.2757222 Z M145.014855,47.8438075 L157.941215,25.4050561 L145.014855,2.91846661 L132.040457,25.3572368 L145.014855,47.8438075 Z" id="Shape"></path>
        </g>
    </g>
</svg>