<?xml version="1.0" encoding="UTF-8"?>
<svg width="240px" height="240px" viewBox="0 0 240 240" version="1.1" xmlns="http://www.w3.org/2000/svg" xmlns:xlink="http://www.w3.org/1999/xlink">
    <title>contabo</title>
    <g id="Page-1" stroke="none" stroke-width="1" fill="none" fill-rule="evenodd">
        <g id="contabo">
            <rect id="box" x="0" y="0" width="240" height="240" rx="32"></rect>
            <g id="Group" transform="translate(1, 19)" fill-rule="nonzero">
                <path d="M218.769094,84.3006873 C205.678508,71.1649485 188.065719,64 169.738899,64 L169.738899,64 C151.412078,64 133.79929,71.4037801 120.708703,84.3006873 L105,100.063574 L119.756661,114.871134 L135.465364,99.1082474 C154.506217,80.2405498 185.209591,80.2405498 204.012433,99.1082474 C213.056838,108.183849 218.293073,120.603093 218.293073,133.261168 L218.293073,133.261168 C218.293073,160.010309 196.634103,181.982818 169.976909,181.982818 C169.976909,181.982818 169.976909,181.982818 169.976909,181.982818 L169.976909,181.982818 C159.980462,181.982818 149.984014,178.878007 141.891652,172.907216 L140.939609,173.38488 L126.65897,187.953608 C138.797513,197.745704 154.030195,203 169.500888,203 L169.500888,203 C207.820604,203 239,171.95189 239,133.5 C239,133.5 239,133.5 239,133.5 L239,133.5 L239,133.5 C239,115.109966 231.85968,97.1975945 218.769094,84.3006873 Z" id="Path" fill="#00AAEB"></path>
                <path d="M103.772647,167.951973 C94.7282416,177.012007 82.3516874,182.25729 69.4991119,182.25729 L69.4991119,182.25729 C42.8419183,182.25729 20.9449378,160.560892 20.9449378,133.857633 C20.9449378,133.857633 20.9449378,133.619211 20.9449378,133.619211 L20.9449378,133.619211 C20.9449378,106.915952 42.6039076,84.9811321 69.2611012,84.9811321 C69.2611012,84.9811321 69.2611012,84.9811321 69.2611012,84.9811321 L69.2611012,84.9811321 C79.2575488,84.9811321 89.0159858,88.0806175 97.1083481,94.0411664 L97.5843694,93.5643225 L112.10302,79.0205832 C99.964476,69.245283 84.731794,64 69.2611012,64 L69.2611012,64 C31.1793961,64 0,95.2332762 0,133.380789 L0,133.380789 L0,133.380789 L0,133.380789 C0,171.766724 30.9413854,203 69.2611012,203 C69.2611012,203 69.2611012,203 69.4991119,203 L69.4991119,203 C87.8259325,203 105.438721,195.608919 118.529307,182.734134 L134,166.998285 L119.243339,152.216123 L103.772647,167.951973 Z" id="Path" fill="#FFB400"></path>
                <path d="M69.3780488,55.6033058 L69.3780488,55.6033058 L72.7195122,55.6033058 C78.9250871,34.9917355 98.0191638,20.8512397 119.5,21.0909091 L119.5,21.0909091 C140.980836,21.0909091 159.836237,35.231405 166.041812,55.8429752 C167.235192,55.8429752 168.189895,55.8429752 169.383275,55.8429752 L169.383275,55.8429752 C175.58885,55.8429752 182.033101,56.5619835 188,58 C182.510453,24.446281 153.391986,0 119.5,0 L119.5,0 C85.6080139,0 56.728223,24.446281 51,57.7603306 C56.966899,56.322314 63.1724739,55.6033058 69.3780488,55.6033058 Z" id="Path" fill="#00AAEB"></path>
            </g>
        </g>
    </g>
</svg>