<?xml version="1.0" encoding="UTF-8"?>
<svg width="240px" height="240px" viewBox="0 0 240 240" version="1.1" xmlns="http://www.w3.org/2000/svg" xmlns:xlink="http://www.w3.org/1999/xlink">
    <title>convertx</title>
    <g id="Page-1" stroke="none" stroke-width="1" fill="none" fill-rule="evenodd">
        <g id="convertx">
            <rect id="box" fill="#13171F" x="0" y="0" width="240" height="240" rx="32"></rect>
            <g id="CX" transform="translate(45, 72)" fill="#FFFFFF" fill-rule="nonzero">
                <path d="M40.8,0 C47.0222222,0 52.2666667,0.811111111 56.5333333,2.43333333 C60.8,4.05555556 64.8,6.37777778 68.5333333,9.4 L60.4666667,19 C55,14.4666667 48.6888889,12.2 41.5333333,12.2 C36.9555556,12.2 32.7333333,13.3555556 28.8666667,15.6666667 C25,17.9777778 21.9,21.7333333 19.5666667,26.9333333 C17.2333333,32.1333333 16.0666667,39.0666667 16.0666667,47.7333333 C16.0666667,56.2222222 17.1777778,63.0666667 19.4,68.2666667 C21.6222222,73.4666667 24.6555556,77.2444444 28.5,79.6 C32.3444444,81.9555556 36.6888889,83.1333333 41.5333333,83.1333333 C46.4666667,83.1333333 50.5555556,82.3222222 53.8,80.7 C57.0444444,79.0777778 59.9111111,77.2444444 62.4,75.2 L69.8666667,84.7333333 C66.8,87.7111111 62.9111111,90.2777778 58.2,92.4333333 C53.4888889,94.5888889 47.7555556,95.6666667 41,95.6666667 C33.1777778,95.6666667 26.1777778,93.8444444 20,90.2 C13.8222222,86.5555556 8.94444444,81.1666667 5.36666667,74.0333333 C1.78888889,66.9 0,58.1333333 0,47.7333333 C0,37.4222222 1.84444444,28.7222222 5.53333333,21.6333333 C9.22222222,14.5444444 14.1444444,9.16666667 20.3,5.5 C26.4555556,1.83333333 33.2888889,0 40.8,0 Z" id="Path"></path>
                <polygon id="Path" points="78.1333333 1.86666667 95.2666667 1.86666667 113.066667 35 131.066667 1.86666667 147.533333 1.86666667 122.066667 44.1333333 150.333333 93.8666667 133.2 93.8666667 112.8 54.7333333 92.3333333 93.8666667 75.8 93.8666667 103.666667 44.8666667"></polygon>
            </g>
        </g>
    </g>
</svg>