<?xml version="1.0" encoding="UTF-8"?>
<svg width="240px" height="240px" viewBox="0 0 240 240" version="1.1" xmlns="http://www.w3.org/2000/svg" xmlns:xlink="http://www.w3.org/1999/xlink">
    <title>coreweave</title>
    <g id="Page-1" stroke="none" stroke-width="1" fill="none" fill-rule="evenodd">
        <g id="coreweave">
            <rect id="box" x="0" y="0" width="240" height="240"></rect>
            <g id="shape" transform="translate(0, 29)">
                <path d="M120.210077,136.596982 L76.3506181,136.596982 C73.6757431,136.596982 71.0008681,134.924193 69.3874514,132.150328 L49.0711386,94.3961161 C48.0096803,91.6222508 48.0096803,88.8483856 49.0711386,86.6250585 L69.3874514,48.870847 C71.0008681,46.0969818 73.6757431,44.4241928 76.3506181,44.4241928 L101.485952,44.4241928 C104.160827,44.4241928 106.835702,42.7514038 108.449119,39.9775386 L126.642515,6.0982686 C128.255931,3.32440337 126.111785,0 123.43691,0 L56.0343054,0 C50.1538261,0 45.3348053,3.32440337 42.129201,8.32159569 L2.00607557,82.7289424 C-0.668691856,87.7614431 -0.668691856,93.7890951 2.00607557,98.8215957 L42.129201,172.678404 C44.8843987,177.784969 50.2203261,180.978288 56.0343054,181 L142.161036,181 C145.36664,181 146.980056,177.675597 145.36664,174.901731 L126.642515,140.471923 C126.111785,137.698058 123.43691,136.575807 120.231306,136.575807 L120.210077,136.596982 Z" id="Path" fill="#2741E7"></path>
                <path d="M237.995902,33.0344362 L220.902057,3.07850973 C219.290231,0.307163425 215.55758,0.307163425 213.945753,3.07850973 L141.795309,136.208909 C140.734897,138.980255 140.734897,141.751601 141.795309,143.972909 L160.50098,178.92149 C162.112806,181.692837 165.845457,181.692837 167.457284,178.92149 L237.995902,49.1124758 C240.668033,44.0845451 240.668033,38.0623668 237.995902,33.0344362 Z" id="Path" fill="#FFFFFF" fill-rule="nonzero"></path>
                <path d="M150.816503,93.9986253 L172.204322,54.447088 C173.265226,52.2167382 173.265226,48.8818341 172.204322,46.0992072 L147.612574,2.08697021 C146,-0.695656737 142.265619,-0.695656737 140.653045,2.08697021 L119.795678,40.5127118 C118.734774,42.7430617 118.734774,46.0779657 119.795678,48.3083156 L143.856974,93.4251067 C145.469548,96.7600108 149.734381,96.7600108 150.816503,93.9773838 L150.816503,93.9986253 Z" id="Path" fill="#FFFFFF"></path>
            </g>
        </g>
    </g>
</svg>