<?xml version="1.0" encoding="UTF-8"?>
<svg width="240px" height="240px" viewBox="0 0 240 240" version="1.1" xmlns="http://www.w3.org/2000/svg" xmlns:xlink="http://www.w3.org/1999/xlink">
    <title>couchbase</title>
    <g id="Page-1" stroke="none" stroke-width="1" fill="none" fill-rule="evenodd">
        <g id="couchbase" fill-rule="nonzero">
            <path d="M120,0 C53.836875,0 0,53.6559375 0,120 C0,186.163125 53.6559375,240 120,240 C186.163125,240 240,186.344063 240,120 C240,53.6559375 186.163125,0 120,0 Z" id="Path" fill="#ED2226"></path>
            <path d="M200.638119,140.035246 C200.638119,147.259825 196.479766,153.582033 188.343531,155.026201 C174.240474,157.554897 144.58871,159 119.81906,159 C95.0484747,159 65.3967099,157.554897 51.2945886,155.026201 C43.1592889,153.582033 39,147.259825 39,140.035246 L39,93.4360575 C39,86.2114784 44.604941,79.5286961 51.2945886,78.4441685 C55.4529424,77.7220843 65.2162371,77 72.8110537,77 C75.703293,77 78.053179,79.1671869 78.053179,82.5991889 L78.053179,115.291016 L119.999532,114.38771 L161.945886,115.291016 L161.945886,82.5991889 C161.945886,79.1671869 164.296707,77 167.189881,77 C174.782828,77 184.547058,77.7220843 188.705411,78.4441685 C195.575532,79.527762 201,86.2114784 201,93.4360575 C200.638119,108.788522 200.638119,124.502495 200.638119,140.035246 Z" id="Path" fill="#FFFFFF"></path>
        </g>
    </g>
</svg>