<?xml version="1.0" encoding="UTF-8"?>
<svg width="240px" height="241px" viewBox="0 0 240 241" version="1.1" xmlns="http://www.w3.org/2000/svg" xmlns:xlink="http://www.w3.org/1999/xlink">
    <title>couchdb</title>
    <g id="Page-1" stroke="none" stroke-width="1" fill="none" fill-rule="evenodd">
        <g id="couchdb" transform="translate(-172, -49.7487)">
            <rect id="box" x="172" y="50" width="240" height="240"></rect>
            <path d="M367,196.749658 C367,206.695596 361.761185,211.569658 351.999812,211.742158 L351.999812,211.748721 L232.000188,211.748721 L232.000188,211.742158 C222.238815,211.569658 217,206.695596 217,196.748721 C217,186.804658 222.238815,181.928721 232.000188,181.758096 L232.000188,181.748721 L351.999812,181.748721 L351.999812,181.758096 C361.761185,181.928721 367,186.804658 367,196.748721 M351.999812,218.757158 L351.999812,218.748721 L232.000188,218.748721 L232.000188,218.758096 C222.238815,218.928721 217,223.804658 217,233.751533 C217,243.698408 222.238815,248.569658 232.000188,248.742158 L232.000188,248.748721 L351.999812,248.748721 L351.999812,248.739346 C361.761185,248.569658 367,243.695596 367,233.748721 C367,223.801846 361.761185,218.928721 351.999812,218.758096 M389.19962,135.757197 L389.19962,135.748721 C379.310367,135.922015 374,140.818515 374,150.81118 L374,233.689086 C374,243.681752 379.310367,248.575426 389.19962,248.748721 L389.19962,248.733652 C404.035399,248.216595 412,233.526152 412,203.550981 L412,165.878349 C412,145.895844 404.035399,136.103785 389.20057,135.756255 M194.8,135.748721 L194.8,135.758139 C179.96575,136.103782 172,145.895759 172,165.87904 L172,203.551358 C172,233.526279 179.9648,248.214715 194.8,248.73271 L194.8,248.748721 C204.6914,248.577312 210,243.680852 210,233.689212 L210,150.810113 C210,140.818473 204.6914,135.922013 194.8,135.748721 M390,128.475993 C390,103.459982 376.900312,91.2014478 352.5,90.7685274 L352.5,90.7487206 L232.5,90.7487206 L232.5,90.7685274 C208.101562,91.202391 195,103.459982 195,128.476936 L195,128.489198 C209.640938,128.748573 217.500938,136.103505 217.500938,151.1133 C217.500938,166.122152 225.360938,173.476141 240.000938,173.736459 L240.000938,173.748721 L345.000938,173.748721 L345.000938,173.737402 C359.639063,173.478027 367.499062,166.123096 367.499062,151.114243 C367.499062,136.104448 375.359062,128.749516 390,128.490141 L390,128.475993 Z" id="Shape" fill="#E42528" fill-rule="nonzero"></path>
        </g>
    </g>
</svg>