<?xml version="1.0" encoding="UTF-8"?>
<svg width="240px" height="240px" viewBox="0 0 240 240" version="1.1" xmlns="http://www.w3.org/2000/svg" xmlns:xlink="http://www.w3.org/1999/xlink">
    <title>cpanel</title>
    <g id="Page-1" stroke="none" stroke-width="1" fill="none" fill-rule="evenodd">
        <g id="cpanel" transform="translate(-0, 0)">
            <rect id="ViewBox" x="0" y="0" width="240" height="240"></rect>
            <path d="M122.034375,49.351875 C118.780025,49.2981586 115.604876,50.3572032 113.034375,52.35375 C110.445773,54.352533 108.584352,57.1453238 107.735625,60.30375 L72.935625,190.648884 L97.490625,190.648884 C100.690163,190.681349 103.805368,189.622444 106.321875,187.64625 C108.878666,185.693538 110.737011,182.967834 111.620625,179.874375 L137.4075,83.97 L157.18875,83.97 C160.128571,83.9467575 163.029338,84.643946 165.6375,86.000625 C168.125112,87.2712179 170.297404,89.0815683 171.995625,91.299375 C173.666429,93.526656 174.840887,96.085914 175.44,98.805 C176.098558,101.673239 176.017263,104.661805 175.20375,107.49 C173.089415,115.708873 165.675222,121.45086 157.18875,121.441875 L146.94375,121.441875 C143.68772,121.390417 140.511326,122.449876 137.938125,124.445625 C135.381665,126.39785 133.523352,129.12285 132.639375,132.215625 L126.279375,156.06 L158.25,156.06 C175.573385,156.098028 191.759874,147.44068 201.345,133.010625 C204.534995,128.219876 206.921388,122.940425 208.41,117.380625 L209.116875,114.73125 C211.349496,106.867947 211.592404,98.5729756 209.82375,90.5925 C206.489293,75.1797792 196.405741,62.0810737 182.35875,54.915 C175.128815,51.1791583 167.094543,49.2692404 158.956875,49.351875 L122.034375,49.351875 Z M204.504375,49.599375 L204.504375,51.53625 L210.451875,51.53625 L210.451875,68.37375 L212.63625,68.37375 L212.63625,51.53625 L218.58,51.53625 L218.58,49.599375 L204.504375,49.599375 Z M221.4075,49.599375 L221.4075,68.37375 L223.42125,68.37375 L223.42125,56.41875 C223.42125,54.5975 223.3625,53.0275 223.245,51.70875 L223.344375,51.70875 L229.71375,68.3775 L231.47625,68.3775 L237.92625,51.755625 L238.0275,51.755625 C237.913362,53.2604969 237.852699,54.7689474 237.845625,56.278125 L237.845625,68.375625 L240,68.375625 L240,49.599375 L236.7375,49.599375 L230.743125,65.083125 L230.638125,65.083125 L224.690625,49.599375 L221.4075,49.599375 Z M52.8,84.1458158 C47.0198181,84.1224437 41.2773547,85.0778303 35.81625,86.971875 C30.5249164,88.7963405 25.5568194,91.4493675 21.0975,94.831875 C12.0034432,101.808646 5.45750434,111.583739 2.469375,122.649375 L1.7625,125.29875 C-0.353285976,133.182162 -0.567278358,141.455249 1.138125,149.4375 C2.74767019,157.034633 6.0367756,164.175336 10.764375,170.33625 C15.5333168,176.50362 21.6070675,181.540107 28.550625,185.085 C35.7805597,188.820842 43.814832,190.73076 51.9525,190.648125 L64.31625,190.648125 L71.38125,164.50875 C71.9880366,162.519161 71.5447152,160.357616 70.20375,158.7675 C68.9810493,157.124013 67.0412382,156.170511 64.993125,156.20625 L53.68875,156.20625 C50.7505702,156.231748 47.8475229,155.566359 45.21375,154.26375 C42.7164177,153.046613 40.5384016,151.262206 38.85375,149.053125 C37.1909515,146.823888 36.0242257,144.264763 35.431875,141.5475 C34.7870616,138.568 34.8784508,135.476211 35.698125,132.54 C36.8295164,128.543149 39.2123533,125.014237 42.496875,122.47125 C45.7040623,120.015461 49.6440687,118.70983 53.683125,118.764375 L72.234375,118.764375 C75.4910452,118.816261 78.6681692,117.756779 81.241875,115.760625 C83.8297996,113.762809 85.6911555,110.971434 86.540625,107.814375 L92.716875,84.1458158 L52.8,84.1458158 Z" id="Shape" fill="#FF6C2C" fill-rule="nonzero"></path>
        </g>
    </g>
</svg>