<?xml version="1.0" encoding="UTF-8"?>
<svg width="240px" height="241px" viewBox="0 0 240 241" version="1.1" xmlns="http://www.w3.org/2000/svg" xmlns:xlink="http://www.w3.org/1999/xlink">
    <title>cpp</title>
    <g id="Page-1" stroke="none" stroke-width="1" fill="none" fill-rule="evenodd">
        <g id="cpp" transform="translate(162, 13.6263)">
            <rect id="box" x="-162" y="-13" width="240" height="240"></rect>
            <g id="shape" transform="translate(-148, -13)" fill-rule="nonzero">
                <path d="M210.277444,180 C211.956575,177.101304 213,173.835306 213,170.902459 L213,69.0968439 C213,66.1639969 211.957974,62.8986955 210.278144,60 L106,120 L210.277444,180 Z" id="Path" fill="#00599C"></path>
                <path d="M116.241686,237.800365 L204.473626,186.897906 C207.015264,185.431482 209.325337,182.899392 211,180 L107,120 L3,180.000697 C4.67466316,182.899392 6.98543328,185.432179 9.52637368,186.897906 L97.7583145,237.800365 C102.840893,240.733212 111.159107,240.733212 116.241686,237.800365 Z" id="Path" fill="#004482"></path>
                <path d="M210,59.9997677 C208.330332,57.1003864 206.027414,54.5683066 203.495108,53.1018888 L115.562977,2.19962674 C110.49767,-0.733208912 102.20772,-0.733208912 97.1424126,2.19962674 L9.21028242,53.1018888 C4.14427953,56.0340275 0,63.232299 0,69.0972733 L0,170.902494 C0,173.83533 1.03641744,177.101316 2.70608524,180 L106.352695,120.000232 L210,59.9997677 Z" id="Path" fill="#659AD2"></path>
                <path d="M106.738807,191 C67.7332899,191 36,159.149539 36,120 C36,80.8504608 67.7332899,49 106.738807,49 C131.907951,49 155.381445,62.5944118 167.997919,84.4777255 L137.383967,102.258353 C131.069488,91.3048627 119.326153,84.5 106.738807,84.5 C87.2357015,84.5 71.3694033,100.424882 71.3694033,120 C71.3694033,139.574422 87.2357015,155.5 106.738807,155.5 C119.32754,155.5 131.070875,148.695137 137.386048,137.739559 L168,155.51949 C155.383526,177.404892 131.909338,191 106.738807,191 Z" id="Path" fill="#FFFFFF"></path>
                <polygon id="Path" fill="#FFFFFF" points="178 115.999765 169.999529 115.999765 169.999529 108 162.000471 108 162.000471 115.999765 154 115.999765 154 123.999529 162.000471 123.999529 162.000471 132 169.999529 132 169.999529 123.999529 178 123.999529"></polygon>
                <polygon id="Path" fill="#FFFFFF" points="207 115.999765 198.999529 115.999765 198.999529 108 191.000471 108 191.000471 115.999765 183 115.999765 183 123.999529 191.000471 123.999529 191.000471 132 198.999529 132 198.999529 123.999529 207 123.999529"></polygon>
            </g>
        </g>
    </g>
</svg>