<?xml version="1.0" encoding="UTF-8"?>
<svg width="240px" height="240px" viewBox="0 0 240 240" version="1.1" xmlns="http://www.w3.org/2000/svg" xmlns:xlink="http://www.w3.org/1999/xlink">
    <title>crawl4ai</title>
    <g id="Page-1" stroke="none" stroke-width="1" fill="none" fill-rule="evenodd">
        <g id="crawl4ai">
            <rect id="box" fill="#000000" x="0" y="0" width="240" height="240"></rect>
            <path d="M67.6485537,52.3168811 L119.916554,106.513881 L172.185947,52.3168811 L198.185947,52.3168811 L132.917554,119.993881 L198.185947,187.670047 L172.185947,187.670047 L119.917554,133.472881 L67.6485537,187.670047 L41.6485537,187.670047 L106.917554,119.993881 L41.6485537,52.3168811 L67.6485537,52.3168811 Z M45.856,82 L81.8445537,119.316 L82.185947,119.316881 L82.0145537,119.493 L82.185947,119.670047 L81.8445537,119.67 L45.8435537,156.999881 L29.8435537,156.999881 L66.0145537,119.493 L29.856,82 L45.856,82 Z M209.185947,82 L173.020554,119.499 L209.185947,156.999881 L193.185947,156.999881 L157.184554,119.67 L156.856,119.670047 L157.020554,119.499 L156.843554,119.316881 L157.196554,119.316 L193.185947,82 L209.185947,82 Z" id="Combined-Shape" fill="#50FFFF"></path>
        </g>
    </g>
</svg>