<?xml version="1.0" encoding="UTF-8"?>
<svg width="240px" height="240px" viewBox="0 0 240 240" version="1.1" xmlns="http://www.w3.org/2000/svg" xmlns:xlink="http://www.w3.org/1999/xlink">
    <title>Group</title>
    <g id="Page-1" stroke="none" stroke-width="1" fill="none" fill-rule="evenodd">
        <g id="Group">
            <rect id="Rectangle" x="0" y="0" width="240" height="240"></rect>
            <g id="crewai" transform="translate(41, 31)" fill-rule="nonzero">
                <path d="M136.057226,79.9753907 C143.521118,79.7076589 150.531198,83.565302 154.319088,90.0248825 C157.888687,96.0026614 158.915963,103.167096 157.164421,109.901368 L156.159316,113.772833 C152.368732,128.36739 144.231811,141.454219 132.834979,151.285991 C128.363742,155.120373 123.353001,159.162419 117.440621,162.588888 L117.233688,162.71497 C114.262718,164.435621 110.700509,166.504853 106.901805,168.321919 C98.1071407,172.786712 88.6103812,175.716269 78.8327837,176.97709 C72.5213187,177.800333 66.1507298,178.126663 59.7875315,177.956082 L59.6545029,177.956082 C46.0641469,177.4618 32.9913413,172.600016 22.3621696,164.087041 L22.2734839,164.012875 L22.1847982,163.938709 C11.5040286,155.119511 4.23115312,142.831024 1.62449874,129.199359 C-0.24914959,119.972013 -0.504250347,110.48737 0.870670363,101.172031 C2.87374608,87.5412819 7.28347533,74.3783488 13.8926861,62.301635 C18.9479757,52.6215554 24.9701021,43.4818854 31.8663196,35.0233835 C39.363886,25.8353476 48.2400278,17.8736275 58.1764081,11.4237652 C66.1929697,6.18777876 75.1497407,2.57023696 84.5456204,0.773528829 L84.5751823,0.773528829 L84.5973537,0.758695631 C99.7995593,-2.08927843 112.259899,3.5325037 121.727097,10.1036105 C128.873226,14.9913025 134.905856,21.343532 139.427282,28.7415241 L139.604654,29.038188 L139.774635,29.3496852 C144.764878,38.4236484 146.108084,49.0692998 143.528996,59.1050808 C141.762672,66.299182 139.264692,73.3004515 136.064617,79.9753907 L136.057226,79.9753907 Z" id="Path" fill="#461816"></path>
                <path d="M131.251495,98.1111359 C132.303572,96.5606721 134.066304,95.6522899 135.933075,95.6985949 C137.799846,95.7448999 139.515842,96.7395715 140.490529,98.3403089 C141.954357,100.794677 142.373644,103.736963 141.66012,106.494431 L140.652359,110.353408 C137.657318,121.896766 131.231997,132.24825 122.233138,140.027611 C118.025553,143.650023 113.862102,146.969334 109.183738,149.682446 C106.042761,151.508438 102.879716,153.349214 99.5989757,154.909069 C92.3328238,158.631854 84.4814334,161.065318 76.3910516,162.102143 C70.8880419,162.826802 65.3366794,163.113544 59.7887426,162.959693 C49.502926,162.584622 39.6088854,158.899548 31.5640818,152.447307 C23.6367847,145.892568 18.2462685,136.752743 16.3299737,126.617296 C14.7997624,119.122453 14.5881447,111.416106 15.7047206,103.847853 C17.4435537,92.0016557 21.2802062,80.5643798 27.0328357,70.078107 C31.6042512,61.2928156 37.0562887,52.9995815 43.3041283,45.3274264 C49.7763501,37.382686 57.4398034,30.4989997 66.0192059,24.9236395 C72.3519159,20.7799119 79.428001,17.9172542 86.8511683,16.4959884 C96.4653543,14.6847827 104.755475,18.0262724 112.457122,23.3933555 C117.821472,27.0570176 122.349776,31.8246608 125.741912,37.3802992 C128.853465,43.050482 129.684684,49.7112835 128.05167,55.9728804 C126.386866,62.8116988 123.943288,69.4348853 120.76931,75.7113264 L119.12894,79.3854866 C116.76769,84.6564648 114.40644,89.9274431 111.993699,95.183636 C110.969496,98.1149536 107.777222,99.6595321 104.858458,98.6360159 C96.4005543,95.9398576 90.0053311,88.929924 88.0648949,80.2282517 C87.3660826,74.0923302 88.3591316,67.8898747 90.9337033,62.2936187 C93.0522079,56.7786821 95.4208138,51.3746357 97.7967756,45.9705892 L99.6210435,41.8085124 C100.175268,40.8879813 100.328445,39.7789065 100.044639,38.7414735 C99.7608331,37.7040404 99.0650203,36.829547 98.120436,36.3231465 C94.7246036,37.1187247 91.6475526,38.9277945 89.2933333,41.5128053 C85.1329623,45.6763716 81.1710435,50.035537 77.4208802,54.5756645 C69.8421311,64.110796 63.3780643,74.4891093 58.1557286,85.5066226 C54.884657,91.845021 52.8473976,98.7526207 52.1532988,105.858661 C51.460792,111.319742 51.6345895,116.856652 52.6682131,122.26301 C53.8408168,129.332644 59.7703257,134.616989 66.8945603,134.94145 C80.1425702,135.680717 93.3023091,132.257908 104.527441,125.123975 C108.808586,122.166905 112.920545,118.980661 116.848606,115.557852 C122.380257,110.309052 126.97035,104.328377 131.251495,98.1111359 L131.251495,98.1111359 Z" id="Path" fill="#FFFFFF"></path>
            </g>
        </g>
    </g>
</svg>