<?xml version="1.0" encoding="UTF-8"?>
<svg width="240px" height="240px" viewBox="0 0 240 240" version="1.1" xmlns="http://www.w3.org/2000/svg" xmlns:xlink="http://www.w3.org/1999/xlink">
    <title>criminalip</title>
    <g id="Page-1" stroke="none" stroke-width="1" fill="none" fill-rule="evenodd">
        <g id="criminalip">
            <rect id="box" fill="#000000" x="0" y="0" width="240" height="240" rx="32"></rect>
            <path d="M120,40 C150.927946,40 176,65.072054 176,96 C176,126.927946 150.927946,152 120,152 C114.724743,152 109.61985,151.270584 104.780676,149.907108 L102.693318,155.969208 C105.59587,158.27551 106.878284,162.242729 105.602565,165.947687 L96.1610882,193.367726 C94.5428312,198.067485 89.421067,200.565536 84.7213076,198.947279 C80.0215482,197.329022 77.5234969,192.207258 79.1417538,187.507499 L88.5832303,160.08746 C89.8590706,156.382151 93.3126244,154.045381 97.0201672,154.015415 L99.1011568,147.970213 C78.5247757,139.688032 64,119.540237 64,96 C64,65.072054 89.072054,40 120,40 Z M120,60 C100.117749,60 84,76.117749 84,96 C84,110.828542 93.0451711,123.973276 106.569085,129.416775 L108.356,130.135 L110.20465,130.656641 C113.129834,131.480835 116.168746,131.932687 119.280603,131.993033 L120,132 C137.662829,132 152.354697,119.279804 155.414659,102.500356 L137.890108,102.500861 C135.212929,110.074162 127.990101,115.5 119.5,115.5 C108.730447,115.5 100,106.769553 100,96 C100,85.2304474 108.730447,76.5 119.5,76.5 C128.359814,76.5 135.839583,82.4086791 138.213723,90.5004556 L155.582521,90.5000553 C152.934757,73.2283948 138.012207,60 120,60 Z" id="Combined-Shape" fill="#FFFFFF" fill-rule="nonzero"></path>
        </g>
    </g>
</svg>