<?xml version="1.0" encoding="UTF-8"?>
<svg width="240px" height="231px" viewBox="0 0 240 231" version="1.1" xmlns="http://www.w3.org/2000/svg" xmlns:xlink="http://www.w3.org/1999/xlink">
    <title>cronicle</title>
    <g id="Page-1" stroke="none" stroke-width="1" fill="none" fill-rule="evenodd">
        <g id="cronicle" transform="translate(-0, 0)" fill-rule="nonzero">
            <path d="M0.0117146093,115.483033 C0.292865234,85.2944423 10.4142877,58.8969771 31.0320001,36.7586774 C47.947896,18.551915 68.7530422,7.131735 93.1194297,2.17050927 C100.851072,0.579172711 108.676431,-0.122887535 116.548648,0.0175245141 C122.359095,0.111132547 126.904363,4.46390607 127.60724,10.5016242 C128.263258,16.0244981 124.6083,21.360156 119.172721,22.7174725 C117.954401,22.9982966 116.689224,23.0919046 115.424046,23.0919046 C102.256825,23.1387086 89.6050469,25.6661255 77.7030038,31.1889994 C53.7583423,42.2815513 37.2173139,60.3010976 28.2204939,85.1072263 C24.0032345,96.7614264 22.2694724,108.836863 23.300358,121.099515 C26.299298,156.530155 43.8243535,182.412776 75.4537988,198.65377 C85.8563719,203.989428 97.1023968,206.797669 108.817006,207.546533 C131.215339,209.044262 151.551901,203.287368 169.826692,190.275851 C171.701029,188.918535 173.528508,187.561218 175.87143,187.139982 C181.025858,186.157098 186.227145,188.778123 188.523208,193.598936 C190.819272,198.372946 189.647811,204.083036 185.571127,207.359317 C179.245238,212.414151 172.26333,216.4861 164.953414,219.949597 C152.629645,225.800099 139.649858,229.310401 126.060911,230.527305 C106.380367,232.21225 87.3558419,229.450813 69.3153435,221.306914 C37.5921814,207.125297 16.2715924,183.348857 5.30671803,150.398829 C2.02662742,140.569986 0.386582108,130.460318 0.0585730467,120.116631 C-0.035143828,118.572098 0.0117146093,117.027565 0.0117146093,115.483033 M216.497695,51.7359626 C207.219725,57.0716205 197.941754,62.4072783 188.663783,67.7897402 C186.039711,69.3342728 185.196259,72.0021017 186.555154,74.3423025 C187.960907,76.7293073 190.725555,77.2909555 193.349627,75.793227 C197.285736,73.4998302 201.268703,71.2532374 205.204812,68.9598406 C210.593532,65.8239715 215.982252,62.7349065 221.370973,59.5990374 C223.385886,58.4289369 224.182479,56.3227562 223.620178,54.2633795 C223.057876,52.2508068 221.230397,50.9402943 219.028051,50.7530783 C218.184599,51.0807064 217.24743,51.3147265 216.497695,51.7359626 M223.620178,176.609078 C224.229337,174.502898 223.339027,172.443521 221.324114,171.27342 L193.068477,154.985623 C191.850157,154.283562 190.538121,154.096346 189.179226,154.517583 C187.304889,155.079231 186.227145,156.436547 185.945994,158.308708 C185.664843,160.368085 186.555154,161.959421 188.335774,163.035914 L216.591412,179.323711 C217.341147,179.744947 218.184599,179.932163 219.028051,180.212988 C221.277256,179.978967 223.057876,178.668455 223.620178,176.609078 M163.032218,42.5623754 C165.421999,38.3968179 167.811779,34.2312605 170.248418,30.112507 C173.294216,24.8236532 176.340014,19.5816034 179.385813,14.2927495 C180.322982,12.6078049 180.322982,10.9228603 179.245238,9.33152377 C178.214352,7.74018722 176.668023,7.131735 174.793686,7.31895107 C173.106782,7.50616713 171.98218,8.44224746 171.185586,9.89317197 C168.280363,14.9012017 165.37514,19.9560355 162.469917,24.9640652 C159.98642,29.3168388 157.409206,33.6228083 154.972567,37.9755818 C153.098229,41.2518629 155.253718,45.0429883 158.955534,45.0429883 C160.689296,44.9961842 162.095049,44.200516 163.032218,42.5623754 M218.887476,110.709023 L202.580739,110.709023 C199.769233,110.709023 197.660603,112.721596 197.660603,115.295817 C197.660603,117.963646 199.769233,119.976218 202.627598,119.976218 L234.913061,119.976218 C236.646823,119.976218 238.146293,119.41457 239.13032,117.916842 C240.161206,116.419113 240.301781,114.780973 239.411471,113.189636 C238.568019,111.5983 237.209125,110.709023 235.381646,110.709023 C229.805491,110.662219 224.369913,110.709023 218.887476,110.709023" id="Shape" fill="#3F7ED4"></path>
            <path d="M139.265735,157 C136.089647,156.953236 133.89441,155.877671 132.306367,153.726541 C124.319441,143.111182 116.332514,132.44906 108.345588,121.786937 C105.68328,118.232897 105.589865,115.052965 107.878517,111.218342 C118.574459,93.2143196 129.223693,75.2102969 139.919635,57.2062742 C141.694508,54.2133977 144.310109,52.7169594 147.719733,53.0443053 C151.176063,53.3716512 153.558129,55.3357264 154.632394,58.7027124 C155.426416,61.1811883 154.86593,63.4726094 153.604836,65.6237393 C148.793998,73.7138586 143.983159,81.8507416 139.172321,89.9408609 C134.314775,98.1712713 129.457229,106.401682 124.552976,114.585328 C123.99249,115.473839 124.085905,116.081767 124.693098,116.876749 L145.150838,144.09322 C147.11254,146.711987 147.43949,149.6581 145.94486,152.604213 C144.450231,155.456798 141.974751,156.906473 139.265735,157 M100.965856,106.354918 C89.8962562,99.8547643 78.8266569,93.3546107 67.7570576,86.8076933 C64.7677987,85.0306729 61.7785398,83.3004162 58.7892809,81.5701594 C57.7617232,80.9622314 56.7341654,81.2895773 56.2203865,82.2248512 C55.7533148,83.1133614 56.0335579,84.0486353 57.0144084,84.703327 C57.2012371,84.7968544 57.3880658,84.8903818 57.5748945,85.0306729 C69.4852229,92.0452272 81.3955512,99.0130178 93.2591725,106.027572 C95.4544095,107.336956 97.6496464,108.646339 99.8448834,109.862195 C101.246099,110.657178 102.740728,109.908959 102.740728,108.225466 C102.694021,107.290192 101.806585,106.869319 100.965856,106.354918" id="Shape" fill="#FFFFFF"></path>
        </g>
    </g>
</svg>