<?xml version="1.0" encoding="UTF-8"?>
<svg width="240px" height="240px" viewBox="0 0 240 240" version="1.1" xmlns="http://www.w3.org/2000/svg" xmlns:xlink="http://www.w3.org/1999/xlink">
    <title>crowdfence</title>
    <g id="Page-1" stroke="none" stroke-width="1" fill="none" fill-rule="evenodd">
        <g id="crowdfence">
            <rect id="box" fill="#FFFFFF" x="0" y="0" width="240" height="240" rx="32"></rect>
            <path d="M73,133.5 L89,108.5 L89,133.5 L88.9791856,133.5 C88.9791856,133.578553 89.1394144,134.427717 89.2074434,134.627369 C94.8881393,151.29913 110.601088,162.734786 128.5,162.734786 C140.58077,162.734786 151.811531,157.54732 159.637524,148.671128 L160.001273,148.252348 L160.016565,148.231583 C160.029412,148.214366 160.050985,148.185664 160.085438,148.13992 L160.172748,148.024066 C160.208396,147.976777 160.250999,147.920268 160.301788,147.852893 C160.326357,147.8205 160.326357,147.8205 160.351597,147.787363 C160.677185,147.36042 160.883905,147.109618 161.177986,146.83603 L163.648,149.492 L166.033,151.877 L166.045936,151.864459 L166.06,151.849 L166.035,151.879 L181.254,167.098 L183.349056,169.053932 C183.351558,169.051111 183.322333,169.085549 183.263637,169.156173 L183.214123,169.215909 C183.002526,169.471898 182.948554,169.536161 182.832756,169.663327 C168.975449,184.881037 149.435199,193.734786 128.5,193.734786 C93.402514,193.734786 63.4368925,168.957562 56.4963927,135.059745 L56.2936965,134.033267 C56.2895738,134.01496 56.2865449,134.002344 56.2684145,133.92813 C56.1285811,133.357368 56.0709463,133.042879 56.0709463,132.5 L63.0709463,132.5 C63.0709463,132.359941 63.0594406,132.252075 63.0439026,132.167291 C63.0424975,132.159624 63.0475212,132.181519 63.0673449,132.262434 C63.0906506,132.357328 63.1056909,132.419973 63.1226917,132.495469 C63.1456782,132.599431 63.1456782,132.599431 63.1701774,132.723483 C69.0844555,163.859773 96.4255099,186.734786 128.5,186.734786 C145.064914,186.734786 160.657802,180.611061 172.701578,169.858247 L160.513758,157.670985 C151.783724,165.35176 140.495033,169.734786 128.5,169.734786 C107.582617,169.734786 89.2213645,156.371733 82.5815251,136.885069 C82.2801618,136.000625 81.9791856,134.405542 81.9791856,133.5 L73,133.5 Z M128.5,47 C149.435199,47 168.975449,55.8537481 182.832756,71.071459 C182.870926,71.1133762 182.980302,71.2289921 183.13977,71.3958769 C183.356549,71.6223358 183.460478,71.7309207 183.51887,71.7925422 L180.575,74.581 L162.247,92.908 L160.832857,94.4294609 C160.541725,94.1586166 160.347607,93.9317916 160.101526,93.6118272 C160.081765,93.5861036 160.081765,93.5861036 160.064766,93.5639282 C160.015843,93.5001187 160.001807,93.4823592 160.001864,93.4824255 C152.162285,84.3508399 140.769532,79 128.5,79 C110.601088,79 94.8881393,90.4356553 89.2074434,107.107416 C89.1394144,107.307068 88.9791856,108.156233 88.9791856,108.234786 L81.9791856,108.234786 C81.9791856,107.329244 82.2801618,105.734161 82.5815251,104.849717 C89.2213645,85.3630524 107.582617,72 128.5,72 C140.315952,72 151.446495,76.2531282 160.121044,83.7219957 L172.840741,71.001133 C160.778039,60.1710413 145.128789,54 128.5,54 C97.0997289,54 70.1644424,75.9360403 63.5377151,106.212864 C63.4905812,106.427693 63.4584206,106.574328 63.4287025,106.710567 C63.3782733,106.941755 63.3331283,107.150927 63.2905802,107.351262 C63.2762344,107.418897 63.2762344,107.418897 63.2619897,107.486432 L63.258,107.5 L72,107.5 L56,132.5 L56,107.5 L56.1288573,107.501361 C56.1793795,107.163791 56.2677815,106.729825 56.4122443,106.043869 C56.4277817,105.970205 56.4277817,105.970205 56.443308,105.897005 C56.4888263,105.682685 56.5365637,105.461501 56.5895199,105.218729 C56.6202499,105.07785 56.6534948,104.926272 56.6995881,104.716194 C64.0260113,71.2425339 93.7934437,47 128.5,47 Z" id="Combined-Shape" fill="#181C4B" fill-rule="nonzero"></path>
            <g id="c" transform="translate(113, 102)" fill="#181C4B" fill-rule="nonzero">
                <path d="M15.6534195,28.4637833 C16.7774836,28.4637833 17.77071,28.2462438 18.6330986,27.8111649 C19.4954872,27.3760859 20.1748848,26.7635536 20.6712914,25.973568 C21.1676979,25.1835823 21.4258194,24.2506917 21.4456558,23.1748962 L30.063591,23.1748962 C30.0440852,25.5787404 29.3976657,27.7180163 28.1243324,29.5927238 C26.8509992,31.4674314 25.1449013,32.9390462 23.0060387,34.0075684 C20.8671761,35.0760905 18.4736633,35.6103516 15.8255005,35.6103516 C13.1723785,35.6103516 10.8561452,35.1661809 8.87680054,34.2778397 C6.89745585,33.3894984 5.24962743,32.1554248 3.93331528,30.5756187 C2.61700312,28.9958127 1.63237254,27.1565628 0.979423523,25.057869 C0.326474508,22.9591751 0,20.6993103 0,18.2782745 L0,17.3538971 C0,14.9328613 0.326474508,12.6693598 0.979423523,10.5633926 C1.63237254,8.45742544 2.61700312,6.61453883 3.93331528,5.03473282 C5.24962743,3.45492681 6.89390182,2.22085317 8.86613846,1.3325119 C10.8383751,0.444170634 13.143781,0 15.7823563,0 C18.5842514,0 21.0511589,0.541286469 23.1830788,1.62385941 C25.3149986,2.70643234 26.9898542,4.24491247 28.2076454,6.23929977 C29.4254367,8.23368708 30.0440852,10.6020737 30.063591,13.3444595 L21.4456558,13.3444595 C21.4258194,12.1850204 21.1903445,11.1415418 20.7392311,10.2140236 C20.2881177,9.28650538 19.6331024,8.54338328 18.7741852,7.98465729 C17.9152679,7.42593129 16.8606313,7.1465683 15.6102753,7.1465683 C14.2848714,7.1465683 13.1966782,7.42576599 12.3456955,7.98416138 C11.4947128,8.54255676 10.8366394,9.30477142 10.3714752,10.2708054 C9.90631104,11.2368393 9.58487829,12.3262723 9.40717697,13.5391045 C9.22947566,14.7519366 9.140625,16.0235341 9.140625,17.3538971 L9.140625,18.2782745 C9.140625,19.6228536 9.22782262,20.9068489 9.40221786,22.1302605 C9.57661311,23.353672 9.89994685,24.439551 10.3722191,25.3878975 C10.8444913,26.3362439 11.5061188,27.0859782 12.3571014,27.6371002 C13.2080841,28.1882222 14.3068568,28.4637833 15.6534195,28.4637833 Z" id="Path"></path>
            </g>
        </g>
    </g>
</svg>