<?xml version="1.0" encoding="UTF-8"?>
<svg width="240px" height="240px" viewBox="0 0 240 240" version="1.1" xmlns="http://www.w3.org/2000/svg" xmlns:xlink="http://www.w3.org/1999/xlink">
    <title>crowdstrike</title>
    <g id="Page-1" stroke="none" stroke-width="1" fill="none" fill-rule="evenodd">
        <g id="crowdstrike">
            <rect id="box" x="0" y="0" width="240" height="240"></rect>
            <g id="shape" transform="translate(0.9959, 27)" fill="#DA1B1B" fill-rule="nonzero">
                <path d="M0,0.279935489 C0,0.980844113 5.12863071,11.4944735 5.73918198,12.0304624 C5.86129223,12.1541522 6.39043667,12.9787506 6.91958111,13.8858088 C7.44872555,14.792867 8.34420075,15.9885346 8.83264177,16.5657535 C9.36178621,17.1429724 9.76882039,17.7201913 9.76882039,17.843881 C9.76882039,17.9675708 10.1351512,18.5447896 10.6235922,19.0807786 C11.0713298,19.6167675 12.4145426,21.1835045 13.5542383,22.5440918 C18.8049793,28.7285796 26.3758151,35.9025856 34.3943885,42.2519931 C34.638609,42.4169128 35.2491602,42.9116718 35.7783047,43.3652009 C36.3074491,43.81873 36.877297,44.1897993 36.9994072,44.1897993 C37.1215175,44.1897993 37.7320688,44.6020985 38.2612132,45.0968575 C39.7265363,46.4162149 41.1918593,47.4469629 48.8848054,52.6419327 C56.0079036,57.4246033 56.1300138,57.5482931 59.0199565,59.2799497 C60.037542,59.8983984 61.0958309,60.6817669 61.3807548,60.9703763 C61.6656787,61.2589858 62.1134163,61.5063653 62.3169334,61.5063653 C62.6018573,61.5063653 66.7129026,63.8564707 68.7887769,65.217058 C69.1144043,65.4644375 69.8470658,65.8767367 70.4169137,66.1241162 C71.8822367,66.8662548 80.0229204,71.855075 82.4244221,73.5042717 C89.3440032,78.2044825 98.0952381,86.2443167 100.74096,90.2436189 C101.839953,91.9340456 102.572614,92.4700345 102.572614,91.5629763 C102.572614,91.0269873 100.903774,87.9347434 100.252519,87.1513749 C99.9675953,86.8627655 99.7233748,86.4092364 99.7233748,86.2030868 C99.7233748,85.7495577 97.2811697,81.7090256 96.5485082,80.9256572 C96.2635843,80.5958178 95.6937364,79.8536793 95.3274057,79.2764604 C94.2284134,77.5860337 92.8852006,76.0605267 88.7334519,71.8138451 C83.7269314,66.7837949 83.1570836,66.3302658 76.1153922,61.0116063 C72.8591188,58.579041 70.0505829,56.4350852 69.8063624,56.2289356 C69.6028453,56.064016 68.6666667,55.4455672 67.7711915,54.9095782 C66.8757163,54.3735893 66.0616479,53.7963704 65.9395376,53.6726807 C65.8174274,53.5489909 65.003359,52.971772 64.1078838,52.4357831 C63.2124086,51.8997941 60.6480933,50.2505974 58.4094053,48.7663203 C53.8913258,45.7565362 53.1179609,45.2617772 51.8154515,44.5608686 C51.2863071,44.2722591 50.8792729,43.9011899 50.8792729,43.6950403 C50.8792729,43.5301206 50.6757558,43.3652009 50.4722387,43.3652009 C50.2280182,43.3652009 49.2511361,42.787982 48.3149575,42.0870734 C46.7275242,40.9326357 41.843114,37.4280926 40.1742739,36.2736548 C39.7265363,35.9850454 39.0345781,35.4078265 38.5868405,34.9955273 C38.0983995,34.6244581 37.6099585,34.2946187 37.4878483,34.2946187 C37.365738,34.2946187 36.7958901,33.8823195 36.2260423,33.3463306 C35.6561944,32.8515715 34.0687611,31.5322141 32.6848449,30.4602362 C31.3009287,29.3882583 29.9170124,28.2750505 29.6320885,27.9864411 C29.3471646,27.6978317 28.0853586,26.6670837 26.8642561,25.6775656 C21.6135151,21.5133438 3.70401107,4.11431796 1.91306066,1.43437322 C1.13969571,0.279935489 0,-0.420973135 0,0.279935489 Z" id="Path"></path>
                <path d="M38.3060404,7.17547565 C37.9790946,7.50499736 38.4286451,8.98784507 38.8373273,8.98784507 C39.0416684,8.98784507 39.2051413,9.19379614 39.2051413,9.48212764 C39.2051413,10.0999808 42.1476534,16.0313717 42.801545,16.7316053 C43.0467544,17.0199368 43.2919637,17.431839 43.2919637,17.63779 C43.2919637,18.1732628 46.806631,23.2808493 48.5230964,25.2167894 C52.6099188,29.8300934 60.0479355,36.7912396 62.9087112,38.6859894 C63.4808663,39.0567013 64.5025719,39.8805056 65.1564635,40.4571686 C65.8512233,41.0750218 67.1181382,42.063587 68.0172392,42.6814402 C68.9163401,43.2992934 70.0197821,44.1230977 70.4284644,44.4938096 C70.8780148,44.9057117 71.9814569,45.729516 72.8805578,46.3473692 C73.820527,47.0064126 74.923969,47.8302169 75.3326513,48.2009289 C75.7822017,48.612831 76.8856438,49.4366353 77.7847447,50.0544885 C78.7247138,50.6723417 79.5420783,51.2901949 79.664683,51.4137655 C79.7872877,51.5373362 81.1768073,52.649472 82.7297998,53.8851784 C84.3236605,55.1208848 85.7949166,56.315401 86.0401259,56.5625423 C86.2853353,56.7684934 87.9200642,58.2513411 89.6773979,59.8577594 C95.6441585,65.2536775 100.2214,70.2788836 103.000439,74.4802854 C105.697742,78.5993068 106.760315,80.4116762 109.171541,85.1073606 C110.438456,87.6611539 112.318394,91.0387515 113.258363,92.6451698 C114.2392,94.2515882 115.465247,96.3110989 115.996534,97.2584738 C116.527821,98.2058487 117.222581,99.2356041 117.549527,99.5239356 C117.835604,99.8122671 118.080813,100.265359 118.080813,100.47131 C118.080813,100.677262 118.285155,101.089164 118.489496,101.377495 C118.734705,101.665827 120.655512,104.549142 122.821527,107.844359 C129.728257,118.389054 139.209685,126.791857 148.52764,130.540167 C152.941408,132.311346 162.177627,133.01158 174.274621,132.476107 C182.693476,132.146585 192.338376,132.393726 194.013974,133.01158 C194.54526,133.217531 195.730439,133.382292 196.670408,133.382292 C197.610377,133.423482 199.122502,133.670623 200.021602,134.000145 C200.920703,134.329666 202.024145,134.617998 202.473696,134.617998 C202.923246,134.617998 203.822347,134.906329 204.476239,135.235851 C205.089262,135.565373 205.906627,135.853704 206.233572,135.853704 C206.887464,135.853704 209.135216,136.84227 214.325481,139.396063 C221.804366,143.144372 227.852863,147.592915 234.228306,154.059779 C238.478601,158.384751 238.642074,158.508322 238.887283,157.437377 C239.214229,156.16048 238.805547,151.794317 238.27426,150.805752 C238.069919,150.39385 237.456896,149.116953 236.925609,148.004818 C235.903903,145.698166 233.983097,142.938421 231.122321,139.602014 C230.018879,138.242737 229.242383,136.92465 229.242383,136.347987 C229.242383,134.659188 227.648522,132.023014 225.768584,130.622547 C223.398227,128.851368 216.123683,125.144249 215.020241,125.144249 C214.8159,125.144249 214.080271,124.855917 213.467248,124.526396 C212.813357,124.196874 211.955124,123.908542 211.546442,123.908542 C211.178628,123.908542 210.524736,123.743781 210.116054,123.53783 C209.74824,123.331879 208.031774,122.755216 206.356177,122.260934 C200.75723,120.572135 197.160827,119.295238 195.893912,118.512624 C194.54526,117.68882 193.278346,115.546929 193.278346,114.105271 C193.278346,113.034326 194.831338,108.173881 195.321757,107.679598 C195.566966,107.432457 195.730439,106.979364 195.730439,106.649843 C195.730439,106.279131 195.975648,105.496517 196.302594,104.878663 C196.62954,104.302 197.07909,102.489631 197.365168,100.883213 C198.713819,92.8923111 194.422656,87.7847246 180.609196,80.8235784 C178.770126,79.9173937 175.418932,78.3933558 173.865939,77.7343123 C173.416389,77.5695515 172.190342,77.0340787 171.127768,76.5809863 C170.065194,76.0867038 168.920884,75.7159918 168.593938,75.7159918 C168.266992,75.7159918 167.85831,75.5100408 167.735706,75.3040897 C167.613101,75.0569484 167.204419,74.8921876 166.836605,74.8921876 C166.509659,74.8921876 165.651426,74.6450463 164.956666,74.3155246 C164.221038,73.9860029 160.706371,72.7502964 157.109967,71.5969704 C153.513564,70.4024542 150.284974,69.2903184 149.91716,69.1255576 C149.549346,68.9196065 148.52764,68.631275 147.669408,68.4665142 C146.770307,68.3429435 145.912074,68.054612 145.666865,67.8898512 C145.462524,67.7250903 144.604291,67.4367588 143.827795,67.3131882 C143.051298,67.1484273 142.029593,66.8600958 141.580042,66.6541447 C141.130492,66.4893839 139.945313,66.118672 138.923608,65.8303405 C137.901902,65.5831992 136.34891,65.171297 135.449809,64.965346 C134.550708,64.7182047 133.447266,64.3474928 132.997715,64.1827319 C132.548165,63.9767808 131.526459,63.6884493 130.749963,63.5236885 C129.973467,63.4001178 129.074366,63.1117863 128.706552,62.9470255 C128.379606,62.7822646 126.704009,62.2056016 125.028412,61.7113191 C123.352814,61.2170365 121.677217,60.6815637 121.350271,60.5168029 C120.982457,60.3108518 120.083356,60.0225203 119.30686,59.8577594 C118.530364,59.6929986 117.712999,59.4458573 117.46779,59.2810964 C117.263449,59.1163356 115.669588,58.5396726 113.993991,58.0041998 C112.318394,57.5099172 110.765401,56.9332542 110.520192,56.7684934 C110.315851,56.6037325 108.926331,56.0682597 107.455075,55.532787 C105.983819,54.9973142 104.635168,54.4206512 104.430827,54.2147001 C104.185617,54.0499392 103.776935,53.8851784 103.449989,53.8851784 C102.632625,53.8851784 98.7910118,52.1139992 89.0643745,47.3359344 C82.2393811,43.9583368 75.9456746,40.4983588 74.556155,39.386223 C74.3518139,39.2214622 72.6762167,38.1093264 70.8780148,36.9148102 C69.079813,35.720294 67.445084,34.6081582 67.1998747,34.4433974 C66.9955336,34.2786365 65.0747271,32.836979 62.9495794,31.2305607 C55.5524309,25.6698818 44.804088,15.2487576 40.2677151,9.19379614 C39.4094824,8.04047014 38.6738544,7.09309522 38.6329862,7.01071479 C38.5512497,6.96952458 38.4286451,7.05190501 38.3060404,7.17547565 L38.3060404,7.17547565 Z M221.068738,131.981824 C225.237297,133.382292 226.585948,134.453237 227.566785,136.96584 C228.547623,139.396063 226.912894,139.972726 224.910351,137.872025 C224.256459,137.171791 223.071281,136.224416 222.294784,135.730134 C221.518288,135.235851 220.619187,134.617998 220.33311,134.329666 C220.047032,134.041335 219.556613,133.794194 219.229668,133.794194 C218.698381,133.794194 218.207962,132.929199 218.207962,131.899444 C218.207962,131.15802 218.780117,131.15802 221.068738,131.981824 Z M8.9626556,33.1253105 C8.9626556,33.5784029 12.4364546,40.4983588 13.049478,41.2397827 C13.2946873,41.5281142 14.15292,42.64025 14.9702845,43.7935759 C17.9536649,47.8302169 22.6126424,52.649472 28.8246124,58.0041998 C30.3776049,59.3634769 34.6279002,62.5763136 35.9765516,63.4413081 C36.5487068,63.81202 37.2843348,64.388683 37.6112806,64.6770145 C37.9382264,65.0065362 38.9190637,65.7067698 39.8181647,66.2422426 C40.7172656,66.7777154 41.5346301,67.3543784 41.6572347,67.477949 C41.9024441,67.8074707 53.9585701,75.0157582 57.8001832,77.1576493 C60.8244318,78.8876383 64.0938897,80.5352469 75.5778606,86.1783062 C82.3211175,89.5147136 83.5880325,90.173757 88.5330876,93.1806426 C92.252096,95.4461044 98.2188567,100.141789 101.202237,103.148674 C102.877834,104.837473 104.308222,106.19675 104.389958,106.19675 C104.512563,106.19675 104.34909,105.743658 104.103881,105.166995 C103.858672,104.590332 103.490858,104.13724 103.286516,104.13724 C103.123044,104.13724 102.959571,103.890098 102.959571,103.601767 C102.959571,103.272245 102.591757,102.572011 102.142206,102.036539 C101.692656,101.501066 101.202237,100.842022 101.038764,100.636071 C98.0553838,96.6818108 95.6032903,94.2927784 88.0835371,87.867105 C87.0618315,86.9609203 80.3185746,82.3476163 77.1717213,80.370486 C74.6787597,78.7640677 69.6519681,75.9219429 64.5434401,73.1621986 C63.3173934,72.4619649 62.1322149,71.7617313 61.8870056,71.5969704 C61.5191916,71.3086389 59.7618579,70.361264 53.9177019,67.1484273 C50.2395618,65.171297 40.9216067,59.3634769 39.4094824,58.1277704 C39.2051413,57.9218194 38.2651722,57.3039662 37.3660712,56.7684934 C36.4669703,56.2330206 35.5678694,55.6151674 35.32266,55.4504065 C35.1183189,55.2856457 32.9114348,53.6380371 30.4184732,51.7844775 C27.9663797,49.9309178 25.8412321,48.2833093 25.7186274,48.1597386 C25.5960227,47.9949778 24.6151854,47.1711735 23.4708751,46.306179 C21.1822546,44.57619 18.2397424,41.8576359 12.7634004,36.4205276 C10.679121,34.3610169 8.9626556,32.8781692 8.9626556,33.1253105 L8.9626556,33.1253105 Z M55.388958,106.896984 C54.9802757,107.308886 61.8461374,113.734559 66.3825102,117.153347 C68.6302625,118.842146 70.6736737,120.366184 70.8780148,120.530945 C71.9405887,121.354749 75.6187288,123.49664 75.9456746,123.49664 C76.1500157,123.49664 76.5995662,123.743781 76.8856438,123.990923 C77.1717213,124.279254 78.0708223,124.814727 78.8473185,125.226629 C84.2827923,127.821613 86.6122811,128.851368 87.1844362,128.851368 C87.511382,128.851368 87.879196,129.016129 88.0018007,129.18089 C88.3287465,129.716362 101.202237,133.794194 102.632625,133.794194 C103.041307,133.794194 103.695199,133.958955 104.103881,134.206096 C104.471695,134.412047 105.616005,134.782759 106.637711,134.98871 C110.193246,135.771324 112.154921,136.265607 112.972285,136.636318 C113.421836,136.84227 115.17917,137.418933 116.854767,137.954405 C118.530364,138.489878 120.083356,139.025351 120.328566,139.231302 C120.532907,139.396063 120.941589,139.560824 121.268535,139.560824 C121.595481,139.560824 122.412845,139.807965 123.107605,140.137487 C129.809994,143.061992 131.608196,143.762225 131.853405,143.556274 C131.97601,143.391514 131.567327,142.856041 130.913436,142.361758 C129.89173,141.537954 128.093528,139.931536 124.211047,136.265607 C123.598024,135.688944 122.494582,134.700378 121.758954,134.041335 C119.715542,132.270156 111.133215,125.844482 109.294145,124.732347 C108.395044,124.196874 107.57768,123.620211 107.455075,123.49664 C107.332471,123.331879 106.964657,123.084738 106.637711,122.919977 C106.310765,122.755216 104.921245,122.013792 103.572594,121.231178 C101.038764,119.748331 95.8484997,117.153347 92.9468558,115.917641 C92.0477548,115.546929 91.0260492,115.052646 90.6991035,114.887885 C90.3312894,114.681934 89.4730567,114.393603 88.7374287,114.270032 C88.0426689,114.105271 87.3479091,113.77575 87.2253044,113.569799 C87.0618315,113.363847 86.5714128,113.199087 86.0809941,113.199087 C85.1818932,113.240277 85.1818932,113.240277 85.9992577,113.693369 C86.4488082,113.94051 86.8983586,114.270032 87.0209633,114.434793 C87.143568,114.558364 88.0426689,115.176217 89.0643745,115.79407 C91.2303904,117.070967 95.1946081,120.613325 95.1946081,121.272369 C95.1946081,121.51951 94.9085305,121.972602 94.5815847,122.260934 C94.091166,122.672836 92.9059875,122.631646 88.6556923,122.096173 C85.7131801,121.725461 82.8932727,121.231178 82.402854,121.025227 C81.9124353,120.860466 80.4820475,120.366184 79.2560008,119.995472 C72.8805578,118.059532 60.0479355,110.892435 56.3289271,107.226506 C55.9611131,106.896984 55.5524309,106.732223 55.388958,106.896984 L55.388958,106.896984 Z" id="Shape"></path>
                <path d="M125.139154,128.843684 C132.751089,135.884543 152.249041,155.901869 153.470207,157.86676 C153.958673,158.603594 153.388796,159.422299 152.452569,159.422299 C152.004808,159.381364 150.865053,159.053882 149.969531,158.603594 C149.074009,158.153307 148.219193,157.825825 148.056371,157.78489 C147.527199,157.78489 143.497351,155.20597 142.439007,154.223525 C141.217841,153.077339 140.566552,152.995468 141.299252,154.059784 C142.479712,155.779064 148.382015,161.632801 152.086219,164.825749 C153.755146,166.258482 158.192049,169.328624 159.698154,170.065458 C162.140486,171.293515 162.384719,171.498191 162.384719,172.27596 C162.384719,172.971859 162.181192,173.012794 160.145915,172.767183 C158.924749,172.644377 157.90711,172.644377 157.90711,172.849053 C157.90711,173.1356 160.308737,174.322722 163.19883,175.427973 C165.315518,176.287613 171.217821,176.164807 172.886748,175.264232 C173.619447,174.85488 174.637086,174.568333 175.084847,174.650203 C175.980368,174.773009 176.061779,174.895815 177.323651,177.638475 C178.870461,180.995164 182.452549,185.620844 183.470187,185.620844 C183.673715,185.620844 184.08077,185.866456 184.325003,186.193938 C184.81347,186.767031 190.390128,188.281634 190.715772,187.954152 C190.837889,187.831347 190.064484,187.094513 189.046845,186.275808 C186.197458,184.106241 184.81347,182.05948 184.772764,180.053653 C184.772764,177.884086 185.668286,176.123872 187.540741,174.650203 C190.268011,172.562507 191.936938,171.989414 195.926081,171.948478 C199.182524,171.948478 199.833812,172.030349 201.258506,172.930924 C202.154028,173.463082 203.130961,174.199916 203.4159,174.568333 C204.189305,175.509843 205.532587,178.62092 205.532587,179.521495 C205.532587,180.913293 206.305993,180.3402 206.590931,178.743726 C207.160809,175.632649 206.997987,172.27596 206.224581,171.375385 C205.125532,170.147328 202.154028,169.369559 197.595008,169.042077 C189.820251,168.550855 185.871814,167.240927 182.371137,164.04798 C178.748345,160.773161 178.911167,160.404744 184.08077,160.159133 C187.744268,159.954457 190.878594,159.299493 193.524454,158.194242 C193.972215,157.989566 195.274792,157.416473 196.373842,156.966185 C197.513597,156.474962 199.874518,155.369711 201.665561,154.510072 C208.504091,151.235253 212.696762,150.252808 219.698114,150.252808 C224.786306,150.252808 226.129589,149.966261 224.257134,149.393168 C223.809373,149.270362 223.443023,148.942881 223.443023,148.738204 C223.443023,148.533528 223.280201,148.369787 223.076673,148.369787 C222.751029,148.369787 219.250353,146.241156 217.90707,145.217775 C217.296487,144.726552 215.016977,143.498495 211.841945,141.942957 C210.295135,141.165187 208.666914,140.346483 208.300564,140.141807 C207.893508,139.937131 207.405042,139.77339 207.201514,139.77339 C206.997987,139.77339 206.305993,139.568714 205.654704,139.282167 C203.985777,138.586268 201.258506,137.808499 198.002063,137.030729 C193.850099,136.048284 178.259878,136.089219 171.339937,137.030729 C161.041437,138.463462 159.250393,138.627203 154.44714,138.422527 C149.52177,138.217851 147.730726,137.890369 142.846062,136.416701 C139.874558,135.516126 139.345386,135.31145 136.699526,134.083393 C135.681888,133.633106 134.704955,133.223753 134.582838,133.223753 C134.420016,133.223753 133.117439,132.486919 131.65204,131.586344 C130.18664,130.685769 128.884063,129.948935 128.802652,129.948935 C128.599125,129.948935 125.17986,127.615627 123.063172,125.978218 C120.295195,123.890521 121.312834,125.282319 125.139154,128.843684 L125.139154,128.843684 Z" id="Shape"></path>
            </g>
        </g>
    </g>
</svg>