<?xml version="1.0" encoding="UTF-8"?>
<svg width="240px" height="241px" viewBox="0 0 240 241" version="1.1" xmlns="http://www.w3.org/2000/svg" xmlns:xlink="http://www.w3.org/1999/xlink">
    <title>csharp</title>
    <g id="Page-1" stroke="none" stroke-width="1" fill="none" fill-rule="evenodd">
        <g id="csharp" transform="translate(-153, 36.6263)">
            <rect id="box" x="153" y="-36" width="240" height="240"></rect>
            <g id="shape" transform="translate(167, -36)" fill-rule="nonzero">
                <path d="M212.989166,70.5600888 C212.987499,66.5246164 212.126605,62.9586959 210.385649,59.8982539 C208.675529,56.8887774 206.114515,54.3663983 202.679273,52.3720561 C174.32311,35.9803518 145.939444,19.6387775 117.592448,3.23036308 C109.950243,-1.19278199 102.540554,-1.03153019 94.9550203,3.45511299 C83.6683921,10.1282636 27.160246,42.5849913 10.3215602,52.3628656 C3.38690518,56.3874765 0.0125008803,62.5467937 0.0108340963,70.5525693 C0,103.517282 0.0108340963,136.481159 0,169.446707 C0,173.393616 0.825891495,176.89019 2.49017536,179.90468 C4.20112919,183.005226 6.79797873,185.596952 10.3123929,187.636411 C27.1519121,197.414285 83.6675587,229.868506 94.9516867,236.543328 C102.540554,241.032478 109.950243,241.192894 117.594948,236.768078 C145.942778,220.358828 174.32811,204.018089 202.688441,187.626385 C206.202855,185.587761 208.799704,182.994364 210.510658,179.896325 C212.172442,176.881835 213,173.385261 213,169.437517 C213,169.437517 213,103.525637 212.989166,70.5600888" id="Path" fill="#A179DC"></path>
                <path d="M107.325408,119 L3,179.065311 C4.71078535,182.157569 7.3073792,184.742368 10.8214473,186.776375 C27.6593084,196.528114 84.1693903,228.895587 95.4524072,235.552567 C103.040528,240.029718 110.449487,240.189705 118.093439,235.776717 C146.438477,219.411328 174.821015,203.114267 203.178553,186.766376 C206.692621,184.733202 209.289215,182.146737 211,179.056978 L107.325408,119" id="Path" fill="#280068"></path>
                <path d="M212.989184,70.6620063 C212.98752,66.6264691 212.128038,63.0604913 210.389937,60 L107,119.781095 L210.514741,180 C212.173799,176.985462 212.998336,173.488832 213,169.541024 C213,169.541024 213,103.628084 212.989184,70.6620063" id="Path" fill="#390091"></path>
                <path d="M167.875,97 L167.875,108.25 L179.124999,108.25 L179.124999,97 L184.749999,97 L184.749999,108.25 L196,108.25 L196,113.875 L184.749999,113.875 L184.749999,125.125 L196,125.125 L196,130.75 L184.749999,130.75 L184.749999,142 L179.124999,142 L179.124999,130.75 L167.875,130.75 L167.875,142 L162.25,142 L162.25,130.75 L151,130.75 L151,125.125 L162.25,125.125 L162.25,113.875 L151,113.875 L151,108.25 L162.25,108.25 L162.25,97 L167.875,97 Z M179.124999,113.875 L167.875,113.875 L167.875,125.125 L179.124999,125.125 L179.124999,113.875 Z" id="Shape" fill="#FFFFFF"></path>
                <path d="M107.295951,40 C136.63008,40 162.241154,55.9722179 175.959003,79.7132354 L175.825144,79.4847211 L141.311929,99.4084947 C134.512003,87.8654253 122.046066,80.0756953 107.746375,79.9152731 L107.295951,79.9127477 C85.4892137,79.9127477 67.8100707,97.6365519 67.8100707,119.499531 C67.8100707,126.649188 69.711305,133.351113 73.0176776,139.139777 C79.823816,151.052436 92.6186089,159.087253 107.295951,159.087253 C122.063917,159.087253 134.931582,150.950338 141.703153,138.910291 L141.538612,139.199263 L176,159.214884 C162.432628,182.754881 137.172417,198.677803 108.17924,198.995168 L107.295951,199 C77.8693285,199 52.1853817,182.929431 38.5021005,159.062899 C31.8220881,147.411572 28,133.903752 28,119.499531 C28,75.5937296 63.5012292,40 107.295951,40 Z" id="Path" fill="#FFFFFF"></path>
            </g>
        </g>
    </g>
</svg>