<?xml version="1.0" encoding="UTF-8"?>
<svg width="180px" height="180px" viewBox="0 0 180 180" version="1.1" xmlns="http://www.w3.org/2000/svg" xmlns:xlink="http://www.w3.org/1999/xlink">
    <title>ctool</title>
    <g id="Page-1" stroke="none" stroke-width="1" fill="none" fill-rule="evenodd">
        <g id="ctool">
            <rect id="box" fill="#1ABC9C" x="0" y="0" width="180" height="180" rx="32"></rect>
            <path d="M33,128.433931 C33,136.127243 39.5461538,142 48.1564103,142 L132.84359,142 C141.453846,142 148,136.127243 148,128.433931 L148,70 L33,70 L33,128.433931 Z M111.95137,90.2542866 C113.509153,88.9022087 115.546255,88.4907067 117.044124,89.7839986 L132.442216,101.07091 C133.340938,101.482412 133.940085,102.364202 134,103.304777 C133.88017,104.245353 133.520682,105.185929 132.981449,106.008933 L117.583357,119.11821 C116.085488,120.29393 113.988471,120.29393 112.490602,119.11821 C110.932819,117.766132 110.932819,115.532264 112.490602,114.591688 L124.833042,104.186567 L112.490602,94.7220222 C110.872904,93.3699443 110.393586,91.6063644 111.95137,90.2542866 Z M94.8352737,89.7785832 C95.855618,88.0217846 97.8963066,87.5533049 99.9369951,88.4317042 C101.977684,89.3101035 102.517866,91.1254621 101.497522,92.9408207 L86.072317,117.243201 C85.3520739,118.238721 84.2116892,118.88288 83.0112841,119 C82.5311221,119 81.4507576,119 80.9705956,118.53152 C79.410069,117.711681 78.3897247,115.954882 79.410069,114.080964 L94.8352737,89.7785832 Z M64.988938,88.8335198 C66.553413,87.5790721 68.8399536,87.7582789 70.1035681,89.2516691 C71.2468383,90.3269099 71.3070104,92.1787137 70.2239123,93.3136901 C70.0433959,93.492897 69.8628796,93.6721038 69.6221911,93.791575 L57.2267346,102.931122 L69.6221911,113.504324 C70.8858056,114.460094 71.1866662,116.192427 70.2239123,117.50661 C70.2239123,117.50661 70.2239123,117.566345 70.1637402,117.566345 C69.9832238,117.745552 69.8628796,117.924759 69.6221911,118.103966 C68.1178881,119.298678 66.011864,119.298678 64.507561,118.103966 L49.0433264,104.782926 C48.321261,104.066099 47.9000562,103.050594 48.0204004,102.035088 C48.0204004,101.676675 48.5017774,101.19879 49.5848755,100.302756 L64.988938,88.8335198 Z M48.1564103,38 C39.5461538,38 33,43.8441558 33,51.5 L33,65 L148,65 L148,51.5 C148,43.8441558 141.453846,38 132.84359,38 L48.1564103,38 L48.1564103,38 Z M59,56 L49,56 L49,47 L59,47 L59,56 Z M78.9418605,56 L69,56 L69,47 L79,47 L79,56 L78.9418605,56 Z M98.9418605,56 L89,56 L89,47 L99,47 L99,55.9419355 L98.9418605,55.9419355 L98.9418605,56 Z" id="Shape" fill="#FFFFFF" fill-rule="nonzero"></path>
        </g>
    </g>
</svg>