<?xml version="1.0" encoding="UTF-8"?>
<svg width="240px" height="240px" viewBox="0 0 240 240" version="1.1" xmlns="http://www.w3.org/2000/svg" xmlns:xlink="http://www.w3.org/1999/xlink">
    <title>dai</title>
    <g id="Page-1" stroke="none" stroke-width="1" fill="none" fill-rule="evenodd">
        <g id="dai" fill-rule="nonzero">
            <path d="M120,0 C186.280263,0 240,53.7305373 240,120 C240,186.280263 186.280263,240 120,240 C53.7305373,240 0,186.274863 0,120 C0,53.7305373 53.7305373,0 120,0 Z" id="Path" fill="#F5AC37"></path>
            <path d="M124.846342,128.025003 L170.386402,128.025003 C171.357175,128.025003 171.815596,128.025003 171.885708,126.746336 C172.257837,122.092205 172.257837,117.410984 171.885708,112.751435 C171.885708,111.846616 171.438073,111.472768 170.461907,111.472768 L79.8294219,111.472768 C78.7076392,111.472768 78.4056208,111.846616 78.4056208,112.903141 L78.4056208,126.296635 C78.4056208,128.025003 78.4056208,128.025003 80.2015517,128.025003 L124.846342,128.025003 L124.846342,128.025003 Z M166.799934,95.8199347 C166.92937,95.4785956 166.92937,95.1047481 166.799934,94.7688271 C166.039494,93.1054766 165.138832,91.5179791 164.092554,90.0280071 C162.517744,87.4815095 160.662488,85.1354808 158.548359,83.0278477 C157.55062,81.7545988 156.396478,80.6113839 155.102114,79.6415476 C148.619505,74.0988517 140.912642,70.1761618 132.628709,68.2039806 C128.44899,67.2612347 124.177587,66.811534 119.895398,66.8494606 L79.6730195,66.8494606 C78.5512369,66.8494606 78.4002277,67.2991612 78.4002277,68.2798337 L78.4002277,94.9909684 C78.4002277,96.1179291 78.4002277,96.4213416 79.8240287,96.4213416 L166.260615,96.4213416 C166.260615,96.4213416 167.010268,96.2696353 167.161277,95.8199347 L166.79454,95.8199347 L166.799934,95.8199347 Z M166.799934,143.677836 C165.527142,143.536966 164.243564,143.536966 162.970772,143.677836 L79.9049265,143.677836 C78.7831438,143.677836 78.4056208,143.677836 78.4056208,145.184062 L78.4056208,171.299208 C78.4056208,172.502022 78.4056208,172.805434 79.9049265,172.805434 L118.25587,172.805434 C120.089553,172.946304 121.923236,172.81627 123.719167,172.431587 C129.284934,172.030649 134.759018,170.816999 139.979621,168.817727 C141.878023,168.156722 143.711706,167.295247 145.442918,166.260394 L145.966057,166.260394 C154.956498,161.562918 162.258871,154.183493 166.864652,145.124463 C166.864652,145.124463 167.387791,143.986666 166.799934,143.688672 L166.799934,143.677836 Z M63.3532397,186.345216 L63.3532397,185.895516 L63.3532397,168.362609 L63.3532397,162.418975 L63.3532397,144.734361 C63.3532397,143.753689 63.3532397,143.607401 62.1559525,143.607401 L45.900891,143.607401 C45.000229,143.607401 44.6280992,143.607401 44.6280992,142.404587 L44.6280992,128.106274 L62.0049433,128.106274 C62.9757167,128.106274 63.3532397,128.106274 63.3532397,126.827607 L63.3532397,112.681 C63.3532397,111.77618 63.3532397,111.554039 62.1559525,111.554039 L45.900891,111.554039 C45.000229,111.554039 44.6280992,111.554039 44.6280992,110.351225 L44.6280992,97.1094377 C44.6280992,96.2804715 44.6280992,96.0583302 45.8253864,96.0583302 L61.9294387,96.0583302 C63.0512213,96.0583302 63.3532397,96.0583302 63.3532397,94.6279571 L63.3532397,54.0682097 C63.3532397,52.865396 63.3532397,52.5619835 64.8525453,52.5619835 L121.027967,52.5619835 C125.105215,52.7245259 129.155498,53.1742265 133.162635,53.9165035 C141.419602,55.4498201 149.352978,58.4135099 156.606813,62.6450305 C161.417534,65.4895225 165.84534,68.9245853 169.787758,72.8797837 C172.75401,75.9735074 175.429031,79.3218809 177.802032,82.8869776 C180.158854,86.500837 182.116581,90.3639281 183.653639,94.4003977 C183.8424,95.4515052 184.845533,96.1612737 185.891811,95.9824771 L199.29927,95.9824771 C201.019696,95.9824771 201.019696,95.9824771 201.095201,97.6404096 L201.095201,109.982796 C201.095201,111.18561 200.647567,111.489022 199.444886,111.489022 L189.106149,111.489022 C188.059871,111.489022 187.757853,111.489022 187.833358,112.843542 C188.24324,117.427238 188.24324,122.027188 187.833358,126.610884 C187.833358,127.889551 187.833358,128.041257 189.262552,128.041257 L201.089808,128.041257 C201.612947,128.718517 201.089808,129.395777 201.089808,130.078455 C201.165312,130.950766 201.165312,131.833913 201.089808,132.706224 L201.089808,141.814016 C201.089808,143.092683 200.717678,143.471949 199.590502,143.471949 L185.43339,143.471949 C184.446437,143.282316 183.48645,143.916231 183.259936,144.902322 C179.889195,153.706702 174.496009,161.600845 167.528014,167.929162 C164.98243,170.231846 162.30741,172.399078 159.51374,174.39835 C156.515128,176.132135 153.597415,177.936356 150.523299,179.366729 C144.865848,181.924063 138.933343,183.809555 132.844437,185.006951 C127.062942,186.047222 121.200549,186.518595 115.316583,186.437324 L63.331667,186.437324 L63.331667,186.361471 L63.3532397,186.345216 Z" id="Shape" fill="#FEFEFD"></path>
        </g>
    </g>
</svg>