<?xml version="1.0" encoding="UTF-8"?>
<svg width="240px" height="241px" viewBox="0 0 240 241" version="1.1" xmlns="http://www.w3.org/2000/svg" xmlns:xlink="http://www.w3.org/1999/xlink">
    <title>dart</title>
    <defs>
        <radialGradient cx="49.9963273%" cy="49.9973553%" fx="49.9963273%" fy="49.9973553%" r="50.07418%" gradientTransform="translate(0.5, 0.5), scale(0.9984, 1), translate(-0.5, -0.5)" id="radialGradient-1">
            <stop stop-color="#FFFFFF" stop-opacity="0.1" offset="0%"></stop>
            <stop stop-color="#FFFFFF" stop-opacity="0" offset="100%"></stop>
        </radialGradient>
    </defs>
    <g id="Page-1" stroke="none" stroke-width="1" fill="none" fill-rule="evenodd">
        <g id="dart" transform="translate(0, 0.6263)">
            <rect id="box" x="0" y="0" width="240" height="240"></rect>
            <g id="shape" fill-rule="nonzero">
                <path d="M49,190.703043 L7.90778098,149.718315 C3.03602305,144.71846 0,137.67641 0,130.792807 C0,127.60628 1.80043228,122.62403 3.15958213,119.754394 L41.092219,40.9362553 L49,190.703043 Z" id="Path" fill="#01579B"></path>
                <path d="M189,48.9238173 L148.0657,7.89548637 C144.496258,4.30022026 137.04087,0 130.74599,0 C125.330284,0 120.020078,1.09267892 116.57372,3.15466978 L41,41.028331 L189,48.9238173 Z" id="Path" fill="#40C4FF"></path>
                <polygon id="Path" fill="#40C4FF" points="97.587666 239.62686 197 239.62686 197 197.2605 122.837201 173.729474 55 197.2605"></polygon>
                <path d="M41,168.370982 C41,180.986194 42.5837563,184.096072 48.8835871,190.403679 L55.1834179,196.693715 L197,196.693715 L127.666667,118.033123 L41,40.9362553 L41,168.370982 Z" id="Path" fill="#29B6F6"></path>
                <path d="M167.352566,40.9362553 L41,40.9362553 L197.353363,196.693715 L240,196.693715 L240,99.1454446 L189.469556,48.8075855 C182.37942,41.7093324 176.06532,40.9362553 167.352566,40.9362553 Z" id="Path" fill="#01579B"></path>
                <path d="M50.3333333,191.967936 C44.1226766,185.643473 42.5613383,179.424418 42.5613383,168.374177 L42.5613383,42.517371 L41,40.9362553 L41,168.356609 C41.0173482,179.424418 41.0173482,182.481242 50.3333333,191.967936 L55,196.693715 L55,196.693715 L50.3333333,191.967936 Z" id="Path" fill="#FFFFFF" opacity="0.2"></path>
                <polygon id="Path" fill="#263238" opacity="0.2" points="238.421053 97.8476347 238.421053 195.134186 196 195.134186 197.578947 196.693715 240 196.693715 240 99.4246861"></polygon>
                <path d="M189,48.9238173 C181.192943,41.0075729 174.792563,40.9362553 165.38541,40.9362553 L41,40.9362553 L42.5825116,42.5408995 L165.402994,42.5408995 C170.080195,42.5408995 181.949032,41.7385774 189,48.9238173 L189,48.9238173 Z" id="Path" fill="#FFFFFF" opacity="0.2"></path>
                <path d="M238.360511,97.7379025 L189.422653,48.8689513 L148.382547,7.88663191 C144.803878,4.29539773 137.32922,0 131.01807,0 C125.588365,0 120.264434,1.09145352 116.809167,3.15113194 L41.0401058,40.9823194 L3.15557514,119.795826 C1.79814896,122.665293 0,127.64725 0,130.83359 C0,137.716789 3.03217276,144.758424 7.89775231,149.757986 L45.7293962,187.254695 C46.6284707,188.363753 47.6862054,189.490415 48.955487,190.740305 L50.542089,192.324673 L55.2842662,197.060173 L96.324372,238.042492 L97.910974,239.62686 L195.78669,239.62686 L197.373292,239.62686 L197.373292,197.060173 L240,197.060173 L240,196.954549 L240,99.3222706 L238.360511,97.7379025 Z" id="Path" fill="url(#radialGradient-1)" opacity="0.2"></path>
            </g>
        </g>
    </g>
</svg>