<?xml version="1.0" encoding="UTF-8"?>
<svg width="240px" height="240px" viewBox="0 0 240 240" version="1.1" xmlns="http://www.w3.org/2000/svg" xmlns:xlink="http://www.w3.org/1999/xlink">
    <title>datacamp</title>
    <g id="Page-1" stroke="none" stroke-width="1" fill="none" fill-rule="evenodd">
        <g id="datacamp" transform="translate(54, 40.0012)">
            <rect id="box" fill="#03EF62" x="-54" y="-40" width="240" height="240" rx="32"></rect>
            <path d="M59.0000009,39.3687135 L59.0000009,77.7625596 L18.0000009,100.998799 L18.0000009,15.9987989 L59.0000009,39.3629015 L59.0000009,39.3687135 Z M72.3891205,121.027297 L72.3891205,86.0867223 L128.000001,54.6607414 L114.471143,46.9861366 L72.3891205,70.76685 L72.3891205,35.7089269 C72.3727909,33.3132581 71.0848845,31.1100198 69.0141796,29.935371 L18.3551523,1.17907286 C15.2692808,-0.489788566 11.5370172,-0.382581419 8.55036697,1.46070973 C5.71658035,3.22094018 3.9941967,6.30134347 4.00000086,9.61644415 L4.00000086,108.154145 C4.00000086,111.490915 5.72090355,114.587536 8.54454811,116.327481 C11.3841536,118.093579 14.9452982,118.287205 17.9536507,116.832081 L18.3376957,116.638456 L58.9184511,93.6967853 L58.9184511,124.952611 C58.9300888,127.340657 60.2218766,129.546812 62.3108486,130.737901 L114.389679,159.998799 L127.918537,152.318327 L72.3891205,121.021429 L72.3891205,121.027297 Z" id="Shape" fill="#000000"></path>
        </g>
    </g>
</svg>