<?xml version="1.0" encoding="UTF-8"?>
<svg width="240px" height="240px" viewBox="0 0 240 240" version="1.1" xmlns="http://www.w3.org/2000/svg" xmlns:xlink="http://www.w3.org/1999/xlink">
    <title>datadog</title>
    <g id="Page-1" stroke="none" stroke-width="1" fill="none" fill-rule="evenodd">
        <g id="datadog" transform="translate(0, -1)">
            <rect id="ViewBox" x="0" y="1" width="240" height="240"></rect>
            <path d="M13.6216677,26.3168264 L201.21289,3.28352054 L226.439844,208.740574 L116.2411,222.271278 L112.585934,201.365378 L101.027461,202.956728 C101.099915,217.602086 97.7891484,227.207804 91.0951596,231.77388 C86.4215786,234.961804 80.1597924,237.79127 73.3123677,236.326351 C71.3389216,235.904157 68.3427158,234.180101 64.32375,231.154184 C60.1813099,223.962082 57.1683932,219.384 55.285,217.419936 C54.2476258,216.338129 49.7979513,214.521022 48.8809801,213.919384 C45.4668132,211.679297 41.3535562,209.953027 36.5412093,208.740574 L13.6216677,26.3168264 Z" id="Shape" fill="#FFFFFF" fill-rule="nonzero"></path>
            <path d="M195.348265,171.808208 L175.300701,158.643202 L158.577395,186.450873 L139.126086,180.79147 L122,206.810717 L122.876795,215 L216,197.918495 L210.591484,140 L195.348265,171.808208 Z M109,146.698501 L123.818271,144.654529 C126.215011,145.735139 127.882611,146.147259 130.757304,146.880499 C135.2368,148.047733 140.415781,149.170343 148.089186,145.29327 C149.87453,144.405157 153.596105,140.992702 155.099737,139.045853 L215.80755,128 L222,203.1965 L117.991263,222 L109,146.698501 Z M222.35925,119.292143 L216.347125,120.438561 L204.79625,1 L8,23.8390329 L32.24625,220.767232 L55.285,217.419936 C53.444,214.790794 50.57925,211.609899 45.688875,207.539195 C38.905875,201.899062 41.301625,192.314341 45.307375,186.262584 C50.602,176.03853 77.883625,163.045207 76.3375,146.704587 C75.78275,140.762305 74.84125,133.030769 69.327875,127.726943 C69.119625,129.928696 69.494125,132.04287 69.494125,132.04287 C69.494125,132.04287 67.2305,129.15274 66.104375,125.216033 C64.98525,123.702656 64.105,123.221843 62.914125,121.202256 C62.0645,123.536255 62.177375,126.244219 62.177375,126.244219 C62.177375,126.244219 60.325875,121.867861 60.0275,118.172874 C58.931125,119.825503 58.6555,122.965235 58.6555,122.965235 C58.6555,122.965235 56.251875,116.065707 56.8005,112.347073 C55.704125,109.11363 52.45,102.694039 53.36875,88.1085163 C59.373,92.3184722 72.596875,91.3200637 77.747125,83.7207736 C79.456,81.2019815 80.631125,74.3322303 76.893125,60.7906578 C74.493875,52.1097584 68.552625,39.1812439 66.235625,34.2750293 L65.96,34.4764626 C67.1815,38.4280585 69.698,46.7087186 70.66575,50.7295024 C73.590875,62.9092106 74.373125,67.1533227 73.001125,72.7706843 C71.833,77.6541281 69.033,80.8455322 61.935875,84.4170321 C54.83875,87.9990417 45.41675,79.280483 44.8235,78.7996705 C37.92675,73.2996657 32.591,64.3315049 31.99775,59.9700361 C31.377375,55.2004459 34.74525,52.3365898 36.441875,48.4375418 C34.012,49.1294214 31.305625,50.3660467 31.305625,50.3660467 C31.305625,50.3660467 34.537,47.0187508 38.52,44.1251176 C40.172,43.032123 41.138875,42.3358645 42.8775,40.8907995 C40.361,40.849637 38.316125,40.9214524 38.316125,40.9214524 C38.316125,40.9214524 42.514375,38.6513867 46.864875,36.9978821 C43.6825,36.8586303 40.633125,36.9759871 40.633125,36.9759871 C40.633125,36.9759871 50,32.7809197 57.39725,29.7059966 C62.483625,27.6180967 67.45275,28.2346578 70.24575,32.2782123 C73.912,37.5732807 77.762,40.448522 85.921375,42.229893 C90.9325,40.0053688 92.452375,38.8668327 98.748875,37.1458917 C104.287625,31.0450902 108.638125,30.2577487 108.638125,30.2577487 C108.638125,30.2577487 106.480375,32.240553 105.902,35.3531354 C109.04325,32.8755058 112.4855,30.8068734 112.4855,30.8068734 C112.4855,30.8068734 111.151125,32.4516201 109.90775,35.0693772 L110.19475,35.5011451 C113.861,33.2993915 118.168625,31.5670652 118.168625,31.5670652 C118.168625,31.5670652 116.936625,33.1259837 115.49375,35.1411925 C118.259625,35.1184218 123.864,35.2585493 126.041,35.5046483 C138.886,35.7884065 141.550375,21.7774069 146.478375,20.0188066 C152.64975,17.8135499 155.408625,16.4779595 165.926125,26.8193699 C174.947375,35.7008268 181.998125,51.5877835 178.4955,55.1470223 C175.559,58.1019612 169.769125,53.9935977 163.351875,45.9896893 C159.962125,41.7499563 157.396625,36.7377704 156.194375,30.3680991 C155.182,24.9924575 151.236625,21.8763719 151.236625,21.8763719 C151.236625,21.8763719 153.523,26.9822681 153.523,31.4794855 C153.523,33.9387233 153.82925,43.1267091 157.76675,48.2860289 C157.377375,49.0392143 157.19625,52.0151724 156.764875,52.586192 C152.185125,47.0450247 142.3475,43.0811677 140.741875,41.9119787 C146.172125,46.3645304 158.651375,56.5920872 163.442875,66.4001373 C167.978,75.6713238 165.306625,84.1709332 167.599125,86.3683077 C168.253625,86.9962542 177.350125,98.3439552 179.100125,104.044518 C182.153875,113.977807 179.28125,124.421685 175.286875,130.896452 L164.127125,132.636661 C162.494375,132.182998 161.3945,131.956166 159.932375,131.109271 C160.740875,129.679094 162.343,126.116352 162.357875,125.378056 L161.727875,124.274551 C158.254125,129.198282 152.438,133.980133 147.605375,136.725757 C141.279125,140.315648 133.988625,139.759517 129.24175,138.291682 C115.772875,134.135149 103.03375,125.023358 99.961625,122.628053 C99.961625,122.628053 99.867125,124.538166 100.444625,124.969934 C103.83875,128.805925 111.620125,135.738733 119.143375,140.576636 L103.109,142.343118 L110.69,201.415623 C107.33,201.895559 106.805,202.133776 103.12825,202.655751 C99.8855,191.191569 93.684375,183.705257 86.904,179.343788 C80.926,175.497288 72.68,174.631124 64.78925,176.197049 L64.28175,176.787337 C69.76975,176.216317 76.247375,177.010665 82.90175,181.227627 C89.43275,185.362264 94.69675,196.040857 96.63575,202.466579 C99.118125,210.68243 100.834,219.47368 94.1525,228.789532 C89.402125,235.413184 75.5325,239.071388 64.32375,231.154184 C67.317125,235.972819 71.3605,239.910402 76.81,240.652202 C84.897625,241.753078 92.573125,240.345673 97.856375,234.917483 C102.364375,230.275759 104.760125,220.570178 104.130125,210.349627 L111.268375,209.313559 L113.846125,227.658878 L232,213.417544 L222.35925,119.292143 Z M150.859484,69.5943619 C150.527009,70.3455033 150,70.8404346 150.786976,73.2871094 L150.832957,73.4270194 L150.959404,73.74444 L151.287458,74.4772182 C152.704015,77.3436228 154.258515,80.0438844 156.863495,81.4263693 C157.53552,81.3121095 158.233188,81.2377824 158.956498,81.2033879 C161.400546,81.0984554 162.943551,81.4788355 163.917102,82 C164.005527,81.5173108 164.023211,80.8142634 163.970157,79.7763066 C163.77916,76.1465185 164.69612,69.9756164 157.642513,66.7270828 C154.980941,65.5072432 151.245014,65.8815022 150,67.4073948 C150.225482,67.4371257 150.427974,67.4825964 150.588906,67.5359371 C152.474996,68.1812716 151.199034,68.8231084 150.859484,69.5943619 M169.57733,103.314503 C168.675509,102.791807 164.45637,102.999083 161.489423,103.368575 C155.838589,104.065204 149.737276,106.108227 148.403099,107.19868 C145.97293,109.160595 147.075826,112.577949 148.872564,113.982922 C153.908089,117.910356 158.3214,120.545468 162.976348,119.903813 C165.835422,119.509988 168.358793,114.780485 170.144312,110.491669 C171.366301,107.537532 171.366301,104.349983 169.57733,103.314503 M119.510136,73.732623 C121.099094,72.1810721 111.58689,70.1436104 104.203062,75.3160369 C98.7580387,79.1307456 98.5831155,87.31157 103.797206,91.9485211 C104.224698,92.329004 104.676045,92.6802521 105.148337,93 C106.853233,92.1700326 108.608395,91.4536981 110.402927,90.8554433 C113.774723,89.7313876 116.581249,89.1498879 118.884549,88.8401088 C119.986651,87.5744397 121.27057,85.3466852 120.950021,81.3098206 C120.510559,75.8311553 116.476985,76.699422 119.510136,73.7335081" id="Shape" fill="#632CA6" fill-rule="nonzero"></path>
        </g>
    </g>
</svg>