<?xml version="1.0" encoding="UTF-8"?>
<svg width="240px" height="240px" viewBox="0 0 240 240" version="1.1" xmlns="http://www.w3.org/2000/svg" xmlns:xlink="http://www.w3.org/1999/xlink">
    <title>daytona</title>
    <g id="Page-1" stroke="none" stroke-width="1" fill="none" fill-rule="evenodd">
        <g id="daytona" fill="#FFFFFF" fill-rule="nonzero">
            <path d="M99.8753364,162.512406 L12.6315789,162.512406 L12.6315789,191.186441 L99.8753364,191.186441 L99.8753364,162.512406 Z M229.473684,62.1358116 L129.774292,62.1358116 L129.774292,90.818583 L229.473684,90.818583 L229.473684,62.1358116 Z M151.453976,0 L77.4262268,70.9774091 L98.5808918,91.2554208 L172.599589,20.2780116 L151.453976,0.00873675642 L151.453976,0 Z" id="Shape"></path>
            <path d="M21.1052552,88.1376704 L77.8436982,142.568019 L56.738443,162.816911 L0,108.386563 L21.1052552,88.1463946 L21.1052552,88.1376704 Z M92.6788134,240 L152.489083,182.629593 L131.374793,162.380701 L71.5645234,219.751108 L92.6788134,240 Z M218.88571,175.161669 L152.028309,111.038723 L173.142599,90.7898304 L240,154.912776 L218.88571,175.152944 L218.88571,175.161669 Z M77.391959,109.878403 L77.391959,40.6779661 L47.5500678,40.6779661 L47.5500678,109.878403 L77.4009938,109.878403 L77.391959,109.878403 Z" id="Shape"></path>
            <polygon id="Path" points="182.105263 227.79661 182.105263 141.355932 152.631579 141.355932 152.631579 227.79661 182.096345 227.79661"></polygon>
        </g>
    </g>
</svg>