<?xml version="1.0" encoding="UTF-8"?>
<svg width="240px" height="240px" viewBox="0 0 240 240" version="1.1" xmlns="http://www.w3.org/2000/svg" xmlns:xlink="http://www.w3.org/1999/xlink">
    <title>debian</title>
    <g id="Page-1" stroke="none" stroke-width="1" fill="none" fill-rule="evenodd">
        <g id="debian" transform="translate(0, 0)">
            <rect id="ViewBox" fill="#FFFFFF" x="0" y="0" width="240" height="240" rx="32"></rect>
            <path d="M133.041238,124.695 C130.232454,124.695 133.602995,126.095 137.261436,126.655 C138.24451,125.955 139.157365,125.115 140,124.345 C137.718254,124.845136 135.368944,124.963417 133.04826,124.695 M148.723,121 C150.333,118.509434 151.523,115.792453 152.013,113 C151.593,115.037736 150.613,116.773585 149.703,118.509434 C144.453,122.056604 149.213,116.471698 149.703,114.283019 C144.103,121.90566 148.933,118.811321 148.723,121 M154.170981,106.889493 C154.520981,101.842493 153.190981,103.382493 152.770981,105.342493 C153.260981,105.622493 153.680981,108.842493 154.170981,106.882493 M122.531024,37.08 C123.931024,37.36 125.681024,37.57 125.471024,37.92 C127.081024,37.57 127.431024,37.22 122.461024,37.08 M126.025,38.395 L124.975,38.605 L125.955,38.535 L125.955,38.395 M172.340367,108.406292 C172.481381,112.943205 170.930224,115.140772 169.661096,119.039681 L167.193346,120.322777 C165.219147,124.150797 167.404868,122.803901 165.994725,125.852139 C162.892411,128.61682 156.54677,134.500629 154.57257,135.074832 C153.155377,135.074832 155.55967,133.302601 155.912206,132.664597 C151.745234,135.500168 152.520813,136.917953 146.245678,138.690185 L146.034157,138.264849 C130.374523,145.637332 108.644226,131.034144 108.996762,111.029195 C108.785241,112.234312 108.503212,111.950755 108.150676,112.44698 C107.270231,102.031015 112.885946,92.1523665 122.259153,87.6286493 C130.898677,83.2556755 141.314686,84.6026159 148.572413,91.0313339 C143.999156,85.0665153 136.876239,81.6449875 129.387424,81.8157299 C121.067582,81.8866191 113.304747,87.2033138 110.695984,92.945344 C106.465556,95.6391359 105.972006,103.366065 104.138821,104.72005 C101.593513,123.158347 108.792291,131.105034 120.919517,140.462416 C122.82321,141.809312 121.483574,141.951091 121.765603,142.94354 C117.645252,140.978024 113.97277,138.178567 110.978012,134.720386 C112.599676,137.059732 114.291847,139.399077 116.618583,141.171309 C112.74069,139.895302 107.664177,131.955705 106.183527,131.601258 C112.74069,143.368876 132.835222,152.308012 143.277328,147.905789 C137.725529,148.301678 132.14961,147.627979 126.849167,145.920889 C124.522432,144.786661 121.420118,142.305537 121.913668,141.880201 C135.815798,147.760982 151.808017,145.472559 163.526976,135.925503 C166.629289,133.444379 170.084139,129.261913 171.071238,129.191023 C169.661096,131.45948 171.353267,130.325252 170.225153,132.310151 C173.327466,127.206124 168.81501,130.183473 173.468481,123.519883 L175.160652,125.859228 C174.526088,121.605872 180.378179,116.494757 179.814122,109.824077 C181.153758,107.697399 181.224265,111.950755 179.814122,116.700336 C181.858829,111.45453 180.378179,110.674748 180.871729,106.350503 C181.435786,107.768289 182.140858,109.327852 182.493393,110.816527 C181.224265,105.854279 183.903536,102.309815 184.467593,99.474245 C183.833029,99.1197987 182.493393,101.600923 182.211365,95.7171141 C182.211365,93.0942114 182.916436,94.2993289 183.198465,93.7322148 C182.634407,93.3777685 181.365279,91.4637584 180.519194,87.6286493 C181.083251,86.7070889 182.07035,89.967995 182.916436,90.0388842 C182.352379,87.0615352 181.506293,84.7221896 181.506293,82.382844 C179.109051,77.5623742 180.660208,83.0917366 178.686008,80.2561661 C176.288766,72.5221477 180.801222,78.4839346 181.083251,75.0103607 C184.890636,80.4688339 187.005849,88.904656 188,92.4491191 C187.294929,88.1957634 186.0258,83.9424077 184.545151,79.9726091 C185.673265,80.4688339 182.711965,71.1752517 186.0258,77.3497064 C181.638825,64.0637478 172.414806,52.9384799 160.20609,46.2080537 C161.475218,47.4131711 163.167389,48.9727349 162.532825,49.1854027 C157.24479,45.9953859 158.161383,45.7827181 157.385805,44.4358221 C153.08487,42.6635906 152.802841,44.5776007 149.912049,44.4358221 C141.733222,40.0406879 140.182065,40.5369128 132.694208,37.7013423 L133.046744,39.3317953 C127.617695,37.5595638 126.701102,40.0406879 120.84901,39.3317953 C120.496475,39.0482383 122.752703,38.3393456 124.585888,38.0557886 C119.36131,38.7646812 119.643338,37.0633389 114.496318,38.2684564 C115.694939,37.346896 117.034575,36.7797819 118.37421,36 C114.143782,36.283557 108.221183,38.4811242 110.054369,36.4962248 C103.081214,39.6862416 90.721314,44.0813758 83.8116154,50.6031879 L83.6071447,49.0436242 C80.4343239,52.8716443 69.7877474,60.4638842 68.9416619,65.4261326 L68.0180185,65.6388003 C66.3963545,68.4743708 65.3387476,71.6643876 63.9991121,74.5779362 C61.8838983,78.2641779 60.8262913,75.9957215 61.178827,76.5628356 C56.9483992,85.2113255 54.8331854,92.5200084 53,98.5526846 C54.2691283,100.466695 53,110.249413 53.4935499,118.118121 C51.378336,156.844924 80.5682875,194.508389 112.458662,203.227768 C117.18264,204.858221 124.092338,204.858221 130.014937,205 C123.034731,203.015101 122.118139,203.936661 115.349454,201.526426 C110.413955,199.25797 109.356348,196.564178 105.901499,193.51594 L107.311642,195.997064 C100.465399,193.586829 103.292735,193.019715 97.7156212,191.247483 L99.196271,189.333473 C97.01055,189.120805 93.3441792,185.576342 92.3570794,183.591443 L89.9598371,183.662332 C87.0690448,180.11078 85.5178879,177.487878 85.6589022,175.432089 L84.876273,176.849874 C83.9596804,175.3612 74.1591894,163.373826 79.2357027,166.138507 C78.31911,165.287836 77.0499817,164.720721 75.7103463,162.239597 L76.6974461,161.03448 C74.2296966,157.915352 72.1849898,153.803775 72.3260041,152.527768 C73.7361467,154.229111 74.5822322,154.654446 75.4988249,154.867114 C69.2941975,139.469966 68.9416619,154.016443 64.2106335,139.257299 L65.2682405,139.11552 C64.5631692,137.981292 63.9991121,136.705285 63.4350551,135.500168 L63.8580979,131.246812 C59.4161487,126.001007 62.5889696,109.256963 63.2235337,100.041359 C63.7170836,96.2133389 66.9604116,92.2435403 69.4281611,85.9981963 L67.9475114,85.7146393 C70.7677965,80.6815017 84.4532303,65.3552433 90.7988719,66.1421141 C93.8306784,62.2432047 90.1643077,66.1421141 89.5297436,65.1496644 C96.298428,58.1245386 98.4136418,60.1874161 102.933149,58.9114094 C107.868648,56.06875 98.7027211,60.0456376 101.029456,57.8409815 C109.490312,55.7143037 107.022562,52.8787332 118.099232,51.8153943 C119.227346,52.5242869 115.349454,52.807844 114.432862,53.6585151 C121.483574,50.1849413 136.649658,51.0356124 146.598214,55.5725252 C158.090876,61.0309983 171.000731,76.9172819 171.494281,91.9528943 L172.058338,92.0946728 C171.77631,98.1202601 172.974931,105.003607 170.859717,111.312752 L172.26986,108.335403 M103.05,129.069231 L102.7,131.007692 C104.52,133.430769 105.99,136.061538 108.3,138 C106.62,134.746154 105.36,133.430769 103.05,129 M107.165,128.06 C106.185,127.01 105.625,125.68 104.995,124.42 C105.555,126.66 106.815,128.62 108.005,130.58 L107.165,128.06 Z M184.16,112 L183.67,113.079594 C182.97,118.549534 181.29,123.954699 178.84,129 C181.64,123.745978 183.39,117.908975 184.09,112 M123.090909,35.92 C125.054545,35.22 127.890909,35.57 130,35.08 C127.309091,35.29 124.618182,35.43 122,35.78 L123.090909,35.92 Z M56.2339911,71.3766105 C56.7239911,75.3666105 53.2239911,76.9766105 57.0039911,74.3166105 C59.1039911,69.6966105 56.2339911,73.0566105 56.3039911,71.3766105 M51.8704206,90.44 C52.7104206,87.71 52.9204206,86.1 53.2704206,84.56 C50.8204206,87.64 52.0804206,88.27 51.8704206,90.37" id="Shape" fill="#A80030" fill-rule="nonzero"></path>
        </g>
    </g>
</svg>