<?xml version="1.0" encoding="UTF-8"?>
<svg width="240px" height="240px" viewBox="0 0 240 240" version="1.1" xmlns="http://www.w3.org/2000/svg" xmlns:xlink="http://www.w3.org/1999/xlink">
    <title>deepgram</title>
    <g id="Page-1" stroke="none" stroke-width="1" fill="none" fill-rule="evenodd">
        <g id="deepgram" transform="translate(-13, -184)">
            <rect id="box" x="13" y="184" width="240" height="240"></rect>
            <path d="M207.35568,219.840087 C230.188781,242.960084 242.468202,273.520101 241.986339,305.880345 L241.986339,305.840597 C240.984013,371.000553 186.046613,424 119.551715,424 L26.130107,424 C24.3644078,424 23.4815545,421.880916 24.7255688,420.600275 L70.1923498,375.039978 C70.9547397,374.279791 71.9580614,373.840075 73.0415691,373.840075 L120.434508,373.840075 C158.557991,373.840075 190.500425,343.440045 191.624773,306.120077 C192.186324,287.080621 185.16382,269.080211 171.840983,255.400197 C158.516902,241.720184 140.659819,234.200046 121.598327,234.200046 L73.3625622,234.200046 L73.3625622,311.879861 C73.3625622,312.560551 72.8408549,313.079764 72.158651,313.079764 L24.2038863,313.079764 C23.5216837,313.079764 23,312.560551 23,311.879861 L23,185.199903 C23,184.519958 23.5216837,184 24.2038863,184 L121.598327,184 C154.06309,184 184.521335,196.719967 207.35568,219.840087 Z" id="Shape" fill="#FFFFFF"></path>
        </g>
    </g>
</svg>