<?xml version="1.0" encoding="UTF-8"?>
<svg width="240px" height="240px" viewBox="0 0 240 240" version="1.1" xmlns="http://www.w3.org/2000/svg" xmlns:xlink="http://www.w3.org/1999/xlink">
    <title>deepinfra</title>
    <g id="Page-1" stroke="none" stroke-width="1" fill="none" fill-rule="evenodd">
        <g id="deepinfra">
            <rect id="box" x="0" y="0" width="240" height="240"></rect>
            <g id="shape" transform="translate(10, 0)" fill-rule="nonzero">
                <path d="M22.9066812,78.21 C10.2625126,78.1934728 0.0165031778,67.9325601 0,55.27 C0.0110019074,42.6035349 10.2586193,32.3365383 22.9066812,32.32 C35.5625423,32.3255129 45.8223151,42.595734 45.8333333,55.27 C45.8113091,67.9364541 35.5547561,78.1945048 22.9066812,78.2 L22.9066812,78.21 Z M22.9066812,41.33 C15.4186167,41.6139923 9.49448899,47.7756682 9.49448899,55.28 C9.49448899,62.7843318 15.4186167,68.9460077 22.9066812,69.23 C30.3947457,68.9460077 36.3188734,62.7843318 36.3188734,55.28 C36.3188734,47.7756682 30.3947457,41.6139923 22.9066812,41.33 L22.9066812,41.33 Z M22.9066812,142.93 C10.2586193,142.913462 0.0110019074,132.646465 0,119.98 C0.0165031778,107.31744 10.2625126,97.0565272 22.9066812,97.04 C35.5547491,97.0510179 45.8068336,107.313541 45.8233479,119.98 C45.8123366,132.650365 35.5586429,142.918973 22.9066812,142.93 L22.9066812,142.93 Z M22.9066812,106.05 C15.4240577,106.333888 9.50428542,112.491117 9.50428542,119.99 C9.50428542,127.488883 15.4240577,133.646112 22.9066812,133.93 C28.0054852,134.123447 32.8018598,131.509617 35.4086614,127.116929 C38.0154629,122.724241 38.0154629,117.255759 35.4086614,112.863071 C32.8018598,108.470383 28.0054852,105.856553 22.9066812,106.05 Z M22.9066812,207.61 C10.2625126,207.593473 0.0165031778,197.33256 0,184.67 C0.0110019074,172.003535 10.2586193,161.736538 22.9066812,161.72 C35.5586429,161.731027 45.8123366,171.999635 45.8233479,184.67 C45.8068336,197.336459 35.5547491,207.598982 22.9066812,207.61 L22.9066812,207.61 Z M22.9066812,170.73 C15.4186167,171.013992 9.49448899,177.175668 9.49448899,184.68 C9.49448899,192.184332 15.4186167,198.346008 22.9066812,198.63 C30.3947457,198.346008 36.3188734,192.184332 36.3188734,184.68 C36.3188734,177.175668 30.3947457,171.013992 22.9066812,170.73 L22.9066812,170.73 Z M197.093319,78.21 C184.445251,78.1989821 174.193166,67.9364591 174.176652,55.27 C174.187654,42.6035349 184.435271,32.3365383 197.083333,32.32 C209.735295,32.3310273 219.988989,42.5996355 220,55.27 C219.983497,67.9325601 209.737487,78.1934728 197.093319,78.21 L197.093319,78.21 Z M197.093319,41.3299964 C191.453411,41.3259555 186.366787,44.7257171 184.206622,49.9431183 C182.046457,55.1605195 183.238446,61.1673885 187.226464,65.1612071 C191.214481,69.1550256 197.212626,70.3487483 202.422449,68.1854411 C207.632272,66.0221339 211.027096,60.9281109 211.023061,55.28 C211.023061,47.58 204.77215,41.3299964 197.093319,41.3299964 Z M197.093319,142.93 C184.441357,142.918973 174.187663,132.650365 174.176652,119.98 C174.193155,107.31744 184.439165,97.0565272 197.083333,97.04 C209.731401,97.0510179 219.983486,107.313541 220,119.98 C219.988998,132.646465 209.741381,142.913462 197.093319,142.93 L197.093319,142.93 Z M197.093319,106.05 C189.414488,106.05 183.16358,112.3 183.16358,119.98 C183.44716,127.478956 189.599887,133.411701 197.093319,133.411701 C204.586751,133.411701 210.739478,127.478956 211.023057,119.98 C211.023057,112.28 204.77215,106.05 197.093319,106.05 L197.093319,106.05 Z M197.093319,207.61 C184.445251,207.598982 174.193166,197.336459 174.176652,184.67 C174.187654,172.003535 184.435271,161.736538 197.083333,161.72 C209.735295,161.731027 219.988989,171.999635 220,184.67 C219.983497,197.33256 209.737487,207.593473 197.093319,207.61 L197.093319,207.61 Z M197.093319,170.729996 C191.453411,170.725956 186.366787,174.125717 184.206622,179.343118 C182.046457,184.56052 183.238446,190.567389 187.226464,194.561207 C191.214481,198.555026 197.212626,199.748748 202.422449,197.585441 C207.632272,195.422134 211.027096,190.328111 211.023061,184.68 C211.023061,176.98 204.77215,170.729996 197.093319,170.729996 L197.093319,170.729996 Z M110,110.57 C97.3558315,110.553473 87.109822,100.29256 87.0933188,87.63 C87.1043207,74.9635349 97.3519381,64.6965383 110,64.68 C122.651962,64.6910273 132.905655,74.9596355 132.916667,87.63 C132.900152,100.296459 122.648068,110.558982 110,110.57 L110,110.57 Z M110,73.6899964 C104.360093,73.6859555 99.2734683,77.0857171 97.1133032,82.3031183 C94.953138,87.5205195 96.1451269,93.5273885 100.133145,97.5212071 C104.121163,101.515026 110.119307,102.708748 115.32913,100.545441 C120.538954,98.3821339 123.933777,93.2881109 123.929742,87.64 C123.929742,79.94 117.688816,73.6899964 110,73.6899964 L110,73.6899964 Z M110.009985,45.89 C97.3580238,45.8789727 87.1043301,35.6103645 87.0933188,22.94 C87.1098331,10.2735409 97.3619175,0.0110179101 110.009985,0 C122.654154,0.0165271824 132.900163,10.2774399 132.916667,22.94 C132.905665,35.6064651 122.658047,45.8734617 110.009985,45.89 L110.009985,45.89 Z M110.009985,9.0099964 C104.370078,9.00595552 99.2834538,12.4057171 97.1232886,17.6231183 C94.9631235,22.8405195 96.1551124,28.8473885 100.14313,32.8412071 C104.131148,36.8350256 110.129292,38.0287483 115.339116,35.8654411 C120.548939,33.7021339 123.943763,28.6081109 123.939728,22.96 C123.939728,15.26 117.688816,9.0099964 110.009985,9.0099964 Z M110.009985,175.29 C97.3580238,175.278973 87.1043301,165.010365 87.0933188,152.34 C87.1098331,139.673541 97.3619175,129.411018 110.009985,129.4 C122.654154,129.416527 132.900163,139.67744 132.916667,152.34 C132.905665,165.006465 122.658047,175.273462 110.009985,175.29 L110.009985,175.29 Z M110.009985,138.409996 C104.370078,138.405956 99.2834538,141.805717 97.1232886,147.023118 C94.9631235,152.24052 96.1551124,158.247389 100.14313,162.241207 C104.131148,166.235026 110.129292,167.428748 115.339116,165.265441 C120.548939,163.102134 123.943763,158.008111 123.939728,152.36 C123.939728,144.66 117.688816,138.409996 110.009985,138.409996 L110.009985,138.409996 Z M110,240 C97.3519381,239.983462 87.1043207,229.716465 87.0933188,217.05 C87.109822,204.38744 97.3558315,194.126527 110,194.11 C122.648068,194.121018 132.900152,204.383541 132.916667,217.05 C132.905655,229.720365 122.651962,239.988973 110,240 L110,240 Z M110,203.119996 C104.360093,203.115956 99.2734683,206.515717 97.1133032,211.733118 C94.953138,216.95052 96.1451269,222.957389 100.133145,226.951207 C104.121163,230.945026 110.119307,232.138748 115.32913,229.975441 C120.538954,227.812134 123.933777,222.718111 123.929742,217.07 C123.929742,209.37 117.688816,203.119996 110,203.119996 L110,203.119996 Z" id="Shape" fill="#FFFFFF"></path>
                <path d="M73.259948,85.6047715 C72.3270346,85.6070813 71.4023912,85.4021627 70.5361147,85.0010984 L55.8451147,78.2128448 C53.3198497,77.1445931 51.4964999,74.5693575 51.0864514,71.4918747 C50.6764029,68.4143919 51.7446252,65.3222692 53.8743478,63.4219086 C56.0040704,61.5215481 58.8578524,61.1140496 61.3222813,62.3584 L76.003448,69.135264 C79.280145,70.6590113 81.164698,74.6590395 80.4980715,78.6752561 C79.831445,82.6914727 76.8006915,85.5969445 73.2697813,85.6047715 L73.259948,85.6047715 L73.259948,85.6047715 Z M73.259948,149.022651 C72.3270574,149.024692 71.4024598,148.818916 70.5361147,148.416426 L55.8451147,141.610869 C53.3982323,140.472815 51.6591907,137.902802 51.2830702,134.868929 C50.9069496,131.835056 51.9508918,128.798242 54.0216536,126.902424 C56.0924155,125.006606 58.875399,124.539804 61.3222813,125.677859 L76.003448,132.494854 C79.2667272,134.034377 81.1390244,138.042646 80.4737371,142.064981 C79.8084497,146.087316 76.7912073,149.0014 73.2697813,149.022651 L73.259948,149.022651 L73.259948,149.022651 Z M159.409781,117.262739 C158.476204,117.261732 157.551492,117.053295 156.685948,116.648767 L142.004781,109.883707 C139.444176,108.851011 137.580315,106.276737 137.151465,103.180543 C136.722615,100.08435 137.797971,96.9658026 139.951588,95.0601451 C142.105206,93.1544876 144.989603,92.7691942 147.462281,94.0568781 L162.143448,100.821938 C165.420145,102.343031 167.304698,106.336092 166.638072,110.345313 C165.971445,114.354534 162.940692,117.254945 159.409781,117.262739 L159.409781,117.262739 Z M159.409781,54.1345408 C158.476275,54.1326691 157.5517,53.9219481 156.685948,53.5137486 L142.004781,46.662042 C138.405445,44.7668125 136.720833,39.8941626 138.182829,35.6072526 C139.644826,31.3203426 143.734955,29.1394634 147.462281,30.6593986 L162.143448,37.5111051 C165.406727,39.0584668 167.279024,43.0871457 166.613737,47.1299623 C165.94845,51.1727788 162.931207,54.1017009 159.409781,54.1230446 L159.409781,54.1345408 Z M159.409781,180.588763 C158.476891,180.590794 157.552293,180.386081 156.685948,179.98567 L141.994948,173.20388 C139.450443,172.154737 137.605183,169.579839 137.18507,166.49212 C136.764957,163.4044 137.83722,160.297962 139.980042,158.394839 C142.122865,156.491715 144.993348,156.096449 147.462281,157.364533 L162.143448,164.146322 C165.406727,165.677894 167.279024,169.665463 166.613737,173.667026 C165.94845,177.668588 162.931207,180.567622 159.409781,180.588763 L159.409781,180.588763 Z M58.9721147,182.972916 C55.4488609,182.957051 52.4273025,180.043357 51.7593654,176.017634 C51.0914283,171.991911 52.9636821,167.978633 56.2286147,166.437555 L70.9196147,159.628883 C74.6994515,157.871958 78.9875189,160.013485 80.4972813,164.412118 C82.0070437,168.810751 80.1667848,173.800817 76.386948,175.557742 L61.7057813,182.366414 C60.8394362,182.769088 59.9148386,182.974958 58.981948,182.972916 L58.9721147,182.972916 L58.9721147,182.972916 Z M58.9721147,120.112557 C55.4393602,120.110163 52.4042384,117.180211 51.7349516,113.126168 C51.0656648,109.072125 52.9502174,105.032783 56.2286147,103.49447 L70.9196147,96.656461 C74.6544846,95.1011346 78.773172,97.275333 80.2438662,101.578605 C81.7145605,105.881877 80.0108912,110.774056 76.386948,112.653955 L61.7057813,119.491964 C60.8394362,119.896373 59.9148386,120.103131 58.981948,120.101064 L58.9721147,120.101064 L58.9721147,120.112557 Z M58.9721147,53.9581407 C55.4393602,53.9557355 52.4042384,51.025785 51.7349516,46.9717441 C51.0656648,42.9177032 52.9502174,38.8783632 56.2286147,37.3400508 L70.9196147,30.5020447 C74.6544846,28.9467191 78.773172,31.1209164 80.2438662,35.4241863 C81.7145605,39.7274562 80.0108912,44.6196325 76.386948,46.4995311 L61.7057813,53.3490296 C60.8393678,53.7531654 59.9148158,53.9599124 58.981948,53.9581407 L58.9721147,53.9581407 L58.9721147,53.9581407 Z M73.259948,216.999985 C72.3270574,217.002038 71.4024598,216.795115 70.5361147,216.390381 L55.8451147,209.53539 C52.2457782,207.639252 50.5611659,202.764266 52.0231626,198.4753 C53.4851592,194.186335 57.5752888,192.00441 61.3026147,193.525074 L75.9936147,200.368564 C79.2703117,201.907292 81.1548647,205.946646 80.4882382,210.002347 C79.8216117,214.058049 76.7908582,216.992085 73.259948,216.999985 L73.259948,216.999985 Z M144.718781,85.7303204 C141.17825,85.7361974 138.133704,82.8109212 137.465707,78.7613766 C136.79771,74.7118319 138.694774,70.6808164 141.985115,69.15822 L156.676115,62.3438493 C160.442701,60.6615793 164.670884,62.8161338 166.166306,67.1797646 C167.661727,71.5433954 165.869416,76.4966984 162.143448,78.2974937 L147.452448,85.1118644 C146.589765,85.5170904 145.668645,85.7269886 144.738448,85.7303204 L144.718781,85.7303204 Z M144.718781,149.022942 C141.187871,149.015104 138.157118,146.09868 137.490491,142.067325 C136.823865,138.03597 138.708418,134.020865 141.985115,132.491374 L156.676115,125.677533 C160.461382,123.922224 164.753852,126.0669 166.263615,130.4678 C167.773377,134.868701 165.928716,139.859295 162.143448,141.614604 L147.452448,148.417012 C146.589174,148.817884 145.668032,149.023539 144.738448,149.022942 L144.718781,149.022942 L144.718781,149.022942 Z M144.718781,216.758901 C141.182967,216.765772 138.141828,213.865062 137.47383,209.848471 C136.805833,205.831879 138.699488,201.832909 141.985115,200.321661 L156.676115,193.553396 C159.148793,192.265102 162.03319,192.650578 164.186808,194.557139 C166.340425,196.463699 167.415781,199.583724 166.986931,202.681384 C166.558081,205.779044 164.69422,208.354538 162.133615,209.387724 L147.442615,216.155989 C146.576407,216.556816 145.651718,216.761485 144.718781,216.758901 L144.718781,216.758901 Z" id="Shape" fill="#5699DB"></path>
            </g>
        </g>
    </g>
</svg>