<?xml version="1.0" encoding="UTF-8"?>
<svg width="240px" height="240px" viewBox="0 0 240 240" version="1.1" xmlns="http://www.w3.org/2000/svg" xmlns:xlink="http://www.w3.org/1999/xlink">
    <title>dehashed</title>
    <g id="Page-1" stroke="none" stroke-width="1" fill="none" fill-rule="evenodd">
        <g id="dehashed">
            <rect id="box" x="0" y="0" width="240" height="240"></rect>
            <g id="shape" fill="#CBCBDD" fill-rule="nonzero">
                <polygon id="Path" points="131.286141 240 131.286141 196.500498 153.028713 196.500498 153.028713 218.250249 174.771286 218.250249 174.771286 174.750748 218.257428 174.750748 218.257428 218.250249 174.771286 218.250249 174.771286 240 218.257428 240 240 240 240 153 218.257428 153 174.771286 153 153.028713 153 153.028713 174.750748 131.286141 174.750748 131.286141 153 109.543568 153 109.543568 240"></polygon>
                <polygon id="Path" points="0.995850622 130.833167 44.3154023 130.833167 44.3154023 152.666333 22.6556265 152.666333 22.6556265 174.5005 65.9750789 174.5005 65.9750789 218.166833 22.6556265 218.166833 22.6556265 174.5005 0.995850622 174.5005 0.995850622 218.166833 0.995850622 240 87.6348548 240 87.6348548 218.166833 87.6348548 174.5005 87.6348548 152.666333 65.9750789 152.666333 65.9750789 130.833167 87.6348548 130.833167 87.6348548 109 0.995850622 109"></polygon>
                <polygon id="Path" points="108.713859 0 108.713859 43.5000498 86.9709876 43.5000498 86.9709876 21.7500249 65.2282158 21.7500249 65.2282158 65.2499751 21.7427718 65.2499751 21.7427718 21.7500249 65.2282158 21.7500249 65.2282158 0 21.7427718 0 0 0 0 87 21.7427718 87 65.2282158 87 86.9709876 87 86.9709876 65.2499751 108.713859 65.2499751 108.713859 87 130.456432 87 130.456432 0"></polygon>
                <polygon id="Path" points="239.004149 109.166833 195.685144 109.166833 195.685144 87.3333667 217.344647 87.3333667 217.344647 65.5 174.025641 65.5 174.025641 21.8333667 217.344647 21.8333667 217.344647 65.5 239.004149 65.5 239.004149 21.8333667 239.004149 0 152.365145 0 152.365145 21.8333667 152.365145 65.5 152.365145 87.3333667 174.025641 87.3333667 174.025641 109.166833 152.365145 109.166833 152.365145 131 239.004149 131"></polygon>
                <polygon id="Path" points="130.456432 109 108.547718 109 108.547718 131 130.456432 131"></polygon>
            </g>
        </g>
    </g>
</svg>