<?xml version="1.0" encoding="UTF-8"?>
<svg width="240px" height="240px" viewBox="0 0 240 240" version="1.1" xmlns="http://www.w3.org/2000/svg" xmlns:xlink="http://www.w3.org/1999/xlink">
    <title>denojs</title>
    <g id="Page-1" stroke="none" stroke-width="1" fill="none" fill-rule="evenodd">
        <g id="denojs" transform="translate(15.9997, 89)">
            <rect id="ViewBox" x="-16" y="-89" width="240" height="240"></rect>
            <ellipse id="Oval" fill="#D8D8D8" cx="104" cy="39.5" rx="120" ry="111.5"></ellipse>
            <path d="M-4.94969043,90.3623775 C-12.2675365,74.5879846 -16.0393521,57.4014766 -16,40.0123775 C-16,35.3590441 -15.7396904,30.7723775 -15.2196904,26.2523775 C-14.7035801,21.7456402 -13.9323423,17.271793 -12.9096904,12.8523775 C-7.28295358,-11.319077 5.69974341,-33.1513896 24.2503096,-49.6376225 C39.7480006,-63.4402172 58.560388,-72.9876761 78.8503096,-77.3476225 C90.1075065,-79.7545665 101.652473,-80.5291704 113.13031,-79.6476225 C127.65031,-78.5276225 141.38031,-74.8776225 153.90031,-69.1476225 C163.93923,-64.5418528 173.294215,-58.5721612 181.70031,-51.4076225 C203.046783,-33.2591466 217.382612,-8.22361763 222.23031,19.3723775 C223.414168,26.1884934 224.006375,33.0942187 224.000356,40.0123775 C224.000356,43.0390441 223.88031,46.0857108 223.64031,49.1523775 C222.787082,60.4576311 220.336047,71.5849264 216.36031,82.2023775 C210.969317,96.5179301 202.890954,109.670727 192.56031,120.952377 C179.26031,134.522377 162.36031,140.572377 148.26031,140.312377 C138.28169,140.087465 128.676042,136.476532 121.02031,130.072377 C111.12031,121.542377 107.11031,111.772377 105.72031,100.882377 C105.369113,95.7867007 105.800789,90.6672955 107.00031,85.7023775 C108.05031,81.9023775 110.70031,74.5423775 114.60031,71.3323775 C110.05031,69.3623775 104.20031,65.0923775 102.34031,63.0423775 C101.89031,62.5423775 101.94031,61.7423775 102.34031,61.2123775 C102.749032,60.66494 103.467981,60.4496614 104.11031,60.6823775 C108.03031,62.0223775 112.80031,63.3523775 117.83031,64.1823775 C124.43031,65.2923775 132.67031,66.6823775 141.00031,67.1023775 C161.30031,68.1023775 182.53031,58.9723775 189.12031,40.8323775 C195.71031,22.6923775 193.15031,4.74237748 169.52031,-6.01762252 C145.89031,-16.7776225 134.98031,-29.5776225 115.89031,-37.2976225 C103.42031,-42.3476225 89.5303096,-39.3476225 75.2903096,-31.4776225 C36.9103096,-10.2676225 2.52030957,56.7423775 18.3903096,118.842377 C18.6186888,119.667989 18.2694561,120.544675 17.5359429,120.987112 C16.8024298,121.429548 15.8640618,121.32951 15.2403096,120.742377 C10.6135732,115.663581 6.43154166,110.196829 2.74030957,104.402377 C-0.132671348,99.8987598 -2.70171943,95.2083261 -4.94969043,90.3623775 M99.7003096,-28.9676225 C106.19031,-29.4776225 111.84031,-23.9576225 112.80031,-16.6076225 C114.10031,-6.81762252 110.52031,3.29237748 98.7003096,3.52237748 C88.6003096,3.72237748 85.5503096,-6.44762252 86.2203096,-12.6176225 C86.8803096,-18.7776225 91.9603096,-28.3676225 99.7203096,-28.9676225" id="Shape" fill="#000000" fill-rule="nonzero"></path>
        </g>
    </g>
</svg>