<?xml version="1.0" encoding="UTF-8"?>
<svg width="240px" height="240px" viewBox="0 0 240 240" version="1.1" xmlns="http://www.w3.org/2000/svg" xmlns:xlink="http://www.w3.org/1999/xlink">
    <title>devin</title>
    <g id="Page-1" stroke="none" stroke-width="1" fill="none" fill-rule="evenodd">
        <g id="devin">
            <rect id="box" x="0" y="0" width="240" height="240"></rect>
            <g id="shape" transform="translate(16, 0)" fill-rule="nonzero">
                <path d="M3.02808229,98.1772697 L29.1203018,113.19768 C30.0565205,113.737422 31.1000142,114 32.1483841,114 C33.1918778,114 34.2402477,113.722835 35.1764664,113.19768 L61.2686859,98.1772697 C61.2686859,98.1772697 61.341828,98.1189191 61.375961,98.0946064 C61.7709282,97.8563416 62.1463909,97.5694513 62.4828445,97.2436606 C62.5316059,97.1950351 62.5803673,97.1366845 62.6291287,97.088059 C62.9168209,96.776856 63.1801324,96.4413402 63.3995587,96.0815117 C63.4336916,96.0231611 63.482453,95.9745356 63.5068337,95.9113225 C63.7360122,95.5174561 63.901801,95.099277 64.0334567,94.6519226 C64.0578374,94.5546717 64.0822181,94.4622833 64.1065988,94.3650323 C64.2138739,93.9079528 64.2967682,93.4411482 64.2967682,92.9500309 L64.2967682,77.929621 C64.2967682,72.1334641 67.4321256,66.7311736 72.464301,63.8282326 C77.4964764,60.9252916 83.7574388,60.9301542 88.7993665,63.8282326 L101.843038,71.3408689 C102.262386,71.5791337 102.706115,71.7493229 103.164472,71.8806117 C103.261995,71.9049244 103.359517,71.9389622 103.452164,71.963275 C103.895893,72.070251 104.35425,72.1334641 104.807731,72.1431892 C104.832111,72.1431892 104.856492,72.1431892 104.866244,72.1431892 C104.915006,72.1431892 104.963767,72.1188765 105.007652,72.1188765 C105.427,72.1188765 105.851224,72.0605259 106.255944,71.9486873 C106.329086,71.9340997 106.402228,71.9243746 106.470494,71.9000618 C106.914223,71.7784982 107.348199,71.5985839 107.757795,71.3749067 C107.791928,71.350594 107.840689,71.350594 107.879698,71.3262812 L133.971918,56.3058713 C135.844355,55.2263857 137,53.2376037 137,51.0834951 L137,21.0426753 C137,18.8885666 135.849231,16.8997846 133.971918,15.820299 L107.855317,0.809614195 C105.98288,-0.269871398 103.686219,-0.269871398 101.813781,0.809614195 L75.7215618,15.8300241 C75.7215618,15.8300241 75.6484197,15.8883747 75.6142867,15.9126874 C75.2193195,16.1509522 74.8438568,16.4378426 74.5074032,16.7636333 C74.4586418,16.8122587 74.4098804,16.8706093 74.361119,16.9192348 C74.0734268,17.2304378 73.8101153,17.5659536 73.5906891,17.9257822 C73.5565561,17.9841327 73.5077947,18.0327582 73.483414,18.0911088 C73.2542355,18.4849752 73.0884468,18.9080168 72.956791,19.3505086 C72.9324103,19.4477596 72.9080296,19.540148 72.8836489,19.637399 C72.7763739,20.0944784 72.6934795,20.561283 72.6934795,21.0524003 L72.6934795,36.0728103 C72.6934795,41.8689671 69.5581222,47.2712577 64.5259468,50.1839237 C59.4937714,53.0820022 53.2328089,53.0820022 48.1908813,50.1839237 L35.1520857,42.6761501 C34.7278616,42.4378852 34.284133,42.267696 33.8306521,42.1364073 C33.7331293,42.1120945 33.6404826,42.0780567 33.5429599,42.0537439 C33.0943551,41.9467679 32.6408741,41.8884173 32.1825171,41.8738297 C32.109375,41.8738297 32.0508613,41.8738297 31.9777192,41.8738297 C31.5437429,41.8738297 31.1243949,41.9321803 30.7147993,42.0391563 C30.6416572,42.0488814 30.5831435,42.063469 30.5100014,42.0877818 C30.0711489,42.2093455 29.6371726,42.3892597 29.2275769,42.6177995 C29.1934439,42.6421122 29.1446825,42.6421122 29.1056734,42.666425 L3.02808229,57.7014225 C1.15564493,58.7809081 0,60.7696901 0,62.9237988 L0,92.9646186 C0,95.1235898 1.15076879,97.1075092 3.02808229,98.1869948 L3.02808229,98.1772697 Z" id="Path" fill="#2A6DCE"></path>
                <path d="M144.430168,105.307086 C149.462343,102.387933 155.723306,102.387933 160.765233,105.307086 L173.808905,112.874355 C174.228253,113.114352 174.671982,113.285779 175.130339,113.418022 C175.227862,113.442512 175.320508,113.476797 175.418031,113.501287 C175.86176,113.609041 176.320117,113.667816 176.773598,113.682509 C176.797978,113.682509 176.822359,113.682509 176.832111,113.682509 C176.880873,113.682509 176.929634,113.667816 176.973519,113.65802 C177.392867,113.65802 177.817091,113.599245 178.221811,113.491491 C178.294953,113.476797 178.368095,113.467002 178.436361,113.442512 C178.88009,113.320064 179.299438,113.138842 179.723662,112.913538 C179.757795,112.889048 179.806556,112.889048 179.855317,112.864559 L205.947537,97.7349202 C207.819974,96.6475846 208.975619,94.6443401 208.975619,92.4745668 L208.975619,62.2103917 C208.975619,60.0406183 207.819974,58.0373738 205.947537,56.9500382 L179.869946,41.8155017 C177.997509,40.7281661 175.700847,40.7281661 173.82841,41.8155017 L147.73619,56.9451403 C147.73619,56.9451403 147.663048,57.0039152 147.628915,57.0284047 C147.233948,57.2684023 146.858485,57.5573788 146.522032,57.8855387 C146.47327,57.9345178 146.424509,57.9932927 146.380624,58.0422718 C146.092931,58.3557379 145.82962,58.6936936 145.610194,59.0561388 C145.576061,59.1149137 145.527299,59.1638927 145.502919,59.2275656 C145.27374,59.6242961 145.107951,60.0504141 144.976296,60.4961238 C144.951915,60.594082 144.927534,60.6871422 144.903153,60.7851004 C144.795878,61.2455038 144.712984,61.7157029 144.712984,62.2103917 L144.712984,77.3400303 C144.712984,83.1783369 141.577627,88.619913 136.545451,91.55376 C131.513276,94.4729133 125.252313,94.4729133 120.210386,91.55376 L107.166714,83.9864918 C106.747366,83.7464943 106.303638,83.5750675 105.84528,83.4428239 C105.747758,83.4183344 105.655111,83.384049 105.557588,83.3595595 C105.11386,83.2518055 104.655503,83.1881327 104.202022,83.1783369 C104.12888,83.1783369 104.070366,83.1783369 103.997224,83.1783369 C103.563247,83.1783369 103.143899,83.2371118 102.734304,83.3497637 C102.661162,83.3644574 102.602648,83.3742532 102.529506,83.3987428 C102.085777,83.5211905 101.651801,83.7024131 101.242205,83.9277169 C101.208072,83.9522064 101.159311,83.9522064 101.120302,83.9766959 L75.0280823,99.1063345 C73.1556449,100.19367 72,102.196915 72,104.366688 L72,134.630863 C72,136.800636 73.1507688,138.803881 75.0280823,139.891217 L101.120302,155.020855 C101.120302,155.020855 101.203196,155.045345 101.242205,155.069834 C101.651801,155.300036 102.085777,155.481258 102.529506,155.598808 C102.602648,155.623298 102.67579,155.623298 102.744056,155.647787 C103.153652,155.745746 103.573,155.80452 103.992348,155.819214 C104.041109,155.819214 104.08987,155.843704 104.138632,155.843704 C104.163013,155.843704 104.187393,155.843704 104.197146,155.843704 C104.655503,155.843704 105.099231,155.770235 105.552712,155.662481 C105.650235,155.637992 105.742882,155.613502 105.840404,155.579217 C106.298761,155.446973 106.74249,155.275546 107.161838,155.035549 L120.20551,147.468281 C125.237685,144.549127 131.498647,144.549127 136.540575,147.468281 C141.572751,150.387434 144.708108,155.82901 144.708108,161.672215 L144.708108,176.801853 C144.708108,177.296542 144.78125,177.766741 144.898277,178.227144 C144.922658,178.325103 144.947039,178.418163 144.971419,178.516121 C145.103075,178.961831 145.268864,179.383051 145.498042,179.784679 C145.532175,179.843454 145.571185,179.892433 145.605317,179.951208 C145.819868,180.313653 146.088055,180.651609 146.375747,180.965075 C146.424509,181.014054 146.47327,181.072829 146.517155,181.121808 C146.843857,181.44507 147.214443,181.724251 147.624039,181.978942 C147.658172,182.003432 147.682553,182.037717 147.731314,182.062207 L173.823534,197.191845 C174.759752,197.735513 175.808122,198 176.851616,198 C177.89511,198 178.943479,197.720819 179.879698,197.191845 L205.971918,182.062207 C207.844355,180.974871 209,178.971626 209,176.801853 L209,146.537678 C209,144.367905 207.849231,142.36466 205.971918,141.277325 L179.879698,126.147686 C179.879698,126.147686 179.796804,126.123196 179.757795,126.098707 C179.348199,125.868505 178.914223,125.687283 178.470494,125.569733 C178.397352,125.545243 178.338838,125.545243 178.265696,125.520754 C177.846348,125.422796 177.427,125.364021 176.993024,125.349327 C176.93451,125.349327 176.861368,125.349327 176.802854,125.349327 C176.344497,125.349327 175.891017,125.422796 175.447288,125.53055 C175.349765,125.555039 175.266871,125.579529 175.169348,125.613814 C174.710991,125.746057 174.267262,125.917484 173.847914,126.157482 L160.804243,133.72475 C155.772067,136.643903 149.511105,136.643903 144.478929,133.72475 C139.446754,130.805597 136.311397,125.364021 136.311397,119.51102 C136.311397,113.65802 139.446754,108.231138 144.478929,105.307086 L144.430168,105.307086 L144.430168,105.307086 Z" id="Path" fill="#1DC19C"></path>
                <path d="M133.952522,183.684316 L107.861231,168.665828 C107.861231,168.665828 107.778339,168.641518 107.739332,168.617209 C107.329751,168.388698 106.900666,168.208807 106.452077,168.092121 C106.378937,168.067811 106.305798,168.067811 106.237534,168.043501 C105.818201,167.946263 105.398868,167.88792 104.974659,167.873334 C104.90152,167.873334 104.843008,167.873334 104.769869,167.873334 C104.311528,167.873334 103.858063,167.946263 103.41435,168.053225 C103.316831,168.077535 103.23394,168.101845 103.13642,168.135878 C102.67808,168.26715 102.234367,168.437317 101.815034,168.675552 L88.7718262,176.187227 C83.7398299,179.084934 77.4790903,179.084934 72.447094,176.187227 C67.4150977,173.289519 64.2798519,167.88792 64.2798519,162.077919 L64.2798519,147.054569 C64.2798519,146.563514 64.2067125,146.096769 64.0896893,145.639748 C64.0653095,145.54251 64.0409296,145.450133 64.0165498,145.352895 C63.8848987,144.91046 63.71424,144.492334 63.4899455,144.093656 C63.4558138,144.035313 63.4168061,143.986694 63.3826743,143.923489 C63.1681318,143.563706 62.8999537,143.228233 62.6122718,142.91707 C62.5635121,142.868451 62.5147525,142.810108 62.4659928,142.761488 C62.1441791,142.440601 61.7687298,142.163472 61.3591487,141.910651 C61.3250169,141.886342 61.3006371,141.852308 61.2518774,141.827999 L35.1605865,126.809511 C33.2882158,125.730163 30.9916361,125.730163 29.1192654,126.809511 L3.02797452,141.827999 C1.1556038,142.907346 0,144.895874 0,147.049707 L0,177.091545 C0,179.245378 1.15072784,181.233906 3.02797452,182.313253 L29.1192654,197.331741 C29.1192654,197.331741 29.2021568,197.365775 29.2411645,197.38036 C29.6507456,197.608871 30.0700787,197.788762 30.5137915,197.905448 C30.586931,197.929758 30.6600705,197.939482 30.728334,197.954068 C31.1379151,198.051306 31.5572481,198.109649 31.9765811,198.124235 C32.0253408,198.124235 32.0741004,198.148545 32.132612,198.148545 C32.1569918,198.148545 32.1813717,198.148545 32.2057515,198.148545 C32.6640923,198.148545 33.1078051,198.075616 33.551518,197.968653 C33.6490373,197.944344 33.7416806,197.920034 33.8391999,197.886001 C34.2975407,197.754729 34.7412535,197.584561 35.1605865,197.346327 L48.203794,189.834652 C53.2357903,186.936944 59.4965299,186.936944 64.5382781,189.834652 C69.5702744,192.73236 72.7055202,198.133959 72.7055202,203.934236 L72.7055202,218.952724 C72.7055202,219.443779 72.7786596,219.910524 72.8956828,220.367545 C72.9200626,220.464783 72.9444425,220.55716 72.9688223,220.654398 C73.1004734,221.096833 73.2711321,221.514959 73.4954266,221.913637 C73.5295583,221.97198 73.568566,222.020599 73.6026978,222.083804 C73.8172403,222.443587 74.0854184,222.77906 74.3731003,223.090223 C74.42186,223.138842 74.4706196,223.197185 74.5193793,223.245804 C74.846069,223.571553 75.2166423,223.843821 75.6262234,224.096641 C75.6603552,224.120951 75.684735,224.154985 75.7334947,224.179294 L101.824786,239.197782 C102.760971,239.737456 103.804428,240 104.85276,240 C105.901093,240 106.944549,239.72287 107.880735,239.197782 L133.972025,224.179294 C135.844396,223.099947 137,221.111419 137,218.957586 L137,188.915748 C137,186.761915 135.849272,184.773387 133.972025,183.69404 L133.952522,183.684316 Z" id="Path" fill="#1796E2"></path>
            </g>
        </g>
    </g>
</svg>