<?xml version="1.0" encoding="UTF-8"?>
<svg width="240px" height="240px" viewBox="0 0 240 240" version="1.1" xmlns="http://www.w3.org/2000/svg" xmlns:xlink="http://www.w3.org/1999/xlink">
    <title>django</title>
    <g id="Page-1" stroke="none" stroke-width="1" fill="none" fill-rule="evenodd">
        <g id="django" transform="translate(0, 0)">
            <rect id="ViewBox" x="0" y="0" width="240" height="240"></rect>
            <rect id="Rectangle" fill="#092E20" fill-rule="nonzero" x="0" y="0" width="240" height="240" rx="26.25"></rect>
            <path d="M174.728437,88.310625 L174.728437,150.3975 C174.728437,171.79125 173.162813,182.05125 168.467812,190.920937 C164.11875,199.444687 158.379375,204.835312 146.55375,210.749062 L121.681875,198.9225 C133.509375,193.3575 139.24875,188.488125 142.900312,181.006875 C146.727187,173.355937 147.945937,164.485312 147.945937,141.180937 L147.945937,88.310625 L174.728437,88.310625 Z M132.12,46.948125 L132.12,170.922188 C118.380937,173.530312 108.293437,174.57375 97.336875,174.57375 C64.6396875,174.57375 47.5959375,159.792188 47.5959375,131.442187 C47.5959375,104.136562 65.6840625,86.398125 93.6834375,86.398125 C98.0315625,86.398125 101.33625,86.745 105.336562,87.7884375 L105.336562,46.95 L132.12,46.948125 Z M96.2934375,107.9625 C82.7278125,107.9625 74.900625,116.310937 74.900625,130.919062 C74.900625,145.182187 82.38,153.0075 96.12,153.0075 C99.075,153.0075 101.510625,152.834062 105.336562,152.31375 L105.336562,109.352812 C102.20625,108.310312 99.598125,107.9625 96.2934375,107.9625 M174.728437,47.090625 L174.728437,74.570625 L147.945937,74.570625 L147.945937,47.0915625 L174.728437,47.090625 Z" id="Shape" fill="#FFFFFD" fill-rule="nonzero"></path>
        </g>
    </g>
</svg>