<?xml version="1.0" encoding="UTF-8"?>
<svg width="241px" height="240px" viewBox="0 0 241 240" version="1.1" xmlns="http://www.w3.org/2000/svg" xmlns:xlink="http://www.w3.org/1999/xlink">
    <title>dnsdumpster</title>
    <g id="Page-1" stroke="none" stroke-width="1" fill="none" fill-rule="evenodd">
        <g id="dnsdumpster" transform="translate(0.6367, 0)">
            <rect id="box" x="0" y="0" width="240" height="240" rx="32"></rect>
            <g id="shape" transform="translate(0, 70)" fill="#FFFFFF" fill-rule="nonzero">
                <g id="DNS">
                    <path d="M0,0.963241161 L9.68268608,0.963241161 C11.3453695,0.963241161 12.8124432,1.07999766 14.083907,1.31351067 C15.3553709,1.54702368 16.4801273,1.88269863 17.4581764,2.32053552 C18.4362255,2.75837241 19.301799,3.29837125 20.0548968,3.94053202 C20.8079946,4.58269279 21.4975192,5.32215065 22.1234706,6.1589056 C23.3949345,7.87133433 24.3534226,9.87078947 24.998935,12.157271 C25.6444474,14.4437526 25.9672036,17.0075308 25.9672036,19.8486057 C25.9672036,22.6702213 25.6493376,25.2145401 25.0136057,27.4815622 C24.3778738,29.7485843 23.3704832,31.6750666 21.991434,33.2610092 C20.6123848,34.8469517 18.8470061,36.0680301 16.6952981,36.9242445 C14.5435901,37.7804589 11.9615405,38.208566 8.94914926,38.208566 L0,38.208566 L0,0.963241161 Z M6.54314847,6.53836424 L6.54314847,32.9545233 L8.83178337,32.9545233 C12.3723211,32.9545233 14.9886024,31.8404717 16.6806274,29.6123684 C18.3726523,27.3842651 19.2186648,24.1880558 19.2186648,20.0237405 C19.2186648,17.9221234 19.0377257,16.0394248 18.6758475,14.3756446 C18.3139694,12.7118644 17.7369204,11.2961918 16.9447006,10.1286267 C16.1524809,8.96106171 15.1402001,8.07079336 13.9078582,7.45782171 C12.6755163,6.84485007 11.1888817,6.53836424 9.4479543,6.53836424 L6.54314847,6.53836424 Z" id="Shape"></path>
                    <path d="M56.1031953,38.208566 L48.6798026,38.208566 L35.9749448,10.0410594 L35.9749448,38.208566 L29.9306014,38.208566 L29.9306014,0.963241161 L38.1462138,0.963241161 L50.0588518,27.6421024 L50.0588518,0.963241161 L56.5433174,0.963241161 C56.6215613,1.04107883 56.6606832,1.13837592 56.6606832,1.25513242 C56.6606832,1.41080776 56.5873296,1.60053708 56.4406222,1.82432038 C56.2939148,2.04810368 56.1814392,2.4616163 56.1031953,3.06485824 L56.1031953,38.208566 Z" id="Path"></path>
                    <path d="M81.5152098,10.5956528 C81.2217951,10.5761933 81.0115145,10.5178151 80.8843681,10.420518 C80.7572217,10.3232209 80.6594168,10.1967347 80.5909534,10.0410594 C80.52249,9.88538403 80.4686973,9.71511413 80.4295753,9.53024966 C80.3904533,9.3453852 80.3122094,9.16538559 80.1948435,8.99025083 C79.5297701,7.99782055 78.6006235,7.17079531 77.4074036,6.50917512 C76.2141837,5.84755492 74.805793,5.51674483 73.1822315,5.51674483 C72.4780361,5.51674483 71.837414,5.62863648 71.260365,5.85241978 C70.683316,6.07620308 70.1942915,6.37782405 69.7932913,6.75728269 C69.3922912,7.13674133 69.0842057,7.57457822 68.8690349,8.07079336 C68.6538641,8.5670085 68.5462787,9.08754792 68.5462787,9.63241161 C68.5462787,10.2745724 68.6587544,10.8826792 68.8837057,11.456732 C69.108657,12.0307848 69.5194376,12.5951079 70.1160475,13.1497013 C70.7126575,13.7042947 71.5244382,14.2637529 72.5513898,14.828076 C73.5783414,15.3923992 74.8840369,15.9956411 76.4684764,16.6378019 C78.3658917,17.3967191 79.945441,18.1896904 81.2071243,19.0167156 C82.4688077,19.8437409 83.4761982,20.7194147 84.229296,21.643737 C84.9823938,22.5680593 85.5105404,23.5507599 85.8137356,24.5918387 C86.1169308,25.6329176 86.2685284,26.7469692 86.2685284,27.9339937 C86.2685284,29.3350717 86.0289064,30.7166903 85.5496623,32.0788496 C85.0704183,33.4410088 84.2977595,34.6523575 83.231686,35.7128958 C82.1656124,36.773434 80.7914535,37.6345132 79.109209,38.2961334 C77.4269646,38.9577536 75.3828419,39.2885637 72.9768412,39.2885637 C70.4339135,39.2885637 68.1159371,38.8069431 66.0229121,37.843702 C63.929887,36.8804608 62.0226912,35.4842476 60.3013248,33.6550624 L63.7342772,27.7004806 C63.969009,27.7588589 64.149948,27.8464263 64.2770944,27.9631828 C64.4042408,28.0799393 64.5167164,28.2161552 64.6145214,28.3718305 C64.7123263,28.5275059 64.8101312,28.7026406 64.9079361,28.8972348 C65.005741,29.091829 65.1328874,29.3058826 65.2893752,29.5393956 C65.7001559,30.0453404 66.1745097,30.5415556 66.7124367,31.028041 C67.2503637,31.5145265 67.8616444,31.9426336 68.5462787,32.3123626 C69.2309131,32.6820915 69.9840109,32.9788476 70.8055722,33.2026309 C71.6271334,33.4264142 72.5367191,33.5383059 73.5343291,33.5383059 C75.3730614,33.5383059 76.8156839,33.1150635 77.8621964,32.2685789 C78.9087089,31.4220942 79.4319652,30.093989 79.4319652,28.2842632 C79.4319652,27.7199401 79.3145993,27.1799412 79.0798675,26.6642667 C78.8451358,26.1485921 78.4490259,25.6426473 77.8915379,25.1464321 C77.3340499,24.650217 76.5858423,24.1442721 75.6469152,23.6285976 C74.7079881,23.112923 73.5245487,22.5729242 72.096597,22.0086011 C70.2187427,21.2496838 68.6147422,20.4518477 67.2845954,19.6150927 C65.9544486,18.7783378 64.8639239,17.8832046 64.0130212,16.9296931 C63.1621184,15.9761817 62.5410573,14.964292 62.1498376,13.894024 C61.758618,12.8237561 61.5630082,11.6853801 61.5630082,10.4788963 C61.5630082,9.01943996 61.8662034,7.65728074 62.4725938,6.39241861 C63.0789843,5.12755648 63.9249967,4.01836969 65.0106312,3.06485824 C66.0962657,2.11134679 67.3872906,1.36215922 68.8837057,0.81729553 C70.3801208,0.272431843 72.0281335,0 73.8277439,0 C76.0968178,0 78.2289648,0.476755726 80.224185,1.43026718 C82.2194051,2.38377863 83.9114301,3.76539726 85.3002598,5.57512308 L81.5152098,10.5956528 Z" id="Path"></path>
                </g>
                <g id="Dumpster" transform="translate(0, 52.772)">
                    <path d="M0,0 L9.68268608,0 C11.3453695,0 12.8124432,0.116756504 14.083907,0.350269513 C15.3553709,0.583782522 16.4801273,0.919457471 17.4581764,1.35729436 C18.4362255,1.79513125 19.301799,2.33513009 20.0548968,2.97729086 C20.8079946,3.61945163 21.4975192,4.35890949 22.1234706,5.19566444 C23.3949345,6.90809317 24.3534226,8.90754831 24.998935,11.1940299 C25.6444474,13.4805114 25.9672036,16.0442896 25.9672036,18.8853646 C25.9672036,21.7069801 25.6493376,24.2512989 25.0136057,26.518321 C24.3778738,28.7853432 23.3704832,30.7118255 21.991434,32.297768 C20.6123848,33.8837105 18.8470061,35.104789 16.6952981,35.9610033 C14.5435901,36.8172177 11.9615405,37.2453249 8.94914926,37.2453249 L0,37.2453249 L0,0 Z M6.54314847,5.57512308 L6.54314847,31.9912822 L8.83178337,31.9912822 C12.3723211,31.9912822 14.9886024,30.8772305 16.6806274,28.6491272 C18.3726523,26.421024 19.2186648,23.2248146 19.2186648,19.0604993 C19.2186648,16.9588823 19.0377257,15.0761836 18.6758475,13.4124034 C18.3139694,11.7486232 17.7369204,10.3329506 16.9447006,9.16538559 C16.1524809,7.99782055 15.1402001,7.1075522 13.9078582,6.49458055 C12.6755163,5.8816089 11.1888817,5.57512308 9.4479543,5.57512308 L6.54314847,5.57512308 Z" id="Shape"></path>
                    <path d="M54.4894142,9.34052034 L54.4894142,33.8885754 C54.4894142,34.3945202 54.5432069,34.9296542 54.6507923,35.4939773 C54.7583777,36.0583004 54.8904144,36.6420829 55.0469022,37.2453249 L48.5330952,37.2453249 C48.2983635,37.0701901 48.1418756,36.807488 48.0636317,36.4572185 C47.9853877,36.106949 47.9462658,35.7955983 47.9462658,35.5231664 L47.9462658,34.6183035 C47.5354852,35.2215455 47.0366801,35.7566794 46.4498507,36.2237055 C45.8630212,36.6907315 45.2272893,37.0896495 44.5426549,37.4204596 C43.8580205,37.7512697 43.1587154,38.0042422 42.4447396,38.1793769 C41.7307637,38.3545117 41.0412391,38.442079 40.3761657,38.442079 C38.9090921,38.442079 37.5985063,38.2280255 36.4444084,37.7999183 C35.2903104,37.3718111 34.3122613,36.6907315 33.5102611,35.7566794 C32.7082608,34.8226274 32.0969801,33.6161435 31.676419,32.1372278 C31.2558579,30.6583121 31.0455773,28.8777754 31.0455773,26.7956177 L31.0455773,9.34052034 L37.6767502,9.34052034 L37.6767502,26.7956177 C37.6767502,28.9361537 38.0435186,30.4977719 38.7770555,31.4804725 C39.5105923,32.4631731 40.4837511,32.9545233 41.696532,32.9545233 C42.5376543,32.9545233 43.3249838,32.7842534 44.0585206,32.4437136 C44.7920574,32.1031738 45.4277893,31.631283 45.9657163,31.028041 C46.5036434,30.4247991 46.9290947,29.6999358 47.2420704,28.8534511 C47.5550461,28.0069665 47.711534,27.0777793 47.711534,26.0658896 L47.711534,9.34052034 L54.4894142,9.34052034 Z" id="Path"></path>
                    <path d="M60.5653981,37.2453249 L60.5653981,9.01943996 L66.3163268,9.01943996 L66.3163268,10.7707875 C67.196571,9.83673549 68.0817054,9.16538559 68.9717301,8.75673782 C69.8617548,8.34809006 70.6979868,8.14376618 71.480426,8.14376618 C71.8520847,8.14376618 72.2481946,8.19727957 72.6687557,8.30430637 C73.0893168,8.41133316 73.5000974,8.59619763 73.9010976,8.85889976 C74.3020977,9.1216019 74.6884271,9.46700656 75.0600857,9.89511374 C75.4317444,10.3232209 75.7642811,10.8486252 76.0576958,11.4713265 C76.7423302,10.3815992 77.6030134,9.55457394 78.6397454,8.99025083 C79.6764775,8.42592773 80.7132095,8.14376618 81.7499416,8.14376618 C82.8257956,8.14376618 83.7207105,8.32376579 84.4346864,8.68376501 C85.1486622,9.04376423 85.7208209,9.57889821 86.1511625,10.2891669 C86.5815041,10.9994357 86.8895896,11.8848392 87.0754189,12.9453774 C87.2612482,14.0059157 87.3541629,15.2269941 87.3541629,16.6086127 L87.3541629,37.2453249 L81.1044292,37.2453249 L81.1044292,17.7469887 C81.1044292,16.1902353 80.9723925,15.0761836 80.7083193,14.4048337 C80.444246,13.7334838 79.9796727,13.3978089 79.3145993,13.3978089 C77.7888427,13.3978089 77.0259644,15.2269941 77.0259644,18.8853646 L77.0259644,37.2453249 L70.8349136,37.2453249 L70.8349136,18.068069 C70.8349136,17.0756388 70.7811209,16.2729378 70.6735355,15.6599661 C70.5659501,15.0469945 70.4290233,14.5751036 70.2627549,14.2442935 C70.0964866,13.9134834 69.9106572,13.6897001 69.7052669,13.5729436 C69.4998766,13.4561871 69.2895961,13.3978089 69.0744253,13.3978089 C68.7027666,13.3978089 68.3653397,13.4805114 68.0621444,13.6459164 C67.7589492,13.8113215 67.4997662,14.093483 67.2845954,14.4924011 C67.0694246,14.8913192 66.9031563,15.431318 66.7857904,16.1123976 C66.6684245,16.7934772 66.6097415,17.6594213 66.6097415,18.7102298 L66.6097415,37.2453249 L60.5653981,37.2453249 Z" id="Path"></path>
                    <path d="M99.2984413,23.0302205 C99.2984413,24.7621086 99.4255877,26.2361595 99.6798805,27.4523731 C99.9341733,28.6685867 100.296051,29.6610169 100.765515,30.4296639 C101.234979,31.1983109 101.807137,31.7577692 102.481991,32.1080387 C103.156845,32.4583082 103.914833,32.633443 104.755955,32.633443 C105.44059,32.633443 106.144785,32.4777676 106.868541,32.1664169 C107.592298,31.8550663 108.252481,31.3491214 108.849091,30.6485824 C109.445701,29.9480434 109.934725,29.0285859 110.316164,27.89021 C110.697604,26.7518341 110.888323,25.3458911 110.888323,23.6723812 C110.888323,20.6561716 110.345506,18.3307712 109.259871,16.6961801 C108.174237,15.0615891 106.614249,14.2442935 104.579906,14.2442935 C103.504052,14.2442935 102.623808,14.4826714 101.939174,14.9594271 C101.25454,15.4361828 100.716613,16.0783436 100.325393,16.8859094 C99.9341733,17.6934753 99.6652098,18.6275273 99.5185024,19.6880655 C99.371795,20.7486038 99.2984413,21.8626554 99.2984413,23.0302205 Z M92.5205611,9.34052034 L99.0050266,9.34052034 L99.0050266,12.2010547 C99.4549292,11.5783533 99.9537342,11.0480842 100.501442,10.6102473 C101.049149,10.1724104 101.616418,9.81241122 102.203247,9.53024966 C102.790077,9.24808811 103.381796,9.04376423 103.978406,8.91727802 C104.575016,8.7907918 105.156955,8.7275487 105.724224,8.7275487 C107.367346,8.7275487 108.907774,9.04376423 110.345506,9.67619529 C111.783238,10.3086264 113.044921,11.257273 114.130556,12.5221351 C115.21619,13.7869972 116.071983,15.3778046 116.697935,17.2945572 C117.323886,19.2113098 117.636862,21.4540077 117.636862,24.0226508 C117.636862,26.3577808 117.314106,28.4058845 116.668593,30.1669618 C116.023081,31.9280391 115.157507,33.4020899 114.071873,34.5891144 C112.986238,35.7761389 111.729445,36.6664072 110.301494,37.2599194 C108.873542,37.8534317 107.367346,38.1501878 105.782907,38.1501878 C104.609248,38.1501878 103.435589,37.9020802 102.26193,37.4058651 C101.088271,36.9096499 100.100442,36.2431649 99.2984413,35.4064099 L99.2984413,47.228006 L92.579244,47.228006 L92.5205611,9.34052034 Z" id="Shape"></path>
                    <path d="M143.342291,18.4183386 C143.185803,18.4183386 143.063547,18.3745549 142.975523,18.2869875 C142.887498,18.1994201 142.819035,18.0923933 142.770132,17.9659071 C142.72123,17.8394209 142.677218,17.703205 142.638096,17.5572593 C142.598974,17.4113137 142.550071,17.2799626 142.491389,17.1632061 C142.139291,16.735099 141.699169,16.3215863 141.171022,15.9226683 C140.642876,15.5237502 140.060936,15.1783456 139.425205,14.8864543 C138.789473,14.594563 138.114619,14.36105 137.400643,14.1859153 C136.686667,14.0107805 135.977582,13.9232131 135.273386,13.9232131 C134.666996,13.9232131 134.089947,13.9669968 133.542239,14.0545642 C132.994532,14.1421316 132.510397,14.2832124 132.089836,14.4778065 C131.669275,14.6724007 131.336739,14.9253731 131.092226,15.2367238 C130.847714,15.5480745 130.725458,15.9275331 130.725458,16.3750997 C130.725458,16.8810446 130.857494,17.3042869 131.121568,17.6448267 C131.385641,17.9853665 131.781751,18.2967172 132.309897,18.5788787 C132.838044,18.8610403 133.503117,19.1286073 134.305118,19.3815797 C135.107118,19.6345521 136.055825,19.906984 137.15124,20.1988752 C140.496168,21.1329273 142.955962,22.3296814 144.530621,23.7891378 C146.10528,25.2485941 146.892609,26.922104 146.892609,28.8096674 C146.892609,30.0745296 146.608975,31.2712837 146.041707,32.3999299 C145.474438,33.5285762 144.672438,34.5258713 143.635706,35.3918154 C142.598974,36.2577594 141.342181,36.9437039 139.865327,37.4496488 C138.388473,37.9555936 136.74046,38.208566 134.921288,38.208566 C132.55441,38.208566 130.36847,37.8339723 128.363469,37.0847847 C126.358469,36.3355971 124.475724,35.1339781 122.715236,33.4799276 L126.206871,27.2042655 C126.441603,27.2431843 126.617652,27.3842651 126.735018,27.6275078 C126.852383,27.8707505 126.999091,28.2064255 127.17514,28.6345327 C127.488115,29.1404775 127.938018,29.6318278 128.524847,30.1085835 C129.111677,30.5853393 129.76697,31.0183113 130.490726,31.4074997 C131.214482,31.796688 131.97247,32.1080387 132.76469,32.3415517 C133.55691,32.5750647 134.314898,32.6918212 135.038654,32.6918212 C136.642655,32.6918212 137.884777,32.4631731 138.765021,32.0058767 C139.645266,31.5485804 140.085388,30.862636 140.085388,29.9480434 C140.085388,29.4810173 139.987583,29.0723696 139.791973,28.7221001 C139.596363,28.3718305 139.288278,28.0458853 138.867717,27.7442643 C138.447155,27.4426434 137.894558,27.1604818 137.209923,26.8977797 C136.525289,26.6350775 135.684167,26.3577808 134.686557,26.0658896 C134.138849,25.9102142 133.596032,25.7545389 133.058105,25.5988636 C132.520178,25.4431882 131.977361,25.2583238 131.429653,25.0442702 C130.334238,24.6356224 129.356189,24.1734612 128.495506,23.6577867 C127.634823,23.1421121 126.906176,22.5631945 126.309566,21.9210337 C125.712956,21.2788729 125.258163,20.5540096 124.945188,19.7464438 C124.632212,18.938878 124.475724,18.0388799 124.475724,17.0464496 C124.475724,16.0540193 124.754468,15.0615891 125.311956,14.0691588 C125.869444,13.0767285 126.637213,12.1864601 127.615262,11.3983537 C128.593311,10.6102473 129.762079,9.96808656 131.121568,9.47187141 C132.481056,8.97565627 133.972581,8.7275487 135.596142,8.7275487 C137.728289,8.7275487 139.708839,9.10700734 141.537791,9.86592461 C143.366742,10.6248419 145.044097,11.8605149 146.569853,13.5729436 L143.342291,18.4183386 Z" id="Path"></path>
                    <path d="M160.744084,2.8021561 L168.196818,1.54702368 C168.196818,2.05296853 168.118574,2.47134601 167.962086,2.8021561 C167.805598,3.1329662 167.668671,3.51242484 167.551305,3.94053202 L166.935134,9.34052034 L175.41482,9.34052034 L175.41482,14.7696978 L166.700403,14.7696978 C166.64172,16.2096947 166.548805,17.6983401 166.421659,19.2356341 C166.294512,20.7729281 166.230939,22.2907626 166.230939,23.7891378 C166.230939,25.3069723 166.265171,26.6107533 166.333634,27.7004806 C166.402098,28.790208 166.548805,29.6756115 166.773756,30.3566911 C166.998708,31.0377707 167.321464,31.5388507 167.742025,31.8599311 C168.162586,32.1810115 168.715184,32.3415517 169.399818,32.3415517 C170.064892,32.3415517 170.945136,32.0545253 172.040551,31.4804725 C173.135966,30.9064197 174.378088,30.093989 175.766918,29.0431804 L177.879504,34.5599253 C176.236381,35.7274903 174.627491,36.6274884 173.052832,37.2599194 C171.478172,37.8923505 169.918184,38.208566 168.372867,38.208566 C166.807988,38.208566 165.463171,37.9896476 164.338414,37.5518107 C163.213658,37.1139738 162.284511,36.4328942 161.550974,35.5085719 C160.817437,34.5842495 160.27951,33.4020899 159.937193,31.9620931 C159.594876,30.5220962 159.423717,28.7999377 159.423717,26.7956177 C159.423717,25.4529179 159.462839,23.7940026 159.541083,21.8188717 C159.619327,19.8437409 159.766035,17.4940162 159.981205,14.7696978 L153.90752,14.7696978 L153.90752,9.34052034 L160.333303,9.34052034 L160.744084,2.8021561 Z" id="Path"></path>
                    <path d="M196.660345,8.7275487 C198.323029,8.7275487 199.878127,9.01943996 201.32564,9.60322248 C202.773152,10.187005 204.039726,11.0480842 205.12536,12.1864601 C206.210995,13.3248361 207.066788,14.7453735 207.692739,16.4480725 C208.318691,18.1507716 208.631666,20.1210376 208.631666,22.3588706 C208.631666,22.845356 208.612105,23.3221117 208.572984,23.7891378 C208.533862,24.2561638 208.49474,24.7134601 208.455618,25.1610267 L190.058514,25.1610267 C190.215002,26.5037265 190.527978,27.656697 190.997441,28.6199381 C191.466905,29.5831793 192.034173,30.3810154 192.699247,31.0134465 C193.36432,31.6458775 194.102747,32.1129035 194.914528,32.4145245 C195.726309,32.7161455 196.55276,32.866956 197.393882,32.866956 C198.665346,32.866956 199.912359,32.5799296 201.13492,32.0058767 C202.357481,31.4318239 203.408884,30.5902041 204.289128,29.4810173 L208.015496,33.1880364 C205.179153,36.5350561 201.638615,38.208566 197.393882,38.208566 C195.379101,38.208566 193.515918,37.8777559 191.804332,37.2161357 C190.092746,36.5545156 188.615892,35.6010041 187.373769,34.3556014 C186.131647,33.1101987 185.158488,31.5874993 184.454293,29.7875032 C183.750097,27.9875071 183.398,25.9491331 183.398,23.6723812 C183.398,21.3567106 183.730536,19.2745529 184.39561,17.4259083 C185.060683,15.5772636 185.98494,14.0107805 187.168379,12.726459 C188.351818,11.4421374 189.750429,10.454572 191.36421,9.76376267 C192.977991,9.07295336 194.743369,8.7275487 196.660345,8.7275487 Z M201.912469,20.2572535 C201.912469,19.3815797 201.780433,18.5496896 201.516359,17.7615832 C201.252286,16.9734768 200.880627,16.2826675 200.401383,15.6891553 C199.922139,15.095643 199.33531,14.6237522 198.640895,14.2734827 C197.94648,13.9232131 197.168931,13.7480784 196.308248,13.7480784 C195.486687,13.7480784 194.728699,13.9037537 194.034284,14.2151044 C193.339869,14.5264551 192.733478,14.964292 192.215112,15.5286151 C191.696746,16.0929382 191.276185,16.7740178 190.953429,17.5718539 C190.630673,18.36969 190.410612,19.2648232 190.293246,20.2572535 L201.912469,20.2572535 Z" id="Shape"></path>
                    <path d="M217.142993,9.34052034 L224.06758,9.34052034 L224.06758,12.3761895 C224.517483,11.8702446 225.026068,11.3934889 225.593337,10.9459223 C226.160605,10.4983557 226.766996,10.1091673 227.412508,9.77835724 C228.05802,9.44754714 228.737765,9.18970986 229.45174,9.00484539 C230.165716,8.81998093 230.894363,8.7275487 231.63768,8.7275487 C233.22212,8.7275487 234.733206,8.97565627 236.170938,9.47187141 C237.60867,9.96808656 238.885024,10.7415984 240,11.7924069 L236.860462,18.3015821 C235.882413,16.9588823 234.943486,15.9761817 234.043681,15.3534803 C233.143876,14.730779 232.244071,14.4194283 231.344265,14.4194283 C230.307533,14.4194283 229.344155,14.6383467 228.45413,15.0761836 C227.564106,15.5140205 226.781666,16.1075327 226.106813,16.8567203 C225.431959,17.6059079 224.903812,18.4815817 224.522373,19.4837417 C224.140934,20.4859017 223.950214,21.541575 223.950214,22.6507618 L223.950214,37.2453249 L217.142993,37.2453249 L217.142993,9.34052034 Z" id="Path"></path>
                </g>
            </g>
        </g>
    </g>
</svg>