<?xml version="1.0" encoding="UTF-8"?>
<svg width="240px" height="240px" viewBox="0 0 240 240" version="1.1" xmlns="http://www.w3.org/2000/svg" xmlns:xlink="http://www.w3.org/1999/xlink">
    <title>doge</title>
    <g id="Page-1" stroke="none" stroke-width="1" fill="none" fill-rule="evenodd">
        <g id="shape">
            <circle id="Oval" fill="#988430" fill-rule="nonzero" cx="120" cy="120" r="120"></circle>
            <circle id="Oval" fill="#7A6A2A" fill-rule="nonzero" cx="120" cy="120" r="116.15616"></circle>
            <circle id="Oval" fill="#BA9F33" fill-rule="nonzero" cx="120" cy="120" r="113.7088"></circle>
            <path d="M186.00064,90.48576 C173.86496,59.14624 143.86432,53.34016 143.86432,53.34016 L58.27072,53.34016 L58.60224,85.26208 L75.648,85.26208 L75.648,156.544 L58.27072,156.544 L58.27072,188.40832 L141.49504,188.40832 C161.55264,188.40832 177.63072,168.25216 177.63072,168.25216 C203.37792,131.70944 185.99936,90.48576 185.99936,90.48576 L186.00064,90.48576 Z M141.94176,146.77632 C141.94176,146.77632 135.41376,156.19456 128.31104,156.19456 L114.10304,156.19456 L113.7664,85.34016 L132,85.34016 C132,85.34016 140.448,87.10656 146.35008,103.82464 C146.35008,103.82464 154.17472,127.76064 141.94176,146.77632 L141.94176,146.77632 Z" id="Shape" fill-opacity="0.800000012" fill="#FFFFFF"></path>
        </g>
    </g>
</svg>