<?xml version="1.0" encoding="UTF-8"?>
<svg width="240px" height="240px" viewBox="0 0 240 240" version="1.1" xmlns="http://www.w3.org/2000/svg" xmlns:xlink="http://www.w3.org/1999/xlink">
    <title>dotnet</title>
    <g id="Page-1" stroke="none" stroke-width="1" fill="none" fill-rule="evenodd">
        <g id="dotnet" transform="translate(0, -0.3737)" fill-rule="nonzero">
            <rect id="box" fill="#512BD4" x="0" y="0.373720558" width="240" height="240"></rect>
            <g id="shape" transform="translate(37, 90.3737)" fill="#FFFFFF">
                <path d="M5.95859839,63 C4.30345783,63 2.89657297,62.4224254 1.73794378,61.2667384 C0.579314593,60.0814735 0,58.6741059 0,57.0446357 C0,55.3850497 0.579314593,53.9631621 1.73794378,52.7778973 C2.89657297,51.5926324 4.30345783,51 5.95859839,51 C7.64135712,51 9.06205109,51.5926324 10.2206803,52.7778973 C11.4068763,53.9631621 12,55.3850497 12,57.0446357 C12,58.6741059 11.4068763,60.0814735 10.2206803,61.2667384 C9.06205109,62.4224254 7.64135712,63 5.95859839,63 Z" id="Path"></path>
                <path d="M74,62 L62.8814708,62 L33.5890959,16.4297515 C32.8479667,15.2767498 32.2346916,14.0803274 31.7503316,12.8410075 L31.4935624,12.8410075 C31.7216838,14.1671687 31.8357445,17.0062524 31.8357445,21.3582584 L31.8357445,62 L22,62 L22,0 L33.8453345,0 L62.1546655,44.4894402 C63.3520374,46.3345568 64.1218144,47.6026495 64.4639964,48.2942412 L64.6348222,48.2942412 C64.3499357,46.65158 64.2072272,43.8700418 64.2072272,39.9496266 L64.2072272,0 L74,0 L74,62 Z" id="Path"></path>
                <polygon id="Path" points="121 62 87 62 87 0 119.648656 0 119.648656 8.73383116 97.0525521 8.73383116 97.0525521 26.2872885 117.874985 26.2872885 117.874985 34.977699 97.0525521 34.977699 97.0525521 53.3095895 121 53.3095895"></polygon>
                <polygon id="Path" points="170 8.73383116 152.525958 8.73383116 152.525958 62 142.431423 62 142.431423 8.73383116 125 8.73383116 125 0 170 0"></polygon>
            </g>
        </g>
    </g>
</svg>