<?xml version="1.0" encoding="UTF-8"?>
<svg width="240px" height="240px" viewBox="0 0 240 240" version="1.1" xmlns="http://www.w3.org/2000/svg" xmlns:xlink="http://www.w3.org/1999/xlink">
    <title>dragonflydb</title>
    <g id="Page-1" stroke="none" stroke-width="1" fill="none" fill-rule="evenodd">
        <g id="dragonflydb" fill="#FFFFFF" fill-rule="nonzero">
            <path d="M120,2.0558e-05 C21.18,2.0558e-05 0,21.1800206 0,120.000021 C0,218.820021 21.18,240.000021 120,240.000021 C218.82,240.000021 240,218.820021 240,120.000021 C240,21.1800206 218.82,2.0558e-05 120,2.0558e-05 Z M114.628846,163.63921 L112,133.000021 C113.648097,133.971911 116.32394,135.062193 119.999866,135.062193 C123.674718,135.062193 126.351097,133.972456 128,133.000021 L125.370886,163.63921 C125.370886,163.63921 124.028131,165.000021 119.999866,165.000021 C115.971601,165.000021 114.628846,163.63921 114.628846,163.63921 Z M115.352012,185.322849 L114,167.000021 C114.049778,167.020367 114.100385,167.040446 114.152374,167.060525 C115.378284,167.535187 117.114413,167.921235 119.500138,167.921235 C121.88614,167.921235 123.622269,167.535187 124.848179,167.060525 C124.899892,167.040446 124.950499,167.020367 125,167.000288 L123.648264,185.322849 C123.648264,185.322849 122.95691,188.000021 119.500138,188.000021 C116.043367,188.000021 115.352012,185.322849 115.352012,185.322849 Z M50.0828958,109.000021 L104.725689,109.000021 C102.652019,112.370424 103.580118,114.718754 104.495861,117.035756 L104.496136,117.036291 L104.496136,117.036559 L104.49641,117.036827 L104.49641,117.037094 L104.496685,117.03763 C104.67187,117.481055 104.846781,117.923676 105,118.371921 L53.6994617,132.698611 C50.4239311,133.598581 46.9180231,132.441285 44.8759306,129.78636 L41.6476286,125.588552 C39.7755046,123.154535 39.4742843,119.897666 40.8697279,117.176334 L42.7852365,113.440159 C44.1691475,110.740784 46.988317,109.025726 50.0828958,109.000021 Z M189.916872,109.000021 C193.011712,109.025726 195.830596,110.740784 197.214775,113.440427 L199.130276,117.176334 C200.525714,119.897666 200.224494,123.154535 198.352378,125.588552 L195.123815,129.78636 C193.082006,132.441285 189.576113,133.598581 186.300322,132.698611 L135,118.371921 C135.153493,117.923408 135.328403,117.480787 135.503862,117.036827 C136.42015,114.718754 137.348245,112.370424 135.274584,109.000021 Z M128.859931,102.000021 C129.30516,102.313948 129.658244,102.759602 129.858307,103.294276 L132.647561,110.748934 C133.09279,111.93864 133.116864,113.245098 132.715908,114.450334 L128.214363,127.984694 C127.942909,128.801403 127.487718,129.552388 126.766331,130.019951 C125.502035,130.839433 123.079978,132.000021 119.499882,132.000021 C115.920063,132.000021 113.498006,130.839433 112.23371,130.019951 C111.512323,129.552388 111.057132,128.801403 110.785401,127.984694 L106.283855,114.450334 C105.883177,113.245098 105.907251,111.93864 106.35248,110.748934 L109.141734,103.294276 C109.341796,102.759602 109.69488,102.313948 110.140109,102.000021 C112.603673,104.269336 115.890455,105.654553 119.499882,105.654553 C123.109586,105.654553 126.396367,104.269336 128.859931,102.000021 Z M197.518708,75.6928458 L203.798412,80.4942084 C205.858628,82.0695706 207.006811,84.4832961 207.00003,86.9771893 C206.997781,87.7688108 206.879296,88.5683133 206.636579,89.3517822 L203.59291,99.1145709 C202.570054,102.415847 199.529395,104.405636 196.054474,104.549666 L133.801967,106.000021 C133.801967,106.000021 133.790681,105.971981 133.770053,105.919902 L133.716917,105.784874 C133.469906,105.153477 132.750037,103.265741 132.43378,101.9237 C132.301887,101.363885 132.162605,100.804342 132.044394,100.340185 C131.878296,99.68743 132.188054,99.0178262 132.810031,98.7509631 C140.061696,95.6380126 182.251657,77.5334406 189.283317,74.656645 C192.015039,73.4965241 195.164605,73.8930142 197.518708,75.6928458 Z M42.4813242,75.6928458 C44.8354346,73.8930142 47.9850116,73.4965241 50.7167429,74.656645 C57.7484266,77.5334406 99.9385287,95.6380126 107.189944,98.7506913 C107.812197,99.0178262 108.121682,99.68743 107.955584,100.339913 C107.837372,100.804342 107.69809,101.363885 107.566197,101.9237 C107.250164,103.265741 106.530147,105.153477 106.283076,105.784874 L106.229928,105.919902 C106.209295,105.971981 106.198005,106.000021 106.198005,106.000021 L43.9455629,104.549666 C40.4706299,104.405636 37.429961,102.415847 36.407101,99.1145709 L33.3634221,89.3517822 C33.1207049,88.5683133 33.0022195,87.7688108 32.9999699,86.9771893 C32.9931894,84.4832961 34.1413758,82.0695706 36.2015986,80.4942084 Z M128.142857,68.0000206 C134.138986,68.0000206 139,72.8216744 139,78.7692513 C139,82.8841744 136.673314,86.4600975 133.253586,88.2730975 C131.821257,89.0325975 130.857143,90.6197129 130.857143,92.2307898 C130.857143,98.1783667 125.996129,103.000021 120,103.000021 C114.003871,103.000021 109.142857,98.1783667 109.142857,92.2307898 C109.142857,90.6197129 108.178743,89.0325975 106.746414,88.2730975 C103.326686,86.4600975 101,82.8841744 101,78.7692513 C101,72.8216744 105.861014,68.0000206 111.857143,68.0000206 C112.904314,68.0000206 113.917014,68.1470206 114.875157,68.4216359 C118.0126,69.3203283 121.9874,69.3203283 125.124843,68.4216359 C126.082986,68.1470206 127.095686,68.0000206 128.142857,68.0000206 Z" id="Shape"></path>
        </g>
    </g>
</svg>