<?xml version="1.0" encoding="UTF-8"?>
<svg width="240px" height="240px" viewBox="0 0 240 240" version="1.1" xmlns="http://www.w3.org/2000/svg" xmlns:xlink="http://www.w3.org/1999/xlink">
    <title>dragonflydb</title>
    <g id="Page-1" stroke="none" stroke-width="1" fill="none" fill-rule="evenodd">
        <g id="dragonflydb" transform="translate(0, -0.3737)" fill="#FFFFFF">
            <path d="M120,0.373720558 C21.18,0.373720558 0,21.5537206 0,120.373721 C0,219.193721 21.18,240.373721 120,240.373721 C218.82,240.373721 240,219.193721 240,120.373721 C240,21.5537206 218.82,0.373720558 120,0.373720558 Z M106.746414,88.6467975 C108.178743,89.4062975 109.142857,90.9934129 109.142857,92.6044898 C109.142857,98.5520667 114.003871,103.373721 120,103.373721 C125.996129,103.373721 130.857143,98.5520667 130.857143,92.6044898 C130.857143,90.9934129 131.821257,89.4062975 133.253586,88.6467975 C136.673314,86.8337975 139,83.2578744 139,79.1429513 C139,73.1953744 134.138986,68.3737206 128.142857,68.3737206 C127.095686,68.3737206 126.082986,68.5207206 125.124843,68.7953359 C121.9874,69.6940283 118.0126,69.6940283 114.875157,68.7953359 C113.917014,68.5207206 112.904314,68.3737206 111.857143,68.3737206 C105.861014,68.3737206 101,73.1953744 101,79.1429513 C101,83.2578744 103.326686,86.8337975 106.746414,88.6467975 Z M110.140109,102.373721 C109.69488,102.687648 109.341796,103.133302 109.141734,103.667976 L106.35248,111.122634 C105.907251,112.31234 105.883177,113.618798 106.283855,114.824034 L110.785401,128.358394 C111.057132,129.175103 111.512323,129.926088 112.23371,130.393651 C113.498006,131.213133 115.920063,132.373721 119.499882,132.373721 C123.079978,132.373721 125.502035,131.213133 126.766331,130.393651 C127.487718,129.926088 127.942909,129.175103 128.214363,128.358394 L132.715908,114.824034 C133.116864,113.618798 133.09279,112.31234 132.647561,111.122634 L129.858307,103.667976 C129.658244,103.133302 129.30516,102.687648 128.859931,102.373721 C126.396367,104.643036 123.109586,106.028253 119.499882,106.028253 C115.890455,106.028253 112.603673,104.643036 110.140109,102.373721 Z M114.628846,164.01291 L112,133.373721 C113.648097,134.345611 116.32394,135.435893 119.999866,135.435893 C123.674718,135.435893 126.351097,134.346156 128,133.373721 L125.370886,164.01291 C125.370886,164.01291 124.028131,165.373721 119.999866,165.373721 C115.971601,165.373721 114.628846,164.01291 114.628846,164.01291 Z M115.352012,185.696549 L114,167.373721 C114.049778,167.394067 114.100385,167.414146 114.152374,167.434225 C115.378284,167.908887 117.114413,168.294935 119.500138,168.294935 C121.88614,168.294935 123.622269,167.908887 124.848179,167.434225 C124.899892,167.414146 124.950499,167.394067 125,167.373988 L123.648264,185.696549 C123.648264,185.696549 122.95691,188.373721 119.500138,188.373721 C116.043367,188.373721 115.352012,185.696549 115.352012,185.696549 Z M50.0828958,109.373721 L104.725689,109.373721 C102.652019,112.744124 103.580118,115.092454 104.495861,117.409456 L104.496136,117.409991 L104.496136,117.410259 L104.49641,117.410527 L104.49641,117.410794 L104.496685,117.41133 C104.67187,117.854755 104.846781,118.297376 105,118.745621 L53.6994617,133.072311 C50.4239311,133.972281 46.9180231,132.814985 44.8759306,130.16006 L41.6476286,125.962252 C39.7755046,123.528235 39.4742843,120.271366 40.8697279,117.550034 L42.7852365,113.813859 C44.1691475,111.114484 46.988317,109.399426 50.0828958,109.373721 Z M43.9455629,104.923366 L106.198005,106.373721 C106.198005,106.373721 107.181461,103.931189 107.566197,102.2974 C107.69809,101.737585 107.837372,101.178042 107.955584,100.713613 C108.121682,100.06113 107.812197,99.3915262 107.189944,99.1243913 C99.9385287,96.0117126 57.7484266,77.9071406 50.7167429,75.030345 C47.9850116,73.8702241 44.8354346,74.2667142 42.4813242,76.0665458 L36.2015986,80.8679084 C34.1413758,82.4432706 32.9931894,84.8569961 33,87.3508893 C33.0022195,88.1425108 33.1207049,88.9420133 33.3634221,89.7254822 L36.407101,99.4882709 C37.429961,102.789547 40.4706299,104.779336 43.9455629,104.923366 Z M189.916872,109.373721 L135.274584,109.373721 C137.348245,112.744124 136.42015,115.092454 135.504137,117.409456 L135.504137,117.409991 L135.503862,117.410259 L135.503862,117.410527 C135.328403,117.854487 135.153493,118.297108 135,118.745621 L186.300322,133.072311 C189.576113,133.972281 193.082006,132.814985 195.123815,130.16006 L198.352378,125.962252 C200.224494,123.528235 200.525714,120.271366 199.130276,117.550034 L197.214775,113.814127 C195.830596,111.114484 193.011712,109.399426 189.916872,109.373721 Z M196.054474,104.923366 L133.801967,106.373721 C133.801967,106.373721 132.818788,103.931189 132.43378,102.2974 C132.301887,101.737585 132.162605,101.178042 132.044394,100.713885 C131.878296,100.06113 132.188054,99.3915262 132.810031,99.1246631 C140.061696,96.0117126 182.251657,77.9071406 189.283317,75.030345 C192.015039,73.8702241 195.164605,74.2667142 197.518708,76.0665458 L203.798412,80.8679084 C205.858628,82.4432706 207.006811,84.8569961 207,87.3508893 C206.997781,88.1425108 206.879296,88.9420133 206.636579,89.7254822 L203.59291,99.4882709 C202.570054,102.789547 199.529395,104.779336 196.054474,104.923366 Z" id="Shape"></path>
        </g>
    </g>
</svg>