<?xml version="1.0" encoding="UTF-8"?>
<svg width="240px" height="240px" viewBox="0 0 240 240" version="1.1" xmlns="http://www.w3.org/2000/svg" xmlns:xlink="http://www.w3.org/1999/xlink">
    <title>drawdb</title>
    <g id="Page-1" stroke="none" stroke-width="1" fill="none" fill-rule="evenodd">
        <g id="drawdb" transform="translate(0, 0)">
            <rect id="box" fill="#EFEFEF" x="0" y="0" width="240" height="240" rx="32"></rect>
            <path d="M50.2535058,156.584836 C52.9874827,168.264711 77.5261653,177.651116 108.817884,179.205368 C108.630475,180.057701 108.557769,180.938242 108.605613,181.822925 L109.621054,200.59957 C109.62836,200.73466 109.638371,200.868962 109.651031,201.002427 C76.0342098,199.489017 50,188.947147 50,176.167745 L50,156.584919 L50.2535058,156.584836 Z M117.689889,180.270756 C118.014514,179.823948 118.639884,179.724899 119.086691,180.049524 L138.598884,194.225962 C138.785093,194.361251 138.918933,194.556634 138.977819,194.779141 C139.119114,195.313045 138.800842,195.860403 138.266938,196.001699 L119.812611,200.885567 C119.747052,200.902917 119.679899,200.913553 119.612188,200.917311 C119.060752,200.947916 118.588914,200.525699 118.558309,199.974263 L117.500443,180.913957 C117.487688,180.684144 117.5546,180.456965 117.689889,180.270756 Z M186,156.584919 L186,176.167745 C186,186.218573 169.896251,194.88535 146.665353,198.864887 C147.041338,197.923186 147.273647,196.919694 147.34227,195.887784 C149.728367,195.450021 151.956723,194.130256 153.495176,192.012758 L168.702875,171.083398 C178.228764,167.163872 184.447775,162.133118 185.746494,156.584836 L186,156.584919 Z M169.275197,109.091219 L190.575142,124.566534 C191.021949,124.891159 191.120998,125.516529 190.796373,125.963337 L146.63633,186.744422 C146.311705,187.19123 145.686336,187.290278 145.239528,186.965654 L123.939584,171.490338 C123.492776,171.165713 123.393727,170.540344 123.718352,170.093536 L167.878395,109.312451 C168.20302,108.865643 168.82839,108.766594 169.275197,109.091219 Z M50.2535058,118.50712 C53.249852,131.307868 82.4367445,141.353833 118,141.353833 C123.635326,141.353833 129.110545,141.101586 134.346821,140.626101 L118.009021,163.112528 C80.444637,163.112528 50,151.909573 50,138.090029 L50,118.507203 L50.2535058,118.50712 Z M50.2535058,79.3414371 C53.249852,92.1421851 82.4367445,102.18815 118,102.18815 C137.871963,102.18815 155.753016,99.0514704 168.186203,94.0501948 L167.044623,95.6208648 C165.861411,97.2494165 165.253069,99.1202628 165.180573,100.991117 C163.423734,101.63769 161.832864,102.794235 160.649903,104.422442 L148.374365,121.317931 C139.232478,123.000243 128.916652,123.946845 118,123.946845 C80.444637,123.946845 50,112.743891 50,98.9243459 L50,79.3415204 L50.2535058,79.3414371 Z M186.515501,85.3619765 L207.815445,100.837292 C208.262253,101.161917 208.361302,101.787286 208.036677,102.234094 L197.080182,117.314416 C196.755557,117.761224 196.130188,117.860273 195.68338,117.535648 L174.383436,102.060332 C173.936628,101.735707 173.837579,101.110338 174.162204,100.66353 L185.118699,85.5832082 C185.443324,85.1364005 186.068693,85.0373516 186.515501,85.3619765 Z M118,38 C155.555363,38 186,49.2029545 186,63.0224992 C186,76.8420439 155.555363,88.0449984 118,88.0449984 C80.444637,88.0449984 50,76.8420439 50,63.0224992 C50,49.2029545 80.444637,38 118,38 Z" id="Combined-Shape" fill="#14475B"></path>
        </g>
    </g>
</svg>