<?xml version="1.0" encoding="UTF-8"?>
<svg width="240px" height="240px" viewBox="0 0 240 240" version="1.1" xmlns="http://www.w3.org/2000/svg" xmlns:xlink="http://www.w3.org/1999/xlink">
    <title>dribbble</title>
    <g id="Page-1" stroke="none" stroke-width="1" fill="none" fill-rule="evenodd">
        <g id="dribbble" transform="translate(0, 0)">
            <rect id="ViewBox" x="0" y="0" width="240" height="240"></rect>
            <path d="M120,7.96875 C181.875,7.96875 231.9375,58.03125 231.9375,119.8125 C231.9375,181.59375 181.875,231.75 120,231.75 C58.125,231.75 8.0625,181.6875 8.0625,119.90625 C8.0625,58.125 58.125,7.96875 120,7.96875" id="Path" fill="#E74D89" fill-rule="nonzero"></path>
            <path d="M120,239.71875 C53.8125,239.71875 0,186 0,119.90625 C0,53.71875 53.8125,0 120,0 C186.1875,0 240,53.71875 240,119.8125 C240,185.90625 186.1875,239.71875 120,239.71875 M221.15625,136.21875 C217.6875,135.09375 189.46875,126.75 157.3125,131.8125 C170.71875,168.5625 176.15625,198.5625 177.1875,204.75 C200.25,189.28125 216.65625,164.71875 221.15625,136.21875 M160.03125,214.21875 C158.53125,205.21875 152.53125,173.90625 138.1875,136.59375 C138,136.6875 137.71875,136.78125 137.53125,136.78125 C79.6875,156.9375 58.96875,196.96875 57.09375,200.71875 C74.4375,214.21875 96.28125,222.28125 120,222.28125 C134.15625,222.375 147.75,219.46875 160.03125,214.21875 M43.875,188.4375 C46.21875,184.5 74.34375,138 127.21875,120.84375 C128.53125,120.375 129.9375,120 131.25,119.625 C128.71875,113.8125 125.90625,108 122.90625,102.28125 C71.71875,117.5625 22.03125,116.90625 17.53125,116.8125 C17.53125,117.84375 17.4375,118.875 17.4375,119.90625 C17.53125,146.25 27.46875,170.25 43.875,188.4375 M19.6875,99 C24.28125,99.09375 66.46875,99.28125 114.46875,86.53125 C97.5,56.34375 79.125,31.03125 76.5,27.375 C47.71875,40.875 26.34375,67.3125 19.6875,99 M96,20.4375 C98.8125,24.1875 117.46875,49.5 134.25,80.34375 C170.71875,66.65625 186.09375,46.03125 187.96875,43.40625 C169.875,27.375 146.0625,17.625 120,17.625 C111.75,17.625 103.6875,18.65625 96,20.4375 M199.3125,55.21875 C197.15625,58.125 180,80.15625 142.125,95.625 C144.46875,100.5 146.8125,105.46875 148.96875,110.4375 C149.71875,112.21875 150.46875,114 151.21875,115.6875 C185.34375,111.375 219.1875,118.3125 222.5625,118.96875 C222.28125,94.875 213.65625,72.65625 199.3125,55.21875" id="Shape" fill="#B2215A" fill-rule="nonzero"></path>
        </g>
    </g>
</svg>