<?xml version="1.0" encoding="UTF-8"?>
<svg width="240px" height="240px" viewBox="0 0 240 240" version="1.1" xmlns="http://www.w3.org/2000/svg" xmlns:xlink="http://www.w3.org/1999/xlink">
    <title>drupal</title>
    <g id="Page-1" stroke="none" stroke-width="1" fill="none" fill-rule="evenodd">
        <g id="drupal" transform="translate(-1, -1)">
            <rect id="ViewBox" x="1.00000707" y="1.00000707" width="240" height="240"></rect>
            <path d="M121.045007,1 C187.301882,1.02250707 241,54.7431321 241,121 L241,121.045007 C240.977507,187.313132 187.234382,241.022507 120.955945,241.000014 C54.6868821,240.977507 0.977507067,187.22407 1,120.955945 C1.02250707,54.6878196 54.7656321,0.977507067 121.045007,1" id="Path" fill="#FFFFFF"></path>
            <path d="M121.045007,1 C187.301882,1.02250707 241,54.7431321 241,121 L241,121.045007 C240.977507,187.313132 187.234382,241.022507 120.955945,241.000014 C54.6868821,240.977507 0.977507067,187.22407 1,120.955945 C1.02250707,54.6878196 54.7656321,0.977507067 121.045007,1 M120.431882,31.8625071 C117.13657,44.3331321 106.02532,55.4106321 94.3900071,67.0459446 C76.9881321,84.4928196 57.2031321,104.23282 57.2031321,133.882195 C57.2481321,168.752507 85.4828196,197.021882 120.35407,197.110945 C155.291882,197.110945 183.62782,168.80782 183.660632,133.882195 C183.660632,104.23282 163.931882,84.5040696 146.473757,67.0459446 L144.914695,65.4859446 C133.858757,54.4168821 123.569695,43.7846946 120.431882,31.8625071 M121.289695,126.544382 C128.548757,134.282507 133.158445,139.615945 137.93407,145.438757 C138.29032,145.873132 138.613445,146.340632 138.903445,146.841257 C144.748757,155.269382 143.957507,166.626257 136.999382,174.152507 C128.805632,183.025945 114.977507,183.57157 106.103132,175.37782 C97.2296946,167.183132 96.6840696,153.355007 104.87782,144.48157 C109.532507,138.981257 115.154695,133.570007 121.289695,126.544382 M92.3968821,97.5296946 L95.4475071,100.413445 L109.61032,114.89782 C110.144879,115.506488 110.144879,116.417276 109.61032,117.025945 L94.8025071,133.391882 L89.6246946,139.693757 C87.6560828,142.09239 85.985171,144.720582 84.6484446,147.520945 C84.4590696,147.988757 84.0578196,148.333757 83.5684446,148.444382 L83.0453196,148.444382 C81.6090696,148.322507 79.9609446,145.672195 79.9609446,145.672195 L79.6984446,145.275632 C79.3558311,144.742135 79.0419469,144.190725 78.7581321,143.623757 L78.4796946,143.02282 C76.4585041,136.429628 76.2930749,129.406995 78.0015696,122.725945 L78.1928196,122.031257 C79.7670091,116.478361 82.2492939,111.224255 85.5390696,106.481882 C87.6537128,103.370417 89.9433359,100.381543 92.3968821,97.5296946 M120.521882,68.2478196 C124.29532,72.5350071 128.548757,76.8325071 132.55657,80.8403196 L132.645632,81.1187571 C141.027724,88.9263249 148.606796,97.5537534 155.269382,106.871882 C160.928103,114.822248 164.020715,124.312715 164.132507,134.070632 C164.131447,138.287143 163.496863,142.479565 162.250007,146.507507 L162.188132,146.673445 C161.8545,147.494767 161.119606,148.084952 160.245632,148.233445 L159.84532,148.233445 C158.980118,147.9597 158.248914,147.371659 157.795945,146.58532 L157.124695,145.577507 C153.513435,140.222047 149.442752,135.191176 144.958757,130.541882 L139.180945,124.440632 L119.91907,104.378132 C116.66782,101.248757 110.856257,95.6368821 108.40657,92.5862571 C108.329697,92.4181179 108.236434,92.2579682 108.128132,92.1081321 C107.461072,91.1946442 106.945996,90.1793727 106.60282,89.1015696 L106.60282,88.5006321 C106.270343,86.5419993 106.534261,84.5286497 107.36032,82.7218821 C107.895482,81.5731608 108.630679,80.5287736 109.53157,79.6375071 C113.260945,75.9081321 116.991257,72.2565696 120.520007,68.2478196" id="Shape" fill="#009DDE" fill-rule="nonzero"></path>
        </g>
    </g>
</svg>