<?xml version="1.0" encoding="UTF-8"?>
<svg width="240px" height="240px" viewBox="0 0 240 240" version="1.1" xmlns="http://www.w3.org/2000/svg" xmlns:xlink="http://www.w3.org/1999/xlink">
    <title>dynatrace</title>
    <g id="Page-1" stroke="none" stroke-width="1" fill="none" fill-rule="evenodd">
        <g id="dynatrace" transform="translate(0, -0.0003)">
            <rect id="ViewBox" x="0" y="0.00026310342" width="240" height="240"></rect>
            <path d="M81.444375,20.0965131 C78.36,36.3752631 74.589375,60.5383881 72.5325,85.0427631 C68.934375,128.224013 71.16375,157.185263 71.16375,157.185263 L10.329375,214.935263 C10.329375,214.935263 5.7,182.546513 3.30375,146.047763 C1.93125,123.427763 1.4175,103.549013 1.4175,91.5546381 C1.4175,90.8683881 1.760625,90.1840131 1.760625,89.4977631 C1.760625,88.6408881 2.788125,80.5877631 10.6725,73.0465131 C19.24125,64.8227631 82.471875,15.2983881 81.444375,20.0965131" id="Path" fill="#1496FF" fill-rule="nonzero"></path>
            <path d="M81.444375,20.0965131 C78.36,36.3752631 74.589375,60.5383881 72.5325,85.0427631 C72.5325,85.0427631 5.188125,76.9877631 1.4175,93.2683881 C1.4175,92.4115131 2.6175,82.4721381 10.5,74.9308881 C19.06875,66.7071381 82.471875,15.2983881 81.444375,20.0965131" id="Path" fill="#1284EA" fill-rule="nonzero"></path>
            <path d="M1.4175,89.3252631 L1.4175,93.0958881 C2.10375,90.1840131 3.30375,88.1271381 5.701875,84.8721381 C10.670625,78.5308881 18.725625,76.8171381 21.980625,76.4740131 C38.431875,74.2465131 62.765625,71.6758881 87.27,70.9915131 C130.62375,69.6208881 159.241875,73.2190131 159.241875,73.2190131 L220.074375,15.4690131 C220.074375,15.4690131 188.20125,9.4746381 151.875,5.1902631 C128.053125,2.2746381 107.14875,0.733388103 95.323125,0.0471381034 C94.468125,0.0471381034 86.07,-0.980361897 78.1875,6.5590131 C69.61875,14.7846381 26.094375,56.0833881 8.615625,72.7052631 C0.73125,80.2427631 1.4175,88.6427631 1.4175,89.3252631" id="Path" fill="#B4DC00" fill-rule="nonzero"></path>
            <path d="M217.846875,163.181513 C201.395625,165.410888 177.06375,168.152138 152.559375,169.009013 C109.20375,170.379638 80.415,166.781513 80.415,166.781513 L19.5825,224.700263 C19.5825,224.700263 51.79875,231.041513 88.126875,235.155263 C106.072802,237.205642 124.073121,238.748134 142.10625,239.780888 C142.963125,239.780888 144.33375,239.096513 145.190625,239.096513 C146.0475,239.096513 154.44375,237.553388 162.32625,230.014013 C170.895,221.788388 222.645,162.669638 217.846875,163.183388 L217.846875,163.181513 Z" id="Path" fill="#6F2DA8" fill-rule="nonzero"></path>
            <path d="M217.846875,163.181513 C201.395625,165.410888 177.06375,168.152138 152.559375,169.009013 C152.559375,169.009013 157.185,236.696513 140.90625,239.610263 C141.763125,239.610263 152.900625,239.096513 160.783125,231.557138 C169.351875,223.331513 222.645,162.669638 217.846875,163.183388 L217.846875,163.181513 Z" id="Path" fill="#591F91" fill-rule="nonzero"></path>
            <path d="M144.50625,239.953388 C143.30625,239.953388 142.10625,239.780888 140.735625,239.780888 C143.82,239.267138 145.875,238.239638 149.131875,235.839638 C155.64375,231.214013 157.700625,223.159013 158.385,219.902138 C161.29875,203.625263 165.24,179.462138 167.124375,154.957763 C170.551875,111.776513 168.495,82.9858881 168.495,82.9858881 L229.3275,25.0671381 C229.3275,25.0671381 233.784375,57.2815131 236.355,93.7821381 C237.554085,112.611383 238.296803,131.466915 238.5825,150.332138 C238.5825,151.187138 239.266875,159.585263 231.384375,167.124638 C222.815625,175.350263 179.29125,216.819638 161.983125,233.441513 C153.7575,240.980888 145.36125,239.953388 144.504375,239.953388 L144.50625,239.953388 Z" id="Path" fill="#73BE28" fill-rule="nonzero"></path>
        </g>
    </g>
</svg>