<?xml version="1.0" encoding="UTF-8"?>
<svg width="240px" height="240px" viewBox="0 0 240 240" version="1.1" xmlns="http://www.w3.org/2000/svg" xmlns:xlink="http://www.w3.org/1999/xlink">
    <title>e2b</title>
    <g id="Page-1" stroke="none" stroke-width="1" fill="none" fill-rule="evenodd">
        <g id="e2b" fill="#FFFFFF">
            <path d="M202.819747,163.485228 C201.146683,163.485228 200.101837,165.210507 200.937901,166.591444 L218.439067,195.476037 C219.407141,197.073749 217.865151,198.989041 215.99454,198.511779 L162.915254,184.95933 C160.596184,184.36699 158.212512,185.678345 157.590848,187.888022 L143.3684,238.464384 C142.866575,240.246756 140.354639,240.56166 139.386565,238.963948 L121.881654,210.074002 C121.04559,208.693957 118.954026,208.693957 118.117026,210.074002 L100.612116,238.963948 C99.6440416,240.56166 97.1321052,240.246756 96.6312159,238.464384 L82.4078323,187.888022 C81.7865424,185.678345 79.4029647,184.36699 77.0840813,184.95933 L24.0043275,198.511779 C22.1339975,198.989041 20.5914457,197.073749 21.5596132,195.476037 L39.0609662,166.591444 C39.8974045,165.210507 38.8518098,163.485228 37.1787459,163.485228 L2.17774398,163.484336 C0.241446395,163.484336 -0.728237835,161.254141 0.640950082,159.949923 L39.4984719,122.92601 C41.1960653,121.30778 41.1960653,118.685963 39.4984719,117.068626 L0.640968806,80.0435526 C-0.728209748,78.7388885 0.241521295,76.5082475 2.17783761,76.5082475 L37.1750009,76.5086935 C38.8480648,76.5086935 39.8938468,74.7829686 39.0573148,73.4023887 L21.5596132,44.5242181 C20.5914457,42.9264172 22.1340911,41.0109473 24.0043275,41.4884766 L77.0840813,55.0408364 C79.4029647,55.6328194 81.7865424,54.3216431 82.407926,52.1121443 L96.6312159,1.53551445 C97.1321052,-0.246607618 99.6440416,-0.561743093 100.612116,1.03603997 L118.117026,29.9256292 C118.954026,31.3062983 121.044654,31.3062983 121.881654,29.9256292 L139.386565,1.03603997 C140.354639,-0.561743093 142.866575,-0.246616539 143.367464,1.53551445 L157.590848,52.1121443 C158.212512,54.3216431 160.596184,55.6328194 162.914318,55.0408364 L215.99454,41.4884766 C217.865151,41.0109473 219.407141,42.9264172 218.439067,44.5242181 L200.941646,73.4023887 C200.104646,74.7829686 201.150428,76.5086935 202.823492,76.5086935 L237.822078,76.5082475 C239.758226,76.5082475 240.728173,78.7388885 239.359387,80.0435526 L200.501613,117.068626 C198.804206,118.685963 198.804206,121.30778 200.501613,122.92601 L239.359387,159.949923 C240.728173,161.254141 239.758226,163.484336 237.822078,163.484336 L202.819747,163.485228 Z M189.461451,84.1000989 C191.033401,82.6014079 189.509199,80.08664 187.361461,80.6352679 L140.094363,92.7032991 C137.775293,93.2956389 135.391621,91.9842843 134.770893,89.7746071 L122.098862,44.7137846 C121.523073,42.6672685 118.475607,42.6672685 117.899818,44.7137846 L105.227787,89.7746071 C104.607059,91.9842843 102.223387,93.2956389 99.9043168,92.7032991 L52.6387175,80.6352679 C50.4908854,80.0869968 48.9669649,82.6022999 50.5392891,84.1000989 L85.1400664,117.068626 C86.8375662,118.685963 86.8375662,121.308672 85.1400664,122.92601 L50.5311438,155.901673 C48.9588195,157.400364 50.4826465,159.915132 52.6305722,159.366504 L99.9043168,147.296689 C102.223387,146.704349 104.607059,148.015704 105.227787,150.225381 L117.899818,195.286025 C118.475607,197.333344 121.523073,197.333344 122.098862,195.286025 L134.770893,150.225381 C135.392558,148.015704 137.775293,146.704349 140.094363,147.296689 L187.369887,159.367396 C189.517625,159.915132 191.041827,157.400364 189.468941,155.902565 L154.859831,122.92601 C153.162425,121.308672 153.162425,118.685963 154.859831,117.068626 L189.461451,84.1000989 Z" id="Shape"></path>
        </g>
    </g>
</svg>