<?xml version="1.0" encoding="UTF-8"?>
<svg width="240px" height="240px" viewBox="0 0 240 240" version="1.1" xmlns="http://www.w3.org/2000/svg" xmlns:xlink="http://www.w3.org/1999/xlink">
    <title>ebpf</title>
    <g id="Page-1" stroke="none" stroke-width="1" fill="none" fill-rule="evenodd">
        <g id="ebpf" transform="translate(-0, 93)">
            <rect id="box" x="0" y="-93" width="240" height="240"></rect>
            <g id="shape" transform="translate(5, -93)" fill-rule="nonzero">
                <path d="M173.328005,237 C159.679472,237 143.766891,228.334242 131.987639,214.683094 C124.768607,220.497017 116.267812,224.442647 107.216525,226.180492 C104.002318,226.778695 100.741829,227.081072 97.474806,227.083255 C88.7665558,227.083255 80.05885,224.948063 71.5014273,220.735534 L48.6397793,232.380846 C48.1542452,232.625367 47.6199236,232.75254 47.0781423,232.75254 C46.5678332,232.753085 46.0637316,232.639558 45.6012844,232.420144 C45.1388918,232.20073 44.7295338,231.880888 44.4022325,231.482995 C44.0749312,231.085103 43.8376364,230.618985 43.7071733,230.117935 C43.5767102,229.61634 43.5563457,229.09182 43.6473868,228.582038 L48.204394,203.002305 C39.4963071,193.250939 34.2426072,181.765002 32.994441,169.724527 C32.0904012,160.422905 33.4170849,151.036684 36.8609085,142.369288 C20.2343197,134.493857 7.50888333,121.049569 4.01401797,107.398421 C-0.235520485,90.7802729 9.06474867,76.3682717 28.2863339,69.8022283 C38.6141564,66.262678 50.1435901,64.4926299 62.5383493,64.4926299 C74.9007649,64.5144621 87.2032852,66.2353877 99.1121291,69.6073757 C99.7704343,68.4835616 100.485912,67.3946791 101.254207,66.3450946 C108.760738,56.1630881 120.963614,50.2577426 134.803268,50.0925818 C134.13734,35.7057422 137.509997,21.4229878 144.527563,8.90962647 C145.79299,6.67225948 147.876806,5.03334668 150.325984,4.34968675 C152.774618,3.66602137 155.390415,3.99293173 157.603278,5.25920656 C159.816142,6.52549231 161.446931,8.62864567 162.141718,11.1109703 C162.83596,13.5932949 162.537028,16.2539343 161.310805,18.5136793 C153.763437,32.1174514 153.264672,44.7773615 154.40214,53.5849745 C160.017064,55.6751377 165.298207,58.5930153 170.076773,62.2450017 C173.654708,64.9609312 176.934254,68.0600163 179.858785,71.489314 C191.161596,69.3071825 201.51207,63.5947794 209.466182,55.1484352 C211.249432,53.2888203 213.686087,52.2251541 216.240899,52.1914233 C218.795711,52.1576379 221.258502,53.1565716 223.08858,54.9683738 C224.918657,56.7803944 225.965194,59.2561693 225.999224,61.8525674 C226.031623,64.4484196 225.048794,66.9514848 223.266088,68.8110451 C214.166884,78.3670124 202.773685,85.3467765 190.209803,89.063168 C190.896422,90.9320069 191.477953,92.8385065 191.951671,94.7739337 C195.150631,107.917482 192.892029,120.606921 185.594588,130.5062 C184.834461,131.531223 184.022606,132.515857 183.16229,133.455734 C189.699058,144.032904 204.224243,171.287715 203.022523,202.713573 C202.232993,223.31392 191.249261,236.439457 174.355484,236.97653 C174.018981,236.993996 173.670498,237 173.328005,237 Z M171.946055,217.390836 C172.34082,217.390836 172.73014,217.426314 173.107481,217.426314 L173.751629,217.426314 C177.078003,217.319882 181.496108,216.122384 183.144865,207.633467 C179.597967,206.920098 176.147991,205.777727 172.869533,204.229276 C172.844486,208.632291 172.536297,213.028757 171.946055,217.390836 Z M141.148372,193.828947 C146.251462,202.47724 152.933613,209.485931 159.905985,213.526531 C161.02603,203.604328 160.440143,192.843768 158.164117,181.399313 C153.610976,186.930508 147.758649,191.205259 141.148372,193.828947 Z M55.1886362,148.309838 C46.1029903,168.833772 57.5686625,187.398809 70.5899279,197.274073 C79.3558955,203.946549 88.6794351,207.468087 97.5499475,207.468087 C99.6283188,207.461538 101.701789,207.263956 103.744768,206.878071 C110.197139,205.619989 116.214451,202.671546 121.201562,198.324203 C121.108452,198.135355 121.021331,197.946506 120.928221,197.734187 C118.770352,197.990716 116.599415,198.118981 114.4263,198.117889 C101.598334,198.091144 89.1302843,193.804932 78.9208369,185.912035 C66.8094376,176.875674 58.6064869,163.429203 56.0298946,148.386797 L55.1886362,148.309838 Z M171.876358,188.254087 C175.116156,191.793637 179.591978,193.705049 183.690458,194.743172 C182.65699,176.898052 175.702042,160.669064 171.42932,152.227086 C164.132424,137.803623 156.968387,130.128502 154.756612,129.219736 C153.919165,128.86387 153.022367,128.676113 152.115224,128.665197 L151.963852,128.665197 C156.528972,137.152477 160.462468,145.974881 163.731669,155.058726 C167.641752,165.784901 170.373527,176.917701 171.876358,188.254087 Z M141.88563,136.399265 C136.324067,144.59945 132.098173,158.397966 133.537841,172.821429 C133.91246,176.090806 134.662786,179.303964 135.77303,182.395954 C149.357312,177.02195 152.875351,166.420765 153.531478,163.937349 C150.395136,154.450699 146.5003,145.240772 141.88563,136.399265 Z M90.4909995,145.454728 C91.5359024,149.047222 93.9741907,153.90271 99.4715017,158.102685 C103.658192,161.409176 108.782518,163.254546 114.083807,163.364798 C114.501442,154.246021 116.453488,145.267517 119.854459,136.818443 C118.780698,136.110533 117.764653,135.384612 116.777468,134.63522 C115.790827,133.886375 114.914176,133.172461 113.979263,132.364123 C106.943184,138.055785 98.9983278,142.479541 90.4909995,145.44272 L90.4909995,145.454728 Z M66.4103162,129.910183 C66.8399298,129.910183 67.2635538,129.910183 67.6931673,129.910183 C70.5164199,129.911271 73.3342273,129.650376 76.111197,129.131315 C90.137072,126.471058 101.980031,118.459721 108.150893,110.725653 C98.5033738,108.713267 88.7099274,107.509765 78.8685646,107.127156 C76.6976277,108.43054 67.5423398,114.807734 66.4103162,129.910183 Z M30.6374471,114.731322 C36.7795051,120.742826 45.2322197,125.544825 54.0740368,128.022238 C54.6386873,120.706257 57.0366823,113.659359 61.0404192,107.551792 C49.7836186,108.519506 39.5951346,110.920506 30.6374471,114.707852 L30.6374471,114.731322 Z M29.2614859,90.5794164 C21.714499,94.5790811 21.8247066,99.2162468 22.6606834,102.495994 C22.8217476,103.09638 23.0155365,103.687488 23.2412334,104.266042 C27.1819712,102.461608 31.2353668,100.922436 35.3746852,99.6583495 C32.9836598,96.8856562 30.9309347,93.8291439 29.2614859,90.5559468 L29.2614859,90.5794164 Z M73.5623745,94.3607587 C77.1152621,94.3607587 80.7378463,94.4786528 84.3370169,94.7149867 C93.8315307,95.3443007 103.266149,96.6929868 112.563008,98.7501287 C112.311447,97.8129802 111.868221,96.9407826 111.262733,96.1897539 C110.258123,94.8978316 104.975347,91.7654523 95.071366,88.8743192 C84.3397394,85.7872418 73.2443842,84.1994928 62.0913116,84.1552826 C55.0791909,84.1110723 48.0847665,84.879021 41.2438923,86.4438461 C43.4034491,90.1367679 46.4686246,93.9481296 50.7181506,96.1127953 C58.2759731,94.9180264 65.9137287,94.3247356 73.5623745,94.3372891 L73.5623745,94.3607587 Z" id="Shape" fill="#1A1A1A"></path>
                <path d="M153.402995,7.0687069 C154.476059,7.0687069 155.530613,7.35523636 156.461582,7.89823636 C157.392006,8.44129091 158.166725,9.22238182 158.707885,10.1638364 C159.249044,11.1052909 159.538135,12.1742727 159.546301,13.2644727 C159.554467,14.3546182 159.28171,15.4279091 158.754705,16.3776545 C149.943166,32.2954909 150.274177,46.9929818 151.759916,55.8065455 C157.771471,57.8007273 163.417716,60.7881818 168.471081,64.65 C172.368629,67.6041818 175.888345,71.0405455 178.948565,74.8789091 C191.72625,72.8967273 203.499468,66.678 212.435137,57.192 C212.996985,56.5996364 213.668807,56.1256364 214.411949,55.7972727 C215.155091,55.4694545 215.954853,55.2938182 216.764959,55.2807273 C217.575065,55.2676364 218.379728,55.4170909 219.132669,55.7209091 C219.885611,56.0247273 220.572132,56.4769091 221.152491,57.0512727 C221.732849,57.6256364 222.195611,58.3107273 222.514101,59.0672727 C222.833135,59.8238182 223.001362,60.6370909 223.00984,61.4596364 C223.017695,62.2827273 222.865256,63.0992727 222.56201,63.8623636 C222.25822,64.6254545 221.809613,65.3198182 221.240688,65.9056364 C211.665318,76.0205455 199.392316,83.0770909 185.925932,86.2101818 C187.243444,89.0890909 188.287109,92.0901818 189.042773,95.1709091 C191.985397,107.251091 189.942165,118.882909 183.284376,127.914545 C182.064317,129.568364 180.704884,131.110909 179.221323,132.524727 C190.545934,149.781273 201.029406,176.263636 200.042361,202.092 C199.32263,220.922182 189.867034,232.453636 174.752127,232.931455 C174.449971,232.931455 174.136381,232.931455 173.82878,232.931455 C160.269299,232.931455 144.307265,223.681091 132.935833,209.184 C125.649232,215.818909 116.714652,220.304182 107.099539,222.154364 C104.093217,222.714 101.043341,222.996 97.9869322,222.997636 C89.2799226,222.997636 80.5206482,220.704 72.017254,216.235091 L47.5974486,228.662727 L52.4615708,201.355091 C43.5225811,191.869091 38.2172559,180.808909 36.9808638,168.841091 C36.0274645,158.962364 37.7473616,149.006727 41.9552868,140.047636 C24.7447742,132.872727 11.3653349,119.519455 7.91160342,106.036364 C4.10383698,91.1738182 12.3346314,78.7107273 29.9224315,72.7030909 C40.5738051,69.066 51.979699,67.5741818 63.0723302,67.5741818 C76.0345756,67.5834545 88.9255011,69.5301818 101.330254,73.3516364 C102.249246,71.4774545 103.331021,69.69 104.563057,68.0105455 C111.807193,58.1765455 123.387141,53.1832909 135.907856,53.1832909 C136.95261,53.1832909 138.009342,53.2186909 139.065529,53.2835455 C137.567812,38.3363455 140.711329,23.2876909 148.056729,10.2463636 C148.592989,9.28129091 149.372063,8.47832727 150.315009,7.91994545 C151.257411,7.36150909 152.329386,7.0687069 153.420417,7.0687069 M50.7085726,99.3158182 C58.424563,98.0394545 66.2310915,97.41 74.0485085,97.4350909 C77.7751064,97.4350909 81.316055,97.5703636 84.5956789,97.7825455 C95.326321,98.4796364 105.975844,100.132909 116.421751,102.723273 C117.176325,99.2329091 116.549691,96.2029091 114.477604,93.5378182 C110.68132,88.6445455 87.6722318,80.1610909 62.5790799,80.1610909 C53.8072292,80.0896364 45.0697318,81.2803636 36.6268778,83.6983636 C38.9486926,88.8567273 43.3774371,96.0790909 50.7085726,99.3272727 M22.1154674,108.483273 C28.6939335,105.178909 35.6230102,102.651273 42.767843,100.948909 C36.9981221,96.4325455 33.4285912,90.1243636 31.402781,85.4847273 C21.73818,89.4114545 17.8201074,95.2652727 19.7936526,102.929455 C20.3197862,104.877818 21.1006568,106.745455 22.1154674,108.483273 Z M57.8305939,131.965091 C57.969967,117.149455 64.3147109,108.040909 69.43994,103.076727 C55.0327872,103.483636 39.3664853,106.065818 25.3252959,113.046 C32.1398253,121.423636 44.1203068,129.211636 57.8714259,131.911636 M68.2209695,132.937636 C71.2583238,132.940909 74.2896893,132.658909 77.2758675,132.094364 C94.7301742,128.787273 109.079073,117.745091 114.425339,107.923091 C102.523092,105.074182 90.3693196,103.448727 78.1469496,103.071273 L78.2335133,103.248 C77.5720354,103.596 63.2351136,111.36 63.3272199,132.725455 C64.9413456,132.872727 66.566458,132.955091 68.2095366,132.955091 M187.78297,198.572182 C187.736694,163.729636 164.187535,128.604545 156.537257,125.468182 C155.288343,124.945091 153.952321,124.671273 152.601599,124.660364 C150.739117,124.690364 148.914745,125.204182 147.302154,126.152182 C152.695785,135.605455 157.2608,145.522364 160.942754,155.788909 C164.880045,166.591636 167.596733,177.813818 169.040007,189.24 C174.159791,195.483273 182.251599,197.740909 187.78297,198.560727 M114.767784,166.371273 C115.839215,166.371273 116.909557,166.300364 117.971732,166.159091 C118.008209,155.370545 120.322021,144.715636 124.756917,134.912727 C121.072784,132.726 117.642354,130.125273 114.529869,127.160182 C106.513737,134.244545 97.0929843,139.497818 86.9056796,142.564909 C87.486038,146.574 89.6631988,154.167273 97.8824024,160.416545 C104.267434,165.286364 110.483693,166.382727 114.767784,166.382727 M134.218501,186.309818 C154.308376,180.213818 157.523757,163.765091 157.553156,163.582364 L157.74425,163.617818 C153.94361,151.812 148.984976,140.423455 142.942933,129.624545 C135.158726,137.618727 128.76825,154.71 130.56159,172.661455 C131.123438,177.368727 132.355475,181.968 134.218501,186.315273 M98.0446414,210.487091 C100.331776,210.488727 102.614556,210.279273 104.865214,209.862 C112.84487,208.302 120.202791,204.409091 126.034141,198.660545 C125.122772,196.957091 124.263667,195.217636 123.486226,193.425273 C120.655754,193.914 117.789349,194.156727 114.91859,194.150727 C102.846481,194.119091 91.1151837,190.084364 81.507693,182.660182 C66.2648459,171.069818 60.802617,155.617636 59.6244785,144.888 C57.6389558,144.622364 55.6833766,144.262909 53.7503367,143.826545 C42.4488636,165.639818 52.5370282,187.105636 69.004399,199.621636 C78.471972,206.82 88.3919634,210.510545 98.0272198,210.510545 M163.136792,218.292545 C165.864913,202.504364 163.885923,186.374727 160.182735,172.107273 C156.99022,178.415455 150.256755,187.046727 136.569334,191.403273 C142.467104,202.881818 152.084939,213.806182 163.136792,218.292545 Z M173.585422,220.438909 L174.345441,220.438909 C182.135092,220.191273 186.564,214.720364 187.551045,204.196364 C182.594043,203.524364 175.628654,201.838364 169.736872,197.469818 C170.145736,204.978 169.699851,212.509636 168.407383,219.914182 C170.111982,220.266545 171.84598,220.446 173.585422,220.450364 M153.402995,0 C151.077206,0 148.793882,0.628958182 146.785493,1.82017636 C144.777649,3.0114 143.116605,4.72297636 141.973854,6.77983636 C135.226235,18.8143636 131.692908,32.4308182 131.722851,46.2796909 C118.24449,47.3467636 106.46746,53.5959818 98.956011,63.7832727 C98.6484102,64.2021818 98.346798,64.6265455 98.0506301,65.0689091 C86.614956,62.07 74.8542594,60.5389091 63.0434756,60.5116364 C50.2732493,60.5116364 38.3565201,62.3623636 27.6703577,66.012 C17.5704335,69.4609091 9.76336054,75.0321818 5.07906779,82.1181818 C0.1219799,89.6290909 -1.24224947,98.5194545 1.14342106,107.828727 C3.15179874,115.681636 7.8943451,123.505091 14.8597894,130.461273 C20.222715,135.756 26.3371122,140.203636 32.9990388,143.655818 C30.1688932,151.981636 29.1547359,160.832727 30.0270157,169.596 C31.2924258,181.858364 36.4120472,193.531636 44.9621531,203.547818 L40.7130149,227.419091 C40.4823414,228.711818 40.610826,230.044364 41.0837692,231.267273 C41.5566578,232.490182 42.355549,233.554909 43.39083,234.342545 C44.426111,235.130182 45.6568955,235.609636 46.9452803,235.726909 C48.2336651,235.844182 49.5286919,235.594909 50.6853256,235.006364 L72.0346757,224.140909 C80.1509827,228.002727 88.9951877,230.031818 97.9575332,230.089636 C101.434784,230.088545 104.904413,229.766727 108.324499,229.128545 C116.855114,227.509091 124.936578,224.023091 132.007042,218.911636 C144.255,232.052727 159.793471,240 173.799926,240 L174.960642,240 C184.428216,239.699455 192.444348,235.873091 198.144491,228.916364 C203.519068,222.354545 206.584188,213.175636 206.996318,202.386545 C207.489569,189.534545 205.422926,175.910182 200.85519,161.902364 C197.610409,151.940727 193.288753,142.374545 187.969164,133.38 C188.288198,132.985091 188.58981,132.589636 188.885978,132.200727 C196.815002,121.441636 199.281798,107.698909 195.851368,93.5203636 C195.642308,92.6656364 195.415827,91.8103636 195.160491,90.9556364 C206.945142,86.8609091 217.608275,79.9925455 226.278808,70.9112727 C228.705861,68.3803636 230.043516,64.974 229.99892,61.4416364 C229.952053,57.9092727 228.526745,54.5399455 226.034906,52.0749273 C224.801236,50.8544182 223.343262,49.8926182 221.743193,49.2445091 C220.143669,48.5964 218.433626,48.2746364 216.711605,48.2976545 C213.23381,48.3440727 209.916621,49.7919273 207.489569,52.3225636 C200.491513,59.748 191.509568,64.9341818 181.647831,67.2441818 C178.913722,64.2414545 175.915566,61.4989091 172.691474,59.0492727 C168.228811,55.6423636 163.351296,52.8367091 158.179791,50.7013091 C157.2559,39.9843273 159.600744,29.2380545 164.895834,19.9208727 C166.022252,17.8947273 166.605332,15.6042545 166.588455,13.2776727 C166.571578,10.9510909 165.954198,8.66961818 164.798381,6.66081818 C163.642564,4.65194727 161.989142,2.98585091 160.001986,1.82852727 C158.014286,0.671203636 155.763083,0.0631232727 153.472681,0.064842 L153.402995,0 Z M47.7598509,88.3969091 C52.6666561,87.6049091 57.6280673,87.2105455 62.5965016,87.2181818 C72.9759887,87.2329091 83.3081107,88.6505455 93.3201101,91.4334545 C90.6905311,91.1443636 87.9275678,90.8967273 85.0655188,90.708 C81.3911858,90.4663636 77.6939869,90.3425455 74.0664745,90.3425455 C66.644311,90.3256364 59.2308583,90.864 51.8867655,91.9521818 C50.3439703,90.9736364 48.9531789,89.7676364 47.7598509,88.3734545 L47.7598509,88.3969091 Z M26.2829962,98.844 C26.3932425,97.7356364 26.9448008,96.4505455 28.5642512,95.0885455 C29.0286468,95.8549091 29.5278857,96.6234545 30.0619135,97.3936364 C28.7849072,97.8534545 27.5251592,98.3367273 26.2829962,98.844 Z M70.9196906,125.821636 C72.7424298,116.565818 78.036431,111.902727 80.3464317,110.257636 C87.5067262,110.579455 94.6397994,111.347455 101.707541,112.556727 C94.3866412,119.010545 85.5081373,123.371455 75.9817662,125.191091 C74.3087442,125.506364 72.6183006,125.716909 70.9196906,125.821636 Z M37.9502148,115.451455 C43.5680407,113.570182 49.3420626,112.208727 55.2015594,111.383455 C53.5422025,115.056545 52.359763,118.933091 51.6838578,122.915455 C46.7680151,121.130182 42.1397384,118.615091 37.9502148,115.451455 Z M95.5315697,147.039818 C102.266123,144.346364 108.6223,140.764364 114.436772,136.386545 L115.191347,136.976182 L116.102717,137.654182 C113.610333,144.536727 112.015709,151.722 111.360764,159.025091 C107.980421,158.371091 104.799338,156.919091 102.073396,154.786364 C99.3262209,152.763273 97.0869956,150.111273 95.5370139,147.045818 L95.5315697,147.039818 Z M138.426917,177.000545 C137.994098,175.350545 137.685408,173.669455 137.504114,171.972 C136.536669,162.175636 138.153615,152.294727 142.188358,143.343273 C145.313909,149.885455 148.045296,156.615273 150.366729,163.494 C149.432494,166.218 146.477893,172.626 138.426917,177.000545 Z M175.668941,186.097636 C174.091738,174.935455 171.352729,163.975091 167.496558,153.400909 C166.515502,150.671455 165.505047,148.059818 164.495136,145.583455 C166.067984,148.171636 167.699085,151.101818 169.30732,154.35 C175.042306,165.922909 178.79177,177.932182 180.202379,189.092182 C178.551678,188.330727 177.023474,187.321091 175.668941,186.097636 Z M73.2650791,194.026909 L73.1839595,193.968 C65.6904762,188.266909 60.1465833,180.814909 57.575258,172.986 C56.1428724,168.714545 55.6262119,164.181818 56.060664,159.691636 C60.3354992,171.024 67.659666,180.908727 77.1980145,188.217818 C86.736363,195.526909 98.1050727,199.966909 110.007865,201.030545 C107.949389,201.887455 105.809794,202.527273 103.622833,202.940727 C101.785939,203.278364 99.9229121,203.448 98.0560744,203.448 C89.8542924,203.448 81.5131373,200.282182 73.2650791,194.014909 L73.2650791,194.026909 Z M146.75065,194.869636 C150.223545,193.107273 153.464515,190.909091 156.397884,188.325818 C157.28911,194.401091 157.622843,200.546727 157.396362,206.684727 C153.296287,203.307273 149.709063,199.334182 146.75065,194.893636 L146.75065,194.869636 Z M176.394661,212.980909 C176.522057,211.624909 176.624954,210.249273 176.702262,208.854 C177.578788,209.154545 178.443882,209.443636 179.302442,209.667818 C178.472736,211.630909 177.416005,212.533091 176.40065,212.957455 L176.394661,212.980909 Z" id="Shape" fill="#E5E5E5"></path>
                <path d="M133,200.617938 C114.43479,164.246712 132.068294,134.188966 132.068294,134.188966 L125.010226,124.108997 L124.981466,124.061548 L113.503084,120 C113.503084,120 90.1643042,145.713684 50.6843787,137.8082 C40.3862303,165.119343 40.0566332,180.899768 63.5859867,207.626794 L63.6266845,207.680243 C95.4468669,223.148158 110.182151,218.379234 133,200.617938 Z" id="Path" fill="#FEE100"></path>
                <path d="M119.40497,89.68549 C111.778087,79.9239589 66.7048316,66.8651632 31.759377,78.7152333 C-13.9656937,94.2262167 32.6379036,146.653536 78.3688671,138.053511 C107.491034,132.574353 132.564045,106.515922 119.40497,89.68549 Z" id="Path" fill="#D9F1FD"></path>
                <path d="M68.4469294,101.190914 L66.5192925,97.7386348 C64.81834,98.8054944 63.264869,100.097301 61.9009389,101.580203 C57.334477,101.959664 52.7927591,102.598469 48.2967059,103.492251 L48.599589,102.707121 C36.8297518,97.9865132 32.6133124,82.1588824 32.5725639,82 L28.5891998,83.0504799 L24.6055626,84.0889481 C24.7802461,84.7616046 28.2279249,97.8565681 38.1457777,106.005977 C30.7511136,108.207945 23.6500468,111.317343 17,115.265379 L21.1812623,122.441292 C32.1357457,115.890534 44.0979096,112.408772 55.6930633,110.76262 C52.6704588,117.200904 50.5620752,126.365304 52.0238893,139 L60.1770449,138.03251 C58.4766387,123.338349 62.2740123,114.557233 65.7507504,109.777113 C92.0740002,108.278377 114.198399,115.087933 114.541976,115.200406 L117,107.245369 C115.602204,106.797113 94.4790399,100.264373 68.4469294,101.190914 Z" id="Path" fill="#2BABE2"></path>
                <path d="M158.801965,120.25917 C170.241659,124.90602 195.372857,164.96646 193.941326,202.20276 C192.067729,250.945701 129.032891,220.538714 124.331161,173.743117 C121.340391,143.936444 139.070525,112.247191 158.801965,120.25917 Z" id="Path" fill="#D9F1FD"></path>
                <path d="M191,209.900094 L190.726827,201.615734 C190.569793,201.615734 174.484188,202.044348 166.653762,191.909724 L166.002726,192.426885 C165.579607,187.828387 164.904035,183.25705 163.97928,178.734061 C164.992912,176.996247 165.774809,175.130229 166.304798,173.185441 L162.497274,172.269544 C156.050164,146.840091 143.946565,128.233147 143.121047,127 L136.296074,131.609363 C144.946565,145.718307 151.312432,161.131019 155.154853,177.266235 C151.619956,181.963603 144.388222,188.122821 130,190.600523 L131.377863,198.774063 C143.748637,196.642402 151.817884,192.033039 157.055616,187.300904 C158.764995,198.973431 158.799891,211.521112 155.707197,223.968295 L163.665758,226 C165.525627,218.462048 166.466739,210.723097 166.467285,202.954269 C175.838604,209.483431 187.48855,209.912045 190.360414,209.912045 C190.709378,209.912045 190.924755,209.906069 191,209.900094 Z" id="Path" fill="#2BABE2"></path>
                <path d="M221.150654,57.0351345 C220.572445,56.460937 219.887725,56.0082252 219.136706,55.7031487 C218.385688,55.3980722 217.5825,55.2466235 216.773334,55.2575191 C215.964712,55.2684146 215.165871,55.4416545 214.423004,55.7668879 C213.680137,56.0921212 213.007915,56.5633555 212.44438,57.1533517 C203.509322,66.6445 191.736478,72.8658818 178.959922,74.8494239 C175.899331,71.0087285 172.380085,67.5711699 168.483157,64.6151964 C163.429811,60.7516202 157.783585,57.7618704 151.772175,55.7668879 C150.28644,46.9484333 149.956036,32.2134555 158.766648,16.3164631 C159.567119,14.8724705 159.770361,13.1645324 159.331814,11.5682195 C158.893267,9.97196109 157.848253,8.61812958 156.427187,7.80461036 C155.006664,6.99114563 153.326382,6.78451077 151.755329,7.23030382 C150.184819,7.67609688 148.852332,8.73787211 148.051861,10.1818102 C140.706876,23.2302596 137.56314,38.2870931 139.061373,53.2424342 C125.339794,52.3399525 112.396405,57.3184199 104.549292,67.9890158 C103.317339,69.6696605 102.235372,71.4576268 101.316433,73.3333026 C81.837225,67.1930929 53.9534543,64.4855389 29.9238442,72.6844702 C12.3369096,78.6955671 4.10654326,91.1650249 7.91415925,106.035871 C11.3676498,119.526245 24.7464342,132.886962 41.9560661,140.065522 C37.7483506,149.029323 36.0282895,158.990616 36.9816268,168.875096 C38.2179275,180.849349 43.5232607,191.915455 52.4617963,201.406058 L47.5976187,228.728929 L72.0163783,216.294337 C80.51941,220.765887 89.2778533,223.060498 97.9846709,223.060498 C101.040915,223.058864 104.090638,222.776668 107.09743,222.21718 C116.71123,220.364384 125.644658,215.877036 132.932039,209.239987 C144.302202,223.744741 160.264338,233 173.822889,233 C174.13047,233 174.444028,233 174.745631,233 C189.836651,232.522228 199.315138,220.984344 200.035181,202.14369 C201.021504,176.318963 190.539305,149.821978 179.215334,132.538848 C180.698351,131.124056 182.05801,129.580696 183.278008,127.9262 C189.935555,118.889398 191.984282,107.251274 189.035637,95.164796 C188.280271,92.0818888 187.236344,89.079609 185.919072,86.1988151 C199.385783,83.0630643 211.660212,76.0027221 221.237602,65.883443 C221.804399,65.2967155 222.251641,64.6026665 222.553787,63.84052 C222.855934,63.0778287 223.00755,62.2628385 222.999711,61.4407663 C222.991247,60.6192388 222.823328,59.8069726 222.506509,59.0513634 C222.189146,58.2952095 221.728862,57.6098769 221.150654,57.0351345 Z M142.955585,129.648248 C148.997427,140.453405 153.956216,151.848013 157.756414,163.660466 L157.565127,163.625056 C157.535782,163.808102 154.320856,180.265345 134.231921,186.364696 C132.369047,182.014632 131.137093,177.41288 130.575188,172.703261 C128.804697,154.747329 135.189443,137.647246 142.955585,129.648248 Z M124.770824,134.957124 C120.336444,144.765334 118.022524,155.426124 117.986114,166.220385 C114.079404,166.751545 106.162732,166.751545 97.8971788,160.463155 C89.632169,154.175311 87.49595,146.613226 86.9215457,142.602015 C97.1086635,139.533272 106.52846,134.276695 114.544036,127.188569 C117.656253,130.155438 121.08692,132.757305 124.770824,134.945684 L124.770824,134.957124 Z M78.1457126,103.104412 C90.3674282,103.481944 102.520672,105.108656 114.422308,107.958942 C109.065186,117.803653 94.717033,128.852325 77.2751396,132.143338 C72.6809918,132.994829 67.9928308,133.193128 63.3444338,132.733335 C63.2519572,111.356732 77.5881546,103.587632 78.250051,103.240062 L78.1457126,103.104412 Z M62.6367957,80.1348746 C87.7285376,80.1348746 110.736773,88.6230838 114.532624,93.5130245 C116.604718,96.1851679 117.231292,99.2168658 116.476469,102.708902 C106.031222,100.117386 95.38219,98.462891 84.6521867,97.766118 C73.336367,96.9734639 61.9683782,97.4882805 50.766733,99.2996723 C43.4359317,96.0729434 39.0190504,88.8235627 36.6857298,83.6623218 C45.1287126,81.2467695 53.8657449,80.0591502 62.6367957,80.1348746 Z M19.8417711,102.903933 C17.8799385,95.2350725 21.7977891,89.3781482 31.4502816,85.4491985 C33.4759671,90.0918093 37.0456427,96.4030797 42.8150642,100.921481 C35.6706046,102.625006 28.7415603,105.154418 22.1634624,108.460139 C21.1386098,106.723382 20.3480838,104.854244 19.8128607,102.903933 L19.8417711,102.903933 Z M25.344206,113.049362 C39.4079281,106.065289 55.0733525,103.481944 69.4562848,103.074994 C64.3485967,108.017779 58.0046079,117.131395 57.8481004,131.97827 C44.1093487,129.223865 32.129459,121.431339 25.3152955,113.049362 L25.344206,113.049362 Z M104.909042,209.935671 C93.1552184,212.118057 80.7574319,208.573177 69.0443657,199.666032 C52.5777641,187.143186 42.489822,165.68977 53.7906973,143.840844 C55.7232935,144.277212 57.6796374,144.636766 59.6647832,144.902619 C60.8255473,155.638043 66.3049407,171.098885 81.547034,182.695606 C91.156487,190.12313 102.889117,194.159401 114.961933,194.192088 C117.832867,194.198081 120.698911,193.955109 123.529089,193.466442 C124.306736,195.23643 125.165897,197.005874 126.077227,198.704497 C120.240801,204.469898 112.872449,208.373788 104.879697,209.935671 L104.909042,209.935671 Z M163.19505,218.347611 C152.167248,213.858628 142.526276,202.928172 136.628986,191.443131 C150.315786,187.08435 157.048869,178.465939 160.240971,172.13669 C163.915093,186.411547 165.894261,202.55064 163.166248,218.347611 L163.19505,218.347611 Z M174.391859,220.482602 C172.401279,220.535445 170.411242,220.359481 168.459789,219.957434 C169.75152,212.548978 170.197675,205.013588 169.789016,197.501079 C175.680329,201.848419 182.645457,203.559571 187.602072,204.231829 C186.586403,214.766775 182.158001,220.234727 174.363057,220.482602 L174.391859,220.482602 Z M187.822704,198.657646 C182.291141,197.837752 174.200028,195.578552 169.080928,189.331565 C167.637581,177.899368 164.92098,166.671463 160.983838,155.862493 C157.301564,145.590675 152.737305,135.668062 147.343773,126.2096 C148.956126,125.261139 150.780417,124.747412 152.643291,124.716904 C153.993712,124.7278 155.330004,125.002369 156.57826,125.525357 C164.211262,128.627876 187.747167,163.772691 187.793902,198.633675 L187.822704,198.657646 Z" id="Shape" fill="#1A1A1A"></path>
            </g>
        </g>
    </g>
</svg>