<?xml version="1.0" encoding="UTF-8"?>
<svg width="240px" height="240px" viewBox="0 0 240 240" version="1.1" xmlns="http://www.w3.org/2000/svg" xmlns:xlink="http://www.w3.org/1999/xlink">
    <title>eclipse</title>
    <defs>
        <linearGradient x1="50.0001633%" y1="1089.60085%" x2="50.0001633%" y2="-159.529406%" id="linearGradient-1">
            <stop stop-color="#473788" offset="30.3%"></stop>
            <stop stop-color="#2C2255" offset="87.2%"></stop>
        </linearGradient>
        <linearGradient x1="50.0001633%" y1="896.400859%" x2="50.0001633%" y2="-352.361029%" id="linearGradient-2">
            <stop stop-color="#473788" offset="30.3%"></stop>
            <stop stop-color="#2C2255" offset="87.2%"></stop>
        </linearGradient>
        <linearGradient x1="50.0001365%" y1="215.196992%" x2="50.0001365%" y2="-166.69767%" id="linearGradient-3">
            <stop stop-color="#473788" offset="30.3%"></stop>
            <stop stop-color="#2C2255" offset="86.3%"></stop>
        </linearGradient>
    </defs>
    <g id="Page-1" stroke="none" stroke-width="1" fill="none" fill-rule="evenodd">
        <g id="eclipse">
            <rect id="ViewBox" x="0" y="0" width="240" height="240"></rect>
            <path d="M66.811875,150.50625 L30.703125,150.50625 C35.484375,166.9125 44.355,181.6125 57.346875,194.596875 C78.054375,215.31 102.95625,225.6525 132.069375,225.6525 C137.893125,225.6525 143.533125,225.22125 149.011875,224.3925 C170.9475,221.08125 190.15125,211.164375 206.6025,194.59875 C219.675,181.610625 228.61125,166.9125 233.43,150.50625 L66.811875,150.50625 Z M46.905,101.461875 L28.036875,101.461875 C27.3332609,105.670535 26.873743,109.91638 26.660625,114.178125 L237.495,114.178125 C237.2794,109.916234 236.817378,105.670388 236.11125,101.461875 M26.660625,125.983125 C26.873743,130.24487 27.3332609,134.490715 28.036875,138.699375 L236.11875,138.699375 C236.82125,134.486875 237.2825,130.248125 237.5025,125.983125 M233.4375,89.6475 C228.61875,73.205625 219.6825,58.4325 206.600625,45.3525 C190.194375,28.93875 171.043125,19.095 149.180625,15.78375 C143.51951,14.928768 137.802189,14.5000629 132.076875,14.5012475 C102.958125,14.5012475 78.054375,24.793125 57.34875,45.350625 C44.355,58.4325 35.47125,73.205625 30.695625,89.6475" id="Shape" fill="#2C2255" fill-rule="nonzero"></path>
            <path d="M20.390625,120.080625 C20.390625,64.3875 62.22,18.1125 116.638125,9.975 C115.29,9.924375 113.92875,9.86625 112.565625,9.86625 C51.504375,9.87375 1.99875,59.21625 1.99875,120.080625 C1.99875,180.9525 51.504375,230.295 112.5675,230.295 C113.93625,230.295 115.29,230.244375 116.645625,230.19375 C62.22,222.05625 20.390625,175.78125 20.390625,120.080625" id="Path" fill="#F7941E" fill-rule="nonzero"></path>
            <path d="M203.825625,114.16875 C203.479919,109.874488 202.749489,105.619921 201.643125,101.45625 L62.5125,101.45625 C61.4061359,105.619921 60.6757056,109.874488 60.33,114.16875 L203.825625,114.16875 Z" id="Path" fill="url(#linearGradient-1)" fill-rule="nonzero"></path>
            <path d="M203.825625,125.983125 L60.33,125.983125 C60.673125,130.276875 61.40625,134.53125 62.5125,138.699375 L201.643125,138.699375 C202.748725,134.534266 203.479142,130.278522 203.825625,125.983125" id="Path" fill="url(#linearGradient-2)" fill-rule="nonzero"></path>
            <path d="M132.076875,192.09375 C160.970625,192.09375 185.881875,175.063125 197.34375,150.50625 L66.811875,150.50625 C78.28125,175.063125 103.183125,192.09375 132.076875,192.09375" id="Path" fill="url(#linearGradient-3)" fill-rule="nonzero"></path>
            <path d="M49.695,125.983125 L237.34875,125.983125 C237.45115,124.092982 237.5025,122.200415 237.5025,120.3075 C237.5025,118.24875 237.4275,116.206875 237.31125,114.170625 L26.6625,114.170625 C26.5438452,116.21417 26.4800722,118.260532 26.47125,120.3075 C26.47125,122.2125 26.529375,124.100625 26.625,125.983125 L49.695,125.983125 Z M66.39375,89.6475 L30.695625,89.6475 C29.52375,93.493125 28.7625,97.441875 28.036875,101.461875 L235.44375,101.461875 C234.72984,97.471972 233.781319,93.5276288 232.603125,89.649375 M221.878125,138.699375 L28.03875,138.699375 C28.741875,142.711875 29.548125,146.660625 30.705,150.50625 L233.29875,150.50625 C234.456795,146.627763 235.389602,142.685559 236.0925,138.699375 L221.878125,138.699375 Z" id="Shape" fill="#FFFFFF" fill-rule="nonzero"></path>
        </g>
    </g>
</svg>