<?xml version="1.0" encoding="UTF-8"?>
<svg width="240px" height="240px" viewBox="0 0 240 240" version="1.1" xmlns="http://www.w3.org/2000/svg" xmlns:xlink="http://www.w3.org/1999/xlink">
    <title>elasticsearch</title>
    <g id="Page-1" stroke="none" stroke-width="1" fill="none" fill-rule="evenodd">
        <g id="elasticsearch">
            <rect id="ViewBox" x="0" y="0" width="240" height="240"></rect>
            <path d="M7.5,120 C7.5,130.378125 8.956875,140.398125 11.43375,150 L157.5,150 C174.0675,150 187.5,136.5675 187.5,120 C187.5,103.4325 174.0675,90 157.5,90 L11.43375,90 C8.85604272,99.7928063 7.53418883,109.873675 7.5,120" id="Path" fill="#343741" fill-rule="nonzero"></path>
            <path d="M209.428125,57.465 C213.622774,53.6043247 217.525351,49.4378998 221.10375,45 C199.1025,17.585625 165.373125,0 127.5,0 C80.090625,0 39.294375,27.58125 19.82625,67.5 L183.825,67.5 C193.316041,67.4940667 202.456114,63.9108797 209.4225,57.465" id="Path" fill="#FEC514" fill-rule="nonzero"></path>
            <path d="M183.825,172.5 L19.831875,172.5 C39.301875,212.41875 80.090625,240 127.5,240 C165.375,240 199.1025,222.406875 221.10375,195 C217.527972,190.559822 213.625219,186.393209 209.428125,182.535 C202.459315,176.089394 193.317634,172.506364 183.825,172.5" id="Path" fill="#00BFB3" fill-rule="nonzero"></path>
        </g>
    </g>
</svg>