<?xml version="1.0" encoding="UTF-8"?>
<svg width="240px" height="240px" viewBox="0 0 240 240" version="1.1" xmlns="http://www.w3.org/2000/svg" xmlns:xlink="http://www.w3.org/1999/xlink">
    <title>electron</title>
    <g id="Page-1" stroke="none" stroke-width="1" fill="none" fill-rule="evenodd">
        <g id="electron">
            <rect id="ViewBox" x="0" y="0" width="240" height="240"></rect>
            <g id="Group" fill="#47848F" fill-rule="nonzero">
                <path d="M92.00625,61.2375 C65.0625,56.325 43.78125,61.4625 35.2875,76.2375 C28.95,87.20625 30.76875,101.75625 39.675,117.3 C40.4361174,118.625483 42.1276416,119.082992 43.453125,118.321875 C44.7786084,117.560758 45.2361174,115.869233 44.475,114.54375 C36.45,100.5375 34.875,87.975 40.06875,78.91875 C47.11875,66.7125 66.1125,62.04375 91.0125,66.65625 C92.5140242,66.9306665 93.9537085,65.9358992 94.228125,64.434375 C94.5025415,62.9328508 93.5077742,61.4931665 92.00625,61.21875 L92.00625,61.2375 Z M53.68125,136.14375 C65.6950709,149.018939 79.6055786,159.982948 94.93125,168.65625 C134.00625,191.15625 175.55625,197.25 196.18125,183.2625 C197.439423,182.403007 197.762618,180.686299 196.903125,179.428125 C196.043632,178.169952 194.326924,177.846757 193.06875,178.70625 C174.58125,191.25 135,185.475 97.63125,163.85625 C82.8226685,155.462201 69.3806716,144.859083 57.76875,132.4125 C56.7332161,131.283768 54.978732,131.208216 53.85,132.24375 C52.7212681,133.279284 52.6457161,135.033768 53.68125,136.1625 L53.68125,136.14375 Z" id="Shape"></path>
                <path d="M189.4875,132.76875 C207.13125,111.9375 213.28125,90.975 204.80625,76.3125 C198.58125,65.5125 185.4,59.8125 167.8875,59.5875 C166.360087,59.5875 165.121875,60.8257125 165.121875,62.353125 C165.121875,63.8805375 166.360087,65.11875 167.8875,65.11875 C183.6375,65.325 194.98125,70.2375 200.1,79.0875 C207.13125,91.275 201.6375,109.96875 185.34375,129.225 C184.707371,129.978607 184.521376,131.014473 184.85583,131.942397 C185.190283,132.870322 185.994372,133.54933 186.965205,133.723647 C187.936037,133.897964 188.926121,133.541107 189.5625,132.7875 L189.4875,132.76875 Z M144.16875,62.15625 C126.856857,66.0849621 110.255136,72.6624058 94.95,81.65625 C54.61875,105 28.29375,139.29375 31.875,164.19375 C32.0190227,165.198559 32.6881646,166.050207 33.6303665,166.427884 C34.5725684,166.805561 35.6446873,166.651891 36.4428665,166.024759 C37.2410457,165.397627 37.6440227,164.392309 37.5,163.3875 C34.18125,141.28125 59.11875,108.75 97.70625,86.45625 C112.510257,77.7224983 128.574731,71.3283318 145.33125,67.5 C146.822419,67.1789845 147.771016,65.7099188 147.45,64.21875 C147.128984,62.7275812 145.659919,61.7789845 144.16875,62.1 L144.16875,62.15625 Z" id="Shape"></path>
                <path d="M78.75,181.4625 C88.125,207.20625 103.125,223.125 120.09375,223.125 C132.46875,223.125 143.90625,214.6875 152.83125,199.8375 C153.649322,198.537905 153.25901,196.821197 151.959375,196.003125 C150.65978,195.185053 148.943072,195.575405 148.125,196.875 C140.1,210.225 130.25625,217.5 120.1125,217.5 C106.0125,217.5 92.56875,203.3625 84.0375,179.55 C83.519733,178.115786 81.9373395,177.372858 80.503125,177.890625 C79.0689105,178.408392 78.325983,179.990786 78.84375,181.425 L78.75,181.4625 Z M163.125,176.41875 C168.112876,159.818458 170.584085,142.564232 170.45625,125.23125 C170.45625,79.4625 154.44375,40.03125 131.625,29.8875 C130.227029,29.2661797 128.59007,29.8957792 127.96875,31.29375 C127.34743,32.6917208 127.977029,34.3286797 129.375,34.95 C149.71875,43.9875 165,81.4125 165,125.23125 C165.123818,142.004983 162.734821,158.702678 157.9125,174.76875 C157.456865,176.223675 158.26695,177.77249 159.721875,178.228125 C161.1768,178.68376 162.725615,177.873675 163.18125,176.41875 L163.125,176.41875 Z M215.08125,173.71875 C215.08125,166.418236 209.163014,160.5 201.8625,160.5 C194.561986,160.5 188.64375,166.418236 188.64375,173.71875 C188.64375,181.019264 194.561986,186.9375 201.8625,186.9375 C209.163014,186.9375 215.08125,181.019264 215.08125,173.71875 M209.55,173.71875 C209.55,177.964439 206.108189,181.40625 201.8625,181.40625 C197.616811,181.40625 194.175,177.964439 194.175,173.71875 C194.175,169.473061 197.616811,166.03125 201.8625,166.03125 C206.108189,166.03125 209.55,169.473061 209.55,173.71875 M38.1375,186.9375 C45.438014,186.9375 51.35625,181.019264 51.35625,173.71875 C51.35625,166.418236 45.438014,160.5 38.1375,160.5 C30.836986,160.5 24.91875,166.418236 24.91875,173.71875 C24.91875,181.019264 30.836986,186.9375 38.1375,186.9375 M38.1375,181.40625 C33.891811,181.40625 30.45,177.964439 30.45,173.71875 C30.45,169.473061 33.891811,166.03125 38.1375,166.03125 C42.383189,166.03125 45.825,169.473061 45.825,173.71875 C45.825,175.757602 45.0150693,177.712947 43.5733834,179.154633 C42.1316975,180.596319 40.1763518,181.40625 38.1375,181.40625" id="Shape"></path>
                <path d="M120.09375,43.36875 C127.394264,43.36875 133.3125,37.450514 133.3125,30.15 C133.3125,22.849486 127.394264,16.93125 120.09375,16.93125 C112.793236,16.93125 106.875,22.849486 106.875,30.15 C106.875,37.450514 112.793236,43.36875 120.09375,43.36875 M120.09375,37.8375 C116.984446,37.8375 114.181305,35.9645008 112.991426,33.0918789 C111.801547,30.219257 112.459257,26.9127262 114.657867,24.7141166 C116.856476,22.515507 120.163007,21.8577972 123.035629,23.0476761 C125.908251,24.237555 127.78125,27.0406965 127.78125,30.15 C127.78125,34.395689 124.339439,37.8375 120.09375,37.8375 M122.11875,134.56875 C118.339202,135.414485 114.422748,133.896895 112.199887,130.72528 C109.977026,127.553665 109.886783,123.354432 111.971335,120.090249 C114.055888,116.826066 117.903529,115.141621 121.715921,115.824203 C125.528313,116.506784 128.552494,119.421579 129.375,123.20625 C130.491697,128.344608 127.250152,133.420515 122.11875,134.56875" id="Shape"></path>
            </g>
        </g>
    </g>
</svg>