<?xml version="1.0" encoding="UTF-8"?>
<svg width="240px" height="240px" viewBox="0 0 240 240" version="1.1" xmlns="http://www.w3.org/2000/svg" xmlns:xlink="http://www.w3.org/1999/xlink">
    <title>emacs</title>
    <defs>
        <linearGradient x1="25.141%" y1="20.136%" x2="92.394%" y2="101.477%" id="linearGradient-1">
            <stop stop-color="#8381C5" offset="0%"></stop>
            <stop stop-color="#7E55B3" stop-opacity="0.996" offset="56.639%"></stop>
            <stop stop-color="#A52ECB" stop-opacity="0.992" offset="100%"></stop>
        </linearGradient>
        <linearGradient x1="90.716%" y1="79.092%" x2="32.749%" y2="9.825%" id="linearGradient-2">
            <stop stop-color="#411F5D" offset="0%"></stop>
            <stop stop-color="#5B2A85" offset="100%"></stop>
        </linearGradient>
    </defs>
    <g id="Page-1" stroke="none" stroke-width="1" fill="none" fill-rule="evenodd">
        <g id="emacs" transform="translate(0, 0)">
            <rect id="ViewBox" x="0" y="0" width="240" height="240"></rect>
            <path d="M237.1875,120 C237.1875,184.72125 184.72125,237.1875 120,237.1875 C55.27875,237.1875 2.8125,184.72125 2.8125,120 C2.8125,55.27875 55.27875,2.8125 120,2.8125 C184.72125,2.8125 237.1875,55.27875 237.1875,120" id="Path" fill="url(#linearGradient-1)" fill-rule="nonzero"></path>
            <path d="M120,0 C53.71875,0 0,53.73375 0,120 C0,186.26625 53.71875,240 120,240 C186.28125,240 240,186.26625 240,120 C240,53.73375 186.28125,0 120,0 M120,6.609375 C182.58,6.609375 233.325,57.3684375 233.325,120 C233.325,182.631563 182.58,233.390625 120,233.390625 C57.42,233.390625 6.675,182.631562 6.675,120 C6.675,57.3684375 57.42,6.609375 120,6.609375" id="Shape" fill="url(#linearGradient-2)" fill-rule="nonzero"></path>
            <path d="M79.903125,203.974688 C79.903125,203.974688 89.780625,204.673125 102.488438,203.552813 C107.635312,203.099063 127.17375,201.180938 141.781875,197.976562 C141.781875,197.976562 159.593437,194.164688 169.122187,190.65375 C179.0925,186.97875 184.517812,183.860625 186.961363,179.44125 C186.853125,178.536563 187.711875,175.325625 183.113437,173.398125 C171.359062,168.466875 157.725937,169.359375 130.749375,168.7875 C100.83375,167.759062 90.8821875,162.751875 85.580625,158.71875 C80.4975,154.6275 83.0540625,143.309062 104.835937,133.33875 C115.8075,128.029687 158.819062,118.231875 158.819062,118.231875 C144.334688,111.07125 117.3225,98.484375 111.770625,95.7665625 C106.900312,93.3825 99.1078125,89.7928125 97.4175,85.4503125 C95.503125,81.28125 101.941875,77.6896875 105.538125,76.66125 C117.120937,73.32 133.471875,71.2434375 148.35375,71.01 C155.835,70.8928125 157.048125,70.411875 157.048125,70.411875 C167.37,68.7 174.164062,61.6378125 171.33375,50.454375 C168.792187,39.039375 155.38875,32.3315625 142.650937,34.65375 C130.655625,36.84 101.745,45.238125 101.745,45.238125 C137.480625,44.92875 143.461875,45.525 146.13375,49.26 C147.711562,51.4659375 145.416562,54.4903125 135.886875,56.0475 C125.510625,57.7415625 103.941562,59.7815625 103.941562,59.7815625 C83.2509375,61.010625 68.675625,61.093125 64.3040625,70.3471875 C61.4484375,76.3940625 67.3509375,81.7396875 69.9365625,85.085625 C80.866875,97.24125 96.6553125,103.797187 106.817812,108.625312 C110.640937,110.44125 121.86,113.871562 121.86,113.871562 C88.8909375,112.058437 65.1084375,122.181562 51.1584375,133.8375 C35.3803125,148.4325 42.36,165.827812 74.6859375,176.539687 C93.7790625,182.865937 103.247812,185.841562 131.728125,183.276562 C148.502813,182.372812 151.1475,182.910937 151.314375,184.287187 C151.549688,186.225 132.6825,191.039062 127.530937,192.525 C114.426562,196.305 80.0746875,203.937187 79.9021875,203.974687" id="Path" fill="#FFFFFF" fill-rule="nonzero"></path>
        </g>
    </g>
</svg>