<?xml version="1.0" encoding="UTF-8"?>
<svg width="240px" height="240px" viewBox="0 0 240 240" version="1.1" xmlns="http://www.w3.org/2000/svg" xmlns:xlink="http://www.w3.org/1999/xlink">
    <title>emberjs</title>
    <g id="Page-1" stroke="none" stroke-width="1" fill="none" fill-rule="evenodd">
        <g id="emberjs" transform="translate(0, -0.3737)">
            <polygon id="box" fill="#E04E39" fill-rule="nonzero" points="0 0.373720558 240 0.373720558 240 240.373721 0 240.373721"></polygon>
            <path d="M122.825893,45.3890759 C138.312904,45.0842673 149.256733,49.2655676 158.673647,62.5742949 C179.209056,113.267886 105.810088,139.430933 102.867068,140.459428 L102.77504,140.489348 C102.77504,140.489348 100.558854,154.258093 121.608868,153.728885 C147.513834,153.728885 174.748511,133.736809 185.108243,125.286319 C187.605601,123.242527 191.26249,123.45848 193.499702,125.781867 L201.256354,133.804129 C203.518247,136.126596 203.588003,139.796237 201.415995,142.20226 C194.673529,149.676614 178.852212,165.021762 155.033842,174.934585 C155.033842,174.934585 115.292737,193.256759 88.5106876,175.906981 C72.5409986,165.565929 68.1480664,153.184718 66.3619704,140.306088 C66.371361,140.306088 46.9722174,139.326213 34.5146204,134.482936 C22.0532671,129.635919 34.6066484,115.014458 34.6066484,115.014458 C34.6066484,115.014458 38.4380216,108.968776 45.725143,115.014458 C53.0178988,121.050789 66.628664,118.328082 66.628664,118.328082 C67.8419321,108.792997 69.8590374,96.2098263 75.801422,82.9291489 C88.2571409,55.0943301 107.333247,45.6882745 122.825893,45.3890759 L122.825893,45.3890759 Z M131.940429,73.2799944 C123.734905,65.4073315 100.042369,81.1376974 99.127723,117.131288 C99.127723,117.131288 106.121857,119.251858 121.608868,108.660228 C137.103392,98.0742075 140.145953,81.1376974 131.940429,73.2799944 L131.940429,73.2799944 Z" id="Shape" fill="#FFFFFF"></path>
        </g>
    </g>
</svg>