<?xml version="1.0" encoding="UTF-8"?>
<svg width="240px" height="240px" viewBox="0 0 240 240" version="1.1" xmlns="http://www.w3.org/2000/svg" xmlns:xlink="http://www.w3.org/1999/xlink">
    <title>envoy</title>
    <g id="Page-1" stroke="none" stroke-width="1" fill="none" fill-rule="evenodd">
        <g id="envoy" transform="translate(-181, -10)">
            <rect id="box" x="181" y="10" width="240" height="240"></rect>
            <g id="shape" transform="translate(181, 40)" fill-rule="nonzero">
                <path d="M59.8568687,87.4425189 L60.200371,101.535782 L75.4179105,110.742099 L75.0744082,96.650759 L59.8568687,87.4425189 Z M97,146.132063 L96.6564978,132.317779 L83.3067517,124.225456 C83.1408557,124.11194 82.9105531,123.946476 82.7427054,123.834885 L83.0862076,137.701117 L97,146.132063 Z M49.465926,164.771727 L14.6550969,143.690513 L13.8002447,108.352497 L30.8933845,101.145211 L30.5576891,87 L3.29415067,98.4843263 C1.19800633,99.369364 -0.0510927233,101.256803 0.00160364281,103.421298 L1.02235177,145.855008 C1.08480672,148.019502 2.44710538,150.183997 4.60570467,151.513477 L46.339275,176.812088 C48.2753785,177.976105 50.6623287,178.312804 52.5906254,177.697125 C52.7913446,177.659914 52.9832812,177.586187 53.1566234,177.479714 L78.7709607,166.71881 L64.8571684,158.28594 L49.465926,164.771727 Z" id="Shape" fill="#B31AAB"></path>
                <path d="M160.819222,86.4498623 C160.759313,83.8829763 159.190096,81.37601 156.712587,79.8200286 L106.499557,49 L104.928407,49.6649163 L105.268533,64.5984717 L145.020756,89.0109497 L145.973496,128.921389 L161.163213,138.222485 L162,137.890027 L160.819222,86.4498623 Z M100.707752,156.501884 L54.0931002,127.858296 L52.9683655,79.7620418 L74.2262392,70.67743 L73.8339348,54.1279734 L40.8223894,68.2245848 C38.4067219,69.281879 36.9418612,71.4563871 37.0017697,74.0232732 L38.2927024,130.425182 C38.352611,132.984336 39.9237611,135.499034 42.3993371,137.000895 L97.0533306,170.608159 C99.3028001,172.005643 102.006415,172.336169 104.308063,171.665454 C104.53417,171.611332 104.760276,171.499225 104.980585,171.385184 L137.2597,157.622963 L121.181017,147.761327 L100.707752,156.501884 Z" id="Shape" fill="#D163CE"></path>
                <path d="M233.5535,45.9761812 L163.204966,2.59614476 C160.614486,1.02364277 157.505909,0.576024624 154.853334,1.41871443 C154.571971,1.47320707 154.34494,1.58608469 154.065517,1.70090848 L85.4071029,31.1074742 C82.6400425,32.2849045 80.9499235,34.8090816 81.0011315,37.7808769 L82.7545281,110.51104 C82.8127412,113.482835 84.6173458,116.341753 87.4988919,118.081625 L157.847425,161.407169 C160.439847,162.973833 163.546483,163.421451 166.146666,162.586546 C166.428029,162.526214 166.65506,162.411391 166.934483,162.304352 L235.592897,132.897786 C238.359958,131.720355 240.050076,129.135847 239.998868,126.216598 L238.299804,53.4942198 C238.245472,50.6275175 236.435046,47.7160534 233.5535,45.9761812 Z M162.075633,145.244262 L100.938345,107.591791 L99.4054015,44.3491865 L159.02915,18.8135446 L220.17614,56.466015 L221.699382,119.710566 L162.075633,145.244262 Z" id="Shape" fill="#E13EAF"></path>
            </g>
        </g>
    </g>
</svg>