<?xml version="1.0" encoding="UTF-8"?>
<svg width="240px" height="240px" viewBox="0 0 240 240" version="1.1" xmlns="http://www.w3.org/2000/svg" xmlns:xlink="http://www.w3.org/1999/xlink">
    <title>eset</title>
    <defs>
        <rect id="path-1" x="0" y="0" width="240" height="95"></rect>
        <rect id="path-3" x="0" y="0" width="240" height="95"></rect>
        <rect id="path-5" x="0" y="0" width="240" height="95"></rect>
    </defs>
    <g id="Page-1" stroke="none" stroke-width="1" fill="none" fill-rule="evenodd">
        <g id="eset">
            <rect id="box" x="0" y="0" width="240" height="240"></rect>
            <g id="shape" transform="translate(0, 72)">
                <g id="Clipped">
                    <mask id="mask-2" fill="white">
                        <use xlink:href="#path-1"></use>
                    </mask>
                    <g id="SVGID_1_"></g>
                    <path d="M230.769231,3.69958275 C230.769231,3.5674548 230.769231,3.5674548 230.769231,3.43532684 C230.769231,3.30319889 230.637363,3.30319889 230.505495,3.17107093 C230.373626,3.17107093 230.241758,3.03894298 230.241758,3.03894298 C230.10989,3.03894298 229.978022,3.03894298 229.846154,3.03894298 L229.450549,3.03894298 L229.450549,4.36022253 L229.714286,4.36022253 C229.978022,4.36022253 230.10989,4.36022253 230.241758,4.36022253 C230.373626,4.36022253 230.505495,4.22809458 230.637363,4.22809458 C230.769231,4.22809458 230.769231,4.09596662 230.769231,3.96383866 C230.769231,3.96383866 230.769231,3.83171071 230.769231,3.69958275 M232.879121,7.1349096 L231.296703,7.1349096 L229.846154,5.41724618 L229.450549,5.41724618 L229.450549,7.1349096 L228.263736,7.1349096 L228.263736,2.3783032 L230.10989,2.3783032 C230.505495,2.3783032 230.769231,2.3783032 230.901099,2.3783032 C231.164835,2.3783032 231.296703,2.51043115 231.56044,2.64255911 C231.824176,2.77468707 231.956044,2.90681502 232.087912,3.03894298 C232.21978,3.17107093 232.21978,3.43532684 232.21978,3.69958275 C232.21978,4.09596662 232.087912,4.36022253 231.956044,4.62447844 C231.824176,4.88873435 231.56044,5.02086231 231.164835,5.15299026 L232.879121,7.1349096 Z M233.934066,4.88873435 C233.934066,3.83171071 233.538462,2.90681502 232.879121,2.24617524 C232.087912,1.45340751 231.296703,1.05702364 230.241758,1.05702364 C229.186813,1.05702364 228.263736,1.45340751 227.604396,2.24617524 C226.813187,3.03894298 226.549451,3.83171071 226.549451,4.88873435 C226.549451,5.945758 226.945055,6.87065369 227.604396,7.53129346 C228.395604,8.3240612 229.186813,8.72044506 230.241758,8.72044506 C231.296703,8.72044506 232.21978,8.3240612 232.879121,7.53129346 C233.538462,6.73852573 233.934066,5.945758 233.934066,4.88873435 M234.989011,4.88873435 C234.989011,6.21001391 234.461538,7.39916551 233.538462,8.3240612 C232.615385,9.24895688 231.428571,9.77746871 230.10989,9.77746871 C228.791209,9.77746871 227.604396,9.24895688 226.681319,8.3240612 C225.758242,7.39916551 225.230769,6.21001391 225.230769,4.88873435 C225.230769,3.5674548 225.758242,2.3783032 226.681319,1.45340751 C227.604396,0.528511822 228.791209,5.86765994e-16 230.10989,5.86765994e-16 C231.428571,5.86765994e-16 232.615385,0.528511822 233.538462,1.45340751 C234.593407,2.3783032 234.989011,3.5674548 234.989011,4.88873435" id="Shape" fill="#0094A1" fill-rule="nonzero" mask="url(#mask-2)"></path>
                </g>
                <g id="Clipped">
                    <mask id="mask-4" fill="white">
                        <use xlink:href="#path-3"></use>
                    </mask>
                    <g id="SVGID_1_"></g>
                    <path d="M33.0989011,4.88873435 C21.2307692,4.88873435 11.0769231,11.0987483 5.67032967,19.8191933 C1.05494505,28.0111266 0,41.2239221 0,49.9443672 C0,58.6648122 1.05494505,72.0097357 5.67032967,80.069541 C10.9450549,88.7899861 21.0989011,95 33.0989011,95 L206.901099,95 C218.769231,95 228.923077,88.7899861 234.32967,80.069541 C238.945055,72.0097357 240,58.6648122 240,49.9443672 C240,41.2239221 238.945055,27.8789986 234.32967,19.8191933 C229.054945,11.0987483 218.901099,4.88873435 206.901099,4.88873435 L33.0989011,4.88873435 Z" id="Path" fill="#0094A1" fill-rule="nonzero" mask="url(#mask-4)"></path>
                </g>
                <g id="Clipped">
                    <mask id="mask-6" fill="white">
                        <use xlink:href="#path-5"></use>
                    </mask>
                    <g id="SVGID_1_"></g>
                    <path d="M148.747253,45.0556328 L163.384615,45.0556328 L163.384615,44.659249 C163.384615,37.9207232 160.747253,37.5243394 155.868132,37.5243394 C149.934066,37.3922114 148.879121,39.2420028 148.747253,45.0556328 M46.021978,37.7885953 C50.7692308,37.7885953 53.4065934,38.3171071 53.4065934,44.7913769 L53.4065934,45.0556328 L39.032967,45.0556328 C39.1648352,39.5062587 40.3516484,37.7885953 46.021978,37.7885953 M25.7142857,50.2086231 C25.7142857,65.9318498 29.6703297,71.6133519 46.2857143,71.6133519 C52.4835165,71.6133519 57.4945055,71.0848401 61.1868132,69.1029207 C64.6153846,67.1210014 66.7252747,63.6856745 66.7252747,57.4756606 L53.6703297,57.4756606 C53.5384615,61.9680111 50.5054945,62.4965229 46.2857143,62.4965229 C40.2197802,62.4965229 39.032967,59.9860918 39.032967,52.4547983 L39.032967,52.1905424 L66.7252747,52.1905424 L66.7252747,50.2086231 C66.7252747,33.0319889 62.1098901,28.6717663 46.2857143,28.6717663 C29.4065934,28.6717663 25.7142857,33.9568846 25.7142857,50.2086231 M75.5604396,42.4130737 C75.5604396,50.8692629 78.4615385,54.7009736 96.1318681,54.7009736 C97.7142857,54.7009736 100.21978,54.5688456 101.67033,55.2294854 C102.989011,55.8901252 103.648352,57.0792768 103.648352,59.1933241 C103.648352,62.8929068 102.32967,63.2892907 96,63.2892907 C92.5714286,63.2892907 89.010989,63.1571627 88.7472527,58.5326843 L75.5604396,58.5326843 C75.6923077,67.7816412 80.043956,70.8205841 88.2197802,71.4812239 C90.7252747,71.6133519 93.3626374,71.6133519 96.1318681,71.6133519 C107.340659,71.6133519 116.703297,69.7635605 116.703297,57.6077886 C116.703297,45.9805285 110.637363,45.1877608 96.1318681,44.7913769 C88.8791209,44.659249 88.4835165,43.0737135 88.4835165,40.6954103 C88.4835165,37.9207232 88.7472527,36.9958275 96.1318681,36.9958275 C98.7692308,36.9958275 101.538462,37.2600834 102.065934,40.5632823 L114.593407,40.5632823 L114.593407,38.8456189 C114.593407,28.8038943 104.043956,28.6717663 96.1318681,28.6717663 C84.1318681,28.6717663 75.5604396,28.9360223 75.5604396,42.4130737 M184.747253,28.6717663 L217.450549,28.6717663 L217.450549,38.3171071 L207.692308,38.3171071 L207.692308,71.216968 L194.373626,71.216968 L194.373626,38.3171071 L184.615385,38.3171071 L184.615385,28.6717663 L184.747253,28.6717663 Z M135.692308,49.9443672 C135.692308,33.6926287 139.252747,28.5396384 156.131868,28.5396384 C171.824176,28.5396384 176.43956,32.767733 176.43956,49.9443672 L176.43956,51.7941586 L148.747253,51.7941586 L148.747253,52.1905424 C148.747253,59.7218359 149.934066,62.364395 156.131868,62.364395 C160.21978,62.364395 163.384615,61.9680111 163.648352,57.3435327 L176.43956,57.3435327 C176.307692,63.2892907 174.32967,66.7246175 170.901099,68.7065369 C167.340659,70.6884562 162.32967,71.216968 156.131868,71.216968 C139.648352,71.216968 135.692308,65.6675939 135.692308,49.9443672 M16.0879121,79.1446453 C9.36263736,71.8776078 7.91208791,60.6467316 7.91208791,49.9443672 C7.91208791,39.2420028 9.36263736,28.0111266 16.0879121,20.744089 C20.3076923,16.2517385 28.4835165,12.8164117 35.3406593,12.8164117 L124.879121,12.8164117 L124.879121,87.0723227 L35.3406593,87.0723227 C28.3516484,87.0723227 20.3076923,83.6369958 16.0879121,79.1446453" id="Shape" fill="#FFFFFF" fill-rule="nonzero" mask="url(#mask-6)"></path>
                </g>
            </g>
        </g>
    </g>
</svg>