<?xml version="1.0" encoding="UTF-8"?>
<svg width="240px" height="240px" viewBox="0 0 240 240" version="1.1" xmlns="http://www.w3.org/2000/svg" xmlns:xlink="http://www.w3.org/1999/xlink">
    <title>eslint</title>
    <g id="Page-1" stroke="none" stroke-width="1" fill="none" fill-rule="evenodd">
        <g id="eslint">
            <rect id="ViewBox" x="0" y="0" width="240" height="240"></rect>
            <path d="M238.378125,115.25625 L183.984375,20.409375 C182.049375,16.925625 178.3725,14.409375 174.3075,14.409375 L65.521875,14.409375 C61.651875,14.409375 57.973125,16.925625 55.845,20.409375 L1.45125,115.065 C-0.482242095,118.557108 -0.482242095,122.798517 1.45125,126.290625 L55.845,220.365 C57.78,223.84875 61.456875,225.590625 65.521875,225.590625 L174.500625,225.590625 C178.3725,225.590625 182.049375,223.84875 184.179375,220.558125 L238.573125,126.48375 C240.508125,122.61375 240.508125,118.54875 238.378125,115.258125" id="Path" fill="#FFFFFF"></path>
            <path d="M72.49125,91.25625 L117.97875,64.93125 C119.136413,64.351234 120.499837,64.351234 121.6575,64.93125 L167.338125,91.25625 C168.500625,91.8375 169.275,93.19125 169.275,94.351875 L169.275,147.001875 C169.275,148.3575 168.500625,149.518125 167.338125,150.2925 L121.850625,176.6175 C120.692962,177.197516 119.329538,177.197516 118.171875,176.6175 L72.49125,150.2925 C71.32875,149.71125 70.554375,148.3575 70.554375,147.001875 L70.554375,94.351875 C70.554375,93.189375 71.32875,91.835625 72.49125,91.25625" id="Path" stroke="#979797" fill="#8080F2" fill-rule="nonzero"></path>
            <path d="M238.378125,115.25625 L183.984375,20.409375 C182.049375,16.925625 178.3725,14.409375 174.3075,14.409375 L65.521875,14.409375 C61.651875,14.409375 57.973125,16.925625 55.845,20.409375 L1.45125,115.065 C-0.482242095,118.557108 -0.482242095,122.798517 1.45125,126.290625 L55.845,220.365 C57.78,223.84875 61.456875,225.590625 65.521875,225.590625 L174.500625,225.590625 C178.3725,225.590625 182.049375,223.84875 184.179375,220.558125 L238.573125,126.48375 C240.508125,122.61375 240.508125,118.54875 238.378125,115.258125 M193.275,160.74375 C193.275,162.099375 192.500625,163.453125 191.145,164.034375 L121.84875,204.103125 C120.673647,204.875384 119.151978,204.875384 117.976875,204.103125 L48.489375,164.229375 C47.326875,163.455 46.359375,162.294375 46.359375,160.93875 L46.359375,80.608125 C46.359375,79.254375 47.13375,77.89875 48.489375,77.319375 L117.97875,37.250625 C119.153853,36.4783659 120.675522,36.4783659 121.850625,37.250625 L191.341875,77.319375 C192.5025,78.091875 193.47,79.254375 193.47,80.608125 L193.47,160.745625 L193.275,160.74375 Z" id="Shape" fill="#4B32C3" fill-rule="nonzero"></path>
        </g>
    </g>
</svg>