<?xml version="1.0" encoding="UTF-8"?>
<svg width="248px" height="248px" viewBox="0 0 248 248" version="1.1" xmlns="http://www.w3.org/2000/svg" xmlns:xlink="http://www.w3.org/1999/xlink">
    <title>ethena-usde</title>
    <defs>
        <radialGradient cx="50.0984152%" cy="14.5907811%" fx="50.0984152%" fy="14.5907811%" r="105.423333%" id="radialGradient-1">
            <stop stop-color="#3A3A3A" offset="3.125%"></stop>
            <stop stop-color="#1C1C1C" offset="100%"></stop>
        </radialGradient>
        <linearGradient x1="49.9934615%" y1="-0.923076923%" x2="49.9934615%" y2="100.909974%" id="linearGradient-2">
            <stop stop-color="#FFFFFF" offset="0%"></stop>
            <stop stop-color="#111111" offset="100%"></stop>
        </linearGradient>
    </defs>
    <g id="Page-1" stroke="none" stroke-width="1" fill="none" fill-rule="evenodd">
        <g id="ethena-usde" transform="translate(3.6, 3.6)">
            <path d="M120.4,2.4 L120.4,2.4 C185.592689,2.4 238.4,55.2073107 238.4,120.4 L238.4,120.4 C238.4,185.53107 185.592689,238.4 120.4,238.4 L120.4,238.4 C55.2073107,238.4 2.4,185.53107 2.4,120.4 L2.4,120.4 C2.4,55.2073107 55.2073107,2.4 120.4,2.4 Z" id="Path" stroke="#111111" stroke-width="7.0536" fill="#111111" fill-rule="nonzero"></path>
            <path d="M120.4,0.4 L120.4,0.4 C54.1230769,0.4 0.4,54.1230769 0.4,120.4 L0.4,120.4 C0.4,186.676923 54.1230769,240.4 120.4,240.4 L120.4,240.4 C186.676923,240.4 240.4,186.676923 240.4,120.4 L240.4,120.4 C240.4,54.1230769 186.676923,0.4 120.4,0.4 Z" id="Path" fill-opacity="0.7" fill="url(#radialGradient-1)" fill-rule="nonzero"></path>
            <path d="M120.4,0.4 L120.4,0.4 C54.1230769,0.4 0.4,54.1230769 0.4,120.4 L0.4,120.4 C0.4,186.676923 54.1230769,240.4 120.4,240.4 L120.4,240.4 C186.676923,240.4 240.4,186.676923 240.4,120.4 L240.4,120.4 C240.4,54.1230769 186.676923,0.4 120.4,0.4 Z" id="Path" stroke="url(#linearGradient-2)" stroke-width="7.1429"></path>
            <path d="M100.784992,21.4 C54.4287902,30.3098565 19.4,71.0494074 19.4,119.9 C19.4,168.750593 54.4287902,209.490143 100.784992,218.4 L100.784992,208.998565 C59.538438,200.211603 28.6343032,163.650468 28.6343032,119.9 C28.6343032,76.1495321 59.538438,39.5883968 100.784992,30.8014348 L100.784992,21.4 Z M139.199694,30.8628821 L139.199694,21.4614473 C185.494334,30.4327511 220.4,71.1108546 220.4,119.9 C220.4,168.689145 185.494334,209.367249 139.199694,218.338553 L139.199694,208.937118 C180.323124,200.088709 211.165697,163.589021 211.165697,119.9 C211.165697,76.2109794 180.323124,39.7112913 139.199694,30.8628821 Z" id="Shape" fill="#FFFFFF"></path>
            <path d="M134.132959,116.983155 C141.851484,118.46071 147.77931,121.292689 152.039936,125.417529 C156.300561,129.480804 158.4,134.713809 158.4,141.054981 L158.4,151.090038 C158.4,158.72407 155.621331,164.880547 150.125742,169.55947 C144.630152,174.176828 137.343865,176.454724 128.390377,176.454724 L125.302967,176.454724 L125.302967,192.4 L114.682277,192.4 L114.682277,176.454724 L111.409623,176.454724 C105.481796,176.454724 100.294948,175.161864 95.7255814,172.514579 C91.2179631,169.805729 87.6365678,166.050278 85.1048917,161.248226 C82.6349639,156.323044 81.4,150.72065 81.4,144.317914 L92.0206897,144.317914 C92.0206897,150.782215 93.8113873,156.076785 97.3310345,160.14006 C100.974178,164.080205 105.790537,166.111843 111.656616,166.111843 L128.081636,166.111843 C133.885966,166.111843 138.578829,164.757418 142.160225,162.048568 C145.679872,159.216588 147.470569,155.584267 147.470569,151.090038 L147.470569,141.054981 C147.470569,137.484224 146.112109,134.46755 143.456937,131.943395 C140.863512,129.419239 137.343865,127.818555 132.836247,127.079778 L106.222775,122.400855 C98.751243,121.04643 92.8851644,118.214451 88.7480353,113.966481 C84.6109062,109.656947 82.5114675,104.300812 82.5114675,97.8365113 L82.5114675,89.4021377 C82.5114675,81.768106 85.1666399,75.7347584 90.4769848,71.2405301 C95.910826,66.6231723 103.073617,64.3452758 111.903609,64.3452758 L114.558781,64.3452758 L114.558781,48.4 L125.179471,48.4 L125.179471,64.3452758 L128.575621,64.3452758 C136.973376,64.3452758 143.703929,67.0541257 148.82903,72.4718256 C153.95413,77.7663959 156.547554,84.8463446 156.547554,93.5885421 L145.926864,93.5885421 C145.926864,87.8630184 144.321411,83.2456605 141.172253,79.7980333 C138.023095,76.3504062 133.824218,74.6265926 128.575621,74.6265926 L111.84186,74.6265926 C106.222775,74.6265926 101.715156,75.9810175 98.3807538,78.6898675 C95.0463512,81.2755879 93.37915,84.8463446 93.37915,89.3405729 L93.37915,97.7749466 C93.37915,101.407268 94.6141139,104.485507 97.0840417,107.009662 C99.6774659,109.533818 103.135365,111.196067 107.581235,111.996409 L134.132959,116.983155 Z" id="Path" fill="#FFFFFF" fill-rule="nonzero"></path>
        </g>
    </g>
</svg>