<?xml version="1.0" encoding="UTF-8"?>
<svg width="240px" height="240px" viewBox="0 0 240 240" version="1.1" xmlns="http://www.w3.org/2000/svg" xmlns:xlink="http://www.w3.org/1999/xlink">
    <title>etherscan</title>
    <g id="Page-1" stroke="none" stroke-width="1" fill="none" fill-rule="evenodd">
        <g id="etherscan" fill-rule="nonzero">
            <g id="shape">
                <path d="M49.8796066,114.073811 C49.8798038,112.731785 50.1446844,111.403194 50.6588645,110.163913 C51.1730445,108.92483 51.9264652,107.799757 52.8759331,106.853106 C53.8255982,105.906455 54.9521791,105.156999 56.1915759,104.647811 C57.4309727,104.138623 58.7585315,103.879781 60.0981214,103.886104 L77.0402257,103.941429 C79.7412981,103.941429 82.3319213,105.016513 84.241902,106.929968 C86.1520799,108.843424 87.2252113,111.43876 87.2252113,114.144944 L87.2252113,178.321967 C89.1324307,177.754886 91.5820342,177.150262 94.2623973,176.517976 C96.1242537,176.079921 97.7835544,175.024398 98.9712767,173.522522 C100.158802,172.020645 100.804929,170.160934 100.804535,168.24491 L100.804535,88.6361574 C100.804535,85.929776 101.877469,83.3342422 103.78745,81.4203916 C105.69743,79.5065411 108.288053,78.4312598 110.98952,78.4306671 L127.965154,78.4306671 C130.666423,78.4312598 133.257047,79.5065411 135.167027,81.4203916 C137.077008,83.3342422 138.150139,85.929776 138.150139,88.6361574 L138.150139,162.520746 C138.150139,162.520746 142.400458,160.797767 146.540327,159.047125 C148.078134,158.395673 149.390506,157.304782 150.313742,155.910789 C151.236978,154.516994 151.729857,152.881547 151.731435,151.208755 L151.731435,63.1273712 C151.731435,60.4215826 152.804172,57.8264439 154.713758,55.9129886 C156.623344,53.9995332 159.213376,52.9244495 161.914251,52.9238568 L178.890082,52.9238568 C181.591352,52.9238568 184.181778,53.9987429 186.091955,55.9123958 C188.001936,57.8258512 189.075068,60.4211874 189.075068,63.1273712 L189.075068,135.660449 C203.792411,124.974816 218.706985,112.123604 230.542791,96.6701407 C232.260669,94.4271063 233.396717,91.7930426 233.850347,89.0032785 C234.303977,86.2135143 234.061384,83.3543963 233.144262,80.6812099 C227.665197,64.8894731 218.957468,50.4172382 207.575293,38.1908038 C196.193118,25.9645671 182.388755,16.2531489 167.045401,9.67830375 C151.702048,3.10347833 135.15756,-0.190063603 118.470672,0.00847023232 C101.783784,0.207002092 85.3221337,3.893243 70.1391287,10.8312574 C54.9559265,17.7692916 41.3856757,27.8062975 30.2967824,40.3000702 C19.2078892,52.7936454 10.8445644,67.4690022 5.74199308,83.3868009 C0.639435595,99.3044021 -1.08999173,116.113922 0.664373426,132.739683 C2.4187372,149.365444 7.61828676,165.441117 15.930233,179.938248 C17.3782011,182.438939 19.5084686,184.473912 22.0706906,185.803886 C24.6329127,187.13386 27.5207624,187.703708 30.3952005,187.446644 C33.6061138,187.164091 37.6039771,186.762985 42.3572334,186.203807 C44.4263791,185.968478 46.3367542,184.978753 47.7242711,183.423132 C49.1119853,181.867511 49.8798038,179.854865 49.8815789,177.768717 L49.8796066,114.073811 Z" id="Path" fill="#FFFFFF"></path>
                <path d="M49.5090104,217.008185 C67.4023576,230.049083 88.5484311,237.877573 110.607288,239.626239 C132.666341,241.372929 154.778055,236.97459 174.495983,226.91334 C194.21391,216.85209 210.768456,201.523107 222.330111,182.621314 C233.889793,163.719323 240.005913,141.98153 240,119.813387 C240,117.047136 239.871796,114.310523 239.688371,111.589718 C195.865715,177.06688 114.952079,207.678016 49.5127577,216.998306" id="Path" fill="#979695"></path>
            </g>
        </g>
    </g>
</svg>