<?xml version="1.0" encoding="UTF-8"?>
<svg width="240px" height="241px" viewBox="0 0 240 241" version="1.1" xmlns="http://www.w3.org/2000/svg" xmlns:xlink="http://www.w3.org/1999/xlink">
    <title>exercism</title>
    <g id="Page-1" stroke="none" stroke-width="1" fill="none" fill-rule="evenodd">
        <g id="exercism" transform="translate(0, 0.953)">
            <rect id="box" x="0" y="0" width="240" height="240"></rect>
            <g id="shape" transform="translate(0, 17)" fill="#FFFFFF">
                <path d="M134.725681,131.653612 C134.725681,140.499565 127.182259,146.02785 120.500429,146.02785 C113.818598,146.02785 105.801944,143.279373 105.801944,131.653612 L105.801944,126 L97,126 L97,131.653612 C97,144.528285 107.546559,155 120.500429,155 C133.454298,155 144,144.528285 144,131.653612 L144,126 L134.725681,126 L134.725681,131.653612 Z" id="Path" fill-rule="nonzero"></path>
                <path d="M60.2423682,105 C60.2423682,96.5440292 67.5386212,89.6675634 76.5030769,89.6675634 C85.4616388,89.6675634 92.7578051,96.5501277 92.7578051,105 L103,105 C103,91.2122199 91.119678,80 76.5030769,80 C61.8863892,80 50,91.2122199 50,105 L60.2423682,105 Z" id="Path" fill-rule="nonzero"></path>
                <path d="M145.242212,105 C145.242212,96.5440292 152.539257,89.6675634 161.496966,89.6675634 C170.46161,89.6675634 177.757788,96.5501277 177.757788,105 L188,105 C188,91.2122199 176.113591,80 161.496966,80 C146.880341,80 135,91.2122199 135,105 L145.242212,105 Z" id="Path" fill-rule="nonzero"></path>
                <path d="M203.762017,72.5570975 L203.762017,39.7079046 C203.762017,28.6377488 202.413732,20.9569418 199.715434,16.6653112 C197.017999,12.3735944 191.401293,9.06459592 182.865316,6.73830701 C180.287863,6.0163437 179,4.85319494 179,3.24882629 C179,1.08292774 181.898555,0 187.696529,0 L196.514766,0 C206.09778,0 213.365747,2.9680312 218.317806,8.90415389 C223.270727,14.8403369 225.746324,23.503776 225.746324,34.8948159 L225.746324,69.548917 C225.746324,77.5707603 226.612093,83.7474771 228.34363,88.0789814 C230.075167,92.4108301 233.275835,96.4619269 237.946497,100.232272 C239.315499,101.35528 240,102.277628 240,103.000177 C240,103.721864 239.315499,104.644212 237.946497,105.76722 C233.19556,109.617657 229.974175,113.688561 228.283208,117.980795 C226.59224,122.272167 225.746324,128.428904 225.746324,136.451005 L225.746324,170.984366 C225.746324,182.455584 223.250011,191.158897 218.257383,197.095166 C213.264755,203.031435 206.017504,206 196.514766,206 L187.696529,206 C183.911489,206 181.516167,205.819147 180.5097,205.458304 C179.503233,205.09746 179,204.194919 179,202.750683 C179,200.745803 180.328433,199.422135 182.986161,198.779678 L187.817374,197.697146 C198.447424,195.290946 203.762017,184.822168 203.762017,166.291673 L203.762017,133.442825 C203.762017,121.008783 206.782281,112.224517 212.821945,107.090889 L215.117138,105.166101 C216.244449,104.203276 216.808105,103.480728 216.808105,103.000177 C216.808105,102.438672 216.244449,101.716124 215.117138,100.834252 L212.821945,98.9086033 C206.782281,93.774975 203.762017,84.9909674 203.762017,72.5570975 Z" id="Path"></path>
                <path d="M36.2375725,72.5572132 L36.2375725,39.707964 C36.2375725,28.6377893 37.5864471,20.9569691 40.28411,16.6653311 C42.9818593,12.373607 48.5985881,9.06468896 57.1346417,6.73831856 C59.7115472,6.01635401 61,4.85320326 61,3.24883186 C61,1.0829296 58.1009597,0 52.3029653,0 L43.485087,0 C33.902268,0 26.6346417,2.96803629 21.6821216,8.90424666 C16.7296879,14.8403537 14.2534279,23.5038077 14.2534279,34.8948671 L14.2534279,69.5491137 C14.2534279,77.5708846 13.3877554,83.747612 11.6564105,88.0796405 C9.92506559,92.4114967 6.72408865,96.4626003 2.0534797,100.23209 C0.684493235,101.355962 0,102.278311 0,103 C0,103.721689 0.684493235,104.6449 2.0534797,105.76791 C6.80462234,109.618353 10.0257111,113.689264 11.7168324,117.980644 C13.4079536,122.272023 14.2534279,128.428771 14.2534279,136.450886 L14.2534279,170.985167 C14.2534279,182.456405 16.7497998,191.159732 21.7425435,197.096012 C26.7352872,203.032291 33.9828017,206 43.485087,206 L52.3029653,206 C56.08779,206 58.48343,205.819147 59.490058,205.458303 C60.496686,205.097458 61,204.194916 61,202.751538 C61,200.745794 59.6712372,199.422124 57.013798,198.780527 L52.1821216,197.697132 C41.5523647,195.290928 36.2375725,184.822132 36.2375725,166.292467 L36.2375725,133.442701 C36.2375725,121.008637 33.2178611,112.225217 27.1781794,107.090719 L24.8831849,105.165928 C23.7557132,104.203102 23.1920637,103.481413 23.1920637,103 C23.1920637,102.438495 23.7557132,101.716806 24.8831849,100.834072 L27.1781794,98.9092809 C33.2178611,93.7747826 36.2375725,84.9911045 36.2375725,72.5572132 Z" id="Path"></path>
            </g>
        </g>
    </g>
</svg>