<svg width="240" height="240" viewBox="0 0 240 240" fill="none" xmlns="http://www.w3.org/2000/svg">
<path d="M225.696 214.731C226.434 215.445 227.015 216.305 227.403 217.255C227.792 218.206 227.979 219.227 227.952 220.253C227.961 221.798 227.509 223.311 226.656 224.598C225.802 225.885 224.584 226.889 223.158 227.481C221.732 228.074 220.161 228.228 218.647 227.924C217.133 227.62 215.744 226.872 214.656 225.776C213.931 225.052 213.358 224.191 212.971 223.242C212.583 222.294 212.389 221.278 212.4 220.253C212.397 219.228 212.596 218.213 212.985 217.265C213.374 216.317 213.946 215.455 214.668 214.728C215.39 214.001 216.248 213.424 217.193 213.029C218.138 212.634 219.152 212.429 220.176 212.426C221.206 212.406 222.228 212.6 223.179 212.997C224.129 213.394 224.987 213.984 225.696 214.731ZM226.608 213.842C225.772 212.987 224.77 212.312 223.665 211.858C222.559 211.404 221.372 211.18 220.176 211.201C218.688 211.205 217.224 211.575 215.913 212.28C214.603 212.984 213.486 214.001 212.662 215.241C211.838 216.48 211.333 217.904 211.19 219.386C211.048 220.868 211.272 222.362 211.845 223.736C212.417 225.11 213.32 226.321 214.472 227.263C215.624 228.205 216.991 228.848 218.451 229.135C219.911 229.422 221.419 229.345 222.842 228.91C224.265 228.474 225.558 227.695 226.608 226.64C227.451 225.799 228.12 224.8 228.577 223.7C229.033 222.6 229.268 221.42 229.268 220.229C229.268 219.038 229.033 217.859 228.577 216.759C228.12 215.658 227.451 214.659 226.608 213.818V213.842ZM221.52 219.821C220.979 219.998 220.409 220.072 219.84 220.037H218.28V216.436H219.792C220.752 216.436 221.472 216.556 221.88 216.796C222.288 217.036 222.552 217.54 222.552 218.236C222.576 218.574 222.488 218.91 222.301 219.192C222.114 219.474 221.84 219.687 221.52 219.797V219.821ZM216.528 225.151H218.28V221.262H219.672C220.584 221.262 221.256 221.358 221.616 221.574C222.24 221.958 222.552 222.702 222.552 223.855V224.647L222.576 224.959C222.588 224.998 222.596 225.039 222.6 225.079C222.6 225.127 222.624 225.151 222.648 225.151H224.28L224.232 225.055C224.159 224.898 224.126 224.724 224.136 224.551V223.086C224.109 222.519 223.908 221.974 223.56 221.526C223.2 220.997 222.624 220.685 221.856 220.541C222.362 220.473 222.85 220.31 223.296 220.061C223.944 219.629 224.256 218.957 224.256 218.092C224.256 216.844 223.776 216.003 222.72 215.571C222.144 215.331 221.256 215.211 220.008 215.211H216.528V225.151Z" fill="#E4002B"/>
<path d="M230.064 148.895C230.712 136.097 228.336 122.291 217.2 109.806C205.752 97.4645 186.432 86.996 146.712 84.5469C148.776 78.1122 150.576 72.2056 152.472 66.1791C176.232 67.0194 197.376 68.7242 215.352 71.0531C216.792 64.6184 217.56 58.3277 219.024 52.2291C217.2 49.5559 215.264 46.9628 213.216 44.4497C204.672 43.4413 196.128 41.3284 186.96 40.1279C173.86 38.4556 160.697 37.3261 147.504 36.7424C137.021 67.9707 126.613 99.2242 116.28 130.503C175.368 135.617 198.12 151.56 196.8 174.033C195.6 186.183 184.536 197.203 169.92 198.524C152.592 199.7 144.648 192.665 139.44 184.982C134.705 177.885 130.008 170.762 125.352 163.613C124.032 161.404 122.28 162.845 120.696 164.381C117.195 167.778 113.683 171.163 110.16 174.538C107.904 176.506 108.408 178.211 109.2 179.868C112.322 187.235 115.49 194.582 118.704 201.909C123.864 205.079 148.2 209.4 166.392 208.056C181.039 206.7 195.038 201.37 206.88 192.641C219.48 182.869 228.648 169.711 230.064 148.895Z" fill="white"/>
<path d="M23.3519 191.152C25.6239 194.241 28.0399 197.211 30.5999 200.06C54.5609 204.131 78.7833 206.474 103.08 207.071L102.84 198.787C86.5439 197.875 79.0559 195.378 77.7599 192.161C76.6559 189.591 76.4639 185.75 76.2479 181.98C75.0073 155.548 74.6071 129.084 75.0479 102.626C84.1679 102.458 93.2399 102.386 102.768 102.266C107.376 100.177 111.72 98.0882 116.328 96.0233L116.352 86.5872C102.24 86.6353 88.8479 86.8754 75.4079 87.2595C75.7919 75.8066 76.2479 65.2661 76.9199 54.9657C77.3999 48.1948 82.0799 43.2487 86.9039 42.8645C94.6559 42.5524 101.592 45.6497 108.336 48.627C112.032 50.4277 115.704 52.2285 119.496 54.1493C121.32 54.6295 123.48 55.0617 124.776 53.501C127.032 50.8119 129.168 48.3388 131.376 45.7457C132.576 43.969 132.072 42.9605 131.568 42.3122C126.958 38.6826 122.302 35.1128 117.6 31.6037C114.768 29.6828 110.28 29.2747 105.84 29.2747C104.088 29.2747 102.336 29.3227 100.68 29.3707C96.1439 29.6108 90.3599 30.3311 80.9039 32.6601C59.5919 38.3986 34.0079 53.2609 31.2959 77.5594C30.9496 81.5492 30.6535 85.5432 30.4079 89.5405C24.3839 90.0207 18.8879 90.4769 13.7279 90.9811C13.3626 95.5855 13.0825 100.196 12.8879 104.811C18.1199 104.499 23.5919 104.211 29.6879 103.947C28.7759 129.446 29.6159 154.873 32.0159 178.451C32.4239 182.028 32.8079 185.582 32.3519 187.863C31.9679 190.048 28.4399 191.2 23.3519 191.152Z" fill="white"/>
<path d="M219.048 52.2287C217.56 58.3033 216.792 64.618 215.376 71.0528C197.376 68.7238 176.256 67.0191 152.496 66.1787C150.576 72.1813 148.776 78.1118 146.736 84.5466C186.456 86.9956 205.776 97.4641 217.224 109.805C228.36 122.291 230.712 136.097 230.064 148.894C228.624 169.711 219.48 182.869 206.88 192.617C194.16 202.221 178.728 206.975 166.392 208.032C148.224 209.376 123.912 205.054 118.728 201.885C115.511 194.559 112.343 187.212 109.224 179.843C108.432 178.187 107.928 176.482 110.184 174.513C113.707 171.139 117.219 167.753 120.72 164.357C122.304 162.82 124.056 161.38 125.376 163.589C130.272 171.128 134.856 178.067 139.44 184.958C144.648 192.641 152.592 199.676 169.968 198.499C184.536 197.203 195.648 186.158 196.824 174.009C198.096 151.535 175.368 135.592 116.256 130.478C127.608 96.2396 138.672 63.1054 147.504 36.7661C161.544 37.4144 174.528 38.5669 186.96 40.1756C196.128 41.3281 204.672 43.465 213.216 44.4494C197.601 25.1797 176.403 11.2224 152.535 4.49672C128.668 -2.229 103.305 -1.39291 79.9319 6.89003C56.5591 15.173 36.325 30.496 22.0117 50.7523C7.69835 71.0086 0.00873764 95.2033 0.000125946 120.01C-0.0370329 145.615 8.14917 170.554 23.3521 191.152C28.4401 191.2 31.9681 190.048 32.3521 187.863C32.8081 185.558 32.4241 182.028 32.0161 178.451C29.6161 154.873 28.7761 129.446 29.6641 103.947C24.0619 104.191 18.4618 104.479 12.8641 104.811C13.1041 100.081 13.3441 95.6153 13.7281 90.9814C18.9121 90.4771 24.3841 90.0209 30.4081 89.5407C30.6481 85.459 30.9361 81.5453 31.2961 77.5836C34.0081 53.2612 59.5921 38.3748 80.9041 32.6603C87.3763 30.9404 93.9988 29.8469 100.68 29.3949C102.336 29.3229 104.088 29.2749 105.864 29.2749C110.28 29.2749 114.744 29.6831 117.6 31.6039C122.208 35.0614 126.72 38.4948 131.568 42.3125C132.048 42.9608 132.576 43.9932 131.376 45.746L124.8 53.5013C123.504 55.0619 121.344 54.6538 119.52 54.1736C115.728 52.2287 112.08 50.428 108.36 48.6512C101.64 45.6499 94.6801 42.5526 86.9281 42.8887C82.1041 43.2489 77.4241 48.195 76.9441 54.9659C76.2721 65.2663 75.8161 75.8068 75.4321 87.2598C88.8721 86.8756 102.264 86.6355 116.4 86.5635L116.376 96.0235C111.768 98.0884 107.424 100.177 102.792 102.266C93.2641 102.386 84.1921 102.458 75.0721 102.626C74.6279 129.084 75.0281 155.549 76.2721 181.98C76.5121 185.75 76.7041 189.592 77.7841 192.137C79.0801 195.378 86.5681 197.851 102.888 198.788L103.128 207.047C78.8325 206.467 54.6101 204.14 30.6481 200.084C46.8594 218.175 68.1761 230.92 91.7813 236.633C115.386 242.347 140.169 240.761 162.854 232.084C185.538 223.407 205.058 208.049 218.832 188.038C232.607 168.027 239.988 144.306 240 120.01C240.042 95.8067 232.736 72.1616 219.048 52.2047V52.2287Z" fill="#E4002B"/>
</svg>
