<?xml version="1.0" encoding="UTF-8"?>
<svg width="240px" height="240px" viewBox="0 0 240 240" version="1.1" xmlns="http://www.w3.org/2000/svg" xmlns:xlink="http://www.w3.org/1999/xlink">
    <title>Group</title>
    <g id="Page-1" stroke="none" stroke-width="1" fill="none" fill-rule="evenodd">
        <g id="Group">
            <rect id="box" x="0" y="0" width="240" height="240"></rect>
            <g id="fal" transform="translate(20, 20)" fill="#EC0648">
                <path d="M128.964253,0 C132.422298,0 135.2054,2.81666667 135.530372,6.26666667 C138.534431,37.0827558 162.919904,61.4667702 193.733856,64.4666667 C197.175235,64.8 200,67.575 200,71.0333333 L200,128.966667 C200,132.425 197.183568,135.2 193.733856,135.533333 C162.919904,138.53323 138.534431,162.917244 135.530372,193.733333 C135.197067,197.183333 132.422298,200 128.964253,200 L71.035747,200 C67.5693692,200 64.7946004,197.183333 64.4612949,193.733333 C61.4579067,162.920062 37.0768479,138.536972 6.26614449,135.533333 C2.81643196,135.2 0,132.425 0,128.966667 L0,71.0333333 C0,67.575 2.81643196,64.8 6.26614449,64.4666667 C37.0768479,61.4630282 61.4579067,37.0799376 64.4612949,6.26666667 C64.7946004,2.81666667 67.5777019,0 71.0440797,0 L128.95592,0 L128.964253,0 Z M40.1549778,99.8333333 C40.1461451,115.80523 46.4825193,131.126351 57.7699457,142.425658 C69.0573722,153.724965 84.3710711,160.076705 100.341638,160.083333 C116.312205,160.076705 131.625904,153.724965 142.913331,142.425658 C154.200757,131.126351 160.537131,115.80523 160.528299,99.8333333 C160.528299,66.55 133.580535,39.5833333 100.341638,39.5833333 C67.0863142,39.6017382 40.1411774,66.5752358 40.1549778,99.8333333 Z" id="Shape"></path>
            </g>
        </g>
    </g>
</svg>