<?xml version="1.0" encoding="UTF-8"?>
<svg width="241px" height="241px" viewBox="0 0 241 241" version="1.1" xmlns="http://www.w3.org/2000/svg" xmlns:xlink="http://www.w3.org/1999/xlink">
    <title>fastapi</title>
    <g id="Page-1" stroke="none" stroke-width="1" fill="none" fill-rule="evenodd">
        <g id="fastapi" transform="translate(-1, -1)">
            <path d="M121.465666,1.46566569 C89.6411671,1.46566569 59.1195244,14.1049124 36.6151567,36.6070711 C14.110789,59.1092298 1.46566575,89.6295433 1.46566575,121.453885 C1.46088916,153.282309 14.1017805,183.808676 36.6068257,206.31593 C59.1118708,228.823185 89.6370845,241.465666 121.465666,241.465666 C153.294247,241.465666 183.81946,228.823185 206.324506,206.315931 C228.829551,183.808676 241.470442,153.282309 241.465666,121.453885 C241.465666,89.6295432 228.820542,59.1092297 206.316175,36.607071 C183.811807,14.1049123 153.290164,1.46566569 121.465666,1.46566569 L121.465666,1.46566569 Z" id="shape" fill-opacity="0.980392" fill="#009485" fill-rule="nonzero"></path>
            <polygon id="lightning" fill="#FFFFFF" points="112.736199 56 188 56 112.431868 109.325979 164.098182 109.325979 54 187 77.901818 133.697525 88.8343808 109.325979"></polygon>
        </g>
    </g>
</svg>