<?xml version="1.0" encoding="UTF-8"?>
<svg width="240px" height="240px" viewBox="0 0 240 240" version="1.1" xmlns="http://www.w3.org/2000/svg" xmlns:xlink="http://www.w3.org/1999/xlink">
    <title>fedora</title>
    <g id="Page-1" stroke="none" stroke-width="1" fill="none" fill-rule="evenodd">
        <g id="fedora">
            <rect id="ViewBox" x="0" y="0" width="240" height="240"></rect>
            <path d="M239.6625,120.0075 C239.6625,53.91375 186.08625,0.3375 120,0.3375 C53.93625,0.3375 0.380625,53.86875 0.3375,119.919375 L0.3375,212.525625 C0.375,227.52 12.5325,239.6625 27.54,239.6625 L120.043125,239.6625 C186.11625,239.634375 239.6625,186.07875 239.6625,120.0075" id="Path" fill="#294172" fill-rule="nonzero"></path>
            <path d="M69.324375,127.725 L112.33125,127.725 L112.33125,170.7375 C112.33125,194.475 93.069375,213.744375 69.324375,213.744375 C45.586875,213.744375 26.323125,194.475 26.323125,170.7375 C26.323125,147 45.586875,127.72875 69.324375,127.72875 L69.324375,127.725 Z" id="Path" stroke="#3C6EB4" stroke-width="26.255625"></path>
            <path d="M155.13375,127.8075 L112.126875,127.8075 L112.126875,84.808125 C112.126875,61.070625 131.39625,41.799375 155.13375,41.799375 C178.87125,41.799375 198.1425,61.063125 198.1425,84.808125 C198.1425,108.545625 178.87125,127.8075 155.13375,127.8075 Z" id="Path" stroke="#3C6EB4" stroke-width="26.255625"></path>
            <path d="M125.48625,114.631875 L125.48625,170.675625 C125.48625,201.688125 100.3425,226.8375 69.33,226.8375 C64.621875,226.8375 61.275,226.303125 56.923125,225.16875 C50.566875,223.505625 45.380625,218.29875 45.373125,212.240625 C45.373125,204.916875 50.690625,199.591875 58.636875,199.591875 C62.416875,199.591875 63.7875,200.3175 69.331875,200.3175 C85.678125,200.3175 98.94375,187.074375 98.971875,170.720625 L98.971875,144.96 C98.971875,142.65375 97.096875,140.77875 94.783125,140.78625 L75.3075,140.77875 C68.056875,140.77875 62.19,134.9925 62.19,127.719375 C62.19,120.395625 68.115,114.631875 75.44625,114.631875" id="Path" fill="#FFFFFF" fill-rule="nonzero"></path>
            <path d="M98.971875,140.9025 L98.971875,84.86625 C98.971875,53.848125 124.115625,28.704375 155.13375,28.704375 C159.83625,28.704375 163.183125,29.229375 167.540625,30.373125 C173.89125,32.03625 179.085,37.243125 179.085,43.30125 C179.085,50.625 173.7675,55.95 165.82875,55.95 C162.04125,55.95 160.6725,55.224375 155.13375,55.224375 C138.78,55.224375 125.514375,68.4675 125.48625,84.81375 L125.48625,110.581875 C125.49554,112.888969 127.367887,114.754611 129.675,114.755625 L149.150625,114.763125 C156.40875,114.763125 162.268125,120.549375 162.268125,127.8225 C162.275625,135.14625 156.343125,140.91 149.011875,140.91" id="Path" fill="#FFFFFF" fill-rule="nonzero"></path>
            <path d="M219.016875,218.949375 L219.016875,213.976875 L216.74625,219.19125 L214.53375,213.97875 L214.53375,218.949375 L213.25875,218.949375 L213.25875,211.09875 L214.591875,211.09875 L216.781875,216.11625 L218.93625,211.09875 L220.29,211.09875 L220.29,218.949375 L219.016875,218.949375 Z M209.728125,212.416875 L209.728125,218.949375 L208.396875,218.949375 L208.396875,212.416875 L206.161875,212.416875 L206.161875,211.09875 L211.955625,211.09875 L211.955625,212.416875" id="Shape" fill="#3C6EB4" fill-rule="nonzero"></path>
        </g>
    </g>
</svg>