<?xml version="1.0" encoding="UTF-8"?>
<svg width="240px" height="240px" viewBox="0 0 240 240" version="1.1" xmlns="http://www.w3.org/2000/svg" xmlns:xlink="http://www.w3.org/1999/xlink">
    <title>fern</title>
    <g id="Page-1" stroke="none" stroke-width="1" fill="none" fill-rule="evenodd">
        <g id="fern" fill="#51C233" fill-rule="nonzero">
            <path d="M215.79607,117.42684 C200.210009,104.07552 176.730847,98.72316 155.922193,114.30948 C154.964126,115.01532 153.773944,113.80956 154.499896,112.86852 C159.433528,106.42812 165.151141,99.4878 169.766207,92.51808 C174.467723,85.37184 181.490392,80.25492 189.58837,77.7552 C232.687187,64.52148 219.742028,0 219.742028,0 C219.742028,0 153.165233,4.352412 161.378085,62.5512 C162.742353,72.28524 160.187902,82.1958 154.180145,89.93016 C146.809304,99.3702 138.247095,108.39852 132.03683,114.92712 C130.73059,116.27988 128.524311,114.98592 129.04657,113.16264 C135.054327,92.66508 139.437278,60.96312 118.62744,40.52448 L89.3442141,15.88044 L83.7138812,23.40888 C66.967836,45.78852 71.8726905,77.34348 93.9878206,94.28256 C106.670666,103.98732 112.417175,114.5448 111.517491,126.132 C110.965981,133.0716 107.860611,139.5708 103.217005,144.7176 C94.4811838,154.422 86.3258876,164.8332 80.0279867,176.8896 C79.1573179,178.566 76.6323546,177.9192 76.7193978,176.0076 C77.619081,156.0984 75.7326714,111.22164 42.646901,95.1942 L5.6141302,80.69604 L2.74089941,89.37144 C-6.57533985,117.36792 8.66150659,147.276 36.2619568,156.7752 C60.263615,165.0384 68.8252312,180.7128 63.0498263,204.21 C62.7885783,205.0632 58.6093206,229.266 59.189727,240 L85.80351,240 C86.7031932,223.3548 103.942602,212.4156 118.889162,219.2088 C123.098026,221.1204 127.421764,223.8552 131.862743,227.3844 C155.660472,246.3816 190.720524,241.8816 209.44014,217.7376 L214.779974,210.8568 L181.113797,186.36 C158.01123,167.9496 127.189649,176.2728 104.377936,192.0348 C102.462394,193.3584 100.024474,191.2416 101.098362,189.1236 C128.669975,134.3076 164.512824,134.4252 178.559346,146.5992 C195.596127,161.3628 221.396441,158.7156 235.850349,141.3948 L240,136.4244 L215.766463,117.42684 L215.79607,117.42684 Z" id="Path"></path>
        </g>
    </g>
</svg>