<?xml version="1.0" encoding="UTF-8"?>
<svg width="240px" height="240px" viewBox="0 0 240 240" version="1.1" xmlns="http://www.w3.org/2000/svg" xmlns:xlink="http://www.w3.org/1999/xlink">
    <title>ffmpeg</title>
    <defs>
        <radialGradient cx="19.9389644%" cy="18.852%" fx="19.9389644%" fy="18.852%" r="50.6480706%" gradientTransform="translate(0.1994, 0.1885), scale(0.9652, 1), translate(-0.1994, -0.1885)" id="radialGradient-1">
            <stop stop-color="#FFFFFF" offset="0%"></stop>
            <stop stop-color="#007808" offset="100%"></stop>
        </radialGradient>
    </defs>
    <g id="Page-1" stroke="none" stroke-width="1" fill="none" fill-rule="evenodd">
        <g id="ffmpeg" transform="translate(-1, 0)">
            <rect id="ViewBox" x="1" y="0" width="240" height="240"></rect>
            <g id="shape" transform="translate(1, 6)" fill-rule="nonzero">
                <path d="M1.99875,48.3665625 L1.99875,19.8646875 L21.1321875,26.45625 L21.1321875,52.9715625 L1.99875,48.3665625 Z M17.4271875,165.540937 L17.4271875,59.563125 L35.7159375,63.4321875 L35.7159375,161.925937 L17.4271875,165.540937 Z" id="Shape" fill="#0B4819"></path>
                <polygon id="Path" fill="#105C80" points="106.877813 19.8178125 59.87625 73.7240625 59.87625 96.66375 129.585938 18.0609375 240 9.51375 77.589375 178.798125 99.21 179.93625 217.17375 59.2809375 217.17375 173.3175 204.069375 185.63625 237.304688 187.431563 237.304688 218.993438 133.051875 210.91875 186.195938 159.36375 186.195938 133.955625 110.218125 209.150625 19.243125 202.116563 165.16875 45.1828125 141.15375 46.48125 35.7159375 161.925938 35.7159375 63.4321875 45.703125 51.64125 21.1321875 52.9715625 21.1321875 26.45625"></polygon>
                <polygon id="Path" fill="#0B4819" points="17.4271875 59.563125 28.005 46.83 45.703125 51.64125 35.7159375 63.4321875"></polygon>
                <polygon id="Path" fill="#084010" points="43.0471875 70.5675 59.87625 73.7240625 59.87625 96.66375 43.0471875 95.2865625"></polygon>
                <polygon id="Path" fill="#0C541E" points="61.88625 183.883125 77.589375 178.798125 99.21 179.93625 84.943125 185.213437"></polygon>
                <polygon id="Path" fill="#1A5C34" points="93.135 12.15 106.877813 19.8178125 59.87625 73.7240625 43.0471875 70.5675"></polygon>
                <polygon id="Path" fill="#0B4819" points="43.0471875 95.2865625 117.443438 10.093125 129.585938 18.0609375 59.87625 96.66375"></polygon>
                <polygon id="Path" fill="#1A5C34" points="129.855938 40.809375 141.15375 46.48125 35.7159375 161.925937 17.4271875 165.540937"></polygon>
                <polygon id="Path" fill="#0B4819" points="5.68434189e-14 208.677187 155.686875 39.283125 165.16875 45.1828125 19.243125 202.116562"></polygon>
                <polygon id="Path" fill="#1A5C34" points="178.371563 135.653437 186.195938 133.955625 110.218125 209.150625 96.706875 216.865312"></polygon>
                <polygon id="Path" fill="#0B4819" points="178.371563 163.27125 178.371563 135.653438 186.195938 133.955625 186.195938 159.36375"></polygon>
                <polygon id="Path" fill="#0B4819" points="121.163438 218.930625 178.371563 163.27125 186.195938 159.36375 133.051875 210.91875"></polygon>
                <polygon id="Path" fill="#13802D" points="211.900313 178.57125 197.7 191.914688 204.069375 185.63625 217.17375 173.3175"></polygon>
                <polygon id="Path" fill="#0B4819" points="84.943125 185.213437 211.900313 54.3759375 217.17375 59.2809375 99.21 179.93625"></polygon>
                <path d="M211.900312,54.3759375 L217.17375,59.2809375 L217.17375,173.3175 L211.900312,178.57125 L211.900312,54.3759375 Z M233.772187,194.046562 L237.304687,187.431562 L237.304687,218.993437 L233.772187,228.467812 L233.772187,194.046562 Z" id="Shape" fill="#084010"></path>
                <polygon id="Path" fill="#1A5C34" points="236.698125 0 240 9.51375 77.589375 178.798125 61.88625 183.883125"></polygon>
                <polygon id="Path" fill="url(#radialGradient-1)" points="93.135 12.15 43.0471875 70.5675 43.0471875 95.2865625 117.443437 10.093125 236.698125 0 61.88625 183.883125 84.943125 185.213437 211.900312 54.3759375 211.900312 178.57125 197.7 191.914687 233.772188 194.046563 233.772188 228.467813 121.163437 218.930625 178.371562 163.27125 178.371562 135.653437 96.706875 216.865313 0 208.677188 155.686875 39.283125 129.855937 40.809375 17.4271875 165.540938 17.4271875 59.563125 28.005 46.83 1.99875 48.3665625 1.99875 19.8646875"></polygon>
            </g>
        </g>
    </g>
</svg>