<?xml version="1.0" encoding="UTF-8"?>
<svg width="240px" height="240px" viewBox="0 0 240 240" version="1.1" xmlns="http://www.w3.org/2000/svg" xmlns:xlink="http://www.w3.org/1999/xlink">
    <title>firefly</title>
    <g id="Page-1" stroke="none" stroke-width="1" fill="none" fill-rule="evenodd">
        <g id="firefly" fill-rule="nonzero">
            <rect id="box" fill="#EB1000" x="0" y="0" width="240" height="240" rx="32"></rect>
            <g id="shape" transform="translate(71, 38.4416)" fill="#FFFFFF">
                <path d="M21.9447779,128.453319 C21.9447779,129.427376 21.5178367,129.87013 20.578566,129.87013 L1.06735301,129.87013 C0.298858842,129.87013 0,129.29455 0,128.453319 L0,23.8306869 C0,22.9009047 0.298858842,22.546702 1.19543537,22.546702 L63.7423217,22.546702 C64.8096747,22.546702 65.0658394,22.8566294 65.2366159,23.9192376 L66.9870748,41.5850988 C67.1578513,42.5591564 66.688216,43.0019098 65.6635571,43.0019098 L21.9447779,43.0019098 L21.9447779,67.8846517 L61.3514509,67.8846517 C62.2480275,67.8846517 62.6749687,68.1945791 62.6749687,69.1686366 L62.6749687,87.0558746 C62.6749687,88.0299321 62.2053333,88.3398595 61.4368392,88.3398595 L21.9447779,88.3398595 L21.9447779,128.453319 Z" id="Path"></path>
                <path d="M78.6852638,49.8203124 C78.6852638,48.8905302 79.112205,48.4477768 80.0087815,48.4477768 L99.4346063,48.4477768 C100.459265,48.4477768 100.758124,48.7134288 100.758124,49.776037 L100.758124,128.320493 C100.758124,129.383101 100.459265,129.825855 99.3065239,129.825855 L80.2649463,129.825855 C79.1975932,129.825855 78.6852638,129.338826 78.6852638,128.276218 L78.6852638,49.776037 L78.6852638,49.8203124 Z" id="Path"></path>
                <path d="M94.4820883,30.7376402 L104.13096,32.9956826 C107.930736,33.8811894 110.577772,29.1880032 107.930736,26.2215553 L101.227759,18.6947473 C100.331183,17.7206898 99.9896299,16.3481542 100.288489,15.0198939 L102.465889,5.01366673 C103.319771,1.07316133 98.7515004,-1.6276345 95.8909943,1.11743668 L88.6329938,8.0686653 C87.6937232,8.99844747 86.3275113,9.3526502 85.0893819,9.04272281 L75.4405107,6.78468039 C71.6407339,5.89917356 68.9936985,10.5923598 71.6407339,13.5588076 L78.3437108,21.0856157 C79.2402874,22.0596732 79.5818403,23.4322088 79.2829815,24.7604691 L77.1055813,34.7666962 C76.2516989,38.7072016 80.8199698,41.4079975 83.6804759,38.6629263 L90.9384763,31.7116977 C91.877747,30.7819155 93.2439588,30.4277128 94.4820883,30.7376402 L94.4820883,30.7376402 Z" id="Path"></path>
            </g>
        </g>
    </g>
</svg>