<?xml version="1.0" encoding="UTF-8"?>
<svg width="240px" height="240px" viewBox="0 0 240 240" version="1.1" xmlns="http://www.w3.org/2000/svg" xmlns:xlink="http://www.w3.org/1999/xlink">
    <title>firebase</title>
    <g id="Page-1" stroke="none" stroke-width="1" fill="none" fill-rule="evenodd">
        <g id="firebase">
            <rect id="box" x="0" y="0" width="240" height="240"></rect>
            <g id="shape" transform="translate(24, 0)" fill-rule="nonzero">
                <path d="M60,233.154544 C70.0643564,237.150073 81.0222772,239.519515 92.4975248,239.937651 C108.017327,240.495167 122.784653,237.289452 136,231.296158 C120.15099,225.163485 105.806931,216.150314 93.5792079,205 C85.6311881,217.497644 73.8737624,227.393548 60,233.154544" id="Path" fill="#FF9100"></path>
                <path d="M93,204.476416 C65.258111,178.678315 48.4448449,141.273418 49.8459504,100.297198 C49.892654,98.9814483 49.9393575,97.618707 50.0327645,96.3029569 C45.0821917,94.9872067 39.8981014,94.2353495 34.5271969,94.0473852 C26.8678202,93.7654387 19.4886645,94.7522513 12.483137,96.7258766 C5.05727779,109.789396 0.620443686,124.77955 0.0600014842,140.803507 C-1.38780754,182.202646 23.5051669,218.385775 59.6069855,233 C73.47793,227.220098 85.1538092,217.164007 93,204.476416" id="Path" fill="#FFC400"></path>
                <path d="M93.1340743,205 C99.5702329,194.627119 103.487895,182.470665 103.954283,169.375489 C105.166893,134.924381 82.1273102,105.260756 50.2729887,97 C50.1797111,98.3142112 50.1330722,99.6753585 50.0864334,100.98957 C48.6406296,141.870926 65.4306087,179.232073 93.1340743,205" id="Path" fill="#FF9100"></path>
                <path d="M100.438668,0 C82.186908,14.6161022 67.7825629,33.8700061 59.0555003,56.0283918 C54.0820131,68.7237883 50.9383938,82.4029609 50,96.6911377 C82.0461489,104.936118 105.224476,134.543095 104.004564,168.928412 C103.535367,181.99858 99.5941133,194.131819 93.1191959,204.484892 C105.318316,215.774894 119.628821,224.816264 135.440757,231 C167.158468,216.383898 189.633,184.856216 190.946751,147.613263 C191.791306,123.487325 182.501207,101.98479 169.363694,83.8083553 C155.522385,64.6949909 100.438668,0 100.438668,0" id="Path" fill="#DD2C00"></path>
            </g>
        </g>
    </g>
</svg>