<?xml version="1.0" encoding="UTF-8"?>
<svg width="240px" height="240px" viewBox="0 0 240 240" version="1.1" xmlns="http://www.w3.org/2000/svg" xmlns:xlink="http://www.w3.org/1999/xlink">
    <title>fireworks</title>
    <g id="Page-1" stroke="none" stroke-width="1" fill="none" fill-rule="evenodd">
        <g id="fireworks">
            <rect id="box" fill="#FFFFFF" x="0" y="0" width="240" height="240" rx="32"></rect>
            <path d="M140.102706,77 L120.01076,126.048332 L99.8972938,77 L87,77 L109.035866,130.617514 C110.836615,135.078075 115.142567,137.996828 119.92703,138 C124.711493,138.003167 129.021261,135.090121 130.827845,130.631951 L153,77 L140.102706,77 Z M148.757982,151.257447 L185.403172,113.892185 L180.40415,102 L140.383369,142.892302 C137.042959,146.302998 136.076685,151.374795 137.930344,155.767784 C139.750573,160.132715 144.028133,162.977667 148.772285,162.978624 L148.786589,163 L206,162.857493 L201.000978,150.965308 L148.772285,151.257447 L148.757982,151.257447 L148.757982,151.257447 Z M54.5956168,113.896354 L59.5943446,102 L99.6127722,142.906637 C102.95956,146.320869 103.924979,151.381631 102.065653,155.786632 C100.243977,160.151819 95.9676378,162.997123 91.2243491,163 L34.0143025,162.871699 L34,162.885955 L38.9987278,150.9896 L91.2243491,151.288969 L54.5956168,113.896354 L54.5956168,113.896354 Z" id="Shape" fill="#5019C5"></path>
        </g>
    </g>
</svg>