<?xml version="1.0" encoding="UTF-8"?>
<svg width="240px" height="240px" viewBox="0 0 240 240" version="1.1" xmlns="http://www.w3.org/2000/svg" xmlns:xlink="http://www.w3.org/1999/xlink">
    <title>firebase-studio</title>
    <defs>
        <linearGradient x1="31.0662124%" y1="88.4157294%" x2="67.3662105%" y2="2.03101608%" id="linearGradient-1">
            <stop stop-color="#F8682F" offset="0%"></stop>
            <stop stop-color="#DD2C00" offset="100%"></stop>
        </linearGradient>
        <linearGradient x1="44.6028843%" y1="7.54265976%" x2="39.738084%" y2="116.660807%" id="linearGradient-2">
            <stop stop-color="#F8682F" offset="0%"></stop>
            <stop stop-color="#E92A4E" offset="56.6586%"></stop>
            <stop stop-color="#C447FF" offset="100%"></stop>
        </linearGradient>
    </defs>
    <g id="Page-1" stroke="none" stroke-width="1" fill="none" fill-rule="evenodd">
        <g id="firebase-studio">
            <rect id="box" x="0" y="0" width="240" height="240"></rect>
            <g id="Group" transform="translate(41, 0)" fill-rule="nonzero">
                <path d="M113.293021,90.1520299 C114.782101,90.2477062 116.859071,90.81571 119.292888,91.1693498 L144,107.158227 L63.2292146,155.271403 C62.0147255,155.712241 60.5812897,156.178513 58.9434227,156.597552 C56.8858072,157.126801 54.9721399,157.465907 53.2495976,157.685115 C51.9347074,157.831658 50.1456345,157.981833 48.0251169,158 L17,120.942912 L82.1251655,95.6249684 C82.1166979,95.6334462 82.1046015,95.6419239 82.0912953,95.6504017 C88.7540504,93.145857 94.5482767,91.8657292 98.7965693,91.1693498 C103.509368,90.3966709 108.135071,89.6760693 113.300279,90.1532409 C113.299069,90.1532409 113.29544,90.1520299 113.293021,90.1520299 C113.280925,90.1496075 113.265199,90.1496075 113.254312,90.1496075 C113.267618,90.1496075 113.279715,90.1508185 113.293021,90.1520299 Z" id="Path" fill="#FFC400"></path>
                <path d="M110.812912,29.1716212 C110.299218,26.8523162 109.654393,24.7006574 108.928965,22.7190567 C107.64172,19.1466278 104.754444,11.3866653 97.6866315,4.37568286 C96.3909662,3.08758217 94.6862701,1.55826413 92.5244216,0 C83.8902618,10.4217958 76.1451427,17.942953 71.0238357,22.6237761 C57.5859697,34.9005333 35.5897347,51.9365093 21.4637345,64.7608301 C19.0143613,66.9836478 14.0350125,72.0106175 9.53928246,79.6620321 C9.53086116,79.6740931 9.52243986,79.6873601 9.51401856,79.7042452 C9.51401856,79.7042452 9.51401856,79.6958028 9.51401856,79.6909782 C8.70076901,81.0960695 7.70586156,82.912436 6.66764528,85.0906289 C6.5136572,85.4042115 6.35605994,85.7503582 6.18522926,86.1182149 C5.74732596,87.0661989 5.30581318,88.0732815 4.86790958,89.1394622 C3.10546764,93.4391615 0.947228588,98.8207209 0.238642885,105.98367 C-0.382121567,112.229994 0.358946074,117.182186 0.755946442,119.330227 C0.901513223,120.115389 1.06753178,120.880048 1.24678345,121.637471 C1.8675479,124.32825 2.72651282,126.839323 3.74307469,129.165864 C8.58407499,140.428303 16.5601762,146.947202 17.906369,148.017001 C26.4106016,154.756614 35.0062644,156.679116 37.7479741,157.20497 C41.6361731,157.949126 44.9733834,158.049231 47.3818534,157.982896 C47.3818534,157.974453 47.377041,157.961186 47.3734321,157.95395 C47.3854623,157.95395 47.3986957,157.95395 47.407117,157.95395 C47.3902744,157.93224 47.3734321,157.906912 47.3565895,157.886409 C46.8729709,156.106225 46.2943126,153.51555 46.0152092,150.348366 C45.0600017,139.483937 48.5018759,131.113695 50.2655208,126.947871 C51.5984801,123.80119 54.8695239,116.412703 61.8398905,109.693593 C65.0904828,106.56018 68.6069447,104.032222 72.0945342,101.738245 C75.8780694,99.2476755 79.1864073,97.3082879 81.0739642,95.9960655 C81.1365219,95.9586767 81.0114066,96.0334543 81.0739642,95.9960655 C81.1449432,95.9502344 81.2616372,95.8754568 81.3205857,95.8296257 C87.9456824,90.9148219 100.954066,79.8296782 107.741572,61.9699451 C108.541588,59.8761784 109.162353,57.8198005 109.162353,57.8198005 C111.291719,51.1549651 113.387401,40.8549836 110.804491,29.1631785 L110.812912,29.1716212 Z" id="Path" fill="url(#linearGradient-1)"></path>
                <path d="M47.8109801,157.982964 C45.3820861,158.049034 42.0100382,157.949328 38.0917624,157.208144 C35.3254211,156.684389 26.6513196,154.769562 18.070684,148.055654 C16.3555278,146.712632 3.97071753,136.719251 0.762538085,119.484604 C0.363184772,117.345139 -0.385754799,112.412717 0.240587,106.190129 C0.960394098,99.0569765 3.13316771,93.7005056 4.91144368,89.4143677 C6.58047357,85.3901068 8.30898187,82.1971264 9.59929396,80 C10.1503772,81.5232127 11.0619712,83.6662817 12.5719883,86.0015541 C15.9355392,91.2078664 20.060168,93.9792006 23.2586365,96.0610047 C24.6509111,96.9643611 31.1498111,101.093132 40.987985,103.261428 C47.651967,104.730583 52.9151776,104.654903 54.6983089,104.597242 C58.696698,104.47231 65.0487232,103.827227 72.2504364,101.059497 C76.4126943,99.4606038 79.7713899,97.4965246 82,96.1198669 C80.0918437,97.4304546 76.5680658,99.4774218 72.7505388,101.954444 C69.2316163,104.239263 65.6835616,106.757129 62.4049796,109.878033 C55.3707762,116.57152 52.0703449,123.92931 50.7254101,127.063428 C48.9422791,131.209018 45.474338,139.549448 46.4369131,150.370504 C46.7233794,153.579102 47.3242303,156.196673 47.8158355,157.96975 L47.8109801,157.982964 Z" id="Path" fill="#FF9100"></path>
                <path d="M152.635745,155.097831 C155.604158,149.185907 156.904353,142.947617 156.904353,142.947617 C157.233638,141.357937 157.708197,139.013158 157.918843,136.096336 C158.107698,133.484203 157.985426,129.233013 157.35591,125.827243 C155.352352,115.021031 147.041521,106.266951 146.18562,105.386606 C146.18562,105.386606 140.575659,99.5999288 132.310831,95.6317501 C131.099011,95.0512758 129.010711,94.0420699 126.096775,93.1617243 C123.230053,92.2934217 120.889946,91.9477867 118.570419,91.6141948 C116.112883,91.2589253 114.042741,91.0879144 112.55006,91 C112.902348,91.0373335 113.392644,91.1083874 113.967684,91.2420652 C115.321144,91.5587967 116.272683,92.0393137 117.014786,92.3981962 C117.707255,92.7354011 118.755642,93.2616815 119.908142,94.2383714 C120.377858,94.6381998 120.961372,95.1355772 121.538832,95.9195783 C122.013391,96.5699023 122.633223,97.5923557 122.96493,98.9447879 C123.963682,103.046645 121.446826,106.867898 120.534027,108.257664 C114.051215,118.108864 78.9883476,138.645846 58.208244,159.963216 C52.9166724,165.391011 49.1601526,170.247965 46.3551714,176.572965 C40.0236865,190.851184 42.2875252,204.074432 42.8783023,207.120115 C46.7147225,226.922472 61.1681833,237.645587 64.5106746,240 C74.6991598,228.667507 83.7145651,220.018202 90.3692826,213.978622 C107.216117,198.700832 129.171722,181.809276 129.171722,181.809276 C129.171722,181.809276 146.031873,168.248822 152.630903,155.102649 L152.635745,155.097831 Z" id="Path" fill="url(#linearGradient-2)"></path>
            </g>
        </g>
    </g>
</svg>