<?xml version="1.0" encoding="UTF-8"?>
<svg width="240px" height="240px" viewBox="0 0 240 240" version="1.1" xmlns="http://www.w3.org/2000/svg" xmlns:xlink="http://www.w3.org/1999/xlink">
    <title>flipperzero</title>
    <g id="Page-1" stroke="none" stroke-width="1" fill="none" fill-rule="evenodd">
        <g id="flipperzero">
            <rect id="Rectangle" fill="#FF9211" x="0" y="0" width="240" height="240" rx="44"></rect>
            <path d="M108.5,37.370595 L108.5,40.7505205 L125.5,40.7505205 L125.5,44.4038623 L135.5,44.4038623 L135.5,50.6908247 L148.812121,50.6908247 L148.812121,54.1910994 L151.950555,54.1910994 L151.950555,57.5 L155.5,57.4993309 L155.5,60.7893931 L159.093824,60.7893931 L159.093824,64.0750507 L162.176306,64.0750507 L162.176306,77.7764715 L168.584938,77.7764715 L168.584938,80.5 L178.514912,80.5 L178.514912,77.5 L185.202734,77.5 L185.202734,74.5 L191.5,74.5 L191.5,70.5 L218.930495,70.5 L218.930495,74.5 L229.07292,74.5 L229.07292,77.7764715 L231.640392,77.7764715 L231.640392,82.8122134 L212.976383,88.4645278 L194.72633,97.5 L151.5,142.158346 L178.514912,142.158346 L178.514912,144.649886 L235.076047,144.649886 L235.076047,147.684093 L238.618436,147.684093 L238.618436,160.053916 L235.076047,160.053916 L235.076047,163.82489 L232.156823,163.82489 L232.156823,167.516453 L228.572522,167.516453 L228.572522,170.636689 L225.19392,170.636689 L225.19392,173.786153 L218.930495,173.786153 L218.930495,177.610345 L208.409277,177.610345 L208.409277,180.460836 L198.301593,180.460836 L198.301593,184.251905 L188.424825,184.251905 L188.424825,187.483918 L175.411763,187.483918 L175.411763,194.255538 L171.001287,194.255538 L159.5,199.728559 L155.5,213 L155.5,217.5 L158.807254,217.5 L159,226.023837 L163,226.023837 L163,229.5 L166.029631,229.5 L166.029631,235.5 L169.040776,235.5 L169.040776,240 L44,240 C19.699471,240 0,220.300529 0,196 L8.95283847e-13,86 L1.80160217,86 L1.80160217,77.7764715 L4.88432452,77.7764715 L4.88432452,71.2756174 L8.55498003,71.2756174 L8.55498003,67.5134399 L11.6334357,67.5134399 L11.6334357,64.0750507 L15.2542881,64.0750507 L15.2542881,60.7893931 L18.281392,60.7893931 L18.281392,57.4993309 L22.1306261,57.4993309 L22.1306261,54.1910994 L28.4967941,54.1910994 L28.4967941,50.6908247 L35.3652037,50.6908247 L35.3652037,47.2169779 L48.4109902,47.5 L48.4109902,40.7505205 L61.5,40.7505205 L61.5,37.370595 L108.5,37.370595 Z" id="Combined-Shape" fill="#FFFFFF"></path>
            <path d="M110,36 L110,39.3272727 L126.666667,39.3272727 L126.666667,42.6545455 L136.666667,42.6545455 L136.666667,45.9818182 L143.333333,45.9818182 L143.333333,49.3090909 L150,49.3090909 L150,52.6363636 L153.333333,52.6363636 L153.333333,55.9636364 L156.666667,55.9636364 L156.666667,59.2909091 L160,59.2909091 L160,62.6181818 L163.333333,62.6181818 L163.333333,69.2727273 L166.666667,69.2727273 L166.666667,75.9272727 L170,75.9272727 L170,79.2545455 L176.666667,79.2545455 L176.666667,75.9272727 L183.333333,75.9272727 L183.333333,72.6 L190,72.6 L190,69.2727273 L220,69.2727273 L220,72.6 L230,72.6 L230,75.9272727 L233.333333,75.9272727 L233.333333,89.2363636 L230,89.2363636 L230,92.5636364 L226.666667,92.5636364 L226.666667,95.8909091 L223.333333,95.8909091 L223.333333,99.2181818 L220,99.2181818 L220,102.545455 L216.666667,102.545455 L216.666667,105.872727 L213.333333,105.872727 L213.333333,109.2 L210,109.2 L210,112.527273 L206.666667,112.527273 L206.666667,115.854545 L203.333333,115.854545 L203.333333,119.181818 L200,119.181818 L200,122.509091 L196.666667,122.509091 L196.666667,125.836364 L193.333333,125.836364 L193.333333,129.163636 L190,129.163636 L190,132.490909 L186.666667,132.490909 L186.666667,135.818182 L183.333333,135.818182 L183.333333,139.145455 L180,139.145455 L180,142.472727 L236.666667,142.472727 L236.666667,145.8 L240,145.8 L240,162.436364 L236.666667,162.436364 L236.666667,165.763636 L233.333333,165.763636 L233.333333,169.090909 L230,169.090909 L230,172.418182 L226.666667,172.418182 L226.666667,175.745455 L220,175.745455 L220,179.072727 L210,179.072727 L210,182.4 L200,182.4 L200,185.727273 L190,185.727273 L190,189.054545 L176.666667,189.054545 L176.666667,195.709091 L167.974854,195.709091 L167.974854,199.036364 L162.276434,199.036364 L162.276434,201.333396 L160,201.333396 L160,212.345455 L157,212.345 L157,216 L160,216 L160,218 L161,218 L161,222 L163,222 L163,225 L164,225 L164,228 L167,228 L167,231 L168,231 L168,234 L171,234 L171,237 L175,237 L175,240 L167,240 L167,237 L165,237 L165,231 L161,231 L161,229 L156,229 L156,232 L153,232 L153,229 L156,229 L156,224 L153,224 L153,229 L148,229 L148,224 L153,224 L153,221 L148,221 L148,224 L145,224 L145,221 L148,221 L148,216 L145,216 L145,221 L140,221 L140,216 L145,216 L145,213 L140,213 L140,216 L137,216 L137,213 L140,213 L140,209 L137,209 L137,213 L132,213 L132,216 L129,216 L129,213 L127,213 L127,202 L136.666,202 L136.666667,199.036364 L143.333333,199.036364 L143.333333,195.709091 L150,195.709091 L150,192.381818 L160,192.381818 L160,189.054545 L173.333333,189.054545 L173.333333,185.727273 L186.666667,185.727273 L186.666667,182.4 L196.666667,182.4 L196.666667,179.072727 L206.666667,179.072727 L206.666667,175.745455 L216.666667,175.745455 L216.666667,172.418182 L223.333333,172.418182 L223.333333,169.090909 L226.666667,169.090909 L226.666667,165.763636 L230,165.763636 L230,162.436364 L233.333333,162.436364 L233.333333,159.109091 L236.666667,159.109091 L236.666667,149.127273 L230,149.127273 L230,152 L223,152 L223,149 L230,149 L230,145.8 L190,145.8 L190,149 L197,149 L197,152 L190,152 L190,149.127273 L176.666667,149.127273 L176.666667,145.8 L153.333333,145.8 L153.333333,149.127273 L150,149.127273 L150,152.454545 L146.666667,152.454545 L146.666667,155.781818 L143.333333,155.781818 L143.333333,162.436364 L183.333333,162.436364 L183.333333,165.763636 L96.6666667,165.763636 L96.6666667,162.436364 L113.333333,162.436364 L113.333333,159.109091 L123.333333,159.109091 L123.333333,155.781818 L130,155.781818 L130,152.454545 L136.666667,152.454545 L136.666667,149.127273 L140,149.127273 L140,145.8 L143.333333,145.8 L143.333333,142.472727 L146.666667,142.472727 L146.666667,139.145455 L150,139.145455 L150,135.818182 L153.333333,135.818182 L153.333333,132.490909 L156.666667,132.490909 L156.666667,129.163636 L160,129.163636 L160,125.836364 L163.333333,125.836364 L163.333333,122.509091 L166.666667,122.509091 L166.666667,119.181818 L170,119.181818 L170,115.854545 L173.333333,115.854545 L173.333333,112.527273 L176.666667,112.527273 L176.666667,109.2 L180,109.2 L180,105.872727 L183.333333,105.872727 L183.333333,102.545455 L186.666667,102.545455 L186.666667,99.2181818 L190,99.2181818 L190,95.8909091 L193.333333,95.8909091 L193.333333,92.5636364 L200,92.5636364 L200,89.2363636 L206.666667,89.2363636 L206.666667,85.9090909 L216.666667,85.9090909 L216.666667,82.5818182 L230,82.5818182 L230,79.2545455 L226.666667,79.2545455 L226.666667,75.9272727 L216.666667,75.9272727 L216.666667,72.6 L193.333333,72.6 L193.333333,75.9272727 L186.666667,75.9272727 L186.666667,79.2545455 L180,79.2545455 L180,82.5818182 L173.333333,82.5818182 L173.333333,85.9090909 L166.666667,85.9090909 L166.666667,79.2545455 L157,79.254 L157,82 L154,82 L154,79 L156.666,79 L156.666667,75.9272727 L160,75.9272727 L160,65.9454545 L156.666667,65.9454545 L156.666667,62.6181818 L153.333333,62.6181818 L153.333333,59.2909091 L150,59.2909091 L150,55.9636364 L146.666667,55.9636364 L146.666667,52.6363636 L133.333333,52.6363636 L133.333333,45.9818182 L116.666667,45.9818182 L116.666667,42.6545455 L113.333333,42.6545455 L113.333333,45.9818182 L110,45.9818182 L110,42.6545455 L106.666667,42.6545455 L106.666667,39.3272727 L63.3333333,39.3272727 L63.3333333,42.6545455 L50,42.6545455 L50,45.9818182 L76.6666667,45.9818182 L76.6666667,49.3090909 L36.6666667,49.3090909 L36.6666667,52.6363636 L30,52.6363636 L30,55.9636364 L23.3333333,55.9636364 L23.3333333,59.2909091 L20,59.2909091 L20,62.6181818 L16.6666667,62.6181818 L16.6666667,65.9454545 L13.3333333,65.9454545 L13.3333333,69.2727273 L10,69.2727273 L10,72.6 L6.66666667,72.6 L6.66666667,79.2545455 L3.33333333,79.2545455 L3.33333333,85.9090909 L0,85.9090909 L0,75.9272727 L3.33333333,75.9272727 L3.33333333,69.2727273 L6.66666667,69.2727273 L6.66666667,65.9454545 L10,65.9454545 L10,62.6181818 L13.3333333,62.6181818 L13.3333333,59.2909091 L16.6666667,59.2909091 L16.6666667,55.9636364 L20,55.9636364 L20,52.6363636 L26.6666667,52.6363636 L26.6666667,49.3090909 L33.3333333,49.3090909 L33.3333333,45.9818182 L36.6666667,45.9818182 L36.6666667,42.6545455 L46.6666667,42.6545455 L46.6666667,39.3272727 L60,39.3272727 L60,36 L110,36 Z M164,237 L164,240 L161,240 L161,237 L164,237 Z M156,237 L156,240 L153,240 L153,237 L156,237 Z M153,232 L153,237 L148,237 L148,232 L153,232 Z M145,232 L145,237 L140,237 L140,232 L145,232 Z M161,232 L161,237 L156,237 L156,232 L161,232 Z M140,229 L140,232 L137,232 L137,229 L140,229 Z M148,229 L148,232 L145,232 L145,229 L148,229 Z M145,224 L145,229 L140,229 L140,224 L145,224 Z M137,224 L137,229 L132,229 L132,224 L137,224 Z M140,221 L140,224 L137,224 L137,221 L140,221 Z M154,216 L153,216 L153,221 L156,221 L156,219 L154,219 L154,216 Z M137,216 L137,221 L132,221 L132,216 L137,216 Z M151,213 L148,213 L148,216 L151,216 L151,213 Z M146.666,209 L145,209 L145,213 L148,213 L148,209.018 L146.666667,209.018182 L146.666,209 Z M200,159 L200,162 L183,162 L183,159 L200,159 Z M23,159 L23,162 L20,162 L20,159 L23,159 Z M30,159 L30,162 L27,162 L27,159 L30,159 Z M97,159 L97,162 L90,162 L90,159 L97,159 Z M17,159 L17,162 L14,162 L14,159 L17,159 Z M33,156 L33,159 L30,159 L30,156 L33,156 Z M27,156 L27,159 L24,159 L24,156 L27,156 Z M13,156 L13,159 L10,159 L10,156 L13,156 Z M203.8,152 L203.8,155.5 L213,155.5 L213,153 L223,153 L223,156 L214,156 L214,159 L200.4,159 L200.4,155.5 L197,155.5 L197,152 L203.8,152 Z M20,156 L20,159 L17,159 L17,156 L20,156 Z M90,156 L90,159 L87,159 L87,156 L90,156 Z M10,153 L10,156 L7,156 L7,153 L10,153 Z M17,153 L17,156 L14,156 L14,153 L17,153 Z M23,153 L23,156 L20,156 L20,153 L23,153 Z M37,153 L37,156 L34,156 L34,153 L37,153 Z M30.5714286,133 L30.5714286,139.571429 L33.8571429,139.571429 L33.8571429,142.857143 L37.1428571,142.857143 L37.1428571,146.142857 L40.4285714,146.142857 L40.4285714,139.571429 L47,139.571429 L47,146.142857 L43.7142857,146.142857 L43.7142857,156 L40.4285714,156 L40.4285714,152.714286 L37.1428571,152.714286 L37.1428571,149.428571 L33.8571429,149.428571 L33.8571429,146.142857 L30.5714286,146.142857 L30.5714286,142.857143 L27.2857143,142.857143 L27.2857143,139.571429 L24,139.571429 L24,136.285714 L27.2857143,136.285714 L27.2857143,133 L30.5714286,133 Z M30,153 L30,156 L27,156 L27,153 L30,153 Z M20,149 L20,152 L17,152 L17,149 L20,149 Z M27,149 L27,152 L24,152 L24,149 L27,149 Z M13,149 L13,152 L10,152 L10,149 L13,149 Z M7,149 L7,152 L4,152 L4,149 L7,149 Z M33,149 L33,152 L30,152 L30,149 L33,149 Z M23,146 L23,149 L20,149 L20,146 L23,146 Z M17,146 L17,149 L14,149 L14,146 L17,146 Z M30,146 L30,149 L27,149 L27,146 L30,146 Z M10,146 L10,149 L7,149 L7,146 L10,146 Z M7,143 L7,146 L4,146 L4,143 L7,143 Z M13,143 L13,146 L10,146 L10,143 L13,143 Z M27,143 L27,146 L24,146 L24,143 L27,143 Z M20,143 L20,146 L17,146 L17,143 L20,143 Z M17,139 L17,142 L14,142 L14,139 L17,139 Z M23,139 L23,142 L20,142 L20,139 L23,139 Z M10,139 L10,142 L7,142 L7,139 L10,139 Z M20,136 L20,139 L17,139 L17,136 L20,136 Z M70.2142857,96 L70.2142857,99.3076923 L76.9285714,99.3076923 L76.9285714,102.615385 L80.2857143,102.615385 L80.2857143,109.230769 L83.6428571,109.230769 L83.6428571,125.769231 L87,125.769231 L87,129.076923 L66.8571429,129.076923 L66.8571429,132.384615 L56.7857143,132.384615 L56.7857143,135.692308 L50.0714286,135.692308 L50.0714286,139 L46.7142857,139 L46.7142857,132.384615 L43.3571429,132.384615 L43.3571429,125.769231 L40,125.769231 L40,109.230769 L43.3571429,109.230769 L43.3571429,102.615385 L46.7142857,102.615385 L46.7142857,99.3076923 L53.4285714,99.3076923 L53.4285714,96 L70.2142857,96 Z M13,136 L13,139 L10,139 L10,136 L13,136 Z M7,136 L7,139 L4,139 L4,136 L7,136 Z M40,136 L40,139 L37,139 L37,136 L40,136 Z M37,129 L37,136 L34,136 L34,129 L37,129 Z M23,133 L23,136 L20,136 L20,133 L23,133 Z M17,133 L17,136 L14,136 L14,133 L17,133 Z M10,133 L10,136 L7,136 L7,133 L10,133 Z M27,103 L27,133 L23.5,133 L23.5,129.666667 L20,129.666667 L20,132 L17,132 L17,129 L20,129 L20,126.333333 L23.5,126.333333 L23.5,103 L27,103 Z M94,106 L94,133 L87,133 L87,129.625 L90.5,129.625 L90.5,106 L94,106 Z M13,129 L13,132 L10,132 L10,129 L13,129 Z M17,126 L17,129 L14,129 L14,126 L17,126 Z M33,106 L33,129 L30,129 L30,106 L33,106 Z M100.333333,103 L100.333333,122.714286 L107,122.714286 L107,126 L97,126 L97,103 L100.333333,103 Z M120,116 L120,119 L114,119 L114,122 L107,122 L107,119 L113,119 L113,116 L120,116 Z M127,113 L127,116 L120,116 L120,113 L127,113 Z M60.1428571,109.230769 L53.4285714,109.230769 L53.4285714,115.846154 L60.1428571,115.846154 L60.1428571,109.230769 Z M134,109 L134,112 L127,112 L127,109 L134,109 Z M137,106 L137,109 L134,109 L134,106 L137,106 Z M90,99 L90,106 L87,106 L87,99 L90,99 Z M37,99 L37,106 L34,106 L34,99 L37,99 Z M144,103 L144,106 L137,106 L137,103 L144,103 Z M97,96 L97,103 L94,103 L94,96 L97,96 Z M30,96 L30,103 L27,103 L27,96 L30,96 Z M147,99 L147,102 L144,102 L144,99 L147,99 Z M40,96 L40,99 L37,99 L37,96 L40,96 Z M154,96 L154,99 L147,99 L147,96 L154,96 Z M130,96 L130,99 L117,99 L117,96 L130,96 Z M87,96 L87,99 L84,99 L84,96 L87,96 Z M43,93 L43,96 L40,96 L40,93 L43,93 Z M137,93 L137,96 L130,96 L130,93 L137,93 Z M93,93 L93,96 L90,96 L90,93 L93,93 Z M33,93 L33,96 L30,96 L30,93 L33,93 Z M157,93 L157,96 L154,96 L154,93 L157,93 Z M117,93 L117,96 L114,96 L114,93 L117,93 Z M83,93 L83,96 L80,96 L80,93 L83,93 Z M164,89 L164,92 L157,92 L157,89 L164,89 Z M90,89 L90,92 L87,92 L87,89 L90,89 Z M80,89 L80,92 L73,92 L73,89 L80,89 Z M50,89 L50,92 L43,92 L43,89 L50,89 Z M37,89 L37,92 L34,92 L34,89 L37,89 Z M113,89 L113,92 L110,92 L110,89 L113,89 Z M144,89 L144,92 L137,92 L137,89 L144,89 Z M83,73 L83,76 L80.0769231,76 L80.0769231,79.25 L83.3846154,79.25 L83.3846154,82.5 L86.6923077,82.5 L86.6923077,79.25 L90,79.25 L90,85.75 L86.6923077,85.75 L86.6923077,89 L83.3846154,89 L83.3846154,85.75 L76.7692308,85.75 L76.7692308,82.5 L47,82.5 L47,79.25 L76.7692308,79.25 L76.7692308,76 L80,76 L80,73 L83,73 Z M73,86 L73,89 L50,89 L50,86 L73,86 Z M110,79 L110,89 L107,89 L107,79 L110,79 Z M167,86 L167,89 L164,89 L164,86 L167,86 Z M147,86 L147,89 L144,89 L144,86 L147,86 Z M40,86 L40,89 L37,89 L37,86 L40,86 Z M154,83 L154,86 L147,86 L147,83 L154,83 Z M47,83 L47,86 L40,86 L40,83 L47,83 Z M133,83 L133,86 L130,86 L130,83 L133,83 Z M130,79 L130,82 L127,82 L127,79 L130,79 Z M143,76 L143,79 L140,79 L140,76 L143,76 Z M113,72 L113,79 L110,79 L110,72 L113,72 Z M97,66 L97,72.5 L93.6666667,72.5 L93.6666667,79 L90.3333333,79 L90.3333333,75.75 L87,75.75 L87,72.5 L90.3333333,72.5 L90.3333333,69.25 L93.6666667,69.25 L93.6666667,66 L97,66 Z M87,76 L87,79 L84,79 L84,76 L87,76 Z M127,76 L127,79 L124,79 L124,76 L127,76 Z M140,73 L140,76 L137,76 L137,73 L140,73 Z M117,69 L117,72 L114,72 L114,69 L117,69 Z M137,69 L137,72 L134,72 L134,69 L137,69 Z M153,69 L153,72 L150,72 L150,69 L153,69 Z M87,69 L87,72 L84,72 L84,69 L87,69 Z M133,66 L133,69 L130,69 L130,66 L133,66 Z M150,66 L150,69 L147,69 L147,66 L150,66 Z M83,66 L83,69 L80,69 L80,66 L83,66 Z M90,66 L90,69 L87,69 L87,66 L90,66 Z M120,66 L120,69 L117,69 L117,66 L120,66 Z M87,63 L87,66 L84,66 L84,63 L87,63 Z M93,63 L93,66 L90,66 L90,63 L93,63 Z M100,63 L100,66 L97,66 L97,63 L100,63 Z M147,63 L147,66 L144,66 L144,63 L147,63 Z M123,63 L123,66 L120,66 L120,63 L123,63 Z M103.666667,53 L103.666667,56.3333333 L107,56.3333333 L107,59.6666667 L103.666667,59.6666667 L103.666667,63 L100.333333,63 L100.333333,59.6666667 L97,59.6666667 L97,62 L94,62 L94,59 L97,59 L97,56.3333333 L100.333333,56.3333333 L100.333333,53 L103.666667,53 Z M90,59 L90,62 L87,62 L87,59 L90,59 Z M143,59 L143,62 L140,62 L140,59 L143,59 Z M127,59 L127,62 L124,62 L124,59 L127,59 Z M97,52 L97,55.5 L93.6666667,55.5 L93.6666667,59 L90.3333333,59 L90.3333333,55.5 L87,55.5 L87,52 L97,52 Z M130,56 L130,59 L127,59 L127,56 L130,56 Z M110,53 L110,56 L107,56 L107,53 L110,53 Z M133,53 L133,56 L130,56 L130,53 L133,53 Z M113,49 L113,52 L110,52 L110,49 L113,49 Z M107,49 L107,52 L104,52 L104,49 L107,49 Z M87,49 L87,52 L77,52 L77,49 L87,49 Z M110,46 L110,49 L107,49 L107,46 L110,46 Z M117,46 L117,49 L114,49 L114,46 L117,46 Z" id="Combined-Shape" fill="#000000" fill-rule="nonzero"></path>
        </g>
    </g>
</svg>