<?xml version="1.0" encoding="UTF-8"?>
<svg width="240px" height="240px" viewBox="0 0 240 240" version="1.1" xmlns="http://www.w3.org/2000/svg" xmlns:xlink="http://www.w3.org/1999/xlink">
    <title>fofa</title>
    <g id="Page-1" stroke="none" stroke-width="1" fill="none" fill-rule="evenodd">
        <g id="fofa">
            <rect id="box" x="0" y="0" width="240" height="240"></rect>
            <g id="shape" transform="translate(22, 0)">
                <path d="M98.4598584,0.00803541497 C44.3849878,-0.213070945 0.33697869,43.2814921 0,97.2306126 C-0.0705020367,134.571449 21.4480929,168.604891 55.256817,184.623574 C58.8384215,186.477502 63.1464546,186.245588 66.5073151,184.017928 C69.8681755,181.790267 71.7520892,177.918007 71.4271861,173.905457 C71.102283,169.892907 68.6197778,166.372569 64.9440836,164.712036 C38.8196061,152.359089 22.1770949,126.084056 22.2081161,97.2409108 C22.5525738,55.4684967 56.591701,21.7863947 98.4624389,21.7863947 C140.333177,21.7863947 174.372304,55.4684967 174.716762,97.2409108 C174.755855,126.182051 158.002806,152.530644 131.743386,164.82789 C128.061159,166.47515 125.565595,169.987005 125.226385,173.998868 C124.887175,178.01073 126.757803,181.890047 130.111407,184.129448 C133.46501,186.368849 137.772825,186.615246 141.360979,184.772897 C182.692917,165.234195 204.802,119.609781 194.480129,75.1559529 C184.158258,30.7021245 144.193008,-0.575701252 98.4598584,0.00803541497 L98.4598584,0.00803541497 Z" id="形状_2-path" fill="#05F2F2"></path>
                <path d="M160,96.4573446 C160,63.6744097 132.405105,37 98.5,37 C64.594895,37 37,63.6744097 37,96.4573446 C37,125.540022 58.7058824,149.795828 87.2956303,154.909522 C86.6068498,156.454709 86.2503084,158.127336 86.2490966,159.819081 L86.2490966,227.762211 C86.2525215,231.011283 87.5465237,234.125922 89.8464371,236.42094 C92.1463505,238.715959 95.263778,240.003361 98.5129202,239.999966 L98.5129202,239.999966 C105.277908,240.01565 110.775143,234.545139 110.792248,227.780298 L110.792248,159.829417 C110.791603,158.131512 110.434175,156.452691 109.74313,154.90177 C138.30187,149.775156 160,125.529686 160,96.4573446 Z M98.5,134.932784 C76.2127101,134.932784 58.0805462,117.671808 58.0805462,96.4573446 C58.0805462,75.2428814 76.2127101,57.9844892 98.5,57.9844892 C120.78729,57.9844892 138.919454,75.2454653 138.919454,96.4573446 C138.919454,117.669224 120.776954,134.932784 98.4896639,134.932784 L98.5,134.932784 Z" id="形状_3" fill="#599AF8"></path>
            </g>
        </g>
    </g>
</svg>