<?xml version="1.0" encoding="UTF-8"?>
<svg width="241px" height="241px" viewBox="0 0 241 241" version="1.1" xmlns="http://www.w3.org/2000/svg" xmlns:xlink="http://www.w3.org/1999/xlink">
    <title>fortran</title>
    <g id="Page-1" stroke="none" stroke-width="1" fill="none" fill-rule="evenodd">
        <g id="fortran">
            <rect id="ViewBox" x="0" y="0" width="240" height="240"></rect>
            <path d="M35.566875,-1.42108547e-14 C24.84375,-1.42108547e-14 1.84741111e-13,20.625 1.84741111e-13,34.9875 L1.84741111e-13,204.586875 C1.84741111e-13,215.259375 21.01875,240.03 35.214375,240.03 L204.9975,239.97 C217.63125,239.9625 240.0375,221.814375 240.0375,205.093125 L240.0375,35.325 C240.0375,23.92875 220.14375,0.015 205.48125,0.015 L35.566875,-1.42108547e-14 Z" id="Path" fill="#FFFFFF"></path>
            <path d="M35.566875,0 C24.84375,0 0,20.625 0,34.9875 L0,204.586875 C0,215.259375 21.01875,240.03 35.214375,240.03 L204.9975,239.97 C217.63125,239.9625 240.0375,221.814375 240.0375,205.093125 L240.0375,35.325 C240.0375,23.92875 220.14375,0.015 205.48125,0.015 L35.566875,0 Z M32.95125,25.6125 L208.014375,25.6125 L208.014375,103.820625 L187.404375,103.513125 C187.215,103.329375 186.650625,97.8 186.27,92.716875 C184.10625,68.8125 178.74,55.055625 168.391875,49.6875 C162.928125,46.8675 154.41,46.03125 127.104375,46.025625 L101.660625,46.033125 L101.660625,104.67 L106.179375,104.67 C113.803125,104.57625 123.493125,102.7875 126.69375,100.81125 C130.839375,98.26875 134.319375,90.93 135.54375,82.081875 C136.464375,75.6225 137.175,70.78875 137.175,70.78875 L157.1925,70.78875 L157.1925,163.959375 L136.486875,163.959375 L136.486875,160.29 C136.486875,154.27125 133.659375,140.244375 131.68125,136.010625 C128.57625,129.51375 123.31125,127.258125 108.339375,125.844375 L101.469375,125.18625 L101.85,155.398125 C102.129375,184.100625 102.31875,185.705625 104.105625,188.1525 C106.36875,191.161875 108.815625,191.72625 123.78,192.853125 L133.820625,193.336875 L133.755,213.845625 L32.95125,213.845625 L32.95125,193.329375 L42.18,192.759375 C60.9075,191.535 60.718125,191.630625 61.66125,176.953125 C62.505,163.021875 61.44375,53.956875 60.81375,51.774375 C59.780625,48.170625 55.905,46.09875 44.34,46.10625 L32.95125,46.03125 L32.95125,25.6125 Z" id="Shape" fill="#734C94" fill-rule="nonzero"></path>
        </g>
    </g>
</svg>