<?xml version="1.0" encoding="UTF-8"?>
<svg width="240px" height="237px" viewBox="0 0 240 237" version="1.1" xmlns="http://www.w3.org/2000/svg" xmlns:xlink="http://www.w3.org/1999/xlink">
    <title>freebsd</title>
    <g id="Page-1" stroke="none" stroke-width="1" fill="none" fill-rule="evenodd">
        <g id="freebsd">
            <rect id="ViewBox" x="0" y="0" width="240" height="236.25"></rect>
            <g id="Group" fill="#B5010F" fill-rule="nonzero">
                <path d="M236.927813,4.790625 C249.591563,17.446875 214.485,73.085625 208.549688,79.02375 C202.615313,84.9496875 187.54125,79.4971875 174.884063,66.83625 C162.220313,54.18 156.765,39.1021875 162.700312,33.166875 C168.631875,27.2296875 224.266875,-7.8740625 236.927813,4.7896875 M59.3484375,18.181875 C40.0153125,7.213125 12.5053125,-4.989375 3.7546875,3.763125 C-5.1121875,12.62625 7.5365625,40.755 18.6215625,60.1228125 C28.4942601,42.9702581 42.4931995,28.5540123 59.3484375,18.181875" id="Shape"></path>
                <path d="M217.615313,74.65875 C219.395625,80.69625 219.075938,85.68375 216.188438,88.565625 C209.445,95.311875 191.228437,88.130625 174.807188,72.5025 C173.643932,71.4632453 172.510049,70.3915741 171.406875,69.28875 C165.46875,63.34875 160.84875,57.02625 157.89375,51.2034375 C152.142188,40.8853125 150.703125,31.7728125 155.050313,27.4246875 C157.419375,25.0584375 161.209688,24.4134375 165.833438,25.245 C168.848438,23.338125 172.408125,21.21375 176.310937,19.0378125 C160.44,10.7596875 142.395938,6.084375 123.255,6.084375 C59.7684375,6.084375 8.300625,57.54375 8.300625,121.035937 C8.300625,184.516875 59.769375,235.982812 123.255,235.982812 C186.7425,235.982812 238.2075,184.516875 238.2075,121.035937 C238.2075,100.532812 232.82625,81.3075 223.425938,64.6396875 C221.394375,68.3475 219.419062,71.7440625 217.615312,74.65875" id="Path"></path>
            </g>
        </g>
    </g>
</svg>