<?xml version="1.0" encoding="UTF-8"?>
<svg width="240px" height="240px" viewBox="0 0 240 240" version="1.1" xmlns="http://www.w3.org/2000/svg" xmlns:xlink="http://www.w3.org/1999/xlink">
    <title>friendli</title>
    <g id="Page-1" stroke="none" stroke-width="1" fill="none" fill-rule="evenodd">
        <g id="friendli" transform="translate(-0, 0)" fill="#FFFFFF">
            <path d="M22.6626671,73.86 C28.6878609,73.8361597 34.4604362,69.9319311 38.7104833,63.0062063 C42.9605304,56.0804815 45.3399046,46.7005844 45.3252352,36.93 C45.3399046,27.1594156 42.9605304,17.7795185 38.7104833,10.8537937 C34.4604362,3.92806888 28.6878609,0.0238403494 22.6626671,0 C16.6374733,0.0238403494 10.864898,3.92806888 6.61485092,10.8537937 C2.36480386,17.7795185 -0.0145703998,27.1594156 9.90533229e-05,36.93 C-0.0145703998,46.7005844 2.36480386,56.0804815 6.61485092,63.0062063 C10.864898,69.9319311 16.6374733,73.8361597 22.6626671,73.86 Z M22.6626671,240 C28.6883664,239.978811 34.4618938,236.075431 38.7122947,229.149129 C42.9626957,222.222828 45.3415422,212.841391 45.3252511,203.07 C45.3399046,193.299416 42.9605304,183.919518 38.7104833,176.993794 C34.4604362,170.068069 28.6878609,166.16384 22.6626671,166.14 C16.6369679,166.161189 10.8634404,170.064569 6.61303948,176.990871 C2.36263852,183.917172 -0.0162079419,193.298609 8.31261355e-05,203.07 C-0.0145703998,212.840584 2.36480386,222.220482 6.61485092,229.146206 C10.864898,236.071931 16.6374733,239.97616 22.6626671,240 Z" id="Shape"></path>
            <path d="M103.671484,71.926095 C107.469009,71.2719487 111.308899,70.8913152 115.161328,70.787151 L135.584375,70.787151 C147.41447,70.7651178 156.994493,61.2054211 157,49.4169644 L157,24.3701866 C157,12.5911076 147.375,3 135.584375,3 L110.679688,3 C98.8456802,3.02204179 89.2640418,12.5878203 89.2640625,24.3801773 L88.4619792,39.2364033 C88.2320638,42.2539017 87.8303755,45.2559554 87.2588542,48.2280667 C86.2916383,53.0301815 84.6478032,57.6718744 82.3761719,62.0152838 C82.3761719,62.0152838 79.0976563,68.279476 74.8265625,72.685391 C73.7800946,73.7527291 72.686159,74.7728072 71.5480469,75.7425566 L69.3523438,77.5408892 C64.069159,81.4514685 57.9748522,84.1345813 51.5160156,85.3936086 C48.6585938,85.9930528 42.1015625,86.0529972 39.4246094,86.1129416 L24.415625,86.1129416 C12.5949219,86.1129416 3,95.7040492 3,107.573045 L3,132.549888 C3,144.408892 12.625,154 24.415625,154 L49.921875,154 C61.7642511,153.923162 71.3267346,144.340818 71.3375,132.539897 L71.3375,114.616514 C71.1369792,108.422258 71.5480469,96.9029377 77.0222656,89.1701072 C80.4311198,84.3745534 85.8451823,80.1184994 86.7675781,79.3791849 C89.2096204,77.4158468 91.8994761,75.7800736 94.7683594,74.5136959 C95.640625,74.1240572 98.3777344,73.0450576 103.641406,72.0559746 L103.641406,71.926095 L103.671484,71.926095 Z" id="Path"></path>
            <path d="M219.36762,3 L193.156512,3 C181.67851,3 172.423996,12.2779877 172.423996,23.7478624 L172.423996,41.4330881 C172.423996,41.4330881 172.423996,53.7136608 169.419284,62.8515278 C166.204241,71.9093259 158.091518,80.1364088 149.948747,83.1389938 C140.423809,86.6219924 129.276326,86.1415788 123.59742,86.1415788 L107.672444,86.1415788 C96.2339294,86.1746985 86.9833967,95.4589897 87,106.889441 L87,133.252138 C87,144.722012 96.2545366,154 107.672444,154 L133.93363,154 C145.372144,153.96688 154.622677,144.682589 154.606052,133.252138 L154.806366,122.242659 C154.696193,118.149135 155.086806,109.741897 157.069916,103.626632 C157.791047,101.334659 159.263356,97.13104 162.598587,92.5370849 C165.002356,89.2642672 167.346032,87.1924836 169.709739,85.0005965 C174.046541,81.1272619 177.71229,78.8753231 178.723876,78.3348578 C180.927332,77.0137204 184.733301,74.7317558 190.121752,73.0503082 C194.929292,71.5790416 198.534947,71.3088089 204.66456,70.9184729 C208.270215,70.6482402 213.258038,70.5281368 219.267463,70.8584212 C230.745464,70.8584212 240,61.5804335 240,50.1105588 L240,23.7478624 C240.007953,18.2496838 237.828536,12.9738219 233.941737,9.08226574 C230.054938,5.19070959 224.779558,3.00265035 219.277478,3 L219.36762,3 L219.36762,3 Z" id="Path"></path>
        </g>
    </g>
</svg>