<?xml version="1.0" encoding="UTF-8"?>
<svg width="240px" height="240px" viewBox="0 0 240 240" version="1.1" xmlns="http://www.w3.org/2000/svg" xmlns:xlink="http://www.w3.org/1999/xlink">
    <title>fullhunt</title>
    <defs>
        <linearGradient x1="50%" y1="0%" x2="50%" y2="100%" id="linearGradient-1">
            <stop stop-color="#FFD012" offset="0%"></stop>
            <stop stop-color="#FF8C01" offset="100%"></stop>
        </linearGradient>
    </defs>
    <g id="Page-1" stroke="none" stroke-width="1" fill="none" fill-rule="evenodd">
        <g id="fullhunt">
            <rect id="box" x="0" y="0" width="240" height="240"></rect>
            <path d="M123,0 L123.001295,19.1465473 C174.678992,21.9066875 216.09387,63.3218834 218.853507,114.999715 L240,115 L240,126 L218.853453,126.001295 C216.093331,177.678656 174.678656,219.093331 123.001295,221.853453 L123,240 L112,240 L111.999706,221.853506 C60.3218789,219.093865 18.9066873,177.67899 16.1465473,126.001295 L0,126 L0,115 L16.1464952,114.999681 C18.9061663,63.3215316 60.3215539,21.9061521 111.999706,19.1464938 L112,0 L123,0 Z M123.001244,30.1644578 L123,46 L112,46 L111.999754,30.164398 C66.3984878,32.8982038 29.8979308,69.3989153 27.1643684,115.000247 L46,115 L46,126 L27.1644578,126.001244 C29.8987269,171.601881 66.3989851,208.101826 111.999754,210.835602 L112,194 L123,194 L123.001244,210.835542 C168.601548,208.101293 205.101293,171.601548 207.835542,126.001244 L194,126 L194,115 L207.835634,115.000286 C205.10211,69.3992686 168.602058,32.8987375 123.001244,30.1644578 Z M161.181239,126 C159.302249,141.50358 146.408503,158.513885 122.5,177.030913 L122.5,126 L161.181239,126 Z M112.5,126 L112,177.030913 C88.4998168,159.124679 75.6381627,142.114374 73.4150377,126 L112.5,126 Z M112.29912,63.6851378 C112.416969,87.7706977 112.482965,104.036108 112.497107,112.481369 L112.497991,113.045064 C112.498393,113.320853 112.498734,113.587553 112.499016,113.845164 L112.5,115.5 L71.6496965,115.5 C70.0860018,105.160734 70.0424246,90.6205781 71.5189649,71.8795329 C72.591214,72.8634097 75.5650096,73.0714381 78.7397588,73.1542574 L79.4478753,73.1708651 C80.3945979,73.1909659 81.3479036,73.2043055 82.2635558,73.2278086 C93.1220306,73.5065256 103.133885,70.3256353 112.29912,63.6851378 Z M122.5,63.6851378 C130.424973,68.9176896 137.455756,71.8917546 143.592349,72.6073328 C143.591037,74.5353071 143.590129,76.500197 143.589624,78.5020022 L143.589624,86.1818131 C143.590129,88.275907 143.591037,90.4069164 143.592349,92.5748412 L164.109817,92.5748412 C164.041799,98.9250053 163.654651,106.566725 162.948373,115.5 L122.5,115.5 L122.5,63.6851378 Z M147,75.3376659 L167.134154,75.9579389 L167.608792,88.5062269 L147,88.5062269 L147,75.3376659 Z M173,61 L173,72 L160,72 L160,61 L173,61 Z M155,58 L155,67 L142,67 L142,58 L155,58 Z M161,46.6923077 L161,52.6923077 L152,52.6923077 L152,46.6923077 L161,46.6923077 Z" id="Combined-Shape" fill="url(#linearGradient-1)"></path>
        </g>
    </g>
</svg>