<?xml version="1.0" encoding="UTF-8"?>
<svg width="240px" height="240px" viewBox="0 0 240 240" version="1.1" xmlns="http://www.w3.org/2000/svg" xmlns:xlink="http://www.w3.org/1999/xlink">
    <title>ganache</title>
    <g id="Page-1" stroke="none" stroke-width="1" fill="none" fill-rule="evenodd">
        <g id="ganache" transform="translate(0, -0.0003)">
            <rect id="ViewBox" x="0" y="0" width="240" height="240"></rect>
            <g id="shape" transform="translate(14, 0)" fill-rule="nonzero">
                <path d="M185.117629,180.000253 C187.613502,180.000253 188.474865,179.415866 189.661632,177.383031 C190.8484,175.350196 190.277486,172.050075 190.232546,171.151788 C190.121026,169.175723 189.460232,166.975085 189.37035,165.874767 C189.37035,165.201051 189.37035,160.899957 189.471051,159.137611 C190.97157,131.245618 202.903324,124.610313 206.350442,123.858122 C208.549431,123.207574 210.907802,123.36687 213,124.307266 L213,69.7154325 C213,63.5509766 208.634095,55.9723024 203.306126,52.8733777 L116.155304,2.34554337 C110.783226,-0.775922036 102.018959,-0.775922036 96.7350986,2.31214979 L9.67498965,52.7723621 C4.35617542,55.859599 -0.00806520043,63.4391081 0.00275385526,69.6144169 L0.00275385526,80.640144 C0,80.7040954 0,80.7682058 0.00275385526,80.8321571 L0.00275385526,96.9328744 C0.513385688,97.2160114 1.01703846,97.5116331 1.51326048,97.8194741 C3.20352987,98.9423334 4.87132892,99.5601148 6.5732496,100.738908 C11.4219801,103.702066 15.9271028,107.197043 20.0055234,111.159377 C20.7994756,111.92242 23.452641,115.268457 24.0793139,116.054876 C26.006058,118.717697 28.1716873,121.198052 30.5491093,123.464913 C31.8621161,124.667165 33.3079591,125.714747 34.8584224,126.587213 C37.4217063,127.922957 41.6527893,127.61991 43.8132715,126.664853 C60.4013806,119.456848 70.8109767,123.072538 75.6129729,125.969432 C87.4889671,133.121503 91.4512382,143.125386 92.7162355,155.274808 C92.8831164,156.848411 92.9354084,158.432126 92.8726957,160.013357 C92.8726957,162.898563 92.7728275,167.536097 95.805492,168.311664 C100.159746,169.433688 101.211691,164.76276 101.860834,161.663835 C103.327232,154.646173 112.639943,150.042868 119.45678,153.579248 C124.158076,156.016145 126.083035,157.39697 130.728572,155.34243 C136.537572,152.771124 139.53778,146.225146 141.564272,142.7447 C143.565489,139.355207 146.463338,136.587855 149.936557,134.74944 C159.002925,129.07921 181.792018,130.550197 182.620092,155.746492 L182.620092,162.753301 C182.620092,165.15597 182.698322,167.502704 182.541862,169.983847 C182.441993,171.634325 182.150711,173.352425 181.993419,175.047985 C181.948478,175.047985 181.097934,179.976878 185.116797,180.000253" id="Path" fill="#E4A663"></path>
                <path d="M212.966699,124.313992 C212.350996,124.123237 210.560464,122.947056 206.341234,123.865843 C202.884145,124.616367 190.965298,131.237804 189.465978,159.067163 C189.376951,160.780624 189.321205,165.072187 189.366134,165.789392 C189.455162,166.90893 190.114963,169.082201 190.227287,171.053888 C190.227287,171.951018 190.909552,175.199679 189.656513,177.272157 C188.403474,179.344636 187.608885,179.893577 185.113623,179.882748 C181.095745,179.882748 181.94608,174.942285 181.94608,174.942285 C182.103334,173.272973 182.393713,171.581171 182.495221,169.889368 C182.651643,167.412889 182.5726,165.072187 182.5726,162.67401 L182.5726,155.683558 C181.744729,130.54309 158.961219,129.075362 149.897072,134.73303 C146.424814,136.567143 143.527685,139.328065 141.526838,142.709741 C139.500842,146.183309 136.50137,152.713949 130.693792,155.279558 C126.049394,157.330379 124.124906,155.952614 119.424762,153.521117 C112.610427,149.991738 103.299998,154.585678 101.833127,161.587791 C101.184143,164.679849 100.132455,169.328766 95.7792683,168.220056 C92.7465147,167.447042 92.8471904,162.819783 92.8471904,159.940137 C92.9098473,158.362686 92.8575681,156.78276 92.6907686,155.212919 C91.4260812,143.090417 87.4656128,133.108699 75.592528,125.971642 C70.7917082,123.081167 60.3838302,119.474321 43.7997849,126.666355 C41.5616211,127.618463 37.3765043,127.921671 34.8471295,126.588054 C33.2970879,125.717782 31.8516008,124.672802 30.5388721,123.473505 C28.1619933,121.211403 25.9968934,118.736263 24.0706618,116.079054 C23.4441423,115.29521 20.792459,111.955754 19.9970372,111.194401 C15.9195292,107.241429 11.4155134,103.754757 6.56805407,100.798687 C4.86821438,99.6774828 3.21164032,98.9602785 1.51096861,97.8848885 C1.01476913,97.5774261 0.51095493,97.2824551 0,97.0002533 L0,170.460799 C0,176.622425 4.36400349,184.185141 9.69066705,187.265537 L96.8209713,237.680585 C102.146803,240.773476 110.863993,240.773476 116.190657,237.680585 L203.331778,187.333009 C208.658441,184.25178 213.010796,176.689898 213,170.527438 L212.966699,124.313992 Z" id="Path" fill="#5E464D"></path>
                <path d="M118.025391,111.769351 C112.003371,115.256979 102.14227,115.256979 96.120249,111.769351 L7,64.6717822 C8.00699906,65.6697957 97.3735883,117.679059 97.3735883,117.679059 C102.701529,120.773985 111.421641,120.773985 116.74875,117.679059 C116.74875,117.679059 205.992169,65.8273768 207,64.8285295 L118.025391,111.769351 Z M95.9746086,8.99563214 C102.008281,5.54135462 111.85773,5.54135462 117.89057,9.00647105 L128.692924,13.4921126 C127.685092,12.4940991 116.625579,5.31707254 116.625579,5.31707254 C111.297639,2.23381929 102.59001,2.22214661 97.2620694,5.31707254 C97.2620694,5.31707254 79.5988066,15.7124218 78.6034588,16.6995965 L95.9746086,8.99563214 Z" id="Shape" fill="#FFFFFF"></path>
            </g>
        </g>
    </g>
</svg>