<svg width="240" height="240" viewBox="0 0 240 240" fill="none" xmlns="http://www.w3.org/2000/svg">
<path d="M239.829 115.334H140.674C141.579 107.671 144.705 100.439 149.668 94.5286C154.631 88.618 161.215 84.2863 168.609 82.0661C176.002 79.846 183.884 79.8342 191.285 82.0324C198.685 84.2306 205.281 88.5425 210.262 94.4384L224.684 79.9427C216.84 71.197 206.6 64.9458 195.234 61.9644C183.868 58.9831 171.876 59.4028 160.747 63.1719C149.618 66.9409 139.84 73.8931 132.628 83.166C125.417 92.4389 121.088 103.624 120.179 115.334H119.833C118.924 103.624 114.595 92.4389 107.383 83.166C100.171 73.8931 90.3942 66.9409 79.2648 63.1719C68.1353 59.4028 56.1436 58.9831 44.7775 61.9644C33.4115 64.9458 23.1714 71.197 15.328 79.9427L29.7501 94.4384C34.7307 88.5425 41.3268 84.2306 48.7271 82.0324C56.1275 79.8342 64.0094 79.846 71.4032 82.0661C78.797 84.2863 85.3803 88.618 90.3433 94.5286C95.3063 100.439 98.4327 107.671 99.3377 115.334H0.178716C0.0622564 116.863 0.00270837 118.408 0 119.967C0.00159954 134.676 5.41064 148.871 15.1989 159.854C24.9871 170.837 38.472 177.842 53.09 179.538C67.7079 181.234 82.4396 177.501 94.4845 169.051C106.529 160.6 115.047 148.021 118.42 133.703H121.58C124.938 148.034 133.451 160.631 145.499 169.094C157.547 177.558 172.289 181.297 186.917 179.6C201.545 177.903 215.038 170.889 224.826 159.892C234.615 148.896 240.015 134.686 240 119.967C240.005 118.408 239.948 116.863 239.829 115.334ZM60.0039 159.548C51.8974 159.549 43.9859 157.064 37.3376 152.427C30.6894 147.791 25.6247 141.227 22.8275 133.622H97.1723C94.375 141.225 89.3115 147.788 82.665 152.424C76.0185 157.06 68.109 159.547 60.0039 159.548ZM180.004 159.548C171.897 159.549 163.985 157.064 157.336 152.428C150.687 147.791 145.621 141.227 142.823 133.622H217.168C214.371 141.224 209.309 147.786 202.664 152.422C196.019 157.058 188.107 159.545 180.004 159.548Z" fill="#2F8D46"/>
</svg>
