<svg width="244" height="245" viewBox="0 0 244 245" fill="none" xmlns="http://www.w3.org/2000/svg">
<path d="M166.374 101.805C166.374 101.805 167.753 89.8004 165.361 81.3138C162.969 72.8272 162.039 73.094 162.039 73.094C162.039 73.094 165.826 77.7791 168.185 87.5495C169.945 94.8023 168.434 97.9202 168.434 97.9202L166.374 101.805Z" fill="white"/>
<mask id="mask0_4_66" style="mask-type:luminance" maskUnits="userSpaceOnUse" x="2" y="2" width="239" height="240">
<path d="M121.178 241.259C186.998 241.259 240.355 187.699 240.355 121.63C240.355 55.56 186.998 2 121.178 2C55.3577 2 2 55.56 2 121.63C2 187.699 55.3577 241.259 121.178 241.259Z" fill="white"/>
</mask>
<g mask="url(#mask0_4_66)">
<path d="M154.016 378.545C186.007 378.195 218.065 369.092 244.541 350.918C258.078 342.398 270.968 332.578 281.532 320.673C286.849 314.718 291.48 308.18 295.335 301.182C297.428 297.848 299.205 294.163 301.132 290.661C303.059 287.16 304.703 283.475 306.431 279.874C313.166 265.339 318.183 250.062 321.38 234.356C324.487 218.683 325.048 202.608 323.041 186.755L322.675 183.803C322.542 182.82 322.31 181.836 322.127 180.869L320.964 175.017C320.649 173.049 319.984 171.165 319.486 169.231L317.825 163.496C316.446 159.777 315.184 156.009 313.673 152.341C312.161 148.673 310.351 145.055 308.573 141.504C305.099 134.363 300.932 127.583 296.132 121.263C293.723 118.162 291.086 115.247 288.242 112.542C285.4 109.883 282.345 107.463 279.107 105.306L276.898 103.839L278.874 102.172C280.471 100.693 282.496 99.7639 284.655 99.5208C286.728 99.4216 288.793 99.8579 290.651 100.788C292.312 101.572 293.873 102.455 295.335 103.206C296.642 103.926 298.055 104.433 299.521 104.706L297.677 108.174C291.809 101.612 284.626 96.3673 276.599 92.7848C268.501 89.2393 259.885 87.0321 251.086 86.249L245.737 85.7154L249.807 82.1974C252.274 80.1514 255.207 78.7483 258.344 78.1125C261.303 77.4918 264.333 77.2897 267.347 77.5122C270.299 77.7037 273.225 78.184 276.084 78.9461C278.94 79.6746 281.721 80.6739 284.389 81.9306L281.449 85.582C281.011 84.9848 280.522 84.4269 279.987 83.9147C279.777 83.7215 279.549 83.5484 279.306 83.3979H279.207C279.327 83.4213 279.451 83.4213 279.572 83.3979H279.854C279.979 83.384 280.101 83.356 280.22 83.3145C280.405 83.2616 280.579 83.177 280.735 83.0644C280.96 82.9108 281.157 82.7189 281.316 82.4975C281.509 82.2382 281.636 81.9363 281.688 81.6171C281.74 81.2979 281.715 80.9708 281.615 80.6635C281.588 80.5484 281.537 80.4404 281.466 80.3467C281.675 80.5185 281.897 80.6745 282.13 80.8135C282.754 81.1702 283.41 81.4661 284.09 81.6972L281.565 85.7488C272.182 76.7163 260.872 69.9481 248.494 65.9578C236.065 61.9335 223.067 59.9627 210.009 60.1222H204.295L207.916 55.7205C208.348 55.2203 208.763 54.7034 209.294 54.1865L209.76 53.7697L209.992 53.553L210.341 53.3195L210.706 53.0861C210.937 52.969 211.176 52.8688 211.421 52.786C211.937 52.6433 212.482 52.6433 212.999 52.786C213.187 52.8187 213.372 52.8747 213.547 52.9527C213.829 53.0894 214.091 53.2632 214.327 53.4696C214.71 53.8189 214.986 54.2698 215.125 54.7701C215.219 55.0949 215.264 55.4322 215.258 55.7705C215.275 55.881 215.275 55.9935 215.258 56.104V56.3374C215.204 56.5965 215.121 56.8484 215.008 57.0877C214.86 57.4074 214.676 57.7094 214.46 57.988C214.11 58.4307 213.696 58.8185 213.231 59.1385C212.362 59.7333 211.356 60.0949 210.308 60.1889L200.807 61.1559L208.464 55.3203C211.536 53.0262 215.031 51.3658 218.746 50.4351C222.362 49.5359 226.085 49.1431 229.808 49.268C237.03 49.6092 244.156 51.0658 250.936 53.5863L248.312 58.5882L242.066 54.1199L238.927 51.969L237.366 50.952L236.635 50.5185L236.352 50.3684H236.452H236.718H237H237.349C237.498 50.3848 237.648 50.3848 237.797 50.3684C238.412 50.2512 238.968 49.9278 239.375 49.4514C239.655 49.1315 239.86 48.7529 239.975 48.3432C240.09 47.9335 240.112 47.5032 240.04 47.0838V46.8337V46.7337V46.5336L239.741 46.2335L239.625 46.0501L239.525 45.9334L239.774 46.1668L240.422 46.717L241.867 47.8341C242.847 48.5844 243.86 49.3013 244.89 50.0016C246.817 51.3617 248.87 52.5342 251.019 53.5029L248.129 58.5049C235.25 48.3249 219.801 41.9454 203.514 40.0811C187.307 38.0247 170.86 40.9672 156.358 48.5177L148.053 52.9527L151.823 44.3661C153.311 41.1385 155.462 38.2633 158.135 35.9295C160.656 33.6979 163.446 31.7934 166.44 30.2606C169.359 28.7365 172.418 27.5024 175.576 26.5759C178.817 25.6097 182.164 25.0497 185.542 24.9085L184.429 31.4277C177.022 28.56 169.107 27.2491 161.175 27.5762C153.226 27.9044 145.401 29.6607 138.07 32.7616C123.243 38.9176 110.83 49.7738 102.724 63.6735L101.378 65.8911L98.8703 65.4409C95.7642 64.8907 93.0568 64.1237 90.4324 63.6569C88.0941 63.1233 85.6763 63.0385 83.3066 63.4068C82.3594 63.5836 81.4563 63.9462 80.649 64.4739C79.8182 65.0231 79.0924 65.7177 78.5063 66.5246C77.1799 68.4385 76.2792 70.6164 75.8653 72.9105C75.8653 73.3773 75.5663 74.311 75.4002 75.0613L74.8022 77.3288C74.34 78.8673 73.7854 80.3762 73.1412 81.8473L72.1114 84.0314C71.746 84.765 71.2809 85.432 70.8656 86.1156C70.0493 87.4795 69.1449 88.7884 68.1582 90.0338C63.999 94.733 58.9442 98.5484 53.2921 101.255C47.8921 103.877 42.2368 105.933 36.4162 107.39L34.3399 107.891L33.3267 108.141L32.5959 108.391C31.4511 108.803 30.3404 109.305 29.2738 109.891C27.1747 111.045 25.2918 112.557 23.7095 114.36C22.9727 115.23 22.3271 116.175 21.7827 117.178C21.5215 117.644 21.294 118.129 21.1017 118.628C20.8857 119.178 20.6864 119.812 20.4871 120.429C19.7023 122.884 19.1789 125.416 18.9257 127.982C18.3598 132.75 19.5988 137.559 22.3973 141.454L15.0057 143.321C15.5371 139.109 16.814 135.027 18.7762 131.266C19.9379 129.183 21.4756 127.334 23.3108 125.814C25.3704 124.115 27.8722 123.045 30.5196 122.73L36.9477 122.013L35.021 128.265C34.6897 129.275 34.5488 130.338 34.6057 131.4C34.6598 132.205 34.9616 132.974 35.4694 133.601C37.0987 135.19 39.1963 136.207 41.4491 136.502L37.1304 143.354C35.8545 141.65 34.9337 139.705 34.423 137.636C33.9318 135.63 33.7913 133.554 34.0077 131.5C34.449 127.516 36.0623 123.755 38.642 120.696L43.625 114.793L46.1664 122.129C46.7912 123.967 47.9479 125.575 49.4884 126.748C50.8366 127.755 52.5239 128.192 54.189 127.965L52.2124 136.085C50.3534 134.847 48.9251 133.057 48.1264 130.966C47.4766 128.974 47.3733 126.843 47.8274 124.797C48.1315 123.373 48.5085 121.965 48.9569 120.579C49.2947 119.529 49.572 118.46 49.7874 117.378L51.0331 110.192L56.8301 114.593C58.5198 115.933 60.4162 116.986 62.4443 117.711C63.1067 117.966 63.8201 118.058 64.5251 117.979C65.2301 117.901 65.9062 117.655 66.4972 117.261C67.0406 116.937 67.4968 116.485 67.826 115.944C68.2979 115.083 68.6712 114.171 68.9388 113.226C69.3835 111.686 69.9672 110.191 70.6829 108.758C71.6583 106.943 73.033 105.375 74.7026 104.173L74.9683 103.989L75.2507 103.839C78.9087 102.07 82.9172 101.153 86.9775 101.155C90.7147 101.055 94.1198 101.388 97.2259 101.421L97.4751 110.692C96.8273 110.692 96.1629 110.692 95.4652 110.692H93.8042H93.3724H92.9737H92.5751C92.3063 110.63 92.0446 110.541 91.7944 110.425L91.3958 110.225C90.6753 109.831 90.0687 109.257 89.6351 108.558C89.1347 107.655 88.9367 106.614 89.0703 105.59C89.1444 105.063 89.3133 104.555 89.5686 104.089C89.7605 103.701 90.0128 103.347 90.3161 103.039C90.6084 102.726 90.9441 102.456 91.3127 102.238C91.5526 102.098 91.8024 101.975 92.0602 101.872L92.5252 101.722C92.6936 101.673 92.8659 101.64 93.0402 101.622H93.4554H93.8873H95.5483H97.4917V110.925C95.9546 111.031 94.4396 111.351 92.9903 111.876C91.8942 112.247 90.9224 112.916 90.1832 113.81C89.0869 115.31 88.9541 117.644 90.1832 120.762C91.4124 123.88 93.6049 127.165 95.5151 131.383C96.016 132.519 96.4378 133.689 96.7774 134.884C97.0959 136.093 97.3181 137.325 97.4418 138.569C97.6751 140.823 97.7196 143.093 97.5747 145.355C97.3588 149.673 96.7442 153.692 96.4618 157.477C96.329 159.311 96.3124 161.378 96.0798 163.662C95.8874 166.316 95.1583 168.903 93.9371 171.265C93.1198 172.738 91.9847 174.008 90.6151 174.983C89.9389 175.49 89.2092 175.921 88.4391 176.267L87.3263 176.667C86.9893 176.792 86.6454 176.898 86.2964 176.984C84.0435 177.543 81.7391 177.867 79.4198 177.951C75.174 178.054 70.9264 177.837 66.7131 177.301L70.7161 169.715C73.639 173.248 77.0315 176.362 80.7985 178.968C84.3185 181.491 88.3518 183.199 92.6083 183.97L94.07 184.454C94.2212 184.503 94.3661 184.57 94.5018 184.654C94.5446 184.637 94.592 184.637 94.6347 184.654C94.6347 184.654 94.2361 184.654 94.1364 184.77C94.5804 184.274 94.9447 183.712 95.2161 183.103C95.7808 181.969 96.3123 180.552 97.0432 178.885L99.1195 174.533C101.711 168.914 104.202 163.129 106.644 157.343C109.086 151.558 111.428 145.672 113.753 139.853L120.696 122.129L122.34 117.928L126.294 119.595C127.932 120.285 129.744 120.442 131.476 120.045C133.444 119.557 135.281 118.64 136.858 117.361C140.396 114.515 143.166 110.823 144.914 106.624C146.695 102.129 147.755 97.3793 148.053 92.5514C148.302 87.8496 147.538 83.1644 145.246 79.9632L151.508 75.2614C152.775 76.9978 153.835 78.8782 154.664 80.8635C155.467 82.7499 156.106 84.7024 156.574 86.6991C157.057 88.6921 157.374 90.7222 157.521 92.7681C157.683 94.9176 157.582 97.079 157.222 99.204L152.97 94.7522C161.441 93.5157 170.08 94.1473 178.283 96.603C186.318 99.0312 193.915 102.729 200.79 107.557C207.562 112.263 213.835 117.654 219.51 123.647L223.679 128.148L227.665 132.784C228.928 134.451 230.223 135.902 231.486 137.535C232.748 139.169 233.994 140.87 235.19 142.537C244.536 156.372 249.725 172.611 250.139 189.322C250.535 205.806 247.243 222.17 240.505 237.207L240.654 236.707L239.375 243.627V243.927L239.276 244.143C235.094 253.017 229.797 261.315 223.513 268.836C220.368 272.59 216.936 276.091 213.248 279.307C209.587 282.544 205.659 285.461 201.504 288.027C193.203 293.128 184.157 296.891 174.696 299.181C170.052 300.566 165.302 301.559 160.494 302.149C155.642 302.694 150.733 302.372 145.993 301.199L146.209 300.315C150.852 301.297 155.632 301.45 160.328 300.765C165.024 300.042 169.652 298.927 174.164 297.431L181.024 295.247C183.233 294.396 185.476 293.579 187.668 292.629C192.014 290.745 196.184 288.474 200.126 285.843C204.079 283.244 207.807 280.316 211.271 277.089C214.748 273.885 217.969 270.412 220.905 266.702C226.78 259.275 231.682 251.122 235.489 242.443L235.323 242.96L236.469 236.024V235.79L236.568 235.523C242.716 221.037 245.554 205.353 244.873 189.622C244.194 174.055 239.08 159.01 230.14 146.272C220.755 133.851 209.643 122.196 196.92 113.576C190.621 109.253 183.681 105.955 176.357 103.806C169.157 101.743 161.598 101.271 154.199 102.422L149.033 103.272L149.83 97.9201C150.486 91.6332 148.897 85.3168 145.345 80.0966L151.607 75.4114C153.453 78.0118 154.738 80.9706 155.378 84.0981C155.98 86.9969 156.214 89.9604 156.076 92.9182C155.799 98.6294 154.611 104.259 152.554 109.591C151.445 112.377 149.988 115.01 148.219 117.428C146.447 119.869 144.358 122.062 142.007 123.947C139.489 126.003 136.552 127.477 133.403 128.265C129.969 129.062 126.375 128.783 123.104 127.465L128.669 125.131L122.025 142.804C119.65 148.756 117.374 154.609 114.966 160.561C112.557 166.513 110.132 172.332 107.408 178.185L105.415 182.42C104.867 183.637 104.318 185.187 103.488 186.888C103.026 187.858 102.47 188.779 101.827 189.639C101.014 190.805 99.9675 191.788 98.754 192.523C97.2437 193.391 95.5035 193.769 93.771 193.607C93.0324 193.505 92.3042 193.338 91.5951 193.107C91.0137 192.874 90.4324 192.623 89.9341 192.357L91.3958 192.84C85.7851 191.875 80.4579 189.671 75.7988 186.388C71.3277 183.309 67.2934 179.635 63.8063 175.467L56.4148 166.73L67.8094 167.881C71.5607 168.351 75.3416 168.54 79.1209 168.447C80.8012 168.383 82.4707 168.149 84.1039 167.747C84.2408 167.716 84.3744 167.671 84.5025 167.614C84.6052 167.573 84.7107 167.539 84.8181 167.514C84.9344 167.397 85.1337 167.38 85.2168 167.264C85.498 167.053 85.7256 166.779 85.8812 166.463C86.4551 165.21 86.7823 163.857 86.8446 162.478C87.0273 160.811 87.0439 158.81 87.1934 156.61C87.509 152.308 88.0903 148.423 88.2564 144.672C88.3446 142.914 88.289 141.152 88.0903 139.403C87.9354 137.872 87.5256 136.379 86.8778 134.984C85.4825 131.85 83.1903 128.315 81.4297 123.997C80.4204 121.577 79.8901 118.984 79.8683 116.361C79.8683 115.627 79.8683 114.893 80.051 114.176C80.2337 113.459 80.35 112.709 80.5659 112.009C80.7819 111.309 81.0975 110.625 81.3964 109.958C81.7662 109.242 82.1998 108.561 82.692 107.924C84.4774 105.648 86.8584 103.916 89.5686 102.922C91.8931 102.049 94.3336 101.527 96.8107 101.371V110.675H95.1496H94.1364H94.3191H94.7344L95.1496 110.542C95.3948 110.44 95.6334 110.323 95.8639 110.192C96.2289 109.969 96.5638 109.7 96.8605 109.391C97.1545 109.082 97.4059 108.734 97.6079 108.358L97.8405 107.824C97.9568 107.511 98.0403 107.187 98.0896 106.857C98.2178 105.931 98.0663 104.988 97.6547 104.15C97.2431 103.312 96.5903 102.617 95.7808 102.155C95.6642 102.084 95.542 102.023 95.4154 101.972C95.1809 101.864 94.936 101.78 94.6846 101.722H94.3856H94.2195H95.1995C95.6978 101.722 96.2293 101.722 96.7608 101.722L97.01 110.992C93.389 110.992 90.1002 110.608 87.0439 110.692C84.3486 110.639 81.6774 111.209 79.2371 112.359L79.7853 112.026C79.2743 112.387 78.8583 112.868 78.5727 113.426C78.1074 114.392 77.724 115.396 77.4266 116.427C76.9399 118.054 76.2595 119.616 75.4002 121.079C74.3149 122.803 72.854 124.256 71.1277 125.331C69.4013 126.405 67.4546 127.072 65.4341 127.281C63.5251 127.316 61.6282 126.97 59.8531 126.264C56.8505 125.232 54.0428 123.699 51.548 121.729L58.6572 118.878C58.3791 120.328 58.013 121.759 57.5609 123.163C57.1566 124.249 56.8128 125.357 56.5311 126.481C56.4307 126.959 56.4307 127.453 56.5311 127.932C56.7088 128.253 56.9663 128.523 57.2785 128.715L66.2314 135.385L55.2853 136.752C53.3237 137.009 51.3308 136.873 49.4219 136.352C47.5304 135.848 45.7537 134.982 44.1897 133.801C41.2395 131.54 39.0393 128.436 37.8779 124.897L45.3857 126.348C43.9292 128.04 43.0095 130.13 42.7447 132.35C42.459 134.363 42.9523 136.41 44.1233 138.069L50.867 147.239L39.7548 145.022C37.7903 144.634 35.8819 144.001 34.0742 143.138C32.0289 142.156 30.2209 140.739 28.7755 138.986C27.2272 137.036 26.2906 134.668 26.0847 132.183C25.9305 129.977 26.2128 127.761 26.9152 125.664L31.4498 131.266C30.393 131.377 29.3929 131.801 28.5762 132.484C27.5695 133.344 26.7303 134.384 26.1013 135.551C24.611 138.377 23.6165 141.44 23.1613 144.605L21.5003 154.609L15.6037 146.272C13.6335 143.504 12.2021 140.387 11.3847 137.085C10.586 133.815 10.3667 130.428 10.7369 127.081C11.0534 123.933 11.7163 120.83 12.7135 117.828C12.9461 117.094 13.1952 116.361 13.4942 115.56C13.8295 114.733 14.2122 113.926 14.6403 113.143C15.4755 111.631 16.4664 110.212 17.5969 108.908C19.8478 106.468 22.5068 104.442 25.4535 102.922C26.8972 102.124 28.4025 101.444 29.9549 100.888L31.2671 100.471L32.3301 100.221L34.423 99.7208C39.7508 98.4573 44.9333 96.6413 49.887 94.3021C54.6058 92.0868 58.8314 88.9396 62.3114 85.0485C63.1154 84.0884 63.8535 83.0746 64.5206 82.014C64.8361 81.4638 65.2182 80.9636 65.5006 80.3467L66.3144 78.6794C66.8316 77.5343 67.2808 76.3596 67.6599 75.1613L68.0917 73.3106C68.2412 72.6604 68.3741 72.1935 68.5568 71.2598C69.2446 67.8854 70.6622 64.7037 72.7093 61.9395C73.8354 60.4505 75.206 59.165 76.7622 58.1381C78.3729 57.124 80.159 56.4227 82.0276 56.0706C85.3377 55.5332 88.7192 55.6293 91.9937 56.354C95.0001 56.9376 97.7906 57.7546 100.299 58.2048L96.3954 60.0221C105.372 44.7793 119.077 32.9084 135.413 26.2257C143.527 22.8762 152.173 21.0127 160.942 20.7236C169.77 20.4404 178.563 21.9606 186.788 25.192L202.036 31.2277L185.642 31.6445C182.862 31.756 180.106 32.2096 177.436 32.995C174.688 33.7756 172.023 34.8255 169.48 36.1296C166.988 37.4052 164.661 38.9844 162.554 40.8314C160.579 42.5329 158.978 44.628 157.853 46.9838L153.368 42.8988C161.173 38.7939 169.586 35.9789 178.283 34.5623C186.907 33.1405 195.689 32.9664 204.361 34.0454C221.754 36.1437 238.217 43.0729 251.899 54.0532L267.779 66.9248L249.009 59.0718C246.456 57.9322 244.024 56.5356 241.751 54.9035C240.654 54.1365 239.575 53.3529 238.429 52.5526L236.768 51.2854L235.954 50.5685L235.489 50.1517L235.19 49.8182C235.092 49.731 235.008 49.6298 234.941 49.5181L234.758 49.2513C234.675 49.1012 234.608 48.9679 234.542 48.8178V48.5844V48.4677C234.537 48.3844 234.537 48.3009 234.542 48.2176C234.469 47.7877 234.49 47.347 234.605 46.9265C234.72 46.5059 234.925 46.1157 235.206 45.7833C235.648 45.3034 236.229 44.9765 236.867 44.8496H237.332H237.582C237.692 44.8321 237.804 44.8321 237.914 44.8496L238.312 44.9496H238.512L238.96 45.1497L239.525 45.4665L240.439 46.0334L242.1 47.1338L245.322 49.3847L251.617 53.9364L267.961 65.7744L248.993 58.905C242.788 56.539 236.254 55.1553 229.625 54.8034C223.147 54.57 216.636 55.8872 211.686 59.6387L209.843 54.7701C209.954 54.7598 210.061 54.7257 210.158 54.6701C210.158 54.6701 210.158 54.6701 210.075 54.8368C210.024 54.9488 209.985 55.0663 209.959 55.1869V55.5371C209.942 55.8023 209.975 56.0683 210.059 56.3207C210.197 56.7492 210.437 57.138 210.756 57.4545C210.962 57.638 211.198 57.7846 211.454 57.888L211.902 58.0547C212.286 58.132 212.681 58.132 213.065 58.0547L213.364 57.9213H213.281L213.082 58.0881C212.799 58.3715 212.484 58.7383 212.151 59.1218L210.059 54.7534C223.695 54.6632 237.255 56.8032 250.205 61.0892C263.284 65.3953 275.213 72.637 285.087 82.2641L292.927 90.0671L282.562 86.299C281.586 85.9597 280.645 85.524 279.755 84.9985C279.241 84.6883 278.757 84.3311 278.31 83.9314C278.011 83.651 277.739 83.3441 277.496 83.0144C277.313 82.7322 277.162 82.4302 277.047 82.114C276.905 81.7055 276.862 81.2691 276.919 80.8403C276.977 80.4116 277.135 80.0025 277.379 79.6464C277.569 79.3783 277.805 79.1467 278.077 78.9628C278.287 78.8339 278.509 78.7277 278.741 78.646C278.91 78.5758 279.09 78.5363 279.273 78.5293H279.705C280.05 78.541 280.391 78.6028 280.718 78.7127C281.095 78.84 281.457 79.0077 281.798 79.2129C282.303 79.5279 282.781 79.8849 283.226 80.28C283.979 80.9788 284.668 81.7432 285.286 82.5642L291.365 90.4672L282.329 86.249C277.517 83.9752 272.334 82.5968 267.031 82.1807C264.459 81.985 261.873 82.1364 259.341 82.6309C256.951 83.0939 254.71 84.1356 252.813 85.6654L251.534 81.6138C260.812 82.4995 269.884 84.8986 278.393 88.7166C286.947 92.6223 294.578 98.305 300.783 105.39L304.52 109.591L298.923 108.758C296.994 108.424 295.135 107.764 293.425 106.807C291.764 105.973 290.352 105.14 288.923 104.439C287.696 103.789 286.325 103.462 284.937 103.489C283.644 103.665 282.44 104.249 281.499 105.156L281.266 101.955C284.698 104.271 287.937 106.864 290.95 109.708C293.901 112.586 296.644 115.673 299.155 118.945C304.039 125.503 308.268 132.529 311.779 139.92C313.573 143.571 315.234 147.239 316.862 150.974C318.49 154.709 319.669 158.644 321.047 162.478L322.708 168.381C323.207 170.365 323.871 172.299 324.187 174.316L325.316 180.335C325.499 181.336 325.732 182.319 325.864 183.337L326.197 186.371C328.143 202.564 327.459 218.967 324.17 234.94C320.825 250.828 315.635 266.267 308.706 280.941C306.929 284.576 305.168 288.227 303.275 291.795C301.381 295.363 299.471 298.931 297.345 302.366C293.369 309.463 288.599 316.081 283.127 322.09C272.264 334.178 259.158 343.932 245.471 352.385C242.066 354.519 238.595 356.57 235.107 358.571C231.639 360.647 228.069 362.544 224.41 364.257C217.067 367.606 209.496 370.426 201.753 372.693C194.011 374.906 186.124 376.578 178.15 377.695C170.173 378.783 162.133 379.34 154.082 379.362L154.016 378.545Z" fill="#672F25"/>
<path d="M314.337 149.123C299.388 117.545 280.668 103.456 280.668 103.456C280.668 103.456 278.526 101.688 286.316 102.389C290.894 102.776 295.313 104.256 299.205 106.707C292.595 99.4233 284.552 93.5931 275.586 89.5838C265.254 85.2321 251.302 83.9483 251.302 83.9483C251.302 83.9483 251.651 80.2802 262.181 80.3802C269.395 80.512 276.545 81.7663 283.376 84.0983C283.376 84.0983 275.503 73.0107 250.239 64.0906C226.453 55.754 210.109 57.4213 210.109 57.4213C210.109 57.4213 212.799 53.203 224.044 52.3027C232.872 51.7824 241.71 53.1228 249.99 56.2375C249.99 56.2375 225.739 38.1305 200.159 36.5132C175.858 34.9793 154.863 45.6835 154.863 45.6835C154.863 45.6835 156.342 41.1317 166.341 34.6792C172.062 30.8628 178.699 28.6576 185.559 28.2934C185.559 28.2934 165.726 19.9568 138.751 28.4435C117.042 35.3128 104.086 54.4535 99.8837 61.6063C92.4258 60.7726 87.6255 60.089 87.6255 60.089C84.619 59.4721 77.8255 57.538 73.8556 68.9425C69.8858 80.3469 70.1516 86.2492 60.8167 94.2189C51.4818 102.189 26.932 103.206 22.0154 110.158C17.0988 117.111 13.9927 128.065 14.8232 132.934C15.7295 136.781 17.1487 140.488 19.0422 143.955C19.6729 139.95 21.0177 136.093 23.012 132.567C23.8044 131.07 24.9382 129.782 26.3209 128.808C27.7036 127.835 29.2961 127.203 30.9683 126.965C30.9683 126.965 29.0913 132.367 31.3669 135.935C33.6425 139.503 40.6022 140.77 40.6022 140.77C38.9587 138.404 38.1678 135.546 38.3598 132.667C38.3007 130.981 38.5921 129.3 39.2155 127.733C39.8389 126.165 40.7807 124.746 41.9808 123.564C45.552 134.001 54.6709 132.417 54.6709 132.417C52.8317 130.47 51.7934 127.897 51.7642 125.214C51.515 121.646 52.8604 120.612 54.4384 118.445C54.4384 118.445 62.893 123.93 68.0421 122.196C73.1912 120.462 72.6099 107.924 81.4465 106.757C85.3199 106.303 89.1519 105.544 92.9075 104.49C89.8512 105.69 83.3899 109.258 84.918 117.828C86.9112 128.949 93.057 133.167 92.5753 139.17C92.0936 145.172 92.2431 165.38 89.4692 169.998C86.6953 174.617 67.2116 172.483 67.2116 172.483C67.2116 172.483 74.3041 181.153 81.9116 184.554C89.519 187.955 95.5983 190.673 98.3722 186.054C101.146 181.436 124.683 123.53 124.683 123.53C124.683 123.53 130.064 126.265 139.582 120.629C149.1 114.994 151.209 99.1542 151.209 99.1542L151.508 99.0374C152.005 94.4072 151.832 89.7291 150.993 85.1487C150.587 83.0607 150.031 81.0047 149.332 78.9964C149.084 78.5238 148.806 78.0672 148.502 77.6292C148.502 77.6292 148.767 77.6292 149.332 78.9964C151.292 82.7196 152.649 86.7325 153.352 90.8843C153.91 93.386 153.995 95.9708 153.601 98.5039C159.331 97.3368 175.526 96.3697 200.807 113.393L200.574 112.926C243.163 143.371 259.175 184.337 237.582 240.492C227.782 266.085 195.259 306.118 143.336 300.515C145.827 326.676 147.87 352.852 150.329 379.012C183.027 379.433 215.127 370.19 242.631 352.435C291.531 321.023 304.986 284.593 304.986 284.593C304.986 284.593 343.106 210.214 314.337 149.123Z" fill="#E1251B"/>
<path d="M25.4038 114.394L36.1672 109.742L35.918 113.36L25.4038 114.394Z" fill="#672F25"/>
<path d="M150.146 75.4117C150.146 75.4117 158.052 81.5474 161.773 87.2663C164.077 91.2277 165.715 95.5425 166.623 100.038L149.863 105.523C151.701 99.7088 152.189 93.5496 151.292 87.5164C150.378 81.6641 141.509 70.043 141.509 70.043L150.146 75.4117Z" fill="#672F25"/>
<path d="M167.819 34.1289C167.819 34.1289 152.504 43.9327 148.817 47.4674C146.3 50.026 144.072 52.8552 142.173 55.904C142.173 55.904 149.448 50.4519 153.8 47.5674C158.152 44.683 172.47 39.3142 172.47 39.3142L162.869 40.5147L167.819 34.1289Z" fill="#672F25"/>
<path d="M242.282 165.029C249.342 186.354 248.926 211.097 237.947 239.675C228.114 265.351 195.458 305.517 143.269 299.698C143.635 303.7 144.017 307.701 144.382 311.703C198.98 320.289 233.114 278.657 243.196 252.313C256.418 217.966 254.74 189.105 242.282 165.029Z" fill="#F2B131"/>
<path d="M142.14 80.8137C142.14 80.8137 149.548 91.5679 148.053 100.638C146.558 109.708 143.07 116.544 137.207 118.395C133.228 119.557 129.122 120.229 124.982 120.396C132.063 116.93 137.589 110.919 140.462 103.556C143.268 96.3127 143.853 88.3927 142.14 80.8137Z" fill="#FF7F40"/>
<path d="M86.1637 122.763C84.7685 115.794 83.3732 106.257 90.7481 105.64C95.3194 105.278 99.9169 105.44 104.451 106.124C100.618 104.003 96.233 103.102 91.8776 103.539C87.473 104.352 83.2166 105.83 79.2539 107.924L83.1075 113.777C83.1075 113.777 86.5956 124.847 86.1637 122.763Z" fill="#672F25"/>
<path d="M54.4382 118.445C54.4382 118.445 64.9691 121.346 66.8294 120.529C68.6897 119.712 74.686 111.726 74.686 111.726L71.4802 124.414L63.1752 125.064L54.4382 118.445Z" fill="#672F25"/>
<path d="M84.6688 171.899C84.6688 171.899 74.437 172.399 73.6397 174.767C72.8424 177.134 82.9912 186.971 82.9912 186.971L63.1753 171.182L84.6688 171.899Z" fill="#672F25"/>
<path d="M78.8054 176.284C78.8054 176.284 79.7356 178.302 86.2302 182.003C92.7247 185.704 95.0667 185.154 96.9769 182.937C98.8871 180.719 119.65 124.297 119.65 124.297C119.65 124.297 99.3023 176.584 92.0105 177.351C87.5803 177.698 83.1233 177.338 78.8054 176.284Z" fill="#FF7F40"/>
<path d="M142.024 56.104C142.024 56.104 146.027 41.9485 161.956 32.4615C170.261 27.4595 185.542 28.3099 185.542 28.3099C185.542 28.3099 172.121 32.7116 166.208 37.2967L142.024 56.104Z" fill="#672F25"/>
<path d="M210.109 57.4878C210.109 57.4878 217.085 47.2672 228.247 47.7007C239.409 48.1342 254.939 58.5382 254.939 58.5382C254.939 58.5382 240.522 53.4362 231.071 54.8534C221.619 56.2706 210.109 57.4878 210.109 57.4878Z" fill="#672F25"/>
<path d="M110.265 47.901C110.265 47.901 131.028 25.4756 150.544 24.8087C170.061 24.1418 179.978 25.8758 179.978 25.8758C179.978 25.8758 157.072 25.4423 140.246 31.2278C129.447 35.1816 119.331 40.8073 110.265 47.901Z" fill="#FF7F40"/>
<path d="M142.023 56.1044C142.023 56.1044 169.48 33.7624 197.003 36.5635C213.377 38.139 229.231 43.1916 243.511 51.3859C243.511 51.3859 212.118 38.1808 183.233 42.8326C154.348 47.4844 141.94 57.1048 141.94 57.1048" fill="#FF7F40"/>
<path d="M210.109 57.4876C210.109 57.4876 229.592 54.6032 253.727 65.5074C277.861 76.4116 281.964 82.1805 281.964 82.1805C271.189 75.864 259.753 70.7589 247.863 66.958C228.629 61.039 210.109 57.4876 210.109 57.4876Z" fill="#FF7F40"/>
<path d="M34.7053 143.255C34.7053 143.255 41.9307 145.489 44.9039 146.106C46.934 146.46 49.0049 146.51 51.0497 146.256C51.0497 146.256 43.5585 141.12 42.7446 139.17C41.9307 137.219 39.4226 141.271 39.4226 141.271L34.7053 143.255Z" fill="#672F25"/>
<path d="M52.9763 136.285L62.2448 133.684L56.9461 128.899L52.9763 136.285Z" fill="#672F25"/>
<path d="M74.0381 87.716C76.6899 84.5542 79.0057 81.1232 80.9479 77.4788C82.7079 73.7384 84.2605 69.9033 85.5987 65.991L86.2964 82.6641L74.0381 87.716Z" fill="#672F25"/>
<path d="M71.2312 147.339C70.714 147.365 70.1988 147.256 69.7363 147.022C69.291 146.806 68.8952 146.499 68.5736 146.122C68.2379 145.72 67.9839 145.255 67.8261 144.755C67.6467 144.217 67.5514 143.655 67.5437 143.087C67.5356 142.522 67.6198 141.959 67.7929 141.42C67.9464 140.92 68.1883 140.451 68.5071 140.036C68.8177 139.646 69.2087 139.327 69.6532 139.103C70.1145 138.86 70.6276 138.734 71.1481 138.736C71.6642 138.723 72.176 138.832 72.6431 139.053C73.0902 139.266 73.4824 139.58 73.7892 139.97C74.1207 140.371 74.3793 140.829 74.5532 141.32C74.7078 141.846 74.7916 142.39 74.8024 142.937C74.8031 143.503 74.7191 144.065 74.5532 144.605C74.4 145.105 74.1581 145.574 73.839 145.989C73.529 146.384 73.1382 146.708 72.6929 146.939C72.2445 147.188 71.7433 147.325 71.2312 147.339ZM71.2312 146.022C71.5406 146.028 71.8455 145.947 72.1115 145.789C72.3707 145.62 72.5914 145.398 72.7593 145.138C72.9479 144.84 73.0881 144.514 73.1746 144.171C73.2799 143.792 73.3248 143.398 73.3075 143.004C73.313 142.603 73.257 142.204 73.1414 141.82C73.0466 141.48 72.8949 141.159 72.6929 140.87C72.523 140.61 72.2956 140.393 72.0285 140.236C71.7576 140.075 71.4465 139.994 71.1315 140.003C70.8262 140.005 70.5273 140.092 70.2678 140.253C69.9965 140.412 69.7683 140.635 69.6034 140.903C69.4128 141.194 69.2724 141.516 69.1881 141.854C69.1002 142.236 69.0557 142.628 69.0553 143.021C69.0663 143.415 69.122 143.806 69.2214 144.188C69.3165 144.528 69.4681 144.849 69.6698 145.138C69.8497 145.4 70.0815 145.621 70.3509 145.789C70.6169 145.947 70.9218 146.028 71.2312 146.022Z" fill="url(#paint0_linear_4_66)"/>
<path d="M40.8512 160.078C40.3514 160.088 39.8564 159.979 39.4061 159.761C38.9748 159.56 38.5944 159.264 38.2932 158.894C37.97 158.505 37.7221 158.058 37.5624 157.577C37.3845 157.04 37.2947 156.476 37.2966 155.91C37.2753 155.345 37.3541 154.78 37.5291 154.243C37.6904 153.767 37.9382 153.326 38.26 152.942C38.5549 152.56 38.929 152.247 39.3563 152.025C39.8012 151.789 40.298 151.668 40.8013 151.675C41.2991 151.668 41.7924 151.77 42.2464 151.975C42.6723 152.192 43.0507 152.493 43.3593 152.859C43.6739 153.254 43.9209 153.699 44.0902 154.176C44.2698 154.713 44.3596 155.277 44.3559 155.843C44.3674 156.408 44.2889 156.971 44.1234 157.511C43.9686 157.992 43.7326 158.443 43.4257 158.844C43.1274 159.237 42.7431 159.556 42.3024 159.776C41.8617 159.995 41.3765 160.11 40.8844 160.112L40.8512 160.078ZM40.8512 158.794C41.1493 158.794 41.4419 158.714 41.6983 158.561C41.9556 158.403 42.1719 158.186 42.3295 157.927C42.5184 157.649 42.6537 157.338 42.7281 157.01C42.8242 156.64 42.8689 156.259 42.861 155.877C42.8583 155.493 42.8024 155.111 42.6949 154.743C42.6021 154.415 42.4562 154.106 42.263 153.826C42.0987 153.572 41.8767 153.36 41.6152 153.209C41.3574 153.042 41.0585 152.949 40.7515 152.942C40.4575 152.95 40.1709 153.036 39.921 153.192C39.6644 153.344 39.448 153.556 39.2898 153.809C39.1009 154.087 38.9656 154.398 38.8912 154.726C38.7959 155.096 38.7512 155.478 38.7583 155.86C38.7556 156.243 38.8059 156.624 38.9078 156.994C39.0006 157.321 39.1465 157.631 39.3397 157.911C39.5144 158.162 39.741 158.372 40.0041 158.528C40.2571 158.692 40.5499 158.784 40.8512 158.794Z" fill="url(#paint1_linear_4_66)"/>
<path d="M30.3369 171.049C29.8371 171.058 29.3421 170.95 28.8918 170.732C28.4634 170.526 28.0839 170.23 27.7789 169.865C27.4617 169.471 27.2144 169.026 27.0481 168.548C26.8771 168.008 26.7875 167.446 26.7823 166.88C26.7697 166.315 26.8482 165.752 27.0149 165.213C27.1661 164.73 27.4024 164.278 27.7125 163.879C28.0198 163.503 28.398 163.191 28.8254 162.962C29.2706 162.743 29.758 162.623 30.2538 162.612C30.7536 162.602 31.2486 162.711 31.6989 162.929C32.1302 163.13 32.5106 163.426 32.8118 163.796C33.1291 164.189 33.3763 164.635 33.5426 165.113C33.7276 165.649 33.823 166.213 33.825 166.78C33.8291 167.344 33.7508 167.906 33.5925 168.447C33.4386 168.933 33.1964 169.385 32.8782 169.781C32.5799 170.174 32.1955 170.493 31.7548 170.713C31.3141 170.932 30.829 171.047 30.3369 171.049ZM30.3369 169.765C30.635 169.765 30.9276 169.684 31.184 169.531C31.4377 169.368 31.653 169.152 31.8152 168.898C31.9905 168.612 32.1247 168.304 32.2138 167.981C32.3043 167.61 32.3435 167.228 32.3301 166.847C32.3328 166.464 32.2825 166.082 32.1806 165.713C32.0807 165.388 31.9353 165.08 31.7487 164.796C31.5804 164.545 31.3592 164.335 31.1009 164.179C30.8484 164.033 30.562 163.956 30.2704 163.956C29.9789 163.956 29.6924 164.033 29.4399 164.179C29.182 164.335 28.9609 164.546 28.7921 164.796C28.6139 165.086 28.4795 165.4 28.3935 165.73C28.3044 166.101 28.2598 166.482 28.2606 166.864C28.2715 167.247 28.3272 167.627 28.4267 167.997C28.5124 168.327 28.6589 168.638 28.8586 168.914C29.027 169.165 29.2481 169.376 29.5064 169.531C29.7607 169.689 30.0547 169.77 30.3535 169.765H30.3369Z" fill="url(#paint2_linear_4_66)"/>
<path d="M40.984 170.915C40.4842 170.924 39.9892 170.816 39.5389 170.598C39.1076 170.397 38.7272 170.101 38.426 169.731C38.1028 169.342 37.8549 168.895 37.6952 168.414C37.5161 167.877 37.4264 167.313 37.4294 166.747C37.4082 166.181 37.4869 165.617 37.662 165.079C37.8132 164.596 38.0495 164.145 38.3596 163.746C38.6579 163.353 39.0423 163.034 39.483 162.814C39.9237 162.595 40.4089 162.48 40.9009 162.478C41.4007 162.469 41.8957 162.577 42.346 162.795C42.7745 163.001 43.154 163.297 43.4589 163.662C43.7762 164.056 44.0234 164.501 44.1897 164.979C44.3694 165.517 44.4592 166.08 44.4555 166.647C44.4754 167.212 44.3967 167.776 44.223 168.314C44.0682 168.795 43.8322 169.247 43.5253 169.648C43.227 170.041 42.8426 170.359 42.4019 170.579C41.9612 170.799 41.4761 170.914 40.984 170.915ZM40.984 169.631C41.2821 169.631 41.5747 169.55 41.8311 169.398C42.0884 169.24 42.3047 169.022 42.4623 168.764C42.6513 168.486 42.7865 168.175 42.8609 167.847C42.957 167.477 43.0017 167.096 42.9938 166.713C42.9911 166.33 42.9352 165.948 42.8277 165.58C42.7332 165.256 42.5934 164.947 42.4125 164.663C42.242 164.408 42.0144 164.196 41.7481 164.046C41.4943 163.888 41.1987 163.813 40.9009 163.829C40.6028 163.829 40.3102 163.91 40.0538 164.062C39.8009 164.219 39.5854 164.43 39.4226 164.679C39.2307 164.962 39.0953 165.279 39.024 165.613C38.9268 165.983 38.8821 166.364 38.8911 166.747C38.8856 167.131 38.9416 167.514 39.0572 167.88C39.1446 168.207 39.2849 168.517 39.4725 168.797C39.6469 169.049 39.8735 169.259 40.1369 169.414C40.3925 169.566 40.6879 169.636 40.984 169.614V169.631Z" fill="url(#paint3_linear_4_66)"/>
<path d="M41.1167 181.736C40.6175 181.76 40.1205 181.657 39.6716 181.436C39.2462 181.225 38.8677 180.931 38.5587 180.569C38.2355 180.18 37.9876 179.733 37.8279 179.252C37.65 178.714 37.5602 178.151 37.5621 177.585C37.5483 177.02 37.6269 176.457 37.7946 175.917C37.9457 175.429 38.1819 174.972 38.4923 174.567C38.789 174.191 39.1629 173.884 39.5885 173.667C40.0334 173.43 40.5303 173.31 41.0336 173.316C41.5224 173.3 42.0082 173.399 42.4523 173.604C42.8964 173.81 43.2865 174.117 43.5916 174.5C43.9123 174.891 44.1599 175.338 44.3224 175.817C44.5045 176.354 44.5944 176.918 44.5882 177.485C44.6081 178.05 44.5294 178.614 44.3556 179.152C44.2009 179.633 43.9649 180.085 43.658 180.486C43.3605 180.865 42.987 181.178 42.5617 181.403C42.1128 181.626 41.6178 181.741 41.1167 181.736ZM41.1167 180.469C41.4098 180.471 41.6977 180.39 41.9472 180.236C42.2045 180.078 42.4208 179.86 42.5784 179.602C42.7673 179.324 42.9025 179.013 42.977 178.685C43.0813 178.317 43.1262 177.934 43.1099 177.551C43.1154 177.167 43.0594 176.784 42.9438 176.418C42.8524 176.093 42.7124 175.783 42.5285 175.501C42.358 175.246 42.1305 175.035 41.8641 174.884C41.6116 174.737 41.3252 174.66 41.0336 174.66C40.742 174.66 40.4556 174.737 40.2031 174.884C39.9465 175.036 39.7301 175.247 39.5719 175.501C39.383 175.779 39.2477 176.09 39.1733 176.418C39.078 176.788 39.0333 177.169 39.0404 177.551C39.0431 177.935 39.099 178.317 39.2065 178.685C39.2939 179.012 39.4342 179.321 39.6217 179.602C39.8008 179.85 40.0266 180.059 40.2862 180.219C40.5409 180.378 40.8336 180.464 41.1333 180.469H41.1167Z" fill="url(#paint4_linear_4_66)"/>
<path d="M51.2988 170.781C50.81 170.798 50.3242 170.699 49.8801 170.494C49.436 170.288 49.0459 169.981 48.7408 169.598C48.4142 169.21 48.166 168.763 48.01 168.28C47.8304 167.743 47.7406 167.18 47.7442 166.613C47.7243 166.048 47.803 165.484 47.9768 164.946C48.1315 164.464 48.3675 164.013 48.6744 163.612C48.9727 163.219 49.3571 162.901 49.7978 162.681C50.2385 162.461 50.7237 162.346 51.2157 162.345C51.7155 162.335 52.2105 162.444 52.6608 162.662C53.0893 162.867 53.4688 163.163 53.7737 163.529C54.0849 163.926 54.3315 164.371 54.5045 164.846C54.6836 165.383 54.7734 165.946 54.7703 166.513C54.7916 167.078 54.7128 167.643 54.5378 168.18C54.3903 168.665 54.1537 169.117 53.8401 169.514C53.5418 169.907 53.1574 170.226 52.7167 170.445C52.276 170.665 51.7909 170.78 51.2988 170.781ZM51.2988 169.514C51.5985 169.509 51.8912 169.423 52.1459 169.264C52.3988 169.107 52.6143 168.897 52.7771 168.647C52.9659 168.363 53.101 168.047 53.1757 167.714C53.272 167.349 53.3167 166.973 53.3086 166.596C53.3059 166.213 53.25 165.831 53.1425 165.463C53.0497 165.135 52.9038 164.825 52.7107 164.546C52.5418 164.295 52.3208 164.085 52.0629 163.929C51.8104 163.782 51.5239 163.705 51.2324 163.705C50.9408 163.705 50.6544 163.782 50.4018 163.929C50.1489 164.085 49.9334 164.296 49.7707 164.546C49.5819 164.83 49.4467 165.146 49.372 165.479C49.2759 165.849 49.2312 166.231 49.2391 166.613C49.2364 166.996 49.2867 167.378 49.3886 167.747C49.4815 168.074 49.6274 168.384 49.8205 168.664C49.991 168.919 50.2185 169.13 50.4849 169.281C50.7316 169.428 51.012 169.508 51.2988 169.514Z" fill="url(#paint5_linear_4_66)"/>
<path d="M9.29164 182.136C8.79276 182.156 8.2966 182.053 7.84656 181.836C7.42121 181.625 7.04268 181.33 6.73368 180.969C6.41569 180.579 6.17343 180.132 6.01944 179.652C5.83621 179.115 5.74085 178.552 5.73707 177.985C5.73173 177.42 5.8101 176.858 5.96961 176.317C6.12071 175.829 6.35691 175.372 6.66724 174.967C6.97523 174.596 7.35349 174.29 7.78012 174.066C8.22502 173.83 8.7219 173.71 9.2252 173.716C9.72281 173.711 10.2157 173.813 10.6703 174.016C11.0943 174.229 11.4681 174.53 11.7666 174.9C12.0932 175.287 12.3414 175.735 12.4974 176.217C12.6851 176.753 12.7806 177.317 12.7798 177.885C12.7825 178.449 12.7042 179.01 12.5472 179.552C12.3925 180.033 12.1565 180.485 11.8496 180.886C11.5423 181.262 11.1641 181.573 10.7367 181.803C10.2878 182.026 9.79275 182.141 9.29164 182.136ZM9.29164 180.869C9.58977 180.869 9.88237 180.788 10.1388 180.636C10.3924 180.473 10.6078 180.257 10.7699 180.002C10.9453 179.717 11.0795 179.408 11.1686 179.085C11.2558 178.713 11.3004 178.333 11.3015 177.951C11.2906 177.568 11.2349 177.188 11.1354 176.818C11.0388 176.492 10.8932 176.182 10.7035 175.9C10.5351 175.65 10.314 175.439 10.0557 175.284C9.79448 175.128 9.49574 175.047 9.19198 175.05C8.89797 175.058 8.61137 175.145 8.36147 175.3C8.10002 175.452 7.87802 175.663 7.71368 175.917C7.53835 176.202 7.40414 176.511 7.31504 176.834C7.22778 177.206 7.1832 177.586 7.18215 177.968C7.19302 178.351 7.24877 178.732 7.34826 179.102C7.4411 179.429 7.587 179.739 7.78012 180.019C7.95334 180.265 8.17351 180.475 8.42791 180.636C8.69397 180.794 8.99887 180.875 9.30825 180.869H9.29164Z" fill="url(#paint6_linear_4_66)"/>
<path d="M9.42477 192.39C8.92627 192.406 8.43118 192.303 7.97968 192.09C7.55739 191.904 7.17839 191.631 6.86681 191.29C6.54291 190.901 6.29496 190.454 6.13596 189.973C5.96346 189.434 5.87384 188.871 5.8702 188.305C5.85641 187.74 5.93497 187.177 6.10274 186.638C6.25383 186.15 6.49004 185.693 6.80036 185.287C7.09393 184.909 7.46859 184.601 7.89663 184.387C8.34153 184.151 8.83842 184.03 9.34172 184.037C9.84088 184.014 10.3379 184.117 10.7868 184.337C11.2192 184.544 11.5995 184.846 11.8997 185.221C12.2236 185.61 12.4715 186.057 12.6305 186.538C12.8126 187.075 12.9025 187.638 12.8963 188.205C12.9186 188.77 12.8399 189.335 12.6637 189.873C12.5264 190.366 12.2889 190.826 11.9661 191.223C11.6725 191.602 11.2979 191.91 10.8698 192.123C10.4175 192.331 9.92103 192.423 9.42477 192.39ZM9.42477 191.123C9.71819 191.127 10.0065 191.046 10.2553 190.89C10.5089 190.727 10.7243 190.511 10.8865 190.256C11.0754 189.978 11.2106 189.667 11.2851 189.339C11.3894 188.971 11.4343 188.588 11.418 188.205C11.4235 187.826 11.3674 187.449 11.2519 187.088C11.1678 186.76 11.0273 186.45 10.8366 186.171C10.6667 185.911 10.4393 185.695 10.1722 185.538C9.9142 185.391 9.62169 185.316 9.32511 185.321C9.02698 185.321 8.73438 185.401 8.47799 185.554C8.22432 185.717 8.00895 185.933 7.8468 186.188C7.66873 186.472 7.53434 186.781 7.44816 187.105C7.35207 187.475 7.30735 187.856 7.31528 188.239C7.32621 188.616 7.38197 188.991 7.48138 189.356C7.56547 189.683 7.706 189.994 7.89663 190.273C8.07535 190.525 8.30096 190.74 8.56104 190.906C8.82879 191.059 9.13359 191.134 9.44138 191.123H9.42477Z" fill="url(#paint7_linear_4_66)"/>
<path d="M-0.873677 202.244C-1.37284 202.268 -1.86984 202.164 -2.31876 201.944C-2.75006 201.743 -3.1305 201.447 -3.43164 201.077C-3.75488 200.688 -4.00276 200.241 -4.16248 199.76C-4.34036 199.222 -4.43012 198.659 -4.42825 198.093C-4.44951 197.527 -4.37077 196.963 -4.1957 196.425C-4.04461 195.937 -3.80841 195.48 -3.49808 195.075C-3.20139 194.699 -2.82746 194.392 -2.40181 194.174C-1.95691 193.938 -1.46003 193.818 -0.956727 193.824C-0.45897 193.817 0.0343066 193.92 0.488354 194.124C0.914223 194.342 1.29258 194.642 1.60123 195.008C1.91584 195.404 2.16282 195.849 2.33208 196.325C2.51171 196.863 2.60151 197.426 2.59784 197.993C2.61771 198.558 2.53902 199.122 2.3653 199.66C2.21054 200.141 1.97457 200.593 1.66767 200.994C1.37016 201.373 0.996696 201.685 0.571405 201.911C0.122501 202.134 -0.372573 202.249 -0.873677 202.244ZM-0.873677 200.977C-0.575553 200.977 -0.282947 200.896 -0.0265598 200.744C0.230732 200.585 0.447032 200.368 0.604625 200.11C0.793584 199.832 0.928814 199.521 1.00327 199.193C1.09936 198.823 1.14408 198.442 1.13615 198.059C1.13348 197.675 1.07757 197.294 0.970048 196.926C0.880534 196.597 0.734372 196.287 0.538185 196.009C0.37384 195.754 0.151843 195.543 -0.10961 195.392C-0.362116 195.245 -0.648549 195.168 -0.940117 195.168C-1.23169 195.168 -1.51812 195.245 -1.77062 195.392C-2.02719 195.544 -2.24365 195.755 -2.40181 196.009C-2.59077 196.286 -2.726 196.597 -2.80045 196.926C-2.89572 197.296 -2.94043 197.677 -2.93333 198.059C-2.93606 198.442 -2.88575 198.824 -2.78384 199.193C-2.691 199.52 -2.5451 199.83 -2.35198 200.11C-2.17719 200.361 -1.95058 200.572 -1.68757 200.727C-1.44252 200.88 -1.16201 200.966 -0.873677 200.977Z" fill="url(#paint8_linear_4_66)"/>
<path d="M30.6025 192.123C30.1033 192.147 29.6063 192.044 29.1574 191.823C28.7274 191.613 28.3478 191.311 28.0445 190.94C27.7206 190.551 27.4727 190.104 27.3137 189.622C27.1412 189.083 27.0516 188.521 27.0479 187.955C27.0341 187.39 27.1127 186.827 27.2805 186.288C27.4316 185.8 27.6678 185.342 27.9781 184.937C28.2717 184.558 28.6463 184.251 29.0744 184.037C29.5193 183.801 30.0162 183.68 30.5195 183.687C31.0082 183.67 31.494 183.769 31.9381 183.975C32.3822 184.18 32.7724 184.487 33.0774 184.871C33.4013 185.26 33.6493 185.707 33.8083 186.188C33.9903 186.724 34.0802 187.288 34.074 187.855C34.0963 188.42 34.0176 188.985 33.8415 189.522C33.7041 190.016 33.4666 190.476 33.1439 190.873C32.8503 191.252 32.4756 191.559 32.0476 191.773C31.6027 192.01 31.1058 192.13 30.6025 192.123ZM30.6025 190.856C30.8959 190.86 31.1842 190.779 31.433 190.623C31.6867 190.46 31.902 190.244 32.0642 189.989C32.2532 189.711 32.3884 189.4 32.4628 189.072C32.5672 188.704 32.612 188.321 32.5957 187.938C32.6012 187.559 32.5451 187.182 32.4296 186.821C32.3455 186.494 32.205 186.183 32.0144 185.904C31.8398 185.648 31.6134 185.433 31.35 185.271C31.0919 185.124 30.7994 185.049 30.5028 185.054C30.2047 185.054 29.9121 185.135 29.6557 185.287C29.4021 185.45 29.1867 185.666 29.0245 185.921C28.8465 186.205 28.7121 186.514 28.6259 186.838C28.5298 187.208 28.4851 187.59 28.493 187.972C28.5039 188.349 28.5597 188.724 28.6591 189.089C28.7432 189.417 28.8837 189.727 29.0744 190.006C29.2485 190.262 29.475 190.478 29.7388 190.639C30.0065 190.792 30.3113 190.867 30.6191 190.856H30.6025Z" fill="url(#paint9_linear_4_66)"/>
<path d="M51.1661 159.944C50.665 159.949 50.1699 159.834 49.721 159.611C49.2866 159.407 48.9013 159.111 48.5915 158.744C48.2796 158.349 48.038 157.904 47.8773 157.427C47.6892 156.892 47.5992 156.327 47.6115 155.759C47.5903 155.194 47.669 154.63 47.8441 154.092C47.9817 153.604 48.2193 153.149 48.5417 152.758C48.84 152.365 49.2244 152.047 49.6651 151.827C50.1058 151.607 50.591 151.492 51.0831 151.491C51.5828 151.482 52.0778 151.59 52.5282 151.808C52.9566 152.014 53.3361 152.309 53.641 152.675C53.953 153.069 54.1946 153.515 54.3553 153.992C54.5399 154.528 54.6354 155.092 54.6376 155.659C54.6502 156.224 54.5717 156.787 54.4051 157.327C54.2538 157.81 54.0176 158.261 53.7075 158.661C53.4092 159.053 53.0248 159.372 52.5841 159.592C52.1434 159.811 51.6582 159.926 51.1661 159.928V159.944ZM51.1661 158.661C51.4642 158.66 51.7568 158.58 52.0132 158.427C52.2705 158.269 52.4868 158.052 52.6444 157.794C52.8225 157.51 52.9569 157.201 53.0431 156.876C53.1402 156.507 53.185 156.125 53.1759 155.743C53.1651 155.36 53.1093 154.979 53.0098 154.609C52.917 154.282 52.7711 153.972 52.578 153.692C52.4096 153.441 52.1885 153.231 51.9302 153.075C51.6701 152.918 51.3694 152.843 51.0665 152.858C50.774 152.861 50.4875 152.942 50.236 153.092C49.983 153.248 49.7675 153.459 49.6048 153.709C49.4128 153.991 49.2774 154.308 49.2061 154.642C49.1018 155.011 49.0569 155.393 49.0732 155.776C49.0705 156.159 49.1208 156.541 49.2227 156.91C49.3156 157.237 49.4615 157.547 49.6546 157.827C49.8251 158.082 50.0526 158.293 50.319 158.444C50.5727 158.601 50.8683 158.677 51.1661 158.661Z" fill="url(#paint10_linear_4_66)"/>
<path d="M59.6872 149.607L58.1425 150.057L57.8103 148.823L60.1025 148.056H61.1656L61.2818 156.743H59.8533L59.6872 149.607Z" fill="url(#paint11_linear_4_66)"/>
<path d="M19.258 164.296L17.7797 164.729L17.4641 163.546L19.6733 162.795H20.7031L20.8027 171.132H19.3577L19.258 164.296Z" fill="url(#paint12_linear_4_66)"/>
<path d="M19.4072 175.117L17.9123 175.55L17.5967 174.366L19.8058 173.633H20.8357L20.9353 181.969H19.4902L19.4072 175.117Z" fill="url(#paint13_linear_4_66)"/>
<path d="M30.5693 174.984L29.091 175.417L28.7588 174.233L30.9845 173.5H32.0144L32.114 181.836H30.669L30.5693 174.984Z" fill="url(#paint14_linear_4_66)"/>
<path d="M19.5236 185.371L18.0453 185.804L17.7131 184.621L19.9389 183.887H20.9687L21.0684 192.224H19.6067L19.5236 185.371Z" fill="url(#paint15_linear_4_66)"/>
<path d="M19.6565 195.108L18.1615 195.542L17.8459 194.358L20.0551 193.607H21.0849L21.1846 201.944H19.7395L19.6565 195.108Z" fill="url(#paint16_linear_4_66)"/>
<path d="M9.64083 195.225L8.16253 195.658L7.83032 194.474L10.0229 193.741H11.0527L11.1524 202.077H9.74049L9.64083 195.225Z" fill="url(#paint17_linear_4_66)"/>
</g>
<path d="M171.141 93.4687C171.141 93.4687 201.289 108.675 201.289 145.556C201.289 176.518 185.16 209.58 131.177 220.151C65.783 232.973 21.1682 184.954 21.1682 184.954C21.1682 184.954 55.3685 242.743 107.325 241.993C159.281 241.243 191.522 218.734 191.522 218.734C191.522 218.734 227.283 189.172 231.486 175.1C235.688 161.028 242 140.62 242 140.62L229.376 101.255L179.546 79.4299L171.141 93.4687Z" fill="#E1251B"/>
<path d="M159.962 100.721C165.984 100.453 172.008 101.197 177.785 102.921C183.728 104.572 188.975 108.119 192.734 113.025C196.084 118.191 198.345 123.99 199.378 130.065C200.586 136.028 201.143 142.105 201.039 148.189C200.917 160.502 198.033 172.629 192.601 183.669C189.783 189.277 186.094 194.398 181.672 198.842C180.576 199.992 179.363 201.009 178.167 202.043C176.971 203.077 175.759 203.927 174.546 204.878C173.334 205.828 172.138 206.728 170.875 207.579C169.613 208.429 168.384 209.346 167.088 210.163C156.74 216.971 145.266 221.872 133.204 224.635C121.019 227.322 108.406 227.384 96.1962 224.819C90.2222 223.479 84.3542 221.701 78.6392 219.5C72.9918 217.349 67.4772 215.032 62.0291 212.481C51.2185 207.459 40.758 201.71 30.719 195.274L31.1509 194.39C42.3959 198.192 53.5081 202.16 64.6535 205.861L72.9586 208.579C75.7491 209.413 78.5396 210.246 81.2636 211.063C86.7138 212.723 92.2611 214.043 97.8738 215.015C108.928 216.881 120.207 216.983 131.293 215.315C142.444 213.425 153.146 209.467 162.853 203.644C164.082 202.927 165.278 202.127 166.49 201.376C167.703 200.626 168.899 199.826 170.061 198.975C172.403 197.435 174.624 195.719 176.705 193.84C180.806 190.049 184.277 185.625 186.987 180.735C192.502 170.633 195.735 159.436 196.455 147.939C196.89 142.172 196.7 136.375 195.89 130.649C195.209 124.996 193.407 119.536 190.592 114.593C187.28 109.929 182.555 106.467 177.121 104.722C171.616 102.785 165.829 101.782 159.996 101.754L159.962 100.721Z" fill="#672F25"/>
<path d="M138.237 229.988C188.715 220.151 204.578 189.389 206.953 160.327C209.76 125.847 192.934 110.308 183.582 102.855C189.662 107.857 200.641 124.43 200.641 145.555C200.641 176.517 184.513 209.58 130.53 220.151C95.2829 227.037 50.4356 206.195 30.9851 194.807C46.3495 209.797 93.406 238.741 138.237 229.988Z" fill="#FF9E18"/>
<path d="M121.892 241.959C187.712 241.959 241.07 188.399 241.07 122.33C241.07 56.2602 187.712 2.7002 121.892 2.7002C56.0723 2.7002 2.7146 56.2602 2.7146 122.33C2.7146 188.399 56.0723 241.959 121.892 241.959Z" stroke="#231F20" stroke-width="4.22" stroke-miterlimit="10"/>
<defs>
<linearGradient id="paint0_linear_4_66" x1="-276.213" y1="361.955" x2="21.3829" y2="175.805" gradientUnits="userSpaceOnUse">
<stop stop-color="#CE0E2D"/>
<stop offset="0.53" stop-color="#FF9E18"/>
<stop offset="0.99" stop-color="#F7BE00"/>
</linearGradient>
<linearGradient id="paint1_linear_4_66" x1="-294.536" y1="367.24" x2="-7.27928" y2="187.537" gradientUnits="userSpaceOnUse">
<stop stop-color="#CE0E2D"/>
<stop offset="0.53" stop-color="#FF9E18"/>
<stop offset="0.99" stop-color="#F7BE00"/>
</linearGradient>
<linearGradient id="paint2_linear_4_66" x1="-305.047" y1="378.21" x2="-17.7735" y2="198.524" gradientUnits="userSpaceOnUse">
<stop stop-color="#CE0E2D"/>
<stop offset="0.53" stop-color="#FF9E18"/>
<stop offset="0.99" stop-color="#F7BE00"/>
</linearGradient>
<linearGradient id="paint3_linear_4_66" x1="-294.401" y1="378.075" x2="-7.14376" y2="198.389" gradientUnits="userSpaceOnUse">
<stop stop-color="#CE0E2D"/>
<stop offset="0.53" stop-color="#FF9E18"/>
<stop offset="0.99" stop-color="#F7BE00"/>
</linearGradient>
<linearGradient id="paint4_linear_4_66" x1="-294.265" y1="388.913" x2="-7.00836" y2="209.227" gradientUnits="userSpaceOnUse">
<stop stop-color="#CE0E2D"/>
<stop offset="0.53" stop-color="#FF9E18"/>
<stop offset="0.99" stop-color="#F7BE00"/>
</linearGradient>
<linearGradient id="paint5_linear_4_66" x1="-284.103" y1="377.945" x2="3.17023" y2="198.259" gradientUnits="userSpaceOnUse">
<stop stop-color="#CE0E2D"/>
<stop offset="0.53" stop-color="#FF9E18"/>
<stop offset="0.99" stop-color="#F7BE00"/>
</linearGradient>
<linearGradient id="paint6_linear_4_66" x1="-326.088" y1="389.314" x2="-38.8141" y2="209.628" gradientUnits="userSpaceOnUse">
<stop stop-color="#CE0E2D"/>
<stop offset="0.53" stop-color="#FF9E18"/>
<stop offset="0.99" stop-color="#F7BE00"/>
</linearGradient>
<linearGradient id="paint7_linear_4_66" x1="-325.959" y1="399.567" x2="-38.6856" y2="219.865" gradientUnits="userSpaceOnUse">
<stop stop-color="#CE0E2D"/>
<stop offset="0.53" stop-color="#FF9E18"/>
<stop offset="0.99" stop-color="#F7BE00"/>
</linearGradient>
<linearGradient id="paint8_linear_4_66" x1="-336.268" y1="409.435" x2="-48.9942" y2="229.733" gradientUnits="userSpaceOnUse">
<stop stop-color="#CE0E2D"/>
<stop offset="0.53" stop-color="#FF9E18"/>
<stop offset="0.99" stop-color="#F7BE00"/>
</linearGradient>
<linearGradient id="paint9_linear_4_66" x1="-304.783" y1="399.3" x2="-17.5096" y2="219.597" gradientUnits="userSpaceOnUse">
<stop stop-color="#CE0E2D"/>
<stop offset="0.53" stop-color="#FF9E18"/>
<stop offset="0.99" stop-color="#F7BE00"/>
</linearGradient>
<linearGradient id="paint10_linear_4_66" x1="-284.239" y1="367.109" x2="3.03459" y2="187.406" gradientUnits="userSpaceOnUse">
<stop stop-color="#CE0E2D"/>
<stop offset="0.53" stop-color="#FF9E18"/>
<stop offset="0.99" stop-color="#F7BE00"/>
</linearGradient>
<linearGradient id="paint11_linear_4_66" x1="-303.987" y1="381.915" x2="-6.39065" y2="195.765" gradientUnits="userSpaceOnUse">
<stop stop-color="#CE0E2D"/>
<stop offset="0.53" stop-color="#FF9E18"/>
<stop offset="0.99" stop-color="#F7BE00"/>
</linearGradient>
<linearGradient id="paint12_linear_4_66" x1="-331.795" y1="388.535" x2="-44.5215" y2="208.833" gradientUnits="userSpaceOnUse">
<stop stop-color="#CE0E2D"/>
<stop offset="0.53" stop-color="#FF9E18"/>
<stop offset="0.99" stop-color="#F7BE00"/>
</linearGradient>
<linearGradient id="paint13_linear_4_66" x1="-331.66" y1="399.355" x2="-44.3861" y2="219.669" gradientUnits="userSpaceOnUse">
<stop stop-color="#CE0E2D"/>
<stop offset="0.53" stop-color="#FF9E18"/>
<stop offset="0.99" stop-color="#F7BE00"/>
</linearGradient>
<linearGradient id="paint14_linear_4_66" x1="-320.482" y1="399.215" x2="-33.2082" y2="219.529" gradientUnits="userSpaceOnUse">
<stop stop-color="#CE0E2D"/>
<stop offset="0.53" stop-color="#FF9E18"/>
<stop offset="0.99" stop-color="#F7BE00"/>
</linearGradient>
<linearGradient id="paint15_linear_4_66" x1="-331.531" y1="409.609" x2="-44.2577" y2="229.906" gradientUnits="userSpaceOnUse">
<stop stop-color="#CE0E2D"/>
<stop offset="0.53" stop-color="#FF9E18"/>
<stop offset="0.99" stop-color="#F7BE00"/>
</linearGradient>
<linearGradient id="paint16_linear_4_66" x1="-331.409" y1="419.345" x2="-44.136" y2="239.642" gradientUnits="userSpaceOnUse">
<stop stop-color="#CE0E2D"/>
<stop offset="0.53" stop-color="#FF9E18"/>
<stop offset="0.99" stop-color="#F7BE00"/>
</linearGradient>
<linearGradient id="paint17_linear_4_66" x1="-341.408" y1="419.471" x2="-54.1342" y2="239.768" gradientUnits="userSpaceOnUse">
<stop stop-color="#CE0E2D"/>
<stop offset="0.53" stop-color="#FF9E18"/>
<stop offset="0.99" stop-color="#F7BE00"/>
</linearGradient>
</defs>
</svg>
