<?xml version="1.0" encoding="UTF-8"?>
<svg width="240px" height="240px" viewBox="0 0 240 240" version="1.1" xmlns="http://www.w3.org/2000/svg" xmlns:xlink="http://www.w3.org/1999/xlink">
    <title>gitpod</title>
    <defs>
        <linearGradient x1="75.2663374%" y1="15.782836%" x2="23.7060691%" y2="87.8119544%" id="linearGradient-1">
            <stop stop-color="#FFB45B" offset="0%"></stop>
            <stop stop-color="#FF8A00" offset="100%"></stop>
        </linearGradient>
    </defs>
    <g id="Page-1" stroke="none" stroke-width="1" fill="none" fill-rule="evenodd">
        <g id="gitpod">
            <rect id="ViewBox" x="0" y="0" width="240" height="240"></rect>
            <path d="M142.588125,12.97875 C149.713125,24.24375 145.378125,38.59125 132.905625,45.03 L55.35,85.0425 C53.29125,86.10375 52.03125,88.066875 52.03125,90.19875 L52.03125,153.024375 C52.03125,155.15625 53.29125,157.126875 55.35,158.180625 L116.71125,189.84375 C118.77712,190.897572 121.22288,190.897572 123.28875,189.84375 L184.65,158.180625 C186.70875,157.126875 187.96875,155.15625 187.96875,153.024375 L187.96875,113.956875 L132.78,142.06875 C120.271875,148.44 104.4075,144.45 97.34625,133.155 C90.285,121.86 94.7025,107.535 107.22,101.154375 L186.181875,60.93 C210.241875,48.676875 240,64.365 240,89.30625 L240,157.794375 C240,173.835 230.47875,188.64375 215.053125,196.606875 L144.56625,232.96875 C129.345,240.82125 110.655,240.82125 95.43375,232.96875 L24.946875,196.603125 C9.52125,188.64375 0,173.833125 0,157.7925 L0,85.43625 C0,69.3975 9.52125,54.579375 24.946875,46.625625 L107.094375,4.24125 C119.56875,-2.19 135.45375,1.72125 142.588125,12.97875" id="Path" fill="url(#linearGradient-1)"></path>
        </g>
    </g>
</svg>