<?xml version="1.0" encoding="UTF-8"?>
<svg width="240px" height="240px" viewBox="0 0 240 240" version="1.1" xmlns="http://www.w3.org/2000/svg" xmlns:xlink="http://www.w3.org/1999/xlink">
    <title>go</title>
    <g id="Page-1" stroke="none" stroke-width="1" fill="none" fill-rule="evenodd">
        <g id="go" transform="translate(229, 6)">
            <rect id="box" x="-229" y="-6" width="240" height="240"></rect>
            <g id="shape" transform="translate(-198, -6)">
                <path d="M3.6782107,129.552257 C4.02456394,136.860339 11.1680995,133.480572 14.4065023,131.197902 C17.4803873,129.030251 18.3809057,130.835153 18.6493295,126.552935 C18.9279092,123.745952 19.0406784,120.924365 18.9870239,118.103518 C14.2165708,117.614532 9.43084554,118.868387 5.47924755,121.642541 C3.51369292,123.102388 -0.157651423,127.747355 3.6782107,129.605342" id="Path" fill="#F6D2A2"></path>
                <path d="M6.00421873,134.999238 C5.31064284,135.012126 4.62358719,134.861392 3.99714278,134.558903 C2.53915173,133.702939 1.65835682,132.106623 1.70091182,130.39731 C0.75755652,129.934247 0.115036385,129.011242 0,127.953884 C0.256888615,125.415227 1.60048103,123.119718 3.67396954,121.676958 C7.68093926,118.864528 12.5465736,117.599745 17.3918234,118.111111 L17.9701334,118.162915 L17.9701334,118.750028 C18.0447899,120.901924 17.9794463,123.056477 17.7745285,125.199634 C17.7235012,125.829917 17.6809784,126.451566 17.6384556,127.081849 C17.4513553,130.043315 16.9070635,130.492284 15.4017566,131.018958 C14.6111229,131.275347 13.8628865,131.650794 13.1820666,132.132746 C11.0718844,133.698658 8.59973811,134.685916 6.00421873,134.999238 L6.00421873,134.999238 Z M15.4442793,119.388944 C11.538251,119.335967 7.71384812,120.525509 4.50741633,122.790745 C3.12967775,123.809558 1.21615195,126.192546 1.37773858,127.833008 C1.47608531,128.541522 1.95993985,129.132991 2.62790877,129.361228 L2.99360481,129.533908 L2.99360481,129.939707 C3.0786504,131.718313 3.60593306,132.858003 4.56694824,133.341508 C6.42094213,134.273981 9.87379313,132.840735 12.4846928,131.018958 C13.2677992,130.466533 14.1277258,130.035845 15.0360605,129.741125 C16.0225894,129.395764 16.2266988,129.318058 16.3712763,126.995509 C16.3712763,126.365226 16.4563219,125.734943 16.5073492,125.096026 C16.6809723,123.20767 16.7547844,121.311224 16.7284678,119.414846 C16.2919004,119.397578 15.8666725,119.388944 15.4527839,119.388944 L15.4442793,119.388944 Z" id="Shape" fill="#000000" fill-rule="nonzero"></path>
                <path d="M3.0195,129.3325 C4.14946114,129.082595 5.17991461,128.50316 5.9805,127.6675" id="Path" fill="#C6B198"></path>
                <path d="M2.97991236,130.067625 C2.64580499,130.054691 2.36585191,129.810711 2.30737483,129.481507 C2.24889776,129.152303 2.42769872,128.826834 2.73691236,128.699625 L3.21391236,128.528625 C4.04597405,128.338492 4.80167042,127.902634 5.38291236,127.277625 C5.52238715,127.045112 5.78196195,126.912166 6.05214764,126.934864 C6.32233333,126.957561 6.55608963,127.131951 6.65481771,127.384475 C6.75354579,127.636999 6.70005675,127.923691 6.51691236,128.123625 C5.7746427,128.977919 4.78833863,129.584151 3.69091236,129.860625 L3.23191236,130.022625 C3.15138033,130.052943 3.06596042,130.068197 2.97991236,130.067625 Z" id="Path" fill="#000000" fill-rule="nonzero"></path>
                <path d="M19.1182797,46 C-8.1218136,38.4518516 12.1338612,4.31961705 34,18.3460975 L19.1182797,46 Z" id="Path" fill="#6AD7E5"></path>
                <path d="M19.8258364,47 L19.3093052,46.8532425 C12.7133528,45.7095983 7.47057819,40.5767782 6.08271836,33.9040512 C5.43398599,27.069626 8.63924031,20.4505349 14.3556859,16.8197515 C20.572823,12.819069 28.5562326,13.0963028 34.4919365,17.5190078 L35,17.8556868 L19.8258364,47 Z M23.627845,15.3521765 C20.5912225,15.3530867 17.6201715,16.2527803 15.0754426,17.9420148 C9.79311819,21.2766705 6.81807475,27.372844 7.39521577,33.6795986 C8.63935436,39.645697 13.2714371,44.2694107 19.1484184,45.4115659 L33.2471809,18.3304905 C30.3728679,16.4514805 27.0418649,15.4261227 23.627845,15.3694421 L23.627845,15.3521765 Z" id="Shape" fill="#000000" fill-rule="nonzero"></path>
                <path d="M140,15.7672048 C160.941438,0.838843659 179.91438,34.5253104 155.546923,43 L140,15.7672048 Z" id="Path" fill="#6AD7E5"></path>
                <path d="M154.408037,44 L138,15.2704428 L138.502896,14.9161836 C144.084763,10.3859067 151.814839,9.72693039 158.064685,13.2485732 C163.954936,16.7513589 167.396862,23.3184794 166.963381,30.2270935 C166.078312,36.8326833 161.303853,42.2206158 154.919456,43.8185502 L154.408037,44 Z M139.781444,15.6679043 L155.013216,42.3410301 C160.655332,40.7830365 164.835058,35.9611456 165.633691,30.088846 C166.024185,23.7061351 162.836444,17.6442849 157.391316,14.4150364 C151.815304,11.1676042 144.855325,11.6627772 139.781444,15.6679043 Z" id="Shape" fill="#000000" fill-rule="nonzero"></path>
                <path d="M143.775823,217 C149.163897,220.295621 159.025089,230.274727 150.926034,235.113336 C143.165852,242.149025 138.819811,227.390011 132,225.343875 C134.646261,221.121449 138.884717,218.11825 143.775823,217 Z" id="Path" fill="#F6D2A2"></path>
                <path d="M146.091135,238 L145.765889,238 C142.676049,237.81811 140.108314,234.907874 137.626171,232.088583 C135.922529,229.695388 133.608252,227.767458 130.907266,226.491339 L130,226.226772 L130.564902,225.482677 C133.357102,221.194561 137.790106,218.145696 142.898586,217 L143.1468,217 L143.360778,217.124016 C146.844337,219.20748 154.033994,225.29252 153.999879,230.798819 C153.963273,233.01527 152.671867,235.034027 150.636025,236.057087 C149.430841,237.237868 147.806309,237.932346 146.091135,238 L146.091135,238 Z M132.182574,225.598425 C134.720462,227.042314 136.923151,228.975817 138.653265,231.278346 C141.058376,234.006693 143.3351,236.58622 145.85148,236.735039 C147.336177,236.731154 148.752644,236.132361 149.762995,235.081496 L149.865705,235.007087 C151.526761,234.222723 152.596397,232.609113 152.638858,230.823622 C152.638858,226.425197 146.887133,220.902362 142.847231,218.422047 C138.481037,219.400925 134.666441,221.953027 132.182574,225.557087 L132.182574,225.598425 Z" id="Shape" fill="#000000" fill-rule="nonzero"></path>
                <path d="M151.37963,235.956574 C151.113796,235.955494 150.870769,235.806206 150.74963,235.569574 C150.330875,234.690787 149.961304,233.789396 149.64263,232.869574 C149.151709,231.139481 148.271216,229.544742 147.06863,228.207574 C146.838033,227.928759 146.853599,227.521233 147.104793,227.26082 C147.355988,227.000408 147.762689,226.970171 148.04963,227.190574 C149.412952,228.672192 150.41417,230.449739 150.97463,232.383574 C151.276979,233.241769 151.625487,234.082995 152.01863,234.903574 C152.194729,235.254025 152.053785,235.680886 151.70363,235.857574 C151.605332,235.916531 151.494093,235.950521 151.37963,235.956574 L151.37963,235.956574 Z" id="Path" fill="#000000" fill-rule="nonzero"></path>
                <path d="M47,228.384742 C40.5863457,229.353479 36.9754412,235.031121 31.6278635,237.91206 C26.5897919,240.86039 24.6553788,236.968595 24.2083144,236.176757 C23.4173544,235.822958 23.4861335,236.505286 22.2653039,235.334377 C17.5625306,228.073062 27.1228302,222.808187 32.0921227,219.2028 C39.013023,217.829721 43.3547059,223.709533 47,228.384742 Z" id="Path" fill="#F6D2A2"></path>
                <path d="M28.9496684,239.999919 C28.5390731,240.002311 28.1299702,239.951982 27.7331896,239.850178 C26.3009158,239.399496 25.1185263,238.409989 24.4547361,237.106536 L24.2994409,237.106536 C23.7300253,237.106536 23.3072774,236.990139 22.4617815,236.167046 L22.3668789,236.058963 C17.8546915,229.191543 25.5331748,223.978622 30.6234052,220.528284 C31.2618409,220.095952 31.8657666,219.696877 32.4092997,219.297802 L32.5300848,219.214661 L32.6767525,219.214661 C39.8289576,217.817898 44.3497725,223.521348 47.9733264,228.1024 L49,229.39108 L47.8697963,229.557362 C44.2337651,230.398384 40.9248304,232.22793 38.3363985,234.828481 C36.5950071,236.363071 34.6957575,237.722525 32.6681249,238.885746 C31.5538503,239.569884 30.2700464,239.954524 28.9496684,239.999919 L28.9496684,239.999919 Z M24.4029711,235.792913 C24.6777664,235.79319 24.9489991,235.852852 25.1967019,235.967508 L25.3951346,236.058963 L25.5676848,236.349955 C26.058669,237.39333 26.9676498,238.200291 28.0869175,238.58644 C29.4609951,238.832458 30.8799162,238.532596 32.0210617,237.755033 C33.9738574,236.630562 35.8035799,235.318572 37.4822751,233.839107 C40.034072,231.38152 43.1573895,229.54597 46.5929249,228.484847 C43.1419212,224.111647 39.1560119,219.389257 33.1167554,220.4784 C32.5904774,220.844219 32.0210617,221.23498 31.3912536,221.634055 C26.214748,225.15922 19.726861,229.549048 23.4625725,235.335639 C23.9974781,235.851111 24.1268908,235.842797 24.2390484,235.842797 L24.4029711,235.792913 Z" id="Shape" fill="#000000" fill-rule="nonzero"></path>
                <path d="M23.6620729,236.886429 L23.5990729,236.886429 C23.2094511,236.85302 22.9199431,236.51124 22.9510729,236.121429 C23.2416668,234.234321 24.027355,232.457982 25.2280729,230.973429 C25.794155,230.190049 26.2910274,229.358917 26.7130729,228.489429 C26.8887654,228.160835 27.2883396,228.023621 27.6288396,228.174954 C27.9693395,228.326287 28.1352458,228.714826 28.0090729,229.065429 C27.5550545,230.010544 27.0189996,230.914007 26.4070729,231.765429 C25.3476668,233.062026 24.6463913,234.613521 24.3730729,236.265429 C24.3275066,236.6226 24.0221272,236.889324 23.6620729,236.886429 L23.6620729,236.886429 Z" id="Path" fill="#000000" fill-rule="nonzero"></path>
                <path d="M20.2081095,36 C16.3375673,34.0243141 13.4973134,31.3513273 15.8641917,27.0602449 C18.0547144,23.0641743 22.1294578,23.4843428 26,25.4689685 L20.2081095,36 Z" id="Path" fill="#000000" fill-rule="nonzero"></path>
                <path d="M149.79189,33 C153.662433,31.0243141 156.502687,28.3513273 154.135808,24.0602449 C151.945286,20.0641743 147.870542,20.4843428 144,22.4689685 L149.79189,33 Z" id="Path" fill="#000000" fill-rule="nonzero"></path>
                <path d="M174.32179,128.552257 C173.975437,135.860339 166.831905,132.480572 163.593504,130.197902 C160.51962,128.030251 159.619102,129.835153 159.350679,125.552935 C159.072078,122.745953 158.959309,119.924365 159.012985,117.103518 C163.783435,116.614532 168.569158,117.868387 172.520754,120.642541 C174.486308,122.102388 178.15765,126.747355 174.32179,128.605342" id="Path" fill="#F6D2A2"></path>
                <path d="M171.080784,133.99997 C168.456455,133.703499 165.953348,132.718024 163.817838,131.140511 C163.137013,130.658294 162.388771,130.282641 161.598132,130.026111 C160.092814,129.490509 159.548518,129.041293 159.361417,126.086839 C159.361417,125.45621 159.27637,124.834219 159.225343,124.20359 C159.020645,122.059241 158.955302,119.903519 159.029736,117.75044 L159.029736,117.163004 L159.608051,117.111172 C164.453336,116.599525 169.319005,117.865003 173.326004,120.678978 C175.399507,122.122531 176.74311,124.419302 177,126.959353 C176.884963,128.017292 176.242438,128.940804 175.299076,129.404121 C175.341631,131.114374 174.46083,132.711567 173.002828,133.568001 C172.401576,133.854884 171.745061,134.002422 171.080784,133.99997 L171.080784,133.99997 Z M160.339448,118.450179 C160.313131,120.347598 160.386944,122.245086 160.560568,124.13448 C160.611596,124.765109 160.654119,125.395738 160.696642,126.035006 C160.841221,128.358832 161.045332,128.427942 162.031868,128.782131 C162.940209,129.077013 163.800142,129.507938 164.583254,130.060667 C167.185668,131.892083 170.647048,133.317477 172.501056,132.384492 C173.462078,131.900721 173.989364,130.760406 174.07441,128.980822 L174.07441,128.574801 L174.440109,128.402025 C175.108083,128.173663 175.591941,127.581869 175.690288,126.872966 C175.843372,125.231602 173.938337,122.847305 172.560588,121.827932 C168.990971,119.304886 164.676724,118.103339 160.339448,118.424263 L160.339448,118.450179 Z" id="Shape" fill="#000000" fill-rule="nonzero"></path>
                <path d="M173.9805,128.3325 C172.850539,128.082595 171.820085,127.50316 171.0195,126.6675" id="Path" fill="#C6B198"></path>
                <path d="M174.011088,129.022633 C173.930703,129.036759 173.848472,129.036759 173.768088,129.022633 L173.309088,128.860633 C172.211434,128.584698 171.224978,127.978374 170.483088,127.123633 C170.299943,126.923699 170.246454,126.637006 170.345182,126.384483 C170.44391,126.131959 170.677667,125.957569 170.947852,125.934872 C171.218038,125.912174 171.477613,126.04512 171.617088,126.277633 C172.19833,126.902641 172.954026,127.338499 173.786088,127.528633 L174.263088,127.699633 C174.572301,127.826841 174.751102,128.15231 174.692625,128.481515 C174.634148,128.810719 174.354195,129.054699 174.020088,129.067633 L174.011088,129.022633 Z" id="Path" fill="#000000" fill-rule="nonzero"></path>
                <path d="M86.0062068,0 C113.145949,0 138.588386,3.88602931 151.849656,29.9816169 C163.756511,59.2254886 159.52182,90.76838 161.339137,121.676467 C162.899286,148.218133 166.353903,178.877446 154.052725,203.480387 C141.108628,229.352935 108.76553,235.863964 82.1144055,234.911758 C61.1809718,234.165435 35.9014076,227.328425 24.0888476,208.189945 C10.2275199,185.740191 16.7938631,152.352937 17.7968163,127.372546 C18.988359,97.7855366 9.79033515,68.0955864 19.5112663,39.1433813 C29.5922319,9.11887231 56.7662633,2.31617641 86.0147791,0" id="Path" fill="#6AD7E5"></path>
                <path d="M86.349162,236 C84.6399708,236 83.1016987,236 81.7087078,235.914338 C68.8897734,235.45176 37.4748383,231.89677 23.3141888,208.913539 C12.1446239,190.787368 14.1358317,165.731107 15.8877528,143.621633 C16.3321425,138.062142 16.7423484,132.802468 16.9474513,127.834047 C17.1469595,117.348377 16.6988646,106.86038 15.6057362,96.4301996 C12.6991238,77.4579942 13.746667,58.087858 18.6822805,39.5417786 C22.816635,26.1780665 32.3700283,15.1749113 45.0038257,9.22584392 C57.8175899,3.60956178 71.5773505,0.479015709 85.5543881,0 L85.6056639,0 C112.021215,0 138.334214,3.67491833 151.845371,30.3073684 L151.845371,30.3587659 C153.270194,34.6511041 155.076597,38.9433845 156.175719,43.2975487 C160.595745,60.8074518 161.818679,78.8048393 160.767349,96.8499456 C160.810079,105.150635 160.861355,113.742577 161.348474,122.137495 C161.493755,124.707368 161.664674,127.277241 161.835594,129.847114 C163.40805,154.183811 165.185608,181.775681 154.016044,204.142142 C140.094681,232.076661 104.953709,236 86.349162,236 Z M85.6313017,1.34490018 C57.4809218,3.58068966 30.0825861,9.80834846 19.938536,39.9700907 C15.0692346,58.3438413 14.0421651,77.5282633 16.9218135,96.3188385 C18.0109248,106.80653 18.4504599,117.351806 18.2378907,127.894011 C18.0327878,132.896697 17.6225819,138.173503 17.1781922,143.741561 C15.4690009,165.645445 13.4692472,190.470417 24.4080712,208.219673 C38.2354284,230.654664 69.0863304,234.132559 81.7087078,234.578004 C98.1340357,235.169074 137.932554,233.318766 152.793972,203.559637 C163.801164,181.518693 162.032151,154.123848 160.485333,129.958475 C160.314413,127.388603 160.15204,124.767332 159.998213,122.248857 C159.502548,113.819673 159.459818,105.210599 159.417088,96.8927768 C160.720661,74.5434046 157.729515,52.1510713 150.606207,30.9327042 C137.45398,4.93415608 111.602463,1.35346642 85.6313017,1.34490018 Z" id="Shape" fill="#000000" fill-rule="nonzero"></path>
                <path d="M90.0474707,36.9636145 C94.8923668,65.573882 140.970058,58.0398449 134.350974,29.1608143 C128.380152,3.25551756 88.4353486,10.425424 90.0474707,36.9636145" id="Path" fill="#FFFFFF"></path>
                <path d="M111.878166,55.9979474 C108.972066,56.0086871 106.08447,55.5395737 103.334004,54.6098789 C95.6948694,52.1064999 90.1529581,45.5227441 89.0389623,37.6274596 L89.0389623,37.558913 C88.3230508,25.2616762 97.5554745,14.607344 109.93238,13.4476476 C121.421435,11.085565 132.69565,18.3022619 135.244895,29.6503494 C137.312377,36.8942963 135.057182,44.6733146 129.424833,49.7259339 C124.533365,53.8492522 118.299941,56.0773746 111.878166,55.9979474 Z M90.3448009,37.4475247 C91.4038104,44.852943 96.6026462,51.0261476 103.766401,53.3846085 C112.275647,56.2115579 121.656002,54.4598093 128.542743,48.7577132 C133.826612,44.0105709 135.929137,36.7012061 133.965,29.9073991 C131.531757,19.2288358 120.888142,12.4707751 110.079395,14.7414646 C98.4174134,15.837108 89.707703,25.8582518 90.3448009,37.4475247 Z" id="Shape" fill="#000000" fill-rule="nonzero"></path>
                <path d="M35.5289846,41.1934151 C41.8564364,66.1438152 81.4545926,59.7262635 79.9587004,34.7325016 C78.1705075,4.76080093 29.4680423,10.5452698 35.5203875,41.1934151" id="Path" fill="#FFFFFF"></path>
                <path d="M57.2211901,57.9988815 C53.2226752,58.0375761 49.2773493,57.0717424 45.7401137,55.1882621 C40.6328514,52.3874927 36.9548374,47.5149321 35.633352,41.799023 L35.633352,41.799023 C33.6516826,33.9134047 36.4069962,25.5849662 42.6841841,20.4865961 C50.2329332,14.672737 60.2826073,13.3772421 69.0351751,17.0897126 C76.1830479,20.2431718 80.8528732,27.3180018 80.9857379,35.1949296 C81.3980107,46.738934 72.8246164,56.6043525 61.4380316,57.6885063 C60.0424683,57.9018464 58.6326323,58.0056156 57.2211901,57.9988815 Z M36.8625528,41.4972694 C39.6753882,52.304364 50.4755569,58.9035052 61.2587732,56.4038981 C71.9934253,55.4055421 80.0967548,46.1286122 79.7394649,35.2466588 C79.6282775,27.8388478 75.2436253,21.1792064 68.5230081,18.2105117 C60.2025548,14.6775172 50.6468289,15.9073648 43.4695068,21.4349647 C37.5705945,26.240861 34.9889218,34.080223 36.8625528,41.4972694 L36.8625528,41.4972694 Z" id="Shape" fill="#000000" fill-rule="nonzero"></path>
                <path d="M95.6435545,70.6886887 C96.0651746,74.5589961 96.1128745,78.4581725 95.78605,82.3368368 C94.8063937,84.0980981 92.891611,84.2852853 91.2440072,85 C88.9607816,84.6573942 87.0244966,83.2128855 86.1230767,81.1796797 C85.877476,76.7841699 85.9995788,72.3769426 86.4882213,68 L95.6435545,70.6886887 Z" id="Path" fill="#FFFFFF"></path>
                <path d="M91.7901614,86 L91.5945828,86 C89.1782599,85.6289027 87.1338964,84.0687016 86.1949102,81.8791209 L86.1949102,81.7967033 L86.1949102,81.706044 C85.9115657,78.7908483 85.9372099,75.8551827 86.271441,72.9450549 C86.3819854,71.6016484 86.4925299,70.217033 86.535047,68.8241758 L86.535047,68 L96.5775877,70.9835165 L96.5775877,71.4615385 C96.5775877,72.6318681 96.6796287,73.8434066 96.7816698,75.1208791 C97.094001,77.6931032 97.0711456,80.2931972 96.7136424,82.8598901 L96.7136424,82.9587912 L96.6626219,83.0494505 C95.880989,84.2998649 94.6115695,85.1914283 93.1422054,85.521978 C92.7425446,85.6620879 92.3683941,85.7857143 92.002747,85.9505495 L91.7901614,86 Z M87.46192,81.4587912 C88.2192398,83.120652 89.7704005,84.3160014 91.6115896,84.6565934 C91.9602299,84.5164835 92.3173736,84.3928571 92.6575104,84.2692308 C93.7644748,84.0465096 94.7430267,83.425016 95.3956121,82.5302198 C95.6994703,80.102305 95.6994703,77.647695 95.3956121,75.2197802 C95.3105779,74.0906593 95.2255437,73.010989 95.2000334,71.9230769 L87.7595397,69.7142857 C87.7000158,70.8351648 87.6149815,71.9478022 87.5299473,73.010989 C87.2060503,75.8168389 87.1775588,78.6473505 87.4449131,81.4587912 L87.46192,81.4587912 Z" id="Shape" fill="#000000" fill-rule="nonzero"></path>
                <ellipse id="Oval" fill="#000000" fill-rule="nonzero" cx="47" cy="37.5" rx="7" ry="7.5"></ellipse>
                <ellipse id="Oval" fill="#FFFFFF" fill-rule="nonzero" cx="49.5" cy="40" rx="1.5" ry="2"></ellipse>
                <ellipse id="Oval" fill="#000000" fill-rule="nonzero" cx="101.5" cy="35.5" rx="6.5" ry="7.5"></ellipse>
                <ellipse id="Oval" fill="#FFFFFF" fill-rule="nonzero" cx="104.5" cy="38" rx="1.5" ry="2"></ellipse>
                <path d="M77.9057075,70.5322306 C74.9326709,77.5881409 79.5632412,91.7085455 87.6404292,81.2963566 C87.3985776,76.8619343 87.5188165,72.4156908 88,68 L77.9057075,70.5322306 Z" id="Path" fill="#FFFFFF"></path>
                <path d="M81.2870893,85 C80.5601882,84.9967446 79.8471424,84.818752 79.2201713,84.4840499 C75.0946241,80.6816808 73.8667329,75.0035518 76.1015029,70.0624133 L76.2386878,69.7628294 L88,67 L88,67.8321775 C87.9542717,69.2468793 87.8262326,70.6615811 87.707339,71.9930652 C87.3520047,74.8424729 87.3213563,77.7176724 87.6158825,80.5728155 L87.6158825,80.8391123 L87.442115,81.0554785 C85.0185165,84.0596394 82.9241615,85 81.2870893,85 Z M77.2995837,70.852982 C75.5204473,75.1329115 76.5389176,79.9595895 79.9335324,83.3356449 C82.1101982,84.4674064 84.5063598,82.5034674 86.1617234,80.5478502 C85.8976249,77.6911224 85.937441,74.8178603 86.2806169,71.9680999 C86.3720734,70.8945908 86.46353,69.7961165 86.5275496,68.7059639 L77.2995837,70.852982 Z" id="Shape" fill="#000000" fill-rule="nonzero"></path>
                <path d="M78.6711025,56.7032356 C75.9613818,56.9613467 73.5395088,58.5242756 72.162722,60.9033467 C70.7859353,63.2824177 70.6222597,66.187286 71.7228711,68.7096963 C75.4043335,75.4676184 83.6304978,68.1093732 88.7591558,68.8040327 C94.6833482,68.9240973 99.4904072,75.1245767 104.221298,69.9274944 C109.485366,64.1472412 101.953179,58.5127807 96.0628388,56 L78.6711025,56.7032356 Z" id="Path" fill="#F6D2A2"></path>
                <path d="M99.3065603,73 C97.3858613,72.8527963 95.5128491,72.3426677 93.7918403,71.4980257 C91.9374491,70.5993026 89.9269134,70.0471764 87.8641615,69.8701876 L87.7867318,69.8701876 C85.675756,69.8715498 83.5886945,70.3061029 81.6611769,71.1456071 C77.436953,72.5720632 72.6449108,74.1831194 69.9606789,69.4674235 C68.6382065,67.0538276 68.6837237,64.1460479 70.0811252,61.7729516 C71.5523574,58.9802785 74.3585014,57.0906106 77.5573993,56.7384008 L77.5573993,56.7384008 L95.4264687,56 L95.5641216,56.0587364 C100.012032,57.8879566 105.07938,61.2359329 105.948314,65.1461007 C106.184057,67.0541866 105.606792,68.9730434 104.351375,70.4544074 C103.095957,71.9357715 101.272348,72.8498908 99.3065603,72.9832182 L99.3065603,73 Z M87.9243847,68.5863771 C90.1478346,68.7642437 92.3167178,69.350731 94.316642,70.3149062 C97.6977418,71.6994077 100.338957,72.790227 103.100619,69.8953603 C104.352608,68.7700691 104.929925,67.099854 104.632008,65.4649556 C103.88352,62.1085884 99.1086842,59.0123396 95.1683695,57.3761106 L77.6520357,58.0557749 C74.922548,58.3909023 72.5361191,60.0126347 71.2683816,62.3938796 C70.0918767,64.3743381 70.0431195,66.8059056 71.139332,68.8297137 C73.2729522,72.5972359 77.1616472,71.2966436 81.2052016,69.9205331 C83.3194426,69.0064973 85.6120242,68.551284 87.9243847,68.5863771 L87.9243847,68.5863771 Z" id="Shape" fill="#231F20" fill-rule="nonzero"></path>
                <path d="M78.0064217,56.3912097 C77.6199712,46.4112143 94.7964622,45.1808039 96.8520499,53.5202521 C98.9076376,61.8597003 78.8779909,63.8010145 78.0310888,56.4003238 L78.0064217,56.3912097 Z" id="Path" fill="#000000" fill-rule="nonzero"></path>
            </g>
        </g>
    </g>
</svg>