<?xml version="1.0" encoding="UTF-8"?>
<svg width="241px" height="242px" viewBox="0 0 241 242" version="1.1" xmlns="http://www.w3.org/2000/svg" xmlns:xlink="http://www.w3.org/1999/xlink">
    <title>gocd</title>
    <g id="Page-1" stroke="none" stroke-width="1" fill="none" fill-rule="evenodd">
        <g id="gocd" transform="translate(0.625, 0.4918)">
            <rect id="box" x="0" y="-5.68434189e-14" width="240" height="240"></rect>
            <path d="M48.419027,240.704114 C44.5235862,240.704114 40.6281453,239.772596 37.0714384,237.824875 C29.2805566,233.675384 24.3689137,225.545768 24.3689137,216.654001 L24.3689137,120.707598 C24.3689137,107.412289 35.1237179,96.7421681 48.3343435,96.7421681 C61.5449692,96.7421681 72.2997734,107.496972 72.2997734,120.707598 L72.2997734,171.85643 L149.023022,120.707598 L35.1237179,44.6618171 C24.1148632,37.2943528 21.1509408,22.3900572 28.4337216,11.3812025 C35.8011859,0.37234784 50.7054815,-2.59157458 61.7143362,4.69120622 L205.760966,100.722292 C212.450962,105.210518 216.431086,112.662666 216.431086,120.707598 C216.431086,128.75253 212.450962,136.204678 205.760966,140.692903 L61.7990197,236.72399 C57.7342118,239.349178 53.0766194,240.704114 48.419027,240.704114 Z" id="Path" fill="#FFFFFF" fill-rule="nonzero"></path>
        </g>
    </g>
</svg>