<?xml version="1.0" encoding="UTF-8"?>
<svg width="240px" height="240px" viewBox="0 0 240 240" version="1.1" xmlns="http://www.w3.org/2000/svg" xmlns:xlink="http://www.w3.org/1999/xlink">
    <title>googlecolab</title>
    <g id="Page-1" stroke="none" stroke-width="1" fill="none" fill-rule="evenodd">
        <g id="googlecolab">
            <rect id="ViewBox" x="0" y="0" width="240" height="240"></rect>
            <path d="M169.569375,49.56375 C130.666875,49.56375 99.13125,81.10125 99.13125,120.001875 C99.13125,158.904375 130.66875,190.4325 169.569375,190.4325 C208.464375,190.4325 240,158.904375 240,120 C240,81.095625 208.4625,49.561875 169.569375,49.561875 L169.569375,49.56375 Z M169.569375,153.909375 C150.834375,153.909375 135.654375,138.729375 135.654375,120.001875 C135.654375,101.266875 150.834375,86.086875 169.569375,86.086875 C188.296875,86.086875 203.476875,101.266875 203.476875,120.001875 C203.476875,138.729375 188.296875,153.909375 169.569375,153.909375" id="Shape" fill="#FFB300" fill-rule="nonzero"></path>
            <path d="M94.644375,143.745 L94.644375,143.73 C88.2784765,150.248777 79.5496036,153.920178 70.438125,153.91125 C51.703125,153.91125 36.523125,138.729375 36.523125,120.001875 C36.523125,101.266875 51.703125,86.086875 70.438125,86.086875 C79.985625,86.086875 88.599375,90.043125 94.7625,96.3975 L114.32625,64.965 C102.283125,55.351875 87.043125,49.56375 70.438125,49.56375 C31.535625,49.56375 4.26325641e-14,81.10125 4.26325641e-14,120.001875 C4.26325641e-14,158.904375 31.5375,190.4325 70.438125,190.4325 C86.94,190.4325 102.091875,184.711875 114.099375,175.2075 L94.644375,143.745 Z" id="Path" fill="#FFB300" fill-rule="nonzero"></path>
            <path d="M36.523125,120 C36.523125,110.67375 40.291875,102.23625 46.378125,96.103125 L21.046875,69.819375 C8.06625,82.59 0,100.348125 0,120 C0,139.55625 7.98375,157.24875 20.8575,170.01375 L46.599375,144.1125 C40.1442116,137.75064 36.5138779,129.06324 36.523125,120 M193.725,96.21375 C199.981552,102.549424 203.485875,111.097655 203.476875,120.001875 C203.476875,138.729375 188.296875,153.909375 169.569375,153.909375 C160.036875,153.909375 151.44375,149.971875 145.2825,143.641875 L119.19375,169.185 C131.986875,182.28 149.8125,190.4325 169.5675,190.4325 C208.464375,190.4325 240,158.904375 240,120 C240,100.771875 232.280625,83.37375 219.804375,70.66875 L193.725,96.21375 Z" id="Shape" fill="#F57A00" fill-rule="nonzero"></path>
        </g>
    </g>
</svg>