<?xml version="1.0" encoding="UTF-8"?>
<svg width="240px" height="240px" viewBox="0 0 240 240" version="1.1" xmlns="http://www.w3.org/2000/svg" xmlns:xlink="http://www.w3.org/1999/xlink">
    <title>google-calendar</title>
    <g id="Page-1" stroke="none" stroke-width="1" fill="none" fill-rule="evenodd">
        <g id="google-calendar" transform="translate(0, 0)">
            <rect id="ViewBox" x="0" y="0" width="240" height="240"></rect>
            <polygon id="Path" fill="#FFFFFF" fill-rule="nonzero" points="183.1575 56.8425 56.8425 56.8425 56.8425 183.1575 183.1575 183.1575"></polygon>
            <polygon id="Path" fill="#EA4335" fill-rule="nonzero" points="183.1575 240 240 183.1575 211.57875 178.30875 183.1575 183.1575 177.970313 209.154375"></polygon>
            <path d="M0,183.1575 L0,221.052188 C0,231.52125 8.47875,240 18.946875,240 L56.8425,240 L62.6784375,211.57875 L56.8425,183.1575 L25.8740625,178.30875 L0,183.1575 Z" id="Path" fill="#188038" fill-rule="nonzero"></path>
            <path d="M240,56.8425 L240,18.946875 C240,8.47875 231.52125,0 221.053125,0 L183.1575,0 C179.7,14.09625 177.970938,24.47 177.970313,31.12125 C177.970313,37.771875 179.699375,46.345625 183.1575,56.8425 C195.729375,60.4425 205.203125,62.2425 211.57875,62.2425 C217.954375,62.2425 227.428125,60.4421875 240,56.8415625" id="Path" fill="#1967D2" fill-rule="nonzero"></path>
            <polygon id="Path" fill="#FBBC04" fill-rule="nonzero" points="240 56.8425 183.1575 56.8425 183.1575 183.1575 240 183.1575"></polygon>
            <polygon id="Path" fill="#34A853" fill-rule="nonzero" points="183.1575 183.1575 56.8425 183.1575 56.8425 240 183.1575 240"></polygon>
            <path d="M183.1575,0 L18.9478125,0 C8.47875,0 0,8.47875 0,18.946875 L0,183.1575 L56.8425,183.1575 L56.8425,56.8425 L183.1575,56.8425 L183.1575,0 Z" id="Path" fill="#4285F4" fill-rule="nonzero"></path>
            <path d="M82.753125,154.831875 C78.031875,151.6425 74.7628125,146.985 72.97875,140.825625 L83.9371875,136.310625 C84.9309375,140.1 86.6678125,143.036875 89.1478125,145.12125 C91.610625,147.205313 94.610625,148.231875 98.1159375,148.231875 C101.699687,148.231875 104.778437,147.142188 107.352187,144.962813 C109.926562,142.784063 111.22125,140.005313 111.22125,136.6425 C111.22125,133.2 109.863437,130.389375 107.147812,128.210625 C104.431875,126.031875 101.02125,124.9425 96.9478125,124.9425 L90.6159375,124.9425 L90.6159375,114.095625 L96.3,114.095625 C99.805,114.095625 102.7575,113.147813 105.1575,111.252188 C107.5575,109.358438 108.7575,106.768125 108.7575,103.468125 C108.7575,100.531875 107.684062,98.1946875 105.537187,96.4425 C103.390312,94.689375 100.673437,93.8053125 97.3734375,93.8053125 C94.1521875,93.8053125 91.5946875,94.6584375 89.7,96.37875 C87.8058877,98.1040345 86.3821231,100.283075 85.5628125,102.710625 L74.7159375,98.1946875 C76.1521875,94.12125 78.789375,90.52125 82.6575,87.410625 C86.525625,84.3 91.468125,82.7371875 97.468125,82.7371875 C101.905312,82.7371875 105.9,83.5903125 109.437187,85.310625 C112.973437,87.031875 115.752187,89.4159375 117.7575,92.4478125 C119.76375,95.4946875 120.7575,98.9053125 120.7575,102.694688 C120.7575,106.562813 119.826562,109.831875 117.96375,112.515938 C116.100937,115.2 113.810625,117.252188 111.094687,118.689375 L111.094687,119.33625 C114.601496,120.78225 117.647629,123.157119 119.905312,126.205313 C122.194687,129.284063 123.347812,132.962813 123.347812,137.258438 C123.347812,141.552188 122.2575,145.389375 120.07875,148.752188 C117.9,152.115938 114.885,154.768125 111.062812,156.694688 C107.226562,158.62125 102.915937,159.601042 98.131875,159.601042 C92.589375,159.615938 87.4734375,158.02125 82.7521875,154.831875 M150.061875,100.452188 L138.030937,109.152188 L132.015,100.026563 L153.599062,84.4575 L161.8725,84.4575 L161.8725,157.894688 L150.061875,157.894688 L150.061875,100.452188 Z" id="Shape" fill="#4285F4" fill-rule="nonzero"></path>
        </g>
    </g>
</svg>