<?xml version="1.0" encoding="UTF-8"?>
<svg width="240px" height="240px" viewBox="0 0 240 240" version="1.1" xmlns="http://www.w3.org/2000/svg" xmlns:xlink="http://www.w3.org/1999/xlink">
    <title>google-home</title>
    <g id="Page-1" stroke="none" stroke-width="1" fill="none" fill-rule="evenodd">
        <g id="google-home" transform="translate(-0.0004, 0)">
            <rect id="ViewBox" x="0.00036084977" y="0" width="240" height="240"></rect>
            <g id="shape" transform="translate(0, 0.0004)" fill-rule="nonzero">
                <path d="M179.992487,187.999573 C180.015164,196.6016 183.003986,205.397547 183.000361,213.999573 C182.997636,222.730575 180.001558,231.267657 180.027863,239.999573 C137.023303,239.99317 94.016021,239.999573 51.0114605,239.995914 C51.0323232,231.412182 47.0039905,222.582391 47.0003608,213.999573 C46.997641,205.250277 51.0187171,196.74887 51.0368586,187.999573 C94.0232777,188.013294 137.006068,188.003232 179.992487,187.999573" id="Path" fill="#3BAB59"></path>
                <path d="M130.665352,46.1346755 C136.635044,40.1711803 146.165158,37.0302065 152.065961,30.9995732 C176.516678,55.6238276 201.070726,80.1519113 225.579454,104.725358 C227.787496,107.000795 230.479568,109.094778 231.341575,112.305611 C232.18364,114.395058 231.926217,116.671402 231.964286,118.867906 C231.967912,154.84757 231.960661,190.823605 231.969725,226.799639 C232.512671,233.899038 225.750768,240.530285 218.688839,239.965963 C205.933677,239.965963 193.181235,239.969592 180.425167,239.965963 C180.373501,222.774076 180.434231,205.582189 180.390723,188.390302 C180.421541,169.489116 180.404319,150.591559 180.397974,131.69491 C164.478495,115.784997 148.593461,99.840609 132.683953,83.9234387 C127.134841,78.3201302 121.498713,72.7984762 116.000361,67.1479896 C119.015118,64.2592373 127.546356,49.2493384 130.666259,46.1337682" id="Path" fill="#4586F7"></path>
                <path d="M51.9592315,131.999573 C52.0314364,150.838604 51.9519196,169.681258 52.0003608,188.5221 C51.9656294,205.682163 52.0177266,222.83951 51.9765972,239.999573 C38.4422877,239.993234 24.9079782,240.003196 11.3736686,239.993234 C5.7215772,239.289589 0.744007671,234.575077 0.024700432,228.929616 C-0.0209988843,213.788117 0.0109906371,198.644808 0.0146465824,183.50512 C9.03294966,174.652958 14.6594495,163.156467 23.646677,154.272609 C31.9721785,145.988253 43.6721174,140.321964 51.9592315,131.999573" id="Path" fill="#FDC00D"></path>
                <path d="M115.256756,0.0227043789 C116.365422,0.160342928 117.684229,-0.276116156 118.668804,0.34506835 C121.345365,0.866646011 123.692224,2.41417418 125.574421,4.34564145 C133.570589,12.3576539 141.574003,20.3624221 149.578323,28.3671904 C150.380838,29.2247148 151.317408,29.962711 152.000361,30.9298029 C143.022335,40.0936326 133.875834,49.0908473 124.832592,58.1903853 C121.86709,61.1206376 118.973144,64.1260478 115.960542,67.0083077 C111.986008,70.751714 108.225237,74.7142554 104.332222,78.5436858 C86.7257984,96.2030739 69.0577818,113.79817 51.4921176,131.498307 C43.2794699,139.820006 34.9671871,148.047531 26.7155911,156.330293 C17.8100267,165.213413 8.95156255,174.148147 0.0142960893,182.999573 C-0.0165002074,163.590727 0.0142960893,144.180069 0.00795567525,124.773939 C0.0287884642,121.110218 -0.0509195979,117.445592 0.0758886827,113.784588 C0.0396577454,113.042064 0.59761418,112.456195 0.56319479,111.715482 C1.08220297,110.844375 1.54505319,109.937952 2.04956899,109.059601 C3.31946335,107.371718 4.89822644,105.958206 6.37101404,104.452332 C39.6862667,71.0777 73.0114828,37.7103125 106.336699,4.34201939 C107.699888,2.91130288 109.260536,1.6109808 111.159037,0.962630789 C112.490524,0.517116537 113.808424,-0.131233473 115.256756,0.0227043789" id="Path" fill="#EC5043"></path>
            </g>
        </g>
    </g>
</svg>