<?xml version="1.0" encoding="UTF-8"?>
<svg width="240px" height="241px" viewBox="0 0 240 241" version="1.1" xmlns="http://www.w3.org/2000/svg" xmlns:xlink="http://www.w3.org/1999/xlink">
    <title>google-play</title>
    <g id="Page-1" stroke="none" stroke-width="1" fill="none" fill-rule="evenodd">
        <g id="google-play" transform="translate(-0.0003, -6.0001)">
            <rect id="ViewBox" x="0" y="7" width="240" height="240"></rect>
            <g id="shape" transform="translate(11, 6)" fill-rule="nonzero">
                <path d="M102.159019,115.000057 L1.00029003,220.167283 C3.30239228,228.262724 9.24611744,234.847781 17.1024586,238.006885 C24.9587998,241.165989 33.8455612,240.544402 41.1776179,236.322941 L155.00029,171.996805 L102.159019,115.000057 Z" id="Path" fill="#EA4335"></path>
                <path d="M203.782018,97.0580629 L154.487504,69.0000575 L99.00029,117.386183 L154.713222,172.000057 L203.632394,144.242819 C212.465235,139.646757 218.00029,130.557919 218.00029,120.650016 C218.00029,110.742113 212.465235,101.653276 203.632394,97.0572133 L203.782018,97.0580629 Z" id="Path" fill="#FBBC04"></path>
                <path d="M0.900926721,20.0000575 C0.292913824,22.2481151 -0.00992382726,24.5676775 0.000290029182,26.8964043 L0.000290029182,213.102862 C0.00655649821,215.430806 0.309114415,217.748511 0.900926721,220.000057 L105.00029,117.301118 L0.900926721,20.0000575 Z" id="Path" fill="#4285F4"></path>
                <path d="M102.763351,120.000057 L155.00029,68.6250214 L41.4954687,3.82501556 C37.2248883,1.33301291 32.3678016,0.013245193 27.4188249,5.74971821e-05 C15.1374583,-0.0236739672 4.34022161,8.0984115 1.00029003,19.8755204 L102.763351,120.000057 Z" id="Path" fill="#34A853"></path>
            </g>
        </g>
    </g>
</svg>