<?xml version="1.0" encoding="UTF-8"?>
<svg width="240px" height="240px" viewBox="0 0 240 240" version="1.1" xmlns="http://www.w3.org/2000/svg" xmlns:xlink="http://www.w3.org/1999/xlink">
    <title>google-maps</title>
    <g id="Page-1" stroke="none" stroke-width="1" fill="none" fill-rule="evenodd">
        <g id="google-maps">
            <rect id="ViewBox" x="0" y="0" width="240" height="240"></rect>
            <g id="shape" transform="translate(37, 0)" fill-rule="nonzero">
                <path d="M46,177.825518 C52.9262772,186.674905 59.2305182,195.996265 64.8671352,205.722194 C69.6793608,214.86931 71.6854337,221.071842 75.2022609,232.09326 C77.3590829,238.182614 79.3083802,240 83.4993366,240 C88.066187,240 90.1381719,236.90822 91.7389841,232.126624 C95.0632962,221.718198 97.671713,213.774822 101.786969,206.26911 C109.862163,191.778435 119.896443,178.901688 129.755827,166.526063 C132.424936,163.023441 149.682122,142.618084 157.45125,126.517407 C157.45125,126.517407 167,108.830933 167,84.1300563 C167,61.0247894 157.583074,45 157.583074,45 L130.47107,52.2787021 L114.006132,95.7513814 L109.932643,101.745876 L109.118206,102.831859 L108.0349,104.1913 L106.133242,106.362612 L103.415842,109.086073 L88.7540207,121.06067 L52.0978351,142.277897 L46,177.825518 Z" id="Path" fill="#34A853"></path>
                <path d="M8,123.571152 C16.9582571,144.106492 34.2330754,162.158284 45.920827,178 L108,104.199218 C108,104.199218 99.2541168,115.678494 83.389461,115.678494 C65.7179936,115.678494 51.4418945,101.516304 51.4418945,83.6586316 C51.4418945,71.4127147 58.7828428,63 58.7828428,63 L16.6419834,74.3323753 L8,123.571152 Z" id="Path" fill="#FBBC04"></path>
                <path d="M108.974589,4 C129.628719,10.6273184 147.30701,24.5405828 158,45.0570615 L108.299036,104 C108.299036,104 115.65288,95.4919121 115.65288,83.40274 C115.65288,65.2504153 100.293859,51.6895916 83.7015592,51.6895916 C68.0113068,51.6895916 59,63.0738823 59,63.0738823 L59,25.9405737 L108.974589,4 Z" id="Path" fill="#4285F4"></path>
                <path d="M20,29.8727154 C32.2772324,15.1553525 53.8804708,0 83.6637533,0 C98.1136878,0 109,3.80091384 109,3.80091384 L59.2682507,63 L24.0326914,63 L20,29.8727154 Z" id="Path" fill="#1A73E8"></path>
                <path d="M8.23738833,124 C8.23738833,124 0,107.779357 0,84.2805061 C0,62.0708741 8.58616452,42.6570668 19.6039653,30 L59,63.3364494 L8.23738833,124 Z" id="Path" fill="#EA4335"></path>
            </g>
        </g>
    </g>
</svg>