<?xml version="1.0" encoding="UTF-8"?>
<svg width="240px" height="240px" viewBox="0 0 240 240" version="1.1" xmlns="http://www.w3.org/2000/svg" xmlns:xlink="http://www.w3.org/1999/xlink">
    <title>google-gmail</title>
    <g id="Page-1" stroke="none" stroke-width="1" fill="none" fill-rule="evenodd">
        <g id="google-gmail" transform="translate(0, -0.0001)">
            <rect id="ViewBox" x="0" y="0" width="240" height="240"></rect>
            <g id="shape" transform="translate(0, 30)" fill-rule="nonzero">
                <path d="M54.545625,180.047015 L54.545625,87.3188898 L25.7878125,61.0098273 L0,46.4101398 L0,163.682952 C0,172.737327 7.3359375,180.047015 16.3640625,180.047015 L54.545625,180.047015 Z" id="Path" fill="#4285F4"></path>
                <path d="M185.454375,180.047015 L223.635937,180.047015 C232.69125,180.047015 240,172.71014 240,163.682952 L240,46.4110773 L210.79125,63.1332648 L185.454375,87.3188898 L185.454375,180.047015 Z" id="Path" fill="#34A853"></path>
                <polygon id="Path" fill="#EA4335" points="54.545625 87.3188898 50.6325 51.0873273 54.545625 16.4101398 120 65.5013898 185.454375 16.4101398 189.831562 49.2151398 185.454375 87.3188898 120 136.41014"></polygon>
                <path d="M185.454375,16.4101398 L185.454375,87.3188898 L240,46.4101398 L240,24.5917023 C240,4.35576483 216.9,-7.18017267 200.728125,4.95576483 L185.454375,16.4101398 Z" id="Path" fill="#FBBC04"></path>
                <path d="M0,46.4101398 L25.0865625,65.2257648 L54.545625,87.3188898 L54.545625,16.4101398 L39.271875,4.95576483 C23.071875,-7.18111017 0,4.35576483 0,24.5907648 L0,46.4101398 Z" id="Path" fill="#C5221F"></path>
            </g>
        </g>
    </g>
</svg>