<?xml version="1.0" encoding="UTF-8"?>
<svg width="243px" height="241px" viewBox="0 0 243 241" version="1.1" xmlns="http://www.w3.org/2000/svg" xmlns:xlink="http://www.w3.org/1999/xlink">
    <title>gotify</title>
    <defs>
        <linearGradient x1="77.3863706%" y1="36.9024721%" x2="20.5285222%" y2="59.3715059%" id="linearGradient-1">
            <stop stop-color="#71CAEE" offset="5.152266e-05%"></stop>
            <stop stop-color="#83CAE2" offset="4.104413%"></stop>
            <stop stop-color="#9FCACE" offset="12.06%"></stop>
            <stop stop-color="#B6CBBE" offset="21.07%"></stop>
            <stop stop-color="#C7CBB1" offset="31.39%"></stop>
            <stop stop-color="#D4CBA8" offset="43.84%"></stop>
            <stop stop-color="#DBCBA3" offset="60.58%"></stop>
            <stop stop-color="#DDCBA2" offset="100%"></stop>
        </linearGradient>
        <linearGradient x1="38.2158887%" y1="35.3760386%" x2="64.8480061%" y2="61.798497%" id="linearGradient-2">
            <stop stop-color="#71CAEE" offset="5.152266e-05%"></stop>
            <stop stop-color="#83CAE2" offset="4.104413%"></stop>
            <stop stop-color="#9FCACE" offset="12.06%"></stop>
            <stop stop-color="#B6CBBE" offset="21.07%"></stop>
            <stop stop-color="#C7CBB1" offset="31.39%"></stop>
            <stop stop-color="#D4CBA8" offset="43.84%"></stop>
            <stop stop-color="#DBCBA3" offset="60.58%"></stop>
            <stop stop-color="#DDCBA2" offset="100%"></stop>
        </linearGradient>
    </defs>
    <g id="Page-1" stroke="none" stroke-width="1" fill="none" fill-rule="evenodd">
        <g id="gotify" transform="translate(-109.8001, 54.271)">
            <rect id="box" x="111" y="-54" width="240" height="240"></rect>
            <g id="shape" transform="translate(111, -45)">
                <path d="M163.732275,191.493023 C168.280268,190.243597 175.322323,191.493023 178.036449,193.844882 C182.070959,197.372671 181.630831,209.205463 178.843351,215.158607 C178.256513,216.408032 177.522965,217.657458 176.495999,218.392414 C175.469033,219.12737 174.001938,219.274361 173.048326,218.392414 C172.094715,217.510466 171.801296,215.967059 171.654586,214.570642 C171.507877,212.292279 171.507877,210.013915 171.874651,207.809047 C172.02136,206.853604 172.02136,205.677674 171.727941,204.722231 C171.287813,203.105328 169.894073,202.443868 168.426978,202.149885 C165.932917,201.56192 157.93725,201.635416 154.122804,201.635416 C153.535966,201.635416 155.223125,194.947316 155.589899,194.506342 C157.497122,192.37497 161.091504,192.227979 163.732275,191.493023 Z" id="Path" stroke="#000000" stroke-width="2" fill="#DDCBA2" fill-rule="nonzero" stroke-linecap="round"></path>
                <path d="M121,3.93613987 C118.792345,3.26020897 116.58469,2.58427806 114.377035,1.90834716 C110.991964,0.856899084 107.606893,-0.194548989 104.074645,0.0307613123 C102.014168,0.18096818 99.5857471,1.00710595 98.9970391,3.03489866 C98.5555082,4.53696734 97.8196232,8.51744933 98.0403887,8.96806994 C99.1442161,11.5215867 108.26919,14 111.507084,14" id="Path" stroke="#000000" stroke-width="2" fill="#71CAEE" fill-rule="nonzero" stroke-linecap="round"></path>
                <path d="M217.936555,46.9426148 C216.891225,47.9703768 216.293893,49.5120198 216.069894,50.9802512 C215.920561,52.0080132 215.995228,53.1825983 216.443226,54.1369487 C216.891225,55.0912992 217.787222,55.8254149 218.757886,56.3392959 C219.728549,56.7797653 220.848546,57 221.968543,57 C222.789873,57 223.685871,56.9265884 224.283202,56.3392959 C224.731201,55.8254149 224.880534,55.1647107 224.9552,54.5040066 C225.104533,52.8155405 224.880534,51.0536628 224.283202,49.4386082 C223.984536,48.6310809 223.611204,47.7501421 222.939206,47.1628495 C221.669877,45.8414413 219.579217,45.547795 218.160554,46.7957917 C218.085888,46.7957917 218.011221,46.8692032 217.936555,46.9426148 Z" id="Path" fill="#000000" fill-rule="nonzero"></path>
                <path d="M193.303704,36.4614283 C192.570497,35.7283507 193.303704,34.4821187 194.036912,33.7490411 C198.289516,29.9370374 205.108345,30.376884 210.020836,33.3091945 C218.012798,38.1475068 221.458873,47.8974392 222.632005,57.1342172 C223.07193,60.9462208 223.291892,64.90484 222.265401,68.6435358 C221.238911,72.3822317 218.892647,75.9010043 215.446571,77.513775 C214.640043,77.8803139 213.760194,78.1735449 212.953666,77.8803139 C212.147138,77.5870828 211.560572,76.5607741 212.073817,75.8276965 C205.181666,65.8578409 198.142874,56.1812163 196.74978,44.1587433 C196.383176,41.153125 195.430006,38.7339689 193.303704,36.4614283 Z" id="Path" stroke="#000000" stroke-width="2" fill="#FFFFFF" fill-rule="nonzero" stroke-linecap="round"></path>
                <path d="M29.9708333,156 C26.3583333,153.693636 22.9583333,151.089677 19.8416667,148.113724 C18.9208333,147.220938 18,146.253754 18,144.914575 C18,144.021789 18.425,143.277801 18.85,142.533812 C19.4166667,141.492229 20.0541667,140.450645 20.6208333,139.483461 C21.4,138.144282 22.675,136.581906 24.0916667,137.102698 C24.7291667,137.325895 25.1541667,137.921085 25.5083333,138.441877 C27.2083333,140.897038 28.9791667,143.3522 30.6791667,145.732962 C31.7416667,147.220938 33.3,148.932111 35,148.336921" id="Path" stroke="#000000" stroke-width="2" fill="#71CAEE" fill-rule="nonzero" stroke-linecap="round"></path>
                <path d="M85.2314358,13.337695 C109.437134,0.200546162 141.954428,-0.967200402 166.52467,6.98807307 C184.241491,12.7538217 198.167059,26.4748439 205.385023,43.4801532 C211.728082,58.5148902 213.04044,75.3012471 211.29063,91.4307465 C208.082646,120.770379 196.563067,148.285407 181.908412,173.610911 C173.815543,187.477901 166.014309,199.885209 152.380376,209.008229 C125.549964,226.962332 88.8039636,225.137728 58.7655669,217.401407 C44.2567296,213.679215 29.820801,204.775147 24.3526463,190.178315 C20.8530273,180.836343 21.2904796,170.034687 25.4462772,160.984651 C33.9036899,142.884579 56.9428486,132.958734 58.6926581,111.428406 C59.2030192,105.078784 57.5261184,98.8021467 56.0679438,92.6714772 C51.985055,75.5931837 49.5790669,59.2447318 57.0886661,42.5313591 C62.9942732,29.6131627 73.0556779,19.9062694 85.2314358,13.337695 Z" id="Path" stroke="#000000" stroke-width="2" fill="#71CAEE" fill-rule="nonzero" stroke-linecap="round"></path>
                <g id="Group" transform="translate(45, 19)" fill="#71CAEE" fill-rule="nonzero" stroke="#000000" stroke-linecap="round" stroke-width="2">
                    <path d="M25,7.75733515 C21.09586,3.97866896 16.3964323,1.3626693 11.2632112,0.272669437 C9.67263563,-0.0906638496 7.86516342,-0.235997164 6.27458787,0.781336039 C4.97320787,1.65333593 4.03332232,3.17933573 3.23803455,4.63266888 C2.08125233,6.8126686 1.06906789,9.13800164 0.273780119,11.4633347 C-0.0154154348,12.3353346 -0.160013212,13.2800011 0.273780119,14.0066677 C0.490676785,14.4426676 0.924470116,14.6606676 1.35826345,14.8786676 C7.21447342,17.9306672 13.5044767,20.0380003 19.79448,22" id="Path"></path>
                    <path d="M20.5897678,13.0620011 C18.7822956,11.7540013 8.44355452,4.26933559 7.06987564,9.57400158 C6.78068009,10.7366681 7.43137008,12.4080012 8.15435897,13.0620011" id="Path"></path>
                </g>
                <path d="M124.42822,44.8338665 C124.063528,45.1963625 123.771774,45.5588585 123.480021,45.9938536 C116.915567,54.40376 114.727416,66.2211284 116.696752,76.5160138 C117.936705,83.0409412 121.000116,89.4933693 126.324617,93.4808249 C140.401723,104.065707 163.887879,103.268216 176.214464,92.393337 C194.011426,76.6610122 185.696452,43.3838827 166.003092,35.2639731 C153.165938,30.0440312 134.129023,34.103986 124.42822,44.8338665 Z" id="Path" stroke="#000000" stroke-width="2" fill="#FFFFFF" fill-rule="nonzero" stroke-linecap="round"></path>
                <g id="Group" transform="translate(205, 89)" fill="#FFFFFF" fill-rule="nonzero" stroke="#000000" stroke-linecap="round" stroke-width="2">
                    <path d="M5.14870569,0.299683834 C6.21238729,0.22748228 7.35204614,0.22748228 8.41572773,0.371885389 C8.6436595,0.371885389 8.94756853,0.444086943 9.1755003,0.660691606 C9.32745481,0.877296269 9.47940933,1.16610249 9.55538658,1.4549087 C10.3151591,4.27076932 9.93527287,7.37543616 9.63136384,10.4079014 C9.55538658,11.0577154 9.47940933,11.7075294 9.1755003,12.2851419 C8.41572773,13.8013745 6.82020534,14.2345838 5.60456923,14.2345838 C5.52859197,14.2345838 5.45261472,14.2345838 5.37663746,14.1623823 C5.14870569,14.0179792 5.14870569,13.6569714 5.22468295,13.2959636 C5.45261472,9.03607191 5.14870569,4.70397865 5.14870569,0.299683834 C5.14870569,0.371885389 5.14870569,0.371885389 5.14870569,0.299683834 Z" id="Path"></path>
                    <path d="M2.56547896,0.0830791714 C1.50179737,0.371885389 0.666047542,1.52711026 0.438115772,3.25994756 C0.0582294885,6.43681595 -0.093725025,9.6858859 0.0582294885,12.9349558 C0.0582294885,13.5847698 0.134206745,14.3067854 0.438115772,14.6677931 C0.590070286,14.8843978 0.818002056,14.9565994 1.04593383,14.9565994 C2.26156993,15.173204 4.16100135,14.52339 5.3006602,14.2345838 C5.3006602,14.2345838 5.3006602,10.480103 5.22468295,8.45845947 C5.14870569,6.43681595 5.14870569,4.05416466 5.07272843,2.03252114 C5.07272843,1.59931181 5.07272843,0.949497823 5.07272843,0.444086943 C5.14870569,-0.0613239372 3.09731976,-0.0613239372 2.56547896,0.0830791714 Z" id="Path"></path>
                </g>
                <path d="M193.066705,86.1463577 C192.849189,87.784479 193.13921,89.6459804 194.299297,91.656402 C196.184438,94.9326446 199.374677,96.1984656 202.927443,95.9750854 C209.380426,95.5283251 221.271315,91.9542422 222.866435,84.2848562 C223.301467,82.0510545 222.648918,79.7427926 221.271315,77.9557512 C216.775979,72.1478667 208.36535,73.7115279 202.709926,76.4665501 C198.432106,78.4769717 193.719254,81.6787542 193.066705,86.1463577 Z" id="Path" stroke="#000000" stroke-width="2" fill="#DDCBA2" fill-rule="nonzero" stroke-linecap="round"></path>
                <path d="M213.157438,69.2352401 C214.70775,70.2381784 215.764781,71.9575012 215.976187,74.2499315 C216.187593,76.8289156 214.989625,79.6228151 212.452751,80.5541149 C210.409159,81.3421378 208.083691,80.9839456 206.040098,80.2675611 C203.996506,79.5511766 201.952913,78.2616846 201.248226,76.1841696 C200.754945,74.7514006 201.03682,73.1037163 201.741507,71.8142243 C202.516663,70.5247322 203.714631,69.5217939 205.053536,68.8770479 C207.801816,67.5875558 210.972908,67.7308327 213.157438,69.2352401 Z" id="Path" stroke="#000000" stroke-width="2" fill="#888E93" fill-rule="nonzero" stroke-linecap="round"></path>
                <path d="M233.786805,108.34789 C235.491926,108.773718 237.197047,109.838289 237.765421,111.470632 C238.333794,113.102974 237.836467,114.94823 236.628673,116.225715 C235.420879,117.5032 233.644711,118 231.93959,118 C231.371216,118 230.731796,117.929029 230.234469,117.645143 C228.458301,116.864458 227.747834,114.806287 227.250507,112.961031 C225.971666,108.134976 229.808189,107.425262 233.786805,108.34789 Z" id="Path" stroke="#000000" stroke-width="2" fill="#DDCBA2" fill-rule="nonzero" stroke-linecap="round"></path>
                <g id="Group" transform="translate(127, 101)" stroke="#000000" stroke-linecap="round" stroke-width="2">
                    <path d="M0.118599701,23.4119396 C1.78602966,20.1252698 102.556797,-3.02749283 105.021693,0.332214045 C107.486589,3.61888382 116.476212,64.7509416 111.546419,66.3577579 C106.616626,68.0376113 24.6950673,93.6005985 19.7652744,91.920745 C14.8354815,90.2408916 -1.54883025,26.6986093 0.118599701,23.4119396 Z" id="Path" fill="#F0F0F0" fill-rule="nonzero"></path>
                    <path d="M19.7652744,91.920745 C19.7652744,91.920745 59.1311207,37.4350639 63.1909502,35.7552105 C67.3232766,34.075357 111.981401,65.9195353 111.981401,65.9195353" id="Path"></path>
                    <path d="M0.0461027464,25.6030527 C0.0461027464,25.6030527 62.3934837,53.9414499 66.4533132,52.3346335 C70.5856396,50.6547801 104.949196,0.332214045 104.949196,0.332214045" id="Path" fill="#F0F0F0" fill-rule="nonzero"></path>
                </g>
                <g id="Group" transform="translate(0, 191)">
                    <path d="M29.093891,0 C26.5224674,2.78435208 23.7306362,5.71524901 19.5428892,6.74106294 C16.163304,7.62033202 12.1959648,6.88760778 9.55107195,5.0557972 C8.52250252,4.32307297 7.64087159,3.44380389 6.61230216,2.71107966 C5.51026349,1.97835543 4.11434785,1.46544846 2.7184322,1.75853816 C0.734762597,2.12490027 -0.293806828,4.02998328 0.0735393953,5.64197659 C1.54292429,12.0899498 12.563311,17.0724746 20.2775817,16.9992022 C26.8898137,16.9992022 34.2367381,13.6286707 36,8.35305625" id="Path" fill="url(#linearGradient-1)" fill-rule="nonzero"></path>
                    <path d="M29.093891,0 C26.5224674,2.78435208 23.7306362,5.71524901 19.5428892,6.74106294 C16.163304,7.62033202 12.1959648,6.88760778 9.55107195,5.0557972 C8.52250252,4.32307297 7.64087159,3.44380389 6.61230216,2.71107966 C5.51026349,1.97835543 4.11434785,1.46544846 2.7184322,1.75853816 C0.734762597,2.12490027 -0.293806828,4.02998328 0.0735393953,5.64197659 C1.54292429,12.0899498 12.563311,17.0724746 20.2775817,16.9992022 C26.8898137,16.9992022 34.2367381,13.6286707 36,8.35305625" id="Path" stroke="#000000" stroke-width="2" stroke-linecap="round"></path>
                </g>
                <g id="Group" transform="translate(115, 124)">
                    <path d="M8.42474966,0 C8.3521225,3.03952361 11.5477172,5.28298152 14.5254304,5.50009035 C17.5031437,5.71719918 20.4808569,4.55928542 23.385943,3.61848049 C24.4027231,3.32900205 25.4921304,3.03952361 26.4362834,3.47374127 C27.7435721,4.12506776 28.3972165,6.44089527 27.7435721,7.74354825 C27.0899278,9.04620123 25.274249,10.2764846 23.8943331,10.9278111 C19.1735682,13.0988994 14.5254304,13.533117 9.44152979,12.3752033 C5.59229072,11.506768 1.23466159,9.26331006 0,2.60530595" id="Path" fill="url(#linearGradient-2)" fill-rule="nonzero"></path>
                    <path d="M8.42474966,0 C8.3521225,3.03952361 11.5477172,5.28298152 14.5254304,5.50009035 C17.5031437,5.71719918 20.4808569,4.55928542 23.385943,3.61848049 C24.4027231,3.32900205 25.4921304,3.03952361 26.4362834,3.47374127 C27.7435721,4.12506776 28.3972165,6.44089527 27.7435721,7.74354825 C27.0899278,9.04620123 25.274249,10.2764846 23.8943331,10.9278111 C19.1735682,13.0988994 14.5254304,13.533117 9.44152979,12.3752033 C5.59229072,11.506768 1.23466159,9.26331006 0,2.60530595" id="Path" stroke="#000000" stroke-width="2" stroke-linecap="round"></path>
                </g>
                <path d="M163.950198,61.0701448 C162.450161,60.8497175 160.875122,61.1436205 159.525088,62.0253296 C157.125028,63.5683204 156,66.5808263 156,69.2994292 C156,70.6954685 156.300007,72.0915078 157.050026,73.1936442 C157.950049,74.442732 159.375084,75.324441 160.950123,75.6918198 C163.500187,76.2796258 167.100277,76.2061501 168.82532,73.8549259 C169.575338,72.7527896 169.875346,71.4302261 169.950348,70.1076625 C170.325357,65.9195445 168.600314,61.7314265 163.950198,61.0701448 Z" id="Path" fill="#000000" fill-rule="nonzero"></path>
                <path d="M165.254121,65.1137196 C165.894013,65.3499064 166.462806,65.7435512 166.747203,66.4521117 C167.0316,67.0819432 167.0316,67.7905038 166.9605,68.4203353 C166.889401,69.2076248 166.533905,69.9949142 165.894013,70.5460169 C165.396319,70.9396616 164.685327,71.0971195 164.045435,70.9396616 C163.405542,70.7822037 162.836749,70.30983 162.481253,69.6799985 C161.699162,68.4203353 161.841361,66.2159248 163.121146,65.3499064 C163.761038,65.0349906 164.543129,64.8775328 165.254121,65.1137196 Z" id="Path" fill="#FFFFFF" fill-rule="nonzero"></path>
            </g>
        </g>
    </g>
</svg>