<?xml version="1.0" encoding="UTF-8"?>
<svg width="240px" height="240px" viewBox="0 0 240 240" version="1.1" xmlns="http://www.w3.org/2000/svg" xmlns:xlink="http://www.w3.org/1999/xlink">
    <title>gradle</title>
    <g id="Page-1" stroke="none" stroke-width="1" fill="none" fill-rule="evenodd">
        <g id="gradle" transform="translate(-0.0003, 0)">
            <rect id="ViewBox" x="0.000307152935" y="0" width="240" height="240"></rect>
            <path d="M194.869057,32.259375 C187.083098,33.3259213 179.818133,36.7763211 174.071557,42.136875 C173.352298,42.8160461 172.933846,43.7541902 172.909057,44.743125 C172.91571,45.7284239 173.304195,46.6727507 173.992807,47.3775 L178.727182,52.276875 C180.003353,53.5549017 182.024974,53.7003305 183.470932,52.618125 C187.231155,49.7800234 191.817394,48.2514967 196.528432,48.26625 C205.360738,48.2329725 213.338964,53.5361786 216.727419,61.6927163 C220.115873,69.849254 218.243814,79.2445447 211.987807,85.479375 C181.781557,115.689375 141.457807,31.059375 49.9446822,74.59875 C46.8007681,76.0704773 44.4144682,78.7884842 43.3620197,82.0964336 C42.3095713,85.404383 42.6866436,89.0015771 44.4021822,92.019375 L60.0865572,119.161875 C63.4934584,125.035654 70.9800465,127.093986 76.9109322,123.7875 L77.2915572,123.57375 L76.9915572,123.7875 L83.9478072,119.88375 C91.7001882,115.068124 99.0246084,109.59551 105.840307,103.52625 C107.283341,102.289166 109.412899,102.289166 110.855932,103.52625 C111.710016,104.193668 112.213783,105.213624 112.224682,106.2975 C112.242744,107.35195 111.804622,108.362843 111.022807,109.070625 C103.844342,115.443492 96.1210297,121.174805 87.9415572,126.19875 L87.7165572,126.19875 L80.7565572,130.081875 C77.8158631,131.74283 74.4926086,132.607574 71.1153072,132.590625 C64.0127245,132.593675 57.440994,128.830755 53.8484322,122.70375 L39.0134322,97.065 C10.5246822,117.1875 -6.76281785,155.9625 2.52218215,205.155 C2.86200606,206.851816 4.34486312,208.07801 6.07530715,208.093144 L22.9784322,208.093144 C24.7964904,208.093144 26.3287314,206.736381 26.5503072,204.931875 C28.1092002,192.55667 38.6332398,183.275163 51.1062447,183.275163 C63.5792495,183.275163 74.1032891,192.55667 75.6621822,204.931875 C75.8973138,206.737517 77.4337989,208.089559 79.2546822,208.093144 L95.7284322,208.093144 C97.5464904,208.093144 99.0787314,206.736381 99.3003072,204.931875 C100.900156,192.582025 111.4182,183.338642 123.871245,183.338642 C136.324289,183.338642 146.842334,192.582025 148.442182,204.931875 C148.663758,206.736381 150.195999,208.093144 152.014057,208.093144 L168.274057,208.093144 C170.244899,208.099524 171.854523,206.519986 171.885307,204.549375 C172.273432,181.63125 178.453432,155.29875 196.080307,142.10625 C257.134057,96.433125 241.093432,57.28125 226.959682,43.063125 C218.541792,34.6402123 206.667012,30.6424042 194.869057,32.259375 M158.797807,99.12375 C162.18053,98.3763105 165.623771,100.103822 167.046818,103.262369 C168.469864,106.420916 167.482575,110.144552 164.681557,112.183125 L164.681557,112.145625 L153.037753,106.2975 C153.024621,102.846701 155.425646,99.8563614 158.797807,99.12375" id="Shape" fill="#FFFFFF" fill-rule="nonzero"></path>
        </g>
    </g>
</svg>