<?xml version="1.0" encoding="UTF-8"?>
<svg width="241px" height="241px" viewBox="0 0 241 241" version="1.1" xmlns="http://www.w3.org/2000/svg" xmlns:xlink="http://www.w3.org/1999/xlink">
    <title>graphql</title>
    <g id="Page-1" stroke="none" stroke-width="1" fill="none" fill-rule="evenodd">
        <g id="graphql" transform="translate(0.7399, 0.6576)">
            <rect id="box" x="0" y="0" width="240" height="240"></rect>
            <path d="M119.5,0 C131.389685,0 141,9.61031519 141,21.5 C141,23.5064295 140.726319,25.4479474 140.214187,27.2893232 L189.766645,55.8457744 C191.18685,54.3189161 192.854554,52.9727351 194.7531,51.869987 C205.038099,45.9576523 218.156091,49.468101 224.130013,59.7530999 C230.042348,70.0380989 226.531899,83.1560915 216.2469,89.130013 C214.249213,90.2783841 212.142323,91.0712665 210.000695,91.528066 L210.000403,148.477152 C212.131614,148.934759 214.228101,149.725976 216.216316,150.869987 C226.553088,156.843909 230.060208,169.961901 224.091952,180.2469 C218.185225,190.531899 205.018145,194.042348 194.742901,188.130013 C192.547706,186.866907 190.66142,185.272111 189.109841,183.444712 L139.933687,211.784051 C140.625786,213.896392 141,216.153818 141,218.5 C141,230.32808 131.389685,240 119.5,240 C107.610315,240 98,230.389685 98,218.5 C98,216.321574 98.3226135,214.219666 98.9227507,212.239364 L50.2175198,184.171231 C48.8007582,185.691081 47.1383941,187.031361 45.2469001,188.130013 C34.9003143,194.042348 21.7823217,190.531899 15.869987,180.2469 C9.95765227,169.961901 13.468101,156.843909 23.7530999,150.869987 C25.4405657,149.899947 27.2042932,149.18356 29.0002175,148.70913 L29.0006038,91.2898745 C27.2034831,90.8154384 25.4393861,90.0993752 23.7530999,89.130013 C13.468101,83.2176783 9.95765227,70.0380989 15.869987,59.7530999 C21.7823217,49.468101 34.9619011,45.9576523 45.2469001,51.869987 C47.0546428,52.9199933 48.6530972,54.1907037 50.0278833,55.6279432 L98.8439473,27.4943782 C98.2944191,25.5922889 98,23.5810596 98,21.5 C98,9.61031519 107.610315,0 119.5,0 Z M184.477295,174.000891 L55.5177006,174.000677 C55.424368,174.434947 55.3176888,174.86624 55.1978375,175.293897 L104.106832,203.478163 C108.009217,199.479661 113.460546,197 119.5,197 C125.844239,197 131.539495,199.736251 135.472019,204.095004 L184.887334,175.616394 C184.730057,175.083459 184.593264,174.544523 184.477295,174.000891 Z M125.887959,42.0382295 C123.870513,42.6633914 121.725175,43 119.5,43 C117.431341,43 115.431682,42.7090791 113.539635,42.1658488 L49.042821,153.663755 C50.6156464,155.106097 52.0005214,156.808511 53.130013,158.7531 C54.1000532,160.440566 54.81644,162.204293 55.2908698,164.000217 L184.709452,164.000604 C185.183438,162.203483 185.898822,160.439386 186.867265,158.7531 C187.911073,156.935585 189.181609,155.329627 190.622848,153.949841 L125.887959,42.0382295 Z M135.232413,36.1662245 C135.033847,36.3791734 134.830999,36.588075 134.624004,36.7927931 L199.451304,148.864023 C199.633663,148.810888 199.816716,148.760156 200.000411,148.711839 L200.000608,91.2842157 C194.648153,89.8736031 189.84132,86.4157812 186.869987,81.2469001 C183.874317,76.0356827 183.297721,70.0971621 184.795721,64.7291379 L135.232413,36.1662245 Z M103.914454,36.3221709 L55.1211918,64.439211 C56.7222937,69.8826829 56.1797199,75.9416808 53.130013,81.2469001 C49.9750134,86.7352848 44.7505856,90.2945414 39.0008906,91.5222523 L39.000677,148.482299 C39.373711,148.562471 39.7445477,148.652491 40.1127706,148.752248 L104.696848,37.103615 C104.429422,36.8498604 104.168532,36.589287 103.914454,36.3221709 Z" id="shape" fill="#E535AB" fill-rule="nonzero"></path>
        </g>
    </g>
</svg>