<?xml version="1.0" encoding="UTF-8"?>
<svg width="241px" height="241px" viewBox="0 0 241 241" version="1.1" xmlns="http://www.w3.org/2000/svg" xmlns:xlink="http://www.w3.org/1999/xlink">
    <title>greynoise</title>
    <g id="Page-1" stroke="none" stroke-width="1" fill="none" fill-rule="evenodd">
        <g id="greynoise" transform="translate(-0.4, -0.39)">
            <rect id="box" x="1" y="1" width="240.004166" height="240.004149"></rect>
            <g id="shape" transform="translate(1, 1)">
                <path d="M120.98806,231.495976 C58.4894513,231.495976 7.64708008,181.477152 7.64708008,120.000737 C7.63871369,112.536758 8.39023345,105.090716 9.89038978,97.7740721 L4.38082114,96.6706832 C2.8104407,104.351184 2.02138995,112.166421 2.02533115,120.000737 C2.02533115,151.035781 14.5595969,180.799387 36.8700785,202.742407 C59.1805601,224.685427 89.4392494,237.009946 120.98806,237.004095 C125.297068,237.004095 129.602911,236.77438 133.887091,236.319992 L133.27691,230.838356 C129.19573,231.276007 125.093418,231.495536 120.98806,231.495976 L120.98806,231.495976 Z M120.98806,8.50991266 C135.019308,8.49847424 148.929554,11.0624878 162.004734,16.0703332 L164.050633,10.8755784 C120.479236,-5.67575283 71.0957535,4.33098875 37.72089,36.4742001 L41.6780883,40.4464001 C62.8236083,19.9655427 91.3131337,8.49339927 120.98806,8.50991266 Z" id="Shape" fill="#FFFFFF" fill-rule="nonzero"></path>
                <path d="M2.98863178,93.2008814 L5.90736252,93.7884241 L11.3920839,94.8925026 L14.2921619,95.4762905 L13.7085696,98.3373004 C12.254148,105.467474 11.525537,112.723773 11.5336502,120.000778 C11.5336502,179.902575 60.8211172,228.638825 121.394869,228.638825 C125.373715,228.638397 129.349932,228.424518 133.305673,227.998131 L136.257113,227.679996 L136.579373,230.589989 L137.186801,236.075051 L137.509352,238.987677 L134.55486,239.302652 C130.174705,239.769616 125.781782,240.004147 121.39543,240.004147 C89.1996725,240.010147 58.3210195,227.368238 35.5542923,204.860988 C12.7892041,182.355358 1.4875011e-05,151.829788 1.4875011e-05,120.002222 C-0.00399053358,111.969252 0.80091905,103.955855 2.40285581,96.0806037 L2.98863178,93.2008814 Z M36.4233862,34.3335702 C70.4793133,1.36524687 120.872918,-8.89885098 165.335307,8.0780583 L168.101266,9.13417405 L167.032403,11.8621297 L164.995731,17.0601314 L163.922102,19.8002521 L161.146809,18.731821 C148.475465,13.8536137 134.995004,11.3560036 121.397336,11.3671457 C92.6338109,11.3510598 65.0227534,22.5268125 44.5283958,42.479365 L42.4049849,44.5466396 L40.3193575,42.4423069 L36.3800054,38.4676243 L34.3102074,36.3792629 L36.4233862,34.3335702 Z" id="Shape" fill="#FFFFFF" fill-rule="nonzero"></path>
                <path d="M121.03995,27.4979741 C138.023818,27.4828912 154.694362,31.9706771 169.278822,40.4840967 L172.151899,35.7574653 C156.698075,26.7389442 139.034965,21.9848394 121.03995,22.0004185 C68.802187,22.0004185 25.8051042,61.2936093 21.2658228,111.247012 L26.8633693,111.735973 C31.1234489,64.5885956 71.7247997,27.4979741 121.03995,27.4979741 Z M121.03995,212.48855 C73.9944404,212.48855 34.8836672,178.754586 27.6604455,134.703966 L22.1079315,135.584979 C29.7634658,182.243395 71.1934156,218.003728 121.017433,218.003728 C136.080923,218.017161 150.951373,214.688615 164.509874,208.268501 L162.06911,203.312806 C149.277703,209.366108 135.249599,212.503347 121.03995,212.48855 L121.03995,212.48855 Z" id="Shape" fill="#FFFFFF" fill-rule="nonzero"></path>
                <path d="M30.3023364,131.357683 L30.775446,134.249256 C37.8339305,177.389635 76.0526525,209.629312 121.083614,209.629312 C134.827954,209.643654 148.393437,206.603222 160.762649,200.736879 L163.437166,199.468436 L164.730096,202.099341 L167.167319,207.058698 L168.464319,209.697883 L165.781683,210.970929 C151.839211,217.587337 136.548011,221.01758 121.06113,221.003779 C70.3629499,221.003779 27.3183188,184.676594 19.3593341,136.062345 L18.8863033,133.173027 L21.8209684,132.706365 L27.3654261,131.824702 L30.3023364,131.357683 Z M121.080993,19.0003676 C139.585201,18.9843519 157.748337,23.8837725 173.640194,33.1782599 L176.202532,34.6768649 L174.67457,37.1960985 L171.805661,41.9262231 L170.284376,44.4344488 L167.733409,42.9421017 C153.63067,34.6918235 137.510105,30.3425768 121.086302,30.3571944 C73.6812629,30.3571956 34.1500626,66.0216754 30.0057248,111.988701 L29.7427681,114.905291 L26.7802852,114.645942 L21.1908603,114.156619 L18.2278481,113.897223 L18.4923351,110.980242 C23.1905912,59.1639809 67.7032995,19.0003676 121.080993,19.0003676 Z" id="Shape" fill="#FFFFFF" fill-rule="nonzero"></path>
                <path d="M195.866787,122.650018 C194.176536,162.000524 161.029583,193.480929 120.517642,193.480929 C110.221765,193.490995 100.034032,191.421557 90.5889267,187.401497 L88.3352584,192.468427 C98.4982219,196.794935 109.461419,199.019524 120.540178,199.003353 C164.153167,199.003353 199.824229,165.033608 201.518987,122.650018 L195.866787,122.650018 Z M120.540178,45.5186052 L120.540178,40.0006915 C75.8499361,40.0006915 39.4937149,75.6637456 39.4937149,119.501978 C39.4815887,130.884619 41.9753926,142.135606 46.8046592,152.48566 L51.9024568,150.182108 C47.4064007,140.551319 45.0847382,130.081309 45.0963786,119.488714 C45.0963786,78.7056723 78.9329543,45.5186052 120.540178,45.5186052 Z" id="Shape" fill="#FFFFFF" fill-rule="nonzero"></path>
                <path d="M205.56962,119.72374 L205.448021,122.767631 C203.685757,166.880736 166.583755,202.003402 121.497641,202.003402 C110.009573,202.020096 98.6413822,199.711143 88.1030035,195.22061 L85.3612275,194.052305 L86.5567933,191.36179 L88.8103606,186.290337 L90.0004658,183.612111 L92.7298099,184.774874 C101.799084,188.63859 111.581466,190.627552 121.47067,190.617875 C160.263046,190.617875 192.209229,160.464532 193.837158,122.529427 L193.95756,119.72374 L205.56962,119.72374 Z M124.475133,37.0006396 L124.475133,48.3815649 L121.493205,48.3815649 C81.5382198,48.3815649 49.0347129,80.2834422 49.0347112,119.491815 C49.0235348,129.671737 51.2526614,139.733861 55.5695298,148.98949 L56.8091288,151.647266 L54.1057555,152.86999 L49.0081862,155.175598 L46.2938474,156.403281 L45.0497682,153.734479 C40.0419191,142.991626 37.4558723,131.313594 37.4683997,119.501933 C37.4683997,74.006638 75.158363,37.0006396 121.493205,37.0006396 L124.475133,37.0006396 Z" id="Shape" fill="#FFFFFF" fill-rule="nonzero"></path>
                <path d="M121.048413,64.505927 C138.343919,64.5065741 154.656555,72.4414641 165.192163,85.9785934 L172.057082,85.9785934 C160.695129,69.133224 141.552546,59.009054 121.048413,59.00102 C87.2467339,59.00102 59.7468354,86.1417997 59.7468354,119.502066 C59.7468354,152.862332 87.2243871,180.003112 121.048413,180.003112 C153.781918,180.003112 180.606945,154.547328 182.278481,122.66033 L140.557117,122.66033 L140.557117,128.165237 L176.057149,128.165237 C171.842553,154.37971 148.758371,174.498205 121.048413,174.498205 C90.2729908,174.498205 65.3245818,149.875595 65.3245818,119.502066 C65.3245818,89.1285371 90.2729908,64.505927 121.048413,64.505927 L121.048413,64.505927 Z" id="Path" fill="#FFFFFF" fill-rule="nonzero"></path>
                <path d="M121.983536,56.0009681 C143.477008,56.0094001 163.543439,66.6351828 175.453969,84.3155205 L178.522847,88.8710518 L164.66216,88.8710518 L163.772245,87.7262045 C153.798606,74.8954409 138.355747,67.3744274 121.982248,67.373814 C92.8461484,67.373814 69.2272828,90.7128101 69.2272828,119.502066 C69.2272828,148.291321 92.8461484,171.630317 121.98236,171.630317 C146.649001,171.630317 167.8104,154.652183 173.320833,131.432207 L173.395845,131.105182 L138.525247,131.10597 L138.525247,119.733124 L186.329114,119.733124 L186.167734,122.815458 C184.408473,156.417063 156.169142,183.003163 121.98236,183.003163 C86.5319082,183.003163 57.721519,154.526994 57.721519,119.502066 C57.721519,84.484595 86.5467075,56.0009681 121.983536,56.0009681 Z" id="Path" fill="#FFFFFF" fill-rule="nonzero"></path>
                <ellipse id="Oval" cx="121.012658" cy="120.002075" rx="118.987342" ry="117.002023"></ellipse>
            </g>
        </g>
    </g>
</svg>