<?xml version="1.0" encoding="UTF-8"?>
<svg width="240px" height="240px" viewBox="0 0 240 240" version="1.1" xmlns="http://www.w3.org/2000/svg" xmlns:xlink="http://www.w3.org/1999/xlink">
    <title>grok</title>
    <g id="Page-1" stroke="none" stroke-width="1" fill="none" fill-rule="evenodd">
        <g id="grok">
            <rect id="box" fill="#000000" x="0" y="0" width="240" height="240" rx="32"></rect>
            <path d="M99.59375,143.839069 L157.766667,100.841977 C160.617708,98.7274858 164.69375,99.5514084 166.057292,102.825225 C173.203125,120.098433 170.009375,140.849616 155.776042,155.096914 C141.55,169.344212 121.745833,172.46491 103.647917,165.348553 L83.8802083,174.51378 C112.2375,193.916063 146.66875,189.118354 168.186458,167.565123 C185.25625,150.474198 190.542708,127.178334 185.598958,106.171954 L185.642708,106.222994 C178.475,75.3659997 187.407292,63.0290352 205.694792,37.8082549 C206.132292,37.2103641 206.569792,36.6124734 207,36 L182.930208,60.0979124 L182.930208,60.0249989 L99.571875,143.853652 M87.584375,154.287574 C67.2260417,134.819669 70.740625,104.699102 88.1020833,87.3238141 C100.942708,74.4691637 121.986458,69.2193915 140.354167,76.93364 L160.078125,67.8194523 C155.978525,64.8038731 151.493076,62.3515743 146.741667,60.5281021 C122.316669,50.5316358 94.2771658,56.1841451 75.6333333,74.8628966 C57.1635417,93.3537607 51.3520833,121.790026 61.3270833,146.05564 C68.7791667,164.189228 56.565625,177.014713 44.2645833,189.964151 C39.896875,194.557701 35.521875,199.143961 32,204 L87.5625,154.309448" id="Shape" fill="#FFFFFF"></path>
        </g>
    </g>
</svg>