<?xml version="1.0" encoding="UTF-8"?>
<svg width="241px" height="241px" viewBox="0 0 241 241" version="1.1" xmlns="http://www.w3.org/2000/svg" xmlns:xlink="http://www.w3.org/1999/xlink">
    <title>grpc</title>
    <g id="Page-1" stroke="none" stroke-width="1" fill="none" fill-rule="evenodd">
        <g id="grpc" transform="translate(66.5, 170.5)">
            <rect id="box" x="-66" y="-170" width="240" height="240"></rect>
            <g id="shape" transform="translate(-52, -170)">
                <path d="M119.81516,95.900853 C129.655415,95.900853 138.246115,97.8295633 145.587258,101.686984 C149.570218,103.86456 153.631276,107.0376 157.770431,111.206102 L157.770431,98.607269 L177.216651,98.607269 L177.216651,189.505519 C177.216651,202.197677 174.873733,212.214528 170.187897,219.55607 C161.441003,233.119259 144.923431,239.900853 120.635181,239.900853 C107.124354,239.900853 95.7612018,237.489965 86.5457243,232.668189 C77.3302468,227.846414 72.1758272,220.302668 71.0824655,210.036951 L92.5201652,210.036951 C93.5354297,214.516537 95.5659586,217.96955 98.611752,220.395992 C103.375685,224.12898 110.873023,225.995474 121.103765,225.995474 C137.269899,225.995474 147.852079,221.453672 152.850304,212.370069 C155.818,207.019453 157.184702,197.469226 156.95041,183.719388 C152.733158,188.821138 147.656835,192.616342 141.721443,195.105001 C135.786051,197.593659 127.937276,198.837988 118.175117,198.837988 C104.586193,198.837988 92.695884,194.996122 82.5041908,187.312389 C72.3124975,179.628656 67.2166508,166.920944 67.2166508,149.189252 C67.2166508,132.453024 72.3515461,119.387567 82.6213367,109.992881 C92.8911272,100.598196 105.289068,95.900853 119.81516,95.900853 Z M157.770431,147.229434 C157.770431,134.848358 154.568444,125.67143 148.164468,119.698649 C141.760492,113.725869 133.599327,110.739479 123.680975,110.739479 C108.842494,110.739479 98.6898493,116.276744 93.2230406,127.351274 C90.3334417,133.261838 88.8886423,141.007788 88.8886423,150.589123 C88.8886423,161.850302 91.7587168,170.42062 97.4988659,176.300075 C103.239015,182.179531 110.95112,185.119259 120.635181,185.119259 C135.786051,185.119259 146.446328,179.675318 152.616012,168.787438 C156.052292,162.628008 157.770431,155.442007 157.770431,147.229434 Z" id="Shape" fill="#FFFFFF" fill-rule="nonzero"></path>
                <g transform="translate(0.2167, -0.0991)">
                    <polygon id="rombus" fill="#00B0AD" transform="translate(48.7002, 48.5) rotate(45) translate(-48.7002, -48.5)" points="14.4055388 14.2053211 82.9790772 14.2211405 82.9948966 82.7946789 14.4213582 82.7788595"></polygon>
                    <polygon id="rombus" fill="#00B0AD" transform="translate(183.4516, 49.6826) rotate(45) translate(-183.4516, -49.6826)" points="163.347819 29.5787979 203.5461 29.5880713 203.555374 69.7863524 163.357093 69.777079"></polygon>
                    <path d="M78.8318856,19.5269092 L54.0849504,44.3609092 L181.47395,44.3609092 L170.928684,33.9436479 L183.439054,33.8970825 L198.222449,48.6009743 L183.54802,63.4145199 L171.073761,63.4145199 L182.93395,51.4559092 L51.7549504,51.4559092 L79.0659262,78.5625352 L54.0449367,78.6556659 L24.4449504,49.3552769 L53.9046337,19.5269092 L78.8318856,19.5269092 Z" id="arrows" fill="#FFFFFF"></path>
                </g>
            </g>
        </g>
    </g>
</svg>