<?xml version="1.0" encoding="UTF-8"?>
<svg width="241px" height="241px" viewBox="0 0 241 241" version="1.1" xmlns="http://www.w3.org/2000/svg" xmlns:xlink="http://www.w3.org/1999/xlink">
    <title>gulp</title>
    <g id="Page-1" stroke="none" stroke-width="1" fill="none" fill-rule="evenodd">
        <g id="gulp" transform="translate(0.943, 0.8169)">
            <rect id="box" x="0" y="0" width="240" height="240"></rect>
            <path d="M68,64 C69.7025033,82.0310628 71.3914177,99.9605642 73.1191577,118.292405 C75.9359562,113.419409 77.9743011,108.745629 81.04929,104.917544 C83.9126793,101.351175 87.5215205,98.0601933 91.4487317,95.7809201 C96.5756545,92.8043885 103.29831,95.6070938 104.960047,100.886336 C105.406541,102.302337 104.340778,104.200755 103.968052,105.878472 C102.713985,105.212463 101.096898,104.845279 100.277677,103.825758 C96.7969605,99.4957253 94.7003772,98.9840119 90.8508172,102.726161 C83.6700192,109.710463 79.632155,118.460372 78.090778,128.294254 C77.793762,130.196578 78.9760021,132.331322 79.4749113,134.358645 C81.4375462,133.678964 83.71661,133.428967 85.3026364,132.241479 C90.4586784,128.380191 93.6540268,123.128292 95.4167098,116.851014 C95.7991421,115.491653 97.8724301,114.614709 99.1692057,113.515111 C99.7904156,114.800254 101.207551,116.31391 100.910535,117.331478 C98.1645319,126.784049 95.2287144,136.179754 92.1048846,145.512826 C91.7903971,146.458128 90.0645984,146.928827 88.9910701,147.620226 C88.5581645,146.378051 87.6477037,145.077283 87.7932998,143.907374 C88.119435,141.255057 88.9677747,138.667194 89.5598654,136.237531 L75.5049919,142.747229 C76.2912106,151.77448 77.1065486,161.901328 78.0733065,172.014504 C78.8148758,179.73708 80.0708845,181.737059 87.6302322,183.201888 C96.4514125,184.910854 105.437602,186.00264 114.404378,186.666695 C127.609885,187.667614 140.888505,186.41025 153.67649,182.947984 C158.475336,181.651123 160.389439,178.475374 160.733046,173.735189 C161.047534,169.37 161.750277,165.032154 162.237539,160.678684 C163.19459,152.102601 164.124464,143.524565 165.102869,134.589111 C161.866754,136.65159 159.321735,138.960159 156.345751,139.938665 C154.179282,140.651548 151.445958,139.60859 148.96306,139.346874 C149.438674,137.053929 149.409555,134.469972 150.50832,132.536398 C152.298181,129.376275 154.825728,126.636069 157.038789,123.71813 L156.08562,122.563845 C154.499593,123.507195 152.529193,124.126329 151.401309,125.464206 C149.106715,128.186834 146.860653,131.100866 145.3251,134.292239 C142.754844,139.633981 140.796092,145.272594 138.495674,150.7491 C137.495914,153.124075 136.633985,156.75685 133.285276,155.370145 C129.703613,153.883833 132.223395,150.710037 133.06397,148.452248 C134.401512,144.850723 136.168078,141.409353 137.363907,138.760943 C133.974431,139.167188 130.538363,139.657418 127.086766,139.960149 C125.626923,140.085148 123.891418,139.280469 122.69753,139.823432 C118.727611,141.6281 116.211711,140.903499 115.386666,136.48167 C113.548273,137.682829 111.991366,139.309765 110.156855,139.747261 C107.930206,140.280458 104.909573,140.630064 103.278897,139.510935 C101.972415,138.61446 101.496802,135.245354 101.943296,133.268812 C102.830461,129.339166 104.488315,125.561861 106.062694,121.825572 C107.037217,119.511143 108.017564,115.815868 111.306094,117.425227 C114.555798,119.013101 111.605051,121.692761 110.855717,123.843129 C109.692889,127.167313 108.508708,130.485638 107.336174,133.805916 L109.199804,134.938717 C110.974135,133.387952 113.185254,132.124293 114.427673,130.221969 C116.462136,127.112626 117.690967,123.479851 119.616717,120.288478 C120.414584,118.966226 122.132617,118.208422 123.435217,117.19476 C123.699231,118.878337 124.332088,120.608787 124.12243,122.233771 C123.914713,123.876332 122.767416,125.378269 122.218034,127.003252 C121.392989,129.436821 120.72713,131.925076 119.888497,134.755125 C123.854533,134.907467 125.553154,133.227797 126.673273,130.264937 C130.218052,120.903706 133.801657,111.552241 137.697807,102.33554 C138.363667,100.757431 140.6272,99.8668152 142.154988,98.6558903 C142.331645,100.558214 143.174161,102.714442 142.574305,104.317941 C139.380898,112.811993 135.795352,121.153704 132.425288,129.581351 C131.856493,131.001258 131.674013,132.577413 131.314876,134.081304 C137.253254,131.395785 142.209344,128.427066 144.018618,122.077522 C144.46123,120.534569 146.274386,119.388097 147.456626,118.058033 L150.20548,120.98769 C151.040231,120.280666 151.805095,119.475987 152.711674,118.888102 C155.565356,117.038512 158.638404,115.40767 161.647389,118.272874 C164.761204,121.235734 162.404489,124.122423 160.777696,126.684896 C159.007247,129.479789 156.838837,132.016872 154.8432,134.665282 C159.331441,131.755156 165.460065,130.450482 166.275403,124.161485 C168.263275,108.800316 170.010427,93.4078979 171.782817,78.0193857 C172.308904,73.4647455 172.59039,68.8808087 173,64.1347642 C137.649275,72.746003 103.057591,72.7987368 68,64 L68,64 Z M83,184 C84.6970444,188.516442 87.2745394,192.952963 87.9498741,197.666281 C89.3760106,207.699136 89.7378661,217.884033 90.7479655,227.985112 C90.8950298,229.456806 91.8412724,231.478191 93.0216567,232.125346 C110.398463,241.637748 127.943618,243.286824 145.672604,232.883609 C148.317826,231.331996 148.807396,229.283321 149.149901,226.402311 C150.808244,212.404656 147.116156,197.557122 156,184.376208 C131.122916,190.592406 106.843764,190.785383 83,184 L83,184 Z M143.343171,66.8635777 C151.807126,66.0429825 160.168241,64.0470455 168.539057,62.3980584 C170.116589,62.0881424 171.517547,60.8816141 173,60.0883071 C171.046033,58.3633029 169.355959,57.5329619 167.590209,57.3244021 C158.80027,56.281603 149.979284,55.4785502 141.195166,54.385073 C139.867943,54.2193946 137.498734,52.5743059 137.597694,52.2741357 C140.160941,44.5164899 140.034816,35.7355365 145.852087,29.1980631 C153.204202,20.9336363 160.631992,12.7413284 168.003511,4.54512223 C162.519986,-1.3803158 162.446251,-1.38811243 157.476928,3.798595 C154.667252,6.7301275 152.100124,9.93844033 149.051781,12.5931925 C137.772328,22.4130467 129.84974,34.043668 128.305195,49.377688 C127.950104,52.8959169 126.027184,54.1667674 122.350156,54.2213438 C110.211114,54.3987171 98.0584887,54.7339721 85.9466117,55.5350758 C79.945004,55.9307547 74.0171308,57.4783855 68.0543308,58.5036423 L68,60.7432239 C71.7313585,61.8990742 75.3909227,63.4174677 79.2018369,64.1522999 C100.4374,68.2416318 121.872822,68.9433285 143.343171,66.8635777 L143.343171,66.8635777 Z M137,62 C132.046762,66 127.953392,66 124,62 L137,62 Z" id="Shape" fill="#EB4A4B"></path>
        </g>
    </g>
</svg>