<svg width="240" height="240" viewBox="0 0 240 240" fill="none" xmlns="http://www.w3.org/2000/svg">
<rect width="240" height="240" rx="32" fill="#0C121E"/>
<mask id="mask0_1_3" style="mask-type:luminance" maskUnits="userSpaceOnUse" x="48" y="39" width="142" height="162">
<path fill-rule="evenodd" clip-rule="evenodd" d="M48.2855 39.671H190V200.412H48.2855V39.671Z" fill="white"/>
</mask>
<g mask="url(#mask0_1_3)">
<path fill-rule="evenodd" clip-rule="evenodd" d="M176.35 151.691C176.35 152.716 175.667 153.739 174.984 154.076L130.933 179.29C129.567 179.972 127.86 179.627 127.177 178.268C126.835 177.924 126.835 177.243 126.835 176.902V126.483C126.835 125.461 127.518 124.436 128.201 124.095L172.253 98.5433C173.618 97.8619 175.326 98.2026 176.009 99.5653C176.35 99.906 176.35 100.587 176.35 100.932V151.691ZM111.456 177.248C111.456 178.951 110.09 179.977 108.724 179.977C108.383 179.977 107.7 179.977 107.358 179.632L63.3072 154.425C62.2827 154.081 61.9412 153.059 61.9412 152.04V100.937C61.9412 99.2332 63.3072 98.2076 64.6731 98.2076C65.0146 98.2076 65.6975 98.2076 66.039 98.5483L110.09 123.763C111.115 124.1 111.456 125.122 111.456 126.144V177.248ZM73.5587 80.4917L117.61 54.94C118.634 54.5959 119.659 54.5959 120.342 54.94L164.393 80.4917C165.759 81.1697 166.101 82.8731 165.417 84.2359L164.393 85.258L120.342 110.81C119.317 111.154 118.293 111.154 117.61 110.81L73.5587 85.258C72.1928 84.5766 71.8513 82.8731 72.5343 81.5104L73.5587 80.4917ZM190 83.2141C190 81.5106 189.318 79.8072 188.293 78.7885H187.952L187.61 78.4444L187.269 78.1037H186.927L122.046 40.6278L121.704 40.2871C119.997 39.265 117.606 39.6091 115.899 40.6278L51.0173 77.763H50.6759L50.3344 78.1037L49.9929 78.4444L49.6514 78.7885C48.627 79.8072 48.2855 81.1699 48.2855 82.8734V83.2141V157.828C48.2855 159.869 49.6514 161.914 51.3588 162.939L116.241 200.071C116.241 200.071 116.582 200.071 116.582 200.415H116.923H117.265H117.606H117.948H118.289H119.655H119.997H120.338H120.68H121.021H121.362C121.362 200.415 121.704 200.415 121.704 200.071L186.586 162.939C188.635 161.914 189.659 159.869 189.659 157.828L190 83.2141Z" fill="#9FEF00"/>
</g>
</svg>
