<?xml version="1.0" encoding="UTF-8"?>
<svg width="240px" height="240px" viewBox="0 0 240 240" version="1.1" xmlns="http://www.w3.org/2000/svg" xmlns:xlink="http://www.w3.org/1999/xlink">
    <title>hackenproof</title>
    <defs>
        <linearGradient x1="4.27609337e-14%" y1="-1.994932e-15%" x2="100%" y2="100%" id="linearGradient-1">
            <stop stop-color="#BECDF8" offset="0%"></stop>
            <stop stop-color="#C7BDF1" offset="100%"></stop>
        </linearGradient>
    </defs>
    <g id="Page-1" stroke="none" stroke-width="1" fill="none" fill-rule="evenodd">
        <g id="hackenproof">
            <rect id="box" fill="url(#linearGradient-1)" x="0" y="0" width="240" height="240" rx="32"></rect>
            <g id="shape" transform="translate(45, 45)" fill="#050505">
                <path d="M125,60 C117.09904,60 110.14048,65.5533333 106,74 C110.14048,82.4466667 117.09904,88 125,88 C132.90096,88 139.85952,82.4466667 144,74 C139.85952,65.5533333 132.90096,60 125,60 Z M125,83.3333333 C119.75106,83.3333333 115.5,79.15648 115.5,74 C115.5,68.8431467 119.75106,64.6666667 125,64.6666667 C130.24856,64.6666667 134.5,68.8431467 134.5,74 C134.5,79.15648 130.24856,83.3333333 125,83.3333333 Z" id="Shape" fill-rule="nonzero"></path>
                <path d="M100,0 L49.9998125,0 L0,49.99925 L0,100 L54.6873066,99.998875 L100,54.6866914 L100,0 Z M24.9999813,89.0625117 C17.2031035,89.0625117 10.3359246,83.4844564 6.25000469,75.0001875 C10.3359246,66.5159186 17.2031035,60.9378633 24.9999813,60.9378633 C32.7968215,60.9378633 39.6640754,66.5159186 43.7500703,75.0001875 C39.6640754,83.4844564 32.7968215,89.0625117 24.9999813,89.0625117 Z" id="Shape"></path>
                <polygon id="Path" fill-rule="nonzero" points="99.9998125 50 95.3123184 54.6874941 101.94531 54.6874941 103.906183 54.6874941 145.312506 54.6874941 145.312506 98.0546899 98.0546899 145.312506 54.6874941 145.312506 54.6874941 105.468806 54.6874941 101.94531 54.6874941 95.3126934 50 100.000187 50 150 99.9998125 150 150 100.000187 150 50"></polygon>
                <polygon id="Path" fill-rule="nonzero" points="101.6673 96 51 146.6673 54.3327003 150 105 99.3327003"></polygon>
                <polygon id="Path" fill-rule="nonzero" points="146.086534 51 145 52.0862041 147.913796 55 149 53.9137959"></polygon>
                <polygon id="Path" fill-rule="nonzero" points="146.007533 51 145 52.0075328 147.992467 55 149 53.9924672"></polygon>
                <path d="M24.5,84 C29.746736,84 34,79.74666 34,74.5 C34,69.25334 29.746736,65 24.5,65 C19.253302,65 15,69.25334 15,74.5 C15,79.74666 19.253302,84 24.5,84 Z" id="Path" fill-rule="nonzero"></path>
                <path d="M145.312488,55.6874766 L145.312488,96.3125234 L104.687512,96.3125234 L104.687512,55.6874766 L145.312488,55.6874766 Z M150,51 L100,51 L100,101 L150,101 L150,51 Z" id="Shape" fill-rule="nonzero"></path>
            </g>
        </g>
    </g>
</svg>