<?xml version="1.0" encoding="UTF-8"?>
<svg width="240px" height="240px" viewBox="0 0 240 240" version="1.1" xmlns="http://www.w3.org/2000/svg" xmlns:xlink="http://www.w3.org/1999/xlink">
    <title>hackerone</title>
    <defs>
        <path d="M97.8982036,46.8704649 C95.8233533,45.6371913 93.3293413,45 90.3952096,45 C87.4610778,45 84.8413174,45.6371913 82.9131737,46.8704649 C80.9850299,48.1037384 80,49.7481032 80,51.7007863 L80,187.093668 C80,188.820251 81.005988,190.361843 83.0179641,191.821217 C85.008982,193.28059 87.4610778,194 90.3952096,194 C93.3293413,194 95.6556886,193.28059 97.7934132,191.821217 C99.9101796,190.382398 101,188.820251 101,187.093668 L101,51.7213409 C101,49.7481032 99.9730539,48.1448476 97.8982036,46.8704649 M114.593001,118.295337 C113.359115,119.455959 112.824431,121.238342 113.050644,123.642487 C113.256291,126.046632 114.366789,128.326425 116.299876,130.46114 C118.253529,132.61658 120.433394,133.984456 122.942295,134.564767 C125.410067,135.124352 127.28146,134.813472 128.515346,133.673575 L139.414671,126.813472 L139.414671,188.036269 C139.414671,189.777202 140.36065,191.331606 142.273173,192.803109 C144.144567,194.274611 146.53008,195 149.409147,195 C152.288213,195 154.77655,194.274611 156.853591,192.803109 C158.951197,191.352332 160,189.777202 160,188.036269 L160,105.735751 C160,103.746114 158.971762,102.129534 156.956415,100.88601 C154.941068,99.6217617 152.432167,99 149.409147,99 C146.386126,99 144.000614,99.6217617 142.149785,100.88601 L114.572436,118.295337" id="path-1"></path>
    </defs>
    <g id="Page-1" stroke="none" stroke-width="1" fill="none" fill-rule="evenodd">
        <g id="hackerone">
            <rect id="Rectangle" fill="#000000" x="0" y="0" width="240" height="240" rx="32"></rect>
            <mask id="mask-2" fill="white">
                <use xlink:href="#path-1"></use>
            </mask>
            <use id="Combined-Shape" fill="#FFFFFF" xlink:href="#path-1"></use>
        </g>
    </g>
</svg>