<?xml version="1.0" encoding="UTF-8"?>
<svg width="241px" height="241px" viewBox="0 0 241 241" version="1.1" xmlns="http://www.w3.org/2000/svg" xmlns:xlink="http://www.w3.org/1999/xlink">
    <title>hackable</title>
    <g id="Page-1" stroke="none" stroke-width="1" fill="none" fill-rule="evenodd">
        <g id="hackable" transform="translate(-228.2109, -91.8652)">
            <rect id="box" x="229" y="92" width="240" height="240"></rect>
            <g id="shape" transform="translate(229, 104)" fill="#FFFFFF" fill-rule="nonzero">
                <path d="M0,120.923517 L0,94.0764828 C5.40740741,93.7781824 9.48148148,92.9578564 12.2222222,91.6155047 C14.962963,90.273153 17.3333333,88.0172563 19.3333333,84.8478148 C21.3333333,81.6783732 22.7037037,77.7072494 23.4444444,72.9344433 C24.037037,69.3548387 24.3333333,63.1278182 24.3333333,54.2533819 C24.3333333,39.7858134 25,29.6995317 26.3333333,23.9945369 C27.6666667,18.2895421 30.0740741,13.7031738 33.5555556,10.2354318 C37.037037,6.76768991 42.1111111,4.02705515 48.7777778,2.01352758 C53.2962963,0.671175858 60.4074074,0 70.1111111,0 L76,0 L76,26.7351717 C67.7777778,26.7351717 62.5,27.201266 60.1666667,28.1334547 C57.8333333,29.0656434 56.1111111,30.4825702 55,32.3842352 C53.8888889,34.2859001 53.3333333,37.5485605 53.3333333,42.1722164 C53.3333333,46.8704475 53,55.7821713 52.3333333,68.9073881 C51.962963,76.2903226 51,82.274974 49.4444444,86.8613424 C47.8888889,91.4477107 45.9074074,95.2323968 43.5,98.2154006 C41.0925926,101.198404 37.4074074,104.293271 32.4444444,107.5 C36.8148148,110.035553 40.3888889,112.999913 43.1666667,116.39308 C45.9444444,119.786247 48.0740741,123.906521 49.5555556,128.753902 C51.037037,133.601283 52,140.089317 52.4444444,148.218002 C52.962963,160.597468 53.2222222,168.502428 53.2222222,171.932882 C53.2222222,176.854839 53.8148148,180.285293 55,182.224246 C56.1851852,184.163198 57.9814815,185.636056 60.3888889,186.64282 C62.7962963,187.649584 68,188.152966 76,188.152966 L76,215 L70.1111111,215 C60.1111111,215 52.4444444,214.198318 47.1111111,212.594953 C41.7777778,210.991589 37.2777778,208.325529 33.6111111,204.596774 C29.9444444,200.868019 27.4814815,196.263007 26.2222222,190.781738 C24.962963,185.300468 24.3333333,176.668401 24.3333333,164.885536 C24.3333333,151.163718 23.7407407,142.251994 22.5555556,138.150364 C20.9259259,132.184357 18.462963,127.914932 15.1666667,125.342092 C11.8703704,122.769251 6.81481481,121.296393 0,120.923517 Z" id="Path"></path>
                <polygon id="Path" points="95 123 95 92 157 92 157 123"></polygon>
                <path d="M240,120.923517 C234.592593,121.221818 230.518519,122.042144 227.777778,123.384495 C225.037037,124.726847 222.685185,126.982744 220.722222,130.152185 C218.759259,133.321627 217.37037,137.292751 216.555556,142.065557 C215.962963,145.645161 215.666667,151.834894 215.666667,160.634755 C215.666667,175.102324 215.018519,185.207249 213.722222,190.949532 C212.425926,196.691814 210.037037,201.296826 206.555556,204.764568 C203.074074,208.23231 197.962963,210.972945 191.222222,212.986472 C186.703704,214.328824 179.592593,215 169.888889,215 L164,215 L164,188.152966 C171.925926,188.152966 177.111111,187.649584 179.555556,186.64282 C182,185.636056 183.796296,184.181842 184.944444,182.280177 C186.092593,180.378512 186.685185,177.153139 186.722222,172.604058 C186.759259,168.054977 187.074074,159.366979 187.666667,146.540062 C188.037037,138.784253 189.037037,132.575876 190.666667,127.914932 C192.296296,123.253989 194.462963,119.301509 197.166667,116.057492 C199.87037,112.813476 203.333333,109.960978 207.555556,107.5 C202.074074,103.920395 198.074074,100.415366 195.555556,96.9849116 C192.074074,92.0629553 189.703704,85.7986472 188.444444,78.1919875 C187.62963,72.9717308 187.037037,61.4871661 186.666667,43.7382934 C186.592593,38.1451613 186.092593,34.4164065 185.166667,32.5520291 C184.240741,30.6876518 182.574074,29.2520812 180.166667,28.2453174 C177.759259,27.2385536 172.37037,26.7351717 164,26.7351717 L164,0 L169.888889,0 C179.888889,0 187.555556,0.783038502 192.888889,2.3491155 C198.222222,3.91519251 202.703704,6.58125217 206.333333,10.3472945 C209.962963,14.1133368 212.425926,18.7369927 213.722222,24.2182622 C215.018519,29.6995317 215.666667,38.331599 215.666667,50.1144641 C215.666667,63.7617066 216.222222,72.6734305 217.333333,76.8496358 C218.962963,82.8156434 221.444444,87.0850676 224.777778,89.6579084 C228.111111,92.2307492 233.185185,93.7036074 240,94.0764828 L240,120.923517 Z" id="Path"></path>
            </g>
        </g>
    </g>
</svg>