<?xml version="1.0" encoding="UTF-8"?>
<svg width="240px" height="240px" viewBox="0 0 240 240" version="1.1" xmlns="http://www.w3.org/2000/svg" xmlns:xlink="http://www.w3.org/1999/xlink">
    <title>hacktricks</title>
    <g id="Page-1" stroke="none" stroke-width="1" fill="none" fill-rule="evenodd">
        <g id="hacktricks">
            <rect id="box" x="0" y="0" width="240" height="240"></rect>
            <g id="shape" transform="translate(36, 0)" fill="#F61900" fill-rule="nonzero">
                <path d="M29.0767257,1.42108547e-14 L0.00256566891,1.42108547e-14 C0.00256566891,1.42108547e-14 0.00256566891,76.8880366 0.00256566891,76.8880366 C0.00256566891,83.1899553 5.10054979,88.2962836 11.3864386,88.2962836 L17.6928528,88.2962836 C23.9813073,88.2962836 29.0767257,83.1873842 29.0767257,76.8880366 L29.0767257,1.42108547e-14 Z" id="Path"></path>
                <path d="M156.37752,152.583054 L150.54832,152.583054 C144.129016,152.583054 138.92584,157.797371 138.92584,164.230419 L138.92584,240 L168,240 L168,164.230419 C168,157.797371 162.796823,152.583054 156.37752,152.583054 L156.37752,152.583054 Z" id="Path"></path>
                <path d="M138.923274,0 L138.923274,54.2540951 C138.923274,59.2344364 138.202321,64.1916373 136.711668,68.9431452 C132.355162,82.8428484 119.724374,106.106725 84,106.106725 L84,106.122152 C0,106.122152 0,180.431312 0,181.194948 L0,240 L29.07416,240 L29.07416,187.314314 C29.07416,177.849866 31.3396457,168.495977 35.8808797,160.198837 C42.8030544,147.556432 56.6166158,133.890704 83.9974343,133.890704 L83.9974343,133.875277 C167.997434,133.875277 167.997434,58.8024812 167.997434,58.8024812 L167.997434,0 L138.923274,0 Z" id="Path"></path>
            </g>
        </g>
    </g>
</svg>