<?xml version="1.0" encoding="UTF-8"?>
<svg width="240px" height="240px" viewBox="0 0 240 240" version="1.1" xmlns="http://www.w3.org/2000/svg" xmlns:xlink="http://www.w3.org/1999/xlink">
    <title>haproxy</title>
    <g id="Page-1" stroke="none" stroke-width="1" fill="none" fill-rule="evenodd">
        <g id="haproxy" transform="translate(0, 0)">
            <g id="lines" transform="translate(4.0336, 3)" stroke="#FFFFFF" stroke-width="0.5">
                <path d="M116.472475,85.2789093 L91.3804068,57.031703 M116.472475,85.316482 L141.292869,56.7611791 M146.477306,116.828762 L175.935016,92.1133956 M146.477306,116.791189 L175.935016,142.592408 M141.568316,175.190541 L116.476248,147.48814 M91.38418,175.190541 L116.476248,147.48814 M57.0099333,141.506555 L85.3771766,116.791189 M57.0137066,92.0683083 L85.3809499,116.783674 M116.472475,85.275152 L57.0061601,92.064551 M116.472475,85.2789093 L175.93879,92.0683083 M91.3804068,175.190541 L85.3432175,116.794946 M91.3804068,57.0354603 L85.3432175,116.787432 M146.477306,116.791189 L141.289096,56.7611791 M146.477306,116.791189 L141.572089,175.186783 M175.935016,142.592408 L116.468702,147.476868 M57.0099333,141.502798 L116.476248,147.514441 M37.3362427,63.5543354 L56.9759742,92.1096383"></path>
                <path d="M29.7331574,99.6767936 L57.0137066,92.0720655 M62.7377167,36.6672633 L91.414366,57.0392176 M97.9269839,23.9000371 L91.3804068,57.0392176 M97.9269839,23.9000371 L141.289096,56.7611791 M134.746292,23.9000371 L141.289096,56.7611791 M169.935559,36.6672633 L141.25891,56.7686937 M195.574748,63.5543354 L141.289096,56.7611791 M175.935016,92.0720655 L195.574748,63.5167626 M175.935016,92.0720655 L203.755139,99.6767936 M175.935016,92.0720655 L203.215566,133.357022 M134.746292,23.9000371 L91.3766335,57.0392176 M57.0099333,141.506555 L62.7377167,195.829262 M57.0099333,141.506555 L29.4652571,133.090255 M57.0099333,92.0720655 L29.4652571,133.086498 M57.0099333,141.506555 L29.7293841,99.6805509 M62.7377167,36.6710206 L57.0099333,92.0795801 M37.3362427,63.5543354 L91.3426743,57.0354603 M175.935016,92.0720655 L169.897827,36.663506 M175.935016,142.592408 L203.215566,133.357022 M175.935016,142.592408 L203.755139,99.6767936 M175.935016,142.592408 L195.574748,168.938432 M175.935016,142.592408 L169.897827,195.825504 M141.568316,175.190541 L169.935559,195.833019 M141.568316,175.190541 L195.574748,168.94219 M141.568316,175.190541 L135.063245,208.555158 M141.568316,175.190541 L97.9269839,208.555158 M91.3804068,175.190541 L97.9269839,208.630303 M91.3804068,175.190541 L135.063245,208.555158 M91.4181392,175.190541 L62.74149,195.833019 M91.4181392,175.190541 L37.3362427,169.208956 M57.0099333,141.506555 L37.3362427,169.208956"></path>
                <path d="M62.7377167,36.6672633 L41.7358444,26.8908293 M62.7377167,36.6672633 L61.1076756,13.8530792 M97.9269839,23.9000371 L61.1076756,13.8530792 M97.9269839,23.9000371 L82.1057747,4.61769306 M97.9269839,23.9000371 L104.469788,0.777756277 M62.7377167,36.6672633 L82.1020014,4.61769306 M134.746292,23.9000371 L104.469788,0.777756277 M134.746292,23.9000371 L127.894082,0 M97.8892515,23.8962798 L127.894082,0 M134.746292,23.8962798 L150.567502,4.61393579 M169.935559,36.663506 L150.533542,4.61769306 M62.7377167,36.6672633 L25.6391884,43.4604196 M169.935559,36.6672633 L171.844821,13.8530792 M134.746292,23.9000371 L171.837274,13.8493219 M169.935559,36.6672633 L191.443046,25.8012191 M169.935559,36.6672633 L207.301988,42.3708093 M195.574748,63.5543354 L207.301988,42.3708093 M195.574748,63.5543354 L191.480779,25.8012191 M195.574748,63.5543354 L220.123469,61.6531534 M195.574748,63.5543354 L229.156613,82.5661555 M37.3362427,63.5543354 L12.7875216,61.6531534 M37.3362427,63.5543354 L4.36941577,82.8366794 M37.3362427,63.5543354 L25.6391884,43.4604196 M37.3362427,63.5543354 L41.7018852,26.8833148 M203.755139,99.6767936 L220.119696,61.6531534 M203.755139,99.6767936 L229.122654,82.5661555 M203.755139,99.6767936 L232.122383,105.38034 M203.208019,133.357022 L232.122383,105.38034 M203.208019,133.357022 L232.941176,127.924 M203.755139,99.6767936 L232.941176,127.924 M203.208019,133.357022 L228.575534,150.197136 M195.574748,168.938432 L228.579307,150.197136 M195.574748,168.938432 L219.851795,171.380662 M203.249525,133.357022 L219.851795,171.380662 M195.61248,168.938432 L207.068047,190.354909 M195.61248,168.938432 L191.246838,206.421025 M191.209105,206.421025 L169.935559,195.825504 M169.935559,195.825504 L171.573147,219.496348 M169.935559,195.825504 L207.026541,190.392482 M169.935559,195.825504 L150.533542,228.41988 M29.4614839,133.086498 L12.8592132,171.654943 M29.7331574,99.6767936 L0,127.924 M29.4614839,133.086498 L0.00377324332,105.38034 M29.7369306,99.6767936 L4.36941577,82.8366794 M29.7331574,99.6767936 L0,105.38034 M29.7331574,99.6767936 L12.8214808,61.6531534 M135.063245,208.555158 L150.533542,228.382307 M135.063245,208.555158 L171.614653,219.421202 M135.063245,208.555158 L127.894082,233 M135.063245,208.555158 L104.515067,233 M97.9269839,208.555158 L104.473561,233 M97.9269839,208.555158 L127.894082,233 M97.9269839,208.555158 L82.3812214,228.382307 M62.7377167,195.825504 L82.3774482,228.41988 M97.9269839,208.555158 L60.8360021,219.96225 M62.7377167,195.825504 L60.8284556,219.999823 M62.7377167,195.825504 L41.4641709,207.50312 M37.3362427,169.208956 L41.4264384,207.506878 M62.7377167,195.825504 L25.3750613,190.670521 M37.3362427,169.208956 L25.3373289,190.625433 M37.3362427,169.208956 L12.7875216,171.651186 M37.3362427,169.208956 L3.55062197,150.46766 M29.4614839,133.086498 L3.55062197,150.46766 M29.4614839,133.086498 L0.00377324332,127.924"></path>
            </g>
            <path d="M74.6218487,133.75628 L74.822954,105.322288 L103.67966,105.520577 L103.478555,133.95457 L74.6218487,133.75628 Z M105.84249,102.433993 L106.043596,74 L134.900302,74.1982897 L134.699197,102.632282 L105.84249,102.433993 Z M105.834902,164.80171 L106.036007,136.367718 L134.892713,136.566007 L134.691608,165 L105.834902,164.80171 Z M137.328743,133.486905 L137.529848,105.052913 L166.386555,105.251203 L166.185449,133.685195 L137.328743,133.486905 Z" id="Shape" fill="#256EA5" fill-rule="nonzero"></path>
            <path d="M135.251767,69.8002787 L135.391716,50.0037515 L155.43842,50.142556 L155.298471,69.9390832 L135.251767,69.8002787 Z M85.1350075,69.7965272 L85.2749562,50 L105.32166,50.1388045 L105.181712,69.9353317 L85.1350075,69.7965272 Z M50.4428624,105.060381 L50.5828111,85.2638537 L70.6295151,85.4026582 L70.4895664,105.199185 L50.4428624,105.060381 Z M50.4201681,154.793669 L50.6281999,134.997142 L70.6673391,135.203473 L70.4593073,155 L50.4201681,154.793669 Z M169.936348,154.418522 L170.076296,134.621994 L190.123,134.760799 L189.983052,154.557326 L169.936348,154.418522 Z M170.341064,105.199185 L170.549096,85.4026582 L190.588235,85.6089892 L190.380203,105.405516 L170.341064,105.199185 Z" id="Shape" fill="#3378BC" fill-rule="nonzero"></path>
            <path d="M34.9108127,73.7541081 L35.0012562,60.7084442 L48.0514876,60.7986736 L47.9610441,73.8443374 L34.9108127,73.7541081 Z M60.4233933,47.2041144 L60.5138368,34.1584506 L73.5640682,34.2486799 L73.4736247,47.2943438 L60.4233933,47.2041144 Z M95.545587,34.0719807 L95.6360304,21.0263169 L108.686262,21.1165463 L108.595818,34.1622101 L95.545587,34.0719807 Z M27.2268908,109.883454 L27.3173342,96.8377899 L40.2808906,96.9280193 L40.1904472,109.973683 L27.2268908,109.883454 Z M193.013443,60.888903 L206.090054,60.7986736 L206.180497,73.8180205 L193.103886,73.9082499 L193.013443,60.888903 Z M167.489557,33.8952815 L180.566168,33.8050522 L180.656611,46.8243991 L167.58,46.9146285 L167.489557,33.8952815 Z M132.254309,21.0902294 L145.33092,21 L145.421363,34.0193469 L132.344752,34.1095763 L132.254309,21.0902294 Z M200.614458,96.9806531 L213.691069,96.8904237 L213.781513,109.909771 L200.704902,110 L200.614458,96.9806531 Z" id="Shape" fill="#169BD6" fill-rule="nonzero"></path>
            <path d="M84.7058824,188.860745 L84.846398,169 L104.974318,169.139255 L104.833802,189 L84.7058824,188.860745 Z M135.025682,188.860745 L135.166198,169 L155.294118,169.139255 L155.153602,189 L135.025682,188.860745 Z" id="Shape" fill="#3378BC" fill-rule="nonzero"></path>
            <path d="M192.945953,178.229723 L193.036461,165.183508 L206.095925,165.273741 L206.005418,178.319956 L192.945953,178.229723 Z M167.686844,205.051538 L167.777352,192.005323 L180.836816,192.095556 L180.746309,205.141771 L167.686844,205.051538 Z M132.539801,217.909767 L132.630309,204.863552 L145.689773,204.953785 L145.599266,218 L132.539801,217.909767 Z M200.631541,142.098851 L200.722048,129.052636 L213.781513,129.142869 L213.691005,142.189084 L200.631541,142.098851 Z M34.8445975,165.183508 L47.9304601,165.093275 L48.0209675,178.113172 L34.9351049,178.203405 L34.8445975,165.183508 Z M60.3827709,191.90757 L73.4686335,191.817337 L73.5591409,204.837234 L60.4732783,204.927467 L60.3827709,191.90757 Z M95.3638838,204.709404 L108.449746,204.61917 L108.540254,217.639067 L95.4543912,217.7293 L95.3638838,204.709404 Z M27.2268908,129.090233 L40.3127534,129 L40.4032608,142.019897 L27.3173982,142.11013 L27.2268908,129.090233 Z" id="Shape" fill="#169BD6" fill-rule="nonzero"></path>
            <g id="Group" fill="#00A8DA" fill-rule="nonzero">
                <g id="B-link" transform="translate(219.8037, 61.695)">
                    <polygon id="B" points="0 7.05 0.0490658615 0 7.28061898 0.04875 7.23155312 7.09875"></polygon>
                </g>
                <g id="B-link" transform="translate(229.1413, 82.9875)">
                    <polygon id="B" points="0 7.05 0.0490658615 0 7.28061898 0.04875 7.23155312 7.09875"></polygon>
                </g>
                <g id="B-link" transform="translate(207.1674, 42.855)">
                    <polygon id="B" points="0 7.05 0.0490658615 0 7.28061898 0.04875 7.23155312 7.09875"></polygon>
                </g>
                <polygon id="B" points="41.4908473 33.79875 41.5399132 26.74875 48.7714663 26.7975 48.7224005 33.8475"></polygon>
                <g id="B-link" transform="translate(0, 105.3638)">
                    <polygon id="B" points="0 7.05 0.0490658615 0 7.28061898 0.04875 7.23155312 7.09875"></polygon>
                </g>
                <g id="B-link" transform="translate(191.2323, 26.7525)">
                    <polygon id="B" points="0 7.05 0.0490658615 0 7.28061898 0.04875 7.23155312 7.09875"></polygon>
                </g>
                <g id="B-link" transform="translate(4.1253, 82.98)">
                    <polygon id="B" points="0 7.05 0.0490658615 0 7.28061898 0.04875 7.23155312 7.09875"></polygon>
                </g>
                <g id="B-link" transform="translate(82.1476, 4.9125)">
                    <polygon id="B" points="0 7.05 0.0490658615 0 7.28061898 0.04875 7.23155312 7.09875"></polygon>
                </g>
                <g id="B-link" transform="translate(12.9119, 61.6875)">
                    <polygon id="B" points="0 7.05 0.0490658615 0 7.28061898 0.04875 7.23155312 7.09875"></polygon>
                </g>
                <g id="B-link" transform="translate(25.8275, 42.585)">
                    <polygon id="B" points="0 7.05 0.0490658615 0 7.28061898 0.04875 7.23155312 7.09875"></polygon>
                </g>
                <path d="M60.8529911,13.9875 L67.9486696,13.93875 L67.9977354,21.12375 L60.902057,21.1725 L60.8529911,13.9875 Z M104.680128,0.1275 L111.775807,0.07875 L111.824873,7.26375 L104.729194,7.3125 L104.680128,0.1275 Z" id="Shape"></path>
                <g id="B-link" transform="translate(171.9947, 14.1937)">
                    <polygon id="B" points="0 7.05 0.0490658615 0 7.28061898 0.04875 7.23155312 7.09875"></polygon>
                </g>
                <g id="B-link" transform="translate(232.7194, 105.0975)">
                    <polygon id="B" points="0 7.05 0.0490658615 0 7.28061898 0.04875 7.23155312 7.09875"></polygon>
                </g>
                <polygon id="Path" points="127.759955 7.05 127.809021 0 135.040574 0.04875 134.991508 7.09875"></polygon>
                <g id="B-link" transform="translate(150.2925, 4.6387)">
                    <polygon id="B" points="0 7.05 0.0490658615 0 7.28061898 0.04875 7.23155312 7.09875"></polygon>
                </g>
                <g id="B-link" transform="translate(191.2248, 206.3738)">
                    <polygon id="B" points="0 7.05 0.0490658615 -3.55271368e-15 7.28061898 0.04875 7.23155312 7.09875"></polygon>
                </g>
                <g id="B-link" transform="translate(232.7194, 127.755)">
                    <polygon id="B" points="0 7.05 0.0490658615 -1.42108547e-14 7.28061898 0.04875 7.23155312 7.09875"></polygon>
                </g>
                <g id="B-link" transform="translate(41.4833, 206.37)">
                    <polygon id="B" points="0 7.05 0.0490658615 0 7.28061898 0.04875 7.23155312 7.09875"></polygon>
                </g>
                <g id="B-link" transform="translate(229.1413, 150.45)">
                    <polygon id="B" points="0 7.05 0.0490658615 -3.55271368e-15 7.28061898 0.04875 7.23155312 7.09875"></polygon>
                </g>
                <g id="B-link" transform="translate(150.285, 228.4875)">
                    <polygon id="B" points="0 7.05 0.0490658615 0 7.28061898 0.04875 7.23155312 7.09875"></polygon>
                </g>
                <g id="B-link" transform="translate(219.8, 171.705)">
                    <polygon id="B" points="0 7.05 0.0490658615 -1.77635684e-15 7.28061898 0.04875 7.23155312 7.09875"></polygon>
                </g>
                <g id="B-link" transform="translate(207.1636, 190.815)">
                    <polygon id="B" points="0 7.05 0.0490658615 -1.77635684e-15 7.28061898 0.04875 7.23155312 7.09875"></polygon>
                </g>
                <path d="M171.704095,219.5025 L178.799774,219.45375 L178.848839,226.63875 L171.753161,226.6875 L171.704095,219.5025 Z M128.141159,232.815 L135.236837,232.76625 L135.285903,239.95125 L128.190225,240 L128.141159,232.815 Z" id="Shape"></path>
                <g id="B-link" transform="translate(60.9926, 219.75)">
                    <polygon id="B" points="0 7.05 0.0490658615 0 7.28061898 0.04875 7.23155312 7.09875"></polygon>
                </g>
                <g id="B-link" transform="translate(12.6363, 171.4275)">
                    <polygon id="B" points="0 7.05 0.0490658615 -1.77635684e-15 7.28061898 0.04875 7.23155312 7.09875"></polygon>
                </g>
                <g id="B-link" transform="translate(4.1178, 150.4125)">
                    <polygon id="B" points="0 7.05 0.0490658615 -3.55271368e-15 7.28061898 0.04875 7.23155312 7.09875"></polygon>
                </g>
                <g id="B-link" transform="translate(25.5444, 190.8075)">
                    <polygon id="B" points="0 7.05 0.0490658615 -1.77635684e-15 7.28061898 0.04875 7.23155312 7.09875"></polygon>
                </g>
                <g id="B-link" transform="translate(0, 127.7513)">
                    <polygon id="B" points="0 7.05 0.0490658615 -1.42108547e-14 7.28061898 0.04875 7.23155312 7.09875"></polygon>
                </g>
                <g id="B-link" transform="translate(104.9519, 232.8525)">
                    <polygon id="B" points="0 7.05 0.0490658615 0 7.28061898 0.04875 7.23155312 7.09875"></polygon>
                </g>
                <g id="B-link" transform="translate(81.8758, 228.21)">
                    <polygon id="B" points="0 7.05 0.0490658615 0 7.28061898 0.04875 7.23155312 7.09875"></polygon>
                </g>
            </g>
        </g>
    </g>
</svg>