<?xml version="1.0" encoding="UTF-8"?>
<svg width="241px" height="241px" viewBox="0 0 241 241" version="1.1" xmlns="http://www.w3.org/2000/svg" xmlns:xlink="http://www.w3.org/1999/xlink">
    <title>harness</title>
    <g id="Page-1" stroke="none" stroke-width="1" fill="none" fill-rule="evenodd">
        <g id="harness" transform="translate(0.0754, 0.0754)">
            <rect id="box" x="0" y="2.27373675e-13" width="240" height="240"></rect>
            <g id="icon" transform="translate(0, 0)" fill="#00ADE4">
                <path d="M134.617965,55.2990308 L134.617718,106.026031 L185.345191,106.026256 L185.345191,135.540279 L134.617718,135.540031 L134.617965,186.267504 L105.103943,186.267504 L105.103718,135.540031 L54.3767176,135.540279 L54.3767176,106.026256 L105.103718,106.026031 L105.103943,55.2990308 L134.617965,55.2990308 Z" id="Combined-Shape" transform="translate(119.861, 120.7833) rotate(45) translate(-119.861, -120.7833)"></path>
                <path d="M156.892528,35.1471863 C183.380262,35.1471863 204.852814,56.6197377 204.852814,83.1074723 L204.852814,156.892528 C204.852814,183.380262 183.380262,204.852814 156.892528,204.852814 L83.1074723,204.852814 C56.6197377,204.852814 35.1471863,183.380262 35.1471863,156.892528 L35.1471863,83.1074723 C35.1471863,56.6197377 56.6197377,35.1471863 83.1074723,35.1471863 L156.892528,35.1471863 Z M156.892528,64.6612084 L83.1074723,64.6612084 C72.9198821,64.6612084 64.6612084,72.9198821 64.6612084,83.1074723 L64.6612084,156.892528 C64.6612084,167.080118 72.9198821,175.338792 83.1074723,175.338792 L156.892528,175.338792 C167.080118,175.338792 175.338792,167.080118 175.338792,156.892528 L175.338792,83.1074723 C175.338792,72.9198821 167.080118,64.6612084 156.892528,64.6612084 Z" id="box" fill-rule="nonzero" transform="translate(120, 120) rotate(45) translate(-120, -120)"></path>
            </g>
        </g>
    </g>
</svg>