<?xml version="1.0" encoding="UTF-8"?>
<svg width="240px" height="241px" viewBox="0 0 240 241" version="1.1" xmlns="http://www.w3.org/2000/svg" xmlns:xlink="http://www.w3.org/1999/xlink">
    <title>hasura</title>
    <g id="Page-1" stroke="none" stroke-width="1" fill="none" fill-rule="evenodd">
        <g id="hasura" transform="translate(-176, 120.6258)">
            <rect id="box" x="176" y="-120" width="240" height="240"></rect>
            <g id="shape" transform="translate(180, -121)" fill="#1EB4D4" fill-rule="nonzero">
                <path d="M227.726768,82.7202022 C234.591828,61.209281 230.46685,18.246895 217.149228,2.39520407 C215.410967,0.321154013 212.140408,0.617445246 210.696666,2.8989046 L194.285596,28.7949292 C190.219465,33.9801329 182.912484,35.1652636 177.432319,31.5504437 C159.636354,19.8468786 138.363581,13.0321202 115.499949,13.0321202 C92.6363171,13.0321202 71.363544,19.8468786 53.5675787,31.5504437 C48.0874143,35.1652636 40.7804333,33.950419 36.7143022,28.7949292 L20.3031753,2.8989046 C18.8594616,0.617445246 15.5889884,0.321154013 13.8506417,2.39520407 C0.533108129,18.246895 -3.59178679,61.209281 3.27321602,82.7202022 C5.54192522,89.8609858 6.19012377,97.4163365 4.83479434,104.79426 C3.50891679,112.083043 2.15360736,120.91238 2.15360736,127.016032 C2.15360736,189.948812 52.9194087,241 115.499949,241 C178.110198,241 228.846282,189.978526 228.846282,127.016032 C228.846282,120.882952 227.520519,112.083043 226.165047,104.79426 C224.80986,97.4163365 225.45803,89.8609858 227.726768,82.7202022 Z M115.499949,215.518834 C67.120873,215.518834 27.7574443,175.934099 27.7574443,127.282886 C27.7574443,125.682902 27.8163766,124.112347 27.875309,122.542078 C29.6429933,89.3869906 49.6488498,61.0315685 77.9929317,47.5205649 C89.3657582,42.0689067 102.094057,39.0466522 115.499949,39.0466522 C128.905841,39.0466522 141.63414,42.0986207 153.036675,47.5502788 C181.380472,61.0612825 201.386328,89.4164189 203.154012,122.542078 C203.242568,124.112347 203.271991,125.682902 203.271991,127.282886 C203.242568,175.934099 163.879025,215.518834 115.499949,215.518834 Z" id="Shape"></path>
                <path d="M153.65547,161.165079 L131.373487,121.951246 L112.253677,89.2484921 C111.81451,88.4756024 110.994656,88 110.087081,88 L91.8163664,88 C90.9085083,88 90.088654,88.5054171 89.6494868,89.2783069 C89.2103197,90.0810113 89.2103197,91.0620309 89.6787268,91.8352073 L107.949442,123.051238 L83.4128594,161.046107 C82.9152124,161.818997 82.8567325,162.829831 83.2958996,163.66235 C83.7350667,164.494583 84.584161,165 85.4917352,165 L103.879694,165 C104.728788,165 105.519403,164.554212 105.98781,163.840665 L119.251679,142.792034 L131.139283,163.721693 C131.57845,164.524398 132.427544,165 133.305879,165 L151.430394,165 C152.337968,165 153.157823,164.524398 153.59699,163.721693 C154.124161,162.918989 154.124161,161.967784 153.65547,161.165079 Z" id="Path"></path>
            </g>
        </g>
    </g>
</svg>