<?xml version="1.0" encoding="UTF-8"?>
<svg width="240px" height="240px" viewBox="0 0 240 240" version="1.1" xmlns="http://www.w3.org/2000/svg" xmlns:xlink="http://www.w3.org/1999/xlink">
    <title>hedera</title>
    <g id="Page-1" stroke="none" stroke-width="1" fill="none" fill-rule="evenodd">
        <g id="hedera" fill-rule="nonzero">
            <path d="M120,0 C53.72544,0 0,53.72544 0,120 C0,186.27456 53.72544,240 120,240 C186.27456,240 240,186.27456 240,120 C240,53.72544 186.27456,0 120,0" id="Path" fill="#000000"></path>
            <path d="M170,171 L154.691418,171 L154.691418,138.619315 L87.3085824,138.619315 L87.3085824,171 L72,171 L72,66 L87.3085824,66 L87.3085824,97.6016064 L154.691418,97.6016064 L154.691418,66 L170,66 L170,171 Z M88.0318226,126.505222 L155.413693,126.505222 L155.413693,109.775186 L88.0318226,109.775186 L88.0318226,126.505222 Z" id="Shape" fill="#FFFFFF"></path>
        </g>
    </g>
</svg>