<?xml version="1.0" encoding="UTF-8"?>
<svg width="240px" height="240px" viewBox="0 0 240 240" version="1.1" xmlns="http://www.w3.org/2000/svg" xmlns:xlink="http://www.w3.org/1999/xlink">
    <title>hedra</title>
    <g id="Page-1" stroke="none" stroke-width="1" fill="none" fill-rule="evenodd">
        <g id="hedra" fill="#FFFFFF">
            <path d="M98.5701151,227.17 L116.117508,198.27 L141.429885,240 L173.372444,222.46 L144.561096,175 L137.395035,163.2 L128.989099,149.35 L103.214395,149.35 L94.8084585,163.2 L87.6423974,175 L66.6170483,209.63 L98.5596077,227.17 L98.5701151,227.17 Z M11.6947594,155.93 L46.7685303,155.93 L21.445646,197.65 L53.3882054,215.2 L82.1995534,167.73 L89.3656145,155.93 L97.7715512,142.09 L84.8789458,120.86 L11.6947594,120.86 L11.6947594,155.93 L11.6947594,155.93 Z M33.129898,48.76 L50.6772908,77.66 L0,77.66 L0,112.73 L88.7666915,112.73 L101.680312,91.5 L93.274375,77.65 L86.108314,65.85 L65.0829648,31.23 L33.1404054,48.76 L33.129898,48.76 Z M141.440392,12.83 L123.892999,41.73 L98.5806226,0 L66.6380631,17.54 L95.4389037,65 L102.615472,76.8 L111.021409,90.65 L136.796112,90.65 L145.202049,76.8 L152.357603,65 L173.382952,30.37 L141.440392,12.83 L141.440392,12.83 Z M228.315748,84.07 L193.241977,84.07 L218.564861,42.35 L186.622302,24.81 L157.810954,72.27 L150.644893,84.07 L142.238956,97.92 L155.131562,119.14 L228.315748,119.14 L228.315748,84.07 Z M206.880609,191.23 L189.333217,162.34 L240,162.34 L240,127.27 L151.233309,127.27 L138.351211,148.5 L146.757147,162.35 L153.923208,174.15 L174.93805,208.78 L206.891117,191.23 L206.880609,191.23 Z" id="Shape"></path>
        </g>
    </g>
</svg>