<?xml version="1.0" encoding="UTF-8"?>
<svg width="240px" height="241px" viewBox="0 0 240 241" version="1.1" xmlns="http://www.w3.org/2000/svg" xmlns:xlink="http://www.w3.org/1999/xlink">
    <title>helm</title>
    <g id="Page-1" stroke="none" stroke-width="1" fill="none" fill-rule="evenodd">
        <g id="helm">
            <rect id="ViewBox" x="0" y="0" width="240" height="240"></rect>
            <path d="M66.5625,57.1875 C66.1875,57 66,56.625 65.625,56.4375 C59.625,50.625 54.9375,43.6875 52.125,35.625 C51.375,33.375 50.8125,31.125 50.8125,28.6875 L50.8125,27.9375 C51,24.75 53.0625,23.25 56.0625,24 C57,24.1875 57.9375,24.5625 58.6875,25.125 C62.0625,26.8125 64.6875,29.25 67.125,32.0625 C71.4375,36.75 75,42.375 77.4375,48.375 C77.4375,48.5625 77.625,48.75 77.625,48.75 C77.625,48.75 77.8125,48.9375 78,48.9375 C89.625,41.8125 102.9375,37.5 116.625,36.75 C116.4375,36.375 116.4375,36 116.4375,35.625 C115.125,29.8125 114.5625,23.625 115.125,17.625 C115.3125,14.0625 116.0625,10.5 117.1875,6.9375 C117.75,5.0625 118.6875,3.5625 119.8125,2.0625 C120.1875,1.5 120.75,1.125 121.3125,0.75 C122.4375,5.55111512e-17 123.9375,5.55111512e-17 125.0625,0.75 C126.1875,1.5 127.125,2.625 127.875,3.9375 C129,6.1875 129.9375,8.625 130.3125,11.0625 C131.4375,16.3125 131.8125,21.75 131.25,27.1875 C131.0625,30.375 130.5,33.75 129.5625,36.9375 C132.9375,37.5 136.3125,38.0625 139.6875,38.8125 C143.0625,39.5625 146.25,40.5 149.4375,41.8125 C152.625,42.9375 155.8125,44.4375 158.8125,45.9375 C161.8125,47.4375 164.625,49.3125 167.625,51 C167.8125,50.8125 167.8125,50.625 168,50.25 C171.1875,41.4375 176.625,33.5625 183.75,27.375 C185.4375,25.875 187.3125,24.75 189.375,24 C189.9375,23.8125 190.5,23.625 191.0625,23.625 C194.0625,23.25 195.375,25.125 195.5625,27.5625 C195.75,29.25 195.5625,30.9375 195.1875,32.625 C194.0625,36.9375 192.375,40.875 190.125,44.625 C186.9375,50.0625 183,54.75 178.125,58.6875 C177.9375,58.875 177.75,58.875 177.5625,59.25 C182.25,63.75 186.5625,68.8125 190.3125,74.25 C189.9375,74.25 189.75,74.4375 189.5625,74.4375 L174.375,74.4375 C173.8125,74.4375 173.25,74.0625 172.875,73.6875 C161.8125,61.3125 147,53.4375 130.875,51 C126.1875,50.25 121.3125,50.0625 116.4375,50.4375 C102.1875,51.375 88.3125,56.8125 77.25,66 C74.4375,68.25 71.625,70.875 69.1875,73.6875 C68.8125,74.25 68.0625,74.625 67.3125,74.625 L51.75,74.625 C52.125,73.5 54.9375,69.375 58.3125,65.625 C61.125,62.625 63.75,60 66.5625,57.1875 M189.1875,167.625 C185.8125,172.5 182.0625,176.8125 177.75,180.9375 C178.125,181.3125 178.3125,181.5 178.6875,181.6875 C186,187.875 191.625,195.9375 194.8125,205.125 C195.5625,207.375 195.9375,209.8125 195.9375,212.0625 C195.9375,212.625 195.75,213.1875 195.5625,213.9375 C195,215.625 193.3125,216.75 191.625,216.375 C190.5,216.1875 189.375,215.8125 188.4375,215.4375 C186.9375,214.6875 185.4375,213.75 184.125,212.625 C177,206.625 171.5625,198.75 168.375,189.9375 C168.1875,189.75 168.1875,189.375 168,189 C164.25,191.625 160.3125,193.875 156.1875,195.75 C150,198.5625 147.75,199.3125 143.4375,200.4375 C138.9375,201.5625 134.625,202.5 129.9375,203.0625 C130.125,203.4375 130.125,203.8125 130.125,204.1875 C131.625,210 132,216 131.625,222 C131.4375,225.75 130.6875,229.3125 129.5625,232.875 C129,234.375 128.25,235.6875 127.5,237.1875 C127.125,237.75 126.75,238.125 126.375,238.6875 C124.5,240.75 122.25,240.75 120.375,238.6875 C119.625,237.9375 119.0625,237 118.5,235.875 C117,233.0625 116.25,230.0625 115.6875,226.875 C114.9375,222.5625 114.75,218.25 114.9375,213.9375 C115.125,210.75 115.5,207.5625 116.25,204.5625 C116.25,204.375 116.4375,204 116.4375,203.8125 C116.4375,203.8125 116.4375,203.625 116.25,203.4375 C102.5625,202.6875 89.4375,198.5625 77.625,191.25 L77.0625,192.375 C73.6875,200.25 68.8125,207.1875 62.4375,212.625 C60.75,214.125 58.875,215.25 56.8125,216 C55.875,216.375 54.75,216.5625 53.8125,216.375 C52.6875,216.1875 51.75,215.4375 51.1875,214.125 C50.4375,212.4375 50.625,210.75 50.8125,209.0625 C51.1875,206.625 51.9375,204.375 52.875,202.125 C55.6875,195.1875 60.1875,189 65.4375,183.75 C65.625,183.5625 65.8125,183.375 66.1875,183.1875 C66.1875,183 66.375,183 66.375,182.8125 C61.3125,178.3125 56.625,173.25 52.875,167.625 C53.4375,167.625 53.625,167.4375 54,167.4375 L69,167.4375 C69.75,167.4375 70.3125,167.8125 70.6875,168.1875 C76.125,174 82.5,178.6875 89.4375,182.25 C96.75,186.1875 104.8125,188.625 113.0625,189.375 C135.5625,191.625 154.875,184.6875 171,168.5625 C171.75,167.8125 172.6875,167.25 173.8125,167.4375 L189,167.4375 L189.1875,167.625 Z M168.375,94.5 C169.6875,94.5 171,94.6875 172.3125,94.5 C173.8125,94.3125 174.75,94.875 175.875,95.8125 C181.875,101.4375 187.875,107.0625 194.0625,112.6875 L195,113.625 C195.375,113.25 195.75,113.0625 196.125,112.6875 C202.3125,106.875 208.6875,101.0625 214.6875,95.25 C215.25,94.6875 216,94.5 216.75,94.5 L221.4375,94.5 L221.4375,145.875 C220.6875,146.0625 209.625,146.25 208.3125,145.875 L208.3125,119.8125 L208.125,119.625 C203.8125,123.5625 199.5,127.6875 195.1875,131.625 C190.875,127.5 186.5625,123.5625 182.0625,119.625 L181.875,119.8125 L181.875,146.0625 L168.75,146.0625 C168.375,145.125 168.1875,97.5 168.375,94.5 M48,94.5 L60.9375,94.5 C61.3125,95.4375 61.3125,144.75 60.9375,145.875 L48,145.875 C47.8125,142.6875 48,139.3125 48,136.125 L48,126.375 L31.875,126.375 L31.875,145.6875 C30.9375,146.0625 19.875,146.0625 18.75,145.6875 L18.75,94.5 L31.875,94.5 L31.875,112.6875 C32.8125,113.0625 46.5,113.0625 48,112.6875 L48,94.5 Z M76.5,145.875 L76.5,94.6875 C77.25,94.5 105.75,94.3125 107.625,94.5 L107.625,105.375 C107.25,105.375 106.6875,105.5625 106.3125,105.5625 L89.625,105.5625 L89.625,114 L105.5625,114 L105.5625,125.25 L89.8125,125.25 C89.4375,126.1875 89.4375,132.9375 89.625,134.8125 C90,134.8125 90.5625,135 90.9375,135 L107.625,135 L107.625,145.875 L76.5,145.875 Z M122.625,145.875 C122.4375,144.5625 122.4375,95.4375 122.625,94.5 L135.5625,94.5 L135.5625,132.375 C136.125,132.375 136.5,132.375 137.0625,132.5625 L153.75,132.5625 L153.75,146.0625 L122.625,145.875 Z" id="Shape" fill="#FFFFFF" fill-rule="nonzero"></path>
        </g>
    </g>
</svg>