<?xml version="1.0" encoding="UTF-8"?>
<svg width="240px" height="240px" viewBox="0 0 240 240" version="1.1" xmlns="http://www.w3.org/2000/svg" xmlns:xlink="http://www.w3.org/1999/xlink">
    <title>heroku</title>
    <g id="Page-1" stroke="none" stroke-width="1" fill="none" fill-rule="evenodd">
        <g id="heroku">
            <rect id="box" fill="#300B60" x="0" y="0" width="240" height="240" rx="32"></rect>
            <g id="Group" transform="translate(44, 34)" fill="#D7BFF2" fill-rule="nonzero">
                <path d="M140.401546,0 L15.5984536,0 C6.98476688,0 0,7.05183489 0,15.7482305 L0,159.251769 C0,167.948165 6.98476688,175 15.5984536,175 L140.401546,175 C149.015233,175 156,167.948165 156,159.251769 L156,15.7482305 C156,7.05183489 149.015233,0 140.401546,0 Z M147.334765,159.251769 C147.334765,163.113365 144.226415,166.251561 140.401546,166.251561 L15.5984536,166.251561 C11.7735849,166.251561 8.66523478,163.113365 8.66523478,159.251769 L8.66523478,15.7482305 C8.66523478,11.8866353 11.7735849,8.74843871 15.5984536,8.74843871 L140.401546,8.74843871 C144.226415,8.74843871 147.334765,11.8866353 147.334765,15.7482305 L147.334765,159.251769 Z" id="Shape"></path>
                <polygon id="Path" points="37.44 146.875 56.16 129.690056 37.44 112.5"></polygon>
                <path d="M107.893204,76.3097944 C104.398379,72.7579761 97.9860444,68.5278952 87.2747656,68.5278952 C75.5222557,68.5278952 63.4295416,71.5981987 54.7749521,74.4251561 L54.7749521,25 L37.44,25 L37.44,100.499437 L49.6821978,94.9283636 C49.878073,94.8403447 69.6460008,85.9349112 87.269611,85.9349112 C96.0685296,85.9349112 98.016972,90.8173669 98.1046004,94.8817654 L98.1046004,146.875 L115.44,146.875 L115.44,94.6435968 C115.449862,93.5304176 115.34677,83.8794129 107.893204,76.3097944 Z" id="Path"></path>
                <path d="M84.24,53.125 L102.069329,53.125 C110.133084,44.2510066 114.236534,34.8262491 115.44,25 L97.6106712,25 C95.6437723,34.8108071 91.2434325,44.1995333 84.24,53.125 Z" id="Path"></path>
            </g>
        </g>
    </g>
</svg>