<?xml version="1.0" encoding="UTF-8"?>
<svg width="240px" height="240px" viewBox="0 0 240 240" version="1.1" xmlns="http://www.w3.org/2000/svg" xmlns:xlink="http://www.w3.org/1999/xlink">
    <title>homebrew</title>
    <g id="Page-1" stroke="none" stroke-width="1" fill="none" fill-rule="evenodd">
        <g id="homebrew" transform="translate(0, -0)">
            <rect id="ViewBox" x="0" y="0" width="240" height="240"></rect>
            <path d="M74.3925,61.8225 C65.7675,61.8225 58.54875,67.71375 56.386875,75.67875 C48.76875,76.749375 42.853125,83.236875 42.853125,91.14 C42.853125,98.8275 48.391875,105.245625 55.678125,106.689375 L55.711875,106.693125 C58.4100239,107.188709 61.0835603,107.810011 63.72375,108.555 L63.75,108.5625 C74.255625,111.395625 94.69125,115.27875 117.315,114.710625 C118.75875,117.66 120.97125,120.16125 123.766875,121.8525 L123.740625,121.83375 C124.72125,122.443125 125.514375,124.065 125.514375,125.01375 C125.531863,130.62487 130.075136,135.169819 135.68625,135.189375 C138.343125,135.189375 140.85375,134.38875 142.755,132.78 C144.65625,131.17125 145.8675,128.705625 145.8675,125.91 L145.861875,124.395 L145.854375,124.2225 C145.629218,121.135613 146.281842,118.047998 147.736875,115.31625 L147.736875,115.3125 C148.550625,113.805 149.0625,112.130625 149.394375,110.398125 C153.075,109.434375 156.73875,108.358125 160.325625,107.00625 L160.335,107.0025 C161.592521,106.518579 162.900889,106.178907 164.235,105.99 L164.2425,105.988125 C172.008229,104.90403 177.789943,98.266654 177.79875,90.425625 C177.79875,81.778125 170.739375,74.716875 162.09,74.716875 C159.59625,74.716875 157.276875,75.3825 155.184375,76.4175 C152.173125,69.5925 145.3875,64.8075 137.47125,64.8075 C128.48625,64.8075 120.9675,70.99125 118.771875,79.30125 C115.46625,75.444375 110.675625,72.88875 105.211875,72.88875 C100.37625,72.88875 96.12375,74.9475 92.88,78.06375 C91.6425,68.923125 83.859375,61.820625 74.38875,61.820625 L74.3925,61.8225 Z M74.3925,66.1125 C79.0836959,66.1014558 83.4871564,68.3727393 86.1977526,72.2015915 C88.9083487,76.0304437 89.5873632,80.9384099 88.018125,85.359375 C87.8092796,85.9573121 87.8753635,86.6169797 88.1986683,87.1616073 C88.5219731,87.7062348 89.0694438,88.080139 89.694375,88.183125 L89.746875,88.1925 C90.7581336,88.3305409 91.7266103,87.7369078 92.0625,86.773125 L92.064375,86.77875 L92.068125,86.769375 L92.1375,86.72625 C93.9537385,81.0337495 99.2441531,77.1703895 105.219375,77.173125 C111.154807,77.1719218 116.418506,80.9861745 118.265625,86.626875 C118.609876,87.6654757 119.680684,88.2784993 120.750619,88.0495024 C121.820554,87.8205056 122.546639,86.8228953 122.435625,85.734375 C121.994259,81.4787337 123.380611,77.2358299 126.249584,74.0618294 C129.118558,70.8878288 133.200295,69.0812787 137.47875,69.091875 C144.071531,69.0891347 149.905283,73.3604912 151.89375,79.64625 C152.238128,80.735581 153.375891,81.3638237 154.48125,81.075 L155.983125,80.68125 C156.16296,80.635308 156.33577,80.5653009 156.496875,80.473125 C158.204274,79.5063999 160.133545,78.9998534 162.095625,79.003125 C165.126663,78.9946283 168.036006,80.1949431 170.179281,82.3382187 C172.322557,84.4814944 173.522872,87.3908374 173.51442,90.421875 C173.523976,96.1274468 169.314061,100.961438 163.66125,101.735625 L163.651875,101.735625 C161.99377,101.970835 160.367732,102.393542 158.805,102.995625 C154.958299,104.435594 151.031785,105.652613 147.045,106.640625 C146.165337,106.857164 145.517717,107.604707 145.42875,108.50625 C145.261101,110.179618 144.764059,111.803288 143.96625,113.28375 L143.964375,113.29125 C142.125444,116.738892 141.299876,120.636614 141.583125,124.53375 L141.579375,124.3575 L141.586875,125.90625 C141.586875,127.546875 141,128.653125 139.993125,129.5025 C138.99,130.35375 137.480625,130.901337 135.69375,130.901337 C134.129686,130.909787 132.627212,130.292241 131.521236,129.186264 C130.415259,128.080288 129.797713,126.577814 129.80625,125.01375 C129.80745,122.235838 128.371924,119.65487 126.01125,118.190625 L125.9925,118.171875 C123.562995,116.697902 121.690905,114.459835 120.669375,111.808125 C120.342998,110.95489 119.510458,110.40338 118.5975,110.435625 C95.99625,111.196875 75.24375,107.210625 64.90125,104.4225 L64.875,104.415 C62.1126419,103.632883 59.3144423,102.98339 56.49,102.46875 L56.5275,102.474375 C51.2025,101.41875 47.1543476,96.763125 47.1543476,91.1325 C47.1410006,84.9810068 52.0179824,79.9321308 58.16625,79.7325 C59.1733076,79.6968869 60.0198004,78.9650803 60.200625,77.97375 C61.4388322,71.0990182 67.4240278,66.0987182 74.409375,66.1031221 L74.3925,66.1125 Z M79.00125,0.03375 C78.1936779,0.175059001 77.5380836,0.765822316 77.31375,1.554375 C74.16,12.594375 79.10625,23.064375 85.7025,30.909375 C87.1920142,32.6740026 88.7821596,34.3511678 90.465,35.9325 C88.2509194,35.6306957 86.0023301,35.6940362 83.80875,36.12 C71.964375,38.4525 61.87875,45.97125 56.4,61.441875 C54.15375,67.786875 54.054375,74.385 54.778125,80.379375 C55.8647219,79.9988433 57.0025459,79.7845531 58.153125,79.74375 C58.4462809,79.6964868 58.7257749,79.58648 58.9725,79.42125 C58.3725,74.008125 58.550625,68.2125 60.4425,62.870625 C65.529375,48.504375 73.9875,42.421875 84.63375,40.325625 C88.30125,39.605625 91.27875,40.21875 94.53375,41.278125 C96.16125,41.810625 97.839375,42.465 99.64125,43.089375 L99.975,43.1925 C101.68125,43.77375 103.490625,44.325 105.47625,44.705625 C106.165434,44.8377943 106.875688,44.6244935 107.378025,44.1344915 C107.880361,43.6444896 108.111249,42.9397563 107.99625,42.2475 C107.567955,39.6413815 107.566055,36.982978 107.990625,34.37625 C108.07875,33.85125 108.155625,33.320625 108.268125,32.806875 C108.924375,29.881875 110.04375,27.196875 111.361875,24.804375 C113.136102,21.6208644 115.369431,18.7159576 117.99,16.183125 C118.695,16.7175 119.401875,17.195625 120.105,17.983125 C120.448125,18.3675 120.4275,18.38625 120.69,18.710625 C117.37125,21.79125 109.993125,30.151875 111.16875,43.243125 C111.272537,44.3774449 112.244826,45.2328284 113.383125,45.19125 C118.07625,45.0225 121.209375,43.46625 123.946875,42.204375 C126.684375,40.9425 129.031875,39.924375 133.261875,40.055625 C142.0125,40.33125 149.64375,47.206875 152.6475,51.40125 C155.89125,56.34 159.88125,62.47875 159.234375,79.306875 L159.234375,79.378125 C160.167106,79.1330308 161.12748,79.0088879 162.091875,79.00875 C162.576875,79.01125 163.054375,79.045 163.524375,79.11 C164.116875,61.734375 159.470625,53.979375 156.196875,48.9975 L156.15375,48.92625 C152.506875,43.8225 144.2175,36.106875 133.396875,35.769375 C128.37,35.61375 124.978125,37.006875 122.154375,38.308125 C119.9775,39.31125 117.943125,40.078125 115.45875,40.51125 C115.475625,27.6525 124.903125,20.69625 124.903125,20.69625 C125.850096,20.0061033 126.067987,18.6837335 125.3925,17.72625 C125.3925,17.72625 124.528125,16.5 123.3075,15.129375 C122.08875,13.760625 120.61125,12.17625 118.606875,11.34 C117.846759,11.0201318 116.970436,11.1660641 116.355,11.715 C112.85584,14.8845644 109.900901,18.6072167 107.608125,22.734375 C107.128125,23.604375 106.708125,24.555 106.28625,25.509375 C105.361875,22.453125 104.11125,19.614375 102.470625,16.996875 C97.9425,9.778125 90.62625,4.355625 80.176875,0.155625 C79.8042442,0.0053108279 79.3967908,-0.03692915 79.00125,0.03375 M80.94375,5.236875 C89.443125,9.020625 95.23875,13.539375 98.833125,19.273125 C101.458125,23.454375 102.976875,28.39875 103.610625,34.2525 C103.636875,34.535625 103.655625,34.835625 103.681875,35.12625 L103.681875,35.128125 C103.84125,36.819375 103.93875,38.566875 103.959375,40.411875 C103.340625,40.08375 102.601875,39.609375 101.9025,39.18375 C101.446875,38.90625 101.045625,38.7075 100.5675,38.390625 C96.9075,35.983125 92.595,32.446875 88.98375,28.153125 C83.46375,21.583125 79.6275,13.558125 80.94375,5.235 L80.94375,5.236875 Z M163.535625,101.769375 C161.915324,102.005279 160.326218,102.420321 158.7975,103.006875 C157.600823,103.455707 156.395599,103.881411 155.1825,104.28375 C155.068125,104.499375 155.0175,104.60625 154.895625,104.8425 C154.83375,104.9625 154.618125,105.285 154.5375,105.429375 L159.875625,105.429375 L159.875625,111.729375 C159.894086,114.884338 162.44877,117.436514 165.60375,117.451875 L178.888125,117.451875 C186.602853,117.451875 192.856875,123.705897 192.856875,131.420625 L192.856875,189.463125 C192.854374,193.176019 191.375777,196.73558 188.746875,199.3575 C186.787654,201.309214 184.293859,202.636367 181.580625,203.17125 C180.676434,203.348467 179.757015,203.436389 178.835625,203.43375 L178.82625,203.43375 C174.345,203.443125 169.6425,203.43375 165.72375,203.38125 C164.186462,203.350547 162.701376,203.939172 161.602557,205.014716 C160.503739,206.090261 159.88346,207.562407 159.88125,209.1 C159.88125,213.7875 159.88125,221.728125 159.8625,225.136875 L159.8625,225.14625 C159.859404,225.558167 159.678209,225.948591 159.365625,226.216875 C157.19625,227.835 150.90375,231.144375 138.7575,233.398125 C136.104018,233.886594 133.435047,234.286815 130.755,234.598125 C124.935,235.28625 118.123125,235.7175 110.210625,235.7175 C79.138125,235.7175 64.3425,230.506875 60.320625,228.19875 C59.9155642,227.939255 59.6687692,227.492908 59.664375,227.011875 L59.405625,105.43125 L67.02375,105.43125 C66.916875,105.234375 66.8625,105.10125 66.7575,104.90625 C66.14625,104.750625 65.446875,104.5875 64.89,104.4375 L64.86375,104.431875 C62.1013919,103.649758 59.3031923,103.000265 56.47875,102.485625 L56.5125,102.493125 C56.1859818,102.427513 55.8625382,102.347434 55.543125,102.253125 C55.3105672,102.555071 55.1629706,102.913705 55.115625,103.291875 C55.115625,103.291875 55.34625,211.201875 55.378125,227.019375 C55.3840695,228.970747 56.3814129,230.785319 58.025625,231.83625 L58.104375,231.879375 C63.470625,234.98625 78.57,240.001875 110.20875,240.001875 C142.58625,240.001875 157.209375,233.2275 162.015,229.595625 L162.084375,229.535625 C163.390159,228.450832 164.146501,226.841975 164.14875,225.144375 C164.1675,221.7 164.1675,213.781875 164.1675,209.098125 C164.165856,208.713137 164.320058,208.343865 164.595,208.074375 L164.595,208.0725 C164.8708,207.801133 165.245091,207.653583 165.631875,207.66375 L165.650625,207.66375 C169.606875,207.71625 174.328125,207.72375 178.8225,207.71625 C183.675429,207.732194 188.335142,205.815928 191.77285,202.390533 C195.210559,198.965137 197.143531,194.31233 197.145,189.459375 L197.146875,131.41875 C197.146875,121.334114 188.970886,113.15916 178.88625,113.158125 L165.60375,113.158125 C165.221343,113.165843 164.852291,113.017461 164.581656,112.74718 C164.311022,112.4769 164.162157,112.108042 164.169375,111.725625 L164.169375,103.2825 C164.170275,102.7125 163.943475,102.16575 163.539375,101.76375 L163.535625,101.769375 Z M166.498125,127.509367 C165.628675,127.508036 164.767626,127.679481 163.965,128.01375 C163.160271,128.343999 162.429226,128.830937 161.814375,129.44625 L161.814375,129.448125 C161.199474,130.061873 160.712559,130.791608 160.381875,131.595 C160.047362,132.398209 159.875912,133.259919 159.877489,134.13 L159.877489,186.2175 C159.876506,187.087707 160.048595,187.949423 160.38375,188.7525 C160.71366,189.556403 161.199941,190.286781 161.814375,190.90125 C162.429226,191.516563 163.160271,192.003501 163.965,192.33375 C164.767495,192.668662 165.628549,192.840745 166.498125,192.840004 L177.901875,192.840004 C178.772082,192.840994 179.633798,192.668905 180.436875,192.33375 C181.240267,192.003066 181.970002,191.516151 182.58375,190.90125 C183.198857,190.28695 183.685784,189.55656 184.01625,188.7525 C184.351162,187.950005 184.523245,187.088951 184.522504,186.219375 L184.522504,134.131875 C184.523494,133.261668 184.351405,132.399952 184.01625,131.596875 C183.686123,130.79364 183.199853,130.063917 182.585625,129.45 L182.58375,129.45 C181.969068,128.834013 181.238012,128.34643 180.433125,128.015625 C179.631213,127.680957 178.77082,127.509367 177.901875,127.509367 L166.498125,127.509367 Z M166.498125,131.799375 L177.901875,131.799375 C179.187884,131.800407 180.230433,132.842117 180.2325,134.128125 L180.2325,186.219375 C180.2325,187.506544 179.189044,188.550004 177.901875,188.550004 L166.5,188.550004 C165.882001,188.551183 165.288959,188.306275 164.851875,187.869375 L164.85,187.869375 C164.412639,187.431832 164.167693,186.838023 164.169364,186.219375 L164.169364,134.131875 C164.166516,133.187808 164.734809,132.335738 165.6075,131.975625 C165.89,131.860625 166.1875,131.8025 166.5,131.80125 L166.498125,131.799375 Z" id="Shape" fill="#000000" fill-rule="nonzero"></path>
            <path d="M80.945625,5.236875 C79.63125,13.558125 83.465625,21.585 88.9875,28.153125 C93.800625,33.8775 99.860625,38.25375 103.965,40.411875 C103.8675,31.779375 102.33375,24.849375 98.83875,19.276875 C95.23875,13.543125 89.445,9.020625 80.945625,5.240625 L80.945625,5.236875 Z M117.995625,16.183125 C115.375056,18.7159576 113.141727,21.6208644 111.3675,24.804375 C108.7275,29.589375 106.8825,35.548125 107.998125,42.2475 C108.112935,42.9393673 107.882266,43.6436646 107.380409,44.1335637 C106.878552,44.6234628 106.168898,44.837083 105.48,44.705625 C101.255625,43.8975 97.7925,42.339375 94.5375,41.278125 C91.284375,40.215 88.306875,39.605625 84.6375,40.3275 C73.9875,42.421875 65.53125,48.5025 60.44625,62.870625 C59.604375,65.251875 59.11875,67.726875 58.87125,70.213125 C62.20875,65.16375 67.903125,61.824375 74.39625,61.824375 C83.866875,61.824375 91.64625,68.930625 92.889375,78.0675 C96.129375,74.955 100.385625,72.8925 105.22125,72.8925 C110.683125,72.8925 115.471875,75.448125 118.779375,79.305 C120.975,70.996875 128.491875,64.813125 137.47875,64.813125 C145.395,64.813125 152.17875,69.598125 155.19375,76.419375 C156.48658,75.7856561 157.855197,75.3199985 159.26625,75.03375 C159.12375,61.456875 155.59875,55.89 152.653125,51.405 C149.6475,47.210625 142.018125,40.333125 133.2675,40.055625 C129.0375,39.92625 126.68625,40.94625 123.9525,42.20625 C121.215,43.468125 118.081875,45.02625 113.38875,45.193125 C112.250501,45.2336174 111.279073,44.377443 111.17625,43.243125 C109.995,30.151875 117.376875,21.793125 120.69375,18.710625 C120.43125,18.388125 120.45375,18.369375 120.1125,17.985 C119.4075,17.1975 118.700625,16.719375 117.995625,16.183125" id="Shape" fill="#D1D3D4" fill-rule="nonzero"></path>
            <path d="M67.5787482,109.53 L67.5787482,213.241875 C67.5774821,214.522599 68.2602343,215.706513 69.369375,216.346875 C73.90125,218.505 87.045,223.659375 110.086875,223.659375 C133.284375,223.659375 146.03625,217.396875 150.3075,214.813125 C151.327909,214.157544 151.94468,213.027856 151.944375,211.815 C151.95375,198.0975 151.95375,120.93375 151.95375,109.678125 C151.09875,109.918125 150.2475,110.17875 149.386875,110.401875 C149.225424,111.262244 149.009362,112.111461 148.74,112.944375 C148.47375,113.770625 148.13875,114.56125 147.735,115.31625 L147.729375,115.32375 C146.276607,118.05623 145.625347,121.143541 145.850625,124.23 L145.858125,124.404375 L145.861875,125.915625 C145.873178,127.256066 145.584908,128.582105 145.018125,129.796875 C144.751692,130.374349 144.423531,130.921285 144.039375,131.428125 C143.659919,131.926103 143.22737,132.381286 142.749375,132.785625 C142.275012,133.187419 141.761861,133.541035 141.2175,133.84125 C140.667884,134.144357 140.091742,134.396654 139.49625,134.595 C138.891375,134.797349 138.270388,134.947892 137.64,135.045 C137.00125,135.14625 136.34875,135.196875 135.6825,135.196875 C133.658878,135.195862 131.681984,134.588491 130.006875,133.453125 C128.370383,132.344594 127.086944,130.789107 126.309375,128.971875 C125.780166,127.721389 125.507892,126.377232 125.50875,125.019375 C125.50875,124.783125 125.45625,124.50375 125.37,124.21125 C125.273341,123.897258 125.14519,123.59384 124.9875,123.305625 C124.829841,123.005586 124.641321,122.722806 124.425,122.461875 C124.22844,122.221128 123.995662,122.012388 123.735,121.843125 L123.76125,121.858125 C123.066806,121.43528 122.403829,120.962799 121.7775,120.444375 C121.154636,119.925258 120.569996,119.361923 120.028125,118.75875 C119.483879,118.156204 118.98383,117.515164 118.531875,116.840625 C118.077908,116.160578 117.668909,115.451564 117.3075,114.718125 C114.48,114.789375 111.68625,114.789375 108.943125,114.736875 C106.251083,114.680104 103.560506,114.56758 100.873125,114.399375 C98.3075395,114.238978 95.7452086,114.030191 93.1875,113.773125 C88.553171,113.307458 83.935617,112.68774 79.3425,111.915 C77.3431196,111.57737 75.3491271,111.208575 73.36125,110.80875 C71.6129397,110.458587 69.8702256,110.081041 68.13375,109.67625 L67.5787482,109.535625 L67.5787482,109.53 Z M79.981875,116.111248 C80.6301731,116.111248 81.2720697,116.23946 81.87,116.49 C82.4688165,116.736489 83.0125242,117.099811 83.469375,117.55875 C83.928108,118.015049 84.291418,118.558102 84.538125,119.15625 C84.7886646,119.75418 84.9174264,120.396077 84.9168768,121.044375 L84.9168768,206.821875 C84.9168768,207.080609 84.896092,207.338925 84.855,207.594375 C84.8150964,207.850003 84.7549063,208.10205 84.675,208.348125 C84.596629,208.594247 84.498821,208.833751 84.3825,209.064375 C84.2640115,209.294891 84.1273282,209.515591 83.97375,209.724375 C83.8205697,209.93187 83.6533,210.128584 83.473125,210.313125 C83.2905038,210.495965 83.0936334,210.663994 82.884375,210.815625 C82.6749259,210.968643 82.4535982,211.1047 82.2225,211.2225 C81.991876,211.338821 81.7523719,211.436629 81.50625,211.515 C81.2602805,211.596177 81.0082325,211.657621 80.7525,211.69875 C80.4979241,211.736311 80.2410708,211.756358 79.98375,211.758786 C79.3338136,211.761238 78.6899409,211.633739 78.09,211.38375 C77.4918522,211.137043 76.9487994,210.773733 76.4925,210.315 C76.033354,209.857598 75.6700206,209.313235 75.42375,208.71375 C75.1744959,208.115556 75.0470109,207.473669 75.0487271,206.825625 L75.0487271,121.05 C75.0467614,120.401325 75.1742512,119.758776 75.42375,119.16 C75.6702389,118.561183 76.0335606,118.017476 76.4925,117.560625 C76.9499021,117.101479 77.4942647,116.738146 78.09375,116.491875 C78.6919442,116.242621 79.3338311,116.115136 79.981875,116.116875 L79.981875,116.111248 Z" id="Shape" fill="#FBB040" fill-rule="nonzero"></path>
            <path d="M79.9875,116.107499 C78.6790016,116.106505 77.4237552,116.625607 76.4981553,117.550503 C75.5725553,118.4754 75.0524986,119.730251 75.0524986,121.03875 L75.0524986,206.818125 C75.0515041,208.127273 75.5711203,209.383089 76.4968283,210.308797 C77.4225363,211.234505 78.6783516,211.754121 79.9875,211.753126 C81.2966484,211.754121 82.5524637,211.234505 83.4781717,210.308797 C84.4038797,209.383089 84.9234959,208.127273 84.9225014,206.818125 L84.9225014,121.040625 C84.922998,119.731801 84.403162,118.476468 83.4775081,117.551166 C82.5518541,116.625864 81.2963234,116.106505 79.9875,116.107499" id="Path" fill="#FFDB96" fill-rule="nonzero"></path>
            <path d="M74.3925,66.1106221 C67.4071528,66.1062182 61.4219572,71.1065182 60.18375,77.98125 C60.0038602,78.972657 59.1581782,79.7052173 58.15125,79.741875 C52.0037193,79.9424962 47.1278442,84.9910862 47.1412224,91.141875 C47.1412224,96.76875 51.185625,101.42625 56.5125,102.48375 L56.475,102.47625 C59.3000728,102.990832 62.0988995,103.640325 64.861875,104.4225 L64.888125,104.431875 C75.2325,107.21625 95.985,111.204375 118.584375,110.44125 C119.49849,110.408474 120.332148,110.96098 120.658125,111.815625 C121.68014,114.467615 123.552919,116.705718 125.983125,118.179375 L126.001875,118.198125 C128.3627,119.661565 129.798899,122.241758 129.79875,125.019375 C129.789207,126.584087 130.406309,128.08753 131.512396,129.194321 C132.618483,130.301112 134.121532,130.919172 135.68625,130.910712 C137.47125,130.910712 138.980625,130.359375 139.985625,129.51 C140.990625,128.65875 141.579375,127.554375 141.579375,125.915625 L141.571875,124.40625 C141.314274,120.554135 142.139086,116.706743 143.953125,113.29875 L143.95875,113.29125 C144.756559,111.810788 145.253601,110.187118 145.42125,108.51375 C145.510713,107.61345 146.157297,106.866988 147.035625,106.65 C151.022449,105.661374 154.948963,104.443728 158.795625,103.003125 C160.35851,102.402322 161.984544,101.980874 163.6425,101.746875 L163.651875,101.746875 C169.306102,100.972498 173.51648,96.1363718 173.505045,90.429375 C173.513497,87.3983374 172.313182,84.4889944 170.169906,82.3457187 C168.026631,80.2024431 165.117288,79.0021283 162.08625,79.010625 C160.04625,79.010625 158.14875,79.545 156.4875,80.480625 C156.326395,80.5728009 156.153585,80.642808 155.97375,80.68875 L154.471875,81.0825 C153.36591,81.3724682 152.226901,80.7439924 151.8825,79.65375 C149.894241,73.3686511 144.061464,69.0974527 137.469375,69.099375 C133.191246,69.0893114 129.110014,70.8960924 126.241458,74.0700279 C123.372901,77.2439634 121.986794,81.4865593 122.428125,85.741875 C122.54373,86.8332104 121.816949,87.8357849 120.743791,88.0653684 C119.670633,88.294952 118.597273,87.6774863 118.25625,86.634375 C116.409346,80.9943311 111.146616,77.1802327 105.211875,77.180625 C99.2371584,77.1776293 93.946901,81.0401162 92.13,86.731875 L92.060625,86.775 L92.060625,86.784375 L92.055,86.776875 C91.7198058,87.7414038 90.7511456,88.3359337 89.739375,88.198125 L89.686875,88.190625 C89.0614812,88.087751 88.513599,87.7135664 88.1902293,87.1684678 C87.8668596,86.6233691 87.8011112,85.9631676 88.010625,85.365 C89.5806307,80.9438094 88.901993,76.0352404 86.1913016,72.2058807 C83.4806103,68.3765209 79.0766646,66.104988 74.385,66.11625 L74.3925,66.1106221 Z M159.8775,107.1675 C158.234111,107.779151 156.572054,108.339423 154.89375,108.8475 C153.920625,109.1475 152.938125,109.4025 151.959375,109.674375 C151.959375,120.924375 151.959375,198.08625 151.95,211.81125 C151.950944,213.024772 151.334094,214.15531 150.313125,214.81125 C149.780625,215.13375 149.113125,215.5125 148.3125,215.930625 C147.51,216.34875 146.56875,216.80625 145.4925,217.280625 C144.28815,217.809439 143.066196,218.29722 141.82875,218.743125 C140.33709,219.280327 138.827454,219.766237 137.3025,220.2 C134.518159,220.988557 131.694255,221.630069 128.8425,222.121875 C126.591926,222.51536 124.327973,222.82806 122.055,223.059375 C120.845,223.184375 119.595,223.29125 118.305,223.38 C115.572127,223.566421 112.833596,223.657727 110.094375,223.65375 C107.36527,223.658165 104.636614,223.583133 101.911875,223.42875 C100.662528,223.358113 99.4142717,223.269354 98.1675,223.1625 C95.8889587,222.969271 93.616211,222.712922 91.351875,222.39375 C90.324639,222.245682 89.2995375,222.083166 88.276875,221.90625 C86.4388028,221.591531 84.6099536,221.225136 82.7925,220.8075 C81.2414539,220.449908 79.7008373,220.048498 78.1725,219.60375 C76.9071823,219.235503 75.6523245,218.832223 74.409375,218.394375 C73.4231993,218.046415 72.4465938,217.671903 71.480625,217.27125 C70.7708978,216.978017 70.0687929,216.666665 69.375,216.3375 C68.2644158,215.698093 67.5801296,214.513999 67.580625,213.2325 L67.580625,109.52625 C66.2973701,109.223867 65.0184902,108.90321 63.744375,108.564375 L63.718125,108.556875 C62.3995864,108.183425 61.0723345,107.841453 59.7375,107.53125 L59.405625,107.46 L59.6625,227.011875 C59.6724743,227.491462 59.9169984,227.935669 60.316875,228.200625 C60.819375,228.489375 61.490625,228.825 62.341875,229.185 C63.19125,229.550625 64.220625,229.944375 65.4375,230.349375 C66.658125,230.754375 68.06625,231.174375 69.675,231.594375 C71.2875,232.00875 73.096875,232.425 75.11625,232.8225 C77.139375,233.22 79.36875,233.6025 81.826875,233.9475 C84.279375,234.2975 86.959375,234.60375 89.866875,234.86625 C93.0076853,235.149315 96.1548435,235.356875 99.305625,235.48875 C102.936649,235.644414 106.570642,235.720682 110.205,235.717596 C113.893294,235.717596 117.58092,235.618192 121.26375,235.4175 C122.910393,235.323498 124.55557,235.20536 126.19875,235.063125 C127.718544,234.932201 129.236225,234.777807 130.75125,234.6 C132.149176,234.434954 133.544357,234.24743 134.93625,234.0375 C136.212232,233.844329 137.484908,233.629925 138.75375,233.394375 C140.188096,233.129644 141.616555,232.83395 143.038125,232.5075 C144.297156,232.217546 145.549361,231.898712 146.79375,231.55125 C147.88396,231.247091 148.966767,230.916997 150.04125,230.56125 C150.969464,230.253272 151.889757,229.921916 152.80125,229.5675 C153.64,229.24125 154.4025,228.92125 155.08875,228.6075 C155.77625,228.295 156.391875,227.995 156.935625,227.7075 C157.417037,227.453404 157.889802,227.183252 158.353125,226.8975 C158.69784,226.683708 159.033741,226.45602 159.36,226.215 C159.513806,226.081599 159.638845,225.918283 159.7275,225.735 C159.816081,225.552169 159.86101,225.351271 159.85875,225.148125 L159.85875,225.13875 C159.8775,221.73 159.8775,213.789375 159.8775,209.101875 C159.878206,206.754701 161.313057,204.646288 163.49625,203.784375 C164.203857,203.505161 164.95939,203.367559 165.72,203.379375 C169.636875,203.431875 174.343125,203.439375 178.81875,203.431875 L178.8375,203.431875 C179.75889,203.434514 180.678309,203.346592 181.5825,203.169375 C186.163962,202.264672 189.991724,199.13325 191.78625,194.821875 C192.490097,193.122817 192.853838,191.302198 192.856875,189.463125 L192.856875,131.424375 C192.856875,128.197165 191.740265,125.069364 189.695625,122.5725 C187.040416,119.334172 183.073958,117.455866 178.88625,117.45375 L165.60375,117.45375 C164.465516,117.455873 163.353418,117.112632 162.414375,116.469375 C161.804644,116.055935 161.279065,115.530356 160.865625,114.920625 C160.222066,113.982325 159.878184,112.870919 159.879375,111.733125 L159.8775,107.1675 Z M166.49625,127.50375 L177.9,127.50375 C178.768819,127.502659 179.629206,127.6741 180.43125,128.008125 C181.235979,128.338374 181.967024,128.825312 182.581875,129.440625 C183.197862,130.055307 183.685445,130.786363 184.01625,131.59125 C184.350275,132.393294 184.521716,133.253681 184.520637,134.1225 L184.520637,186.21375 C184.52231,187.082442 184.351508,187.942825 184.018125,188.745 C183.687659,189.54906 183.200732,190.27945 182.585625,190.89375 L182.581875,190.89375 C181.968679,191.508445 181.239598,191.995349 180.436875,192.32625 C179.63438,192.661162 178.773326,192.833245 177.90375,192.832516 L166.49625,192.832516 C165.626927,192.834433 164.765883,192.663626 163.963125,192.33 C163.159576,191.99876 162.429829,191.5112 161.81625,190.895625 C161.200263,190.280943 160.71268,189.549887 160.381875,188.745 C160.048492,187.942825 159.87769,187.082442 159.879347,186.21375 L159.879347,134.1225 C159.876848,133.253303 160.047016,132.392264 160.38,131.589375 C160.710466,130.785315 161.197393,130.054925 161.8125,129.440625 L161.81625,129.440625 C162.430381,128.824844 163.160782,128.337273 163.965,128.00625 C164.767044,127.672225 165.627431,127.500784 166.49625,127.50187 L166.49625,127.50375 Z" id="Shape" fill="#FFFFFF" fill-rule="nonzero"></path>
        </g>
    </g>
</svg>