<svg width="240" height="240" viewBox="0 0 240 240" fill="none" xmlns="http://www.w3.org/2000/svg">
<path d="M0.0143797 126.48L0.0260764 76.7749L0.0207864 60.7367C0.0164363 52.765 -0.299651 47.3449 1.69369 39.5407C4.12603 30.2885 8.99796 21.8594 15.8004 15.1338C23.1066 7.96065 32.3511 3.08119 42.3951 1.09635C49.1636 -0.302102 57.4957 0.036251 64.5006 0.0353691L90.8433 0.0377195L185.683 0.041835C212.35 0.155247 234.128 17.057 239.183 43.7891C240.373 50.0805 239.912 57.529 239.913 63.9762L239.92 92.9541L239.927 155.468C239.927 166.411 239.958 177.535 239.893 188.341C239.807 202.478 233.147 216.715 222.734 226.196C214.433 233.755 203.266 238.785 192.011 239.721C187.379 240.106 182.29 239.98 177.619 239.981L156.587 239.988L155.108 239.974L83.1965 239.963L62.2197 239.962C56.7756 239.961 50.756 240.106 45.3872 239.361C38.9091 238.445 32.6608 236.32 26.9683 233.095C18.0795 228.093 10.8353 220.616 6.11661 211.572C5.13684 209.717 3.95544 207.416 3.40251 205.419C1.91895 202.422 0.638145 195.802 0.331052 192.4C0.0457686 189.239 0.0375408 185.238 0.0374233 182.03L0.0364814 169.999L0.0184946 127.838L0.0143797 126.48Z" fill="url(#paint0_linear_5_103)"/>
<path d="M0.0143797 126.48L0.0260764 76.7749L0.0207864 60.7367C0.0164363 52.765 -0.299651 47.3449 1.69369 39.5407C4.12603 30.2885 8.99796 21.8594 15.8004 15.1338C23.1066 7.96065 32.3511 3.08119 42.3951 1.09635C49.1636 -0.302102 57.4957 0.036251 64.5006 0.0353691L90.8433 0.0377195L185.683 0.041835C212.35 0.155247 234.128 17.057 239.183 43.7891C240.373 50.0805 239.912 57.529 239.913 63.9762L239.92 92.9541L239.927 155.468C239.927 166.411 239.958 177.535 239.893 188.341C239.807 202.478 233.147 216.715 222.734 226.196C214.433 233.755 203.266 238.785 192.011 239.721C187.379 240.106 182.29 239.98 177.619 239.981L156.587 239.988C156.756 239.567 157.068 238.81 156.756 238.423C153.824 234.782 150.468 231.44 147.548 227.766C146.904 226.956 146.118 226.131 145.643 225.242C144.962 224.821 143.65 222.459 143.237 221.726C157.512 221.56 171.813 221.864 186.089 221.622C196.387 221.448 206.179 216.842 213.134 209.298C218.116 203.878 221.419 197.129 222.644 189.869C223.49 184.834 223.222 175.956 223.219 170.59L223.222 140.141L223.234 83.3338L223.244 64.64C223.246 60.7391 223.273 56.8829 223.163 52.9826C222.873 42.7496 218.461 32.9777 210.879 26.0275C205.608 21.1732 199.077 17.9001 192.034 16.5823C186.577 15.6091 177.231 15.9236 171.451 15.9274L139.634 15.9291L82.9743 15.927L64.644 15.9212C61.1128 15.92 57.1307 15.8361 53.6389 15.993C43.4385 16.3773 33.8213 20.8518 26.9565 28.4078C22.3409 33.4809 19.1784 39.7048 17.8021 46.4242C16.7425 51.6121 16.9957 58.8777 17.0023 64.259L17.0054 85.1493L17.0076 118.563C17.0075 123.826 16.8073 130.547 17.033 135.671C15.8513 135.233 14.6045 134.565 13.5166 133.929C11.5711 133.045 9.58157 131.502 7.70046 130.529C5.70988 129.5 2.0718 126.548 0.0143797 126.48Z" fill="url(#paint1_linear_5_103)"/>
<path d="M13.5166 133.929L13.4966 78.996L13.5002 62.3588C13.5 56.7224 13.2943 50.7202 14.5011 45.2131C16.1588 37.6088 19.9221 30.6242 25.361 25.0575C34.2116 15.9828 44.6147 12.5071 57.0078 12.3999L147.327 12.3996L173.158 12.3996C179.452 12.3993 187.3 12.083 193.367 13.2916C201.246 14.9038 208.488 18.7681 214.214 24.4157C223.182 33.224 226.636 43.5463 226.704 55.8516L226.702 146.578L226.704 171.614C226.705 177.881 227.045 185.863 225.842 191.813C224.236 199.73 220.355 207.006 214.675 212.75C205.724 221.835 195.235 225.201 182.787 225.237L145.643 225.242C144.962 224.821 143.65 222.459 143.237 221.726C157.512 221.56 171.813 221.864 186.089 221.622C196.387 221.448 206.179 216.842 213.134 209.298C218.116 203.878 221.419 197.129 222.644 189.869C223.49 184.834 223.222 175.956 223.219 170.59L223.222 140.141L223.234 83.3338L223.244 64.64C223.246 60.7391 223.273 56.8829 223.163 52.9825C222.873 42.7496 218.461 32.9777 210.879 26.0275C205.608 21.1732 199.077 17.9001 192.034 16.5823C186.577 15.6091 177.231 15.9236 171.451 15.9274L139.634 15.9291L82.9743 15.927L64.644 15.9211C61.1127 15.92 57.1307 15.8361 53.6388 15.993C43.4385 16.3773 33.8212 20.8518 26.9564 28.4078C22.3408 33.4809 19.1784 39.7048 17.8021 46.4242C16.7424 51.6121 16.9956 58.8777 17.0023 64.259L17.0054 85.1493L17.0076 118.562C17.0075 123.826 16.8073 130.547 17.033 135.671C15.8513 135.233 14.6045 134.565 13.5166 133.929Z" fill="#FBFBFB"/>
<path d="M0.0180664 127.838C1.75716 129.124 3.91974 130.209 5.75983 131.392C14.2575 136.853 23.6826 140.975 33.3911 143.731C44.126 146.776 56.509 165.057 66.0221 172.942C71.1375 177.183 76.0908 181.715 80.7336 186.48C82.1415 187.924 86.1259 190.453 87.3293 191.405C89.8459 193.397 113.741 209.897 114.344 210.949C114.738 211.257 115.812 212.006 116.028 212.33C117.219 213.039 118.489 213.835 119.552 214.731C119.916 214.924 121.135 215.728 121.348 216.022C121.872 216.374 122.658 216.867 123.106 217.275C125.413 218.751 128.261 220.944 130.574 222.582L148.672 235.491C149.704 236.226 154.305 239.705 155.108 239.974L83.1961 239.963L62.2193 239.962C56.7752 239.961 50.7556 240.106 45.3868 239.362C38.9087 238.446 32.6604 236.32 26.9679 233.095C18.079 228.093 10.8349 220.616 6.11618 211.572C5.13642 209.718 3.95501 207.416 3.40208 205.419C1.91853 202.422 0.637717 195.802 0.330624 192.4C0.0453405 189.239 0.0371127 185.238 0.0369951 182.03L0.0360532 169.999L0.0180664 127.838Z" fill="url(#paint2_linear_5_103)"/>
<path d="M34.0719 170.398C37.3198 170.447 42.3758 169.808 44.8319 172.278C48.1568 175.621 47.9775 182.665 44.7408 185.99C42.216 188.582 36.2452 187.679 32.7763 187.802C33.1966 182.412 32.3242 175.828 33.0243 170.585C33.3859 170.337 33.5499 170.422 34.0719 170.398Z" fill="black"/>
<path d="M35.4237 172.489C36.9474 172.49 38.4241 172.504 39.9466 172.6C45.4301 172.948 45.8081 180.628 43.2156 184.221C41.3357 186.221 37.985 185.723 35.426 185.695C35.3767 181.47 35.3402 176.682 35.4237 172.489Z" fill="url(#paint3_linear_5_103)"/>
<path d="M57.7117 170.419C60.2065 172.129 62.2164 173.539 64.5778 175.419C63.6866 177.56 64.1363 177.961 62.0006 179.367L62.1176 179.448L62.3098 179.585C64.8029 181.327 63.5761 183.772 64.248 186.41C64.3914 186.973 64.7206 187.555 64.9975 188.068L61.7943 187.9C61.0959 181.972 62.6602 180.11 55.1504 180.521C54.532 180.555 53.5979 180.514 52.9601 180.514C52.9348 182.971 52.9272 185.428 52.936 187.886L50.4664 187.9L50.4547 178.188C50.4541 175.716 50.3935 172.959 50.5881 170.519C52.9119 170.485 55.4208 170.55 57.7117 170.419Z" fill="black"/>
<path d="M52.9734 172.503C55.3148 172.846 58.5856 172.022 60.6671 173.183C62.1703 174.021 61.9487 176.45 61.0052 177.71C59.0494 178.912 55.3465 178.475 52.9822 178.371C52.9598 176.415 52.9569 174.459 52.9734 172.503Z" fill="#626262"/>
<path d="M74.6014 199.998C75.5496 199.933 76.4867 199.843 77.4349 199.897C78.9398 201.87 80.5281 204.468 81.9531 206.586C83.348 204.333 84.8112 202.122 86.3408 199.958L89.183 199.936C87.2502 202.715 85.1627 205.601 83.3134 208.418C84.9587 210.853 87.8704 214.885 89.2695 217.299C88.3436 217.315 87.3243 217.355 86.4066 217.339C84.77 215.015 83.3527 212.562 81.705 210.223C80.4176 212.181 78.2855 215.533 76.8887 217.306C76.3432 217.294 74.5227 217.293 74.1323 217.151C75.2051 215.293 77.9622 211.76 79.3172 209.746C79.6804 209.285 80.0002 208.877 80.3353 208.395C78.4383 205.761 76.4919 202.499 74.6014 199.998Z" fill="#580203"/>
<path d="M35.6214 154.451C36.5497 155.101 37.4103 155.642 38.1892 156.468C39.3384 156.984 40.5223 158.293 41.0279 158.472C42.1918 159.118 43.2071 159.869 44.2693 160.665C43.7026 160.978 36.5285 160.678 35.4551 160.592L35.4598 158.16C35.5244 157.302 35.3904 154.884 35.6214 154.451Z" fill="black"/>
<path d="M38.1895 156.469C39.3387 156.985 40.5226 158.294 41.0282 158.472C40.0994 158.458 38.8872 158.735 38.1407 158.283C37.7833 157.588 37.9708 157.268 38.1895 156.469Z" fill="#565656"/>
<path d="M117.64 214.106C116.861 214.127 115.246 214.382 115.044 213.484C115.292 212.899 115.534 212.764 116.028 212.33C117.219 213.039 118.49 213.834 119.553 214.73C119.086 215.373 118.44 218.313 118.092 219.393L116.261 219.411C116.615 217.787 117.174 215.696 117.64 214.106Z" fill="#000031"/>
<path d="M76.2251 187.805C76.9758 186.832 77.4678 186.132 78.1285 185.096C78.8357 185.588 79.5682 186.083 80.2542 186.6C79.9491 186.989 79.4148 187.445 79.0385 187.796L76.2251 187.805Z" fill="#580203"/>
<path d="M121.348 216.022C121.872 216.374 122.658 216.866 123.106 217.274C122.874 217.869 122.641 218.776 122.458 219.411C121.803 219.444 121.253 219.45 120.598 219.441C120.871 218.287 121.133 217.189 121.348 216.022Z" fill="#000031"/>
<path d="M96.1429 200.446C97.1134 200.514 98.305 200.688 99.1291 201.235C103.131 203.896 102.741 211.726 100.565 215.427C99.69 216.914 98.2674 217.489 96.7131 217.781C93.1125 217.815 91.3866 215.741 90.7417 212.321C90.1744 209.308 90.3567 205.269 92.119 202.642C93.1431 201.116 94.4358 200.708 96.1429 200.446Z" fill="#580203"/>
<path d="M95.5974 202.486C99.4907 201.949 99.7999 206.519 99.7576 209.318C99.7212 211.758 99.5507 214.63 96.9718 215.699C92.0515 216.79 92.5188 207.847 93.4065 205.1C93.8515 203.724 94.3459 203.11 95.5974 202.486Z" fill="#5C5C5C"/>
<path d="M109.316 216.782L111.708 216.749C111.705 219.229 112.045 221.509 109.593 222.879C109.126 222.767 109.309 222.882 108.995 222.576C108.98 221.748 110.386 220.976 110.406 219.736C109.874 219.202 109.826 219.79 109.038 219.249C108.978 218.665 108.951 217.222 109.316 216.782Z" fill="black"/>
<path d="M86.5181 211.002L86.6133 211.021C87.796 211.249 88.4168 212.473 88.1864 213.605L87.8372 213.469C87.2105 212.323 87.0019 212.475 86.5181 211.002Z" fill="#605F5F"/>
<path d="M19.4643 143.016C20.1393 143.426 21.8594 144.417 22.3074 145.003C21.6916 145.86 21.8093 149.282 21.8763 150.448C23.4406 150.46 24.9976 150.466 26.5641 150.452C27.6732 150.442 28.9366 149.262 29.7696 150.254C31.2004 151.955 32.9399 153.271 32.7706 155.762C32.5043 160.218 28.5692 160.372 25.2172 160.592C23.9023 160.592 20.546 160.649 19.4298 160.463C19.4288 154.854 19.29 148.561 19.4643 143.016Z" fill="black"/>
<path d="M21.8195 152.392C24.4314 152.394 30.3814 151.662 30.3385 155.35C30.3244 156.57 30.1298 156.822 29.315 157.714C27.5041 158.816 23.9917 158.445 21.8506 158.384C21.9403 156.948 21.8139 153.989 21.8195 152.392Z" fill="#555555"/>
<path d="M19.3123 160.457C19.0237 154.846 19.0876 148.836 19.2294 143.223C19.3746 137.477 19.4282 154.716 19.4292 160.464L19.3123 160.457Z" fill="#323232"/>
<path d="M35.3138 199.68C38.2618 199.675 44.3778 199.224 46.6164 201.122C50.5796 204.482 50.2898 211.149 47.2465 215.1C44.3243 217.88 39.153 217.193 35.1304 217.156L35.1521 206.888C35.1586 204.545 35.1022 201.997 35.3138 199.68Z" fill="black"/>
<path d="M37.7142 201.771C39.8893 202.029 42.9249 201.47 44.8472 202.761C46.8571 204.112 47.1087 207.286 46.9317 209.502C46.8047 211.096 46.3997 212.286 45.4533 213.584C43.5822 215.531 40.1838 215.023 37.669 214.969C37.6666 210.657 37.589 206.061 37.7142 201.771Z" fill="url(#paint4_linear_5_103)"/>
<path d="M52.6643 199.81C55.737 199.791 61.7689 199.262 64.1068 201.3C67.9566 204.657 67.6962 211.436 64.5683 215.257C61.5632 217.984 56.5523 217.247 52.4985 217.182L52.6643 199.81Z" fill="black"/>
<path d="M55.0414 201.904C56.6751 201.902 58.5403 201.84 60.1404 202.078C65.2788 202.839 65.4211 210.489 62.7664 213.783C60.6936 215.609 57.8108 215.134 55.0356 215.1C55.0144 210.891 55.2478 206.067 55.0414 201.904Z" fill="#605F5F"/>
<path d="M24.2412 199.512C25.0946 199.695 25.9621 199.658 26.8404 199.667C28.9242 205.455 30.977 211.255 32.9992 217.065C29.0941 217.397 29.8136 215.25 28.5762 211.908L26.6472 211.884L21.8495 211.863C21.227 213.618 20.6276 215.335 19.9301 217.062L17.4336 217.033L21.5108 206.331C22.3032 204.254 23.287 201.472 24.2412 199.512Z" fill="black"/>
<path d="M25.2303 202.547C25.6444 202.936 27.4914 208.781 27.8498 209.805L25.6462 209.834L22.5469 209.786C23.2418 208.218 24.7538 204.141 25.2303 202.547Z" fill="url(#paint5_linear_5_103)"/>
<path d="M19.4721 170.309L21.8921 170.303C21.9864 175.404 21.8562 180.473 21.8921 185.562L30.5505 185.613C30.567 186.28 30.564 187.093 30.6146 187.746C30.7533 188.237 30.671 188.632 30.3889 189.031C28.6547 189.429 20.3979 190.05 19.2707 188.839C19.0956 188.314 19.1488 188.277 19.2632 187.744C19.4184 181.93 19.221 176.153 19.4721 170.309Z" fill="black"/>
<path d="M19.2632 187.744C22.9613 187.776 26.9248 187.818 30.6146 187.746C30.7533 188.237 30.671 188.632 30.3889 189.031C28.6547 189.428 20.3979 190.05 19.2707 188.839C19.0956 188.314 19.1488 188.277 19.2632 187.744Z" fill="#605F5F"/>
<path d="M0.0141602 126.48C2.07158 126.549 5.70966 129.5 7.70024 130.529C9.58135 131.502 11.5709 133.045 13.5164 133.929C14.6043 134.565 15.8511 135.233 17.0328 135.671C27.8963 140.455 37.0436 143.897 49.1263 144.493C50.3831 144.555 53.3559 144.79 54.5251 144.669C62.1425 144.276 67.3067 144.009 74.9758 142.441C75.0881 142.432 75.8035 142.188 76.1209 142.132C77.2285 142.266 80.5915 141.475 81.8742 141.248C92.5261 139.364 102.983 136.657 113.446 133.949C114.716 133.621 117.692 132.691 119.109 132.298C119.182 132.368 119.254 132.438 119.326 132.509C119.436 134.374 119.348 136.435 119.557 138.213C121.983 158.974 124.467 179.804 131.433 199.631C133.833 206.463 136.213 211.841 140.565 217.642C141.517 218.912 142.325 220.447 143.236 221.726C143.65 222.459 144.962 224.821 145.643 225.242C146.118 226.131 146.904 226.956 147.548 227.766C150.468 231.44 153.824 234.782 156.756 238.423C157.068 238.81 156.756 239.567 156.587 239.988L155.108 239.974C154.305 239.705 149.704 236.226 148.672 235.491L130.575 222.582C128.261 220.944 125.413 218.75 123.107 217.275C122.658 216.867 121.872 216.374 121.348 216.022C121.135 215.728 119.916 214.924 119.552 214.731C118.49 213.835 117.219 213.039 116.028 212.33C115.812 212.006 114.739 211.257 114.344 210.949C113.741 209.897 89.8461 193.397 87.3295 191.405C86.1262 190.453 82.1417 187.924 80.7338 186.48C76.091 181.714 71.1377 177.183 66.0223 172.942C65.2363 172.291 64.5239 171.333 63.7649 170.657L48.4062 156.914C36.2002 146.05 19.5356 140.245 5.76004 131.392C3.91995 130.209 1.75737 129.124 0.0182751 127.838L0.0141602 126.48Z" fill="url(#paint6_linear_5_103)"/>
<path d="M54.5254 144.669C63.2544 128.168 72.473 111.571 81.3948 95.1388L88.004 82.9422C90.9633 77.475 92.2765 72.6505 99.5382 76.8489C102.985 78.8414 107.31 79.267 107.27 84.2491C106.576 86.4268 104.664 89.6628 103.509 91.7876L97.305 103.185C90.2743 116.107 83.293 129.312 76.1212 142.132C75.8038 142.188 75.0884 142.432 74.9761 142.441C67.307 144.009 62.1427 144.276 54.5254 144.669Z" fill="#D0CFCE"/>
<path d="M110.869 44.173C111.762 42.1928 112.275 41.7154 114.281 40.6572C125.859 34.5497 125.27 35.7797 131.34 47.2173L164.457 108.215L173.236 124.357C174.408 126.514 177.107 131.188 177.752 133.226C177.794 133.458 177.835 133.66 177.841 133.897C177.87 135.26 177.309 136.57 176.303 137.49C174.729 138.954 169.45 141.023 167.301 142.055C165.728 142.81 163.277 142.479 162.165 140.876C159.902 137.609 158.077 133.86 156.166 130.337L144.017 107.917L122.109 67.5067L115.271 54.9133C113.969 52.5216 112.617 50.1116 111.402 47.6759C110.641 46.1502 110.716 45.808 110.869 44.173Z" fill="url(#paint7_linear_5_103)"/>
<path d="M102.799 104.222C112.354 103.983 122.017 104.31 131.583 104.183C133.049 104.164 134.695 104.133 136.143 104.206L145.008 120.819C146.558 123.716 148.335 126.872 149.78 129.795L150.462 131.218C149.047 130.957 143.032 131.117 141.216 131.115C134.162 131.077 127.109 131.081 120.056 131.129L96.788 131.099C93.9281 131.107 90.3822 130.974 87.627 131.117C87.8539 130.669 88.1278 130.277 88.4029 129.857C89.4052 128.031 90.6479 125.664 91.7678 123.932C95.3983 117.384 99.2423 110.791 102.799 104.222Z" fill="#D0CFCE"/>
<path d="M168.347 104.04L190.955 104.032C196.639 104.035 202.614 104.131 208.275 104.026C208.17 110.437 208.304 116.898 208.256 123.312C208.35 125.869 208.189 128.455 208.353 130.971C206.255 130.885 204.075 130.979 201.961 130.969L182.808 130.935C181.653 128.606 180.406 126.332 179.092 124.084L173.237 114.075L169.378 107.458C168.96 106.734 167.865 104.93 167.626 104.277C167.893 103.962 167.74 104.1 168.347 104.04Z" fill="#D0CFCE"/>
<path d="M31.4274 104.083C37.1372 103.935 43.1797 104.029 48.9095 104.029C56.2335 104.003 63.5575 104.024 70.881 104.09L71.112 104.23C71.0773 104.871 57.3451 128.638 56.0419 130.589C55.8244 130.863 55.6833 131.18 55.2912 131.166C52.6706 131.067 50.0617 131.068 47.4399 131.066L36.6687 131.062C35.7334 131.063 31.9394 131.279 31.4321 130.851L31.4451 130.492C31.4333 128.425 31.304 125.287 31.4692 123.324C31.264 117.17 31.4891 110.339 31.4274 104.083Z" fill="#D0CFCE"/>
<path d="M190.29 159.53C199.51 165.271 206.85 171.056 206.662 183.016C206.824 188.774 204.92 193.395 200.965 197.53C199.718 198.834 198.382 200.01 197.166 201.29C196.98 199.896 196.65 198.777 196.285 197.426C196.082 197.032 195.314 194.764 195.05 194.117C194.011 191.572 192.823 189.045 191.231 186.788C186.538 180.132 180.399 177.367 177.753 169.03C177.584 168.084 177.489 167.218 177.382 166.265C177.432 166.158 177.482 166.052 177.532 165.946C181.755 163.751 186.095 161.798 190.29 159.53Z" fill="#D0CFCE"/>
<path d="M166.013 149.794C166.656 145.395 170.828 144.804 174.3 142.895C177.682 141.035 181.957 138.623 184.546 143.045C185.858 145.242 187.368 147.929 188.397 150.274C188.695 151.623 188.736 151.864 188.36 153.238C186.936 156.541 179.169 159.08 175.985 160.766C172.172 162.784 169.577 158.223 168.282 155.396C167.493 153.672 165.916 151.879 166.013 149.794Z" fill="#D0CFCE"/>
<path d="M96.0564 66.2525C97.251 62.9654 100.26 56.6834 104.644 59.0151C107.649 60.6131 112.79 62.4651 115.388 64.4293C115.922 64.8321 116.349 65.36 116.632 65.9662C116.825 66.3883 117.004 67.0403 117.135 67.4966C117.228 69.8083 115.803 71.692 114.744 73.7457C111.272 79.9865 106.019 74.7228 101.511 73.0049C100.062 72.4528 97.412 70.9994 96.6525 69.6731C95.8395 68.4514 95.9236 67.6224 96.0564 66.2525Z" fill="#D0CFCE"/>
<defs>
<linearGradient id="paint0_linear_5_103" x1="120.202" y1="221.365" x2="119.929" y2="16.1467" gradientUnits="userSpaceOnUse">
<stop stop-color="#356AD7"/>
<stop offset="1" stop-color="#52AEE7"/>
</linearGradient>
<linearGradient id="paint1_linear_5_103" x1="119.812" y1="239.626" x2="119.959" y2="0.318929" gradientUnits="userSpaceOnUse">
<stop stop-color="#3163D6"/>
<stop offset="1" stop-color="#55B5EB"/>
</linearGradient>
<linearGradient id="paint2_linear_5_103" x1="70.4436" y1="162.177" x2="34.1728" y2="233.885" gradientUnits="userSpaceOnUse">
<stop stop-color="#505050"/>
<stop offset="1" stop-color="#747373"/>
</linearGradient>
<linearGradient id="paint3_linear_5_103" x1="40.562" y1="172.89" x2="38.5071" y2="185.805" gradientUnits="userSpaceOnUse">
<stop stop-color="#525151"/>
<stop offset="1" stop-color="#6E6D6D"/>
</linearGradient>
<linearGradient id="paint4_linear_5_103" x1="42.3044" y1="202.026" x2="42.252" y2="214.68" gradientUnits="userSpaceOnUse">
<stop stop-color="#5A595A"/>
<stop offset="1" stop-color="#6F6F6F"/>
</linearGradient>
<linearGradient id="paint5_linear_5_103" x1="24.5781" y1="202.812" x2="25.2202" y2="209.704" gradientUnits="userSpaceOnUse">
<stop stop-color="#4A494A"/>
<stop offset="1" stop-color="#656465"/>
</linearGradient>
<linearGradient id="paint6_linear_5_103" x1="70.6126" y1="191.644" x2="122.159" y2="135.011" gradientUnits="userSpaceOnUse">
<stop stop-color="#5E5E5E"/>
<stop offset="1" stop-color="#D0CECE"/>
</linearGradient>
<linearGradient id="paint7_linear_5_103" x1="148.015" y1="141.561" x2="142.986" y2="46.9993" gradientUnits="userSpaceOnUse">
<stop stop-color="#C6C4C5"/>
<stop offset="1" stop-color="#F2F2F1"/>
</linearGradient>
</defs>
</svg>
