<?xml version="1.0" encoding="UTF-8"?>
<svg width="240px" height="240px" viewBox="0 0 240 240" version="1.1" xmlns="http://www.w3.org/2000/svg" xmlns:xlink="http://www.w3.org/1999/xlink">
    <title>hostio</title>
    <g id="Page-1" stroke="none" stroke-width="1" fill="none" fill-rule="evenodd">
        <g id="hostio" transform="translate(0, 0)" fill="#F35929" fill-rule="nonzero">
            <path d="M113.818845,239.99997 C103.173172,239.99997 94.5431492,231.548436 94.5431492,221.122941 L94.5431492,155.933396 C94.5431492,145.5079 103.173172,137.056366 113.818845,137.056366 L126.181155,137.056366 C131.304922,137.046459 136.221883,139.034747 139.845833,142.581997 C143.469782,146.129247 145.502482,150.943534 145.494889,155.961334 L145.494889,190.111343 L170.951739,190.111343 C175.762971,190.113814 180.37801,188.24382 183.780957,184.913001 C187.183903,181.582182 189.095809,177.063573 189.095808,172.351848 L189.095808,18.8770342 C189.095807,8.45517442 197.720035,0.00514611613 208.361994,4.59674149e-06 L220.724305,4.59674149e-06 C231.369977,4.59674149e-06 240,8.45153863 240,18.8770342 L240,176.402913 C240,193.269901 233.158109,209.446062 220.979465,221.372823 C208.80082,233.299585 192.283034,239.99997 175.05983,239.99997 L113.818845,239.99997 Z M19.2756954,239.999979 C8.63002278,239.999979 0,231.548436 0,221.122941 L0,63.597062 C0,28.473377 29.0747043,2.29623097e-06 64.9401696,2.29623097e-06 L126.209684,2.29623097e-06 C131.323564,-0.00246610553 136.228855,1.98526732 139.845807,5.52566491 C143.462758,9.06606251 145.494889,13.8689207 145.494889,18.8770342 L145.494889,84.066579 C145.494889,89.0730786 143.464062,93.8745249 139.849168,97.4146547 C136.234274,100.954784 131.331426,102.943609 126.219193,102.943609 L113.856882,102.943609 C108.733116,102.953516 103.816155,100.965228 100.192205,97.417978 C96.5682559,93.8707276 94.5355559,89.0564404 94.5431492,84.0386406 L94.5431492,49.888632 L69.0292416,49.888632 C59.0398068,49.9245419 50.9611816,57.8652303 50.9612489,67.6481265 L50.9612489,221.122941 C50.9612514,226.132669 48.9278145,230.93694 45.3088059,234.477606 C41.6897973,238.018271 36.7820613,240.004913 31.6665346,239.999979 L19.2756954,239.999979 Z" id="Union_1"></path>
        </g>
    </g>
</svg>