<svg width="240" height="240" viewBox="0 0 240 240" fill="none" xmlns="http://www.w3.org/2000/svg">
<rect x="12.5" y="128.5" width="215" height="75" stroke="#01A880" stroke-width="25"/>
<path opacity="0.994" fill-rule="evenodd" clip-rule="evenodd" d="M0 23C4.57143 23 9.14286 23 13.7143 23C13.7143 32.1617 13.7143 41.3233 13.7143 50.485C28.5334 50.485 43.3523 50.485 58.1714 50.485C58.1714 41.3233 58.1714 32.1617 58.1714 23C62.8191 23 67.4666 23 72.1143 23C72.1143 46 72.1143 69 72.1143 92C67.4666 92 62.8191 92 58.1714 92C58.1714 82.6083 58.1714 73.2167 58.1714 63.825C43.3523 63.825 28.5334 63.825 13.7143 63.825C13.7143 73.2167 13.7143 82.6083 13.7143 92C9.14286 92 4.57143 92 0 92C0 69 0 46 0 23Z" fill="#FEFFFE"/>
<path opacity="0.994" fill-rule="evenodd" clip-rule="evenodd" d="M89.1428 23C104.419 23 119.695 23 134.971 23C140.851 23.3557 146.184 25.2532 150.971 28.6925C156.208 32.9621 159.161 38.5012 159.829 45.31C160.566 51.3754 159.499 57.0872 156.629 62.445C153.319 67.6891 148.69 71.1966 142.743 72.9675C139.834 73.8387 136.863 74.337 133.829 74.4625C123.543 74.52 113.257 74.5392 102.971 74.52C102.971 80.3467 102.971 86.1733 102.971 92C98.3619 92 93.7523 92 89.1428 92C89.1428 69 89.1428 46 89.1428 23ZM102.971 36.11C112.8 36.0908 122.629 36.11 132.457 36.1675C135.896 36.2076 139.019 37.2042 141.829 39.1575C144.017 41.0892 145.255 43.5232 145.543 46.46C145.902 49.1708 145.635 51.8158 144.743 54.395C143.339 57.4888 140.997 59.4631 137.714 60.3175C136.07 60.785 134.393 61.0533 132.686 61.1225C122.781 61.18 112.876 61.1992 102.971 61.18C102.971 52.8233 102.971 44.4667 102.971 36.11Z" fill="#FEFFFE"/>
<path opacity="0.995" fill-rule="evenodd" clip-rule="evenodd" d="M172.457 23C194.971 23 217.486 23 240 23C240 27.37 240 31.74 240 36.11C222.134 36.11 204.266 36.11 186.4 36.11C186.4 38.2567 186.4 40.4033 186.4 42.55C181.752 42.55 177.105 42.55 172.457 42.55C172.457 36.0333 172.457 29.5167 172.457 23Z" fill="#FEFFFE"/>
<path opacity="0.993" fill-rule="evenodd" clip-rule="evenodd" d="M240 48.76C240 53.1683 240 57.5767 240 61.985C222.134 61.985 204.266 61.985 186.4 61.985C186.4 67.62 186.4 73.255 186.4 78.89C204.266 78.89 222.134 78.89 240 78.89C240 83.26 240 87.63 240 92C217.486 92 194.971 92 172.457 92C172.457 77.5867 172.457 63.1733 172.457 48.76C194.971 48.76 217.486 48.76 240 48.76Z" fill="#01A981"/>
</svg>
