<?xml version="1.0" encoding="UTF-8"?>
<svg width="240px" height="240px" viewBox="0 0 240 240" version="1.1" xmlns="http://www.w3.org/2000/svg" xmlns:xlink="http://www.w3.org/1999/xlink">
    <title>httpie</title>
    <g id="Page-1" stroke="none" stroke-width="1" fill="none" fill-rule="evenodd">
        <g id="httpie">
            <rect id="box" fill="#8DDA93" x="0" y="0" width="240" height="240" rx="32"></rect>
            <path d="M151,42 C169.777681,42 185,57.2223185 185,76 C185,91.9610293 174.001875,105.353309 159.170594,109.011869 L158.644554,109.137172 L116.109725,127.980443 C115.329911,128.887433 114.787079,129.776482 114.481232,130.64759 C128.130732,135.065631 138,147.88027 138,163 C138,181.777681 122.777681,197 104,197 L88,197 C69.2223185,197 54,181.777681 54,163 C54,147.167753 64.821364,133.86297 79.4711595,130.078585 L116.109725,114.501445 C117.370943,113.283141 117.645582,111.782893 116.933644,110.000699 L88,110 C69.2223185,110 54,94.7776815 54,76 C54,57.2223185 69.2223185,42 88,42 L151,42 Z" id="Combined-Shape" fill="#000000"></path>
        </g>
    </g>
</svg>