<?xml version="1.0" encoding="UTF-8"?>
<svg width="240px" height="240px" viewBox="0 0 240 240" version="1.1" xmlns="http://www.w3.org/2000/svg" xmlns:xlink="http://www.w3.org/1999/xlink">
    <title>huawei</title>
    <g id="Page-1" stroke="none" stroke-width="1" fill="none" fill-rule="evenodd">
        <g id="huawei" transform="translate(-849, -247)">
            <rect id="box" x="849" y="247" width="240" height="240"></rect>
            <path d="M851.086602,370 C851.086602,370 913.473419,404.056453 945.654971,426.245912 L945.654971,426.2627 C945.654971,426.2627 945.90142,426.464161 946,426.749563 L946,427.219638 C945.98357,427.270004 945.95071,427.320369 945.93428,427.370734 C945.93428,427.370734 945.654971,427.874386 945.178503,427.874386 C940.397392,427.895539 930.128254,427.940384 919.744081,427.970363 L918.260425,427.97454 L916.778685,427.97849 C912.586425,427.989337 908.459153,427.997146 904.753169,427.999361 L900.414352,427.999073 C894.593239,427.994087 890.540983,427.968401 890.21567,427.907962 L890.194005,427.907248 C889.763054,427.892117 882.973854,427.611729 876.186851,424.768533 C876.186851,424.768533 876.162565,424.76021 876.115427,424.74313 L875.971407,424.689742 C874.097226,423.981599 860.451455,418.364481 853.058194,402.394403 C853.058194,402.394403 853.045575,402.370485 853.021742,402.32339 L852.97776,402.235459 C852.413995,401.096563 849.075207,393.935417 849,383.931967 L849,383.210067 C849.03286,379.180852 849.591478,374.70075 851.086602,370 Z M885.452381,308 C885.452381,308 923.881719,354.93027 951.96705,416.850966 C951.96705,416.884209 951.983525,416.917453 952,416.950696 L952,417.399483 C951.94116,417.553827 951.848698,417.66577 951.800666,417.717137 L951.769349,417.748539 C951.456322,418.147461 950.912644,417.964622 950.780843,417.914756 C940.519212,412.781016 896.373016,390.144593 878.139792,372.231117 C878.139792,372.231117 866.823755,363.241135 866.03295,348.067869 C866.016475,347.868409 866,347.668948 866,347.469487 L866,344.510819 C866.854563,327.407889 882.262338,311.197682 885.028816,308.418379 L885.192613,308.254724 C885.361666,308.08681 885.452381,308 885.452381,308 Z M951.091203,276 C951.091203,276 972.619517,304.289476 962.108785,411.047553 C962.111121,411.140235 962.101778,411.767623 961.422084,411.967246 C961.422084,411.967246 961.046034,412.150234 960.555533,411.651176 C953.739908,401.603469 922.027863,353.803189 915.585953,324.71522 C915.585953,324.71522 914.2616,320.190424 914,314.154195 L914,310.061917 C914.11445,307.184014 914.555901,304.142135 915.487852,301.181056 C915.487852,301.181056 920.04951,283.350416 939.35422,278.279033 C939.35422,278.279033 942.075225,277.644858 945.017879,277.040758 L945.589522,276.924389 C947.690771,276.500389 949.822441,276.11312 951.091203,276 Z M906.624213,457.383091 C916.34702,454.980515 938.348398,439.763416 945.617387,434.612688 L945.600791,434.596232 C946.165051,434.086096 945.965901,433.674696 945.965901,433.674696 C945.783346,433.016456 945.019936,433.016456 945.019936,433.016456 L945.019936,433 L871,435.567136 C879.013433,449.747507 892.536693,460.770676 906.624213,457.383091 Z M1086.88729,369 C1092.45333,386.152123 1085.26113,400.841279 1085.26113,400.841279 C1077.21479,418.831961 1061.67823,423.880085 1061.67823,423.880085 C1054.69957,426.613787 1049.06548,426.831813 1049.06548,426.831813 C1048.43818,426.956087 1033.99168,426.993333 1019.54865,426.999192 L1016.51284,426.999981 C1016.26066,427.000011 1016.00877,427.000033 1015.75726,427.000047 L1014.25329,427.000033 C1014.00358,427.000016 1013.75439,426.99999 1013.5058,426.999958 L1010.55618,426.999238 C1010.31356,426.999152 1010.07185,426.99906 1009.8311,426.998963 L1008.39889,426.99831 C1008.16233,426.998191 1007.92689,426.998066 1007.69265,426.997937 L1006.30212,426.997105 C1000.573,426.993414 995.684241,426.987065 992.802082,426.982753 L992.802082,426.965982 C992.358583,426.965982 992.04649,426.395762 992.04649,426.395762 C991.832954,425.708144 992.424286,425.322407 992.424286,425.322407 L992.40786,425.305636 C1024.59793,403.148514 1086.83567,369.028751 1086.88729,369 Z M1052.55077,308 C1052.55549,308.007129 1073.27376,327.229623 1071.93809,347.999136 C1071.35722,362.629733 1060.32682,371.877055 1059.85266,372.268023 L1059.83692,372.280931 C1041.68399,390.125127 997.846988,412.627017 987.295862,417.900192 C987.213413,417.950096 987.147454,417.983365 987.065005,418 L986.702229,418 C986.471371,417.950096 986.306473,417.833654 986.306473,417.833654 C985.762309,417.367884 986.108595,416.652596 986.108595,416.652596 L986.092106,416.652596 C1014.18368,354.821707 1052.54606,308.007129 1052.55077,308 Z M986.972173,276 C992.884236,276.848383 998.455532,278.278989 998.455532,278.278989 C1017.76251,283.069855 1022.53324,301.180566 1022.53324,301.180566 C1025.89889,310.676747 1022.41887,324.714271 1022.41887,324.714271 C1016.00033,353.687606 984.505119,401.23743 977.514741,411.53209 C977.514741,411.53209 977.155302,412.214123 976.452763,411.931328 C976.452763,411.931328 975.978958,411.798249 975.897268,411.116216 L975.88093,411.116216 C965.377858,304.307937 986.972173,276 986.972173,276 Z M1067,435.548145 L992.860081,433 L992.860081,433.01644 C992.860081,433.01644 992.212664,433.098638 992.03006,433.575388 C992.03006,433.575388 991.864055,434.249413 992.312267,434.578206 L992.295667,434.578206 C999.381681,439.625176 1020.87687,454.481916 1031.23317,457.375294 C1031.23317,457.375294 1032.82682,457.917802 1035.49949,458 L1036.92712,458 C1043.84713,457.786285 1055.97968,454.30108 1067,435.548145 L1067,435.548145 Z" id="shape" fill="#CE0E2D" fill-rule="nonzero"></path>
        </g>
    </g>
</svg>