<?xml version="1.0" encoding="UTF-8"?>
<svg width="240px" height="240px" viewBox="0 0 240 240" version="1.1" xmlns="http://www.w3.org/2000/svg" xmlns:xlink="http://www.w3.org/1999/xlink">
    <title>hudsonrock</title>
    <g id="Page-1" stroke="none" stroke-width="1" fill="none" fill-rule="evenodd">
        <g id="hudsonrock" transform="translate(-0.0008, -0.0008)">
            <path d="M240.00081,0.00081024209 L240,2.951 L194.986874,47.9638737 L195.263603,48.2543179 C201.829566,55.2338312 207.441914,63.1207085 211.892519,71.7068225 L212.381874,72.6688737 L240,45.05 L240,54.949 L215.504874,79.4458737 L215.948169,80.5183068 C220.615873,92.0555494 223.273511,104.621176 223.486877,117.78098 L223.50081,119.50081 C223.50081,176.938424 176.938424,223.50081 119.50081,223.50081 C105.141407,223.50081 91.461705,220.590661 79.0193168,215.327975 L78.0438737,214.906874 L52.949,240 L43.05,240 L71.3478737,211.702874 L70.2823136,211.14003 C62.2471893,206.815376 54.8460804,201.46479 48.2543179,195.263603 L47.9638737,194.986874 L2.951,240 L0.000810242089,240.00081 L0,233.051 L43.0478737,190.002874 L42.6525556,189.575685 C36.1931927,182.495995 30.699007,174.520505 26.3781261,165.85734 L25.9558737,164.993874 L0,190.949 L0,181.05 L22.9158737,158.134874 L22.4560553,156.97266 C18.1592689,145.852285 15.7188327,133.808279 15.5147433,121.22064 L15.5008102,119.50081 C15.5008102,62.0631963 62.0631963,15.5008102 119.50081,15.5008102 C133.285838,15.5008102 146.444452,18.1828037 158.483314,23.0534513 L158.846874,23.2038737 L182.05,0 L191.949,0 L165.665874,26.2838737 L165.85734,26.3781261 C174.520505,30.699007 182.495995,36.1931927 189.575685,42.6525556 L190.002874,43.0478737 L233.051,0 L240.00081,0.00081024209 Z M119.50081,22.5008102 C65.9291895,22.5008102 22.5008102,65.9291895 22.5008102,119.50081 C22.5008102,173.072431 65.9291895,216.50081 119.50081,216.50081 C173.072431,216.50081 216.50081,173.072431 216.50081,119.50081 C216.50081,65.9291895 173.072431,22.5008102 119.50081,22.5008102 Z" id="Combined-Shape" fill="#FECD4E"></path>
            <rect id="box" fill="#FECD4E" x="34.0008102" y="32.0008102" width="172" height="172" rx="86"></rect>
            <g id="CK" transform="translate(72.0008, 120.0008)" fill="#FFFFFF" fill-rule="nonzero">
                <path d="M24.9376562,48.75 C19.7234375,48.75 15.2494401,47.7858333 11.5156641,45.8575 C7.78188802,43.9291667 4.92916667,41.145 2.9575,37.505 C0.985833333,33.865 0,29.4883333 0,24.375 C0,19.2474479 0.985833333,14.8672266 2.9575,11.2343359 C4.92916667,7.60144531 7.78188802,4.82083333 11.5156641,2.8925 C15.2494401,0.964166667 19.7234375,0 24.9376562,0 C30.8743229,0 36.1393229,1.27122396 40.7326562,3.81367187 L38.6313281,11.7396094 C34.1828906,9.25539062 29.7341146,8.01328125 25.285,8.01328125 C22.0052083,8.01328125 19.176862,8.66345052 16.7999609,9.96378906 C14.4230599,11.2641276 12.6025521,13.1315234 11.3384375,15.5659766 C10.0743229,18.0004297 9.44226563,20.9367708 9.44226563,24.375 C9.44226563,27.7698958 10.0743229,30.6954036 11.3384375,33.1515234 C12.6025521,35.6076432 14.4230599,37.4858724 16.7999609,38.7862109 C19.176862,40.0865495 22.0052083,40.7367187 25.285,40.7367187 C29.6474479,40.7367187 34.096224,39.4946094 38.6313281,37.0103906 L40.7326562,44.9363281 C36.1393229,47.478776 30.8743229,48.75 24.9376562,48.75 Z" id="Path"></path>
                <polygon id="Path" points="49.5047491 48.1 49.5047491 0.65 58.599671 0.65 58.599671 21.2113281 58.729671 21.2113281 78.1067803 0.65 89.1517022 0.65 67.8469366 23.4213281 89.8017022 48.1 78.7567803 48.1 58.729671 25.6303125 58.599671 25.6303125 58.599671 48.1"></polygon>
            </g>
            <g id="RO" transform="translate(74.0008, 66.0008)" fill="#FFFFFF" fill-rule="nonzero">
                <path d="M0,48.1 L0,0.65 L14.9916406,0.65 C22.054974,0.65 27.2439714,1.81983073 30.5586328,4.15949219 C33.8732943,6.49915365 35.530625,10.160651 35.530625,15.1439844 C35.530625,20.040651 33.9670703,23.7310937 30.8399609,26.2153125 C27.7128516,28.6995312 23.0292969,29.9416406 16.7892969,29.9416406 L4.54796875,29.9416406 L4.54796875,22.6210156 L15.4242969,22.6210156 C19.2247656,22.6210156 21.9776172,22.0610677 23.6828516,20.9411719 C25.3880859,19.821276 26.2407031,18.0188802 26.2407031,15.5339844 C26.2407031,13.0484115 25.3880859,11.2458464 23.6828516,10.1262891 C21.9776172,9.00673177 19.2247656,8.44695312 15.4242969,8.44695312 L9.09492188,8.44695312 L9.09492188,48.1 L0,48.1 Z M27.3873438,48.1 L7.42828125,26.5413281 L18.0415625,26.5413281 L38.3469531,48.1 L27.3873438,48.1 Z" id="Shape"></path>
                <path d="M66.6169195,48.75 C61.6044716,48.75 57.2603049,47.7641667 53.5844195,45.7925 C49.9085341,43.8208333 47.0810341,41.0077214 45.1019195,37.3531641 C43.1228049,33.6986068 42.1332476,29.3725521 42.1332476,24.375 C42.1332476,19.3483333 43.1228049,15.015 45.1019195,11.375 C47.0810341,7.735 49.9085341,4.92916667 53.5844195,2.9575 C57.2603049,0.985833333 61.6044716,0 66.6169195,0 C71.6720237,0 76.0268544,0.985833333 79.6814117,2.9575 C83.335969,4.92916667 86.1526356,7.735 88.1314117,11.375 C90.1101877,15.015 91.0995757,19.3483333 91.0995757,24.375 C91.0995757,29.3725521 90.1101877,33.6986068 88.1314117,37.3531641 C86.1526356,41.0077214 83.335969,43.8208333 79.6814117,45.7925 C76.0268544,47.7641667 71.6720237,48.75 66.6169195,48.75 Z M66.6169195,40.7367187 C69.7951487,40.7367187 72.5185471,40.0865495 74.7871148,38.7862109 C77.0556825,37.4858724 78.785969,35.6184766 79.9779742,33.1840234 C81.1699794,30.7495703 81.765982,27.8132292 81.765982,24.375 C81.765982,20.9367708 81.1699794,18.0004297 79.9779742,15.5659766 C78.785969,13.1315234 77.0556825,11.2641276 74.7871148,9.96378906 C72.5185471,8.66345052 69.7951487,8.01328125 66.6169195,8.01328125 C63.4380132,8.01328125 60.7142763,8.66345052 58.4457086,9.96378906 C56.1771408,11.2641276 54.4468544,13.1315234 53.2548492,15.5659766 C52.062844,18.0004297 51.4668414,20.9367708 51.4668414,24.375 C51.4668414,27.8132292 52.062844,30.7495703 53.2548492,33.1840234 C54.4468544,35.6184766 56.1771408,37.4858724 58.4457086,38.7862109 C60.7142763,40.0865495 63.4380132,40.7367187 66.6169195,40.7367187 Z" id="Shape"></path>
            </g>
        </g>
    </g>
</svg>