<?xml version="1.0" encoding="UTF-8"?>
<svg width="240px" height="240px" viewBox="0 0 240 240" version="1.1" xmlns="http://www.w3.org/2000/svg" xmlns:xlink="http://www.w3.org/1999/xlink">
    <title>hugging-face</title>
    <g id="Page-1" stroke="none" stroke-width="1" fill="none" fill-rule="evenodd">
        <g id="hugging-face" transform="translate(0, 0)">
            <rect id="ViewBox" x="0" y="0" width="240" height="240"></rect>
            <g id="shape" transform="translate(0, 9)" fill-rule="nonzero">
                <path d="M239.191719,163.791562 C238.564802,161.430149 237.551083,159.18888 236.191719,157.15875 C236.484219,156.088125 236.705157,155.00375 236.854532,153.905625 C237.819219,146.941875 235.406094,140.563125 230.854532,135.63375 C228.389844,132.939375 225.748907,131.160938 222.950469,130.06875 C224.787511,122.210327 225.717335,114.167161 225.721719,106.096875 C225.721719,102.4125 225.512657,98.803125 225.163907,95.24625 C224.980843,93.4699421 224.760482,91.6976761 224.502969,89.930625 C223.702163,84.7179938 222.513233,79.5724377 220.946094,74.536875 C219.919044,71.2280056 218.731705,67.9710347 217.388282,64.7775 C215.373634,60.0501087 213.020655,55.4741756 210.347657,51.0853125 C208.593502,48.1648314 206.68453,45.3401788 204.628907,42.6234375 C203.621234,41.2520816 202.570395,39.9129733 201.477969,38.608125 C198.241817,34.6722617 194.723458,30.9771855 190.950782,27.5521875 C189.699082,26.4004823 188.41125,25.2886759 187.089219,24.2184375 C185.787404,23.1323151 184.456933,22.0810059 183.099219,21.065625 C180.36601,19.0322117 177.54185,17.1239953 174.635469,15.346875 C158.576094,5.595 139.743594,0 119.607969,0 C61.0020318,0 13.5026568,47.499375 13.5026568,106.104375 C13.5012796,114.273821 14.4482424,122.415813 16.3245318,130.366875 C13.8073443,131.46 11.3932818,133.1625 9.1573443,135.627188 C4.6076568,140.558438 2.1935943,146.911875 3.1592193,153.876563 C3.3045318,154.98375 3.5267193,156.079688 3.8201568,157.155938 C2.4605115,159.186929 1.44678312,161.429169 0.820156805,163.791563 C-0.577655695,169.107188 -0.117343195,173.899688 1.6592193,178.1025 C-0.272030695,183.5925 0.210781805,189.436875 2.7270318,194.521875 C4.5560943,198.233438 7.1754693,201.103125 10.4023443,203.670938 C14.2395318,206.720625 19.0432818,209.31375 24.8398443,211.799063 C31.7529693,214.7475 40.1885943,217.517813 44.0220318,218.534063 C53.9342193,221.100938 63.4376568,222.7275 73.0742193,222.80625 C86.8020318,222.93375 98.6182818,219.705938 107.079219,211.4475 C111.236094,211.956563 115.419219,212.211563 119.606094,212.210625 C124.031094,212.20125 128.451407,211.921875 132.844532,211.37625 C141.286719,219.687188 153.145157,222.945 166.919844,222.81375 C176.550782,222.736875 186.054219,221.110313 195.936407,218.53875 C199.798907,217.523438 208.230782,214.753125 215.153282,211.806563 C220.947969,209.314688 225.750782,206.723438 229.615157,203.676563 C232.817657,201.110625 235.433282,198.239062 237.265157,194.5275 C239.805782,189.44625 240.264219,183.6 238.357344,178.108125 C240.117969,173.909063 240.575469,169.105313 239.177657,163.797188 L239.191719,163.791562 Z M229.357344,177.741562 C231.304532,181.435312 231.429219,185.611875 229.710782,189.49875 C227.104532,195.39375 220.632969,200.035313 208.058282,205.021875 C200.242344,208.122187 193.083594,210.103125 193.025469,210.121875 C182.686719,212.803125 173.331407,214.165312 165.243594,214.165312 C151.842032,214.165312 141.867032,210.466875 135.538907,203.162812 C124.841377,204.983972 113.918218,205.045722 103.200782,203.345625 C96.8679693,210.52875 86.9557818,214.165312 73.6592193,214.165312 C65.5639068,214.165312 56.2142193,212.804062 45.8773443,210.121875 C45.8135943,210.103125 38.6585943,208.122187 30.8445318,205.021875 C18.2707818,200.037187 11.8029693,195.398437 9.1920318,189.49875 C7.4735943,185.61 7.5982818,181.435312 9.5454693,177.740625 C9.7260943,177.3975 9.9192193,177.06375 10.1248443,176.739375 C7.76234901,173.194493 7.02942268,168.808195 8.1110943,164.687812 C8.8845318,161.74875 10.4829693,159.30375 12.6532818,157.547812 C11.6093511,155.829771 10.923728,153.918317 10.6376568,151.928438 C10.0132818,147.6 11.4485943,143.278125 14.6810943,139.750313 C17.1973443,137.008125 20.7551568,135.499687 24.6954693,135.499687 L24.7995318,135.499687 C21.8291653,125.9779 20.3232195,116.059963 20.3332818,106.085625 C20.3332818,51.699375 64.4295318,7.603125 118.816719,7.603125 C173.215157,7.603125 217.300157,51.699375 217.300157,106.085625 C217.307339,116.085121 215.790875,126.027339 212.802969,135.57 C213.277969,135.5225 213.744219,135.498438 214.201719,135.497812 C218.140157,135.497812 221.698907,137.00625 224.214219,139.748437 C227.445782,143.26875 228.884844,147.595313 228.258594,151.926562 C227.972646,153.916766 227.287018,155.82855 226.242969,157.546875 C228.412344,159.301875 230.011719,161.746875 230.785157,164.686875 C231.861923,168.80748 231.129336,173.191751 228.771407,176.738438 C228.977657,177.057187 229.172657,177.39375 229.350782,177.735937 L229.357344,177.741562 Z" id="Shape" fill="#FFFFFF"></path>
                <path d="M228.702969,176.727187 C231.06149,173.1804 231.794431,168.795717 230.717657,164.674688 C229.943282,161.735625 228.344844,159.290625 226.174532,157.534688 C227.218462,155.816646 227.904086,153.905192 228.190157,151.915312 C228.815469,147.587812 227.380157,143.265 224.147657,139.737188 C221.631407,136.995937 218.072657,135.486562 214.133282,135.486562 C213.676407,135.486562 213.210469,135.510312 212.735469,135.557812 C215.72042,126.015008 217.234038,116.073123 217.224219,106.074375 C217.224219,51.688125 173.127032,7.5909375 118.739844,7.5909375 C64.3526568,7.5909375 20.2582818,51.6759375 20.2582818,106.074375 C20.2483145,116.048399 21.7542592,125.966012 24.7245318,135.4875 L24.6204693,135.4875 C20.6810943,135.4875 17.1232818,136.996875 14.6079693,139.739063 C11.3773443,143.259375 9.9392193,147.584063 10.5635943,151.917188 C10.849788,153.906743 11.5354069,155.817866 12.5792193,157.535625 C10.4098443,159.2925 8.8104693,161.7375 8.0379693,164.6775 C6.95873774,168.798843 7.69220044,173.18495 10.0535943,176.730938 C9.84619039,177.055722 9.6531909,177.389483 9.4751568,177.73125 C7.5289068,181.426875 7.4032818,185.6025 9.1217193,189.490313 C11.7260943,195.383438 18.1995318,200.026875 30.7742193,205.0125 C38.5901568,208.112812 45.7489068,210.09375 45.8070318,210.1125 C56.1457818,212.79375 65.5010943,214.156875 73.5889068,214.156875 C86.8854693,214.156875 96.8023443,210.52125 103.129532,203.33625 C113.847274,205.03645 124.770759,204.9747 135.468594,203.153438 C141.792969,210.4575 151.771719,214.156875 165.173282,214.156875 C173.267657,214.156875 182.618282,212.794688 192.955157,210.113438 C193.017969,210.094688 200.173907,208.112813 207.987969,205.0125 C220.562657,200.029688 227.029532,195.385313 229.640469,189.490313 C231.358907,185.601563 231.234219,181.425938 229.287032,177.73125 C229.107657,177.385 228.914219,177.051563 228.706719,176.730938 L228.702969,176.727187 Z M98.6510943,192.08625 C98.106541,193.04059 97.5222797,193.971717 96.8998443,194.877187 C95.2620318,197.274375 93.1085943,199.105312 90.6101568,200.4675 C85.8307818,203.071875 79.7839068,203.983125 73.6432818,203.983125 C63.9382818,203.983125 53.9839068,201.711562 48.4132818,200.265 C48.1395318,200.19375 14.2339068,190.615312 18.5220318,182.458125 C19.2439068,181.0875 20.4345318,180.54 21.9307818,180.54 C27.9757818,180.54 38.9792193,189.540937 43.7107818,189.540937 C44.7664068,189.540937 45.5126568,189.090937 45.8164068,187.994062 C47.8320318,180.762187 15.1798443,177.72375 17.9304693,167.25 C18.4160943,165.3975 19.7314068,164.645625 21.5829693,164.645625 C29.5742193,164.644687 47.5123443,178.699687 51.2642193,178.699687 C51.5529693,178.699687 51.7592193,178.615312 51.8707818,178.439062 L51.9195318,178.358437 C53.6792193,175.45125 52.6695318,173.337187 40.6067193,165.947812 L39.4479693,165.242812 C26.1748443,157.2075 16.8523443,152.3775 22.1548443,146.609062 C22.7642193,145.9425 23.6267193,145.647187 24.6767193,145.647187 C25.9235943,145.647187 27.4301568,146.064375 29.0895318,146.762812 C36.1001568,149.71875 45.8117193,157.782187 49.8795318,161.294062 C50.5177749,161.848326 51.1515454,162.407719 51.7807818,162.972187 C51.7807818,162.972187 56.9201568,168.315937 60.0279693,168.315937 C60.7432818,168.315937 61.3498443,168.035625 61.7614068,167.338125 C63.9654693,163.622812 41.2976568,146.443125 40.0160943,139.3575 C39.1498443,134.554687 40.6235943,132.121875 43.3517193,132.121875 C44.6482818,132.121875 46.2298443,132.673125 47.9773443,133.78125 C53.3960943,137.221875 63.8614068,155.200312 67.6948443,162.193125 C68.9792193,164.536875 71.1710943,165.527812 73.1464068,165.527812 C77.0651568,165.527812 80.1289068,161.6325 73.5054693,156.681562 C63.5492193,149.232187 67.0432818,137.057812 71.7945318,136.311562 C71.9976568,136.280312 72.2017193,136.264062 72.4067193,136.262812 C76.7276568,136.262812 78.6335943,143.709375 78.6335943,143.709375 C78.6335943,143.709375 84.2192193,157.74 93.8182818,167.330625 C102.527657,176.034375 103.742657,183.179062 98.6698443,192.0825 L98.6510943,192.08625 Z M129.684219,193.729687 L129.187344,193.78875 L128.337032,193.88625 C127.890782,193.9325 127.443907,193.97625 126.996407,194.0175 L126.557657,194.057812 L126.159219,194.091562 L125.592032,194.1375 C125.383282,194.153125 125.174532,194.167812 124.965782,194.181562 L124.341407,194.22375 L124.203594,194.23125 L123.712344,194.260312 L123.503282,194.271562 L122.921094,194.299687 L122.243282,194.327812 L121.628282,194.349375 L121.217657,194.360625 L121.011407,194.360625 C120.882032,194.360625 120.755469,194.368125 120.627032,194.37 L120.423594,194.37 C120.296094,194.36875 120.167969,194.370937 120.039219,194.376563 L119.518907,194.382187 L118.789532,194.382187 C118.217657,194.382187 117.647032,194.376563 117.077657,194.365312 L116.616407,194.355938 C116.485157,194.355938 116.353907,194.348437 116.222657,194.344687 L115.735157,194.329688 L115.126719,194.30625 L114.580157,194.282813 L114.438594,194.277187 L113.917344,194.249062 C113.772969,194.241562 113.628907,194.233437 113.485157,194.224687 L113.147657,194.205 C112.724644,194.177897 112.301821,194.147896 111.879219,194.115 L111.435782,194.080312 L110.877032,194.0325 L110.222657,193.971562 C109.857657,193.937812 109.492969,193.900312 109.128594,193.859062 L109.111719,193.859062 C114.436719,181.973437 111.744219,170.879062 100.981719,160.134375 C93.9242193,153.087187 89.2235943,142.678125 88.2560943,140.393437 C86.2845318,133.629375 81.0654693,126.105937 72.3964068,126.105937 C71.6626568,126.107812 70.9332818,126.165937 70.2082818,126.280312 C66.4114068,126.876562 63.0926568,129.062812 60.7235943,132.351562 C58.1660943,129.169687 55.6779693,126.639375 53.4289068,125.209687 C50.0379693,123.060937 46.6545318,121.969687 43.3564068,121.969687 C39.2426568,121.969687 35.5639068,123.659062 32.9998443,126.724687 L32.9360943,126.8025 L32.7917193,126.195 L32.7860943,126.169687 C32.298535,124.083483 31.8888758,121.979836 31.5579693,119.863125 C31.5579693,119.847187 31.5579693,119.834062 31.5504693,119.82 L31.4782818,119.340937 L31.3639068,118.562812 C31.3332818,118.346562 31.3039068,118.131562 31.2757818,117.917812 C31.2470318,117.702812 31.2189068,117.4875 31.1914068,117.271875 C31.1373294,116.851432 31.087327,116.430475 31.0414068,116.009062 L31.0348443,115.956563 C30.929661,115.010539 30.8393374,114.062922 30.7639068,113.114063 L30.7235943,112.565625 C30.7110943,112.415625 30.7004693,112.264063 30.6917193,112.110938 C30.6917193,112.07625 30.6870318,112.039688 30.6851568,112.007813 L30.6467193,111.398438 C30.6329693,111.178438 30.6207818,110.958438 30.6101568,110.738438 L30.5773443,110.0775 L30.5539068,109.500938 L30.5473443,109.325625 L30.5295318,108.79125 L30.5173443,108.340313 C30.5173443,108.159375 30.5079693,107.9775 30.5051568,107.796563 L30.4957818,107.226563 C30.4939068,107.037188 30.4957818,106.847813 30.4910943,106.658438 C30.4854693,106.467188 30.4910943,106.276875 30.4910943,106.086563 C30.4910943,57.3159375 70.0310943,17.7759375 118.812969,17.7759375 C167.594844,17.7759375 207.134844,57.3159375 207.134844,106.085625 L207.134844,107.226563 C207.134844,107.417813 207.131094,107.607813 207.125469,107.796563 C207.125469,107.955938 207.118907,108.110625 207.114219,108.269063 C207.113594,108.410313 207.109844,108.549375 207.102969,108.68625 C207.102969,108.864375 207.092657,109.041563 207.087032,109.219688 L207.087032,109.234688 L207.039219,110.395313 L207.031719,110.52375 L207.001719,111.10125 L206.973594,111.559688 C206.908171,112.645481 206.82347,113.730027 206.719532,114.812813 L206.719532,114.826875 C206.700782,115.030625 206.680157,115.23375 206.657657,115.43625 L206.502032,116.851875 L206.442032,117.327188 L206.368907,117.884063 C206.342657,118.087813 206.315157,118.290938 206.286407,118.493438 L206.187969,119.173125 L206.106407,119.7075 L206.010782,120.312188 C205.978907,120.514063 205.944532,120.715313 205.907657,120.915938 C205.867344,121.116563 205.837344,121.317188 205.802657,121.51875 C205.733282,121.919375 205.659844,122.319375 205.582344,122.71875 C205.427344,123.515 205.264532,124.309063 205.093907,125.100938 C205.050782,125.297813 205.006407,125.495313 204.960782,125.693438 C202.475469,123.2775 199.184844,121.962188 195.552969,121.962188 C192.258594,121.962188 188.872344,123.051563 185.482344,125.20125 C183.232344,126.63 180.746094,129.16125 178.185782,132.344063 C175.813907,129.053438 172.495157,126.869063 168.702032,126.270938 C167.978265,126.156517 167.246662,126.098841 166.513907,126.098438 C157.844844,126.098438 152.622969,133.618125 150.653282,140.385938 C149.675469,142.670625 144.979532,153.075938 137.916407,160.139063 C127.163282,170.8575 124.444532,181.907813 129.691719,193.735313 L129.684219,193.729687 Z M220.860782,169.945312 L220.826094,170.048438 C220.802344,170.114688 220.777344,170.180625 220.751094,170.24625 C220.608334,170.581652 220.435767,170.903567 220.235469,171.208125 C220.041094,171.49875 219.827657,171.775 219.595157,172.036875 C219.541719,172.096875 219.490157,172.156875 219.430157,172.215938 C219.347657,172.305313 219.262657,172.393438 219.175157,172.480313 C217.604844,174.036563 215.213282,175.39875 212.509532,176.650313 C212.203907,176.789063 211.893594,176.927813 211.578594,177.066563 L211.266407,177.204375 C210.842828,177.390393 210.417176,177.571654 209.989532,177.748125 L209.338907,178.017188 C207.818282,178.6425 206.260157,179.23875 204.739532,179.828438 L204.090782,180.079688 L203.447657,180.330938 C203.021407,180.497813 202.599532,180.664688 202.182032,180.831563 L201.563282,181.080938 L200.956719,181.330312 L200.656719,181.455 C200.459219,181.538125 200.263594,181.62125 200.069844,181.704375 C195.597969,183.6225 192.381407,185.574375 193.057344,187.996875 C193.076094,188.065625 193.097032,188.13125 193.120157,188.19375 C193.180782,188.37375 193.262657,188.543125 193.365782,188.701875 C193.427032,188.798125 193.496719,188.887187 193.574844,188.969063 C194.368907,189.794062 195.815469,189.662813 197.638907,189.008437 C197.787657,188.955312 197.938594,188.898125 198.091719,188.836875 C198.195469,188.796875 198.299844,188.755938 198.404844,188.714063 L198.562344,188.6475 C198.979532,188.469375 199.421094,188.2725 199.872969,188.056875 C199.985469,188.005313 200.100782,187.95375 200.214219,187.89375 C202.443594,186.803438 204.971094,185.334375 207.479844,183.9975 C207.864844,183.790625 208.249219,183.58875 208.632969,183.391875 C209.259528,183.066868 209.892465,182.754306 210.531407,182.454375 C212.906094,181.336875 215.138282,180.544687 216.934532,180.544687 C217.775469,180.544687 218.519844,180.717187 219.138594,181.11375 L219.241719,181.182187 C219.630465,181.454944 219.957273,181.80667 220.200782,182.214375 C220.250782,182.295 220.297657,182.3775 220.341407,182.461875 C221.228282,184.144687 220.485782,185.889375 218.749532,187.599375 C217.081719,189.24 214.487657,190.84875 211.538282,192.339375 C211.320157,192.450625 211.100157,192.56 210.878282,192.6675 C202.103282,196.977188 190.613282,200.222812 190.450157,200.263125 C187.387344,201.057187 183.008282,202.100625 178.074219,202.879687 L177.342969,202.992188 L177.224844,203.010938 C176.106094,203.177813 174.984219,203.325625 173.859219,203.454375 L173.756094,203.464688 C171.681944,203.705214 169.599048,203.863151 167.512344,203.938125 L167.480469,203.938125 C166.725469,203.965625 165.970469,203.978458 165.215469,203.978458 L164.346407,203.978458 C163.195067,203.962485 162.044507,203.910584 160.896407,203.822813 C160.870157,203.824063 160.842657,203.821875 160.813907,203.81625 C159.696805,203.727488 158.583495,203.596143 157.476407,203.4225 L156.632657,203.280938 C156.503907,203.257813 156.376094,203.23375 156.249219,203.20875 L156.219219,203.202188 C155.815168,203.125388 155.412597,203.040998 155.011719,202.949062 C154.780157,202.895625 154.546719,202.843125 154.317969,202.782188 L154.180157,202.745625 C154.066407,202.716875 153.953907,202.6875 153.842657,202.6575 L153.779844,202.640625 L153.419844,202.5375 L153.029844,202.423125 L152.982969,202.409063 L152.643594,202.305937 L152.262032,202.183125 C152.157657,202.146875 152.052969,202.111875 151.947969,202.078125 L151.718282,201.9975 C151.497032,201.92 151.277344,201.839063 151.059219,201.754687 L150.852032,201.675 L150.680469,201.605625 C150.350469,201.473125 150.022344,201.334063 149.696094,201.188437 L149.480469,201.085312 L149.443907,201.068437 C149.367032,201.032187 149.290469,200.997187 149.214219,200.963437 C149.064224,200.891268 148.915149,200.8172 148.767032,200.74125 L148.722969,200.71875 L148.507344,200.60625 C148.126352,200.407643 147.75267,200.195317 147.387032,199.969687 L147.186407,199.847812 C147.083282,199.784062 146.988594,199.720312 146.889219,199.656562 L146.628594,199.483125 C146.533673,199.420152 146.439908,199.355453 146.347344,199.289062 L146.179532,199.17 C146.002829,199.043573 145.82873,198.913546 145.657344,198.78 C145.566719,198.70875 145.476719,198.639062 145.387344,198.570937 C145.188594,198.411562 144.993282,198.2475 144.801407,198.07875 L144.792969,198.07125 C144.605469,197.90875 144.422657,197.741875 144.244532,197.570625 L144.235157,197.558437 C144.141407,197.470937 144.049532,197.38125 143.959532,197.289375 C143.869532,197.1975 143.780157,197.105937 143.691407,197.014687 C143.602657,196.921562 143.515157,196.826562 143.428907,196.729687 C143.345157,196.639062 143.262657,196.547187 143.181407,196.454062 L143.153282,196.422187 C142.732716,195.933289 142.339011,195.421911 141.973907,194.890312 L141.829532,194.676562 C141.733907,194.535312 141.639532,194.39375 141.546407,194.251875 L141.271719,193.828125 C141.042888,193.474288 140.820353,193.11642 140.604219,192.754687 C140.527969,192.627187 140.452969,192.500312 140.379219,192.374062 C140.339219,192.305312 140.300157,192.235937 140.262032,192.165937 C140.224532,192.092812 140.177657,192.019687 140.137344,191.946562 L140.071719,191.83125 L140.031407,191.755312 C139.951754,191.615908 139.874864,191.474943 139.800782,191.3325 C139.767657,191.27 139.733282,191.2075 139.697657,191.145 L139.591719,190.945312 L139.488594,190.746562 L139.287969,190.341562 L139.192344,190.142812 C139.124219,189.999062 139.057969,189.857187 138.993594,189.717187 C138.966719,189.659687 138.941407,189.6025 138.917657,189.545625 C138.827529,189.350872 138.742191,189.153938 138.661719,188.955 C138.607344,188.82375 138.557657,188.6925 138.503282,188.562187 C138.353282,188.177812 138.213282,187.789375 138.083282,187.396875 C138.043907,187.28125 138.007032,187.165 137.972657,187.048125 C137.888907,186.78375 137.812969,186.516875 137.744844,186.2475 C137.66212,185.933996 137.589581,185.617893 137.527344,185.299687 C137.487344,185.112187 137.452969,184.923125 137.424219,184.7325 C137.392344,184.545 137.365157,184.357812 137.342657,184.170937 C137.294958,183.79952 137.261184,183.426446 137.241407,183.0525 C137.241407,182.990625 137.235782,182.927812 137.234844,182.865937 C137.228594,182.742812 137.225157,182.619375 137.224532,182.495625 C137.158907,177.5175 139.679844,172.72875 145.066719,167.345625 C154.662032,157.75875 160.251407,143.724375 160.251407,143.724375 C160.251407,143.724375 160.401407,143.135625 160.715469,142.29 C160.819844,142.00875 160.929532,141.729687 161.044532,141.452812 C161.175782,141.140312 161.317344,140.8325 161.469219,140.529375 L161.513282,140.440312 C161.707657,140.053437 161.919532,139.676562 162.148907,139.309687 C162.201407,139.225312 162.252032,139.14 162.312969,139.056562 C162.482969,138.802187 162.663282,138.555625 162.853907,138.316875 C163.000782,138.13375 163.156407,137.957812 163.320782,137.789062 C163.877657,137.21625 164.513282,136.7475 165.232344,136.497187 L165.323282,136.468125 C165.383282,136.44875 165.443907,136.43 165.505157,136.411875 C165.577657,136.393125 165.649532,136.375937 165.720782,136.360312 L165.754532,136.354687 C165.906234,136.32461 166.059652,136.303945 166.213907,136.292812 L166.227969,136.292812 C166.308594,136.292812 166.389219,136.284375 166.471719,136.284375 C166.677969,136.28625 166.883282,136.302812 167.087657,136.334062 C167.952032,136.47 168.775157,136.985625 169.484844,137.779687 L169.579532,137.892187 C169.810782,138.162812 170.020157,138.450312 170.207657,138.754687 C170.346407,138.979687 170.478282,139.215937 170.603282,139.463437 C170.652969,139.568437 170.700782,139.664062 170.748594,139.767187 C170.772344,139.819062 170.795469,139.87125 170.817969,139.92375 C170.864219,140.0275 170.908282,140.13375 170.950157,140.2425 C171.193907,140.866875 171.382344,141.511875 171.515469,142.169062 C171.656719,142.879687 171.738594,143.5975 171.761094,144.3225 C171.770469,144.640625 171.770469,144.9625 171.761094,145.288125 C171.756094,145.411875 171.749219,145.53625 171.740469,145.66125 C171.644571,147.047061 171.342498,148.410817 170.844219,149.7075 C170.794532,149.835937 170.739219,149.96625 170.688594,150.096562 C170.438766,150.695656 170.147757,151.276733 169.817657,151.835625 C169.630157,152.154375 169.427657,152.47125 169.210157,152.78625 L169.077969,152.974687 C168.563188,153.692286 167.989651,154.365855 167.363282,154.988437 C166.744532,155.607187 166.084532,156.17875 165.383282,156.703125 C164.681061,157.221378 164.022597,157.796436 163.414532,158.4225 C161.662344,160.261875 161.254532,161.882812 161.648282,163.111875 C161.695157,163.25125 161.750157,163.386875 161.813282,163.51875 C161.958594,163.804687 162.147032,164.06625 162.373907,164.295 L162.434844,164.356875 C162.499219,164.419375 162.566094,164.47875 162.635469,164.535 L162.705782,164.592187 C162.875312,164.7225 163.054941,164.839118 163.242969,164.940937 C163.296407,164.969063 163.346094,164.999063 163.407969,165.027188 C163.666094,165.154688 163.934219,165.257813 164.212344,165.336563 L164.289219,165.355313 L164.392344,165.383438 L164.484219,165.405938 L164.580782,165.426563 L164.677344,165.44625 L164.769219,165.46125 C164.838594,165.47375 164.907657,165.484688 164.976407,165.494063 L165.044844,165.503437 L165.164844,165.516562 L165.239844,165.523125 L165.361719,165.5325 L165.433907,165.5325 L165.561407,165.538125 L165.966407,165.538125 L166.081719,165.5325 L166.214844,165.524063 L166.376094,165.509063 L166.527969,165.490313 C166.561719,165.490313 166.596407,165.480938 166.631094,165.475313 C167.276073,165.381533 167.901082,165.181644 168.480782,164.88375 C168.970671,164.63568 169.424781,164.322533 169.830782,163.952813 L169.995782,163.79625 C170.022657,163.77125 170.048282,163.745625 170.072657,163.719375 C170.234063,163.55902 170.385591,163.38902 170.526407,163.210313 C170.77549,162.896073 170.997236,162.561102 171.189219,162.209063 C173.468966,158.06338 175.859195,153.97942 178.357344,149.961562 L178.699532,149.412187 L179.046407,148.862812 C179.220157,148.584687 179.393594,148.309687 179.566719,148.037812 L179.742969,147.765 L180.093594,147.218437 C180.564219,146.490312 181.037032,145.769687 181.512032,145.056562 L181.867344,144.525 C182.56185,143.494211 183.271616,142.473786 183.996407,141.464062 L184.347969,140.98125 C185.113516,139.923239 185.911393,138.889001 186.740469,137.88 L187.070469,137.48625 C187.123907,137.420625 187.173594,137.355 187.233594,137.29125 L187.557032,136.917188 C187.610469,136.85625 187.661094,136.795312 187.717344,136.73625 L188.029532,136.382812 L188.187032,136.212187 C188.338907,136.048438 188.492657,135.885937 188.648282,135.724687 C188.753282,135.621562 188.849844,135.516562 188.951094,135.42 C189.541726,134.815244 190.193672,134.273579 190.896407,133.80375 L191.058594,133.700625 L191.222657,133.595625 C191.327657,133.53 191.433907,133.4675 191.541407,133.408125 C194.297657,131.845313 196.578594,131.73 197.891094,133.0425 C198.687032,133.8375 199.125782,135.155625 199.103282,136.989375 C199.104532,137.069375 199.102032,137.15125 199.095782,137.235 L199.095782,137.325938 C199.094532,137.409063 199.090157,137.493438 199.082657,137.579063 C199.082657,137.682188 199.070469,137.787188 199.060157,137.890313 C199.048907,137.995313 199.044219,138.075 199.033907,138.166875 C199.032657,138.19375 199.029532,138.220625 199.024532,138.2475 L198.996407,138.493125 C198.996407,138.518438 198.996407,138.542813 198.985157,138.568125 C198.973282,138.68 198.957344,138.790625 198.937344,138.9 C198.924422,139.001756 198.908163,139.103061 198.888594,139.20375 L198.859532,139.378125 C198.828984,139.543564 198.789552,139.707238 198.741407,139.868438 C198.652032,140.169063 198.542657,140.462813 198.413282,140.749688 C198.357032,140.875938 198.298282,141 198.237032,141.121875 C198.110782,141.374375 197.969219,141.634375 197.812344,141.901875 C197.734844,142.034375 197.653594,142.169063 197.568594,142.305938 L197.437344,142.514063 C197.304844,142.722188 197.166094,142.932813 197.021094,143.145938 C196.877344,143.359688 196.722032,143.576875 196.555157,143.7975 C196.339532,144.091875 196.112032,144.390625 195.872657,144.69375 L195.690782,144.923438 C195.176914,145.563063 194.650563,146.192559 194.112032,146.811563 L193.683594,147.295313 L193.466094,147.539063 C193.169219,147.871563 192.870469,148.201563 192.569844,148.529063 L192.339219,148.778438 C192.186407,148.944375 192.027032,149.112188 191.874219,149.278125 C191.717344,149.446875 191.559532,149.615313 191.400782,149.783438 L190.920782,150.28875 L190.435157,150.795 C190.272657,150.965625 190.109532,151.135625 189.945782,151.305 L188.955782,152.325 C184.230782,157.171875 179.250782,162.001875 177.566094,165.015 C177.453594,165.211875 177.351719,165.413438 177.260469,165.619688 C177.021407,166.168125 176.922032,166.635938 176.988594,167.014688 C177.011719,167.140313 177.055469,167.258125 177.119844,167.368125 C177.215469,167.533125 177.330157,167.683438 177.463907,167.819063 C177.524532,167.880313 177.589532,167.936563 177.658907,167.987813 C178.005782,168.235313 178.424844,168.362813 178.849532,168.349688 L178.983594,168.349688 L179.119532,168.340313 L179.257344,168.323438 L179.369844,168.3075 C179.384844,168.30625 179.400157,168.303438 179.415782,168.299063 L179.518907,168.279375 L179.547032,168.272813 L179.661407,168.2475 L179.824532,168.20625 L179.969844,168.163125 C180.064844,168.13375 180.161407,168.100938 180.259532,168.064688 C180.470157,167.989688 180.676407,167.904063 180.878282,167.807813 C180.929532,167.784063 180.980782,167.759063 181.032032,167.732813 L181.186719,167.655938 C181.388594,167.553438 181.591094,167.442188 181.794219,167.322188 C181.955469,167.227813 182.116719,167.129063 182.277969,167.025938 L182.433594,166.921875 C182.485469,166.889375 182.537032,166.854375 182.588282,166.816875 L182.743907,166.71375 L182.825469,166.655625 L183.048594,166.5 C183.257657,166.355625 183.451719,166.2075 183.650469,166.0575 L183.668282,166.044375 L183.980469,165.801563 C184.407969,165.464063 184.814844,165.12375 185.181407,164.803125 L185.426094,164.5875 L185.449532,164.566875 L185.577032,164.454375 C185.877032,164.184375 186.145157,163.933125 186.369219,163.724063 L186.460157,163.635938 L186.680469,163.426875 L186.811719,163.298438 L186.857657,163.251563 L186.869844,163.239375 L187.093907,163.014375 L187.103282,163.005 L187.145469,162.9675 C187.157969,162.95375 187.174532,162.93875 187.195157,162.9225 L187.212032,162.9075 L187.256094,162.867188 L187.492344,162.659063 L187.625469,162.539063 C187.691719,162.482813 187.761094,162.419688 187.833594,162.349688 L187.992969,162.21 C188.021094,162.18625 188.049532,162.16125 188.078282,162.135 L188.245157,161.98875 L188.490782,161.774063 L188.620157,161.661563 C189.127344,161.22 189.745157,160.686563 190.452032,160.086563 L190.742657,159.842813 L191.222657,159.439688 L191.712032,159.03 C192.353282,158.498438 193.043282,157.933125 193.772657,157.34625 L194.250782,156.961875 C194.660157,156.636875 195.077657,156.306875 195.503282,155.971875 C195.673282,155.8375 195.846719,155.704063 196.023594,155.571563 C197.462957,154.458798 198.924822,153.375448 200.408282,152.322188 L200.856407,152.010938 C201.168907,151.794063 201.481407,151.579688 201.793907,151.367813 L202.077969,151.175625 C202.637969,150.7975 203.203282,150.428125 203.773907,150.0675 L204.057032,149.889375 L204.338282,149.714063 C204.619532,149.539688 204.898907,149.36875 205.176407,149.20125 L205.454844,149.03625 L206.013594,148.710938 C206.196094,148.604688 206.378282,148.500625 206.560157,148.39875 L206.669844,148.336875 L207.102969,148.100625 C207.282969,148.0025 207.462344,147.9075 207.641094,147.815625 L207.909219,147.67875 L208.167969,147.5475 C208.760469,147.249375 209.362969,146.974375 209.975469,146.7225 C210.059844,146.688125 210.142969,146.653125 210.224844,146.6175 C210.389219,146.54875 210.552344,146.48625 210.714219,146.43 C210.876719,146.375 211.036407,146.319063 211.193282,146.262188 C211.335782,146.215313 211.474844,146.170625 211.610469,146.128125 L211.655469,146.114063 C211.728594,146.092188 211.801094,146.071875 211.872969,146.053125 L211.893594,146.046563 C212.040469,146.005313 212.187657,145.966875 212.335157,145.93125 L212.347344,145.93125 C212.564844,145.87875 212.777344,145.835 212.984844,145.8 C213.055469,145.7875 213.124844,145.776563 213.192969,145.767188 C213.394844,145.737188 213.597344,145.715313 213.800469,145.701563 C213.928594,145.692813 214.057032,145.68875 214.185782,145.689375 L214.284219,145.689375 C214.413594,145.689375 214.540469,145.69625 214.664844,145.71 C214.721094,145.71 214.779219,145.720313 214.834532,145.72875 L214.857969,145.72875 C214.914219,145.735 214.970469,145.744063 215.026719,145.755938 C215.081094,145.767188 215.136407,145.774688 215.190782,145.787813 L215.209532,145.787813 C215.262969,145.8 215.312657,145.815 215.368907,145.83 C215.814219,145.95 216.222032,146.176875 216.562344,146.489063 L216.592344,146.519063 L216.651407,146.577188 L216.710469,146.639063 C217.177132,147.131532 217.563417,147.694349 217.855157,148.306875 L217.901094,148.41 C218.001094,148.64375 218.078282,148.884375 218.132657,149.131875 C218.284532,149.82 218.243282,150.538125 218.013594,151.204688 C217.915469,151.495313 217.794532,151.77625 217.650782,152.0475 L217.555157,152.22 C217.191748,152.829399 216.76228,153.396887 216.274532,153.912188 L216.169532,154.022813 C215.939532,154.266563 215.701407,154.502188 215.455157,154.729688 C215.376407,154.803438 215.296407,154.876875 215.215157,154.95 L215.091407,155.0625 C214.834532,155.289375 214.572969,155.51125 214.306719,155.728125 C214.259844,155.765 214.213282,155.802813 214.167032,155.841563 C213.982657,155.991563 213.791094,156.142188 213.592344,156.293438 C212.909911,156.815458 212.214052,157.31969 211.505469,157.805625 C211.088594,158.09 210.657344,158.378438 210.211719,158.670938 C209.382344,159.214688 208.546094,159.747813 207.702969,160.270313 C207.460469,160.420938 207.214532,160.572188 206.965157,160.724063 C204.672969,162.135 202.131407,163.6425 199.421094,165.282188 L198.719844,165.70875 C197.951094,166.1775 197.226094,166.624375 196.544844,167.049375 L196.200782,167.266875 L195.551094,167.684063 C195.293594,167.846563 195.042969,168.007188 194.799219,168.165938 C194.615469,168.284063 194.435469,168.400625 194.259219,168.515625 L193.912344,168.744375 C193.743594,168.854375 193.575469,168.965938 193.407969,169.079063 L193.244844,169.182188 C193.072344,169.297188 192.904532,169.410625 192.741407,169.5225 L192.474219,169.704375 L192.161094,169.922813 L191.871407,170.124375 C191.415157,170.444375 190.963594,170.77125 190.516719,171.105 L190.360157,171.224063 C190.184532,171.357813 190.014532,171.489688 189.850157,171.619688 L189.635469,171.790313 C189.274219,172.080938 188.946094,172.359063 188.651094,172.624688 L188.506719,172.757813 C188.422969,172.833438 188.342344,172.90875 188.264844,172.98375 L188.105469,173.138438 L188.030469,173.213438 C187.862969,173.380313 187.700469,173.551563 187.542969,173.727188 L187.467032,173.81625 C187.307203,173.999744 187.1564,174.190907 187.015157,174.389063 L186.956094,174.473438 C186.804264,174.695372 186.670701,174.929265 186.556719,175.172813 L186.517344,175.257188 L186.492969,175.317188 L186.472344,175.367813 L186.446094,175.439063 C186.437657,175.463438 186.421719,175.506563 186.412344,175.544063 C186.365911,175.683574 186.33049,175.826512 186.306407,175.971563 L186.294219,176.050313 L186.284844,176.120625 L186.279219,176.19 L186.279219,176.555625 C186.277969,176.58625 186.280469,176.6175 186.286719,176.649375 C186.286719,176.668125 186.288594,176.686875 186.292344,176.705625 C186.292344,176.734688 186.300782,176.765625 186.303594,176.796563 L186.326094,176.925 L186.326094,176.930625 C186.333594,176.971875 186.342344,177.0125 186.352344,177.0525 C186.362969,177.095 186.374532,177.138438 186.387032,177.182813 C186.424532,177.314688 186.469532,177.444375 186.522032,177.571875 C186.522032,177.58125 186.529532,177.591563 186.533282,177.600938 L186.575469,177.696563 C186.632344,177.829688 186.696094,177.959375 186.766719,178.085625 L186.839844,178.216875 L186.916719,178.35 L186.997344,178.483125 L187.044219,178.545 L187.070469,178.573125 L187.098594,178.598438 L187.130469,178.622813 C187.151719,178.637813 187.173594,178.651563 187.196094,178.664063 C187.219844,178.674688 187.244844,178.685 187.271094,178.695 C187.299219,178.704375 187.327344,178.7125 187.355469,178.719375 C188.027657,178.87125 189.408594,178.314375 191.245157,177.345 L191.575157,177.169688 L192.132969,176.865938 L192.406719,176.714063 C192.599844,176.609063 192.799532,176.492813 193.001094,176.376563 L193.370469,176.168438 C195.798594,174.771563 198.698282,172.975313 201.695469,171.223125 C201.976719,171.05875 202.257969,170.895313 202.539219,170.732813 L203.105469,170.370938 C203.388594,170.208438 203.671407,170.047813 203.953907,169.889063 C205.159317,169.203672 206.379936,168.545382 207.614844,167.914688 L208.167969,167.633438 C208.536719,167.452188 208.901094,167.275313 209.261094,167.102813 C209.958536,166.77205 210.663735,166.457899 211.376094,166.160625 L211.767032,166.002188 L211.813907,165.983438 C213.882032,165.164063 215.757032,164.657813 217.273907,164.657813 C217.602657,164.655313 217.929532,164.681875 218.254532,164.7375 L218.263907,164.7375 C218.367969,164.75625 218.462657,164.777813 218.558282,164.802188 L218.576094,164.802188 C218.716094,164.835938 218.852657,164.879375 218.985782,164.9325 C219.092032,164.97125 219.194532,165.017188 219.293282,165.070313 C219.765108,165.309138 220.162828,165.672175 220.443594,166.120313 C220.546719,166.276563 220.634532,166.44125 220.707032,166.614375 C220.750157,166.7125 220.790157,166.816563 220.827032,166.926563 C220.864532,167.039063 220.897344,167.145938 220.930157,167.26125 C221.177736,168.143475 221.153559,169.079852 220.860782,169.948125 L220.860782,169.945312 Z" id="Shape" fill="#FF9D00"></path>
                <path d="M207.027969,106.62 L207.027969,106.048125 C207.027969,57.279375 167.500157,17.7384375 118.718282,17.7384375 C69.9495318,17.7384375 30.3964068,57.279375 30.3964068,106.049062 L30.3945318,106.240312 L30.3945318,106.62 C30.4007818,106.809375 30.4032818,106.999375 30.4020318,107.19 L30.4085943,107.609062 L30.4104693,107.760937 L30.4170318,107.968125 C30.4201568,108.08 30.4220318,108.191562 30.4226568,108.302812 L30.4339068,108.755625 L30.4526568,109.288125 L30.4582818,109.463437 L30.4817193,110.014687 L30.4817193,110.04 L30.5145318,110.684062 L30.5145318,110.700937 C30.5264068,110.921562 30.5389068,111.14125 30.5520318,111.36 C30.5639068,111.56375 30.5764068,111.766875 30.5895318,111.969375 L30.5942193,112.006875 C30.6042193,112.179375 30.6157818,112.353125 30.6289068,112.528125 L30.6326568,112.573125 C30.6445318,112.741875 30.6570318,112.909687 30.6701568,113.076562 L30.6729693,113.109375 L30.6964068,113.400937 C30.7657818,114.240937 30.8473443,115.080312 30.9410943,115.919062 L30.9467193,115.971562 L31.0170318,116.586562 L31.0976568,117.235312 C31.1836221,117.925902 31.2786303,118.615337 31.3826568,119.303437 L31.3882818,119.335312 C31.4757818,119.920937 31.5698443,120.505312 31.6704693,121.088437 C31.9604693,122.779687 32.3010943,124.460937 32.6923443,126.132187 L32.6970318,126.159375 L32.7345318,126.316875 L32.8414068,126.765 L32.9060943,126.687187 C35.4692193,123.621562 39.1470318,121.932187 43.2626568,121.932187 C46.5598443,121.932187 49.9442193,123.0225 53.3342193,125.172187 C55.5842193,126.600937 58.0704693,129.132187 60.6298443,132.314062 C62.9970318,129.024375 66.3167193,126.839062 70.1126568,126.242812 C70.8367081,126.128029 71.5686265,126.07004 72.3017193,126.069375 C80.9679693,126.069375 86.1926568,133.590937 88.1623443,140.356875 C89.1345318,142.6425 93.8314068,153.046875 100.910469,160.097812 C111.672969,170.850937 114.370157,181.948125 109.040469,193.8225 L109.057344,193.8225 C109.421094,193.8625 109.786094,193.899375 110.152344,193.933125 C110.370469,193.955 110.588282,193.975312 110.805782,193.994062 L110.882657,194.000625 C111.042657,194.015625 111.202969,194.029375 111.363594,194.041875 L111.807032,194.0775 C112.228282,194.11 112.651719,194.14 113.077344,194.1675 L113.412969,194.187187 L113.679219,194.202187 L113.846094,194.211562 L114.365469,194.239687 L114.507969,194.245312 L115.055469,194.26875 L115.662969,194.292187 L116.152344,194.30625 L116.233907,194.31 C116.337032,194.31375 116.440782,194.31625 116.545157,194.3175 L116.655782,194.320312 C117.343282,194.336562 118.030469,194.344687 118.717344,194.344687 L119.446719,194.344687 L119.968907,194.339062 C120.096407,194.332812 120.224219,194.330312 120.352344,194.331562 L120.554844,194.331562 L120.731094,194.32875 C120.799844,194.325625 120.868907,194.324062 120.938282,194.324062 L121.147344,194.324062 L121.556094,194.311875 L122.171094,194.29125 L122.849844,194.262187 L123.432032,194.234062 L123.641094,194.221875 L123.950469,194.205 L124.132344,194.194687 L124.269219,194.185312 L124.894532,194.144062 C125.103282,194.131562 125.312032,194.116562 125.520782,194.099062 L126.087032,194.054062 L126.486407,194.020312 L126.923282,193.980937 C127.372657,193.939062 127.819844,193.894687 128.264844,193.847812 C128.548594,193.816562 128.831719,193.784375 129.114219,193.75125 L129.612032,193.692187 C124.369532,181.86375 127.083594,170.817187 137.802032,160.107187 C144.866094,153.047812 149.560157,142.63875 150.539844,140.354062 C152.512344,133.589062 157.727657,126.066562 166.399532,126.066562 C167.133907,126.067812 167.863594,126.125937 168.588594,126.240937 C172.381719,126.837187 175.701407,129.023437 178.073282,132.312187 C180.632657,129.129375 183.118907,126.598125 185.367969,125.169375 C188.757969,123.019687 192.144219,121.930312 195.438594,121.930312 C199.070469,121.930312 202.362032,123.246562 204.848282,125.661562 C204.984532,125.053437 205.115782,124.444062 205.242032,123.833437 C205.318907,123.452812 205.394532,123.070937 205.468907,122.687812 C205.560782,122.216562 205.646407,121.744062 205.725782,121.270312 C205.746407,121.142187 205.768907,121.01375 205.793282,120.885 C205.830782,120.684375 205.865157,120.483125 205.896407,120.28125 L205.909532,120.204375 L205.992032,119.676562 L206.073594,119.142187 L206.075469,119.135625 L206.172032,118.4625 C206.195782,118.2925 206.218907,118.121875 206.241407,117.950625 L206.255469,117.852187 L206.327657,117.295312 L206.387657,116.820937 C206.423907,116.508437 206.458907,116.195937 206.492657,115.883437 C206.507657,115.758437 206.521094,115.632812 206.532969,115.506562 L206.545157,115.405312 C206.566407,115.197187 206.586407,114.989062 206.605157,114.780937 L206.652032,114.29625 C206.748282,113.2225 206.826719,112.147187 206.887344,111.070312 L206.887344,111.062812 L206.919219,110.491875 L206.924844,110.364375 L206.948282,109.8225 C206.957032,109.618125 206.965157,109.411875 206.972657,109.20375 L206.972657,109.187812 L206.978282,109.037812 C206.984624,108.910095 206.988063,108.782249 206.988594,108.654375 L206.991407,108.601875 C206.997032,108.4825 207.000157,108.360937 207.000782,108.237187 L207.003594,108.132187 C207.007969,108.010312 207.010469,107.888437 207.011094,107.766562 L207.012969,107.663437 C207.017344,107.507187 207.019844,107.350937 207.020469,107.194687 L207.027969,106.62 Z M96.8220318,194.848125 C103.814844,184.590937 103.318907,176.890312 93.7226568,167.299687 C84.1264068,157.709062 78.5389068,143.6775 78.5389068,143.6775 C78.5389068,143.6775 76.4539068,135.529687 71.6989068,136.27875 C66.9448443,137.026875 63.4564068,149.203125 73.4107818,156.649687 C83.3651568,164.101875 71.4307818,169.153125 67.5992193,162.162187 C63.7667193,155.166562 53.3117193,137.187187 47.8817193,133.750312 C42.4582818,130.311562 38.6435943,132.239062 39.9223443,139.326562 C40.5579693,142.845 46.4632818,148.84875 51.9842193,154.452187 C57.5820318,160.145625 62.7804693,165.430312 61.6704693,167.295 C59.4645318,171.009375 51.6954693,162.93 51.6954693,162.93 C51.6954693,162.93 27.3626568,140.789062 22.0714068,146.5575 C17.1898443,151.875 24.7179693,156.395625 36.3242193,163.36125 C37.3117193,163.954375 38.3260943,164.565625 39.3673443,165.195 C52.6414068,173.23125 53.6782818,175.350937 51.7901568,178.385625 C51.0945318,179.510625 46.6507818,176.8425 41.1860943,173.560312 C31.8682818,167.967187 19.5804693,160.59 17.8442193,167.19375 C16.3414068,172.906875 25.3798443,176.4075 33.5754693,179.580937 C40.4051568,182.226562 46.6507818,184.645312 45.7301568,187.929375 C44.7785943,191.333437 39.6176568,188.494687 33.9720318,185.390625 C27.6382818,181.905 20.6989068,178.085625 18.4264068,182.395312 C14.1326568,190.54125 48.0382818,200.131875 48.3176568,200.20125 C59.2714068,203.042812 87.0889068,209.063437 96.8192193,194.814375 L96.8220318,194.848125 Z M141.873594,194.848125 C134.879844,184.590937 135.376719,176.890312 144.972969,167.299687 C154.569219,157.709062 160.156719,143.6775 160.156719,143.6775 C160.156719,143.6775 162.240782,135.529687 166.994844,136.27875 C171.749844,137.026875 175.239219,149.203125 165.282969,156.649687 C155.327657,164.09625 167.262969,169.153125 171.095469,162.162187 C174.927969,155.166562 185.382969,137.187187 190.801719,133.750312 C196.220469,130.313437 200.040782,132.239062 198.762969,139.326562 C198.127344,142.845 192.221094,148.849687 186.701094,154.464375 C181.104219,160.155 175.905782,165.440625 177.016719,167.30625 C179.220782,171.021562 186.997344,162.9375 186.997344,162.9375 C186.997344,162.9375 211.329219,140.795625 216.620469,146.564062 C221.502032,151.881562 213.972969,156.403125 202.367657,163.36875 C201.35223,163.977107 200.338165,164.587733 199.325469,165.200625 C186.052344,173.235 185.014532,175.356562 186.903594,178.392187 C187.598282,179.515312 192.042032,176.848125 197.506719,173.567812 C206.824532,167.97375 219.111407,160.5975 220.848594,167.199375 C222.350469,172.9125 213.311094,176.415 205.116407,179.586562 C198.286719,182.232187 192.041094,184.65 192.961719,187.935 C193.913282,191.339062 199.072344,188.499375 204.708594,185.394375 C211.041407,181.909687 217.981719,178.089375 220.254219,182.4 C224.547032,190.551562 190.642344,200.136562 190.362969,200.205937 C179.408282,203.055937 151.591719,209.075625 141.872657,194.8275 L141.873594,194.848125 Z" id="Shape" fill="#FFD21E"></path>
                <path d="M147.478907,82.0078125 C148.855157,82.4953125 149.878907,83.9784375 150.853907,85.3884375 C152.171094,87.29625 153.396407,89.07 155.277969,88.0696875 C159.817188,85.6585246 162.455245,80.748808 161.960469,75.6328125 C161.597226,71.8452826 159.555345,68.4200144 156.396407,66.2990625 C150.9689,62.6585745 143.665371,63.7264344 139.507344,68.7684375 C137.90952,70.7076734 136.921743,73.0766438 136.668594,75.5765625 C136.416794,78.0769077 136.911697,80.5957912 138.090782,82.815 C138.962657,84.455625 140.897657,83.6821875 142.938594,82.865625 C144.539844,82.2253125 146.206719,81.55875 147.478907,82.0078125 M87.6035943,82.00875 C86.2273443,82.49625 85.2017193,83.979375 84.2285943,85.389375 C82.9104693,87.29625 81.6851568,89.0709375 79.8035943,88.070625 C76.445464,86.2837812 74.0648159,83.0860753 73.3160943,79.3565625 C72.5661296,75.6274019 73.5254791,71.7583581 75.9307818,68.8115625 C79.1830253,64.8317679 84.5120938,63.2024476 89.4338295,64.6831132 C94.3555652,66.1637788 97.901093,70.4629518 98.4176568,75.5765625 C98.6691651,78.0772152 98.173248,80.5962786 96.9926568,82.815 C96.1189068,84.455625 94.1848443,83.68125 92.1429693,82.8646875 C90.5426568,82.224375 88.8767193,81.5578125 87.6035943,82.0078125 L87.6035943,82.00875 Z M138.214532,136.48875 C147.703907,129.012187 151.184844,116.805937 151.184844,109.29 C151.184844,103.34625 147.185469,105.216562 140.784219,108.385312 L140.424219,108.564375 C134.547032,111.474375 126.719844,115.348125 118.142657,115.348125 C109.555157,115.348125 101.734532,111.473437 95.8610943,108.563437 C89.2526568,105.289687 85.1079693,103.236562 85.1079693,109.290937 C85.1079693,117.045937 88.8157818,129.777187 98.9989068,137.177812 C101.711839,131.665269 106.599128,127.53251 112.485782,125.773125 C113.502032,125.470312 114.548282,127.219687 115.620782,129.009375 C116.654844,130.738125 117.710469,132.504375 118.785782,132.504375 C119.929532,132.504375 121.056407,130.763437 122.155157,129.06375 C123.302657,127.287187 124.422032,125.555625 125.503907,125.901562 C130.952683,127.650245 135.510578,131.444569 138.218282,136.485937 L138.214532,136.48875 Z" id="Shape" fill="#32343D"></path>
                <path d="M138.156407,136.5225 C133.213907,140.416875 126.644844,143.02875 118.089219,143.02875 C110.052032,143.02875 103.767032,140.723438 98.9426568,137.214375 C101.65875,131.704135 106.545297,127.57263 112.430469,125.810625 C114.427344,125.215313 116.540469,132.541875 118.728594,132.541875 C121.072344,132.541875 123.329844,125.262188 125.448594,125.939063 C130.89558,127.690577 135.452233,131.484147 138.162032,136.523438 L138.156407,136.5225 Z" id="Path" fill="#FF323D"></path>
                <path d="M64.8907818,92.589375 C63.0700645,93.8160946 60.8354912,94.2665181 58.6817193,93.8409375 C55.3966883,93.1937683 52.827365,90.6274073 52.1764068,87.343125 C51.7502472,85.189328 52.1981633,82.9544694 53.4214068,81.13125 C55.6156801,77.8668469 59.8072192,76.602185 63.4408172,78.1082157 C67.0744151,79.6142465 69.1423166,83.4732818 68.3839068,87.3328125 C67.9622717,89.4787281 66.705849,91.3694319 64.8907818,92.589375 M183.057032,92.589375 C181.236314,93.8160946 179.001741,94.2665181 176.847969,93.8409375 C173.562938,93.1937683 170.993615,90.6274073 170.342657,87.343125 C169.536275,83.2803421 171.863153,79.248436 175.78435,77.9140155 C179.705546,76.5795949 184.008779,78.3552104 185.847992,82.0665111 C187.687205,85.7778118 186.493785,90.2774094 183.057032,92.589375" id="Shape" fill="#FFAD03"></path>
            </g>
        </g>
    </g>
</svg>