<?xml version="1.0" encoding="UTF-8"?>
<svg width="240px" height="240px" viewBox="0 0 240 240" version="1.1" xmlns="http://www.w3.org/2000/svg" xmlns:xlink="http://www.w3.org/1999/xlink">
    <title>hugo</title>
    <g id="Page-1" stroke="none" stroke-width="1" fill="none" fill-rule="evenodd">
        <g id="hugo">
            <rect id="ViewBox" x="0" y="0" width="240" height="240"></rect>
            <path d="M133.5,15.9375 L202.3125,55.875 C210.375,60.5625 215.4375,69.375 215.4375,78.75 L215.4375,160.6875 C215.4375,171.1875 209.8125,180.75 200.8125,185.8125 L132.5625,224.25 C123.5625,229.3125 112.5,229.3125 103.5,224.0625 L40.6875,187.875 C30.75,182.25 24.75,171.75 24.75,160.3125 L24.75,82.6875 C24.75,71.25 30.75,60.5625 40.5,54.5625 L102,16.5 C111.5625,10.5 123.75,10.3125 133.5,15.9375" id="Path" fill="#FF4088" fill-rule="nonzero"></path>
            <path d="M118.125,236.25 C111.5625,236.25 105.1875,234.5625 99.375,231.1875 L36.5625,195 C24.1875,187.875 16.5,174.5625 16.5,160.3125 L16.5,82.6875 C16.5,68.25 23.8125,55.3125 36,47.625 L97.6875,9.5625 C109.875,2.0625 125.0625,1.875 137.4375,9 L206.25,48.9375 C216.9375,55.125 223.5,66.5625 223.5,78.75 L223.5,160.6875 C223.5,174 216.375,186.375 204.75,192.9375 L136.5,231.375 C130.875,234.5625 124.5,236.25 118.125,236.25 M118.125,20.0625 C114,20.0625 109.875,21.1875 106.3125,23.4375 L44.4375,61.5 C36.9375,66 32.625,74.0625 32.625,82.6875 L32.625,160.5 C32.625,168.9375 37.125,176.8125 44.4375,181.125 L107.25,217.3125 C113.8125,221.0625 121.875,221.0625 128.4375,217.5 L196.6875,179.0625 C203.25,175.3125 207.1875,168.5625 207.1875,161.0625 L207.1875,78.9375 C207.1875,72.375 203.625,66.375 198,63 L129.375,23.0625 C126,21 122.0625,20.0625 118.125,20.0625" id="Shape" fill="#C9177E" fill-rule="nonzero"></path>
            <polygon id="Path" fill="#FFFFFF" fill-rule="nonzero" points="72.375 181.6875 72.375 57.1875 98.4375 57.1875 98.4375 102.5625 141.5625 102.5625 141.5625 57.1875 167.625 57.1875 167.625 181.6875 141.5625 181.6875 141.5625 127.3125 98.4375 127.3125 98.4375 181.6875"></polygon>
        </g>
    </g>
</svg>