<?xml version="1.0" encoding="UTF-8"?>
<svg width="240px" height="240px" viewBox="0 0 240 240" version="1.1" xmlns="http://www.w3.org/2000/svg" xmlns:xlink="http://www.w3.org/1999/xlink">
    <title>hunterio</title>
    <g id="Page-1" stroke="none" stroke-width="1" fill="none" fill-rule="evenodd">
        <g id="hunterio">
            <rect id="box" x="0" y="0" width="240" height="240"></rect>
            <path d="M146.509049,101.702728 C141.615332,103.090175 136.219663,103.11318 131.173546,102.903036 C125.306165,102.658326 119.090926,101.927294 113.672156,99.553734 C109.213382,97.6014146 105.636589,94.0786814 107.508321,88.9905407 C108.828271,85.4018918 111.753615,82.1959829 115.135191,80.3892024 C118.936954,78.3563062 123.114515,78.6865997 126.918455,80.5237753 C131.18927,82.5868282 134.74163,85.9425671 137.961372,89.3283435 C139.649862,91.1038945 141.260942,92.9473875 142.850252,94.8086407 C143.583221,95.6650675 148.556767,100.559633 146.509049,101.702728 L146.509049,101.702728 Z M227.841177,103.559443 C220.296313,101.804266 211.382633,102.432933 203.819583,101.223733 C191.906386,99.3176028 174.161469,85.4262881 164.542162,71.3065434 C157.858114,61.495325 154.668248,51.5023568 149.559128,39.3256016 C145.993414,30.8262801 138.216979,3.94356117 127.342822,16.526483 C122.865371,21.7085969 117.852031,38.7674998 114.190172,38.5270663 C111.477998,39.157674 111.035588,33.8714086 110.177318,31.6120845 C108.619,27.5098 107.792739,22.7636918 105.704838,18.8951722 C104.036069,15.8032423 101.844991,12.0994979 98.489388,10.5967819 C92.5109659,7.52257831 85.3029118,16.7881349 81.7259216,27.775453 C80.1964591,33.6671067 69.9146885,45.0876418 65.4369946,47.8497789 C45.0639239,60.4221643 4.17390517,73.667594 0.00354874038,117.772912 C-0.0134687272,117.955874 0.00354874038,118.512157 0.695949923,118.011163 C5.57252374,114.479711 60.8858283,74.6389069 25.3873861,151.649678 C3.63998152,198.831891 108.640339,228.876997 114.038014,229 C114.765463,229.015219 114.71236,228.684214 114.736972,228.467181 C123.116341,153.162846 205.891602,161.090001 225.1678,143.05445 C244.270623,125.185008 244.66102,107.886157 227.841177,103.559443 L227.841177,103.559443 Z" id="Shape" fill="#FA5320" fill-rule="nonzero"></path>
        </g>
    </g>
</svg>