<?xml version="1.0" encoding="UTF-8"?>
<svg width="240px" height="240px" viewBox="0 0 240 240" version="1.1" xmlns="http://www.w3.org/2000/svg" xmlns:xlink="http://www.w3.org/1999/xlink">
    <title>huntrcom</title>
    <g id="Page-1" stroke="none" stroke-width="1" fill="none" fill-rule="evenodd">
        <g id="huntrcom" transform="translate(-474, 15)">
            <rect id="box" fill="#000000" x="474" y="-15" width="240" height="240" rx="32"></rect>
            <g id="shape" transform="translate(518, -15)" fill-rule="nonzero">
                <path d="M39.4735556,0 C35.5404444,2.18743748 33.448,5.47028571 31.0337778,9.20517996 C30.6002222,9.87579963 29.3033333,12.0244898 29.1877778,12.7336475 C28.7948889,15.1462931 28.8557778,18.2521113 28.7151111,20.7259592 C27.8531111,20.7826419 26.9906667,20.8310427 26.128,20.8711391 C23.9173333,26.1381818 21.7290667,32.2840074 20.7420667,37.9231169 C18.0297778,53.4191466 20.0098444,74.104564 25.9353333,88.6256772 L26.1046667,89.0364378 C22.4702222,98.3877551 22.1625111,104.096772 22.1556,113.91384 L22.1509111,126.775436 L22.1526222,139.354286 C22.1552889,146.375955 21.2083333,150.214397 26.7704444,155.375955 C30.2617778,158.039777 32.1511111,158.60616 35.6786667,160.548423 C32.536,162.935288 31.466,165.171874 30.1008889,168.749165 C28.8291111,172.082449 27.02,175.53551 25.8304444,178.873247 C24.3642222,182.270872 22.9182222,185.67718 21.4927778,189.091948 C20.9324222,190.419295 20.0394222,192.732468 19.4212444,193.904861 L18.6418667,195.837328 C17.0382667,199.755918 15.7048,202.195325 17.0078222,206.543822 C18.7211556,212.261521 22.5426667,213.610464 27.474,215.634657 C27.7135556,215.732171 27.9564444,215.82167 28.2022222,215.902486 C28.8022222,216.089054 29.4084444,216.254917 30.0197778,216.399852 C31.5037778,216.547236 32.1506667,216.532987 33.6057778,216.420779 C34.6273333,219.683711 36.5842222,221.882672 39.6242222,223.398145 C39.6584444,225.71577 39.6446667,229.948052 40.0435556,232.060853 C40.8075556,236.106122 49.3862222,236.878664 52.586,236.829685 C55.9802222,236.778479 61.1306667,236.319852 63.7088889,233.899814 C65.1804444,232.517254 64.8133333,229.099814 64.7928889,227.149536 C69.9188889,227.314286 73.8086667,227.131725 78.884,226.862338 C78.8753333,227.973284 78.802,230.8141 79.112,231.675696 C81.2248889,237.553247 92.0253333,236.83859 96.7422222,235.5718 C99.8515556,234.73692 101.780667,233.430056 103.216444,230.869759 C104.040222,230.342115 106.130889,229.34026 107.111333,228.821521 C109.279333,227.67718 111.404889,226.450464 113.483778,225.150278 C122.109556,219.747161 130.285778,212.596141 136.190444,204.21551 C137.319333,202.613432 138.929778,199.330019 139.964,197.504193 C141.206,194.869981 143.124222,192.196141 144.297111,189.581299 C149.768444,177.382041 151.487556,161.182931 151.044444,148.250983 C150.934222,145.128312 150.742222,142.008757 150.468889,138.895881 C150.289333,136.943599 150.033111,134.998887 149.890444,133.020334 C149.683111,130.1459 150.821111,126.790798 149.992889,123.993173 C149.731333,123.109314 148.995556,122.357254 148.175778,121.961187 C147.236889,121.505009 146.153556,121.449128 145.173111,121.806679 C143.008786,122.603084 142.856362,124.214942 142.793044,125.900831 L142.772601,126.464519 C142.740219,127.279757 142.678966,128.093059 142.374222,128.82167 C141.698444,130.437328 140.819111,132.188126 140.074667,133.787978 L135.634667,143.308942 L123.882889,168.597774 C119.438,166.492542 114.587333,164.637996 110.093556,162.589536 C108.298444,161.771354 106.213111,161.000594 104.490667,160.103822 C108.647556,157.892171 113.853778,155.169128 116.110222,150.806827 C117.746889,147.643191 117.350222,143.464787 117.349556,139.941596 L117.348222,128.330538 L117.349111,114.482004 C117.354667,105.052987 117.211111,99.9105751 114.102667,90.7876809 C114.336,90.1696475 114.654444,89.5273469 114.912667,88.9122078 C120.136222,76.4778479 121.465778,62.6406679 121.454889,49.28282 L118.772889,49.1554731 C119.488889,47.5304638 120.314889,45.897885 121.098,44.3000371 C120.775778,39.6923933 119.622444,34.0434879 118.422,29.6017069 C116.042889,20.7983822 109.408667,4.5126679 101.477333,0 L152,0 L152,240 L0,240 L0,0 L39.4735556,0 Z M116.503333,195.279184 L122.340889,197.825009 C125.300889,199.113173 126.736,199.877254 130.059556,199.940037 C125.282222,206.386197 119.466889,211.99102 112.852,216.524527 C110.083111,218.459889 107.197556,220.222041 104.211778,221.800742 C108.095111,212.99154 112.503111,204.085492 116.503333,195.279184 Z M105.912889,190.703154 C107.836667,191.414026 110.277333,192.61603 112.278889,193.423525 C111.189556,196.189536 109.263556,200.067384 107.976444,202.807347 C107.308667,204.291206 106.619111,205.765492 105.908222,207.229314 L105.912889,190.703154 Z M142.807111,138.716215 C143.012889,139.042375 143.035333,139.72987 143.067556,140.13462 C144.072222,152.720594 143.831333,165.174323 140.543778,177.462635 C138.434,174.73603 136.746889,174.109759 133.756889,172.854768 L128.094,170.384861 L142.807111,138.716215 Z M98.8815556,0 C95.3348889,2.13976475 92.0886667,7.25915399 90.0184444,10.8181002 C84.0353333,21.0913024 80.3066667,32.5231169 79.0802222,44.3525788 C78.5424444,49.793321 78.7633333,54.6162523 79.0042222,60.0618924 C72.7026667,59.0413358 68.422,58.7712801 62.0046667,59.8414842 L62.0064444,59.7820408 C62.0457778,57.6843785 61.2744444,55.5268275 60.7066667,53.4643414 C61.232,53.2969202 61.7595556,53.0713915 62.2717778,52.8630056 C62.2531111,43.9941373 61.2228889,35.5400371 58.6168889,27.032282 C56.0271111,18.5775362 50.2511111,4.2526308 42.3915556,0 L98.8815556,0 Z" id="Combined-Shape"></path>
                <path d="M43.4328552,223.513009 C49.4910047,224.890643 55.6356579,225.856544 61.8243413,226.401811 L61.8310125,230.984279 C61.4798831,231.304762 61.147878,231.489485 60.7440458,231.73875 C56.9123101,233.412386 46.9826199,233.699485 43.6994823,230.868549 C43.5711722,228.449344 43.5162456,225.941116 43.4328552,223.513009 Z M99.8672876,223.136887 L99.9884817,223.237038 C100.22242,224.505618 100.350507,227.988649 100.408547,229.39299 C97.5961765,233.23879 88.5966789,233.145316 84.4496162,231.696464 C82.1515977,230.639314 82.8047118,229.43305 82.7562341,227.24308 C82.746672,226.804641 82.764462,226.350623 82.7677976,225.909958 C88.7109795,225.834289 94.1458131,224.512295 99.8672876,223.136887 Z M28.595359,215.534753 C29.1957702,215.721257 29.8024079,215.887062 30.4141603,216.031948 C32.0557291,219.323579 33.6383687,222.858689 35.2376864,226.199284 L37.3437956,224.056051 C36.793641,226.91592 36.730709,228.714188 36.9135009,231.598539 C34.9485995,229.668961 33.1673794,228.438216 30.7635107,227.158508 L33.8242738,226.907018 C33.1689361,225.524933 28.628048,216.204875 28.595359,215.534753 Z M149.130808,125.838349 C149.49995,127.573856 148.549744,130.648493 148.777678,132.605223 C150.751919,149.551005 150.813516,167.133748 145.321977,183.472837 C144.853212,184.86783 144.188089,186.956314 143.524746,188.214434 C141.508699,192.038424 139.322312,195.797427 137.286696,199.614518 C136.68495,200.733762 135.978689,202.114511 135.245965,203.135162 C127.177994,214.375004 116.085063,222.484792 103.811322,228.596232 C103.658551,227.220824 103.590949,225.26454 103.499109,223.842395 C113.405894,218.877128 122.566391,211.942223 129.594538,203.33947 C132.260364,200.076103 133.784964,196.953615 135.77744,193.262492 C136.904879,190.878897 138.732797,188.400937 139.718584,186.002208 C146.234158,170.145179 146.337784,151.972658 144.675312,135.401885 L149.130808,125.838349 Z M37.4447537,171.389723 C37.7647506,171.702417 39.7823548,174.66355 40.1170285,175.14383 C41.7937325,177.57305 43.5304776,179.960206 45.3252625,182.303296 C53.3236299,192.643114 60.8427801,200.544142 71.2379002,208.431817 L67.6020765,213.463184 C66.5571386,212.427845 65.9863031,211.530491 65.089689,210.397894 C64.717434,209.972141 64.3751996,209.636969 63.779903,209.623392 C63.0373944,209.534369 62.074735,210.253231 62.1752483,211.066903 C62.3827238,212.746325 64.6207011,214.92806 65.7327962,216.047304 C65.0747899,216.944658 64.4305709,217.852249 63.8005838,218.769633 C64.8114985,218.165165 65.8086259,217.537775 66.791299,216.888351 C67.7339446,217.52086 69.9112137,219.061183 71.0486595,218.717331 C71.4780647,218.582907 71.8351982,218.280673 72.0384485,217.878956 C72.832548,216.28188 70.6047999,215.459529 69.5238373,214.897125 C71.1903121,213.560219 72.7836256,212.134291 74.2964396,210.625793 L76.4272324,212.05506 C81.8433866,215.662502 86.9297594,218.106855 92.8573751,220.655366 C85.1398668,222.074173 77.9282605,222.99445 70.0495307,222.99445 C62.0642834,222.99445 54.2773943,222.216164 46.4722704,220.536075 C45.0759807,220.235399 43.3643638,220.153943 42.0539107,219.665206 C41.085692,219.310671 40.2066454,218.748044 39.4788136,218.017387 C37.5352948,216.050184 37.3799747,213.665684 37.4043863,211.166129 L37.4128724,210.564182 C37.4214473,210.060976 37.4320644,209.554135 37.4318559,209.046077 L37.4302993,200.872415 L37.4447537,171.389723 Z M44.0572829,163.863927 C44.5800854,163.863037 47.8160797,164.928199 48.5908326,165.146973 C49.9428698,165.525099 51.3044691,165.868951 52.6738515,166.178307 C58.9714984,167.583315 65.4181362,168.205809 71.8681096,168.031992 C77.7374632,167.862848 83.5719039,167.066313 89.271808,165.655963 C91.3596826,165.153205 93.3503794,164.538278 95.404453,163.936926 C95.8785555,163.79805 97.0002127,164.035742 97.4840997,164.187749 C99.3235819,164.775079 100.848849,166.078823 101.715887,167.804983 C102.86801,170.079079 102.52244,174.707839 102.520438,177.371412 L102.5131,189.822415 L102.517325,204.969706 C102.518437,207.845822 102.827982,213.154941 101.973397,215.721479 C100.328492,215.093198 98.4049527,214.540142 96.6748788,213.89005 C91.336778,211.876569 86.2266111,209.30469 81.4286581,206.216921 C81.0041451,205.946068 79.6007394,205.108137 79.4268425,204.72467 L79.6320942,204.392391 C80.5929746,203.098217 81.4975942,201.762869 82.3428398,200.390132 C83.1075859,200.998383 85.0738215,203.084418 86.1096421,202.937308 C88.2124157,202.638857 88.6140242,200.563282 86.9551101,199.201005 C86.14878,198.538895 85.1216321,197.655786 84.2394723,196.933363 C86.2966591,192.583246 87.1176659,190.057881 87.9355594,185.351226 C85.8154406,188.417629 83.4415924,191.588634 81.2474229,194.623879 C80.2571891,193.848265 78.0587944,191.517638 77.0523272,191.855704 C72.5036561,193.383119 78.0301081,197.001243 78.9734209,197.758162 L75.721638,202.245152 C63.0398405,192.618632 50.4772358,177.831662 42.0774824,164.28968 C42.7995325,164.086262 43.3247812,163.992343 44.0572829,163.863927 Z M146.848801,124.180293 C147.241959,124.332745 147.398733,124.361455 147.638675,124.721999 C147.701162,124.941663 147.703831,125.108804 147.60732,125.319344 C146.198133,128.392424 144.753366,131.48954 143.329724,134.551714 L134.406056,153.696814 L106.650156,213.391075 L106.461137,213.706663 C106.155595,213.226828 106.338609,211.512687 106.376635,210.882848 C106.431562,209.971028 112.213077,198.053719 113.207091,195.914493 L135.071845,148.895572 L142.236086,133.532622 C142.89387,132.116485 146.089169,124.835726 146.848801,124.180293 Z M33.462,170.815 C33.7415505,171.643662 33.5945609,180.58003 33.5943386,182.010409 L33.5814408,212.409595 C32.7455349,212.469463 31.6385545,212.507298 30.8413418,212.321017 C28.9496016,211.878572 25.3598094,210.382538 23.8083023,209.330061 C22.6312739,208.443836 21.7143347,207.257379 21.1533282,205.894657 C19.8122319,202.605251 20.9398042,200.277963 22.2206148,197.281666 C23.0871417,195.254608 23.9486206,193.202847 24.810322,191.172006 L33.462,170.815 Z M126.999205,173.341556 C129.666365,174.490845 132.452273,175.649259 135.0863,176.8553 C137.407,177.917792 138.682318,179.759904 139.465077,182.135932 C137.928246,186.695253 135.115431,191.204277 132.75537,195.478056 C132.206772,195.647646 131.707319,195.73066 131.143154,195.835707 C130.187389,195.962565 129.216279,195.90559 128.281861,195.668121 C127.018551,195.359211 125.414564,194.601401 124.185945,194.066372 C122.300431,193.249584 120.420032,192.421223 118.54497,191.580845 C119.060434,190.179175 120.610162,187.095635 121.281956,185.649899 L126.999205,173.341556 Z M4.58211114,161.431146 C5.29882427,162.672352 5.80937397,164.050208 6.4775205,165.323684 C6.63771912,164.27744 6.62653368,162.283988 7.79738009,162.051638 C8.23992766,162.219224 8.08239754,162.105942 8.38113549,162.507882 C8.59339199,163.33691 7.81072257,166.744272 7.61131932,167.7647 C7.97785927,168.55567 8.59908477,169.989166 9.04385609,170.666855 C9.18255109,169.699841 9.20914708,167.506087 10.3225541,167.346291 C10.679532,167.484054 10.7239402,167.504084 10.9449582,167.813885 C11.1310635,168.619767 10.3548874,172.105024 10.1643124,173.101193 C11.041958,175.24999 12.4699361,178.034412 13.5002863,180.216593 L19.8083625,193.544696 L19.0284506,195.476499 C18.4537903,194.61698 16.2730522,189.78547 15.7651042,188.705174 L8.73875822,173.810708 C7.71848161,173.298602 4.64542117,172.071863 4.54161673,170.974207 C4.73263646,170.558024 4.61624563,170.698903 4.97658133,170.430721 C5.76487682,170.288952 6.84688461,171.028512 7.58350026,171.428671 C7.16018809,170.473897 6.68074859,169.506438 6.22721572,168.56257 C4.94758369,167.787178 3.41818057,167.268841 2.23915077,166.354573 C1.82418877,166.032754 1.99088295,165.40336 2.42062841,165.1058 C3.213596,164.985619 4.36100413,165.761456 5.09475116,166.163618 C4.58562465,164.968927 2.69521871,162.09793 3.48106809,161.081063 C3.98065472,160.929946 4.28906597,160.923714 4.58211114,161.431146 Z M102.887134,162.976144 C103.17688,163.037493 104.372643,163.540761 105.630522,164.087839 L106.170956,164.323822 C107.339474,164.835901 108.457601,165.336716 108.849662,165.507517 L122.780315,171.552635 C122.23572,172.88687 121.41071,174.532463 120.79162,175.862024 L116.970558,184.053046 C116.130872,185.946346 115.19512,187.889499 114.320298,189.773897 L106.368852,186.327365 C106.321709,182.978759 106.391534,179.520654 106.372188,176.170935 C106.339499,170.53421 107.017518,167.51677 102.887134,162.976144 Z M13.6072929,139.561048 C14.1727246,140.100306 14.7896139,144.159317 14.9962665,145.232046 L16.9962586,147.439598 C16.7751739,146.464349 15.9704671,144.285952 16.9898987,143.700402 C17.0760547,143.702021 17.1409789,143.701513 17.1918152,143.700894 L17.3092043,143.700715 C17.4135198,143.704817 17.4327718,143.732228 17.6732557,143.869324 C18.1584547,144.502056 18.792311,148.474047 19.0244034,149.6358 C20.9230594,151.813974 23.1253901,154.136811 25.0880678,156.28583 C25.9039599,155.682921 26.2808848,155.478167 27.1625998,155.029045 C30.6563262,157.691951 32.5469545,158.258138 36.0769279,160.199734 C32.9321072,162.585777 31.8613738,164.821594 30.495327,168.397654 C29.2226775,171.729791 27.4123264,175.181665 26.2219555,178.518253 C25.4211848,177.716599 24.5577045,176.533259 23.8038548,175.645475 C21.2218641,172.604889 18.3860328,169.725657 18.7526839,165.378879 C18.8184845,164.598813 19.1510234,163.522078 19.2872723,162.691269 C18.697535,161.184997 13.4745353,161.497024 13.0587839,159.827394 C13.5584372,158.439078 15.7945021,159.569004 16.938041,159.8975 C16.3019386,159.239396 15.6469122,158.500281 15.0233962,157.82237 C13.4554778,157.347876 11.8360575,156.979988 10.2704073,156.491251 C9.55609583,156.268248 9.20959183,156.207935 9.07107473,155.430317 C9.5278765,154.160402 11.9486902,155.299453 12.9885802,155.596123 C12.1990617,154.683636 10.5473526,153.190495 10.0696921,152.208792 C10.0603968,151.713378 10.0117413,151.909674 10.2727423,151.468341 C11.4290231,150.891249 13.3611688,153.651189 14.1220455,154.522281 C13.9633145,153.439982 13.2039722,151.539337 14.2830447,150.934648 C15.6093753,151.015659 15.8987958,155.489518 16.1171898,156.677532 L18.14509,158.927815 C17.9518242,157.914509 17.2569483,155.90214 18.2215423,155.293889 C18.6998255,155.294335 18.5250613,155.241588 18.913861,155.45925 C19.4622143,156.201703 19.918727,159.920423 20.1056995,161.089743 C21.3584687,159.295036 22.2205481,158.650953 23.8685658,157.282222 C21.810823,155.141882 19.7821891,152.4723 17.5320256,150.615945 C16.7927637,150.006136 12.4699583,149.804053 12.1152932,148.396374 C12.1844072,148.050742 12.2026864,148.014465 12.4656888,147.780557 C13.2385515,147.527953 14.8257942,148.153786 15.7554754,148.402161 C15.4127295,148.033383 14.3940318,146.767473 14.0211319,146.529559 C12.891158,145.809361 8.38109102,145.389394 8.03483162,143.97949 C8.57219969,142.723151 10.8270553,143.839056 11.8658557,144.173783 C11.0666194,143.170492 9.68178192,142.083742 9.00547424,140.95426 C8.86121988,140.71323 9.00620808,140.450834 9.09480209,140.208469 C10.0123194,139.462677 10.9112463,140.83853 11.5163941,141.457909 C12.0103769,141.963338 12.4911506,142.532419 12.9693671,143.058323 C12.7522183,142.042791 12.065926,140.18332 12.8973844,139.472915 C13.2681273,139.408596 13.2844273,139.398358 13.6072929,139.561048 Z M92.0405934,68.8929004 C99.1843754,73.0164535 105.525163,80.3399443 109.139861,87.6861359 C111.298006,92.0747555 112.75367,96.7751787 113.453482,101.615813 C114.03766,105.739366 113.934923,109.235306 113.934701,113.360417 L113.929364,126.020847 L113.937369,138.83996 C113.940038,140.890831 114.030767,143.722436 113.907349,145.685397 C113.861095,146.470803 113.708546,147.246195 113.453927,147.990651 C112.098332,151.872952 105.676822,155.020366 102.161081,156.846008 C99.9524571,157.992849 94.3503977,159.62776 91.8789271,160.305894 C74.8579353,164.976494 58.4051104,164.142347 41.796401,158.26526 C37.8685995,156.857136 32.7115116,154.537638 29.4386032,151.868055 C27.1010021,149.961179 26.5695269,147.908082 26.3731702,145.075588 C32.7424217,143.421982 38.2212855,140.468862 43.6461124,136.838497 C44.0646213,137.398007 44.5605165,137.965085 45.0128263,138.503007 C43.87627,139.925153 42.7688448,141.370221 41.6914402,142.837545 C43.3178876,141.889226 44.8882965,140.847433 46.3946617,139.717951 C48.3457758,141.050405 50.1287749,141.773273 52.5377582,141.82602 C55.4364103,141.899464 58.2412204,140.797134 60.3150853,138.769854 C63.6940664,135.522957 64.0854456,131.777752 63.9400126,127.39848 C63.8866428,125.795173 64.0118396,124.000689 64.0176214,122.382915 C64.0231807,120.808095 63.9720346,120.261048 62.8955194,119.140914 C63.5479663,118.153424 65.1072566,116.360053 65.8991323,115.361213 C67.9020598,112.834958 69.7213059,110.47028 71.5483351,107.817612 C79.8531345,95.6746298 86.7294,82.6133734 92.0405934,68.8929004 Z M88.6360392,67.0185176 C81.5291714,85.0152184 71.9432722,102.823635 59.1382793,117.428776 C55.9790042,116.432384 52.534645,116.077849 49.2632932,116.709246 C46.9341423,117.158813 42.0810404,118.211067 41.7955115,121.130359 C41.6843242,122.265404 41.7185699,123.757655 41.7205713,124.914734 C41.7254635,127.745225 41.5426716,130.438399 42.0318956,133.241961 L41.3656615,133.707552 C36.9208393,136.709413 31.5891873,139.676778 26.39563,141.101594 L26.3894035,118.897881 C26.3874022,114.528846 26.224624,108.732103 26.5799785,104.451646 C27.3963155,94.4830547 31.407285,85.044596 38.0164786,77.5401657 C45.5852183,68.7809538 56.3741638,63.4578135 67.9276328,62.7823503 C75.0800875,62.3853069 82.2134179,63.8446192 88.6360392,67.0185176 Z M100.628031,4.10548988 C102.03455,4.66330904 105.14001,9.09327984 105.950788,10.3933519 C112.060083,20.1906184 115.783745,31.6647476 117.059285,43.1151298 C115.532017,46.3664784 113.897342,49.6494302 112.321818,52.8834193 C113.985847,52.9257053 115.803536,53.0530084 117.47735,53.1389158 C117.52983,62.8172919 115.603622,75.9248403 112.107005,84.9014913 C110.313999,81.7002182 109.014442,79.6598073 106.782913,76.7654416 C106.925455,74.7915754 107.157837,72.7829902 107.319281,70.799109 C108.241023,59.4686855 107.837858,48.6577121 105.98748,37.4543692 C104.711939,30.6222863 102.786398,21.8271981 98.8970675,15.9977163 C97.1540959,13.3851312 94.3919818,21.3278671 94.047746,22.2665719 C89.2611341,35.3204839 87.9813686,48.7037816 88.1412559,62.4983664 C86.7256196,61.9448648 85.4249509,61.4289756 83.9699543,60.9762928 C83.6570734,58.7507136 83.5605628,53.6599239 83.5543454,51.3428734 C83.5218696,38.4674528 87.2488669,25.4482599 93.4284329,14.1986249 C95.4102348,10.5907608 97.7171482,7.02538297 100.628031,4.10548988 Z M41.1303892,4.001266 C43.0999605,3.88813982 47.6988883,11.390122 48.5708189,12.9881324 C54.5647022,23.9724783 58.0622089,37.0128143 58.2423322,49.5368159 L55.7964347,50.4631019 C56.582084,52.8756298 57.4277743,56.2226783 57.9714801,58.7355797 C58.0337449,59.0235696 57.951244,60.1664045 57.9256709,60.5265032 C56.6049885,60.871468 55.3730336,61.3047883 54.0881535,61.7527973 C54.7466045,48.1522831 52.3129376,32.3070497 47.0137524,19.7110951 C46.6190376,18.7733251 44.4915804,14.3480058 43.1862418,15.6461638 C39.7178662,19.0952774 37.8706009,26.2995439 36.6564359,30.9316418 C32.8960825,46.4710806 32.819808,59.9905838 34.3755403,75.8298081 C32.4722366,77.977492 30.592727,80.8513823 29.1521848,83.318882 C24.6833461,72.0874967 23.17876,50.9587384 25.3275651,39.1135385 C26.23174,34.1286863 27.7585636,29.4832349 29.5451206,24.7814764 C30.777965,24.6684169 32.0988698,24.6045428 33.3408316,24.5228641 C33.5620942,21.6125187 33.4662508,16.9385577 33.7955875,14.2520611 C34.1049105,11.7269857 38.9526754,5.62413607 41.1303892,4.001266 Z" id="Combined-Shape" fill="#F9FAF9"></path>
                <path d="M89.3572652,123.011503 C90.8645305,122.902228 91.7096251,123.571071 91.9269737,125.035842 C92.349971,128.274299 90.8787054,131.871583 88.9779176,134.479015 C86.1305609,138.385216 83.1268302,140.487828 78.6286591,137.324786 C76.0828004,135.357174 72.9897453,130.065356 74.7406841,126.754781 C75.839577,124.677234 80.4416974,126.042404 82.6433083,125.406102 C84.873044,124.761444 87.0701549,123.50621 89.3572652,123.011503 Z M68.3912248,149.985969 C68.9368463,150.319071 69.1602699,150.450993 69.8417905,150.259706 L69.91964,150.509478 C71.8726275,154.961175 77.4984914,156.292485 81.2143425,153.057765 C81.7446641,152.596039 82.5085342,151.285837 83.2584544,151.563093 C83.5811023,152.177848 83.3675787,152.49424 82.9531313,152.984549 C81.290842,154.950402 79.3232296,155.780849 76.780071,156.018527 C76.770846,156.993209 76.8970702,159.350209 76.0711005,160.029386 C73.974339,161.753383 69.450968,160.586535 66.8661846,160.911063 C66.2424886,160.989556 65.4660186,160.863791 64.8837224,160.907985 C60.9842724,161.203709 61.4551944,158.74293 61.5278689,156.016768 C59.9022544,155.884407 56.6217754,154.997893 56.0176543,153.132301 C55.9618547,152.959484 56.0469041,152.918368 56.1528785,152.776992 C57.2580714,152.540852 59.177984,154.964693 61.7366676,154.846183 C64.4085254,154.722617 68.4393745,153.130982 68.3912248,149.985969 Z" id="Combined-Shape" fill="#000000"></path>
                <path d="M67.9469009,154 C68.0423733,154.733724 67.9805773,158.116196 67.9775464,158.987682 C66.7146847,158.993899 65.3859858,159.027186 64.1296909,158.94878 C63.9441344,158.211246 64.0081194,157.060227 64.0214216,156.266144 C65.8842268,155.731341 66.4920842,155.427745 67.9469009,154 Z M70.0119022,154 C71.4748336,155.465566 72.1172056,155.83495 73.9829133,156.394726 C73.9906756,157.151736 74.083133,158.13163 73.7407301,158.760381 C73.190298,159.116844 70.8039999,158.974715 70,158.958374 L70.0119022,154 Z" id="Combined-Shape" fill="#F9FAF9"></path>
                <path d="M68.3086116,150.438518 C67.3490599,149.577076 63.4345536,146.185076 63.5008317,145.127434 C63.6652742,142.501133 70.1953731,142.908154 71.9047097,143.250326 C76.4350024,144.15728 75.7257586,146.651209 69.7769785,150.732111 C69.0870943,150.937273 68.8609289,150.795782 68.3086116,150.438518 Z" id="Path" fill="#F09840"></path>
            </g>
        </g>
    </g>
</svg>