<?xml version="1.0" encoding="UTF-8"?>
<svg width="240px" height="240px" viewBox="0 0 240 240" version="1.1" xmlns="http://www.w3.org/2000/svg" xmlns:xlink="http://www.w3.org/1999/xlink">
    <title>hyperbolic</title>
    <g id="Page-1" stroke="none" stroke-width="1" fill="none" fill-rule="evenodd">
        <g id="hyperbolic">
            <rect id="box" fill="#FFFFFF" x="0" y="0" width="240" height="240" rx="32"></rect>
            <path d="M45.1862554,166.280451 C44.4064871,168.152467 44.0033637,170.160222 44,172.18859 C44,180.600504 51.0920213,188.271504 62.8142653,194.141321 C64.9781512,195.194277 67.4854913,195.282793 69.7180386,194.385043 C71.9505859,193.487293 73.7005774,191.686823 74.5365092,189.427584 L87.6044514,157.938796 C89.8940518,152.464985 91.6989457,146.79317 93,141 C68.7965638,145.068632 50.5499154,154.361976 45.4987635,165.731153 L45.2946766,166.216579 L45.1862554,166.280451 Z M92.9936231,97 C91.691014,91.2056085 89.885881,85.5361524 87.5987767,80.0561823 L74.5452889,48.5699323 C73.7049875,46.3113407 71.9526841,44.5123447 69.7190477,43.6150888 C67.4854112,42.7178329 64.9775458,42.8055112 62.8118168,43.8565748 C51.0910984,49.7259183 44,57.4026876 44,65.8139232 C44,67.8384954 44.4081208,69.8439077 45.186101,71.7152 L45.186101,71.7790667 L45.3901614,72.2708397 C50.5554399,83.6391004 68.7933368,92.9253088 93,97 L92.9936231,97 Z M177.185735,43.8675535 C188.907979,49.7300037 196,57.4061096 196,65.8102321 C195.969688,67.8418052 195.545131,69.848091 194.749967,71.7173851 L194.577769,72.1197101 C189.571261,83.5636217 171.279969,92.9001165 147,97 C148.301054,91.207797 150.105948,85.5369301 152.395549,80.0576466 L165.457113,48.5741175 C166.292836,46.3135391 168.043905,44.5120078 170.278045,43.6142561 C172.512185,42.7165043 175.021211,42.806188 177.185735,43.8611674 L177.185735,43.8675535 Z M147,141 C148.283425,146.787044 150.064894,152.452726 152.34441,157.926784 L165.421293,189.429764 C166.259839,191.687807 168.012011,193.487007 170.246575,194.384556 C172.481138,195.282104 174.990578,195.194649 177.157284,194.143714 C188.899661,188.267245 196,180.602287 196,172.189994 C195.991182,170.162086 195.587797,168.155289 194.812353,166.281589 L194.639953,165.885566 C189.646729,154.439228 171.270133,145.087978 147.006385,141 L147,141 Z M147.012323,103.328546 C164.058895,100.718209 178.227475,95.6359157 188,89 L185.229537,95.6233358 C179.017871,110.604419 179.017871,127.420741 185.229537,142.401824 L187.981024,148.99371 C178.195849,142.357794 164.027269,137.32582 146.999672,134.684034 L146.556904,134.621134 C137.919655,133.317299 129.195074,132.669655 120.458886,132.683824 C111.749004,132.671244 103.051773,133.312821 94.4367708,134.614844 L93.9876775,134.677744 C76.9537553,137.275501 62.7851755,142.364084 53,149 L55.7641381,142.395534 C61.9758039,127.414451 61.9758039,110.598129 55.7641381,95.6170458 L53,89 C62.7408987,95.6673656 76.9094785,100.718209 93.9434006,103.328546 L94.392494,103.391446 C111.685752,105.951462 129.263646,105.951462 146.550579,103.391446 L146.999672,103.328546 L147.012323,103.328546 Z" id="Shape" fill="#594CE9" fill-rule="nonzero"></path>
        </g>
    </g>
</svg>