<?xml version="1.0" encoding="UTF-8"?>
<svg width="240px" height="240px" viewBox="0 0 240 240" version="1.1" xmlns="http://www.w3.org/2000/svg" xmlns:xlink="http://www.w3.org/1999/xlink">
    <title>hyperliquid</title>
    <g id="Page-1" stroke="none" stroke-width="1" fill="none" fill-rule="evenodd">
        <g id="hyperliquid" transform="translate(44.9979, 38.0001)">
            <rect id="box" fill="#97FCE4" x="-45" y="-38" width="240" height="240" rx="32"></rect>
            <path d="M154.994483,81.9317076 C155.140355,94.9415435 152.391433,107.372976 146.991675,119.250417 C139.280609,136.163104 120.793669,149.992469 103.911817,135.271835 C90.1440688,123.273831 87.5898098,98.9166327 66.9625834,95.3510589 C39.6697871,92.0744375 39.0130135,123.418308 21.1828467,126.959968 C1.30937317,130.959469 -5.28267652,97.8564761 -4.99077704,82.8229765 C-4.69887793,67.7893773 -0.6609374,46.6604254 16.6097773,46.6604254 C36.4832508,46.6604254 37.821093,76.4625348 63.0461869,74.8483865 C88.0279271,73.1619503 88.4655414,42.1551582 104.787549,28.8803329 C118.871687,17.4124072 135.437148,25.8206053 143.7317,39.6254789 C151.418621,52.3943882 154.79982,67.3797623 154.969836,81.9317076 L154.994483,81.9317076 Z" id="Path" fill="#072723" fill-rule="nonzero"></path>
        </g>
    </g>
</svg>