<?xml version="1.0" encoding="UTF-8"?>
<svg width="240px" height="240px" viewBox="0 0 240 240" version="1.1" xmlns="http://www.w3.org/2000/svg" xmlns:xlink="http://www.w3.org/1999/xlink">
    <title>hyperv</title>
    <defs>
        <linearGradient x1="37.8865501%" y1="7.11940505%" x2="61.2415904%" y2="92.6158717%" id="linearGradient-1">
            <stop stop-color="#00D3E6" offset="21.6%"></stop>
            <stop stop-color="#00ADC9" offset="27.1%"></stop>
            <stop stop-color="#008DA7" offset="100%"></stop>
        </linearGradient>
        <linearGradient x1="39.354188%" y1="48.8241977%" x2="56.5671348%" y2="66.7810034%" id="linearGradient-2">
            <stop stop-color="#B8F8FD" offset="47.4%"></stop>
            <stop stop-color="#75EFF8" offset="49.9%"></stop>
            <stop stop-color="#88F5FE" offset="100%"></stop>
        </linearGradient>
        <linearGradient x1="43.6408963%" y1="62.9655949%" x2="57.3460563%" y2="79.6443556%" id="linearGradient-3">
            <stop stop-color="#002C33" offset="19%"></stop>
            <stop stop-color="#008CA3" offset="29.3%"></stop>
        </linearGradient>
        <linearGradient x1="55.079254%" y1="51.4019922%" x2="57.9905873%" y2="48.0635684%" id="linearGradient-4">
            <stop stop-color="#097B8F" offset="0%"></stop>
            <stop stop-color="#043A43" offset="100%"></stop>
        </linearGradient>
        <linearGradient x1="55.079254%" y1="51.4030987%" x2="57.9905873%" y2="48.0646749%" id="linearGradient-5">
            <stop stop-color="#097B8F" offset="0%"></stop>
            <stop stop-color="#043A43" offset="100%"></stop>
        </linearGradient>
        <linearGradient x1="55.079254%" y1="51.4024471%" x2="57.9905873%" y2="48.0642574%" id="linearGradient-6">
            <stop stop-color="#097B8F" offset="0%"></stop>
            <stop stop-color="#043A43" offset="100%"></stop>
        </linearGradient>
        <radialGradient cx="43.3806877%" cy="45.8787659%" fx="43.3806877%" fy="45.8787659%" r="50.0924147%" gradientTransform="translate(0.4338, 0.4588), scale(1, 0.7835), rotate(4.9436), translate(-0.4338, -0.4588)" id="radialGradient-7">
            <stop stop-color="#40B1C3" offset="45.2%"></stop>
            <stop stop-color="#1C8090" offset="77.3%"></stop>
        </radialGradient>
        <radialGradient cx="43.4178672%" cy="45.880137%" fx="43.4178672%" fy="45.880137%" r="50.0924138%" gradientTransform="translate(0.4342, 0.4588), scale(1, 0.7835), rotate(4.9436), translate(-0.4342, -0.4588)" id="radialGradient-8">
            <stop stop-color="#40B1C3" offset="45.2%"></stop>
            <stop stop-color="#1C8090" offset="77.3%"></stop>
        </radialGradient>
        <radialGradient cx="43.4178706%" cy="45.8650595%" fx="43.4178706%" fy="45.8650595%" r="50.0924197%" gradientTransform="translate(0.4342, 0.4587), scale(1, 0.7837), rotate(4.9436), translate(-0.4342, -0.4587)" id="radialGradient-9">
            <stop stop-color="#40B1C3" offset="45.2%"></stop>
            <stop stop-color="#1C8090" offset="77.3%"></stop>
        </radialGradient>
        <linearGradient x1="37.8841541%" y1="7.11973571%" x2="61.239211%" y2="92.6163052%" id="linearGradient-10">
            <stop stop-color="#00D3E6" offset="21.6%"></stop>
            <stop stop-color="#00ADC9" offset="27.1%"></stop>
            <stop stop-color="#008DA7" offset="100%"></stop>
        </linearGradient>
        <linearGradient x1="39.3532927%" y1="48.8258133%" x2="56.5668414%" y2="66.7828189%" id="linearGradient-11">
            <stop stop-color="#B8F8FD" offset="47.4%"></stop>
            <stop stop-color="#75EFF8" offset="49.9%"></stop>
            <stop stop-color="#88F5FE" offset="100%"></stop>
        </linearGradient>
        <linearGradient x1="43.6405656%" y1="62.9658744%" x2="57.3455709%" y2="79.6445483%" id="linearGradient-12">
            <stop stop-color="#002C33" offset="19%"></stop>
            <stop stop-color="#008CA3" offset="29.3%"></stop>
        </linearGradient>
        <linearGradient x1="55.0771741%" y1="51.4025862%" x2="57.988455%" y2="48.0643493%" id="linearGradient-13">
            <stop stop-color="#097B8F" offset="0%"></stop>
            <stop stop-color="#043A43" offset="100%"></stop>
        </linearGradient>
        <linearGradient x1="55.0771741%" y1="51.4044082%" x2="57.988455%" y2="48.0661713%" id="linearGradient-14">
            <stop stop-color="#097B8F" offset="0%"></stop>
            <stop stop-color="#043A43" offset="100%"></stop>
        </linearGradient>
        <radialGradient cx="43.367166%" cy="45.8878279%" fx="43.367166%" fy="45.8878279%" r="50.0910375%" gradientTransform="translate(0.4337, 0.4589), scale(1, 0.7839), rotate(4.9434), translate(-0.4337, -0.4589)" id="radialGradient-15">
            <stop stop-color="#40B1C3" offset="45.2%"></stop>
            <stop stop-color="#1C8090" offset="77.3%"></stop>
        </radialGradient>
        <radialGradient cx="43.367166%" cy="45.9137914%" fx="43.367166%" fy="45.9137914%" r="50.0910375%" gradientTransform="translate(0.4337, 0.4591), scale(1, 0.7835), rotate(4.9434), translate(-0.4337, -0.4591)" id="radialGradient-16">
            <stop stop-color="#40B1C3" offset="45.2%"></stop>
            <stop stop-color="#1C8090" offset="77.3%"></stop>
        </radialGradient>
    </defs>
    <g id="Page-1" stroke="none" stroke-width="1" fill="none" fill-rule="evenodd">
        <g id="hyperv" transform="translate(0, -0.0001)">
            <rect id="ViewBox" x="0" y="8.66166374e-05" width="240" height="240"></rect>
            <path d="M103.2825,1.29008662 L9.28125,32.7675866 C7.44375,33.3825866 5.38125,35.5632116 5.38125,37.5019616 L5.38125,38.5894616 L75.9,62.2707116 L75.9,225.063837 C78.061875,225.271962 80.071875,224.825712 83.484375,223.683837 L177.481875,192.204462 C179.319375,191.589462 181.381875,189.410712 181.381875,187.471962 L181.381875,29.2913366 C181.381875,22.8150866 179.424375,22.2432116 173.8275,20.3907116 L114.81,0.834461617 C110.655,-0.541788383 107.415,-0.0936633834 103.2825,1.29008662" id="Path" fill="url(#linearGradient-1)" fill-rule="nonzero"></path>
            <path d="M5.4075,196.828212 C5.4075,203.015712 11.57625,204.136962 16.07625,205.625712 C35.23125,211.968837 54.34875,218.431962 73.5525,224.619462 C74.8646618,225.03607 76.2449562,225.195236 77.6175,225.088212 C82.9575,222.770712 81.19125,216.706962 81.226875,212.205087 C81.624375,161.853837 80.773125,111.498837 81.204375,61.1475866 C81.256875,54.9600866 75.035625,53.8388366 70.535625,52.3500866 L13.0575,33.3525866 C10.674375,32.5650866 9.639375,32.4075866 7.798125,33.5588366 C6.410625,34.4269616 5.383125,36.0844616 5.383125,37.5038366 L5.4075,196.828212 Z" id="Path" fill="url(#linearGradient-2)" fill-rule="nonzero"></path>
            <path d="M10.306875,34.8863366 C9.76875,34.9425866 9.241875,35.1207116 8.698125,35.4600866 C7.621875,36.1332116 7.155,37.5413366 7.155,38.9100866 L7.14,195.365712 C7.14,201.553212 13.305,202.674462 17.805,204.163212 C36.66375,210.406962 55.5075,216.703212 74.390625,222.871962 C77.80875,223.989462 79.30875,221.606337 79.30875,218.486337 L16.7175,197.488212 C13.39875,196.374462 11.98875,195.390087 11.98875,191.272587 L11.98875,153.423837 L24.41625,149.259462 L11.98875,145.096962 L11.98875,122.090712 L24.41625,117.931962 L11.98875,113.769462 L11.98875,90.7632116 L24.41625,86.6044616 L11.98875,82.4400866 L11.98875,59.4375866 L24.4125,55.2732116 L11.98875,51.1125866 L11.98875,35.0419616 C11.4414507,34.892621 10.8722846,34.8399557 10.306875,34.8863366 M11.98875,90.7650866 L79.30875,113.321337 L79.30875,113.317587 L11.98875,90.7650866 Z M11.98875,122.092587 L79.30875,144.648837 L79.30875,144.645087 L11.98875,122.092587 Z M75.639375,135.090087 L79.30875,136.323837 L79.30875,136.320087 L75.639375,135.090087 Z" id="Shape" fill="url(#linearGradient-3)" fill-rule="nonzero"></path>
            <polygon id="Path" fill="url(#linearGradient-4)" fill-rule="nonzero" points="24.500625 55.2450866 11.98875 59.4375866 79.30875 81.9900866 79.30875 73.6650866"></polygon>
            <polygon id="Path" fill="url(#linearGradient-4)" fill-rule="nonzero" points="24.500625 86.5744616 11.98875 90.7669616 79.30875 113.319462 79.30875 104.994462"></polygon>
            <polygon id="Path" fill="url(#linearGradient-5)" fill-rule="nonzero" points="24.500625 117.901962 11.98875 122.094462 79.30875 144.646962 79.30875 136.321962"></polygon>
            <polygon id="Path" fill="url(#linearGradient-6)" fill-rule="nonzero" points="24.500625 149.231337 11.98875 153.421962 79.30875 175.974462 79.30875 167.649462"></polygon>
            <path d="M24.6056252,105.648837 C24.6059665,106.880276 24.2223265,108.034353 23.5391047,108.857173 C22.8558829,109.679992 21.9290477,110.104152 20.9625,110.036337 C18.9499049,109.893479 17.3188614,107.699167 17.3193748,105.135087 C17.3190335,103.903647 17.7026735,102.74957 18.3858953,101.926751 C19.0691171,101.103931 19.9959523,100.679771 20.9625,100.747587 C22.9750951,100.890444 24.6061386,103.084756 24.6056252,105.648837 M24.6056252,74.3663366 C24.6059665,75.5977763 24.2223265,76.7518528 23.5391047,77.5746727 C22.8558829,78.3974925 21.9290477,78.8216517 20.9625,78.7538366 C19.9957592,78.6852157 19.068755,78.1300324 18.3855012,77.2104705 C17.7022474,76.2909086 17.3187379,75.0823282 17.3193742,73.8507116 C17.3194767,71.2871563 18.95034,69.3239092 20.9625,69.4650866 C22.9750951,69.6079445 24.6061386,71.8022561 24.6056252,74.3663366 M24.6056251,136.933212 C24.6055233,139.496767 22.97466,141.460014 20.9625,141.318837 C18.9499049,141.175979 17.3188614,138.981667 17.3193749,136.417587 C17.3194767,133.854031 18.95034,131.890784 20.9625,132.031962 C22.9750951,132.174819 24.6061386,134.369131 24.6056251,136.933212 M73.355625,205.815087 C73.355625,207.046613 72.9715461,208.200574 72.2879581,209.02306 C71.6043702,209.845545 70.6772605,210.269166 69.710625,210.200712 C67.6980299,210.057854 66.0669864,207.863542 66.0674999,205.299462 C66.0676017,202.735906 67.698465,200.772659 69.710625,200.913837 C71.7232201,201.056694 73.3542636,203.251006 73.35375,205.815087 L73.355625,205.815087 Z" id="Shape" fill="#D5F7FA" fill-rule="nonzero"></path>
            <path d="M74.4131251,122.741337 C74.4132621,123.103357 74.3004799,123.44258 74.0996432,123.684217 C73.8988065,123.925854 73.6264069,124.050064 73.3425,124.029462 C73.0588866,124.009202 72.7869415,123.846096 72.5865053,123.576034 C72.3860691,123.305973 72.2735653,122.951085 72.2737498,122.589462 C72.2743343,121.8373 72.7525841,121.261722 73.3425,121.303212 C73.9325271,121.34536 74.4108228,121.988962 74.41125,122.741337 L74.4131251,122.741337 Z M74.4131251,128.816337 C74.4132621,129.178357 74.3004799,129.51758 74.0996432,129.759217 C73.8988065,130.000854 73.6264069,130.125064 73.3425,130.104462 C73.0588866,130.084202 72.7869415,129.921096 72.5865053,129.651034 C72.3860691,129.380973 72.2735653,129.026085 72.2737498,128.664462 C72.2735228,127.91151 72.7520101,127.334807 73.3425,127.376337 C73.6261134,127.396597 73.8980585,127.559703 74.0984947,127.829764 C74.2989309,128.099825 74.4114347,128.454714 74.41125,128.816337 L74.4131251,128.816337 Z M74.4131268,116.666337 C74.4136531,117.028709 74.3010434,117.368427 74.1001642,117.610467 C73.8992851,117.852507 73.626662,117.976958 73.3425,117.956337 C73.0588866,117.936077 72.7869415,117.772971 72.5865053,117.502909 C72.3860691,117.232848 72.2735653,116.87796 72.2737498,116.516337 C72.2735228,115.763385 72.7520101,115.186682 73.3425,115.228212 C73.6261134,115.248472 73.8980585,115.411578 74.0984947,115.681639 C74.2989309,115.9517 74.4114347,116.306589 74.41125,116.668212 L74.4131268,116.666337 Z M74.4131251,154.087587 C74.4132621,154.449607 74.3004799,154.78883 74.0996432,155.030467 C73.8988065,155.272104 73.6264069,155.396314 73.3425,155.375712 C73.0588866,155.355452 72.7869415,155.192346 72.5865053,154.922284 C72.3860691,154.652223 72.2735653,154.297335 72.2737498,153.935712 C72.2735228,153.18276 72.7520101,152.606057 73.3425,152.647587 C73.6261134,152.667847 73.8980585,152.830953 74.0984947,153.101014 C74.2989309,153.371075 74.4114347,153.725964 74.41125,154.087587 L74.4131251,154.087587 Z M74.413125,160.162587 C74.4128719,160.524254 74.2999174,160.862983 74.0991231,161.104218 C73.8983288,161.345452 73.6261521,161.46942 73.3425,161.448837 C72.7524729,161.406688 72.2741772,160.763087 72.2737499,160.010712 C72.2735228,159.25776 72.7520101,158.681057 73.3425,158.722587 C73.9325271,158.764735 74.4108228,159.408337 74.41125,160.160712 L74.413125,160.162587 Z M74.4131251,148.012587 C74.4132621,148.374607 74.3004799,148.71383 74.0996432,148.955467 C73.8988065,149.197104 73.6264069,149.321314 73.3425,149.300712 C72.7524729,149.258563 72.2741772,148.614962 72.2737499,147.862587 C72.2735228,147.109635 72.7520101,146.532932 73.3425,146.574462 C73.9325271,146.61661 74.4108228,147.260212 74.41125,148.012587 L74.4131251,148.012587 Z M74.4131251,91.3969616 C74.4132621,91.7589819 74.3004799,92.0982047 74.0996432,92.3398418 C73.8988065,92.581479 73.6264069,92.7056887 73.3425,92.6850866 C73.0588866,92.6648267 72.7869415,92.5017206 72.5865053,92.2316592 C72.3860691,91.9615978 72.2735653,91.6067096 72.2737498,91.2450866 C72.2735228,90.4921354 72.7520101,89.9154323 73.3425,89.9569616 C73.6261134,89.9772215 73.8980585,90.1403276 74.0984947,90.4103891 C74.2989309,90.6804505 74.4114347,91.0353387 74.41125,91.3969616 L74.4131251,91.3969616 Z M74.413125,97.4719616 C74.4128719,97.8336293 74.2999174,98.172358 74.0991231,98.4135925 C73.8983288,98.654827 73.6261521,98.7787953 73.3425,98.7582116 C73.0588866,98.7379517 72.7869415,98.5748456 72.5865053,98.3047842 C72.3860691,98.0347228 72.2735653,97.6798346 72.2737498,97.3182116 C72.2735228,96.5652604 72.7520101,95.9885573 73.3425,96.0300866 C73.6261134,96.0503465 73.8980585,96.2134526 74.0984947,96.4835141 C74.2989309,96.7535755 74.4114347,97.1084637 74.41125,97.4700866 L74.413125,97.4719616 Z M74.4131251,85.3219616 C74.4132621,85.6839819 74.3004799,86.0232047 74.0996432,86.2648418 C73.8988065,86.506479 73.6264069,86.6306887 73.3425,86.6100866 C73.0588866,86.5898267 72.7869415,86.4267206 72.5865053,86.1566592 C72.3860691,85.8865978 72.2735653,85.5317096 72.2737498,85.1700866 C72.2735228,84.4171354 72.7520101,83.8404323 73.3425,83.8819616 C73.6261134,83.9022215 73.8980585,84.0653276 74.0984947,84.3353891 C74.2989309,84.6054505 74.4114347,84.9603387 74.41125,85.3219616 L74.4131251,85.3219616 Z" id="Shape" fill="#1C8090" fill-rule="nonzero"></path>
            <path d="M72.2325,205.736337 C72.2320646,207.509809 71.1031912,208.867814 69.710625,208.770087 C68.3178649,208.670322 67.1897504,207.1519 67.1906245,205.378212 C67.1911168,203.605727 68.3188315,202.248106 69.710625,202.344462 C71.1035019,202.442916 72.2325,203.960563 72.2325,205.734462 L72.2325,205.736337 Z" id="Path" fill="url(#radialGradient-7)" fill-rule="nonzero"></path>
            <path d="M23.4825005,136.854462 C23.4820082,138.626947 22.3542935,139.984567 20.9625,139.888212 C19.5696231,139.789757 18.4406249,138.27211 18.4406249,136.498212 C18.4404437,135.646184 18.7060444,134.847684 19.178993,134.278388 C19.6519415,133.709091 20.2934926,133.415637 20.9625,133.462587 C22.3552601,133.562351 23.4833746,135.080773 23.4825005,136.854462" id="Path" fill="url(#radialGradient-8)" fill-rule="nonzero"></path>
            <path d="M23.4825005,74.2875866 C23.4820082,76.0600716 22.3542935,77.4176925 20.9625,77.3213366 C19.5696231,77.2228824 18.4406249,75.7052351 18.4406249,73.9313366 C18.4404437,73.0793094 18.7060444,72.2808094 19.178993,71.7115129 C19.6519415,71.1422165 20.2934926,70.848762 20.9625,70.8957116 C22.3552601,70.9954757 23.4833746,72.5138977 23.4825005,74.2875866" id="Path" fill="url(#radialGradient-8)" fill-rule="nonzero"></path>
            <path d="M23.4825,105.570087 C23.4820082,107.342572 22.3542935,108.700192 20.9625,108.603837 C19.5696231,108.505382 18.440625,106.987735 18.440625,105.213837 C18.4410604,103.440364 19.5699338,102.082359 20.9625,102.180087 C22.354685,102.27981 23.4825617,103.797073 23.4825,105.570087" id="Path" fill="url(#radialGradient-9)" fill-rule="nonzero"></path>
            <path d="M187.186875,104.075712 L130.10625,123.191337 C128.990625,123.564462 127.738125,124.888212 127.738125,126.065712 L127.738125,126.725712 L170.56125,141.106962 L170.56125,239.968212 C171.87375,240.093837 173.094375,239.823837 175.16625,239.130087 L232.250625,220.014462 C233.36625,219.639462 234.61875,218.315712 234.61875,217.138212 L234.61875,121.080087 C234.61875,117.146337 233.43,116.799462 230.030625,115.674462 L194.19,103.798212 C191.66625,102.963837 189.699375,103.235712 187.18875,104.075712 L187.186875,104.075712 Z" id="Path" fill="url(#linearGradient-10)" fill-rule="nonzero"></path>
            <path d="M127.749375,222.821337 C127.749375,226.578837 131.495625,227.259462 134.229375,228.165087 C145.861875,232.014462 157.47,235.940712 169.1325,239.698212 C169.930074,239.949028 170.76823,240.045126 171.601875,239.981337 C174.845625,238.575087 173.773125,234.892587 173.795625,232.158837 C174.03375,201.583212 173.518125,171.001962 173.780625,140.426337 C173.8125,136.668837 170.034375,135.986337 167.300625,135.082587 L132.395625,123.545712 C130.948125,123.067587 130.32,122.971962 129.2025,123.671337 C128.35875,124.198212 127.73625,125.205087 127.73625,126.067587 L127.749375,222.821337 Z" id="Path" fill="url(#linearGradient-11)" fill-rule="nonzero"></path>
            <path d="M130.725,124.477587 C130.377306,124.516453 130.043466,124.635865 129.75,124.826337 C129.09375,125.235087 128.8125,126.090087 128.8125,126.920712 L128.803125,221.932587 C128.803125,225.690087 132.545625,226.370712 135.279375,227.276337 C146.731875,231.067587 158.175,234.890712 169.6425,238.638837 C171.718125,239.313837 172.629375,237.868212 172.629375,235.974462 L134.619375,223.222587 C132.60375,222.547587 131.746875,221.947587 131.746875,219.446337 L131.746875,196.462587 L139.29375,193.933212 L131.746875,191.405712 L131.746875,177.436962 L139.29375,174.909462 L131.746875,172.380087 L131.746875,158.411337 L139.29375,155.883837 L131.746875,153.356337 L131.746875,139.387587 L139.291875,136.856337 L131.746875,134.330712 L131.746875,124.571337 C131.414162,124.48163 131.068481,124.449916 130.725,124.477587 M131.746875,158.411337 L172.629375,172.108212 L131.746875,158.411337 Z M131.746875,177.435087 L172.629375,191.133837 L172.629375,191.131962 L131.746875,177.435087 Z M170.4,185.328837 L172.629375,186.078837 L172.629375,186.075087 L170.4,185.328837 Z" id="Shape" fill="url(#linearGradient-12)" fill-rule="nonzero"></path>
            <polygon id="Path" fill="url(#linearGradient-13)" fill-rule="nonzero" points="139.344375 136.841337 131.746875 139.385712 172.629375 153.082587 172.629375 148.027587"></polygon>
            <polygon id="Path" fill="url(#linearGradient-13)" fill-rule="nonzero" points="139.344375 155.866962 131.746875 158.411337 172.629375 172.108212 172.629375 167.053212"></polygon>
            <polygon id="Path" fill="url(#linearGradient-14)" fill-rule="nonzero" points="139.344375 174.890712 131.746875 177.436962 172.629375 191.131962 172.629375 186.076962"></polygon>
            <polygon id="Path" fill="url(#linearGradient-13)" fill-rule="nonzero" points="139.344375 193.916337 131.746875 196.460712 172.629375 210.157587 172.629375 205.102587"></polygon>
            <path d="M139.408125,167.450712 C139.407951,168.198638 139.174752,168.899331 138.759827,169.398647 C138.344903,169.897963 137.782242,170.155 137.195625,170.113212 C135.974181,170.027135 134.98366,168.694969 134.983125,167.137587 C134.983299,166.389661 135.216498,165.688967 135.631423,165.189651 C136.046347,164.690335 136.609008,164.433299 137.195625,164.475087 C138.417069,164.561164 139.40759,165.893329 139.408125,167.450712 M139.408125,148.453212 C139.407951,149.201138 139.174752,149.901831 138.759827,150.401147 C138.344903,150.900463 137.782242,151.1575 137.195625,151.115712 C135.974181,151.029635 134.98366,149.697469 134.983125,148.140087 C134.983299,147.392161 135.216498,146.691467 135.631423,146.192151 C136.046347,145.692835 136.609008,145.435799 137.195625,145.477587 C138.417069,145.563664 139.40759,146.895829 139.408125,148.453212 M139.408125,186.448212 C139.407951,187.196138 139.174752,187.896831 138.759827,188.396147 C138.344903,188.895463 137.782242,189.1525 137.195625,189.110712 C135.974181,189.024635 134.98366,187.692469 134.983125,186.135087 C134.983299,185.387161 135.216498,184.686467 135.631423,184.187151 C136.046347,183.687835 136.609008,183.430799 137.195625,183.472587 C138.417069,183.558664 139.40759,184.890829 139.408125,186.448212 M169.014375,228.279462 C169.014201,229.027388 168.781002,229.728081 168.366077,230.227397 C167.951153,230.726713 167.388492,230.98375 166.801875,230.941962 C166.215006,230.901238 165.651927,230.564793 165.236609,230.006698 C164.821291,229.448603 164.587785,228.714617 164.5875,227.966337 C164.587674,227.218411 164.820873,226.517717 165.235798,226.018401 C165.650722,225.519085 166.213383,225.262049 166.8,225.303837 C168.02087,225.389872 169.011153,226.720879 169.0125,228.277587 L169.014375,228.279462 Z" id="Shape" fill="#D5F7FA" fill-rule="nonzero"></path>
            <path d="M169.655625,177.830712 C169.655713,178.050487 169.587165,178.256434 169.465105,178.403117 C169.343045,178.549801 169.177503,178.625166 169.005,178.612587 C168.646411,178.586811 168.355987,178.195662 168.35625,177.738837 C168.3558,177.519148 168.423929,177.313086 168.545623,177.166068 C168.667317,177.019051 168.832585,176.943147 169.005,176.955087 C169.177766,176.966869 169.343538,177.065878 169.465642,177.230208 C169.587746,177.394538 169.656116,177.610643 169.655625,177.830712 M169.655625,181.518837 C169.655713,181.738612 169.587165,181.944559 169.465105,182.091242 C169.343045,182.237926 169.177503,182.313291 169.005,182.300712 C168.646411,182.274936 168.355987,181.883787 168.35625,181.426962 C168.356126,180.970234 168.646509,180.620263 169.005,180.645087 C169.17751,180.656852 169.343059,180.755588 169.46512,180.919509 C169.587181,181.08343 169.655724,181.299065 169.655625,181.518837 M169.655625,174.140712 C169.655713,174.360487 169.587165,174.566434 169.465105,174.713117 C169.343045,174.859801 169.177503,174.935166 169.005,174.922587 C168.646411,174.896811 168.355987,174.505662 168.35625,174.048837 C168.356126,173.592109 168.646509,173.242138 169.005,173.266962 C169.17751,173.278727 169.343059,173.377463 169.46512,173.541384 C169.587181,173.705305 169.655724,173.92094 169.655625,174.140712 M169.655625,196.865712 C169.655713,197.085487 169.587165,197.291434 169.465105,197.438117 C169.343045,197.584801 169.177503,197.660166 169.005,197.647587 C168.646411,197.621811 168.355987,197.230662 168.35625,196.773837 C168.356126,196.317109 168.646509,195.967138 169.005,195.991962 C169.17751,196.003727 169.343059,196.102463 169.46512,196.266384 C169.587181,196.430305 169.655724,196.64594 169.655625,196.865712 M169.655625,200.553837 C169.655713,200.773612 169.587165,200.979559 169.465105,201.126242 C169.343045,201.272926 169.177503,201.348291 169.005,201.335712 C168.646411,201.309936 168.355987,200.918787 168.35625,200.461962 C168.356126,200.005234 168.646509,199.655263 169.005,199.680087 C169.17751,199.691852 169.343059,199.790588 169.46512,199.954509 C169.587181,200.11843 169.655724,200.334065 169.655625,200.553837 M169.655625,193.177587 C169.655713,193.397362 169.587165,193.603309 169.465105,193.749992 C169.343045,193.896676 169.177503,193.972041 169.005,193.959462 C168.646411,193.933686 168.355987,193.542537 168.35625,193.085712 C168.3558,192.866023 168.423929,192.659961 168.545623,192.512943 C168.667317,192.365926 168.832585,192.290022 169.005,192.301962 C169.177766,192.313744 169.343538,192.412753 169.465642,192.577083 C169.587746,192.741413 169.656116,192.957518 169.655625,193.177587 M169.655625,158.793837 C169.656104,159.013965 169.587729,159.220406 169.465627,159.367492 C169.343524,159.514579 169.177758,159.590185 169.005,159.577587 C168.832541,159.565191 168.667235,159.465917 168.545534,159.301656 C168.423833,159.137395 168.355733,158.921638 168.35625,158.701962 C168.356126,158.245234 168.646509,157.895263 169.005,157.920087 C169.17751,157.931852 169.343059,158.030588 169.46512,158.194509 C169.587181,158.35843 169.655724,158.574065 169.655625,158.793837 M169.655625,162.483837 C169.655713,162.703612 169.587165,162.909559 169.465105,163.056242 C169.343045,163.202926 169.177503,163.278291 169.005,163.265712 C168.646411,163.239936 168.355987,162.848787 168.35625,162.391962 C168.356126,161.935234 168.646509,161.585263 169.005,161.610087 C169.17751,161.621852 169.343059,161.720588 169.46512,161.884509 C169.587181,162.04843 169.655724,162.264065 169.655625,162.483837 M169.655625,155.105712 C169.655713,155.325487 169.587165,155.531434 169.465105,155.678117 C169.343045,155.824801 169.177503,155.900166 169.005,155.887587 C168.646411,155.861811 168.355987,155.470662 168.35625,155.013837 C168.356126,154.557109 168.646509,154.207138 169.005,154.231962 C169.17751,154.243727 169.343059,154.342463 169.46512,154.506384 C169.587181,154.670305 169.655724,154.88594 169.655625,155.105712" id="Shape" fill="#1C8090" fill-rule="nonzero"></path>
            <path d="M168.331875,228.230712 C168.331511,228.748316 168.16991,229.233097 167.882625,229.578402 C167.59534,229.923707 167.205906,230.101246 166.8,230.071962 C165.955371,230.011769 165.270612,229.090365 165.27,228.013212 C165.270815,226.936343 165.955515,226.112354 166.8,226.171962 C167.205934,226.200256 167.595392,226.433067 167.882682,226.819167 C168.169971,227.205268 168.331553,227.713023 168.331875,228.230712" id="Path" fill="url(#radialGradient-15)" fill-rule="nonzero"></path>
            <path d="M138.7275,186.399462 C138.7275,186.917418 138.566097,187.402694 138.27877,187.748401 C137.991442,188.094108 137.601785,188.271889 137.195625,188.242587 C136.350996,188.182394 135.666237,187.26099 135.665625,186.183837 C135.665625,185.106178 136.350566,184.281064 137.195625,184.340712 C137.601559,184.369006 137.991017,184.601817 138.278307,184.987917 C138.565596,185.374018 138.727178,185.881773 138.7275,186.399462" id="Path" fill="url(#radialGradient-16)" fill-rule="nonzero"></path>
            <path d="M138.7275,148.406337 C138.727136,148.923941 138.565535,149.408722 138.27825,149.754027 C137.990965,150.099332 137.601531,150.276871 137.195625,150.247587 C136.350996,150.187394 135.666237,149.26599 135.665625,148.188837 C135.665625,147.111178 136.350566,146.286064 137.195625,146.345712 C137.601559,146.374006 137.991017,146.606817 138.278307,146.992917 C138.565596,147.379018 138.727178,147.886773 138.7275,148.404462 L138.7275,148.406337 Z" id="Path" fill="url(#radialGradient-16)" fill-rule="nonzero"></path>
            <path d="M138.7275,167.401962 C138.7275,167.919918 138.566097,168.405194 138.27877,168.750901 C137.991442,169.096608 137.601785,169.274389 137.195625,169.245087 C136.350996,169.184894 135.666237,168.26349 135.665625,167.186337 C135.665625,166.108678 136.350566,165.283564 137.195625,165.343212 C137.601559,165.371506 137.991017,165.604317 138.278307,165.990417 C138.565596,166.376518 138.727178,166.884273 138.7275,167.401962" id="Path" fill="url(#radialGradient-16)" fill-rule="nonzero"></path>
        </g>
    </g>
</svg>