<?xml version="1.0" encoding="UTF-8"?>
<svg width="240px" height="240px" viewBox="0 0 240 240" version="1.1" xmlns="http://www.w3.org/2000/svg" xmlns:xlink="http://www.w3.org/1999/xlink">
    <title>i2p</title>
    <g id="Page-1" stroke="none" stroke-width="1" fill="none" fill-rule="evenodd">
        <g id="i2p" transform="translate(-66, 72)">
            <rect id="box" x="66" y="-72" width="240" height="240"></rect>
            <g id="shape" transform="translate(80, -72)" fill-rule="nonzero">
                <polygon id="path4566" fill="#FFFFFF" points="3 3 27 3 27 115 3 115"></polygon>
                <path d="M121,115 L41.3117798,115 L41.3117798,98.3275074 L69.9272726,69.5589024 C78.4002997,60.926305 83.9351216,54.941056 86.5358086,51.6069582 C89.1345632,48.2708977 91.00516,45.1840624 92.1496136,42.3405232 C93.2920937,39.497025 93.864341,36.5515059 93.864341,33.4999588 C93.864341,28.9511385 92.6054626,25.564088 90.0836765,23.3406882 C87.5619314,21.1192103 84.1975627,20.0065904 79.9867053,20.0065904 C75.5667338,20.0065904 71.2789079,21.0152677 67.1213775,23.0306185 C62.9598588,25.047973 58.6207617,27.9169867 54.0982067,31.6376187 L41,16.2073676 C46.6137639,11.4505393 51.2646408,8.09092609 54.9565367,6.1265652 C58.6464179,4.16220431 62.6757087,2.64922935 67.0424766,1.58952125 C71.4092033,0.529854047 76.2948094,0 81.7014738,0 C88.8227834,0 95.1133928,1.29323151 100.571287,3.87769092 C106.029182,6.46411306 110.265695,10.0808024 113.280746,14.7336472 C116.293864,19.386451 117.803383,24.7123879 117.803383,30.7074914 C117.803383,35.9313665 116.879926,40.8275074 115.034944,45.4038467 C113.189962,49.9781416 110.330823,54.6702408 106.457401,59.4781 C102.585994,64.2859591 95.7625675,71.1366064 85.9892585,80.0262799 L71.3302613,93.7532125 L71.3302613,94.8383952 L121,94.8383952 L121,115 Z" id="path4570" fill="#FFFFFF"></path>
                <path d="M156.939975,55.7062573 L164.81643,55.7062573 C172.178932,55.7062573 177.686987,54.2648018 181.34451,51.3779677 C184.998036,48.4930543 186.826818,44.292262 186.826818,38.7755092 C186.826818,33.2097598 185.294601,29.0991147 182.232144,26.4417759 C179.167793,23.7883192 174.365536,22.458669 167.829493,22.458669 L156.939975,22.458669 L156.939975,55.7062573 Z M211,37.9321879 C211,49.9874703 207.202166,59.2049152 199.608353,65.5885682 C192.012521,71.9740601 181.213962,75.1648855 167.210658,75.1648855 L156.939975,75.1648855 L156.939975,115 L133,115 L133,3 L169.065104,3 C182.760021,3 193.171097,5.92410252 200.304223,11.7722667 C207.433437,17.6204309 211,26.3397371 211,37.9321879" id="path4574" fill="#FFFFFF"></path>
                <path d="M45,217.5 C45,205.073194 34.92641,195 22.498985,195 C10.07359,195 0,205.073194 0,217.5 C0,229.926846 10.07359,240 22.498985,240 C34.92641,240 45,229.926846 45,217.5" id="path4578" fill="#FFC434"></path>
                <path d="M45,163.50002 C45,151.073185 34.92641,141 22.498985,141 C10.07359,141 0,151.073185 0,163.50002 C0,175.926855 10.07359,186 22.498985,186 C34.92641,186 45,175.926855 45,163.50002" id="path4582" fill="#60AB60"></path>
                <path d="M99,217.5 C99,205.073194 88.9263784,195 76.4990865,195 C64.0736216,195 54,205.073194 54,217.5 C54,229.926846 64.0736216,240 76.4990865,240 C88.9263784,240 99,229.926846 99,217.5" id="path4586" fill="#E15647"></path>
                <path d="M99,163.50002 C99,151.073185 88.9263784,141 76.4990865,141 C64.0736216,141 54,151.073185 54,163.50002 C54,175.926855 64.0736216,186 76.4990865,186 C88.9263784,186 99,175.926855 99,163.50002" id="path4590" fill="#FFC434"></path>
                <path d="M153,217.5 C153,205.073194 142.926347,195 130.499026,195 C118.073612,195 108,205.073194 108,217.5 C108,229.926846 118.073612,240 130.499026,240 C142.926347,240 153,229.926846 153,217.5" id="path4594" fill="#FFC434"></path>
                <path d="M153,163.50002 C153,151.073185 142.926347,141 130.499026,141 C118.073612,141 108,151.073185 108,163.50002 C108,175.926855 118.073612,186 130.499026,186 C142.926347,186 153,175.926855 153,163.50002" id="path4598" fill="#60AB60"></path>
                <path d="M207,217.5 C207,205.073194 196.92641,195 184.499066,195 C172.073631,195 162,205.073194 162,217.5 C162,229.926846 172.073631,240 184.499066,240 C196.92641,240 207,229.926846 207,217.5" id="path4602" fill="#60AB60"></path>
                <path d="M207,163.50002 C207,151.073185 196.92641,141 184.499066,141 C172.073631,141 162,151.073185 162,163.50002 C162,175.926855 172.073631,186 184.499066,186 C196.92641,186 207,175.926855 207,163.50002" id="path4606" fill="#E15647"></path>
            </g>
        </g>
    </g>
</svg>