<?xml version="1.0" encoding="UTF-8"?>
<svg width="240px" height="240px" viewBox="0 0 240 240" version="1.1" xmlns="http://www.w3.org/2000/svg" xmlns:xlink="http://www.w3.org/1999/xlink">
    <title>ibm-cloud-5</title>
    <defs>
        <linearGradient x1="76.8894561%" y1="37.2644613%" x2="12.7743165%" y2="77.322975%" id="linearGradient-1">
            <stop stop-color="#50FFD2" offset="0%"></stop>
            <stop stop-color="#0064FF" offset="100%"></stop>
        </linearGradient>
        <linearGradient x1="52.3122171%" y1="54.6060751%" x2="22.8336985%" y2="15.6842238%" id="linearGradient-2">
            <stop stop-color="#09B9EC" stop-opacity="0" offset="0%"></stop>
            <stop stop-color="#09B9EC" stop-opacity="0.03" offset="29%"></stop>
            <stop stop-color="#09B9EC" stop-opacity="0.2" offset="50%"></stop>
            <stop stop-color="#09B9EC" stop-opacity="0.74" offset="79%"></stop>
            <stop stop-color="#09B9EC" offset="100%"></stop>
        </linearGradient>
        <linearGradient x1="92.8664298%" y1="63.1053535%" x2="32.0826917%" y2="18.2331576%" id="linearGradient-3">
            <stop stop-color="#50FFD2" offset="0%"></stop>
            <stop stop-color="#0064FF" offset="100%"></stop>
        </linearGradient>
        <linearGradient x1="12.0212191%" y1="76.3537736%" x2="83.0435957%" y2="27.3915094%" id="linearGradient-4">
            <stop stop-color="#1FA1ED" offset="0%"></stop>
            <stop stop-color="#0064FF" stop-opacity="0.07" offset="75%"></stop>
            <stop stop-color="#0871FE" stop-opacity="0" offset="100%"></stop>
        </linearGradient>
        <linearGradient x1="4.96613995%" y1="69.9619562%" x2="82.0541761%" y2="32.2761701%" id="linearGradient-5">
            <stop stop-color="#193A3E" stop-opacity="0" offset="14%"></stop>
            <stop stop-color="#37CEE0" stop-opacity="0.07" offset="32%"></stop>
            <stop stop-color="#37CEE0" stop-opacity="0.76" offset="85%"></stop>
            <stop stop-color="#33C7E2" offset="91%"></stop>
        </linearGradient>
    </defs>
    <g id="Page-1" stroke="none" stroke-width="1" fill="none" fill-rule="evenodd">
        <g id="ibm-cloud-5">
            <rect id="box" x="0" y="0" width="240" height="240"></rect>
            <path d="M39.8180025,97.967959 C39.0917413,97.9396088 38.3812741,97.7487005 37.7395269,97.4094557 L18.1344459,86.2393901 C16.2760414,85.2293424 15.4970252,82.9784124 16.3368454,81.0453096 C16.724777,79.9563095 17.5478672,79.0749545 18.6114621,78.6096777 C19.675057,78.1444008 20.8847095,78.1365186 21.9543471,78.5878951 L22.6284473,78.9229971 L42.2897032,90.0930627 C44.2730089,91.1970233 45.0385873,93.652357 44.0311288,95.6780956 C43.2700122,97.2644778 41.5720146,98.1873513 39.8180025,97.967959 L39.8180025,97.967959 Z M73.8038878,64.457762 C72.320476,64.4560499 70.9503921,63.6685483 70.2086867,62.3912999 L58.9736833,42.8995353 C57.8624228,41.0795689 58.2168746,38.7302149 59.8163085,37.3145025 C61.502218,35.9285492 63.9909665,36.1264983 65.4338102,37.7613051 C65.4338102,37.7613051 65.8270354,38.1522574 65.9393854,38.3756587 L77.1743888,57.8674233 C78.2704319,59.7219822 77.840935,62.0942846 76.1632385,63.4524561 C75.4787505,63.9600045 74.6569073,64.2518234 73.8038878,64.2902111 L73.8038878,64.457762 Z M115.822764,47.7026636 L115.822764,25.3625322 C115.813625,23.101359 117.546065,21.2091157 119.811227,21.0062066 C120.917952,20.9454538 122.002279,21.3327098 122.817148,22.0797403 C123.632018,22.8267708 124.108021,23.8699446 124.136703,24.9715799 L124.136703,47.9260649 C124.15197,49.0415811 123.712993,50.1158545 122.919545,50.9047166 C122.126097,51.6935787 121.045578,52.1300187 119.923577,52.1148395 C117.635709,51.7920818 115.908626,49.8868063 115.822764,47.5909629 L115.822764,47.7026636 Z M166.380316,64.4577967 C165.563476,64.4610653 164.763285,64.2282167 164.07714,63.7875581 C162.380242,62.4450012 161.926423,60.070284 163.009815,58.2025253 L174.244818,38.7107607 C175.411479,36.7968367 177.885305,36.1327643 179.86232,37.2028018 C180.093764,37.2864967 180.291137,37.443482 180.42407,37.6496045 C181.982771,39.0869722 182.332625,41.4058505 181.266695,43.2346373 L170.031692,62.7264019 C169.085189,63.7945963 167.697505,64.371172 166.267966,64.2902111 L166.380316,64.4577967 Z M200.085326,97.9679747 C198.541409,97.9721488 197.118852,97.1364054 196.377775,95.7897962 C195.370316,93.7640576 196.135895,91.3087239 198.1192,90.2047634 L217.499581,79.0346977 C219.325236,77.9059927 221.704861,78.2608733 223.117083,79.8724527 C224.467458,81.5721025 224.245425,84.0248696 222.611508,85.4574855 C222.611508,85.4574855 222.274458,85.7925875 222.049758,85.9042881 L202.163802,97.0743538 C201.603116,97.5794987 200.894351,97.8926849 200.141501,97.9679747 L200.085326,97.9679747 Z" id="Shape" fill="url(#linearGradient-1)" fill-rule="nonzero"></path>
            <path d="M67.1097871,193 C47.9819788,173.415077 41.2004554,144.932154 49.4590131,118.865383 C57.7175707,92.7986126 79.6791302,73.368263 106.619993,68.2925711 C133.560856,63.2168792 161.119236,73.317611 178.348233,94.5824951 C179.640397,96.2629306 180.820198,97.8873515 182,99.6238015 L175.089733,104.160977 C174.085909,102.627377 172.998093,101.150089 171.831233,99.7358306 C170.214914,97.7386925 168.469593,95.8488545 166.606397,94.0783644 C140.460728,70.5589782 100.4281,71.5481044 75.4829615,96.3298423 C50.5378229,121.11158 49.4015015,161.021731 72.8964335,187.17449 L67.1097871,193 Z" id="Path" fill="url(#linearGradient-2)" fill-rule="nonzero"></path>
            <path d="M173.108037,215 L58.6638313,215 C45.9193605,214.925844 33.7288337,209.767572 24.7856289,200.664853 C15.842424,191.562134 10.8826459,179.264202 11,166.488166 L19.300856,166.488166 C19.1446103,188.422223 36.6740181,206.372094 58.5516861,206.680473 L172.995892,206.680473 C199.779635,206.680634 221.518171,184.963074 221.610849,158.112426 C221.570868,146.139652 217.186025,134.590627 209.274873,125.621302 L215.442861,120 C230.446743,136.696787 234.214799,160.694235 225.053131,181.204498 C215.891464,201.714762 195.524502,214.877355 173.108037,214.775148 L173.108037,215 Z" id="Path" fill="url(#linearGradient-3)" fill-rule="nonzero"></path>
            <path d="M19.2222222,167 L11,166.54717 C11.1298981,143.004418 27.8324414,122.955532 50.6111111,119 L52,127.377358 C33.0958041,130.75053 19.2844312,147.446082 19.2222222,167 Z" id="Path" fill="url(#linearGradient-4)" fill-rule="nonzero"></path>
            <path d="M125.212754,158 L117,158 C117.058649,142.754435 123.125986,128.162859 133.85596,117.462445 C144.585934,106.762031 159.091319,100.83756 174.154063,101.00339 C190.143008,101.21775 205.31517,108.188212 216,120.228437 L209.798533,125.882862 C192.051969,105.704082 161.520502,103.858147 141.526524,121.755132 C131.378737,131.039965 125.474627,144.157331 125.212754,158 L125.212754,158 Z" id="Path" fill="url(#linearGradient-5)" fill-rule="nonzero"></path>
        </g>
    </g>
</svg>