<?xml version="1.0" encoding="UTF-8"?>
<!DOCTYPE svg PUBLIC "-//W3C//DTD SVG 1.1//EN" "http://www.w3.org/Graphics/SVG/1.1/DTD/svg11.dtd">
<svg xmlns="http://www.w3.org/2000/svg" version="1.1" width="200px" height="200px" style="shape-rendering:geometricPrecision; text-rendering:geometricPrecision; image-rendering:optimizeQuality; fill-rule:evenodd; clip-rule:evenodd" xmlns:xlink="http://www.w3.org/1999/xlink">
<g><path style="opacity:1" fill="#e0ea54" d="M -0.5,-0.5 C 66.1667,-0.5 132.833,-0.5 199.5,-0.5C 199.5,66.1667 199.5,132.833 199.5,199.5C 132.833,199.5 66.1667,199.5 -0.5,199.5C -0.5,132.833 -0.5,66.1667 -0.5,-0.5 Z"/></g>
<g><path style="opacity:1" fill="#050401" d="M 62.5,69.5 C 77.3372,69.0862 89.6705,74.4196 99.5,85.5C 115.112,67.6057 132.778,65.1057 152.5,78C 165.784,92.9296 165.784,107.93 152.5,123C 141.134,131.926 128.801,133.593 115.5,128C 109.748,124.748 104.415,120.915 99.5,116.5C 92.4017,123.385 84.0684,128.218 74.5,131C 59.5367,132.601 48.0367,127.101 40,114.5C 32.661,92.0215 40.161,77.0215 62.5,69.5 Z"/></g>
<g><path style="opacity:1" fill="#dce653" d="M 62.5,88.5 C 72.8497,87.4268 81.0164,91.0935 87,99.5C 87.3152,100.908 86.9819,102.241 86,103.5C 78.7142,112.197 69.8808,114.363 59.5,110C 53.3996,101.713 54.3996,94.5464 62.5,88.5 Z"/></g>
<g><path style="opacity:1" fill="#dbe553" d="M 124.5,88.5 C 137.71,86.1424 143.877,91.4757 143,104.5C 139.061,112.042 132.895,114.542 124.5,112C 118.917,109.548 114.584,105.714 111.5,100.5C 114.833,95.3475 119.167,91.3475 124.5,88.5 Z"/></g>
</svg>
