<?xml version="1.0" encoding="UTF-8"?>
<svg width="240px" height="240px" viewBox="0 0 240 240" version="1.1" xmlns="http://www.w3.org/2000/svg" xmlns:xlink="http://www.w3.org/1999/xlink">
    <title>influxdb</title>
    <g id="Page-1" stroke="none" stroke-width="1" fill="none" fill-rule="evenodd">
        <g id="influxdb" transform="translate(0.223, 0.4055)" fill-rule="nonzero">
            <path d="M-0.223,119.592536 C-0.223,53.3289325 53.5114619,-0.405529442 119.775065,-0.405529442 C186.038669,-0.405529442 239.777,53.3289325 239.777,119.592536 C239.777,185.856139 186.038669,239.594471 119.775065,239.594471 C53.5114619,239.594471 -0.223,185.856139 -0.223,119.592536 Z" id="Path" fill="#18AFFF"></path>
            <path d="M212.514327,139.006443 L194.576956,60.8872101 C193.631457,56.6528541 189.620832,52.418498 185.373833,51.2401416 L103.014602,26.0658131 C101.832727,25.8301418 100.654727,25.5944706 99.4728523,25.5944706 C95.9311031,25.5944706 92.156854,27.0046348 90.0333544,29.1256762 L31.0326175,83.7125528 C27.9636181,86.5367447 26.0764936,92.1812649 27.0219933,96.4194844 L46.1373641,179.947566 C47.0828639,184.181923 51.093488,188.416279 55.3404871,189.594635 L132.27472,213.123128 C133.456595,213.358799 134.634595,213.594471 135.816469,213.594471 C139.358219,213.594471 143.132468,212.184306 145.255967,210.063265 L208.267328,151.709511 C211.809078,148.889183 213.459827,143.244663 212.514327,139.006443 Z M111.5086,44.4211285 L167.913087,61.5980874 C170.036587,62.3051012 170.036587,63.2439229 167.913087,63.7152654 L138.176344,70.5381421 C135.816469,71.0094846 132.74747,70.0667995 131.333095,68.4209641 L110.566975,46.0669639 C108.91235,44.6567997 109.3851,43.9497859 111.5086,44.4211285 Z M146.674217,145.361841 C147.146967,147.71469 145.728717,148.893046 143.605218,148.186033 L82.717356,129.598909 C80.5938565,128.891896 80.1211066,127.010389 81.7718563,125.600225 L128.500471,82.3062521 C130.151221,80.6604166 132.04222,81.363567 132.511095,83.4846085 L146.674217,145.361841 Z M46.3737391,90.3036216 L95.9349781,44.4211285 C97.5857278,42.775293 100.181977,43.0109643 101.836602,44.6567997 L126.617221,71.2451559 C128.267971,72.8909914 128.031596,75.479512 126.380846,77.1292109 L76.8196073,123.011704 C75.1688577,124.65754 72.5726083,124.421868 70.9179837,122.776033 L46.1373641,96.1876766 C44.7229894,94.5379777 44.7229894,91.9494571 46.3737391,90.3036216 Z M58.4094864,163.24195 L45.1918643,106.066553 C44.7191144,103.713704 45.4282393,103.478032 47.0789889,105.123868 L67.8451093,127.477868 C69.495859,129.123703 70.2049838,132.419238 69.495859,134.536416 L60.5291109,163.477621 C60.0602361,165.362992 58.8822363,165.362992 58.4094864,163.24195 Z M130.860345,196.421375 L66.4346096,176.655896 C64.3111101,175.948882 62.8928604,173.596032 63.6019853,171.478854 L74.2233579,136.653594 C74.9324828,134.536416 77.2923572,133.122388 79.4158568,133.829402 L143.841593,153.594882 C145.965092,154.301895 147.383342,156.654745 146.674217,158.771923 L136.052844,193.597183 C135.343719,195.950033 132.983845,197.124525 130.860345,196.421375 Z M188.206458,149.596197 L145.019592,189.594635 C143.368843,191.24047 142.423343,190.53732 143.132468,188.416279 L152.099216,159.475073 C152.808341,157.357895 155.168215,155.005046 157.52809,154.533703 L187.264833,147.710827 C189.388332,147.243347 189.861082,148.186033 188.206458,149.596197 Z M192.930082,141.127485 L157.29559,149.128718 C154.935715,149.60006 152.812216,148.186033 152.339466,146.068855 L137.234719,80.4208819 C136.761969,78.0680325 138.180219,75.9508545 140.303718,75.479512 L175.93821,67.4782789 C178.298085,67.0069364 180.421584,68.4209641 180.894334,70.5381421 L195.999081,136.186115 C196.467956,138.303293 195.053581,140.656142 192.930082,141.127485 Z" id="Shape" fill="#FFFFFF"></path>
        </g>
    </g>
</svg>