<?xml version="1.0" encoding="UTF-8"?>
<svg width="240px" height="240px" viewBox="0 0 240 240" version="1.1" xmlns="http://www.w3.org/2000/svg" xmlns:xlink="http://www.w3.org/1999/xlink">
    <title>influxdb</title>
    <g id="Page-1" stroke="none" stroke-width="1" fill="none" fill-rule="evenodd">
        <g id="influxdb" transform="translate(0, -0.0021)">
            <rect id="ViewBox" x="0" y="0.00210942213" width="240" height="240"></rect>
            <path d="M177.268125,164.298984 L232.35375,151.642734 C233.201748,151.469494 234.004793,151.12287 234.7125,150.624609 C236.140589,149.607564 237.080274,148.041422 237.305625,146.302734 C237.414375,145.440234 237.34125,144.568359 237.091875,143.733984 L213.669375,41.8896094 C213.243889,40.2111836 212.17231,38.7689318 210.688125,37.8771094 C209.20328,36.9920712 207.429205,36.7286214 205.75125,37.1439844 L150.6825,49.8002344 C149.019375,50.2314844 147.58875,51.3002344 146.71125,52.7871094 C145.825474,54.2664569 145.566965,56.0382192 145.993125,57.7089844 L169.35,159.553359 C169.775486,161.231785 170.847065,162.674037 172.33125,163.565859 C173.8125,164.460234 175.59,164.724609 177.268125,164.298984 M158.28375,227.235234 L225.073125,165.258984 C227.593125,162.708984 226.955625,161.141484 223.490625,162.393984 L177.583125,172.847109 C175.682844,173.316483 173.931847,174.258088 172.4925,175.584609 C171.053626,176.910632 169.972739,178.578396 169.35,180.433359 L155.428125,225.347109 C154.475625,228.825234 155.743125,229.777734 158.28375,227.235234 M36.42375,207.005859 L136.44375,237.980859 C138.15,238.303359 139.914375,238.003359 141.42375,237.137109 C142.929798,236.265471 144.08085,234.891378 144.675,233.255859 L161.43375,179.480859 C161.677994,178.642772 161.752575,177.764378 161.653125,176.897109 C161.558563,176.030082 161.292122,175.1906 160.869375,174.427734 C160.45056,173.662105 159.883243,172.9877 159.200625,172.443984 C158.517507,171.903633 157.736267,171.500597 156.9,171.257109 L56.88,140.576484 C55.1865688,140.090234 53.3694315,140.29521 51.826875,141.146484 C50.2855258,142.00012 49.1429022,143.427052 48.646875,145.117734 L31.99875,198.780234 C31.5074497,200.458837 31.6946201,202.263213 32.52,203.805234 C33.3505212,205.343299 34.7527251,206.492944 36.42375,207.005859 M4.125,96.9396094 L24.405,185.912109 C25.035,189.392109 26.668125,189.392109 27.555,185.912109 L41.476875,141.007734 C41.9542683,139.09366 41.9741808,137.094061 41.535,135.170859 C41.0949179,133.250194 40.2156609,131.457665 38.96625,129.933984 L6.976875,95.3496094 C4.75875,92.7339844 3.103125,93.4596094 4.12125,96.9377344 L4.125,96.9396094 Z M82.32375,1.82648442 L5.71125,72.8927344 C3.15403491,75.3339188 3.01415734,79.3703859 5.39625,81.9827344 L43.7025,123.502734 C44.880834,124.75995 46.5086243,125.500039 48.230625,125.561484 C49.9513933,125.619892 51.625503,124.995807 52.888125,123.825234 L129.478125,52.6408594 C132.060113,50.2127079 132.204005,46.157796 129.800625,43.5527344 L91.56,2.05335942 C90.970659,1.4253504 90.2634673,0.919485315 89.47875,0.564609422 C88.6947316,0.216407915 87.8500495,0.0253033638 86.9925,0.00210942213 C86.1334838,-0.0199935644 85.2788652,0.131796896 84.48,0.448359422 C83.6761579,0.757494929 82.9432882,1.22630192 82.325625,1.82648442 L82.32375,1.82648442 Z M156.37875,162.708984 C159.87375,163.661484 162.069375,161.778984 161.14125,158.167734 L138.9825,62.0308594 C138.03,58.5527344 135.166875,57.6002344 132.654375,60.1183594 L60.48375,127.305234 C57.94875,129.823359 58.57875,132.665859 62.05125,133.618359 L156.37875,162.708984 Z M194.0475,28.6183594 L106.68375,1.82460942 C103.213125,0.866484422 102.583125,2.14148442 105.418125,4.98210942 L137.394375,39.4577344 C138.828292,40.8036826 140.564474,41.7855897 142.456875,42.3208594 C144.346328,42.848297 146.334102,42.9189906 148.25625,42.5271094 L194.165625,32.0964844 C197.540625,31.1439844 197.540625,29.5558594 194.0475,28.6183594" id="Shape" fill="#FFFFFF"></path>
        </g>
    </g>
</svg>