<?xml version="1.0" encoding="UTF-8"?>
<svg width="240px" height="240px" viewBox="0 0 240 240" version="1.1" xmlns="http://www.w3.org/2000/svg" xmlns:xlink="http://www.w3.org/1999/xlink">
    <title>insomnia</title>
    <defs>
        <linearGradient x1="50.0005705%" y1="100%" x2="50.0005705%" y2="0%" id="linearGradient-1">
            <stop stop-color="#7400E1" offset="0%"></stop>
            <stop stop-color="#4000BF" offset="100%"></stop>
        </linearGradient>
    </defs>
    <g id="Page-1" stroke="none" stroke-width="1" fill="none" fill-rule="evenodd">
        <g id="insomnia" fill-rule="nonzero">
            <path d="M120,234 C182.960294,234 234,182.960294 234,120 C234,57.0397063 182.960294,6 120,6 C57.0378297,6 6,57.0397063 6,120 C6,182.96217 57.0397063,234 120,234 Z" id="Path" fill="#FFFFFF"></path>
            <path d="M120,0 C53.72625,0 0,53.72625 0,120 C0,186.27375 53.72625,240 120,240 C186.27375,240 240,186.27375 240,120 C240,53.72625 186.27375,0 120,0 Z M120,12.204375 C179.535,12.204375 227.7975,60.466875 227.7975,120 C227.7975,179.535 179.535,227.7975 120,227.7975 C60.465,227.7975 12.2025,179.535 12.2025,120 C12.2025,60.465 60.465,12.204375 120,12.204375 Z" id="Shape" fill="#4000BF"></path>
            <path d="M121.499099,35 C168.719768,35 207,73.2798288 207,120.5 C207,167.720171 168.719768,206 121.499099,206 C74.2803066,206 36,167.720171 36,120.5 C35.9853127,109.320027 38.1706003,98.2464049 42.4314085,87.9101624 C48.4817796,96.1505158 58.2423193,101.500834 69.2489651,101.500834 C87.6140182,101.500834 102.499733,86.6152766 102.499733,68.250417 C102.499733,57.2420105 97.1512346,47.4834504 88.9089177,41.4331431 C99.2454962,37.1731325 110.319084,34.9878978 121.499099,35.0018766 L121.499099,35 Z" id="Path" fill="url(#linearGradient-1)"></path>
        </g>
    </g>
</svg>