<?xml version="1.0" encoding="UTF-8"?>
<svg width="240px" height="241px" viewBox="0 0 240 241" version="1.1" xmlns="http://www.w3.org/2000/svg" xmlns:xlink="http://www.w3.org/1999/xlink">
    <title>IntelligenceX</title>
    <g id="Page-1" stroke="none" stroke-width="1" fill="none" fill-rule="evenodd">
        <g id="IntelligenceX" transform="translate(0, 0.2904)">
            <rect id="box" fill="#FFFFFF" x="0" y="0" width="240" height="240" rx="32"></rect>
            <g id="shape" transform="translate(41, 61)" fill="#1585FF" fill-rule="nonzero">
                <path d="M73.6213037,118 L3.37869634,118 C1.46083731,118 0,116.543689 0,114.650485 L0,106.487055 C0,104.44822 1.46083731,103 3.37869634,103 L73.6213037,103 C75.5310016,103 77,104.44822 77,106.487055 L77,114.650485 C77,116.543689 75.5310016,118 73.6213037,118" id="-"></path>
                <path d="M158,100.646275 C158,101.970245 156.963213,103 155.640697,103 L144.76668,103 C142.121649,103 140.799133,101.528922 139.917456,100.204951 L116.683632,63.7058637 L93.7600282,100.204951 C92.8783511,101.528922 91.7027817,103 89.3598065,103 L79.5062487,103 C78.0367869,103 77,101.970245 77,100.646275 C77,99.9107355 77.302056,99.1751964 77.8898408,98.2925494 L107.581133,51.4959137 L79.5062487,7.06117591 C78.6245717,5.58192494 77.1632735,3.81663096 77.1632735,2.49266048 C77.1632735,1.02975482 78.3225156,0 79.6450312,0 L90.6823221,0 C93.0252973,0 94.3478129,1.46290566 95.22949,2.93398397 L117.720419,38.4033167 L140.505241,2.93398397 C141.5257,1.32397048 142.709434,0 145.068736,0 L155.052913,0 C156.375428,0 157.412215,1.02975482 157.412215,2.49266048 C157.412215,3.5224153 156.375428,5.29588193 155.795807,6.03142109 L126.831082,50.7603745 L156.0897,96.5272554 C156.963213,98.1454416 158,99.469412 158,100.646275" id="x"></path>
            </g>
        </g>
    </g>
</svg>