<?xml version="1.0" encoding="UTF-8"?>
<!DOCTYPE svg PUBLIC "-//W3C//DTD SVG 1.1//EN" "http://www.w3.org/Graphics/SVG/1.1/DTD/svg11.dtd">
<svg xmlns="http://www.w3.org/2000/svg" version="1.1" width="460px" height="460px" style="shape-rendering:geometricPrecision; text-rendering:geometricPrecision; image-rendering:optimizeQuality; fill-rule:evenodd; clip-rule:evenodd" xmlns:xlink="http://www.w3.org/1999/xlink">
<g><path style="opacity:1" fill="#09090b" d="M -0.5,-0.5 C 152.833,-0.5 306.167,-0.5 459.5,-0.5C 459.5,152.833 459.5,306.167 459.5,459.5C 306.167,459.5 152.833,459.5 -0.5,459.5C -0.5,306.167 -0.5,152.833 -0.5,-0.5 Z"/></g>
<g><path style="opacity:1" fill="#fbfbfb" d="M 221.5,57.5 C 260.478,53.157 295.478,62.657 326.5,86C 328.888,88.0505 330.888,90.3838 332.5,93C 332.266,94.7324 331.266,95.5658 329.5,95.5C 291.995,77.9122 253.329,74.7455 213.5,86C 177.305,98.1953 153.138,122.362 141,158.5C 133.865,189.838 139.865,218.171 159,243.5C 161.651,246.48 164.651,249.147 168,251.5C 176.391,261.467 176.558,271.467 168.5,281.5C 159.576,286.973 150.909,286.473 142.5,280C 112.197,251.861 98.6966,217.028 102,175.5C 109.088,125.424 135.588,89.9238 181.5,69C 194.51,63.6025 207.843,59.7691 221.5,57.5 Z"/></g>
<g><path style="opacity:1" fill="#fbfbfb" d="M 257.5,101.5 C 316.185,98.7489 359.352,123.082 387,174.5C 402.38,208.63 405.714,243.964 397,280.5C 391.337,300.137 381.504,317.304 367.5,332C 365.08,332.915 363.747,332.082 363.5,329.5C 380.59,293.112 384.09,255.445 374,216.5C 362.796,179.964 339.296,155.131 303.5,142C 271.167,132.946 241.834,138.612 215.5,159C 212.462,161.703 209.795,164.703 207.5,168C 200.184,174.531 191.851,176.197 182.5,173C 172.988,165.432 171.154,156.266 177,145.5C 190.841,127.985 208.341,115.485 229.5,108C 238.889,105.484 248.222,103.317 257.5,101.5 Z"/></g>
<g><path style="opacity:1" fill="#fbfbfb" d="M 91.5,126.5 C 93.9477,126.085 95.2811,127.085 95.5,129.5C 76.232,170.691 74.3986,212.691 90,255.5C 115.143,308.987 156.643,329.153 214.5,316C 230.64,310.178 244.307,300.844 255.5,288C 264.97,282.691 273.803,283.525 282,290.5C 286.228,297.319 286.561,304.319 283,311.5C 268.356,331.254 249.189,344.754 225.5,352C 163.083,366.983 113.916,348.149 78,295.5C 55.2131,254.314 51.2131,211.314 66,166.5C 72.2389,151.68 80.7389,138.347 91.5,126.5 Z"/></g>
<g><path style="opacity:1" fill="#fbfbfb" d="M 297.5,173.5 C 303.166,173.167 308.499,174.334 313.5,177C 338.583,197.992 353.083,224.825 357,257.5C 359.75,322.026 331.584,366.859 272.5,392C 242.752,402.3 212.419,404.3 181.5,398C 163.364,393.075 147.031,384.741 132.5,373C 130.112,370.95 128.112,368.616 126.5,366C 126.734,364.268 127.734,363.434 129.5,363.5C 170.736,382.714 212.736,384.548 255.5,369C 304.909,346.208 326.076,307.708 319,253.5C 314.448,235.014 305.115,219.68 291,207.5C 282.649,197.37 282.483,187.204 290.5,177C 292.713,175.384 295.047,174.217 297.5,173.5 Z"/></g>
</svg>
