<?xml version="1.0" encoding="UTF-8"?>
<svg width="240px" height="240px" viewBox="0 0 240 240" version="1.1" xmlns="http://www.w3.org/2000/svg" xmlns:xlink="http://www.w3.org/1999/xlink">
    <title>internet-explorer</title>
    <g id="Page-1" stroke="none" stroke-width="1" fill="none" fill-rule="evenodd">
        <g id="internet-explorer" transform="translate(0, -0)">
            <rect id="ViewBox" x="0" y="0" width="240" height="240"></rect>
            <path d="M236.45625,125.31375 C236.45625,106.90125 231.695625,89.625 223.348125,74.593125 C258.931875,-5.938125 185.221875,5.86875 181.1175,6.67125 C165.5025,9.725625 151.05375,14.638125 137.72625,20.8575 C135.749487,20.7452924 133.769945,20.6890199 131.79,20.68875 C82.055625,20.68875 40.423125,55.378125 29.769375,101.881875 C55.981875,72.474375 74.32875,60.609375 85.314375,55.861875 C83.561875,57.429375 81.8425,59.011875 80.15625,60.609375 L78.496875,62.2125 C77.383125,63.283125 76.273125,64.355625 75.1875,65.4375 C74.5425,66.080625 73.9125,66.729375 73.276875,67.378125 C72.313125,68.356875 71.353125,69.335625 70.41375,70.32 L68.44125,72.42375 C67.56125,73.36375 66.6925,74.305 65.835,75.2475 L63.860625,77.450625 C61.6149422,79.9707738 59.4170503,82.5331056 57.268125,85.13625 C56.615625,85.9225 55.97125,86.7075 55.335,87.49125 C54.64875,88.34125 53.971875,89.18875 53.304375,90.03375 C52.649375,90.855 52.003125,91.675 51.365625,92.49375 L49.57875,94.83 C48.91125,95.709375 48.238125,96.58875 47.585625,97.4625 L46.215,99.33375 C42.2716542,104.714159 38.4942534,110.214244 34.888125,115.82625 L34.86375,115.865625 C33.965625,117.26625 33.099375,118.644375 32.248125,120.01125 L32.109375,120.23625 C31.259375,121.60625 30.435,122.95875 29.63625,124.29375 L29.551875,124.434375 C27.509543,127.837651 25.5267412,131.276299 23.604375,134.74875 C14.17875,151.831875 9.58875,163.768125 9.39,164.475 C-20.3775,270.898125 72.52875,225.958125 85.4925,219.249375 C99.451875,226.145625 115.168125,230.44875 131.79,230.44875 C177.305625,230.446875 216.024375,200.625 230.4375,161.25 L175.441875,161.25 C167.304375,174.375 151.640625,183.841875 133.6425,183.841875 C107.270625,183.841875 85.89375,163.125 85.89375,138.75 L235.5975,138.75 C236.165625,135 236.45625,129.88125 236.45625,125.31375 M25.36125,219.031875 C18.01875,211.50375 16.72125,193.16625 32.92125,159.751875 C41.09625,183.25875 57.410625,202.95375 78.496875,215.454375 C68.01,221.2275 40.17,234.22125 25.36125,219.031875 M85.663125,110.625 C86.499375,86.25 107.345625,67.490625 132.961875,67.490625 C158.578125,67.490625 179.42625,86.25 180.2625,110.625 L85.663125,110.625 Z M169.618125,27.7425 C179.304375,23.064375 203.289375,13.171875 216.905625,22.359375 C225.91875,28.44375 233.14875,37.996875 220.734375,70.17 C208.82625,51.020625 190.9125,36 169.618125,27.7425" id="Shape" fill="#1EBBEE" fill-rule="nonzero"></path>
        </g>
    </g>
</svg>