<?xml version="1.0" encoding="UTF-8"?>
<svg width="240px" height="240px" viewBox="0 0 240 240" version="1.1" xmlns="http://www.w3.org/2000/svg" xmlns:xlink="http://www.w3.org/1999/xlink">
    <title>intigriti</title>
    <g id="Page-1" stroke="none" stroke-width="1" fill="none" fill-rule="evenodd">
        <g id="intigriti">
            <rect id="box" fill="#FFFFFF" x="0" y="0" width="240" height="240" rx="32"></rect>
            <path d="M180.539806,77.7924854 L177.960221,75 L94.638793,116.755092 C91.5605978,118.291785 88.3917463,119.481483 85.1981703,120.328316 C84.7902167,120.439851 84.4111083,120.53073 84.0608451,120.617479 C83.8854226,124.927352 84.0895032,129.244338 84.6707151,133.518266 C85.0786687,136.426416 85.6308483,139.272603 86.3313746,142.089874 C87.8436874,148.11272 90.0153191,153.945544 92.8050622,159.493337 C95.5829472,164.941549 98.9358087,170.075327 102.806106,174.806566 C106.668063,179.513478 111.034846,183.780196 115.827655,187.529724 L118.96354,190 L122.099426,187.533855 C126.8793,183.766414 131.244526,179.498449 135.120974,174.802435 C138.989385,170.072149 142.340838,164.939797 145.117897,159.493337 C147.920106,153.953502 150.092985,148.115782 151.595706,142.089874 C152.526994,138.4299 153.161588,134.683178 153.573663,130.878624 C153.919805,127.474766 154.010461,124.017206 153.862115,120.592694 C153.483006,120.505945 153.079173,120.415065 152.642375,120.2994 C149.38167,119.435775 146.218168,118.238406 143.201752,116.726176 L137.03712,113.644527 L125.705076,119.312116 L138.640089,125.785229 C140.263662,126.603147 141.949046,127.359101 143.605585,127.999389 C143.288396,131.919231 142.647484,135.805953 141.689439,139.619598 C140.373946,144.9139 138.463436,150.04147 135.994572,154.903912 C133.563101,159.693853 130.620135,164.205052 127.217389,168.358238 C124.679941,171.442544 121.900573,174.318548 118.90585,176.958763 C115.911059,174.317128 113.131695,171.439747 110.594311,168.354108 C103.701279,159.971731 98.7562719,150.156127 96.1181398,139.619598 C95.160393,135.796103 94.5194965,131.899801 94.2019942,127.970473 C95.8626537,127.301268 97.5150718,126.57423 99.1468861,125.760444 C99.1468861,125.760444 165.630957,92.4654262 175.368273,87.5827077 C177.634682,91.0691835 178.854422,95.162901 178.854422,99.3805453 C178.862894,105.140003 176.571743,110.663321 172.491995,114.71856 C169.095267,118.119803 164.669432,120.296043 159.907245,120.906642 C160.022626,124.3105 159.907245,127.735012 159.585827,131.134739 C163.017126,130.869912 166.383899,130.055433 169.558026,128.722296 C173.342595,127.132074 176.779528,124.813621 179.67445,121.898057 C185.65792,115.953714 189.016512,107.854192 189,99.4094615 C189.035142,91.3855291 186.008489,83.6517273 180.539806,77.7924854 Z M60.020785,75 C60.020785,75 75.2608055,82.6419304 90.1060465,90.0918173 L91.4961541,90.7894425 C99.3614691,94.7367542 106.977475,98.5607737 112,101.086931 L100.725127,106.729352 C96.594754,104.65546 92.0031897,102.352283 87.4050056,100.046411 L86.0258064,99.3547944 C76.8358818,94.7465025 67.8013071,90.2180628 62.5586564,87.5821872 C60.3077818,91.0582481 59.0900955,95.1150254 59.0900955,99.3447819 C59.0755215,105.089469 61.3559755,110.599853 65.4204242,114.641097 C68.8181629,118.054836 73.2571635,120.225676 78.0277823,120.806575 C77.9381558,124.204354 78.0339711,127.608855 78.3188791,131 C74.884909,130.753849 71.5147429,129.941228 68.3436913,128.594764 C64.5855101,126.997982 61.169315,124.687811 58.2824046,121.79091 C52.3276166,115.865006 48.9844574,107.789593 49.0000543,99.3694933 C48.9914118,91.3585717 52.0117062,83.6432967 57.4501139,77.7841436 Z M81,50 C87.6974411,49.9864417 94.2328393,52.0286036 99.697873,55.8427237 C102.340028,57.6676588 104.680803,59.8829766 106.637716,62.4106187 C107.047159,62.9565851 107.452465,63.4984772 107.837093,64.0403693 C108.035611,63.8122042 108.2424,63.6125598 108.474004,63.3803203 C110.929905,60.9473698 113.530381,58.6603305 116.261682,56.5312933 L119.52895,54.0418493 L122.680417,56.4783264 C125.682691,58.8170545 128.528517,61.344353 131.200129,64.0444437 C137.210476,55.271354 147.256224,50.0176069 158,50.0285884 L158,60.0311828 C153.413061,60.0267395 148.93827,61.4278434 145.195617,64.0403693 C142.202846,66.1145515 139.784423,68.893453 138.160651,72.1239324 C141.127073,76.0149592 143.733178,80.1571763 145.952465,84.5018883 L136.857879,88.9755537 C132.584135,80.5771036 126.699426,73.0737744 119.52895,66.8802098 C118.217907,68.0251096 116.964765,69.19853 115.736438,70.4004711 C110.238209,75.8482549 105.659959,82.1274264 102.175207,89 L93.0764851,84.5304089 C95.291979,80.1741826 97.8967771,76.0209352 100.860028,72.119858 C99.2200558,68.887155 96.7967338,66.1023894 93.8043829,64.0118487 C90.0408207,61.3798014 85.6072618,60.0026622 81,60.0026622 Z" id="Shape" fill="#151935" fill-rule="nonzero"></path>
        </g>
    </g>
</svg>