<?xml version="1.0" encoding="UTF-8"?>
<svg width="240px" height="240px" viewBox="0 0 240 240" version="1.1" xmlns="http://www.w3.org/2000/svg" xmlns:xlink="http://www.w3.org/1999/xlink">
    <title>ionic</title>
    <g id="Page-1" stroke="none" stroke-width="1" fill="none" fill-rule="evenodd">
        <g id="ionic">
            <rect id="ViewBox" x="0" y="0" width="240" height="240"></rect>
            <g id="Group" fill="#4E8EF7" fill-rule="nonzero">
                <circle id="Oval" cx="120" cy="120" r="45.15"></circle>
                <path d="M212.1375,43.3875 C212.146604,37.306141 208.599998,31.7808379 203.067189,29.2567464 C197.534381,26.7326548 191.03685,27.6757787 186.45,31.66875 C140.035344,-3.25650464 74.5139624,3.66470364 36.4207755,47.5167601 C-1.6724114,91.3688165 0.638448332,157.214199 41.7121245,198.287876 C82.7858006,239.361552 148.631183,241.672411 192.48324,203.579225 C236.335296,165.486038 243.256505,99.9646564 208.33125,53.55 C210.78707,50.7341726 212.139295,47.1237992 212.1375,43.3875 M120,226.875036 C73.5042001,226.912993 32.3185459,196.885639 18.133112,152.606588 C3.94767815,108.327538 20.0176045,59.9575305 57.879801,32.97022 C95.7419975,5.9829094 146.708203,6.57108941 183.9375,34.425 C179.563287,40.5918766 180.274371,49.0144418 185.62059,54.3606605 C190.966808,59.7068791 199.389373,60.4179632 205.55625,56.04375 C229.750837,88.4360786 233.595343,131.708496 215.490384,167.858896 C197.385426,204.009297 160.430685,226.848506 120,226.875036" id="Shape"></path>
            </g>
        </g>
    </g>
</svg>