<?xml version="1.0" encoding="UTF-8"?>
<svg width="242px" height="242px" viewBox="0 0 242 242" version="1.1" xmlns="http://www.w3.org/2000/svg" xmlns:xlink="http://www.w3.org/1999/xlink">
    <title>ionos</title>
    <g id="Page-1" stroke="none" stroke-width="1" fill="none" fill-rule="evenodd">
        <g id="ionos">
            <rect id="box" fill="#003D8F" x="0" y="0" width="242" height="242" rx="32"></rect>
            <g id="Group" transform="translate(27, 93)" fill="#FFFFFF" fill-rule="nonzero">
                <path d="M172.881866,53.9723996 C171.957575,53.974824 171.035322,53.8822123 170.130509,53.6958648 C168.181819,53.2975444 166.339126,52.4997797 164.72088,51.3540466 C163.102861,50.2085383 161.745301,48.7402375 160.735624,47.0442288 L160.683985,46.949594 C160.182997,46.0106638 160.0616,44.9182049 160.344482,43.8938561 C160.627137,42.8697321 161.293007,41.9899206 162.20688,41.4331262 C162.83991,41.0563853 163.564893,40.8576746 164.303692,40.858349 C165.039546,40.8594729 165.762038,41.0541374 166.396653,41.4223365 C167.031495,41.7907604 167.555811,42.3194565 167.915924,42.9542516 L168.055666,43.1871297 L168.497088,43.776518 L169.085727,44.3661311 C169.851024,45.020932 170.777128,45.4653335 171.77095,45.6541536 C172.574751,45.8079071 173.402106,45.7941951 174.200244,45.6136921 C174.998382,45.4334139 175.749638,45.0901661 176.405995,44.6062023 C177.084096,44.1289821 177.646462,43.5085733 178.052325,42.7899332 C178.458189,42.0710683 178.697585,41.2721796 178.752848,40.4508124 C178.820794,39.6375374 178.712307,38.819542 178.434408,38.0512242 C178.156509,37.2831312 177.715767,36.5826987 177.141623,35.9969069 C177.141623,35.9969069 163.575311,22.1695019 163.281105,21.783792 L162.611611,20.8013208 C161.024394,18.3507062 160.307338,15.4470359 160.573686,12.5485582 C160.718864,10.5401422 161.319959,8.58994573 162.332127,6.84293314 L162.920539,5.82409159 C163.991367,4.30919279 165.391506,3.05088695 167.018358,2.14163747 L167.687852,1.66859602 C170.817442,-0.0331159461 174.496941,-0.452783803 177.935911,0.499739194 C181.374882,1.45225994 184.299048,3.7009899 186.080364,6.76288692 C186.358037,7.22497905 186.538773,7.73755806 186.611928,8.27014301 C186.68531,8.80272795 186.649525,9.34446168 186.507065,9.86313239 C186.365964,10.3911767 186.11932,10.8859526 185.782082,11.3183955 C185.444617,11.7508159 185.023352,12.1121591 184.542748,12.3811602 C183.930555,12.7404128 183.231391,12.9290081 182.519544,12.926985 C181.787767,12.9250069 181.069578,12.7305223 180.438587,12.3635145 C179.807822,11.9964843 179.286903,11.4701034 178.929281,10.8383205 C178.54131,10.1849807 178.01722,9.62067845 177.391891,9.18279575 C176.766562,8.74493553 176.054262,8.4434978 175.302327,8.29846601 C174.537935,8.15118637 173.750895,8.16247062 172.991033,8.33157696 C172.231171,8.5006833 171.515247,8.82394773 170.888106,9.28093722 C170.285652,9.7453896 169.790326,10.3316534 169.435195,11.0005484 C169.079838,11.6694435 168.873056,12.4055944 168.828212,13.1598631 C168.764569,13.917009 168.862638,14.6789654 169.116076,15.3961444 C169.369514,16.1133459 169.772887,16.7697204 170.299694,17.322626 L183.049296,30.3275848 C184.972393,32.3014287 186.265404,34.7916056 186.766845,37.4876862 C187.268512,40.1835421 186.95664,42.9661652 185.869732,45.4878121 C184.78305,48.009459 182.969799,50.1588606 180.65624,51.6676228 C178.342681,53.1766097 175.630959,53.9781958 172.859897,53.9723996 L172.881866,53.9723996 Z" id="Path"></path>
                <path d="M132.549385,53.9647086 C128.915636,53.9608873 125.431595,52.5312497 122.862106,49.9893721 C120.292618,47.4477193 118.847408,44.0013037 118.843557,40.4067543 L118.843557,13.5888443 C118.843557,11.8083611 119.198009,10.0453213 119.886754,8.40038389 C120.575499,6.75542403 121.585176,5.26080091 122.857803,4.00182071 C124.130657,2.74281804 125.641548,1.74413978 127.304412,1.06278261 C128.967275,0.381423199 130.749497,0.0307326563 132.549385,0.0307326563 C134.349499,0.0307326563 136.131721,0.381423199 137.794585,1.06278261 C139.457448,1.74413978 140.968339,2.74281804 142.241193,4.00182071 C143.513821,5.26080091 144.523497,6.75542403 145.212243,8.40038389 C145.900988,10.0453213 146.255439,11.8083611 146.255439,13.5888443 L146.255439,40.4067543 C146.251589,44.0013037 144.806379,47.4477193 142.23689,49.9893721 C139.667175,52.5312497 136.18336,53.9608873 132.549385,53.9647086 Z M132.549385,8.21799271 C131.110064,8.21992586 129.730308,8.78638603 128.712478,9.79320153 C127.694648,10.800017 127.12209,12.1649837 127.120052,13.5888443 L127.120052,40.4067543 C127.112125,41.1141552 127.247111,41.8159364 127.517309,42.4711869 C127.787281,43.1264375 128.187029,43.7214455 128.692774,44.2218186 C129.198518,44.7221917 129.800066,45.1173651 130.462539,45.3846354 C131.124785,45.6516809 131.834367,45.7852037 132.549385,45.7778715 C133.988933,45.7755379 135.368688,45.2090777 136.386519,44.2022622 C137.404349,43.1954467 137.976906,41.8305475 137.978945,40.4067543 L137.978945,13.5888443 C137.95992,12.1702662 137.3817,10.8150777 136.36772,9.81190371 C135.353514,8.80872973 133.983497,8.23682975 132.549385,8.21799271 Z" id="Shape"></path>
                <path d="M79.316009,27.6917467 L79.316009,49.9100227 C79.316009,50.9948389 78.8804755,52.0351475 78.1049859,52.8021166 C77.3297228,53.5690857 76.2781462,54 75.1814988,54 C74.0848514,54 73.0332748,53.5690857 72.2577852,52.8021166 C71.482522,52.0351475 71.0467621,50.9948389 71.0467621,49.9100227 L71.0467621,10.7058093 L79.316009,27.6917467 Z M101.644402,43.3094131 L101.644402,4.11963094 C101.599558,3.06378966 101.143867,2.06598581 100.372681,1.33464753 C99.6014947,0.603306993 98.5746051,0.194992392 97.5062685,0.194992392 C96.4379319,0.194992392 95.4108158,0.603306993 94.639856,1.33464753 C93.8686696,2.06598581 93.4129788,3.06378966 93.367908,4.11963094 L93.367908,26.3162826 L101.644402,43.3094131 Z M78.9262258,2.35117378 L78.9262258,2.27111857 C78.5534291,1.61170724 78.0103146,1.06208128 77.3523714,0.678470862 C76.6944283,0.294860443 75.9452111,0.0910357125 75.1814988,0.087807272 C74.9020145,0.0865355012 74.6232097,0.11582374 74.350067,0.175180223 C73.4201136,0.354336512 72.5834727,0.851220982 71.9862279,1.57892898 C71.3892096,2.30664372 71.0696372,3.21884689 71.0836794,4.15600128 L71.0836794,5.09481909 L93.7873609,51.7222457 C94.1431712,52.3858133 94.6717905,52.9435068 95.3186359,53.3375563 C95.9652547,53.7316058 96.7065448,53.9476249 97.4657274,53.9635999 C97.7857528,53.9644838 98.1046457,53.9253711 98.4147057,53.8471457 C99.3285785,53.6581008 100.148686,53.1635721 100.736871,52.4462807 C101.325057,51.7292141 101.645761,50.8336675 101.644407,49.9100227 L101.644407,48.9857036 C101.644407,48.9857036 79.5368333,3.59563281 78.9262258,2.35117378 Z" id="Shape"></path>
                <path d="M40.0217417,53.9647086 C36.3873136,53.9629103 32.9023666,52.5337224 30.3324248,49.99162 C27.762483,47.4492928 26.3177259,44.0019781 26.3156875,40.4067543 L26.3156875,13.5888443 C26.3156875,9.99301361 27.7597651,6.5444401 30.3301599,4.00179823 C32.9005547,1.4591721 36.3868606,0.0307326563 40.0217417,0.0307326563 C43.6568493,0.0307326563 47.1431553,1.4591721 49.7135501,4.00179823 C52.2839448,6.5444401 53.727796,9.99301361 53.727796,13.5888443 L53.727796,40.4067543 C53.7259841,44.0019781 52.281227,47.4492928 49.7112852,49.99162 C47.1413434,52.5337224 43.6563963,53.9629103 40.0217417,53.9647086 Z M40.0217417,8.21798767 C39.3085359,8.21702613 38.6021247,8.35529186 37.9428226,8.62487745 C37.283747,8.89444055 36.6849168,9.29001857 36.1805315,9.7889306 C35.6761462,10.2878651 35.2761711,10.8803105 35.0037079,11.5323691 C34.7312447,12.1844277 34.5915025,12.8832642 34.5924041,13.5888443 L34.5924041,40.4067543 C34.5924041,41.830997 35.1645133,43.197245 36.1825699,44.2045101 C37.200853,45.2115504 38.5817409,45.777561 40.0217417,45.777561 C41.4617426,45.777561 42.842857,45.2115504 43.8611401,44.2045101 C44.8791967,43.197245 45.4513015,41.830997 45.4513015,40.4067543 L45.4513015,13.5888443 C45.4322766,12.1702662 44.8540567,10.8150777 43.8400769,9.81190371 C42.8258705,8.80872973 41.455854,8.23682975 40.0217417,8.21798767 Z" id="Shape"></path>
                <path d="M4.49571081,53.9436333 C3.90020997,53.946501 3.31009952,53.8318602 2.75998657,53.6061753 C2.20987815,53.3807152 1.71084696,53.0487066 1.29215957,52.6297059 C0.873474451,52.2107052 0.543565224,51.7134791 0.321780629,51.1668 C0.0999967137,50.620121 -0.00919623311,50.0350036 0.000606048504,49.4460649 L0.000606048504,4.41969748 C0.0218845029,3.2492604 0.508890148,2.13432968 1.35594722,1.31685348 C2.20300429,0.499377288 3.34176232,0.0452991794 4.52515404,0.0526843986 C5.51610022,0.0388081978 6.48310679,0.354756862 7.27046429,0.950128973 C8.05784445,1.54550108 8.61975734,2.38565592 8.86576693,3.33533088 C8.89609346,3.43823781 8.92064459,3.54269576 8.93932973,3.64827764 L8.93932973,3.84476289 C8.98145621,4.08505889 9.00113788,4.32865924 8.99819356,4.57252933 C8.99819356,4.57252933 8.99819356,48.9656977 8.99819356,49.4750623 C9.00208912,50.0617531 8.88839292,50.643274 8.66367306,51.1863564 C8.43897585,51.7292141 8.10769412,52.2226188 7.68903391,52.6382477 C7.27035105,53.0536519 6.77257912,53.382963 6.22445926,53.6070745 C5.67633939,53.8311859 5.08878823,53.9453771 4.49571081,53.9436333 Z" id="Path"></path>
            </g>
        </g>
    </g>
</svg>