<?xml version="1.0" encoding="UTF-8"?>
<svg width="240px" height="240px" viewBox="0 0 240 240" version="1.1" xmlns="http://www.w3.org/2000/svg" xmlns:xlink="http://www.w3.org/1999/xlink">
    <title>ipdata</title>
    <g id="Page-1" stroke="none" stroke-width="1" fill="none" fill-rule="evenodd">
        <g id="ipdata">
            <rect id="box" x="0" y="0" width="240" height="240"></rect>
            <path d="M19.7288484,122.574691 C24.7569733,138.806966 33.632988,153.341642 45.2898306,165.127825 L119.620391,240 L163.006157,196.298966 L90.0013399,122.752535 C79.500481,112.178921 75.4909152,98.9699889 75.4909152,84.1442959 C75.4909152,60.7497726 88.1258978,40.3058372 106.936905,29.2633635 C116.370702,23.7259591 127.356589,20.5490249 139.086186,20.5490249 C162.003765,20.5490249 182.092013,32.6666442 193.279995,50.8471151 C200.523082,62.6090471 203.764687,77.806595 203.764687,91.5490586 C203.764687,112.591195 196.020404,132.630941 181.857583,148.168008 L177.468078,152.589848 L163.006157,138.022837 C176.037245,124.894742 183.239913,110.465155 183.239913,91.5490586 C183.239913,69.6015359 172.197439,49.0605948 151.793923,43.0300785 C139.352952,39.3519485 125.553901,41.3971505 114.818612,48.7857456 C140.314924,45.9240796 162.71514,65.7698137 162.71514,91.5490586 C162.71514,113.310654 147.994536,124.005524 134.082313,138.022837 L177.468078,181.731955 L196.715611,162.338913 C213.845188,143.70575 224.297544,118.848058 224.297544,91.5490586 C224.297544,73.4251743 219.657441,55.7054801 210.692505,39.9258985 C195.866812,15.9655091 169.343857,0 139.086186,0 C124.753605,0 111.253656,3.58920812 99.4351369,9.91074135 C72.9606851,24.0816464 54.9418903,52.0111826 54.9418903,84.1442959 C54.9418903,104.604399 61.4008481,123.075887 75.8304349,137.618647 L134.082313,196.298966 L119.620391,210.865977 L59.9295962,150.730574 C49.355983,139.979117 41.555114,125.71929 37.1736933,110.925932 C26.9881027,76.5536057 36.0177096,39.5621274 61.5625242,14.1224022 C20.6099828,34.6714271 6.68967566,80.5308363 19.7288484,122.574691 Z" id="Path" fill="#FFFFFF"></path>
        </g>
    </g>
</svg>