<?xml version="1.0" encoding="UTF-8"?>
<svg width="240px" height="240px" viewBox="0 0 240 240" version="1.1" xmlns="http://www.w3.org/2000/svg" xmlns:xlink="http://www.w3.org/1999/xlink">
    <title>ipfs</title>
    <g id="Page-1" stroke="none" stroke-width="1" fill="none" fill-rule="evenodd">
        <g id="ipfs" transform="translate(-41, 120)">
            <rect id="box" x="41" y="-120" width="240" height="240"></rect>
            <g id="shape" transform="translate(57.05, -119.65)" fill-rule="nonzero">
                <polygon id="Path" fill="#469EA2" points="-0.05 178.9 103.95 238.65 207.95 178.9 207.95 59.4 103.95 -0.35 -0.05 59.4"></polygon>
                <path d="M93.2824808,13.65 L17.6175192,57.1347775 C17.741543,58.4908699 17.741543,59.855383 17.6175192,61.2114754 L93.1584399,104.696253 C99.534723,100.00117 108.241236,100.00117 114.617519,104.696253 L190.15844,61.2114754 C190.034416,59.855383 190.034416,58.4908699 190.15844,57.1347775 L114.74156,13.65 C108.365277,18.3450833 99.6587639,18.3450833 93.2824808,13.65 L93.2824808,13.65 Z M197.476854,73.1944965 L121.811893,117.173419 C122.653024,124.997625 118.349134,132.47387 111.144373,135.703864 L111.268414,222.179274 C112.491705,222.71663 113.655662,223.379041 114.74156,224.155855 L190.282481,180.671077 C189.441349,172.846871 193.745239,165.370626 200.95,162.140632 L200.95,75.1710773 C199.740749,74.606401 198.579259,73.9453925 197.476854,73.1944965 L197.476854,73.1944965 Z M10.4231458,73.6886417 C9.33724731,74.4654546 8.17329031,75.1278671 6.95,75.6652225 L6.95,162.634778 C14.2537967,165.755033 18.6037761,173.311339 17.6175192,181.165222 L93.1584399,224.65 C94.2443384,223.873186 95.4082954,223.210775 96.6315857,222.673419 L96.6315857,135.703864 C89.327789,132.583609 84.9778096,125.027302 85.9640665,117.173419 L10.4231458,73.6886417 Z" id="Shape" fill="#6ACAD1"></path>
                <path d="M103.95,13.3391753 L196.930952,66.8061856 L196.930952,173.61701 L103.95,227.084021 L10.9690476,173.61701 L10.9690476,66.6829897 L103.95,13.3391753 Z M103.95,0.65 L-0.05,60.4 L-0.05,179.9 L103.95,239.65 L207.95,179.9 L207.95,60.4 L103.95,0.65 Z" id="Shape" fill="#469EA2"></path>
                <path d="M104.630547,140.231053 L103.145717,140.231053 C97.9894488,140.244058 93.0405685,138.210488 89.3945245,134.580356 C85.7484805,130.950224 83.7059976,126.022941 83.7190587,120.889175 L83.7190587,119.410825 C83.7059976,114.277059 85.7484805,109.349776 89.3945245,105.719644 C93.0405685,102.089512 97.9894488,100.055942 103.145717,100.068946 L104.630547,100.068946 C109.786815,100.055942 114.735696,102.089512 118.38174,105.719644 C122.027784,109.349776 124.070267,114.277059 124.057205,119.410825 L124.057205,120.889175 C124.070267,126.022941 122.027784,130.950224 118.38174,134.580356 C114.735696,138.210488 109.786815,140.244058 104.630547,140.231053 L104.630547,140.231053 Z M104.630547,219.692093 L103.145717,219.692093 C96.1174348,219.671198 89.6294361,223.443277 86.1939024,229.547938 L103.888132,239.65 L121.582362,229.547938 C118.146828,223.443277 111.658829,219.671198 104.630547,219.692093 L104.630547,219.692093 Z M207.95,159.942143 L207.207585,159.942143 C202.051317,159.929138 197.102436,161.962708 193.456393,165.59284 C189.810348,169.222972 187.767865,174.150255 187.781053,179.284021 L187.781053,180.762371 C187.763258,184.045878 188.616963,187.275797 190.25577,190.125258 L207.95,179.9 L207.95,159.942143 Z M190.25577,50.2979381 C188.63147,53.1532934 187.7788,56.3792968 187.780927,59.6608247 L187.780927,61.1391753 C187.767865,66.2729408 189.810348,71.2002237 193.456393,74.830356 C197.102436,78.4604884 202.051317,80.4940577 207.207585,80.4810536 L207.95,80.4810536 L207.95,60.4 L190.25577,50.2979381 Z M103.888132,0.65 L86.1939024,10.7520619 C89.6128582,16.8890565 96.0971544,20.7061065 103.145717,20.7311028 L104.630547,20.7311028 C111.658829,20.7519975 118.146828,16.9799191 121.582362,10.8752577 L103.888132,0.65 Z M17.6442296,50.1747423 L-0.05,60.4 L-0.05,80.4810536 L0.692415229,80.4810536 C5.84868327,80.4940577 10.7975635,78.4604884 14.4436075,74.830356 C18.0896515,71.2002237 20.1321345,66.2729408 20.1190734,61.1391753 L20.1190734,59.6608247 C20.0770222,56.3460237 19.2278188,53.0908585 17.6442296,50.1747423 Z M0.692415229,159.942143 L-0.05,159.942143 L-0.05,179.9 L17.6442296,190.125258 C19.2685307,187.269903 20.1212002,184.043899 20.1190734,180.762371 L20.1190734,179.284021 C20.1321345,174.150255 18.0896515,169.222972 14.4436075,165.59284 C10.7975635,161.962708 5.84868327,159.929138 0.692415229,159.942143 L0.692415229,159.942143 Z" id="Shape" fill="#469EA2"></path>
                <polygon id="Path" fill-opacity="0.15" fill="#083B54" points="103.95 239.65 103.95 120.275687 -0.05 60.65 -0.05 180.024313"></polygon>
                <polygon id="Path" fill-opacity="0.05" fill="#083B54" points="207.95 178.901374 207.95 59.65 103.95 119.275687 103.95 238.65"></polygon>
            </g>
        </g>
    </g>
</svg>