<?xml version="1.0" encoding="UTF-8"?>
<svg width="241px" height="242px" viewBox="0 0 241 242" version="1.1" xmlns="http://www.w3.org/2000/svg" xmlns:xlink="http://www.w3.org/1999/xlink">
    <title>ipinfo</title>
    <g id="Page-1" stroke="none" stroke-width="1" fill="none" fill-rule="evenodd">
        <g id="ipinfo" transform="translate(0.4995, 0.442)">
            <rect id="box" x="0" y="0.735959853" width="240" height="240"></rect>
            <path d="M130.688736,180.873993 L146.244955,199.058571 L164.215596,183.318978 L181.81949,167.915571 C200.737564,151.259109 212.351244,127.726125 214.154421,102.45109 C215.957597,77.1760548 207.797459,52.1760803 191.44662,32.9523836 C174.973532,13.8203738 151.715609,2.08444452 126.715635,0.250705563 C101.71566,-1.58303339 77.021309,6.69935423 58.0115485,23.2335671 C39.0934749,39.859467 27.4797948,63.4230126 25.6766182,88.6980479 C23.8734416,113.973083 32.0335799,138.973058 48.384419,158.196754 L110.456483,230.751692 C115.988262,237.230903 121.825664,244.260236 130.841547,236.772469 L131.116608,236.558532 L131.391669,236.314034 C140.010242,228.337269 133.989466,221.521873 128.427124,215.0121 L124.54571,210.488877 L66.3550607,142.426599 C54.1301343,128.031749 48.0176712,109.327611 49.3929754,90.4095376 C50.7377173,71.491464 59.4479773,53.8570077 73.5677673,41.3875828 C87.8098065,29.0098449 106.300008,22.8668194 125.004145,24.2115613 C143.708282,25.5868655 161.128802,34.3582502 173.475978,48.661414 C185.700904,63.0562648 191.813368,81.7604022 190.468626,100.678476 C189.123884,119.596549 180.413624,137.231006 166.293834,149.700431 L148.68994,165.103838 L133.133721,146.91926 L117.577502,128.734682 L102.357469,110.947414 C98.3843678,106.210255 96.3978173,100.067229 96.856252,93.8630793 C97.3146868,87.6589291 100.12642,81.8826514 104.74133,77.7567388 C109.447926,73.7225131 115.499265,71.7359625 121.64229,72.1943973 C127.785316,72.652832 133.500469,75.4951274 137.565257,80.1711617 C140.957674,84.2053874 142.913662,89.2787319 143.127598,94.5660126 C143.341535,99.8532932 141.813419,105.079449 138.787749,109.388736 C138.634938,109.602672 138.512689,109.786046 138.359877,109.96942 C136.801199,112.231031 136.067703,114.920515 136.189953,117.671123 C136.342764,120.421732 137.351321,123.019529 139.123935,125.097766 C146.947888,134.235899 155.566461,127.940062 160.150808,120.207796 C165.254715,111.589223 167.577451,101.564783 166.752269,91.5403433 C165.927086,81.5159036 162.01511,72.0415857 155.535899,64.4010067 C147.345198,54.9266888 135.76208,49.0892864 123.35378,48.172417 C110.914917,47.2555475 98.6594287,51.3508978 89.1851107,59.5415985 C79.8024797,67.8239861 74.0567643,79.5293531 73.1398949,92.1210273 C72.2535877,104.682139 76.2878134,117.090439 84.3868271,126.687007 L99.6068605,144.474274 L115.163079,162.62829 L130.719298,180.812868 L130.719298,180.812868 L130.688736,180.873993 Z" id="Path" fill="#3091CF"></path>
        </g>
    </g>
</svg>