<?xml version="1.0" encoding="UTF-8"?>
<svg width="240px" height="240px" viewBox="0 0 240 240" version="1.1" xmlns="http://www.w3.org/2000/svg" xmlns:xlink="http://www.w3.org/1999/xlink">
    <title>isaca</title>
    <g id="Page-1" stroke="none" stroke-width="1" fill="none" fill-rule="evenodd">
        <g id="isaca" fill-rule="nonzero">
            <path d="M22.8746379,134.757436 C15.4569109,127.312982 14.4915304,115.572375 20.5928359,107.006987 C26.6941413,98.4415984 38.0708026,95.566209 47.4830513,100.21063 C56.8952999,104.855052 61.57972,115.655692 58.555286,125.739345 C58.4112728,126.200425 58.5319208,126.703676 58.8691212,127.048423 L69.4429533,137.666497 C69.7368946,137.972988 70.158862,138.120186 70.5787183,138.062693 C70.9985745,138.005201 71.3658877,137.749924 71.5673762,137.375591 C80.3807252,120.689365 75.7108531,100.039153 60.5851163,88.8119477 C45.4593794,77.5847423 24.430029,79.1594909 11.1298443,92.5153249 C-2.17034036,105.871159 -3.73852742,126.988498 7.44189791,142.177523 C18.6223232,157.366547 39.1864931,162.055958 55.8031927,153.205733 C56.1795139,153.007929 56.4388787,152.641265 56.5009533,152.219309 C56.5630279,151.797354 56.4203188,151.371044 56.1170279,151.072422 L45.5190546,140.454348 C45.1785135,140.110754 44.6743818,139.988881 44.2154315,140.139199 C36.6579248,142.438818 28.4534767,140.369804 22.8746379,134.757436 L22.8746379,134.757436 Z" id="fullLogo" fill="#0F69A0"></path>
            <path d="M22.7698901,186.673749 C30.1739167,179.234437 41.8507667,178.266247 50.3696406,184.385307 C58.8885145,190.504366 61.7482892,201.914132 57.1290892,211.35377 C52.5098892,220.793407 41.7679017,225.491458 31.7390077,222.458223 C31.2804317,222.313791 30.7799143,222.43479 30.437039,222.772972 L19.8766263,233.377573 C19.5718102,233.677042 19.4257938,234.103512 19.4827753,234.527893 C19.5397569,234.952275 19.7930382,235.324682 20.1659527,235.532389 C36.7755218,244.398484 57.3452468,239.726939 68.539073,224.546477 C79.7328992,209.366015 78.1815063,188.245925 64.8907152,174.879082 C51.5999241,161.51224 30.5702376,159.922039 15.4359192,171.139461 C0.301600731,182.356883 -4.38194873,203.005506 4.42177576,219.698122 C4.61850637,220.075538 4.98317935,220.335658 5.40284328,220.397913 C5.82250721,220.460168 6.24650208,220.317044 6.54350251,220.01287 L17.1039152,209.408269 C17.4456429,209.066737 17.5668539,208.561139 17.4173521,208.100853 C15.1316167,200.513761 17.188636,192.279169 22.7698901,186.673749 L22.7698901,186.673749 Z" id="fullLogo-2" fill="#1D2D5C"></path>
            <path d="M119.844646,223.39147 C109.393163,223.409629 100.464769,215.789344 98.7463576,205.384314 C97.0279463,194.979284 103.024647,184.848082 112.916893,181.443722 C122.809139,178.039363 133.689092,182.362563 138.626823,191.659682 C138.852509,192.094701 139.293368,192.372797 139.779693,192.386919 L154.670933,192.386919 C155.092876,192.381866 155.488012,192.177248 155.738164,191.83426 C155.988317,191.491273 156.064487,191.04968 155.943894,190.64155 C150.451494,172.587395 132.699223,161.305042 114.194224,164.107787 C95.689224,166.910532 82,182.954978 82,201.841004 C82,220.727031 95.689224,236.771476 114.194224,239.574221 C132.699223,242.376967 150.451494,231.094613 155.943894,213.040459 C156.056545,212.631501 155.973182,212.192902 155.718587,211.855047 C155.463993,211.517193 155.067477,211.318979 154.646915,211.31933 L139.82773,211.31933 C139.345044,211.323472 138.903029,211.593004 138.674859,212.022326 C134.96307,219.033917 127.721114,223.406402 119.844646,223.39147 Z" id="fullLogo-3" fill="#0F69A0"></path>
            <path d="M98.5650138,119.881162 C98.5603366,109.268936 106.139787,100.211437 116.479352,98.4733979 C126.818917,96.7353585 136.882355,102.827158 140.264695,112.871613 C143.647036,122.916068 139.355045,133.963597 130.120401,138.982895 C129.685352,139.206554 129.413941,139.661407 129.420779,140.15538 L129.420779,155.299976 C129.417871,155.727162 129.61579,156.130285 129.953894,156.385831 C130.291998,156.641376 130.729982,156.71888 131.133648,156.594594 C149.119116,151.013667 160.364214,132.948051 157.577484,114.111708 C154.790755,95.2753654 138.811134,81.3389121 120,81.3389121 C101.188866,81.3389121 85.2092447,95.2753654 82.4225155,114.111708 C79.6357863,132.948051 90.880884,151.013667 108.866352,156.594594 C109.270929,156.710806 109.705964,156.625946 110.038942,156.365863 C110.371921,156.10578 110.563415,155.70127 110.555096,155.275549 L110.555096,140.15538 C110.556317,139.662966 110.286546,139.210863 109.855474,138.982895 C102.90976,135.201606 98.5738362,127.865886 98.5650138,119.881162 Z" id="fullLogo-4" fill="#00A4E4"></path>
            <path d="M59.4486034,38.3342584 C59.4548763,48.8267709 51.8605438,57.7826118 41.5005719,59.5000047 C31.1406001,61.2173975 21.0584663,55.191819 17.6730066,45.259481 C14.2875468,35.327143 18.593317,24.4058956 27.849029,19.4488004 C28.2805302,19.2361948 28.5524497,18.7958788 28.549096,18.3151905 L28.549096,3.36118793 C28.5574205,2.9408243 28.3658042,2.54140483 28.0326144,2.28459502 C27.6994246,2.02778521 27.2641134,1.94399321 26.8592791,2.05874255 C8.87622681,7.56902327 -2.36526689,25.3960177 0.423065349,43.98184 C3.21139759,62.5676624 19.1902695,76.3179916 38,76.3179916 C56.8097305,76.3179916 72.7886024,62.5676624 75.5769347,43.98184 C78.3652669,25.3960177 67.1237732,7.56902327 49.1407209,2.05874255 C48.7334666,1.94561705 48.2966954,2.02933125 47.9602487,2.28499892 C47.623802,2.54066659 47.4264142,2.93885341 47.4267638,3.36118793 L47.4267638,18.3151905 C47.4308881,18.7999102 47.6992968,19.2437887 48.1268308,19.4729197 C55.101563,23.1841628 59.4563415,30.4389413 59.4486034,38.3342584 L59.4486034,38.3342584 Z" id="fullLogo-5" fill="#00A4E4"></path>
            <path d="M217.139875,186.563755 C224.569243,194.010096 225.540084,205.761961 219.434173,214.33585 C213.328262,222.909738 201.939868,225.786146 192.521037,221.133398 C183.102206,216.48065 178.420734,205.665993 181.457749,195.57612 C181.613309,195.115796 181.491252,194.60667 181.144113,194.267873 L170.576992,183.632314 C170.278642,183.335835 169.860015,183.195443 169.444124,183.252392 C169.028233,183.309342 168.662323,183.557164 168.453918,183.923036 C159.61925,200.60141 164.267647,221.260758 179.384898,232.504708 C194.502149,243.748659 215.536984,242.192056 228.849549,228.844265 C242.162114,215.496473 243.744467,194.376042 232.570545,179.178328 C221.396623,163.980613 200.8305,159.281111 184.208095,168.127171 C183.835559,168.329374 183.581507,168.69799 183.52429,169.119336 C183.467073,169.540681 183.613564,169.964145 183.918585,170.259128 L194.485705,180.870461 C194.828799,181.208857 195.329634,181.329933 195.788501,181.185409 C203.348778,178.888652 211.554266,180.95559 217.139875,186.563755 Z" id="fullLogo-6" fill="#00A4E4"></path>
            <path d="M217.221921,135.696882 C209.815399,143.172214 198.108121,144.163168 189.559995,138.038304 C181.011869,131.913441 178.136985,120.474144 182.767227,111.009565 C187.39747,101.544986 198.171037,96.8387525 208.222983,99.8896886 C208.689288,100.038382 209.199241,99.9173435 209.549905,99.5747403 L220.117022,88.9634068 C220.412526,88.659307 220.552171,88.2355332 220.495633,87.8144533 C220.439094,87.3933733 220.192668,87.0218718 219.827512,86.8072226 C203.217464,77.945037 182.650245,82.619183 171.458726,97.7996066 C160.267207,112.98003 161.819486,134.098169 175.109285,147.464014 C188.399084,160.829859 209.426826,162.420946 224.561102,151.205841 C239.695379,139.990736 244.381515,119.344634 235.581685,102.651542 C235.379149,102.273264 235.010205,102.013628 234.586998,101.951552 C234.163791,101.889477 233.736308,102.032294 233.434485,102.336594 L222.867368,112.947928 C222.530932,113.302654 222.411053,113.811956 222.553732,114.280401 C224.842901,121.860411 222.793976,130.090403 217.221921,135.696882 L217.221921,135.696882 Z" id="fullLogo-7" fill="#36AC91"></path>
            <path d="M202.3858,59.6836682 C191.816651,59.6883649 182.795918,52.0772013 181.064934,41.6943745 C179.333949,31.3115477 185.401021,21.2060034 195.404704,17.8095109 C205.408387,14.4130185 216.411072,18.7229673 221.409995,27.9962496 C221.641105,28.4252998 222.088816,28.6946605 222.577721,28.6987994 L237.636515,28.6987994 C238.062496,28.6991502 238.464121,28.5010623 238.721996,28.1634224 C238.979871,27.8257825 239.064308,27.3874622 238.950206,26.9787636 C233.391933,8.91804253 215.399648,-2.3741058 196.639765,0.424283352 C177.879883,3.2226725 164,19.2691538 164,38.1589958 C164,57.0488379 177.879883,73.0953191 196.639765,75.8937083 C215.399648,78.6920974 233.391933,67.3999491 238.950206,49.339228 C239.064308,48.9305294 238.979871,48.4922091 238.721996,48.1545692 C238.464121,47.8169293 238.062496,47.6188414 237.636515,47.6191923 L222.48041,47.6191923 C221.994401,47.6333137 221.551321,47.8998876 221.312685,48.3217421 C217.577806,55.282967 210.311355,59.6450624 202.3858,59.6836682 Z" id="fullLogo-8" fill="#6CB33F"></path>
            <path d="M104.804054,22.9461055 C112.219051,15.4677452 123.936133,14.4813919 132.487525,20.6156886 C141.038918,26.7499853 143.908844,38.2002524 139.268184,47.668769 C134.627524,57.1372855 123.841535,61.838461 113.784569,58.776045 C113.320977,58.6375704 112.819142,58.76822 112.480945,59.1154355 L101.907113,69.7335096 C101.601899,70.0286808 101.455315,70.4524138 101.512568,70.8740267 C101.569821,71.2956397 101.824034,71.6644898 102.196807,71.8668213 C118.813507,80.7170462 139.377677,76.0276349 150.558102,60.8386105 C161.738527,45.649586 160.17034,24.5322467 146.870156,11.1764127 C133.569971,-2.17942128 112.540621,-3.7541698 97.4148837,7.47303556 C82.2891469,18.7002409 77.6192748,39.3504533 86.4326238,56.0366789 C86.6411616,56.4027831 87.0073035,56.6507624 87.4234589,56.7077484 C87.8396143,56.7647343 88.2585074,56.6242531 88.5570467,56.327585 L99.1308788,45.7095109 C99.4766476,45.3698989 99.6067528,44.865965 99.4688552,44.4004333 C97.1685569,36.8082778 99.2194587,28.5610267 104.804054,22.9461055 Z" id="fullLogo-9" fill="#36AC91"></path>
        </g>
    </g>
</svg>