<?xml version="1.0" encoding="UTF-8"?>
<svg width="240px" height="240px" viewBox="0 0 240 240" version="1.1" xmlns="http://www.w3.org/2000/svg" xmlns:xlink="http://www.w3.org/1999/xlink">
    <title>isc2</title>
    <g id="Page-1" stroke="none" stroke-width="1" fill="none" fill-rule="evenodd">
        <g id="isc2">
            <circle id="Oval" fill="#468145" cx="120" cy="120" r="120"></circle>
            <path d="M117.843219,44 C98.3745673,44 82.9410542,52.4927272 73.4227376,64.2509311 C73.1644175,64.5487702 72.5843107,65.3807379 72.4117262,65.6469763 C71.7163774,66.7185915 71.9167982,66.798419 72.8994167,67.8799989 C75.3545712,70.5830679 82.9855922,79.1265362 82.9855922,79.1265362 C83.3062654,79.4618116 83.6052264,79.4751346 83.8830319,79.2321837 C84.1858899,78.9676519 84.8439382,78.348631 85.2052523,77.998381 C91.2624135,71.7977119 101.619157,61.5337135 117.626096,61.5337135 C135.5799,61.5337135 146.395942,72.6513155 146.395942,88.8996781 C146.395942,111.956225 133.027876,122.92287 103.262051,147.663336 C94.6044299,154.858821 78.6225433,168.724581 74.6336131,172.191296 C74.0457122,172.701641 73.7133478,173.434403 73.7133478,174.206252 L73.7133478,194.921761 C73.7133478,195.846108 74.8128784,196.341039 75.5154645,195.731046 C83.729376,188.610985 117.689006,159.192077 128.72384,149.926033 C157.295491,125.933192 165,109.637924 165,88.6850248 C165,63.2434531 146.397055,44 117.842105,44 L117.843219,44 Z" id="Shape" fill="#FFFFFF" fill-rule="nonzero"></path>
            <path d="M167.077274,178.42812 L109.73386,178.42812 C109.000206,178.42812 108.405567,178.924282 108.405567,179.537122 L108.405567,193.718015 C108.405567,194.3303 109.000206,194.827018 109.73386,194.827018 L167.077274,194.827018 C167.810928,194.827018 168.405567,194.3303 168.405567,193.718015 L168.405567,179.537122 C168.405567,178.924282 167.810928,178.42812 167.077274,178.42812 Z" id="Path" fill="#FFFFFF" fill-rule="nonzero"></path>
        </g>
    </g>
</svg>