<?xml version="1.0" encoding="UTF-8"?>
<svg width="240px" height="240px" viewBox="0 0 240 240" version="1.1" xmlns="http://www.w3.org/2000/svg" xmlns:xlink="http://www.w3.org/1999/xlink">
    <title>jetbrains-pycharm</title>
    <defs>
        <linearGradient x1="2.88103448%" y1="62.9211498%" x2="95.0448276%" y2="41.485508%" id="linearGradient-1">
            <stop stop-color="#00D886" offset="10%"></stop>
            <stop stop-color="#F0EB18" offset="59%"></stop>
        </linearGradient>
        <linearGradient x1="93.6453125%" y1="93.4417388%" x2="2.0890625%" y2="10.2248394%" id="linearGradient-2">
            <stop stop-color="#F0EB18" offset="30%"></stop>
            <stop stop-color="#00C4F4" offset="70%"></stop>
        </linearGradient>
    </defs>
    <g id="Page-1" stroke="none" stroke-width="1" fill="none" fill-rule="evenodd">
        <g id="jetbrains-pycharm" transform="translate(0, 0)" fill-rule="nonzero">
            <path d="M22.5,178.306928 L22.5,224.276741 C22.5,228.421113 24.1640885,232.391951 27.1178646,235.299109 C30.0716408,238.206267 34.0685135,239.806563 38.2125,239.743181 L79.6275,239.081279 C84.0563756,239.010443 88.2424024,237.044464 91.125,233.681447 L213.77625,90.593419 C216.17625,87.7885066 217.5,84.2186182 217.5,80.5249836 L217.5,37.9675635 C217.5,33.8651241 215.870261,29.93071 212.969308,27.0298473 C210.068355,24.1289846 206.133818,22.4992969 202.03125,22.4992969 L160.77,22.4992969 C156.3075,22.4992969 152.06625,24.4267367 149.12625,27.7828818 L26.32875,168.122246 C23.8605781,170.941095 22.5,174.560276 22.5,178.306928 Z" id="Path" fill="#00D886"></path>
            <path d="M22.5,183.800506 L22.5,224.531733 C22.5,233.074621 29.4255953,240 37.96875,240 L85.09125,240 C85.84125,240 86.59125,239.947502 87.33375,239.835005 L226.7775,219.405644 C234.371289,218.291155 240,211.777273 240,204.102372 L240,146.357926 C240,142.254187 238.369232,138.318636 235.466657,135.417558 C232.564081,132.516479 228.627617,130.88767 224.52375,130.889658 L155.13375,130.908409 C153.53625,130.908409 151.95,131.155901 150.43125,131.639636 L33.26625,169.063467 C26.8537445,171.1109 22.5,177.069263 22.5,183.800506 L22.5,183.800506 Z" id="Path" fill="url(#linearGradient-1)"></path>
            <path d="M0,15.4682666 L0,143.440517 C0,149.661573 3.72375,155.271398 9.45,157.690072 L149.78625,216.930721 C151.72875,217.751945 153.8175,218.168182 155.92875,218.146549 L224.6625,217.583201 C233.152892,217.511161 240,210.609116 240,202.118684 L240,135.873254 C240,132.850848 239.115,129.899691 237.4575,127.37227 L158.29875,6.97478204 C155.438967,2.62208792 150.580713,0 145.3725,0 L15.46875,0 C6.92559528,0 0,6.92537886 0,15.4682666 Z" id="Path" fill="url(#linearGradient-2)"></path>
            <polygon id="Path" fill="#000000" points="195 44.9985938 45 44.9985938 45 194.993906 195 194.993906"></polygon>
            <path d="M123.75,164.994844 L63.75,164.994844 L63.75,176.244492 L123.75,176.244492 L123.75,164.994844 Z M63.72375,63.7180088 L87.88125,63.7180088 C91.845,63.7180088 95.32125,64.4417362 98.30625,65.889191 C101.29875,67.3366457 103.60125,69.3728321 105.225,72.0015 C106.845,74.6264179 107.655,77.663823 107.655,81.121215 C107.655,84.5786069 106.83,87.7172588 105.18375,90.368426 C103.53375,93.023343 101.1975,95.0782788 98.17125,96.5407331 C95.14125,98.0031874 91.605,98.7306647 87.55875,98.7306647 L74.69625,98.7306647 L74.69625,119.99625 L63.72,119.99625 L63.72,63.7217587 L63.72375,63.7180088 Z M91.99875,88.5797319 C93.3825,87.8972532 94.44375,86.9185338 95.19375,85.6473235 C95.94375,84.3723634 96.31875,82.87991 96.31875,81.1662136 C96.31875,79.4525171 95.94375,78.0088122 95.19375,76.7638511 C94.44375,75.5151402 93.37875,74.5514203 91.99875,73.8689416 C90.61875,73.1864629 89.00625,72.8452236 87.1575,72.8452236 L74.6925,72.8452236 L74.6925,89.6071998 L87.1575,89.6071998 C89.00625,89.6071998 90.61875,89.2659604 91.99875,88.5834818 L91.99875,88.5797319 Z M126.42375,117.153839 C122.105955,114.673965 118.547833,111.061494 116.13375,106.706665 C113.64375,102.270554 112.39875,97.3207087 112.39875,91.8533796 C112.39875,86.3860504 113.64375,81.4362051 116.13375,77.0038436 C118.547748,72.6479803 122.105809,69.0342752 126.42375,66.5529202 C130.7925,64.0217493 135.67125,62.750539 141.05625,62.750539 C145.6125,62.750539 149.79375,63.5942627 153.59625,65.2817099 C157.2743,66.8740639 160.529532,69.3035338 163.1025,72.3764882 C165.625921,75.4009473 167.371603,78.9964758 168.1875,82.8499109 L156.69,82.8499109 C155.960126,80.8455654 154.816596,79.0172522 153.33375,77.4838286 C151.822272,75.925725 149.993443,74.7108071 147.97125,73.92144 C145.792522,73.0751003 143.472224,72.6525469 141.135,72.6764789 C137.80875,72.6764789 134.80875,73.5089528 132.1275,75.1701509 C129.444917,76.8366967 127.269998,79.2060783 125.83875,82.0211868 C124.32375,84.9310959 123.56625,88.2047436 123.56625,91.8458798 C123.56625,95.4945158 124.32375,98.7681635 125.83875,101.674323 C127.268802,104.491249 129.443912,106.862135 132.1275,108.529108 C134.80875,110.190307 137.80875,111.019031 141.135,111.019031 C143.59875,111.019031 145.87875,110.606544 147.9675,109.77407 C152.027149,108.197897 155.207348,104.943969 156.69,100.849348 L168.1875,100.849348 C167.370883,104.70141 165.625247,108.295556 163.1025,111.319021 C160.529436,114.391874 157.27423,116.821325 153.59625,118.4138 C149.79,120.101247 145.6125,120.94497 141.05625,120.94497 C135.67125,120.94497 130.7925,119.68126 126.42375,117.146339 L126.42375,117.157589 L126.42375,117.153839 Z" id="Shape" fill="#FFFFFF"></path>
        </g>
    </g>
</svg>