<?xml version="1.0" encoding="UTF-8"?>
<svg width="240px" height="240px" viewBox="0 0 240 240" version="1.1" xmlns="http://www.w3.org/2000/svg" xmlns:xlink="http://www.w3.org/1999/xlink">
    <title>jetbrains-rustrover</title>
    <defs>
        <linearGradient x1="2.88103448%" y1="62.9211498%" x2="95.0431034%" y2="41.485508%" id="linearGradient-1">
            <stop stop-color="#00D886" offset="8%"></stop>
            <stop stop-color="#FFAB00" offset="46%"></stop>
        </linearGradient>
        <linearGradient x1="93.64375%" y1="93.4417388%" x2="2.0875%" y2="10.2248394%" id="linearGradient-2">
            <stop stop-color="#FFAB00" offset="19%"></stop>
            <stop stop-color="#FF004C" offset="83%"></stop>
        </linearGradient>
    </defs>
    <g id="Page-1" stroke="none" stroke-width="1" fill="none" fill-rule="evenodd">
        <g id="jetbrains-rustrover" transform="translate(0, 0)" fill-rule="nonzero">
            <path d="M22.4999998,178.306928 L22.4999998,224.272991 C22.4999998,228.417363 24.1640885,232.388201 27.1178646,235.295359 C30.0716408,238.202517 34.0685135,239.802813 38.2125,239.739431 L79.6275,239.077529 C84.0564872,239.007175 88.242702,237.041108 91.125,233.677698 L213.77625,90.5896691 C216.17625,87.7885066 217.5,84.2148683 217.5,80.5249836 L217.5,37.9675635 C217.5,33.8651241 215.870261,29.93071 212.969308,27.0298473 C210.068355,24.1289846 206.133818,22.4992969 202.03125,22.4992969 L160.77,22.4992969 C156.3075,22.4992969 152.06625,24.4267367 149.12625,27.7828818 L26.32875,168.118496 C23.8600254,170.938495 22.4999998,174.559047 22.4999998,178.306928 Z" id="Path" fill="#00D886"></path>
            <path d="M22.5,183.800506 L22.5,224.531733 C22.5,233.074621 29.4255953,240 37.96875,240 L85.09125,240 C85.84125,240 86.59125,239.947502 87.33375,239.835005 L226.7775,219.405644 C234.371289,218.291155 240,211.777273 240,204.102372 L240,146.357926 C240,142.254187 238.369232,138.318636 235.466657,135.417558 C232.564081,132.516479 228.627617,130.88767 224.52375,130.889658 L155.13375,130.908409 C153.53625,130.908409 151.95,131.155901 150.43125,131.639636 L33.26625,169.063467 C26.8537445,171.1109 22.5,177.069263 22.5,183.800506 L22.5,183.800506 Z" id="Path" fill="url(#linearGradient-1)"></path>
            <path d="M0,15.4682666 L0,143.440517 C0,149.661573 3.72375,155.271398 9.45,157.690072 L149.78625,216.930721 C151.72875,217.751945 153.8175,218.168182 155.92875,218.146549 L224.6625,217.583201 C233.152892,217.511161 240,210.609116 240,202.118684 L240,135.873254 C240,132.850848 239.115,129.899691 237.4575,127.37227 L158.29875,6.97478204 C155.438967,2.62208792 150.580713,3.33056499e-15 145.3725,3.33056499e-15 L15.46875,3.33056499e-15 C6.92559528,3.33056499e-15 0,6.92537886 0,15.4682666 Z" id="Path" fill="url(#linearGradient-2)"></path>
            <polygon id="Path" fill="#000000" points="195 44.9985938 45 44.9985938 45 194.993906 195 194.993906"></polygon>
            <path d="M123.75,164.994844 L63.75,164.994844 L63.75,176.244492 L123.75,176.244492 L123.75,164.994844 Z M63.72,63.7180088 L87.8775,63.7180088 C91.815,63.7180088 95.2875,64.4417362 98.2875,65.889191 C101.2875,67.3366457 103.60125,69.3728321 105.225,72.0015 C106.845,74.6264179 107.655,77.663823 107.655,81.121215 C107.655,84.5786069 106.83,87.6835099 105.18,90.3459267 C103.53375,93.0158433 101.18625,95.0782788 98.14875,96.5369832 C95.1075,97.9994375 91.575,98.7269148 87.555,98.7269148 L74.6925,98.7269148 L74.6925,119.98875 L63.72,119.98875 L63.72,63.7180088 L63.72,63.7180088 Z M91.995,88.5797319 C93.37875,87.8935033 94.44375,86.9147839 95.19375,85.6435736 C95.94375,84.3686135 96.31875,82.8911597 96.31875,81.2037124 C96.31875,79.5162651 95.94375,78.0088122 95.19375,76.7601012 C94.44375,75.5151402 93.375,74.5476704 91.99875,73.8651917 C90.61875,73.182713 89.0025,72.8414737 87.15375,72.8414737 L74.6925,72.8414737 L74.6925,89.6034499 L87.15375,89.6034499 C89.0025,89.6034499 90.61875,89.2659604 91.99875,88.5797319 L91.995,88.5797319 Z M82.1325,95.1907753 L94.11,95.1907753 L108.8625,119.99625 L96.28125,119.99625 L82.1325,95.1945252 L82.1325,95.1907753 Z M118.54875,63.7180088 L142.70625,63.7180088 C146.64375,63.7180088 150.11625,64.4417362 153.11625,65.889191 C156.11625,67.3366457 158.43,69.3728321 160.05375,72.0015 C161.67375,74.6264179 162.48375,77.663823 162.48375,81.121215 C162.48375,84.5786069 161.65875,87.6835099 160.00875,90.3459267 C158.3625,93.0158433 156.01875,95.0782788 152.9775,96.5369832 C149.93625,97.9994375 146.40375,98.7269148 142.3875,98.7269148 L129.525,98.7269148 L129.525,119.98875 L118.54875,119.98875 L118.54875,63.7180088 L118.54875,63.7180088 Z M146.82375,88.5797319 C148.2075,87.8935033 149.2725,86.9147839 150.0225,85.6435736 C150.7725,84.3686135 151.1475,82.8911597 151.1475,81.2037124 C151.1475,79.5162651 150.7725,78.0088122 150.0225,76.7601012 C149.2725,75.5151402 148.20375,74.5476704 146.8275,73.8651917 C145.4475,73.182713 143.83125,72.8414737 141.9825,72.8414737 L129.52125,72.8414737 L129.52125,89.6034499 L141.9825,89.6034499 C143.83125,89.6034499 145.4475,89.2659604 146.8275,88.5797319 L146.82375,88.5797319 Z M136.96125,95.1907753 L148.93875,95.1907753 L163.69125,119.99625 L151.11,119.99625 L136.96125,95.1945252 L136.96125,95.1907753 Z" id="Shape" fill="#FFFFFF"></path>
        </g>
    </g>
</svg>