<?xml version="1.0" encoding="UTF-8"?>
<svg width="240px" height="241px" viewBox="0 0 240 241" version="1.1" xmlns="http://www.w3.org/2000/svg" xmlns:xlink="http://www.w3.org/1999/xlink">
    <title>jetbrains-intellij</title>
    <defs>
        <linearGradient x1="36.880099%" y1="3.09227583%" x2="58.2516174%" y2="95.2720438%" id="linearGradient-1">
            <stop stop-color="#FC801D" offset="10%"></stop>
            <stop stop-color="#FE2857" offset="59%"></stop>
        </linearGradient>
        <linearGradient x1="6.39142833%" y1="93.7986534%" x2="89.8058377%" y2="2.04513842%" id="linearGradient-2">
            <stop stop-color="#FE2857" offset="21%"></stop>
            <stop stop-color="#007EFF" offset="70%"></stop>
        </linearGradient>
    </defs>
    <g id="Page-1" stroke="none" stroke-width="1" fill="none" fill-rule="evenodd">
        <g id="jetbrains-intellij" transform="translate(0, -0)">
            <rect id="ViewBox" x="0" y="0" width="240" height="240"></rect>
            <path d="M59.8125,21.856875 L15.2625,21.856875 C6.825,21.856875 0,28.719375 0,37.119375 L0,80.2725 C0,84.735 1.95,88.9725 5.325,91.86 L148.425,214.5 C151.197455,216.863717 154.719207,218.166101 158.3625,218.175 L202.9125,218.175 C211.35,218.175 218.175,211.35 218.175,202.9125 L218.175,159.763125 C218.175,155.300625 216.225,151.063125 212.85,148.175625 L69.75,25.53375 C66.9775452,23.1700325 63.4557934,21.8676489 59.8125,21.856875 L59.8125,21.856875 Z" id="Path" fill="#FF8100" fill-rule="nonzero"></path>
            <path d="M54.4521509,21.8575553 L15.2548116,21.8575553 C6.83084731,21.8575553 0.001875,28.6865277 0.001875,37.1104919 L0.001875,86.1996765 C0.001875,86.9126836 0.037976625,87.6617923 0.1462815,88.365774 L19.9480228,226.887709 C21.0310716,234.423923 27.4481354,240.010652 35.0655783,240.010652 L93.820973,240.010652 C97.8694311,240.013046 101.752763,238.405863 104.615456,235.543171 C107.478149,232.680478 109.085331,228.797146 109.082938,224.748688 L109.082938,155.235009 C109.082938,153.58336 108.785097,151.967812 108.297725,150.397391 L68.9198771,32.2818996 C66.8422289,26.0563996 61.0151892,21.8575553 54.4521509,21.8575553" id="Path" fill="url(#linearGradient-1)" fill-rule="nonzero"></path>
            <path d="M224.734491,0.0431484375 L97.3499068,0.0431484375 C91.2397068,0.0431484375 85.7251836,3.68038716 83.3244255,9.30321525 L23.061788,149.864892 C22.2502388,151.762027 21.8296924,153.803365 21.8253073,155.866787 L21.8253073,224.703561 C21.8253073,233.142316 28.6485144,239.956497 37.0872693,239.956497 L104.470952,239.956497 C107.476413,239.956497 110.436746,239.062982 112.954834,237.375231 L233.209347,157.13937 C237.451288,154.287341 239.996453,149.530952 239.996453,144.431598 L239.996453,15.2599834 C239.996453,6.83601912 233.16748,0.0070468125 224.743516,0.0070468125 L224.734491,0.0431484375 Z" id="Path" fill="url(#linearGradient-2)" fill-rule="nonzero"></path>
            <polygon id="Path" fill="#000000" fill-rule="nonzero" points="195 45.001875 45 45.001875 45 195.001875 195 195.001875"></polygon>
            <path d="M96.9,110.244375 L85.725,110.244375 L85.725,73.606875 L96.9,73.606875 L96.9,63.819375 L63.75,63.819375 L63.75,73.606875 L74.925,73.606875 L74.925,110.244375 L63.75,110.244375 L63.75,120.031875 L96.9,120.031875 L96.9,110.244375 Z M118.95,63.781875 L118.95,101.544375 C118.95,103.194375 118.6125,104.619375 117.9,105.894375 C117.1875,107.169375 116.2125,108.144375 114.9375,108.856875 C113.6625,109.569375 112.2,109.906875 110.5875,109.906875 L102.525,109.906875 L102.525,120.031875 L111.975,120.031875 C115.3875,120.031875 118.425,119.281875 121.1625,117.744375 C123.9,116.206875 126.0375,114.106875 127.575,111.406875 C129.1125,108.706875 129.9,105.669375 129.9,102.294375 L129.9,63.781875 L118.95,63.781875 Z M63.75,176.281875 L123.75,176.281875 L123.75,165.031875 L63.75,165.031875 L63.75,176.281875 Z" id="Shape" fill="#FFFFFF" fill-rule="nonzero"></path>
        </g>
    </g>
</svg>