<?xml version="1.0" encoding="UTF-8"?>
<svg width="240px" height="240px" viewBox="0 0 240 240" version="1.1" xmlns="http://www.w3.org/2000/svg" xmlns:xlink="http://www.w3.org/1999/xlink">
    <title>jetbrains-rider</title>
    <defs>
        <linearGradient x1="63.1211547%" y1="96.8989002%" x2="41.7510152%" y2="4.73168036%" id="linearGradient-1">
            <stop stop-color="#007DFE" offset="21%"></stop>
            <stop stop-color="#FFB700" offset="55%"></stop>
        </linearGradient>
        <linearGradient x1="93.5891809%" y1="6.2202814%" x2="10.2022697%" y2="97.9479478%" id="linearGradient-2">
            <stop stop-color="#FFB700" offset="23%"></stop>
            <stop stop-color="#FF0A67" offset="73%"></stop>
        </linearGradient>
    </defs>
    <g id="Page-1" stroke="none" stroke-width="1" fill="none" fill-rule="evenodd">
        <g id="jetbrains-rider" transform="translate(-0, -0)">
            <rect id="ViewBox" x="1.1526754e-07" y="1.15395736e-07" width="240" height="240"></rect>
            <path d="M180.195,218.188125 L224.72625,218.1825 C228.776756,218.183495 232.661703,216.575135 235.526195,213.711347 C238.390687,210.847558 240,206.963006 240,202.9125 L240,159.76125 C240,155.302817 238.051633,151.067007 234.6675,148.164375 L91.5600001,25.5000001 C88.7912754,23.1286715 85.2660381,21.825 81.6206251,21.825 L37.0875001,21.825 C33.0368222,21.825 29.1518793,23.4332797 26.2874416,26.2973658 C23.423004,29.1614518 21.8137501,33.0461971 21.8137501,37.0968751 L21.8137501,80.2537501 C21.8137501,84.7121834 23.7621168,88.9479936 27.1462501,91.8506251 L170.24625,214.509375 C173.015955,216.881543 176.542672,218.185025 180.189375,218.184375 L180.195,218.188125 Z" id="Path" fill="#007DFE" fill-rule="nonzero"></path>
            <path d="M185.55375,218.1825 L224.728125,218.1825 C233.162549,218.1825 240,211.343174 240,202.90875 L240,153.811875 C240,153.089375 239.949375,152.369375 239.848125,151.651875 L220.055625,13.1137501 C218.981571,5.58952486 212.537997,0 204.9375,0 L146.16375,0 C142.112097,0 138.226302,1.60905143 135.361702,4.47435421 C132.497103,7.33965698 130.888508,11.2258476 130.889999,15.2775001 L130.90875,84.7968751 C130.90875,86.4375001 131.17125,88.0668751 131.690625,89.6231251 L171.065625,207.73875 C173.146358,213.973575 178.980891,218.179392 185.55375,218.1825 L185.55375,218.1825 Z" id="Path" fill="url(#linearGradient-1)" fill-rule="nonzero"></path>
            <path d="M15.2718751,240 L142.65375,240 C148.762103,239.99705 154.281886,236.356766 156.69,230.743125 L216.945,90.1556251 C217.75764,88.2529469 218.177905,86.2058265 218.180625,84.1368751 L218.180625,15.2756251 C218.180625,11.2244499 216.572148,7.33903011 213.70771,4.47424081 C210.843273,1.60945151 206.95805,1.15395736e-07 202.906875,1.15395736e-07 L135.53625,1.15395736e-07 C132.51816,1.15395736e-07 129.567885,0.895262729 127.0575,2.57062512 L6.80062512,82.8300001 C2.55653883,85.6640891 0.00734402007,90.4297609 0.00562511527,95.5331251 L0,224.72625 C0,228.776928 1.60827974,232.661871 4.47236577,235.526309 C7.33645181,238.390746 11.2211971,240 15.2718751,240" id="Path" fill="url(#linearGradient-2)" fill-rule="nonzero"></path>
            <polygon id="Path" fill="#000000" fill-rule="nonzero" points="195 45.0000001 45.0000001 45.0000001 45.0000001 195 195 195"></polygon>
            <path d="M64.1006251,63.7500001 L64.1006251,120 L75.0731251,120 L75.0731251,98.7600001 L84.5418751,98.7600001 L96.6525001,120 L109.22625,120 L95.8312501,97.4700001 C96.1062501,97.3837501 96.3843751,97.3012501 96.6656251,97.2225001 C97.2975001,97.0406251 97.9275001,96.8625001 98.4975001,96.6000001 C101.551875,95.0925001 103.89375,93.0337501 105.52875,90.3750001 C107.188125,87.7125001 108.01875,84.6468751 108.01875,81.1312501 C108.01875,77.6137501 107.205,74.6531251 105.571875,72.0412501 C103.965,69.4312501 101.65875,67.3668751 98.6587501,65.9100001 C95.6587501,64.4550001 92.1881251,63.7500001 88.2525001,63.7500001 L64.1006251,63.7500001 Z M117.28875,63.7500001 L117.28875,120 L138.705,120 C144.035,120 148.803125,118.79375 153.009375,116.38125 C157.183475,114.040705 160.620766,110.580685 162.93375,106.39125 C165.315,102.07125 166.5075,97.2468751 166.5075,91.8750001 C166.5075,86.5031251 165.316875,81.6787501 162.93375,77.4093751 C160.54875,73.1418751 157.24125,69.7781251 153.009375,67.3687501 C148.803125,64.9562501 144.035,63.7500001 138.705,63.7500001 L117.28875,63.7500001 Z M75.0750001,72.8906251 L87.5325001,72.8906251 C89.3812501,72.8906251 90.9862501,73.2431251 92.3512501,73.8937501 C93.7443751,74.5987501 94.8187501,75.5531251 95.5668751,76.8093751 C96.3168751,78.0656251 96.6881251,79.5262501 96.6881251,81.2343751 C96.6881251,82.9425001 96.3187501,84.3937501 95.5668751,85.7006251 C94.8168751,86.9568751 93.7443751,87.9131251 92.3531251,88.6162501 C90.9843751,89.3175001 89.3812501,89.6193751 87.5343751,89.6193751 L75.0750001,89.6193751 L75.0750001,72.8906251 Z M128.263125,73.2431251 L138.583125,73.2431251 C141.931875,73.2431251 144.86625,73.9950001 147.38625,75.4987501 C149.904375,76.9556251 151.84125,79.1175001 153.208125,81.9300001 C154.575625,84.7425001 155.259375,88.0575001 155.259375,91.8750001 C155.259375,95.6925001 154.575625,99.0081251 153.208125,101.821875 C151.84125,104.634375 149.904375,106.786875 147.38625,108.245625 C144.86625,109.753125 141.931875,110.5075 138.583125,110.50875 L128.263125,110.50875 L128.263125,73.2431251 Z M63.7275001,165 L63.7275001,176.25 L123.7275,176.25 L123.7275,165 L63.7275001,165 Z" id="Shape" fill="#FFFFFF" fill-rule="nonzero"></path>
        </g>
    </g>
</svg>