<?xml version="1.0" encoding="UTF-8"?>
<svg width="240px" height="240px" viewBox="0 0 240 240" version="1.1" xmlns="http://www.w3.org/2000/svg" xmlns:xlink="http://www.w3.org/1999/xlink">
    <title>jetbrains-resharper</title>
    <defs>
        <linearGradient x1="6.55683365%" y1="93.6453123%" x2="89.7790674%" y2="2.08906249%" id="linearGradient-1">
            <stop stop-color="#FF45ED" offset="29%"></stop>
            <stop stop-color="#FF0A67" offset="70%"></stop>
        </linearGradient>
        <linearGradient x1="37.0801994%" y1="2.88103448%" x2="58.5150377%" y2="95.0431034%" id="linearGradient-2">
            <stop stop-color="#FDB60D" offset="30%"></stop>
            <stop stop-color="#FF45ED" offset="54%"></stop>
        </linearGradient>
    </defs>
    <g id="Page-1" stroke="none" stroke-width="1" fill="none" fill-rule="evenodd">
        <g id="jetbrains-resharper" fill-rule="nonzero">
            <path d="M224.531492,0 L96.5572412,0 C90.3398286,0 84.7266026,3.72243397 82.3074639,9.44999998 L23.0621396,149.78625 C22.2406581,151.729026 21.8258876,153.819502 21.8428759,155.92875 L22.4058999,224.662499 C22.4779655,233.155816 29.3846692,240 37.8781581,240 L104.124623,240 C107.144374,240 110.097976,239.115309 112.62199,237.457499 L233.028859,158.29875 C237.38071,155.438573 240,150.580168 240,145.3725 L240,15.46875 C240,11.3661824 238.370287,7.43164531 235.469379,4.53069197 C232.568471,1.62973862 228.633995,0 224.531492,0 Z" id="Path" fill="url(#linearGradient-1)"></path>
            <path d="M56.2003718,22.4999999 L15.4685083,22.4999999 C6.92548706,22.4999999 0,29.4255952 0,37.9687499 L0,85.0912498 C0,85.8412498 0.0524991797,86.5912498 0.164997422,87.3337498 L20.5946782,226.777499 C21.7091843,234.371289 28.2231676,240 35.8981891,240 L93.6360369,240 C97.7398401,240 101.675453,238.369232 104.576576,235.466656 C107.4777,232.56408 109.106535,228.627616 109.104547,224.523749 L109.089545,155.13375 C109.089545,153.53625 108.842049,151.95 108.354557,150.43125 L70.9376415,33.2662499 C68.8901761,26.8537444 62.9317206,22.4999999 56.2003718,22.4999999 Z" id="Path" fill="url(#linearGradient-2)"></path>
            <path d="M61.6865361,22.4999997 L15.7122545,22.4999997 C11.5678182,22.4999997 7.59691807,24.1640884 4.68971462,27.1178646 C1.78251118,30.0716407 0.182189834,34.0685134 0.247496133,38.2124999 L0,78.7499998 C0.0712488867,83.1787498 2.94745394,88.2374998 6.31115138,91.1249998 L149.405165,213.772499 C152.206372,216.172499 155.780066,217.496249 159.470008,217.496249 L202.031843,217.496249 C210.5734,217.494179 217.496601,210.56919 217.496601,202.027499 L217.496601,160.76625 C217.496601,156.30375 215.569132,152.0625 212.212934,149.12625 L71.8713769,26.3249999 C69.0517623,23.8584835 65.4326994,22.4999997 61.6865361,22.4999997 Z" id="Path" fill="#FDB60D"></path>
            <polygon id="Path" fill="#000000" points="194.996953 44.9999999 44.9992968 44.9999999 44.9992968 195 194.996953 195"></polygon>
            <path d="M123.748066,165 L63.7490039,165 L63.7490039,176.25 L123.748066,176.25 L123.748066,165 Z M63.7940032,63.7199998 L87.9511257,63.7199998 C91.8885642,63.7199998 95.35726,64.4437498 98.360963,65.8912498 C101.360916,67.3387498 103.67088,69.3749998 105.294605,72.0037498 C106.914579,74.6287498 107.724567,77.6662498 107.724567,81.1237498 C107.724567,84.5812498 106.89958,87.6862498 105.249605,90.3487498 C103.607131,93.0187498 101.259668,95.0812498 98.2184653,96.5399998 C95.1772628,98.0024997 91.6485679,98.7299997 87.6286307,98.7299997 L74.7663317,98.7299997 L74.7663317,119.9925 L63.7940032,119.9925 L63.7940032,63.7199998 Z M92.0685613,88.5824998 C93.4485398,87.8999998 94.5135231,86.9212498 95.2635114,85.6499998 C96.0134997,84.3749998 96.3884938,82.8937498 96.3884938,81.2062498 C96.3884938,79.5187498 96.0134997,78.0112498 95.2635114,76.7662498 C94.5031217,75.5107434 93.3927035,74.5045741 92.0685613,73.8712498 C90.6885829,73.1887498 89.0761081,72.8474998 87.2236371,72.8474998 L74.7625818,72.8474998 L74.7625818,89.6099998 L87.2236371,89.6099998 C89.0761081,89.6099998 90.6885829,89.2687498 92.0685613,88.5862498 L92.0685613,88.5824998 Z M82.2024655,95.1937498 L94.1797784,95.1937498 L108.935798,120 L96.3547444,120 L82.2062155,95.1974998 L82.2024655,95.1937498 Z M160.538741,98.4899997 L160.538741,105.645 L114.796956,105.72375 L114.796956,98.5687497 L160.538741,98.4937497 L160.538741,98.4899997 Z M164.558679,77.9887498 L164.558679,85.2262498 L118.816893,85.3012498 L118.816893,78.0674998 L164.558679,77.9924998 L164.558679,77.9887498 Z M131.720442,63.7199998 L139.722817,63.7199998 L127.663005,119.9925 L119.66063,119.9925 L131.716692,63.7199998 L131.720442,63.7199998 Z M151.69638,63.7199998 L159.695005,63.7199998 L147.638943,119.9925 L139.640318,119.9925 L151.69638,63.7199998 Z" id="Shape" fill="#FFFFFF"></path>
        </g>
    </g>
</svg>