<?xml version="1.0" encoding="UTF-8"?>
<svg width="240px" height="240px" viewBox="0 0 240 240" version="1.1" xmlns="http://www.w3.org/2000/svg" xmlns:xlink="http://www.w3.org/1999/xlink">
    <title>jetbrains-goland</title>
    <defs>
        <linearGradient x1="62.1901483%" y1="92.8895535%" x2="41.289559%" y2="2.74311643%" id="linearGradient-1">
            <stop stop-color="#00D886" offset="24%"></stop>
            <stop stop-color="#007DFE" offset="51%"></stop>
        </linearGradient>
        <linearGradient x1="93.0228617%" y1="6.84531254%" x2="9.63481708%" y2="98.5703125%" id="linearGradient-2">
            <stop stop-color="#007DFE" offset="27%"></stop>
            <stop stop-color="#D249FC" offset="70%"></stop>
        </linearGradient>
    </defs>
    <g id="Page-1" stroke="none" stroke-width="1" fill="none" fill-rule="evenodd">
        <g id="jetbrains-goland" transform="translate(0, -0)">
            <rect id="ViewBox" x="0" y="1.15268165e-07" width="240" height="240"></rect>
            <path d="M180.195,218.19 L224.728125,218.184375 C228.778803,218.184375 232.663548,216.575121 235.527634,213.710684 C238.39172,210.846246 240,206.961303 240,202.910625 L240,159.76125 C240,155.302817 238.051633,151.067007 234.6675,148.164375 L91.561875,25.5018751 C88.7926604,23.130127 85.2666829,21.826875 81.620625,21.826875 L37.089375,21.826875 C33.0386971,21.826875 29.1537542,23.4351547 26.2893165,26.2992408 C23.4248788,29.1633268 21.815625,33.0480721 21.815625,37.0987501 L21.815625,80.2556251 C21.815625,84.7140584 23.7639917,88.9498686 27.148125,91.8525001 L170.25,214.51125 C173.019215,216.882998 176.545192,218.186453 180.19125,218.18625 L180.195,218.19 Z" id="Path" fill="#00D886" fill-rule="nonzero"></path>
            <path d="M185.551875,218.1825 L224.72625,218.1825 C233.161709,218.1825 240,211.344209 240,202.90875 L240,153.811875 C240,153.089375 239.94875,152.369375 239.84625,151.651875 L220.055625,13.1118751 C218.980725,5.58839452 212.53738,1.15268165e-07 204.9375,1.15268165e-07 L146.16375,1.15268165e-07 C142.112422,1.15268165e-07 138.227108,1.60976846 135.362914,4.4750173 C132.498721,7.34026613 130.890383,11.2261725 130.891874,15.2775001 L130.90875,84.7968751 C130.90875,86.4375001 131.17125,88.0668751 131.6925,89.6231251 L171.065625,207.73875 C173.146358,213.973575 178.980891,218.179392 185.55375,218.1825 L185.551875,218.1825 Z" id="Path" fill="url(#linearGradient-1)" fill-rule="nonzero"></path>
            <path d="M15.271875,240 L142.65375,240 C148.762335,240 154.282919,236.358533 156.691875,230.745 L216.946875,90.1556251 C217.759514,88.2529469 218.17978,86.2058265 218.1825,84.1368751 L218.1825,15.2718751 C218.1825,11.2211971 216.573246,7.33645181 213.708808,4.47236577 C210.844371,1.60827974 206.959428,0 202.90875,0 L135.53625,0 C132.518992,0 129.569438,0.894404648 127.059375,2.56875012 L6.800625,82.8318751 C2.55653871,85.6659641 0.0073439048,90.4316359 0.005625,95.5350001 L0,224.728125 C0,233.162549 6.83745134,240 15.271875,240" id="Path" fill="url(#linearGradient-2)" fill-rule="nonzero"></path>
            <polygon id="Path" fill="#000000" fill-rule="nonzero" points="195 45.0000001 45 45.0000001 45 195 195 195"></polygon>
            <path d="M88.854375,63.7537501 C83.424375,63.7537501 78.523125,65.0287501 74.120625,67.5956251 C69.718125,70.1325001 66.25875,73.6518751 63.748125,78.1331251 C61.2375,82.5862501 59.97375,87.5587501 59.97375,93.0675001 C59.97375,98.5762501 61.2375,103.576875 63.748125,108.058125 C66.1889889,112.444067 69.7737486,116.085851 74.120625,118.595625 C78.523125,121.130625 83.42625,122.39625 88.854375,122.39625 C94.066875,122.39625 98.775,121.243125 102.961875,118.92 C107.173125,116.595 110.469375,113.42625 112.873125,109.4025 C115.303125,105.3525 116.525625,100.820625 116.525625,95.8237501 L116.525625,91.3706251 L92.506875,91.3706251 L92.506875,100.0875 L105.69,100.0875 C105.423418,102.165264 104.633757,104.141351 103.395,105.830625 C101.91375,107.884375 99.904375,109.490625 97.366875,110.649375 C94.854375,111.810625 92.04375,112.390625 88.935,112.389375 C85.58625,112.389375 82.5675,111.564375 79.865625,109.89 C77.16375,108.215625 75.04875,105.909375 73.509375,102.99375 C71.998125,100.055 71.2425,96.7506251 71.2425,93.0806251 C71.2425,89.4106251 71.99875,86.1156251 73.51125,83.1956251 C75.05,80.2543751 77.168125,77.9462501 79.865625,76.2712501 C82.564375,74.5962501 85.5875,73.7587501 88.935,73.7587501 C91.20375,73.7587501 93.331875,74.1168751 95.3025,74.8462501 C97.2026727,75.5089926 98.9521856,76.5427667 100.449375,77.8875001 C101.921578,79.1724747 103.117604,80.7429374 103.965,82.5037501 L115.7925,82.5037501 C114.796708,78.8584663 112.954215,75.4998357 110.415,72.7012501 C107.87625,69.8643751 104.731875,67.6668751 101.00625,66.1012501 C97.30625,64.5375001 93.255625,63.7550001 88.854375,63.7537501 M150.470625,63.7537501 C145.0425,63.7537501 140.113125,65.0287501 135.684375,67.5956251 C131.28375,70.1325001 127.8225,73.6518751 125.28375,78.1331251 C122.77125,82.5862501 121.5075,87.5587501 121.5075,93.0675001 C121.5075,98.5762501 122.773125,103.576875 125.28375,108.058125 C127.81875,112.513125 131.285625,116.025625 135.684375,118.595625 C140.113125,121.130625 145.041875,122.3975 150.470625,122.396251 C155.925625,122.396251 160.854375,121.12875 165.256875,118.59375 C169.617004,116.091773 173.212739,112.448716 175.6575,108.05625 C178.168125,103.575 179.431875,98.5762501 179.431875,93.0675001 C179.431875,87.5587501 178.168125,82.5862501 175.6575,78.1312501 C173.145,73.6500001 169.685625,70.1325001 165.256875,67.5937501 C160.85625,65.0287501 155.896875,63.7537501 150.470625,63.7537501 M150.51,73.4737501 C153.8575,73.4737501 156.8675,74.3250001 159.54,76.0275001 C162.215,77.7012501 164.310625,80.0368751 165.826875,83.0343751 C167.339375,86.0056251 168.095625,89.3543751 168.095625,93.0806251 C168.095625,96.8062501 167.34,100.15875 165.826875,103.155 C164.311875,106.12625 162.21625,108.461875 159.54,110.161875 C156.8675,111.836875 153.8575,112.674375 150.51,112.674375 C147.1625,112.674375 144.139375,111.836875 141.440625,110.161875 C138.76875,108.46125 136.651875,106.130625 135.114375,103.155 C133.60125,100.15875 132.845625,96.8062501 132.845625,93.0806251 C132.845625,89.3550001 133.60125,86.0062501 135.114375,83.0343751 C136.651875,80.0362501 138.76875,77.7018751 141.440625,76.0275001 C144.140625,74.3250001 147.16375,73.4737501 150.51,73.4737501 M63.735,165.00375 L63.735,176.24625 L123.721875,176.24625 L123.721875,165.00375 L63.735,165.00375 Z" id="Shape" fill="#FFFFFF" fill-rule="nonzero"></path>
        </g>
    </g>
</svg>