<?xml version="1.0" encoding="UTF-8"?>
<svg width="241px" height="240px" viewBox="0 0 241 240" version="1.1" xmlns="http://www.w3.org/2000/svg" xmlns:xlink="http://www.w3.org/1999/xlink">
    <title>jetbrains-rubymine</title>
    <defs>
        <linearGradient x1="6.41107032%" y1="93.7793358%" x2="89.7971211%" y2="2.05155485%" id="linearGradient-1">
            <stop stop-color="#FF2358" offset="29%"></stop>
            <stop stop-color="#7256FF" offset="75%"></stop>
        </linearGradient>
        <linearGradient x1="36.8798673%" y1="3.10026325%" x2="58.2497334%" y2="95.2678864%" id="linearGradient-2">
            <stop stop-color="#FF8100" offset="29%"></stop>
            <stop stop-color="#FF2358" offset="56%"></stop>
        </linearGradient>
    </defs>
    <g id="Page-1" stroke="none" stroke-width="1" fill="none" fill-rule="evenodd">
        <g id="jetbrains-rubymine" transform="translate(0.9888, -0)">
            <rect id="ViewBox" x="0.01125" y="1.15268165e-07" width="240" height="240"></rect>
            <path d="M224.720625,0 L97.344375,0 C91.2357899,0 85.7152059,3.64146769 83.30625,9.25500012 L23.055,149.840625 C22.2426076,151.742723 21.8223472,153.78918 21.819375,155.8575 L21.819375,224.720625 C21.819375,228.771303 23.4286288,232.656048 26.2930665,235.520134 C29.1575042,238.38422 33.0424471,239.9925 37.093125,239.9925 L104.461875,239.9925 C107.480625,239.9925 110.43,239.098125 112.940625,237.421875 L233.19375,157.1625 C237.440396,154.330733 239.990383,149.563579 239.98875,144.459375 L239.994375,15.2718751 C239.994375,11.2211971 238.385121,7.33645181 235.520683,4.47236577 C232.656246,1.60827974 228.771303,0 224.720625,0" id="Path" fill="url(#linearGradient-1)" fill-rule="nonzero"></path>
            <path d="M54.44625,21.8250001 L15.271875,21.8250001 C6.83745134,21.8250001 0,28.6624515 0,37.0968751 L0,86.1937501 C0,86.9162501 0.05125,87.6362501 0.15375,88.3537501 L19.940625,226.888125 C21.0156258,234.412311 27.4600333,240 35.060625,240 L93.8325,240 C102.27,240 109.108125,233.16 109.104377,224.7225 L109.0875,155.206875 C109.0875,153.56625 108.825,151.936875 108.30375,150.380625 L68.93625,32.2668751 C66.8548681,26.0327915 61.0204869,21.8278389 54.448125,21.8250001 L54.44625,21.8250001 Z" id="Path" fill="url(#linearGradient-2)" fill-rule="nonzero"></path>
            <path d="M59.80125,21.8250001 L15.27,21.8325001 C6.83673745,21.8345706 0,28.6711124 0,37.1043751 L0,80.2500001 C0,84.7084334 1.94836672,88.9442436 5.3325,91.8468751 L148.4325,214.50375 C151.200469,216.875337 154.724994,218.180625 158.37,218.180625 L202.90125,218.180625 C206.951928,218.180625 210.836871,216.572345 213.701308,213.708259 C216.565746,210.844173 218.175,206.959428 218.175,202.90875 L218.175,159.755625 C218.175,155.297192 216.226633,151.061382 212.8425,148.15875 L69.7425,25.5037501 C66.9741379,23.1305512 63.4476041,21.8250001 59.80125,21.8287501 L59.80125,21.8250001 Z" id="Path" fill="#FF8100" fill-rule="nonzero"></path>
            <polygon id="Path" fill="#000000" fill-rule="nonzero" points="194.9925 45.0000001 45 45.0000001 45 194.994375 194.99625 194.994375"></polygon>
            <path d="M157.1025,63.7481251 L145.935,100.66875 L145.09125,105.489375 L144.125625,100.66875 L132.556875,63.7462501 L117.28875,63.7462501 L117.28875,119.994375 L128.09625,119.994375 L128.09625,79.8600001 L127.935,77.2087501 L140.8725,119.99625 L148.82625,119.99625 L161.923125,76.9275001 L161.76375,79.8600001 L161.76375,119.99625 L172.6125,119.99625 L172.6125,63.7462501 L157.1025,63.7481251 Z M98.495625,96.5737501 C101.549375,95.1012501 103.893125,93.0387501 105.526875,90.3862501 C107.186875,87.7075001 108.016875,84.6262501 108.016875,81.1425001 C108.016875,77.6606251 107.199375,74.6493751 105.56625,72.0243751 C103.95875,69.3993751 101.655,67.3637501 98.655,65.9175001 C95.655,64.4712501 92.18625,63.7481251 88.24875,63.7481251 L64.1025,63.7481251 L64.1025,119.994375 L75.07125,119.994375 L75.07125,98.7375001 L84.52125,98.7375001 L96.646875,119.9925 L109.2225,119.9925 L95.81625,97.4568751 C96.08625,97.3731251 96.3575,97.2931251 96.63,97.2168751 C97.273125,97.0312501 97.91625,96.8475001 98.495625,96.5718751 L98.495625,96.5737501 Z M75.075,72.8681251 L87.52875,72.8681251 C89.3775,72.8681251 90.985,73.2162501 92.35125,73.9125001 C93.6887054,74.5306599 94.8082294,75.5384275 95.563125,76.8037501 C96.313125,78.0350001 96.688125,79.5081251 96.688125,81.2231251 C96.688125,82.9368751 96.315,84.3975001 95.563125,85.6818751 C94.815,86.9437501 93.744375,87.9168751 92.35125,88.6162501 C90.98375,89.2850001 89.37625,89.6200001 87.52875,89.6212501 L75.075,89.6212501 L75.075,72.8681251 Z M63.72375,164.994375 L123.72375,164.994375 L123.72375,176.244375 L63.72375,176.244375 L63.72375,164.994375 Z" id="Shape" fill="#FFFFFF"></path>
        </g>
    </g>
</svg>