<?xml version="1.0" encoding="UTF-8"?>
<svg width="240px" height="240px" viewBox="0 0 240 240" version="1.1" xmlns="http://www.w3.org/2000/svg" xmlns:xlink="http://www.w3.org/1999/xlink">
    <title>jetbrains</title>
    <g id="Page-1" stroke="none" stroke-width="1" fill="none" fill-rule="evenodd">
        <g id="jetbrains" transform="translate(-0.332, -0.0417)" fill-rule="nonzero">
            <polygon id="Path" fill="#000000" points="0.332 0.0417205584 240.332 0.0417205584 240.332 240.041721 0.332 240.041721"></polygon>
            <path d="M26.087413,195.026713 L115.90297,195.026713 L115.90297,210.041721 L26.087413,210.041721 L26.087413,195.026713 Z M22.332,61.8501248 L29.0008051,55.5188341 C30.2919038,57.5617306 32.4643176,58.8617556 34.8781107,59.0137066 C37.4210136,59.0137066 39.1106688,57.2128061 39.1106688,53.7179337 L39.1106688,30.0417206 L49.417004,30.0417206 L49.417004,53.8023509 C49.7227849,57.6754456 48.3858408,61.4983318 45.7345662,64.3319907 C42.9949046,67.0062035 39.289455,68.4503291 35.4675253,68.3333664 C30.2791667,68.5289466 25.3414104,66.0918406 22.332,61.8501248 L22.332,61.8501248 Z M54.0481187,30.0417206 L84.108263,30.0417206 L84.108263,38.7873434 L64.1243015,38.7873434 L64.1243015,44.5277136 L82.0649591,44.5277136 L82.0649591,52.5304649 L64.3039326,52.5304649 L64.3039326,58.484692 L84.2598268,58.484692 L84.2598268,67.2809652 L53.9133953,67.2809652 L54.0481187,30.0417206 Z M98.7538123,39.1193844 L87.5717755,39.1193844 L87.5717755,30.0417206 L120.332,30.0417206 L120.332,39.1193844 L109.127509,39.1193844 L109.127509,67.5004499 L98.7538123,67.5004499 L98.7538123,39.1193844 Z M26.5028099,82.2903449 L44.1291131,82.2903449 C47.8280558,81.987002 51.4938998,83.1830162 54.3063384,85.6107551 C55.9286319,87.2428211 56.8043336,89.4151573 56.7594258,91.7056775 C56.8062616,95.4410015 54.4843971,98.7948364 50.9775493,100.057353 C55.3560577,100.873386 58.4939888,104.762206 58.3873328,109.225062 C58.3873328,115.995322 53.1668035,119.996698 44.2189286,119.996698 L26.5028099,119.996698 L26.5028099,82.2903449 Z M46.4530906,93.8555024 C46.4530906,91.7900947 44.7690489,90.6701598 41.7377739,90.6701598 L36.5902197,90.6701598 L36.5902197,97.2209352 L41.5862101,97.2209352 C44.7016872,97.2209352 46.5260658,96.1460227 46.5260658,93.99057 L46.4530906,93.8555024 Z M42.8604683,104.497699 L36.5902197,104.497699 L36.5902197,111.41991 L43.0569399,111.41991 C46.2566191,111.41991 48.0136359,110.193046 48.0136359,107.992571 C47.9238204,105.85963 46.4137963,104.503326 42.9446704,104.503326 L42.8604683,104.497699 Z M61.693668,82.2903449 L78.2702518,82.2903449 C82.7048949,81.9414204 87.0834034,83.3708851 90.4402598,86.2973484 C92.7024892,88.6272633 93.9093857,91.7900947 93.7522085,95.0204599 C93.9037808,100.123171 90.8182399,104.763307 86.0617514,106.585618 L94.9983994,119.996698 L83.002409,119.996698 L75.4579022,108.628514 L71.9943897,108.628514 L71.9943897,119.996698 L61.6263063,119.996698 L61.693668,82.2903449 Z M77.6583833,100.299349 C81.1443496,100.299349 83.2494018,98.5828661 83.2494018,95.8139817 C83.2494018,92.8256125 81.0601476,91.3117306 77.6359294,91.3117306 L72.0898188,91.3117306 L72.0898188,100.389394 L77.6583833,100.299349 Z" id="Shape" fill="#FFFFFF"></path>
            <path d="M108.232121,82.3210257 L118.251452,82.3210257 L134.309447,119.846132 L123.11734,119.846132 L120.43349,113.123466 L105.875294,113.123466 L103.185806,120.041721 L92.332,120.041721 L108.232121,82.3210257 Z M117.366233,105.109914 L113.165669,94.5648838 L108.91436,105.109914 L117.366233,105.109914 Z M135.938927,82.4942615 L146.352942,82.4942615 L146.352942,119.712014 L135.938927,119.712014 L135.938927,82.4942615 Z M150.209567,82.4942615 L159.98645,82.4942615 L173.51283,102.360494 L173.51283,82.4886732 L183.819716,82.4886732 L183.819716,119.706425 L174.725073,119.706425 L160.555923,99.309309 L160.555923,119.717602 L150.203929,119.717602 L150.209567,82.4942615 Z M185.533772,114.190822 L191.307433,107.317273 C194.686882,110.122188 198.927324,111.706355 203.334014,111.810227 C206.198291,111.810227 207.675536,110.832283 207.675536,109.239631 C207.675536,107.596685 206.463293,106.81433 201.304211,105.612856 C193.269576,103.77991 187.146337,101.63961 187.146337,93.9781175 C187.146337,87.0598626 192.671911,82.0583779 201.704533,82.0583779 C207.279892,81.8497769 212.749476,83.605957 217.14231,87.0151566 L212.124187,94.0842942 C209.08806,91.816796 205.414517,90.5432593 201.61432,90.4407545 C199.082705,90.4407545 197.847908,91.4242867 197.847908,92.8213495 C197.847908,94.5257661 199.127812,95.2857682 204.388383,96.4425362 C213.003768,98.2978356 218.332,101.091961 218.332,108.038157 C218.332,115.63259 212.276422,119.952309 203.181778,119.952309 C196.786929,120.236694 190.508565,118.189005 185.533772,114.19641 L185.533772,114.190822 Z" id="Shape" fill="#FFFFFF"></path>
        </g>
    </g>
</svg>