<svg fill="none" viewBox="0 0 70 70" class="heading-section__logo-fleet"><defs><radialGradient id="__JETBRAINS_COM__LOGO_PREFIX__7" cx="0" cy="0" r="1" gradientTransform="matrix(22.35433 -20.58122 27.17129 29.51214 38.648 42.538)" gradientUnits="userSpaceOnUse"><stop offset="0.771" stop-color="#001AFF"></stop><stop offset="1" stop-color="#8ACEFF"></stop></radialGradient><radialGradient id="__JETBRAINS_COM__LOGO_PREFIX__6" cx="0" cy="0" r="1" gradientTransform="rotate(-30.543 79.837 -70.068) scale(16.777 22.1489)" gradientUnits="userSpaceOnUse"><stop offset="0.719" stop-color="#FA00FF" stop-opacity="0"></stop><stop offset="1" stop-color="#FF00D6" stop-opacity="0.44"></stop></radialGradient><radialGradient id="__JETBRAINS_COM__LOGO_PREFIX__5" cx="0" cy="0" r="1" gradientTransform="rotate(49.385 -19.814 41.858) scale(47.8852)" gradientUnits="userSpaceOnUse"><stop offset="0.026" stop-color="#8DFDFD"></stop><stop offset="0.271" stop-color="#87FBFB"></stop><stop offset="0.484" stop-color="#74D6F4"></stop><stop offset="0.932" stop-color="#0038FF"></stop></radialGradient><radialGradient id="__JETBRAINS_COM__LOGO_PREFIX__4" cx="0" cy="0" r="1" gradientTransform="rotate(137.237 9.434 23.195) scale(32.8316)" gradientUnits="userSpaceOnUse"><stop offset="0.267" stop-color="#0500FF" stop-opacity="0"></stop><stop offset="1" stop-color="#0500FF" stop-opacity="0.15"></stop></radialGradient><radialGradient id="__JETBRAINS_COM__LOGO_PREFIX__3" cx="0" cy="0" r="1" gradientTransform="rotate(75.198 -4.629 32.631) scale(51.1484)" gradientUnits="userSpaceOnUse"><stop offset="0.42" stop-color="#FF00E5" stop-opacity="0"></stop><stop offset="0.774" stop-color="#FF00F5" stop-opacity="0.64"></stop><stop offset="0.899" stop-color="#BE46FF" stop-opacity="0.87"></stop></radialGradient><radialGradient id="__JETBRAINS_COM__LOGO_PREFIX__2" cx="0" cy="0" r="1" gradientTransform="matrix(2.73484 22.75837 -34.39872 4.13365 29.458 35.276)" gradientUnits="userSpaceOnUse"><stop offset="0" stop-color="#00B2FF"></stop><stop offset="0.571" stop-color="#74C5FF"></stop><stop offset="0.979" stop-color="#9FD7FF"></stop></radialGradient><linearGradient id="__JETBRAINS_COM__LOGO_PREFIX__1" x1="11.644" x2="82.363" y1="42.432" y2="43.401" gradientUnits="userSpaceOnUse"><stop offset="0.432" stop-color="#FE62EE" stop-opacity="0"></stop><stop offset="0.818" stop-color="#FD3AF5" stop-opacity="0.47"></stop></linearGradient><linearGradient id="__JETBRAINS_COM__LOGO_PREFIX__0" x1="33.054" x2="37.35" y1="23.191" y2="49.344" gradientUnits="userSpaceOnUse"><stop offset="0.042" stop-color="#0038FF"></stop><stop offset="0.724" stop-color="#48BFF1" stop-opacity="0.59"></stop><stop offset="1" stop-color="#74C5FF" stop-opacity="0"></stop></linearGradient></defs><path fill="url(#__JETBRAINS_COM__LOGO_PREFIX__7)" d="M65.153 30.85c0 9.496-10.163 17.194-22.7 17.194-12.536 0-22.699-7.698-22.699-17.194 0-9.496 10.163-17.194 22.7-17.194 12.536 0 22.699 7.698 22.699 17.194z"></path><path fill="url(#__JETBRAINS_COM__LOGO_PREFIX__6)" d="M65.153 30.85c0 9.496-10.163 17.194-22.7 17.194-12.536 0-22.699-7.698-22.699-17.194 0-9.496 10.163-17.194 22.7-17.194 12.536 0 22.699 7.698 22.699 17.194z"></path><path fill="url(#__JETBRAINS_COM__LOGO_PREFIX__5)" d="M66 35c0 17.12-13.88 31-31 31C17.88 66 4 52.12 4 35 4 17.88 17.88 4 35 4c8.046 3.642 16.464 17.194 19.99 21.429 3.524 4.235 12.648 9.571 8.176-1.623C65.073 26.832 66 31.852 66 35z"></path><path fill="url(#__JETBRAINS_COM__LOGO_PREFIX__4)" d="M66 35c0 17.12-13.88 31-31 31C17.88 66 4 52.12 4 35 4 17.88 17.88 4 35 4c8.046 3.642 16.464 17.194 19.99 21.429 3.524 4.235 12.648 9.571 8.176-1.623C65.073 26.832 66 31.852 66 35z"></path><path fill="url(#__JETBRAINS_COM__LOGO_PREFIX__3)" d="M66 35c0 17.12-13.88 31-31 31C17.88 66 4 52.12 4 35 4 17.88 17.88 4 35 4c8.046 3.642 16.464 17.194 19.99 21.429 3.524 4.235 12.648 9.571 8.176-1.623C65.073 26.832 66 31.852 66 35z"></path><path fill="url(#__JETBRAINS_COM__LOGO_PREFIX__1)" d="M66 35c0 17.12-13.88 31-31 31C17.88 66 4 52.12 4 35 4 17.88 17.88 4 35 4c8.046 3.642 16.464 17.194 19.99 21.429 3.524 4.235 12.648 9.571 8.176-1.623C65.073 26.832 66 31.852 66 35z"></path><path fill="url(#__JETBRAINS_COM__LOGO_PREFIX__2)" d="M56.651 39.682c1.658 7.764-6.511 16.089-18.246 18.594-11.734 2.505-22.59-1.757-24.248-9.52-1.658-7.764 6.511-16.089 18.246-18.594 11.734-2.506 22.59 1.757 24.248 9.52z"></path><path fill="url(#__JETBRAINS_COM__LOGO_PREFIX__0)" d="M56.651 39.682c1.658 7.764-6.511 16.089-18.246 18.594-11.734 2.505-22.59-1.757-24.248-9.52-1.658-7.764 6.511-16.089 18.246-18.594 11.734-2.506 22.59 1.757 24.248 9.52z"></path><path fill="#D6F8F8" fill-opacity="0.19" fill-rule="evenodd" d="M51.462 49.883c3.074-3.133 4.386-6.66 3.698-9.882-.688-3.223-3.326-5.907-7.411-7.51-4.073-1.6-9.412-2.037-15.028-.838-5.616 1.199-10.31 3.779-13.375 6.901-3.074 3.133-4.386 6.66-3.698 9.883.688 3.223 3.326 5.906 7.412 7.51 4.072 1.6 9.41 2.037 15.027.838 5.616-1.2 10.31-3.779 13.375-6.902zm-13.057 8.393c11.735-2.505 19.904-10.83 18.246-18.594-1.658-7.763-12.514-12.026-24.248-9.52-11.735 2.505-19.904 10.83-18.246 18.593 1.658 7.764 12.514 12.026 24.248 9.521z" clip-rule="evenodd"></path></svg>
