<?xml version="1.0" encoding="UTF-8"?>
<svg width="240px" height="240px" viewBox="0 0 240 240" version="1.1" xmlns="http://www.w3.org/2000/svg" xmlns:xlink="http://www.w3.org/1999/xlink">
    <title>jatbrains-clion</title>
    <defs>
        <linearGradient x1="6.21495652%" y1="6.40832507%" x2="97.945408%" y2="89.7996119%" id="linearGradient-1">
            <stop stop-color="#009AE5" offset="29%"></stop>
            <stop stop-color="#00D980" offset="70%"></stop>
        </linearGradient>
        <linearGradient x1="96.8992286%" y1="36.8791614%" x2="4.72872798%" y2="58.2490187%" id="linearGradient-2">
            <stop stop-color="#FF318C" offset="30%"></stop>
            <stop stop-color="#009AE5" offset="54%"></stop>
        </linearGradient>
    </defs>
    <g id="Page-1" stroke="none" stroke-width="1" fill="none" fill-rule="evenodd">
        <g id="jatbrains-clion" transform="translate(0, -0.0006)">
            <rect id="ViewBox" x="0" y="0.0005868375" width="240" height="240"></rect>
            <path d="M239.998574,224.728644 L239.998574,97.3491115 C239.998574,91.2424627 236.359726,85.7180297 230.736052,83.3163899 L90.1574244,23.0570649 C88.2551149,22.2416978 86.2064689,21.8229636 84.1367847,21.8264508 L15.2831621,21.8264508 C6.85283656,21.8337685 0.0205280039,28.6660771 0.013232175,37.0964026 L0.013232175,104.474638 C0.013232175,107.491574 0.906403987,110.442349 2.58027412,112.949846 L82.8334155,233.197236 C85.6677578,237.440886 90.4331616,239.989881 95.5363035,239.991958 L224.722028,239.998574 C233.154937,239.994927 239.991274,233.161551 239.998574,224.728644" id="Path" fill="url(#linearGradient-1)" fill-rule="nonzero"></path>
            <path d="M218.178717,54.443784 L218.178717,15.276546 C218.17507,6.84363685 211.341694,0.00730043195 202.908788,2.84217094e-14 L153.817418,2.84217094e-14 C153.085238,2.84217094e-14 152.364084,0.0507233375 151.653958,0.152170013 L13.1130854,19.9408877 C5.59437529,21.0227617 0.0113883289,27.4625019 0.0066160875,35.0586477 L0.0066160875,93.8293529 C0.0102670253,102.264844 6.84767145,109.102248 15.2831621,109.105899 L84.7983935,109.086051 C86.4480046,109.086051 88.0579193,108.825818 89.6281374,108.305352 L207.738531,68.9330157 C213.971965,66.8504189 218.176005,61.0159144 218.178717,54.443784" id="Path" fill="url(#linearGradient-2)" fill-rule="nonzero"></path>
            <path d="M218.176877,59.8018368 L218.17125,15.2705868 C218.170753,11.2202337 216.561279,7.33597011 213.696896,4.4722896 C210.832512,1.6086091 206.947853,0.000586722218 202.8975,0.000586722218 L159.75,0.000586722218 C155.292222,0.000586722218 151.057205,1.94945052 148.155,5.33308684 L25.498125,148.433087 C23.1263768,151.202301 21.823125,154.728279 21.823125,158.374337 L21.823125,202.905587 C21.823125,211.340011 28.6605763,218.177462 37.095,218.177462 L80.248125,218.177462 C84.7065583,218.177462 88.9423685,216.229095 91.845,212.844962 L214.5,69.7449618 C216.874297,66.9763769 218.176877,63.4490747 218.176877,59.8018368" id="Path" fill="#FF318C" fill-rule="nonzero"></path>
            <polygon id="Path" fill="#000000" fill-rule="nonzero" points="194.998125 45.0005868 45 45.0005868 45 194.994962 195 194.994962"></polygon>
            <path d="M75.178125,116.850587 C79.525625,119.356837 84.37875,120.610587 89.7375,120.611837 L89.7375,120.606212 C94.27125,120.606212 98.43125,119.766212 102.2175,118.086212 C106.005,116.407462 109.15125,114.061212 111.65625,111.047462 C114.178948,108.035796 115.923756,104.450892 116.7375,100.607462 L105.29625,100.607462 C104.565524,102.610226 103.421335,104.436711 101.938125,105.968087 C100.437258,107.509209 98.6224668,108.709478 96.616875,109.487462 C94.536875,110.313712 92.270625,110.727462 89.818125,110.728712 C86.510625,110.728712 83.52375,109.902462 80.8575,108.249962 C78.19125,106.597462 76.098125,104.331212 74.578125,101.451212 C73.084375,98.5449618 72.338125,95.2780868 72.339375,91.6505868 C72.339375,88.0243368 73.085625,84.7712118 74.578125,81.8912118 C76.099375,78.9849618 78.193125,76.7049618 80.859375,75.0512118 C83.525625,73.3974618 86.511875,72.5712118 89.818125,72.5724618 C92.268125,72.5737118 94.534375,72.9874618 96.616875,73.8137118 C98.6302343,74.5951974 100.446947,75.8101802 101.938125,77.3724618 C103.425444,78.8847016 104.570641,80.6987291 105.29625,82.6918368 L116.7375,82.6918368 C115.92471,78.860456 114.179411,75.2887112 111.65625,72.2930868 C109.14875,69.2530868 106.0025,66.8930868 102.2175,65.2130868 C98.43,63.5330868 94.27,62.6930868 89.7375,62.6930868 C84.3775,62.6930868 79.524375,63.9599618 75.178125,66.4937118 C70.829375,68.9999618 67.415625,72.4662118 64.936875,76.8924618 C62.458125,81.2924618 61.218125,86.2118368 61.216875,91.6505868 C61.216875,97.0930868 62.456875,102.026837 64.936875,106.451837 C67.34894,110.779313 70.8879632,114.372762 75.178125,116.850587 M135.46875,109.809962 L135.46875,63.6512118 L124.588125,63.6512118 L124.588125,119.649962 L162.02625,119.649962 L162.02625,109.809962 L135.46875,109.809962 Z M63.73125,164.991212 L123.7275,164.991212 L123.7275,176.241212 L63.73125,176.241212 L63.73125,164.991212 Z" id="Shape" fill="#FFFFFF" fill-rule="nonzero"></path>
        </g>
    </g>
</svg>