<?xml version="1.0" encoding="UTF-8"?>
<svg width="241px" height="240px" viewBox="0 0 241 240" version="1.1" xmlns="http://www.w3.org/2000/svg" xmlns:xlink="http://www.w3.org/1999/xlink">
    <title>jetbrains-qodana</title>
    <defs>
        <linearGradient x1="-2.04006944%" y1="54.2392327%" x2="79.5710707%" y2="47.4726722%" id="linearGradient-1">
            <stop stop-color="#FC801D" offset="18%"></stop>
            <stop stop-color="#FF318C" offset="63%"></stop>
        </linearGradient>
        <linearGradient x1="-13.950027%" y1="6.19001993%" x2="102.116725%" y2="85.8540133%" id="linearGradient-2">
            <stop stop-color="#FF318C" offset="0%"></stop>
            <stop stop-color="#B74AF7" offset="40%"></stop>
            <stop stop-color="#FF318C" offset="87%"></stop>
        </linearGradient>
        <linearGradient x1="-27.5223979%" y1="56.0891896%" x2="101.672544%" y2="40.9945162%" id="linearGradient-3">
            <stop stop-color="#FF318C" offset="0%"></stop>
            <stop stop-color="#D73BAB" offset="20%"></stop>
            <stop stop-color="#9D4AD8" offset="51%"></stop>
            <stop stop-color="#7953F4" offset="75%"></stop>
            <stop stop-color="#6B57FF" offset="87%"></stop>
        </linearGradient>
    </defs>
    <g id="Page-1" stroke="none" stroke-width="1" fill="none" fill-rule="evenodd">
        <g id="jetbrains-qodana" transform="translate(0.975, 0)">
            <rect id="ViewBox" x="0.0249527993" y="0" width="240" height="240"></rect>
            <path d="M161.274953,104.49375 L45.5312028,128.75625 C42.5094157,129.220954 39.5216521,129.884901 36.5874528,130.74375 C27.3922354,133.463103 19.2932123,139.022157 13.4499528,146.625 C-21.1062972,191.5125 15.9624528,250.18125 68.9499528,238.5 L195.924953,220.10625 C209.319994,217.11825 221.034751,209.053014 228.606203,197.60625 C261.343703,148.725 218.949953,87.58125 161.274953,104.49375" id="Path" fill="url(#linearGradient-1)" fill-rule="nonzero"></path>
            <path d="M97.6562028,15.28125 C83.3874528,2.15625 62.4249528,-3.9375 38.8937028,2.94375 C29.1207506,5.83679788 20.511247,11.7427073 14.2937028,19.81875 C-9.3500472,50.625 -1.4375472,87.4125 22.2812028,106.40625 L148.599953,211.875 C162.578627,220.994928 179.699863,223.945696 195.924953,220.03125 C209.319994,217.04325 221.034751,208.978014 228.606203,197.53125 C248.106203,168.525 240.962453,135 219.793703,116.25 L97.6562028,15.28125 Z" id="Path" fill="url(#linearGradient-2)" fill-rule="nonzero"></path>
            <path d="M55.0374528,0.28125 C49.5805625,0.62538967 44.1721062,1.51737665 38.8937028,2.94375 C29.1207506,5.83679788 20.511247,11.7427073 14.2937028,19.81875 C-22.4750472,67.5 16.8999528,129.9375 73.2999528,117.50625 L224.668703,60.4125 C229.059144,59.4404015 232.90276,56.8063151 235.393703,53.0625 C244.768703,38.925 235.187453,21.69375 219.793703,21.6 L61.3187028,0 C59.0687028,0 56.9687028,0.13125 55.0374528,0.28125" id="Path" fill="url(#linearGradient-3)" fill-rule="nonzero"></path>
            <polygon id="Path" fill="#000000" fill-rule="nonzero" points="45.0249528 45 195.024953 45 195.024953 195 45.0249528 195"></polygon>
            <path d="M63.7749528,166.875 L120.024953,166.875 L120.024953,176.25 L63.7749528,176.25 L63.7749528,166.875 Z M112.524953,121.51875 L106.337453,115.89375 C101.361389,119.070019 95.5719232,120.737177 89.6687028,120.69375 C72.3624528,120.7875 60.0249528,107.8875 60.0249528,91.875 C60.0249528,75.91875 72.6062028,62.85 90.0249528,62.85 C107.443703,62.85 119.762453,75.75 119.762453,91.70625 L119.762453,91.875 C119.74489,97.6184302 118.014921,103.226142 114.793703,107.98125 L120.568703,112.875 L112.524953,121.51875 Z M97.2062028,107.8875 L88.1499528,100.10625 L96.0062028,91.29375 L105.212453,99.6375 C106.224409,97.1768675 106.722118,94.5351772 106.674953,91.875 C106.832288,87.2596431 105.112089,82.7776185 101.907264,79.4526568 C98.702439,76.1276951 94.2867236,74.2437934 89.6687028,74.23125 C79.7312028,74.23125 72.7937028,82.0875 72.7937028,91.70625 L72.7937028,91.875 C72.6363644,96.4853831 74.3545858,100.96264 77.555895,104.284087 C80.7572041,107.605533 85.1681528,109.487459 89.7812028,109.5 C92.3472692,109.5406 94.8881244,108.988798 97.2062028,107.8875 M129.156203,63.75 L150.306203,63.75 C167.931203,63.75 180.118703,75.8625 180.118703,91.65 L180.118703,91.875 C180.118703,107.6625 167.931203,120 150.306203,120 L129.156203,120 L129.156203,63.75 Z M141.493703,75 L141.493703,108.75 L150.306203,108.75 C160.393703,108.75 167.181203,101.925 167.181203,91.9875 L167.181203,91.875 C167.397694,87.3365604 165.689425,82.9173991 162.476614,79.7045887 C159.263804,76.4917782 154.844642,74.7835092 150.306203,75 L141.493703,75 Z" id="Shape" fill="#FFFFFF" fill-rule="nonzero"></path>
        </g>
    </g>
</svg>