<?xml version="1.0" encoding="UTF-8"?>
<svg width="240px" height="240px" viewBox="0 0 240 240" version="1.1" xmlns="http://www.w3.org/2000/svg" xmlns:xlink="http://www.w3.org/1999/xlink">
    <title>jetbrains-webstorm</title>
    <defs>
        <linearGradient x1="3.09892014%" y1="63.1188622%" x2="95.2698632%" y2="41.7498166%" id="linearGradient-1">
            <stop stop-color="#F0EB18" offset="22%"></stop>
            <stop stop-color="#00C4F4" offset="59%"></stop>
        </linearGradient>
        <linearGradient x1="93.7795539%" y1="93.5861778%" x2="2.05156056%" y2="10.2014837%" id="linearGradient-2">
            <stop stop-color="#00C4F4" offset="19%"></stop>
            <stop stop-color="#007DFE" offset="83%"></stop>
        </linearGradient>
    </defs>
    <g id="Page-1" stroke="none" stroke-width="1" fill="none" fill-rule="evenodd">
        <g id="jetbrains-webstorm">
            <rect id="ViewBox" x="0" y="0" width="240" height="240"></rect>
            <path d="M21.823125,180.19875 L21.82875,224.73 C21.82875,228.780181 23.4378063,232.664449 26.3018923,235.528184 C29.1659784,238.391918 33.0504443,240 37.100625,240 L80.25,240 C84.7084333,240 88.9442435,238.051633 91.846875,234.6675 L214.50375,91.5675 C216.874659,88.7992653 218.17875,85.2747679 218.17875,81.63 L218.17875,37.09875 C218.17875,33.0483969 216.570728,29.1637382 213.707047,26.2993544 C210.843367,23.4349707 206.959103,21.825 202.90875,21.825 L159.75,21.825 C155.291567,21.825 151.055757,23.7733667 148.153125,27.1575 L25.5,170.2575 C23.1282518,173.026715 21.823125,176.552692 21.823125,180.19875 L21.823125,180.19875 Z" id="Path" fill="#F0EB18" fill-rule="nonzero"></path>
            <path d="M21.8241333,185.547566 L21.8241333,224.726889 C21.8241333,233.156042 28.6632033,239.995112 37.0923571,239.995112 L86.1883308,239.995112 C86.9178316,239.995112 87.6387836,239.943819 88.3511867,239.841233 L226.885098,220.059223 C234.415206,218.986012 240.006968,212.533979 239.999024,204.927781 L239.999024,146.163072 C239.999024,137.725369 233.159945,130.886299 224.722243,130.89484 L155.203096,130.911946 C153.561719,130.911946 151.928891,131.168411 150.373003,131.68989 L32.2622639,171.065836 C26.0329844,173.154301 21.8320489,178.986066 21.8241333,185.556115 L21.8241333,185.547566 Z" id="Path" fill="url(#linearGradient-1)" fill-rule="nonzero"></path>
            <path d="M0.00749760055,15.2718211 L0.00749760055,142.6495 C0.00749760055,148.75337 3.64930477,154.275919 9.25734217,156.686691 L149.842975,216.938898 C151.740817,217.751037 153.792538,218.16993 155.861356,218.16993 L224.722243,218.16993 C233.159945,218.16993 239.999015,211.33086 239.999015,202.901707 L239.999015,135.536867 C239.999015,132.510579 239.101387,129.56123 237.425815,127.05642 L157.169329,6.79992315 C154.332843,2.5580817 149.568583,0.00923480932 144.465756,0.00359493805 L15.2757238,0.00359493805 C11.2256437,0.00132774881 7.34079244,1.60921073 4.47695291,4.47305025 C1.61311339,7.33688978 0.00749760055,11.2217411 0.00749760055,15.2718211" id="Path" fill="url(#linearGradient-2)" fill-rule="nonzero"></path>
            <polygon id="Path" fill="#000000" fill-rule="nonzero" points="194.99625 44.998125 45.001875 44.998125 45.001875 194.9925 194.99625 194.9925"></polygon>
            <path d="M79.6425,104.85 L70.56,63.77625 L59.19,63.77625 L72.7725,120.04125 L85.231875,120.04125 L94.835625,79.168125 L104.32125,120.04125 L116.818125,120.04125 L130.483125,63.77625 L119.35125,63.77625 L110.548125,104.85 L100.42125,63.77625 L89.32875,63.77625 L79.6425,104.85 Z M143.3325,118.79625 C146.49375,120.27 150.110625,121.0075 154.183125,121.00875 C158.258125,121.00875 161.87625,120.2575 165.0375,118.755 C168.1975,117.255 170.64875,115.1925 172.39125,112.5675 C174.16,109.9125 175.044375,106.924375 175.044375,103.603125 C175.044375,100.894375 174.44125,98.4025 173.235,96.1275 C172.032861,93.8222669 170.297138,91.8377571 168.1725,90.339375 C166.02875,88.758125 163.576875,87.686875 160.816875,87.125625 L151.250625,85.035 C149.509375,84.61 148.129375,83.886875 147.110625,82.865625 C146.119375,81.844375 145.62375,80.558125 145.62375,79.006875 C145.62375,77.641875 145.985625,76.45 146.709375,75.43125 C147.433125,74.385 148.4375,73.58125 149.7225,73.02 C151.035,72.43125 152.54875,72.13625 154.26375,72.135 C155.97625,72.135 157.49,72.4425 158.805,73.0575 C160.14375,73.64625 161.175,74.49 161.89875,75.58875 C162.62125,76.66 162.9825,77.88 162.9825,79.24875 L173.955,79.24875 C173.9275,76.035 173.07,73.195 171.3825,70.72875 C169.72,68.23375 167.38875,66.29125 164.38875,64.90125 C161.38875,63.508125 157.92,62.810625 154.14,62.810625 C150.3625,62.810625 146.986875,63.53375 144.013125,64.98 C141.040625,66.4 138.723125,68.395625 137.060625,70.966875 C135.400625,73.514375 134.570625,76.394375 134.570625,79.606875 C134.570625,82.260625 135.119375,84.645625 136.216875,86.761875 C137.318095,88.8807848 138.901149,90.7117326 140.83875,92.1075 C142.8225,93.52875 145.15375,94.53375 147.8325,95.1225 L157.760625,97.333125 C159.663125,97.790625 161.15,98.608125 162.22125,99.785625 C163.31875,100.965625 163.8675,102.453125 163.8675,104.248125 C163.886477,105.629316 163.464106,106.980511 162.661875,108.105 C161.885625,109.23 160.774375,110.114375 159.328125,110.758125 C157.906875,111.376875 156.32625,111.680625 154.3425,111.680625 C152.36,111.680625 150.605625,111.3325 149.079375,110.63625 C147.553125,109.93875 146.360625,108.974375 145.501875,107.743125 C144.645625,106.510625 144.2175,105.0775 144.2175,103.44375 L133.205625,103.44375 C133.258125,106.9 134.16875,109.954375 135.9375,112.606875 C137.7325,115.259375 140.1975,117.3225 143.3325,118.79625 M63.725625,164.9925 L123.725625,164.9925 L123.725625,176.2425 L63.725625,176.2425 L63.725625,164.9925 Z" id="Shape" fill="#FFFFFF" fill-rule="nonzero"></path>
        </g>
    </g>
</svg>