<?xml version="1.0" encoding="UTF-8"?>
<svg width="240px" height="240px" viewBox="0 0 240 240" version="1.1" xmlns="http://www.w3.org/2000/svg" xmlns:xlink="http://www.w3.org/1999/xlink">
    <title>jetbrains-phpstorm</title>
    <defs>
        <linearGradient x1="97.1189655%" y1="37.0801307%" x2="4.95517241%" y2="58.513501%" id="linearGradient-1">
            <stop stop-color="#D249FC" offset="16%"></stop>
            <stop stop-color="#FF2D90" offset="55%"></stop>
        </linearGradient>
        <linearGradient x1="6.35468774%" y1="6.55816515%" x2="97.9125%" y2="89.7751875%" id="linearGradient-2">
            <stop stop-color="#FF2D90" offset="30%"></stop>
            <stop stop-color="#7256FF" offset="70%"></stop>
        </linearGradient>
    </defs>
    <g id="Page-1" stroke="none" stroke-width="1" fill="none" fill-rule="evenodd">
        <g id="jetbrains-phpstorm" transform="translate(-0, 0)" fill-rule="nonzero">
            <path d="M217.500001,61.6696092 L217.500001,15.700514 C217.500001,11.5562072 215.835912,7.5854312 212.882135,4.67831861 C209.928359,1.77120601 205.931487,0.170934668 201.7875,0.234315867 L160.36875,0.896207989 C155.940595,0.969053509 151.756044,2.93631495 148.875,6.2997047 L26.2237505,149.381748 C23.8237505,152.186616 22.5000005,155.756449 22.5000005,159.450026 L22.5000005,202.010531 C22.5020713,210.55182 29.4270601,217.474806 37.9687505,217.474806 L79.2300004,217.474806 C83.6925004,217.474806 87.9337504,215.547396 90.8700004,212.191303 L213.675,71.8541318 C216.141517,69.0346052 217.500001,65.4156555 217.500001,61.6696092 Z" id="Path" fill="#D249FC"></path>
            <path d="M217.500001,56.2023655 L217.500001,15.4680249 C217.500001,6.92527065 210.574405,0 202.03125,0 L154.90875,0 C154.15875,0 153.40875,0.0524975391 152.66625,0.164992266 L13.2262506,20.5940346 C5.63097195,21.7068236 6.03720707e-07,28.2210561 6.03720707e-07,35.8970673 L6.03720707e-07,93.6368607 C6.03720707e-07,97.7398857 1.63025386,101.674807 4.53201832,104.575732 C7.43378277,107.476657 11.3692833,109.104886 15.4725006,109.104886 L84.8662504,109.086136 C86.4600004,109.086136 88.0462504,108.838648 89.5650004,108.354921 L206.7375,70.931675 C213.145888,68.8837923 217.49644,62.9297276 217.500001,56.2023655 Z" id="Path" fill="url(#linearGradient-1)"></path>
            <path d="M240,224.531975 L240,96.5579738 C240,90.3407554 236.277566,84.7277048 230.55,82.3086417 L90.2137504,23.0726684 C88.2709741,22.2512126 86.1804981,21.836455 84.0712504,21.8534428 L15.3375006,22.4164492 C6.84478842,22.4864655 1.42108547e-14,29.3918717 1.42108547e-14,37.8844741 L1.42108547e-14,104.125119 C1.42108547e-14,107.147477 0.885000601,110.098589 2.5425006,112.625971 L81.7012504,233.029077 C84.5614269,237.380791 89.4198324,240 94.6275004,240 L224.53125,240 C233.074405,240 240,233.074729 240,224.531975 Z" id="Path" fill="url(#linearGradient-2)"></path>
            <polygon id="Path" fill="#000000" points="195 44.9978907 45.0000005 44.9978907 45.0000005 194.99086 195 194.99086"></polygon>
            <path d="M123.75,164.992266 L63.7500004,164.992266 L63.7500004,176.241739 L123.75,176.241739 L123.75,164.992266 Z M63.7237504,63.7170132 L87.8812504,63.7170132 C91.8450004,63.7170132 95.3212504,64.4407293 98.3062504,65.8881614 C101.29875,67.3355936 103.60125,69.3717481 105.225,72.0003749 C106.845,74.6252519 107.655,77.6626095 107.655,81.1199474 C107.655,84.5772854 106.83,87.7158882 105.18375,90.367014 C103.53375,93.0218895 101.1975,95.0767932 98.1712504,96.5392246 C95.1412504,98.0016561 91.6050004,98.729122 87.5587504,98.729122 L74.6962504,98.729122 L74.6962504,119.994375 L63.7200004,119.994375 L63.7200004,63.720763 L63.7237504,63.7170132 Z M91.9987504,88.5783478 C93.3825004,87.8958798 94.4437504,86.9171757 95.1937504,85.6459853 C95.9437504,84.371045 96.3187504,82.878615 96.3187504,81.1649453 C96.3187504,79.4512757 95.9437504,78.0075933 95.1937504,76.7626517 C94.4437504,75.5139602 93.3787504,74.5502554 91.9987504,73.8677874 C90.6187504,73.1853194 89.0062504,72.8440854 87.1575004,72.8440854 L74.6962504,72.8440854 L74.6962504,89.6057997 L87.1575004,89.6057997 C89.0062504,89.6057997 90.6187504,89.2645656 91.9987504,88.5820976 L91.9987504,88.5783478 Z M122.145,118.734434 C118.995,117.260753 116.53125,115.19835 114.75,112.547224 C112.96875,109.892349 112.05,106.839992 111.99375,103.382654 L123.0075,103.382654 C123.0075,105.017577 123.435,106.45001 124.29375,107.683702 C125.1525,108.917394 126.345,109.881099 127.87125,110.578567 C129.3975,111.272284 131.1525,111.621018 133.13625,111.621018 C135.12375,111.621018 136.70625,111.309782 138.1425,110.679812 C139.575,110.049841 140.685,109.172382 141.48,108.047435 C142.275,106.922488 142.66125,105.636298 142.66125,104.188866 C142.66125,102.3927 142.1175,100.90777 141.03375,99.7265752 C139.94625,98.5491304 138.45375,97.7316687 136.5525,97.2741902 L126.62625,95.0617939 C123.945,94.4768213 121.6125,93.4643688 119.62875,92.0281861 C117.688942,90.6439894 116.105518,88.8190245 115.00875,86.7034357 C113.91,84.5885348 113.35875,82.2036466 113.35875,79.5487711 C113.35875,76.3351717 114.19125,73.4478071 115.8525,70.8866771 C117.51375,68.329297 119.83125,66.3306407 122.805,64.8982078 C125.7825,63.465775 129.1575,62.7495586 132.9375,62.7495586 C136.7175,62.7495586 140.18625,63.4470259 143.18625,64.8419605 C146.18625,66.2368951 148.52625,68.1718044 150.19875,70.6504382 C151.875,73.1253222 152.72625,75.9751886 152.7525,79.188788 L141.78,79.188788 C141.78,77.8238519 141.42,76.5976594 140.6925,75.5139602 C139.929028,74.3941478 138.862433,73.5148984 137.6175,72.979079 C136.179593,72.3556886 134.624443,72.0487655 133.0575,72.0791212 C131.34,72.0791212 129.8325,72.3641079 128.535,72.9415808 C127.319226,73.4493285 126.267857,74.2838943 125.4975,75.3527178 C124.77375,76.3839194 124.41375,77.5838632 124.41375,78.952549 C124.41375,80.5049763 124.91625,81.791166 125.92125,82.8073683 C126.92625,83.8273205 128.29875,84.5472868 130.0425,84.9785166 L139.60875,87.0671687 C142.36875,87.6296423 144.82875,88.6983422 146.985,90.2620189 C149.093475,91.7736342 150.820441,93.7560218 152.02875,96.0517475 C153.2325,98.3428901 153.83625,100.844023 153.83625,103.547646 C153.83625,106.86999 152.95875,109.851101 151.2075,112.490977 C149.44875,115.127103 146.9925,117.197006 143.83125,118.700686 C140.67,120.200615 137.05125,120.95058 132.975,120.95058 C128.9025,120.95058 125.2875,120.211865 122.145,118.738184 L122.145,118.734434 Z" id="Shape" fill="#FFFFFF"></path>
        </g>
    </g>
</svg>