<?xml version="1.0" encoding="UTF-8"?>
<svg width="240px" height="240px" viewBox="0 0 240 240" version="1.1" xmlns="http://www.w3.org/2000/svg" xmlns:xlink="http://www.w3.org/1999/xlink">
    <title>jetpackcompose</title>
    <g id="Page-1" stroke="none" stroke-width="1" fill="none" fill-rule="evenodd">
        <g id="jetpackcompose">
            <rect id="ViewBox" x="0" y="0" width="240" height="240"></rect>
            <g id="Group" fill-rule="nonzero">
                <path d="M77.29875,143.95875 C76.8677934,143.209316 76.5696525,142.391014 76.4175,141.54 C76.58625,142.3875 76.88625,143.203125 77.29875,143.95875 M78.3825,145.295625 C78.79875,145.708125 79.2675,146.06625 79.786875,146.323125 L115.186875,166.1325 L79.786875,146.323125 C79.2679546,146.057895 78.7950463,145.710969 78.38625,145.295625 L78.3825,145.295625 Z" id="Shape" fill="#083042"></path>
                <path d="M120.64125,191.188125 L120.37875,191.188125 C117.749352,191.199135 115.160032,190.543741 112.8525,189.283125 L60.01125,159.751875 C56.893125,158.004375 54.975,154.764375 54.975,151.26375 L54.975,91.1775 C54.975,88.603125 55.441875,86.13375 56.53125,83.97375 L15.21375,60.97875 C13.501875,64.57875 12.620625,68.64375 12.67125,72.915 L12.67125,172.153125 C12.734717,177.995384 15.9249317,183.355345 21.03,186.196875 L108.181875,234.969375 C112.025625,237.129375 116.3325,238.15875 120.58875,238.15875 L120.58875,238.108125 C120.691875,231.883125 120.64125,206.930625 120.64125,191.19 L120.64125,191.188125 Z" id="Path" fill="#083042"></path>
                <path d="M162.1125,94.875 L161.799375,94.41375 C161.540625,94.05375 161.28375,93.744375 161.025,93.38625 C161.28375,93.69375 161.540625,94.05375 161.799375,94.411875 C161.926307,94.5497351 162.031855,94.7058449 162.1125,94.875 M118.61625,70.8 C118.87875,70.8 119.086875,70.749375 119.3475,70.749375 C119.086875,70.8 118.82625,70.8 118.61625,70.8" id="Shape" fill="#3DDB85"></path>
                <path d="M56.47875,83.919375 C57.6369882,81.5185391 59.4800557,79.5143254 61.775625,78.159375 L111.500625,49.09125 C116.135801,46.3693121 121.867081,46.310786 126.556875,48.9375 L176.803125,77.079375 C179.058071,78.3381649 180.994019,80.0977102 182.461875,82.2225 L223.10625,58.2 C220.689348,54.7193006 217.512319,51.8340065 213.815625,49.7625 L130.81125,3.3075 C123.080049,-1.01204274 113.639489,-0.91430552 105.999375,3.564375 L23.934375,51.51 C20.146319,53.7226874 17.1086672,57.0202801 15.21375,60.976875 L56.480625,83.919375 L56.47875,83.919375 Z" id="Path" fill="#3DDC84"></path>
                <path d="M116.544375,71.218125 C116.65125,71.165625 116.758125,71.165625 116.863125,71.113125 C116.758125,71.165625 116.65125,71.165625 116.544375,71.218125 M77.394375,95.4975 C77.499375,95.29125 77.6025,95.085 77.709375,94.935 C77.6025,95.139375 77.50125,95.29125 77.394375,95.4975 L77.240625,95.95875 L77.394375,95.4975 Z" id="Shape" fill="#3DDB85"></path>
                <path d="M223.05375,58.2 L182.409375,82.2225 C183.965625,84.485625 184.90125,87.159375 184.95,89.889375 L184.95,147.095625 C185.014434,152.430336 182.197892,157.385444 177.58125,160.059375 L127.8525,189.13125 C125.6568,190.409757 123.175431,191.11697 120.635625,191.188125 C120.69,206.88 120.69,231.8325 120.585,238.0575 L120.585,238.108125 C124.943836,238.060367 129.21683,236.890249 132.991875,234.710625 L215.05875,186.7125 C222.69,182.236875 227.3625,174.106875 227.2575,165.309375 L227.2575,70.906875 C227.205,66.328125 225.64875,61.955625 223.05375,58.2" id="Path" fill="#4285F4"></path>
                <path d="M163.055625,140.975625 C163.003125,141.080625 163.003125,141.18375 162.950625,141.290625 C163.00872,141.194789 163.044599,141.087151 163.055625,140.975625 M162.534375,95.55 C162.4275,95.29125 162.271875,95.085 162.11625,94.828125 C162.271875,95.085 162.4275,95.34375 162.5325,95.55 L162.534375,95.55 Z M125.263125,166.08 L158.5875,146.58375 C158.795625,146.4825 158.953125,146.325 159.16125,146.22375 C158.953125,146.325 158.795625,146.4825 158.5875,146.58375 L125.263125,166.08375 L125.263125,166.08 Z M162.6375,142.15875 C162.5325,142.4175 162.376875,142.674375 162.27,142.933125 C162.376875,142.62375 162.48,142.365 162.6375,142.15875" id="Shape" fill="#4285F4"></path>
                <path d="M77.24625,95.95875 C76.8232373,96.9581601 76.5606308,98.0180781 76.468125,99.099375 C76.415625,99.508125 76.415625,99.920625 76.415625,100.385625 L76.415625,140.66625 C76.415625,140.97375 76.415625,141.2325 76.468125,141.541875 C76.573125,142.41375 76.884375,143.23875 77.349375,143.960625 C77.6625,144.474375 78.024375,144.883125 78.39,145.295625 C78.80625,145.708125 79.27125,146.06625 79.78875,146.326875 L115.1925,166.1325 C116.732951,166.982962 118.465396,167.42511 120.225,167.416988 L120.590625,167.416988 C122.241013,167.360708 123.849558,166.883051 125.263125,166.029375 L158.5875,146.53125 C158.795625,146.428125 158.95125,146.2725 159.159375,146.17125 C159.523125,145.914375 159.886875,145.655625 160.198125,145.34625 C160.686875,144.90375 161.13625,144.42375 161.54625,143.90625 C161.805,143.54625 162.065625,143.188125 162.27375,142.82625 C162.4275,142.57125 162.534375,142.3125 162.635625,142.05375 C162.740625,141.800625 162.898125,141.489375 163.00125,141.181875 C163.051875,141.076875 163.051875,140.97375 163.104375,140.8725 C163.418782,139.873468 163.576281,138.831701 163.571367,137.784375 L163.571367,99.4575 C163.571367,98.739375 163.46625,98.07 163.3125,97.4025 C163.209375,96.9375 163.05,96.525 162.89625,96.1125 L162.585,95.4975 C162.481875,95.23875 162.3225,95.034375 162.16875,94.775625 L161.8575,94.314375 C161.59875,93.9525 161.338125,93.645 161.079375,93.285 C160.233824,92.2994854 159.212803,91.479363 158.068125,90.86625 L124.381875,71.98875 C123.801281,71.6603762 123.192634,71.3842886 122.563125,71.16375 C121.71858,70.9087096 120.846966,70.7538959 119.96625,70.7025 L119.29125,70.7025 C119.034375,70.7025 118.82625,70.7025 118.5675,70.75125 C117.971123,70.8047157 117.380294,70.9082049 116.80125,71.060625 C116.698125,71.11125 116.595,71.11125 116.49,71.165625 C115.711875,71.371875 114.984375,71.73 114.256875,72.140625 L80.9325,91.640625 C79.9652736,92.2089297 79.1182032,92.9604658 78.43875,93.853125 C78.181875,94.213125 77.92125,94.573125 77.713125,94.933125 C77.61,95.139375 77.506875,95.293125 77.401875,95.499375 L77.24625,95.960625 L77.24625,95.95875 Z" id="Path" fill="#D6F0FF"></path>
                <path d="M120.585,167.415 L120.22125,167.415 C118.460542,167.424449 116.726737,166.982929 115.185,166.1325 L79.785,146.325 C79.2761588,146.042084 78.8049548,145.69624 78.3825,145.295625 C77.9764954,144.899122 77.6269686,144.448649 77.34375,143.956875 C76.9127934,143.207441 76.6146525,142.389139 76.4625,141.538125 C76.408125,141.2325 76.408125,140.97375 76.408125,140.66625 L76.408125,100.381875 C76.408125,99.97125 76.408125,99.51 76.4625,99.095625 C76.561875,98.0175 76.8225,96.958125 77.240625,95.956875 L67.6875,90.14625 L56.475,83.92125 C55.43625,86.08125 54.91875,88.54875 54.91875,91.123125 L54.91875,151.21125 C54.9810059,154.731387 56.8943139,157.958001 59.953125,159.70125 L112.7475,189.28125 C115.045602,190.565728 117.641294,191.222734 120.27375,191.18625 L120.53625,191.18625 C120.53625,183.519375 120.481875,178.066875 120.481875,178.066875 L120.585,167.416875 L120.585,167.415 Z" id="Path" fill="#083042"></path>
                <path d="M120.585,167.415 L120.22125,167.415 C118.460542,167.424449 116.726737,166.982929 115.185,166.1325 L79.785,146.325 C79.2761588,146.042084 78.8049548,145.69624 78.3825,145.295625 C77.9764954,144.899122 77.6269686,144.448649 77.34375,143.956875 C76.9127934,143.207441 76.6146525,142.389139 76.4625,141.538125 C76.408125,141.2325 76.408125,140.97375 76.408125,140.66625 L76.408125,100.381875 C76.408125,99.97125 76.408125,99.51 76.4625,99.095625 C76.561875,98.0175 76.8225,96.958125 77.240625,95.956875 L67.6875,90.14625 L56.475,83.92125 C55.43625,86.08125 54.91875,88.54875 54.91875,91.123125 L54.91875,151.21125 C54.9810059,154.731387 56.8943139,157.958001 59.953125,159.70125 L112.7475,189.28125 C115.045602,190.565728 117.641294,191.222734 120.27375,191.18625 L120.53625,191.18625 C120.53625,183.519375 120.481875,178.066875 120.481875,178.066875 L120.585,167.416875 L120.585,167.415 Z" id="Path" fill="#041619"></path>
                <path d="M176.74875,77.079375 L126.500625,48.935625 C121.810981,46.3102056 116.080617,46.3694434 111.44625,49.09125 L61.72125,78.16125 C59.4137863,79.5028629 57.5665211,81.5115841 56.4225,83.923125 L67.69125,90.148125 L77.240625,95.95875 L77.394375,95.4975 C77.499375,95.289375 77.6025,95.085 77.705625,94.93125 C77.91375,94.57125 78.174375,94.21125 78.433125,93.85125 C79.108125,92.975625 79.93875,92.2575 80.926875,91.63875 L114.249375,72.13875 C114.961875,71.73875 115.70625,71.41375 116.4825,71.16375 C116.5875,71.113125 116.690625,71.113125 116.79375,71.05875 C117.3725,70.90125 117.960625,70.79875 118.558125,70.75125 C118.816875,70.75125 119.025,70.69875 119.285625,70.69875 L119.960625,70.69875 C120.84,70.755 121.71,70.906875 122.555625,71.16 C123.195625,71.3625 123.80125,71.638125 124.3725,71.986875 L158.05875,90.868125 C159.195621,91.4938308 160.215665,92.311515 161.07375,93.285 C161.330625,93.5925 161.593125,93.954375 161.85,94.3125 L162.163125,94.77375 L170.77875,89.06625 L182.458125,82.12125 C180.9525,80.113125 179.0325,78.31125 176.74875,77.0775 L176.74875,77.079375 Z" id="Path" fill="#3DDB85"></path>
                <path d="M176.74875,77.079375 L126.500625,48.935625 C121.810981,46.3102056 116.080617,46.3694434 111.44625,49.09125 L61.72125,78.16125 C59.4137863,79.5028629 57.5665211,81.5115841 56.4225,83.923125 L67.69125,90.148125 L77.240625,95.95875 L77.394375,95.4975 C77.499375,95.289375 77.6025,95.085 77.705625,94.93125 C77.91375,94.57125 78.174375,94.21125 78.433125,93.85125 C79.108125,92.975625 79.93875,92.2575 80.926875,91.63875 L114.249375,72.13875 C114.961875,71.73875 115.70625,71.41375 116.4825,71.16375 C116.5875,71.113125 116.690625,71.113125 116.79375,71.05875 C117.3725,70.90125 117.960625,70.79875 118.558125,70.75125 C118.816875,70.75125 119.025,70.69875 119.285625,70.69875 L119.960625,70.69875 C120.84,70.755 121.71,70.906875 122.555625,71.16 C123.195625,71.3625 123.80125,71.638125 124.3725,71.986875 L158.05875,90.868125 C159.195621,91.4938308 160.215665,92.311515 161.07375,93.285 C161.330625,93.5925 161.593125,93.954375 161.85,94.3125 L162.163125,94.77375 L170.77875,89.06625 L182.458125,82.12125 C180.9525,80.113125 179.0325,78.31125 176.74875,77.0775 L176.74875,77.079375 Z" id="Path" fill="#37BF6E"></path>
                <path d="M162.1125,94.87875 C162.268125,95.13375 162.373125,95.34 162.526875,95.59875 L162.84,96.215625 C163.276022,97.2767924 163.505135,98.4115386 163.515,99.55875 L163.515,137.8875 C163.51923,138.934296 163.361101,139.975417 163.04625,140.97375 C162.995625,141.075 162.995625,141.18 162.943125,141.28125 C162.844473,141.582336 162.723513,141.875649 162.58125,142.15875 C162.474375,142.411875 162.31875,142.670625 162.215625,142.9275 C162.009375,143.289375 161.74875,143.6475 161.488125,144.009375 C161.081694,144.527272 160.630588,145.008494 160.14,145.4475 C159.82875,145.756875 159.465,146.01375 159.10125,146.2725 C158.893125,146.37375 158.739375,146.529375 158.53125,146.6325 L125.205,166.12875 C123.771838,166.937733 122.174759,167.413268 120.5325,167.52 L120.5325,178.168125 C120.5325,178.168125 120.5325,183.6225 120.585,191.2875 C123.128576,191.241227 125.616089,190.532263 127.801875,189.230625 L177.526875,160.160625 C182.14875,157.43625 184.951875,152.495625 184.899375,147.19875 L184.899375,89.990625 C184.84875,87.211875 183.915,84.586875 182.35875,82.32375 L170.675625,89.270625 L162.1125,94.87875 Z" id="Path" fill="#4285F4"></path>
                <path d="M162.1125,94.87875 C162.268125,95.13375 162.373125,95.34 162.526875,95.59875 L162.84,96.215625 C163.276022,97.2767924 163.505135,98.4115386 163.515,99.55875 L163.515,137.8875 C163.51923,138.934296 163.361101,139.975417 163.04625,140.97375 C162.995625,141.075 162.995625,141.18 162.943125,141.28125 C162.844473,141.582336 162.723513,141.875649 162.58125,142.15875 C162.474375,142.411875 162.31875,142.670625 162.215625,142.9275 C162.009375,143.289375 161.74875,143.6475 161.488125,144.009375 C161.081694,144.527272 160.630588,145.008494 160.14,145.4475 C159.82875,145.756875 159.465,146.01375 159.10125,146.2725 C158.893125,146.37375 158.739375,146.529375 158.53125,146.6325 L125.205,166.12875 C123.771838,166.937733 122.174759,167.413268 120.5325,167.52 L120.5325,178.168125 C120.5325,178.168125 120.5325,183.6225 120.585,191.2875 C123.128576,191.241227 125.616089,190.532263 127.801875,189.230625 L177.526875,160.160625 C182.14875,157.43625 184.951875,152.495625 184.899375,147.19875 L184.899375,89.990625 C184.84875,87.211875 183.915,84.586875 182.35875,82.32375 L170.675625,89.270625 L162.1125,94.87875 Z" id="Path" fill="#3870B2"></path>
                <path d="M116.540625,71.21625 C115.760625,71.4225 115.033125,71.7825 114.309375,72.19125 L80.983125,91.69125 L114.305625,72.195 C114.99832,71.7638258 115.749895,71.4354067 116.536875,71.22 L116.540625,71.21625 Z" id="Path" fill="#D6F0FF"></path>
                <path d="M116.540625,71.21625 C115.760625,71.4225 115.033125,71.7825 114.309375,72.19125 L80.983125,91.69125 L114.305625,72.195 C114.99832,71.7638258 115.749895,71.4354067 116.536875,71.22 L116.540625,71.21625 Z" id="Path" fill="#000000" opacity="0.1"></path>
                <path d="M161.025,93.38625 C160.180004,92.4009177 159.159633,91.5808059 158.015625,90.9675 L124.325625,72.08625 L158.01375,90.9675 C159.158428,91.580613 160.179449,92.4007354 161.025,93.38625" id="Path" fill="#D6F0FF"></path>
                <path d="M161.025,93.38625 C160.180004,92.4009177 159.159633,91.5808059 158.015625,90.9675 L124.325625,72.08625 L158.01375,90.9675 C159.158428,91.580613 160.179449,92.4007354 161.025,93.38625" id="Path" fill="#000000" opacity="0.1"></path>
                <path d="M162.84,96.166875 C162.999364,96.5870317 163.137045,97.0150954 163.2525,97.449375 C163.149375,97.03875 162.99,96.628125 162.83625,96.166875 L162.84,96.166875 Z" id="Path" fill="#D6F0FF"></path>
                <path d="M162.84,96.166875 C162.999364,96.5870317 163.137045,97.0150954 163.2525,97.449375 C163.149375,97.03875 162.99,96.628125 162.83625,96.166875 L162.84,96.166875 Z" id="Path" fill="#000000" opacity="0.1"></path>
                <path d="M163.0425,140.97375 C163.359727,139.976016 163.517295,138.934421 163.509375,137.8875 L163.509375,99.55875 L163.509375,137.8875 C163.516689,138.93452 163.358488,139.976119 163.040625,140.97375 L163.0425,140.97375 Z" id="Path" fill="#D6F0FF"></path>
                <path d="M163.0425,140.97375 C163.359727,139.976016 163.517295,138.934421 163.509375,137.8875 L163.509375,99.55875 L163.509375,137.8875 C163.516689,138.93452 163.358488,139.976119 163.040625,140.97375 L163.0425,140.97375 Z" id="Path" fill="#000000" opacity="0.1"></path>
            </g>
        </g>
    </g>
</svg>