<?xml version="1.0" encoding="UTF-8"?>
<svg width="240px" height="240px" viewBox="0 0 240 240" version="1.1" xmlns="http://www.w3.org/2000/svg" xmlns:xlink="http://www.w3.org/1999/xlink">
    <title>Group</title>
    <g id="Page-1" stroke="none" stroke-width="1" fill="none" fill-rule="evenodd">
        <g id="Group">
            <rect id="box" fill="#FFFFFF" x="0" y="0" width="240" height="240" rx="31"></rect>
            <g id="jina" transform="translate(43, 45)" fill="#000000">
                <path d="M35.4845629,149.40748 C55.0821458,149.40748 70.9691258,133.530274 70.9691258,113.944749 C70.9691258,94.3592243 55.0821458,78.4820192 35.4845629,78.4820192 C15.8869799,78.4820192 0,94.3592243 0,113.944749 C0,133.530274 15.8869799,149.40748 35.4845629,149.40748 L35.4845629,149.40748 Z M145.484013,0.11542605 C150.211695,0.11542605 154,3.9014005 154,8.6261735 L154,77.8971939 C154,117.372903 122.061198,149.530601 83.0308742,150 L83.0308742,78.0126199 L82.79988,8.51074745 C82.79988,3.78597445 86.5804855,0 91.3158671,0 L146.431089,0 L145.484013,0.11542605 L145.484013,0.11542605 Z" id="Shape"></path>
            </g>
        </g>
    </g>
</svg>