<?xml version="1.0" encoding="UTF-8"?>
<svg width="241px" height="241px" viewBox="0 0 241 241" version="1.1" xmlns="http://www.w3.org/2000/svg" xmlns:xlink="http://www.w3.org/1999/xlink">
    <title>jquery</title>
    <g id="Page-1" stroke="none" stroke-width="1" fill="none" fill-rule="evenodd">
        <g id="jquery" transform="translate(0.7142, 0.6287)">
            <rect id="box" x="0" y="0" width="240" height="240"></rect>
            <path d="M15.2093383,59.0481115 C-5.99493845,89.5950458 -3.35521844,129.342098 12.8426265,161.802672 C13.227145,162.581232 13.6308895,163.346303 14.0288663,164.111373 L14.7863679,165.574065 L15.2593257,166.416221 L16.103344,167.930945 C16.6070633,168.819351 17.1223182,169.703904 17.6491086,170.588457 L18.5315788,172.045367 C19.116047,172.991587 19.7139734,173.926245 20.3253579,174.858976 L21.0905499,176.042234 C21.9345681,177.304504 22.7978123,178.564847 23.6898954,179.802064 L23.7648765,179.898421 L24.2032277,180.491977 C24.9741875,181.557679 25.7682183,182.609892 26.5718621,183.650542 L27.4639452,184.787549 C28.1810724,185.691373 28.9097351,186.589415 29.6518559,187.483603 L30.4881838,188.485711 C31.4859529,189.665921 32.5024937,190.830056 33.5374161,191.97767 L33.6008616,192.041265 L33.7181398,192.17231 C34.7353067,193.278726 35.7684894,194.370239 36.8173595,195.446504 L37.81134,196.450538 C38.6245968,197.271496 39.4513117,198.078963 40.285717,198.882576 L41.2989235,199.846141 C42.4140274,200.900281 43.5406668,201.933223 44.6903773,202.943039 L44.7442099,202.985435 L45.3344459,203.490343 C46.3476524,204.369115 47.3781621,205.242104 48.4163623,206.09775 L49.6929639,207.117202 C50.5408274,207.799406 51.3983038,208.470047 52.261548,209.129125 L53.6342793,210.175557 C54.5878854,210.878959 55.5472592,211.570799 56.516246,212.247221 L57.5659817,212.99302 L57.8543707,213.199223 C58.7733701,213.833249 59.713518,214.444149 60.6536659,215.055049 L61.8648994,215.864444 C63.306844,216.777903 64.7680146,217.681727 66.2464885,218.554717 L67.457722,219.238848 C68.543987,219.867092 69.6379423,220.483774 70.7453558,221.086966 C71.3452048,221.410723 71.9604345,221.717137 72.5641287,222.027405 C73.346624,222.437884 74.1233515,222.854144 74.919305,223.253059 L75.4633987,223.517076 L76.4266178,223.983442 C77.6589998,224.573143 78.9009948,225.153209 80.1564479,225.712077 L80.944711,226.066669 C82.3838214,226.697717 83.8343405,227.302294 85.2955387,227.880098 L86.3548873,228.298285 C87.7083927,228.820537 89.081124,229.337008 90.4596231,229.822645 L90.974878,230.001868 C92.4879586,230.531829 94.0144973,231.023247 95.5525716,231.503102 L96.6580625,231.834568 C98.2230531,232.306715 99.7707404,232.871364 101.383796,233.170069 C203.932977,251.915261 233.721631,171.399778 233.721631,171.399778 C208.70293,204.07041 164.29488,212.688534 122.218935,203.093355 C120.625105,202.732981 119.079341,202.233855 117.523963,201.773271 L116.353104,201.416752 C114.837537,200.951143 113.330005,200.459654 111.831165,199.942498 L111.210168,199.717023 C109.873548,199.243462 108.54424,198.749416 107.22271,198.235061 L106.103761,197.793748 C104.657971,197.22139 103.219872,196.62398 101.799076,195.99959 L100.939677,195.618018 C99.7228023,195.067001 98.5121334,194.502316 97.3078989,193.924071 L96.2581632,193.419163 C95.3141701,192.958579 94.37979,192.469088 93.449255,191.987306 C92.8263349,191.657767 92.1918793,191.347499 91.574727,191.00447 C90.4418735,190.392974 89.3195554,189.762067 88.2082669,189.112028 L87.0720145,188.476075 C85.5962046,187.602847 84.134836,186.705325 82.6885027,185.783875 L81.5061081,184.993752 C80.4546884,184.317813 79.4144251,183.624595 78.3857399,182.914379 L77.3821464,182.207122 C76.3915544,181.505192 75.4084133,180.792756 74.432889,180.069935 L73.1274484,179.07939 C72.2310859,178.396484 71.3440474,177.701368 70.4665799,176.994236 L69.2803401,176.040307 C68.1628465,175.122075 67.0578938,174.188615 65.96579,173.240187 L65.6024199,172.933774 C64.4257527,171.892911 63.2643816,170.834803 62.1186816,169.759791 L61.1362367,168.81357 C60.2883732,168.004176 59.4539679,167.189 58.6330208,166.352625 L57.6524984,165.371716 C56.6106103,164.303098 55.58637,163.217334 54.580195,162.114867 L54.4283102,161.952988 C53.3680264,160.787514 52.329013,159.602775 51.3117871,158.399361 L50.4966078,157.428087 C49.7366102,156.511669 48.988657,155.585282 48.2529419,154.649166 L47.4319947,153.623933 C46.5523458,152.483948 45.6890132,151.331406 44.8422621,150.166662 C21.4827588,118.226413 13.0887183,74.1760804 31.7590177,38 M81.4210229,33.6603767 C66.1013708,55.6864338 66.9348582,85.1734867 78.8840716,108.46799 C80.8838246,112.383921 83.1475189,116.159573 85.6595177,119.768865 C87.9544887,123.056079 90.4991219,126.966961 93.5449999,129.607478 C94.6587818,130.826459 95.805079,132.015375 96.9826553,133.172944 L97.8891209,134.06527 C99.0329246,135.179478 100.203477,136.265937 101.399754,137.323698 L101.54187,137.446513 L101.576438,137.481055 C102.914599,138.645402 104.281768,139.776037 105.676659,140.871893 L106.608091,141.597268 C108.010635,142.676906 109.440578,143.720533 110.896518,144.727125 L111.021349,144.821155 C111.666629,145.266358 112.323433,145.680858 112.978316,146.11071 L113.905907,146.722864 C114.950646,147.392588 116.00883,148.045042 117.084297,148.670629 L117.53561,148.931611 C118.463201,149.465087 119.402314,149.990888 120.345269,150.501337 L121.345838,151.02138 C121.99688,151.36104 122.647922,151.708375 123.310487,152.03844 L123.608161,152.172769 C124.958257,152.836736 126.319876,153.477675 127.710302,154.082154 L128.616767,154.454436 C129.728724,154.926506 130.852203,155.387061 131.977604,155.816912 L133.417962,156.344632 C134.441577,156.72459 135.469032,157.070007 136.50417,157.417342 L137.900357,157.864465 C139.373364,158.321182 140.829086,158.898795 142.363548,159.154019 C221.454589,172.247223 239.714493,111.398273 239.714493,111.398273 C223.255997,135.084248 191.379905,146.387043 157.366321,137.563571 C155.862646,137.168477 154.36872,136.737221 152.885846,136.270178 L151.539591,135.834569 C150.488753,135.494926 149.444465,135.135372 148.407292,134.756102 L146.99382,134.230302 C145.862174,133.796303 144.737896,133.34336 143.621461,132.871664 L142.713075,132.487868 C141.322351,131.883049 139.946865,131.243832 138.587888,130.570806 C137.890755,130.231147 137.205144,129.872297 136.517613,129.519205 L135.323076,128.905131 C134.441936,128.427967 133.569264,127.935352 132.705465,127.427516 L132.079389,127.072505 C131.009548,126.449145 129.952429,125.804236 128.90868,125.138173 L127.952282,124.501071 C127.263274,124.055939 126.578907,123.603675 125.899291,123.144352 C124.449487,122.137312 123.024081,121.095646 121.624307,120.020252 L120.662148,119.262255 C105.774603,107.518095 93.971346,91.4639045 88.3616301,73.2623753 C82.4811267,54.3872841 83.7486421,33.1979024 93.9367774,16 M135.578116,14.3547692 C126.498558,27.7021925 125.606436,44.2784579 131.907286,59.0184881 C138.551854,74.6669917 152.165398,86.9400632 168.05559,92.7631659 C168.710199,93.0042682 169.366739,93.2202959 170.029071,93.4459677 L170.899952,93.7217887 C171.836486,94.0149691 172.765297,94.3563699 173.732728,94.5396077 C217.643648,103.014836 229.554051,72.0322258 232.72282,67.4705703 C222.291563,82.4748486 204.758091,86.0759526 183.244829,80.8604276 C181.54555,80.4495893 179.678274,79.836225 178.040787,79.2556507 C175.937187,78.5091281 173.874007,77.6534989 171.859658,76.692251 C168.03765,74.8541947 164.407618,72.641937 161.022891,70.0879768 C141.772761,55.4964657 129.814083,27.665545 142.375233,5" id="shape" fill="#0868AC" fill-rule="nonzero"></path>
        </g>
    </g>
</svg>