<?xml version="1.0" encoding="UTF-8"?>
<svg width="240px" height="240px" viewBox="0 0 240 240" version="1.1" xmlns="http://www.w3.org/2000/svg" xmlns:xlink="http://www.w3.org/1999/xlink">
    <title>json</title>
    <defs>
        <linearGradient x1="19.1328971%" y1="15.6394856%" x2="85.1938438%" y2="86.1359087%" id="linearGradient-1">
            <stop stop-color="#000000" offset="0%"></stop>
            <stop stop-color="#FFFFFF" offset="100%"></stop>
        </linearGradient>
        <linearGradient x1="73.8534496%" y1="82.9502604%" x2="15.6382479%" y2="12.5039395%" id="linearGradient-2">
            <stop stop-color="#000000" offset="0%"></stop>
            <stop stop-color="#FFFFFF" offset="100%"></stop>
        </linearGradient>
    </defs>
    <g id="Page-1" stroke="none" stroke-width="1" fill="none" fill-rule="evenodd">
        <g id="json" transform="translate(38, 25)">
            <rect id="ViewBox" x="-38" y="-25" width="240" height="240"></rect>
            <circle id="Oval" stroke="#FFFFFF" stroke-width="5" cx="82" cy="95" r="117.5"></circle>
            <g id="shape" transform="translate(-33, -20)">
                <path d="M114.805242,171.20708 C165.689032,240.574453 215.487742,151.846241 215.413631,98.4880075 C215.328226,35.4011286 151.388226,0.142440987 114.764435,0.142440987 C55.9827419,0.142440987 0,48.7244571 0,115.194567 C0,189.076626 64.17,230 114.764435,230 C103.316371,228.351046 65.1623387,220.176758 64.6485484,132.298064 C64.3035484,72.8615133 84.0371774,49.1158287 114.680968,59.5622977 C115.367258,59.816411 148.481694,72.8800617 148.481694,115.554407 C148.481694,158.045122 114.805242,171.20708 114.805242,171.20708" id="Path" fill="url(#linearGradient-1)"></path>
                <path d="M114.745887,59.5140718 C81.1232258,47.9250203 39.9346774,75.6363566 39.9346774,131.142497 C39.9346774,221.773777 107.096532,230 115.237419,230 C174.017258,230 230,181.417984 230,114.947874 C230,41.0658154 165.83,0.142440987 115.235565,0.142440987 C129.248871,-1.79772352 190.762742,15.3076275 190.762742,99.3838961 C190.762742,154.211165 144.829516,184.059279 114.955484,171.307241 C114.269194,171.053128 81.1547581,157.989477 81.1547581,115.315132 C81.1547581,72.8207068 114.745887,59.512217 114.745887,59.5140718" id="Path" fill="url(#linearGradient-2)"></path>
            </g>
        </g>
    </g>
</svg>