<?xml version="1.0" encoding="UTF-8"?>
<svg width="240px" height="240px" viewBox="0 0 240 240" version="1.1" xmlns="http://www.w3.org/2000/svg" xmlns:xlink="http://www.w3.org/1999/xlink">
    <title>junit</title>
    <g id="Page-1" stroke="none" stroke-width="1" fill="none" fill-rule="evenodd">
        <g id="junit" transform="translate(-0.0002, -0)">
            <rect id="ViewBox" x="0.000242183746" y="0" width="240" height="240"></rect>
            <path d="M120.549617,0.80625 C91.0371172,0.24375 62.8821172,8.034375 38.7939922,30.305625 C-11.6153828,76.929375 -13.1172578,156.755625 35.5727422,205.100625 C44.3364922,213.8025 54.7671172,221.85375 66.2196172,226.756875 C69.2102422,216.6975 68.6289922,204.555 67.6821172,192.61875 C67.4533672,192.3825 67.2189922,192.15 67.0446172,191.8875 C63.8458672,187.119375 66.2196172,174.6675 66.2196172,169.003125 C86.3477422,172.57125 102.740867,183.643125 124.288367,177.211875 C145.374617,170.919375 154.162742,140.50875 135.572117,126.114375 C124.346492,117.414375 107.690867,118.60125 94.4496172,120.196875 C86.4996172,121.156875 76.5696172,124.093125 71.0796172,115.635 C67.8396172,110.656875 71.1846172,98.439375 71.7283672,92.806875 C71.8633672,91.3875 72.0114922,89.941875 72.1521172,88.516875 C73.5621172,71.026875 75.9021172,53.349375 75.9021172,35.848125 L161.388992,35.848125 L161.388992,6.178125 C147.663992,3.043125 133.967117,1.06875 120.551492,0.80625 L120.549617,0.80625 Z" id="Path" fill="#DC514A" fill-rule="nonzero"></path>
            <path d="M160.697117,6.121875 L160.697117,58.35 L98.4939922,58.35 L95.2614922,98.518125 C109.065242,97.43625 121.862117,95.000625 135.656492,98.2425 C145.112117,100.47 153.988367,104.93625 160.556492,112.18125 C178.882742,132.37875 175.275242,170.29125 154.233992,187.325625 C148.312742,192.12 141.547742,195.27 134.403992,197.295 C127.807742,199.404375 121.181492,200.295 114.530867,200.35875 C112.149272,200.48792 109.764708,200.554818 107.379617,200.559375 C97.0221172,200.559375 86.6627422,199.213125 76.6802422,196.419375 C74.1414922,195.706875 70.2152422,194.71875 67.7477422,192.87 L66.1764922,192.523125 L65.3721172,226.269375 C129.482117,260.263125 211.153367,223.891875 234.146492,157.175625 C253.586492,100.794375 223.481492,20.919375 160.698992,6.121875 L160.697117,6.121875 Z" id="Path" fill="#23A161" fill-rule="nonzero"></path>
        </g>
    </g>
</svg>