<?xml version="1.0" encoding="UTF-8"?>
<svg width="205px" height="240px" viewBox="0 0 205 240" version="1.1" xmlns="http://www.w3.org/2000/svg" xmlns:xlink="http://www.w3.org/1999/xlink">
    <title>jupyter</title>
    <g id="Page-1" stroke="none" stroke-width="1" fill="none" fill-rule="evenodd">
        <g id="jupyter" fill-rule="nonzero">
            <path d="M186.970197,13.6219687 C187.157896,16.4835595 186.454024,19.3451504 184.999356,21.8314506 C183.544687,24.3177508 181.386146,26.2880265 178.805282,27.5546322 C176.224418,28.821238 173.315081,29.2434399 170.452668,28.8681493 C167.590256,28.4459474 164.915542,27.226253 162.803926,25.3028886 C160.645385,23.3795243 159.143792,20.8463128 158.43992,18.0785446 C157.736048,15.2638651 157.876822,12.3553629 158.862243,9.63450609 C159.847664,6.91364924 161.583881,4.56808299 163.930121,2.83236396 C166.276361,1.09664494 169.044924,0.158418436 171.907337,0.0176844614 C173.784329,-0.0761381886 175.661321,0.205329761 177.444463,0.815176986 C179.227605,1.42502421 180.869973,2.41016204 182.277717,3.67676781 C183.685461,4.94337359 184.811656,6.49144731 185.609378,8.18025501 C186.407099,9.91597404 186.876347,11.7455157 186.970197,13.6219687" id="Path" fill="#FFFFFF"></path>
            <path d="M48.9621903,220.352906 C49.1933564,224.007434 48.3611585,227.661962 46.5580631,230.841875 C44.7549678,234.021789 42.0734413,236.537243 38.8371163,238.150931 C35.6007913,239.764618 31.9946006,240.334155 28.4808762,239.81208 C24.9209187,239.290004 21.6383605,237.723778 18.9568341,235.255785 C16.3215408,232.787793 14.425979,229.607879 13.547548,226.048274 C12.6691169,222.488669 12.8540497,218.739219 14.0561133,215.274536 C15.2581769,211.809854 17.431138,208.819786 20.2975973,206.636562 C23.1640566,204.453338 26.6315477,203.219341 30.1915052,203.029496 C32.5493991,202.887111 34.8610599,203.266803 37.0802541,204.026185 C39.2994484,204.833029 41.3337099,206.067025 43.0443388,207.680713 C44.801201,209.2944 46.1881974,211.240318 47.2053281,213.423542 C48.2686921,215.559305 48.8697239,217.932375 48.9621903,220.352906" id="Path" fill="#FFFFFF"></path>
            <path d="M16.774737,43.9972896 C14.7121086,44.0441766 12.6494802,43.4815325 10.9149973,42.4031312 C9.18051429,41.32473 7.77417675,39.6836846 6.93037422,37.8082041 C6.0865717,35.9327237 5.80530419,33.8228082 6.13344961,31.7597797 C6.46159504,29.6967512 7.3991534,27.8212708 8.80549095,26.3208864 C10.2118285,24.820502 12.0400673,23.7421008 14.0558178,23.2732307 C16.0715683,22.8043606 18.1810746,22.9450216 20.1499471,23.6483268 C22.0719418,24.3516319 23.7595468,25.6644682 24.9783727,27.3055136 C26.1971986,28.993446 26.9003674,30.9627005 26.9941232,33.072616 C27.087879,35.8858367 26.0565648,38.6052833 24.1345702,40.6214248 C22.2125755,42.6844533 19.5405342,43.8566286 16.774737,43.9972896" id="Path" fill="#FFFFFF"></path>
            <path d="M102.5,180.70855 C64.1562173,180.70855 30.441745,166.937546 13,146.562082 C19.780303,164.87658 31.9848485,180.70855 47.9770115,191.856506 C63.9691745,203.004461 83.0007837,209 102.5,209 C121.999216,209 141.030825,203.004461 157.022989,191.856506 C173.015152,180.70855 185.219697,164.87658 192,146.562082 C174.605016,166.937546 141.030825,180.70855 102.5,180.70855 M102.5,48.2914498 C140.843783,48.2914498 174.558255,62.0624535 192,82.4379182 C185.219697,64.1234201 173.015152,48.2914498 157.022989,37.1434944 C141.030825,25.995539 121.999216,20 102.5,20 C83.0007837,20 63.9691745,25.995539 47.9770115,37.1434944 C31.9848485,48.2914498 19.780303,64.1234201 13,82.4379182 C30.3949843,62.0156134 63.9691745,48.2914498 102.5,48.2914498" id="Shape" fill="#F37726"></path>
            <path d="M8.39702517,125.774138 C8.39702517,133.222414 7.78718535,135.596552 6.23913043,137.412069 C4.50343249,138.948276 2.298627,139.786207 0,139.786207 L0.609839817,144.022414 C4.17505721,144.068966 7.64645309,142.812069 10.3672769,140.484483 C11.8215103,138.715517 12.9004577,136.667241 13.5572082,134.47931 C14.2139588,132.291379 14.4016018,130.010345 14.1201373,127.72931 L14.1201373,99.6586207 L8.39702517,99.6586207 L8.39702517,125.774138 Z M51.1327231,122.422414 C51.1327231,125.587931 51.1327231,128.427586 51.3672769,130.894828 L46.3009153,130.894828 L45.97254,125.867241 C44.8935927,127.636207 43.3924485,129.125862 41.5629291,130.15 C39.7334096,131.174138 37.6693364,131.686207 35.6052632,131.639655 C30.6327231,131.639655 24.721968,128.986207 24.721968,118.046552 L24.721968,99.937931 L30.4450801,99.937931 L30.4450801,116.92931 C30.4450801,122.841379 32.2745995,126.751724 37.4347826,126.751724 C38.51373,126.751724 39.5457666,126.565517 40.5308924,126.146552 C41.5160183,125.727586 42.4073227,125.168966 43.1578947,124.424138 C43.9084668,123.67931 44.5183066,122.794828 44.8935927,121.817241 C45.3157895,120.839655 45.5034325,119.768966 45.5034325,118.744828 L45.5034325,99.7517241 L51.2265446,99.7517241 L51.2265446,122.282759 L51.1327231,122.422414 Z M61.9691076,110.039655 C61.9691076,106.082759 61.9691076,102.87069 61.7345538,99.937931 L66.8478261,99.937931 L67.0823799,105.244828 C68.2218399,103.314547 69.8781042,101.735413 71.8672769,100.682759 C73.8375286,99.612069 76.0892449,99.1 78.2940503,99.1931034 C85.8935927,99.1931034 91.6167048,105.524138 91.6167048,114.927586 C91.6167048,126.053448 84.7208238,131.546552 77.3089245,131.546552 C75.3855835,131.639655 73.5091533,131.22069 71.8203661,130.382759 C70.1315789,129.544828 68.6773455,128.241379 67.5983982,126.658621 L67.5983982,143.65 L61.9691076,143.65 L61.9691076,110.039655 Z M67.5983982,118.325862 C67.5983982,119.117241 67.6922197,119.862069 67.8329519,120.606897 C68.3020595,122.468966 69.4279176,124.144828 70.9759725,125.355172 C72.5240275,126.565517 74.4473684,127.17069 76.3707094,127.17069 C82.4221968,127.17069 85.9405034,122.282759 85.9405034,115.206897 C85.9405034,109.015517 82.6098398,103.708621 76.5583524,103.708621 C74.1659039,103.894828 71.9610984,104.965517 70.2723112,106.641379 C68.6304348,108.363793 67.6453089,110.598276 67.5514874,112.972414 L67.5514874,118.325862 L67.5983982,118.325862 Z M101.843249,99.8913793 L108.73913,118.186207 C109.442792,120.234483 110.240275,122.701724 110.756293,124.517241 C111.366133,122.655172 111.975973,120.281034 112.773455,118.046552 L119.012586,99.8913793 L125.017162,99.8913793 L116.479405,121.956897 C112.210526,132.57069 109.583524,138.017241 105.643021,141.368966 C103.672769,143.184483 101.23341,144.441379 98.6533181,145 L97.2459954,140.251724 C99.0755149,139.646552 100.764302,138.715517 102.265446,137.505172 C104.329519,135.82931 106.018307,133.687931 107.097254,131.22069 C107.331808,130.801724 107.47254,130.336207 107.566362,129.87069 C107.519451,129.358621 107.378719,128.846552 107.191076,128.381034 L95.5572082,99.8448276 L101.796339,99.8448276 L101.843249,99.8913793 Z M140.263158,91 L140.263158,99.8913793 L148.47254,99.8913793 L148.47254,104.127586 L140.263158,104.127586 L140.263158,120.839655 C140.263158,124.656897 141.389016,126.844828 144.532037,126.844828 C145.657895,126.844828 146.783753,126.751724 147.8627,126.472414 L148.097254,130.708621 C146.455378,131.267241 144.71968,131.546552 143.030892,131.453448 C141.905034,131.546552 140.732265,131.360345 139.653318,130.941379 C138.574371,130.522414 137.636156,129.917241 136.791762,129.07931 C135.056064,126.751724 134.258581,123.865517 134.586957,121.025862 L134.586957,104.034483 L129.708238,104.034483 L129.708238,99.7982759 L134.680778,99.7982759 L134.680778,92.2568966 L140.263158,91 Z M159.02746,116.417241 C158.933638,117.860345 159.121281,119.303448 159.6373,120.653448 C160.153318,122.003448 160.950801,123.260345 161.982838,124.237931 C163.014874,125.262069 164.234554,126.053448 165.594966,126.565517 C166.955378,127.077586 168.409611,127.263793 169.863844,127.17069 C172.819222,127.217241 175.727689,126.705172 178.401602,125.541379 L179.386728,129.777586 C176.056064,131.127586 172.490847,131.77931 168.925629,131.686207 C166.814645,131.825862 164.750572,131.5 162.78032,130.801724 C160.810069,130.056897 159.02746,128.893103 157.573227,127.45 C156.118993,125.960345 154.993135,124.191379 154.242563,122.236207 C153.538902,120.281034 153.257437,118.186207 153.44508,116.137931 C153.44508,106.781034 159.02746,99.4258621 168.175057,99.4258621 C178.448513,99.4258621 180.981693,108.317241 180.981693,114.043103 C181.028604,114.927586 181.028604,115.812069 180.981693,116.696552 L158.886728,116.696552 L159.02746,116.417241 Z M175.7746,112.181034 C175.962243,111.063793 175.868421,109.9 175.540046,108.782759 C175.21167,107.665517 174.648741,106.641379 173.898169,105.803448 C173.147597,104.918966 172.209382,104.22069 171.177346,103.755172 C170.145309,103.289655 168.97254,103.010345 167.846682,103.010345 C165.501144,103.196552 163.296339,104.22069 161.654462,105.896552 C160.012586,107.572414 159.121281,109.806897 159.074371,112.181034 L175.7746,112.181034 Z M189.707094,109.574138 C189.707094,105.943103 189.707094,102.777586 189.47254,99.8913793 L194.585812,99.8913793 L194.585812,105.943103 L194.820366,105.943103 C195.336384,104.081034 196.462243,102.405172 198.010297,101.194828 C199.558352,99.9844828 201.434783,99.2862069 203.358124,99.1465517 C203.874142,99.0534483 204.437071,99.0534483 205,99.1465517 L205,104.453448 C204.343249,104.360345 203.686499,104.360345 203.029748,104.453448 C201.106407,104.546552 199.229977,105.291379 197.822654,106.641379 C196.415332,107.991379 195.524027,109.760345 195.383295,111.668966 C195.242563,112.553448 195.148741,113.437931 195.148741,114.322414 L195.148741,130.848276 L189.519451,130.848276 L189.519451,109.62069 L189.707094,109.574138 Z" id="Shape" fill="#FFFFFF"></path>
        </g>
    </g>
</svg>