<?xml version="1.0" encoding="UTF-8"?>
<svg width="240px" height="240px" viewBox="0 0 240 240" version="1.1" xmlns="http://www.w3.org/2000/svg" xmlns:xlink="http://www.w3.org/1999/xlink">
    <title>jwt</title>
    <g id="Page-1" stroke="none" stroke-width="1" fill="none" fill-rule="evenodd">
        <g id="jwt">
            <rect id="ViewBox" x="0" y="0" width="240" height="240"></rect>
            <g id="shape" fill-rule="nonzero">
                <path d="M138.174375,64.5598785 L137.933437,0 L101.825625,0 L102.066562,64.5598785 L120.12,89.2805234 L138.174375,64.5598785 Z M102.066562,175.199907 L102.066562,240 L138.174375,240 L138.174375,175.199907 L120.12,150.480196 L102.066562,175.199907 Z" id="Shape" fill="#FFFFFF"></path>
                <path d="M138.174375,175.199907 L176.20875,227.520037 L205.335938,206.399813 L167.301562,154.080617 L138.174375,144.71971 L138.174375,175.199907 Z M102.066563,64.5598785 L63.79125,12.2397476 L34.6640625,33.359972 L72.6984375,85.6801028 L102.066563,95.0400748 L102.066563,64.5598785 Z" id="Shape" fill="#00F2E6"></path>
                <path d="M72.6984375,85.6801028 L11.0728125,65.7600187 L0,99.8397009 L61.6246875,120 L90.751875,110.399813 L72.6984375,85.6801028 Z M149.248125,129.359972 L167.301563,154.080617 L228.927188,173.999766 L240,139.920084 L178.375313,120 L149.248125,129.359972 Z" id="Shape" fill="#00B9F1"></path>
                <path d="M178.375312,120 L240,99.8397009 L228.927187,65.7600187 L167.301562,85.6801028 L149.248125,110.399813 L178.375312,120 Z M61.6246875,120 L0,139.920084 L11.0728125,173.999766 L72.6984375,154.080617 L90.751875,129.359972 L61.6246875,120 Z" id="Shape" fill="#D63AFF"></path>
                <path d="M72.6984375,154.080617 L34.6640625,206.399813 L63.79125,227.520037 L102.066562,175.199907 L102.066562,144.71971 L72.6984375,154.080617 Z M167.301562,85.6801028 L205.335938,33.359972 L176.20875,12.2397476 L138.174375,64.5598785 L138.174375,95.0400748 L167.301562,85.6801028 Z" id="Shape" fill="#FB015B"></path>
            </g>
        </g>
    </g>
</svg>