<?xml version="1.0" encoding="UTF-8"?>
<svg width="136px" height="136px" viewBox="0 0 136 136" version="1.1" xmlns="http://www.w3.org/2000/svg" xmlns:xlink="http://www.w3.org/1999/xlink">
    <title>k3s-logo-light</title>
    <g id="Page-1" stroke="none" stroke-width="1" fill="none" fill-rule="evenodd">
        <g id="k3s-logo-light" fill-rule="nonzero">
            <path d="M121.605274,0 L14.3947261,0 C6.45441806,0.0283837057 0.0232893927,7.88109315 0,17.5766351 L0,118.423365 C0.0232893927,128.118907 6.45441806,135.971616 14.3947261,136 L121.605274,136 C129.545582,135.971616 135.976711,128.118907 136,118.423365 L136,17.5766351 C135.976711,7.88109315 129.545582,0.0283837057 121.605274,0 Z" id="Path" fill="#FFC61C"></path>
            <path d="M57.4667976,93.98065 L31.3023922,109.18344 C27.959338,111.125875 23.6743642,109.990859 21.7316353,106.64831 C19.7889064,103.305761 20.9240944,99.0214352 24.2671486,97.079 L50.4315541,81.87626 C52.5942747,80.6172389 55.2646677,80.6082152 57.4358503,81.8525915 C59.6070328,83.0969677 60.9487704,85.4054756 60.9551782,87.9076827 C60.9615403,90.4098897 59.6316014,92.7252129 57.4667976,93.98065 Z" id="Path" fill="#000000"></path>
            <path d="M67.7598537,70.81844 L67.7283989,70.81844 C65.8716274,70.8103845 64.0941119,70.0651391 62.7869169,68.7466624 C61.4797218,67.4281858 60.7499354,65.6444903 60.7580472,63.788 L60.889385,33.65075 C60.9064418,29.7970391 64.035422,26.6818204 67.8897533,26.68117 L67.9212081,26.68117 C71.7876889,26.6980716 74.9083915,29.8456936 74.8915701,33.71159 L74.760232,63.84884 C74.7431862,67.7025626 71.6141967,70.8177951 67.7598537,70.81844 L67.7598537,70.81844 Z" id="Path" fill="#000000"></path>
            <path d="M114.054352,106.6285 C113.126511,108.236869 111.597346,109.41056 109.803601,109.89111 C108.009855,110.371661 106.098628,110.119663 104.490797,109.19061 L78.2881053,94.06473 C76.119472,92.8155492 74.7827268,90.503895 74.7819582,88.001496 C74.7811903,85.499097 76.1165159,83.1866227 78.2843818,81.936111 C80.4522476,80.6855993 83.1228742,80.6872802 85.2891637,81.94052 L111.491855,97.06639 C113.099947,97.9945756 114.273364,99.5235003 114.753933,101.316774 C115.234503,103.110047 114.982853,105.020752 114.054352,106.6285 Z" id="Path" fill="#000000"></path>
        </g>
    </g>
</svg>