<?xml version="1.0" encoding="UTF-8"?>
<svg width="240px" height="240px" viewBox="0 0 240 240" version="1.1" xmlns="http://www.w3.org/2000/svg" xmlns:xlink="http://www.w3.org/1999/xlink">
    <title>k6</title>
    <g id="Page-1" stroke="none" stroke-width="1" fill="none" fill-rule="evenodd">
        <g id="k6">
            <rect id="ViewBox" x="0" y="0" width="240" height="240"></rect>
            <path d="M239.6775,240 L0.3225,240 L80.0025,64.395 L128.00625,100.846875 L190.6125,0 L239.6775,240 Z M151.918125,202.06875 L152.431875,202.06875 C158.356875,202.081875 164.056875,199.7175 168.31875,195.46875 C170.515669,193.401497 172.254379,190.896273 173.4225,188.115 C174.60375,185.3175 175.18875,182.293125 175.15125,179.23875 C175.243958,176.306347 174.704229,173.388355 173.56875,170.683125 C172.43981,168.003668 170.731394,165.607531 168.56625,163.666875 C164.941875,159.901875 160.048125,157.726875 154.906875,157.588125 L154.513125,157.588125 C153.840499,157.581077 153.170597,157.674611 152.525625,157.865625 L165.16125,138.465 L155.098125,131.206875 L150.33,138.463125 L138.1575,157.67625 C136.06125,160.861875 134.311875,163.666875 133.22625,165.615 C132.102399,167.68312 131.135916,169.832951 130.335,172.04625 C129.422501,174.408387 128.952793,176.918367 128.949375,179.450625 C128.92125,182.469375 129.50625,185.45625 130.670625,188.218125 C131.821127,190.970209 133.532504,193.452344 135.695625,195.50625 C139.906875,199.745625 145.561875,202.111875 151.44375,202.10626 L151.918125,202.06875 Z M98.4,181.179375 L112.35375,201.57 L127.273125,201.57 L110.859375,177.91875 L125.43375,157.006875 L115.75875,150.09375 L111.489375,155.915625 L98.386875,175.003125 L98.386875,136.625625 L85.3275,125.625 L85.3275,201.555 L98.386875,201.555 L98.386875,181.164375 L98.4,181.179375 Z M151.933125,189.3375 C149.36968,189.331442 146.919139,188.282178 145.145625,186.43125 C143.333729,184.544961 142.325324,182.028654 142.33308,179.413125 C142.33308,176.784375 143.341875,174.256875 145.145625,172.396875 C146.921347,170.549833 149.370957,169.502998 151.933125,169.496236 L152.02125,169.496236 C153.287977,169.493979 154.540917,169.759134 155.698125,170.274375 C156.868374,170.793181 157.919978,171.54615 158.788125,172.486875 C159.715155,173.365225 160.448889,174.427192 160.9425,175.605 C161.44125,176.791875 161.69625,178.074375 161.688911,179.3625 C161.657407,181.99517 160.620302,184.516152 158.79,186.40875 C156.990728,188.260517 154.522532,189.311172 151.940625,189.324375 L151.933125,189.3375 Z" id="Shape" fill="#7D64FF" fill-rule="nonzero"></path>
        </g>
    </g>
</svg>