<?xml version="1.0" encoding="UTF-8"?>
<svg width="240px" height="240px" viewBox="0 0 240 240" version="1.1" xmlns="http://www.w3.org/2000/svg" xmlns:xlink="http://www.w3.org/1999/xlink">
    <title>kaggle</title>
    <g id="Page-1" stroke="none" stroke-width="1" fill="none" fill-rule="evenodd">
        <g id="kaggle">
            <rect id="box" fill="#FFFFFF" x="0" y="0" width="240" height="240" rx="32"></rect>
            <path d="M162.29312,193.154246 C162.136593,193.717742 161.541792,194 160.540021,194 L141.224625,194 C140.002763,194.019277 138.842912,193.462548 138.094091,192.496833 L106.193948,151.768584 L97.3345364,160.252332 L97.3345364,191.745505 C97.4193588,192.34038 97.2192363,192.940484 96.7943416,193.365379 C96.3694469,193.790274 95.7693427,193.990396 95.1744678,193.905574 L80.1792093,193.905574 C79.5843343,193.990396 78.9842301,193.790274 78.5593354,193.365379 C78.1344407,192.940484 77.9343183,192.34038 78.0191407,191.745505 L78.0191407,48.1792093 C77.9343183,47.5843343 78.1344407,46.9842301 78.5593354,46.5593354 C78.9842301,46.1344407 79.5843343,45.9343183 80.1792093,46.0191407 L95.1744678,46.0191407 C95.7693427,45.9343183 96.3694469,46.1344407 96.7943416,46.5593354 C97.2192363,46.9842301 97.4193588,47.5843343 97.3345364,48.1792093 L97.3345364,136.585494 L135.558358,97.9233968 C136.353935,97.0129492 137.481895,96.4602488 138.688892,96.3894351 L158.693006,96.3894351 C159.447528,96.327944 160.150941,96.7755702 160.414799,97.4851221 C160.731095,98.1292821 160.645644,98.8983404 160.195662,99.4573586 L119.717856,138.526425 L161.854845,190.868956 C162.465048,191.463798 162.639964,192.37586 162.29312,193.154246 Z" id="Path" fill="#20BEFF" fill-rule="nonzero"></path>
        </g>
    </g>
</svg>