<?xml version="1.0" encoding="UTF-8"?>
<svg width="240px" height="240px" viewBox="0 0 240 240" version="1.1" xmlns="http://www.w3.org/2000/svg" xmlns:xlink="http://www.w3.org/1999/xlink">
    <title>kde</title>
    <g id="Page-1" stroke="none" stroke-width="1" fill="none" fill-rule="evenodd">
        <g id="kde">
            <rect id="ViewBox" x="0" y="0" width="240" height="240"></rect>
            <polygon id="Path" fill="#1D99F3" fill-rule="nonzero" points="240 0 240 240 0 240 0 0"></polygon>
            <path d="M134.085938,30.2896875 L104.198438,33.1509375 L104.198438,156.216562 L133.77,151.765312 L133.77,99.2953125 L173.52,157.491562 L204.681563,147.630937 L163.979063,91.6640625 L205.000313,38.8753125 L173.203125,31.5646875 L133.770938,84.350625 L134.085938,30.2896875 Z M66.339375,60.279375 C66.001875,60.3140625 65.675625,60.463125 65.4225,60.7171875 L53.6925,72.4453125 C53.1985948,72.9402955 53.1064832,73.7085377 53.469375,74.30625 L67.20375,96.9253125 C64.74303,101.060929 62.80032,105.483507 61.419375,110.093437 L36.2071875,115.336875 C35.5034901,115.484217 34.9996875,116.104793 34.9996875,116.82375 L34.9996875,133.410937 C34.9996875,134.112187 35.4796875,134.719687 36.155625,134.882812 L60.6271875,140.864062 C61.9065694,146.189244 63.9262265,151.308759 66.6271875,156.073125 L52.4625,177.673125 C52.0682505,178.275319 52.150849,179.071554 52.6603125,179.58 L64.3865625,191.308125 C64.8827788,191.801948 65.6510976,191.895429 66.25125,191.535 L88.4475,178.05375 C92.8518492,180.599942 97.5685764,182.562645 102.479063,183.8925 L107.657813,208.7925 C107.804063,209.498437 108.426563,210 109.142813,210 L125.730937,210 C126.428438,210 127.036875,209.52375 127.202813,208.839375 L133.303125,183.887812 C138.365126,182.519516 143.220179,180.476843 147.737812,177.814687 L169.611562,192.156562 C170.2125,192.553125 171.008437,192.473437 171.518437,191.963437 L183.248437,180.235312 C183.745312,179.739375 183.834375,178.9725 183.469687,178.375312 L175.484062,165.215625 L172.90125,166.032187 C172.524376,166.152886 172.113061,166.010434 171.891562,165.6825 L160.220625,148.599375 C152.357812,163.989375 136.359375,174.530625 117.885,174.530625 C91.636875,174.530625 70.3575,153.25125 70.3575,127.002187 C70.3575,107.6925 81.8746875,91.0865625 98.4084375,83.6465625 L98.4084375,71.385 C95.4160024,72.4238695 92.512738,73.7036886 89.7271875,75.211875 C89.7265625,75.21 89.7225,75.2053125 89.715,75.1978125 L67.3275,60.515625 C67.0353469,60.3239226 66.6860253,60.2388272 66.3384375,60.2746875 L66.339375,60.279375 Z" id="Shape" fill="#FCFCFC" fill-rule="nonzero"></path>
        </g>
    </g>
</svg>