<?xml version="1.0" encoding="UTF-8"?>
<svg width="241px" height="241px" viewBox="0 0 241 241" version="1.1" xmlns="http://www.w3.org/2000/svg" xmlns:xlink="http://www.w3.org/1999/xlink">
    <title>keydb</title>
    <g id="Page-1" stroke="none" stroke-width="1" fill="none" fill-rule="evenodd">
        <g id="keydb" transform="translate(-178.0173, 20.1071)">
            <rect id="box" x="179" y="-20" width="240" height="240"></rect>
            <g id="shape" transform="translate(194, -20)">
                <path d="M103.16624,232.35627 L9.30281015,178.158661 C7.83957213,177.317437 7.02063705,175.787434 7.01907148,174.212737 L7,174.212737 L7,65.786913 C7,63.9413441 8.09419063,62.3515586 9.66844175,61.629757 L103.232421,7.60566007 C104.710603,6.75646495 106.465606,6.82905789 107.83249,7.64323759 L201.697048,61.8404188 C203.160428,62.681643 203.980217,64.211646 203.980929,65.786913 L204,65.786913 L204,174.212737 C204,176.057736 202.906236,177.648376 201.332412,178.369323 L107.767591,232.394701 C106.288981,233.243612 104.534405,233.170876 103.16624,232.35627 Z M16.14079,171.596971 L16.14079,171.596971 L105.500219,223.19319 L194.860064,171.596971 L194.860064,68.4031058 L105.500219,16.8067447 L16.14079,68.4031058 L16.14079,171.596971 Z" id="path1290" fill="#FFFFFF"></path>
                <polygon id="path1292" fill="#FFFF00" opacity="0.88" points="104.999792 12 11 174 199 174"></polygon>
                <path d="M105.495185,20.6954242 L19.4653106,169.848074 L191.524621,169.848074 L105.495185,20.6954242 Z M7.61448383,172.135663 L7.61448383,172.135663 L101.516586,9.33343406 C101.902732,8.64139969 102.474905,8.04114254 103.209622,7.61531908 C105.388721,6.35209984 108.178139,7.09586577 109.440622,9.27856725 L203.21931,171.864607 C203.712348,172.594977 204,173.476124 204,174.423823 C204,176.950974 201.953554,179 199.430012,179 L11.5603471,179 L11.5603471,178.990024 C10.7833581,178.990737 9.99612113,178.792504 9.27563777,178.374661 C7.09653856,177.111584 6.35257046,174.31808 7.61448383,172.135806 L7.61448383,172.135663 Z" id="path1294" fill="#FFFFFF"></path>
                <path d="M9.28448235,70.4559789 C7.10522021,69.2097995 6.3534609,66.4412674 7.60587113,64.2729521 C8.85885077,62.1046368 11.6411147,61.3567026 13.8205192,62.602882 L105.500285,115.243512 L197.180466,62.602882 C199.359871,61.3567026 202.142135,62.1046368 203.39426,64.2729521 C204.646386,66.4412674 203.894911,69.2097995 201.715507,70.4559789 L107.832148,124.360067 C106.465145,125.170601 104.710233,125.241981 103.232053,124.39689 L9.28448235,70.4559789 Z" id="path1296" fill="#FFFFFF"></path>
                <path d="M110,228.452306 C110,230.963303 107.985223,233 105.50042,233 C103.014917,233 101,230.963303 101,228.452306 L101,120.547694 C101,118.036697 103.014917,116 105.50042,116 C107.985223,116 110,118.036697 110,120.547694 L110,228.452306 Z" id="path1298" fill="#FFFFFF"></path>
                <path d="M199.500836,186 C205.851158,186 211,180.851714 211,174.499791 C211,168.147868 205.851158,163 199.500836,163 C193.14926,163 188,168.147868 188,174.499791 C188,180.851714 193.14926,186 199.500836,186 Z" id="path1300" fill="#FFFFFF"></path>
                <path d="M199.500836,77 C205.851158,77 211,71.8507546 211,65.4998606 C211,59.148409 205.851158,54 199.500836,54 C193.14926,54 188,59.148409 188,65.4998606 C188,71.8507546 193.14926,77 199.500836,77 Z" id="path1302" fill="#FFFFFF"></path>
                <path d="M11.499582,77 C17.8507401,77 23,71.8507546 23,65.4998606 C23,59.148409 17.8507401,54 11.499582,54 C5.14925988,54 0,59.148409 0,65.4998606 C0,71.8507546 5.14925988,77 11.499582,77 Z" id="path1304" fill="#FFFFFF"></path>
                <path d="M11.499582,186 C17.8507401,186 23,180.851714 23,174.499791 C23,168.147868 17.8507401,163 11.499582,163 C5.14925988,163 0,168.147868 0,174.499791 C0,180.851714 5.14925988,186 11.499582,186 Z" id="path1306" fill="#FFFFFF"></path>
                <path d="M105.5,240 C111.85074,240 117,234.851389 117,228.5 C117,222.148471 111.85074,217 105.5,217 C99.1484236,217 94,222.148471 94,228.5 C94,234.851389 99.1484236,240 105.5,240 Z" id="path1308" fill="#FFFFFF"></path>
                <path d="M105.5,132 C111.85074,132 117,126.850879 117,120.499582 C117,114.148424 111.85074,109 105.5,109 C99.1484236,109 94,114.148424 94,120.499582 C94,126.850879 99.1484236,132 105.5,132 Z" id="path1310" fill="#FFFFFF"></path>
                <path d="M105.5,23 C111.85074,23 117,17.8514973 117,11.49993 C117,5.14850218 111.85074,0 105.5,0 C99.1484236,0 94,5.14850218 94,11.49993 C94,17.8514973 99.1484236,23 105.5,23 Z" id="path1312" fill="#FFFFFF"></path>
            </g>
        </g>
    </g>
</svg>