<?xml version="1.0" encoding="UTF-8"?>
<svg width="112px" height="112px" viewBox="0 0 112 112" version="1.1" xmlns="http://www.w3.org/2000/svg" xmlns:xlink="http://www.w3.org/1999/xlink">
    <title>Group 2</title>
    <g id="Page-1" stroke="none" stroke-width="1" fill="none" fill-rule="evenodd">
        <g id="Group-2">
            <rect id="Rectangle" fill="#000000" x="0" y="0" width="112" height="112" rx="32"></rect>
            <g id="Group" transform="translate(30, 20)" fill-rule="nonzero">
                <g id="K" transform="translate(0, 11)" fill="#FFFFFF">
                    <path d="M7.50696379,41 L7.50696379,25.5 L33.1346051,0 L47.6697518,0 L20.4735376,27.9486911 L20.0640669,27.9486911 L7.50696379,41 Z M0,51 L0,0 L10,0 L10,51 L0,51 Z M44.3515204,51 C42.5224366,50.8125968 32.0421091,43.2911076 12.9105377,28.4355324 L20.5190344,22.1600832 C35.4715998,33.3964997 43.4157618,39.105138 44.3515204,39.2859983 C45.2872789,39.4668585 46.393451,39.5572887 47.6700366,39.5572887 L47.6700366,51 C47.2867762,51.1874032 46.1806041,51.1874032 44.3515204,51 Z" id="Shape"></path>
                </g>
                <path d="M57,0 C60.3137085,-8.8817842e-16 63,2.6862915 63,6 C63,9.3137085 60.3137085,12 57,12 L51,12 L51,12 L51,6 C51,2.6862915 53.6862915,0 57,0 Z" id="Rectangle" fill="#1783FF"></path>
            </g>
        </g>
    </g>
</svg>