<?xml version="1.0" encoding="UTF-8"?>
<svg width="240px" height="241px" viewBox="0 0 240 241" version="1.1" xmlns="http://www.w3.org/2000/svg" xmlns:xlink="http://www.w3.org/1999/xlink">
    <title>kitty</title>
    <g id="Page-1" stroke="none" stroke-width="1" fill="none" fill-rule="evenodd">
        <g id="kitty" transform="translate(0, 0.8855)">
            <rect id="box" x="0" y="0" width="239.898043" height="240"></rect>
            <g id="shape" transform="translate(0.102, 19.1018)">
                <rect id="Rectangle" fill="#DDDDDD" x="70.9698378" y="15" width="103.955819" height="168"></rect>
                <path d="M66.2554696,202 L173.642574,202 C175.57367,202 177.425658,201.226194 178.791053,199.848839 C180.156447,198.471484 180.923108,196.603428 180.923108,194.655693 L180.923108,86.3432681 C180.923108,82.2876931 177.663501,79 173.642574,79 L66.2554696,79 C64.324552,79 62.4727197,79.7736635 61.1073547,81.1507934 C59.7419897,82.5279233 58.9749356,84.3957123 58.9749356,86.3432681 L58.9749356,194.655693 C58.9749356,198.711268 62.2345417,202 66.2554696,202 M123.771173,162.138475 L162.357488,162.138475 C164.770329,162.138475 166.726324,164.111324 166.726324,166.544956 C166.726324,168.978588 164.770329,170.951436 162.357488,170.951436 L123.772204,170.951436 C121.359647,170.951436 119.403883,168.97882 119.403883,166.545475 C119.403883,164.11213 121.359647,162.139514 123.772204,162.139514 M77.3663993,114.629142 C75.770838,112.89198 75.8220397,110.193441 77.4823298,108.519124 C79.14262,106.844807 81.8181135,106.793615 83.5401685,108.403214 L110.828002,135.909548 C112.531411,137.63008 112.531411,140.417022 110.828002,142.137554 L83.5401685,169.660518 C81.8195385,171.283354 79.1330325,171.23782 77.4674346,169.557589 C75.8018366,167.877359 75.7571398,165.167697 77.3663993,163.432512 L101.566833,139.023551 L77.3663993,114.629142 Z" id="Shape" fill="#000000" fill-rule="nonzero"></path>
                <path d="M95.458913,64.9989596 C97.4027036,64.9989596 98.9579428,61.2805998 98.9579428,56.4989596 C98.9579428,51.7183599 97.4027036,48 95.458913,48 C93.5161558,48 91.9609166,51.7183599 91.9609166,56.5 C91.9609166,61.2805998 93.5151224,65 95.458913,65" id="Path" fill="#C0C81F"></path>
                <path d="M195.495165,1.95242588 C190.74719,-3.10787483 169.120967,3.01874079 155.933867,11.2758995 C145.64762,5.9484984 133.25185,2.75164039 120.064751,2.75164039 C106.614219,2.75164039 94.2174164,5.9484984 83.9311691,11.2758995 C70.7440698,3.01874079 48.8533818,-3.37497524 44.3698713,1.95242588 C39.6229288,7.279827 47.7996535,29.388646 57.5569706,41.6418772 C56.7656413,44.8387353 56.2387772,48.0355933 56.2387772,51.497465 C56.2387772,62.1522672 60.7222876,72.0088983 68.3711151,80 L111.888026,80 C110.569833,77.3362994 112.415923,75.7378704 120.328183,75.7378704 C128.240442,76.0039275 129.822068,77.3362994 128.76834,80 L172.285251,80 C179.934078,72.007855 184.417589,61.8872535 184.417589,51.497465 C184.417589,48.0355933 183.890724,44.8387353 183.099395,41.6418772 C192.329848,29.388646 200.242108,7.01376995 195.495165,1.95242588 M95.2721778,72.2749554 C86.0417248,72.2749554 78.3928973,64.5499107 78.3928973,55.2264371 C78.3928973,45.9029634 86.0417248,38.1789622 95.2732108,38.1789622 C104.504697,38.1789622 112.152491,45.9040068 112.152491,55.2274805 C112.152491,64.5509541 104.503664,72.2749554 95.2721778,72.2749554 M144.856291,72.2749554 C135.624805,72.2749554 127.975977,64.5499107 127.975977,55.2264371 C127.975977,45.9029634 135.624805,38.1789622 144.856291,38.1789622 C154.087777,38.1789622 161.736604,45.9040068 161.736604,55.2274805 C161.736604,64.5509541 154.350176,72.2749554 144.856291,72.2749554" id="Shape" fill="#784421"></path>
                <g id="Group" transform="translate(168.9282, 36)" fill="#2B1100">
                    <path d="M1.31475197,34.4246755 C17.0855982,14.5111682 49.4159361,4.95272634 70.9698378,18.7594802 C45.7362778,14.7763628 22.8686537,21.4145452 1.31475197,34.4246755" id="Path"></path>
                    <path d="M0.263568132,29.6459746 C9.20017511,8.40441481 35.748487,-5.40129908 57.0388206,2.03246686 C34.6973032,4.95272634 16.5605211,13.7145448 0.263568132,29.6449346 M0,40 C16.2979825,24.3348047 52.3079786,19.0246747 63.3469532,35.4864935 C41.0054358,28.3179221 21.5539017,31.5033761 0.00102956302,40" id="Shape"></path>
                </g>
                <g id="Group" transform="translate(0, 36)" fill="#2B1100">
                    <path d="M69.6550858,34.4246755 C53.8842395,14.5111682 21.5539017,4.95272634 0,18.7594802 C25.2335599,14.7763628 48.1011841,21.4145452 69.6550858,34.4246755" id="Path"></path>
                    <path d="M70.7062697,29.6459746 C61.7696627,8.40441481 35.2213508,-5.40129908 13.9310172,2.03246686 C36.2725346,4.95272634 54.4093167,13.7145448 70.7062697,29.6449346 M70.9698378,40 C54.6718553,24.3348047 18.6618592,19.0246747 7.62288457,35.4864935 C29.964402,28.3179221 49.4159361,31.5033761 70.9688082,40" id="Shape"></path>
                </g>
                <path d="M49.762128,61 C43.1636144,61 37.620739,64.4676277 34.9811268,69.7996274 L34.1891398,69.7996274 C27.0622902,69.7996274 20.9910788,75.1326717 20.9910788,81.7994992 C20.9910788,91.1318044 30.4928555,96.1985097 39.2036792,92.9982654 C44.4829036,100.731493 55.8333394,101.265215 60.0579596,92.9982654 C66.3917882,92.7319265 76.6865859,91.6655266 78.27056,81.7994992 C79.3261981,75.1326717 72.4629996,69.7996274 65.0724991,69.7996274 L64.280512,69.7996274 C62.1692358,64.4665832 56.3616754,61 49.7631619,61 M189.13634,61 C195.734854,61 201.277729,64.4676277 203.917341,69.7996274 L204.709328,69.7996274 C208.404579,69.7996274 217.907389,75.1326717 217.907389,81.7994992 C217.907389,91.1318044 208.405613,96.1985097 199.694789,92.9982654 C194.414531,100.731493 183.065129,101.265215 178.840508,92.9982654 C172.50668,92.7319265 162.211882,91.6655266 160.627908,81.7994992 C159.57227,75.1326717 170.129685,69.7996274 173.825969,69.7996274 L174.617956,69.7996274 C176.729232,64.4665832 182.536793,61 189.135306,61" id="Shape" fill="#483737"></path>
                <path d="M144.438614,64.9989596 C146.382117,64.9989596 147.937127,61.2805998 147.937127,56.4989596 C147.937127,51.7183599 146.382117,48 144.438614,48 C142.496143,48 140.9401,51.7183599 140.9401,56.5 C140.9401,61.2805998 142.49511,65 144.438614,65" id="Path" fill="#C0C81F"></path>
            </g>
        </g>
    </g>
</svg>