<?xml version="1.0" encoding="UTF-8"?>
<svg width="240px" height="240px" viewBox="0 0 240 240" version="1.1" xmlns="http://www.w3.org/2000/svg" xmlns:xlink="http://www.w3.org/1999/xlink">
    <title>kubernetes</title>
    <g id="Page-1" stroke="none" stroke-width="1" fill="none" fill-rule="evenodd">
        <g id="kubernetes" transform="translate(-0, -0)">
            <rect id="ViewBox" x="0" y="0" width="240" height="240"></rect>
            <path d="M119.1675,3.585 C117.046376,3.69264097 114.968264,4.21918105 113.055,5.13375 L29.615625,45 C25.2413261,47.0892491 22.0641131,51.0400624 20.983125,55.734375 L0.40125,145.284375 C-0.558771772,149.452236 0.222374805,153.82801 2.566875,157.415625 C2.84846293,157.85006 3.15132539,158.270563 3.474375,158.675625 L61.224375,230.480625 C64.2524653,234.244453 68.8436813,236.435625 73.69875,236.435625 L166.3125,236.413125 C171.165654,236.416433 175.756529,234.228988 178.786875,230.469375 L236.51625,158.655 C239.545953,154.889539 240.681263,149.960426 239.600625,145.26375 L218.983125,55.71375 C217.902655,51.0187348 214.725371,47.0671431 210.350625,44.9775 L126.90375,5.13375 C124.496448,3.98316082 121.836329,3.45062122 119.1675,3.585" id="Path" fill="#326CE5" fill-rule="nonzero"></path>
            <path d="M119.953125,34.018125 L119.953125,34.036875 C117.193125,34.063125 114.958125,36.541875 114.958125,39.609375 C114.958125,39.661875 114.9675,39.706875 114.9675,39.748125 C114.96375,40.164375 114.945,40.666875 114.958125,41.030625 C115.02375,42.804375 115.408125,44.158125 115.6425,45.78375 C115.96125,48.44625 116.045625,50.559375 116.0625,52.696875 L116.13,52.389375 C116.100011,50.8912885 116.02623,49.394399 115.90875,47.900625 C116.169375,50.203125 116.35875,52.333125 116.2575,54.260625 C116.229375,53.65125 116.143125,52.99125 116.13375,52.419375 L116.06625,52.726875 C116.071875,53.3775 116.24625,54.208125 116.195625,54.8325 C116.08125,55.37625 115.65,55.760625 115.32,56.22375 L115.273125,56.450625 C115.5975,56.025 115.936875,55.618125 116.135625,55.14 C115.884375,55.933125 115.348125,56.6325 114.81,57.19125 C114.96,56.95875 115.08375,56.7 115.26,56.469375 L115.30875,56.244375 C115.036875,56.625 114.883125,57.10125 114.586875,57.388125 L114.575625,57.399375 L114.455625,59.499375 C111.429181,59.7507091 108.423833,60.2118173 105.46125,60.879375 C92.9759393,63.7038948 81.6175524,70.1900181 72.84,79.5075 C72.285,79.12875 71.34,78.4575 71.05875,78.2475 L71.049375,78.238125 L71.030625,78.241875 C70.134375,78.361875 69.249375,78.63 68.086875,77.955 C65.86125,76.455 63.82875,74.379375 61.366875,71.88 C60.24,70.685625 59.4225,69.54375 58.078125,68.390625 C57.7725,68.12625 57.309375,67.771875 56.968125,67.50375 C55.9704645,66.7001085 54.7417735,66.2368854 53.461875,66.181875 C51.915,66.129375 50.424375,66.733125 49.449375,67.9575 C47.715,70.1325 48.271875,73.456875 50.683125,75.3825 L50.758125,75.43125 C51.084375,75.699375 51.489375,76.0425 51.793125,76.2675 C53.221875,77.319375 54.525,77.859375 55.936875,78.691875 C58.925625,80.536875 61.393125,82.063125 63.354375,83.9025 C64.108125,84.703125 64.243125,86.13375 64.348125,86.761875 L64.348125,86.776875 L65.93625,88.190625 C57.384375,101.079375 53.420625,116.990625 55.75125,133.201875 L53.683125,133.809375 L53.675625,133.820625 C53.1225,134.535 52.340625,135.643125 51.5475,135.97125 C48.98625,136.7775 46.095,137.07375 42.60375,137.439375 C40.96875,137.57625 39.555,137.4975 37.81125,137.8275 C37.426875,137.9025 36.8925,138.0375 36.474375,138.135 L36.43125,138.14625 L36.35625,138.166875 C33.39375,138.885 31.48125,141.61125 32.1,144.301875 C32.713125,146.9925 35.611875,148.625625 38.595,147.9825 L38.668125,147.97125 L38.671875,147.97125 C38.709375,147.961875 38.743125,147.943125 38.765625,147.9375 C39.178125,147.8475 39.695625,147.748125 40.059375,147.64875 C41.77125,147.189375 43.010625,146.518125 44.54625,145.93125 C47.84625,144.74625 50.58,143.75625 53.240625,143.371875 C54.331875,143.285625 55.498125,144.050625 56.085,144.37875 L56.1,144.38625 L58.26,144.016875 C63.27375,159.530625 73.75875,172.066875 87.03375,179.945625 L86.13375,182.105625 L86.139375,182.124375 C86.465625,182.968125 86.821875,184.10625 86.58375,184.921875 C85.61625,187.426875 83.95875,190.07625 82.06875,193.033125 C81.15375,194.398125 80.2125,195.46125 79.3875,197.02875 C79.186875,197.405625 78.9375,197.979375 78.74625,198.373125 C77.4525,201.13875 78.40125,204.33 80.889375,205.528125 C83.3925,206.73375 86.495625,205.460625 87.84,202.69125 L87.853125,202.67625 L87.853125,202.6575 C88.040625,202.269375 88.306875,201.76125 88.47,201.39375 C89.17875,199.77 89.416875,198.380625 89.91375,196.816875 L89.908125,196.816875 C91.231875,193.4925 91.959375,190.01625 93.76875,187.858125 C94.25625,187.276875 95.05875,187.048125 95.89875,186.823125 L95.9175,186.815625 L97.0425,184.783125 C111.854372,190.477884 128.244561,190.519267 143.085,184.899375 C143.4075,185.4675 143.98125,186.52125 144.140625,186.793125 L144.148125,186.804375 L144.163125,186.811875 C145.021875,187.09125 145.940625,187.23 146.694375,188.341875 C148.048125,190.66125 148.978125,193.41 150.110625,196.7325 C150.6075,198.2925 150.855,199.685625 151.56375,201.309375 C151.726875,201.684375 151.995,202.2 152.1825,202.591875 C153.523125,205.370625 156.635625,206.6475 159.144375,205.441875 C161.630625,204.241875 162.579375,201.054375 161.2875,198.28875 C161.09625,197.895 160.831875,197.3175 160.635,196.940625 C159.808125,195.373125 158.866875,194.32125 157.95375,192.95625 C156.06,189.999375 154.498125,187.546875 153.52875,185.04 C153.129375,183.755625 153.59625,182.97 153.915,182.124375 L153.92625,182.098125 L153.9075,182.079375 C153.84135,181.979987 153.784843,181.874508 153.73875,181.764375 C153.659022,181.585118 153.583996,181.403806 153.51375,181.220625 C153.36375,180.826875 153.21375,180.391875 153.09375,180.103125 C166.89,171.946875 177.0675,158.94375 181.85625,143.925 C182.506875,144.02625 183.6,144.215625 183.95625,144.286875 L183.975,144.290625 L183.991875,144.283125 C184.745625,143.78625 185.416875,143.146875 186.7575,143.25375 C189.418125,143.638125 192.15,144.63 195.45375,145.815 C196.985625,146.4 198.226875,147.084375 199.940625,147.541875 C200.304375,147.639375 200.821875,147.73125 201.234375,147.82125 C201.256875,147.826875 201.28875,147.84375 201.328125,147.853125 L201.331875,147.853125 L201.406875,147.860625 C204.388125,148.5 207.28875,146.870625 207.901875,144.18 C208.515,141.489375 206.60625,138.765 203.641875,138.050625 C203.21625,137.953125 202.60875,137.78625 202.18875,137.705625 C200.445,137.375625 199.033125,137.458125 197.394375,137.32125 C193.906875,136.955625 191.015625,136.659375 188.450625,135.853125 C187.425,135.45375 186.684375,134.218125 186.316875,133.700625 L186.305625,133.689375 L184.306875,133.108125 C185.375308,125.343207 185.019493,117.448571 183.256875,109.81125 C181.490525,102.097262 178.323713,94.7728587 173.91375,88.201875 C174.435,87.729375 175.385625,86.8875 175.66125,86.634375 L175.674375,86.623125 L175.674375,86.604375 C175.756875,85.704375 175.685625,84.785625 176.6025,83.803125 C178.561875,81.965625 181.035,80.43375 184.021875,78.5925 C185.435625,77.76 186.748125,77.221875 188.173125,76.168125 C188.499375,75.928125 188.938125,75.553125 189.275625,75.28125 C191.686875,73.3575 192.245625,70.035 190.509375,67.858125 C188.775,65.683125 185.413125,65.4825 183.00375,67.404375 C182.6625,67.67625 182.1975,68.026875 181.89,68.29125 C180.545625,69.45 179.715,70.59 178.59,71.784375 C176.128125,74.2875 174.09375,76.370625 171.86625,77.870625 C170.915625,78.421875 169.5075,78.2325 168.860625,78.193125 L168.845625,78.193125 L166.963125,79.54125 C156.135,68.20125 141.406875,60.94875 125.544375,59.53125 C125.497636,58.7978829 125.457634,58.0641019 125.424375,57.33 L125.424375,57.315 L125.413125,57.30375 C124.756875,56.679375 123.988125,56.16 123.793125,54.8325 L123.793125,54.82875 C123.5775,52.15125 123.9375,49.265625 124.355625,45.78375 C124.59,44.158125 124.978125,42.8025 125.041875,41.030625 C125.05875,40.625625 125.0325,40.0425 125.0325,39.609375 C125.0325,36.525 122.776875,34.018125 119.9925,34.018125 L119.953125,34.018125 Z M113.364375,59.705625 C111.104224,59.9338893 108.857449,60.2793544 106.633125,60.740625 C108.857482,60.2799838 111.104257,59.9351447 113.364375,59.7075 L113.364375,59.705625 Z M104.4,61.24875 C102.042077,61.8238454 99.7189202,62.5331251 97.441875,63.373125 C99.7183066,62.5331932 102.040836,61.8239141 104.398125,61.24875 L104.4,61.24875 Z M95.353125,64.18125 C93.1105512,65.0971153 90.922002,66.1400566 88.798125,67.305 C90.922002,66.1400566 93.1105512,65.0971153 95.353125,64.18125 M54,66.331875 C54.265,66.369375 54.52625,66.423125 54.78375,66.493125 C54.5266591,66.420838 54.2647466,66.3669517 54,66.331875 M55.768125,66.8625 C56.015625,66.9825 56.253125,67.119375 56.480625,67.273125 C56.2534618,67.1190492 56.0153256,66.9818076 55.768125,66.8625 M86.7975,68.4525 C84.7386899,69.6770556 82.7505369,71.0166801 80.8425,72.465 C82.7505369,71.0166801 84.7386899,69.6770556 86.7975,68.4525 M113.69625,72.8475 L112.220625,98.96625 L112.11375,99.020625 L112.11,99.045 C112.10625,99.13875 112.08375,99.223125 112.0725,99.313125 C112.010505,99.8749673 111.843212,100.4201 111.579375,100.92 C111.510625,101.0525 111.435,101.181875 111.3525,101.308125 C111.010874,101.806167 110.570509,102.228662 110.05875,102.549375 C109.9275,102.63375 109.783125,102.699375 109.6425,102.770625 C109.128551,103.014034 108.573124,103.157822 108.005625,103.194375 C107.92125,103.2 107.840625,103.220625 107.75625,103.220625 C107.6625,103.220625 107.58,103.179375 107.488125,103.171875 C106.864339,103.112584 106.260966,102.918071 105.72,102.601875 C105.635625,102.553125 105.54375,102.525 105.463125,102.4725 L105.451875,102.51375 L105.459375,102.4725 C105.376875,102.421875 105.268125,102.4425 105.189375,102.384375 L105.166875,102.365625 L105.125625,102.391875 L83.71125,87.21 C83.885625,87.039375 84.07125,86.88375 84.249375,86.715 C86.1397418,84.9167313 88.1643492,83.2650779 90.305625,81.774375 C90.75,81.465 91.1925,81.151875 91.64625,80.855625 C93.924349,79.3695173 96.3168699,78.0666719 98.80125,76.959375 C99.25125,76.75875 99.714375,76.576875 100.17,76.3875 C102.629972,75.3723527 105.165101,74.5498775 107.7525,73.9275 C107.9775,73.87125 108.19875,73.801875 108.4275,73.75125 C109.5075,73.5075 110.60625,73.365 111.699375,73.190625 L111.710625,73.14375 L111.718125,73.14375 L111.706875,73.190625 C112.3725,73.085625 113.026875,72.928125 113.694375,72.8475 L113.69625,72.8475 Z M126.3075,72.85125 C126.676875,72.89625 127.03875,72.97875 127.40625,73.033125 C129.403256,73.3288668 131.381541,73.7395488 133.33125,74.263125 C134.10375,74.470625 134.869375,74.695625 135.628125,74.938125 C137.564554,75.5573982 139.463377,76.2886298 141.315,77.128125 C142.0175,77.446875 142.7125,77.78125 143.4,78.13125 C145.228158,79.0653578 146.999951,80.1058948 148.70625,81.2475 C149.34875,81.68 149.983125,82.128125 150.609375,82.591875 C152.243245,83.7965561 153.805868,85.0949864 155.289375,86.480625 C155.559375,86.731875 155.84625,86.9625 156.110625,87.22125 L134.836875,102.30375 L134.761875,102.275625 L134.743125,102.290625 C134.65875,102.350625 134.566875,102.375 134.480625,102.429375 C133.977358,102.747733 133.41478,102.960773 132.826875,103.055625 C132.6825,103.078125 132.54,103.111875 132.395625,103.1175 C131.760313,103.142715 131.127069,103.030138 130.539375,102.7875 C130.368135,102.720417 130.202062,102.640827 130.0425,102.549375 C129.49504,102.246997 129.018223,101.831539 128.64375,101.330625 C128.55,101.20125 128.47875,101.056875 128.4,100.918125 C128.112987,100.404391 127.929524,99.8393505 127.86,99.255 C127.84875,99.151875 127.81125,99.061875 127.80375,98.956875 L127.80375,98.93625 L127.783125,98.925 L126.3075,72.85125 Z M78.98625,73.93125 C77.1410546,75.4414505 75.3820406,77.0539843 73.7175,78.76125 C75.3820406,77.0539843 77.1410546,75.4414505 78.98625,73.93125 M174.45375,89.19375 C175.47425,90.7733619 176.426378,92.3961096 177.3075,94.0575 C176.426378,92.3961096 175.47425,90.7733619 174.45375,89.19375 M178.1925,95.77125 C179.1075,97.635 179.930625,99.538125 180.661875,101.480625 C179.929461,99.5395365 179.10541,97.6342717 178.1925,95.77125 M75.8625,97.065 L95.41875,114.555 L95.39625,114.66 L95.415,114.675 C97.1775,116.206875 97.42125,118.85625 95.964375,120.680625 C95.911875,120.74625 95.836875,120.7875 95.780625,120.849375 C95.2781647,121.406372 94.6418211,121.825868 93.931875,122.068125 C93.85125,122.09625 93.785625,122.14875 93.705,122.17125 L93.67875,122.175 L93.65625,122.263125 L68.593125,129.500625 C68.555625,129.15375 68.555625,128.806875 68.52375,128.46 C68.3367067,126.375575 68.2790961,124.281556 68.35125,122.19 C68.375,121.465 68.414375,120.74125 68.469375,120.01875 C68.6268244,117.936179 68.9129963,115.865346 69.32625,113.818125 C69.4775,113.055625 69.648125,112.29625 69.838125,111.54 C70.3349175,109.527612 70.9548344,107.547635 71.694375,105.61125 C71.956875,104.91875 72.236875,104.233125 72.534375,103.554375 C73.3613946,101.630745 74.3069608,99.7602776 75.365625,97.95375 C75.534375,97.66125 75.684375,97.35375 75.8625,97.065 M163.99125,97.078125 C164.173125,97.374375 164.32125,97.685625 164.4975,97.98375 C165.566413,99.8055772 166.524405,101.690253 167.36625,103.6275 C167.6475,104.27625 167.925,104.92875 168.18,105.58875 C168.956053,107.601732 169.607287,109.660636 170.13,111.75375 C170.214375,112.081875 170.325,112.4025 170.4,112.734375 C171.69375,118.363125 172.0125,123.9825 171.48375,129.414375 L146.295,122.158125 L146.274375,122.05125 L146.248125,122.04375 C146.16375,122.02125 146.090625,121.98 146.01,121.951875 C145.466278,121.764751 144.963458,121.475152 144.52875,121.09875 C144.41875,121.00375 144.3125,120.90375 144.21,120.79875 C143.800167,120.352522 143.486765,119.826567 143.289375,119.25375 C143.23875,119.1075 143.206875,118.9575 143.17125,118.805625 C143.048092,118.256546 143.029013,117.689238 143.115,117.133125 C143.131875,117.04125 143.13375,116.953125 143.1525,116.86125 C143.17125,116.776875 143.22375,116.70375 143.24625,116.619375 C143.454576,115.91099 143.841298,115.26796 144.369375,114.751875 C144.433125,114.69 144.470625,114.609375 144.538125,114.55125 L144.556875,114.5325 L144.545625,114.47625 L163.99125,97.078125 Z M181.29375,103.275 C181.915,105.085 182.455,106.92125 182.91375,108.78375 C182.454381,106.924744 181.913863,105.086735 181.29375,103.275 M115.99875,115.935 L123.99,115.935 L128.95875,122.14875 L127.1775,129.898125 L119.99625,133.348125 L112.801875,129.883125 L111.015,122.135625 L115.99875,115.935 Z M141.736875,137.300625 C142.074375,137.281875 142.40625,137.315625 142.73625,137.375625 L142.7625,137.38125 L142.805625,137.325 L168.733125,141.70875 C168.613125,142.04625 168.4575,142.366875 168.33,142.7025 C167.591865,144.632927 166.740383,146.518083 165.78,148.348125 C165.425,149.028125 165.054375,149.699375 164.668125,150.361875 C163.614021,152.15929 162.453843,153.892356 161.19375,155.551875 C160.73875,156.151875 160.27125,156.74 159.79125,157.31625 C158.452026,158.920347 157.018225,160.443056 155.4975,161.87625 C154.9525,162.38875 154.395,162.88875 153.825,163.37625 C152.251053,164.73053 150.59815,165.990243 148.875,167.14875 C148.575,167.349375 148.29375,167.570625 147.991875,167.765625 L137.9325,143.4525 L137.960625,143.41125 L137.953125,143.390625 C137.915625,143.30625 137.904375,143.218125 137.8725,143.13375 C137.683863,142.599034 137.597981,142.033485 137.619375,141.466875 C137.626875,141.315 137.630625,141.163125 137.653125,141.013125 C137.746015,140.420021 137.959124,139.852155 138.279375,139.344375 C138.36375,139.209375 138.463125,139.0875 138.560625,138.961875 C138.914129,138.524087 139.346605,138.156483 139.835625,137.878125 C139.91625,137.833125 139.98375,137.775 140.06625,137.735625 C140.608125,137.475 141.1725,137.326875 141.735,137.300625 L141.736875,137.300625 Z M98.030625,137.405579 L98.055,137.409375 C98.11125,137.409375 98.1675,137.424375 98.2275,137.428125 C99.0571277,137.483783 99.8540751,137.77305 100.52625,138.2625 C100.655,138.355 100.7775,138.45375 100.89375,138.55875 C101.511244,139.114404 101.959087,139.833294 102.185625,140.6325 C102.200625,140.68875 102.226875,140.743125 102.241875,140.80125 C102.448125,141.699375 102.36375,142.63875 101.998125,143.484375 L101.98875,143.506875 L102.06375,143.600625 L92.1075,167.67 C91.816875,167.4825 91.545,167.2725 91.261875,167.079375 C89.5387754,165.921474 87.8858728,164.662388 86.311875,163.30875 C85.7443131,162.818862 85.1873103,162.316871 84.64125,161.803125 C83.1334411,160.383465 81.7109553,158.87583 80.38125,157.288125 C79.89375,156.703125 79.41875,156.10875 78.95625,155.505 C77.721266,153.882698 76.581836,152.18983 75.54375,150.435 C75.1352109,149.74256 74.7432247,149.040485 74.368125,148.329375 C73.4209306,146.537754 72.5782704,144.692792 71.844375,142.80375 C71.713125,142.464375 71.555625,142.13625 71.431875,141.793125 L97.1325,137.431875 L97.175625,137.488125 L97.201875,137.47875 C97.476875,137.42875 97.75375,137.404375 98.0325,137.405579 L98.030625,137.405579 Z M102.350625,141.144375 C102.381657,141.357896 102.394204,141.573697 102.388125,141.789375 C102.394204,141.573697 102.381657,141.357896 102.350625,141.144375 M102.335625,142.4625 C102.295704,142.717609 102.232952,142.968617 102.148125,143.2125 C102.231875,142.96875 102.294375,142.71875 102.335625,142.4625 M119.836875,147.9825 C119.945625,147.97875 120.050625,148.006875 120.159375,148.010625 C120.64277,148.030207 121.119425,148.130989 121.569375,148.30875 C121.670625,148.348125 121.779375,148.365 121.876875,148.41375 L121.876875,148.4175 C122.710397,148.81132 123.395785,149.461879 123.8325,150.27375 L123.84375,150.29625 L123.943125,150.29625 L136.6125,173.195625 C136.095,173.368125 135.568125,173.52 135.045,173.675625 C134.425749,173.860228 133.803143,174.033383 133.1775,174.195 C132.646875,174.33375 132.12,174.47625 131.58375,174.598125 C131.35125,174.6525 131.115,174.684375 130.87875,174.733125 C128.297028,175.283859 125.676824,175.635518 123.04125,175.785 C122.51625,175.815 121.995,175.850625 121.47,175.865625 C118.76321,175.939151 116.054833,175.799343 113.37,175.4475 C112.845,175.38 112.32,175.288125 111.79875,175.20375 C109.221754,174.787708 106.680072,174.176576 104.195625,173.375625 C103.9575,173.29875 103.71375,173.240625 103.475625,173.16 L116.116875,150.3075 L116.135625,150.3075 L116.14875,150.285 C116.1975,150.195 116.270625,150.125625 116.325,150.04125 C116.625135,149.569828 117.010457,149.158436 117.46125,148.828125 C117.615,148.715625 117.7775,148.613125 117.94875,148.520625 C118.444751,148.259002 118.985282,148.092392 119.5425,148.029375 C119.64375,148.02 119.735625,147.98625 119.836875,147.9825 M98.056875,185.04375 C100.362599,185.889509 102.715271,186.60132 105.103125,187.175625 C102.715271,186.60132 100.362599,185.889509 98.056875,185.04375 M141.90375,185.2125 C139.8975,185.9275 137.86125,186.541875 135.795,187.055625 C137.859931,186.540665 139.89859,185.925563 141.90375,185.2125 M133.325625,187.614375 C131.023128,188.094582 128.695819,188.446996 126.354375,188.67 C128.695819,188.446996 131.023128,188.094582 133.325625,187.614375 M107.19375,187.644375 C109.607222,188.142843 112.047568,188.500944 114.5025,188.716875 C112.047568,188.500944 109.607222,188.142843 107.19375,187.644375 M123.9,188.86125 C121.495235,189.000789 119.084494,189.003919 116.679375,188.870625 C119.083871,189.003848 121.493984,189.000718 123.898125,188.86125 L123.9,188.86125 Z" id="Shape" fill="#FFFFFF" fill-rule="nonzero"></path>
        </g>
    </g>
</svg>