<?xml version="1.0" encoding="UTF-8"?>
<svg width="240px" height="240px" viewBox="0 0 240 240" version="1.1" xmlns="http://www.w3.org/2000/svg" xmlns:xlink="http://www.w3.org/1999/xlink">
    <title>langbase</title>
    <g id="Page-1" stroke="none" stroke-width="1" fill="none" fill-rule="evenodd">
        <g id="langbase">
            <path d="M0,117.764457 C0,62.2496474 0,34.4922426 17.2461213,17.2461213 C34.4922426,0 62.2496474,0 117.764457,0 L122.235543,0 C177.750353,0 205.507757,0 222.753879,17.2461213 C240,34.4922426 240,62.2496474 240,117.764457 L240,122.235543 C240,177.750353 240,205.507757 222.753879,222.753879 C205.507757,240 177.750353,240 122.235543,240 L117.764457,240 C62.2496474,240 34.4922426,240 17.2461213,222.753879 C0,205.507757 0,177.750353 0,122.235543 L0,117.764457 Z" id="Path" fill="#000000" fill-rule="nonzero"></path>
            <path d="M122.235543,9.81311707 L117.764457,9.81311707 C89.7302539,9.81311707 69.6914669,9.83427362 54.4622708,11.8811707 C39.5169252,13.8910437 30.680536,17.690409 24.1854725,24.1854725 C17.690409,30.680536 13.8910437,39.5151622 11.8811707,54.4622708 C9.83603667,69.6914669 9.81311707,89.7302539 9.81311707,117.764457 L9.81311707,122.235543 C9.81311707,150.269746 9.83427362,170.308533 11.8811707,185.537729 C13.8910437,200.483075 17.690409,209.317701 24.1854725,215.814528 C30.680536,222.309591 39.5151622,226.107193 54.4622708,228.117066 C69.6914669,230.163963 89.7302539,230.18512 117.764457,230.18512 L122.235543,230.18512 C150.269746,230.18512 170.308533,230.163963 185.537729,228.117066 C200.483075,226.107193 209.317701,222.309591 215.814528,215.814528 C222.309591,209.317701 226.107193,200.483075 228.117066,185.537729 C230.163963,170.308533 230.18512,150.269746 230.18512,122.235543 L230.18512,117.764457 C230.18512,89.7302539 230.163963,69.6914669 228.117066,54.4622708 C226.107193,39.5169252 222.309591,30.680536 215.814528,24.1854725 C209.317701,17.690409 200.483075,13.8910437 185.537729,11.8811707 C170.308533,9.83603667 150.269746,9.81311707 122.235543,9.81311707 Z M17.2461213,17.2461213 C0,34.4922426 0,62.2496474 0,117.764457 L0,122.235543 C0,177.750353 0,205.507757 17.2461213,222.753879 C34.4922426,240 62.2496474,240 117.764457,240 L122.235543,240 C177.750353,240 205.507757,240 222.753879,222.753879 C240,205.507757 240,177.750353 240,122.235543 L240,117.764457 C240,62.2496474 240,34.4922426 222.753879,17.2461213 C205.507757,0 177.750353,0 122.235543,0 L117.764457,0 C62.2496474,0 34.4922426,0 17.2461213,17.2461213 Z" id="Shape" fill="#FFFFFF"></path>
            <path d="M164.536311,46.8049793 C148.733466,46.8049793 135.87936,59.6608448 135.87936,75.4654487 L135.87936,87.7459936 L103.126549,87.7459936 L103.126549,75.4654487 C103.126549,59.6608448 90.2706831,46.8049793 74.4678386,46.8049793 C58.6649942,46.8049793 45.8091286,59.6608448 45.8091286,75.4654487 C45.8091286,91.2665337 58.6649942,104.122399 74.469598,104.122399 L86.7501429,104.122399 L86.7501429,136.875211 L74.469598,136.875211 C58.6649942,136.875211 45.8091286,149.729317 45.8091286,165.532161 C45.8091286,181.336765 58.6649942,194.190871 74.469598,194.190871 C90.2706831,194.190871 103.126549,181.336765 103.126549,165.533921 L103.126549,153.251616 L135.87936,153.251616 L135.87936,165.532161 C135.87936,181.336765 148.733466,194.190871 164.536311,194.190871 C180.340915,194.190871 193.195021,181.336765 193.195021,165.533921 C193.195021,149.729317 180.340915,136.873451 164.536311,136.873451 L152.255766,136.873451 L152.255766,104.124159 L164.536311,104.124159 C180.340915,104.124159 193.195021,91.2682931 193.195021,75.4654487 C193.195021,59.6626042 180.340915,46.8067386 164.536311,46.8067386 L164.536311,46.8049793 Z M152.255753,87.7460038 L152.255753,75.4654487 C152.25109,72.206691 153.543315,69.0800073 155.847277,66.7753853 C158.151239,64.4707632 161.277552,63.1776424 164.536311,63.1813723 C167.795212,63.1767067 170.921983,64.4692291 173.226377,66.7736228 C175.530771,69.0780166 176.823293,72.2047877 176.818628,75.4636893 C176.823292,78.7222855 175.531011,81.8487891 173.226998,84.1531321 C170.922985,86.457475 167.796667,87.750204 164.53807,87.7460038 L152.255753,87.7460038 L152.255753,87.7460038 Z M74.4678386,87.7460017 C71.2096903,87.7497343 68.0839118,86.4570961 65.7800515,84.1532358 C63.4761912,81.8493755 62.183553,78.723597 62.1872811,75.4654487 C62.1826175,72.206691 63.4748426,69.0800073 65.7788045,66.7753853 C68.0827665,64.4707632 71.2090798,63.1776424 74.4678386,63.1813747 C77.7265969,63.1771756 80.8530954,64.4698486 83.1573874,66.7741406 C85.4616793,69.0784325 86.7543523,72.204931 86.7501532,75.4636893 L86.7501532,87.7460017 L74.469598,87.7460017 L74.4678386,87.7460017 Z M103.126549,136.875211 L103.126549,104.122399 L135.87936,104.122399 L135.87936,136.875211 L103.126549,136.875211 L103.126549,136.875211 Z M164.536311,177.812706 C161.278019,177.816916 158.151968,176.524428 155.848006,174.220466 C153.544044,171.916504 152.251556,168.790453 152.255756,165.532161 L152.255756,153.251604 L164.536311,153.251604 C167.794907,153.246939 170.921411,154.53922 173.225754,156.843233 C175.530096,159.147246 176.822825,162.273564 176.818628,165.532161 C176.823292,168.790758 175.531011,171.917261 173.226998,174.221604 C170.922985,176.525947 167.796667,177.818676 164.53807,177.814476 L164.536311,177.812706 Z M74.4678386,177.812717 C71.209547,177.816916 68.083496,176.524428 65.779534,174.220466 C63.475572,171.916504 62.1830844,168.790453 62.1872835,165.532161 C62.1830853,162.273708 63.475517,159.147477 65.7794281,156.843236 C68.0833392,154.538995 71.2093851,153.246115 74.4678386,153.249849 L86.7501556,153.249849 L86.7501556,165.530402 C86.7548202,168.788998 85.4625391,171.915502 83.1585262,174.219845 C80.8545134,176.524188 77.728195,177.816917 74.469598,177.812717 L74.4678386,177.812717 Z" id="Shape" fill="#FFFFFF" fill-rule="nonzero"></path>
        </g>
    </g>
</svg>