<?xml version="1.0" encoding="UTF-8"?>
<svg width="240px" height="240px" viewBox="0 0 240 240" version="1.1" xmlns="http://www.w3.org/2000/svg" xmlns:xlink="http://www.w3.org/1999/xlink">
    <title>Group</title>
    <g id="Page-1" stroke="none" stroke-width="1" fill="none" fill-rule="evenodd">
        <g id="Group">
            <rect id="box" fill="#D8D8D8" x="36" y="79" width="168" height="82"></rect>
            <g id="langchain" transform="translate(6, 63)" fill="#1C3C3C">
                <path d="M86.8310844,62.909924 C87.1014575,62.1989889 87.3302348,61.5117516 87.6214058,60.8956078 L88.8900797,62.613701 C91.2818419,65.9313982 93.6528061,69.2135486 99.4138333,71.0738288 C99.1642581,74.0834541 92.467324,75.3038927 87.9333748,74.9365762 C86.9350741,73.5857995 85.5416126,72.2350228 82.6299021,72.9933536 C79.6557978,73.656893 76.3905225,72.8748644 77.0976522,70.8013037 C84.0233636,70.6591167 85.5624105,66.4053549 86.8310844,62.909924 Z M174.917589,31.0000858 C171.947756,31.0000858 169.164705,31.7171465 167.082086,33.0100491 L158.65822,38.2227974 C156.38882,39.6332366 155.221433,41.5843442 155.45491,43.5883433 L155.510945,43.9174457 C155.809796,45.4571752 156.90247,46.8441071 158.65822,47.9254439 C159.872303,48.6776781 161.207794,49.1595782 162.832797,49.4886807 C163.321813,51.1575963 162.45671,52.8700931 160.52604,54.0549776 L160.00305,54.3782033 C153.44749,53.016607 148.595122,49.5124541 147.348574,45.2397325 L147.255183,44.9047532 L146.825584,45.1221959 C146.545411,45.2632398 146.265238,45.4160374 146.003744,45.5805887 L137.579878,50.7933369 C135.511549,52.0708347 134.346307,53.8179867 134.346307,55.6417217 C134.346307,57.4654568 135.511549,59.2126088 137.579878,60.4901066 C139.737209,61.8300238 142.576295,62.4999824 145.42472,62.4999824 C148.263805,62.4999824 151.093552,61.8300238 153.250883,60.4959834 L161.674749,55.2773583 C164.357203,53.6268873 165.485704,51.2184376 164.655333,48.9161917 C163.824961,46.6139458 161.154786,44.7480334 157.602902,43.9879677 C157.117212,42.1721901 158.080888,40.3221865 160.180493,39.0396768 C166.786353,40.4314905 171.682656,43.9598162 172.984395,48.2663 L173.077786,48.6012793 L173.516724,48.3838366 C173.796897,48.2427927 174.07707,48.0899951 174.338565,47.9254439 L182.76243,42.7068188 C184.833118,41.4301201 186,39.6826691 186,37.8584339 C186,36.0341988 184.833118,34.2867478 182.76243,33.0100491 C180.672766,31.7136214 177.852025,30.9909376 174.917589,31.0000858 L174.917589,31.0000858 Z" id="Shape" fill-rule="nonzero"></path>
                <path d="M170.0595,0 L57.95,0 C25.992,0 0,25.574 0,57 C0,88.426 25.992,114 57.9405,114 L170.05,114 C202.008,114 228,88.426 228,57 C228,25.574 202.008,0 170.0595,0 Z M114.76,89.3665 C112.9075,89.7465 110.827,89.813 109.421,88.3595 C108.9935,89.3095 108.129,89.091 107.3215,88.8915 C107.130149,88.8395965 106.936834,88.7952289 106.742,88.7585 C106.647,88.996 106.5805,89.2145 106.495,89.452 C103.3695,89.6515 101.0325,86.5165 99.541,84.151 C98.078675,83.4087393 96.5788259,82.7428443 95.0475,82.156 C93.4135,81.491 91.77,80.826 90.212,79.971 C90.1779593,80.5181305 90.165283,81.0663809 90.174,81.6145 C90.155,83.9325 90.136,86.393 88.0175,87.799 C87.951,90.6015 90.2595,90.573 92.5395,90.554 C94.506,90.5255 96.4345,90.5065 96.786,92.302 C96.6282633,92.3196753 96.4697185,92.329188 96.311,92.3305 C95.874,92.3305 95.437,92.3305 95.1045,92.6535 C93.993,93.708 92.8055,93.252 91.5705,92.777 C90.4305,92.34 89.262,91.884 88.084,92.587 C87.2232237,93.0196952 86.3917705,93.5084119 85.595,94.05 C84.0888905,95.1821121 82.2719406,95.8253389 80.389,95.893 C80.161,95.551 80.256,95.3325 80.446,95.133 C80.5931824,94.9644038 80.7296182,94.7867199 80.8545,94.601 C81.035,94.335 81.187,94.0595 81.339,93.803 C81.852,92.9005 82.3175,92.093 83.638,91.713 C81.8805,91.4375 80.37,92.2355 78.888,93.0145 L78.85,93.0335 C78.6451086,93.1429579 78.4392674,93.2506286 78.2325,93.3565 C77.311,93.7365 76.7695,93.442 76.2185,93.138 C75.4395,92.7105 74.6225,92.264 72.6465,93.518 C72.2665,93.214 72.4565,92.9385 72.6655,92.701 C73.53,91.6655 74.6605,91.5135 75.943,91.5705 C72.6085,89.737 70.205,91.0385 68.248,92.093 C66.519,93.024 65.1415,93.765 63.7735,91.979 C63.156,92.1405 62.8045,92.5775 62.4625,93.005 C62.32,93.195 62.1775,93.366 62.016,93.5275 C61.6835,93.157 61.7595,92.739 61.845,92.3115 L61.8925,92.0645 C61.9079143,91.9701847 61.9174328,91.875 61.921,91.7795 L61.6645,91.6845 C61.161,91.4755 60.667,91.2665 60.8095,90.5065 C59.698,90.1265 58.9095,90.7915 58.0925,91.3995 C57.5795,91.01 57.9975,90.497 58.3965,90.022 C58.5675877,89.8375017 58.7115325,89.6295815 58.824,89.4045 C59.185,88.787 59.8025,88.768 60.401,88.749 C60.914,88.7395 61.427,88.7205 61.7785,88.35 C63.042,87.6375 64.6,88.008 66.1675,88.3785 C67.317,88.6445 68.4665,88.92 69.5305,88.7775 C71.459,89.015 73.8435,87.0675 72.8745,85.12 C71.1075,82.9065 71.1265,80.104 71.136,77.3965 L71.136,76.038 C70.984,75.012 69.502,73.8245 68.02,72.637 C66.88,71.7345 65.74,70.8225 65.189,69.977 C63.669,68.2955 62.4815,66.348 61.3035,64.4195 L61.161,64.1915 C59.147,60.3535 58.3395,56.0215 57.532,51.699 C56.5535,46.512 55.5845,41.344 52.535,37.069 C50.008,38.437 46.721,37.7815 44.5455,35.948 C43.4055,36.9645 43.3105,38.2945 43.2345,39.71 L43.225,39.843 C40.4035,37.069 40.755,31.825 43.0065,28.728 C43.928,27.512 45.03,26.5145 46.2555,25.631 C46.5405,25.4315 46.6355,25.232 46.626,24.928 C48.8585,15.048 64.068,16.9575 68.875,23.9495 C70.4615,25.9065 71.5445,28.1485 72.6275,30.3905 C73.929,33.079 75.221,35.7675 77.3775,37.943 C79.4675,40.1945 81.6715,42.3415 83.8755,44.4885 C87.286,47.8135 90.6965,51.129 93.6795,54.834 C98.3345,60.4105 101.65,66.956 104.5475,73.549 C105.0225,74.423 105.3075,75.3825 105.5925,76.3325 C106.0105,77.7575 106.438,79.173 107.4925,80.294 C107.7395,80.6265 108.2905,81.13 108.908,81.7 C110.39,83.0585 112.2995,84.816 111.6535,85.5855 C111.739,85.766 111.91,85.9655 112.1285,86.1555 C112.4325,86.4215 112.8315,86.7065 113.2305,86.9915 C114.3895,87.818 115.6055,88.6825 114.7505,89.3665 L114.76,89.3665 Z M188.651,55.689 L180.082,64.1155 C177.802,66.367 174.9805,68.039 171.9215,68.9605 L171.76,69.008 L171.703,69.1505 C170.712576,71.731203 169.176574,74.0676122 167.2,76 L158.631,84.436 C154.8975,88.1125 149.929,90.136 144.628,90.136 C139.3365,90.136 134.368,88.1125 130.625,84.436 C126.922907,80.8087045 124.836688,75.8439301 124.836688,70.661 C124.836688,65.4780699 126.922907,60.5132955 130.625,56.886 L139.194,48.45 C141.493,46.189 144.2385,44.5645 147.3545,43.624 L147.5065,43.586 L147.5635,43.434 C148.561,40.85 150.081,38.532 152.076,36.556 L160.645,28.1295 C164.3785,24.453 169.3565,22.4295 174.648,22.4295 C179.949,22.4295 184.908,24.453 188.651,28.1295 C192.394,31.806 194.446,36.6985 194.446,41.9045 C194.446,47.12 192.394,52.0125 188.651,55.6795 L188.651,55.689 L188.651,55.689 Z" id="Shape"></path>
            </g>
            <rect id="box" x="0" y="0" width="240" height="240"></rect>
        </g>
    </g>
</svg>