<?xml version="1.0" encoding="UTF-8"?>
<svg width="240px" height="240px" viewBox="0 0 240 240" version="1.1" xmlns="http://www.w3.org/2000/svg" xmlns:xlink="http://www.w3.org/1999/xlink">
    <title>leak-lookup</title>
    <g id="Page-1" stroke="none" stroke-width="1" fill="none" fill-rule="evenodd">
        <g id="leak-lookup">
            <rect id="box" fill="#293042" x="0" y="0" width="240" height="240" rx="32"></rect>
            <path d="M205.963726,33.7702923 C232.324116,60.130682 232.324116,102.869318 205.963726,129.229708 C180.962597,154.230837 141.228746,155.520008 114.708245,133.09722 L72.8367328,174.968203 L81.4680374,183.600505 L38.3345238,226.734019 L15,203.399495 L58.1335137,160.265981 L65.7656649,167.897135 L107.564035,126.099534 C84.1833527,99.5878698 85.1634446,59.1111586 110.504311,33.7702923 C136.864701,7.40990258 179.603337,7.40990258 205.963726,33.7702923 Z M117.380625,40.6466061 C94.8179184,63.2093125 94.8179184,99.7906875 117.380625,122.353394 C139.943331,144.9161 176.524706,144.9161 199.087413,122.353394 C221.650119,99.7906875 221.650119,63.2093125 199.087413,40.6466061 C176.524706,18.0838997 139.943331,18.0838997 117.380625,40.6466061 Z" id="Combined-Shape" fill="#FFFFFF" fill-rule="nonzero"></path>
            <g id="Group-2" transform="translate(114, 57)">
                <path d="M45.7258065,40.5238095 C48.7636343,40.5238095 51.1225536,39.0805824 52.8025644,36.1941282 C54.4825752,33.3076741 55.3225806,29.0009012 55.3225806,23.2738095 C55.3225806,17.5467179 54.4825752,13.239945 52.8025644,10.3534908 C51.1225536,7.46703662 48.7636343,6.02380952 45.7258065,6.02380952 C42.6879786,6.02380952 40.3290593,7.46703662 38.6490485,10.3534908 C36.9690377,13.239945 36.1290323,17.5467179 36.1290323,23.2738095 C36.1290323,29.0009012 36.9690377,33.3076741 38.6490485,36.1941282 C40.3290593,39.0805824 42.6879786,40.5238095 45.7258065,40.5238095 Z M46,46 C43.3846154,46 41.0215924,45.4751984 38.9109312,44.4255952 C36.8002699,43.3759921 35.0107962,41.8700397 33.5425101,39.9077381 C32.074224,37.9454365 30.9500675,35.5381944 30.1700405,32.6860119 C29.3900135,29.8338294 29,26.6051587 29,23 C29,19.3948413 29.3900135,16.1661706 30.1700405,13.3139881 C30.9500675,10.4618056 32.074224,8.05456349 33.5425101,6.0922619 C35.0107962,4.12996032 36.8002699,2.62400794 38.9109312,1.57440476 C41.0215924,0.524801587 43.3846154,0 46,0 C48.6153846,0 50.9784076,0.524801587 53.0890688,1.57440476 C55.1997301,2.62400794 56.9892038,4.12996032 58.4574899,6.0922619 C59.925776,8.05456349 61.0499325,10.4618056 61.8299595,13.3139881 C62.6099865,16.1661706 63,19.3948413 63,23 C63,26.6051587 62.6099865,29.8338294 61.8299595,32.6860119 C61.0499325,35.5381944 59.925776,37.9454365 58.4574899,39.9077381 C56.9892038,41.8700397 55.1997301,43.3759921 53.0890688,44.4255952 C50.9784076,45.4751984 48.6153846,46 46,46 Z" id="Shape-Copy" fill="#FFFFFF" fill-rule="nonzero"></path>
                <polyline id="Rectangle-Copy-13" stroke="#FFFFFF" stroke-width="7" points="0 4 14 4 14 46"></polyline>
                <polyline id="Rectangle-Copy-14" stroke="#FFFFFF" stroke-width="7" points="69 4 83 4 83 46"></polyline>
            </g>
        </g>
    </g>
</svg>