<?xml version="1.0" encoding="UTF-8"?>
<svg width="241px" height="240px" viewBox="0 0 241 240" version="1.1" xmlns="http://www.w3.org/2000/svg" xmlns:xlink="http://www.w3.org/1999/xlink">
    <title>leakix</title>
    <g id="Page-1" stroke="none" stroke-width="1" fill="none" fill-rule="evenodd">
        <g id="leakix">
            <rect id="box" x="0" y="0" width="240" height="240"></rect>
            <path d="M140.522553,48.3346084 C145.039976,51.9042443 148.902123,56.0519828 152.108066,60.7778239 C164.67881,45.2062918 179.353483,42.9019927 196.133012,53.8649264 C202.166747,60.5022298 204.947269,68.336847 204.474581,77.368778 C220.294829,77.8964625 231.570776,85.2702199 238.304276,99.4900501 C240.359082,107.877515 240.049518,116.172992 237.377435,124.376481 C235.678536,126.065993 233.978709,127.756427 232.27981,129.445939 C239.293215,134.656421 241.610318,141.569318 239.231117,150.184632 C232.504105,163.6316 222.154999,173.309657 208.181944,179.218802 C197.248001,184.000683 185.817272,186.611915 173.888828,187.053419 C165.116279,195.789478 154.457607,200.398076 141.912815,200.879214 C129.861102,200.854327 118.584228,197.936163 108.083119,192.122877 C105.368402,189.263703 102.587879,186.652471 99.7415506,184.28826 C90.705778,186.365816 82.2097975,185.137164 74.2534239,180.601381 C59.1194083,189.863742 43.2087001,191.246322 26.5211138,184.74912 C6.87977792,173.77236 0.0829472075,157.335333 6.13061236,135.437117 C0.22904515,125.135978 -1.31569289,114.229269 1.4964075,102.716069 C1.95513817,94.5194924 6.28038986,88.9891744 14.4721811,86.1251149 C19.0624537,85.0561966 23.6966586,84.2880354 28.3747957,83.8208157 C28.4448649,75.8519039 31.84322,69.5535169 38.5700464,64.9255625 C47.7275133,59.8342595 57.3048391,58.7589813 67.3021166,61.6995436 C70.5752555,56.8910243 73.9737032,52.1287752 77.4973673,47.4128887 C83.664011,43.7867514 90.1515271,41.1752522 96.9610277,39.5782715 C112.587566,37.398257 127.107457,40.3170298 140.522553,48.3346084 Z M115,143 C108.372583,143 103,148.372583 103,155 C103,161.627417 108.372583,167 115,167 C121.627417,167 127,161.627417 127,155 C127,148.372583 121.627417,143 115,143 Z M129,73 L101,73 L107.237778,136 L122.760667,136 L129,73 Z" id="Combined-Shape" fill="#FFA507" fill-rule="nonzero"></path>
        </g>
    </g>
</svg>