<?xml version="1.0" encoding="UTF-8"?>
<svg width="240px" height="241px" viewBox="0 0 240 241" version="1.1" xmlns="http://www.w3.org/2000/svg" xmlns:xlink="http://www.w3.org/1999/xlink">
    <title>leetcode</title>
    <g id="Page-1" stroke="none" stroke-width="1" fill="none" fill-rule="evenodd">
        <g id="leetcode" transform="translate(-8, -278)">
            <rect id="box" x="8" y="279" width="240" height="240"></rect>
            <g id="shape" transform="translate(26, 279)" fill-rule="nonzero">
                <path d="M90.5073544,128.596689 L189.963574,129.042985 C197.845562,129.078342 204.206523,135.498873 204.171324,143.383642 C204.135832,151.26841 197.717566,157.631615 189.835578,157.596404 L90.379358,157.150108 C82.4973703,157.11475 76.1364098,150.694219 76.1716085,142.809451 C76.2071003,134.924682 82.6253667,128.561478 90.5073544,128.596689 Z" id="gray" fill="#B4B2B1"></path>
                <path d="M139.217722,222.50338 C116.215134,245.294264 78.9205698,245.294264 55.9179815,222.50338 L17.4229517,184.363541 C-5.57918395,161.572205 -5.57918395,124.620882 17.4229517,101.829545 L55.9179815,63.689706 C78.9205698,40.8988223 116.215134,40.8988223 139.217722,63.689706 L162.989174,87.2423771 C168.514237,92.7165899 168.555459,101.633264 163.081246,107.158327 C163.050698,107.189159 163.020007,107.21985 162.989174,107.250399 C157.397752,112.790361 148.38672,112.790361 142.795298,107.250399 L119.023846,83.697728 L119.023846,83.697728 C107.174028,71.9569697 87.9616763,71.9569697 76.1118581,83.697728 L37.6172809,121.83802 C25.7674627,133.578778 25.7674627,152.614308 37.6172809,164.355067 L76.1118581,202.495359 C87.9616763,214.236117 107.174028,214.236117 119.023846,202.495359 L142.795298,178.942687 C148.38672,173.402725 157.397752,173.402725 162.989174,178.942687 C168.514237,184.4169 168.555459,193.333575 163.081246,198.858637 C163.050698,198.88947 163.020007,198.920161 162.989174,198.950709 L139.217722,222.50338 L139.217722,222.50338 Z" id="orange" fill="#F89F1B"></path>
                <path d="M58.1342315,225.44549 L17.3381047,184.752921 L17.3381047,184.752921 C-5.5507621,161.922057 -5.5507621,124.905968 17.3381047,102.075104 L115.915771,3.74760005 C121.468721,-1.79125861 130.456896,-1.7912572 136.009845,3.74760321 C141.544591,9.26830771 141.555975,18.2305216 136.03527,23.7652682 C136.026806,23.7737542 136.018331,23.7822293 136.009845,23.7906937 L37.4322096,122.118229 L37.4322096,122.118229 C25.6409577,133.879566 25.6409577,152.94846 37.4322096,164.709796 L78.2283091,205.402393 C83.7630557,210.923097 83.7744391,219.885311 78.2537346,225.420058 C78.2452702,225.428544 78.236795,225.437019 78.2283091,225.445483 C72.6753598,230.984344 63.6871845,230.984347 58.1342315,225.44549 Z" id="white" fill="#FFFFFF"></path>
            </g>
        </g>
    </g>
</svg>