<?xml version="1.0" encoding="UTF-8"?>
<svg width="160px" height="160px" viewBox="0 0 160 160" version="1.1" xmlns="http://www.w3.org/2000/svg" xmlns:xlink="http://www.w3.org/1999/xlink">
    <title>leonardo-logo-white-fix</title>
    <g id="Page-1" stroke="none" stroke-width="1" fill="none" fill-rule="evenodd">
        <g id="leonardo-logo-white-fix" fill="#FFFFFF">
            <path d="M88.235,108.587 C84.866,106.396 83.848,104.267 83.555,103.384 L83.443,102.957 L83.424,102.979 C83.269,103.156 82.123,104.369 79.926,104.422 L79.926,104.427 L79.907,104.427 L79.897,104.426 L79.89,104.426 L79.853,104.424 L79.809,104.426 L79.78,104.427 L79.78,104.422 C77.582,104.368 76.437,103.156 76.282,102.979 L76.263,102.957 L76.151,103.384 C75.858,104.267 74.84,106.397 71.471,108.587 C62.611,114.349 62.116,120.161 62.089,120.815 C62.286,111.851 64.075,106.346 66.311,102.957 L66.312,102.959 C69.008,98.876 72.354,97.866 74.352,97.583 C77.349,97.16 79.258,98.578 79.853,99.107 C80.448,98.578 82.358,97.16 85.354,97.583 C87.353,97.866 90.699,98.876 93.394,102.959 L93.396,102.957 C95.632,106.345 97.42,111.849 97.618,120.812 C97.589,120.149 97.086,114.344 88.235,108.587 L88.235,108.587 Z" id="Path" fill-rule="nonzero"></path>
            <path d="M88.32,124.178 C87.6402593,125.320195 86.891538,126.4199 86.078,127.471 C81.975,132.758 79.778,138.267 79.778,141.027 L79.768,141.027 C79.768,138.267 77.572,132.758 73.469,127.471 C72.6558384,126.419848 71.9074529,125.320145 71.228,124.178 C68.916,120.302 70.01,115.36 73.778,112.771 C74.9112136,111.998512 75.7615479,110.877489 76.2,109.578 C76.701,108.079 78.137,107.063 79.76,107.052 L79.785,107.052 C81.409,107.063 82.845,108.08 83.346,109.579 C83.7848416,110.878002 84.6346678,111.998818 85.767,112.772 C89.536,115.361 90.629,120.303 88.318,124.179 L88.319,124.178 L88.32,124.178 Z M69.574,87.37 L67.946,88.109 L67.914,88.125 L66.64,88.826 C64.475,90.127 63.57,91.273 63.57,91.273 C63.153,89.058 61.572,86.532 59.77,83.656 C56.673,78.707 52.927,72.723 53.346,65.509 L59.184,64.881 C58.98,64.641 58.79,64.4 58.614,64.164 C58.364,63.831 58.8,63.416 59.122,63.679 C60.621,64.907 62.402,65.909 63.865,65.909 C66.103,65.909 68.015,63.621 68.015,63.621 C68.015,63.621 66.17,61.751 63.865,61.751 C62.578,61.751 60.645,62.303 59.19,62.789 C58.812,62.917 58.555,62.404 58.886,62.18 C60.203,61.29 62.142,60.283 64.179,60.283 C67.41,60.283 72.287,65.731 74.024,67.671 L74.025,67.672 C74.249,67.922 74.421,68.115 74.53,68.229 L74.215,80.57 C71.251,80.434 69.045,82.238 68.485,84.39 C67.925,86.542 69.575,87.368 69.575,87.368 L69.574,87.37 L69.574,87.37 Z" id="Shape" fill-rule="nonzero"></path>
            <path d="M88.46,86.202 C87.6341378,86.7827559 86.5933802,86.96769 85.618,86.707 L84.512,86.413 L84.486,86.407 L84.439,86.58 C83.84,88.795 81.978,90.406 79.999,90.43 C78.02,90.406 76.159,88.795 75.559,86.58 L75.512,86.407 L74.381,86.707 C73.4050001,86.9683156 72.3633693,86.7833566 71.537,86.202 C70.7943547,85.6777705 70.6135355,84.6526814 71.132,83.906 C71.7803512,82.9720824 73.0080527,82.6424413 74.037,83.126 L76.193,84.133 L76.627,74.911 C76.821,70.801 76.763,66.637 76.457,62.532 C76.2993717,60.5482462 74.646995,59.0167539 72.657,59.01 L62.158,59.01 C61.518,59.01 60.881,59.065 60.254,59.17 L60.254,59.172 C58.4554336,59.4756957 56.7523923,60.1943696 55.28,61.271 L55.274,61.275 L55.266,61.281 L55.264,61.281 L55.26,61.285 L55.258,61.287 L55.254,61.289 L55.252,61.291 L55.249,61.293 C55.135,61.377 55.022,61.463 54.91,61.552 L54.874,61.582 C54.772,61.662 54.671,61.746 54.572,61.832 L54.536,61.862 C54.433,61.952 54.334,62.042 54.234,62.135 L54.218,62.15 C54.2019227,62.1645651 54.18625,62.1795708 54.171,62.195 C54.071,62.289 53.972,62.384 53.876,62.483 C55.019,57.164 56.591,52.393 58.548,48.298 C60.368,44.491 62.533,41.245 64.98,38.649 C67.25,36.242 69.752,34.403 72.416,33.184 C74.875,32.059 77.425,31.481 79.996,31.462 L80.032,31.462 C82.592,31.486 85.13,32.063 87.577,33.183 C90.242,34.403 92.743,36.241 95.013,38.648 C97.46,41.244 99.623,44.489 101.444,48.297 C103.402,52.391 104.974,57.164 106.117,62.482 C106.020276,62.3846925 105.921929,62.2890124 105.822,62.195 L105.8,62.174 L105.789,62.164 L105.759,62.135 C105.659857,62.0426558 105.559176,61.9519765 105.457,61.863 L105.442,61.85 L105.432,61.842 L105.42,61.832 C105.321,61.746 105.22,61.662 105.118,61.58 L105.101,61.566 L105.1,61.566 L105.098,61.565 L105.089,61.557 L105.085,61.554 L105.081,61.551 C104.970149,61.4623224 104.857458,61.3759703 104.743,61.292 L104.739,61.289 L104.733,61.285 L104.728,61.281 L104.712,61.269 C103.239825,60.192178 101.536656,59.4737927 99.738,59.171 L99.738,59.169 C99.1088531,59.0630806 98.4720003,59.0095635 97.834,59.009 L87.337,59.009 C85.3466502,59.0157964 83.6941359,60.5478511 83.537,62.532 C83.2297898,66.6507533 83.1730186,70.7843633 83.367,74.91 L83.802,84.132 L85.958,83.125 C86.9869473,82.6414413 88.2146488,82.9710824 88.863,83.905 C89.3812589,84.6519404 89.1999835,85.6770841 88.457,86.201 L88.461,86.201 L88.46,86.202 Z" id="Path" fill-rule="nonzero"></path>
            <path d="M96.43,91.273 C96.43,91.273 95.523,90.127 93.36,88.826 L92.085,88.125 L92.053,88.109 L90.425,87.369 C90.425,87.369 92.075,86.544 91.515,84.391 C90.955,82.238 88.749,80.436 85.785,80.572 C85.785,80.572 85.199,68.545 86.153,67.548 C86.326843,67.3612539 86.4978624,67.1718991 86.666,66.98 C88.304,65.134 92.61,60.285 95.821,60.285 C97.857,60.285 99.797,61.291 101.114,62.182 C101.445,62.405 101.188,62.917 100.81,62.792 C99.354,62.304 97.422,61.752 96.135,61.752 C93.83,61.752 91.985,63.622 91.985,63.622 C91.985,63.622 93.897,65.912 96.135,65.912 C97.597,65.912 99.379,64.908 100.878,63.682 C101.2,63.417 101.636,63.832 101.386,64.166 C101.21,64.402 101.02,64.643 100.816,64.883 L106.654,65.511 C107.073,72.724 103.327,78.708 100.23,83.656 C98.429,86.533 96.847,89.06 96.43,91.274 L96.43,91.273 L96.43,91.273 Z" id="Path" fill-rule="nonzero"></path>
            <path d="M80,0 C35.817,0 0,35.817 0,80 C0,124.183 35.817,160 80,160 C124.183,160 160,124.183 160,80 C160,35.817 124.183,0 80,0 Z M82.775,6.562 C82.7738958,8.14059154 81.4935918,9.41955253 79.915,9.41900018 C78.335,9.41900018 77.055,8.14 77.055,6.562 C77.0552651,5.8038379 77.3567666,5.07684812 77.8931494,4.54102792 C78.4295322,4.00520772 79.156838,3.7044694 79.915,3.7049993 C81.495,3.7049993 82.775,4.985 82.775,6.562 Z M14.021,40.0399993 C12.441,40.0399993 11.161,41.32 11.161,42.897 C11.1626556,44.4753627 12.4426364,45.754 14.021,45.754 C15.5993636,45.754 16.8793444,44.4753627 16.881,42.897 C16.8807349,42.1388379 16.5792334,41.4118481 16.0428506,40.8760279 C15.5064678,40.3402077 14.779162,40.0394694 14.021,40.0399993 L14.021,40.0399993 Z M16.881,115.544 C16.8807349,116.302162 16.5792334,117.029152 16.0428506,117.564972 C15.5064678,118.100792 14.779162,118.401531 14.021,118.401001 C12.4424082,118.401553 11.1621042,117.122592 11.161,115.544 C11.1615302,114.786011 11.4631487,114.059278 11.9995028,113.523674 C12.5358569,112.98807 13.2630112,112.687469 14.021,112.687999 C15.601,112.687999 16.881,113.967 16.881,115.544 L16.881,115.544 Z M145.98,118.401001 C145.221838,118.401531 144.494532,118.100792 143.958149,117.564972 C143.421767,117.029152 143.120265,116.302162 143.12,115.544 C143.12053,114.786011 143.422149,114.059278 143.958503,113.523674 C144.494857,112.98807 145.222011,112.687469 145.98,112.687999 C147.56,112.687999 148.84,113.967 148.84,115.544 C148.838896,117.122592 147.558592,118.401553 145.98,118.401001 L145.98,118.401001 Z M143.12,42.897 C143.120265,42.1388379 143.421767,41.4118481 143.958149,40.8760279 C144.494532,40.3402077 145.221838,40.0394694 145.98,40.0399993 C147.56,40.0399993 148.84,41.32 148.84,42.897 C148.838344,44.4753627 147.558364,45.754 145.98,45.754 C144.401636,45.754 143.121656,44.4753627 143.12,42.897 L143.12,42.897 Z M59.11,107.233 L59.125,107.188 C59.1275031,107.181269 59.1301705,107.1746 59.133,107.168 L59.141,107.146 L59.155,107.107 L59.155,107.104 C59.171318,107.055184 59.1889915,107.006832 59.208,106.959 L59.215,106.94 L59.238,106.878 L59.318,106.662 L59.432,106.414 C61.962,101.07 68.728,96.559 72.782,95.532 C76.828,94.507 79.749,96.66 79.85,96.736 L79.84,96.729 L79.851,96.737 L79.851,96.74 L79.853,96.738 L79.855,96.74 L79.855,96.737 C79.948,96.667 82.872,94.506 86.924,95.532 C90.978,96.558 97.744,101.07 100.274,106.414 L100.3,106.47 L100.313,106.499 L100.337,106.55 L100.362,106.606 L100.389,106.663 L100.423,106.758 L100.459,106.854 L100.5,106.965 L100.501,106.967 L100.51,106.992 L100.521,107.022 L100.522,107.023 L100.523,107.026 L100.526,107.036 L100.527,107.039 L100.53,107.045 L100.541,107.075 L100.545,107.088 L100.551,107.104 L100.557,107.12 L100.567,107.145 L100.58,107.182 L100.64,107.35 L100.64,107.351 L100.559,107.125 L100.552,107.108 C100.671,107.489 100.767,107.961 100.84,108.516 C101.507,113.392 100.756,125.258 96.274,135.673 C94.634,138.796 93.141,141.511 91.764,143.852 C94.881519,138.550734 96.7784935,132.621365 97.317,126.495 C97.471,124.723 97.573,122.831 97.617,120.815 L97.617,120.825 L97.616,120.856 C97.576,121.888 97.248,130.375 83.446,140.21 C82.254,141.06 82.729,142.929 84.186,143.097 L91.699,143.963 C90.337,146.272 89.091,148.21 87.928,149.81 C87.808,149.745 87.565,149.563 87.227,149.31 L87.226,149.309 C85.737,148.197 82.414,145.713 79.768,145.713 L79.766,145.713 C77.357,145.713 74.384,147.862 72.748,149.045 L72.747,149.046 C72.29,149.377 71.937,149.632 71.73,149.743 C70.58,148.157 69.349,146.24 68.007,143.964 L75.521,143.098 C76.977,142.931 77.452,141.061 76.26,140.211 C62.458,130.375 62.13,121.889 62.09,120.857 L62.09,120.829 L62.089,120.815 C62.133,122.831 62.236,124.722 62.389,126.495 C62.926606,132.615568 64.8204408,138.539609 67.933,143.837 C66.56,141.5 65.071,138.79 63.433,135.674 C58.952,125.26 58.2,113.395 58.867,108.518 C58.939,107.963 59.037,107.491 59.155,107.109 L59.109,107.233 L59.11,107.233 Z M59.11,107.233 L59.067,107.351 L59.067,107.349 L59.109,107.233 L59.11,107.233 Z M38.487,43.324 C41.266,40.507 46.994,34.423 52.327,27.028 C52.6,26.65 52.873,26.281 53.147,25.922 C53.5,25.46 53.842,24.992 54.181,24.519 L18.467,41.697 C18.6101632,42.2266737 18.6572407,42.7777177 18.606,43.324 L38.488,43.324 L38.487,43.324 Z M142.422,39.976 C131.617,23.403 114.376,11.405 94.242,7.507 L103.884,21.711 L142.27,40.172 L142.263,40.182 L142.261,40.186 L142.259,40.188 L142.258,40.19 C142.311,40.117 142.366,40.046 142.422,39.976 L142.422,39.976 Z M105.818,24.519 L106.852,25.922 C107.125,26.282 107.399,26.65 107.672,27.028 C113.005,34.422 118.732,40.506 121.512,43.324 L141.395,43.324 C141.344513,42.7774419 141.391235,42.2262616 141.533,41.696 L105.818,24.519 L105.818,24.519 Z M129.686,117.835 L127.11,124.234 L141.633,117.066 L141.638,117.08 C141.639897,117.086161 141.642237,117.092176 141.645,117.098 L141.654,117.123 L141.665,117.151 C141.413824,116.480621 141.323402,115.760671 141.401,115.049 C117.075,121.272 116.321,70.105 116.312,69.396 L116.312,69.41 C115.994,109.899 130.2,115.343 130.2,115.343 C108.957,110.766 110.218,91.967 111.222,76.993 C111.422,74.013 111.612,71.183 111.612,68.647 C111.612,53.377 102.511,42.867 102.511,42.867 C105.362844,44.6927082 108.417795,46.1797442 111.614,47.298 L111.615,47.299 L111.616,47.301 L111.618,47.306 L111.622,47.312 L111.625,47.318 L111.626,47.318 L111.631,47.327 L111.639,47.341 C111.632,47.329 111.626,47.317 111.618,47.306 L111.617,47.303 L111.615,47.299 C113.543092,47.9758271 115.51713,48.5138668 117.522,48.909 C117.724,48.945 117.923,48.979 118.121,49.012 L118.125,49.022 C121.519,49.634 123.682,49.576 123.682,49.576 C123.682,49.576 126.709,56.826 127.95,70.023 L127.979,70.328 L128.036,70.943 L142.973,46.378 C142.52929,45.996524 142.162403,45.533927 141.892,45.015 L123.22,45.015 C112.207,45.015 98.157,35.092 91.135,30.133 L91.127,30.127 C90.617,29.767 90.143,29.432 89.71,29.13 C89.564,29.027 89.42,28.928 89.277,28.83 L89.274,28.829 C89.037,28.669 88.807,28.518 88.579,28.371 C84.523,25.768 81.925,25.389 80.794,25.38 L80.794,18.182 C83.539,18.361 92.037,19.122 102.849,29.733 C102.849,29.733 93.483,16.893 80.794,16.961 L80.794,12.698 C89.354,13.377 96.422,15.45 102.507,21.981 L92.231,7.14 C89.6740946,6.71762017 87.0969442,6.42856278 84.51,6.274 C84.5878092,7.54139243 84.1384991,8.78461378 83.2684089,9.70942779 C82.3983187,10.6342418 81.1847786,11.1584548 79.915,11.158 C78.6468935,11.1585636 77.4347536,10.635831 76.5647646,9.7132187 C75.6947756,8.79060637 75.2440488,7.54988966 75.319,6.284 C72.7894607,6.44076111 70.2695362,6.72613005 67.769,7.139 L57.49,21.98 C63.575,15.45 70.643,13.376 79.203,12.697 L79.203,16.96 C66.514,16.893 57.148,29.732 57.148,29.732 C67.96,19.122 76.458,18.36 79.203,18.182 L79.203,25.379 C79.0260826,25.3827498 78.8493277,25.3920877 78.673,25.407 L78.658,25.407 L78.65,25.409 L78.642,25.409 C77.178,25.549 74.392,26.258 70.288,29.128 C69.854,29.431 69.378,29.768 68.865,30.13 C61.843,35.089 47.791,45.013 36.778,45.013 L18.106,45.013 C17.835,45.534 17.467,45.996 17.026,46.376 L31.962,70.942 L31.98,70.747 L32,70.544 L32.031,70.206 L32.048,70.021 C33.289,56.825 36.316,49.574 36.316,49.574 C36.316,49.574 38.479,49.632 41.873,49.02 L41.867,49.034 L41.864,49.041 L41.86,49.051 L41.854,49.066 L41.851,49.072 L41.863,49.043 L41.867,49.034 L41.87,49.027 L41.874,49.019 L41.877,49.009 C42.075,48.977 42.274,48.943 42.477,48.907 C44.4818756,48.5118901 46.4559148,47.9738499 48.384,47.297 C51.5800442,46.1779325 54.6349409,44.6905874 57.487,42.865 C57.487,42.865 48.432,53.323 48.387,68.531 L48.387,68.588 L48.386,68.619 L48.386,68.646 C48.386,71.181 48.576,74.01 48.776,76.991 C49.78,91.965 51.041,110.763 29.798,115.341 C29.798,115.341 44.004,109.897 43.686,69.409 L43.686,69.395 C43.677,70.103 42.923,121.27 18.598,115.048 C18.6751038,115.752949 18.5867649,116.466166 18.34,117.131 L18.344,117.119 L18.349,117.108 C18.3538784,117.093172 18.3592143,117.078498 18.365,117.064 L32.908,124.242 L30.337,117.804 C31.9223068,117.463968 33.4825903,117.016263 35.007,116.464 C37.092,115.703 38.991,114.762 40.687,113.647 C41.7164989,112.974584 42.6884929,112.217994 43.593,111.385 C45.1640177,109.92516 46.5147721,108.244969 47.603,106.397 L47.606,106.397 C47.606,106.397 45.715,120.01 49.068,132.217 L63.942,139.559 C63.522,138.759 63.286,138.28 63.279,138.264 C56.395,125.03 52.899,113.74 52.889,104.707 C52.879,96.276 55.916,92.194 57.727,90.511 C59.235,89.109 60.754,88.602 61.296,88.935 C61.988,89.36 59.578,95.535 58.206,98.742 L58.254,98.766 C60.626,94.919 66.071,91.265 68.643,89.679 L68.711,89.633 C69.301,89.229 72.921,86.747 76.191,90.413 C77.907,92.339 79.756,92.251 79.849,92.245 L79.852,92.245 C79.945,92.251 81.794,92.339 83.511,90.413 C86.777,86.75 90.394,89.225 90.988,89.633 L91.021,89.654 L91.034,89.664 L91.058,89.679 C93.63,91.265 99.075,94.919 101.447,98.766 L101.494,98.742 C100.123,95.536 97.713,89.361 98.405,88.935 C98.947,88.602 100.466,89.109 101.974,90.511 C103.785,92.194 106.822,96.276 106.812,104.707 C106.801,113.74 103.306,125.03 96.422,138.264 C96.414,138.281 96.14,138.837 95.655,139.755 L110.791,132.285 C110.795484,132.264684 110.801161,132.244649 110.808,132.225 C114.18,120.024 112.275,106.426 112.275,106.426 L112.279,106.426 C113.377017,108.276388 114.738637,109.957021 116.321,111.415 C117.233827,112.24826 118.213814,113.004824 119.251,113.677 C120.961,114.792 122.874,115.733 124.977,116.494 C126.455,117.029 128.026,117.477 129.684,117.834 L129.687,117.835 L129.686,117.835 Z M88.548,151.158 L90.437,148.503 C91.7875986,146.501634 93.0569626,144.446632 94.242,142.343 L110.109,134.512 C107.083,143.418 100.884,151.028 88.548,151.158 L88.548,151.158 Z M146.825,111.024 L146.825,47.704 C151.701,57.597 154.441,68.731 154.441,80.504 C154.441,91.491 152.055,101.921 147.773,111.308 C147.467323,111.178886 147.148421,111.083651 146.822,111.024 L146.825,111.024 L146.825,111.024 Z M145.132,111.025 C144.383358,111.163349 143.681115,111.486456 143.089,111.965 C131.982,101.67 129.546,85.939 128.309,73.755 L144.437,47.232 C144.661,47.312 144.894,47.374 145.132,47.418 L145.132,111.025 L145.132,111.025 Z M65.758,7.505 C45.623,11.4 28.382,23.402 17.577,39.974 C17.63,40.04 17.68,40.106 17.73,40.174 L56.114,21.71 L65.758,7.503 L65.758,7.505 Z M12.225,111.307 C7.945,101.921 5.558,91.491 5.558,80.504 C5.558,68.731 8.298,57.597 13.174,47.703 L13.174,111.023 L13.177,111.023 C12.8505738,111.082628 12.5316687,111.177864 12.226,111.307 L12.225,111.307 Z M15.563,47.23 L31.69,73.754 L31.689,73.754 C30.452,85.939 28.016,101.671 16.909,111.966 C16.3170594,111.487787 15.6152254,111.164709 14.867,111.026 L14.867,47.418 C15.107,47.374 15.339,47.312 15.563,47.231 L15.563,47.23 Z M142.455,118.5 C142.745,118.844 143.084,119.146 143.461,119.394 L143.463,119.394 C137.392948,129.24922 129.118558,137.561265 119.291,143.676 L119.289,143.675 L119.288,143.673 L119.287,143.672 L119.286,143.671 L126.164,126.588 L142.483,118.534 L142.482,118.532 L142.48,118.531 L142.477,118.527 C142.475006,118.524919 142.473322,118.522561 142.472,118.52 L142.47,118.518 L142.455,118.5 Z M17.519,118.533 L33.849,126.592 L40.659,143.641 L40.657,143.642 C30.8530389,137.530575 22.5982263,129.230924 16.54,119.394 C16.9163712,119.147214 17.2546187,118.846699 17.544,118.502 L17.54,118.507 L17.528,118.522 L17.524,118.526 L17.519,118.533 L17.519,118.533 Z M71.149,151.128 C70.49939,150.269085 69.8721788,149.393457 69.268,148.502 C67.8742618,146.436232 66.5664796,144.313755 65.348,142.14 L49.744,134.439 C52.741,143.363 58.892,150.997 71.149,151.128 L71.149,151.128 Z" id="Shape"></path>
        </g>
    </g>
</svg>