<?xml version="1.0" encoding="UTF-8"?>
<svg width="240px" height="240px" viewBox="0 0 240 240" version="1.1" xmlns="http://www.w3.org/2000/svg" xmlns:xlink="http://www.w3.org/1999/xlink">
    <title>letta</title>
    <g id="Page-1" stroke="none" stroke-width="1" fill="none" fill-rule="evenodd">
        <g id="letta" fill="#FFFFFF" fill-rule="nonzero">
            <polygon id="Path" points="146 97 97 97 97 146 146 146"></polygon>
            <path d="M192.000654,32.6991273 L192.000654,0 L47.998582,0 L47.998582,32.6991273 C47.998582,41.1521455 41.1520977,47.9986909 32.6990905,47.9986909 L0,47.9986909 L0,192.001091 L32.6990905,192.001091 C41.1520977,192.001091 47.998582,198.847636 47.998582,207.301091 L47.998582,240 L192.000654,240 L192.000654,207.301091 C192.000654,198.847636 198.847575,192.001091 207.300146,192.001091 L240,192.001091 L240,47.9986909 L207.300146,47.9986909 C198.847575,47.9986909 192.000654,41.1521455 192.000654,32.6991273 Z M192.000654,176.695636 C192.000654,185.148 185.154825,191.994545 176.701163,191.994545 L63.3048363,191.994545 C54.85172,191.994545 48.0052358,185.148 48.0052358,176.695636 L48.0052358,63.2982545 C48.0052358,54.8451273 54.85172,47.9986909 63.3048363,47.9986909 L176.701163,47.9986909 C185.154825,47.9986909 192.000654,54.8451273 192.000654,63.2982545 L192.000654,176.695636 Z" id="Shape"></path>
        </g>
    </g>
</svg>