<?xml version="1.0" encoding="UTF-8"?>
<svg width="240px" height="244px" viewBox="0 0 240 244" version="1.1" xmlns="http://www.w3.org/2000/svg" xmlns:xlink="http://www.w3.org/1999/xlink">
    <title>linux</title>
    <g id="Page-1" stroke="none" stroke-width="1" fill="none" fill-rule="evenodd">
        <g id="linux" transform="translate(211, 87)">
            <rect id="box" x="-211" y="-85" width="240" height="240"></rect>
            <g id="shape" transform="translate(-194, -85)" fill-rule="nonzero">
                <path d="M198.505017,189.368851 C196.658265,186.58408 195.461778,183.420232 195.004035,180.111275 C194.48748,176.137515 192.678605,172.443254 189.855533,169.596498 C189.25311,169.072355 188.59739,168.612683 187.899101,168.225005 C187.263115,167.852708 186.5926,167.542681 185.896906,167.299248 C189.851356,155.131452 189.208301,141.938266 184.089209,130.2118 C178.566886,117.388624 170.907099,105.594116 161.435796,95.3301698 C151.986901,86.5012942 146.194178,74.454967 145.20085,61.5685918 C145.441114,40.0247278 147.660691,0.057145528 108.268922,0 C106.592893,0.00349269675 104.917553,0.0683010613 103.246272,0.194294795 C59.2322922,3.62302647 70.9136733,48.3908331 70.2615296,63.3743905 C69.8543664,74.3886854 66.0145231,85.0010982 59.2780567,93.730095 C47.1666114,107.004101 37.5647696,122.361761 30.9384082,139.057928 C27.9276186,147.024301 26.8989392,155.602011 27.9408354,164.053382 C27.54421,164.403874 27.1628394,164.761986 26.7967236,165.127718 C24.0966198,167.90499 22.1058654,171.276576 19.8748474,173.539539 C17.4200348,175.403249 14.596419,176.723968 11.5914782,177.414006 C7.81411822,178.408026 4.57983376,180.846588 2.58731864,184.202895 C1.64906246,185.995671 1.18438017,187.998001 1.23726676,190.02031 C1.27708167,191.880459 1.46839865,193.734286 1.80932264,195.563426 C2.64198406,198.742796 2.77856773,202.064142 2.20976176,205.301024 C-0.265993685,209.866749 -0.68195765,215.268603 1.06564999,220.158861 C3.29607171,223.4407 6.89091377,225.540739 10.8478056,225.873414 C20.7055721,226.496547 30.4304115,228.473317 39.7480688,231.747974 L40.5146237,230.342194 L39.7480688,231.759403 C48.024145,236.378722 57.6128972,238.089202 66.9779288,236.616773 C72.4318971,235.613073 77.0945301,232.102833 79.5631583,227.142045 C85.661274,227.142045 92.3657689,224.627641 103.086096,224.056186 C110.374088,223.484731 119.458336,226.547731 129.938399,225.987705 C130.2082,227.080652 130.611674,228.13626 131.139717,229.130709 C134.799116,236.444006 142.607886,240.731135 150.749792,239.896926 C159.98429,238.740272 168.409074,234.048817 174.249848,226.810601 L172.979884,225.781981 L174.261289,226.799171 C181.615122,220.375207 190.02643,215.27108 199.122838,211.712752 C202.703697,210.227031 205.287589,207.030671 205.987508,203.220927 C206.193449,199.392176 203.859461,195.106262 198.505017,189.368851" id="Path" stroke="#FFFFFF" stroke-width="4" fill="#20201F"></path>
                <path d="M202.992184,203.213875 C202.84359,205.561851 201.071893,207.317134 197.791397,209.209192 C188.36763,212.845552 179.69601,218.181389 172.210388,224.949747 C166.947254,231.501654 159.352215,235.776314 151.007183,236.88339 C144.166749,237.710513 137.563411,234.078398 134.616134,227.867619 C132.796851,222.332221 132.995195,216.334144 135.176218,210.93028 C137.348884,204.752071 138.966914,198.39363 140.011235,191.929915 C140.121582,185.850885 140.798888,179.795278 142.034398,173.841384 C142.682173,169.736146 145.123041,166.129046 148.698262,163.993564 L149.155474,163.720013 C148.98296,169.777057 152.641499,175.290372 158.299714,177.500123 C165.368797,177.949775 172.253694,175.138908 176.976822,169.874901 L179.16001,169.795115 C182.310351,169.397035 185.488367,170.284854 187.97277,172.25707 C190.213048,174.694101 191.638936,177.764823 192.053387,181.044882 C192.540495,184.892607 194.004005,188.552792 196.305458,191.67916 C201.483384,197.161569 203.129347,200.854502 202.992184,203.213875 M78.4933643,220.629927 C78.3254682,227.225509 73.4073441,232.736713 66.8573197,233.669171 C58.2707766,234.926273 49.5081662,233.323742 41.927837,229.109995 C32.3914337,225.567281 22.371098,223.488183 12.209059,222.943709 C9.22172628,222.765274 6.46920563,221.269669 4.69935245,218.863247 C3.43811222,214.749889 3.89560403,210.302999 5.96811567,206.530676 L5.96811567,206.473686 C6.76532822,202.773599 6.67131406,198.937744 5.69378848,195.280909 C4.85727785,192.188898 5.0091174,188.913667 6.12813985,185.911802 C7.69277871,183.237092 10.3006652,181.330056 13.3292284,180.645954 C16.8185515,179.866332 20.0758101,178.281352 22.8392373,176.018391 C25.4796365,173.339875 27.411357,169.98888 29.7888593,167.606711 C31.4621472,165.520059 33.9690049,164.270178 36.6470388,164.187329 L36.7499115,164.187329 C37.3011556,164.193281 37.8512457,164.238992 38.3958746,164.324104 C42.7885802,165.330001 46.6074324,168.020198 49.0260529,171.812551 L58.5360618,188.464941 C62.1688204,194.277435 66.3195708,199.751596 70.9379365,204.820985 C75.1840077,209.081946 77.8486893,214.657514 78.4933643,220.629927 M125.894815,65.3785877 C124.744232,63.5458217 122.977939,62.1804158 120.911205,61.526084 C117.14284,60.343632 113.467471,58.8845042 109.915257,57.160673 C106.198475,54.625298 101.841415,53.1836393 97.3419277,53.0002073 C95.6900532,52.9914977 94.0482473,53.2572951 92.4840505,53.7868828 C89.1773614,55.0762647 86.1987,57.0810718 83.7627322,59.6568218 C83.4198233,59.9645662 82.9854719,60.2495147 81.9110238,61.0017787 C80.8365756,61.7540428 79.2249034,62.8938368 76.9045527,64.5693339 C74.9603997,65.7503712 74.1154083,68.1305951 74.8813897,70.2683039 C76.2813602,73.4583952 78.8306677,76.0086203 82.0253267,77.4148122 C84.2758469,78.9094523 86.4046704,80.5787251 88.3920034,82.4071099 C89.4220476,83.2215772 90.5559236,83.896144 91.7639417,84.4131473 C93.2456,85.0074609 94.8199608,85.339185 96.4160735,85.3933702 C100.099114,85.6071821 103.760894,84.7052549 106.920518,82.8060378 C109.456755,81.0846009 112.160311,79.6220928 114.99031,78.4406268 C119.724106,77.3544694 123.754883,74.2786365 126.043409,70.0061513 C126.699421,68.5208258 126.644775,66.8190218 125.894815,65.3785877" id="Shape" fill="#FDBB14"></path>
                <path d="M180.540124,166.74873 L178.517329,166.74873 C180.071567,161.986335 176.631673,158.474785 167.443384,154.446831 C157.912248,150.372974 150.301054,150.774622 149.032521,159.037092 C148.942767,159.469053 148.8779,159.905854 148.838242,160.345316 C148.098855,160.597969 147.38046,160.908775 146.689736,161.274844 C142.319636,163.844825 139.294392,168.212713 138.415705,173.220999 C137.116242,179.40502 136.404498,185.698975 136.290056,192.018117 C135.634691,196.657154 134.524573,201.21984 132.975872,205.639717 C116.858981,218.136137 94.7641303,219.443104 77.2975846,208.933229 C75.9975982,206.987549 74.6134601,205.099911 73.1491408,203.275733 C72.2005985,202.128167 71.240628,200.900272 70.2806576,199.729756 C71.9173807,199.758665 73.5439706,199.4663 75.0690817,198.869082 C76.5694121,198.25665 77.7629971,197.066377 78.3832655,195.564094 C79.2262638,191.288488 77.8737894,186.873625 74.7833762,183.813026 C69.581792,177.594706 63.2725384,172.403381 56.1782341,168.504505 C50.6024669,165.460525 46.3447454,160.453492 44.224316,154.446831 C42.6481505,149.040118 42.5927753,143.300876 44.0643209,137.864513 C46.9841367,127.936989 51.4590339,118.539439 57.3210561,110.02458 C58.4638781,109.221284 57.7210438,111.504939 53.1040429,119.813312 C48.9670273,127.398718 41.2186942,144.922039 51.8240823,158.612493 C52.2198767,148.622751 54.4961026,138.798639 58.5324474,129.659421 C64.4065525,116.772264 76.7033172,94.4291681 77.6747159,76.6074797 C78.1775576,76.9632249 79.9603599,78.0993145 80.6803378,78.5239137 C82.834232,80.0031917 84.8846829,81.6288892 86.8172919,83.3895904 C89.4132705,85.5008055 92.6215352,86.7088982 95.9598679,86.8322861 L97.1026899,86.8322861 C100.757608,86.7964422 104.339348,85.7993631 107.490942,83.9404217 C109.946509,82.3326044 112.521652,80.9169198 115.193562,79.7059059 C119.469855,78.5844104 123.272726,76.1097289 126.038943,72.6483796 C130.519421,88.2514388 136.581414,103.352041 144.129815,117.713267 C149.513795,127.180863 153.370957,137.444766 155.558035,148.123746 C157.354044,148.107391 159.144452,148.327298 160.883586,148.777859 C164.787063,134.381443 160.421459,118.998638 149.546791,108.831112 C147.261147,106.685165 147.146865,105.732686 148.289687,105.778588 C156.559524,113.165612 162.51483,122.805409 165.432017,133.526716 C166.87754,139.024782 166.944288,144.796783 165.626297,150.327072 C166.327228,150.602487 167.039587,150.908505 167.763374,151.245124 C178.460188,156.328838 182.448637,160.735489 180.540124,166.74873 M125.99323,48.3314718 C126.064264,50.990741 125.520529,53.6303553 124.404707,56.0431103 C123.818932,57.3481194 123.049159,58.5616785 122.119063,59.6464652 L121.193378,59.256293 C120.050556,58.7972669 119.113442,58.4185704 118.233469,58.1087278 C117.353496,57.7988852 116.679231,57.5693721 115.947825,57.3398591 C116.462095,56.7316495 117.467778,56.0316347 117.833481,55.1480094 C118.393687,53.8211198 118.69997,52.4001412 118.73631,50.9593962 L118.73631,50.7643102 C118.775696,49.3839277 118.566636,48.0077404 118.119186,46.7019291 C117.748351,45.4983599 117.079968,44.408717 116.176389,43.534649 C115.45004,42.7777234 114.457131,42.3368876 113.41076,42.3067542 L113.319334,42.3067542 C112.327501,42.3226985 111.37282,42.6882827 110.622274,43.3395629 C109.654493,44.1483174 108.907312,45.1908138 108.450912,46.3691352 C107.889303,47.6995982 107.582991,49.1246024 107.548083,50.5692241 L107.548083,50.7528345 C107.524388,51.5603538 107.585678,52.3681282 107.730934,53.1627215 C105.696334,52.2663663 103.579779,51.5707308 101.411129,51.0856284 C101.311977,50.3241386 101.25095,49.5581315 101.228277,48.7904979 L101.228277,48.5724605 C101.153669,45.9140941 101.693484,43.2745216 102.805372,40.860822 C103.754983,38.5801531 105.298457,36.5982092 107.273806,35.1229957 C109.035738,33.7488588 111.20268,33.0020164 113.433616,33 L113.547898,33 C115.739531,33.000656 117.873658,33.7042623 119.63914,35.0082392 C121.63312,36.4320426 123.211448,38.3655952 124.210428,40.6083576 C125.337788,42.9365849 125.927646,45.4901691 125.936089,48.0790075 L125.936089,48.2855692 L125.99323,48.3314718 Z M92.3028375,51.1544823 L91.4342928,51.4184223 C90.0014222,51.8823318 88.6310924,52.5221605 87.3544182,53.3233807 C87.4511509,52.4654473 87.4511509,51.5992922 87.3544182,50.7413588 L87.3544182,50.5921754 C87.2381244,49.4543483 86.9530777,48.340373 86.5087299,47.2871874 C86.137233,46.3451398 85.5453357,45.5067466 84.7830687,44.8428734 C84.2657162,44.3534214 83.5852469,44.0751941 82.874556,44.0625291 L82.668848,44.0625291 C81.8791521,44.1414833 81.1622232,44.5600324 80.7031942,45.2100943 C80.0778793,45.9909075 79.6504415,46.9123347 79.4575182,47.895397 C79.174064,49.0545833 79.0928644,50.2543362 79.2175256,51.4413737 L79.2175256,51.5790815 C79.3124713,52.7280157 79.598319,53.8528791 80.0632139,54.9070207 C80.4322899,55.8471219 81.0247182,56.6823278 81.7888751,57.3398591 L82.1431499,57.6037991 C81.4117438,58.1546304 80.9203304,58.5448026 80.3146347,58.9694017 L78.9318201,59.9448322 C77.696538,58.7860173 76.7190286,57.3781928 76.0633369,55.8135973 C75.1058146,53.7488634 74.5658778,51.5138427 74.4748143,49.2380484 C74.2953638,46.9653929 74.5672844,44.6795813 75.2747897,42.513316 C75.8147722,40.6043065 76.8385406,38.8685385 78.2461269,37.4755045 C79.3772218,36.2594015 80.933984,35.5312684 82.5888505,35.444314 L82.9659818,35.444314 C84.4968551,35.4474371 85.9777272,35.9918646 87.1487103,36.9820514 C88.7145456,38.2072835 89.9355467,39.8209483 90.6914585,41.6641177 C91.6504488,43.7323889 92.1904207,45.9714557 92.279981,48.2511422 C92.3419708,49.2255796 92.3419708,50.2029962 92.279981,51.1774336 L92.3028375,51.1544823 Z" id="Shape" fill="#FFFFFF"></path>
                <path d="M111.528313,72.1074784 C106.754152,74.8810832 101.367909,76.5561928 95.7966223,77 C90.8545608,76.887608 86.0953309,75.1958127 82.2824614,72.1960309 C80.6570469,71.0116422 79.3334951,69.8383225 78.3350261,68.9749364 C76.6051206,67.7241333 76.8141025,65.9641539 77.5223189,66.0194991 C78.6833292,66.1523278 78.8923111,67.5913047 79.6469679,68.2333098 C80.6570469,69.107765 81.9689886,70.2368084 83.466692,71.3658519 C86.9421812,74.1139695 91.2831439,75.6727892 95.7966223,75.7934732 C101.027907,75.3264517 106.080583,73.7371122 110.576284,71.1444708 C112.936992,69.7804645 115.223275,68.3026752 117.426246,66.7168495 C119.07488,65.6099442 119.01683,64.2705887 120.375212,64.4144864 C121.733594,64.5583841 120.723515,65.8977396 118.819458,67.4252689 C116.573822,69.2327886 114.129138,70.8027094 111.528313,72.1074784 M100.080751,56.7104253 C100.278122,57.274947 101.241761,57.1863946 101.833876,57.4520519 C102.425992,57.7177092 102.739464,58.2047475 103.296749,58.2268856 C103.854034,58.2490237 104.666742,58.0497808 104.736402,57.5627424 C104.806063,57.0757041 103.807594,56.5111824 103.145818,56.2676632 C102.270845,55.9107789 101.280807,55.9107789 100.405834,56.2676632 C100.220072,56.3562156 100.0227,56.5775967 100.080751,56.7547015 L100.080751,56.7104253 Z M94.2756987,56.7104253 C94.089937,57.274947 93.1146883,57.1863946 92.5341831,57.4520519 C91.9536779,57.7177092 91.628595,58.2047475 91.07131,58.2268856 C90.514025,58.2490237 89.6897077,58.0497808 89.6200471,57.5627424 C89.5503864,57.0757041 90.5604655,56.5111824 91.2222414,56.2676632 C92.0972148,55.9107789 93.0872525,55.9107789 93.9622259,56.2676632 C94.1363774,56.3562156 94.3453593,56.5775967 94.2756987,56.7547015 L94.2756987,56.7104253 Z" id="Shape" fill="#20201F"></path>
            </g>
        </g>
    </g>
</svg>