<?xml version="1.0" encoding="UTF-8"?>
<svg width="240px" height="240px" viewBox="0 0 240 240" version="1.1" xmlns="http://www.w3.org/2000/svg" xmlns:xlink="http://www.w3.org/1999/xlink">
    <title>litecoin</title>
    <g id="Page-1" stroke="none" stroke-width="1" fill="none" fill-rule="evenodd">
        <g id="litecoin" fill-rule="nonzero">
            <circle id="Oval" fill="#FFFFFF" cx="120" cy="120" r="107"></circle>
            <path d="M119.999493,0 C53.7256028,0 0,53.72583 0,120 C0,186.27417 53.7256028,240 119.999493,240 C186.273382,240 239.999495,186.27417 239.999495,120 L239.999495,120 C240.091592,88.2664529 227.574288,57.7958557 205.200764,35.291461 C182.82724,12.7870663 152.43024,0.0923379636 120.696826,0 L119.999493,0 Z M122.033382,124.067797 L109.539488,166.198547 L176.367293,166.198547 C177.261335,166.167186 178.131169,166.492544 178.785165,167.102943 C179.439162,167.713342 179.823663,168.558702 179.853961,169.452785 L179.853961,170.556901 L174.042848,190.605327 C173.515126,192.558057 171.705556,193.88508 169.684513,193.801453 L67.4089159,193.801453 L84.5517006,135.399516 L65.3750262,141.210654 L69.7333613,127.845036 L88.9100357,122.033898 L113.026156,40.0968523 C113.572422,38.1569084 115.370068,36.8386287 117.384492,36.9007264 L143.243946,36.9007264 C144.137989,36.869365 145.007823,37.194723 145.661819,37.8051222 C146.315815,38.4155213 146.700316,39.2608809 146.730614,40.1549637 L146.730614,41.2590799 L126.391717,110.411622 L145.568392,104.600484 L141.500612,118.547215 L122.033382,124.067797 Z" id="Shape" fill="#345D9D"></path>
        </g>
    </g>
</svg>