<?xml version="1.0" encoding="UTF-8"?>
<svg width="240px" height="240px" viewBox="0 0 240 240" version="1.1" xmlns="http://www.w3.org/2000/svg" xmlns:xlink="http://www.w3.org/1999/xlink">
    <title>llamaindex</title>
    <defs>
        <linearGradient x1="23.3830074%" y1="8.41666667%" x2="91.7530674%" y2="80.3208333%" id="linearGradient-1">
            <stop stop-color="#F6DCD9" offset="6.2%"></stop>
            <stop stop-color="#FFA5EA" offset="32.6%"></stop>
            <stop stop-color="#45DFF8" offset="58.9%"></stop>
            <stop stop-color="#BC8DEB" offset="100%"></stop>
        </linearGradient>
    </defs>
    <g id="Page-1" stroke="none" stroke-width="1" fill="none" fill-rule="evenodd">
        <g id="llamaindex">
            <rect id="box" x="0" y="0" width="240" height="240"></rect>
            <path d="M158.722704,171.22 C137.775878,180.46 115.086821,176.67 106.355639,173.62 C106.355639,175.72 106.25551,182.19 105.875023,191.42 C105.494536,200.66 102.550766,206.49 101.118932,208.26 C101.279137,214.03 101.409304,226.63 100.648329,230.86 C99.9184709,234.281782 98.2710398,237.441075 95.8822256,240 L83.0257607,240 C84.1672225,234.23 88.5828775,230.54 90.6455191,229.42 C91.7869809,217.49 89.5441086,207.13 88.2624672,203.45 C87.0008515,207.94 83.8868634,218.35 81.6039398,224.13 C79.7343907,228.720764 77.3387128,233.079811 74.4647968,237.12 L64.942602,237.12 C64.4619865,231.34 67.6460642,229.42 69.698693,229.42 C70.6499112,227.65 72.9328349,222.11 74.4647968,214.02 C75.986746,205.95 73.8239761,190.78 72.5623604,184.21 L72.5623604,163.53 C57.3228435,155.35 51.6155343,147.17 47.8006487,138.03 C44.7567504,130.73 45.5778019,119.6 46.3788278,114.95 C45.4175968,113.19 42.6440447,108.7 41.612724,102.45 C40.1909031,93.79 40.9819161,87.54 41.612724,84.17 C40.6615057,83.21 38.7590693,78.3 38.7590693,66.37 C38.7590693,54.45 42.2535446,48.26 43.9957759,46.65 L43.9957759,41.36 C37.3272356,40.88 30.6687082,38 26.8538226,34.15 C23.0489498,30.3 25.9026044,24.53 28.2856563,22.61 C30.6687082,20.68 33.0417473,22.12 36.3760174,21.16 C39.7102875,20.2 42.5639422,19.24 43.985763,16.36 C45.1472505,14.03 42.8943653,4.48 41.6227368,0 C47.330046,0.77 50.9847265,5.77 52.0961498,8.18 L52.0961498,0 C59.2352928,3.37 72.0917577,11.54 76.3772461,29.34 C79.8016316,43.58 82.2447604,73.43 83.0357735,86.57 C101.28915,86.73 124.458823,83.97 145.405649,88.5 C164.440026,92.62 173.011003,101 183.0038,101 C193.006611,101 198.723933,95.23 205.853063,100.04 C213.002218,104.85 216.807091,118.32 215.855873,128.42 C215.094899,136.5 208.876935,139.16 205.863076,139.48 C202.058203,152.18 205.863076,164.33 208.236115,168.82 L208.236115,187.09 C209.347538,188.69 211.570385,193.64 211.570385,200.56 C211.570385,207.49 209.347538,212.1 208.236115,213.55 C210.138551,224.32 207.435089,235.35 205.853063,239.52 L193.006611,239.52 C194.52856,235.67 197.131894,234.71 198.243317,234.71 C200.526241,222.78 198.874125,211.78 197.762702,207.78 C190.533443,203.54 185.867468,196.08 184.435634,192.87 C184.595839,195.59 184.145262,203.16 181.101364,211.62 C178.057466,220.09 173.491618,225.09 171.589182,226.53 L171.589182,236.63 L158.732717,236.63 C158.732717,230.48 162.217179,229.26 163.969423,229.42 C166.19227,225.42 171.579169,219.32 171.579169,207.3 C171.579169,197.15 164.440026,192.38 159.203319,183.25 C156.720139,178.91 157.931691,173.47 158.732717,171.22 L158.722704,171.22 Z" id="Path" fill="url(#linearGradient-1)" fill-rule="nonzero"></path>
        </g>
    </g>
</svg>