<?xml version="1.0" encoding="UTF-8"?>
<svg width="240px" height="240px" viewBox="0 0 240 240" version="1.1" xmlns="http://www.w3.org/2000/svg" xmlns:xlink="http://www.w3.org/1999/xlink">
    <title>lmnr</title>
    <g id="Page-1" stroke="none" stroke-width="1" fill="none" fill-rule="evenodd">
        <g id="lmnr">
            <rect id="box" fill="#000000" x="0" y="0" width="240" height="240" rx="32"></rect>
            <path d="M48.9999431,185.792142 C47.7479101,189.808914 47.5775102,194.391156 50.4645801,197.451586 C53.6480771,200.826068 58.1615505,202.932555 63.1669666,202.932555 L128.640145,202.932555 C174.442486,202.932555 211.5727,165.802341 211.5727,120 C211.5727,74.1974412 174.442486,37.0674453 128.640145,37.0674453 L63.1669666,37.0674453 C57.5415642,37.0674453 52.5375448,39.7278343 49.3444537,43.859185 C46.9914171,46.9034645 47.2900768,51.0356882 48.4653119,54.6995611 C55.1777026,75.6258454 58.8020735,97.9353573 58.8020735,121.091218 C58.8020735,143.624429 55.3699534,165.356251 48.9999431,185.792142 Z" id="Path" fill="#FFFFFF"></path>
        </g>
    </g>
</svg>