<?xml version="1.0" encoding="UTF-8"?>
<svg width="240px" height="240px" viewBox="0 0 240 240" version="1.1" xmlns="http://www.w3.org/2000/svg" xmlns:xlink="http://www.w3.org/1999/xlink">
    <title>lua</title>
    <g id="Page-1" stroke="none" stroke-width="1" fill="none" fill-rule="evenodd">
        <g id="lua" fill-rule="nonzero">
            <path d="M209.874477,135.5 C209.874477,77.8229282 162.855637,31 104.937238,31 C47.01884,31 0,77.8229282 0,135.5 C0,193.177072 47.01884,240 104.937238,240 C162.855637,240 209.874477,193.177072 209.874477,135.5" id="Path" fill="#FFFFFF"></path>
            <path d="M178.74477,92.5 C178.74477,75.6674528 165.020131,62 148.117155,62 C131.214179,62 117.48954,75.6674528 117.48954,92.5 C117.48954,109.332547 131.214179,123 148.117155,123 C165.020131,123 178.74477,109.332547 178.74477,92.5" id="Path" fill="#000080"></path>
            <path d="M240,30.5 C240,13.6674528 226.275361,0 209.372385,0 C192.469409,0 178.74477,13.6674528 178.74477,30.5 C178.74477,47.3325472 192.469409,61 209.372385,61 C226.275361,61 240,47.3613208 240,30.5" id="Path" fill="#FFFFFF"></path>
            <g id="Group" transform="translate(33.1381, 119)" fill="#000080">
                <polygon id="Path" points="8.81935601 61.0889796 42.9616154 61.0889796 42.9616154 68.8265306 0 68.8265306 0 0 8.81935601 0"></polygon>
                <path d="M83.7402219,68.8265306 L83.7402219,61.9293878 C79.0831363,68.4497959 74.4551574,71 67.1493542,71 C57.4859014,71 51.3152629,65.7257143 51.3152629,57.4955102 L51.3152629,19.3583673 L59.174095,19.3583673 L59.174095,54.3946939 C59.174095,60.3355102 63.1617246,64.1318367 69.4196835,64.1318367 C77.6569038,64.1318367 82.9834455,57.5244898 82.9834455,47.4106122 L82.9834455,19.3583673 L90.8422776,19.3583673 L90.8422776,68.8265306 L83.7402219,68.8265306 Z" id="Path"></path>
                <path d="M148.619247,70.1595918 C146.05785,70.8261224 144.835365,71 143.205385,71 C138.082591,71 135.608514,68.7395918 135.055485,63.7261224 C129.466982,68.8265306 124.431508,71 118.173549,71 C108.131708,71 101.873749,65.3489796 101.873749,56.3653061 C101.873749,49.9318367 104.813535,45.4979592 110.605785,43.1506122 C113.632891,41.9334694 115.350191,41.5567347 126.527197,40.1367347 C132.785156,39.3832653 134.764417,37.9632653 134.764417,34.6595918 L134.764417,32.5730612 C134.764417,27.8493878 130.776787,25.2122449 123.674732,25.2122449 C116.281608,25.2122449 112.672367,27.9363265 112.002911,33.9930612 L104.027651,33.9930612 C104.231399,29.0955102 105.162816,26.2555102 107.433145,23.7053061 C110.751319,20.024898 116.71821,17.9383673 123.936693,17.9383673 C136.161543,17.9383673 142.623249,22.6620408 142.623249,31.4428571 L142.623249,60.5383673 C142.623249,63.0016327 144.136802,64.4216327 146.901947,64.4216327 C147.367655,64.4216327 147.746043,64.4216327 148.619247,64.2187755 L148.619247,70.1595918 L148.619247,70.1595918 Z M134.764417,44.3677551 C132.115699,45.584898 130.398399,45.9616327 122.044752,47.0918367 C113.603784,48.3089796 110.081863,50.975102 110.081863,56.162449 C110.081863,61.1759184 113.691104,64.1028571 119.861743,64.1028571 C124.518828,64.1028571 128.390031,62.5959184 131.620884,59.6689796 C133.978534,57.4955102 134.764417,55.9016327 134.764417,53.2355102 L134.764417,44.3677551 L134.764417,44.3677551 Z" id="Shape"></path>
            </g>
        </g>
    </g>
</svg>