<?xml version="1.0" encoding="UTF-8"?>
<svg width="240px" height="240px" viewBox="0 0 240 240" version="1.1" xmlns="http://www.w3.org/2000/svg" xmlns:xlink="http://www.w3.org/1999/xlink">
    <title>maestro</title>
    <g id="Page-1" stroke="none" stroke-width="1" fill="none" fill-rule="evenodd">
        <g id="maestro" transform="translate(0, 0)">
            <rect id="ViewBox" x="0" y="0" width="240" height="240"></rect>
            <g id="shape" transform="translate(0, 46)" fill-rule="nonzero">
                <polygon id="Path" fill="#6C6BBD" points="152.447812 132.482812 87.5521875 132.482812 87.5521875 15.8559375 152.447812 15.8559375"></polygon>
                <path d="M91.6715625,74.1721875 C91.6715625,50.5134375 102.748125,29.439375 119.998125,15.85875 C107.384063,5.9278125 91.4625,0 74.161875,0 C33.2025,0 0,33.2071875 0,74.1721875 C0,115.13625 33.2025,148.343437 74.161875,148.343437 C91.4634375,148.343437 107.384062,142.415625 119.998125,132.484688 C102.748125,118.904062 91.6715625,97.83 91.6715625,74.1721875" id="Path" fill="#D32011"></path>
                <path d="M240,74.1721875 C240,115.13625 206.7975,148.343437 165.838125,148.343437 C148.536563,148.343437 132.615937,142.415625 119.997187,132.484688 C137.251875,118.904062 148.328438,97.83 148.328438,74.1721875 C148.328438,50.5134375 137.251875,29.439375 119.997187,15.85875 C132.615937,5.9278125 148.5375,0 165.838125,0 C206.7975,0 240,33.2071875 240,74.1721875" id="Path" fill="#0099DF"></path>
            </g>
        </g>
    </g>
</svg>