<?xml version="1.0" encoding="UTF-8"?>
<svg width="240px" height="240px" viewBox="0 0 240 240" version="1.1" xmlns="http://www.w3.org/2000/svg" xmlns:xlink="http://www.w3.org/1999/xlink">
    <title>manus</title>
    <g id="Page-1" stroke="none" stroke-width="1" fill="none" fill-rule="evenodd">
        <g id="manus">
            <rect id="box" x="0" y="0" width="240" height="240"></rect>
            <g id="shape" transform="translate(26, 0)" fill="#FFFFFF">
                <path d="M31.717866,5.47337884 C31.2278002,3.95271048 31.782227,2.33560792 33.1696531,1.23893644 C34.5570792,0.142264961 36.5635279,-0.264840559 38.4236125,0.172915697 C40.2836971,0.610671953 41.710545,1.82577674 42.159866,3.35471217 C42.522116,4.54937884 42.918866,5.72537884 43.309866,6.90137884 L43.338616,6.97604551 C44.247116,9.68271217 45.149866,12.3893788 45.730616,15.2407122 C46.0438933,16.7804078 45.3212693,18.3387881 43.8349496,19.3288263 C42.3486298,20.3188646 40.3244216,20.5901504 38.5248246,20.040493 C36.7252275,19.4908356 35.4236433,18.2037411 35.110366,16.6640455 C34.621616,14.2513788 33.943116,12.2353788 33.120866,9.79004551 L33.120866,9.78071217 C32.689616,8.50204551 32.218116,7.10671217 31.717866,5.47337884 Z M6.55011603,12.8933788 C5.24313072,15.0584058 6.34461638,17.6734458 9.01111603,18.7360455 C12.846366,20.2620455 16.169866,21.7693788 19.464616,24.7793788 C21.4548374,26.5186046 24.7921241,26.649627 26.9798978,25.0744299 C29.1676715,23.4992329 29.405122,20.7943997 27.514616,18.9833788 C22.822616,14.6900455 17.992616,12.5853788 13.749116,10.8960455 C11.0814935,9.8353038 7.85939062,10.7292632 6.55011603,12.8933788 Z" id="Shape"></path>
                <path d="M126.855214,212.85217 C125.153327,212.492343 123.291261,212.102532 121.389152,211.682734 C114.381379,210.163467 104.870831,208.034495 100.395868,206.555209 L100.065502,206.445262 L99.7451462,206.32532 C97.7629477,205.585677 94.399217,204.766072 88.8330435,203.496685 L87.8018998,203.266796 C82.9965702,202.167327 77.0900192,200.827973 71.4838013,199.138788 C65.6973835,197.379637 58.5294334,194.770896 52.4326715,190.522947 C46.0455875,186.065098 38.7775264,178.20889 38.3770822,166.414582 C38.3206454,164.714975 38.3507174,163.013603 38.4671822,161.317042 C35.250553,157.824446 33.0069386,153.55113 31.959965,148.923024 C31.0121481,144.714729 31.1152869,140.338305 32.2602981,136.179174 C33.0912196,133.010704 34.3626298,130.24204 35.4238067,128.183034 C35.7842065,127.483371 36.1546173,126.783709 36.5250281,126.124027 C33.0211419,125.014563 29.0467339,123.645224 25.1824479,122.006015 C20.1468629,119.857052 12.988924,116.308764 7.64299474,110.601519 C4.1048726,106.911424 1.64664621,102.324274 0.535111315,97.3379203 C-0.650694763,91.6467979 0.147607223,85.7219589 2.79762069,80.5460246 C8.84432715,68.4718519 20.3871294,64.2039118 30.6485104,63.8340903 C39.9187922,63.5042494 49.7897402,66.093 58.6295445,69.1915046 C66.6784716,72.0101443 78.2012517,77.2576117 87.9921108,81.8254071 C91.2156861,76.537959 95.4704051,70.5708389 99.4948686,65.7531641 L100.295757,64.8036223 L101.216778,63.9640275 C106.901751,58.7849397 114.164506,55.6626995 121.839651,55.0983064 C125.393737,54.8339537 128.967435,55.103492 132.44141,55.8979205 L132.80181,55.9778819 L133.032065,56.0478481 L133.062098,56.0478481 L133.082121,56.0578433 C133.082121,56.0578433 133.102143,56.0578433 128.306824,73.9092277 L133.102143,56.0578433 L135.184452,56.6375635 L137.086562,57.6570715 C146.737266,62.8145823 149.480308,71.710289 150.201107,76.4080217 C150.646618,79.402288 150.619594,82.4477501 150.121019,85.4336657 L150.090985,85.6135788 L150.090985,85.6635547 L131.490355,81.9653396 L150.080974,85.6735499 L149.980863,86.2132894 L146.977532,98.1075489 C146.396888,101.02614 146.32681,102.695335 146.356844,103.57491 C146.341599,103.938333 146.395964,104.301321 146.517021,104.644394 L146.517021,104.654389 C146.647166,104.954244 146.947499,105.603931 148.058731,107.28312 C148.489209,107.942802 148.939708,108.592489 149.50033,109.422088 L150.080974,110.261683 C150.881863,111.441114 151.822906,112.830443 152.824017,114.379695 C159.060934,124.075016 159.671611,133.39052 159.631567,139.35764 L159.631567,139.617515 L162.01421,140.397139 L163.045353,140.716984 L164.577052,141.206748 C165.337896,141.446632 166.308973,141.766478 167.250017,142.106314 C168.351238,140.087288 171.324536,135.749382 176.710509,135.749382 C183.738304,135.749382 186.621502,145.614621 186.621502,145.614621 C189.374555,163.985754 176.81062,225.705966 158.650479,237.210414 C144.775089,246.006169 134.493686,232.942474 126.855214,212.85217 L126.855214,212.85217 Z M57.2580233,128.732768 C58.4393335,127.543342 61.9632419,125.034553 68.6306368,124.284915 C76.2577596,123.513681 83.9534313,124.772411 90.9353752,127.933154 C97.1722926,130.691823 101.477067,137.008774 103.279066,144.595113 C104.160043,148.303323 104.32022,151.901586 103.939799,154.840168 C103.539354,157.938673 102.658377,159.487925 102.247922,159.947703 C101.747367,160.527423 99.9653905,161.516946 95.0299165,160.477447 C92.3839694,159.896717 89.8164859,159.004225 87.3814335,157.818731 L87.3213669,157.788745 C82.7403761,155.507335 77.1733931,157.318808 74.8185825,161.857099 C72.463772,166.39539 74.1928144,171.980559 78.7018068,174.400728 L78.7118179,174.400728 L78.7418512,174.420718 L78.8219401,174.460699 L79.0622066,174.580641 C80.1770557,175.13005 81.3124714,175.63684 82.4659817,176.099907 C84.618369,176.959493 87.6717555,178.038972 91.1355973,178.768619 C97.2924259,180.067992 108.655028,181.06751 116.363578,172.251765 C120.067686,168.01381 121.849663,162.456492 122.520407,157.249005 C123.202499,151.580703 122.863456,145.836283 121.519296,140.287192 C118.83632,129.012633 111.748459,116.678586 98.5237916,110.821413 C88.5034513,106.319189 77.4666749,104.549906 66.5383162,105.693887 C60.3414432,106.39355 54.4148699,108.11272 49.6195514,110.731456 L49.4193293,110.671485 L49.3792849,110.671485 C37.5361496,107.293116 13.9800232,100.576357 19.7864632,88.9819532 C24.1913487,80.1861982 36.2347061,80.9158461 52.5728269,86.643082 C59.2101885,88.9619628 68.4304147,93.1099609 77.1300636,97.148012 C79.8330615,98.397409 82.4759928,99.646806 84.9787687,100.816242 L94.7295834,105.354052 C101.667278,97.038065 104.360265,92.4602744 106.742908,88.4122281 C108.374717,85.6335692 109.866372,83.1147848 112.47927,79.7963864 L112.729547,79.4765408 C113.209708,78.8711578 113.696948,78.2714062 114.191168,77.6774091 C114.257074,77.6197956 114.323821,77.5631502 114.391391,77.5074911 C120.818519,71.8402263 128.296813,73.9092277 128.296813,73.9092277 C132.571554,76.1881278 131.480344,81.9653396 131.480344,81.9653396 L128.517057,93.739657 C125.673904,107.592971 128.817391,112.180757 133.993131,119.727115 C134.89413,121.056473 135.875218,122.475788 136.896351,124.055026 C141.020926,130.481924 140.820704,136.648948 140.670537,141.696512 C140.570426,144.934949 140.480326,147.713608 141.571536,149.782609 C143.814023,154.030559 152.183306,156.67928 157.689413,158.398451 C159.010878,158.818248 160.162155,159.178074 161.02311,159.49792 L161.613765,159.727809 C160.832899,162.126651 160.132122,164.61545 159.431345,167.094254 C156.297869,178.118933 153.194427,189.103632 143.914135,192.382049 C137.587117,194.630964 131.270111,194.521017 126.795148,193.941297 C118.92642,192.242117 109.616094,190.153125 106.112208,188.993685 C102.478177,187.644336 97.3925369,186.494891 91.8563967,185.225503 C78.6817846,182.22695 62.9943856,178.668668 58.5094112,170.612556 C57.738136,169.245563 57.3088432,167.712854 57.2580233,166.144712 C56.9977346,158.748282 59.6006215,152.111485 59.6006215,152.111485 C59.6006215,152.111485 55.5661468,152.131475 52.7430157,149.412787 C51.5419648,148.241845 50.7132227,146.743444 50.360373,145.104867 C50.0600399,143.805494 49.9399067,142.306217 50.1100955,140.706989 C50.1901843,140.706989 50.2302287,140.627028 50.2302287,140.427124 C50.2302287,138.088253 52.5728269,133.410511 57.2580233,128.732768 L57.2580233,128.732768 Z" id="Shape"></path>
                <path d="M111.442911,6.35102493 C115.910029,9.01814758 117.336133,14.7411081 114.629347,19.1382061 C111.038284,24.9496565 108.954455,30.8904714 106.678429,39.8464738 C105.887962,43.1067474 103.377783,45.6978144 100.105434,46.6312778 C96.833085,47.5647411 93.3032454,46.6966368 90.8624196,44.3581148 C88.4215937,42.0195929 87.4462197,38.5713132 88.3083668,35.3286681 C90.7664753,25.6661367 93.4066659,17.6355879 98.444271,9.47567464 C101.15889,5.08478029 106.975736,3.68651049 111.442911,6.35102493 L111.442911,6.35102493 Z" id="Path"></path>
            </g>
        </g>
    </g>
</svg>