<?xml version="1.0" encoding="UTF-8"?>
<svg width="240px" height="241px" viewBox="0 0 240 241" version="1.1" xmlns="http://www.w3.org/2000/svg" xmlns:xlink="http://www.w3.org/1999/xlink">
    <title>mariadb</title>
    <g id="Page-1" stroke="none" stroke-width="1" fill="none" fill-rule="evenodd">
        <g id="mariadb" transform="translate(-750, 175.6263)">
            <rect id="box" x="750" y="-175" width="240" height="240"></rect>
            <g id="path" transform="translate(750, -134)" fill-rule="nonzero">
                <path d="M234.733615,0.00418302778 C231.024498,0.122422193 232.197518,1.18863854 224.182889,3.15633531 C216.089581,5.14335247 206.203462,4.53406126 197.488214,8.18055444 C171.471655,19.0657478 166.25178,56.2697944 142.600254,69.5970127 C124.921327,79.5594613 107.084921,80.3540471 91.0489487,85.367228 C80.5104604,88.6640767 68.9823204,95.4252265 59.4341511,103.634047 C52.022775,110.008044 51.8292624,115.612433 44.0855422,123.606879 C35.8026321,132.157914 11.1657793,123.751376 0,136.83888 C3.59691312,140.467278 5.17382919,141.483576 12.2622038,140.542177 C10.7946499,143.317188 2.14372018,145.655767 3.83715221,149.738001 C5.61900558,154.033385 26.5333269,156.945184 45.5453285,145.493774 C54.3994737,140.160695 61.4518392,132.473831 75.2415499,130.63898 C93.085976,128.266208 113.642448,132.160924 134.300328,135.132868 C131.237279,144.244473 125.087505,150.303898 120.161256,157.560694 C118.635738,159.199797 123.225292,159.383534 128.461183,158.392895 C137.87989,156.069389 144.667658,154.1986 151.776053,150.070882 C160.508744,144.999113 161.832075,131.996147 172.546725,129.182628 C178.516667,138.336842 194.753533,140.499248 204.828853,133.177195 C195.988055,130.680591 193.544649,111.906794 196.528927,103.634047 C199.355739,95.8033652 202.148893,83.277071 204.995686,72.925818 C208.052062,61.8089398 209.179624,47.7971327 212.878532,42.1343687 C218.443603,33.6146377 224.59279,30.6889374 229.931396,25.884739 C235.26999,21.0805406 240.156519,16.4040351 239.99616,5.41104168 C239.944508,1.87025803 238.109429,-0.103443906 234.733615,0.00418302778 L234.733615,0.00418302778 Z" id="Path" fill="#002B64"></path>
                <path d="M226.714573,6 C227.602819,9.01763419 228.992368,10.4025388 235,10.9565005 C234.122391,18.547633 229.041566,22.6996961 223.345086,26.6834503 C218.332077,30.1874577 212.840371,33.5615888 209.311319,39.0349437 C205.695836,44.6421506 203.400756,63.8320244 197.794695,82.7833501 C192.94923,99.1583556 185.631831,115.349149 172.853312,122.443306 C171.518282,119.094355 173.023514,112.913307 170.368082,110.881673 C168.650096,115.765283 166.707389,120.424924 164.432254,124.755898 C156.934015,139.039632 145.83226,149.73454 127.280137,153 C136.082822,141.128253 144.499891,128.868203 144.682061,108.406072 C138.486939,109.741942 138.61858,124.326511 132.253255,128.225449 C128.172373,128.668088 124.038302,128.665437 119.877638,128.416287 C102.790856,127.395831 85.2626092,122.277648 69.278157,127.389205 C58.394475,130.870683 49.4933918,139.083366 40.277167,143.06712 C29.4453437,147.749289 21.2423585,149.674903 7.75377327,147.749289 C6.0411059,145.449951 17.6255454,142.482676 16.9327662,137.490394 C11.6538147,136.908601 8.58883158,138.183508 4,136.105489 C4.50661977,135.175151 5.25125775,134.39987 6.18870379,133.754465 C14.5991239,127.952443 38.4887061,132.384138 44.8819551,126.12755 C48.8285364,122.268371 51.4174831,118.228956 54.0981798,114.302188 C56.6977642,110.492043 59.3851096,106.787921 63.4792888,103.449572 C64.9911698,102.217073 66.6346922,100.999152 68.3792726,99.8103869 C75.3562646,95.0513516 83.9874167,90.7349552 92.4816086,87.7597297 C104.052751,83.7057363 115.77814,83.3717689 128.111206,78.6750207 C135.730449,75.7726848 144.015876,72.1878362 150.769477,67.1716986 C152.373107,65.9789579 153.890307,64.7080263 155.293152,63.3456513 C174.577946,44.6090189 178.400865,11.558172 208.488229,8.47825027 C212.126317,8.1058501 215.104869,8.22644945 217.816148,8.14428286 C220.940969,8.05151413 223.706767,7.6897161 226.714573,6 Z M190.035647,111.781476 C190.394669,117.509283 193.730913,128.873451 196.676222,131.635309 C190.907937,133.033466 180.97101,130.723525 178.421954,126.668206 C179.731719,120.813174 186.547816,115.460418 190.035647,111.781476 Z" id="Shape" fill="#C49A6C"></path>
                <path d="M228.835594,12.3963984 C227.659117,14.7773767 225.406962,17.8472 225.406962,23.9082354 C225.397296,24.9488309 224.588123,25.6616588 224.574314,24.0574629 C224.635071,18.1336635 226.260323,15.5728127 227.986376,12.2071992 C228.788646,10.8281771 229.271941,11.397107 228.835594,12.3963984 Z M227.650832,11.4997009 C226.263085,13.7714234 222.921445,17.9151517 222.369108,23.9535366 C222.266926,24.9888025 221.394233,25.6296814 221.526795,24.0294828 C222.128842,18.1349959 224.799391,14.4456119 226.826468,11.2385527 C227.74611,9.93414438 228.178313,10.5417135 227.650832,11.4997009 Z M226.571012,10.3112103 C224.989947,12.4616855 219.846309,17.4381567 218.770633,23.4112545 C218.577315,24.4331965 217.65215,25.0034588 217.924177,23.4192489 C219.037136,17.5927138 223.471021,13.0132943 225.770124,9.98477514 C226.800232,8.75764528 227.177203,9.39852416 226.571012,10.3112103 Z M225.607185,8.98548374 L225.087019,9.51934682 C222.787149,11.89854 217.444297,17.7015488 215.663737,23.0128703 C215.321289,23.9988378 214.32294,24.4385261 214.824185,22.9062792 C216.773935,17.2889292 222.144031,11.2385527 224.861529,8.55245744 C226.061481,7.47721989 226.340412,8.16339999 225.607185,8.98548374 Z M198,21.0116227 C199.191667,16.0724584 203.172636,13.8220542 210.045089,14.3709982 C211.703481,21.7431041 202.422839,24.7169953 198,21.0116227 Z" id="Shape" fill="#002B64"></path>
            </g>
        </g>
    </g>
</svg>