<?xml version="1.0" encoding="UTF-8"?>
<!DOCTYPE svg PUBLIC "-//W3C//DTD SVG 1.1//EN" "http://www.w3.org/Graphics/SVG/1.1/DTD/svg11.dtd">
<svg xmlns="http://www.w3.org/2000/svg" version="1.1" width="180px" height="180px" style="shape-rendering:geometricPrecision; text-rendering:geometricPrecision; image-rendering:optimizeQuality; fill-rule:evenodd; clip-rule:evenodd" xmlns:xlink="http://www.w3.org/1999/xlink">
<g><path style="opacity:0.986" fill="#1f7464" d="M 68.5,-0.5 C 78.5,-0.5 88.5,-0.5 98.5,-0.5C 125.199,4.78691 147.365,17.7869 165,38.5C 172.919,51.5473 177.753,65.5473 179.5,80.5C 179.5,90.5 179.5,100.5 179.5,110.5C 168.179,153.286 140.179,175.786 95.5,178C 69.4621,181.084 47.1287,173.584 28.5,155.5C 2.55916,128.134 -5.27417,96.1343 5,59.5C 8.34132,49.0035 14.508,40.6701 23.5,34.5C 22.7261,33.2888 21.8928,33.2888 21,34.5C 20.3333,33.5 20.3333,32.5 21,31.5C 28.5525,25.6338 34.7192,19.1338 39.5,12C 48.5626,6.16809 58.2293,2.00143 68.5,-0.5 Z"/></g>
<g><path style="opacity:1" fill="#fcfdfd" d="M 72.5,18.5 C 99.2923,15.7233 121.459,24.39 139,44.5C 156.62,66.3153 162.62,90.982 157,118.5C 151.526,131.974 142.026,141.474 128.5,147C 124.91,148.53 121.243,149.864 117.5,151C 99.1476,152.749 81.1476,151.082 63.5,146C 52.2233,139.62 44.0567,130.453 39,118.5C 29.898,99.7667 28.2314,80.4334 34,60.5C 38.9478,47.5402 48.1145,39.7068 61.5,37C 62.9233,34.38 62.7566,31.88 61,29.5C 57.0721,31.2124 53.5721,33.5457 50.5,36.5C 48.1994,35.6042 45.8661,35.4375 43.5,36C 31.4033,44.781 24.2366,56.6143 22,71.5C 19.7415,73.2462 18.4082,75.5795 18,78.5C 18.8105,65.0153 23.4772,53.0153 32,42.5C 33.6374,40.1898 35.804,38.6898 38.5,38C 41.8522,34.251 45.1856,30.5843 48.5,27C 56.1907,22.9226 64.1907,20.0893 72.5,18.5 Z"/></g>
<g><path style="opacity:1" fill="#207463" d="M 55.5,115.5 C 55.5,99.1667 55.5,82.8333 55.5,66.5C 61.5,66.5 67.5,66.5 73.5,66.5C 73.2053,68.7354 73.5386,70.7354 74.5,72.5C 81.9209,63.0639 90.4209,62.0639 100,69.5C 100.667,70.8333 101.333,72.1667 102,73.5C 108.508,64.1034 117.008,61.9367 127.5,67C 130.825,69.8229 132.992,73.3229 134,77.5C 134.5,90.1623 134.667,102.829 134.5,115.5C 127.833,115.5 121.167,115.5 114.5,115.5C 114.667,104.828 114.5,94.1615 114,83.5C 111.127,80.8997 108.294,80.8997 105.5,83.5C 104.501,94.1459 104.168,104.813 104.5,115.5C 97.8333,115.5 91.1667,115.5 84.5,115.5C 84.6665,105.161 84.4998,94.828 84,84.5C 81.0485,80.5185 78.0485,80.5185 75,84.5C 74.5002,94.828 74.3335,105.161 74.5,115.5C 68.1667,115.5 61.8333,115.5 55.5,115.5 Z"/></g>
<g><path style="opacity:1" fill="#609d90" d="M 74.5,72.5 C 73.5386,70.7354 73.2053,68.7354 73.5,66.5C 67.5,66.5 61.5,66.5 55.5,66.5C 55.5,82.8333 55.5,99.1667 55.5,115.5C 54.5035,99.0084 54.1702,82.3417 54.5,65.5C 61.1667,65.5 67.8333,65.5 74.5,65.5C 74.5,67.8333 74.5,70.1667 74.5,72.5 Z"/></g>
<g><path style="opacity:1" fill="#dce9e7" d="M 25.5,110.5 C 28.9676,117.435 32.1343,124.435 35,131.5C 29.4266,125.622 26.2599,118.622 25.5,110.5 Z"/></g>
</svg>
