<?xml version="1.0" encoding="UTF-8"?>
<svg width="240px" height="240px" viewBox="0 0 240 240" version="1.1" xmlns="http://www.w3.org/2000/svg" xmlns:xlink="http://www.w3.org/1999/xlink">
    <title>markdown</title>
    <g id="Page-1" stroke="none" stroke-width="1" fill="none" fill-rule="evenodd">
        <g id="markdown">
            <rect id="ViewBox" x="0" y="0" width="240" height="240"></rect>
            <path d="M223.472813,194.02375 L17.2453125,194.02375 C7.9040625,194.02375 0,186.120625 0,176.778438 L0,63.2453125 C0,53.9040625 7.9040625,46 17.2453125,46 L222.754688,46 C232.095937,46 240,53.9040625 240,63.2453125 L240,176.778438 C240,186.119688 232.814063,194.02375 223.472813,194.02375 M17.2453125,57.4965625 C14.3709375,57.4965625 11.4965625,60.3709375 11.4965625,63.2453125 L11.4965625,176.778437 C11.4965625,180.370937 14.3709375,182.527188 17.2453125,182.527188 L222.754687,182.527188 C226.347188,182.527188 228.503438,179.652812 228.503438,176.778437 L228.503438,63.2453125 C228.503438,59.6528125 225.629063,57.4965625 222.754687,57.4965625 L17.2453125,57.4965625 Z M34.490625,159.533125 L34.490625,80.490625 L57.4846875,80.490625 L80.47875,109.234375 L103.472813,80.490625 L126.466875,80.490625 L126.466875,159.533125 L103.472813,159.533125 L103.472813,114.263125 L80.47875,143.006875 L57.4846875,114.263125 L57.4846875,159.533125 L34.490625,159.533125 Z M178.921875,159.533125 L144.43125,121.449063 L167.425312,121.449063 L167.425312,80.490625 L190.419375,80.490625 L190.419375,120.730937 L213.413437,120.730937 L178.921875,159.533125 Z" id="Shape" fill="#FFFFFF" fill-rule="nonzero"></path>
        </g>
    </g>
</svg>