<?xml version="1.0" encoding="UTF-8"?>
<svg width="242px" height="242px" viewBox="0 0 242 242" version="1.1" xmlns="http://www.w3.org/2000/svg" xmlns:xlink="http://www.w3.org/1999/xlink">
    <title>massivegrid</title>
    <g id="Page-1" stroke="none" stroke-width="1" fill="none" fill-rule="evenodd">
        <g id="massivegrid" transform="translate(0, 0)">
            <rect id="box" fill="#000000" x="0" y="0" width="242" height="242" rx="32"></rect>
            <g id="Group-2" transform="translate(36, 79)" fill-rule="nonzero">
                <path d="M19.1643122,85 L0,85 L0,22.5514466 L14.8908063,22.5514466 L17.0940234,30.354319 C19.7120218,27.5999492 22.7772644,25.3130453 26.1586073,23.5914507 C29.5822376,21.9088528 33.3524842,21.0609212 37.1633799,21.1164682 C46.0554397,21.1164682 52.1409196,24.2828924 55.4198195,30.6157408 C58.1317895,27.791585 61.3083019,25.4585762 64.8096537,23.7193201 C68.2907079,21.9884835 72.1256048,21.0972569 76.0095764,21.1164682 C81.7577636,20.474254 87.482235,22.511476 91.5464293,26.6457154 C95.6106236,30.7799549 97.5671668,36.5561275 96.8567053,42.322891 L96.8567053,84.9971585 L77.6923931,84.9971585 L77.6923931,44.2750299 C77.8077044,42.0040283 77.0686888,39.7725155 75.6221043,38.023639 C74.2057439,36.448559 72.1640409,35.5901225 70.0532539,35.682209 C67.8069387,35.7239507 65.5966959,36.2572872 63.5765309,37.2450567 C61.3644756,38.2582227 59.4473531,39.823381 58.0076805,41.7915228 L58.0076805,84.9829508 L38.84054,84.9829508 L38.84054,44.2750299 C38.9558514,42.0040283 38.2168357,39.7725155 36.7702513,38.023639 C35.3538908,36.448559 33.3121879,35.5901225 31.2014008,35.682209 C28.9248799,35.7383085 26.6984516,36.3654166 24.7246778,37.5064785 C22.5350742,38.6735306 20.6324946,40.3171007 19.1558274,42.3172079 L19.1643122,85 Z" id="Path_1278" fill="#FFB300"></path>
                <path d="M156.505904,1.2966746 C160.174509,2.04575344 163.74658,3.21484875 167.152906,4.78130819 L163.152881,17.7319603 C160.232118,16.2567883 157.129218,15.1825268 153.926606,14.5377129 C150.8465,13.9015598 147.71167,13.5744712 144.567843,13.5612183 C141.266893,13.541617 137.989226,14.1201627 134.890544,15.269372 C131.881173,16.3971517 129.16558,18.2021757 126.94969,20.547567 C124.544971,23.147862 122.718811,26.2375683 121.593771,29.6093225 C120.217498,33.8105142 119.562534,38.218415 119.657184,42.6425354 C119.657184,51.8532799 121.657666,58.9136486 125.658631,63.8236416 C129.946491,68.8646249 136.32235,71.5896851 142.890595,71.1886311 C144.529223,71.1982198 146.166998,71.1107641 147.795489,70.9267142 C148.94489,70.8303871 150.07461,70.5676811 151.149985,70.1466573 L151.149985,52.2907571 L138.377529,52.2907571 L138.377529,37.6917366 L170,37.6917366 L170,79.9201435 C166.176133,81.5439321 162.197627,82.7678541 158.126774,83.5727456 C153.068544,84.5709736 147.923023,85.0479069 142.769382,84.996207 C136.915553,85.0499209 131.093157,84.1264698 125.537419,82.263161 C120.411646,80.5379347 115.690508,77.7697256 111.665589,74.1295024 C107.642504,70.443243 104.467364,65.9120803 102.363204,60.854301 C100.029309,55.0975081 98.8876834,48.9189281 99.0087079,42.6994739 C98.897186,36.4392694 100.03814,30.2207514 102.363204,24.4165352 C104.442637,19.3071777 107.619966,14.7281595 111.665589,11.0103754 C115.697078,7.36376811 120.41496,4.5751984 125.537419,2.81123756 C131.080776,0.90134235 136.904099,-0.047735685 142.760925,0.00417161421 C147.374577,-0.0477662041 151.981053,0.385401725 156.505904,1.2966746 Z" id="Path_1285" fill="#FFFFFF"></path>
            </g>
        </g>
    </g>
</svg>