<?xml version="1.0" encoding="UTF-8"?>
<svg width="240px" height="240px" viewBox="0 0 240 240" version="1.1" xmlns="http://www.w3.org/2000/svg" xmlns:xlink="http://www.w3.org/1999/xlink">
    <title>mastercard</title>
    <g id="Page-1" stroke="none" stroke-width="1" fill="none" fill-rule="evenodd">
        <g id="mastercard">
            <rect id="ViewBox" x="0" y="0" width="240" height="240"></rect>
            <g id="shape" transform="translate(0, 46)" fill-rule="nonzero">
                <polygon id="Path" fill="#FF5F00" points="87.466875 15.8465625 152.295 15.8465625 152.295 132.331875 87.466875 132.331875"></polygon>
                <path d="M91.5834375,74.0896875 C91.5834375,50.4225 102.696562,29.43 119.777813,15.8465625 C107.224688,5.968125 91.378125,0 74.090625,0 C33.1340625,0 0,33.1340625 0,74.0896875 C0,115.045312 33.1340625,148.179375 74.0896875,148.179375 C91.3771875,148.179375 107.22375,142.21125 119.777813,132.331875 C102.696563,118.954688 91.5834375,97.756875 91.5834375,74.0896875" id="Path" fill="#EB001B"></path>
                <path d="M239.762813,74.0896875 C239.762813,115.044375 206.627813,148.179375 165.672188,148.179375 C148.384688,148.179375 132.538125,142.21125 119.984063,132.331875 C137.271563,118.749375 148.179375,97.756875 148.179375,74.0896875 C148.179375,50.4225 137.065313,29.43 119.984063,15.8465625 C132.537188,5.968125 148.384688,0 165.672188,0 C206.627813,0 239.762813,33.3403125 239.762813,74.0896875" id="Path" fill="#F79E1B"></path>
            </g>
        </g>
    </g>
</svg>