<?xml version="1.0" encoding="UTF-8"?>
<svg width="240px" height="241px" viewBox="0 0 240 241" version="1.1" xmlns="http://www.w3.org/2000/svg" xmlns:xlink="http://www.w3.org/1999/xlink">
    <title>matlab</title>
    <defs>
        <linearGradient x1="61.5877912%" y1="89.2216981%" x2="50.773325%" y2="43.7814465%" id="linearGradient-1">
            <stop stop-color="#551122" offset="0%"></stop>
            <stop stop-color="#552233" offset="23%"></stop>
            <stop stop-color="#553344" offset="36%"></stop>
            <stop stop-color="#664455" offset="51%"></stop>
            <stop stop-color="#556688" offset="66%"></stop>
            <stop stop-color="#2299DD" offset="84%"></stop>
        </linearGradient>
        <linearGradient x1="82.775728%" y1="61.7440945%" x2="24.7655899%" y2="44.3425197%" id="linearGradient-2">
            <stop stop-color="#CC3333" offset="8.1%"></stop>
            <stop stop-color="#DE5239" offset="18.9%"></stop>
            <stop stop-color="#F06E3E" offset="31.3%"></stop>
            <stop stop-color="#FA8042" offset="42.1%"></stop>
            <stop stop-color="#FE8643" offset="50%"></stop>
            <stop stop-color="#FA7F42" offset="58%"></stop>
            <stop stop-color="#EF6C3E" offset="69.6%"></stop>
            <stop stop-color="#DC4C37" offset="83.3%"></stop>
            <stop stop-color="#CF3633" offset="91.6%"></stop>
        </linearGradient>
    </defs>
    <g id="Page-1" stroke="none" stroke-width="1" fill="none" fill-rule="evenodd">
        <g id="matlab" transform="translate(-55, -280.3737)">
            <rect id="box" x="55" y="281" width="240" height="240"></rect>
            <g id="shape" transform="translate(55, 292)" fill-rule="nonzero">
                <path d="M0,122.168904 L68.3142857,94.5331845 C75.2485309,85.3576376 83.0566342,76.8783305 91.6285714,69.2147454 C97.2857143,66.2108628 107.914286,67.841542 127.371429,43.6388307 C146.228571,20.036896 152.228571,-0.132030041 161.057143,-0.132030041 C175.028571,-0.132030041 185.314286,30.0784464 200.914286,75.8232872 C212.037089,110.764373 225.085677,145.061245 240,178.556072 C223.714286,163.365009 209.828571,146.972392 193.971429,147.401518 C179.228571,147.744819 162.857143,165.253163 144.942857,187.73937 C130.714286,205.762666 111.857143,218.121497 104.485714,217.864022 C104.485714,217.864022 85.4571429,163.965785 69.5142857,155.211613 C62.8050127,152.46718 55.1889965,153.105329 49.0285714,156.928117 L0,122.083079 L0,122.168904 Z" id="Path" fill="#4499DD"></path>
                <path d="M152,5.86796996 C146.274669,13.5802341 139.353001,27.7193851 126.876907,43.4009888 C107.479145,67.5660832 96.9684639,65.9379385 91.2431333,68.9371523 C82.6565332,76.547123 74.8683259,85.0175292 68,94.2162404 L96.1993896,114.86797 C120.126144,82.1336932 132.944049,46.6572781 142.942014,23.6918693 C145.445506,17.5008329 148.476032,11.5375008 152,5.86796996 L152,5.86796996 Z" id="Path" fill="url(#linearGradient-1)"></path>
                <path d="M161.281071,-0.132030041 C142.628107,-0.132030041 129.879063,98.3971038 61,153.412064 C80.3374761,150.236474 97.1080306,198.385293 104.808795,217.86797 C139.034417,212.031749 166.414914,146.374269 194.052103,147.40419 C209.881453,148.004978 223.74283,163.36797 240,178.559309 C202.865201,100.285293 185.495698,-0.132030041 161.281071,-0.132030041 Z" id="Path" fill="url(#linearGradient-2)"></path>
            </g>
        </g>
    </g>
</svg>