<?xml version="1.0" encoding="UTF-8"?>
<svg width="240px" height="240px" viewBox="0 0 240 240" version="1.1" xmlns="http://www.w3.org/2000/svg" xmlns:xlink="http://www.w3.org/1999/xlink">
    <title>matrixone</title>
    <defs>
        <path d="M185.906074,-0.4327885 C156.134829,-0.424776306 131.987336,23.6074926 131.960733,53.2729505 L131.960733,53.2729505 L131.960733,54.7373332 C131.960733,60.440783 136.602031,65.0644354 142.326009,65.0644354 L142.326009,65.0644354 C148.051225,65.0644354 152.692523,60.440783 152.692523,54.7373332 L152.692523,54.7373332 L152.692523,53.2729505 C152.666538,44.5014466 156.171949,36.0843281 162.426131,29.908159 L162.426131,29.908159 C168.701349,23.6648106 177.218025,20.1739592 186.086726,20.2127875 L186.086726,20.2127875 L187.183637,20.2127875 C204.777508,20.2325098 219.035485,34.4344325 219.05652,51.9620322 L219.05652,51.9620322 L219.05652,57.1323628 L219.05652,57.1335957 C219.05652,75.3878396 204.201522,90.1863628 185.877615,90.1863628 L185.877615,90.1863628 L149.151847,90.1863628 C131.230697,90.166024 116.708546,75.699699 116.68813,57.8472972 L116.68813,57.8472972 L116.68813,15.8405946 C116.68813,12.2141522 115.236719,8.73747615 112.654371,6.18158614 L112.654371,6.18158614 C107.30036,0.881211381 98.6463385,0.908329578 93.3257362,6.24198576 L93.3257362,6.24198576 L67.5294759,32.0998023 C67.5102971,32.1189082 67.4917368,32.137398 67.4737952,32.1552713 L67.4737952,32.1552713 C62.3412698,37.2374678 54.0448421,37.2134312 48.9432506,32.0998023 L48.9432506,32.0998023 L23.1476093,6.25307956 C20.5819653,3.68178147 17.09264,2.23527223 13.4529768,2.23527223 L13.4529768,2.23527223 C5.90390819,2.23650488 -0.2135472,8.3331685 -0.2135472,15.8529211 L-0.2135472,15.8529211 L-0.2135472,101.241342 C-0.2135472,106.944176 4.4271317,111.567212 10.1517286,111.567212 L10.1517286,111.567212 L10.1535847,111.567212 C15.8788003,111.564746 20.5188605,106.940477 20.5170045,101.237028 L20.5170045,101.237028 L20.5170045,32.9059524 L34.2385905,46.6573433 C34.2874659,46.7060326 34.336341,46.7547222 34.3852164,46.8040279 L34.3852164,46.8040279 C47.637847,59.9249209 69.0588399,59.8595905 82.2304242,46.6573433 L82.2304242,46.6573433 L95.954485,32.9004056 L95.954485,57.8516114 C95.9878931,87.1047496 119.784597,110.810367 149.148754,110.843649 L149.148754,110.843649 L185.87514,110.843649 C215.649478,110.843649 239.786453,86.7978208 239.786453,57.1372934 L239.786453,57.1372934 L239.786453,51.9663465 C239.75057,23.0404758 216.219896,-0.399507077 187.183018,-0.4327885 L187.183018,-0.4327885 L185.906074,-0.4327885 Z" id="path-1"></path>
        <linearGradient x1="11.4628916%" y1="60.3129064%" x2="67.8629634%" y2="42.8470602%" id="linearGradient-3">
            <stop stop-color="#0049EF" offset="0%"></stop>
            <stop stop-color="#26FFF2" offset="100%"></stop>
        </linearGradient>
        <path d="M108.992774,19.9010633 L95.7864528,33.0678725 L95.7864528,50.5672115 L116.786453,50.5672115 L116.786453,23.0938465 C116.786453,21.8900204 116.302599,20.7353428 115.442693,19.88551 L115.442693,19.88551 C114.552704,19.0064369 113.388823,18.5672115 112.225568,18.5672115 L112.225568,18.5672115 C111.054793,18.5672115 109.884017,19.0120361 108.992774,19.9010633" id="path-4"></path>
        <linearGradient x1="48.5931402%" y1="97.4370241%" x2="51.4355287%" y2="15.5376557%" id="linearGradient-6">
            <stop stop-color="#005BFF" offset="0%"></stop>
            <stop stop-color="#003DD3" offset="100%"></stop>
        </linearGradient>
    </defs>
    <g id="Page-1" stroke="none" stroke-width="1" fill="none" fill-rule="evenodd">
        <g id="matrixone" transform="translate(-4, -1)">
            <rect id="box" opacity="0" fill-rule="nonzero" x="4" y="1" width="240" height="240"></rect>
            <g id="shape" transform="translate(4.2135, 65)">
                <path d="M45.7858438,67.5672115 C41.367115,67.5672115 37.7864528,72.4920198 37.7864528,78.5672115 C37.7864528,84.6424032 41.368333,89.5672115 45.7858438,89.5672115 C50.2033542,89.5672115 53.7864528,84.6399214 53.7864528,78.5672115 C53.7864528,72.4938813 50.2088356,67.5672115 45.7858438,67.5672115" id="Fill-7" fill="#004FFF" fill-rule="nonzero"></path>
                <path d="M73.7867572,67.5672115 C69.3685334,67.5672115 65.7864528,72.4926404 65.7864528,78.5672115 C65.7864528,84.6417829 69.3685334,89.5672115 73.7867572,89.5672115 C78.2049813,89.5672115 81.7864528,84.6417829 81.7864528,78.5672115 C81.7864528,72.4926404 78.2061993,67.5672115 73.7867572,67.5672115" id="Fill-9" fill="#004FFF" fill-rule="nonzero"></path>
                <mask id="mask-2" fill="white">
                    <use xlink:href="#path-1"></use>
                </mask>
                <g id="path-3"></g>
                <path d="M185.906074,-0.4327885 C156.134829,-0.424776306 131.987336,23.6074926 131.960733,53.2729505 L131.960733,53.2729505 L131.960733,54.7373332 C131.960733,60.440783 136.602031,65.0644354 142.326009,65.0644354 L142.326009,65.0644354 C148.051225,65.0644354 152.692523,60.440783 152.692523,54.7373332 L152.692523,54.7373332 L152.692523,53.2729505 C152.666538,44.5014466 156.171949,36.0843281 162.426131,29.908159 L162.426131,29.908159 C168.701349,23.6648106 177.218025,20.1739592 186.086726,20.2127875 L186.086726,20.2127875 L187.183637,20.2127875 C204.777508,20.2325098 219.035485,34.4344325 219.05652,51.9620322 L219.05652,51.9620322 L219.05652,57.1323628 L219.05652,57.1335957 C219.05652,75.3878396 204.201522,90.1863628 185.877615,90.1863628 L185.877615,90.1863628 L149.151847,90.1863628 C131.230697,90.166024 116.708546,75.699699 116.68813,57.8472972 L116.68813,57.8472972 L116.68813,15.8405946 C116.68813,12.2141522 115.236719,8.73747615 112.654371,6.18158614 L112.654371,6.18158614 C107.30036,0.881211381 98.6463385,0.908329578 93.3257362,6.24198576 L93.3257362,6.24198576 L67.5294759,32.0998023 C67.5102971,32.1189082 67.4917368,32.137398 67.4737952,32.1552713 L67.4737952,32.1552713 C62.3412698,37.2374678 54.0448421,37.2134312 48.9432506,32.0998023 L48.9432506,32.0998023 L23.1476093,6.25307956 C20.5819653,3.68178147 17.09264,2.23527223 13.4529768,2.23527223 L13.4529768,2.23527223 C5.90390819,2.23650488 -0.2135472,8.3331685 -0.2135472,15.8529211 L-0.2135472,15.8529211 L-0.2135472,101.241342 C-0.2135472,106.944176 4.4271317,111.567212 10.1517286,111.567212 L10.1517286,111.567212 L10.1535847,111.567212 C15.8788003,111.564746 20.5188605,106.940477 20.5170045,101.237028 L20.5170045,101.237028 L20.5170045,32.9059524 L34.2385905,46.6573433 C34.2874659,46.7060326 34.336341,46.7547222 34.3852164,46.8040279 L34.3852164,46.8040279 C47.637847,59.9249209 69.0588399,59.8595905 82.2304242,46.6573433 L82.2304242,46.6573433 L95.954485,32.9004056 L95.954485,57.8516114 C95.9878931,87.1047496 119.784597,110.810367 149.148754,110.843649 L149.148754,110.843649 L185.87514,110.843649 C215.649478,110.843649 239.786453,86.7978208 239.786453,57.1372934 L239.786453,57.1372934 L239.786453,51.9663465 C239.75057,23.0404758 216.219896,-0.399507077 187.183018,-0.4327885 L187.183018,-0.4327885 L185.906074,-0.4327885 Z" id="Fill-1" fill="url(#linearGradient-3)" fill-rule="nonzero" mask="url(#mask-2)"></path>
                <mask id="mask-5" fill="white">
                    <use xlink:href="#path-4"></use>
                </mask>
                <g id="path-6"></g>
                <path d="M1.12942505,19.88551 C0.270248682,20.7353428 -0.2135472,21.8900204 -0.2135472,23.0938465 L-0.2135472,23.0938465 L-0.2135472,50.5672115 L20.7864528,50.5672115 L20.7833194,33.0678725 L7.57920122,19.9010633 C6.68806427,19.0120361 5.51742861,18.5672115 4.34679299,18.5672115 L4.34679299,18.5672115 C3.18367751,18.5672115 2.01993534,19.0064369 1.12942505,19.88551" id="Fill-5" fill="url(#linearGradient-6)" fill-rule="nonzero" mask="url(#mask-5)"></path>
            </g>
        </g>
    </g>
</svg>