<?xml version="1.0" encoding="UTF-8"?>
<svg width="240px" height="240px" viewBox="0 0 240 240" version="1.1" xmlns="http://www.w3.org/2000/svg" xmlns:xlink="http://www.w3.org/1999/xlink">
    <title>maven</title>
    <defs>
        <linearGradient x1="2.49565369%" y1="7.49695246%" x2="86.6967989%" y2="-106.42401%" id="linearGradient-1">
            <stop stop-color="#F69923" offset="0%"></stop>
            <stop stop-color="#F79A23" offset="31.2%"></stop>
            <stop stop-color="#E97826" offset="83.8%"></stop>
        </linearGradient>
        <polygon id="path-2" points="0 0 240 0 240 240 0 240"></polygon>
        <polygon id="path-4" points="0 0 240 0 240 240 0 240"></polygon>
        <linearGradient x1="69.2265156%" y1="380.316486%" x2="42.5872744%" y2="-29.6582549%" id="linearGradient-6">
            <stop stop-color="#9E2064" offset="32.3%"></stop>
            <stop stop-color="#C92037" offset="63%"></stop>
            <stop stop-color="#CD2335" offset="75.1%"></stop>
            <stop stop-color="#E97826" offset="100%"></stop>
        </linearGradient>
        <linearGradient x1="55.8840829%" y1="125.587809%" x2="31.4994665%" y2="-141.57793%" id="linearGradient-7">
            <stop stop-color="#282662" offset="0%"></stop>
            <stop stop-color="#662E8D" offset="9.5%"></stop>
            <stop stop-color="#9F2064" offset="78.8%"></stop>
            <stop stop-color="#CD2032" offset="94.9%"></stop>
        </linearGradient>
        <linearGradient x1="57.1004186%" y1="160.374865%" x2="38.503081%" y2="-80.1301668%" id="linearGradient-8">
            <stop stop-color="#9E2064" offset="32.3%"></stop>
            <stop stop-color="#C92037" offset="63%"></stop>
            <stop stop-color="#CD2335" offset="75.1%"></stop>
            <stop stop-color="#E97826" offset="100%"></stop>
        </linearGradient>
        <linearGradient x1="48.6040359%" y1="55.9459836%" x2="34.3837951%" y2="-81.8741393%" id="linearGradient-9">
            <stop stop-color="#282662" offset="0%"></stop>
            <stop stop-color="#662E8D" offset="9.5%"></stop>
            <stop stop-color="#9F2064" offset="78.8%"></stop>
            <stop stop-color="#CD2032" offset="94.9%"></stop>
        </linearGradient>
        <linearGradient x1="56.627139%" y1="146.911951%" x2="42.5691078%" y2="-57.837653%" id="linearGradient-10">
            <stop stop-color="#9E2064" offset="32.3%"></stop>
            <stop stop-color="#C92037" offset="63%"></stop>
            <stop stop-color="#CD2335" offset="75.1%"></stop>
            <stop stop-color="#E97826" offset="100%"></stop>
        </linearGradient>
        <linearGradient x1="70.4043221%" y1="326.575398%" x2="44.1619936%" y2="-10.7989455%" id="linearGradient-11">
            <stop stop-color="#9E2064" offset="32.3%"></stop>
            <stop stop-color="#C92037" offset="63%"></stop>
            <stop stop-color="#CD2335" offset="75.1%"></stop>
            <stop stop-color="#E97826" offset="100%"></stop>
        </linearGradient>
        <polygon id="path-12" points="0 0 240 0 240 240 0 240"></polygon>
        <linearGradient x1="996.8256%" y1="5333.4572%" x2="-1033.182%" y2="-4904.842%" id="linearGradient-14">
            <stop stop-color="#9E2064" offset="32.3%"></stop>
            <stop stop-color="#C92037" offset="63%"></stop>
            <stop stop-color="#CD2335" offset="75.1%"></stop>
            <stop stop-color="#E97826" offset="100%"></stop>
        </linearGradient>
        <polygon id="path-15" points="0 0 240 0 240 240 0 240"></polygon>
        <linearGradient x1="1101.7664%" y1="5865.1948%" x2="-928.2412%" y2="-4373.1044%" id="linearGradient-17">
            <stop stop-color="#9E2064" offset="32.3%"></stop>
            <stop stop-color="#C92037" offset="63%"></stop>
            <stop stop-color="#CD2335" offset="75.1%"></stop>
            <stop stop-color="#E97826" offset="100%"></stop>
        </linearGradient>
        <linearGradient x1="-31.7876004%" y1="35.9981501%" x2="116.059491%" y2="20.0323845%" id="linearGradient-18">
            <stop stop-color="#F69923" offset="0%"></stop>
            <stop stop-color="#F79A23" offset="31.2%"></stop>
            <stop stop-color="#E97826" offset="83.8%"></stop>
        </linearGradient>
        <polygon id="path-19" points="0 0 240 0 240 240 0 240"></polygon>
        <polygon id="path-21" points="0 0 240 0 240 240 0 240"></polygon>
        <linearGradient x1="-132.689395%" y1="371.695589%" x2="42.8354841%" y2="-1.61462236%" id="linearGradient-23">
            <stop stop-color="#9E2064" offset="32.3%"></stop>
            <stop stop-color="#C92037" offset="63%"></stop>
            <stop stop-color="#CD2335" offset="75.1%"></stop>
            <stop stop-color="#E97826" offset="100%"></stop>
        </linearGradient>
        <linearGradient x1="-70.0456985%" y1="119.623976%" x2="103.172727%" y2="-76.223505%" id="linearGradient-24">
            <stop stop-color="#282662" offset="0%"></stop>
            <stop stop-color="#662E8D" offset="9.5%"></stop>
            <stop stop-color="#9F2064" offset="78.8%"></stop>
            <stop stop-color="#CD2032" offset="94.9%"></stop>
        </linearGradient>
        <linearGradient x1="-3.781173%" y1="157.893175%" x2="73.294164%" y2="-50.3884537%" id="linearGradient-25">
            <stop stop-color="#9E2064" offset="32.3%"></stop>
            <stop stop-color="#C92037" offset="63%"></stop>
            <stop stop-color="#CD2335" offset="75.1%"></stop>
            <stop stop-color="#E97826" offset="100%"></stop>
        </linearGradient>
        <linearGradient x1="31.5241147%" y1="66.6172347%" x2="64.3328936%" y2="-47.4675158%" id="linearGradient-26">
            <stop stop-color="#282662" offset="0%"></stop>
            <stop stop-color="#662E8D" offset="9.5%"></stop>
            <stop stop-color="#9F2064" offset="78.8%"></stop>
            <stop stop-color="#CD2032" offset="94.9%"></stop>
        </linearGradient>
        <linearGradient x1="-64.0582741%" y1="177.298941%" x2="97.1613349%" y2="-61.0895579%" id="linearGradient-27">
            <stop stop-color="#9E2064" offset="32.3%"></stop>
            <stop stop-color="#C92037" offset="63%"></stop>
            <stop stop-color="#CD2335" offset="75.1%"></stop>
            <stop stop-color="#E97826" offset="100%"></stop>
        </linearGradient>
        <linearGradient x1="-187.97247%" y1="270.404984%" x2="39.981209%" y2="21.4966416%" id="linearGradient-28">
            <stop stop-color="#9E2064" offset="32.3%"></stop>
            <stop stop-color="#C92037" offset="63%"></stop>
            <stop stop-color="#CD2335" offset="75.1%"></stop>
            <stop stop-color="#E97826" offset="100%"></stop>
        </linearGradient>
        <polygon id="path-29" points="0 0 240 0 240 240 0 240"></polygon>
        <linearGradient x1="-4829.3468%" y1="5778.04005%" x2="1701.982%" y2="-4107.21435%" id="linearGradient-31">
            <stop stop-color="#9E2064" offset="32.3%"></stop>
            <stop stop-color="#C92037" offset="63%"></stop>
            <stop stop-color="#CD2335" offset="75.1%"></stop>
            <stop stop-color="#E97826" offset="100%"></stop>
        </linearGradient>
    </defs>
    <g id="Page-1" stroke="none" stroke-width="1" fill="none" fill-rule="evenodd">
        <g id="maven">
            <rect id="ViewBox" x="0" y="0" width="240" height="240"></rect>
            <path d="M44.81625,18.999375 C42.880497,25.4616515 41.872306,32.1660901 41.821875,38.911875 L52.5225,44.0925 C52.3216535,37.730351 52.5710257,31.361963 53.26875,25.035 C53.31375,24.60375 53.356875,24.345 53.356875,24.345 C53.356875,24.579375 53.29125,24.800625 53.26875,25.035 C52.7695842,31.2916428 52.7620611,37.5778054 53.24625,43.835625 C58.7906093,39.1164279 64.0835115,34.109544 69.103125,28.835625 C66.9729574,23.1659698 62.6761717,18.5757616 57.159375,16.07625 C57.159375,16.07625 47.68125,12.253125 44.81625,18.999375" id="Path" fill="url(#linearGradient-1)" fill-rule="nonzero"></path>
            <path d="M81.928125,101.2125 C81.43125,101.761875 80.91,102.275625 80.383125,102.795 C80.655,102.545625 80.9325,102.253125 81.189375,101.983125 C81.450625,101.740625 81.696875,101.484375 81.928125,101.214375 L81.928125,101.2125 Z" id="deviconMaveni" fill="#BE202E" fill-rule="nonzero"></path>
            <g id="deviconMaven13-Clipped">
                <mask id="mask-3" fill="white">
                    <use xlink:href="#path-2"></use>
                </mask>
                <g id="deviconMavenh"></g>
                <g id="deviconMaven13" mask="url(#mask-3)" fill="#BE202E" fill-rule="nonzero">
                    <path d="M81.928125,101.2125 C81.43125,101.761875 80.91,102.275625 80.383125,102.795 C80.655,102.545625 80.9325,102.253125 81.189375,101.983125 C81.450625,101.740625 81.696875,101.484375 81.928125,101.214375 L81.928125,101.2125 Z" id="deviconMaveni"></path>
                </g>
            </g>
            <path d="M78.00375,92.67375 C78.09,92.59875 78.1575,92.5125 78.238125,92.446875 C78.575625,92.109375 78.91875,91.771875 79.19625,91.42875 C78.823125,91.8375 78.399375,92.235 77.99625,92.67375 L78.00375,92.67375 Z" id="deviconMavenj" fill="#BE202E" fill-rule="nonzero"></path>
            <g id="deviconMaven14-Clipped">
                <mask id="mask-5" fill="white">
                    <use xlink:href="#path-4"></use>
                </mask>
                <g id="deviconMavenh"></g>
                <g id="deviconMaven14" mask="url(#mask-5)" fill="#BE202E" fill-rule="nonzero">
                    <path d="M78.00375,92.67375 C78.09,92.59875 78.1575,92.5125 78.238125,92.446875 C78.575625,92.109375 78.91875,91.771875 79.19625,91.42875 C78.823125,91.8375 78.399375,92.235 77.99625,92.67375 L78.00375,92.67375 Z" id="deviconMavenj"></path>
                </g>
            </g>
            <path d="M55.35,75.688125 C54.8574712,72.1956024 54.4074379,68.6972187 54,65.19375 C53.5842479,61.6819433 53.2572686,58.1601951 53.019375,54.631875 C53.019375,54.418125 52.981875,54.20625 53.019375,54.0225 C52.7485986,50.7158259 52.5753983,47.4018854 52.5,44.085 L41.8125,38.93625 C41.8125,39.579375 41.74125,40.246875 41.71125,40.95 C41.608125,43.505625 41.5275,46.2 41.505,49.0875 C41.505,52.30875 41.505,55.670625 41.565,59.18625 C41.638125,62.43 41.776875,65.80875 41.945625,69.24375 C42.121875,72.18 42.31125,75.14625 42.553125,78.178125 L42.553125,78.523125 L56.85,85.760625 C56.37375,82.38375 55.85625,79.021875 55.35,75.688125" id="Path" fill="url(#linearGradient-6)" fill-rule="nonzero"></path>
            <path d="M76.5,160.21875 C77.25,162.883125 78.09,165.6375 78.961875,168.4275 L78.961875,168.538125 C79.08,168.946875 79.175625,169.329375 79.329375,169.7175 C79.899375,171.6 80.44125,173.26875 81.628125,177.099375 C84.496952,176.922608 87.3532487,177.60616 89.83125,179.0625 C87.8890059,176.674319 85.0838386,175.14778 82.02375,174.81375 C90.4224523,170.537418 95.7158678,161.914705 95.728125,152.49 C95.6442948,151.669878 95.526695,150.85356 95.375625,150.043125 C95.2000487,153.76192 92.9941331,157.08304 89.634375,158.686875 C93.0990834,153.429705 94.707399,147.165391 94.20375,140.889375 C94.0826027,139.334198 93.8968171,137.784734 93.646875,136.245 C92.7969215,144.319367 87.7407489,151.342384 80.353125,154.71 L76.018125,158.701875 C76.179375,159.19875 76.310625,159.695625 76.501875,160.216875 L76.5,160.21875 Z" id="Path" fill="url(#linearGradient-7)" fill-rule="nonzero"></path>
            <path d="M70.899375,148.014375 C69.99,144.624375 69.080625,141.181875 68.16,137.709375 C67.2891307,134.350298 66.4441057,130.984573 65.625,127.6125 C64.790625,124.205625 63.991875,120.778125 63.193125,117.35625 C62.401875,113.930625 61.618125,110.349375 60.886875,106.85625 C60.14625,103.36125 59.458125,99.875625 58.768125,96.403125 C58.520625,95.143125 58.299375,93.920625 58.074375,92.653125 C57.67875,90.515625 57.31875,88.35375 56.930625,86.184375 C56.9251307,86.0643449 56.9004429,85.94597 56.8575,85.83375 L42.64125,78.5775 C42.67625,78.8025 42.695625,79.03125 42.699375,79.26375 C42.98625,82.479375 43.25625,85.745625 43.644375,89.01375 C44.025,92.2725 44.435625,95.685 44.934375,99.069375 C45.3525,101.919375 45.80625,104.745 46.275,107.600625 C46.36875,108.165 46.486875,108.759375 46.5825,109.31625 C47.8359025,116.160223 49.4348219,122.936388 51.373125,129.61875 C51.988125,131.683125 52.595625,133.68375 53.218125,135.57375 C53.76,137.161875 54.345,138.759375 54.909375,140.334375 C56.2565353,143.992213 57.7572417,147.591657 59.4075,151.123125 L73.77,158.39625 C73.02,155.75375 72.27,153.070625 71.52,150.346875 C71.308125,149.563125 71.11875,148.8 70.899375,148.01625 L70.899375,148.014375 Z" id="Path" fill="url(#linearGradient-8)" fill-rule="nonzero"></path>
            <path d="M59.60625,151.56 C61.5506108,155.761719 63.7568245,159.837234 66.211875,163.7625 C66.290625,163.87875 66.37125,164.0475 66.459375,164.165625 C62.8961703,163.191012 59.1798274,162.90465 55.509375,163.321875 C62.1775294,165.174837 68.2547001,168.717162 73.153125,173.60625 C70.773884,175.687556 67.9025393,177.126778 64.81125,177.7875 C67.8827468,178.293584 71.032359,178.014292 73.966875,176.975625 C71.1471337,180.012097 69.2207017,183.768282 68.4,187.83 C70.4218464,183.830919 73.5614687,180.505004 77.4375,178.25625 C81.75375,192.553125 86.938125,208.05 92.69625,224.311875 C93.58875,223.155 93.838125,221.630625 93.369375,220.254375 C92.30625,217.33125 85.45875,197.99625 77.65125,171.74625 C77.431875,170.990625 77.233125,170.244375 76.985625,169.490625 C76.918125,169.276875 76.8675,169.0875 76.801875,168.860625 C75.9773614,166.033194 75.1617324,163.20318 74.355,160.370625 C74.173125,159.695625 73.981875,159.0675 73.798125,158.386875 L59.435625,151.111875 C59.480625,151.2675 59.53125,151.411875 59.604375,151.56 L59.60625,151.56 Z" id="Path" fill="url(#linearGradient-9)" fill-rule="nonzero"></path>
            <path d="M58.543125,86.06625 C58.63125,86.55 58.7175,86.975625 58.798125,87.465 C59.0775,88.88625 59.326875,90.33 59.619375,91.779375 C59.919375,93.361875 60.249375,94.9725 60.564375,96.628125 C60.718125,97.4625 60.879375,98.296875 61.05375,99.148125 C61.575,101.698125 62.139375,104.311875 62.716875,106.99875 C63.465,110.31 64.21125,113.709375 65.045625,117.245625 C65.80125,120.5925 66.67875,124.08 67.565625,127.62375 C68.43,131.008125 69.301875,134.473125 70.261875,138.061875 C71.10375,141.2325 72.005625,144.493125 72.920625,147.81 C72.920625,147.96375 73.029375,148.14 73.059375,148.30125 C74.0086961,151.686775 74.9730806,155.068059 75.9525,158.445 C75.9591025,158.521851 75.9814402,158.596523 76.018125,158.664375 L80.353125,154.6725 C80.244375,154.6725 80.16375,154.768125 80.015625,154.82625 C85.9070052,148.349196 89.6038436,140.177963 90.579375,131.476875 C91.0409519,127.142509 90.993756,122.76902 90.43875,118.445625 C89.9855594,114.689844 89.2909974,110.967142 88.359375,107.300625 C87.4371371,103.620523 86.373853,99.9772111 85.171875,96.37875 C84.2878701,98.1140983 83.174795,99.7228545 81.8625,101.161875 L81.11625,101.983125 C80.866875,102.260625 80.5875,102.5025 80.31,102.795 C83.7595349,97.173889 84.8789616,90.4284009 83.43,83.994375 C82.4615521,86.7120342 81.0073018,89.2310829 79.138125,91.42875 C78.853125,91.771875 78.515625,92.109375 78.178125,92.446875 C78.09,92.5125 78.024375,92.600625 77.908125,92.69625 C79.0932292,90.787469 80.0283732,88.7344372 80.690625,86.5875 C80.821875,86.169375 80.934375,85.74375 81.013125,85.3125 C81.166875,84.66 81.27,84 81.365625,83.34375 C81.403125,82.903125 81.474375,82.5 81.511875,82.06125 C81.5974091,81.0298954 81.5974091,79.9932296 81.511875,78.961875 C81.511875,78.61875 81.511875,78.31125 81.43125,77.986875 C81.343125,77.505 81.285,77.05875 81.196875,76.618125 C80.8843613,74.8556047 80.5103834,73.1045373 80.075625,71.368125 C79.884375,70.62 79.700625,69.931875 79.50375,69.309375 C79.415625,69.06 79.3725,68.818125 79.284375,68.55375 C79.05,67.873125 78.860625,67.243125 78.654375,66.72375 C78.4228361,66.1046008 78.1587173,65.4981289 77.863125,64.906875 C77.7934144,65.2042629 77.6876307,65.4920198 77.548125,65.76375 C76.2911331,68.3347543 74.6491017,70.6988495 72.67875,72.774375 L76.670625,69.118125 L72.64875,72.751875 C72.6153457,72.7732249 72.5917517,72.8069307 72.583125,72.845625 C72.3774215,73.0538445 72.181582,73.271583 71.99625,73.498125 C71.99625,73.4475 72.07125,73.404375 72.076875,73.359375 L58.426875,85.846875 C58.535625,85.940625 58.550625,86.015625 58.543125,86.06625" id="Path" fill="url(#linearGradient-10)" fill-rule="nonzero"></path>
            <path d="M53.24625,43.835625 C53.415,46.8375 53.6775,50.199375 54.001875,53.92125 C54.009375,54.110625 54.03,54.309375 54.0675,54.49875 C54.375,57.751875 54.770625,61.2525 55.2825,65.068125 C55.71375,68.364375 56.199375,71.821875 56.784375,75.571875 C57.268125,78.815625 57.868125,82.215 58.483125,85.824375 L72.136875,73.321875 C74.4566858,69.6240844 75.6478076,65.3300513 75.564375,60.965625 C75.564375,59.896875 75.48375,58.77 75.395625,57.613125 C75.1845262,54.0157549 74.788377,50.431637 74.20875,46.875 C73.7058225,43.6234949 73.0285968,40.4013528 72.18,37.2225 C71.7379285,35.5641102 71.2148003,33.928396 70.6125,32.32125 C70.146608,31.1739961 69.6463828,30.0409859 69.1125,28.92375 C64.0760271,34.1561515 58.7806433,39.1330112 53.24625,43.835625" id="Path" fill="url(#linearGradient-11)" fill-rule="nonzero"></path>
            <path d="M81.204375,101.99625 C80.955,102.275625 80.675625,102.5175 80.398125,102.81 C80.6528817,102.525234 80.9219805,102.253632 81.204375,101.99625" id="deviconMavenk" fill="#BE202E" fill-rule="nonzero"></path>
            <g id="deviconMaven15-Clipped">
                <mask id="mask-13" fill="white">
                    <use xlink:href="#path-12"></use>
                </mask>
                <g id="deviconMavenh"></g>
                <g id="deviconMaven15" mask="url(#mask-13)" fill="#BE202E" fill-rule="nonzero">
                    <path d="M81.204375,101.99625 C80.955,102.275625 80.675625,102.5175 80.398125,102.81 C80.6528817,102.525234 80.9219805,102.253632 81.204375,101.99625" id="deviconMavenk"></path>
                </g>
            </g>
            <path d="M81.204375,101.99625 C80.955,102.275625 80.675625,102.5175 80.398125,102.81 C80.6528817,102.525234 80.9219805,102.253632 81.204375,101.99625" id="Path" fill="url(#linearGradient-14)" fill-rule="nonzero"></path>
            <path d="M78.00375,92.69625 C78.09,92.62125 78.1575,92.535 78.26625,92.446875 C78.178125,92.5125 78.1125,92.600625 78.00375,92.69625" id="deviconMavenl" fill="#BE202E" fill-rule="nonzero"></path>
            <g id="deviconMaven16-Clipped">
                <mask id="mask-16" fill="white">
                    <use xlink:href="#path-15"></use>
                </mask>
                <g id="deviconMavenh"></g>
                <g id="deviconMaven16" mask="url(#mask-16)" fill="#BE202E" fill-rule="nonzero">
                    <path d="M78.00375,92.69625 C78.09,92.62125 78.1575,92.535 78.26625,92.446875 C78.178125,92.5125 78.1125,92.600625 78.00375,92.69625" id="deviconMavenl"></path>
                </g>
            </g>
            <path d="M78.00375,92.69625 C78.09,92.62125 78.1575,92.535 78.26625,92.446875 C78.178125,92.5125 78.1125,92.600625 78.00375,92.69625" id="Path" fill="url(#linearGradient-17)" fill-rule="nonzero"></path>
            <path d="M184.7025,21.680625 C178.022619,25.3569133 171.895266,29.9579507 166.501875,35.3475 L170.998125,48.024375 C175.889462,42.7400749 181.154952,37.8148395 186.75375,33.286875 C187.134375,32.97375 187.36875,32.79 187.36875,32.79 C187.17,32.97375 186.943125,33.105 186.75375,33.28875 C181.364391,37.9174822 176.348814,42.9644068 171.75375,48.3825 C179.956875,48.991875 188.188125,49.175625 196.41375,48.92625 C199.212105,42.6588268 199.401673,35.5355134 196.940625,29.128125 C196.940625,29.128125 192.35625,18.523125 184.7025,21.67875 L184.7025,21.680625 Z" id="Path" fill="url(#linearGradient-18)" fill-rule="nonzero"></path>
            <path d="M149.25375,117.34875 C148.41,117.391875 147.575625,117.391875 146.74875,117.391875 L148.036875,117.391875 C148.439375,117.399375 148.845,117.385 149.25375,117.34875" id="deviconMavenm" fill="#BE202E" fill-rule="nonzero"></path>
            <g id="deviconMaven17-Clipped">
                <mask id="mask-20" fill="white">
                    <use xlink:href="#path-19"></use>
                </mask>
                <g id="deviconMavenh"></g>
                <g id="deviconMaven17" mask="url(#mask-20)" fill="#BE202E" fill-rule="nonzero">
                    <path d="M149.25375,117.34875 C148.41,117.391875 147.575625,117.391875 146.74875,117.391875 L148.036875,117.391875 C148.439375,117.399375 148.845,117.385 149.25375,117.34875" id="deviconMavenm"></path>
                </g>
            </g>
            <path d="M152.878125,107.35875 L153.253125,107.35875 C153.793125,107.35875 154.336875,107.35875 154.846875,107.293125 C154.21125,107.293125 153.553125,107.293125 152.885625,107.33625 L152.878125,107.35875 Z" id="deviconMavenn" fill="#BE202E" fill-rule="nonzero"></path>
            <g id="deviconMaven18-Clipped">
                <mask id="mask-22" fill="white">
                    <use xlink:href="#path-21"></use>
                </mask>
                <g id="deviconMavenh"></g>
                <g id="deviconMaven18" mask="url(#mask-22)" fill="#BE202E" fill-rule="nonzero">
                    <path d="M152.878125,107.35875 L153.253125,107.35875 C153.793125,107.35875 154.336875,107.35875 154.846875,107.293125 C154.21125,107.293125 153.553125,107.293125 152.885625,107.33625 L152.878125,107.35875 Z" id="deviconMavenn"></path>
                </g>
            </g>
            <path d="M148.1325,75.680625 C150.519968,72.4777166 152.939465,69.298807 155.390625,66.144375 C157.853467,62.993324 160.388514,59.8993796 162.99375,56.865 C163.14,56.675625 163.30125,56.499375 163.44,56.345625 C165.877725,53.4998308 168.378342,50.7085178 170.94,47.97375 L166.44375,35.3325 C165.9075,35.83875 165.3375,36.335625 164.758125,36.87 C162.510853,38.9565165 160.301123,41.0831074 158.13,43.24875 C155.431367,45.9420572 152.769866,48.6723149 150.14625,51.43875 C147.551796,54.1985682 144.995306,56.9938309 142.4775,59.82375 C140.246654,62.3620982 138.042161,64.9234856 135.864375,67.5075 L135.6075,67.8 L141.358125,84.9825 C143.649375,81.885 145.891875,78.75 148.1325,75.6825 L148.1325,75.680625 Z" id="Path" fill="url(#linearGradient-23)" fill-rule="nonzero"></path>
            <path d="M97.97625,160.50375 C96.47625,163.27125 94.9725,166.12875 93.435,169.065 C93.435,169.1025 93.384375,169.138125 93.376875,169.175625 C93.15,169.606875 92.923125,169.9875 92.739375,170.413125 C91.69875,172.381875 90.82125,174.163125 88.7325,178.183125 C91.184884,180.319551 92.9426313,183.140305 93.78,186.283125 C94.1074658,182.820928 93.0632485,179.368481 90.871875,176.668125 C102.553125,178.92375 113.165625,177.421875 119.641875,169.584375 C120.204375,168.87375 120.76125,168.1275 121.295625,167.32875 C118.19873,170.183518 113.781764,171.101648 109.80375,169.7175 C116.772418,168.232554 123.044758,164.460834 127.62375,159.001875 C128.757529,157.647897 129.837735,156.249946 130.861875,154.81125 C123.765776,160.641391 114.113801,162.279894 105.49125,159.118125 L98.825625,158.88375 C98.540625,159.455625 98.24625,159.961875 97.97625,160.50375" id="Path" fill="url(#linearGradient-24)" fill-rule="nonzero"></path>
            <path d="M103.183125,146.25 C105.14625,142.7925 107.1525,139.306875 109.183125,135.74625 C111.14908,132.346346 113.151067,128.967406 115.18875,125.61 C117.245625,122.22 119.304375,118.813125 121.37625,115.415625 C123.505291,111.953232 125.674185,108.515503 127.8825,105.103125 C130.085625,101.68125 132.283125,98.356875 134.473125,95.01 C135.269681,93.8029983 136.082253,92.6066425 136.910625,91.42125 C138.29625,89.3775 139.7175,87.33375 141.136875,85.305 C141.196875,85.194375 141.290625,85.078125 141.350625,84.96 L135.673125,67.83 C135.521287,68.0386639 135.35527,68.2366315 135.17625,68.4225 C132.8475,71.2425 130.48125,74.0925 128.165625,77.04375 C125.859375,79.9875 123.500625,83.04375 121.215,86.169375 C119.289689,88.7943949 117.390222,91.4382726 115.516875,94.100625 C115.14375,94.629375 114.763125,95.199375 114.405,95.728125 C112.155,99.0975 109.9725,102.399375 108.054375,105.571875 C105.985794,108.953342 104.012517,112.392196 102.136875,115.884375 C101.023235,117.956543 99.9387535,120.044248 98.88375,122.146875 C98.056875,123.853125 97.258125,125.6025 96.466875,127.31625 C94.6456412,131.330312 92.9917191,135.418202 91.509375,139.569375 L97.288125,156.819375 C98.788125,154.08 100.335,151.355625 101.8725,148.56375 C102.283125,147.825 102.751875,147.06375 103.185,146.25 L103.183125,146.25 Z" id="Path" fill="url(#linearGradient-25)" fill-rule="nonzero"></path>
            <path d="M91.275,140.14125 C89.5090585,145.07352 88.0487902,150.109943 86.9025,155.221875 C86.9025,155.383125 86.806875,155.581875 86.784375,155.743125 C84.6916786,152.125448 81.9271266,148.940868 78.639375,146.360625 C82.5305991,153.153802 84.6096677,160.833442 84.676875,168.661875 C81.1058038,168.446322 77.6490061,167.322024 74.634375,165.395625 C76.7005524,168.243813 79.4551201,170.521653 82.640625,172.01625 C77.9616286,172.224324 73.4303191,173.717029 69.54375,176.330625 C74.3473092,174.721079 79.5152815,174.543232 84.418125,175.81875 C76.501875,190.738125 68.4,207.33375 60.110625,225 C61.7416012,224.780689 63.1518486,223.753324 63.860625,222.268125 C65.360625,219.075 75.19125,198.076875 89.758125,170.728125 C90.16875,169.98 90.6075,169.190625 91.018125,168.376875 L91.363125,167.724375 C92.908125,164.874375 94.49625,161.945625 96.144375,158.949375 C96.5325,158.255625 96.8925,157.595625 97.273125,156.905625 L97.273125,156.87 L91.494375,139.62 C91.406875,139.79 91.33375,139.96375 91.275,140.14125" id="Path" fill="url(#linearGradient-26)" fill-rule="nonzero"></path>
            <path d="M142.456875,86.58 C142.141875,87.02625 141.87,87.451875 141.556875,87.898125 C140.6475,89.266875 139.700625,90.6225 138.7875,92.023125 C137.765516,93.5823881 136.732364,95.134303 135.688125,96.67875 C135.16125,97.4775 134.626875,98.26875 134.085,99.103125 C132.4725,101.5725 130.854375,104.120625 129.178125,106.74375 C127.060045,110.089054 124.972459,113.453569 122.915625,116.836875 C120.820415,120.275438 118.747247,123.727384 116.69625,127.1925 C114.705,130.5975 112.66125,134.085 110.581875,137.69625 C108.735,140.9175 106.875,144.25875 104.956875,147.67875 C104.85375,147.825 104.780625,148.021875 104.6775,148.175625 C102.745186,151.665335 100.833901,155.166649 98.94375,158.679375 C98.8837448,158.746337 98.8406661,158.826707 98.818125,158.91375 L105.48375,159.140625 C105.365625,159.0825 105.24,159.065625 105.080625,159.001875 C114.971557,158.461471 124.439795,154.813936 132.136875,148.57875 C135.956405,145.464655 139.399671,141.915676 142.396875,138.00375 C145.005611,134.61343 147.400863,131.064073 149.56875,127.37625 C151.75265,123.681189 153.78986,119.901372 155.675625,116.045625 C153.58875,116.739375 151.419375,117.151875 149.22375,117.260625 L147.95625,117.32625 L146.668125,117.32625 C153.908774,115.538893 160.167073,110.998532 164.113125,104.67 C161.176002,106.091784 158.004013,106.965478 154.753125,107.248125 C154.246875,107.300625 153.706875,107.300625 153.165,107.30625 L152.7525,107.30625 C155.218158,106.711195 157.598397,105.805848 159.83625,104.611875 C160.275,104.385 160.708125,104.135625 161.11875,103.858125 C161.761875,103.455 162.36375,103.00875 162.96375,102.553125 C163.351875,102.238125 163.7175,101.953125 164.1,101.638125 C164.98375,100.870625 165.79875,100.033125 166.545,99.125625 C166.801875,98.833125 167.04375,98.57625 167.248125,98.26875 C167.563125,97.8225 167.870625,97.411875 168.1425,96.988125 C169.308621,95.3230046 170.408235,93.6122849 171.43875,91.86 C171.87875,91.11125 172.271875,90.405625 172.618125,89.743125 C172.741875,89.473125 172.895625,89.24625 173.026875,88.996875 C173.386875,88.24125 173.73,87.598125 173.979375,87.01125 C174.279375,86.33625 174.55125,85.6425 174.778125,84.93 C174.484464,85.1140099 174.169694,85.2619519 173.840625,85.370625 C170.787091,86.4398454 167.58857,87.037948 164.355,87.144375 L170.47875,87.37875 L164.355,87.144375 C164.31,87.121875 164.26875,87.121875 164.23125,87.144375 C163.908899,87.1305011 163.586101,87.1305011 163.26375,87.144375 C163.31625,87.144375 163.395,87.144375 163.44,87.084375 L142.515,86.330625 C142.5525,86.469375 142.5,86.5425 142.456875,86.58" id="Path" fill="url(#linearGradient-27)" fill-rule="nonzero"></path>
            <path d="M171.75375,48.391875 C169.23256,51.2548639 166.765867,54.1653867 164.355,57.121875 C164.2,57.284375 164.063125,57.4575 163.944375,57.64125 C161.414791,60.7560199 158.941268,63.915903 156.525,67.119375 C154.276875,70.115625 151.875,73.30125 149.37,76.794375 C147.18,79.790625 144.9675,83.011875 142.61625,86.39625 L163.54125,87.15 C168.348079,86.0197177 172.721355,83.5131633 176.12625,79.936875 C176.991724,79.013492 177.836312,78.0707534 178.659375,77.109375 C181.333613,74.0326011 183.854186,70.8255657 186.211875,67.5 C188.375805,64.4807996 190.377995,61.3488962 192.21,58.1175 C193.175072,56.4352242 194.052494,54.7041622 194.83875,52.93125 C195.418125,51.5625 195.9,50.266875 196.33875,48.999375 C188.1375,49.21125 179.9325,49.006875 171.75375,48.391875" id="Path" fill="url(#linearGradient-28)" fill-rule="nonzero"></path>
            <path d="M148.036875,117.414375 L146.74875,117.414375 C147.177866,117.393292 147.607759,117.393292 148.036875,117.414375" id="deviconMaveno" fill="#BE202E" fill-rule="nonzero"></path>
            <g id="deviconMaven19-Clipped">
                <mask id="mask-30" fill="white">
                    <use xlink:href="#path-29"></use>
                </mask>
                <g id="deviconMavenh"></g>
                <g id="deviconMaven19" mask="url(#mask-30)" fill="#BE202E" fill-rule="nonzero">
                    <path d="M148.036875,117.414375 L146.74875,117.414375 C147.177866,117.393292 147.607759,117.393292 148.036875,117.414375" id="deviconMaveno"></path>
                </g>
            </g>
            <path d="M148.036875,117.414375 L146.74875,117.414375 C147.177866,117.393292 147.607759,117.393292 148.036875,117.414375" id="Path" fill="url(#linearGradient-31)" fill-rule="nonzero"></path>
        </g>
    </g>
</svg>