<?xml version="1.0" encoding="UTF-8"?>
<svg width="240px" height="240px" viewBox="0 0 240 240" version="1.1" xmlns="http://www.w3.org/2000/svg" xmlns:xlink="http://www.w3.org/1999/xlink">
    <title>memcached</title>
    <defs>
        <linearGradient x1="50.000006%" y1="100%" x2="50.000006%" y2="-4e-06%" id="linearGradient-1">
            <stop stop-color="#574C4A" offset="0%"></stop>
            <stop stop-color="#80716D" offset="100%"></stop>
        </linearGradient>
        <linearGradient x1="88.778214%" y1="98.4240275%" x2="30.149499%" y2="-8.77931579%" id="linearGradient-2">
            <stop stop-color="#268D83" offset="0%"></stop>
            <stop stop-color="#2EA19E" offset="100%"></stop>
        </linearGradient>
        <radialGradient cx="41.406333%" cy="42.708333%" fx="41.406333%" fy="42.708333%" r="50%" gradientTransform="translate(0.4141, 0.4271), scale(1, 0.9992), translate(-0.4141, -0.4271)" id="radialGradient-3">
            <stop stop-color="#DB7C7C" offset="0%"></stop>
            <stop stop-color="#C83737" offset="100%"></stop>
        </radialGradient>
        <radialGradient cx="44.270833%" cy="42.708333%" fx="44.270833%" fy="42.708333%" r="50%" gradientTransform="translate(0.4427, 0.4271), scale(1, 0.9992), translate(-0.4427, -0.4271)" id="radialGradient-4">
            <stop stop-color="#DB7C7C" offset="0%"></stop>
            <stop stop-color="#C83737" offset="100%"></stop>
        </radialGradient>
    </defs>
    <g id="Page-1" stroke="none" stroke-width="1" fill="none" fill-rule="evenodd">
        <g id="memcached" transform="translate(0, -0.0129)" fill-rule="nonzero">
            <path d="M0,162.17502 L0,77.8506946 C0,9.74259458 9.71962497,0.0128695584 77.7575499,0.0128695584 L162.24275,0.0128695584 C230.280425,0.0128695584 240,9.74259458 240,77.8506946 L240,162.17502 C240,230.283144 230.280425,240.01287 162.24275,240.01287 L77.7575499,240.01287 C9.71962497,240.01287 0,230.283144 0,162.17502 L0,162.17502 Z" id="Path" fill="url(#linearGradient-1)"></path>
            <g id="Group" transform="translate(45, 45.0129)">
                <path d="M7.24425873,2.69664929e-14 C-4.56173222,74.8866682 1.61491921,144.999982 1.61491921,144.999982 L38.5183672,144.999982 C35.0069929,126.305396 22.4101073,40.8945034 32.8890277,40.6125151 C38.5049093,41.5046695 64.1631362,113.07338 64.1631362,113.07338 C64.1631362,113.07338 69.8138147,112.369117 75.5,112.369117 C81.1861864,112.369117 86.8368649,113.07338 86.8368649,113.07338 C86.8368649,113.07338 112.495095,41.504662 118.110973,40.6125151 C128.589916,40.8944833 115.992996,126.305419 112.481634,144.999982 L149.385082,144.999982 C149.385082,144.999982 155.561731,74.8866458 143.755743,2.69664929e-14 L109.588778,2.69664929e-14 C103.085526,0.0769819267 78.3431222,43.5078196 75.5,43.5078196 C72.6568788,43.5078196 47.9144754,0.0769819267 41.4112222,2.69664929e-14 L7.24425873,2.69664929e-14 Z" id="Path" fill="url(#linearGradient-2)"></path>
                <path d="M68.2216559,136.258599 C68.2216559,141.086341 64.3113087,145 59.487651,145 C54.6639931,145 50.7536459,141.086341 50.7536459,136.258599 C50.7536459,131.430857 54.6639931,127.517199 59.487651,127.517199 C64.3113087,127.517199 68.2216559,131.430857 68.2216559,136.258599 Z" id="Path" fill="url(#radialGradient-3)"></path>
                <path d="M100.246341,136.258599 C100.246341,141.086341 96.3359942,145 91.5123361,145 C86.6886783,145 82.7783311,141.086341 82.7783311,136.258599 C82.7783311,131.430857 86.6886783,127.517199 91.5123361,127.517199 C96.3359942,127.517199 100.246341,131.430857 100.246341,136.258599 Z" id="Path" fill="url(#radialGradient-4)"></path>
                <path d="M142.016276,2.47567381 C147.342,38.5546491 148.591547,73.1808563 148.493529,98.9735488 C148.393272,125.355671 146.883153,142.495934 146.883153,142.495934 L115.820097,142.495934 L112.481634,144.999982 L149.385082,144.999982 C149.385082,144.999982 155.561731,74.8866458 143.755743,2.69664929e-14 L142.016276,2.47567381 Z M44.225892,1.56502948 C53.9204904,12.3579961 70.6880361,41.0037725 72.9980718,41.0037725 C66.8510508,33.1355279 51.7520413,8.03422784 44.225892,1.56502948 L44.225892,1.56502948 Z M30.387099,38.1084679 C19.9081861,38.3904662 32.5050767,123.801342 36.0164386,142.495934 L3.80153733,142.495934 L1.61491921,144.999982 L38.5183672,144.999982 C35.0247866,126.400132 22.5387089,41.7476147 32.7326571,40.6125151 C31.7833878,39.1856464 30.9635034,38.2000359 30.387099,38.1084679 L30.387099,38.1084679 Z M115.609045,38.1084679 C109.993165,39.0006148 84.3349361,110.569333 84.3349361,110.569333 C84.3349361,110.569333 78.6842576,109.86507 72.9980718,109.86507 C69.6336607,109.86507 66.7372229,110.072555 64.7786006,110.255225 L64.1631362,113.07338 C64.1631362,113.07338 69.8138147,112.369117 75.5000005,112.369117 C81.1861864,112.369117 86.8368649,113.07338 86.8368649,113.07338 C86.8368649,113.07338 112.301878,41.9741609 118.032788,40.6125151 C117.415244,39.0468471 116.652262,38.1365483 115.609045,38.1084679 Z" id="Shape" fill="#000000" opacity="0.1"></path>
                <path d="M7.24425873,0 C-4.56173222,74.8866682 1.61491921,144.999982 1.61491921,144.999982 L3.78786929,142.555498 C2.67594213,126.013827 -0.294785432,66.1950103 9.74618745,2.50404717 L43.9131509,2.50404717 C44.6369514,2.51256093 45.6074896,3.10608021 46.7278207,4.06907666 C44.4906061,1.57839108 42.6305822,0.0144333315 41.4112222,0 L7.24425873,0 Z M109.588778,0 C103.085526,0.0769744122 78.3431222,43.5078196 75.5000005,43.5078196 C76.6594193,44.9918833 77.6009826,46.0118668 78.0019292,46.0118668 C80.8450509,46.0118668 105.587454,2.5809715 112.090708,2.50404717 L142.242368,2.50404717 L143.755743,0 L109.588778,0 Z M35.2345858,43.1165623 C43.5339887,55.5916025 64.1631362,113.07338 64.1631362,113.07338 L64.7667615,110.270443 C59.6735102,96.2926381 40.266775,43.8911416 35.3909563,43.1165623 C35.337853,43.1179921 35.2865084,43.1107804 35.2345858,43.1165623 L35.2345858,43.1165623 Z M120.612902,43.1165623 C126.179749,57.3269398 115.64186,128.174875 112.481634,144.999982 L115.829304,142.384815 C120.102529,117.292479 130.392293,43.3797877 120.612902,43.1165623 Z" id="Shape" fill="#FFFFFF" opacity="0.3"></path>
            </g>
        </g>
    </g>
</svg>