<?xml version="1.0" encoding="UTF-8"?>
<svg width="240px" height="240px" viewBox="0 0 240 240" version="1.1" xmlns="http://www.w3.org/2000/svg" xmlns:xlink="http://www.w3.org/1999/xlink">
    <title>mercurial</title>
    <g id="Page-1" stroke="none" stroke-width="1" fill="none" fill-rule="evenodd">
        <g id="mercurial">
            <rect id="ViewBox" x="0" y="0" width="240" height="240"></rect>
            <path d="M223.21875,181.47 C265.981875,110.3625 214.185,-4.963125 119.475,6.75375 C33.9,17.330625 32.52375,107.40375 107.938125,128.7975 C173.20125,147.33375 121.419375,188.73 122.9325,216.29625 C124.455,243.85875 179.67,253.85625 223.216875,181.47" id="Path" fill="#1B1B1B" fill-rule="nonzero"></path>
            <path d="M103.850625,190.7775 C103.850625,211.285517 87.2261418,227.91084 66.718125,227.911875 C46.209376,227.911875 29.58375,211.286249 29.58375,190.7775 C29.5847855,170.269483 46.2101082,153.645 66.718125,153.645 C87.2254096,153.646035 103.84959,170.270215 103.850625,190.7775 M48.594375,112.275 C48.5923043,125.693323 37.7145729,136.570215 24.29625,136.57125 C10.8779272,136.569179 0.00103520465,125.691448 0,112.273125 C0.00207045612,98.8555344 10.8786594,87.9789455 24.29625,87.976875 C37.7145729,87.9779102 48.5923043,98.8548022 48.594375,112.273125 L48.594375,112.275 Z" id="Shape" fill="#1B1B1B" fill-rule="nonzero"></path>
            <path d="M224.835,178.58625 C267.6,107.47875 215.80125,-7.846875 121.09125,3.87 C35.51625,14.446875 34.14,104.52 109.554375,125.91375 C174.8175,144.45 123.035625,185.84625 124.550625,213.4125 C126.07125,240.975 181.288125,250.9725 224.835,178.58625" id="Path" fill="#BFBFBF" fill-rule="nonzero"></path>
            <path d="M105.46875,187.89375 C105.46875,208.402499 88.843124,225.028125 68.334375,225.028125 C47.8263582,225.02709 31.201875,208.401767 31.201875,187.89375 C31.2029104,167.386465 47.8270904,150.762285 68.334375,150.76125 C88.8423918,150.76125 105.467715,167.385733 105.46875,187.89375 M50.210625,109.389375 C50.2095896,122.80843 39.331555,133.686465 25.9125,133.6875 C12.4934451,133.685429 1.61625,122.806555 1.61625,109.3875 C1.61832069,95.9691772 12.4960521,85.0922852 25.914375,85.09125 C39.3319656,85.0933205 50.2085545,95.9699094 50.210625,109.3875 L50.210625,109.389375 Z" id="Shape" fill="#BFBFBF" fill-rule="nonzero"></path>
            <path d="M135.525,224.296875 C132.931875,220.09125 136.89375,215.4225 140.97,215.77875 C147.455625,216.345 161.5725,215.7 172.71375,209.385 C200.54625,193.606875 243.3825,117.688125 221.83875,69.804375 C212.19375,48.37125 207.496875,42.2325 197.565,31.7475 C195.54,29.61 196.7025,29.72625 198.073125,30.448125 C203.445,33.26625 212.88375,44.184375 222.564375,61.955625 C238.92,91.98 238.0725,127.674375 231.99,150.06375 C227.7525,165.639375 213.155625,200.878125 191.77875,216.1125 C170.356875,231.3825 145.288125,240.140625 135.523125,224.296875 M116.13,125.769375 C101.548125,121.44375 82.75125,115.415625 71.878125,101.191875 C63.860625,90.705 59.79375,79.261875 58.753125,72.770625 C58.38375,70.455 58.06875,68.525625 58.738125,67.989375 C59.04375,67.745625 64.72125,80.574375 73.2075,91.329375 C81.69375,102.084375 93.55125,108.376875 103.4325,110.6625 C112.21875,112.693125 130.42125,117.159375 136.57875,122.40375 C142.910625,127.798125 143.44125,139.4475 141.309375,140.76375 C139.15875,142.085625 134.803125,131.311875 116.128125,125.769375 M46.235625,214.95 C75.110625,241.70625 118.573125,204.9525 99.436875,172.48875 C97.28625,168.84375 94.49625,166.070625 95.413125,168.860625 C101.53125,187.528125 95.878125,202.295625 85.333125,209.9025 C74.9925,217.365 60.781875,218.611875 49.4025,212.715 C46.06125,210.980625 44.6775,213.50625 46.23375,214.95 M12.549375,127.861875 C12.699375,129.579375 15.04875,131.7825 18.7425,132.795 C21.915,133.666875 30.095625,135.88875 40.605,129.255 C51.10875,122.625 52.32,104.885625 47.54625,99.6675 C46.066875,97.02375 44.143125,95.101875 45.673125,99.31875 C49.5375,109.96875 42.03,119.930625 35.55375,124.543125 C29.083125,129.155625 20.8725,126.973125 17.518125,125.95125 C14.169375,124.9275 12.399375,126.088125 12.549375,127.861875" id="Shape" fill="#000000" fill-rule="nonzero"></path>
            <path d="M146.1975,226.35 C145.91625,229.6875 149.74875,230.341875 154.90875,229.569375 C161.52375,228.575625 167.11875,227.833125 174.73125,224.019375 C185.049375,218.84625 195.49125,211.45125 203.135625,201.4725 C225.954375,171.703125 234.031875,136.48125 232.78875,131.416875 C232.3725,135.598125 226.86375,157.56375 214.2675,177.36375 C198.08625,202.8 186.35625,216.345 159.3,222.913125 C151.768125,224.74125 146.56875,221.956875 146.1975,226.35 M86.18625,110.593125 C89.266875,113.20875 95.58,116.690625 108.005625,120.766875 C123.01125,125.686875 130.318125,129.9525 133.378125,131.994375 C136.62,134.1675 138.673125,139.0125 138.875625,134.7075 C139.089375,130.400625 136.434375,126.699375 130.51125,124.7325 C126.5025,123.40125 119.76,120.2325 113.295,118.9575 C107.665113,117.806712 102.091105,116.397725 96.590625,114.735 C93.414375,113.76 90.178125,112.051875 86.18625,110.593125 M68.889375,220.44375 C72.56625,219.67125 93.950625,214.1325 98.971875,196.545 C100.535625,191.0625 100.816875,192.163125 100.374375,195.135 C98.11875,210.3 83.78625,221.484375 71.589375,221.900625 C69.114375,222.155625 65.865,221.075625 68.889375,220.44375 M26.1075,130.245 C27.07125,129.376875 31.948125,129.733125 36.34875,127.363125 C40.749375,124.996875 45.975,119.810625 46.910625,112.438125 C47.46,108.106875 47.623125,109.194375 47.844375,111.553125 C47.161875,123.808125 35.889375,130.580625 29.445,131.473125 C27.705,131.713125 24.645,131.566875 26.1075,130.245" id="Shape" fill="#FFFFFF" fill-rule="nonzero"></path>
            <path d="M218.91,132.39 C237.118125,79.906875 199.01625,0.645 121.93125,10.18125 C52.280625,18.79125 51.155625,92.1 112.5375,109.51875 C182.071875,120.046875 140.203125,172.5 134.265,198.950625 C128.94,222.66 190.453125,226.561875 218.911875,132.391875 M44.7375,207.405 C49.096875,207.48 51.735,208.093125 56.150625,211.190625 C64.880625,214.816875 80.92875,212.521875 88.336875,202.764375 C95.746875,193.010625 95.98875,179.570625 93.166875,171.448125 C86.26125,151.573125 56.92125,151.92375 43.816875,168.425625 C29.63625,186.853125 40.37625,207.331875 44.7375,207.403125 M5.79,115.295625 C6.658125,118.035 8.88,122.030625 13.57125,122.694375 C19.83375,123.583125 21.114375,126.414375 28.51125,124.944375 C35.90625,123.47625 41.5125,117.41625 43.755,110.713125 C46.32375,101.435625 42.48,96.64875 36.691875,92.37 C30.90375,88.095 18.1725,88.55625 10.573125,95.480625 C5.173125,100.400625 3.673125,108.631875 5.791875,115.295625" id="Shape" fill="#999999" fill-rule="nonzero"></path>
            <path d="M171.26625,173.385 C152.43,171.058125 125.325,213.585 150.883125,208.605 C176.439375,203.626875 125.325,213.585 150.883125,208.605 C163.16625,206.7825 173.345625,202.44375 182.454375,192.045 C194.334375,178.48875 212.079375,149.206875 217.213125,130.288125 C221.535,114.335625 219.361875,89.619375 214.905,112.84125 C210.33375,136.674375 190.104375,175.7175 171.26625,173.385 M73.05375,208.8225 C77.90625,207.55125 92.76,201.51 89.96625,179.91375 C88.55625,168.976875 82.591875,193.48875 71.5425,197.15625 C54.80625,202.71 56.686875,213.10875 73.055625,208.820625 M30.38625,121.430625 C36.0675,119.94375 43.584375,112.201875 39.853125,106.29 C35.25,99.005625 22.425,105.24 21.991875,113.349375 C21.556875,121.4625 24.36375,123.0075 30.38625,121.430625" id="Shape" fill="#F3F3F3" fill-rule="nonzero"></path>
        </g>
    </g>
</svg>