<?xml version="1.0" encoding="UTF-8"?>
<svg width="240px" height="240px" viewBox="0 0 240 240" version="1.1" xmlns="http://www.w3.org/2000/svg" xmlns:xlink="http://www.w3.org/1999/xlink">
    <title>Group</title>
    <defs>
        <linearGradient x1="100%" y1="0%" x2="0%" y2="100%" id="linearGradient-1">
            <stop stop-color="#FF97E3" offset="13%"></stop>
            <stop stop-color="#D14FE1" offset="18%"></stop>
            <stop stop-color="#0050E2" offset="33.8%"></stop>
            <stop stop-color="#0050E2" offset="66.6%"></stop>
            <stop stop-color="#00DDF4" offset="80.9%"></stop>
            <stop stop-color="#23F8CC" offset="85.8%"></stop>
        </linearGradient>
    </defs>
    <g id="Page-1" stroke="none" stroke-width="1" fill="none" fill-rule="evenodd">
        <g id="Group">
            <g id="metaai" transform="translate(20, 20)" fill="url(#linearGradient-1)">
                <path d="M100,0 C155.225,0 200,44.775 200,100 C200,155.225 155.225,200 100,200 C44.775,200 0,155.225 0,100 C0,44.775 44.775,0 100,0 Z M100,30.225 C61.4643316,30.225 30.225,61.4643316 30.225,100 C30.225,138.535668 61.4643316,169.775 100,169.775 C138.535668,169.775 169.775,138.535668 169.775,100 C169.775,61.4643316 138.535668,30.225 100,30.225 Z" id="Shape"></path>
            </g>
            <rect id="box" x="0" y="0" width="240" height="240"></rect>
        </g>
    </g>
</svg>