<?xml version="1.0" encoding="UTF-8"?>
<svg width="240px" height="240px" viewBox="0 0 240 240" version="1.1" xmlns="http://www.w3.org/2000/svg" xmlns:xlink="http://www.w3.org/1999/xlink">
    <title>microsoft-planner</title>
    <defs>
        <linearGradient x1="49.9995308%" y1="0.000156562513%" x2="16.8912538%" y2="70.7298553%" id="linearGradient-1">
            <stop stop-color="#8752E0" offset="0%"></stop>
            <stop stop-color="#541278" offset="100%"></stop>
        </linearGradient>
        <linearGradient x1="65.6014282%" y1="57.3641135%" x2="38.6753407%" y2="30.9272806%" id="linearGradient-2">
            <stop stop-color="#3D0D59" offset="12.172%"></stop>
            <stop stop-color="#7034B0" stop-opacity="0" offset="100%"></stop>
        </linearGradient>
        <linearGradient x1="75.7595419%" y1="12.0465139%" x2="39.1055623%" y2="88.5569994%" id="linearGradient-3">
            <stop stop-color="#DB45E0" offset="0%"></stop>
            <stop stop-color="#6C0F71" offset="100%"></stop>
        </linearGradient>
        <linearGradient x1="75.7595419%" y1="12.0465139%" x2="39.1055623%" y2="88.5569994%" id="linearGradient-4">
            <stop stop-color="#DB45E0" offset="0%"></stop>
            <stop stop-color="#A829AE" offset="67.7403%"></stop>
            <stop stop-color="#8F28B3" offset="100%"></stop>
        </linearGradient>
        <linearGradient x1="69.2063086%" y1="14.2725905%" x2="48.6770955%" y2="85.795457%" id="linearGradient-5">
            <stop stop-color="#3DCBFF" offset="0%"></stop>
            <stop stop-color="#00479E" offset="100%"></stop>
        </linearGradient>
        <linearGradient x1="70.3159681%" y1="16.1222159%" x2="30.8327245%" y2="81.1896001%" id="linearGradient-6">
            <stop stop-color="#3DCBFF" offset="0%"></stop>
            <stop stop-color="#4A40D4" offset="100%"></stop>
        </linearGradient>
    </defs>
    <g id="Page-1" stroke="none" stroke-width="1" fill="none" fill-rule="evenodd">
        <g id="microsoft-planner" fill-rule="nonzero">
            <path d="M82.7450977,157.235501 C72.3924543,167.588166 55.6074467,167.588166 45.2548033,157.235501 L7.76449885,119.744666 C-2.58816461,109.392001 -2.58816461,92.6073976 7.76448883,82.2547327 L45.2548033,44.7644987 C55.6074467,34.4118338 72.3924543,34.4118338 82.7450977,44.7644987 L120.235593,82.2548329 C130.588136,92.6073976 130.588136,109.392001 120.235593,119.744666 L82.7450977,157.235501 Z" id="Path" fill="url(#linearGradient-1)"></path>
            <path d="M82.7450977,157.235501 C72.3924543,167.588166 55.6074467,167.588166 45.2548033,157.235501 L7.76449885,119.744666 C-2.58816461,109.392001 -2.58816461,92.6073976 7.76448883,82.2547327 L45.2548033,44.7644987 C55.6074467,34.4118338 72.3924543,34.4118338 82.7450977,44.7644987 L120.235593,82.2548329 C130.588136,92.6073976 130.588136,109.392001 120.235593,119.744666 L82.7450977,157.235501 Z" id="Path" fill="url(#linearGradient-2)"></path>
            <path d="M7,120.247194 C17.3656433,130.600564 34.1718554,130.600564 44.537569,120.247194 L157.150988,7.76528666 C167.5163,-2.58838379 184.322312,-2.5884339 194.688627,7.76516641 L232.225263,45.2589152 C242.591579,55.6124855 242.591579,72.3990337 232.225263,82.7527041 L119.612346,195.234973 C109.247034,205.588342 92.4406208,205.588342 82.0749072,195.234973 L7,120.247194 Z" id="Path" fill="url(#linearGradient-3)"></path>
            <path d="M7,120.247194 C17.3656433,130.600564 34.1718554,130.600564 44.537569,120.247194 L157.150988,7.76528666 C167.5163,-2.58838379 184.322312,-2.5884339 194.688627,7.76516641 L232.225263,45.2589152 C242.591579,55.6124855 242.591579,72.3990337 232.225263,82.7527041 L119.612346,195.234973 C109.247034,205.588342 92.4406208,205.588342 82.0749072,195.234973 L7,120.247194 Z" id="Path" fill="url(#linearGradient-4)"></path>
            <path d="M45,157.499588 C55.3411741,167.822286 72.1074997,167.822286 82.4487738,157.499588 L157.346121,82.7414987 C167.687896,72.4195004 184.454121,72.4195004 194.794895,82.7414987 L232.243669,120.120893 C242.585444,130.442592 242.585444,147.177889 232.243669,157.499588 L157.346121,232.257977 C147.005348,242.580674 130.238121,242.580674 119.897348,232.257977 L45,157.499588 Z" id="Path" fill="url(#linearGradient-5)"></path>
            <path d="M45,157.499588 C55.3411741,167.822286 72.1074997,167.822286 82.4487738,157.499588 L157.346121,82.7414987 C167.687896,72.4195004 184.454121,72.4195004 194.794895,82.7414987 L232.243669,120.120893 C242.585444,130.442592 242.585444,147.177889 232.243669,157.499588 L157.346121,232.257977 C147.005348,242.580674 130.238121,242.580674 119.897348,232.257977 L45,157.499588 Z" id="Path" fill="url(#linearGradient-6)"></path>
        </g>
    </g>
</svg>