<?xml version="1.0" encoding="UTF-8"?>
<svg width="240px" height="240px" viewBox="0 0 240 240" version="1.1" xmlns="http://www.w3.org/2000/svg" xmlns:xlink="http://www.w3.org/1999/xlink">
    <title>midjourney</title>
    <g id="Page-1" stroke="none" stroke-width="1" fill="none" fill-rule="evenodd">
        <g id="midjourney">
            <rect id="box" fill="#FFFFFF" x="0" y="0" width="240" height="240" rx="32"></rect>
            <path d="M195.921862,162.869933 C185.811064,171.931834 172.813549,179.986058 157.053241,187.464465 C157.373988,187.680396 157.680154,187.874734 158.000901,188.061874 L158.132115,188.133851 L158.270619,188.220224 C159.845192,189.105541 161.332289,189.5446 162.94331,189.5446 C164.561621,189.5446 166.048717,189.105541 167.62329,188.220224 L167.754505,188.141049 L167.893009,188.061874 C168.913565,187.457268 169.832066,186.780684 171.479536,185.427517 L172.7771,184.362258 C174.810923,182.692392 175.882508,181.900645 177.333156,181.080108 C179.549221,179.827708 181.794445,179.16552 184.25107,179.16552 C186.707696,179.16552 188.95292,179.827708 191.168985,181.080108 L191.336648,181.180876 C192.70711,181.965425 193.771404,182.757171 195.725041,184.362258 L197.022605,185.427517 C198.633627,186.751893 199.544838,187.428477 200.543525,188.018688 L200.747636,188.141049 L200.878851,188.213026 C202.409685,189.07675 203.845754,189.515809 205.398458,189.5446 L205.558831,189.5446 C206.406839,189.477183 207.221333,189.885734 207.666285,190.601701 C208.111238,191.317668 208.111238,192.219709 207.666285,192.935676 C207.221333,193.651643 206.406839,194.060194 205.558831,193.992777 C203.102206,193.992777 200.856982,193.330589 198.633627,192.07819 C198.412756,191.952253 198.194035,191.822676 197.977555,191.689514 L197.817181,191.588746 L197.656808,191.495176 L197.511015,191.394408 C196.268443,190.55856 195.075808,189.652541 193.939067,188.680876 L192.780006,187.73078 C191.676973,186.77726 190.499704,185.910866 189.259087,185.139609 L189.062265,185.017248 L188.923761,184.945271 C187.516252,184.093607 185.901727,183.633517 184.25107,183.613697 C182.63276,183.613697 181.145663,184.052757 179.57838,184.938074 L179.432586,185.017248 L179.301372,185.096423 C178.280815,185.70103 177.362314,186.377613 175.714845,187.73078 L174.563074,188.680876 C173.384461,189.692376 172.142779,190.629916 170.845333,191.487978 L170.684959,191.588746 L170.524586,191.689514 L169.868514,192.07819 C167.775582,193.317599 165.383765,193.978857 162.94331,193.992777 C160.486685,193.992777 158.24875,193.330589 156.025395,192.07819 C155.804524,191.952253 155.585803,191.822676 155.369323,191.689514 L155.20895,191.588746 L155.048577,191.495176 L154.859045,191.372815 C153.783801,190.649578 152.749542,189.868655 151.760927,189.033564 C151.411543,188.871847 151.110267,188.623951 150.886164,188.313794 L150.171775,187.73078 C149.068742,186.77726 147.891473,185.910866 146.650855,185.139609 L146.454034,185.017248 L146.315529,184.945271 C144.908021,184.093607 143.293496,183.633517 141.642839,183.613697 C140.024528,183.613697 138.537431,184.052757 136.962859,184.938074 L136.831644,185.017248 L136.69314,185.096423 C135.672584,185.70103 134.754083,186.377613 133.106613,187.73078 L131.954842,188.680876 C130.77623,189.692376 129.534547,190.629916 128.237101,191.487978 L128.069438,191.588746 L127.909065,191.689514 L127.252993,192.07819 C125.162186,193.316358 122.773055,193.977569 120.335078,193.992777 C117.878453,193.992777 115.633229,193.330589 113.417164,192.07819 C113.196293,191.952253 112.977572,191.822676 112.761092,191.689514 L112.600718,191.588746 L112.440345,191.495176 L112.287262,191.394408 C111.04469,190.55856 109.852055,189.652541 108.715314,188.680876 L107.563543,187.73078 C106.46051,186.77726 105.283241,185.910866 104.042624,185.139609 L103.838512,185.017248 L103.707298,184.945271 C102.297671,184.09236 100.680456,183.632222 99.0273176,183.613697 C97.4162964,183.613697 95.9291998,184.052757 94.354627,184.938074 L94.216123,185.017248 L94.0849086,185.096423 C93.0570624,185.70103 92.1458513,186.377613 90.4983816,187.73078 L89.3466108,188.680876 C88.1656475,189.692619 86.9215239,190.630164 85.6215798,191.487978 L85.4612066,191.588746 L85.3008334,191.689514 L84.6447614,192.07819 C82.4740097,193.358167 79.9852083,194.01613 77.4571282,193.978382 C72.0190203,193.330589 67.8420285,191.243257 63.6796162,187.745176 L63.4244771,187.529245 C63.0818617,187.234139 62.5642938,186.766289 62.0248568,186.276845 L60.5960778,184.974062 L59.8160811,184.254292 L59.7358945,184.182315 C59.0081843,183.46694 58.1839632,182.854153 57.286559,182.361298 C57.0688748,182.253277 56.8350738,182.180377 56.5940386,182.145367 L56.5575901,182.145367 C55.6901172,182.303716 54.8226442,182.570031 53.9260125,182.937114 C53.763905,183.112175 53.5743932,183.260413 53.3647064,183.376173 L53.3063889,183.412162 C53.0213592,183.557373 52.7082089,183.640807 52.3878881,183.656884 C50.4066087,184.744533 48.519482,185.991556 46.7456689,187.385291 L43.7131583,189.717345 L43.3122254,190.026846 C42.5426962,190.616752 41.7550402,191.183237 40.9503662,191.725502 C38.7270111,193.215426 36.926458,193.992777 35.1186151,193.992777 C33.9417655,193.920033 33.0193784,192.966071 33,191.801951 C32.9812231,190.63783 33.8718684,189.654902 35.0457182,189.5446 L35.1186151,189.5446 C35.7746871,189.5446 36.831692,189.098343 38.3114988,188.119456 L38.6030864,187.925118 C39.1643924,187.536442 39.7913057,187.082988 40.5713024,186.492776 L43.3778326,184.326269 L43.815214,183.987978 C45.7688506,182.505252 47.5037965,181.303236 49.1366869,180.35314 L44.5223138,171.643926 C44.1709337,170.977296 44.1842674,170.180543 44.5577617,169.525739 C44.9312559,168.870935 45.6143916,168.446649 46.3738948,168.397765 L194.259813,159.00477 C195.215343,158.943075 196.105933,159.484622 196.480165,160.354913 C196.854397,161.225205 196.63046,162.233988 195.921862,162.869933 L195.921862,162.869933 Z M187,163 L49,171.851374 L52.0915157,177.74986 C53.0270099,177.421761 53.962504,177.181155 54.9272323,177.020752 C55.05266,176.997954 55.1797928,176.985759 55.3072768,176.984296 C56.2720051,176.984296 57.2074992,177.217611 58.1283762,177.662367 C59.246584,178.194616 60.2770893,178.967471 61.6584048,180.214246 L61.7753416,180.323612 L62.447728,180.950645 L63.5001589,181.92765 L64.209088,182.576556 C64.6841436,183.014021 65.1226565,183.40774 65.3784557,183.626472 C68.9231014,186.674145 72.306959,188.424004 76.735939,188.992709 L76.816333,188.992709 C78.3608247,188.951338 79.8695687,188.519865 81.2014617,187.738643 L81.3549412,187.658441 L81.4938036,187.578239 L81.6253575,187.498037 C82.6558627,186.885586 83.5694312,186.200224 85.221163,184.829501 L86.5220845,183.750421 C88.5611694,182.05889 89.6355259,181.25687 91.0899269,180.425687 C93.319034,179.157039 95.5627582,178.486259 98.0330473,178.486259 C100.488719,178.486259 102.739752,179.157039 104.961551,180.425687 L105.129647,180.527762 C106.503654,181.32249 107.578011,182.124509 109.536702,183.750421 L110.830315,184.829501 C112.452812,186.17106 113.359072,186.856422 114.367652,187.454291 L114.564983,187.578239 L114.703845,187.65115 C116.275183,188.555244 117.773435,189 119.388624,189 C121.011122,189 122.502065,188.555244 124.073403,187.658441 L124.212266,187.578239 L124.34382,187.498037 C125.374325,186.885586 126.295202,186.200224 127.946934,184.829501 L129.240547,183.750421 C131.28694,182.05889 132.361296,181.25687 133.815697,180.425687 C136.037496,179.157039 138.288529,178.486259 140.751509,178.486259 C143.21449,178.486259 145.458214,179.157039 147.687321,180.425687 L147.870035,180.535053 C149.236733,181.329781 150.31109,182.139091 152.277089,183.765003 C165.922148,177.363432 177.476962,170.560852 186.84652,163.116657 L186.992691,163 L187,163 Z M58.7849375,48.1774665 C76.4849582,55.7291585 95.6258484,69.4668111 111.058511,86.3887361 C129.051094,106.107855 141.111976,128.952819 144.973799,153.207334 C145.096915,154.009676 144.780461,154.816436 144.144373,155.321847 C143.508286,155.827257 142.649913,155.953972 141.89458,155.653966 C124.721172,148.752274 108.688756,146.466317 93.694937,148.204521 C80.9757899,149.665196 69.287925,153.988796 58.470433,160.642172 C56.3200999,161.971387 53.9357169,159.312958 55.5082394,157.326439 C69.0831314,140.126986 74.3858235,120.882587 72.6450777,100.403917 C71.2188363,83.6645764 65.1042837,66.735348 55.9397689,51.4055592 C55.4478491,50.5641117 55.550222,49.5027725 56.1939328,48.770544 C56.8376435,48.0383155 57.87831,47.799434 58.7776234,48.1774665 L58.7849375,48.1774665 Z M105.925535,66.1094944 C118.91193,70.0584477 134.352446,81.3962342 148.156882,96.9666005 C162.647887,113.315122 174.100456,132.848986 179.907084,152.106496 C180.148428,152.919571 179.91122,153.798719 179.293146,154.381903 C178.675071,154.965087 177.780649,155.153687 176.978206,154.870037 L176.81752,154.797312 L173.998201,153.677351 C173.293771,153.395478 172.585212,153.123943 171.872756,152.862834 L171.755893,152.819199 C166.789218,151.022898 162.998476,150.702909 157.557045,152.084679 C156.362923,152.386095 155.145891,151.681642 154.81807,150.49928 C144.913935,114.638712 128.078367,86.6615052 103.989992,70.109355 C101.864547,68.6475877 103.464109,65.3604296 105.932839,66.1094944 L105.925535,66.1094944 Z M64,55 L64.0581373,55.109803 C71.5287818,69.3109954 76.4704532,84.6175383 77.7567413,99.8581994 C79.3046472,118.253868 75.5039204,135.771112 65.5987761,151.773074 L65.4534328,152 L65.4752343,151.99268 C74.1812966,147.739642 83.4251291,144.899404 93.2721362,143.706211 L93.6718302,143.66229 C108.068082,141.978643 123.34366,143.874576 139.520367,149.789299 L140,149.972304 L139.94913,149.686816 C135.639702,128.092219 124.629948,107.690816 108.627653,89.8148819 L108.118952,89.2439061 C95.1470644,74.8963097 79.4572576,62.891178 64.4142283,55.2049657 L64,55 Z M121,79 L121.347439,79.3500365 C137.539532,96.0861548 149.468263,118.955204 157.35078,146.374727 L157.625835,147.337327 L157.785078,147.308157 C162.924276,146.338264 167.079065,146.848734 171.993875,148.620794 L172.18931,148.693718 L172.667038,148.868736 L173,149 L172.819042,148.467653 C166.948775,131.644025 156.83686,114.776643 144.329065,100.381394 L143.909243,99.9073862 C136.526169,91.4846338 128.687082,84.3599333 121.108575,79.0802167 L121,79 Z" id="Shape" fill="#000000"></path>
        </g>
    </g>
</svg>