<svg width="240" height="240" viewBox="0 0 240 240" fill="none" xmlns="http://www.w3.org/2000/svg">
<rect width="240" height="240" rx="32" fill="white"/>
<path d="M202.87 76.31C202.65 75.81 202.42 75.33 202.16 74.9C201.9 74.47 201.59 74.04 201.24 73.62C199.43 71.4 196.48 69.22 192.71 67.15L162.38 50.53L132.05 33.89C128.28 31.82 124.82 30.49 121.89 30.11C121.33 30.04 120.78 30 120.26 30C117.02 30 112.96 31.43 108.46 33.89L78.13 50.52L47.8 67.14C44.03 69.21 41.08 71.38 39.27 73.61C38.92 74.04 38.61 74.47 38.35 74.89C38.09 75.32 37.86 75.8 37.64 76.3C36.52 78.91 36 82.41 36 86.54V153.04C36 157.97 36.73 162.02 38.35 164.69C39.97 167.36 43.3 169.98 47.8 172.44L78.13 189.07L108.46 205.69C112.23 207.75 115.69 209.09 118.62 209.47C119.18 209.54 119.73 209.59 120.25 209.59C120.77 209.59 121.32 209.55 121.88 209.47C124.81 209.09 128.27 207.76 132.04 205.69L192.7 172.44C197.19 169.98 200.53 167.36 202.15 164.69C202.41 164.26 202.64 163.78 202.86 163.28C203.98 160.68 204.5 157.17 204.5 153.04V86.54C204.51 82.41 203.99 78.91 202.87 76.31ZM84.58 154.33C84.58 155.84 82.96 156.81 81.63 156.08L70.78 150.13C68.23 148.73 66.64 146.05 66.64 143.14V111C66.64 109.49 68.26 108.53 69.59 109.25L82.52 116.33C83.8 117.03 84.59 118.37 84.59 119.83V154.33H84.58ZM173.87 143.14C173.87 146.05 172.28 148.74 169.73 150.14L158.88 156.08C157.55 156.81 155.93 155.85 155.93 154.33V111.75C155.93 110.24 154.31 109.27 152.98 110L133.38 120.74C130.83 122.14 129.24 124.82 129.24 127.73V169.97C129.24 171.43 128.45 172.77 127.17 173.47L124.09 175.15C121.7 176.46 118.81 176.46 116.42 175.15L113.36 173.47C112.08 172.77 111.29 171.43 111.29 169.97V127.74C111.29 124.83 109.7 122.15 107.15 120.75L66.64 98.55V96.45C66.64 93.54 68.23 90.86 70.78 89.46L75.25 87C77.64 85.69 80.53 85.69 82.91 87L116.42 105.36C118.81 106.67 121.7 106.67 124.08 105.36L139.56 96.87C140.94 96.11 140.94 94.13 139.56 93.37L104.78 74.31C103.4 73.55 103.4 71.57 104.78 70.81L116.42 64.43C118.81 63.12 121.7 63.12 124.09 64.43L169.73 89.44C172.29 90.84 173.88 93.52 173.88 96.44V143.14H173.87Z" fill="#293239"/>
</svg>
