<?xml version="1.0" encoding="UTF-8"?>
<svg width="240px" height="240px" viewBox="0 0 240 240" version="1.1" xmlns="http://www.w3.org/2000/svg" xmlns:xlink="http://www.w3.org/1999/xlink">
    <title>milvus</title>
    <g id="Page-1" stroke="none" stroke-width="1" fill="none" fill-rule="evenodd">
        <g id="milvus" transform="translate(105, 33)">
            <rect id="box" opacity="0" fill-rule="nonzero" x="-105" y="-33" width="240" height="240"></rect>
            <g id="shape" transform="translate(-105, 6)" fill="#00B3FF">
                <path d="M114.957983,122.753086 C137.23495,122.753086 155.294118,104.509218 155.294118,82.0034588 C155.294118,59.4975645 137.23495,41.2530864 114.957983,41.2530864 C92.681016,41.2530864 74.6218487,59.4975645 74.6218487,82.0034588 C74.6218487,104.509218 92.681016,122.753086 114.957983,122.753086 Z" id="Path" fill-rule="nonzero"></path>
                <path d="M54.3584797,23.8852168 C86.204387,-7.96173895 137.845091,-7.96173895 169.690521,23.8852168 C201.587753,55.7321047 201.587753,107.366116 169.690521,139.16064 C137.845091,170.955164 86.204387,170.955164 54.3584797,139.108344 L2.30767244,87.0569849 C-0.769224147,83.9769625 -0.769224147,79.0170059 2.30767244,75.9363043 L54.3584797,23.8852168 Z M72.6662792,123.863761 C96.0502216,147.252915 133.998774,147.252915 157.383398,123.863761 C180.767341,100.474608 180.767341,62.5713844 157.331596,39.1821632 C133.947654,15.792942 95.999101,15.792942 72.614477,39.1821632 L34.3586553,77.3985509 C32.1022585,79.6954937 32.1022585,83.3500914 34.3586553,85.5954175 L72.6662792,123.863761 Z" id="Shape"></path>
                <path d="M215.026977,52.9169432 L237.750457,76.3948339 C240.749848,79.4934339 240.749848,84.4833072 237.750457,87.6345185 L215.026977,111.112136 C213.70465,112.47798 211.417437,111.217358 211.824203,109.274157 C215.738479,91.3637707 215.738479,72.6655816 211.824203,54.7552637 C211.36676,52.8119256 213.653973,51.4988298 215.026977,52.9169432 Z" id="Path" fill-rule="nonzero"></path>
            </g>
        </g>
    </g>
</svg>