<?xml version="1.0" encoding="UTF-8"?>
<svg width="240px" height="200px" viewBox="0 0 240 200" version="1.1" xmlns="http://www.w3.org/2000/svg" xmlns:xlink="http://www.w3.org/1999/xlink">
    <title>minimax</title>
    <defs>
        <linearGradient x1="0%" y1="50.057%" x2="100.182%" y2="50.057%" id="linearGradient-1">
            <stop stop-color="#E2167E" offset="0%"></stop>
            <stop stop-color="#FE603C" offset="100%"></stop>
        </linearGradient>
    </defs>
    <g id="Page-1" stroke="none" stroke-width="1" fill="none" fill-rule="evenodd">
        <g id="minimax" fill="url(#linearGradient-1)" fill-rule="nonzero">
            <path d="M162.78,0 C174.34,0 183.71,9.26997184 183.71,20.6999371 L183.71,145.709557 C183.876835,149.690448 187.165682,152.824567 191.15,152.799536 C195.130451,152.819165 198.413298,149.686553 198.58,145.709557 L198.58,70.9897843 C198.609096,65.5263169 200.807401,60.2981861 204.691296,56.4555606 C208.575192,52.6129351 213.826517,50.4705948 219.29,50.4998466 C224.755207,50.4705991 230.008042,52.6143101 233.892225,56.4590957 C237.776408,60.3038812 239.973548,65.5345797 240,70.9997843 L240,136.609585 C239.977971,140.190005 237.06046,143.076184 233.48,143.059565 C231.758735,143.070207 230.103745,142.396628 228.879125,141.187015 C227.654506,139.977402 226.960576,138.330845 226.95,136.609585 L226.95,70.9997843 C226.939419,68.9788321 226.126435,67.0448592 224.6899,65.6233318 C223.253365,64.2018043 221.310958,63.4091708 219.29,63.4198073 C217.269042,63.4091708 215.326635,64.2018043 213.8901,65.6233318 C212.453565,67.0448592 211.640581,68.9788321 211.63,70.9997843 L211.63,145.719557 C211.600905,151.122025 209.426832,156.291656 205.58607,160.091148 C201.745308,163.89064 196.552484,166.008748 191.15,165.979496 C185.747516,166.008748 180.554692,163.89064 176.71393,160.091148 C172.873168,156.291656 170.699095,151.122025 170.67,145.719557 L170.67,20.7199371 C170.497811,16.4983218 167.015092,13.1703028 162.79,13.1899599 C158.564759,13.1646977 155.077549,16.4883659 154.9,20.7099371 L154.89,179.749454 C154.823912,190.995615 145.656224,200.060318 134.41,199.999698 C129.007516,200.028645 123.814692,197.910537 119.97393,194.111045 C116.133168,190.311552 113.959095,185.141922 113.93,179.739454 L113.93,160.399513 C113.93,156.839524 116.85,153.949532 120.45,153.949532 C124.05,153.949532 126.97,156.839524 126.97,160.399513 L126.97,179.739454 C126.97,182.369446 128.39,184.799439 130.69,186.119435 C132.99,187.429431 135.83,187.429431 138.13,186.119435 C140.427509,184.816905 141.848117,182.380495 141.85,179.739454 L141.85,20.6999371 C141.85,9.26997184 151.22,0 162.78,0 L162.78,0 Z M106.04,0 C117.6,0 126.97,9.26997184 126.97,20.6999371 L126.97,135.929587 C126.962068,137.649932 126.270357,139.296514 125.047325,140.506412 C123.824293,141.716309 122.170336,142.390205 120.45,142.379567 C118.729664,142.390205 117.075707,141.716309 115.852675,140.506412 C114.629643,139.296514 113.937932,137.649932 113.93,135.929587 L113.93,20.6999371 C113.902467,16.3684053 110.371576,12.8778014 106.04,12.8999608 C101.708424,12.8778014 98.1775333,16.3684053 98.15,20.6999371 L98.15,160.829511 C98.0839049,172.198772 88.8193525,181.364833 77.45,181.309751 C66.0767512,181.370373 56.8060897,172.202697 56.74,160.829511 L56.74,70.9997843 C56.7294191,68.9788321 55.9164347,67.0448592 54.4799,65.6233318 C53.0433653,64.2018043 51.100958,63.4091708 49.08,63.4198073 C47.059042,63.4091708 45.1166347,64.2018043 43.6801,65.6233318 C42.2435653,67.0448592 41.4305809,68.9788321 41.42,70.9997843 L41.42,108.999669 C41.390904,114.463136 39.1925989,119.691267 35.3087035,123.533893 C31.4248081,127.376518 26.1734832,129.518858 20.71,129.489607 C15.2465168,129.518858 9.99519187,127.376518 6.11129649,123.533893 C2.22740112,119.691267 0.0290960498,114.463136 0,108.999669 L0,95.2197107 C0,91.6497216 2.92,88.7597303 6.52,88.7597303 C10.12,88.7597303 13.05,91.6597215 13.05,95.2197107 L13.05,108.999669 C13.05,113.179656 16.48,116.569646 20.71,116.569646 C24.94,116.569646 28.37,113.179656 28.37,108.999669 L28.37,70.9897843 C28.4360951,59.6205236 37.7006475,50.4544629 49.07,50.5098465 C60.4432488,50.4489229 69.7139103,59.6165989 69.78,70.9897843 L69.78,160.829511 C69.78,165.019499 73.21,168.409488 77.45,168.409488 C81.68,168.409488 85.11,165.019499 85.11,160.829511 L85.11,20.6999371 C85.11,9.26997184 94.48,0 106.04,0 L106.04,0 Z" id="Shape"></path>
        </g>
    </g>
</svg>