<?xml version="1.0" encoding="UTF-8"?>
<svg width="240px" height="240px" viewBox="0 0 240 240" version="1.1" xmlns="http://www.w3.org/2000/svg" xmlns:xlink="http://www.w3.org/1999/xlink">
    <title>mint</title>
    <g id="Page-1" stroke="none" stroke-width="1" fill="none" fill-rule="evenodd">
        <g id="mint" transform="translate(0, 0)">
            <rect id="ViewBox" x="0" y="0" width="240" height="240"></rect>
            <circle id="Oval" fill="#69B53F" fill-rule="nonzero" cx="120" cy="120" r="110.625"></circle>
            <path d="M120,0 C53.72625,0 0,53.72625 0,120 C0,186.27375 53.72625,240 120,240 C186.27375,240 240,186.27375 240,120 C240,53.72625 186.27375,0 120,0 M120,18.75 C175.919062,18.75 221.25,64.0809375 221.25,120 C221.25,175.919062 175.919062,221.25 120,221.25 C64.0809375,221.25 18.75,175.919062 18.75,120 C18.75,64.0809375 64.0809375,18.75 120,18.75" id="Shape" fill="#FFFFFF" fill-rule="nonzero"></path>
            <path d="M73.59375,58.59375 L73.59375,143.4375 C73.59375,153.53625 81.496875,161.547188 91.5496875,161.715937 L91.875,161.71875 L148.125,161.71875 C158.22375,161.71875 166.234688,153.815625 166.403437,143.762812 L166.40625,143.4375 L166.40625,96.5625 C166.40625,91.5328125 162.529687,87.65625 157.5,87.65625 C152.556562,87.65625 148.727812,91.400625 148.5975,96.30375 L148.59375,96.5625 L148.59375,143.90625 L128.90625,143.90625 L128.90625,96.5625 C128.90625,91.5328125 125.029687,87.65625 120,87.65625 C115.056562,87.65625 111.227812,91.400625 111.0975,96.30375 L111.09375,96.5625 L111.09375,143.90625 L91.40625,143.90625 L91.40625,96.5625 C91.40625,80.881875 104.319375,67.96875 120,67.96875 C126.598125,67.96875 132.875625,70.3265625 137.980312,74.5284375 L138.351562,74.83875 L138.75,75.18375 L139.156875,74.83125 C144.07875,70.65 150.135,68.20875 156.53625,67.985625 L157.029375,67.9725 L157.5,67.96875 C173.024063,67.96875 185.835,80.625 186.09,96.09375 L186.09375,96.5625 L186.09375,143.4375 C186.09375,164.087812 169.32375,181.064062 148.749375,181.401563 L148.125,181.40625 L91.875,181.40625 C71.2246875,181.40625 54.2484375,164.63625 53.9109375,144.061875 L53.90625,143.4375 L53.90625,58.59375 L73.59375,58.59375 Z" id="Path" fill="#F8F8F8" fill-rule="nonzero"></path>
        </g>
    </g>
</svg>