<?xml version="1.0" encoding="UTF-8"?>
<svg width="240px" height="240px" viewBox="0 0 240 240" version="1.1" xmlns="http://www.w3.org/2000/svg" xmlns:xlink="http://www.w3.org/1999/xlink">
    <title>mocha</title>
    <g id="Page-1" stroke="none" stroke-width="1" fill="none" fill-rule="evenodd">
        <g id="mocha" transform="translate(0, 0)">
            <rect id="ViewBox" x="0" y="0" width="240" height="240"></rect>
            <g id="shape" transform="translate(15, 0)" fill-rule="nonzero">
                <path d="M204.566973,184.669823 L111.933027,238.261125 C107.956865,240.579547 103.043135,240.579547 99.0669727,238.261125 L6.43302734,184.669823 C2.44463281,182.350782 -2.27373675e-13,178.100582 -2.27373675e-13,173.591244 L-2.27373675e-13,66.4086393 C-2.27373675e-13,61.7713828 2.44463281,57.6491018 6.43302734,55.3300609 L99.0669727,1.73875849 C103.043135,-0.57966385 107.956865,-0.57966385 111.933027,1.73875849 L204.566973,55.3300609 C208.556191,57.6491018 211,61.9001267 211,66.4086393 L211,173.591244 C210.871422,178.099757 208.426789,182.350782 204.566973,184.669823" id="Path" fill="#8D6748"></path>
                <path d="M105,15.9999417 C103.072414,15.9999417 101.144005,16.514545 99.4733208,17.5445763 L19.5266792,63.759086 C16.0560366,65.6904977 14,69.423021 14,73.284195 L14,165.714039 C14,169.704689 16.0560366,173.309386 19.5266792,175.240797 L99.4733208,221.455307 C101.144005,222.485338 103.071591,222.999942 105,222.999942 C106.926762,222.999942 108.855995,222.485338 110.526679,221.455307 L190.473321,175.239973 C193.943963,173.309386 196,169.576038 196,165.714864 L196,73.284195 C196,69.2943701 193.943963,65.6904977 190.473321,63.759086 L110.526679,17.5437516 C108.855172,16.514545 106.927586,15.9999417 105,15.9999417 M105,19.8611158 C106.284508,19.8611158 107.442213,20.247893 108.59827,20.8919718 L188.544912,67.1064814 C190.730222,68.3929897 192.143182,70.8398294 192.143182,73.4144952 L192.143182,165.843515 C192.143182,168.41818 190.730222,170.863371 188.544912,172.150704 L108.599093,218.365213 C107.442213,219.008467 106.285332,219.395245 105,219.395245 C103.728502,219.389493 102.483192,219.03281 101.400907,218.364389 L21.454265,172.151528 C19.2689541,170.864195 17.8551716,168.419005 17.8551716,165.844339 L17.8551716,73.4144952 C17.8551716,70.8398294 19.2689541,68.3938144 21.4534416,67.1056568 L101.400083,20.8919718 C102.556964,20.247893 103.842296,19.8611158 104.998353,19.8611158 M97.6074903,100.446837 L108.403947,100.446837 C108.790123,100.446837 109.047024,100.317362 109.303926,100.06006 C115.730584,92.8514905 116.373662,77.7894479 116.373662,73.284195 C116.373662,72.6409409 115.859035,71.9968621 115.08833,71.9968621 L90.9239303,71.9968621 C90.2816761,71.9968621 89.6385986,72.5114654 89.6385986,73.284195 C89.6385986,77.6607971 90.2816761,92.7228397 96.7083345,100.06006 C96.9652361,100.317362 97.2221378,100.446837 97.6074903,100.446837 M94.6514744,75.9875117 L111.617688,75.9875117 C112.259942,75.9875117 112.903019,76.502115 112.903019,77.2748446 C112.903019,80.8795417 112.259942,91.0487296 107.890144,96.3267121 C107.504791,96.5848384 107.247889,96.7134893 106.861714,96.7134893 L99.2789978,96.7134893 C98.8928219,96.7134893 98.6359203,96.5848384 98.3790186,96.3267121 C94.0083969,91.1782051 93.4945936,80.8795417 93.3661428,77.2748446 C93.3661428,76.6315905 93.8799461,75.9875117 94.6514744,75.9875117 M105.447931,69.423021 C105.447931,69.423021 110.075454,66.7188796 107.247066,61.8276742 C105.576382,59.2521837 104.805677,57.064295 105.447931,56.1629146 C103.777247,58.2229771 100.949682,60.4108658 104.034149,65.0455942 C105.063402,66.2042763 105.576382,68.6494666 105.447931,69.4221963 M100.306604,69.8073241 C100.306604,69.8073241 103.391071,68.0053878 101.463485,64.6579924 C100.306604,62.984707 99.7928011,61.4400724 100.306604,60.9246444 C99.1497236,62.3406282 97.3505886,63.7566119 99.4066252,66.9753566 C100.049703,67.6186107 100.306604,69.2927208 100.306604,69.8073241 M99.9212519,95.16803 L106.34791,95.16803 C106.604812,95.16803 106.861714,95.0393792 107.118615,94.7820775 C109.303926,92.2074117 110.332356,88.2167621 110.846159,84.7407158 C110.846159,84.7407158 110.717709,85.8993979 107.633242,87.05808 C103.392718,88.6027146 95.9368061,87.5726833 95.9368061,87.5726833 C96.5790602,90.276 97.6083137,92.8506658 99.1497236,94.7820775 C99.2781744,95.0393792 99.6643503,95.16803 99.9212519,95.16803 M51.594922,131.342827 L51.594922,105.596994 L46.8397713,105.596994 L38.9993304,117.697593 L31.1588896,105.596994 L26.4029154,105.596994 L26.4029154,131.471478 L30.9011645,131.471478 L30.9011645,113.062865 L38.8700562,125.034814 L38.998507,125.034814 L47.0966729,112.934214 L47.0966729,131.342827 L51.594922,131.342827 Z M80.3868455,106.111597 C78.7153379,105.468343 76.9162029,105.081566 74.9886171,105.081566 C73.0610313,105.081566 71.261073,105.338867 69.5895654,106.112422 C67.9180579,106.755676 66.5050988,107.784882 65.3482179,108.943564 C64.133538,110.157555 63.1723331,111.601607 62.5206529,113.191516 C61.8783988,114.865626 61.4913995,116.538086 61.4913995,118.340847 L61.4913995,118.469498 C61.4913995,120.271434 61.8783988,122.074195 62.5206529,123.61883 C63.1629071,125.29239 64.0626118,126.708374 65.2197671,127.866781 C66.3766479,129.025463 67.7904304,130.055494 69.4602912,130.698749 C71.1317987,131.342827 72.9317571,131.729604 74.8593429,131.729604 C76.7869287,131.729604 78.5868871,131.471478 80.2583946,130.698749 C81.9290788,130.055494 83.3428613,129.025463 84.4989187,127.866781 C85.7138037,126.653107 86.6752868,125.209338 87.3273071,123.619654 C87.9695612,121.945544 88.3557371,120.271434 88.3557371,118.469498 L88.3557371,118.340847 C88.3557371,116.538086 87.9687378,114.736975 87.3264837,113.191516 C86.6842296,111.517955 85.7847993,110.102246 84.6281929,108.944389 C83.4713121,107.784882 82.0575296,106.754851 80.3868455,106.111597 M83.4713121,118.598149 C83.4713121,119.756831 83.2144105,120.915513 82.8282346,122.074195 C82.3144313,123.103402 81.800628,124.133433 81.0290996,124.906163 C80.2395187,125.691604 79.3279813,126.343597 78.3299854,126.83675 C77.3012809,127.351903 76.1444001,127.609479 74.8593429,127.609479 C73.7032855,127.609479 72.4179538,127.352178 71.3895238,126.83675 C70.3915859,126.343847 69.480052,125.692136 68.6904096,124.906987 C67.9188813,124.004782 67.2766271,123.103402 66.8904512,121.946369 C66.5050988,120.786862 66.2481971,119.629005 66.2481971,118.340847 L66.2481971,118.212196 C66.2481971,117.053514 66.5050988,115.894832 66.8904512,114.73615 C67.405078,113.706119 67.9188813,112.676912 68.6904096,111.904183 C69.479929,111.118448 70.3914699,110.466174 71.3895238,109.972771 C72.4176793,109.458168 73.5742857,109.200866 74.8593429,109.200866 C76.1438512,109.200866 77.300732,109.458168 78.3299854,109.972771 C79.3280393,110.466174 80.2395802,111.118448 81.0290996,111.904183 C81.800628,112.805563 82.4428821,113.706119 82.8282346,114.864801 C83.2144105,116.023483 83.4704887,117.182165 83.4704887,118.469498 L83.4713121,118.598149 Z M102.493562,114.73615 C103.007365,113.706119 103.521992,112.676088 104.292697,111.904183 C105.082216,111.118448 105.993757,110.466174 106.991811,109.972771 C108.020241,109.458168 109.048671,109.200866 110.334003,109.200866 C111.876236,109.200866 113.161568,109.458168 114.318449,110.101422 C115.47533,110.745501 116.50376,111.51823 117.531366,112.418786 L120.488205,109.072215 C119.845128,108.428961 119.202874,107.913533 118.559796,107.398105 C117.917542,106.883502 117.146014,106.497549 116.375309,106.111597 C115.47533,105.853471 114.703801,105.596169 113.675371,105.338867 C112.647765,105.210216 111.619335,105.081566 110.462454,105.081566 C108.405594,105.081566 106.73491,105.467518 105.064225,106.110772 C103.393541,106.754851 101.979759,107.784882 100.822878,108.943564 C99.6882116,110.195275 98.7753778,111.631921 98.1237638,113.191516 C97.4503778,114.824797 97.1010641,116.573805 97.0953337,118.340847 L97.0953337,118.469498 C97.0953337,120.271434 97.4806862,121.94472 98.1237638,123.61883 C98.7660179,125.29239 99.6657226,126.708374 100.822878,127.866781 C101.979759,129.025463 103.393541,130.055494 104.935775,130.698749 C106.562612,131.386083 108.311454,131.736733 110.077101,131.729711 C111.233982,131.729711 112.39004,131.729711 113.54692,131.471478 C114.4469,131.342827 115.47533,130.95605 116.246035,130.570098 C117.017563,130.184145 117.789091,129.797368 118.559796,129.154114 C119.331325,128.51086 119.973579,127.995432 120.616656,127.222702 L117.66064,124.262084 C116.50376,125.29294 115.346879,126.064845 114.318449,126.708099 C113.290019,127.351353 111.876236,127.609479 110.334003,127.609479 C109.177122,127.609479 108.020241,127.222702 106.991811,126.83675 C105.964205,126.450797 105.064225,125.678068 104.292697,124.906987 C103.521992,124.004782 102.878915,123.103402 102.493562,121.94472 C102.10821,120.786862 101.850485,119.62818 101.850485,118.340847 L101.850485,118.212196 C101.850485,117.053514 102.10821,115.894832 102.493562,114.73615 M129.613978,105.596994 L129.613978,131.342827 L134.112227,131.342827 L134.112227,120.529561 L146.45174,120.529561 L146.45174,131.342827 L150.94999,131.342827 L150.94999,105.596169 L146.45174,105.596169 L146.45174,116.281609 L134.112227,116.281609 L134.112227,105.596169 L129.613978,105.596994 Z M178.969561,125.164289 L181.540225,131.343652 L186.295375,131.343652 L174.985115,105.468343 L170.871395,105.468343 L159.561135,131.342827 L164.188659,131.342827 L166.88695,125.163464 L178.969561,125.164289 Z M172.928255,110.874976 L177.298054,121.173639 L168.558457,121.173639 L172.928255,110.874976 Z M23.1899979,140.867936 L187.066904,140.867936 L187.066904,139.451953 L23.1899979,139.451953 L23.1899979,140.867936 Z M117.403739,91.0487296 C117.403739,91.5633329 117.274465,91.9501101 117.274465,92.465538 L187.066904,92.465538 L187.066904,91.0487296 L117.403739,91.0487296 Z M88.7410896,91.0487296 L23.1899979,91.0487296 L23.1899979,92.465538 L88.8695404,92.465538 C88.8695404,91.9509347 88.7402662,91.5641576 88.7402662,91.0487296" id="Shape" fill="#FFFFFF"></path>
            </g>
        </g>
    </g>
</svg>