<?xml version="1.0" encoding="UTF-8"?>
<svg width="240px" height="240px" viewBox="0 0 240 240" version="1.1" xmlns="http://www.w3.org/2000/svg" xmlns:xlink="http://www.w3.org/1999/xlink">
    <title>modelscope</title>
    <g id="Page-1" stroke="none" stroke-width="1" fill="none" fill-rule="evenodd">
        <g id="modelscope">
            <rect id="box" fill="#624AFF" x="0" y="0" width="240" height="240" rx="32"></rect>
            <g id="Shape" transform="translate(26, 64)" fill="#FFFFFF" fill-rule="nonzero">
                <path d="M0,23 L19.5018281,23 L19.5018281,32.5017814 L0,32.5017814 L0,23 Z M58.4981719,32.4982186 L78,32.4982186 L78,42 L58.4981719,42 L58.4981719,32.4982186 Z"></path>
                <path d="M0,43.99835 L22.0016499,43.99835 L22.0016499,66.00165 L0,66.00165 L0,43.99835 Z M22.0016499,66.00165 L43.9950502,66.00165 L43.9950502,88.0049501 L65.9967002,88.0049501 L65.9967002,110 L22.0016499,110 L22.0016499,66.00165 Z M22.0016499,0 L65.9967002,0 L65.9967002,22.0033001 L43.9950502,22.0033001 L43.9950502,43.99835 L22.0016499,43.99835 L22.0016499,0 Z M87.9983501,66.00165 L110,66.00165 L110,88.0049501 L87.9983501,88.0049501 L87.9983501,66.00165 Z"></path>
                <path d="M188,23 L168.498172,23 L168.498172,32.5017814 L188,32.5017814 L188,23 Z M129.501828,32.4982186 L110,32.4982186 L110,42 L129.501828,42 L129.501828,32.4982186 Z"></path>
                <path d="M176,43.99835 L161.3315,43.99835 L161.3315,66.00165 L176,66.00165 L176,43.99835 Z M161.3315,66.00165 L146.6685,66.00165 L146.6685,88.0049501 L132,88.0049501 L132,110 L161.3315,110 L161.3315,66.00165 Z M161.3315,0 L132,0 L132,22.0033001 L146.6685,22.0033001 L146.6685,43.99835 L161.3315,43.99835 L161.3315,0 L161.3315,0 Z"></path>
            </g>
        </g>
    </g>
</svg>