<?xml version="1.0" encoding="UTF-8"?>
<svg width="240px" height="240px" viewBox="0 0 240 240" version="1.1" xmlns="http://www.w3.org/2000/svg" xmlns:xlink="http://www.w3.org/1999/xlink">
    <title>monday</title>
    <g id="Page-1" stroke="none" stroke-width="1" fill="none" fill-rule="evenodd">
        <g id="monday">
            <rect id="box" x="0" y="0" width="240" height="240"></rect>
            <g id="shape" transform="translate(0, 48)" fill-rule="nonzero">
                <path d="M29.8660144,143.316994 C19.0608771,143.340186 9.07888819,137.585925 3.73795889,128.254805 C-1.52598177,118.981108 -1.21032472,107.578924 4.5587355,98.6066607 L58.3652023,14.6677573 C63.9718295,5.48343167 74.11906,0.00620500758 84.9264454,0.330648285 C95.7259642,0.587746941 105.549083,6.60298845 110.632713,16.0720239 C115.64857,25.4941997 115.021588,36.8302551 109.013959,45.6748697 L55.2416913,129.613773 C49.6996603,138.193016 40.1272437,143.362143 29.8660144,143.316994 L29.8660144,143.316994 Z" id="path841" fill="#F62B54"></path>
                <path d="M121.812915,143.316994 C110.95997,143.316994 100.973436,137.552448 95.7293663,128.288566 C90.4768796,119.039767 90.7925966,107.666078 96.5501773,98.7188888 L150.256294,14.9702245 C155.78221,5.65384468 165.959955,0.0478765518 176.841449,0.326948934 C187.785595,0.564774755 197.703728,6.64632076 202.719795,16.1593536 C207.701661,25.6723865 206.972051,37.0767009 200.781769,45.8989063 L147.087052,129.647571 C141.562323,138.189889 132.033692,143.343376 121.812915,143.316994 Z" id="path843" fill="#FFCC00"></path>
                <ellipse id="ellipse845" fill="#00CA72" cx="212.5" cy="117.316994" rx="27.5" ry="27"></ellipse>
            </g>
        </g>
    </g>
</svg>