<?xml version="1.0" encoding="UTF-8"?>
<svg width="240px" height="240px" viewBox="0 0 240 240" version="1.1" xmlns="http://www.w3.org/2000/svg" xmlns:xlink="http://www.w3.org/1999/xlink">
    <title>monero</title>
    <g id="Page-1" stroke="none" stroke-width="1" fill="none" fill-rule="evenodd">
        <g id="monero" fill-rule="nonzero">
            <path d="M240,120.000319 C240,186.2725 186.278594,240 120,240 C53.7214058,240 0,186.2725 0,120.000319 C0,53.728139 53.7226837,0 120,0 C186.277316,0 240,53.7230273 240,120.000319 Z" id="Path" fill="#FFFFFF"></path>
            <path d="M119.997085,0 C53.7367405,0 -0.0842528963,53.8394998 0,120.075269 C0.0167137869,133.327026 2.12870675,146.074314 6.09260761,157.998082 L41.9984051,157.998082 L41.9984051,56.9846023 L119.997085,135.025215 L197.991931,56.9846023 L197.991931,158 L233.905396,158 C237.875049,146.076871 239.976178,133.329583 240,120.077187 C240.11293,53.7723651 186.264459,0.0159844607 119.997085,0.0159844607 L119.997085,0 Z" id="_149931032" fill="#F26822"></path>
            <path d="M101.570299,152.982349 L67.5514796,119 L67.5514796,182.418833 L41.5425728,182.418833 L17,182.423299 C38.0517273,216.922368 76.0972177,240 119.497126,240 C162.897034,240 200.944441,216.917265 222,182.418195 L171.435109,182.418195 L171.435109,119 L137.414373,152.982349 L119.493294,170.883207 L101.571577,152.982349 L101.571577,152.982349 L101.570299,152.982349 Z" id="_149931160" fill="#4D4D4D"></path>
        </g>
    </g>
</svg>