<?xml version="1.0" encoding="UTF-8"?>
<svg width="240px" height="240px" viewBox="0 0 240 240" version="1.1" xmlns="http://www.w3.org/2000/svg" xmlns:xlink="http://www.w3.org/1999/xlink">
    <title>mongodb</title>
    <g id="Page-1" stroke="none" stroke-width="1" fill="none" fill-rule="evenodd">
        <g id="mongodb" transform="translate(0, -0.3737)" fill-rule="nonzero">
            <circle id="Oval" fill="#081E2B" cx="120" cy="120.373721" r="120"></circle>
            <path d="M136.323173,49.5506871 C128.67031,40.5573864 122.085454,31.3668951 120.741605,29.5006268 C120.713314,29.4614 120.676535,29.4293565 120.63339,29.4073134 C120.590246,29.3851999 120.54215,29.3737206 120.494054,29.3737206 C120.445959,29.3737206 120.397863,29.3851999 120.354719,29.4073134 C120.311574,29.4293565 120.274795,29.4614 120.246503,29.5006268 C118.909728,31.3880227 112.324871,40.578514 104.686154,49.5718146 C39.1134294,132.708787 115.019641,188.816561 115.019641,188.816561 L115.634982,189.246154 C116.214958,197.922542 117.643681,210.373721 117.643681,210.373721 L123.3515,210.373721 C123.3515,210.373721 124.766077,197.950712 125.353127,189.246154 L125.975541,188.76022 C125.975541,188.76022 201.881752,132.708787 136.323173,49.5506871 Z M120.501127,187.584119 C120.501127,187.584119 117.099069,184.696685 116.179594,183.245926 L116.179594,183.09099 L120.296014,92.5523267 C120.305208,92.5023248 120.332085,92.4565484 120.370986,92.4234485 C120.410594,92.3910529 120.460105,92.3727424 120.511737,92.3727424 C120.563369,92.3727424 120.612879,92.3910529 120.652487,92.4234485 C120.691388,92.4565484 120.718265,92.5023248 120.72746,92.5523267 L124.858025,183.105075 L124.858025,183.260011 C123.93855,184.668515 120.536492,187.598204 120.536492,187.598204" id="Shape" fill="#00ED64"></path>
        </g>
    </g>
</svg>