<?xml version="1.0" encoding="UTF-8"?>
<svg width="240px" height="240px" viewBox="0 0 240 240" version="1.1" xmlns="http://www.w3.org/2000/svg" xmlns:xlink="http://www.w3.org/1999/xlink">
    <title>mqtt</title>
    <g id="Page-1" stroke="none" stroke-width="1" fill="none" fill-rule="evenodd">
        <g id="mqtt" transform="translate(-0.1, 0.0262)" fill-rule="nonzero">
            <path d="M0.1,23.6424489 L0.1,60.3288394 L0.810059172,60.3288394 C100.691716,60.3288394 182.111834,140.802212 182.940237,239.97381 L218.561538,239.97381 C217.614793,120.802212 120.1,23.9974785 0.1,23.6424489 Z M0.1,99.3820939 L0.1,136.068484 L0.810059172,136.068484 C58.6798817,136.068484 105.898817,182.57736 106.727219,239.97381 L142.348521,239.97381 C141.520118,162.57736 78.0881657,99.7371234 0.1,99.3820939 L0.1,99.3820939 Z M240.1,145.062567 L240.1,71.0980702 C230.987574,58.6720347 219.74497,44.4708512 208.502367,33.4649341 C195.957988,21.0388986 181.283432,9.79629504 167.082249,-0.0261901712 L88.5023669,-0.0261901712 C157.378107,24.7075376 212.644379,77.8436323 240.1,145.062567 Z" id="Shape" fill="#FFFFFF"></path>
            <path d="M0.809708904,136.001455 L0.1,136.001455 L0.1,227.790474 C0.1,234.414423 5.5411016,239.855525 12.1650514,239.855525 L106.67462,239.855525 C105.846627,182.487389 58.7692694,136.001455 0.809708904,136.001455 L0.809708904,136.001455 Z M0.809708904,60.2991723 L0.1,60.2991723 L0.1,99.333162 C78.0496946,99.6880164 141.450357,162.37897 142.27835,239.855525 L182.731758,239.855525 C182.022049,140.732848 100.76038,60.2991723 0.809708904,60.2991723 Z M240.099894,227.908758 L240.099894,144.991101 C212.657817,77.8053252 157.418807,24.6954422 88.6953282,-0.0260845778 L12.1650514,-0.0260845778 C5.5411016,-0.0260845778 0.1,5.41501702 0.1,12.0389668 L0.1,23.7491637 C120.040805,24.1040182 217.625779,120.742714 218.335488,239.97381 L228.034843,239.97381 C234.777078,239.855525 240.099894,234.532708 240.099894,227.908758 Z M208.517848,33.4485187 C219.636621,44.5672916 230.991963,58.6431848 240.099947,71.0630907 L240.099947,11.920682 C240.109357,8.74931122 238.853722,5.70510362 236.611214,3.46259587 C234.368706,1.22008812 231.324499,-0.0355467119 228.153128,-0.0261376705 L167.236447,-0.0261376705 C181.430625,9.79155526 196.097942,21.0286129 208.517848,33.4485187 Z" id="Shape" fill="#660066"></path>
        </g>
    </g>
</svg>