<?xml version="1.0" encoding="UTF-8"?>
<svg width="240px" height="240px" viewBox="0 0 240 240" version="1.1" xmlns="http://www.w3.org/2000/svg" xmlns:xlink="http://www.w3.org/1999/xlink">
    <title>msdos</title>
    <g id="Page-1" stroke="none" stroke-width="1" fill="none" fill-rule="evenodd">
        <g id="msdos">
            <rect id="ViewBox" x="0" y="0" width="240" height="240"></rect>
            <path d="M157.5,232.5 L157.5,240 L202.5,240 L202.5,232.5 L157.5,232.5 Z M149.998125,217.49625 L142.505625,217.49625 L142.505625,224.99625 L149.998125,224.99625 L149.998125,217.49625 Z M157.498125,232.498125 L157.498125,224.998125 L149.998125,224.998125 L149.998125,232.498125 L157.498125,232.498125 Z M142.505625,209.994375 L135.00375,209.994375 L135.00375,217.494375 L142.50375,217.494375 L142.50375,209.994375 M157.5,179.998125 L157.5,187.498125 L165,187.498125 L165,179.998125 L157.5,179.998125 Z M180.00375,187.498125 L180.00375,179.998125 L172.50375,179.998125 L172.50375,187.498125 L165,187.498125 L165,195 L195,195 L195,187.5 L180.005625,187.5 M195,179.998125 L195,187.498125 L202.5,187.498125 L202.5,179.998125 L195,179.998125 Z M217.50375,224.998125 L225.005625,224.998125 L225.005625,217.49625 L217.505625,217.49625 L217.505625,224.99625 M217.505625,232.498125 L217.505625,224.998125 L202.5,224.998125 L202.5,232.498125 L217.5,232.498125 M127.5,232.498125 L97.5,232.498125 L97.5,240 L150,240 L150,232.5 L127.5,232.5 M82.5,240 L82.5,232.5 L15.00375,232.5 L15.00375,240 L82.5,240 Z M105.005625,209.994375 L105.005625,202.494375 L90,202.494375 L90,224.998125 L82.5,224.998125 L82.5,232.498125 L97.5,232.498125 L97.5,209.994375 L105.005625,209.994375 Z M52.505625,82.4925 L60.005625,82.4925 L60.005625,67.498125 L52.505625,67.498125 L52.505625,82.4925 Z M67.5,142.49625 L67.5,127.494375 L60.0075,127.494375 L60.0075,134.994375 L37.5,134.994375 L37.5,195 L82.5,195 L82.5,187.5 L75,187.5 L75,179.998125 L67.498125,179.998125 L67.498125,187.498125 L45,187.498125 L45,142.5 L60.00375,142.5 L60.00375,180 L67.49625,180 L67.49625,142.5 M90,134.9925 L90,172.4925 L82.5,172.4925 L82.5,187.494375 L90,187.494375 L90,179.994375 L97.5,179.994375 L97.5,127.4925 L90,127.4925 L90,134.9925 Z M90,104.99625 L90,97.49625 L82.5,97.49625 L82.5,104.99625 L90,104.99625 Z M74.99625,104.99625 L74.99625,112.49625 L82.5,112.49625 L82.5,104.994375 L75,104.994375 M75,119.99625 L75,112.49625 L67.498125,112.49625 L67.498125,127.48875 L74.998125,127.48875 L74.998125,120 M45.00375,7.4925 L45.00375,22.49625 L52.50375,22.49625 L52.50375,7.4925 L45.00375,7.4925 Z M22.5075,7.4925 L45.00375,7.4925 L45.00375,0 L15.00375,0 L15.00375,89.9925 L7.50375,89.9925 L7.50375,232.49625 L15.00375,232.49625 L15.00375,97.494375 L82.50375,97.494375 L82.50375,82.490625 L75,82.490625 L75,89.9925 L67.498125,89.9925 L67.498125,82.4925 L60.005625,82.4925 L60.005625,89.9925 L45,89.9925 L45,67.5 L52.5,67.5 L52.5,52.49625 L45,52.49625 L45,44.99625 L37.5,44.99625 L37.5,89.99625 L22.50375,89.99625 L22.50375,7.490625 M60.00375,37.49625 L60.00375,22.494375 L52.501875,22.494375 L52.501875,37.49625 L60.001875,37.49625 M75,52.4925 L82.5,52.4925 L82.5,37.498125 L75,37.498125 L75,52.4925 Z M90,67.494375 L82.5,67.494375 L82.5,82.48875 L90,82.48875 L90,67.494375 Z M67.5,52.4925 L67.5,67.49625 L75,67.49625 L75,52.4925 L67.5,52.4925 Z M60.0075,37.498125 L60.0075,52.4925 L67.5,52.4925 L67.5,37.498125 L60.0075,37.498125 Z M90,22.49625 L82.5,22.49625 L82.5,37.498125 L90,37.498125 L90,22.49625 Z M97.5,22.49625 L97.5,7.4925 L90,7.4925 L90,22.49625 L97.5,22.49625 Z M232.5,164.9925 L225.0075,164.9925 L225.0075,217.49625 L232.5,217.49625 L232.5,164.9925 Z M217.50375,157.5 L217.50375,164.9925 L225.005625,164.9925 L225.005625,157.5 L217.505625,157.5 M217.505625,112.5 L225.005625,112.5 L225.005625,104.99625 L217.505625,104.99625 L217.505625,112.49625 M225.005625,112.49625 L225.005625,134.9925 L232.5,134.9925 L232.5,112.5 L225.0075,112.5 M202.50375,149.998125 L202.50375,157.498125 L217.505625,157.498125 L217.505625,149.998125 L202.50375,149.998125 Z M195.00375,134.994375 L202.50375,134.994375 L202.50375,127.494375 L195.00375,127.494375 L195.00375,134.994375 Z M202.50375,134.994375 L202.50375,142.49625 L225.0075,142.49625 L225.0075,134.99625 L202.50375,134.99625 M135.005625,149.99625 L135.005625,112.5 L127.505625,112.5 L127.505625,134.994375 L120,134.994375 L120,120 L97.5,120 L97.5,127.494375 L112.5,127.494375 L112.5,187.498125 L105.0075,187.498125 L105.0075,202.4925 L112.5,202.4925 L112.5,195 L127.5,195 L127.5,209.994375 L135.001875,209.994375 L135.001875,179.994375 L127.501875,179.994375 L127.501875,187.49625 L119.998125,187.49625 L119.998125,142.49625 L127.5,142.49625 L127.5,150 L135.001875,150 M142.501875,157.5 L142.501875,150 L135.001875,150 L135.001875,157.5 L142.501875,157.5 Z M157.5,127.49625 L180,127.49625 L180,179.998125 L194.994375,179.998125 L194.994375,172.498125 L187.4925,172.498125 L187.4925,149.998125 L202.49625,149.998125 L202.49625,142.498125 L187.4925,142.498125 L187.4925,127.494375 L194.9925,127.494375 L194.9925,120 L157.5,120 L157.5,127.4925 M157.5,142.494375 L157.5,127.4925 L149.998125,127.4925 L149.998125,157.5 L142.505625,157.5 L142.505625,164.9925 L149.998125,164.9925 L149.998125,172.4925 L135.00375,172.4925 L135.00375,179.994375 L157.5,179.994375 L157.5,142.49625 M135.00375,97.49625 L142.50375,97.49625 L142.50375,89.99625 L127.50375,89.99625 L127.50375,0 L97.50375,0 L97.50375,7.4925 L119.998125,7.4925 L119.998125,89.9925 L105.005625,89.9925 L105.005625,44.9925 L97.50375,44.9925 L97.50375,52.494375 L90,52.494375 L90,67.5 L97.5,67.5 L97.5,89.994375 L90,89.994375 L90,97.49625 L135,97.49625 M142.5,104.99625 L135,104.99625 L135,112.5 L142.5,112.5 L142.5,104.998125 M142.5,104.998125 L149.994375,104.998125 L149.994375,97.49625 L142.501875,97.49625 L142.501875,104.99625 M149.994375,82.4925 L142.501875,82.4925 L142.501875,89.994375 L149.994375,89.994375 L149.994375,82.4925 Z M202.5,97.4925 L202.5,104.9925 L217.5,104.9925 L217.5,97.4925 L202.5,97.4925 Z M202.5,89.9925 L149.998125,89.9925 L149.998125,97.4925 L202.501875,97.4925 L202.5,89.9925 Z M202.5,82.490625 L202.5,89.990625 L210,89.990625 L210,82.490625 L202.5,82.490625 Z M195,67.49625 L187.49625,67.49625 L187.49625,74.99625 L195,74.99625 L195,67.49625 Z M195,52.4925 L202.5,52.4925 L202.5,44.9925 L187.5,44.9925 L187.5,52.4925 L195,52.4925 Z M180.005625,67.5 L187.5,67.5 L187.5,59.998125 L180.0075,59.998125 L180.0075,67.498125 M157.50375,67.498125 L157.50375,59.998125 L135.00375,59.998125 L135.00375,82.494375 L142.50375,82.494375 L142.50375,67.5 L157.5,67.5 M165,67.5 L157.5,67.5 L157.5,82.494375 L187.49625,82.494375 L187.49625,75 L165,75 L165,67.5 Z M157.5,52.49625 L157.5,59.998125 L180.00375,59.998125 L180.00375,52.498125 L157.5,52.49625 Z M149.998125,44.994375 L142.505625,44.994375 L142.505625,52.494375 L157.5,52.494375 L157.5,44.994375 L149.998125,44.994375 Z M165.001875,37.5 L165.001875,44.9925 L187.49625,44.9925 L187.49625,37.5 L165,37.5 M165,22.49625 L157.5,22.49625 L157.5,37.5 L165,37.5 L165,22.5 M142.5075,14.99625 L135.005625,14.99625 L135.005625,44.9925 L142.505625,44.9925 L142.505625,14.994375 M142.505625,7.494375 L142.505625,14.994375 L157.5,14.994375 L157.5,7.4925 L142.505625,7.494375 Z M187.498125,7.494375 L195,7.494375 L195,0 L157.5,0 L157.5,7.4925 L187.498125,7.494375 Z M187.498125,22.498125 L187.498125,14.994375 L165,14.994375 L165,22.494375 L187.498125,22.498125 Z M210,59.998125 L210,52.498125 L202.5,52.498125 L202.5,59.998125 L210,59.998125 Z M217.501875,59.998125 L210.001875,59.998125 L210.001875,82.494375 L217.501875,82.494375 L217.501875,59.998125 Z M210.001875,14.998125 L210.001875,7.498125 L194.998125,7.498125 L194.998125,14.998125 L210,14.998125 M217.501875,14.998125 L210.001875,14.998125 L210.001875,30 L194.998125,30 L194.998125,22.498125 L187.498125,22.498125 L187.498125,37.5 L217.5,37.5 L217.501875,14.998125 Z" id="Shape" fill="#000000" fill-rule="nonzero"></path>
            <path d="M135.00375,217.49625 L135.00375,224.99625 L142.50375,224.99625 L142.50375,217.49625 L135.00375,217.49625 Z M142.50375,232.498125 L150,232.498125 L150,224.998125 L142.5075,224.998125 L142.5075,232.498125 M157.5,179.994375 L165,179.994375 L165,172.494375 L157.5,172.494375 L157.5,179.994375 Z M97.50375,224.994375 L97.50375,232.49625 L105.00375,232.49625 L105.00375,224.99625 L97.50375,224.99625 M112.49625,217.4925 L105.00375,217.4925 L105.00375,224.994375 L112.49625,224.994375 L112.49625,217.494375 M119.998125,224.994375 L127.5,224.994375 L127.5,217.494375 L120,217.494375 L119.998125,224.994375 Z M127.498125,224.994375 L127.498125,232.49625 L134.998125,232.49625 L134.998125,224.99625 L127.498125,224.99625 M119.998125,232.49625 L119.998125,224.99625 L112.494375,224.99625 L112.494375,232.49625 L119.998125,232.49625 Z M119.998125,134.9925 L127.498125,134.9925 L127.498125,127.4925 L119.998125,127.4925 L119.998125,134.9925 Z M82.5,157.5 L90.001875,157.5 L90.001875,149.998125 L82.501875,149.998125 L82.501875,157.498125 M90.001875,164.9925 L82.501875,164.9925 L82.501875,172.4925 L90.001875,172.4925 L90.001875,164.9925 Z M82.501875,134.994375 L82.501875,142.49625 L90.001875,142.49625 L90.001875,134.99625 L82.501875,134.99625 M157.5,157.5 L157.5,164.9925 L165,164.9925 L165,157.5 L157.5,157.5 Z M157.5,134.994375 L165,134.994375 L165,127.494375 L157.5,127.494375 L157.5,134.994375 Z M165,142.49625 L157.5,142.49625 L157.5,150 L165,150 L165,142.5 M135.00375,112.5 L135.00375,104.998125 L127.50375,104.998125 L127.50375,112.498125 L135.00375,112.5 Z M142.50375,105 L142.50375,97.498125 L135.00375,97.498125 L135.00375,104.998125 L142.50375,105 Z" id="Shape" fill="#000080" fill-rule="nonzero"></path>
            <path d="M135.00375,224.998125 L135.00375,232.498125 L142.50375,232.498125 L142.50375,224.998125 L135.00375,224.998125 Z M97.50375,217.49625 L97.50375,224.99625 L105.0075,224.99625 L105.0075,217.49625 L97.50375,217.49625 Z M105.00375,232.498125 L112.5,232.498125 L112.5,224.998125 L105.0075,224.998125 L105.00375,232.498125 Z M127.5,217.49625 L127.5,224.99625 L135.001875,224.99625 L135.001875,217.49625 L127.501875,217.49625 M120,224.99625 L120,217.49625 L112.5,217.49625 L112.5,224.99625 L120,224.99625 Z M120,224.99625 L120,232.5 L127.501875,232.5 L127.501875,225 L120.001875,225 M90,127.4925 L97.5,127.4925 L97.5,120 L90,120 L90,127.4925 Z M82.5,157.498125 L82.5,164.990625 L90,164.990625 L90,157.5 L82.5,157.5 M82.5,134.994375 L90,134.994375 L90,127.494375 L82.5,127.494375 L82.5,134.994375 Z M90,142.49625 L82.5,142.49625 L82.5,150 L90,150 L90,142.5 M127.5,120.00375 L119.99625,120.00375 L119.99625,127.49625 L127.5,127.49625 L127.5,120 M157.5,157.5 L165,157.5 L165,149.998125 L157.5,149.998125 L157.5,157.498125 M165,164.9925 L157.5,164.9925 L157.5,172.4925 L165,172.4925 L165,164.9925 Z M157.5,134.994375 L157.5,142.49625 L165,142.49625 L165,134.99625 L157.5,134.994375 Z" id="Shape" fill="#800080" fill-rule="nonzero"></path>
            <path d="M172.501875,179.994375 L172.501875,172.494375 L165.001875,172.494375 L165.001875,179.994375 L172.501875,179.994375 Z M74.998125,172.494375 L67.498125,172.494375 L67.498125,179.994375 L74.998125,179.994375 L74.998125,172.494375 Z M82.5,187.49625 L82.5,179.99625 L75,179.99625 L75,187.49625 L82.5,187.49625 Z M120,202.490625 L127.5,202.490625 L127.5,194.998125 L120,194.998125 L120,202.490625 Z M127.5,209.990625 L120,209.990625 L120,217.4925 L127.5,217.4925 L127.5,209.9925 M112.5,202.490625 L112.5,209.990625 L120,209.990625 L120,202.490625 L112.5,202.490625 Z M112.5,209.990625 L105.0075,209.990625 L105.0075,217.4925 L112.5,217.4925 L112.5,209.9925 M82.5,164.9925 L75,164.9925 L75,172.4925 L82.5,172.4925 L82.5,164.9925 Z M75,149.998125 L75,157.498125 L82.5,157.498125 L82.5,149.998125 L75,149.998125 Z M67.498125,164.9925 L74.998125,164.9925 L74.998125,157.5 L67.498125,157.5 L67.498125,164.9925 Z M74.998125,142.49625 L67.498125,142.49625 L67.498125,150 L74.998125,150 L74.998125,142.5 M74.998125,127.49625 L67.498125,127.49625 L67.498125,134.99625 L74.998125,134.99625 L74.998125,127.49625 Z M82.5,142.49625 L82.5,134.99625 L75,134.99625 L75,142.49625 L82.5,142.49625 Z M82.5,120.001875 L75,120.001875 L75,127.494375 L82.5,127.494375 L82.5,120 M82.5,112.5 L82.5,120 L90.001875,120 L90.001875,112.5 L82.5,112.5 Z M127.5,104.998125 L119.99625,104.998125 L119.99625,112.498125 L127.5,112.498125 L127.5,104.998125 Z M97.50375,112.498125 L97.50375,104.998125 L90,104.998125 L90,112.498125 L97.5,112.498125 M112.49625,112.498125 L112.49625,120 L119.99625,120 L119.99625,112.498125 L112.49625,112.498125 Z M97.501875,112.498125 L97.501875,119.998125 L105.001875,119.998125 L105.001875,112.498125 L97.501875,112.498125 Z M105.001875,104.99625 L105.001875,97.494375 L97.501875,97.494375 L97.501875,104.994375 L105.001875,104.99625 Z M112.49625,97.49625 L112.49625,104.99625 L119.99625,104.99625 L119.99625,97.49625 L112.49625,97.49625 Z M112.49625,104.99625 L105.00375,104.99625 L105.00375,112.498125 L112.49625,112.498125 L112.49625,104.998125 M180.001875,164.994375 L172.501875,164.994375 L172.501875,172.494375 L180.001875,172.494375 L180.001875,164.994375 Z M180.001875,150 L172.501875,150 L172.501875,157.5 L180.001875,157.5 L180.001875,150 Z M172.501875,142.5 L180.001875,142.5 L180.001875,134.99625 L172.501875,134.99625 L172.501875,142.5 Z M165,142.5 L165,150 L172.5,150 L172.5,142.5 L165,142.5 Z M165,157.5 L165,164.994375 L172.5,164.994375 L172.5,157.5 L165,157.5 Z M165,127.494375 L165,134.994375 L172.5,134.994375 L172.5,127.494375 L165,127.494375 Z M135.001875,104.994375 L135.001875,97.494375 L127.501875,97.494375 L127.501875,104.994375 L135.001875,104.994375 Z" id="Shape" fill="#FF00FF" fill-rule="nonzero"></path>
            <path d="M172.501875,187.49625 L172.501875,179.99625 L165.001875,179.99625 L165.001875,187.49625 L172.501875,187.49625 Z M180.00375,172.494375 L172.50375,172.494375 L172.50375,179.994375 L180.00375,179.994375 L180.00375,172.494375 Z M127.5,209.9925 L127.5,217.4925 L135.001875,217.4925 L135.001875,209.9925 L127.501875,209.9925 M82.5,179.994375 L82.5,172.494375 L74.99625,172.494375 L74.99625,179.994375 L82.5,179.994375 Z M120,209.9925 L112.498125,209.9925 L112.498125,217.4925 L119.998125,217.4925 L120,209.9925 Z M120,202.490625 L120,209.990625 L127.5,209.990625 L127.5,202.490625 L120,202.490625 Z M112.498125,194.998125 L112.498125,202.490625 L119.998125,202.490625 L119.998125,194.998125 L112.498125,194.998125 Z M105.005625,209.9925 L97.50375,209.9925 L97.50375,217.4925 L105.00375,217.4925 L105.005625,209.9925 Z M105.005625,209.9925 L112.5,209.9925 L112.5,202.490625 L105.0075,202.490625 L105.0075,209.990625 M74.998125,150 L82.5,150 L82.5,142.5 L75,142.5 L74.998125,150 Z M74.998125,157.5 L74.998125,164.994375 L82.498125,164.994375 L82.498125,157.5 L74.998125,157.5 Z M74.998125,164.9925 L67.49625,164.9925 L67.49625,172.4925 L74.99625,172.4925 L74.998125,164.9925 Z M74.998125,149.998125 L67.498125,149.998125 L67.498125,157.498125 L74.998125,157.498125 L74.998125,149.998125 Z M67.498125,142.498125 L74.998125,142.498125 L74.998125,134.994375 L67.498125,134.994375 L67.498125,142.498125 Z M82.5,134.998125 L82.5,127.49625 L75,127.49625 L75,134.99625 L82.5,134.99625 M90.001875,120.00375 L82.501875,120.00375 L82.501875,127.49625 L90.001875,127.49625 L90.001875,120 M90.001875,104.99625 L82.501875,104.99625 L82.501875,112.49625 L90.001875,112.49625 L90.001875,104.99625 Z M74.998125,112.49625 L74.998125,120 L82.5,120 L82.5,112.5 L75,112.5 M120,112.5 L120,120 L127.5,120 L127.5,112.5 L120,112.5 Z M127.5,104.998125 L127.5,97.49625 L120,97.49625 L120,104.99625 L127.5,104.998125 Z M112.498125,104.998125 L112.498125,112.5 L119.998125,112.5 L119.998125,105 L112.498125,104.998125 Z M105.005625,112.498125 L105.005625,104.998125 L97.50375,104.998125 L97.50375,112.498125 L105.005625,112.498125 Z M105.005625,112.498125 L105.005625,119.998125 L112.5,119.998125 L112.5,112.49625 L105.005625,112.498125 Z M97.50375,119.998125 L97.50375,112.498125 L90,112.498125 L90,119.998125 L97.5,119.998125 M97.5,104.99625 L97.5,97.494375 L90,97.494375 L90,104.994375 L97.5,104.99625 Z M105.00375,104.99625 L112.49625,104.99625 L112.49625,97.49625 L105.00375,97.49625 L105.00375,104.99625 Z M172.5,164.99625 L165,164.99625 L165,172.49625 L172.5,172.49625 L172.5,164.99625 Z M172.5,164.99625 L180.001875,164.99625 L180.001875,157.5 L172.501875,157.5 L172.501875,164.9925 M180.001875,142.49625 L172.501875,142.49625 L172.501875,149.99625 L180.001875,149.99625 L180.001875,142.49625 Z M180.001875,127.494375 L172.501875,127.494375 L172.501875,134.994375 L180.001875,134.994375 L180.001875,127.494375 Z M165,149.998125 L165,157.498125 L172.5,157.498125 L172.5,149.998125 L165,149.998125 Z M165,134.994375 L165,142.49625 L172.5,142.49625 L172.5,134.99625 L165,134.994375 Z" id="Shape" fill="#0000FF" fill-rule="nonzero"></path>
            <path d="M194.998125,179.994375 L202.498125,179.994375 L202.498125,172.494375 L194.998125,172.494375 L194.998125,179.994375 Z M210,202.490625 L210,209.990625 L202.5,209.990625 L202.5,217.4925 L165,217.4925 L165,209.9925 L150,209.9925 L150,202.490625 L142.5075,202.490625 L142.5075,187.49625 L135.005625,187.49625 L135.005625,209.9925 L142.505625,209.9925 L142.505625,217.4925 L150,217.4925 L150,224.994375 L157.5,224.994375 L157.5,232.49625 L202.5,232.49625 L202.5,224.99625 L217.50375,224.99625 L217.50375,217.4925 L225.00375,217.4925 L225.00375,195 L217.50375,195 L217.50375,202.4925 L210.00375,202.4925 M195,164.994375 L187.498125,164.994375 L187.498125,172.494375 L194.998125,172.494375 L194.998125,164.994375 M202.501875,127.494375 L202.501875,134.99625 L225.005625,134.99625 L225.005625,120.00375 L217.505625,120.00375 L217.505625,127.49625 L202.5,127.49625 M149.998125,149.998125 L142.505625,149.998125 L142.505625,157.498125 L149.998125,157.498125 L149.998125,149.998125 Z M142.505625,142.498125 L135.00375,142.498125 L135.00375,149.998125 L142.50375,149.998125 L142.50375,142.498125 M202.50375,120 L195,120 L195,127.4925 L202.5,127.4925 L202.50375,120 Z" id="Shape" fill="#808000" fill-rule="nonzero"></path>
            <path d="M90.001875,209.9925 L82.501875,209.9925 L82.501875,217.4925 L22.501875,217.4925 L22.501875,224.994375 L15.001875,224.994375 L15.001875,232.49625 L82.5,232.49625 L82.5,224.99625 L90.001875,224.99625 L90.001875,209.9925 Z M105.005625,187.49625 L97.50375,187.49625 L97.50375,202.490625 L105.00375,202.490625 L105.005625,187.49625 Z M105.005625,187.49625 L112.5,187.49625 L112.5,179.99625 L105.0075,179.99625 L105.005625,187.49625 Z M74.998125,97.494375 L74.998125,104.994375 L82.5,104.994375 L82.5,97.494375 L74.998125,97.494375 Z M74.998125,104.994375 L67.49625,104.994375 L67.49625,112.49625 L74.99625,112.49625 L74.998125,104.994375 Z M37.5,120 L37.5,134.9925 L60.005625,134.9925 L60.005625,127.4925 L67.498125,127.4925 L67.498125,120 L37.5,120 Z" id="Shape" fill="#800000" fill-rule="nonzero"></path>
            <polygon id="Path" fill="#FF0000" fill-rule="nonzero" points="37.5 134.994375 37.5 120.001875 67.5 120.001875 67.5 104.99625 75 104.99625 75 97.494375 15.001875 97.494375 15.001875 224.994375 22.50375 224.994375 22.50375 217.494375 82.5 217.494375 82.5 209.9925 90.001875 209.9925 90.001875 202.490625 97.501875 202.490625 97.501875 187.49625 105.005625 187.49625 105.005625 179.99625 112.498125 179.99625 112.498125 127.4925 97.50375 127.4925 97.50375 179.99625 90 179.99625 90 187.49625 82.5 187.49625 82.5 195 37.5 195"></polygon>
            <path d="M45.001875,44.9925 L45.001875,37.5 L37.501875,37.5 L37.501875,30 L30,30 L30,89.99625 L37.5,89.99625 L37.5,44.99625 L45.001875,44.99625 M52.501875,22.5 L45.001875,22.5 L45.001875,30 L52.501875,30 L52.501875,22.5 Z M37.501875,7.49625 L37.501875,15 L45.001875,15 L45.001875,7.5 L37.501875,7.5 M105.0075,44.998125 L105.0075,37.5 L97.505625,37.5 L97.505625,44.9925 L105.005625,44.9925 M75,67.5 L67.5,67.5 L67.5,75 L75,75 L75,67.5 Z M67.5,59.998125 L67.5,52.498125 L60.0075,52.498125 L60.0075,59.998125 L67.5,59.998125 Z M60.0075,44.99625 L60.0075,37.5 L52.505625,37.5 L52.505625,44.9925 L60.005625,44.9925 M120.00375,7.4925 L112.5,7.4925 L112.5,89.9925 L120,89.9925 L120,7.4925 M210.00375,82.490625 L210.00375,59.99625 L202.5,59.99625 L202.5,82.4925 L210,82.4925 M202.5,89.9925 L202.5,82.4925 L195,82.4925 L195,89.9925 L202.5,89.9925 Z M202.5,59.99625 L202.5,52.49625 L195,52.49625 L195,59.99625 L202.5,59.99625 Z M187.49625,44.9925 L180.00375,44.9925 L180.00375,52.494375 L187.5,52.494375 L187.5,44.994375 M157.5,22.494375 L150,22.494375 L150,44.990625 L165.00375,44.990625 L165.00375,37.5 L157.5,37.5 L157.5,22.498125 M157.5,22.498125 L165,22.498125 L165,14.994375 L157.5,14.994375 L157.5,22.494375 M187.49625,7.494375 L187.49625,14.994375 L194.99625,14.994375 L194.99625,7.4925 L187.49625,7.494375 Z M210,29.99625 L210,14.994375 L202.5,14.994375 L202.5,29.99625 L210,29.99625 Z" id="Shape" fill="#808080" fill-rule="nonzero"></path>
            <path d="M97.50375,7.4925 L97.50375,22.49625 L90,22.49625 L90,37.498125 L82.5,37.498125 L82.5,52.4925 L74.99625,52.4925 L74.99625,74.99625 L67.49625,74.99625 L67.49625,59.99625 L60.00375,59.99625 L60.00375,44.9925 L52.501875,44.9925 L52.501875,30 L45,30 L45,14.99625 L37.5,14.99625 L37.5,7.49625 L22.50375,7.49625 L22.50375,89.99625 L30,89.99625 L30,30 L37.5,30 L37.5,37.5 L45.001875,37.5 L45.001875,52.494375 L52.501875,52.494375 L52.501875,67.5 L60.00375,67.5 L60.00375,82.494375 L67.5,82.494375 L67.5,89.994375 L75,89.994375 L75,82.494375 L82.5,82.494375 L82.5,67.5 L90,67.5 L90,52.49625 L97.50375,52.49625 L97.50375,37.5 L105.00375,37.5 L105.00375,89.994375 L112.49625,89.994375 L112.49625,7.494375 L97.50375,7.4925 Z M157.5,67.49625 L142.505625,67.49625 L142.505625,82.490625 L149.998125,82.490625 L149.998125,89.990625 L194.998125,89.990625 L194.998125,82.490625 L202.498125,82.490625 L202.498125,59.99625 L194.998125,59.99625 L194.998125,52.49625 L180.00375,52.49625 L180.00375,59.99625 L187.49625,59.99625 L187.49625,67.49625 L194.99625,67.49625 L194.99625,75 L187.49625,75 L187.49625,82.490625 L157.5,82.490625 L157.5,67.5 M165,44.994375 L157.5,44.994375 L157.5,52.49625 L180.00375,52.49625 L180.00375,44.99625 L165,44.99625 M157.5,22.5 L157.5,14.99625 L142.505625,14.99625 L142.505625,44.9925 L149.998125,44.9925 L149.998125,22.49625 L157.498125,22.49625 M187.498125,14.994375 L187.498125,22.494375 L194.998125,22.494375 L194.998125,30 L202.498125,30 L202.498125,14.9925 L187.49625,14.9925 M187.49625,14.9925 L187.49625,7.4925 L157.5,7.4925 L157.5,14.9925 L187.49625,14.9925 Z" id="Shape" fill="#C0C0C0" fill-rule="nonzero"></path>
            <path d="M187.49625,149.998125 L187.49625,164.9925 L194.99625,164.9925 L194.99625,172.4925 L202.5,172.4925 L202.5,187.49625 L194.998125,187.49625 L194.998125,194.99625 L165,194.99625 L165,187.49625 L157.5,187.49625 L157.5,179.99625 L135.00375,179.99625 L135.00375,187.49625 L142.50375,187.49625 L142.50375,202.490625 L150,202.490625 L150,209.990625 L165,209.990625 L165,217.4925 L202.5,217.4925 L202.5,209.9925 L210,209.9925 L210,202.490625 L217.501875,202.490625 L217.501875,194.998125 L225.00375,194.998125 L225.00375,164.9925 L217.50375,164.9925 L217.50375,157.5 L202.5,157.5 L202.5,149.998125 L187.49625,149.998125 Z M202.5,104.998125 L202.5,97.498125 L149.998125,97.498125 L149.998125,104.998125 L142.505625,104.998125 L142.505625,112.498125 L135.00375,112.498125 L135.00375,142.498125 L142.50375,142.498125 L142.50375,149.998125 L150,149.998125 L150,127.494375 L157.5,127.494375 L157.5,120 L202.5,120 L202.5,127.4925 L217.50375,127.4925 L217.50375,120 L225.00375,120 L225.00375,112.5 L217.50375,112.5 L217.50375,104.99625 L202.5,104.998125 Z" id="Shape" fill="#FFFF00" fill-rule="nonzero"></path>
        </g>
    </g>
</svg>