<?xml version="1.0" encoding="UTF-8"?>
<svg width="241px" height="241px" viewBox="0 0 241 241" version="1.1" xmlns="http://www.w3.org/2000/svg" xmlns:xlink="http://www.w3.org/1999/xlink">
    <title>mssql</title>
    <defs>
        <linearGradient x1="25.8951071%" y1="76.6664694%" x2="38.3411716%" y2="69.8610115%" id="linearGradient-1">
            <stop stop-color="#909CA9" offset="0%"></stop>
            <stop stop-color="#EDEDEE" offset="100%"></stop>
        </linearGradient>
        <linearGradient x1="0.167947727%" y1="49.8457052%" x2="18.5944843%" y2="49.8457052%" id="linearGradient-2">
            <stop stop-color="#939FAB" offset="0%"></stop>
            <stop stop-color="#DCDEE1" offset="100%"></stop>
        </linearGradient>
        <radialGradient cx="44.3461988%" cy="43.8808738%" fx="44.3461988%" fy="43.8808738%" r="12.8443562%" gradientTransform="translate(0.4435, 0.4388), scale(0.6965, 1), rotate(-171.4801), translate(-0.4435, -0.4388)" id="radialGradient-3">
            <stop stop-color="#EE352C" offset="0%"></stop>
            <stop stop-color="#A91D22" offset="100%"></stop>
        </radialGradient>
    </defs>
    <g id="Page-1" stroke="none" stroke-width="1" fill="none" fill-rule="evenodd">
        <g id="mssql" transform="translate(-86.549, -202.1087)">
            <rect id="box" x="87" y="203" width="240" height="240"></rect>
            <g id="shape" transform="translate(97, 203)" fill-rule="nonzero">
                <path d="M137.80784,112 L89.9647044,127.699208 L48.341843,146.159766 L36.6972339,149.249066 C33.7315932,152.083815 30.6220395,154.954929 27.2588454,157.862072 C23.5703047,161.059795 20.1349041,163.96744 17.49461,166.074733 C14.5656562,168.400716 10.2260887,172.76143 8.02036835,175.52278 C4.72938094,179.665475 2.12577381,184.062554 1.00465355,187.442602 C-0.984446927,193.54797 -0.00757313461,199.725565 3.82554755,205.431428 C8.74360182,212.699117 18.5438572,220.112264 29.9708459,225.163567 C35.7934006,227.744268 45.5933224,231.050917 52.970237,232.903994 C65.2290193,236.029491 88.9519774,239.409204 102.006366,239.918306 C104.645827,240.027231 108.190121,240.027231 108.334367,239.918306 C108.624028,239.735981 110.649148,235.848004 113.000115,231.015055 C121.028224,214.552529 126.814091,199.107872 129.959999,185.916637 C131.840372,177.922161 133.322859,167.274256 134.298899,154.664684 C134.552539,151.139513 134.660599,139.328952 134.443646,135.331212 C134.117966,128.790141 133.539312,123.484789 132.635979,118.288029 C132.491232,117.524711 132.454545,116.834122 132.527252,116.797925 C132.671499,116.688999 133.105405,116.543709 139,114.835252 L137.807173,112 L137.807173,112 L137.80784,112 L137.80784,112 Z M126.886798,118.432648 C127.320705,118.432648 128.477512,129.588817 128.766672,136.639326 C128.839379,138.129094 128.802692,139.110263 128.730652,139.110263 C128.441659,139.110263 122.619104,135.658324 118.461137,133.041929 C114.844636,130.752311 107.974001,126.173243 106.889235,125.301167 C106.526867,125.046951 106.562887,125.010754 109.528695,123.992886 C114.554809,122.284596 126.489078,118.432648 126.886798,118.432648 L126.886798,118.432648 Z M102.513147,126.500355 C102.838827,126.500355 103.669954,126.972255 105.659054,128.208142 C113.108342,132.895969 123.234278,138.565299 127.573678,140.455244 C128.911418,141.036572 129.055665,140.818218 125.982465,142.926349 C119.400823,147.432353 111.191448,151.865629 101.138219,156.335604 C99.3665727,157.135118 97.8840858,157.752643 97.8480659,157.752643 C97.776026,157.752643 97.9923123,156.844706 98.2813056,155.754276 C100.704313,146.704897 102.07874,137.547431 102.151447,130.206677 C102.187467,126.572414 102.187467,126.572414 102.513147,126.463991 C102.44044,126.500355 102.47646,126.500355 102.513147,126.500355 L102.513147,126.500355 Z M97.4866993,128.426161 C97.7029856,128.643845 97.5587391,136.784448 97.2692456,139.001002 C96.6183855,144.306856 95.6058253,149.248898 93.9429053,154.809471 C93.5450185,156.153111 93.1828181,157.280408 93.1112786,157.352802 C92.9658648,157.534289 88.0116238,152.664808 86.3843902,150.775199 C83.5634962,147.504412 81.3581094,144.233792 79.730709,141.036069 C78.8989155,139.400676 77.5973621,136.20312 77.7055886,136.093859 C78.2840754,135.694186 97.3419525,128.281039 97.4866993,128.426161 Z M73.8359477,137.76545 C73.8719677,137.76545 73.9079876,137.76545 73.9446746,137.801647 C74.0167144,137.874375 74.2703547,138.456039 74.4873081,139.109928 C75.6441148,142.271622 78.2473884,146.923084 80.4901292,149.903123 C82.9491563,153.17391 86.1679371,156.662213 88.8432506,158.951664 C89.7115643,159.678449 90.5066709,160.368703 90.6148974,160.477964 C90.8323511,160.69615 90.9045577,160.659451 85.0097964,162.912872 C78.1758488,165.529267 70.7258938,168.145662 62.1913386,170.907347 C60.1526219,171.567858 58.1157647,172.23415 56.0807913,172.906217 C55.7547776,173.015478 55.8635044,172.833488 56.8036912,171.343888 C61.034532,164.693388 67.4712598,151.647442 71.0877606,142.416912 C71.7026008,140.817883 72.3172742,139.219189 72.426001,138.855712 C72.5707478,138.34661 72.7511809,138.165123 73.2211076,137.910572 C73.4742476,137.838514 73.7277212,137.76545 73.8359477,137.76545 L73.8359477,137.76545 Z M66.6041134,140.781686 C66.7123399,140.85475 64.8679862,144.742727 63.0598191,148.304094 C59.5518784,155.172277 55.7187577,161.932038 50.58375,170.1447 C49.7159366,171.561739 48.8844766,172.870356 48.7757498,173.015646 C48.5951498,173.270197 48.5224429,173.197133 47.9439562,172.070841 C46.7144427,169.635933 45.7015489,166.510436 45.1592489,163.63949 C44.6166154,160.804741 44.7253422,155.862866 45.3403491,152.810433 C45.8099422,150.557515 45.7742558,150.593879 46.8590227,150.048581 C51.4877502,147.686569 66.4593666,140.636396 66.6041134,140.781686 L66.6041134,140.781686 Z M128.984125,143.325855 L128.984125,144.851987 C128.984125,152.955891 128.116312,164.075863 126.850111,172.180102 C126.633158,173.597141 126.451724,174.75963 126.416205,174.796497 C126.416205,174.796497 125.367625,174.506084 124.138111,174.142105 C118.713943,172.433982 112.819349,169.926513 107.503241,166.983509 C103.994967,165.057367 98.8964792,161.895338 99.0413927,161.749881 C99.0769124,161.713851 100.596086,160.914337 102.367733,159.969365 C109.456488,156.262875 116.254416,152.26547 122.14901,148.304429 C124.355064,146.814326 127.681405,144.416285 128.405472,143.761893 L128.984125,143.325855 Z M39.3008411,154.081847 C39.4454211,154.081847 39.4092344,154.372595 39.192281,155.680877 C39.0475343,156.626016 38.8669343,158.370336 38.7950612,159.569021 C38.5050675,164.874875 39.373548,168.799886 41.9771551,174.177967 C42.7003885,175.66807 43.2793755,176.903622 43.2426886,176.939652 C42.9893818,177.158006 19.050304,184.208347 11.5279756,186.279443 C9.28606861,186.896968 7.33365509,187.442266 7.18824131,187.478128 C6.93560154,187.551192 6.89924809,187.514995 7.00764139,186.896633 C7.83926816,181.555084 11.8896757,174.57764 17.5307967,168.69029 C21.2918775,164.765782 24.2935382,162.476499 29.4285458,159.532489 C33.1170865,157.425196 38.794561,154.264005 39.2284677,154.118212 C39.2288012,154.081847 39.2648211,154.081847 39.3008411,154.081847 L39.3008411,154.081847 Z M95.7145522,164.220818 C95.7505721,164.184621 96.6183855,164.657359 97.6669657,165.274884 C105.405914,169.781223 116.182209,173.96045 125.366957,176.104275 L126.199251,176.286265 L125.041778,176.939652 C120.23245,179.629111 104.429374,186.242743 88.2650974,192.311915 C85.91413,193.183656 83.6000164,194.056234 83.1654427,194.237721 C82.7315359,194.419208 82.3336491,194.528469 82.3336491,194.492272 C82.3336491,194.455405 82.9850095,193.183656 83.816136,191.621326 C88.3364702,183.117749 92.8933246,172.760927 95.207605,165.565464 C95.4975988,164.875042 95.6778652,164.257518 95.7145522,164.220818 L95.7145522,164.220818 Z M89.9647044,166.110762 C90.0013913,166.147797 89.7117311,166.910277 89.3498642,167.782353 C86.2039571,175.450051 82.0808426,183.808841 76.8014217,193.184326 C75.4636816,195.583037 74.3423946,197.509178 74.3057076,197.509178 C74.270188,197.509178 73.1849209,196.854619 71.8832007,196.055272 C64.2162923,191.330913 57.4180311,185.516628 52.9704038,179.883829 L52.3192102,179.084315 L55.6096973,178.175707 C67.3988864,174.941787 77.4154281,171.453149 87.360597,167.165163 C88.7712107,166.5835 89.9286844,166.110762 89.9647044,166.110762 L89.9647044,166.110762 Z M125.693305,178.648109 C125.693305,178.648109 125.729491,178.684474 125.693305,178.648109 C125.729325,179.483988 123.884971,186.970199 122.365964,192.384309 C121.10043,196.926845 120.014996,200.488547 118.026563,206.7749 C117.15875,209.537423 116.39983,211.826203 116.363143,211.826203 C116.327123,211.826203 116.110169,211.790006 115.893216,211.71778 C105.153107,209.754772 95.5337855,207.029451 86.493117,203.39569 C83.961383,202.377822 80.3453824,200.742428 80.1284291,200.560941 C80.0563892,200.487542 82.2262564,199.470679 84.9744435,198.271323 C101.42838,191.039663 118.49699,182.826666 124.355064,179.302166 C125.041944,178.865961 125.584578,178.648109 125.693305,178.648109 L125.693305,178.648109 Z M43.2066686,181.482858 C43.279042,181.555252 38.6863344,188.205752 32.2491063,197.254292 C30.0071993,200.415986 27.4035922,204.122476 26.4273854,205.503319 C25.4508452,206.884329 23.9683583,209.064853 23.1365648,210.373135 L21.6170574,212.735314 L19.9896571,211.354471 C18.07293,209.755107 14.7464229,206.339365 13.2637693,204.449588 C10.1535485,200.561611 8.05655504,196.455113 7.22476152,192.712426 C6.82687472,190.967772 6.82687472,190.095193 7.18807455,189.986771 C7.73037458,189.84148 17.3858832,187.551862 26.4270519,185.443731 C31.4536662,184.281243 37.2753871,182.9004 39.3728809,182.391634 C41.4705415,181.882029 43.1706487,181.482858 43.2066686,181.482858 L43.2066686,181.482858 Z M47.8352294,183.263542 L48.9920361,184.571656 C54.2000841,190.422473 59.5158584,194.747661 65.952753,198.526209 C67.1102267,199.180769 67.9778734,199.761762 67.9051665,199.798796 C67.6526935,199.980283 45.5568022,207.86533 35.3229736,211.426865 C29.5734594,213.461764 24.8358382,215.09699 24.8001518,215.09699 C24.7641319,215.09699 24.4384517,214.879307 24.0762513,214.624756 L23.4257248,214.152186 L24.4743049,212.626221 C27.8733521,207.683843 32.1412133,202.269399 41.434855,191.003969 L47.8352294,183.263542 Z M76.6933619,204.013383 C76.7288816,203.977353 78.3200953,204.558346 80.2726756,205.28597 C84.9744435,207.066318 88.6985038,208.19261 93.6894318,209.464694 C99.8371663,211.027527 108.732921,212.553827 113.976822,212.989697 C114.772429,213.062091 115.206336,213.135155 115.061589,213.244248 C114.807949,213.389706 109.492675,215.170389 105.587014,216.405942 C99.3665727,218.367945 80.3815691,224.000576 64.9041729,228.470719 C62.0472589,229.30643 59.588065,229.997019 59.4434851,230.033048 C59.0822852,230.106112 57.8884581,229.778497 57.8884581,229.633207 C57.8884581,229.560981 58.7562715,228.434522 59.8051852,227.198802 C65.0122327,220.948143 70.1839272,213.971034 74.4873081,207.357066 C75.6803015,205.539515 76.6933619,204.049747 76.6933619,204.013383 Z M70.3285477,204.19554 C70.3641936,204.231737 67.79694,208.374264 63.3132927,215.496831 C61.3962321,218.513067 59.2625516,221.928977 58.5029647,223.128333 C57.7797312,224.291156 56.6949644,226.108539 56.0804578,227.125738 L55.0315441,228.979318 L54.4892441,228.83386 C53.1870236,228.470384 44.0381287,225.235793 41.6151214,224.254792 C38.6134608,223.055436 35.5035735,221.6022 33.1889596,220.366648 C30.2963593,218.803815 26.6803587,216.477833 26.969352,216.405607 C27.0415586,216.36941 31.9959663,215.024261 37.9624339,213.389371 C53.8018638,209.064351 62.5890587,206.557216 68.3394068,204.740336 C69.3883204,204.413224 70.2921538,204.158673 70.3285477,204.19554 Z M115.350583,214.806243 L115.386602,214.806243 C115.531349,215.170054 109.673442,231.522984 107.538927,236.683045 C107.069501,237.845869 106.889235,238.137119 106.635594,238.100085 C106.020754,238.064391 97.522886,236.865035 92.3510246,236.101717 C83.3470431,234.720875 68.2308467,232.067612 64.4340795,231.195872 L63.566266,231.014385 L68.9537466,229.777995 C80.5261491,227.1616 86.0950635,225.74456 91.7361844,224.000241 C98.8604593,221.819884 105.912528,219.094228 113.036135,215.751215 C114.157089,215.24228 115.097442,214.842607 115.350583,214.806243 Z" id="Shape" fill="url(#linearGradient-1)"></path>
                <path d="M89.5343017,0.00188324607 C88.7338867,-0.107818553 75.8181983,4.5985073 67.4872387,8.01757494 C56.2451911,12.6509923 47.5142756,17.0634801 42.1296351,20.8865963 C40.129017,22.3211974 37.6182203,24.8579031 37.2186,25.8504755 C37.0731463,26.2182393 37,26.6594203 37,27.1006013 L41.8753008,31.7703033 L53.4805633,35.5206806 L81.0939582,40.5213531 L112.672352,46 L113,43.2423647 C112.891119,43.2423647 112.817973,43.2057409 112.709764,43.2057409 L108.561228,42.5436303 L107.725079,41.0362903 C103.431929,33.3881929 98.7024172,23.901785 95.9376217,17.5039829 C93.7913821,12.5401037 91.7538553,6.8047512 90.6257919,2.68644055 C90.007236,0.18618905 89.9347608,0.0391852487 89.5351405,0.0025614643 L89.5351405,0.00171369152 L89.5343017,0.00171369152 L89.5343017,0.00188324607 Z M88.9514801,1.87766531 L88.9888921,1.87766531 C89.0246264,1.91394999 89.1702479,2.94416348 89.3160372,4.15681767 C89.933922,9.30517225 91.0626565,14.2682037 92.84501,19.6366401 C94.1908346,23.6813641 94.1908346,23.4609431 92.6267455,22.9826297 C88.9159136,21.9534336 72.2898965,19.0486249 60.2477694,17.3573182 C58.3194587,17.0997648 56.6822234,16.8425505 56.6822234,16.8059268 C56.5367696,16.658923 65.3770689,11.9888818 69.2699278,10.1509104 C74.2541092,7.83394736 87.9333039,2.0612929 88.9514801,1.87766531 L88.9514801,1.87766531 Z M53.8803514,18.3498906 L55.2998256,18.8273562 C63.0120615,21.4751202 82.4027063,25.225667 93.0993444,26.1080289 C94.2995475,26.2184089 95.3187303,26.3289585 95.3544646,26.3289585 C95.3907022,26.3655823 94.3726938,26.9171432 93.0626035,27.5419518 C87.8970663,30.1525833 82.2213505,33.3515691 78.2920863,35.8151968 C77.1282886,36.5502159 76.0727004,37.1389093 75.9275822,37.1389093 C75.7819607,37.1389093 75.0182866,36.9917359 74.2178716,36.8813559 L72.7626631,36.6604263 L69.1249774,33.0568833 C62.7218251,26.7698003 57.7010706,21.9164707 55.77276,20.0776515 L53.8803514,18.3498906 L53.8803514,18.3498906 Z M52.4256462,19.4894667 L57.5552813,25.9610251 C60.3563144,29.5276052 63.1940884,33.0204291 63.8131476,33.7922414 C64.4310324,34.5649015 64.9407077,35.1902188 64.9044701,35.2268425 C64.7588486,35.337053 57.4831417,33.902791 53.6261849,33.0207682 C49.660683,32.1012738 48.0236154,31.6600929 45.5861328,30.8882805 L43.5850114,30.22617 L43.5850114,29.7110632 C43.621249,27.2474355 46.7140284,23.5708145 51.9527119,19.8207763 L52.4256462,19.4894667 Z M96.0099291,28.3141032 C96.1557184,28.3141032 96.3370742,28.6449042 96.7736032,29.6376461 C98.0105472,32.3951119 101.867672,39.8227884 102.812702,41.2565417 C103.104616,41.7350247 103.613117,41.7716484 98.4839849,40.9259103 C86.1511181,38.9031244 82.1851129,38.2420312 82.1851129,38.1684446 C82.1851129,38.1318208 82.5489989,37.8742674 83.0219333,37.616714 C86.8421492,35.4845655 90.6982671,32.7633844 94.1183594,29.8585757 C94.9551798,29.1598414 95.7191894,28.4980699 95.8643076,28.3875204 C95.9005452,28.3141032 95.9736915,28.2774794 96.0099291,28.3141032 Z" id="Shape" fill="url(#linearGradient-2)"></path>
                <path d="M37.0963326,25 C37.0963326,25 36.2996147,26.2653479 37.0604068,28.1446219 C37.5319542,29.3006496 38.9086653,30.7098135 40.4665095,32.1556396 C40.4665095,32.1556396 56.5913583,47.8394205 58.5482299,50.0803177 C67.4618458,60.3432504 71.3393289,70.4620337 71.701762,84.4115231 C71.919155,93.3737789 70.2156024,101.251832 65.9763545,110.394899 C58.4392827,126.80176 42.5314928,144.907083 18,165 L21.5879042,163.80731 C23.9068747,162.072352 27.0594915,160.229907 34.4513561,156.182227 C51.51813,146.858015 70.7232427,138.293378 94.2767174,129.475771 C128.192538,116.754801 183.960119,101.865591 215.702009,97.0236733 L219,96.5174009 L218.49236,95.7223298 C215.594064,91.2410353 213.600431,88.4587032 211.208607,85.4953928 C204.251862,76.894427 195.80946,69.9200989 185.481703,64.1377941 C171.277299,56.2239124 152.905164,50.0443221 129.642438,45.4547072 C125.257983,44.5869782 115.619166,42.9248448 107.792348,41.7323215 C91.1961194,39.1671299 80.4703378,37.3960095 68.6577582,35.3722529 C64.4185103,34.6491731 58.0766825,33.5653035 53.8733605,32.6620787 C51.699263,32.1918019 47.5325353,31.2162526 44.2713055,30.0960539 C41.6624219,29.0836757 37.8935518,28.0717973 37.0963326,25 L37.0963326,25 Z M46.4457372,34.0349137 C46.4814959,33.9992513 47.061155,34.215392 47.8226154,34.4685282 C49.1994937,34.9378051 50.9748981,35.4800732 53.0771439,36.0586703 C54.6675237,36.4949411 56.261919,36.9165196 57.8601249,37.3233516 C60.0342224,37.8651198 61.8457197,38.3712256 61.8818126,38.3712256 C62.135967,38.6243618 65.7958899,50.2961251 67.0278952,54.7774196 C67.4982729,56.476382 67.8613744,57.9215416 67.8251144,57.9215416 C67.7878518,57.9582038 67.389827,57.3434444 66.918948,56.5123777 C62.6791989,49.0677728 55.9756063,41.5150143 48.2209744,35.4435776 C47.2068634,34.7214978 46.4457372,34.0709093 46.4457372,34.0349137 L46.4457372,34.0349137 Z M64.2736373,38.9496561 C64.4549375,38.9496561 65.2521567,39.058143 66.2300076,39.2747836 C72.3902011,40.6479519 83.4423229,42.7440332 90.5080144,43.9367231 C91.7039268,44.1172014 92.6463532,44.3345086 92.6463532,44.4063333 C92.6463532,44.4789912 92.2110658,44.7314609 91.6673326,45.0209261 C90.4720886,45.6350189 85.6523462,48.4896756 84.0584091,49.5740453 C80.0358859,52.2482237 76.4127243,55.1392095 73.8035065,57.7410633 C72.7528014,58.7892706 71.8464679,59.6564996 71.8464679,59.6564996 C71.8464679,59.6564996 71.6297432,59.0424068 71.4477747,58.2829981 C70.1440849,53.2597688 67.42592,45.8151639 64.9619094,40.5754606 C64.5632162,39.7445605 64.236876,38.9854851 64.236876,38.9134937 C64.236876,38.9856517 64.236876,38.9496561 64.2736373,38.9496561 L64.2736373,38.9496561 Z M95.6535957,44.9124391 C95.8709887,44.9844304 96.2334219,46.2132827 96.9579539,48.9234568 C98.2989064,54.1638267 98.9149926,60.0181228 98.6975995,65.4749667 C98.6247453,66.9927842 98.5525595,68.4019481 98.4797052,68.583093 L98.3712593,68.9440496 L96.4870749,68.3299568 C92.609759,67.1012712 86.3050266,65.2578261 80.9061265,63.7403419 C77.8255284,62.9091085 75.3259262,62.1501998 75.3259262,62.0780418 C75.3259262,61.8609012 79.8193284,57.37994 81.7396057,55.6816442 C85.3986932,52.4648643 95.3272555,44.8037855 95.6535957,44.9124391 L95.6535957,44.9124391 Z M98.1538663,45.2733957 C98.2628135,45.1655753 113.155657,47.7307669 119.93177,49.0319438 C124.968905,50.0074931 132.28825,51.5254773 132.722869,51.7064555 C132.940262,51.7784469 132.179135,52.2120614 129.751218,53.2960977 C120.185256,57.5969139 113.082636,61.4631157 106.017445,66.1615508 C104.169354,67.3902364 102.611008,68.4019481 102.574916,68.4019481 C102.538823,68.4019481 102.502563,67.3542407 102.502563,66.0892262 C102.502563,59.2232184 101.125517,52.2845527 98.5884853,46.4302566 C98.3349993,45.8519928 98.1176063,45.310058 98.1538663,45.2733957 L98.1538663,45.2733957 Z M136.67237,52.8628165 C136.781318,52.9711368 136.309937,55.8986181 135.875151,57.6329096 C134.570793,63.0175955 131.056077,71.0046352 126.744476,78.5208981 C125.982849,79.8580706 125.294577,80.9422736 125.221555,80.9782693 C125.149871,81.014265 124.171352,80.4719968 123.047792,79.821575 C118.844637,77.3642038 114.061656,75.0514819 108.843388,72.8829093 C107.394491,72.2688165 106.125891,71.762544 106.089631,71.690886 C105.835477,71.4737454 117.503685,63.7763376 123.663878,60.0902808 C128.555807,57.1271371 136.52733,52.7180006 136.67237,52.8628165 L136.67237,52.8628165 Z M139.426127,53.2962644 C139.752467,53.2962644 146.347447,55.1033804 149.789308,56.1152588 C158.305067,58.6451212 168.088422,62.2225244 174.466008,65.1135102 L177.110818,66.3065334 L175.263395,66.7398146 C159.682446,70.3172178 146.347447,74.4375557 133.483494,79.6412634 C132.432621,80.0748779 131.490362,80.4363344 131.418677,80.4363344 C131.345823,80.4363344 131.708256,79.6052677 132.179302,78.5930561 C136.056618,70.3898757 138.556889,61.8250722 139.172307,54.5247833 C139.209235,53.8380326 139.31718,53.2962644 139.426127,53.2962644 L139.426127,53.2962644 Z M73.7674136,68.3299568 C73.8758595,68.2213032 78.9128278,69.4141597 81.6304914,70.1724019 C85.7612934,71.3292628 94.5300363,74.2560775 94.5300363,74.4732181 C94.5300363,74.5092138 93.5520183,75.3404472 92.3928672,76.3526588 C87.6459791,80.2916852 83.0798898,84.4470189 77.6079683,89.7233845 C75.9772698,91.2778642 74.6007257,92.5425455 74.5285399,92.5425455 C74.4556857,92.5425455 74.420094,92.3252383 74.4556857,92.036273 C75.2889978,85.9648364 75.1083661,78.1592749 73.9487137,70.2450598 C73.8395995,69.2328482 73.7311536,68.3659524 73.7674136,68.3299568 L73.7674136,68.3299568 Z M179.612091,68.4386104 C179.683775,68.5104351 177.292619,72.2688165 175.770868,74.4007268 C173.597104,77.5085198 170.407392,81.6290244 163.196493,90.6634381 C159.392533,95.4331979 155.116023,100.818217 153.703386,102.625 C152.253319,104.431783 151.058075,105.949267 151.021314,105.949267 C150.985221,105.949267 150.514843,105.299178 150.007203,104.504274 C145.948587,98.4328372 141.092751,93.120476 135.331251,88.3503829 C134.244286,87.4466582 133.049042,86.4709422 132.650349,86.1818103 C132.251655,85.892845 131.925315,85.6037131 131.925315,85.5677175 C131.925315,85.4595638 138.08484,82.8208811 142.760044,80.942107 C150.949462,77.6171734 162.10886,73.6421514 170.480079,71.0761266 C174.864701,69.703125 179.539237,68.3659524 179.612091,68.4386104 L179.612091,68.4386104 Z M182.40194,69.1608568 C182.546479,69.1250278 183.416553,69.5586424 184.467425,70.1724019 C193.272929,75.1956312 201.896465,81.6646867 208.709339,88.3142206 C210.629616,90.1936612 215.376504,95.1084036 215.30365,95.1443993 C215.30365,95.1443993 213.636859,95.2888819 211.680488,95.4331979 C196.425212,96.5900588 176.894594,99.8058388 158.124101,104.322962 C156.856002,104.611761 155.732944,104.864897 155.66009,104.864897 C155.588405,104.864897 157.001042,103.455733 158.776948,101.757437 C169.792309,91.169044 174.829444,84.4835145 180.771576,72.5576151 C181.604721,70.787328 182.329754,69.2695105 182.40194,69.1608568 C182.365847,69.1608568 182.365847,69.1608568 182.40194,69.1608568 L182.40194,69.1608568 Z M101.704842,77.4008661 C102.212482,77.5086865 106.92311,79.7139213 110.474086,81.4842084 C113.735316,83.1098463 118.627411,85.7123667 118.880897,85.9288407 C118.91699,85.9648364 117.177345,86.8683944 115.040343,87.9166017 C108.227469,91.3135266 102.393782,94.5294732 96.3057748,98.2156967 C94.5666305,99.263904 93.1172322,100.131633 93.0811393,100.131633 C92.9360992,100.131633 92.9721921,99.9863171 93.9507114,98.2156967 C97.2121083,92.2895759 99.8206577,85.2064276 101.306817,78.3037575 C101.451189,77.7618227 101.596396,77.4008661 101.704842,77.4008661 L101.704842,77.4008661 Z M96.9940469,78.2677619 C97.102994,78.3764155 95.8709887,82.8210477 95.1103637,85.2424232 C93.6242041,89.8320381 91.1241006,95.5778472 88.6966842,99.9144924 C88.1161897,100.925871 87.2467846,102.407693 86.7757385,103.238759 L85.8700734,104.684252 L83.840849,102.73332 C81.4857855,100.456427 79.5648398,99.0470967 77.1013305,97.7819155 C76.1223099,97.2764763 75.3616849,96.8423618 75.3616849,96.7705371 C75.3616849,96.4814052 81.5579714,90.8800787 86.3048595,86.8325654 C89.7107952,83.9052507 96.885601,78.1594415 96.9940469,78.2677619 L96.9940469,78.2677619 Z M125.802217,90.0851743 L127.577956,91.241202 C131.635402,93.879718 136.418383,97.3847966 140.078974,100.456427 C142.143791,102.154556 146.129552,105.732793 146.92744,106.600022 L147.361558,107.070299 L144.427169,107.901199 C127.83094,112.490314 115.003581,116.573989 100.038051,122.067329 C98.3712593,122.681422 96.9579539,123.187361 96.8490068,123.187361 C96.6322821,123.187361 96.4504807,123.367839 100.183258,119.934585 C109.749721,111.153808 118.228384,101.468139 124.533618,92.0361064 L125.802217,90.0851743 L125.802217,90.0851743 Z M118.228718,91.9642817 C118.300904,92.036273 113.33679,99.0107678 110.365139,102.949961 C106.814163,107.648063 100.50893,115.525949 96.1607347,120.657165 C94.3494046,122.789742 92.7915604,124.560362 92.7187061,124.596691 C92.609759,124.632687 92.573666,124.090752 92.573666,123.259519 C92.573666,118.886378 91.4506079,114.224605 89.4935693,110.24975 C88.66009,108.58745 88.5150499,108.189831 88.6968513,108.009352 C89.3851234,107.39476 99.9296048,101.395814 106.59677,97.8184111 C111.090005,95.4333646 118.119103,91.891957 118.228718,91.9642817 L118.228718,91.9642817 Z M72.4262941,103.167101 C72.5352412,103.167101 73.3687205,103.600383 74.3109798,104.106655 C76.6299502,105.371336 78.6954348,106.780667 80.5433591,108.298818 C80.615545,108.370809 79.673787,109.130051 78.4417817,110.032942 C74.9992518,112.490314 69.7814847,116.429673 66.7381492,118.851049 C63.548604,121.380745 63.4406594,121.452903 63.8025912,120.910968 C66.194416,117.260907 67.3896599,115.200988 68.6584265,112.563138 C69.7814847,110.214421 70.9045428,107.431589 71.701762,105.010213 C71.991508,103.962172 72.3541082,103.167101 72.4262941,103.167101 Z M84.6382353,112.707288 C84.818867,112.671625 85.0369284,112.996419 86.0147793,114.442246 C88.0802639,117.513376 89.6747023,121.633714 90.0738967,124.958315 L90.1455813,125.681394 L85.1819685,127.596831 C76.30361,131.029585 68.1148604,134.426843 62.5700847,136.956039 C61.0124076,137.679118 58.2945768,138.979795 56.5193396,139.847691 C54.7436011,140.750582 53.2942027,141.437333 53.2942027,141.401337 C53.2942027,141.365342 54.4172609,140.534108 55.7941391,139.521897 C66.6293691,131.68034 76.0140311,123.07904 83.0436297,114.478408 C83.804756,113.574683 84.4935294,112.74345 84.565381,112.707454 L84.6382353,112.707288 Z M79.021775,114.080789 C79.1668151,114.225272 75.0360131,118.886878 72.2095694,121.741701 C65.2160637,128.861345 58.294911,134.426843 49.7067998,139.847691 C48.6198346,140.534108 47.6416495,141.148201 47.5327024,141.220859 C47.2788822,141.365342 47.6048882,141.003719 51.3735912,136.920043 C53.7654159,134.354185 55.5769132,132.185945 57.6423977,129.5121 C59.019276,127.741647 59.2730962,127.48851 61.2663948,126.078513 C66.5931091,122.247807 78.8767349,113.935973 79.021775,114.080789 Z" id="Shape" fill="url(#radialGradient-3)"></path>
            </g>
        </g>
    </g>
</svg>