<?xml version="1.0" encoding="UTF-8"?>
<svg width="240px" height="240px" viewBox="0 0 240 240" version="1.1" xmlns="http://www.w3.org/2000/svg" xmlns:xlink="http://www.w3.org/1999/xlink">
    <title>mysql</title>
    <g id="Page-1" stroke="none" stroke-width="1" fill="none" fill-rule="evenodd">
        <g id="mysql" transform="translate(-15, -77)">
            <rect id="box" fill="#FFFFFF" x="15" y="77" width="240" height="240" rx="32"></rect>
            <g id="shape" transform="translate(55, 118)">
                <path d="M160.123763,-0.033828911 L160.123763,0.297838785 C159.356481,1.27997747 159.142572,2.70348213 158.384591,3.80444112 C157.298771,4.89066452 156.208301,5.88215913 155.117831,6.9721249 C151.96035,11.2407677 148.037913,14.9592818 143.803913,18.0247521 C140.318593,20.4395174 132.696928,23.7241503 131.28792,27.7624034 C131.28792,27.7624034 131.17399,27.8784169 131.067036,27.986244 C133.461885,28.2084473 136.296177,29.0855657 138.579421,29.7496028 C142.273999,30.7319753 145.647714,30.509772 149.456221,31.4921446 C151.200043,31.9332767 152.941541,32.4843409 154.690013,33.0225408 L154.690013,34.0147371 C152.720656,35.9808856 151.311648,38.6122408 149.244638,40.4714978 C143.699283,45.2865269 137.598231,49.9902204 131.28792,53.9372531 C127.909555,56.1272422 123.556975,57.5434961 119.964702,59.4090684 C118.664973,60.0670241 116.491008,60.3912071 115.726051,61.4921661 C113.765995,63.8996806 112.6732,67.0701711 111.261867,69.9209228 C108.109036,75.9351481 105.056185,82.6106037 102.340473,88.9702967 C100.382742,93.2366005 99.185317,97.5029043 96.790468,101.446429 C85.5765291,120.06005 73.3930252,131.329267 54.676001,142.387975 C50.6489344,144.689534 45.8615614,145.674246 40.751,146.878822 C38.0259873,146.993432 35.3079499,147.206279 32.5875873,147.313872 C30.8437652,148.083398 29.0999431,150.165092 27.5793302,151.149803 C21.3736485,155.08865 5.38396211,163.625935 0.810497941,152.35204 C-2.12842362,145.232178 5.16307798,138.229265 7.66720655,134.615537 C9.51565801,132.101131 11.9128322,129.249912 13.2125609,126.408048 C13.9751925,124.546218 14.1937515,122.572117 14.9587082,120.605033 C16.6978801,115.789068 18.3277725,110.423443 20.6179922,105.932597 C21.8107666,103.633377 23.1151455,101.221886 24.6380835,99.1518869 C25.5169699,97.940294 27.0352577,97.3999891 27.3630962,95.423549 C25.8448084,93.2366005 25.7262285,89.9526693 24.8566426,87.213721 C20.9411806,74.8428434 22.4617935,59.5168955 28.0141232,50.432288 C29.75097,47.6959126 33.8919663,41.6730331 39.4419709,43.9773985 C44.3386234,45.9444826 43.2504784,52.1846536 44.6641369,57.6548316 C44.9896503,58.97776 44.7710913,59.8457564 45.4221182,60.7203019 L45.4221182,60.4990341 C46.9450562,57.4382419 48.4726444,54.4899546 49.8863029,51.4144267 C53.2646676,46.0558182 70.3001167,25.5341144 75.4056885,22.0940511 C160.123763,-0.033828911 158.593849,0.5078794 160.123763,-0.033828911 Z" id="path9" fill="#2C7493" transform="translate(80.1238, 78.9662) scale(-1, 1) rotate(-180) translate(-80.1238, -78.9662)"></path>
                <path d="M37.9459364,38.5543055 C34.8104426,39.1999171 31.69491,38.9977783 29.6237626,38.5543055 L29.6237626,38.254403 L29.9573456,38.254403 C31.3429982,35.8711355 33.7477287,34.215291 35.4486356,32.1287355 C36.8306225,29.7390871 38.0329877,27.35901 39.4039773,24.9661711 C39.5726017,25.1129319 39.7375604,25.269264 39.7375604,25.269264 C42.1569538,26.7560146 43.6237626,30.3902104 43.6237626,32.1287355 C43.6237626,33.8672606 42.9333744,35.3829509 42.0682579,36.4326095 C40.6549757,37.908694 41.0814301,37.908694 37.9459364,38.5543055 Z" id="path3" fill="#FFFFFF" transform="translate(36.6238, 31.9662) scale(-1, 1) rotate(-180) translate(-36.6238, -31.9662)"></path>
            </g>
        </g>
    </g>
</svg>