<?xml version="1.0" encoding="UTF-8"?>
<svg width="650px" height="650px" viewBox="0 0 650 650" version="1.1" xmlns="http://www.w3.org/2000/svg" xmlns:xlink="http://www.w3.org/1999/xlink">
    <title>mythic-c2</title>
    <g id="Page-1" stroke="none" stroke-width="1" fill="none" fill-rule="evenodd">
        <g id="mythic-c2" transform="translate(-0.0062, 0)">
            <g id="Group-2" transform="translate(1, 59)" fill="#E01F2F" fill-rule="nonzero">
                <path d="M595.716246,450.34 C593.296246,449.8 588.376246,448.51 582.076246,446.18 C582.406246,446.3 582.726246,446.44 583.046246,446.57 C588.376246,448.55 592.456246,449.62 595.716246,450.34 Z" id="Path"></path>
                <path d="M597.406246,450.69 L597.406246,450.69 C596.876246,450.58 596.296246,450.46 595.716246,450.34 C596.806246,450.59 597.406246,450.69 597.406246,450.69 Z" id="Path"></path>
                <path d="M105.276246,441.66 C87.4862464,465.06 63.0062464,497.3 61.8962464,499.14 C60.7162464,501.11 53.9062464,512.68 41.5062464,517.6 C24.1862464,523.2 19.7262464,514.74 19.7262464,514.74 C19.7262464,514.74 -0.83375359,515.14 0.0262464101,531.79 L34.9762464,531.79 L34.9762464,531.77 L68.2862464,531.77 C68.2862464,531.77 68.8662464,517.19 83.4462464,514.28 L144.366246,465.46 C120.906246,461.63 110.156246,450.46 105.276246,441.66 Z" id="Path"></path>
                <g id="Group" transform="translate(10.5062, 0)">
                    <path d="M440.53,431.13 L364.24,503.22 L436.45,427.06 C435.75,426.36 435.03,425.66 434.29,424.94 C425.14,416.04 416.61,411.87 407.46,411.87 C396.55,411.87 384.75,417.58 370.37,425.27 C372.39,439.93 372.48,459.11 362.94,472.05 C362.87,472.14 362.8,472.24 362.73,472.33 C352.02,486.47 343.27,498.07 342.62,499.15 C341.43,501.13 334.51,512.9 321.9,517.76 C321.44,517.94 321,518.06 320.57,518.2 C320.06,518.38 319.53,518.53 318.99,518.69 C318.29,518.88 317.59,519.06 316.92,519.18 C316.9,519.18 316.9,519.18 316.88,519.18 C305.75,521.25 300.5,514.74 300.5,514.74 C300.5,514.74 279.94,515.14 280.8,531.79 L315.75,531.79 L315.75,531.77 L349.03,531.77 C349.03,531.77 349.61,517.19 364.19,514.28 C364.19,514.28 364.19,514.28 364.21,514.26 C364.26,514.21 364.46,514.07 364.75,513.82 L365.19,513.47 C372.18,507.69 414.78,472.38 438.49,446.53 C441.49,443.26 444.18,440.14 446.45,437.26 C446.2,437.01 445.96,436.75 445.71,436.5 C444.09,434.83 442.39,433.04 440.53,431.13 Z" id="Path"></path>
                    <path d="M338.269999,112.94 C338.269999,112.94 338.25,133.93 345.45,140.05 C352.65,146.2 367.86,141.51 377.6,130.29 C389.44,116.65 396.21,135.38 396.21,135.38 C396.58,120.82 383.43,119.58 383.43,119.58 C398.15,112.4 404.08,128.47 404.08,128.47 C403.41,121.27 399.87,112.89 387.91,112.909964 C371.4,112.95 369.12,130.51 354.61,132.98 C340.1,135.45 338.269999,112.94 338.269999,112.94 Z" id="Path"></path>
                    <path d="M635.35,244.33 C632.75,232.25 628.17,221.06 622.35,210.77 C616.52,200.48 609.34,191.08 600.94,182.73 C592.56,174.39 582.89,166.96 571.67,161.43 C560.54,155.92 548.42,152.65 536.53,151.35 C524.61,150.05 512.91,150.61 501.74,152.19 C490.59,153.79 479.86,156.42 469.78,159.27 C467.23,159.99 464.93,160.62 462.14,161.5 C460.79,161.92 459.47,162.29 458.1,162.76 L454.03,164.16 C448.59,166.14 442.98,168.6 437.84,171.4 C436.52,172.08 435.31,172.79 434.08,173.49 C432.83,174.19 431.71,174.88 430.55,175.56 L424.09,179.44 C419.98,181.9 416.01,184.08 411.9,186.15 C407.74,188.17 403.52,190.15 399.12,191.96 L395.84,193.33 L392.35,194.73 L385.43,197.47 C376.28,201.03 367.27,204.23 358.21,206.79 C349.17,209.37 340.09,211.3 331.01,212.43 C321.93,213.55 312.87,213.83 303.88,213.17 C302.76,213.08 301.63,213.03 300.51,212.94 L297.17,212.52 L293.82,212.1 C293.29,212.05 292.64,211.92 292.03,211.84 L290.22,211.56 C285.44,210.79 280.82,209.94 276.26,208.93 C267.15,206.91 258.35,204.24 250.32,200.73 C242.29,197.22 235.08,192.81 229.65,187.52 C224.19,182.22 220.71,176.21 219.1,169.27 C217.5,162.26 217.8,154.22 219.86,146.48 C220.86,142.6 222.28,138.79 224.09,135.17 C225.88,131.53 228.02,128.08 230.52,124.93 C233,121.75 235.77,118.85 238.83,116.36 C241.87,113.85 245.15,111.67 248.65,109.97 C250.37,109.06 252.23,108.46 254.01,107.69 C255.87,107.16 257.7,106.46 259.63,106.13 C263.44,105.27 267.39,104.81 271.45,104.87 C271.47,104.87 271.49,104.87 271.5,104.87 C274.33,104.89 277.12,105.36 279.84,106.08 C281.3,106.47 282.81,106.82 284.34,107.12 C288.27,107.89 291.73,108.7 294.81,109.56 C295.04,109.65 295.27,109.74 295.49,109.82 L295.53,109.75 C298.53,110.59 301.15,111.47 303.4,112.33 L303.4,112.22 C304.26,112.59 305.09,112.98 305.86,113.34 C305.88,113.34 305.88,113.34 305.9,113.36 C316.68,118.58 317.95,123.05 317.95,123.05 C317.99,123.14 318.04,123.17 318.07,123.26 C320.12,126.05 321.55,128.83 323.02,131.14 C328.89,140.13 331.36,142.17 331.36,142.17 L333.22,138.34 C325.67,130 323.44,105.69 323.44,105.69 C323.44,105.69 339.39,102.39 346.57,105.81 C353.52,109.16 347.52,121.93 347.17,122.55 C352.82,120.2 358.6,108.76 358.6,108.76 C363.34,106.07 362.13,97.59 362.13,97.59 C343.18,74.76 317.6,71.56 296.26,75.45 C293.78,75.49 291.34,75.59 288.92,75.78 C284.42,76.11 279.91,76.18 275.42,75.89 C274.24,75.82 273.07,75.77 271.89,75.73 C265.8,75.55 259.6,76.12 253.52,77.38 C250.45,77.92 247.48,78.89 244.48,79.77 C241.56,80.88 238.6,81.89 235.8,83.28 C230.15,85.93 224.86,89.3 220.03,93.15 C215.18,97 210.83,101.39 207,106.15 C203.14,110.89 199.82,116.04 197.04,121.45 C194.25,126.86 192,132.55 190.37,138.45 C187.09,150.23 186.1,162.98 188.75,175.82 C190.14,182.23 192.44,188.6 195.67,194.38 C198.88,200.18 202.94,205.39 207.4,209.89 C211.88,214.4 216.74,218.23 221.76,221.52 C226.78,224.8 231.96,227.58 237.2,229.97 C247.67,234.75 258.33,238.07 268.97,240.59 C274.27,241.85 279.61,242.91 284.83,243.82 L286.76,244.15 C287.41,244.26 287.99,244.38 288.73,244.47 L292.91,245.07 L297.11,245.65 C298.51,245.79 299.92,245.9 301.32,246.02 C312.54,246.99 323.82,246.78 334.88,245.58 C357.02,243.21 378.1,236.76 397.66,229.41 L404.91,226.65 L408.49,225.26 L412.23,223.77 C417.22,221.8 422.22,219.56 427.19,217.22 C432.14,214.81 437.09,212.16 441.73,209.48 C446.38,206.79 450.51,204.26 454.3,202.32 C458.09,200.34 461.82,198.77 465.91,197.33 L469.04,196.31 C470.08,195.96 471.2,195.68 472.27,195.36 C474.32,194.75 476.92,194.06 479.24,193.43 C488.69,190.88 497.73,188.85 506.65,187.69 C515.55,186.57 524.26,186.3 532.48,187.3 C540.7,188.3 548.41,190.55 555.41,194.11 C562.35,197.62 568.95,202.71 574.85,208.72 C580.73,214.73 585.91,221.64 589.97,229.04 C594.04,236.42 597.06,244.25 598.65,252.03 C600.2,259.79 600.25,267.41 598.67,274.26 C597.07,281.11 593.96,287.24 589.15,292.58 C584.41,297.94 578.07,302.5 570.87,305.98 C563.67,309.46 555.61,311.88 547.48,313.09 C543.42,313.7 539.33,314 535.36,313.97 C534.36,313.99 533.39,313.92 532.41,313.88 L529.6,313.6 C527.69,313.53 525.95,313.09 524.16,312.79 C523.25,312.68 522.42,312.39 521.56,312.14 C520.7,311.88 519.84,311.7 518.98,311.4 C517.29,310.72 515.59,310.22 513.87,309.35 L512.57,308.77 L511.92,308.47 L511.25,308.1 L508.58,306.66 C507.68,306.17 506.72,305.55 505.79,305.03 L504.39,304.19 L502.9,303.24 C499.04,300.82 494.61,297.87 489.89,294.99 L486.24,292.81 C485.03,292.09 483.68,291.39 482.39,290.69 C479.84,289.25 477.03,287.97 474.29,286.67 C473.61,286.34 472.9,286.04 472.18,285.76 L470.04,284.9 C468.6,284.34 467.18,283.72 465.72,283.23 L461.29,281.81 C459.81,281.34 458.34,280.86 456.83,280.55 L452.35,279.48 C451.59,279.3 450.86,279.13 450.1,278.97 L447.83,278.58 C444.83,278.02 441.79,277.68 438.77,277.33 C432.69,276.79 426.62,276.66 420.59,276.96 C419.1,277.05 417.6,277.21 416.11,277.31 L413.86,277.5 L411.65,277.8 L407.22,278.4 L402.86,279.21 C391.25,281.42 380.24,285.09 369.9,289.62 C364.72,291.87 359.71,294.38 354.82,297.01 C352.82,298.13 350.8,299.24 348.81,300.4 C312.35,310.9 273,305.49 241.25,284.33 C240.41,283.77 239.53,283.17 238.65,282.57 C237.56,282.48 236.61,282.32 235.51,282.22 C231.77,281.73 228.13,281.57 224.45,281.57 C220.22,281.57 216.07,281.97 212.03,282.66 L209.13,283.17 L206.14,283.91 C205.19,284.1 204.3,284.4 203.3,284.67 C202.35,285.02 201.37,285.21 200.51,285.62 C196.66,286.92 193.03,288.71 189.39,290.61 C192.29,287.66 195.57,285.06 199.26,283.04 C203,281.04 206.9,279.28 210.97,278.19 C215.08,277.05 219.36,276.35 223.54,276.1 C226.44,275.94 229.23,275.94 232.16,276.1 C225.94,268.37 212.37,252.92 201.02,249.02 C201.02,249.02 161.28,218.85 148.62,209.3 C135.91,199.62 121.45,182.17 123.68,176.44 C123.68,176.44 133.25,162.48 141.57,159.9 C149.84,157.2 152.04,147.62 152.04,147.62 C152.04,147.62 139.76,151.11 124.47,151.55 C109.18,151.99 102.24,155.94 102.24,155.94 C102.24,155.94 93.46,148.9 83.43,147.6 C83.43,147.6 84.27,117.45 124.07,98.2 C163.85,79.02 210.56,53.7 228.49,-1.42108547e-14 C227,2.35 203.52,39.6 175.21,50.1 C145.95,61.02 108.78,73.28 97.01,80.74 C85.16,88.17 62.45,113.09 49.31,159.87 L-1.42108547e-14,217.59 C-1.42108547e-14,217.59 2.58,224.56 6.94,224.12 C6.94,224.12 8.24,233.69 16.95,229.74 C16.95,229.74 19.18,239.82 17.41,243.75 C15.65,247.7 21.84,259.91 30.07,262.1 L29.28,257.31 C29.28,257.31 31.44,262.54 38.85,264.74 C38.85,264.74 31.02,254.68 34,245.05 C36.56,237.13 35.53,233.28 35.05,232.14 L38.84,239.81 C38.84,239.81 40.12,229.34 34.8,221.13 C36.73,223.62 46.16,234.05 66.06,227.07 C67.85,225.45 69.55,223.79 71.1,222.08 L73.28,219.55 C74.04,218.74 74.6,217.79 75.28,216.9 C76.67,215.2 77.77,213.32 79.11,211.47 C79.71,210.52 80.27,209.54 80.81,208.52 C81.41,207.57 82,206.59 82.71,205.64 C83.82,203.64 84.96,201.65 86.31,199.6 C86.15,201.99 85.82,204.34 85.41,206.68 C85.02,207.87 84.76,209.03 84.43,210.17 L83.78,211.86 C83.57,212.47 83.48,213.02 83.18,213.56 C82.69,214.65 82.2,215.79 81.63,216.84 C81.14,217.98 80.54,218.96 79.79,220.04 C79.19,221.02 78.56,222.13 77.86,223.08 L75.51,225.91 C73.82,227.75 71.93,229.51 69.94,231.06 C69.48,235.29 68.24,241.28 65.55,246.79 C65.16,247.7 64.76,248.55 64.41,249.34 C65.6,248.34 88.56,229.79 124.49,246.28 L126.39,247.07 L125.41,248.91 L122.76,253.49 C127.55,252.35 132.44,252.3 137.23,253.38 C143.64,254.93 149,259.47 152.53,264.65 C156.22,269.85 158.27,275.87 160.01,281.65 C160.85,284.55 161.8,287.48 163.43,289.89 C165.08,292.33 167.82,293.93 170.91,294.39 C167.82,294.34 164.68,293.04 162.73,290.49 C160.68,288 159.53,285.06 158.39,282.25 C156.19,276.53 154,270.84 150.29,266.22 C146.71,261.62 141.91,257.98 136.38,256.68 C130.85,255.38 124.72,256.19 119.64,258.38 L114.69,260.47 L117.24,255.73 L121.03,248.9 C113.6,245.86 105.63,244.26 97.71,245 C89.09,245.76 80.76,248.99 73.28,253.57 C73.23,253.62 73.17,253.66 73.12,253.73 C63.41,259.56 55.72,268.18 50.19,278.05 C44.11,288.87 36.28,303.18 31.05,313.65 C21.37,332.84 12.7,336.39 13.05,345.1 C13.51,353.83 8.71,383.98 5.27,390.13 C5.27,390.13 6.06,399.81 16.14,398.84 C16.14,398.84 16.14,406.32 26.15,405.41 C26.15,405.41 20.02,396.24 28.84,391.85 C37.62,387.51 43.24,391.46 45.4,396.64 C47.6,401.91 40.61,409.49 35.18,405.46 L32.74,401.47 C32.74,401.47 25.77,412.83 39.27,415.89 C39.27,415.89 40.62,423.81 54.62,423.37 C54.62,423.37 46.75,419.44 52.93,413.29 C52.93,413.29 63.34,409.36 61.25,389.67 C61.25,389.67 61.5,388.27 62.44,387.42 C62.58,385.54 62.76,383.64 63.09,381.8 C63.69,377.81 64.42,373.92 66.32,369.98 C67.18,368.05 68.37,365.99 70.57,364.41 L71.22,363.95 L71.76,363.6 C72.06,363.35 72.41,363.14 72.8,362.81 C73.36,362.32 74.15,361.76 74.64,361.12 C77.13,358.57 79.33,355.54 81.12,352.25 C83.1,349.05 84.81,345.56 86.3,342.06 C86,345.96 85.02,349.7 83.7,353.44 C82.42,357.18 80.66,360.82 78.08,364.1 C77.43,364.94 76.73,365.73 75.97,366.49 C75.58,366.88 75.18,367.17 74.74,367.6 L74.14,368.09 L73.79,368.34 L73.6,368.5 C72.79,369.24 71.98,370.62 71.35,372.24 C70.1,375.38 69.3,379.02 68.8,382.65 C68.45,384.85 68.2,386.99 68.01,389.13 C68.77,389.83 69.5,390.73 70.36,391.87 C77.49,401.65 71.15,417.05 94.08,428.33 C93.24,426.24 92.39,424.05 91.66,421.85 C89.36,414.77 87.81,407.29 87.43,399.83 C87.17,396.04 87.22,392.26 87.43,388.45 C87.62,384.71 88.22,380.97 88.82,377.23 C89.26,375.39 89.56,373.49 90.01,371.7 L90.69,368.91 L91.5,366.22 C92.04,364.43 92.69,362.62 93.38,360.85 L94.17,358.3 C94.54,357.51 94.73,356.7 94.98,355.81 C96.91,349.08 97.81,342.04 96.88,335.18 C95.98,328.4 93.39,321.78 89.1,316.39 C88.12,315.04 86.96,313.74 85.68,312.6 C84.43,311.46 83.03,310.44 81.59,309.51 C80.13,308.61 78.6,307.91 76.95,307.37 C75.4,306.86 73.75,306.58 72.05,306.53 C68.5,306.37 65.11,307.02 62.02,308.88 C60.53,309.78 59.12,310.92 57.98,312.27 C56.73,313.57 55.63,315.11 54.92,316.75 C55.83,313.22 57.98,309.87 61.12,307.48 C64.05,305.06 68.04,303.74 71.97,303.55 C73.92,303.46 75.9,303.55 77.87,304.01 C79.8,304.47 81.75,305.12 83.49,306.1 C85.25,306.94 86.93,308.1 88.42,309.3 C89.97,310.53 91.41,311.9 92.7,313.34 C95.35,316.29 97.53,319.63 99.04,323.21 C100.73,326.79 101.94,330.59 102.38,334.47 C103.52,342.25 102.77,350.13 100.43,357.51 C100.18,358.41 99.89,359.34 99.59,360.25 L98.61,362.9 C98,364.6 97.36,366.29 96.85,367.99 C95.69,371.38 94.76,374.87 93.95,378.37 C93.3,381.86 92.56,385.39 92.21,388.99 C91.91,392.52 91.61,396.17 91.72,399.75 C91.72,403.35 91.91,406.93 92.26,410.51 C92.65,414.11 93.35,417.64 94.09,421.22 C94.74,424.01 95.6,426.79 96.44,429.54 C96.44,429.59 96.49,429.59 96.49,429.59 C96.49,429.59 96.49,429.64 96.54,429.75 C97.87,433.88 99.63,437.86 101.67,441.73 C104.46,445.61 108.61,449.81 114.93,453.29 C121.27,456.71 129.75,459.56 141.11,460.61 C183.08,464.54 182.17,473.73 187.88,481.16 C187.88,481.16 191.81,465.9 183.09,458.42 C183.09,458.42 189.17,457.96 204.48,473.28 C219.78,488.59 229.89,481.16 229.89,481.16 C229.89,481.16 218.44,482.46 213.29,473.28 C208.02,464.11 205.77,442.72 198.78,438.35 L198.78,436.56 C197.69,435.31 196.58,434.01 195.43,432.66 C192.88,429.52 190.6,426.23 188.3,422.79 C186.18,419.4 184.07,415.87 182.47,411.94 C185.96,414.33 189,417.14 191.95,419.95 C194.3,422.36 196.48,424.8 198.68,427.33 C200.88,429.93 202.96,432.56 204.91,435.37 C208.05,439.9 210.81,444.48 213.04,449.73 L213.09,449.73 C226.81,467.17 245.24,493.35 241.66,504.8 C240.11,509.54 237.87,512.44 235.48,514.18 C228.7,519.06 220.22,514.83 220.22,514.83 C220.22,514.83 199.64,515.27 200.53,531.88 L263.03,531.88 C263.03,531.88 270.46,521.36 279.29,517.92 C287.91,514.41 259.92,445.38 259.55,444.44 C260.22,444.83 285.94,459.89 333.41,437.91 C381.53,415.63 405.6,389.02 438.3,420.88 C471.05,452.79 460.13,454.97 559.84,474.67 C559.84,474.67 593.94,487.79 579.49,513.55 C579.49,513.55 579.6,513.99 579.49,514.64 L579.49,513.55 C569.27,522.7 563.09,514.85 563.09,514.85 C563.09,514.85 542.54,515.29 543.46,531.9 L611.05,531.9 C611.05,531.9 609.21,521.38 618.37,517.94 C627.61,514.41 608.31,489.97 602.21,467.65 C597.63,450.76 597.68,452.9 586.86,450.79 C586.86,450.79 586.84,450.79 586.82,450.77 C586.8,450.77 586.78,450.75 586.75,450.73 C586.7,450.73 586.59,450.73 586.5,450.68 L586.25,450.68 C586,450.63 585.65,450.52 585.16,450.43 L585.11,450.43 C584.9,450.38 584.71,450.34 584.5,450.27 C584.39,450.25 584.31,450.22 584.2,450.2 C584.09,450.18 583.97,450.15 583.85,450.13 C583.8,450.13 583.74,450.13 583.66,450.08 C583.55,450.08 583.45,450.03 583.41,450.03 C583.36,449.99 583.32,449.99 583.25,449.98 C583.23,449.98 583.21,449.96 583.2,449.96 C583.19,449.96 583.16,449.94 583.16,449.94 C583.12,449.92 583.12,449.92 583.09,449.9 C583.04,449.9 583,449.85 582.9,449.85 L582.79,449.85 C582.7,449.8 582.6,449.8 582.49,449.8 C581.79,449.59 580.94,449.4 580.08,449.15 C579.99,449.15 579.92,449.1 579.83,449.1 C579.72,449.1 579.67,449.05 579.58,449.01 C579.32,448.92 579.05,448.83 578.77,448.75 C578.58,448.7 578.38,448.64 578.21,448.57 C578.03,448.5 577.84,448.46 577.67,448.39 C577.49,448.34 577.3,448.28 577.13,448.21 C576.83,448.1 576.53,448.02 576.22,447.95 C575.08,447.55 573.76,447.16 572.48,446.65 C572.32,446.54 572.15,446.49 571.99,446.4 C571.99,446.38 571.97,446.38 571.97,446.38 L571.95,446.38 C571.84,446.34 571.77,446.33 571.72,446.29 C571.68,446.27 571.65,446.25 571.61,446.24 C571.61,446.24 571.61,446.24 571.59,446.22 C571.57,446.2 571.54,446.18 571.5,446.17 C562.6,442.83 550.92,437.32 539.61,428.52 C539.61,428.52 539.57,428.48 539.5,428.43 C535.6,425.39 531.74,421.99 528.07,418.14 C528.03,418.1 528,418.07 527.96,418.03 C514.7,405.23 493.24,381.73 480.65,353.44 C480.3,352.65 479.91,351.86 479.53,351.09 C479.53,351.07 479.51,351.07 479.51,351.07 C476.26,344.7 471.59,338.92 466.02,333.7 C465.72,333.42 465.42,333.14 465.12,332.87 C465.14,332.87 465.16,332.89 465.17,332.89 C460.38,328.2 455.07,323.99 449.56,320.23 L452.37,321.07 C453.3,321.37 454.21,321.77 455.14,322.12 L456.53,322.65 C456.99,322.81 457.46,323 457.92,323.23 C459.75,324.11 461.59,324.86 463.45,325.92 C464.38,326.43 465.29,326.87 466.26,327.43 L469.14,329.12 C470.09,329.65 471.14,330.33 472.13,330.95 L475.22,332.86 L478.43,334.88 L481.87,337 C491.02,342.71 503.22,348.94 516.15,351.31 L520.96,352.14 C522.58,352.46 524.14,352.49 525.74,352.65 L530.5,353.02 C532.06,353.06 533.63,353.13 535.15,353.09 C541.31,353.07 547.35,352.53 553.31,351.56 C565.18,349.63 576.74,346.05 587.71,340.58 C593.21,337.86 598.53,334.61 603.6,330.83 C608.68,327.07 613.45,322.68 617.74,317.73 C622.04,312.8 625.82,307.23 628.82,301.26 C631.82,295.27 634.07,288.91 635.46,282.43 C638.42,269.46 637.91,256.38 635.35,244.33 Z M332.72,81.8 L347.72,92.35 L324.26,83.83 L332.72,81.8 Z M39.49,185.34 L51.1,171.92 L59.53,171.92 L39.49,185.34 Z M103.9,176.41 L109.5,164.26 L138.81,153.74 L114.82,165.1 L103.9,176.41 Z M24.49,355.48 L36.1,342.12 L44.62,342.12 L24.49,355.48 Z M124.04,417.94 C120.35,412.36 118.4,405.58 118,398.83 C117.75,395.49 117.95,392.1 118.35,388.77 C118.6,387.91 118.7,387.07 118.89,386.17 C119.08,385.12 119.29,384.57 119.45,383.73 C119.89,382.24 120.13,380.74 120.43,379.2 C121.57,373.02 122.12,366.68 122.22,360.39 C122.54,347.78 120.83,335.07 117.58,322.91 C116.74,319.82 115.74,316.87 114.59,313.99 C113.45,311.04 111.99,308.25 110.36,305.67 C108.66,303.02 106.67,300.59 104.23,298.65 C102.98,297.7 101.7,296.84 100.24,296.16 C98.8,295.51 97.29,295 95.71,294.91 C98.91,294.45 102.3,295.56 105.19,297.26 C106.93,298.24 108.58,299.49 109.98,300.86 C110.63,299.4 111.17,297.96 111.42,296.45 C111.77,294.92 111.86,293.36 111.86,291.81 C111.77,288.77 111.07,285.77 109.93,282.94 C108.84,280.1 107.33,277.36 105.59,274.76 C104.19,272.58 102.64,270.42 100.94,268.49 L98.46,269.3 C97.21,269.76 95.91,270.25 94.63,270.69 C93.37,271.23 92.17,271.78 90.94,272.34 L89.24,273.32 C88.64,273.62 88.05,273.92 87.45,274.32 C85.2,275.71 83.17,277.36 81.51,279.41 C81,279.95 80.67,280.5 80.35,281.04 C80.1,281.34 79.89,281.64 79.75,281.94 C79.66,282.24 79.4,282.54 79.31,282.85 C78.77,284.08 78.41,285.38 78.26,286.84 C77.96,285.44 77.96,283.94 78.15,282.48 C78.26,281.8 78.5,281.04 78.69,280.36 C79.04,279.71 79.29,278.9 79.64,278.31 C80.38,276.92 81.19,275.78 82.24,274.57 L83.68,272.94 C84.29,272.45 84.84,271.99 85.44,271.48 C85.98,270.94 86.63,270.55 87.18,270.15 L89.02,268.85 C90.27,268.2 91.57,267.39 92.85,266.8 C94.24,266.2 95.54,265.55 96.89,265.04 L100.98,263.6 L102.33,263.14 L103.33,264.18 C104.61,265.53 105.58,266.83 106.61,268.17 C107.66,269.52 108.61,270.91 109.4,272.37 C111.19,275.25 112.6,278.39 113.53,281.78 C113.93,283.38 114.32,285.06 114.43,286.82 C114.59,288.56 114.48,290.31 114.27,292 C113.92,293.69 113.48,295.34 112.78,296.88 C111.97,298.34 111.08,299.72 110.02,300.88 C111,301.83 111.86,302.78 112.78,303.85 C114.9,306.45 116.66,309.29 118.21,312.28 C119.76,315.23 121.05,318.37 122.09,321.45 C124.29,327.74 125.78,334.16 126.85,340.7 C127.8,347.23 128.18,353.85 127.99,360.49 C127.83,367.11 127.01,373.78 125.53,380.28 C125.18,381.88 124.63,383.48 124.14,385.11 C123.95,385.87 123.6,386.8 123.46,387.31 C123.27,387.99 123.11,388.8 123,389.51 C122.35,392.5 122,395.62 122,398.73 C122,401.82 122.35,404.91 123.05,407.91 C123.7,411 124.68,413.9 126.14,416.73 C127.58,419.47 129.42,422.07 131.57,424.4 C133.68,426.74 136.1,428.9 138.75,430.72 C132.96,427.97 127.73,423.61 124.04,417.94 Z M161.08,364.15 C161.33,366.64 161.84,369.12 162.43,371.72 C163.08,374.2 164.03,376.65 164.96,379.2 C162.92,377.41 161.17,375.16 159.78,372.77 C158.43,370.33 157.37,367.75 156.58,364.96 C155.9,362.27 155.54,359.46 155.35,356.67 C155.19,353.84 155.35,351.05 155.7,348.31 C156.3,342.71 157.9,337.33 160.04,332.31 C162.24,327.32 164.87,322.53 168.57,318.4 C167.08,323.58 165.53,328.66 164.32,333.8 C163.09,338.84 162.14,343.92 161.42,349.01 C160.82,354.04 160.68,359.11 161.08,364.15 Z M554.96,454.73 C560.19,455.22 565.32,456.19 570.4,457.63 C572.89,458.39 575.39,459.28 577.74,460.42 C580.13,461.61 582.43,463.02 584.47,464.85 L585.93,466.4 C586.32,466.89 586.67,467.38 587.12,467.89 C587.91,468.94 588.77,470 589.58,471.09 C591.07,473.18 592.62,475.32 593.95,477.59 C596.6,482.07 599.03,486.7 601.13,491.59 L600.94,491.7 C597.74,487.5 594.85,483.17 591.97,478.88 L587.61,472.4 C586.96,471.31 586.22,470.26 585.49,469.15 C585.09,468.66 584.68,468.11 584.38,467.55 L583.24,466.2 C581.4,464.46 579.34,462.97 577.11,461.83 C574.81,460.58 572.47,459.6 569.98,458.74 C565.15,457 560.11,455.81 554.91,455 L554.96,454.73 Z M392.48,368.79 C390.88,369.74 389.44,370.88 388.09,372.07 C386.74,373.21 385.49,374.62 384.4,376.06 C383.8,376.71 383.35,377.45 382.85,378.22 C382.39,378.98 381.95,379.77 381.66,380.45 L381.66,380.5 L381.5,380.71 C378.95,384.78 376.16,388.79 372.91,392.39 C371.52,394.32 369.73,396.03 368.03,397.82 C367.19,398.66 366.34,399.42 365.43,400.31 C364.48,401.1 363.69,401.94 362.69,402.7 C355.3,409.04 346.97,414.22 338.16,418.21 C329.38,422.25 320,424.99 310.59,426.73 C305.8,427.57 301.11,428.19 296.3,428.38 C293.84,428.54 291.45,428.57 289.06,428.54 C286.71,428.49 284.37,428.38 282.02,428.08 C291.43,427.03 300.67,425.24 309.63,422.74 C314.18,421.55 318.55,420.05 322.99,418.46 C327.27,416.86 331.61,415.12 335.76,413.07 C344.08,409.08 352,404.25 359.13,398.48 C366.37,392.76 372.79,386.06 378.57,378.74 C379.62,376.95 380.82,375.54 382.21,374.19 C383.56,372.75 385.16,371.5 386.79,370.45 C388.44,369.36 390.13,368.47 391.94,367.82 C393.73,367.06 395.68,366.66 397.51,366.31 C396.67,366.71 395.72,367.01 394.93,367.5 C394.17,367.89 393.27,368.29 392.48,368.79 Z M460.97,409.41 L463.46,413.01 C464.3,414.12 465.06,415.29 465.95,416.4 L468.6,419.74 L469.99,421.39 L471.38,422.88 C472.4,423.93 473.38,424.93 474.37,425.97 L477.46,428.81 C478.55,429.86 479.66,430.71 480.74,431.6 C481.83,432.5 482.94,433.39 484.13,434.23 C488.66,437.62 493.56,440.62 498.64,443.17 C503.82,445.72 509.21,447.91 514.8,449.35 L514.64,449.89 C508.84,448.91 503.26,447.1 497.94,444.8 C492.6,442.57 487.37,439.83 482.5,436.58 C481.18,435.9 480.01,434.95 478.79,434.09 C477.6,433.19 476.45,432.4 475.31,431.42 L471.96,428.58 C470.87,427.65 469.76,426.6 468.68,425.59 L467.13,424.06 L465.64,422.41 L462.6,419.13 C461.65,417.99 460.79,416.85 459.91,415.64 L457.22,412.22 L455.92,410.57 L454.53,409.02 C453.67,407.93 452.69,407.04 451.74,406.03 C449.69,404.2 447.56,402.39 445.31,400.85 C443.01,399.23 440.73,397.9 438.23,396.62 C435.84,395.37 433.35,394.16 430.71,393.23 C420.44,389.19 409.13,387.33 397.59,387.03 L397.5,386.43 C403.19,384.88 409.13,384.38 415.04,384.62 C417.97,384.73 421.03,385.08 423.91,385.53 C426.9,386.02 429.85,386.83 432.73,387.73 C434.13,388.19 435.52,388.71 436.93,389.28 C438.32,389.88 439.72,390.51 441.07,391.26 C442.4,391.91 443.65,392.72 445,393.56 C445.6,393.95 446.25,394.4 446.9,394.79 C447.51,395.3 448.11,395.74 448.71,396.19 C453.54,399.94 457.63,404.49 460.97,409.41 Z" id="Shape"></path>
                </g>
            </g>
            <rect id="Rectangle" x="0" y="0" width="650" height="650"></rect>
        </g>
    </g>
</svg>