<?xml version="1.0" encoding="UTF-8"?>
<svg width="27px" height="26px" viewBox="0 0 27 26" version="1.1" xmlns="http://www.w3.org/2000/svg" xmlns:xlink="http://www.w3.org/1999/xlink">
    <title>nango</title>
    <g id="Page-1" stroke="none" stroke-width="1" fill="none" fill-rule="evenodd">
        <g id="nango" transform="translate(0, 0.1424)" fill-rule="nonzero">
            <path d="M13.0687,0 C5.85106,0 0,5.683899 0,12.695289 C0,14.055089 0.219898,15.364989 0.627204,16.593189 L0.62994,16.593589 C2.28276,15.976589 4.22046,15.254689 4.29775,15.229789 C4.43318,15.185989 4.37983,15.097289 4.27381,15.092289 C4.16814,15.087989 1.84673,14.984589 1.77457,14.979689 C1.70275,14.974989 1.62068,14.922489 1.74892,14.842089 C2.42366,14.418889 4.6182,13.064389 5.69032,12.677089 C5.79908,12.637889 5.76419,12.568789 5.67699,12.560089 C5.58978,12.551189 3.59805,12.348489 3.47767,12.335189 C3.35729,12.321889 3.33027,12.265489 3.47356,12.187689 C4.10419,11.844189 5.93485,10.885089 7.29288,10.549589 C7.42694,10.516689 7.52167,10.403389 7.52851,10.269189 C7.6824,7.241329 8.56815,5.592209 9.29042,4.643399 C9.32531,4.597549 9.39302,4.592899 9.43474,4.633099 C10.2723,5.444699 11.0828,6.561949 11.7114,7.747629 C11.7452,7.812409 11.8324,7.812079 11.8437,7.748289 C11.9935,6.907779 12.2818,6.195509 12.6576,5.472939 C12.6857,5.419449 12.7575,5.400519 12.805,5.439389 C13.5157,6.019769 14.3939,7.252959 14.8409,8.800419 C14.8768,8.925669 14.989,9.016699 15.1227,9.023009 L16.1808,9.074499 C16.5915,9.094439 16.9759,9.278479 17.242,9.583129 L17.7861,10.205689 C17.8456,10.273189 17.9321,10.312389 18.0234,10.312689 L23.3081,10.319989 C23.4203,10.319989 23.5164,10.405689 23.5325,10.522289 C23.6925,12.024589 22.6717,15.161689 19.851,15.161689 C14.4131,15.161689 11.0496,20.341289 13.0687,25.390989 C20.2863,25.390989 26.1374,19.707089 26.1374,12.695289 C26.1374,5.683899 20.2863,0 13.0687,0 Z" id="Path" fill="#231F20"></path>
            <path d="M16.6671,11.266789 C16.6671,10.376389 15.8678,10.070389 13.9004,10.070389 C13.9004,11.353089 16.2081,11.712589 16.6671,11.266789 Z" id="Path" fill="#231F20"></path>
            <path d="M16.6671,11.266789 C16.2081,11.712589 13.9004,11.353089 13.9004,10.070389 C15.8678,10.070389 16.6671,10.376389 16.6671,11.266789 Z M19.851,15.162289 C22.6717,15.162289 23.6925,12.025189 23.5325,10.522889 C23.5164,10.405989 23.4203,10.320289 23.3081,10.320289 L18.0234,10.312989 C17.9321,10.312589 17.8456,10.273789 17.7861,10.205989 L17.2419,9.583739 C16.9759,9.279099 16.5915,9.094719 16.1808,9.074789 L15.1227,9.023619 C14.9889,9.016979 14.8768,8.926279 14.8409,8.800709 C14.3942,7.253239 13.5157,6.020049 12.805,5.439669 C12.7575,5.401129 12.6857,5.419739 12.6576,5.473559 C12.2818,6.195789 11.9935,6.908069 11.8437,7.748909 C11.8324,7.812689 11.7452,7.812689 11.7113,7.748239 C11.0828,6.562229 10.2722,5.444979 9.43472,4.633709 C9.393,4.593509 9.32529,4.597829 9.2904,4.643679 C8.56813,5.592819 7.68272,7.241949 7.52849,10.269789 C7.52165,10.403689 7.42692,10.516889 7.29286,10.550189 C5.93483,10.885689 4.10417,11.844789 3.47355,12.187989 C3.33025,12.266089 3.35727,12.322189 3.47765,12.335489 C3.59803,12.348789 5.58976,12.551389 5.67697,12.560389 C5.76417,12.569389 5.79906,12.638189 5.69031,12.677389 C4.61818,13.064689 2.42364,14.419189 1.7489,14.842689 C1.62066,14.923089 1.70273,14.975289 1.77455,14.980289 C1.84671,14.984889 4.16812,15.088289 4.2738,15.092889 C4.37981,15.097589 4.43316,15.186589 4.29773,15.230389 C4.22045,15.255389 2.28274,15.977289 0.629921,16.593889 C0.629237,16.594189 0.628553,16.594489 0.627869,16.594889 C2.32139,21.698689 7.25114,25.391589 13.0687,25.391589 C11.0496,20.341589 14.413,15.162289 19.851,15.162289 Z" id="Shape" fill="#FFFFFF"></path>
        </g>
    </g>
</svg>