<?xml version="1.0" encoding="UTF-8"?>
<svg width="240px" height="240px" viewBox="0 0 240 240" version="1.1" xmlns="http://www.w3.org/2000/svg" xmlns:xlink="http://www.w3.org/1999/xlink">
    <title>Group</title>
    <g id="Page-1" stroke="none" stroke-width="1" fill="none" fill-rule="evenodd">
        <g id="Group">
            <rect id="box" fill="#FFFFFF" x="0" y="0" width="240" height="240" rx="31"></rect>
            <g id="nebius" transform="translate(43, 54)" fill="#000000">
                <path d="M130,2 L130,111.165575 C130,111.165575 156,109.59279 156,79.8723534 L156,2 L130,2 Z M26,130 L26,20.834425 C26,20.834425 0,22.40721 0,52.1341457 L0,129.993501 L26,129.993501 L26,130 Z" id="Shape"></path>
                <path d="M105.069991,94.3573154 L72.3660792,19.0459096 C67.0107487,6.86069333 58.2758405,0 45.8688914,0 C33.4684414,0 25,10.0241629 25,20.7643375 C25,20.7643375 40.6305462,18.596775 48.9170104,37.6426846 L81.6469191,112.95409 C86.9827522,125.126288 95.7371579,132 108.131109,132 C120.512061,132 129,121.969328 129,111.235663 C129,111.235663 113.362955,113.403225 105.069991,94.3508063 L105.069991,94.3573154 Z" id="Path"></path>
            </g>
        </g>
    </g>
</svg>