<?xml version="1.0" encoding="UTF-8"?>
<svg width="241px" height="241px" viewBox="0 0 241 241" version="1.1" xmlns="http://www.w3.org/2000/svg" xmlns:xlink="http://www.w3.org/1999/xlink">
    <title>neo4j</title>
    <g id="Page-1" stroke="none" stroke-width="1" fill="none" fill-rule="evenodd">
        <g id="neo4j" transform="translate(-167.7611, -22.7324)">
            <rect id="box" fill="#FFFFFF" x="168" y="23" width="240" height="240" rx="32"></rect>
            <path d="M230.268052,66.2093994 C225.557732,68.5416362 221.161433,72.4286976 218.02122,77.5596186 C214.881006,82.6905396 213.624921,88.1324255 214.095953,93.5743114 C214.566985,103.369706 220.062358,112.387688 229.011966,117.363127 C237.333531,122.027601 246.754171,120.939223 255.703779,118.917951 C266.694526,116.119267 276.115166,115.03089 286.006838,120.939223 C286.006838,120.939223 286.006838,120.939223 286.47787,120.939223 C303.435022,130.734618 303.435022,155.300846 286.47787,165.09624 C286.47787,165.09624 286.47787,165.09624 286.006838,165.09624 C276.115166,171.004574 266.694526,169.760714 255.703779,167.117512 C247.068193,164.785275 237.647553,163.541416 229.011966,168.672337 C219.905348,173.803258 214.881006,183.132205 214.095953,192.461152 C213.624921,197.903038 214.881006,203.344924 218.02122,208.475845 C221.161433,213.606766 225.0867,217.493828 230.268052,219.826064 C238.903638,224.179573 249.580363,224.179573 258.529971,219.048652 C266.851537,214.384178 270.776803,205.366196 273.131963,196.814661 C276.272177,185.930889 279.883422,177.223872 290.089115,171.781986 C299.980787,165.873653 309.401427,167.117512 320.392174,169.760714 C329.02776,172.092951 338.4484,173.33681 347.083987,168.205889 C356.190605,163.074968 361.214947,153.746021 362,144.417074 C362,143.639662 362,143.173214 362,142.395802 C362,141.61839 362,141.151942 362,140.37453 C361.528968,130.579136 356.033595,121.561153 347.083987,116.585715 C338.762421,111.921241 329.341782,113.009618 320.392174,115.03089 C309.401427,117.829574 299.980787,118.917951 290.089115,113.009618 C280.197443,107.101285 276.272177,98.8607148 273.131963,87.976943 C270.776803,79.425408 266.851537,70.7183906 258.529971,65.7429521 C249.423353,62.0113732 238.903638,62.0113732 230.268052,66.2093994 Z" id="Path" fill="#014063" fill-rule="nonzero"></path>
        </g>
    </g>
</svg>