<?xml version="1.0" encoding="UTF-8"?>
<svg width="240px" height="240px" viewBox="0 0 240 240" version="1.1" xmlns="http://www.w3.org/2000/svg" xmlns:xlink="http://www.w3.org/1999/xlink">
    <title>nestjs</title>
    <g id="Page-1" stroke="none" stroke-width="1" fill="none" fill-rule="evenodd">
        <g id="nestjs" transform="translate(0, -0)" fill="#DF234F" fill-rule="nonzero">
            <path d="M141.230932,0 C139.547384,0 137.863837,0.376470588 136.36735,0.941176471 C139.547384,3.01176471 141.230932,5.83529412 142.166236,9.03529412 C142.166236,9.41176471 142.353297,9.78823529 142.353297,10.1647059 C142.353297,10.5411765 142.540358,10.9176471 142.540358,11.2941176 C142.727418,16.7529412 141.043871,17.5058824 139.921506,20.7058824 C138.050897,24.8470588 138.61208,29.3647059 140.85681,32.9411765 C141.043871,33.3176471 141.230932,33.8823529 141.605053,34.2588235 C139.173262,18.4470588 152.267521,16.1882353 154.699312,11.2941176 C154.886373,6.96470588 151.332217,4.14117647 148.526304,2.07058824 C145.720392,0.376470588 143.475662,0 141.230932,0 Z M160.87232,3.38823529 C160.685259,4.89411765 160.87232,4.51764706 160.685259,5.27058824 C160.685259,5.83529412 160.685259,6.4 160.498198,6.96470588 C160.311137,7.52941176 160.311137,7.90588235 160.124076,8.47058824 C159.937015,9.03529412 159.749955,9.41176471 159.562894,9.97647059 C159.375833,10.3529412 159.188772,10.7294118 159.001711,11.2941176 C158.81465,11.4823529 158.627589,11.8588235 158.440529,12.0470588 C158.253468,12.2352941 158.253468,12.4235294 158.066407,12.6117647 C157.692285,12.9882353 157.505224,13.5529412 157.131103,13.9294118 L156.008738,15.0588235 C155.634616,15.4352941 155.260494,15.8117647 154.886373,16 C153.576947,16.9411765 152.08046,17.6941176 150.771034,18.6352941 C150.396913,19.0117647 149.83573,19.2 149.461608,19.5764706 C149.087487,19.9529412 148.713365,20.1411765 148.339243,20.5176471 L147.216878,21.6470588 C146.842757,22.0235294 146.468635,22.4 146.281574,22.9647059 C145.907453,23.3411765 145.720392,23.9058824 145.34627,24.2823529 C145.159209,24.8470588 144.972148,25.2235294 144.598027,25.7882353 C144.410966,26.3529412 144.223905,26.7294118 144.036844,27.2941176 C143.849783,27.8588235 143.662723,28.4235294 143.662723,28.8 C143.662723,28.9882353 143.662723,29.3647059 143.475662,29.5529412 C143.475662,29.7411765 143.475662,30.1176471 143.288601,30.3058824 L143.288601,32.9411765 C143.288601,33.5058824 143.288601,33.8823529 143.475662,34.4470588 C143.475662,35.0117647 143.662723,35.3882353 143.849783,35.9529412 C144.036844,36.5176471 144.223905,36.8941176 144.410966,37.4588235 C144.598027,37.8352941 144.785088,38.0235294 144.785088,38.4 L130.568464,32.9411765 C128.136673,32.1882353 125.891943,31.6235294 123.460152,31.0588235 C122.150726,30.6823529 120.8413,30.4941176 119.531875,30.1176471 C115.790658,29.3647059 112.049441,28.8 108.308224,28.4235294 L107.934103,28.4235294 C104.192886,28.0470588 100.63873,27.8588235 96.8975134,27.8588235 C94.0916008,27.8588235 91.4727491,28.0470588 88.8538974,28.2352941 C85.1126807,28.4235294 81.3714639,28.9882353 77.6302472,29.5529412 L74.8243347,30.1176471 C72.9537263,30.4941176 71.0831179,30.8705882 69.2125096,31.4352941 C68.2772054,31.6235294 67.3419012,32 66.406597,32.1882353 C65.4712928,32.5647059 64.5359886,32.9411765 63.7877453,33.3176471 C63.039502,33.6941176 62.4783194,33.8823529 61.7300761,34.2588235 C61.5430153,34.2588235 61.5430153,34.2588235 61.3559544,34.4470588 C60.7947719,34.8235294 60.2335894,35.0117647 59.6724069,35.3882353 C59.4853461,35.3882353 59.2982852,35.5764706 59.2982852,35.5764706 C58.5500419,35.9529412 57.9888594,36.3294118 57.4276769,36.5176471 C57.0535552,36.7058824 56.4923727,36.8941176 56.118251,37.0823529 C55.9311902,37.2705882 55.7441293,37.2705882 55.5570685,37.4588235 C54.995886,37.8352941 54.4347035,38.0235294 53.873521,38.4 C53.3123384,38.7764706 52.7511559,38.9647059 52.3770343,39.3411765 C52.0029126,39.7176471 51.4417301,39.9058824 51.0676084,40.2823529 C51.0676084,40.2823529 50.8805476,40.2823529 50.8805476,40.4705882 C50.5064259,40.6588235 50.1323042,41.0352941 49.7581826,41.4117647 L49.5711217,41.6 C49.197,41.7882353 49.0099392,42.1647059 48.6358175,42.3529412 C48.4487567,42.3529412 48.4487567,42.5411765 48.2616959,42.5411765 C47.8875742,42.7294118 47.7005133,43.1058824 47.3263917,43.2941176 C47.3263917,43.4823529 47.1393308,43.4823529 47.1393308,43.4823529 L46.0169658,44.6117647 L45.829905,44.8 L44.70754,45.9294118 C44.70754,45.9294118 44.70754,46.1176471 44.5204791,46.1176471 L43.5851749,47.0588235 C43.3981141,47.2470588 43.2110533,47.2470588 43.2110533,47.4352941 L42.0886882,48.5647059 C42.0886882,48.7529412 41.9016274,48.7529412 41.9016274,48.9411765 L40.4051407,50.4470588 L40.2180799,50.6352941 C39.2827757,51.7647059 38.1604107,52.7058824 37.0380457,53.6470588 C35.9156806,54.5882353 34.7933156,55.5294118 33.4838898,56.4705882 C32.1744639,57.4117647 31.0520989,58.1647059 29.742673,58.9176471 C28.4332472,59.6705882 27.1238213,60.2352941 25.8143955,60.8 C24.5049696,61.3647059 23.1955437,61.9294118 21.8861179,62.3058824 C19.2672662,62.8705882 16.6484145,64 14.4036844,64.1882353 C14.4036844,63.2470588 13.8425019,63.4352941 13.2813194,63.4352941 C12.7201369,63.6235294 12.1589544,63.6235294 11.7848327,63.8117647 C11.2236502,64 10.8495285,64.1882353 10.288346,64.3764706 C9.72716351,64.5647059 9.35304183,64.7529412 8.79185932,65.1294118 C8.41773765,65.5058824 7.85655514,65.6941176 7.48243347,66.0705882 C7.10831179,66.4470588 6.54712928,66.8235294 6.17300761,67.2 C5.79888594,67.5764706 5.23770343,67.9529412 4.86358175,68.3294118 C4.48946008,68.7058824 4.11533841,69.0823529 3.74121673,69.6470588 C3.36709506,70.2117647 2.99297339,70.5882353 2.80591255,71.1529412 C2.43179088,71.5294118 2.24473004,72.0941176 1.87060837,72.6588235 C1.68354753,73.2235294 1.30942586,73.7882353 1.12236502,74.3529412 L0.56118251,76.0470588 C0.374121673,76.6117647 0.374121673,76.9882353 0.187060837,77.5529412 L0.187060837,77.7411765 C0,78.3058824 0,79.0588235 0,79.4352941 C0.187060837,79.2470588 0.187060837,79.6235294 0.187060837,80 L0.187060837,80.7529412 C0.187060837,81.1294118 0.374121673,81.5058824 0.374121673,81.8823529 C0.56118251,82.2588235 0.56118251,82.6352941 0.748243347,83.0117647 C0.935304183,83.3882353 1.12236502,83.7647059 1.49648669,84.1411765 C1.68354753,84.5176471 2.0576692,84.8941176 2.24473004,85.2705882 C2.61885171,85.6470588 2.99297339,86.0235294 3.36709506,86.2117647 C3.74121673,86.5882353 4.11533841,86.9647059 4.48946008,87.1529412 C5.98594677,88.4705882 6.36006845,88.8470588 8.23067681,89.9764706 C8.60479849,90.1647059 8.79185932,90.3529412 9.165981,90.5411765 L9.35304183,90.5411765 L9.35304183,90.9176471 C9.35304183,91.4823529 9.54010267,91.8588235 9.72716351,92.4235294 C9.91422434,92.9882353 10.1012852,93.5529412 10.288346,93.9294118 L10.8495285,95.0588235 C10.8495285,95.2470588 11.0365894,95.2470588 11.0365894,95.4352941 C11.2236502,96 11.5977719,96.3764706 11.7848327,96.7529412 C12.1589544,97.1294118 12.3460152,97.6941176 12.7201369,98.0705882 L13.8425019,99.2 L14.9648669,100.329412 L15.1519278,100.329412 C15.5260494,100.705882 15.9001711,100.894118 16.2742928,101.270588 C16.6484145,101.647059 17.209597,101.835294 17.5837186,102.023529 C17.9578403,102.211765 18.5190228,102.588235 19.0802053,102.776471 C19.454327,102.964706 19.8284487,103.152941 20.3896312,103.152941 C20.3896312,103.152941 20.576692,103.152941 20.576692,103.341176 C20.7637529,103.341176 21.1378745,103.529412 21.3249354,103.529412 C21.1378745,106.917647 21.1378745,110.117647 21.5119962,111.247059 C22.0731787,112.564706 24.8790913,108.611765 27.497943,104.282353 C27.1238213,108.611765 26.9367605,113.694118 27.497943,115.2 C28.2461863,116.705882 31.8003422,111.811765 35.1674373,106.541176 C78.9396731,96.3764706 118.970692,126.870588 123.273091,169.976471 C122.524848,163.2 114.294171,159.435294 110.365894,160.376471 C108.495285,164.894118 105.315251,170.917647 100.264608,174.494118 C100.63873,170.352941 100.451669,166.211765 99.7034259,162.070588 C98.3940001,167.717647 95.7751484,173.176471 92.0339316,177.694118 C86.2350457,178.070588 80.2490989,175.247059 77.2561255,170.917647 C77.0690647,170.729412 76.8820039,170.352941 76.694943,170.164706 C76.5078822,169.788235 76.3208214,169.223529 76.1337605,168.847059 C75.9466997,168.470588 75.7596388,167.905882 75.7596388,167.529412 L75.7596388,166.211765 L75.7596388,165.270588 C75.7596388,164.894118 75.9466997,164.329412 76.1337605,163.952941 C76.3208214,163.576471 76.3208214,163.011765 76.5078822,162.635294 C76.694943,162.258824 76.8820039,161.694118 77.2561255,161.317647 C78.3784906,158.305882 78.3784906,155.858824 76.3208214,154.541176 L75.1984563,153.976471 C75.0113955,153.976471 74.6372738,153.788235 74.450213,153.788235 C74.2631522,153.788235 74.0760913,153.6 73.8890305,153.6 C73.5149088,153.411765 72.9537263,153.411765 72.5796046,153.223529 C72.2054829,153.035294 71.6443004,153.035294 71.2701788,153.035294 C70.8960571,153.035294 70.3348746,152.847059 69.9607529,152.847059 L69.0254487,152.847059 C68.4642662,152.847059 68.0901445,152.847059 67.7160229,153.035294 C67.3419012,153.035294 66.7807187,153.223529 66.406597,153.223529 C66.0324753,153.411765 65.4712928,153.411765 65.0971712,153.6 C64.7230495,153.788235 64.3489278,153.976471 63.7877453,154.164706 L62.6653803,154.729412 C48.2616959,164.141176 56.8664943,186.352941 66.5936578,192.752941 C62.8524411,193.505882 59.1112244,194.258824 57.9888594,195.011765 L57.8017985,195.2 C60.4206502,196.894118 63.2265628,198.211765 66.2195362,199.341176 C70.1478137,200.658824 74.450213,201.788235 76.3208214,202.352941 C81.3714639,203.482353 86.6091674,203.858824 91.8468708,203.482353 C119.157753,201.6 141.605053,180.517647 145.720392,153.035294 C145.907453,153.6 145.907453,154.164706 146.094513,154.729412 C146.281574,155.858824 146.468635,156.988235 146.655696,158.305882 C146.842757,158.870588 146.842757,159.435294 146.842757,160 L146.842757,160.188235 C146.842757,160.752941 147.029818,161.317647 147.029818,161.882353 C147.029818,162.635294 147.216878,163.2 147.216878,163.952941 L147.216878,171.858824 C147.216878,172.423529 147.029818,172.8 147.029818,173.364706 L147.029818,173.929412 C147.029818,174.494118 146.842757,175.058824 146.842757,175.811765 C146.655696,176.376471 146.655696,176.941176 146.468635,177.505882 L146.468635,177.694118 C146.281574,178.258824 146.281574,178.823529 146.094513,179.388235 L146.094513,179.576471 C145.907453,180.141176 145.907453,180.705882 145.720392,181.270588 L145.720392,181.458824 L145.159209,183.152941 L145.159209,183.341176 C144.972148,183.905882 144.785088,184.658824 144.598027,185.223529 C144.410966,185.788235 144.223905,186.352941 143.849783,187.105882 C143.662723,187.670588 143.475662,188.423529 143.10154,188.988235 C142.914479,189.552941 142.540358,190.117647 142.353297,190.870588 C142.166236,191.435294 141.792114,192 141.605053,192.564706 C141.605053,192.752941 141.417993,192.941176 141.417993,192.941176 C141.417993,192.941176 141.417993,193.129412 141.230932,193.129412 C137.302654,201.223529 131.316707,208.376471 123.834274,214.023529 C123.273091,214.4 122.89897,214.776471 122.337787,215.152941 C122.150726,215.341176 121.963666,215.341176 121.963666,215.529412 C121.589544,215.905882 121.028361,216.094118 120.65424,216.470588 L120.8413,216.847059 C121.776605,216.658824 122.524848,216.658824 123.460152,216.470588 C125.1437,216.282353 126.640186,215.905882 128.323734,215.529412 C128.697856,215.529412 129.259038,215.341176 129.63316,215.152941 C130.007281,215.152941 130.194342,214.964706 130.568464,214.964706 C130.942586,214.964706 131.503768,214.776471 131.87789,214.776471 C132.252012,214.588235 132.626133,214.588235 133.000255,214.4 C139.173262,212.894118 145.159209,210.823529 150.958095,208.376471 C141.043871,221.929412 127.949612,232.847059 112.610624,240 C119.718935,239.435294 126.827247,238.305882 133.748498,236.235294 C158.627589,228.894118 179.578403,211.952941 192.111479,189.176471 C189.492628,203.482353 183.880802,217.223529 175.463065,229.270588 C181.449012,225.317647 186.873776,220.611765 191.924418,215.529412 C205.76692,201.035294 214.932901,182.4 217.925875,162.635294 C219.983544,172.423529 220.731787,182.588235 219.796483,192.564706 C264.504023,129.882353 223.5377,64.9411765 206.328103,47.8117647 C206.328103,47.6235294 206.141042,47.6235294 206.141042,47.4352941 L206.141042,47.4352941 C206.141042,48.1882353 206.141042,48.9411765 205.953981,49.6941176 C205.76692,51.2 205.579859,52.5176471 205.392799,53.8352941 C205.018677,55.1529412 204.644555,56.6588235 204.270434,57.9764706 C203.896312,59.2941176 203.335129,60.6117647 202.773947,61.9294118 C202.212764,63.2470588 201.651582,64.5647059 200.903339,65.6941176 C200.155095,66.8235294 199.406852,68.1411765 198.658609,69.2705882 C197.910365,70.4 196.975061,71.5294118 196.039757,72.6588235 C195.104453,73.7882353 194.169148,74.7294118 193.046783,75.8588235 C192.485601,76.4235294 191.924418,76.9882353 191.176175,77.3647059 C190.614993,77.7411765 190.240871,78.1176471 189.679688,78.6823529 C188.557323,79.6235294 187.434958,80.3764706 186.125532,81.1294118 C185.003167,81.8823529 183.693742,82.6352941 182.384316,83.2 L178.456038,84.8941176 C177.146612,85.4588235 175.837186,85.8352941 174.527761,86.2117647 C173.218335,86.5882353 171.721848,86.9647059 170.412422,87.1529412 C168.915936,87.3411765 167.60651,87.5294118 166.297084,87.7176471 C165.36178,87.7176471 164.239415,87.9058824 163.30411,87.9058824 C161.807624,87.9058824 160.498198,87.7176471 159.188772,87.7176471 C157.692285,87.5294118 156.382859,87.3411765 155.073434,87.1529412 C153.576947,86.9647059 152.267521,86.5882353 150.958095,86.0235294 C152.267521,85.8352941 153.764008,85.8352941 155.073434,85.4588235 C156.56992,85.2705882 157.879346,84.8941176 159.188772,84.5176471 C160.498198,84.1411765 161.994685,83.7647059 163.11705,83.2 L167.045327,81.5058824 C168.354753,80.9411765 169.477118,80.1882353 170.786544,79.4352941 C171.908909,78.6823529 173.218335,77.7411765 174.3407,76.9882353 C175.463065,76.0470588 176.58543,75.1058824 177.520734,74.1647059 C178.643099,73.2235294 179.578403,72.0941176 180.513707,71.1529412 C181.449012,70.0235294 182.384316,68.8941176 183.132559,67.7647059 C183.31962,67.5764706 183.31962,67.3882353 183.506681,67.2 C184.067863,66.2588235 184.816107,65.1294118 185.377289,64.1882353 C186.125532,62.8705882 186.686715,61.7411765 187.247897,60.4235294 C187.80908,59.1058824 188.370263,57.7882353 188.744384,56.4705882 L189.866749,52.5176471 C190.05381,51.0117647 190.427932,49.6941176 190.427932,48.3764706 C190.614993,46.8705882 190.614993,45.5529412 190.614993,44.2352941 C190.614993,43.2941176 190.614993,42.1647059 190.427932,41.2235294 C190.240871,39.7176471 190.05381,38.4 189.866749,37.0823529 C189.679688,35.5764706 189.305567,34.2588235 188.931445,32.9411765 C188.557323,31.6235294 187.996141,30.3058824 187.622019,28.9882353 C187.060837,27.6705882 186.499654,26.3529412 185.938472,25.2235294 C185.190228,23.9058824 184.629046,22.7764706 183.880802,21.4588235 C183.132559,20.3294118 182.197255,19.2 181.449012,18.0705882 C180.513707,16.9411765 179.578403,16 178.643099,14.8705882 C178.081916,14.3058824 177.520734,13.7411765 176.959551,13.3647059 C174.153639,11.1058824 171.347726,9.22352941 168.354753,7.34117647 C167.980631,7.15294118 167.60651,6.96470588 167.045327,6.77647059 C164.613536,4.70588235 162.742928,4.14117647 160.87232,3.38823529 L160.87232,3.38823529 Z" id="Shape"></path>
        </g>
    </g>
</svg>