<?xml version="1.0" encoding="UTF-8"?>
<svg width="180px" height="180px" viewBox="0 0 180 180" version="1.1" xmlns="http://www.w3.org/2000/svg" xmlns:xlink="http://www.w3.org/1999/xlink">
    <title>simple-icons:netcup</title>
    <g id="Page-1" stroke="none" stroke-width="1" fill="none" fill-rule="evenodd">
        <g id="simple-icons:netcup">
            <rect id="ViewBox" x="0.000143096252" y="0.000143096252" width="180" height="180"></rect>
            <path d="M39.3751431,7.12908649e-05 C28.9261376,-0.0198168543 18.899351,4.12219879 11.5107749,11.5107749 C4.12219879,18.899351 -0.0198168543,28.9261376 7.12908649e-05,39.3751431 L7.12908649e-05,140.625143 C-0.0198168543,151.074149 4.12219879,161.100935 11.5107749,168.489511 C18.899351,175.878087 28.9261376,180.020103 39.3751431,180.000215 L140.625143,180.000215 C151.074149,180.020103 161.100935,175.878087 168.489511,168.489511 C175.878087,161.100935 180.020103,151.074149 180.000215,140.625143 L180.000215,39.3751431 C180.020103,28.9261376 175.878087,18.899351 168.489511,11.5107749 C161.100935,4.12219879 151.074149,-0.0198168543 140.625143,7.12908649e-05 L39.3751431,7.12908649e-05 Z" id="Path" fill="#056473" fill-rule="nonzero"></path>
            <path d="M39.0376431,38.2651431 L110.152643,38.2651431 C123.240143,38.2651431 129.885143,45.0676431 129.885143,58.9126431 L129.885143,121.552643 L140.962643,121.552643 L140.962643,141.735143 L105.967643,141.735143 L105.967643,64.3501431 C105.967643,60.4951431 103.732643,58.4626431 99.3001431,58.4626431 L74.0476431,58.4626431 L74.0476431,141.735143 L50.1151431,141.735143 L50.1151431,58.4626431 L39.0376431,58.4626431 L39.0376431,38.2651431 Z" id="Path" fill="#FFFFFF" fill-rule="nonzero"></path>
        </g>
    </g>
</svg>