<?xml version="1.0" encoding="UTF-8"?>
<svg width="240px" height="241px" viewBox="0 0 240 241" version="1.1" xmlns="http://www.w3.org/2000/svg" xmlns:xlink="http://www.w3.org/1999/xlink">
    <title>netlas</title>
    <g id="Page-1" stroke="none" stroke-width="1" fill="none" fill-rule="evenodd">
        <g id="netlas" transform="translate(0, 0.3803)">
            <rect id="box" x="0" y="0" width="240" height="240"></rect>
            <path d="M98.5892116,65.4299777 L116.945126,76 L127.46888,57.5738286 L109.112966,47 L98.5892116,65.4299777 Z M184.232365,89.5738286 L165.87886,79 L155.352697,97.433784 L173.706202,108 L184.232365,89.5738286 Z M32.0883425,51.6413393 L53.4792867,14.227302 L90.7872815,35.6851256 L101.480828,16.9781069 L120.132899,27.7031552 L130.830297,9 L205.438582,51.9079202 L194.741184,70.6188023 L213.393256,81.3438506 L202.695857,100.050869 L240,121.508693 L218.605204,158.918867 L199.953132,148.193818 L210.65053,129.4868 L191.998459,118.757888 L170.607515,156.168062 L207.911658,177.625885 L186.516861,215.039923 L167.86479,204.311011 L178.562188,185.607856 L159.910117,174.878944 L127.821774,231 L109.169703,220.271088 L130.564499,182.857051 L111.908576,172.128139 L101.222734,190.823567 L82.5706627,180.094656 L82.5629584,180.110109 L63.9108871,169.377334 L74.6082853,150.674179 L55.956214,139.945267 L34.5614176,177.359305 L15.9131984,166.630393 L48.0015409,110.509337 L29.3494695,99.7842885 L18.6520713,118.487444 L1.70530257e-13,107.762395 L21.3909443,70.348358 L58.6950869,91.8023181 L80.0898833,54.3921442 L61.437812,43.6632325 L50.7404138,62.3702511 L32.0883425,51.6413393 Z" id="Shape" fill="#64B5F6" fill-rule="nonzero" transform="translate(120, 120) scale(-1, 1) rotate(-180) translate(-120, -120)"></path>
        </g>
    </g>
</svg>