<?xml version="1.0" encoding="UTF-8"?>
<svg width="240px" height="240px" viewBox="0 0 240 240" version="1.1" xmlns="http://www.w3.org/2000/svg" xmlns:xlink="http://www.w3.org/1999/xlink">
    <title>netmaker</title>
    <g id="Page-1" stroke="none" stroke-width="1" fill="none" fill-rule="evenodd">
        <g id="netmaker">
            <rect id="box" fill="#0F0D2D" x="0" y="0" width="240" height="240" rx="120"></rect>
            <path d="M173.473171,83.8295885 L156.614634,57.9756293 C155.560976,55.865102 152.926829,55.3374702 150.819512,56.9203657 C150.292683,57.4479975 149.765854,57.4479975 149.765854,57.9756293 C128.692683,89.1059067 126.585366,91.216434 145.02439,90.6888022 L145.02439,140.286193 L99.1902439,77.4980067 C97.0829268,74.8598476 93.9219512,72.7493203 90.2341463,73.2769521 C83.9121951,73.2769521 79.1707317,78.0256385 79.1707317,83.8295885 L79.1707317,150.83883 C76.5365854,150.83883 73.3756098,150.83883 70.2146341,150.83883 C68.1073171,150.83883 66,152.421725 66,155.059884 C66,156.115148 66,156.64278 66.5268293,157.170411 L83.3853659,183.024371 C84.4390244,185.134898 87.0731707,185.66253 89.1804878,184.079634 C89.7073171,183.552002 90.2341463,183.552002 90.2341463,183.024371 C111.307317,151.894093 113.414634,150.311198 95.502439,150.311198 L95.502439,99.1309113 L142.390244,163.501993 C144.497561,166.140152 147.131707,167.723048 150.819512,167.723048 C156.614634,167.723048 160.829268,162.974362 160.829268,157.698043 L160.829268,90.1611703 C163.463415,90.1611703 166.62439,90.1611703 169.785366,90.1611703 C171.892683,90.1611703 174,88.0506431 174,85.9401158 C174,84.8848521 174,84.3572203 173.473171,83.8295885 Z" id="Path" fill="#FAFAFA" fill-rule="nonzero"></path>
        </g>
    </g>
</svg>