<?xml version="1.0" encoding="UTF-8"?>
<svg width="240px" height="240px" viewBox="0 0 240 240" version="1.1" xmlns="http://www.w3.org/2000/svg" xmlns:xlink="http://www.w3.org/1999/xlink">
    <title>nextjs</title>
    <g id="Page-1" stroke="none" stroke-width="1" fill="none" fill-rule="evenodd">
        <g id="nextjs" transform="translate(0, -0.3737)" fill="#FFFFFF" fill-rule="nonzero">
            <path d="M112.140762,0.438305416 C111.624634,0.485219343 109.982405,0.649418087 108.504398,0.766702904 C74.4164223,3.83956513 42.4868035,22.2298245 22.2639296,50.4954655 C11.0029326,66.2116311 3.80058651,84.0389234 1.07917888,102.921778 C0.117302053,109.513185 0,111.460114 0,120.397216 C0,129.334319 0.117302053,131.281248 1.07917888,137.872654 C7.60117302,182.933481 39.6715542,220.793021 83.1671555,234.820285 C90.9560117,237.33018 99.1671553,239.042538 108.504398,240.074644 C112.140762,240.473413 127.859238,240.473413 131.495602,240.074644 C147.612903,238.291915 161.266862,234.304231 174.733138,227.431341 C176.797654,226.375778 177.196481,226.094295 176.914956,225.859725 C176.727273,225.718983 167.929619,213.92013 157.372434,199.658296 L138.181818,173.738352 L114.134898,138.154139 C100.903226,118.591031 90.0175953,102.593382 89.9237537,102.593382 C89.829912,102.569924 89.7360704,118.379918 89.6891496,137.684999 C89.6187683,171.486483 89.5953079,172.846987 89.1730206,173.644524 C88.5630499,174.793915 88.0938416,175.263055 87.1085044,175.779107 C86.3577713,176.154419 85.7008797,176.22479 82.1583577,176.22479 L78.0997068,176.22479 L77.0205278,175.544538 C76.3167156,175.098855 75.8005865,174.512431 75.4486804,173.832179 L74.9560118,172.776616 L75.0029326,125.745404 L75.0733138,78.6907356 L75.8005865,77.7759141 C76.1759531,77.2833179 76.973607,76.6499798 77.5366569,76.3450393 C78.4985337,75.8759 78.8739003,75.8289861 82.9325513,75.8289861 C87.7184751,75.8289861 88.516129,76.0166418 89.7595308,77.3771457 C90.111437,77.7524571 103.131965,97.3624785 118.709677,120.98364 C134.28739,144.604803 155.589443,176.858128 166.052786,192.691578 L185.055718,221.473273 L186.017595,220.839934 C194.533724,215.304091 203.542522,207.422551 210.674487,199.212615 C225.853373,181.78409 235.636364,160.532082 238.920821,137.872654 C239.882698,131.281248 240,129.334319 240,120.397216 C240,111.460114 239.882698,109.513185 238.920821,102.921778 C232.398827,57.860952 200.328445,20.001413 156.832845,5.9741488 C149.16129,3.48771067 140.997068,1.77535233 131.847507,0.743245941 C129.595308,0.508676306 114.087977,0.250649708 112.140762,0.438305416 L112.140762,0.438305416 Z M161.266862,73.0141505 C162.392962,73.5771176 163.307918,74.6561379 163.636364,75.7820722 C163.824047,76.3919533 163.870968,89.4340249 163.824047,118.8256 L163.753666,161.001221 L156.316716,149.601136 L148.856305,138.201052 L148.856305,107.5428 C148.856305,87.7216665 148.950146,76.5796089 149.090909,76.0400987 C149.466276,74.7265088 150.28739,73.6944024 151.413489,73.0845214 C152.375366,72.5919252 152.727273,72.5450113 156.410558,72.5450113 C159.882698,72.5450113 160.492669,72.5919252 161.266862,73.0141505 Z" id="Shape"></path>
        </g>
    </g>
</svg>