<?xml version="1.0" encoding="UTF-8"?>
<svg width="240px" height="240px" viewBox="0 0 240 240" version="1.1" xmlns="http://www.w3.org/2000/svg" xmlns:xlink="http://www.w3.org/1999/xlink">
    <title>nexus</title>
    <g id="Page-1" stroke="none" stroke-width="1" fill="none" fill-rule="evenodd">
        <g id="nexus">
            <rect id="box" x="0" y="0" width="240" height="240"></rect>
            <g id="shape" transform="translate(8, 0)" fill-rule="nonzero">
                <path d="M223,145.338458 L223,174.699979 L154.045435,215.054452 L136.548801,225.295751 L136.454985,225.295751 L111.406184,240 L86.2635675,225.295751 L68.7669331,215.101431 L0,174.699979 L0,145.385437 L25.752419,160.418535 L25.752419,160.653427 L93.7688263,200.350203 L111.359276,210.63848 L111.453092,210.732436 L111.640724,210.63848 L129.137358,200.397181 L197.247581,160.606449 L197.247581,160.371557 L223,145.338458 Z M197.200673,20 L197.200673,65.9449071 L129.09045,105.73564 L111.593816,115.976938 L111.406184,115.976938 L93.8157341,105.641683 L25.7993269,65.9449071 L25.7993269,20 L0,20 L0,80.0384369 L68.8607488,120.345932 L86.3573833,130.58723 L111.5,145.29148 L136.548801,130.58723 L154.045435,120.345932 L223,79.9914585 L223,20 L197.200673,20 Z" id="Shape" fill="#FFFFFF"></path>
                <path d="M223,98.4004376 L223,127.728179 L154.045435,168.036227 L136.548801,178.312667 L136.454985,178.312667 L111.406184,193 L86.2635675,178.312667 L68.7669331,167.989302 L0,127.775103 L0,98.4942864 L25.752419,113.51009 L25.752419,113.744712 L93.7688263,153.395818 L111.359276,163.672259 L111.453092,163.766107 L111.640724,163.672259 L129.137358,153.442743 L197.247581,113.697788 L197.247581,113.463166 L223,98.4004376 Z M115.534077,74.6566983 L115.534077,26.5122781 C118.629996,21.8667639 127.026504,18.2066618 133.218342,18.2066618 C135.46992,18.2066618 137.064788,18.3943593 138.472024,18.6289813 L138.472024,0 C129.559529,0 120.787758,5.25553124 115.580984,11.5903234 L115.580984,1.78312667 L96.7239345,1.78312667 L96.7239345,74.6097739 C96.677114,74.6566983 115.534077,74.6566983 115.534077,74.6566983" id="Shape" fill="#05BB6D"></path>
            </g>
        </g>
    </g>
</svg>