<?xml version="1.0" encoding="UTF-8"?>
<svg width="179px" height="180px" viewBox="0 0 179 180" version="1.1" xmlns="http://www.w3.org/2000/svg" xmlns:xlink="http://www.w3.org/1999/xlink">
    <title>nginx-proxy-manager</title>
    <g id="Page-1" stroke="none" stroke-width="1" fill="none" fill-rule="evenodd">
        <g id="nginx-proxy-manager">
            <path d="M89.4726562,1.63203777 L166.45825,46.0796908 L166.45825,134.974997 L89.4726563,179.42265 L12.487063,134.974997 L12.487063,46.0796908 L89.4726562,1.63203777 Z" id="Polygon" stroke="#979797" fill="#FFFFFF"></path>
            <g id="Group" transform="translate(11.25, 0)">
                <polygon id="Path" fill="#FAA42F" points="0.6328125 134.683594 9.99200722e-15 134.367188 9.99200722e-15 135 0.6328125 135.316406"></polygon>
                <polygon id="Path" fill="#DDB02A" points="0.6328125 112.183594 0.6328125 101.039062 9.99200722e-15 100.722656 9.99200722e-15 112.605469"></polygon>
                <polygon id="Path" fill="#C47728" points="8.3671875 116.683594 0.6328125 112.183594 9.99200722e-15 112.605469 9.99200722e-15 134.367187 0.6328125 134.683594 8.3671875 130.183594"></polygon>
                <polygon id="Path" fill="#F15933" points="20.0742188 145.828125 29.7421875 151.488281 29.7421875 152.121094 19.4414063 146.25"></polygon>
                <polygon id="Path" fill="#F37132" points="8.3671875 130.183594 0.6328125 134.683594 0.6328125 135.316406 19.4414063 146.25 20.0742188 145.828125 20.0742188 136.933594"></polygon>
                <polygon id="Path" fill="#D6E042" points="0.6328125 78.6445313 0.6328125 67.3945313 9.99200722e-15 67.078125 9.99200722e-15 78.9609375"></polygon>
                <path d="M0,100.722656 L0.6328125,101.039062 L7.3828125,97.171875 C7.06640625,94.78125 6.92578125,92.390625 6.9609375,90 C6.9609375,87.5390625 7.171875,84.9726562 7.3828125,82.5117187 L0.6328125,78.6445312 L0,78.9609375 L0,100.722656 Z" id="Path" fill="#FCEA3B"></path>
                <path d="M0.6328125,112.289063 L8.3671875,116.683594 L20.0742188,110.039063 L20.0742188,101.039063 L14.3789063,97.6992188 C14.484375,99.3164063 14.8007813,100.898438 15.1171875,102.515625 L8.89453125,106.171875 C8.12109375,103.21875 7.62890625,100.195313 7.3828125,97.171875 L0.6328125,101.039063 L0.6328125,112.289063 Z" id="Path" fill="#FAA42F"></path>
                <path d="M20.0742188,145.828125 L20.0742188,136.933594 L23.203125,135.105469 L23.0976563,135 C24.609375,136.828125 26.2265625,138.515625 27.8085938,140.132812 C30.515625,142.839844 33.3984375,145.300781 36.4921875,147.515625 L29.7421875,151.488281 L20.0742188,145.828125 Z M31.640625,130.183594 L39.4804688,134.683594 L39.4804688,141.222656 C37.0546875,139.464844 34.8046875,137.496094 32.7304688,135.316406 C31.4648438,134.15625 30.2695313,132.890625 29.1796875,131.554687 L31.640625,130.183594 Z" id="Shape" fill="#F15933"></path>
                <polygon id="Path" fill="#E22574" points="58.921875 168.222656 49.1484375 162.667969 48.6210938 162.984375 58.921875 168.996094"></polygon>
                <path d="M48.6210938,162.984375 L49.1484375,162.667969 L49.1484375,154.828125 C44.6835938,152.859375 40.4296875,150.433594 36.4921875,147.550781 L29.7070313,151.523438 L29.7070313,152.15625 L48.6210938,162.984375 Z" id="Path" fill="#EF3839"></path>
                <polygon id="Path" fill="#BBD64B" points="0.6328125 45 0.6328125 44.6835937 9.99200722e-15 45 9.99200722e-15 45.3164062"></polygon>
                <polygon id="Path" fill="#D6E042" points="10.3007813 50.5898438 0.6328125 45 9.99200722e-15 45.3164062 9.99200722e-15 67.078125 0.6328125 67.3945312 10.3007813 61.8046875"></polygon>
                <path d="M0.6328125,78.6445312 L7.3828125,82.5117188 C8.12109375,75.8320312 9.7734375,69.2578125 12.3046875,63.0351562 L10.265625,61.875 L0.59765625,67.4648438 L0.59765625,78.6445312 L0.6328125,78.6445312 Z M14.3789063,81.84375 L20.0742188,78.6445313 L20.0742188,67.3945313 L18.3515625,66.4101563 C16.3828125,71.3671875 15.046875,76.5703125 14.3789063,81.84375 L14.3789063,81.84375 Z" id="Shape" fill="#FFCF29"></path>
                <path d="M14.3789063,97.6992188 L20.0742188,101.039063 L29.7421875,95.4492188 L29.7421875,84.1992188 L20.0742188,78.6445313 L14.3789063,81.84375 C14.0273438,84.5507813 13.8515625,87.2578125 13.8515625,90 C13.8515625,92.5664063 14.0273438,95.1679688 14.3789063,97.6992188 L14.3789063,97.6992188 Z" id="Path" fill="#FAA42F"></path>
                <polygon id="Path" fill="#F15933" points="49.1484375 119.039063 49.1484375 128.988281 39.4804688 134.683594 31.640625 130.183594 31.640625 116.683594 38.390625 112.816406"></polygon>
                <path d="M49.1484375,162.667969 L58.921875,168.222656 L68.6953125,162.667969 L68.6953125,160.417969 C61.8398438,159.46875 55.265625,157.640625 49.1484375,154.828125 L49.1484375,162.667969 L49.1484375,162.667969 Z M68.6953125,153.457031 L68.6953125,151.523438 L58.921875,145.863281 L53.2265625,149.167969 C58.1835938,151.277344 63.3867188,152.683594 68.6953125,153.457031 L68.6953125,153.457031 Z" id="Shape" fill="#EE438D"></path>
                <polygon id="Path" fill="#F37132" points="29.7421875 95.4492188 20.0742188 101.039062 20.0742188 110.039062 31.6757813 116.683594 38.4257813 112.816406 38.4257813 100.40625"></polygon>
                <polygon id="Path" fill="#CC3192" points="68.6953125 162.632812 58.921875 168.1875 58.921875 168.925781 77.6953125 179.753906 78.328125 179.4375 78.328125 168.1875"></polygon>
                <path d="M53.2265625,149.167969 L58.921875,145.863281 L58.921875,134.71875 L49.1484375,129.023438 L39.4804688,134.71875 L39.4804688,141.257812 C43.6992188,144.457031 48.3046875,147.128906 53.2265625,149.167969 L53.2265625,149.167969 Z" id="Path" fill="#BD2025"></path>
                <polygon id="Path" fill="#9B3995" points="78.328125 179.472656 77.6953125 179.789062 78.1171875 180 78.6445312 179.683594"></polygon>
                <polygon id="Path" fill="#F1EB59" points="20.0742188 33.75 19.7578125 33.6445312 0.66796875 44.6835937 0.66796875 45 10.3359375 50.5898437 20.0742188 45"></polygon>
                <path d="M10.3007813,61.8398438 L12.3398438,63 C14.8007813,56.8828125 18.140625,51.328125 22.1132813,46.1601562 L20.0742188,45 L10.3007813,50.5898438 L10.3007813,61.8398438 Z M18.3515625,66.4101562 L20.0742188,67.3945312 L29.7421875,61.8398438 L29.7421875,50.5898438 L28.125,49.7460938 C24.046875,54.7734375 20.7773438,60.3984375 18.3515625,66.4101562 L18.3515625,66.4101562 Z" id="Shape" fill="#FCEA3B"></path>
                <polygon id="Path" fill="#FAA42F" points="38.4257813 79.171875 38.4257813 67.1835938 38.7421875 66.9726563 29.7421875 61.8398438 20.0742188 67.3945313 20.0742188 78.6445313 29.7421875 84.1992188"></polygon>
                <polygon id="Path" fill="#E22574" points="78.328125 145.828125 78.328125 135.527344 78.1171875 135.632813 67.6054687 129.621094 58.921875 134.648438 58.921875 145.792969 68.6953125 151.453125"></polygon>
                <polygon id="Path" fill="#F7975F" points="38.4257813 100.40625 38.4257813 79.2070312 29.7421875 84.234375 29.7421875 95.484375"></polygon>
                <path d="M68.6953125,162.632812 L78.3632812,168.1875 L88.1367188,162.632812 L88.1367188,160.277344 C84.8320312,160.699219 81.4921875,160.910156 78.1523438,160.910156 C74.9882812,160.910156 71.859375,160.734375 68.6953125,160.382812 L68.6953125,162.632812 L68.6953125,162.632812 Z M88.1015625,153.316406 L88.1015625,151.488281 L78.328125,145.828125 L68.6601562,151.488281 L68.6601562,153.421875 C71.7890625,153.84375 74.953125,154.054688 78.1171875,154.054688 C81.4570312,154.089844 84.796875,153.84375 88.1015625,153.316406 L88.1015625,153.316406 Z" id="Shape" fill="#CC3192"></path>
                <polygon id="Path" fill="#D31F26" points="58.921875 134.683594 67.6054688 129.65625 49.1484375 119.039062 49.1484375 129.023437"></polygon>
                <polygon id="Path" fill="#73206A" points="97.7695313 168.222656 88.1015625 162.667969 78.328125 168.222656 78.328125 179.472656 78.6445313 179.683594 97.734375 168.644531 97.734375 168.222656"></polygon>
                <polygon id="Path" fill="#D6E042" points="20.0742188 33.75 29.7421875 28.1601563 29.7421875 27.84375 19.7578125 33.6445313"></polygon>
                <path d="M20.0742188,45 L22.1132812,46.1601563 C23.9414062,43.9101562 25.875,41.8710938 27.8085938,39.8320312 C30.5859375,37.0546875 33.609375,34.4882812 36.8085938,32.2382813 L29.7070312,28.1601563 L20.0742188,33.75 L20.0742188,45 Z M28.125,49.7109375 L29.7421875,50.5898438 L39.515625,45 L39.515625,38.7773438 C37.0898438,40.5351562 34.8398438,42.5039062 32.765625,44.6835938 C31.1132813,46.3007812 29.6015625,47.8828125 28.125,49.7109375 L28.125,49.7109375 Z" id="Shape" fill="#FFCF29"></path>
                <polygon id="Path" fill="#FAA42F" points="49.1484375 50.5898438 39.4804688 45 29.7070312 50.5898438 29.7070312 61.8398438 38.7070313 66.9726562 49.1132813 60.9609375 49.1132813 50.5898438"></polygon>
                <polygon id="Path" fill="#853A96" points="107.542969 162.667969 97.7695313 168.222656 97.7695313 168.644531 107.859375 162.84375"></polygon>
                <polygon id="Path" fill="#CC3192" points="97.7695313 134.683594 88.875 129.445312 78.3632813 135.5625 78.3632813 145.863281 88.1367188 151.523437 97.8046875 145.863281"></polygon>
                <path d="M88.1015625,162.632812 L97.7695313,168.1875 L107.542969,162.632812 L107.542969,154.582031 C101.355469,157.394531 94.8164063,159.292969 88.1015625,160.277344 L88.1015625,162.632812 Z M103.253906,149.027344 L97.7695313,145.828125 L88.1015625,151.488281 L88.1015625,153.316406 C93.375,152.472656 98.5078125,151.066406 103.253906,149.027344 Z" id="Shape" fill="#9B3995"></path>
                <path d="M29.7070313,28.1601562 L36.8085938,32.2382812 C40.6757813,29.4609375 44.8242188,27.1054687 49.1484375,25.171875 L49.1484375,16.9101562 L48.9375,16.8046875 L29.7421875,27.84375 L29.7070313,28.1601562 Z" id="Path" fill="#FFCF29"></path>
                <path d="M39.4804688,45 L49.1484375,50.5898438 L58.921875,45 L58.921875,33.75 L53.6484375,30.7617188 C48.4804688,32.8007812 43.7695313,35.578125 39.4804688,38.8125 L39.4804688,45 Z" id="Path" fill="#D98A26"></path>
                <path d="M107.542969,162.667969 L107.859375,162.878906 L126.949219,151.839844 L126.949219,151.523437 L119.847656,147.445312 C115.980469,150.222656 111.832031,152.648437 107.507813,154.617187 L107.542969,162.667969 Z" id="Path" fill="#8F4F9F"></path>
                <polygon id="Path" fill="#F37132" points="58.921875 45 49.1484375 50.5898438 49.1484375 60.9960938 67.921875 50.1679687"></polygon>
                <polygon id="Path" fill="#D24B9B" points="97.7695313 134.683594 107.542969 128.988281 107.542969 118.6875 88.875 129.410156"></polygon>
                <path d="M97.7695313,145.828125 L103.253906,149.027344 C108.246094,146.917969 112.957031,144.140625 117.210938,140.765625 L117.210938,134.648437 L107.542969,128.953125 L97.7695313,134.683594 L97.7695313,145.828125 Z" id="Path" fill="#B263A7"></path>
                <polygon id="Path" fill="#FFCF29" points="49.1484375 16.9101563 58.921875 11.3203125 58.921875 11.0039063 48.9375 16.8046875"></polygon>
                <path d="M53.6484375,30.7617187 L58.921875,33.75 L66.7617187,29.3554687 L66.7617187,26.8945312 L67.1835937,26.7890625 C62.5429687,27.5976562 58.0078125,28.9335937 53.6484375,30.7617187 Z M66.7265625,15.8554687 L58.8867187,11.3554687 L49.1132812,16.9453125 L49.1132812,25.2070312 C54.7382812,22.7460937 60.6445312,20.9882812 66.6914062,19.96875 L66.7265625,15.8554687 Z" id="Shape" fill="#FAA42F"></path>
                <path d="M119.882813,147.445313 L126.984375,151.523438 L136.757813,145.863281 L136.757813,136.96875 L125.050781,130.21875 L117.210938,134.71875 L117.210938,140.835938 C118.511719,139.992188 119.566406,139.007813 120.761719,138.058594 L126.984375,141.609375 C124.734375,143.648438 122.34375,145.617188 119.882813,147.445313 L119.882813,147.445313 Z" id="Path" fill="#6B297A"></path>
                <polygon id="Path" fill="#782A8F" points="136.722656 145.828125 126.949219 151.488281 126.949219 151.804687 137.039063 146.003906"></polygon>
                <polygon id="Path" fill="#F37132" points="78.1171875 44.3671875 78.328125 44.4726562 78.328125 36 66.7265625 29.3554688 58.921875 33.75 58.921875 45 67.9570312 50.1328125"></polygon>
                <polygon id="Path" fill="#9B3995" points="125.015625 130.183594 125.015625 116.683594 117.738281 112.5 117.738281 112.816406 107.542969 118.722656 107.542969 129.023438 117.210938 134.71875"></polygon>
                <polygon id="Path" fill="#FAA42F" points="78.328125 9.10546875 78.328125 0.2109375 78.1171875 0 58.921875 11.0390625 58.921875 11.3554687 66.7617188 15.8554687"></polygon>
                <polygon id="Path" fill="#F15933" points="78.328125 36 90.0351563 29.3554688 97.7695313 33.75 97.7695313 45 88.5234375 50.34375 78.328125 44.4375"></polygon>
                <polygon id="Path" fill="#782A8F" points="156.164063 134.683594 148.324219 130.183594 136.722656 136.933594 136.722656 145.828125 137.039063 146.039062 156.128906 135"></polygon>
                <polygon id="Path" fill="#A01664" points="126.984375 95.484375 126.984375 84.234375 117.738281 78.890625 117.738281 100.757813"></polygon>
                <polygon id="Path" fill="#C02026" points="107.542969 50.5898438 97.7695313 45 88.5234375 50.34375 107.507812 61.2773437 107.507812 50.5898438"></polygon>
                <polygon id="Path" fill="#9B3995" points="136.722656 110.039062 136.722656 101.039062 126.949219 95.4492188 117.738281 100.6875 117.738281 112.5 125.015625 116.683594"></polygon>
                <path d="M90.0351563,15.8554687 L97.7695313,11.3554687 L107.542969,16.9453125 L107.542969,25.4179687 C104.625,24.0820312 101.601563,22.9921875 98.5078125,22.078125 L98.5078125,29.25 C100.019531,29.671875 101.496094,30.234375 102.902344,30.8671875 L97.7695313,33.75 L90.0351563,29.3554687 L90.0351563,15.8554687 Z" id="Path" fill="#F15933"></path>
                <path d="M138.023438,112.921875 C138.234375,112.605469 138.375,112.21875 138.445313,111.832031 C138.375,112.253906 138.234375,112.605469 138.023438,112.921875 Z M138.65625,111.445312 C140.203125,107.121094 141.222656,102.621094 141.785156,98.0507812 L136.722656,101.039062 L136.722656,110.039062 L138.761719,111.234375 L138.65625,111.445312 Z M148.324219,116.683594 L156.164063,112.183594 L156.164063,101.039062 L148.851563,96.8554688 C148.253906,103.007812 146.8125,109.054687 144.667969,114.855469 L144.773438,114.644531 L148.324219,116.683594 Z" id="Shape" fill="#9051A0"></path>
                <polygon id="Path" fill="#B01B4A" points="117.210938 45 107.542969 50.5898438 107.542969 61.3125 117.632813 67.21875 126.984375 61.875 126.984375 50.625"></polygon>
                <polygon id="Path" fill="#C54627" points="97.7695312 11.3554688 78.3632812 0.2109375 78.3632812 9.10546875 90.0351562 15.8554688"></polygon>
                <polygon id="Path" fill="#A41768" points="136.757812 78.6445313 136.757812 67.3945313 126.984375 61.8398438 117.632812 67.1835938 117.738281 67.1835938 117.738281 78.8554688 126.984375 84.1992188"></polygon>
                <path d="M97.7695313,45 L107.542969,50.5898437 L117.210938,45 L117.210938,39.1992187 C112.851563,35.7539062 108.070313,32.9414062 102.9375,30.8320312 L97.7695313,33.75 L97.7695313,45 Z" id="Path" fill="#EF3839"></path>
                <path d="M126.949219,95.4492188 L136.722656,101.039063 L141.75,98.0507813 C142.101563,95.3789062 142.277344,92.7070313 142.277344,90 C142.277344,87.1875 142.066406,84.3398438 141.75,81.5273438 L136.6875,78.6445313 L126.949219,84.1992188 L126.949219,95.4492188 Z" id="Path" fill="#9B3995"></path>
                <path d="M148.851563,96.8554688 L156.164063,101.039063 L156.164063,78.6445313 L148.746094,82.828125 C149.0625,85.21875 149.203125,87.609375 149.167969,90 C149.167969,92.3554688 149.0625,94.6054688 148.851563,96.8554688 L148.851563,96.8554688 Z" id="Path" fill="#6B297A"></path>
                <path d="M117.175781,45 L126.949219,50.5898438 L128.144531,49.9570313 C126.738281,48.09375 125.191406,46.3710938 123.539062,44.71875 C121.535156,42.7851563 119.425781,40.9570313 117.210938,39.2695313 L117.210938,45 L117.175781,45 Z M134.15625,46.40625 L136.722656,45 L136.722656,33.75 L126.949219,28.1601563 L119.671875,32.4492188 C122.765625,34.6640625 125.683594,37.1601563 128.355469,39.8320313 C130.394531,41.9414063 132.328125,44.1210938 134.15625,46.40625 L134.15625,46.40625 Z" id="Shape" fill="#E22574"></path>
                <path d="M156.164063,101.039063 L156.164063,112.289063 L156.164063,101.039063 Z" id="Path" fill="#782A8F"></path>
                <path d="M126.949219,61.8398438 L136.722656,67.4296875 L137.882813,66.796875 C135.5625,60.7148437 132.257813,55.0195312 128.109375,49.9921875 L126.949219,50.625 L126.949219,61.8398438 Z M143.929688,63.2109375 L146.390625,61.8046875 L146.390625,50.5546875 L136.722656,45 L134.15625,46.40625 C138.128906,51.5390625 141.433594,57.1992188 143.929688,63.2109375 L143.929688,63.2109375 Z" id="Shape" fill="#CC3192"></path>
                <path d="M119.671875,32.4492188 L126.949219,28.1601563 L107.507813,16.9101563 L107.507813,25.3828125 C111.796875,27.3164063 115.875,29.7070313 119.671875,32.4492188 Z" id="Path" fill="#EF3839"></path>
                <path d="M136.722656,78.6445312 L141.785156,81.5273437 C141.082031,76.4648437 139.78125,71.5078125 137.917969,66.7265625 L136.722656,67.359375 L136.722656,78.6445312 Z M148.746094,82.828125 L156.164063,78.6445312 L156.164063,67.3945312 L146.390625,61.8046875 L143.929688,63.2109375 C146.390625,69.4335937 148.113281,75.9726562 148.746094,82.828125 L148.746094,82.828125 Z" id="Shape" fill="#B263A7"></path>
                <polygon id="Path" fill="#D1499A" points="146.390625 50.5898438 156.164063 45 136.722656 33.75 136.722656 45"></polygon>
                <polygon id="Path" fill="#9B3995" points="146.390625 50.5898438 146.390625 61.8398438 156.164063 67.4296875 156.164063 45"></polygon>
                <polygon id="Path" fill="#85459A" points="156.164063 112.183594 148.324219 116.683594 148.324219 130.183594 156.164063 134.683594 156.164063 112.289062"></polygon>
                <polygon id="Path" fill="#F15933" points="58.921875 101.039062 58.921875 102.128906 57.9726562 101.601562 57.9726562 100.546875"></polygon>
                <polygon id="Path" fill="#F15933" points="68.6953125 95.4492188 58.921875 101.039063 57.9726563 100.511719 57.9726563 79.171875 58.921875 78.6445313 68.6953125 84.1992188"></polygon>
                <polygon id="Path" fill="#E22574" points="78.328125 112.183594 77.34375 112.816406 78.0820313 113.238281 79.0664062 112.605469"></polygon>
                <polygon id="Path" fill="#EF3839" points="68.6953125 95.4492188 58.921875 101.039062 58.921875 102.128906 77.3789063 112.851562 78.3632813 112.21875 78.3632813 101.074219"></polygon>
                <polygon id="Path" fill="#EE3F8A" points="97.7695313 101.039062 88.1015625 95.484375 78.328125 101.039062 78.328125 112.183594 79.0664063 112.605469 97.734375 101.777344"></polygon>
                <polygon id="Path" fill="#EF3839" points="88.1015625 84.1992188 78.328125 78.6445313 68.6601563 84.1992188 68.6601563 95.4492188 78.328125 101.039063 88.1015625 95.4492188"></polygon>
                <polygon id="Path" fill="#E22574" points="98.1914063 78.8554688 97.7695313 78.6445313 88.1015625 84.1992188 88.1015625 95.4492188 97.7695313 101.039062 98.1914063 100.828125"></polygon>
                <polygon id="Path" fill="#CC3192" points="97.7695313 101.039063 97.7695313 101.777344 98.1914063 101.566406 98.1914063 100.828125"></polygon>
                <polygon id="Path" fill="#F37132" points="58.921875 78.6445313 58.921875 77.90625 57.9726562 78.4335938 57.9726562 79.171875"></polygon>
                <polygon id="Path" fill="#F15933" points="78.328125 67.3945313 78.328125 78.6445313 68.6601563 84.1992188 58.8867188 78.6445313 58.8867188 77.90625 77.6601563 67.078125"></polygon>
                <polygon id="Path" fill="#F4805F" points="78.3632813 67.3945313 77.7304688 67.078125 78.1523438 66.8671875 78.7851563 67.1835938"></polygon>
                <polygon id="Path" fill="#EF3839" points="97.7695313 78.2226562 78.7851563 67.1835937 78.3632813 67.3945312 78.3632813 78.6445312 88.1367188 84.1992187 97.8046875 78.6445312 97.8046875 78.2226562"></polygon>
                <polygon id="Path" fill="#E22574" points="98.1914063 78.8554688 98.1914063 78.4335938 97.7695313 78.2226562 97.7695313 78.6445312"></polygon>
                <polygon id="Path" fill="#F37132" points="85.0078125 18.7382812 78.3632813 14.8710937 71.71875 18.7382812 71.71875 26.4375 78.3632813 30.3046875 85.0078125 26.4375"></polygon>
                <polygon id="Path" fill="#552263" points="143.402344 119.566406 136.757813 115.699219 130.007813 119.566406 130.007813 127.265625 136.757813 131.132812 143.402344 127.265625"></polygon>
                <polygon id="Path" fill="#F37132" points="26.71875 119.566406 20.0742188 115.699219 13.4296875 119.566406 13.4296875 127.300781 20.0742188 131.132812 26.71875 127.265625"></polygon>
            </g>
        </g>
    </g>
</svg>