<?xml version="1.0" encoding="UTF-8"?>
<svg width="240px" height="240px" viewBox="0 0 240 240" version="1.1" xmlns="http://www.w3.org/2000/svg" xmlns:xlink="http://www.w3.org/1999/xlink">
    <title>nhost</title>
    <g id="Page-1" stroke="none" stroke-width="1" fill="none" fill-rule="evenodd">
        <g id="nhost">
            <rect id="box" x="0" y="0" width="240" height="240"></rect>
            <path d="M211.894082,51.5651391 L127.902168,3.2424316 C120.331249,-1.08081053 111.033599,-1.08081053 103.46268,3.2424316 C95.9193927,7.58992766 91.2640851,15.6165553 91.2429358,24.3115731 L91.2429358,30.6162781 L85.7706593,27.4589139 C78.1971746,23.1318483 68.894615,23.1318483 61.3211303,27.4589139 C53.7731727,31.8186753 49.1241547,39.8629317 49.1214679,48.5681489 L49.1214679,54.8728539 L43.6391505,51.7154897 C36.070797,47.396069 26.7780567,47.396069 19.2097032,51.7154897 C11.6671833,56.067324 7.01549927,64.0981182 7,72.7946546 L7,224.167716 C7.00693929,228.559267 9.52581967,232.561132 13.4863338,234.472863 C17.4468479,236.384594 22.1532562,235.870359 25.6057402,233.148663 L67.2452461,200.422332 L131.48676,237.358482 C135.049435,239.374304 139.410846,239.374304 142.973521,237.358482 C146.517949,235.323736 148.716901,231.534899 148.716901,227.445361 L148.716901,136.372944 C148.684684,121.376234 140.659331,107.530084 127.651146,100.028174 L106.605474,87.8998859 L106.605474,24.3416432 C106.615942,21.0973975 108.355601,18.1040019 111.171707,16.4846192 C113.987813,14.8652364 117.454532,14.8647394 120.271104,16.4833145 L204.263018,64.7859752 C212.538373,69.5601532 217.644524,78.3686671 217.667585,87.9099093 L217.667585,201.344483 C217.661228,204.588171 215.92409,207.582759 213.109028,209.202812 L190.85845,222.002666 L190.85845,112.126392 C190.830354,97.1285731 182.803897,83.2805175 169.792696,75.7816214 L118.082193,46.0522809 L118.082193,63.6533334 L162.131509,88.9924341 C170.406781,93.7618047 175.513558,102.567577 175.536076,112.106345 L175.536076,228.578002 C175.536076,232.627447 177.745068,236.446354 181.289497,238.491124 C184.853223,240.502959 189.212531,240.502959 192.776257,238.491124 L220.790297,222.373531 C228.331309,218.020192 232.982442,209.990349 233,201.294366 L233,87.8698158 C232.928816,72.8862445 224.898016,59.0657445 211.904123,51.5651391 L211.894082,51.5651391 Z M119.642439,113.657337 C127.894867,118.417509 132.98469,127.208954 133,136.729312 L133,221 L80,190.500608 L97.0096281,177.135257 C102.887306,172.556027 106.315067,165.518561 106.294884,158.071888 L106.294884,106 L119.652445,113.667333 L119.642439,113.667333 L119.642439,113.657337 Z M90.9799068,96.3168892 L90.9799068,157.402635 C90.9799068,160.212098 89.7039895,162.820885 87.5037857,164.52663 L22,216 L22,72.3361184 C22.0042903,69.0858777 23.7438683,66.0846414 26.5638419,64.4622733 C29.3838154,62.8399051 32.8560676,62.8427065 35.6734129,64.4696229 L48.8344496,72.0351045 L48.8344496,180.329858 L64.1555038,168.289303 L64.1555038,48.0844351 C64.1613054,44.8328781 65.9036753,41.8314406 68.7262046,40.210864 C71.5487338,38.5902875 75.0225548,38.5968096 77.8389633,40.2279733 L90.9799068,47.7834212 L90.9799068,78.6473757 L75.6688992,69.8276696 L75.6688992,87.4871494 L91,96.3168892 L90.9799068,96.3168892 Z" id="Shape" fill="#FFFFFF" fill-rule="nonzero"></path>
        </g>
    </g>
</svg>