<?xml version="1.0" encoding="UTF-8"?>
<svg width="240px" height="241px" viewBox="0 0 240 241" version="1.1" xmlns="http://www.w3.org/2000/svg" xmlns:xlink="http://www.w3.org/1999/xlink">
    <title>nodejs</title>
    <g id="Page-1" stroke="none" stroke-width="1" fill="none" fill-rule="evenodd">
        <g id="nodejs" transform="translate(-169, 45.1673)">
            <rect id="box" x="169" y="-45" width="240" height="240"></rect>
            <path d="M386.621047,8.17873949 L299.25129,-42.6420579 C293.741271,-45.7859807 286.566953,-45.7859807 281.013346,-42.6420579 L192.710393,8.17873949 C187.024037,11.4556439 183,17.6144775 183,24.2020278 L183,125.708656 C183,132.296207 187.129047,138.457025 192.815402,141.751793 L216.145308,155.026133 C227.296112,160.527998 231.236935,160.527998 236.311065,160.527998 C252.821308,160.527998 262.252336,150.526592 262.252336,133.082187 L262.252336,32.8696483 C262.252336,31.4544861 261.517271,29.3486135 260.130355,29.3486135 L248.989458,29.3486135 C247.578766,29.3486135 244.420561,31.4544861 244.420561,32.8676635 L244.420561,133.080202 C244.420561,140.812982 237.43843,148.508051 224.389533,141.972105 L200.282953,128.052705 C199.442879,127.596201 198.850467,126.677238 198.850467,125.708656 L198.850467,24.2020278 C198.850467,23.2453543 199.950093,22.2847113 200.796112,21.7944657 L288.813757,-28.9390005 C289.636,-29.4054284 290.844598,-29.4054284 291.66486,-28.9390005 L378.608636,21.7825569 C379.440785,22.2847113 379.147551,23.2155823 379.147551,24.2020278 L379.147551,125.708656 C379.147551,126.677238 379.510131,127.620018 378.687888,128.086446 L291.339925,178.849684 C290.590991,179.300234 289.661757,179.300234 288.841495,178.849684 L266.438841,165.454271 C265.763215,165.061281 264.960785,164.92036 264.312897,165.283578 C258.079701,168.822476 256.930542,169.292874 251.083701,171.323324 C249.645271,171.825478 247.52329,172.696805 251.896037,175.152003 L281.215439,192.52694 C284.014602,194.146561 287.190047,195 290.422579,195 C293.675888,195 296.861832,194.154475 299.669346,192.52694 L386.619065,141.751793 C392.305421,138.433207 395,132.296207 395,125.708656 L395,24.2020278 C395,17.6144775 392.305421,11.4715223 386.621047,8.17873949 L386.621047,8.17873949 Z M317.550654,109.623839 C294.317832,109.623839 289.200112,103.203012 287.494206,91.6296446 C287.296075,90.3831904 286.240037,88.8926058 284.973981,88.8926058 L273.619103,88.8926058 C272.214355,88.8926058 271.085009,90.5995336 271.085009,92.0008022 C271.085009,106.819317 279.12714,124.773816 317.552636,124.773816 C345.368224,124.773816 361.315776,113.946733 361.315776,94.7854762 C361.315776,75.7869731 348.502654,70.8011561 321.52714,67.224547 C294.260374,63.6141963 291.490505,61.7901653 291.490505,55.3911709 C291.490505,50.1155732 293.836374,43.0794581 314.025907,43.0794581 C332.06572,43.0794581 338.714991,46.9577568 341.451178,59.1384729 C341.684972,60.2837023 342.729121,61.1054094 343.908,61.1054094 L355.308449,61.1054094 C356.009832,61.1054094 356.679514,60.821583 357.170879,60.3194287 C357.646393,59.7795632 357.898019,59.1027465 357.834617,58.3763098 C356.069271,37.4009461 342.158505,27.6258074 314.023925,27.6258074 C288.998019,27.6258074 274.06886,38.2127292 274.06886,55.9588237 C274.06886,75.2074116 288.922729,80.5266749 312.946093,82.9064498 C341.684972,85.728835 343.919888,89.9366105 343.919888,95.5992441 C343.919888,105.433927 336.038243,109.623839 317.550654,109.623839 Z" id="Shape" fill="#83CD29" fill-rule="nonzero"></path>
        </g>
    </g>
</svg>