<?xml version="1.0" encoding="UTF-8"?>
<svg width="240px" height="240px" viewBox="0 0 240 240" version="1.1" xmlns="http://www.w3.org/2000/svg" xmlns:xlink="http://www.w3.org/1999/xlink">
    <title>norton</title>
    <g id="Page-1" stroke="none" stroke-width="1" fill="none" fill-rule="evenodd">
        <g id="norton">
            <path d="M240,120 C240,186.146872 186.146872,240 120,240 C53.8531278,240 0,186.146872 0,120 C0,53.7443336 53.7443336,0 120,0 C138.277425,0 155.684497,4.13417951 171.133273,11.4233908 L151.223935,37.0988214 C141.541251,33.3998187 130.988214,31.4415231 120,31.4415231 C73.3272892,31.4415231 34.9229374,67.6699909 31.6591115,113.581142 C31.5503173,114.56029 31.5503173,115.430644 31.5503173,116.409791 C31.5503173,117.606528 31.4415231,118.803264 31.4415231,120.108794 C31.4415231,168.957389 71.1514053,208.667271 120,208.667271 C168.848595,208.667271 208.558477,168.957389 208.558477,120.108794 C208.558477,113.581142 207.796917,107.162285 206.491387,101.06981 L229.664551,71.2601995 C236.300997,86.0562103 240,102.592928 240,120" id="Path" fill="#FBDE2A"></path>
            <path d="M219.973255,44.6095321 L117.211211,165.448693 L51.9732548,112.189952 L75.640408,88.0221195 L112.551357,118.120022 L194.834569,21.4486929 C204.276904,28.1619796 212.738218,35.8822593 219.973255,44.6095321" id="Path" fill="#FFFFFF"></path>
        </g>
    </g>
</svg>