<?xml version="1.0" encoding="UTF-8"?>
<svg width="240px" height="240px" viewBox="0 0 240 240" version="1.1" xmlns="http://www.w3.org/2000/svg" xmlns:xlink="http://www.w3.org/1999/xlink">
    <title>Group</title>
    <g id="Page-1" stroke="none" stroke-width="1" fill="none" fill-rule="evenodd">
        <g id="Group">
            <rect id="box" fill="#FFFFFF" x="0" y="0" width="240" height="240" rx="31"></rect>
            <g id="notebooklm" transform="translate(42, 62)" fill="#000000">
                <path d="M77.4935417,0 C34.6941667,0 0,35.1093333 0,78.4417778 L0,116 L14.2858333,116 L14.2858333,112.262222 C14.2858333,94.6817778 28.3520833,80.4395556 45.7120833,80.4395556 C63.0720833,80.4395556 77.1383333,94.6817778 77.1383333,112.255778 L77.1383333,116 L91.4241667,116 L91.4241667,112.262222 C91.4241667,86.6971111 70.95125,65.9911111 45.7120833,65.9911111 C36.2390378,65.9794613 27.0040327,68.9519431 19.3233333,74.4848889 C27.125,58.7862222 43.186875,48.0111111 61.7416667,48.0111111 C87.943125,48.0111111 109.191042,69.5226667 109.191042,96.0415556 L109.191042,116 L123.476875,116 L123.476875,96.0415556 C123.476875,61.5315556 95.8352083,33.5433333 61.7352083,33.5433333 C46.9689354,33.5344829 32.7014793,38.8747041 21.58375,48.5717778 C32.1883333,28.2782222 53.2425,14.4548889 77.5,14.4548889 C112.41375,14.4548889 140.714167,43.1068889 140.714167,78.4482222 L140.714167,116 L155,116 L155,78.4417778 C154.993542,35.1093333 120.299375,0 77.4935417,0 Z" id="Path"></path>
            </g>
        </g>
    </g>
</svg>