<?xml version="1.0" encoding="UTF-8"?>
<svg width="180px" height="181px" viewBox="0 0 180 181" version="1.1" xmlns="http://www.w3.org/2000/svg" xmlns:xlink="http://www.w3.org/1999/xlink">
    <title>devicon:notion</title>
    <g id="Page-1" stroke="none" stroke-width="1" fill="none" fill-rule="evenodd">
        <g id="devicon:notion">
            <rect id="ViewBox" x="0" y="0" width="180" height="180"></rect>
            <path d="M107.226562,0.3515625 L125.590781,0.4725 C125.936719,0.74109375 126.216562,0.916875 126.513281,1.0490625 C129.841875,2.55375 133.450312,3.6309375 136.449844,5.630625 C145.146094,11.4103125 153.638437,17.5007812 162.125156,23.5884375 C166.069688,26.4107813 169.957969,29.3498438 173.594531,32.54625 C176.297344,34.92 177.510937,38.2879688 177.517969,41.8795312 L177.510937,154.90125 C177.506719,156.477656 177.236719,158.099062 176.797969,159.615 C174.803906,166.525312 170.38125,171.254531 163.421719,173.100937 C159.751406,174.072656 155.874375,174.375 152.067656,174.688594 C146.129063,175.182187 140.169375,175.424062 134.219531,175.78125 L122.963906,176.484375 L104.941406,177.544688 L93.8615625,178.236563 L75.6632812,179.29125 L66.2582813,179.676563 C65.9559375,179.692031 65.6760938,180.115313 65.390625,180.351562 C58.2328125,180.351562 51.080625,180.351562 43.8623438,180.23625 C43.5164063,179.962031 43.2534375,179.74125 42.9454688,179.654063 C38.5832813,178.389844 34.925625,175.979531 32.113125,172.479375 C28.2178125,167.640469 24.5165625,162.6525 20.7703125,157.698281 C16.16625,151.610625 11.4426563,145.612969 7.09171875,139.350938 C4.53435552,135.691875 3.1645883,131.334641 3.16828125,126.870469 C3.15602074,93.4903125 3.16143992,60.1101521 3.1809375,26.73 C3.1809375,25.768125 3.3496875,24.7964062 3.515625,23.8401562 C5.2621875,13.5632812 12.87,8.0803125 21.9178125,7.06359375 C26.6146875,6.53625 31.3439062,6.3 36.0632812,5.9878125 L48.5367188,5.2678125 L53.89875,4.91625 L70.070625,3.52125 L79.0354688,2.818125 L93.8840625,1.7634375 L106.3575,1.0265625 C106.66125,1.00546875 106.941094,0.5878125 107.226562,0.3515625 M36.4851563,160.57125 C37.2332812,161.542969 38.0671875,162.465469 38.7210937,163.499062 C41.8907813,168.458906 46.434375,170.260312 52.2070312,169.876406 L91.3134375,167.547656 L135.323438,164.888437 L157.235625,163.476562 C163.729687,162.954844 166.865625,159.444844 166.992188,152.929687 L166.992188,151.523437 L167.041428,44.8410937 C167.047031,41.6278125 165.9375,39.380625 163.366875,37.5848437 L132.395625,15.7598437 C127.413281,12.1345312 122.124375,10.4428125 115.99875,10.9265625 L81.315,13.4915625 L45.0492187,16.16625 L22.28625,17.9409375 C17.6878125,18.3628125 14.8373437,21.1753125 14.0132812,25.6865625 C13.8129152,26.8381164 13.7154992,28.0052262 13.7221875,29.1740625 L13.6275557,122.326875 C13.595625,128.43 15.463125,133.506563 19.1165625,138.175312 L36.4851563,160.57125 Z" id="Shape" fill="#FFFFFF" fill-rule="nonzero"></path>
            <path d="M36.4035938,160.477031 L19.1165625,138.173906 C15.463125,133.505156 13.595625,128.43 13.6275557,122.326875 L13.7221875,29.1740625 C13.7221875,28.0096875 13.809375,26.8284375 14.0132813,25.6865625 C14.8373438,21.1767187 17.6878125,18.3642187 22.28625,17.9409375 L45.0492188,16.16625 L81.3164063,13.4915625 L115.99875,10.9265625 C122.124375,10.4428125 127.413281,12.1345313 132.395625,15.7598438 C142.607813,23.191875 153.01125,30.3609375 163.366875,37.5848438 C165.9375,39.380625 167.047031,41.6278125 167.041428,44.8410938 L166.992188,151.529063 L166.992188,152.935313 C166.865625,159.444844 163.729688,162.954844 157.235625,163.476562 C149.941406,164.064375 142.630313,164.444063 135.323437,164.888438 L91.3134375,167.54625 L52.2070313,169.876406 C46.434375,170.260313 41.8907813,168.458906 38.7210938,163.499063 C38.0671875,162.465469 37.2332813,161.542969 36.4035938,160.477031 M45.4120313,95.8007812 L45.4120313,142.893281 L45.4232813,151.676719 C45.4992188,155.615625 47.4285938,157.577344 51.3660938,157.802344 C52.3546875,157.857188 53.3545313,157.823438 54.34875,157.762969 L87.3140625,155.819531 L150.264844,152.220937 C154.188281,152.001562 156.000938,150.281719 156.367969,146.393438 C156.439688,145.694531 156.417188,144.987187 156.417188,144.284063 L156.422813,53.6132812 C156.422813,53.0859375 156.439688,52.5585937 156.407344,52.03125 C156.171094,48.4228125 154.621406,46.9504687 151.035469,47.1417187 L118.591875,49.010625 C103.395608,49.8946781 88.1996696,50.7843657 73.0040625,51.6796875 L50.2129687,53.0479687 C47.3076562,53.2335937 45.9942187,54.4865625 45.5554687,57.3271875 C45.4515946,58.0805312 45.4055226,58.8407193 45.4176562,59.6010937 L45.4120313,95.8007812 Z M125.810156,21.6534375 C123.058125,20.16 120.069844,19.665 116.992969,19.8351563 C112.26375,20.0939063 107.534531,20.4834375 102.803906,20.8251563 L35.375625,25.7245313 C33.3379688,25.8721875 31.2890625,26.0198438 29.278125,26.3840625 C28.603125,26.505 27.7509375,27.185625 27.5428125,27.8015625 C27.388125,28.2346875 28.0701563,29.109375 28.569375,29.5875 C29.4932813,30.470625 30.5578125,31.2117188 31.5646875,32.0090625 C33.9539063,33.8934375 36.4964063,35.611875 38.68875,37.6945313 C42.8470313,41.6432813 47.6859375,42.5559375 53.229375,42.1551563 L96.8723438,39.4185938 L143.855156,36.6004688 C144.284063,36.579375 144.712969,36.4471875 145.656563,36.2714063 C144.794531,35.375625 144.293906,34.689375 143.641406,34.205625 C141.33969,32.5057009 139.015898,30.8358713 136.670625,29.1965625 C133.067446,26.6578314 129.447208,24.1433994 125.810156,21.6534375" id="Shape" fill="#000000" fill-rule="nonzero"></path>
            <path d="M45.4120312,95.625 L45.4176562,59.6010937 C45.4176562,58.8417187 45.4401562,58.0739062 45.5554687,57.3271875 C45.9942187,54.4865625 47.3076562,53.235 50.2129687,53.0479687 L73.0040625,51.6796875 L118.591875,49.010625 L151.034063,47.1417187 C154.621406,46.9504687 156.171094,48.4270312 156.405937,52.03125 C156.439687,52.5585937 156.422812,53.0859375 156.422812,53.6132812 L156.417187,144.284063 L156.367969,146.393438 C156.000937,150.281719 154.188281,152.001562 150.264844,152.220937 L87.3140625,155.819531 L54.34875,157.762969 L51.3675,157.802344 C47.4285937,157.577344 45.4992187,155.615625 45.4232812,151.682344 L45.4120312,142.893281 L45.4120312,95.625 Z M109.770469,95.7178125 L91.6748437,68.1482812 C91.0434375,67.1864063 90.4232812,66.8685938 89.2589062,66.9951563 L81.545625,67.5154687 L67.3565625,68.5546875 C63.8690625,68.8739062 61.7596875,72.1532812 62.7257812,75.5535937 L70.2407812,76.19625 L70.2407812,137.077031 L65.1220312,138.52125 C62.8523437,139.190625 61.880625,141.103125 62.6442187,143.547188 L79.9523437,142.552969 L86.7698437,141.993281 C89.7089062,141.509531 91.2909375,139.708125 91.6860937,136.769063 L82.2220312,134.610469 L82.2220312,88.81875 L82.9251562,89.803125 L104.677031,123.766875 C107.874412,128.726874 111.158036,133.630745 114.526406,138.47625 C116.926875,141.921563 120.465,142.97625 124.441875,142.118438 C126.930938,141.586875 129.320156,140.575781 131.758594,139.789688 C133.028438,139.377656 133.461563,138.619688 133.455938,137.196563 L133.41375,74.6184375 C133.41375,70.9607813 133.41375,70.9607813 137.032031,70.2309375 C140.691094,69.4940625 141.607969,68.0329688 140.772656,64.1221875 L118.905469,65.4510938 C116.526094,65.62125 114.724688,67.6096875 114.363281,69.9229688 C114.186094,71.038125 114.416719,71.6526563 115.75125,71.73 L122.371875,72.46125 L122.371875,114.900469 C118.178422,108.503518 113.977951,102.11117 109.770469,95.7234375 L109.770469,95.7178125 Z M125.929687,21.7139063 C129.51938,24.192814 133.098786,26.6865854 136.667812,29.1951562 C139.013566,30.8349207 141.337826,32.5052191 143.64,34.205625 C144.2925,34.689375 144.793125,35.375625 145.655156,36.2714062 L143.85375,36.6004687 L96.8709375,39.4185937 L53.2279687,42.1551562 C47.6845312,42.5559375 42.845625,41.6432812 38.6873437,37.6945312 C36.495,35.6132812 33.9525,33.8934375 31.561875,32.0090625 C30.5564062,31.2117187 29.491875,30.470625 28.5679687,29.5860937 C28.06875,29.1079687 27.3867187,28.2360937 27.5414062,27.8001562 C27.7495312,27.185625 28.6073437,26.505 29.2767187,26.3840625 C31.2876562,26.02125 33.3365625,25.8721875 35.3742187,25.7245312 L102.803906,20.8251562 L116.992969,19.8351562 C120.068437,19.6664062 123.056719,20.1585937 125.929687,21.7139062" id="Shape" fill="#FFFFFF" fill-rule="nonzero"></path>
            <path d="M109.846406,95.821875 L122.371875,114.900469 L122.371875,72.4598438 L115.752656,71.7285937 C114.416719,71.6526562 114.186094,71.038125 114.361875,69.9229687 C114.724687,67.6096875 116.5275,65.62125 118.904063,65.4510937 L140.772656,64.1221875 C141.607969,68.0315625 140.691094,69.4940625 137.032031,70.2295312 C133.412344,70.9551562 133.412344,70.9551562 133.412344,74.6184375 L133.455938,137.196562 C133.461563,138.619687 133.028437,139.377656 131.758594,139.789687 L124.441875,142.118437 C120.465,142.970625 116.926875,141.921562 114.527813,138.47625 C111.160832,133.629797 107.877224,128.72595 104.678438,123.766875 L82.92375,89.8017187 C82.7704688,89.5598437 82.5946875,89.3348437 82.220625,88.81875 L82.220625,134.610469 L91.6860938,136.769062 C91.2909375,139.708125 89.7089063,141.508125 86.7698438,141.993281 C84.5282813,142.360312 82.2276563,142.415156 79.9523438,142.552969 L62.6442188,143.547187 C61.880625,141.103125 62.8523438,139.190625 65.1220313,138.52125 L70.2407813,137.077031 L70.2407813,76.19625 L62.7257813,75.5535938 C61.7596875,72.1532813 63.8690625,68.8739063 67.3565625,68.5546875 C72.0759375,68.1145312 76.8164063,67.8459375 81.545625,67.516875 C84.11625,67.3410938 86.698125,67.275 89.2589063,66.9951563 C90.4232813,66.8685938 91.0448438,67.1864063 91.6748438,68.1482813 L109.846406,95.821875 Z" id="Path" fill="#000000" fill-rule="nonzero"></path>
        </g>
    </g>
</svg>