<?xml version="1.0" encoding="UTF-8"?>
<svg width="240px" height="240px" viewBox="0 0 240 240" version="1.1" xmlns="http://www.w3.org/2000/svg" xmlns:xlink="http://www.w3.org/1999/xlink">
    <title>npm</title>
    <g id="Page-1" stroke="none" stroke-width="1" fill="none" fill-rule="evenodd">
        <g id="npm">
            <rect id="ViewBox" x="0" y="0" width="240" height="240"></rect>
            <path d="M0,13.24125 C0,6.046875 6.046875,0 13.24125,0 L226.76625,0 C233.9625,0 240.009375,6.046875 240.009375,13.24125 L240.009375,226.76625 C240.009375,233.9625 233.9625,240.009375 226.76625,240.009375 L13.24125,240.009375 C6.046875,240.009375 0,233.9625 0,226.76625 L0,13.24125 Z M44.41875,196.0875 L120.159375,196.0875 L120.253125,86.34 L156.804375,86.34 L156.710625,196.179375 L193.35375,196.179375 L193.4475,49.78875 L47.056875,49.60125 L46.869375,196.0875 L44.41875,196.0875 Z" id="Shape" fill="#CB3837" fill-rule="nonzero"></path>
            <path d="M47.071875,122.85 L47.071875,49.71 L76.8,49.71 C93.15,49.71 126.06375,49.77375 149.94,49.850625 L193.351875,49.99125 L193.351875,195.99 L156.834375,195.99 L156.834375,86.2275 L120.106875,86.2275 L120.106875,195.99 L47.071875,195.99 L47.071875,122.85 Z" id="Path" fill="#FFFFFF" fill-rule="nonzero"></path>
        </g>
    </g>
</svg>