<?xml version="1.0" encoding="UTF-8"?>
<svg width="240px" height="240px" viewBox="0 0 240 240" version="1.1" xmlns="http://www.w3.org/2000/svg" xmlns:xlink="http://www.w3.org/1999/xlink">
    <title>nslookup</title>
    <g id="Page-1" stroke="none" stroke-width="1" fill="none" fill-rule="evenodd">
        <g id="nslookup">
            <rect id="box" fill="#FFFFFF" x="0" y="0" width="240" height="240" rx="32"></rect>
            <path d="M117.500895,172 C118.828054,172 120.192078,171.260563 120.278098,169.633803 C121.089139,165.34507 130.182633,95.8380282 130.932232,81.3450704 C131.411484,72.3239437 129.617362,67 116.788162,67 L108.677748,67 C106.908203,67 106.146316,67.5915493 106.10945,68.3309859 C105.187812,85.7816901 104.241597,112.549296 103.012747,135.915493 C97.6918239,122.161972 95.4430273,117.133803 82.8964629,80.6056338 C80.4756273,73.5070423 78.3005617,67 65.1764375,67 L53.379472,67 C51.6099271,67 50.9955019,67.5915493 50.9094823,69.2183099 C50.1230179,78.6830986 49.127649,86.3732394 45.2076156,116.246479 C42.737626,135.176056 40.2922133,153.957746 40.0341547,158.838028 C39.57948,167.415493 43.6223984,172 54.6820536,172 L62.7924674,172 C64.5620123,172 65.2010146,171.112676 65.2624571,169.78169 C66.0734985,148.633803 66.6019042,127.338028 67.5604077,106.190141 C75.68311,125.711268 83.3880031,144.788732 92.4569204,165.788732 C94.0421377,169.338028 97.4460538,172 105.409006,172 L117.500895,172 Z M177.611058,89 C161.423529,89 143.543667,96.0736842 142.489025,116.263158 C141.054221,143.673684 173.527386,138.810526 172.951012,150.010526 C172.730273,154.136842 168.131543,154.873684 163.275284,154.873684 C150.325261,154.873684 148.988563,149.421053 144.132304,149.421053 C138.39309,149.421053 135.192374,157.231579 135.008424,160.621053 C134.530156,169.905263 154.531566,173 165.568518,173 C185.435031,173 196.104084,162.978947 196.852144,148.831579 C198.225632,122.452632 162.968702,127.021053 163.606393,114.789474 C163.814869,110.810526 167.641012,107.863158 173.085908,107.863158 C181.179673,107.863158 181.142883,114.2 181.106093,117.736842 C181.02025,119.357895 181.743784,119.8 184.539811,119.8 C194.693807,119.8 200.531128,115.084211 200.972606,106.536842 C201.512191,96.3684211 194.092906,89 177.611058,89 Z" id="Shape" fill="#390261" fill-rule="nonzero"></path>
        </g>
    </g>
</svg>