<?xml version="1.0" encoding="UTF-8"?>
<svg width="400px" height="400px" viewBox="0 0 400 400" version="1.1" xmlns="http://www.w3.org/2000/svg" xmlns:xlink="http://www.w3.org/1999/xlink">
    <title>nuclio</title>
    <g id="Page-1" stroke="none" stroke-width="1" fill="none" fill-rule="evenodd">
        <g id="nuclio">
            <rect id="Rectangle" x="0" y="0" width="400" height="400"></rect>
            <circle id="Oval" fill="#3666B0" fill-rule="nonzero" cx="200" cy="200" r="200"></circle>
            <g transform="translate(37.028, 154.404)" fill="#FFFFFF" fill-rule="nonzero">
                <path d="M2.806,87.596 C1.99266667,87.596 1.32166667,87.3316667 0.793,86.803 C0.264333333,86.2743333 7.10542736e-15,85.6033333 7.10542736e-15,84.79 L7.10542736e-15,26.962 C7.10542736e-15,26.1486667 0.264333333,25.4776667 0.793,24.949 C1.32166667,24.4203333 1.99266667,24.156 2.806,24.156 L8.54,24.156 C9.35333333,24.156 10.0243333,24.4203333 10.553,24.949 C11.0816667,25.4776667 11.346,26.1486667 11.346,26.962 L11.346,32.33 C13.4606667,29.5646667 16.1243333,27.3076667 19.337,25.559 C22.5496667,23.8103333 26.6773333,22.936 31.72,22.936 C37.0066667,22.936 41.5003333,24.095 45.201,26.413 C48.9016667,28.731 51.7076667,31.9436667 53.619,36.051 C55.5303333,40.1583333 56.486,44.9366667 56.486,50.386 L56.486,84.79 C56.486,85.6033333 56.2216667,86.2743333 55.693,86.803 C55.1643333,87.3316667 54.4933333,87.596 53.68,87.596 L47.58,87.596 C46.7666667,87.596 46.0956667,87.3316667 45.567,86.803 C45.0383333,86.2743333 44.774,85.6033333 44.774,84.79 L44.774,50.996 C44.774,45.3026667 43.3913333,40.8496667 40.626,37.637 C37.8606667,34.4243333 33.794,32.818 28.426,32.818 C23.3833333,32.818 19.337,34.4243333 16.287,37.637 C13.237,40.8496667 11.712,45.3026667 11.712,50.996 L11.712,84.79 C11.712,85.6033333 11.4476667,86.2743333 10.919,86.803 C10.3903333,87.3316667 9.71933333,87.596 8.906,87.596 L2.806,87.596 Z" id="Path"></path>
                <path d="M97.6,88.816 C92.3946667,88.816 87.9823333,87.657 84.363,85.339 C80.7436667,83.021 77.9986667,79.788 76.128,75.64 C74.2573333,71.492 73.322,66.734 73.322,61.366 L73.322,26.962 C73.322,26.1486667 73.5863333,25.4776667 74.115,24.949 C74.6436667,24.4203333 75.3146667,24.156 76.128,24.156 L82.228,24.156 C83.0413333,24.156 83.7123333,24.4203333 84.241,24.949 C84.7696667,25.4776667 85.034,26.1486667 85.034,26.962 L85.034,60.756 C85.034,72.8746667 90.3206667,78.934 100.894,78.934 C105.936667,78.934 109.983,77.3276667 113.033,74.115 C116.083,70.9023333 117.608,66.4493333 117.608,60.756 L117.608,26.962 C117.608,26.1486667 117.872333,25.4776667 118.401,24.949 C118.929667,24.4203333 119.600667,24.156 120.414,24.156 L126.514,24.156 C127.327333,24.156 127.978,24.4203333 128.466,24.949 C128.954,25.4776667 129.198,26.1486667 129.198,26.962 L129.198,84.79 C129.198,85.6033333 128.954,86.2743333 128.466,86.803 C127.978,87.3316667 127.327333,87.596 126.514,87.596 L120.78,87.596 C119.966667,87.596 119.295667,87.3316667 118.767,86.803 C118.238333,86.2743333 117.974,85.6033333 117.974,84.79 L117.974,79.422 C115.778,82.2686667 113.114333,84.546 109.983,86.254 C106.851667,87.962 102.724,88.816 97.6,88.816 Z" id="Path"></path>
                <path d="M172.996,88.816 C167.221333,88.816 162.239667,87.6976667 158.051,85.461 C153.862333,83.2243333 150.629333,80.0116667 148.352,75.823 C146.074667,71.6343333 144.854667,66.612 144.692,60.756 C144.610667,59.536 144.57,57.9093333 144.57,55.876 C144.57,53.8426667 144.610667,52.216 144.692,50.996 C144.854667,45.14 146.074667,40.1176667 148.352,35.929 C150.629333,31.7403333 153.862333,28.5276667 158.051,26.291 C162.239667,24.0543333 167.221333,22.936 172.996,22.936 C177.713333,22.936 181.759667,23.5866667 185.135,24.888 C188.510333,26.1893333 191.296,27.8566667 193.492,29.89 C195.688,31.9233333 197.335,34.1193333 198.433,36.478 C199.531,38.8366667 200.120667,41.0733333 200.202,43.188 C200.283333,44.0013333 200.039333,44.652 199.47,45.14 C198.900667,45.628 198.209333,45.872 197.396,45.872 L191.54,45.872 C190.726667,45.872 190.116667,45.689 189.71,45.323 C189.303333,44.957 188.896667,44.3266667 188.49,43.432 C187.026,39.4466667 185.033333,36.6406667 182.512,35.014 C179.990667,33.3873333 176.859333,32.574 173.118,32.574 C168.238,32.574 164.273,34.0786667 161.223,37.088 C158.173,40.0973333 156.526,44.9366667 156.282,51.606 C156.200667,54.534 156.200667,57.3806667 156.282,60.146 C156.526,66.8966667 158.173,71.7563333 161.223,74.725 C164.273,77.6936667 168.238,79.178 173.118,79.178 C176.859333,79.178 179.990667,78.3646667 182.512,76.738 C185.033333,75.1113333 187.026,72.3053333 188.49,68.32 C188.896667,67.4253333 189.303333,66.7746667 189.71,66.368 C190.116667,65.9613333 190.726667,65.758 191.54,65.758 L197.396,65.758 C198.209333,65.758 198.900667,66.0223333 199.47,66.551 C200.039333,67.0796667 200.283333,67.7506667 200.202,68.564 C200.120667,70.272 199.754667,72.0206667 199.104,73.81 C198.453333,75.5993333 197.416333,77.409 195.993,79.239 C194.569667,81.069 192.800667,82.6956667 190.686,84.119 C188.571333,85.5423333 186.05,86.681 183.122,87.535 C180.194,88.389 176.818667,88.816 172.996,88.816 Z" id="Path"></path>
                <path d="M217.648,87.596 C216.834667,87.596 216.163667,87.3316667 215.635,86.803 C215.106333,86.2743333 214.842,85.6033333 214.842,84.79 L214.842,3.782 C214.842,2.96866667 215.106333,2.29766667 215.635,1.769 C216.163667,1.24033333 216.834667,0.976 217.648,0.976 L223.382,0.976 C224.276667,0.976 224.968,1.24033333 225.456,1.769 C225.944,2.29766667 226.188,2.96866667 226.188,3.782 L226.188,84.79 C226.188,85.6033333 225.944,86.2743333 225.456,86.803 C224.968,87.3316667 224.276667,87.596 223.382,87.596 L217.648,87.596 Z" id="Path"></path>
                <path d="M247.172,87.596 C246.358667,87.596 245.687667,87.3316667 245.159,86.803 C244.630333,86.2743333 244.366,85.6033333 244.366,84.79 L244.366,26.962 C244.366,26.1486667 244.630333,25.4776667 245.159,24.949 C245.687667,24.4203333 246.358667,24.156 247.172,24.156 L253.028,24.156 C253.841333,24.156 254.512333,24.4203333 255.041,24.949 C255.569667,25.4776667 255.834,26.1486667 255.834,26.962 L255.834,84.79 C255.834,85.6033333 255.569667,86.2743333 255.041,86.803 C254.512333,87.3316667 253.841333,87.596 253.028,87.596 L247.172,87.596 Z M246.196,12.322 C245.382667,12.322 244.711667,12.0576667 244.183,11.529 C243.654333,11.0003333 243.39,10.3293333 243.39,9.516 L243.39,2.928 C243.39,2.11466667 243.654333,1.42333333 244.183,0.854 C244.711667,0.284666667 245.382667,0 246.196,0 L253.882,0 C254.695333,0 255.386667,0.284666667 255.956,0.854 C256.525333,1.42333333 256.81,2.11466667 256.81,2.928 L256.81,9.516 C256.81,10.3293333 256.525333,11.0003333 255.956,11.529 C255.386667,12.0576667 254.695333,12.322 253.882,12.322 L246.196,12.322 Z" id="Shape"></path>
                <path d="M299.876,88.816 C293.694667,88.816 288.53,87.6366667 284.382,85.278 C280.234,82.9193333 277.062,79.6456667 274.866,75.457 C272.67,71.2683333 271.45,66.49 271.206,61.122 C271.124667,59.7393333 271.084,57.9703333 271.084,55.815 C271.084,53.6596667 271.124667,51.9313333 271.206,50.63 C271.45,45.1806667 272.690333,40.382 274.927,36.234 C277.163667,32.086 280.356,28.8326667 284.504,26.474 C288.652,24.1153333 293.776,22.936 299.876,22.936 C305.976,22.936 311.1,24.1153333 315.248,26.474 C319.396,28.8326667 322.588333,32.086 324.825,36.234 C327.061667,40.382 328.302,45.1806667 328.546,50.63 C328.627333,51.9313333 328.668,53.6596667 328.668,55.815 C328.668,57.9703333 328.627333,59.7393333 328.546,61.122 C328.302,66.49 327.082,71.2683333 324.886,75.457 C322.69,79.6456667 319.518,82.9193333 315.37,85.278 C311.222,87.6366667 306.057333,88.816 299.876,88.816 Z M299.876,79.422 C304.918667,79.422 308.944667,77.8156667 311.954,74.603 C314.963333,71.3903333 316.59,66.6933333 316.834,60.512 C316.915333,59.292 316.956,57.7466667 316.956,55.876 C316.956,54.0053333 316.915333,52.46 316.834,51.24 C316.59,45.0586667 314.963333,40.3616667 311.954,37.149 C308.944667,33.9363333 304.918667,32.33 299.876,32.33 C294.833333,32.33 290.787,33.9363333 287.737,37.149 C284.687,40.3616667 283.080667,45.0586667 282.918,51.24 C282.836667,52.46 282.796,54.0053333 282.796,55.876 C282.796,57.7466667 282.836667,59.292 282.918,60.512 C283.080667,66.6933333 284.687,71.3903333 287.737,74.603 C290.787,77.8156667 294.833333,79.422 299.876,79.422 Z" id="Shape"></path>
            </g>
        </g>
    </g>
</svg>