<?xml version="1.0" encoding="UTF-8"?>
<svg width="240px" height="240px" viewBox="0 0 240 240" version="1.1" xmlns="http://www.w3.org/2000/svg" xmlns:xlink="http://www.w3.org/1999/xlink">
    <title>nuget</title>
    <g id="Page-1" stroke="none" stroke-width="1" fill="none" fill-rule="evenodd">
        <g id="nuget">
            <rect id="ViewBox" x="0" y="0" width="240" height="240"></rect>
            <path d="M17.461875,4.7025 C11.169375,5.50875 5.611875,9.23625 2.540625,14.7225 C0.856875,17.731875 0.080625,20.75625 0.075,24.316875 C0.075,27.67125 0.631875,30.16125 2.068125,33.105 C4.7325,38.61375 9.7875,42.495 16.070625,43.84875 C17.683125,44.19375 21.601875,44.22375 23.285625,43.90875 C30.493125,42.553125 36.271875,37.580625 38.600625,30.74625 C39.391875,28.455 39.553125,27.32625 39.553125,24.375 C39.553125,21.504375 39.4725,20.844375 38.769375,18.57375 C36.77625,12.02625 31.48125,6.93 24.883125,5.214375 C22.678125,4.644375 19.58625,4.430625 17.46375,4.7025 L17.461875,4.7025 Z M105.9375,47.870625 C79.84875,50.1 58.03125,68.671875 51.75375,93.984375 C50.9625,97.149375 50.668125,98.89125 50.13375,103.4175 C49.944375,105.0375 49.84875,175.21125 50.04,178.359375 C50.3175,183.25875 51.020625,187.441875 52.32375,191.953125 C58.1475,212.146875 74.120625,228.084375 94.261875,233.79 C97.69125,234.748125 101.323125,235.44375 105.174375,235.861875 C107.06625,236.05875 109.0575,236.073873 144.024375,236.073873 C183.09,236.073873 181.655625,236.09625 185.743125,235.531875 C195.915143,234.114517 205.563929,230.149227 213.793125,224.004375 C217.06875,221.5575 221.146875,217.756875 223.61625,214.86375 C225.980625,212.071875 228.676875,208.25625 230.44875,205.13625 C234.0375,198.845625 236.68125,191.154375 237.699375,184.0425 C238.321875,179.780625 238.27875,182.4975 238.321875,143.203125 C238.359375,117.598125 238.336875,106.246875 238.24125,104.881875 C237.36375,91.71375 232.603125,79.805625 224.085,69.493125 C222.65625,67.756875 218.30625,63.4125 216.5625,61.970625 C207.8325,54.740625 198.061875,50.251875 187.1475,48.470625 C182.4975,47.709375 185.705625,47.769375 144.84375,47.7380735 C114.96,47.731875 107.401875,47.754375 105.9375,47.870625 M100.546875,75.79875 C109.546875,77.401875 116.915625,83.6925 119.82375,92.248125 C121.655625,97.65375 121.605,103.359375 119.6925,108.691875 C118.4175,112.243125 115.9425,115.993125 113.26125,118.4175 C108.4725,122.79 102.759375,125.04 96.44625,125.04 C89.634375,125.04 83.634375,122.565 78.853125,117.7875 C74.82375,113.7525 72.406875,108.825 71.71875,103.183125 C71.5275,101.660625 71.5575,98.495625 71.776875,96.915 C73.321875,85.65 82.220625,76.978125 93.63375,75.585 C95.11875,75.410625 99.009375,75.52875 100.546875,75.79875 M180.3525,136.93125 C189.155625,138.06 196.8525,141.7725 203.19,147.946875 C207.93375,152.57625 211.171875,157.7475 213.22125,164.0025 C214.54875,168.001875 215.04,171.01125 215.11875,175.486875 C215.199375,180.043125 214.81875,183.22125 213.675,187.243125 C211.209375,196.01625 205.430625,204 197.8125,209.161875 C187.96875,215.8425 175.9725,217.7325 164.37,214.43625 C159.975,213.19875 154.7325,210.504375 151.05375,207.61125 C141.37125,199.963125 135.80625,188.53875 135.82122,176.270625 C135.834375,162.616875 142.895625,149.925 154.57125,142.629375 C159.82125,139.335 165.76125,137.364375 172.265625,136.756875 C173.86875,136.60125 178.63125,136.711875 180.3525,136.93125" id="Shape" fill="#004880" fill-rule="nonzero"></path>
        </g>
    </g>
</svg>