<?xml version="1.0" encoding="UTF-8"?>
<svg width="240px" height="240px" viewBox="0 0 240 240" version="1.1" xmlns="http://www.w3.org/2000/svg" xmlns:xlink="http://www.w3.org/1999/xlink">
    <title>numpy</title>
    <g id="Page-1" stroke="none" stroke-width="1" fill="none" fill-rule="evenodd">
        <g id="numpy">
            <rect id="ViewBox" x="0" y="0" width="240" height="240"></rect>
            <path d="M103.1475,48.76125 L63.06,28.531875 L19.03875,50.49375 L60.230625,71.169375 L103.1475,48.76125 Z M121.5375,58.044375 L163.576875,79.275 L119.96625,101.165625 L78.71625,80.46 L121.5375,58.044375 Z M177.69,28.83 L220.884375,50.49 L182.25,69.885 L140.128125,48.63375 L177.69,28.83 Z M159.099375,19.5 L120.211875,0 L81.74625,19.2 L121.81875,39.40125 L159.099375,19.5 Z M128.7,186.94125 L128.7,240 L175.80375,216.493125 L175.760625,163.411875 L128.7,186.94125 Z M175.738125,144.88125 L175.685625,92.35875 L128.698125,115.7175 L128.698125,168.2625 L175.738125,144.88125 Z M232.284375,135.045 L232.284375,188.31375 L192.103125,208.3575 L192.07125,155.334375 L232.284375,135.045 Z M232.284375,116.416875 L232.284375,64.21875 L192.028125,84.230625 L192.058125,136.858125 L232.284375,116.416875 Z" id="Shape" fill="#4DABCF" fill-rule="nonzero"></path>
            <path d="M112.06875,115.7175 L80.3475,99.7575 L80.3475,168.69375 C80.3475,168.69375 41.535,86.131875 37.95,78.7125 C37.48875,77.750625 35.581875,76.70625 35.09625,76.445625 C28.100625,72.795 7.715625,62.476875 7.715625,62.476875 L7.715625,184.30875 L35.915625,199.426875 L35.915625,135.71625 C35.915625,135.71625 74.311875,209.49 74.7075,210.30375 C75.10875,211.108125 78.939375,218.8725 83.068125,221.60625 C88.543125,225.241875 112.051875,239.375625 112.051875,239.375625 L112.06875,115.7175 Z" id="Path" fill="#4C75CF" fill-rule="nonzero"></path>
        </g>
    </g>
</svg>