<?xml version="1.0" encoding="UTF-8"?>
<svg width="240px" height="240px" viewBox="0 0 240 240" version="1.1" xmlns="http://www.w3.org/2000/svg" xmlns:xlink="http://www.w3.org/1999/xlink">
    <title>nuxt</title>
    <g id="Page-1" stroke="none" stroke-width="1" fill="none" fill-rule="evenodd">
        <g id="nuxt">
            <rect id="ViewBox" x="0" y="0" width="240" height="240"></rect>
            <path d="M134.398125,200.000625 L223.19625,200.000625 C226.035,200.000625 228.75,199.00125 231.19875,197.595 C233.649375,196.18875 236.18625,194.43 237.601875,191.99625 C239.0175,189.5625 240,186.804375 240,184.00125 C240,181.198125 239.0175,178.430625 237.601875,175.99875 L177.601875,72.8025 C176.18625,70.370625 174.451875,68.6025 171.995625,67.194375 C169.535625,65.78625 166.033125,64.79625 163.1925,64.79625 C160.35375,64.79625 157.648125,65.795625 155.199375,67.194375 C152.750625,68.593125 151.014375,70.36875 149.59875,72.8025 L134.39625,99.2025 L103.996875,47.994375 C102.58125,45.5625 100.846875,43.006875 98.398125,41.600625 C95.949375,40.194375 93.2325,39.999375 90.39375,39.999375 C87.555,39.999375 84.849375,40.194375 82.39875,41.600625 C79.95,43.006875 77.41125,45.5625 75.995625,47.994375 L1.60125,175.995 C0.185625,178.426875 0,181.18875 0,184.00125 C0,186.81375 0.185625,189.5625 1.60125,191.994375 C3.015,194.42625 5.544375,196.194375 8.004375,197.593125 C10.4625,198.99375 13.168125,200.000625 15.999375,200.000625 L72,200.000625 C94.190625,200.000625 110.341875,190.044375 121.599375,171.193125 L148.79625,123.999375 L163.1925,99.200625 L207.195,174.395625 L148.798125,174.395625 L134.398125,200.000625 Z M71.19375,174.39375 L31.99875,174.39375 L90.399375,73.59375 L120,124.00125 L100.393125,158.176875 C92.919375,170.4075 84.39375,174.395625 71.195625,174.395625 L71.19375,174.39375 Z" id="Shape" fill="#00DC82" fill-rule="nonzero"></path>
        </g>
    </g>
</svg>