<?xml version="1.0" encoding="UTF-8"?>
<svg width="570px" height="570px" viewBox="0 0 570 570" version="1.1" xmlns="http://www.w3.org/2000/svg" xmlns:xlink="http://www.w3.org/1999/xlink">
    <title>nvroot-logo copy 2</title>
    <g id="Page-1" stroke="none" stroke-width="1" fill="none" fill-rule="evenodd">
        <g id="nvroot-logo-copy-2">
            <rect id="Box" fill="#F6D30F" fill-rule="nonzero" x="0" y="0" width="570" height="570"></rect>
            <path d="M347,419 L355.067227,363.630329 L358.072269,343 L363.752941,363.630329 L379,419 L347,419 Z M518.277686,338.627907 L521,320.27907 L465.873142,320.27907 L475.857229,253 L432.980784,253 L422.996697,320.27907 L416.6469,363.093023 L413.332483,385.444625 L407.064355,363.093023 L395.05895,320.27907 L376.193314,253 L327.947105,253 L317.963019,320.27907 L269.866537,320.27907 L263.516739,363.093023 L311.613221,363.093023 L303.446279,418.139535 L255.349797,418.139535 L252.627483,436.488372 L271.003103,436.488372 L270.097933,442.604651 L251.722314,442.604651 L249,460.953488 L297.089676,460.953488 L288.922734,516 L332.711154,516 L340.878096,460.953488 L391.628835,460.953488 L398.495871,485.438992 L407.064355,516 L436.839664,516 L441.372316,485.438992 L445.006606,460.953488 L500.133463,460.953488 L506.483261,418.139535 L451.356403,418.139535 L459.523345,363.093023 L514.650203,363.093023 L517.372517,344.744186 L498.996897,344.744186 L499.902067,338.627907 L518.277686,338.627907 Z" id="Icon" fill="#161310" fill-rule="nonzero"></path>
            <polygon id="Fill-1" fill="#161310" points="159.601 443.944 198.954 466.652 153.35 486.136 149 515.501 149 515.797 229.544 481.135 233.613 453.669 164.333 412"></polygon>
        </g>
    </g>
</svg>