<?xml version="1.0" encoding="UTF-8"?>
<svg width="240px" height="240px" viewBox="0 0 240 240" version="1.1" xmlns="http://www.w3.org/2000/svg" xmlns:xlink="http://www.w3.org/1999/xlink">
    <title>oceanbase</title>
    <g id="Page-1" stroke="none" stroke-width="1" fill="none" fill-rule="evenodd">
        <g id="oceanbase" transform="translate(-47, 109)" fill-rule="nonzero">
            <rect id="box" opacity="0" x="47" y="-109" width="240" height="240"></rect>
            <g id="shape" transform="translate(47.085, -67.135)">
                <path d="M130.641269,156.135 C135.330011,154.201845 140.018753,152.397567 144.96798,150.722166 C147.182108,149.948904 149.526479,149.175642 151.740607,148.531257 C153.564007,148.015749 155.387406,147.500241 157.210806,146.984733 C184.822285,139.38099 212.824492,137.318958 239.915,140.283129 L239.915,112.316821 C209.95915,109.35265 179.0916,111.93019 148.484536,120.436072 C146.661137,120.95158 144.837737,121.467088 143.014338,121.982596 C140.669967,122.755858 138.195353,123.52912 135.850982,124.302382 C131.162241,125.848906 126.473499,127.653184 121.915,129.457462 L130.641269,156.006123 L130.641269,156.135 Z" id="Path" fill="#07C846"></path>
                <path d="M239.915,21.0676938 L239.915,105.28967 C208.75802,102.304915 176.688493,105.030126 145.140421,114.243932 C141.229503,115.411879 137.448949,116.579827 133.538031,117.877546 C128.844929,119.434809 124.151828,120.992072 119.58909,122.289791 C79.6977268,133.969264 39.2849077,138.121965 -0.085,135.266983 L-0.085,51.0450072 C30.6808881,54.0297614 62.3593237,51.3045511 93.5163036,42.4800605 C97.8183134,41.3121132 101.989959,39.8846221 106.291969,38.457131 C110.593979,37.0296399 114.895989,35.6021488 119.067634,34.3044296 C159.35009,22.365413 200.154001,18.2127115 239.915,20.9379218 L239.915,21.0676938 Z" id="Path" fill="#0181FD"></path>
                <path d="M109.188731,0.135 C104.499989,2.06815496 99.8112472,3.87243292 94.8620199,5.54783389 C92.6478918,6.32109587 90.303521,7.09435786 88.0893929,7.73874284 C86.2659934,8.25425083 84.4425938,8.76975882 82.6191943,9.28526681 C55.0077152,16.8890097 27.0055077,18.9510416 -0.085,15.9868707 L-0.085,43.9531791 C29.8708499,46.91735 60.7383996,44.3398101 91.3454636,35.8339283 C93.1688631,35.3184203 94.9922627,34.8029123 96.8156623,34.2874043 C99.1600331,33.5141423 101.634647,32.7408803 103.979018,31.9676183 C108.667759,30.4210944 113.356501,28.6168164 117.915,26.8125385 L109.188731,0.263876997 L109.188731,0.135 Z" id="Path" fill="#FFA005"></path>
            </g>
        </g>
    </g>
</svg>