<?xml version="1.0" encoding="UTF-8"?>
<svg width="240px" height="240px" viewBox="0 0 240 240" version="1.1" xmlns="http://www.w3.org/2000/svg" xmlns:xlink="http://www.w3.org/1999/xlink">
    <title>octobox</title>
    <g id="Page-1" stroke="none" stroke-width="1" fill="none" fill-rule="evenodd">
        <g id="octobox" fill-rule="nonzero">
            <circle id="Oval" fill="#333333" cx="120" cy="120" r="120"></circle>
            <g id="Group" transform="translate(49, 81)" fill="#FFFFFF">
                <path d="M80.1831169,31.4351133 C90.0361536,19.040364 101.029175,12.5273791 113.162181,11.8961586 C125.279628,11.8961586 142,19.8429542 142,39.7157333 C142,58.4268358 132.278,78 105.913653,78 C91.8097081,78 77.9790762,69.377978 69.6716646,61.0179696 C51.5618167,42.7934607 43.3866953,16.3413817 27.3139112,16.3413817 C17.0489489,16.3413817 9.24826604,20.2815778 3.91186273,28.1619701 C10.0149634,12.6156522 21.0765686,4.03363423 37.0966783,2.41591607 C55.2624677,1.40297385 64.9196068,15.7057783 80.8090289,32.0933668 C96.698451,48.4809552 117.253512,53.8649793 117.253512,40.6725852 C117.253512,27.0064333 95.1990012,36.052813 90.9929091,40.6725852 C87.7871349,38.5740797 84.1838706,35.4949224 80.1831169,31.4351133 Z" id="Path"></path>
                <path d="M7.16585295,28.7465669 C13.5148777,28.7465669 12.3999861,38.0682465 6.0509613,38.0682465 C-0.298063534,38.0682465 0.816828106,28.7465669 7.16585295,28.7465669 L7.16585295,28.7465669 Z" id="Path"></path>
                <path d="M21.3663042,33.8490567 C28.1054873,33.8490567 25.8424152,44.2907156 19.1032322,44.2907156 C12.3640491,44.2907156 14.6271212,33.8490567 21.3663042,33.8490567 Z" id="Path"></path>
                <path d="M16.8558651,20.8981132 C23.2048899,20.8981132 22.2274681,29.2441261 15.8784433,29.2441261 C9.52941852,29.2441261 10.5068402,20.8981132 16.8558651,20.8981132 Z" id="Path"></path>
                <path d="M82.676422,18.5433963 C86.745707,18.5433963 82.676422,25.7045197 77.3595788,25.7045197 C72.0427357,25.7045197 78.6071366,18.5433963 82.676422,18.5433963 Z" id="Path"></path>
                <path d="M75.3426665,12.9122488 C78.2042002,12.9122488 71.9602075,18.5144 69.5234699,18.5144 C67.0867319,18.5144 72.4811327,12.9122488 75.3426665,12.9122488 Z" id="Path"></path>
                <path d="M87.6814037,3.23773586 C91.5052441,3.23773586 82.316088,9.20283186 77.6751747,9.20283186 C73.0342617,9.20283186 83.8575633,3.23773586 87.6814037,3.23773586 Z" id="Path"></path>
                <path d="M93.6190459,9.15171878 C98.4027127,9.15171878 90.7458927,16.9005555 85.9622264,16.9005555 C81.1785596,16.9005555 88.8353796,9.15171878 93.6190459,9.15171878 Z" id="Path"></path>
                <path d="M101.013586,0 C107.362611,0 98.8878776,3.68607452 92.5388527,3.68607452 C86.1898279,3.68607452 94.6645615,0 101.013586,0 L101.013586,0 Z" id="Path"></path>
                <path d="M106.298274,4.4347987 C112.647299,4.4347987 106.392136,8.25593299 100.043112,8.25593299 C93.6940867,8.25593299 99.9492491,4.4347987 106.298274,4.4347987 Z" id="Path"></path>
                <path d="M109.355482,0.682224646 C115.704507,0.682224646 118.840865,2.25017658 112.49184,2.25017658 C106.142815,2.25017658 103.006457,0.682224646 109.355482,0.682224646 Z" id="Path"></path>
                <path d="M117.896146,3.8264151 C124.245171,3.8264151 129.588261,7.90967141 124.116348,7.90967141 C118.644434,7.90967141 111.547121,3.8264151 117.896146,3.8264151 Z" id="Path"></path>
                <path d="M128.723776,8.39110096 C130.591862,8.39110096 136.35284,16.4007404 134.118176,16.4007404 C131.883513,16.4007404 126.855689,8.39110096 128.723776,8.39110096 Z" id="Path"></path>
                <path d="M30.1405995,26.7849057 C36.4896243,26.7849057 35.8328747,34.9633937 29.4838498,34.9633937 C23.134825,34.9633937 23.7915747,26.7849057 30.1405995,26.7849057 L30.1405995,26.7849057 Z" id="Path"></path>
                <path d="M28.8035721,18.8609298 C35.1525969,18.8609298 34.4043089,24.1806311 28.0552841,24.1806311 C21.7062593,24.1806311 22.4545473,18.8609298 28.8035721,18.8609298 Z" id="Path"></path>
                <path d="M36.5219481,24.7392322 C40.0782957,24.7392322 45.946888,29.3031332 43.7503441,29.3031332 C41.5538003,29.3031332 32.9656006,24.7392322 36.5219481,24.7392322 Z" id="Path"></path>
                <path d="M51.9298142,41.2086023 C58.3991385,41.2086023 53.3726632,50.893561 47.3991246,50.893561 C41.4255857,50.893561 45.4953601,41.2086023 51.9298142,41.2086023 Z" id="Path"></path>
                <path d="M6.85987856,60.6339624 C10.1154892,60.6339624 20.1251658,72.0571103 14.6733979,72.0571103 C9.22163006,72.0571103 3.60426789,60.6339624 6.85987856,60.6339624 L6.85987856,60.6339624 Z" id="Path"></path>
                <path d="M2.97760604,41.7972815 C7.6383289,41.7972815 8.93047267,57.4898595 4.18449334,57.4898595 C-0.561485963,57.4898595 -1.68311681,41.7972815 2.97760604,41.7972815 Z" id="Path"></path>
                <path d="M15.3110386,45.6226416 C20.4097893,45.6226416 21.9678315,56.9976115 16.3088381,56.9976115 C10.6498449,56.9976115 10.2122879,45.6226416 15.3110386,45.6226416 Z" id="Path"></path>
                <path d="M22.5623471,58.5735848 C29.8840936,58.5735848 34.5965318,65.7347084 27.2747854,65.7347084 C19.953039,65.7347084 15.2406007,58.5735848 22.5623471,58.5735848 L22.5623471,58.5735848 Z" id="Path"></path>
                <path d="M20.9771053,72.5618093 C27.5456418,70.9164116 40.2436915,74.2081188 33.8946666,75.8179452 C27.5456418,77.4277716 14.4085688,74.2072066 20.9771053,72.5618093 L20.9771053,72.5618093 Z" id="Path"></path>
                <path d="M48.9114596,64.8866884 C52.6415404,64.8866884 43.9315525,72.9014187 39.358582,72.9014187 C35.721481,72.9014187 44.5195228,64.8866884 48.9114596,64.8866884 Z" id="Path"></path>
                <path d="M42.9248387,53.2754716 C49.2738634,53.2754716 43.3979251,62.5047774 37.0489003,62.5047774 C30.6998755,62.5047774 36.5758138,53.2754716 42.9248387,53.2754716 L42.9248387,53.2754716 Z" id="Path"></path>
                <path d="M59.3380005,52.9811323 C64.3140607,52.9811323 57.3048535,62.6135252 52.6893733,62.6135252 C48.0738931,62.6135252 54.3619399,52.9811323 59.3380005,52.9811323 L59.3380005,52.9811323 Z" id="Path"></path>
            </g>
        </g>
    </g>
</svg>