<?xml version="1.0" encoding="UTF-8"?>
<svg width="240px" height="240px" viewBox="0 0 240 240" version="1.1" xmlns="http://www.w3.org/2000/svg" xmlns:xlink="http://www.w3.org/1999/xlink">
    <title>offsec</title>
    <defs>
        <linearGradient x1="50.0000279%" y1="0%" x2="50.0000279%" y2="100%" id="linearGradient-1">
            <stop stop-color="#00BFCB" offset="0%"></stop>
            <stop stop-color="#6619D0" offset="100%"></stop>
        </linearGradient>
    </defs>
    <g id="Page-1" stroke="none" stroke-width="1" fill="none" fill-rule="evenodd">
        <g id="offsec" fill="url(#linearGradient-1)">
            <path d="M128.005691,111.096824 C128.005691,135.896178 129.801199,160.6978 133.355653,185.27441 L140.987551,238.129634 C134.142118,239.327424 127.146667,240 119.965012,240 C112.783358,240 105.787907,239.327424 98.9424742,238.129634 L106.574184,185.27441 C110.128826,160.700256 111.924333,135.934908 111.924333,111.096824 L111.924333,0.300038841 C114.581127,0.113723927 117.235659,0 119.967462,0 C122.699265,0 125.353798,0.111303787 128.010591,0.300038841 L128.010591,111.09928 L128.005691,111.096824 Z M47.3563477,215.498204 L78.5925683,154.788954 C80.9493256,150.18672 82.1833956,145.100458 82.1833956,139.975655 L82.1833956,6.13388076 C34.4519476,21.9948498 0,66.9571285 0,119.998822 C0,158.977441 18.5907171,193.579025 47.3563477,215.498204 Z M157.819188,139.975655 C157.819188,145.13692 159.053258,150.22545 161.410016,154.788954 L192.644352,215.498204 C221.409794,193.579025 240,158.977441 240,119.998822 C240,66.9571285 205.548563,21.95612 157.816738,6.13388076 L157.816738,139.975655 L157.819188,139.975655 Z" id="Shape"></path>
        </g>
    </g>
</svg>