<?xml version="1.0" encoding="UTF-8"?>
<svg width="240px" height="240px" viewBox="0 0 240 240" version="1.1" xmlns="http://www.w3.org/2000/svg" xmlns:xlink="http://www.w3.org/1999/xlink">
    <title>onedrive</title>
    <g id="Page-1" stroke="none" stroke-width="1" fill="none" fill-rule="evenodd">
        <g id="onedrive">
            <rect id="ViewBox" x="0" y="0" width="240" height="240"></rect>
            <g id="shape" transform="translate(0, 43)" fill-rule="nonzero">
                <path d="M144.993747,103.76391 L194.533122,56.388285 C184.243122,16.263285 143.373747,-7.92140251 103.248747,2.36953499 C85.1800574,7.00320927 69.4865026,18.2038188 59.2312466,33.78516 C59.9971841,33.76641 144.993747,103.76391 144.993747,103.76391" id="Path" fill="#0364B8"></path>
                <path d="M91.5168716,42.704535 L91.5149966,42.7129725 C82.04854,36.8508547 71.1317259,33.7520369 59.9971841,33.7663602 C59.7403091,33.7663602 59.4871841,33.7823475 59.2303091,33.78516 C26.1112466,34.195785 -0.40500336,61.37766 0.00468414048,94.49766 C0.153464524,106.511263 3.90719079,118.20324 10.7793716,128.058285 L84.9965591,118.762972 L141.897184,72.8817225 L91.5168716,42.704535 Z" id="Path" fill="#0078D4"></path>
                <path d="M194.533122,56.388285 C193.437905,56.3110024 192.340427,56.2700424 191.242497,56.2654478 C184.596835,56.2587669 178.020518,57.6161495 171.920622,60.2535975 L171.918747,60.24891 L141.898122,72.8817225 L174.993747,113.763285 L234.159372,128.145472 C246.928122,104.44266 238.063122,74.8767225 214.359372,62.1079725 C208.234381,58.8088858 201.474218,56.8589617 194.533122,56.3892225" id="Path" fill="#1490DF"></path>
                <path d="M10.7793716,128.058285 C21.9857977,144.169972 40.3723643,153.771963 59.9981216,153.761731 L191.242497,153.761731 C209.170368,153.765964 225.653375,143.927937 234.159372,128.14641 L141.897184,72.880785 L10.7793716,128.058285 Z" id="Path" fill="#28A8EA"></path>
            </g>
        </g>
    </g>
</svg>