<?xml version="1.0" encoding="UTF-8"?>
<svg width="218px" height="240px" viewBox="0 0 218 240" version="1.1" xmlns="http://www.w3.org/2000/svg" xmlns:xlink="http://www.w3.org/1999/xlink">
    <title>ontime</title>
    <defs>
        <linearGradient x1="71.1429008%" y1="28.7749255%" x2="63.5870269%" y2="41.9206269%" id="linearGradient-1">
            <stop stop-color="#FF6A68" offset="0%"></stop>
            <stop stop-color="#FF7371" offset="100%"></stop>
        </linearGradient>
        <linearGradient x1="69.3083212%" y1="23.6890333%" x2="-3.33137543%" y2="90.4262102%" id="linearGradient-2">
            <stop stop-color="#FF2F5A" offset="0%"></stop>
            <stop stop-color="#FF7D92" offset="100%"></stop>
        </linearGradient>
    </defs>
    <g id="Page-1" stroke="none" stroke-width="1" fill="none" fill-rule="evenodd">
        <g id="ontime">
            <path d="M0,120.158311 C0,82.2691293 9.56769805,52.7704485 28.7030941,31.6622691 C47.8384902,10.5540897 74.4845293,0 108.641211,0 C143.658986,0 170.639895,10.3693931 189.583937,31.1081794 C208.527979,51.8469657 218,80.8970976 218,118.258575 C218,145.382586 213.861971,167.62533 205.585912,184.986807 C197.309853,202.348285 185.35023,215.85752 169.707044,225.514512 C154.063858,235.171504 134.569673,240 111.22449,240 C87.4965986,240 67.8588984,235.831135 52.3113891,227.493404 C36.7638797,219.155673 24.1584376,205.963061 14.4950625,187.915567 C4.83168751,169.868074 0,147.282322 0,120.158311 Z M65.0125082,120.474934 C65.0125082,143.905013 68.9591837,160.738786 76.8525346,170.976253 C84.7458855,181.21372 95.4856265,186.332454 109.071758,186.332454 C123.040597,186.332454 133.852096,181.319261 141.506254,171.292876 C149.160413,161.266491 152.987492,143.271768 152.987492,117.308707 C152.987492,95.4617414 148.992978,79.4986807 141.00395,69.4195251 C133.014922,59.3403694 122.179504,54.3007916 108.497696,54.3007916 C95.3899495,54.3007916 84.8654817,59.4195251 76.9242923,69.6569921 C68.9831029,79.8944591 65.0125082,96.8337731 65.0125082,120.474934 Z" id="Shape" fill="#FFFFFF" fill-rule="nonzero"></path>
            <path d="M31.0224204,56.3007916 C48.2912135,63.9703102 64.7354284,66.9690437 78.2656056,68.0081114 C77.8096202,68.5414501 77.363014,69.0914095 76.9242923,69.6569921 C68.9831029,79.8944591 65.0125082,96.8337731 65.0125082,120.474934 C65.0125082,143.905013 68.9591837,160.738786 76.8525346,170.976253 C84.7458855,181.21372 95.4856265,186.332454 109.071758,186.332454 C123.040597,186.332454 133.852096,181.319261 141.506254,171.292876 C149.160413,161.266491 152.987492,143.271768 152.987492,117.308707 C152.987492,111.811292 152.734563,106.68644 152.228705,101.934152 C152.775644,102.881772 153.320485,103.848519 153.863315,104.835046 C174.58,113.514804 194.083547,134.036325 212.373955,166.399609 C210.553239,173.117953 208.290546,179.313039 205.585912,184.986807 C197.309853,202.348285 185.35023,215.85752 169.707044,225.514512 C154.063858,235.171504 134.569673,240 111.22449,240 C87.4965986,240 67.8588984,235.831135 52.3113891,227.493404 C36.7638797,219.155673 24.1584376,205.963061 14.4950625,187.915567 C4.83168751,169.868074 0,147.282322 0,120.158311 C0,90.3277487 5.93061717,65.698108 17.7918515,46.2693894 C21.6339018,50.7466605 26.0440475,54.0897671 31.0224204,56.3007916 Z" id="Combined-Shape" fill="url(#linearGradient-1)"></path>
            <path d="M70.3336605,82.0594871 L70.2452538,82.2997028 C66.7567568,92.0807154 65.0125082,104.805792 65.0125082,120.474934 C65.0125082,143.905013 68.9591837,160.738786 76.8525346,170.976253 C84.7458855,181.21372 95.4856265,186.332454 109.071758,186.332454 C123.040597,186.332454 133.852096,181.319261 141.506254,171.292876 C149.160413,161.266491 152.987492,143.271768 152.987492,117.308707 C152.987492,116.839829 152.985652,116.373661 152.981972,115.910203 C174.584133,132.763152 196.705974,155.904752 207.780385,180.041556 C207.081981,181.732257 206.351659,183.380427 205.585912,184.986807 C197.309853,202.348285 185.35023,215.85752 169.707044,225.514512 C154.063858,235.171504 134.569673,240 111.22449,240 C87.4965986,240 67.8588984,235.831135 52.3113891,227.493404 C36.7638797,219.155673 24.1584376,205.963061 14.4950625,187.915567 C4.83168751,169.868074 0,147.282322 0,120.158311 C0,92.0026607 5.28333483,68.4802905 15.8500045,49.5912008 C38.2044201,64.5243806 56.3654324,75.3464878 70.3336605,82.0594871 Z" id="Combined-Shape" fill="url(#linearGradient-2)"></path>
        </g>
    </g>
</svg>