<?xml version="1.0" encoding="UTF-8"?>
<svg width="240px" height="240px" viewBox="0 0 240 240" version="1.1" xmlns="http://www.w3.org/2000/svg" xmlns:xlink="http://www.w3.org/1999/xlink">
    <title>onyphe</title>
    <g id="Page-1" stroke="none" stroke-width="1" fill="none" fill-rule="evenodd">
        <g id="onyphe">
            <rect id="box" fill="#FFFFFF" x="0" y="0" width="240" height="240" rx="32"></rect>
            <g id="shape" transform="translate(35, 35)" fill-rule="nonzero">
                <path d="M117.883459,162.016447 C117.953494,162.17819 117.996125,162.349089 118,162.526091 C118.00526,162.700041 117.977854,162.877044 117.916954,163.041839 C117.853009,163.203582 117.761659,163.35617 117.639858,163.484344 C117.521103,163.609466 117.374943,163.713226 117.216602,163.786468 C102.704088,169.621434 86.8822203,171.391456 71.4409785,168.907322 C54.0204807,166.038668 37.9154269,157.820276 25.3517189,145.387404 C12.7910558,132.954531 4.38987536,116.91753 1.30832603,99.4950285 C-1.77322331,82.0694757 0.620153941,64.1190201 8.15655177,48.1155877 C15.6929496,32.1121554 28.0008769,18.849204 43.3781735,10.1577899 C43.536514,10.0753924 43.7070345,10.0235124 43.883645,10.0052019 C44.0572105,9.98994306 44.2368661,10.0082536 44.4043416,10.0601336 C44.5718171,10.1150652 44.7301576,10.2005145 44.864138,10.3134297 C44.9981184,10.4293966 45.1107837,10.5667258 45.189954,10.7254174 L46.3318324,13.0935836 C46.4384077,13.3194138 46.4810379,13.5666064 46.4505878,13.813799 C46.4201377,14.0609916 46.3226974,14.2929255 46.1643569,14.4821346 C36.0336112,27.0126635 40.3879744,61.7203363 57.7201669,97.8104567 C75.0523594,133.900577 99.3058579,158.69308 115.392642,158.558802 C115.639287,158.564906 115.879843,158.6412 116.086904,158.781581 C116.290919,158.921962 116.452305,159.117275 116.549745,159.346157 L117.883459,162.016447 Z" id="Path" fill="#00004C"></path>
                <path d="M133.338157,92.5528586 C132.173545,99.5312307 129.519457,106.184249 125.547519,112.061893 C121.575581,117.936497 116.383866,122.901935 110.315627,126.620693 C103.416836,129.773883 87.1398589,112.940651 75.6960189,88.301981 C64.252179,63.6663513 61.9995752,40.5389014 68.8983657,37.385711 C76.4101096,35.001814 84.3785038,34.393677 92.1691415,35.609951 C105.237308,37.7445119 116.917135,44.9448539 124.637283,55.6237395 C132.357431,66.3026252 135.486558,79.5843372 133.338157,92.5528586 Z" id="Path" fill="#0202CE"></path>
                <path d="M168.860552,99.2382153 C166.79412,111.913134 161.895461,123.956898 154.538356,134.466988 C147.178212,144.977078 137.544993,153.682127 126.36195,159.932688 C126.243434,160 126.100607,160.018062 125.969936,159.981473 C125.839265,159.944885 125.726826,159.856462 125.656932,159.737549 L123.96732,156.86534 C123.933893,156.804359 123.909582,156.73728 123.900465,156.667151 C123.891349,156.600072 123.897426,156.529944 123.91566,156.459816 C123.933893,156.392736 123.96732,156.331755 124.009865,156.276872 C124.052409,156.221989 124.107108,156.176254 124.167886,156.142714 C134.849515,150.264138 144.060331,142.025593 151.107471,132.052137 C158.151573,122.07868 162.846627,110.629482 164.837088,98.5704724 C172.191154,54.4415108 141.969588,12.7822831 97.3376997,5.51333788 C81.6784009,2.96432856 67.5658871,4.47361039 53.9426314,10.0808211 C53.8180377,10.129606 53.6782496,10.129606 53.553656,10.077772 C53.4321011,10.0228891 53.3318184,9.92531932 53.2801576,9.8003081 L52.0372597,7.18117053 C51.9855989,7.05311025 51.9886377,6.91590281 52.0402985,6.79089159 C52.0919593,6.66588037 52.192242,6.56526158 52.3137969,6.51342766 C66.3290668,0.680586952 81.6388956,-1.28300396 96.6661094,0.817794391 C111.690284,2.9216418 125.881809,9.01670117 137.76987,18.4718183 C149.65793,27.9269354 158.811008,40.4006162 164.277935,54.6000616 C169.747902,68.796458 171.334192,84.203329 168.872707,99.22297 L168.860552,99.2351662 L168.860552,99.2382153 Z" id="Path" fill="#00004C"></path>
            </g>
        </g>
    </g>
</svg>