<?xml version="1.0" encoding="UTF-8"?>
<svg width="240px" height="199px" viewBox="0 0 240 199" version="1.1" xmlns="http://www.w3.org/2000/svg" xmlns:xlink="http://www.w3.org/1999/xlink">
    <title>openrouter</title>
    <g id="Page-1" stroke="none" stroke-width="1" fill="none" fill-rule="evenodd">
        <g id="openrouter" fill="#FFFFFF">
            <path d="M167.872128,0 L240,40.7571222 L240,41.620915 L167.132867,81.9411765 L167.302697,60.9222172 L159.100899,60.6243576 C148.521479,60.3463553 143.006993,60.6442149 136.443556,61.7165095 C125.814186,63.4540238 116.083916,67.4453425 105.004995,75.1400489 L83.3666334,90.0826723 C80.5294705,92.0187597 78.4215784,93.4186998 76.5734266,94.6002095 L71.4285714,97.7972359 L67.4625375,100.120541 L71.3086913,102.404131 L76.6033966,105.760016 C81.3586414,108.877613 88.2917083,113.663224 103.586414,124.286883 C114.675325,131.98159 124.395604,135.972908 135.024975,137.710423 L138.021978,138.157212 C144.955045,139.060719 151.758242,139.090505 166.243756,138.484858 L166.463536,117.048895 L238.591409,157.806017 L238.591409,158.66981 L165.724276,199 L165.864136,180.512847 L159.52048,180.731278 C145.674326,181.148281 138.171828,180.751135 128.171828,179.122836 C111.248751,176.342813 95.6043956,169.928903 79.4105894,158.679739 L57.8521479,143.786758 C55.3723576,142.087401 52.8576737,140.438896 50.3096903,138.842289 L45.6443556,136.062266 C43.1247703,134.619545 40.5938906,133.196394 38.0519481,131.792945 C29.0509491,126.81869 5.62437562,120.722497 0,120.722497 L0,78.7441501 L1.3986014,78.7838647 C7.03296703,78.7143641 30.4695305,72.6082423 39.4505495,67.6240583 L49.6003996,61.8654393 L53.976024,59.1449883 C58.2517483,56.3649653 64.6853147,51.9367859 80.8091908,40.7471935 C97.002997,29.4980292 112.637363,23.0741905 129.57043,20.3040962 C141.078921,18.417652 149.290709,18.189293 167.672328,18.933942 L167.872128,0 Z" id="Path"></path>
        </g>
    </g>
</svg>