<?xml version="1.0" encoding="UTF-8"?>
<svg width="240px" height="240px" viewBox="0 0 240 240" version="1.1" xmlns="http://www.w3.org/2000/svg" xmlns:xlink="http://www.w3.org/1999/xlink">
    <title>openapi</title>
    <g id="Page-1" stroke="none" stroke-width="1" fill="none" fill-rule="evenodd">
        <g id="openapi" transform="translate(0, -0)" fill-rule="nonzero">
            <g id="Group" transform="translate(0, 27)">
                <path d="M63.5541141,110.794009 L63.3115002,110.794009 L0.0944691403,110.794009 C0.10520427,111.103177 0.113792374,111.414493 0.130968581,111.723661 C0.156732892,112.320529 0.19967341,112.915249 0.236172851,113.512116 C0.253349058,113.767609 0.264084188,114.023103 0.283407421,114.276449 C0.332789017,114.967785 0.392905743,115.654826 0.455169494,116.341868 C0.470198675,116.498599 0.483080831,116.653183 0.498110012,116.803474 C0.571108894,117.567807 0.654842904,118.332141 0.745017993,119.090033 C0.749312045,119.165178 0.757900148,119.238176 0.768635278,119.311175 C0.86739847,120.13133 0.97260274,120.951486 1.09283619,121.767347 C1.09283619,121.775935 1.09498322,121.788817 1.09927727,121.797405 C1.82711905,126.855748 2.91995525,131.866855 4.37778584,136.792083 C4.38422692,136.813553 4.39281502,136.832876 4.39710907,136.854346 C4.62469382,137.629415 4.86516072,138.40019 5.1120687,139.16667 C5.12709789,139.211757 5.14212707,139.256844 5.15500922,139.301931 C5.16789138,139.347018 5.18292056,139.392105 5.19794974,139.437193 C5.42338746,140.130675 5.65956031,140.82201 5.89573316,141.515493 C5.95799692,141.6894 6.01596662,141.865454 6.08037739,142.039362 C6.29293296,142.638376 6.50978258,143.23739 6.73307327,143.836404 C6.83613051,144.106927 6.93918776,144.375302 7.04009798,144.647972 C7.23333031,145.14393 7.42441562,145.635594 7.61979497,146.131552 C7.76793976,146.502984 7.92252563,146.874415 8.07711149,147.245847 C8.23599141,147.632308 8.39916538,148.016622 8.56233935,148.405229 C8.76415979,148.87757 8.97456833,149.347764 9.18282984,149.817958 C9.30735734,150.099216 9.43403187,150.378326 9.55855938,150.657437 C9.81620249,151.222099 10.0824337,151.786761 10.3486649,152.347129 C10.436693,152.527478 10.520427,152.707826 10.6106021,152.888174 C10.9219208,153.534423 11.2396807,154.17423 11.5617346,154.809743 C11.6154102,154.908505 11.6626448,155.005121 11.7120264,155.103883 C12.0748737,155.8081 12.4441622,156.512318 12.8241858,157.210094 C12.841362,157.240152 12.8585382,157.27021 12.8735674,157.304562 C12.9530073,157.450558 13.0410354,157.590114 13.1204754,157.733963 L67.3178506,125.084469 L67.517524,124.964237 C65.3790862,120.457675 64.0479301,115.665561 63.5541141,110.794009 Z" id="Path" fill="#93D500"></path>
                <polygon id="Path" fill="#93D500" points="3.09171732 139.894504 3.11104055 139.950327 5.15715625 139.306225"></polygon>
                <path d="M79.1501104,139.92671 L78.9976715,140.079147 L34.298739,184.779776 C34.5284708,184.994476 34.7560555,185.211324 34.9922284,185.419583 C35.4087514,185.797456 35.8338625,186.173182 36.2568266,186.542466 C36.4758233,186.737844 36.6905259,186.931074 36.9095225,187.12001 C37.4162206,187.557999 37.9272128,187.985253 38.4360579,188.412507 C38.5756146,188.528445 38.7108773,188.642237 38.8482869,188.756028 C39.4215428,189.230516 40.0055339,189.696416 40.591672,190.160169 C40.6668179,190.218138 40.7419638,190.278254 40.8171097,190.33837 C41.4504823,190.836475 42.090296,191.321698 42.7365508,191.811215 C42.7644622,191.828391 42.7880795,191.845567 42.8095497,191.86489 C45.5019202,193.876633 48.2930539,195.761703 51.1722157,197.517952 C51.2709789,197.580215 51.3697421,197.638184 51.4706523,197.700448 C52.0181439,198.028939 52.5656355,198.353137 53.1174211,198.67304 C53.4545042,198.866271 53.7915873,199.057354 54.1286704,199.248438 C54.4464302,199.43308 54.76419,199.609134 55.0862439,199.787336 C55.6659409,200.105092 56.249932,200.420702 56.833923,200.729871 C56.913363,200.772811 56.99495,200.815751 57.0765369,200.858691 C58.7018356,201.708905 60.3550455,202.499002 62.0211376,203.259042 L62.0211376,203.259042 L63.6077898,199.407316 L86.0892981,144.811144 L86.1730321,144.609326 C83.7168345,143.295359 81.3636941,141.738781 79.1501104,139.92671 Z" id="Path" fill="#4D5A31"></path>
                <path d="M74.4953582,135.473823 C74.0122774,134.937072 73.5528138,134.387439 73.1019384,133.831364 C72.7025916,133.337553 72.3161269,132.839448 71.9425444,132.334902 C71.5152862,131.755211 71.0966162,131.173373 70.7015634,130.578653 C70.3022166,129.981786 69.9114579,129.380625 69.5421694,128.768728 L15.2760894,161.459015 C16.1091354,162.843833 16.9786809,164.192152 17.8654026,165.525441 C17.895461,165.570529 17.9233723,165.61991 17.9534307,165.664997 L17.9534307,165.664997 C17.9641658,165.682173 17.974901,165.697202 17.9856361,165.714378 C18.0156945,165.757318 18.0414588,165.804552 18.0715171,165.849639 C18.0736642,165.853933 18.0779582,165.858227 18.0801052,165.862521 C18.1509571,165.969871 18.223956,166.072928 18.2969549,166.180278 C18.3012489,166.186719 18.305543,166.19316 18.309837,166.199601 C18.309837,166.199601 18.309837,166.199601 18.309837,166.199601 C18.311984,166.201748 18.3141311,166.206042 18.3162781,166.208189 C19.2588225,167.601595 20.2271312,168.97353 21.2254982,170.308967 C21.2469685,170.336878 21.2705857,170.366936 21.292056,170.394847 C21.3135263,170.422758 21.3349965,170.450669 21.3564668,170.47858 C21.790166,171.053978 22.2260123,171.627228 22.6747407,172.196184 C22.7327104,172.271329 22.7906801,172.344327 22.8529438,172.417325 C23.3124074,173.005604 23.780459,173.585296 24.2570988,174.160693 C24.3687441,174.295954 24.4846835,174.433362 24.5963289,174.570771 C25.0257341,175.083905 25.4551393,175.594892 25.8931325,176.101585 C26.0799238,176.318432 26.2753032,176.535279 26.4642414,176.74998 C26.8378239,177.175087 27.2071124,177.598047 27.589283,178.016712 C27.7975445,178.246442 28.0143941,178.478318 28.2269497,178.708048 C28.3235659,178.813251 28.418035,178.916307 28.5167982,179.02151 C28.7959116,179.322091 29.0728779,179.622672 29.3541383,179.921105 C29.4657837,180.03919 29.5838701,180.155129 29.6976625,180.273214 C30.1914784,180.788495 30.6895884,181.303776 31.1984336,181.810469 L75.9639239,137.04543 C75.4507847,136.532296 74.9698509,136.004133 74.4953582,135.473823 Z" id="Path" fill="#6BA43A"></path>
                <path d="M133.832713,139.903092 C133.341044,140.300288 132.842934,140.688896 132.336236,141.062475 L132.447882,141.249264 L165.08697,195.428917 C166.598476,194.441295 168.092806,193.423615 169.552784,192.354407 C172.711059,190.024907 175.768424,187.50003 178.714143,184.781923 L134.010917,140.079147 L133.832713,139.903092 Z" id="Path" fill="#4D5A31"></path>
                <path d="M160.962533,198.009616 C160.98615,197.996734 161.011914,197.981705 161.035532,197.968823 L161.033385,197.966676 C161.009767,197.979558 160.98615,197.994587 160.962533,198.009616 L160.962533,198.009616 Z" id="Path" fill="#93D500"></path>
                <polygon id="Path" fill="#93D500" points="160.932475 198.028939 160.932475 198.026792 160.932475 198.026792 160.930327 198.026792"></polygon>
                <path d="M161.033385,197.966676 L161.035532,197.968823 C161.177235,197.889384 161.321086,197.814239 161.46279,197.730506 L161.454202,197.715477 C161.312498,197.79921 161.172941,197.882943 161.033385,197.966676 Z" id="Path" fill="#93D500"></path>
                <polygon id="Path" fill="#93D500" points="160.94321 198.018204 160.962533 198.009616 160.962533 198.007469"></polygon>
                <polygon id="Path" fill="#93D500" points="160.930327 198.026792 160.932475 198.026792 160.853035 197.891531"></polygon>
                <path d="M160.962533,198.009616 L160.962533,198.009616 C160.988297,197.996734 161.011914,197.983852 161.035532,197.97097 L161.035532,197.97097 C161.011914,197.981705 160.98615,197.994587 160.962533,198.009616 Z" id="Path" fill="#93D500"></path>
                <polygon id="Path" fill="#93D500" points="160.902416 198.043968 160.902416 198.043968 160.921739 198.033233 160.921739 198.033233"></polygon>
                <polygon id="Path" fill="#93D500" points="160.930327 198.026792 160.921739 198.033233 160.921739 198.033233 160.932475 198.028939"></polygon>
                <path d="M160.94321,198.018204 C160.938916,198.020351 160.934622,198.022498 160.930327,198.024645 L160.930327,198.024645 C160.941063,198.018204 160.951798,198.01391 160.962533,198.007469 L160.962533,198.005322 C160.956092,198.011763 160.949651,198.016057 160.94321,198.018204 Z" id="Path" fill="#93D500"></path>
                <path d="M161.035532,197.968823 C161.177235,197.88509 161.321086,197.814239 161.460643,197.728359 C161.321086,197.814239 161.177235,197.889384 161.035532,197.968823 L161.035532,197.968823 Z" id="Path" fill="#93D500"></path>
                <polygon id="Path" fill="#93D500" points="161.46279 197.728359 161.454202 197.715477 161.452055 197.715477"></polygon>
                <polygon id="Rectangle" fill="#93D500" transform="translate(161.0226, 198.1763) rotate(-33.6885) translate(-161.0226, -198.1763)" points="161.022645 198.176266 161.022645 198.176266 161.022645 198.176266"></polygon>
                <polygon id="Path" fill="#93D500" points="160.88524 198.054703 160.887387 198.052556 160.889534 198.052556"></polygon>
                <polygon id="Path" fill="#93D500" points="160.902416 198.043968 160.889534 198.052556 160.889534 198.052556 160.902416 198.043968"></polygon>
                <path d="M160.344189,195.873347 L159.236324,194.035511 L128.770026,143.462826 C128.15383,143.834257 127.522604,144.16919 126.893526,144.508417 C126.258006,144.84979 125.618192,145.169694 124.96979,145.476716 C119.116998,148.252792 112.781124,149.669815 106.436663,149.669815 C102.280021,149.669815 98.1255254,149.068654 94.1084399,147.870625 C93.4235387,147.66666 92.7558136,147.398284 92.0795004,147.15782 C91.4031873,146.919502 90.718286,146.71339 90.052708,146.438574 L67.5862288,200.998246 L66.7059482,203.136662 L65.9523421,204.968057 L65.948048,204.976645 C66.0060177,205.000262 66.0661344,205.019585 66.1241041,205.043202 C66.1863679,205.068966 66.2464846,205.088289 66.3087484,205.114053 L66.3108954,205.114053 C66.3130424,205.114053 66.3151895,205.1162 66.3151895,205.1162 C66.3302186,205.122641 66.3452478,205.126935 66.35813,205.133376 C66.8884454,205.350224 67.4230548,205.537013 67.9555173,205.745273 C68.6232423,206.00506 69.2909674,206.269142 69.9608395,206.5139 C70.3022166,206.638426 70.6414467,206.784423 70.9828238,206.904655 L70.9849708,206.904655 L70.9849708,206.904655 C78.0229218,209.390886 85.3056337,211.129959 92.7107261,212.104699 C93.0005746,212.139051 93.288276,212.179844 93.5781245,212.220637 C93.8808552,212.25499 94.1857329,212.285048 94.4884635,212.3194 C95.0595724,212.38381 95.6285343,212.450367 96.2017902,212.506189 C96.3434939,212.516924 96.4851976,212.529806 96.6269013,212.542688 C97.3289788,212.609245 98.0310563,212.669361 98.7288397,212.718742 C98.9671596,212.735918 99.2076265,212.746653 99.4437993,212.76383 C100.059996,212.804623 100.671898,212.843269 101.285948,212.87118 C101.661677,212.89265 102.037407,212.903385 102.415283,212.916267 C102.902658,212.933443 103.387886,212.952766 103.879555,212.967795 C104.581632,212.984971 105.290151,212.991412 105.996522,212.993559 C106.16399,212.993559 106.329311,212.997853 106.494632,213 C112.409689,213 118.322598,212.508336 124.171097,211.527155 L124.171097,211.527155 C124.26986,211.512126 124.366476,211.49495 124.467386,211.482068 C125.08573,211.374718 125.704073,211.25878 126.322417,211.144988 C126.674529,211.076284 127.028788,211.009727 127.376606,210.941023 C127.737307,210.865878 128.100154,210.790733 128.460855,210.71344 C129.064169,210.586767 129.665336,210.4558 130.26865,210.316245 C130.376002,210.292628 130.4855,210.271158 130.594998,210.2411 C139.485833,208.16924 148.071789,204.961616 156.138166,200.716989 L156.140313,200.714842 L156.140313,200.714842 C156.668481,200.435731 157.183767,200.117974 157.709789,199.832423 C158.33672,199.488902 158.959358,199.134646 159.581995,198.778244 C160.013547,198.531338 160.449394,198.303756 160.876652,198.048262 C160.876652,198.048262 160.878799,198.046115 160.878799,198.046115 C160.883093,198.043968 160.887387,198.039674 160.891681,198.037527 C160.891681,198.037527 160.891681,198.037527 160.893828,198.037527 L160.893828,198.037527 C160.900269,198.033233 160.90671,198.031086 160.913151,198.026792 C160.917445,198.024645 160.919592,198.022498 160.921739,198.020351 L160.842299,197.88509 L160.921739,198.020351 C160.926033,198.018204 160.930327,198.016057 160.934622,198.01391 C160.941063,198.009616 160.947504,198.007469 160.953945,198.003175 C160.977562,197.988146 161.001179,197.975264 161.024797,197.960235 C161.164353,197.876502 161.30391,197.792769 161.443467,197.709036 L161.443467,197.709036 L160.344189,195.873347 Z" id="Path" fill="#93D500"></path>
                <path d="M79.1758747,73.0990545 C79.6696906,72.6997117 80.1678007,72.3132509 80.6723517,71.9396722 L80.5607064,71.7528828 L47.9237655,17.57323 C46.4079652,18.562999 44.9093411,19.582826 43.4472164,20.6563281 C40.2910883,22.9793867 37.2358705,25.5021168 34.296592,28.2180772 L78.9998186,72.9208532 L79.1758747,73.0990545 Z" id="Path" fill="#93D500"></path>
                <path d="M31.1962866,31.1938251 C30.6874414,31.7026651 30.2065076,32.2286812 29.7105446,32.7439622 C29.2145816,33.2592432 28.7100305,33.7723772 28.2248027,34.2962463 C24.9226768,37.8710084 21.9039584,41.6153838 19.1815295,45.5036086 C19.0505609,45.6861039 18.9195924,45.8771873 18.7907708,46.0639767 C18.4837461,46.5105536 18.1810155,46.9571305 17.8825789,47.4058544 C17.5712601,47.8717543 17.2620884,48.3440952 16.9615047,48.8142892 C16.8477124,48.9860495 16.736067,49.1599569 16.6265687,49.3317172 C6.34446158,65.4621603 0.835193081,83.7567837 0.0944691403,102.205991 C0.0665578034,102.920944 0.051528622,103.638043 0.0364994406,104.352996 C0.0214702592,105.067948 0,105.785048 0,106.5 L63.3115002,106.5 C63.3115002,105.782901 63.378058,105.070095 63.4145574,104.352996 C63.4510569,103.635896 63.461792,102.918797 63.5326439,102.205991 C64.3506607,93.961495 67.5325531,85.912376 73.0804681,79.1493126 C73.5313436,78.5996795 74.0401887,78.0843984 74.5232695,77.5540884 C75.0042033,77.0237783 75.4507847,76.4719982 75.9639239,75.9610112 L31.1962866,31.1938251 Z" id="Path" fill="#4D5A31"></path>
                <path d="M161.827784,15.4799008 C161.741903,15.4262257 161.651728,15.3746976 161.565847,15.3231695 C161.009767,14.9817958 160.447247,14.6533042 159.884726,14.3248125 C159.558378,14.1358761 159.23203,13.9533808 158.903535,13.7665914 C158.572893,13.581949 158.246545,13.3973067 157.913756,13.2169583 C157.342647,12.9034957 156.769391,12.5943271 156.193988,12.2894525 C156.103813,12.2443654 156.015785,12.1949843 155.923463,12.1477502 C152.211255,10.2068583 148.398137,8.49784292 144.505579,7.01426296 C144.406816,6.97346988 144.303759,6.9348238 144.202849,6.89832473 C143.354773,6.5805681 142.504551,6.26495847 141.647888,5.96867188 C134.732317,3.55329207 127.580574,1.8593057 120.315038,0.906035804 C120.018749,0.865242722 119.720312,0.824449641 119.424022,0.785803564 C119.125586,0.749304492 118.829296,0.719246432 118.533007,0.687041368 C117.959751,0.620484235 117.388642,0.556074107 116.813239,0.500251996 C116.654359,0.485222966 116.493332,0.474487945 116.332305,0.45731191 C115.651698,0.395048786 114.966797,0.334932667 114.286189,0.285551568 C114.022105,0.26622853 113.753727,0.2511995 113.489643,0.23617047 C112.905652,0.197524393 112.31522,0.156731312 111.731229,0.130967261 C111.417763,0.113791227 111.108591,0.105203209 110.799419,0.094468188 L110.797272,63.310862 L110.797272,63.5577675 C114.054311,63.8948472 117.281291,64.5883296 120.411654,65.6510967 L167.118056,18.9451657 C165.385406,17.7428433 163.631286,16.574873 161.827784,15.4799008 Z" id="Path" fill="#4D5A31"></path>
                <polygon id="Path" fill="#6BA43A" points="52.6643987 17.1245061 51.5565333 15.2866704 51.5565333 15.2866704"></polygon>
                <polygon id="Path" fill="#6BA43A" points="51.5500922 15.2737884 51.5565333 15.2866704 51.5565333 15.2866704"></polygon>
                <path d="M104.358342,0.0429400855 C103.643382,0.0579691154 102.926275,0.0601161197 102.211316,0.0880271752 C97.7326197,0.268375534 93.2625117,0.725687445 88.8289032,1.46855092 C88.732287,1.48572696 88.6356709,1.50075599 88.5369077,1.51793202 C87.9142702,1.62528224 87.2980737,1.73907346 86.6797303,1.85501169 C86.329765,1.92156883 85.9776528,1.98597895 85.6276876,2.05683009 C85.2626932,2.12982824 84.8998458,2.20497339 84.5369984,2.28441255 C83.9358311,2.4089388 83.3346639,2.53990606 82.7334966,2.67946133 L82.7334966,2.67946133 C82.6239983,2.70307838 82.516647,2.72884243 82.4050017,2.75245948 C73.5141673,4.82646561 64.9239167,8.036237 56.8596873,12.2808644 C56.8596873,12.2808644 56.8596873,12.2808644 56.8596873,12.2808644 L56.8575403,12.2808644 C56.3315189,12.559975 55.8183798,12.8755846 55.2945054,13.1632832 C54.6675739,13.5068039 54.0449363,13.8610596 53.4222988,14.2174623 C52.9606883,14.4836908 52.4904896,14.7284493 52.031026,15.0032659 C52.026732,15.0054129 52.0202909,15.0097069 52.0159969,15.0118539 C52.0159969,15.0118539 52.0138498,15.0118539 52.0138498,15.0118539 C51.9816444,15.0311769 51.9494391,15.048353 51.9172337,15.067676 C51.7970002,15.1406741 51.6724727,15.2007903 51.5522393,15.2737884 L51.5586803,15.2845234 L52.6665457,17.1245061 L52.6665457,17.1245061 L84.2385618,69.5371744 C84.8547582,69.1657427 85.4859839,68.828663 86.1150624,68.4915833 C86.7484351,68.1502097 87.3903958,67.830306 88.0366506,67.5232844 C92.5454051,65.3762801 97.3375669,64.0451375 102.209169,63.5513265 C102.924128,63.4783284 103.639088,63.4182122 104.356195,63.3817132 C105.071154,63.3452141 105.786114,63.308715 106.503221,63.308715 L106.505368,0 C105.788261,0 105.073301,0.0300580598 104.358342,0.0429400855 Z" id="Path" fill="#6BA43A"></path>
                <path d="M212.87762,101.265604 C212.847561,100.696647 212.813209,100.129838 212.774562,99.5587352 C212.757386,99.2753306 212.742357,98.9940731 212.71874,98.7063745 C212.671505,98.0386562 212.615682,97.3687908 212.553419,96.7010725 C212.540536,96.5271651 212.52336,96.3554048 212.508331,96.1814975 C212.435332,95.43434 212.355892,94.6871825 212.270011,93.942172 C212.261423,93.8820559 212.254982,93.8219398 212.248541,93.7618236 C212.244247,93.7339126 212.2421,93.7038545 212.237806,93.6759435 C212.139043,92.8708169 212.031691,92.0656903 211.917899,91.2627107 C211.915752,91.2390936 211.913605,91.2090356 211.907164,91.1875655 C211.179322,86.1399585 210.088633,81.1374385 208.635096,76.2186517 C208.624361,76.1842997 208.615773,76.1542416 208.605038,76.1241835 C208.375306,75.35985 208.14128,74.5998105 207.900813,73.841918 C207.868608,73.7431558 207.834256,73.6422466 207.804197,73.5413374 C207.57876,72.856443 207.351175,72.1758427 207.115002,71.4930953 C207.048444,71.3106 206.984033,71.1259576 206.919623,70.9391682 C206.711361,70.348742 206.496659,69.7604629 206.277662,69.1721837 C206.172458,68.8909261 206.065106,68.6118156 205.955608,68.332705 C205.770964,67.8453351 205.579878,67.3579651 205.386646,66.8770361 C205.23206,66.4905754 205.077474,66.1105556 204.918594,65.7305358 C204.764009,65.3526631 204.605129,64.9790843 204.446249,64.6012116 C204.237987,64.1202826 204.027579,63.6393537 203.815023,63.1605717 C203.69479,62.8921962 203.574556,62.6195267 203.450029,62.3490041 C203.188092,61.777901 202.919713,61.2067978 202.649188,60.6378417 C202.565454,60.4660814 202.483867,60.290027 202.400133,60.1182667 C202.08452,59.4677244 201.764613,58.8171821 201.438265,58.1730808 C201.391031,58.0850536 201.345943,57.9948794 201.298709,57.9047053 C200.933714,57.1940469 200.560132,56.4812414 200.180108,55.779171 C200.165079,55.755554 200.154344,55.7276429 200.139315,55.7040259 C198.29502,52.3117591 196.270374,49.0311366 194.080408,45.8750403 L147.358977,92.5981473 C148.421755,95.7306266 149.113097,98.955427 149.45018,102.210285 L149.699235,102.210285 L212.916266,102.210285 C212.901237,101.890382 212.892649,101.576919 212.87762,101.265604 Z" id="Path" fill="#4D5A31"></path>
                <path d="M149.694941,106.5 C149.694941,107.217099 149.628383,107.929905 149.591884,108.647004 C149.557531,109.364104 149.544649,110.081203 149.473797,110.794009 C148.65578,119.038505 145.473888,127.089771 139.92812,133.852834 C139.477245,134.402468 138.968399,134.917749 138.485319,135.448059 C138.004385,135.978369 137.557803,136.530149 137.044664,137.041136 L181.812302,181.806175 C182.321147,181.297335 182.799933,180.771319 183.295896,180.253891 C183.791859,179.736463 184.296411,179.225476 184.779491,178.701607 C188.092352,175.113963 191.119659,171.360999 193.848529,167.459892 C193.958027,167.305308 194.061084,167.152871 194.166289,167.000433 C194.499078,166.521651 194.823279,166.038576 195.149627,165.5555 C195.435181,165.123952 195.720735,164.692404 195.997702,164.256562 C196.135111,164.048303 196.272521,163.831455 196.405637,163.623196 C206.672715,147.501341 212.166954,129.22604 212.905531,110.791862 C212.933442,110.076909 212.948471,109.35981 212.963501,108.644857 C212.97853,107.929905 213,107.214952 213,106.497853 L149.694941,106.497853 L149.694941,106.5 Z" id="Path" fill="#6BA43A"></path>
            </g>
            <path d="M231.349034,8.65279501 C219.811917,-2.884265 201.106604,-2.884265 189.571626,8.65279501 C180.367594,17.8546429 178.528499,31.6114375 184.009431,42.6587873 L119.660334,107.009707 C108.61293,101.53094 94.8560673,103.367888 85.6520357,112.569736 C74.1149189,124.106796 74.1170574,142.812016 85.6520357,154.349076 C97.1912909,165.886136 115.896603,165.881859 127.43372,154.346938 C136.635613,145.14509 138.47257,131.388295 132.991638,120.338807 L197.340735,55.9900259 C208.390278,61.4687928 222.145002,59.6318448 231.346895,50.4278585 C242.884012,38.8972139 242.884012,20.189855 231.349034,8.65279501 Z" id="Path" fill="#424143"></path>
        </g>
    </g>
</svg>