<?xml version="1.0" encoding="UTF-8"?>
<svg width="240px" height="240px" viewBox="0 0 240 240" version="1.1" xmlns="http://www.w3.org/2000/svg" xmlns:xlink="http://www.w3.org/1999/xlink">
    <title>opencv</title>
    <g id="Page-1" stroke="none" stroke-width="1" fill="none" fill-rule="evenodd">
        <g id="opencv">
            <rect id="ViewBox" x="0" y="0" width="240" height="240"></rect>
            <path d="M211.633125,124.87875 C228.515625,134.773125 239.86125,153.054375 239.89698,173.986875 C239.956875,205.49625 214.365,231.08625 182.746875,231.136981 C151.12875,231.196875 125.44875,205.693125 125.390532,174.18375 C125.353125,153.25125 136.633125,134.934375 153.485625,124.9725 L169.936875,152.68125 C170.3475,153.375 170.113125,154.269375 169.445625,154.725 C163.220625,158.94375 159.140625,166.06125 159.155625,174.125625 C159.178125,187.05375 169.7175,197.52 182.686875,197.49 C195.66,197.4675 206.154375,186.97125 206.131875,174.045 C206.11875,165.9825 202.01625,158.87625 195.77625,154.68 C195.110625,154.22625 194.86875,153.331875 195.2775,152.63625 L211.633125,124.87875 Z" id="Path" fill="#128DFF" fill-rule="nonzero"></path>
            <path d="M85.269375,124.54125 C76.726114,119.77325 67.1024581,117.276793 57.31875,117.290568 C25.693125,117.290568 0.065625,142.8375 0.065625,174.346875 C0.065625,205.854375 25.693125,231.403125 57.31875,231.403125 C89.0925,231.403125 115.35,204.52125 114.55125,172.880625 L82.32375,172.880625 C81.474375,172.880625 80.80875,173.59875 80.80125,174.440625 C80.720625,187.04625 70.16625,197.754375 57.31875,197.754375 C44.34,197.754375 33.830625,187.273125 33.830625,174.345 C33.830625,161.416875 44.34,150.9375 57.31875,150.9375 C60.710625,150.9375 63.94125,151.655625 66.855,152.95125 C67.573125,153.26625 68.4225,153.02625 68.818125,152.35875 L85.269375,124.54125 Z" id="Path" fill="#8BDA67" fill-rule="nonzero"></path>
            <path d="M89.896875,115.59 C73.036875,105.665625 61.72125,87.36375 61.72125,66.43125 C61.72125,34.921875 87.35625,9.375 118.974375,9.375 C150.5925,9.375 176.2275,34.921875 176.2275,66.43125 C176.2275,87.36375 164.911875,105.665625 148.051875,115.59 L131.64375,87.8625 C131.233125,87.16875 131.4675,86.274375 132.1425,85.81875 C138.3675,81.6075 142.460625,74.495625 142.460625,66.43125 C142.460625,53.505 131.94375,43.02375 118.9725,43.02375 C106.00125,43.02375 95.484375,53.505 95.484375,66.433125 C95.484375,74.495625 99.5775,81.6075 105.804375,85.820625 C106.479375,86.274375 106.711875,87.166875 106.30125,87.864375 L89.896875,115.59 Z" id="Path" fill="#FF2A44" fill-rule="nonzero"></path>
        </g>
    </g>
</svg>