<?xml version="1.0" encoding="UTF-8"?>
<svg width="240px" height="240px" viewBox="0 0 240 240" version="1.1" xmlns="http://www.w3.org/2000/svg" xmlns:xlink="http://www.w3.org/1999/xlink">
    <title>opentelemetry</title>
    <g id="Page-1" stroke="none" stroke-width="1" fill="none" fill-rule="evenodd">
        <g id="opentelemetry">
            <rect id="ViewBox" x="0" y="0" width="240" height="240"></rect>
            <path d="M126.84,130.869375 C117.00375,140.713125 117.00375,156.665625 126.84,166.509375 C136.68375,176.345625 152.63625,176.345625 162.4725,166.509375 C172.31625,156.665625 172.31625,140.713125 162.4725,130.869375 C152.63625,121.033125 136.68375,121.033125 126.84,130.869375 M153.478125,157.53 C151.139364,159.871489 147.965686,161.187153 144.65625,161.187153 C141.346814,161.187153 138.173136,159.871489 135.834375,157.53 C133.494608,155.191467 132.180037,152.018995 132.180037,148.710938 C132.180037,145.40288 133.494608,142.230408 135.834375,139.891875 C138.173136,137.550386 141.346814,136.234722 144.65625,136.234722 C147.965686,136.234722 151.139364,137.550386 153.478125,139.891875 C158.349375,144.740625 158.349375,152.65875 153.478125,157.53 M162.05625,6.885 L146.615625,22.32375 C143.589947,25.3723243 143.589947,30.2908007 146.615625,33.339375 L206.895,93.61875 C209.943574,96.6444283 214.862051,96.6444283 217.910625,93.61875 L233.349375,78.178125 C236.368125,75.159375 236.368125,70.18875 233.349375,67.171875 L173.04375,6.883125 C170.002687,3.86583284 165.097313,3.86583284 162.05625,6.883125 L162.05625,6.885 Z M53.88375,204.178125 C56.6245679,201.425257 56.6245679,196.974743 53.88375,194.221875 L46.040625,186.37125 C43.2841395,183.633882 38.8352355,183.633882 36.07875,186.37125 L19.87125,202.588125 L19.84125,202.610625 L15.395625,198.1575 C12.93375,195.695625 8.926875,195.695625 6.489375,198.1575 C4.0275,200.6175 4.0275,204.624375 6.489375,207.06375 L33.200625,233.7675 C34.3799571,234.948895 35.9807133,235.61277 37.65,235.61277 C39.3192867,235.61277 40.9200429,234.948895 42.099375,233.7675 C44.536875,231.305625 44.56125,227.29875 42.099375,224.86875 L37.64625,220.415625 L37.67625,220.393125 L53.88375,204.178125 Z" id="Shape" fill="#F5A800" fill-rule="nonzero"></path>
            <path d="M135.556875,51.211875 L101.2575,85.509375 C98.210625,88.55625 98.210625,93.57375 101.2575,96.620625 L122.4375,117.795 C137.4075,107.02125 158.4,108.354375 171.868125,121.831875 L189.020625,104.6775 C192.061875,101.630625 192.061875,96.620625 189.020625,93.57375 L146.6625,51.211875 C145.190658,49.7382828 143.193362,48.9102801 141.110625,48.9102801 C139.027888,48.9102801 137.030592,49.7382828 135.55875,51.211875 L135.556875,51.211875 Z M113.53125,126.721875 L101.02125,114.211875 C98.090625,111.283125 93.286875,111.283125 90.36375,114.211875 L46.245,158.349375 C43.3155707,161.300159 43.3155707,166.061716 46.245,169.0125 L71.240625,194.01 C74.1916286,196.94067 78.9546214,196.94067 81.905625,194.01 L110.278125,165.590625 C104.28,153.19875 105.35625,138.22875 113.53125,126.721875" id="Shape" fill="#425CC7" fill-rule="nonzero"></path>
        </g>
    </g>
</svg>