<?xml version="1.0" encoding="UTF-8"?>
<svg width="240px" height="240px" viewBox="0 0 240 240" version="1.1" xmlns="http://www.w3.org/2000/svg" xmlns:xlink="http://www.w3.org/1999/xlink">
    <title>opengauss</title>
    <g id="Page-1" stroke="none" stroke-width="1" fill="none" fill-rule="evenodd">
        <g id="opengauss" transform="translate(0, -1)" fill-rule="nonzero">
            <rect id="box" opacity="0" x="0" y="1" width="240" height="240"></rect>
            <path d="M6,150.377593 C6.14416342,152.770931 7.59134241,154.893429 9.77042802,155.904932 L99.2071984,208.359371 C112.2763,215.049607 127.779147,215.049607 140.848249,208.359371 L230.118677,156.070752 C232.307266,155.068802 233.758937,152.940694 233.889105,150.543414 L234,178.180104 C233.845945,180.569278 232.401816,182.686328 230.229572,183.707442 L140.848249,235.940788 C127.792633,242.686404 112.262814,242.686404 99.2071984,235.940788 L9.77042802,183.541622 C7.59818381,182.520508 6.15405538,180.403458 6,178.014284 L6,150.377593 Z M6,107.556017 C6.15525292,109.943465 7.59688716,112.060114 9.77042802,113.082517 L99.2071984,165.6948 C112.262814,172.439393 127.792633,172.439393 140.848249,165.6948 L230.118677,113.303577 C232.290921,112.282618 233.73505,110.165888 233.889105,107.777077 L234,135.354313 C233.845945,137.743125 232.401816,139.859854 230.229572,140.880813 L140.848249,193.161506 C127.779147,199.850729 112.2763,199.850729 99.2071984,193.161506 L9.77042802,140.715018 C7.59818381,139.694059 6.15405538,137.57733 6,135.188518 L6,107.556017 Z M121,1.00883223 L121,28.5146317 C113.731141,28.3661922 106.547779,30.0910522 100.151751,33.5206873 L25.020428,77.5299665 L100.151751,121.539246 C113.220853,128.197796 128.7237,128.197796 141.792802,121.539246 L231.229572,68.8381338 C233.401816,67.8218559 234.845945,65.7148321 235,63.3369739 L235,90.8427734 C234.845945,93.2206316 233.401816,95.3276554 231.229572,96.3439333 L141.792802,148.329894 C128.737186,155.043562 113.207367,155.043562 100.151751,148.329894 L10.770428,96.1788986 C8.59818381,95.1626206 7.15405538,93.0555968 7,90.6777386 L7,62.9518927 L7.05544747,62.9518927 C7.46745501,60.8662394 8.84322502,59.093835 10.770428,58.1658836 L100.151751,6.01488774 C106.547779,2.58525264 113.731141,0.860392671 121,1.00883223 Z M234.667526,91.2960556 L162.631443,52.2755087 L123.842784,74.3521972 C123.842784,74.3521972 110.599227,81.7478878 109.768041,93.6141079 C108.023042,92.4867364 106.698945,90.8188104 106,88.8676199 L106,61.1613758 C106.11773,58.7634992 107.572432,56.6327487 109.768041,55.6422037 L162.963918,24.9004149 L235,63.5346198" id="Shape" fill="#FFFFFF"></path>
        </g>
    </g>
</svg>