<?xml version="1.0" encoding="UTF-8"?>
<svg width="400px" height="400px" viewBox="0 0 400 400" version="1.1" xmlns="http://www.w3.org/2000/svg" xmlns:xlink="http://www.w3.org/1999/xlink">
    <title>Group 7</title>
    <defs>
        <polygon id="path-1" points="0 0 360 0 360 358.997214 0 358.997214"></polygon>
        <polygon id="path-3" points="0 0 60.3351955 0 60.3351955 60.1671309 0 60.1671309"></polygon>
    </defs>
    <g id="Page-1" stroke="none" stroke-width="1" fill="none" fill-rule="evenodd">
        <g id="Group-7">
            <rect id="Rectangle" x="0" y="0" width="400" height="400"></rect>
            <g id="Group" transform="translate(20, 20)">
                <g id="Group-3" transform="translate(0, 1.0028)">
                    <mask id="mask-2" fill="white">
                        <use xlink:href="#path-1"></use>
                    </mask>
                    <g id="Clip-2"></g>
                    <path d="M29.9983642,0 L296.461894,0 C289.337571,7.94483628 285.007553,18.4228088 285.007553,29.9140357 C285.007553,54.7042278 305.145024,74.7966036 330.0051,74.7966036 C341.528721,74.7966036 352.047778,70.4672435 360.003464,63.3629479 L360.003464,329.077422 C360.003464,345.600378 346.574635,359.002972 330.0051,359.002972 L240.714357,359.002972 L164.991003,358.991457 L165.348951,358.784201 C239.490405,312.681122 254.431854,246.796552 244.213011,218.955082 C230.888103,182.63912 257.53792,126.691353 257.53792,126.691353 C257.53792,126.691353 300.895833,111.319822 300.099109,104.986981 C299.729614,102.073875 258.276909,102.902901 258.276909,102.902901 C157.993694,31.5145172 118.781052,140.047889 109.532134,178.873959 C86.1962236,181.384067 23.6707647,270.700146 23.6707647,270.700146 C16.3039608,274.499851 8.30208771,281.926545 0.357948149,291.299149 C0.242481004,291.43732 0.115467145,291.587006 0,291.725177 L0,29.9140357 C0,13.3910791 13.4288289,0 29.9983642,0" id="Fill-1" fill="#38D47F" mask="url(#mask-2)"></path>
                </g>
                <g id="Group-6" transform="translate(299.6648, 0)">
                    <mask id="mask-4" fill="white">
                        <use xlink:href="#path-3"></use>
                    </mask>
                    <g id="Clip-5"></g>
                    <path d="M30.1681784,0 C13.5048466,0 0,13.4643782 0,30.0777768 C0,46.6911755 13.5048466,60.1671309 30.1681784,60.1671309 C46.8315101,60.1671309 60.3363567,46.6911755 60.3363567,30.0777768 C60.3363567,13.4643782 46.8315101,0 30.1681784,0" id="Fill-4" fill="#FF2F2F" mask="url(#mask-4)"></path>
                </g>
            </g>
        </g>
    </g>
</svg>