<?xml version="1.0" encoding="UTF-8"?>
<svg width="240px" height="240px" viewBox="0 0 240 240" version="1.1" xmlns="http://www.w3.org/2000/svg" xmlns:xlink="http://www.w3.org/1999/xlink">
    <title>opensuse</title>
    <g id="Page-1" stroke="none" stroke-width="1" fill="none" fill-rule="evenodd">
        <g id="opensuse">
            <rect id="ViewBox" x="0" y="0" width="240" height="240"></rect>
            <path d="M110.206875,61.078125 C92.161875,61.1625 69.050625,64.066875 40.723125,81.3075 L39.609375,81.9975 C21.838125,92.97375 9.575625,106.498125 3.159375,122.22375 C1.149375,127.1625 -1.55625,138.33 1.123125,148.83 C2.28,153.421875 4.43625,158.038125 7.33875,162.166875 C13.89375,171.500625 24.91125,177.691875 36.765,178.738125 C53.506875,180.219375 66.17625,172.775625 70.68375,158.83875 C73.779375,149.221875 70.68375,135.1125 58.80375,127.914375 C49.134375,122.056875 38.745,123.39 32.713125,127.333125 C27.489375,130.768125 24.526875,136.1025 24.575625,141.965625 C24.691875,152.35875 33.736875,157.880625 40.243125,157.8975 C42.133125,157.8975 44.02875,157.575 46.168125,156.883125 C46.933125,156.650625 47.649375,156.365625 48.436875,155.885625 L48.680625,155.743125 L48.7875,155.668125 C50.2560654,154.697496 51.1452766,153.059661 51.159375,151.299375 C51.1576941,150.810157 51.0876414,150.323574 50.95125,149.85375 C50.18625,147.223125 47.555625,145.635 44.835,146.12625 L44.469375,146.20875 L43.970625,146.35875 L43.246875,146.608125 C42.3115631,146.837333 41.3554259,146.971142 40.393125,147.0075 C39.628125,146.956875 35.893125,145.8525 35.893125,141.79125 L35.893125,141.740625 C35.893125,140.244375 36.489375,139.201875 36.823125,138.628125 C37.985625,136.820625 41.176875,135.054375 45.485625,135.418125 C51.133125,135.901875 55.209375,138.774375 57.915,144.1875 C60.42,149.221875 59.761875,155.41125 56.225625,159.945 C52.70625,164.439375 46.449375,166.351875 38.131875,165.46125 C29.73375,164.544375 22.63875,159.76125 18.669375,152.323125 C14.776875,145.044375 14.56875,136.415625 18.121875,129.795 C26.615625,113.911875 42.65625,114.076875 51.459375,115.5825 C64.4775,117.82125 79.288125,129.7125 84.545625,143.439375 C85.393125,145.625625 85.82625,147.365625 86.20125,148.95375 L86.7675,151.325625 L101.476875,158.431875 C101.791875,158.5875 101.9025,158.638125 102.02625,158.54625 C102.18375,158.43 102.091875,158.1225 102.091875,158.1225 C102,157.798125 101.784375,157.498125 101.450625,153.421875 C101.169375,149.803125 100.60125,139.903125 105.635625,135.001875 C107.59125,133.081875 110.570625,131.36625 112.92375,130.82625 C122.5575,128.488125 133.86375,130.1025 144.555,142.348125 C150.08625,148.6725 152.784375,151.558125 154.14,152.848125 C154.14,152.848125 154.4475,153.13875 154.614375,153.271875 C154.78875,153.421875 154.905,153.54 155.17125,153.688125 C155.611875,153.931875 173.55,162.106875 173.55,162.106875 C173.55,162.106875 173.758125,162.20625 173.915625,162.016875 C174.073125,161.8275 173.923125,161.634375 173.923125,161.634375 C173.806875,161.499375 162.560625,147.10875 164.555625,135.253125 C166.13625,125.81625 173.724375,126.665625 184.224375,127.839375 C187.65,128.236875 191.551875,128.679375 195.586875,128.77125 C206.86875,128.84625 219.01875,126.78375 226.505625,123.538125 C231.346875,121.45875 234.433125,120.069375 236.371875,118.321875 C237.069375,117.7575 237.4275,116.821875 237.8025,115.82625 L238.06875,115.168125 C238.38375,114.361875 238.84125,112.651875 239.04375,111.71625 C239.124375,111.305625 239.225625,110.9025 238.875,110.641875 C238.5675,110.401875 237.84375,110.833125 237.84375,110.833125 C234.556875,112.78875 226.336875,116.4975 218.65125,116.656875 C209.115,116.848125 189.781875,107.09625 187.785,106.066875 L183.740625,96.598125 C197.56875,105.616875 209.041875,110.600625 217.81875,111.373125 C227.595,112.231875 235.215,106.955625 238.51875,104.76 C238.95,104.4675 239.38125,104.154375 239.7825,103.845 C239.8575,103.79625 240.024375,103.644375 239.998125,103.51125 C239.44875,100.1175 234.350625,83.668125 230.480625,79.7175 C229.415625,78.635625 228.568125,77.58 226.845,76.573125 C212.86875,68.510625 179.7075,63.645 178.15875,63.429375 C178.15875,63.429375 178.00125,63.39375 177.8925,63.495 C177.80625,63.5775 177.79125,63.735 177.79125,63.735 L177.64125,71.29875 C174.256875,70.17 149.63625,62.296875 126.568125,61.505625 C121.674375,61.336875 116.221875,61.048125 110.20875,61.078125 L110.206875,61.078125 Z M215.229375,77.32125 C223.0425,77.596875 229.183125,84.1275 228.916875,91.85625 C228.786356,95.5848933 227.167676,99.1058771 224.4225,101.6325 C221.663333,104.196943 217.995876,105.55596 214.231875,105.40875 C206.428125,105.1275 200.295,98.6025 200.55375,90.86625 C200.683877,87.135745 202.301678,83.6125049 205.04625,81.0825 C207.811422,78.5343104 211.471696,77.1823481 215.229375,77.32125 M215.105625,81.4575 C212.488413,81.35094 209.937002,82.2938819 208.018125,84.076875 C206.099087,85.8335607 204.970099,88.2902931 204.886875,90.890625 C204.705,96.3 208.98375,100.84875 214.430625,101.049375 C217.054233,101.139346 219.60755,100.191452 221.536875,98.41125 C223.451751,96.6526376 224.576568,94.1961569 224.656875,91.5975 C224.848125,86.19 220.569375,81.64875 215.105625,81.4575 M216.7275,86.37375 C219.155625,86.37375 221.120625,87.661875 221.120625,89.27625 C221.120625,90.86625 219.15,92.173125 216.7275,92.173125 C214.299375,92.173125 212.334375,90.86625 212.334375,89.27625 C212.334375,87.66375 214.299375,86.37375 216.7275,86.37375 M179.02125,155.917472 C178.198981,155.914004 177.409272,156.238588 176.827131,156.819321 C176.24499,157.400054 175.918495,158.188975 175.92,159.01125 C175.913471,159.837093 176.238007,160.631142 176.821103,161.216 C177.4042,161.800858 178.197266,162.127787 179.023125,162.123787 C180.736934,162.125821 182.127929,160.738184 182.130002,159.024375 C182.132071,157.310566 180.744434,155.919571 179.030625,155.917472 L179.02125,155.917472 Z M179.02125,156.40125 L179.030625,156.40125 C180.418125,156.40125 181.53375,157.573125 181.53375,159.03 C181.53375,160.486875 180.418125,161.65875 179.030625,161.641875 C177.643125,161.641875 176.518125,160.486875 176.518125,159.013125 C176.518125,157.5675 177.643125,156.40125 179.02125,156.40125 M178.86375,157.2825 C178.449375,157.2825 178.171875,157.32375 177.87375,157.365 L177.87375,160.81875 L178.4325,160.81875 L178.4325,159.33 L178.8225,159.33 C179.2725,159.33 179.49,159.495 179.58,159.935625 C179.6475,160.393125 179.73,160.711875 179.8125,160.816875 L180.39375,160.816875 C180.335625,160.71 180.2625,160.501875 180.170625,159.961875 C180.105,159.451875 179.895,159.18 179.589375,159.121875 L179.589375,159.095625 C179.964375,158.98875 180.27,158.701875 180.27,158.255625 C180.27,157.92375 180.155625,157.689375 179.945625,157.54125 C179.735625,157.393125 179.39625,157.2825 178.86375,157.2825 M178.839375,157.70625 C179.46375,157.70625 179.68875,158.00625 179.68875,158.31375 C179.68875,158.739375 179.296875,158.904375 178.839375,158.904375 L178.4325,158.904375 L178.4325,157.7325 C178.531875,157.71375 178.6575,157.70625 178.839375,157.70625" id="Shape" fill="#73BA25" fill-rule="nonzero"></path>
        </g>
    </g>
</svg>