<?xml version="1.0" encoding="UTF-8"?>
<svg width="240px" height="240px" viewBox="0 0 240 240" version="1.1" xmlns="http://www.w3.org/2000/svg" xmlns:xlink="http://www.w3.org/1999/xlink">
    <title>opensearch</title>
    <g id="Page-1" stroke="none" stroke-width="1" fill="none" fill-rule="evenodd">
        <g id="opensearch" transform="translate(-0.005, -0.0035)">
            <circle id="Oval" cx="120.004959" cy="120.003547" r="120"></circle>
            <g id="shape" transform="translate(-0, 0)" fill-rule="nonzero">
                <path d="M228.624959,87.0035472 C223.996811,87.0035472 220.244959,90.7553991 220.244959,95.3835472 C220.244959,164.342066 164.343478,220.243547 95.3849591,220.243547 C90.756811,220.243547 87.0049591,223.995399 87.0049591,228.623547 C87.0049591,233.251695 90.756811,237.003547 95.3849591,237.003547 C173.599404,237.003547 237.004959,173.597992 237.004959,95.3835472 C237.004959,90.7553991 233.253107,87.0035472 228.624959,87.0035472 Z" id="Path" fill="#005EB8"></path>
                <path d="M229.08113,85.0035472 C235.114196,85.0035472 240.004959,89.8943101 240.004959,95.9273761 C240.004959,175.498326 175.499738,240.003547 95.9287881,240.003547 C89.895722,240.003547 85.0049591,235.112784 85.0049591,229.079718 C85.0049591,223.046652 89.895722,218.155889 95.9287881,218.155889 C163.433976,218.155889 218.157301,163.432564 218.157301,95.9273761 C218.157301,89.8943101 223.048064,85.0035472 229.08113,85.0035472 Z M229.08113,90.1022314 C225.86399,90.1022314 223.255985,92.7102356 223.255985,95.9273761 C223.255985,166.24849 166.249902,223.254574 95.9287881,223.254574 C92.7116475,223.254574 90.1036433,225.862578 90.1036433,229.079718 C90.1036433,232.296859 92.7116475,234.904863 95.9287881,234.904863 C172.683813,234.904863 234.906275,172.682401 234.906275,95.9273761 C234.906275,92.7102356 232.298271,90.1022314 229.08113,90.1022314 Z" id="Path" fill="#FFFFFF"></path>
                <path d="M177.598375,144.003547 C185.597636,130.833035 193.33403,113.272228 191.811972,88.6873949 C188.659032,37.761166 142.956845,-0.87257226 99.8013486,3.31423699 C82.9068705,4.9533248 65.5594513,18.8519538 67.1006271,43.7469867 C67.7704798,54.5653967 73.0168011,60.95047 81.5432681,65.8594961 C89.6587059,70.5321616 100.085172,73.4920483 111.90502,76.847106 C126.18222,80.9001137 142.74361,85.4525582 155.472281,94.9195945 C170.727422,106.266012 181.156094,119.418714 177.598375,144.003547 Z" id="Path" fill="#003B5C"></path>
                <path d="M99.0762578,0.334276677 C144.926324,-4.12901617 190.642571,37.1767247 193.797147,88.3019495 C195.144535,110.139147 189.899748,127.611527 179.232399,145.234438 L172.713735,156.003547 L174.510944,143.542269 C177.533096,122.587622 170.85595,109.779338 153.409684,96.7592659 C146.511085,91.6110091 138.097418,87.6478372 127.219432,84.0107965 C126.169648,83.6598027 125.209157,83.3446027 124.241028,83.035573 L123.755879,82.8814353 C120.673549,81.9067489 117.352629,80.9444282 110.715114,79.0537908 C93.4816511,74.1455143 86.8719802,71.8776883 79.804675,67.79473 C69.8876625,62.0657747 64.7859585,54.6566175 64.1018016,43.5697662 C62.6175152,19.5124833 78.3739971,2.34959459 99.0762578,0.334276677 Z M188.689021,88.6175072 C185.709054,40.3221175 142.470588,1.25511122 99.5718272,5.43110801 C81.5332245,7.18712488 67.900827,22.0363357 69.2099271,43.2542023 C69.782039,52.5253496 73.8596889,58.4472825 82.3636463,63.3599306 C88.9243252,67.1501983 95.3232614,69.3457196 112.116283,74.1285536 C121.279448,76.7386 124.191263,77.5991105 128.841406,79.1538797 C140.191197,82.9486678 149.064944,87.1285556 156.469467,92.6543717 C171.727008,104.041008 179.604646,115.754757 180.284059,132.021038 L180.302504,132.541637 L180.589199,131.937595 C186.72054,118.875622 189.592751,105.428698 188.739272,89.4894075 L188.689021,88.6175072 Z" id="Path" fill="#FFFFFF"></path>
                <path d="M16.4116043,53.0035472 C8.41216085,66.1740521 0.675893725,83.7348491 2.19794827,108.319668 C5.35080986,159.245868 51.0530895,197.879473 94.2085767,193.692888 C111.103051,192.053579 128.450467,178.155069 126.909291,153.26005 C126.239439,142.441647 120.992751,136.056577 112.466653,131.147554 C104.351217,126.474891 93.9247533,123.515006 82.1049079,120.15995 C67.8277112,116.106945 51.2663247,111.554503 38.5378402,102.087472 C23.2824087,90.7410605 12.8539227,77.5883661 16.4116043,53.0035472 Z" id="Path" fill="#005EB8"></path>
                <path d="M21.2961716,40.0035472 L19.499034,52.4644826 C16.4768956,73.4192898 23.1540555,86.2276389 40.6004498,99.2475821 C47.4990475,104.395923 55.9127976,108.359137 66.7910112,111.996232 C67.665803,112.288716 68.4785867,112.556343 69.2854556,112.816258 L69.7693159,112.971418 L70.2544491,113.12555 C73.3366742,114.100201 76.6574819,115.06249 83.2948126,116.953078 C100.528272,121.861364 107.137942,124.129194 114.205287,128.212183 C124.122162,133.941317 129.223973,141.350507 129.908117,152.437168 C131.392399,176.494438 115.636025,193.657243 94.9336538,195.672849 C49.0835135,200.135921 3.36726376,158.830133 0.212771079,107.704904 C-1.13462226,85.8675223 4.11022137,68.3948669 14.7775917,50.7722905 L21.2961716,40.0035472 Z M13.7063888,63.4641196 L13.4207582,64.0690363 C7.17792516,77.3683991 4.31379578,91.0671229 5.32089728,107.38935 C8.30078518,155.684739 51.5392608,194.751795 94.4380643,190.576008 C112.476774,188.819739 126.109088,173.970589 124.799991,152.752733 C124.227893,143.481786 120.150121,137.559775 111.646275,132.64697 C105.085598,128.856695 98.6866626,126.66117 81.8936446,121.878327 C75.0214628,119.920843 71.6655891,118.947455 68.4554483,117.927211 L67.7156994,117.690469 C66.8932213,117.425455 66.0632782,117.152147 65.1690491,116.853164 C53.8190168,113.058318 44.9451761,108.878383 37.5406717,103.35249 C22.2830328,91.9659773 14.4053601,80.2521919 13.7259292,63.9858043 L13.7063888,63.4641196 Z" id="Path" fill="#FFFFFF"></path>
            </g>
        </g>
    </g>
</svg>