<?xml version="1.0" encoding="UTF-8"?>
<!DOCTYPE svg PUBLIC "-//W3C//DTD SVG 1.1//EN" "http://www.w3.org/Graphics/SVG/1.1/DTD/svg11.dtd">
<svg xmlns="http://www.w3.org/2000/svg" version="1.1" width="542px" height="362px" style="shape-rendering:geometricPrecision; text-rendering:geometricPrecision; image-rendering:optimizeQuality; fill-rule:evenodd; clip-rule:evenodd" xmlns:xlink="http://www.w3.org/1999/xlink">
<g><path style="opacity:0.949" fill="#000000" d="M 265.5,-0.5 C 268.167,-0.5 270.833,-0.5 273.5,-0.5C 275.475,0.646381 276.975,2.31305 278,4.5C 277.339,23.6665 277.506,42.8331 278.5,62C 280.87,74.3001 276.203,78.9668 264.5,76C 261.111,73.381 259.611,69.881 260,65.5C 259.659,55.8242 259.159,46.1575 258.5,36.5C 259.151,27.1756 259.651,17.8422 260,8.5C 260.339,4.47037 262.173,1.47037 265.5,-0.5 Z"/></g>
<g><path style="opacity:0.931" fill="#000000" d="M 213.5,21.5 C 216.271,21.4207 218.937,21.9207 221.5,23C 234.54,37.5747 243.54,54.4081 248.5,73.5C 246.866,81.1558 242.199,83.9891 234.5,82C 233.069,81.5348 231.903,80.7014 231,79.5C 226.473,63.1094 218.806,48.4427 208,35.5C 205.821,29.1978 207.654,24.5312 213.5,21.5 Z"/></g>
<g><path style="opacity:0.933" fill="#000000" d="M 322.5,29.5 C 332.878,29.031 336.712,33.6976 334,43.5C 322.437,54.4731 312.937,66.9731 305.5,81C 297.5,84.3337 292.5,81.8337 290.5,73.5C 296.958,55.7182 307.624,41.0516 322.5,29.5 Z"/></g>
<g><path style="opacity:0.979" fill="#020200" d="M 541.5,132.5 C 541.5,145.167 541.5,157.833 541.5,170.5C 537.238,192.623 536.738,214.957 540,237.5C 543.796,268.648 536.796,296.981 519,322.5C 499.37,343.229 475.204,354.729 446.5,357C 419.745,361.109 393.745,358.442 368.5,349C 346,338.5 329.5,322 319,299.5C 311.824,282.146 305.491,264.48 300,246.5C 294.425,235.01 288.091,224.01 281,213.5C 276.007,190.662 285.174,178.662 308.5,177.5C 321.603,177.034 332.103,182.034 340,192.5C 343,196.5 346,200.5 349,204.5C 349.214,165.334 344.38,126.834 334.5,89C 337.461,66.7246 350.127,57.3913 372.5,61C 375.698,61.8485 378.531,63.3485 381,65.5C 379.679,37.8272 392.512,27.3272 419.5,34C 429,38.1667 435.833,45 440,54.5C 449.977,43.7744 461.477,41.9411 474.5,49C 481.161,54.1622 485.995,60.6622 489,68.5C 493.076,78.5612 496.243,88.8945 498.5,99.5C 514.72,93.849 527.22,98.5157 536,113.5C 538.541,119.756 540.374,126.09 541.5,132.5 Z"/></g>
<g><path style="opacity:0.979" fill="#020201" d="M 134.5,361.5 C 126.833,361.5 119.167,361.5 111.5,361.5C 89.0701,360.725 67.7368,355.225 47.5,345C 22.3041,329.14 7.80408,306.306 4,276.5C 2.13097,256.992 2.29764,237.492 4.5,218C 3.59435,201.944 1.92768,186.11 -0.5,170.5C -0.5,158.5 -0.5,146.5 -0.5,134.5C 1.07099,127.295 3.57099,120.295 7,113.5C 15.9985,101.586 27.4985,98.2529 41.5,103.5C 44.1037,89.5223 48.6037,76.1889 55,63.5C 65.7457,47.2351 79.579,44.0684 96.5,54C 97.7014,54.9025 98.5348,56.0692 99,57.5C 110.132,35.679 126.965,29.5124 149.5,39C 154.285,43.0689 157.119,48.2356 158,54.5C 158.333,58.5 158.667,62.5 159,66.5C 170.035,60.1187 181.202,59.9521 192.5,66C 200.624,72.0827 204.624,80.2494 204.5,90.5C 200.498,110.681 197.332,131.014 195,151.5C 193.247,169.801 192.581,188.134 193,206.5C 199.637,193.862 209.47,184.695 222.5,179C 236.851,175.198 249.017,178.698 259,189.5C 263.849,199.966 263.515,210.3 258,220.5C 252.915,226.997 248.582,233.997 245,241.5C 238.797,262.11 231.797,282.444 224,302.5C 209.126,333.691 184.626,352.524 150.5,359C 145.012,359.774 139.679,360.607 134.5,361.5 Z"/></g>
<g><path style="opacity:1" fill="#fbde63" d="M 402.5,47.5 C 409.854,46.7834 416.02,49.1168 421,54.5C 426.276,61.7219 429.943,69.7219 432,78.5C 435.92,94.9397 438.253,111.606 439,128.5C 439.5,147.164 439.667,165.83 439.5,184.5C 430.827,183.872 422.161,183.206 413.5,182.5C 412.733,156.44 409.233,130.773 403,105.5C 402.255,92.0438 400.588,78.7105 398,65.5C 397.333,60.8333 397.333,56.1667 398,51.5C 399.397,49.9297 400.897,48.5964 402.5,47.5 Z"/></g>
<g><path style="opacity:1" fill="#fadd63" d="M 129.5,49.5 C 138.114,48.6182 142.447,52.4516 142.5,61C 139.633,88.2971 135.8,115.464 131,142.5C 129.336,156.798 128.17,171.131 127.5,185.5C 118.807,185.912 110.141,186.579 101.5,187.5C 101.333,166.831 101.5,146.164 102,125.5C 102.582,106.757 105.582,88.4237 111,70.5C 113.972,60.4726 120.139,53.4726 129.5,49.5 Z"/></g>
<g><path style="opacity:1" fill="#fbde63" d="M 457.5,187.5 C 456.853,175.735 456.186,164.068 455.5,152.5C 455.091,123.433 453.925,94.4328 452,65.5C 459.34,58.2206 465.673,59.2206 471,68.5C 478.372,82.9529 482.706,98.2862 484,114.5C 485.557,140.424 483.724,166.091 478.5,191.5C 471.469,190.16 464.469,188.827 457.5,187.5 Z"/></g>
<g><path style="opacity:1" fill="#fbde64" d="M 76.5,63.5 C 84.9815,63.9411 88.9815,68.4411 88.5,77C 87.4792,85.4798 86.6458,93.9798 86,102.5C 85.5,131.831 85.3334,161.165 85.5,190.5C 78.4167,191.784 71.4167,193.45 64.5,195.5C 62.8741,192.002 61.7074,188.335 61,184.5C 55.9294,156.27 55.2627,127.937 59,99.5C 61.2379,88.4479 65.2379,78.1146 71,68.5C 72.7297,66.5981 74.563,64.9314 76.5,63.5 Z"/></g>
<g><path style="opacity:1" fill="#fcdf64" d="M 360.5,75.5 C 365.814,74.9904 370.48,76.4904 374.5,80C 378.905,85.9739 382.405,92.4739 385,99.5C 392.71,126.635 397.21,154.302 398.5,182.5C 395.15,182.335 391.817,182.502 388.5,183C 382.241,187.167 381.908,191.833 387.5,197C 416.147,197.117 444.48,200.117 472.5,206C 481.231,208.799 489.897,211.799 498.5,215C 507.333,216.833 510.833,213.333 509,204.5C 504.842,200.837 500.009,198.337 494.5,197C 493.941,196.275 493.608,195.442 493.5,194.5C 498.786,171.499 501.286,148.166 501,124.5C 502.666,112.582 508.499,109.748 518.5,116C 522.238,121.21 524.405,127.044 525,133.5C 525.167,139.333 525.333,145.167 525.5,151C 524.332,170.842 522.999,190.675 521.5,210.5C 537.754,305.744 497.754,349.577 401.5,342C 368.345,337.02 345.179,319.186 332,288.5C 325.939,272.317 320.272,255.983 315,239.5C 310.338,229.501 304.671,220.167 298,211.5C 292.967,197.851 297.8,191.684 312.5,193C 315.376,193.438 318.043,194.438 320.5,196C 329.334,204.844 336.834,214.678 343,225.5C 346.646,238.968 353.479,250.468 363.5,260C 370.391,264.973 378.058,266.973 386.5,266C 393.423,262.077 394.09,257.41 388.5,252C 378.596,252.132 371.096,247.965 366,239.5C 368.057,188.57 363.223,138.403 351.5,89C 351.545,82.4669 354.545,77.9669 360.5,75.5 Z"/></g>
<g><path style="opacity:1" fill="#fcdf64" d="M 171.5,77.5 C 181.377,75.9132 187.043,79.9132 188.5,89.5C 177.216,139.248 173.382,189.581 177,240.5C 172.103,249.204 164.603,253.704 154.5,254C 149.066,258.974 149.399,263.641 155.5,268C 170.731,268.801 182.231,262.634 190,249.5C 195.582,233.667 203.249,219 213,205.5C 216.912,200.917 221.412,197.083 226.5,194C 234.181,191.999 240.681,193.833 246,199.5C 246.877,204.544 245.877,209.211 243,213.5C 236.976,221.545 231.976,230.212 228,239.5C 221.972,262.254 213.972,284.254 204,305.5C 187.675,329.59 164.842,342.757 135.5,345C 44.8911,350.38 6.55776,308.047 20.5,218C 20.0898,201.399 18.5898,184.899 16,168.5C 15.1025,155.785 15.4359,143.118 17,130.5C 18.2797,122.89 22.613,118.224 30,116.5C 35.2697,117.659 38.2697,120.992 39,126.5C 39.7646,150.979 42.9313,175.145 48.5,199C 43.1445,201.766 37.9778,204.932 33,208.5C 31.1667,217.333 34.6667,220.833 43.5,219C 78.3851,204.871 114.718,198.538 152.5,200C 159.95,195.43 160.284,190.43 153.5,185C 150.183,184.502 146.85,184.335 143.5,184.5C 144.248,158.852 147.415,133.519 153,108.5C 155.241,100.021 158.574,92.021 163,84.5C 165.441,81.5464 168.275,79.2131 171.5,77.5 Z"/></g>
<g><path style="opacity:1" fill="#ab9744" d="M 455.5,152.5 C 456.186,164.068 456.853,175.735 457.5,187.5C 455.522,176.215 454.855,164.548 455.5,152.5 Z"/></g>
</svg>
