<?xml version="1.0" encoding="UTF-8"?>
<svg width="240px" height="240px" viewBox="0 0 240 240" version="1.1" xmlns="http://www.w3.org/2000/svg" xmlns:xlink="http://www.w3.org/1999/xlink">
    <title>openstack</title>
    <g id="Page-1" stroke="none" stroke-width="1" fill="none" fill-rule="evenodd">
        <g id="openstack" transform="translate(-1, -2)">
            <rect id="ViewBox" x="1" y="2" width="240" height="240"></rect>
            <path d="M187,94.936158 L241,94.936158 L241,150.085087 L187,150.085087 L187,94.936158 Z M1,94.936158 L55,94.936158 L55,150.085087 L1,150.085087 L1,94.936158 Z M186.746342,174.187325 C186.739219,181.000709 181.345248,186.522228 174.689256,186.529521 L67.2331927,186.529521 C60.5772007,186.522228 55.1832301,181.000709 55.1761063,174.187325 L55.1761063,165.404234 L1,165.404234 L1,219.170073 C1.03192979,231.759935 10.9905499,241.959954 23.2895611,241.999969 L218.594112,241.999969 C230.936575,242.020677 240.96317,231.804354 241,219.170073 L241,165.404234 L186.746342,165.404234 L186.746342,174.187325 Z M218.629273,2 L23.2953174,2 C10.998505,2.03873619 1.03903585,12.2310846 1,24.8166422 L1,78.5957347 L55.1870152,78.5957347 L55.1870152,69.8126395 C55.1870151,62.9970915 60.5847159,57.4716569 67.2438954,57.4704392 L174.717323,57.4704392 C181.377344,57.4704392 186.776357,62.9962305 186.776357,69.8126395 L186.776357,78.5957347 L241,78.5957347 L241,24.8166422 C240.956086,12.2030327 230.953568,2.00113465 218.629273,2" id="Shape" fill="#ED1944" fill-rule="nonzero"></path>
        </g>
    </g>
</svg>