<?xml version="1.0" encoding="UTF-8"?>
<svg width="240px" height="240px" viewBox="0 0 240 240" version="1.1" xmlns="http://www.w3.org/2000/svg" xmlns:xlink="http://www.w3.org/1999/xlink">
    <title>opera</title>
    <defs>
        <linearGradient x1="50.0009376%" y1="1.63051895%" x2="50.0009376%" y2="98.5460027%" id="linearGradient-1">
            <stop stop-color="#FF1B2D" offset="0%"></stop>
            <stop stop-color="#FF1B2D" offset="61.4%"></stop>
            <stop stop-color="#A70014" offset="100%"></stop>
        </linearGradient>
        <linearGradient x1="49.997061%" y1="0.852400583%" x2="49.997061%" y2="99.6057535%" id="linearGradient-2">
            <stop stop-color="#9C0000" offset="0%"></stop>
            <stop stop-color="#FF4B4B" offset="70%"></stop>
        </linearGradient>
    </defs>
    <g id="Page-1" stroke="none" stroke-width="1" fill="none" fill-rule="evenodd">
        <g id="opera">
            <rect id="ViewBox" x="0" y="0" width="240" height="240"></rect>
            <path d="M119.9925,0.015 C53.7225,0.015 0,53.7375 0,120.015 C0,184.365 50.6625,236.8875 114.279375,239.86875 C116.175625,239.95875 118.08,240.005 119.9925,240.007611 C149.504783,240.047687 177.989301,229.171986 199.965,209.473125 C185.9025,218.7975 169.453125,224.165625 151.880625,224.165625 C123.301875,224.165625 97.71,209.986875 80.499375,187.633125 C67.228125,171.973125 58.636875,148.8225 58.05,122.835 L58.05,117.1875 C58.636875,91.201875 67.228125,68.049375 80.499375,52.389375 C97.711875,30.03 123.30375,15.856875 151.875,15.856875 C169.453125,15.856875 185.9025,21.225 199.9725,30.556875 C178.843125,11.660625 150.995625,0.13125 120.44625,0.015 L119.9925,0.015 Z" id="Path" fill="url(#linearGradient-1)" fill-rule="nonzero"></path>
            <path d="M80.50125,52.396875 C91.509375,39.395625 105.733125,31.5525 121.2675,31.5525 C156.204375,31.5525 184.51875,71.161875 184.51875,120.015 C184.51875,168.868125 156.2025,208.4775 121.2675,208.4775 C105.733125,208.4775 91.509375,200.64 80.50125,187.640625 C97.71375,210.001875 123.30375,224.173125 151.8825,224.173125 C169.460625,224.173125 185.904375,218.805 199.966875,209.480625 C224.533125,187.5075 239.994375,155.566875 239.994375,120.015 C239.994375,84.463125 224.533125,52.5375 199.974375,30.564375 C185.911875,21.2325 169.4625,15.864375 151.884375,15.864375 C123.305625,15.864375 97.71375,30.043125 80.503125,52.396875" id="Path" fill="url(#linearGradient-2)" fill-rule="nonzero"></path>
        </g>
    </g>
</svg>