<?xml version="1.0" encoding="UTF-8"?>
<svg width="240px" height="240px" viewBox="0 0 240 240" version="1.1" xmlns="http://www.w3.org/2000/svg" xmlns:xlink="http://www.w3.org/1999/xlink">
    <title>ory</title>
    <g id="Page-1" stroke="none" stroke-width="1" fill="none" fill-rule="evenodd">
        <g id="ory">
            <rect id="ViewBox" x="0" y="0" width="240" height="240"></rect>
            <path d="M120.30375,0.12375 C120.134431,0.125934349 119.967789,0.16631293 119.81625,0.241875 L63.28875,28.205625 C63.109126,28.2874929 62.9966023,28.4696035 63.0027577,28.666875 L63.0027577,52.603125 C62.99625,52.66875 63.031875,52.726875 63.09,52.764375 C63.15,52.801875 63.22125,52.8075 63.28125,52.7775 L119.97,24.6825 C120.153994,24.5871015 120.372881,24.5871015 120.556875,24.6825 L177.084375,52.69125 C177.290625,52.79125 177.393125,52.73 177.391875,52.5075 C177.508125,44.87 177.518125,37.228125 177.421875,29.581875 C177.406875,28.90875 178.014375,28.59375 176.960625,28.074375 C158.181875,18.774375 139.45875,9.496875 120.79125,0.241875 C120.639711,0.16631293 120.473069,0.125934349 120.30375,0.12375 M120.271875,62.754375 C88.65,62.754375 63.024375,88.381875 63.024375,120 C63.024375,151.618125 88.651875,177.245625 120.271875,177.245625 C151.89,177.245625 177.515625,151.618125 177.515625,120 C177.515625,88.381875 151.89,62.754375 120.271875,62.754375 M63.26625,187.228125 C63.215625,187.2 63.1425,187.2075 63.09,187.235625 C63.035211,187.270762 63.0029337,187.331798 63.0029337,187.396875 L63.0029337,211.501875 C62.99625,211.5675 63.04125,211.633125 63.105,211.670625 L120.15375,239.964375 C120.205961,239.994519 120.270289,239.994519 120.3225,239.964375 L177.34125,211.74375 C177.404907,211.711675 177.444871,211.646279 177.444375,211.575 L177.465031,187.434375 C177.466186,187.369298 177.433539,187.308262 177.37875,187.273125 C177.323016,187.238697 177.253354,187.235853 177.195,187.265625 L120.373125,215.398125 C120.320914,215.428269 120.256586,215.428269 120.204375,215.398125 L63.26625,187.228125 Z" id="Shape" fill="#5528FF" fill-rule="nonzero"></path>
        </g>
    </g>
</svg>