<?xml version="1.0" encoding="UTF-8"?>
<svg width="241px" height="240px" viewBox="0 0 241 240" version="1.1" xmlns="http://www.w3.org/2000/svg" xmlns:xlink="http://www.w3.org/1999/xlink">
    <title>osv</title>
    <g id="Page-1" stroke="none" stroke-width="1" fill="none" fill-rule="evenodd">
        <g id="osv" transform="translate(1, 0)">
            <rect id="box" x="0" y="0" width="240" height="240"></rect>
            <g id="shape" transform="translate(7, 51)">
                <circle id="red" fill="#D93025" fill-rule="nonzero" cx="35" cy="67" r="18.0322581"></circle>
                <path d="M35,32 C44.6649831,32 53.4149831,35.9175084 59.7487373,42.2512627 C66.0824916,48.5850169 70,57.3350169 70,67 C70,76.6649831 66.0824916,85.4149831 59.7487373,91.7487373 C53.4149831,98.0824916 44.6649831,102 35,102 C25.3350169,102 16.5850169,98.0824916 10.2512627,91.7487373 C3.9175084,85.4149831 0,76.6649831 0,67 C0,57.3350169 3.9175084,48.5850169 10.2512627,42.2512627 C16.5850169,35.9175084 25.3350169,32 35,32 Z" id="Combined-Shape" stroke="#FFFFFF" stroke-width="16"></path>
                <text id="SV" font-family="Roboto-Regular, Roboto" font-size="118" font-weight="normal" letter-spacing="1.15685812" fill="#FFFFFF">
                    <tspan x="78" y="109">SV</tspan>
                </text>
            </g>
        </g>
    </g>
</svg>