<?xml version="1.0" encoding="UTF-8"?>
<svg width="240px" height="240px" viewBox="0 0 240 240" version="1.1" xmlns="http://www.w3.org/2000/svg" xmlns:xlink="http://www.w3.org/1999/xlink">
    <title>pagespeed-insights</title>
    <g id="Page-1" stroke="none" stroke-width="1" fill="none" fill-rule="evenodd">
        <g id="pagespeed-insights" fill-rule="nonzero">
            <polygon id="Path" fill="#DDEEFF" points="0 50 240 50 240 200 0 200"></polygon>
            <path d="M240,50 L0,50 L0,19.9499377 C0,8.93200334 8.97046875,0 20.049375,0 L219.950625,0 C231.023438,0 240,8.92122212 240,19.9499377 L240,50 Z" id="Path" fill="#BBDDFF"></path>
            <path d="M60.0001278,35 C54.4772997,35 50.0002557,30.522535 50.0002557,24.9997656 C50.0002557,19.4769963 54.4768309,15 60.0001278,15 C65.5234248,15 70,19.4769963 70,24.9997656 C70,30.522535 65.5234248,35 60.0001278,35 Z M24.9998722,35 C19.477044,35 15,30.522535 15,24.9997656 C15,19.4769963 19.477044,15 24.9998722,15 C30.5227003,15 35.0002131,19.4769963 35.0002131,24.9997656 C35.0002131,30.522535 30.5227003,35 24.9998722,35 Z" id="Shape" fill="#FFFFFF"></path>
            <path d="M40.0285227,200 L0,200 C0,169.289435 11.7243376,138.578401 35.1720745,115.147041 C82.0689557,68.2843198 158.103119,68.2843198 205,115.147041 L176.695346,143.43136 C162.207622,128.954514 142.193126,120 120.086037,120 C75.8713903,120 40.0285227,155.817118 40.0285227,200 L40.0285227,200 Z" id="Path" fill="#0066FF"></path>
            <path d="M200.272103,200 L240,200 C240,169.236217 228.363716,138.471964 205.092078,115 L177,143.333333 C191.378451,157.835736 200.272103,177.870042 200.272103,200 Z" id="Path" fill="#CC66FF"></path>
            <path d="M91.6905477,228.309404 C76.1031508,212.722411 76.1031508,187.450378 91.6905477,171.862449 C107.277945,156.275456 194,126 194,126 C194,126 163.724668,212.722411 148.137271,228.309404 C132.549874,243.896865 107.277945,243.896865 91.6905477,228.309404 Z" id="Path" fill="#66CCFF"></path>
            <path d="M120,220 C108.954461,220 100,211.045903 100,200.000234 C100,188.954566 108.954461,180 120,180 C131.045539,180 140,188.954566 140,200.000234 C140,211.045903 131.045539,220 120,220 Z" id="Path" fill="#0066FF"></path>
        </g>
    </g>
</svg>