<?xml version="1.0" encoding="UTF-8"?>
<svg width="240px" height="240px" viewBox="0 0 240 240" version="1.1" xmlns="http://www.w3.org/2000/svg" xmlns:xlink="http://www.w3.org/1999/xlink">
    <title>paperless-ai</title>
    <g id="Page-1" stroke="none" stroke-width="1" fill="none" fill-rule="evenodd">
        <g id="paperless-ai">
            <rect id="box" x="0" y="0" width="240" height="240"></rect>
            <g id="shape" transform="translate(18, 0)">
                <path d="M17.8979654,0 C73.5987083,0 129.299263,0 185,0 C178.717721,10.9960126 170.580978,20.6923543 160.591843,29.0893831 C138.707108,45.0344107 116.176496,60.0482075 93,74.1307735 C76.7779654,85.9605194 63.9480961,100.661466 54.5102103,118.233802 C51.5780389,124.82955 50.0134756,131.710749 49.8163328,138.877772 C47.6102103,139.288775 45.7326593,138.663263 44.1836797,137.001048 C28.4128144,119.467373 19.3380471,98.8234021 16.9591899,75.0691358 C10.9765614,83.2762402 5.96988381,92.0343509 1.93878177,101.34328 C0.68707483,73.1924112 0.68707483,45.0415422 1.93878177,16.8906732 C1.93878177,6.4701571 9.73111877,0 17.8979654,0 Z" id="Path" fill="#3A82FB" opacity="0.972"></path>
                <path d="M196.423748,0 C197.676164,0 198.926703,0 200.179118,0 C210.619047,54.994125 199.664633,104.994 167.319631,150 C141.222813,177.565313 109.615178,195.69 72.4965373,204.375 C65.0933886,216.046875 58.2086687,227.92125 51.8420021,240 C49.3384847,240 46.8347795,240 44.3312621,240 C40.793328,236.874375 40.1673078,232.81125 42.4535771,227.8125 C42.2256261,222.838125 40.9737735,218.150625 38.698207,213.75 C-1.14713276,184.862437 -10.2226229,147.987375 11.4717743,103.125 C20.6378815,121.984313 33.1556564,140.109375 49.0254746,157.5 C60.9035223,176.979 59.9646798,195.729375 46.2089471,213.75 C46.9577679,216.931875 47.8966104,220.055625 49.0254746,223.125 C54.5036207,215.31375 59.5106555,207.189375 64.0469548,198.75 C115.274708,159.630188 153.454241,110.255063 178.585741,50.625 C185.630815,34.0726875 191.575566,17.1976875 196.423748,0 Z M40.575892,163.125 C43.6124843,166.164188 45.8029916,169.914188 47.1477896,174.375 C48.3996422,181.250063 48.3996422,188.124937 47.1477896,195 C46.0268116,184.088437 43.8361165,173.463375 40.575892,163.125 Z" id="Shape" fill="#6DA3E6" opacity="0.915"></path>
                <path d="M179.254576,20.002376 C181.12167,19.9462312 182.370769,20.8851069 183,22.8190031 C161.842475,81.5417341 128.757835,132.241021 83.7462665,174.916865 C77.7687572,179.972522 71.5264464,184.666901 65.0191469,189 C52.4659842,161.263359 54.6508772,134.348985 71.5736388,108.256691 C88.4964003,82.1643965 151.385251,48.0612393 176.445508,27.5133815 C177.926823,25.1755811 178.863179,22.6719751 179.254576,20.002376 Z" id="Path" fill="#6DA3E6" opacity="0.947"></path>
            </g>
        </g>
    </g>
</svg>