<?xml version="1.0" encoding="UTF-8"?>
<svg width="241px" height="241px" viewBox="0 0 241 241" version="1.1" xmlns="http://www.w3.org/2000/svg" xmlns:xlink="http://www.w3.org/1999/xlink">
    <title>perl</title>
    <g id="Page-1" stroke="none" stroke-width="1" fill="none" fill-rule="evenodd">
        <g id="perl" transform="translate(181.3486, 0.8763)">
            <rect id="box" x="-181" y="0" width="240" height="240"></rect>
            <g id="shape" transform="translate(-171, 0)" fill-rule="nonzero">
                <path d="M216.841247,101.857667 C215.927031,95.4590069 213.904424,89.2691939 210.864464,83.5668368 C210.495108,82.877152 210.028504,82.2442991 209.479011,81.6877524 C203.864267,76.0037425 199.175584,69.4724392 195.584198,62.3323761 C192.892143,55.3669273 189.098082,48.8806044 184.347524,43.1221653 C180.57113,38.5954028 177.536879,33.4967914 175.358184,28.0169071 C173.144671,18.1780761 167.002514,9.67645701 158.362211,4.49206023 C158.102097,4.33185866 157.833172,4.18646276 157.556715,4.05656426 C154.16936,2.5282647 150.668295,1.26635161 147.085262,0.282265903 C146.39436,0.0964147698 145.682208,0 144.966806,0 C144.425516,0.00260034751 143.885838,0.0593352383 143.355814,0.169359542 C141.212774,0.614315277 139.040264,0.902717587 136.855458,1.03228673 C136.45271,1.03228673 136.049961,0.983898291 135.655268,0.983898291 C131.596906,1.1668289 127.660265,2.42774915 124.24944,4.63722555 C123.492273,5.05659204 122.735106,5.492088 121.96183,5.83887182 C121.741661,5.93564871 121.532232,6.04049033 121.333543,6.15339669 C120.476234,6.4228951 119.593656,6.6039486 118.69957,6.69373427 C116.568364,6.94632762 114.478428,7.47215621 112.481138,8.25829385 C110.692429,9.01988128 109.239103,10.4033622 108.389216,12.1535633 C107.34982,13.6884145 106.074858,15.049299 104.611438,16.1859334 C102.289959,18.1259897 100.227105,20.3566844 98.4735557,22.8232145 C98.078035,23.4069134 97.7636922,24.0417884 97.5391799,24.7103636 C95.1464974,31.7435486 90.7366288,37.9147595 84.8606671,42.4527918 C82.5875746,43.9304494 80.4330513,45.5833566 78.4166961,47.3964775 C78.2208752,42.5684762 76.446431,37.9385546 73.3662338,34.2186922 C73.2292995,34.0654621 73.0843101,33.9122321 72.9393208,33.7670668 L72.9393208,33.6541604 C72.7780506,32.0391231 72.4126564,30.4511166 71.8519007,28.9282227 C71.5851848,28.2485245 71.227497,27.6082461 70.7886454,27.024944 C67.3111434,22.3783083 62.9021228,18.5105823 57.8443188,15.66979 C56.9830954,15.1789456 56.0378841,14.8534639 55.0573013,14.7100859 C54.6487247,14.5253937 54.2507311,14.3180781 53.8651667,14.0891009 C51.4408053,12.5722928 48.6661578,11.7083301 45.810203,11.5809668 C43.9008852,11.5797447 42.0193568,12.0389412 40.3247727,12.9197136 C39.4979311,13.3403613 38.7509809,13.9026186 38.1177126,14.5810501 C37.7912436,14.7680139 37.4551534,14.937609 37.1108422,15.0891287 C34.0619709,16.3379942 31.4969338,18.5384577 29.7969351,21.3634965 C28.3176724,21.4892493 26.856483,21.7758927 25.4391998,22.2183589 C24.4323422,22.4918502 23.3969153,22.6461347 22.3541486,22.6780491 C17.9317959,22.6523376 13.6461328,24.2113517 10.2717031,27.0733325 L9.41787693,27.8798065 C3.01821394,32.5311316 -0.120550369,40.4661306 1.36291322,48.2432752 C1.50851374,48.7012055 1.69171823,49.1462854 1.91065075,49.5739573 C5.02419308,55.0813892 10.7334124,58.6132937 17.0459276,58.9371206 C16.2404312,60.8565287 15.4349348,62.7517426 14.516669,64.5824386 C14.1645862,65.3298969 13.9282818,66.1266926 13.8158871,66.9454075 C12.8915741,73.8112606 12.7699285,80.7615986 13.4534137,87.65566 C13.4534137,87.8169548 13.4534137,87.9782496 13.5097985,88.1395444 C13.6961794,89.6032901 13.8064128,91.0757491 13.840052,92.5509573 C13.2185988,99.8162845 15.9868565,106.961163 21.3392232,111.906333 C21.4761576,112.01924 21.613092,112.116017 21.7580813,112.220858 L21.822521,112.470865 C22.1259327,113.704633 22.53281,114.910559 23.0388206,116.075804 C24.0318717,118.3293 25.855594,120.111898 28.1295576,121.051749 C28.4096562,122.727091 29.095535,124.308189 30.1271886,125.656715 C30.843486,126.593559 31.7563651,127.361638 32.8014366,127.906778 C33.9987192,128.505698 35.2536832,128.981272 36.5469947,129.326172 L37.0625124,129.471337 C37.5150349,129.997298 38.0350637,130.461011 38.6090654,130.850408 C40.7527635,132.308547 42.7732896,133.940416 44.6502882,135.729576 C47.0192135,139.294579 51.5475518,140.727553 55.5325442,139.17322 C57.3935217,140.295315 59.5222378,140.894308 61.6945914,140.907139 C63.4370854,140.905477 65.1562003,140.505519 66.7208888,139.737752 L67.6391546,139.528068 C67.8324738,142.818482 67.9049684,146.116961 67.8646936,149.391245 C67.85819,150.047755 67.9284781,150.702769 68.0741227,151.342913 C69.2097255,156.186328 69.9265812,161.118669 70.216743,166.085257 C70.2411885,166.630394 70.3249177,167.171239 70.4664469,167.698205 C71.7118851,172.485001 72.435685,177.392804 72.6251772,182.335709 C72.6251772,182.585716 72.6251772,182.843787 72.6896169,183.093794 C74.0178314,192.980926 72.3037922,203.038512 67.776089,211.92524 C67.4406076,212.590116 67.1993224,213.298564 67.0591972,214.030137 C66.4088862,214.170528 65.7765633,214.384264 65.1743357,214.667252 L64.7715876,214.844676 C60.5000117,216.242818 56.9995835,219.353218 55.1056311,223.433624 C54.115607,226.226819 54.3315703,229.30657 55.7016984,231.93386 C56.3088621,233.133464 57.2060126,234.162003 58.3115067,234.925879 C66.6395917,240.689157 77.3920309,241.609547 86.5763743,237.345301 C91.5038647,234.871147 94.2203877,229.447911 93.2539392,224.014285 L93.2136644,223.473948 C93.3997698,223.062751 93.5506711,222.636478 93.6647424,222.199719 C94.9556758,216.724998 95.7323348,211.141387 95.9845719,205.521836 C96.1732155,200.565033 96.8723314,195.64096 98.0708075,190.82788 C99.8503008,186.773567 100.910618,182.439822 101.204188,178.021073 L101.542497,178.40818 C104.706094,181.664993 108.083258,184.706783 111.651476,187.513272 C114.792073,189.955898 117.753194,192.621446 120.511936,195.4893 L120.423332,195.79576 C120.037844,197.15647 119.007311,198.239541 117.668534,198.691002 L117.273841,198.828102 C112.523873,200.629642 108.959474,204.650486 107.736764,209.586465 C107.085648,213.316935 108.473891,217.11156 111.377608,219.538355 C112.393616,220.423025 113.614919,221.038577 114.929847,221.328727 C122.26273,222.946733 129.904204,222.440413 136.960172,219.869009 C137.704252,219.603998 138.421649,219.269166 139.102793,218.868981 C141.231366,220.827508 144.025367,221.900322 146.916107,221.869065 C149.732956,221.748668 152.486346,220.993324 154.971071,219.659326 C155.365764,219.473837 155.776568,219.296412 156.098766,219.159312 C159.014774,218.03045 161.014975,215.314168 161.229778,212.191376 C161.67569,205.66913 160.374304,199.145951 157.460055,193.29569 C156.526535,191.357557 155.112129,189.69153 153.352023,188.456846 C156.156862,182.288916 159.671121,176.469819 163.823476,171.117655 C167.694979,166.626081 169.05921,160.490191 167.456265,154.778492 C167.257637,153.730074 167.141824,152.667617 167.109902,151.600984 C167.13805,151.203623 167.13805,150.804764 167.109902,150.407403 C166.759286,146.976217 166.791706,143.516595 167.206561,140.0926 C169.061349,145.252307 171.640672,150.121224 174.866832,154.552679 C175.43108,157.480969 175.789065,160.445344 175.938142,163.423893 C176.117791,166.629579 176.475447,169.822775 177.009452,172.988675 C178.624178,183.483203 178.009352,194.200747 175.20514,204.441161 C174.962825,205.333607 174.875634,206.261133 174.947381,207.183173 L174.947381,207.183173 C174.629205,207.634846 174.359229,208.118689 174.141885,208.626761 C172.35826,211.632928 171.485174,215.093089 171.628736,218.586715 C171.678711,219.133616 171.783964,219.674032 171.94288,220.199663 C173.261123,224.970784 177.700815,228.194137 182.639872,227.966008 C183.332598,227.966008 184.0656,227.91762 184.798602,227.853102 L184.951646,227.853102 L185.257735,227.957943 C193.251894,230.4312 201.854387,226.708168 205.532078,219.183506 C206.436181,217.339339 206.603278,215.219241 205.999266,213.255922 C205.168131,210.557478 204.606896,207.783015 204.323834,204.973434 C204.26481,204.378243 204.140553,203.791362 203.953306,203.223386 C201.178371,194.856786 200.565933,185.92265 202.173159,177.254922 C202.229242,176.950754 202.269571,176.643883 202.293983,176.335542 C202.424083,175.13419 202.623101,173.941327 202.89005,172.762862 C204.651152,167.136163 204.091378,161.037966 201.335442,155.826908 C201.32156,154.545166 201.37803,153.263629 201.504597,151.988092 C201.593201,150.802575 201.689861,149.56867 201.722081,148.254117 C204.850328,146.97328 207.346106,144.50636 208.665459,141.391023 C211.769042,135.650556 214.32311,129.628926 216.29351,123.406653 C217.884371,120.490278 218.376039,117.098802 217.678964,113.849936 C218.051246,113.210571 218.351134,112.531623 218.573065,111.825686 C219.51551,108.410994 218.880007,104.753155 216.841247,101.857667 Z M133.174339,174.182256 C132.96491,174.182256 132.747426,174.117739 132.529942,174.101609 L132.336623,174.101609 C131.6406,173.280697 131.00526,172.410087 130.435652,171.496698 C129.960409,170.787001 129.485166,170.085368 129.001868,169.415995 C129.603377,168.826604 130.163206,168.196032 130.677301,167.528846 C132.57883,167.169239 134.337311,166.270737 135.743873,164.940064 C135.474487,168.154988 134.602784,171.29036 133.174339,174.182256 Z" id="Shape" fill="#EDEDED"></path>
                <path d="M136.775318,9.04907731 C132.36628,8.52453866 129.04341,11.470025 125.358485,13.132409 C122.397671,14.7947931 118.801248,14.3590225 115.824343,15.6259851 C113.555458,20.2984141 108.253349,22.9533866 105.364947,27.2707433 C102.423574,35.9123336 96.9844268,43.4803147 89.7402182,49.0108532 C80.0547385,55.2818272 73.212705,65.1177752 70.6880261,76.3998409 C69.5214011,78.8207885 69.706452,82.4199307 68.4593701,84.4696664 C64.3480229,85.6236514 66.5364504,80.3056364 66.0456634,77.8120603 C65.4502823,74.0192424 68.7892434,71.5982947 69.0467054,67.9184543 C70.4397083,65.3175756 71.0253184,62.3582584 70.7282545,59.420928 C70.2776959,52.8520901 72.2488898,44.8387534 67.5662986,39.4319703 C64.7583531,37.8180052 65.6433789,34.404469 64.6215764,31.7898456 C61.8057324,28.0340704 58.2443694,24.9044079 54.1621803,22.5983143 C50.7910365,22.2674515 47.6773548,18.2244689 44.2498911,19.9917607 C42.1097378,22.4853368 38.1110302,22.4530575 36.8317656,25.7455463 C36.0271967,29.9095762 31.2963314,28.763661 28.2389695,29.780459 C24.3126731,31.2733767 19.2438889,29.828878 16.0256132,32.8631323 C12.7188349,36.1717608 7.7063705,40.6182346 9.30746266,45.8232721 C12.9843427,52.9408582 22.5426215,49.3578556 27.9493247,53.6832821 C26.256001,58.5697998 24.303477,63.3620424 22.1001086,68.0395017 C21.2543795,74.2774105 21.1355763,80.592867 21.7460983,86.8583347 C22.735718,93.0963098 21.0783061,101.158065 26.621786,105.57226 C29.6791479,106.677826 29.494097,110.1882 30.6446306,112.730195 C31.722753,115.070445 34.0801399,111.818305 35.0134399,114.287672 C37.7328828,115.772519 35.3111304,118.814844 36.7834915,120.743532 C38.8995078,121.849098 41.9246869,121.77647 43.3970481,124.181278 C46.2064891,126.101818 48.8325529,128.27921 51.2415951,130.685557 C53.0921036,134.454165 55.5138561,127.021856 57.5413698,129.805946 C58.909137,132.105846 61.6124886,134.018395 64.1307893,132.105846 C67.9920227,131.499436 71.6480773,129.959508 74.7832819,127.619023 C75.7924457,134.88505 76.2523612,142.217216 76.1590948,149.552809 C77.3981922,154.855373 78.1788371,160.255282 78.4923446,165.69246 C79.8899624,171.048449 80.6993436,176.541692 80.9060514,182.074206 C82.4350923,193.585514 80.4460202,205.291244 75.2016577,215.64468 C74.5598605,218.9273 71.9870553,221.485439 68.7087865,222.10054 C66.3674909,223.149617 61.4676662,225.054096 63.1411695,228.362725 C69.1182298,232.497719 76.8296573,233.154543 83.4163065,230.089667 C87.519608,228.1287 84.0036418,223.165757 86.1035667,220.196061 C88.8632381,209.705288 87.5035166,198.480161 90.729838,188.037807 C93.1385087,182.738115 93.9763932,176.855328 93.1435448,171.091173 C93.7791542,167.54045 92.2987474,163.271512 94.6480887,160.366375 C94.7122193,156.768988 96.0957067,153.321441 98.5341566,150.682585 C99.2941355,145.265905 99.6812447,139.803156 99.6927359,134.333118 C102.988547,133.313022 106.454521,132.964562 109.886624,133.30825 C110.031447,136.334435 107.698197,139.860949 108.357943,143.266415 C109.04772,147.076093 108.31143,151.00709 106.290201,154.305936 C104.093421,160.426543 104.584558,167.194081 107.641877,172.931093 C113.933606,179.701677 122.124118,184.487084 128.045745,191.709577 C130.572091,193.363892 129.654883,195.881677 128.351481,198.036321 C127.244719,201.964676 124.271308,205.089023 120.410386,206.38052 C117.932313,207.356969 113.92556,210.948041 116.854191,213.498106 C122.686775,214.788867 128.765316,214.385775 134.377702,212.336051 C138.20745,210.956111 136.791409,206.38052 138.303999,203.556081 C140.717705,205.436351 141.707325,209.729498 144.024484,212.182725 C146.43819,215.676959 150.517355,212.771822 153.3253,211.682395 C153.67739,206.547794 152.643479,201.412907 150.332304,196.817777 C148.988674,193.767383 143.895753,193.710894 144.137123,189.942286 C147.515588,181.2365 152.15704,173.078716 157.911343,165.732809 C162.014645,161.867363 158.957283,156.121647 159.182562,151.207123 C157.90321,138.674838 160.984546,126.084431 167.904089,115.570774 C169.350923,121.451932 171.211455,127.222861 173.471706,132.8402 C175.170026,139.41971 178.180764,145.585532 182.321965,150.965028 C184.228793,157.509657 183.738006,164.76443 184.985088,171.551153 C186.801169,183.251636 186.137726,195.204687 183.038031,206.630685 C183.359859,210.810854 179.361151,213.893528 179.69907,217.992999 C180.825466,221.777747 185.331052,218.743493 187.664302,220.333248 C191.863813,221.633208 196.382075,219.675354 198.316795,215.717308 C197.325817,212.50274 196.660031,209.196267 196.32951,205.847912 C193.122428,196.179764 192.416469,185.852949 194.277859,175.836231 C194.647961,170.437517 197.954739,163.731492 193.690524,159.115552 C192.499762,154.12033 194.495092,148.745826 193.296285,143.661836 C190.413601,130.579892 190.080291,117.062264 192.314711,103.853387 C193.06296,102.021537 192.419305,98.6160705 194.301996,97.5992724 C196.290851,100.509103 197.188664,104.031086 196.836388,107.541297 C198.646886,112.96258 198.867496,118.791249 197.471997,124.334604 C194.060625,128.619682 196.16055,134.405747 196.595017,139.263781 C197.142124,142.669248 200.746593,140.216021 201.333928,138.101727 C204.477183,132.350723 207.022288,126.29067 208.929059,120.017248 C211.093349,117.14439 209.041699,113.803482 208.929059,110.801507 C212.251929,110.406086 210.988755,106.718175 209.210658,105.152629 C208.593571,98.9403059 206.770494,92.9091213 203.844183,87.399013 C197.497856,80.9613202 192.224981,73.541891 188.227501,65.4248782 C183.979377,52.1984342 171.798203,43.4265339 167.662719,30.0871124 C166.020022,22.2706542 161.203293,15.4947213 154.37124,11.3893267 C151.36373,10.0182609 148.25399,8.88503525 145.070423,8 C142.337733,8.57117528 139.563836,8.92198851 136.775318,9.04907731 Z M139.993593,127.352719 C141.972895,138.811625 143.315913,150.371981 144.016438,161.98034 C144.212399,169.23475 142.06777,176.358729 137.901714,182.292091 C136.936231,185.721767 133.991509,182.388929 131.859402,182.162974 C126.686023,182.017717 124.763104,176.651283 121.947112,173.229677 C119.050664,170.453657 121.142543,166.773817 123.017189,164.102704 C125.044703,162.658206 125.83318,159.430275 128.713537,159.68044 C131.931813,159.623951 131.255975,155.750435 130.805416,153.68456 C132.72029,150.763283 131.54562,146.486275 133.444402,143.330974 C136.815546,141.862265 135.809835,136.713717 137.000597,133.808579 C137.925851,131.742704 137.137374,127.76428 139.687857,126.916948 C139.985548,126.86853 140.082096,127.013786 140.025776,127.336579 L139.993593,127.352719 Z" id="Shape" fill="#3A3C5B"></path>
            </g>
        </g>
    </g>
</svg>