<?xml version="1.0" encoding="UTF-8"?>
<svg width="240px" height="240px" viewBox="0 0 240 240" version="1.1" xmlns="http://www.w3.org/2000/svg" xmlns:xlink="http://www.w3.org/1999/xlink">
    <title>pfsense</title>
    <g id="Page-1" stroke="none" stroke-width="1" fill="none" fill-rule="evenodd">
        <g id="pfsense" transform="translate(0.4, 0)">
            <rect id="box" fill="#FFFFFF" x="-0.4" y="0" width="240" height="240" rx="22"></rect>
            <g id="shape" transform="translate(-0.4, 0)" fill="#000000" fill-rule="nonzero">
                <path d="M69.3677419,169.393548 C78.3483871,169.393548 86.0903226,166.606452 92.5935484,161.341935 C99.0967742,156.077419 103.741935,148.954839 106.219355,140.283871 C108.696774,131.612903 108.077419,124.490323 104.670968,119.225806 C101.264516,113.96129 94.7612903,111.174194 85.7806452,111.174194 C76.8,111.174194 69.0580645,113.96129 62.5548387,119.225806 C56.0516129,124.490323 51.716129,131.612903 49.2387097,140.283871 C46.7612903,148.954839 47.0709677,156.077419 50.7870968,161.341935 C53.883871,166.916129 60.0774194,169.393548 69.3677419,169.393548" id="Path"></path>
                <path d="M146.167742,111.174194 L154.219355,82.683871 L168.464516,82.683871 L174.03871,62.2451613 C175.896774,56.0516129 178.064516,49.8580645 180.851613,44.283871 C183.329032,38.7096774 187.045161,33.7548387 191.380645,29.4193548 C195.716129,25.083871 201.290323,21.6774194 207.793548,19.2 C214.296774,16.7225806 222.658065,15.483871 232.258065,15.483871 C234.735484,15.483871 236.903226,15.483871 239.380645,15.7935484 C237.212903,6.81290323 229.16129,0.309677419 219.870968,0 L20.1290323,0 C8.98064516,0 0,9.29032258 0,20.4387097 L0,198.193548 L32.516129,82.683871 L65.3419355,82.683871 L61.0064516,97.8580645 L61.6258065,97.8580645 C63.483871,95.6903226 65.9612903,93.8322581 69.0580645,91.6645161 C72.1548387,89.4967742 75.2516129,87.6387097 78.6580645,85.7806452 C82.0645161,83.9225806 85.7806452,82.683871 89.8064516,81.4451613 C93.8322581,80.2064516 97.8580645,79.8967742 101.883871,79.8967742 C110.554839,79.8967742 117.677419,81.4451613 123.870968,84.2322581 C130.064516,87.0193548 134.709677,91.3548387 138.425806,96.6193548 C141.522581,101.264516 143.380645,106.83871 144.309677,113.341935 L146.787097,111.483871 L146.167742,111.483871 L146.167742,111.174194 Z" id="Path"></path>
                <path d="M237.522581,46.1419355 C235.974194,45.8322581 234.116129,45.5225806 231.948387,45.5225806 C226.374194,45.5225806 221.729032,46.7612903 218.012903,49.2387097 C214.606452,51.716129 211.509677,56.6709677 209.341935,64.4129032 L204.077419,82.683871 L224.206452,82.683871 L229.16129,98.4774194 L216.154839,111.174194 L196.025806,111.174194 L171.56129,197.883871 L136.258065,197.883871 L160.722581,111.174194 L147.096774,111.174194 L144.309677,113.032258 C144.309677,113.651613 144.619355,114.580645 144.619355,115.2 C145.23871,122.322581 144.309677,130.374194 141.832258,139.045161 C139.664516,147.096774 136.258065,154.83871 131.612903,162.270968 C126.967742,169.703226 121.703226,176.206452 115.819355,181.780645 C109.625806,187.354839 102.812903,192 95.3806452,195.406452 C87.9483871,198.812903 80.2064516,200.36129 71.8451613,200.36129 C64.4129032,200.36129 57.9096774,199.122581 52.0258065,196.954839 C46.1419355,194.787097 42.116129,190.76129 39.6387097,185.187097 L39.0193548,185.187097 L23.5354839,240 L219.56129,240 C230.709677,240 240,231.019355 240,219.56129 L240,47.0709677 C239.070968,46.7612903 238.141935,46.4516129 237.522581,46.1419355" id="Path"></path>
            </g>
        </g>
    </g>
</svg>