<?xml version="1.0" encoding="UTF-8"?>
<svg width="240px" height="240px" viewBox="0 0 240 240" version="1.1" xmlns="http://www.w3.org/2000/svg" xmlns:xlink="http://www.w3.org/1999/xlink">
    <title>phind</title>
    <g id="Page-1" stroke="none" stroke-width="1" fill="none" fill-rule="evenodd">
        <g id="phind" transform="translate(-135, 100)">
            <rect id="box" fill="#FFFFFF" x="135" y="-100" width="240" height="240" rx="32"></rect>
            <path d="M206.992875,-22.506628 L206.992875,91 L228.151876,91 L228.151876,44.9575326 C228.151876,44.9575326 228.192333,44.9575326 228.192333,44.9980273 L228.192333,42.7303244 C228.192333,42.7303244 228.192333,42.7303244 228.192333,42.7303244 L228.192333,42.0014199 C235.434133,49.007002 244.536954,53.8663654 254.610742,55.5266478 C257.038161,55.8911001 259.506037,56.0935735 262.01437,56.0935735 L262.01437,56.0935735 C287.097699,55.364669 308.823098,36.6561203 312.464226,10.9824841 C314.446619,-2.907196 310.886404,-16.7563814 302.471352,-27.9734118 C294.0563,-39.1904421 281.757377,-46.479487 267.921089,-48.4637271 C254.044345,-50.4479671 240.208057,-46.884434 229.001473,-38.4615376 C227.625935,-37.4491702 226.331312,-36.3558135 225.077145,-35.221962 L210.26989,-47.1274021 L197,-30.6055669 L206.992875,-22.506628 Z M260.979767,-30 C275.507051,-30 287.849172,-20.6118945 292.259963,-7.54138565 C293.39301,-4.22317597 294,-0.662170448 294,3.06069896 C294,18.2759044 283.681177,31.1036174 269.639485,34.8669528 C266.887799,35.6358063 263.974249,36 260.979767,36 C255.314531,36 250.013489,34.583691 245.359902,32.0748007 C241.151441,29.8491723 237.469037,26.7332925 234.555487,22.8080932 C231.196812,18.3568363 229.092581,13.2176579 228.364194,7.83568363 L228.364194,7.83568363 C228.121398,6.25751073 228,4.67933783 228,3.02023299 C228,-15.2299203 242.77008,-30 260.979767,-30 Z" id="Shape" fill="#000000" fill-rule="nonzero"></path>
        </g>
    </g>
</svg>