<?xml version="1.0" encoding="UTF-8"?>
<svg width="240px" height="240px" viewBox="0 0 240 240" version="1.1" xmlns="http://www.w3.org/2000/svg" xmlns:xlink="http://www.w3.org/1999/xlink">
    <title>photoshop</title>
    <g id="Page-1" stroke="none" stroke-width="1" fill="none" fill-rule="evenodd">
        <g id="photoshop">
            <rect id="ViewBox" x="0" y="0" width="240" height="240"></rect>
            <path d="M42.500625,3 L197.499375,3 C221.000625,3 240,21.999375 240,45.500625 L240,194.499375 C240,218.000625 221.000625,237 197.499375,237 L42.500625,237 C18.999375,237 0,218.000625 0,194.499375 L0,45.500625 C0,21.999375 18.999375,3 42.500625,3" id="Path" fill="#001E36" fill-rule="nonzero"></path>
            <path d="M86.000625,62.499375 C83.000625,62.499375 80.000625,62.499375 76.90125,62.600625 C73.8,62.7 70.899375,62.7 68.199375,62.80125 C65.499375,62.900625 63,62.900625 60.6,63 C58.299375,63.099375 56.7,63.099375 54.999375,63.099375 C54.3,63.099375 54,63.49875 54,64.2 L54,167.1 C54,168 54.399375,168.40125 55.2,168.40125 L74.600625,168.40125 C75.3,168.3 75.800625,167.7 75.699375,167.000625 L75.699375,134.900625 C77.59875,134.900625 78.999375,134.900625 80.000625,135 C81,135.099375 82.599375,135.099375 84.999375,135.099375 C93.200625,135.099375 100.700625,134.199375 107.499375,131.7 C114,129.3 119.600625,125.1 123.6,119.499375 C127.6,113.899375 129.6,106.799375 129.6,98.199375 C129.6,93.699375 128.80125,89.4 127.30125,85.2 C125.711833,80.9210524 123.221935,77.0333841 120,73.8 C116.197163,70.105568 111.619567,67.3040561 106.599375,65.59875 C100.99875,63.49875 94.2,62.499375 86.000625,62.499375 M88.231875,82.19625 C91.794375,82.26375 95.263125,82.88625 98.499375,84.19875 C101.4,85.299375 103.8,87.3 105.500625,89.89875 C107.095562,92.5883069 107.893421,95.675703 107.80125,98.80125 C107.80125,103.2 106.8,106.60125 104.7,109.100625 C102.49875,111.6 99.699375,113.50125 96.500625,114.40125 C92.799375,115.60125 88.899375,116.199375 84.999375,116.199375 L79.69875,116.199375 C78.49875,116.199375 77.20125,116.1 75.800625,116.000625 L75.800625,82.400625 C76.5,82.299375 77.900625,82.2 79.90125,82.30125 C81.800625,82.2 84.099375,82.2 86.7,82.2 C87.2125,82.1875 87.723125,82.18625 88.231875,82.19625 M172.100625,87.301875 C165,87.301875 159.099375,88.400625 154.400625,90.800625 C150.10125,92.80125 146.4,96 143.900625,99.999375 C141.70125,103.700625 140.499375,107.799375 140.499375,112.100625 C140.413901,115.63827 141.204216,119.14219 142.8,122.300625 C144.670212,125.663733 147.267008,128.567353 150.40125,130.8 C154.800249,133.808763 159.573854,136.229289 164.600625,138 C169.5,139.899375 172.8,141.399375 174.40125,142.69875 C176.000625,144 176.80125,145.299375 176.80125,146.7 C176.80125,148.5 175.700625,150.200625 174.10125,150.9 C172.30125,151.8 169.60125,152.300625 165.800625,152.300625 C161.80125,152.300625 157.8,151.8 153.999375,150.800625 C149.63546,149.826005 145.451466,148.17278 141.6,145.90125 C141.3,145.700625 141,145.60125 140.7,145.801875 C140.4,146.000625 140.300625,146.4 140.300625,146.7 L140.300625,164.1 C140.20125,164.900625 140.7,165.6 141.40125,165.999375 C144.644085,167.514337 148.074239,168.590674 151.60125,169.2 C156.10125,170.1 160.599375,170.499375 165.19875,170.499375 C172.39875,170.499375 178.400625,169.400625 183.3,167.300625 C187.8,165.500625 191.7,162.40125 194.499375,158.4 C197.121172,154.466439 198.481631,149.827141 198.399375,145.100625 C198.498014,141.530095 197.708109,137.990986 196.100625,134.80125 C194.199375,131.4 191.499375,128.600625 188.199375,126.500625 C183.371708,123.468896 178.202756,121.018159 172.8,119.199375 C170.387306,118.200778 168.01828,117.099779 165.699375,115.899375 C164.4,115.2 163.2,114.3 162.3,113.199375 C161.7,112.39875 161.300625,111.500625 161.300625,110.600625 C161.300625,109.700625 161.600625,108.70125 162.099375,107.900625 C162.800625,106.90125 163.899375,106.2 165.19875,105.9 C167.1,105.40125 169.2,105.099375 171.19875,105.19875 C174.999375,105.19875 178.69875,105.699375 182.4,106.5 C185.80125,107.199375 189,108.3 192,109.90125 C192.399375,110.1 192.9,110.1 193.8,109.90125 C194.116919,109.666367 194.30287,109.294465 194.300625,108.9 L194.300625,92.600625 C194.300625,92.199375 194.199375,91.8 194.1,91.400625 C193.899375,91.00125 193.5,90.6 193.100625,90.500625 C190.342505,89.373337 187.452586,88.6002978 184.5,88.2 C180.393905,87.6021304 176.250018,87.3013492 172.100625,87.3 L172.100625,87.301875 Z" id="Shape" fill="#31A8FF" fill-rule="nonzero"></path>
        </g>
    </g>
</svg>