<?xml version="1.0" encoding="UTF-8"?>
<svg width="240px" height="241px" viewBox="0 0 240 241" version="1.1" xmlns="http://www.w3.org/2000/svg" xmlns:xlink="http://www.w3.org/1999/xlink">
    <title>php</title>
    <defs>
        <path d="M0,60 C0,26.863221 51.4882786,0 114.999792,0 L114.999792,0 C178.511305,0 230,26.863221 230,60 L230,60 C230,93.1363664 178.511305,120 114.999792,120 L114.999792,120 C51.4882786,120 0,93.1363664 0,60" id="path-1"></path>
        <radialGradient cx="30.020204%" cy="82.421541%" fx="30.020204%" fy="82.421541%" r="125.842683%" gradientTransform="translate(0.3002, 0.8242), scale(0.5217, 1), translate(-0.3002, -0.8242)" id="radialGradient-3">
            <stop stop-color="#AEB2D5" offset="0%"></stop>
            <stop stop-color="#AEB2D5" offset="30%"></stop>
            <stop stop-color="#484C89" offset="75%"></stop>
            <stop stop-color="#484C89" offset="100%"></stop>
        </radialGradient>
        <polygon id="path-4" points="0 134 240 134 240 0 0 0"></polygon>
        <polygon id="path-6" points="0 134 240 134 240 0 0 0"></polygon>
    </defs>
    <g id="Page-1" stroke="none" stroke-width="1" fill="none" fill-rule="evenodd">
        <g id="php" transform="translate(120, 120.5771) scale(-1, 1) rotate(-180) translate(-120, -120.5771)translate(0, 0.5771)">
            <rect id="box" transform="translate(120, 120) scale(-1, 1) rotate(-180) translate(-120, -120)" x="0" y="0" width="240" height="240"></rect>
            <g id="shape" transform="translate(0, 53)">
                <g id="g3440" transform="translate(5, 7)">
                    <mask id="mask-2" fill="white">
                        <use xlink:href="#path-1"></use>
                    </mask>
                    <g id="path3446"></g>
                    <g id="g3442" mask="url(#mask-2)" fill="url(#radialGradient-3)" fill-rule="nonzero">
                        <g transform="translate(0, -0)" id="path3462">
                            <path d="M0,60 C0,26.863221 51.4882786,0 114.999792,0 L114.999792,0 C178.511305,0 230,26.863221 230,60 L230,60 C230,93.1363664 178.511305,120 114.999792,120 L114.999792,120 C51.4882786,120 0,93.1363664 0,60"></path>
                        </g>
                    </g>
                </g>
                <g id="g3464" transform="translate(-0, -0)">
                    <mask id="mask-5" fill="white">
                        <use xlink:href="#path-4"></use>
                    </mask>
                    <g id="path3470"></g>
                    <g id="g3466" mask="url(#mask-5)" fill="#777BB3" fill-rule="nonzero">
                        <g transform="translate(9.3, 11.3153)" id="path3474">
                            <path d="M110.7,0 C171.837083,0 221.4,24.9310309 221.4,55.684858 C221.4,86.4382716 171.837083,111.369716 110.7,111.369716 C49.5629167,111.369716 0,86.4382716 0,55.684858 C0,24.9310309 49.5629167,0 110.7,0"></path>
                        </g>
                    </g>
                </g>
                <g id="g3476" transform="translate(-0, -0)">
                    <mask id="mask-7" fill="white">
                        <use xlink:href="#path-6"></use>
                    </mask>
                    <g id="path3482"></g>
                    <g id="g3478" mask="url(#mask-7)">
                        <g transform="translate(38.6134, 30.8353)">
                            <g id="g3484" transform="translate(1.25, 1.2405)">
                                <path d="M27.5259066,28.0200617 C32.55299,28.0200617 36.3059066,28.9402778 38.68049,30.7542407 C41.0296566,32.5495926 42.6521566,35.6601296 43.5025733,39.999 C44.29549,44.0545679 43.9934066,46.8863519 42.6050733,48.4145309 C41.18549,49.9753827 38.1163233,50.7669753 33.48299,50.7669753 L25.44924,50.7669753 L20.99549,28.0200617 L27.5259066,28.0200617 Z M1.24965663,0 C0.876739961,0 0.522573294,0.165432099 0.285489961,0.45162963 C0.0479899605,0.73741358 -0.0482600395,1.1137716 0.0229899605,1.47730864 L11.8263233,61.7570432 C11.94049,62.3397778 12.4550733,62.7608025 13.0534066,62.7608025 L38.4925733,62.7608025 C46.4875733,62.7608025 52.4384066,60.6060494 56.1788233,56.3556852 C59.93924,52.0829877 61.10049,46.1104753 59.6300733,38.6044074 C59.03174,35.5463951 58.0025733,32.7063395 56.5713233,30.1636481 C55.1384066,27.6180617 53.2446566,25.2627222 50.94174,23.1617346 C48.1850733,20.6008457 45.0650733,18.7438704 41.67674,17.6511914 C38.3421566,16.5729877 34.0596566,16.0262346 28.9484066,16.0262346 L18.6475733,16.0262346 L15.7059066,1.00417284 C15.59174,0.421024691 15.0775733,0 14.47924,0 L1.24965663,0 Z" id="path3486" fill="#000000" fill-rule="nonzero"></path>
                            </g>
                            <g id="g3488" transform="translate(0, 0)">
                                <path d="M27.7297341,50.7669753 L34.7330675,50.7669753 C40.3251508,50.7669753 42.2676508,49.5489815 42.9276508,48.8231481 C44.0226508,47.6179753 44.2293175,45.0769383 43.5255675,41.4750679 C42.7347341,37.4426605 41.2689008,34.5835802 39.1680675,32.9780617 C37.0172341,31.3344938 33.5205675,30.5015432 28.7759841,30.5015432 L23.7618175,30.5015432 L27.7297341,50.7669753 Z M39.7426508,65.242284 L14.3030675,65.242284 C13.1064008,65.242284 12.0776508,64.4002346 11.8493175,63.2343519 L0.0459841417,2.95461728 C-0.0965158583,2.22712963 0.0959841417,1.47482716 0.570567475,0.902845679 C1.04556747,0.330864198 1.75306747,0 2.49973414,0 L15.7289008,0 C16.9259841,0 17.9547341,0.842049383 18.1830675,2.0079321 L20.9280675,16.0262346 L30.1984841,16.0262346 C35.4409841,16.0262346 39.8543175,16.5936667 43.3147341,17.7124012 C46.8734841,18.8600864 50.1476508,20.8059815 53.0455675,23.4959074 C55.4422341,25.6845741 57.4164008,28.1412407 58.9122341,30.7984938 C60.4084841,33.4565741 61.4834841,36.4207037 62.1072341,39.6085802 C63.6551508,47.5096173 62.3976508,53.8365679 58.3701508,58.4124198 C54.3818175,62.9444321 48.1143175,65.242284 39.7426508,65.242284 M20.7289008,28.0200617 L28.7759841,28.0200617 C34.1097341,28.0200617 38.0826508,29.0172037 40.6930675,31.0119012 C43.3039008,33.0070123 45.0647341,36.3367469 45.9797341,41.0027593 C46.8551508,45.4826605 46.4564008,48.6440679 44.7834841,50.4857407 C43.1084841,52.3274136 39.7589008,53.2484568 34.7330675,53.2484568 L25.6689008,53.2484568 L20.7289008,28.0200617 M39.7426508,62.7608025 C47.3955675,62.7608025 52.9784841,60.7673457 56.4876508,56.7800185 C59.9964008,52.7926914 61.0530675,47.227142 59.6530675,40.081716 C59.0768175,37.1382654 58.1022341,34.4470988 56.7301508,32.0090432 C55.3564008,29.5693333 53.5626508,27.3384815 51.3459841,25.3156605 C48.7043175,22.8618889 45.7697341,21.1132716 42.5405675,20.0718765 C39.3114008,19.0275864 35.1984841,18.507716 30.1984841,18.507716 L18.8668175,18.507716 L15.7289008,2.48148148 L2.49973414,2.48148148 L14.3030675,62.7608025 L39.7426508,62.7608025" id="path3490" fill="#FFFFFF" fill-rule="nonzero"></path>
                            </g>
                            <g id="g3492" transform="translate(57.5669, 17.2668)">
                                <path d="M33.6459066,0 C33.2725733,0 32.9188233,0.165432099 32.68174,0.45162963 C32.4438233,0.73741358 32.3475733,1.11335802 32.4188233,1.47730864 L37.6400733,28.1486852 C38.13674,30.6851728 38.01424,32.5057531 37.29549,33.2750123 C36.85549,33.7452531 35.5338233,34.5339506 31.6259066,34.5339506 L22.16674,34.5339506 L15.6021566,1.00417284 C15.48799,0.421024691 14.9734066,0 14.3750733,0 L1.25007329,0 C0.876739961,0 0.522989961,0.165432099 0.285489961,0.45162963 C0.0479899605,0.73741358 -0.0482600395,1.1137716 0.0229899605,1.47730864 L11.8263233,61.7570432 C11.94049,62.3397778 12.4550733,62.7608025 13.0534066,62.7608025 L26.1784066,62.7608025 C26.55174,62.7608025 26.90549,62.5953704 27.14299,62.3095864 C27.38049,62.0233889 27.47674,61.6474444 27.40549,61.2834938 L24.5571566,46.7345679 L34.73299,46.7345679 C42.4850733,46.7345679 47.74174,45.3780247 50.8034066,42.5871852 C53.92424,39.7400988 54.89799,35.187821 53.69799,29.0552531 L48.2063233,1.00417284 C48.0921566,0.421024691 47.57799,0 46.97924,0 L33.6459066,0 Z" id="path3494" fill="#000000" fill-rule="nonzero"></path>
                            </g>
                            <g id="g3496" transform="translate(56.3169, 16.0262)">
                                <path d="M27.4284799,65.242284 L14.3034799,65.242284 C13.1063966,65.242284 12.0776466,64.4002346 11.8493133,63.2343519 L0.045979921,2.95461728 C-0.096520079,2.22712963 0.095979921,1.47482716 0.570979921,0.902845679 C1.04597992,0.330864198 1.75347992,0 2.50014659,0 L15.6251466,0 C16.8218133,0 17.8509799,0.842049383 18.0793133,2.0079321 L24.4472299,34.5339506 L32.8759799,34.5339506 C36.7772299,34.5339506 37.5959799,33.7067901 37.6288966,33.6712222 C37.8655633,33.4185247 38.1768133,32.2480926 37.6630633,29.6259938 L32.4418133,2.95461728 C32.2993133,2.22712963 32.4918133,1.47482716 32.9668133,0.902845679 C33.4418133,0.330864198 34.1493133,0 34.8959799,0 L48.2293133,0 C49.4259799,0 50.4551466,0.842049383 50.6834799,2.0079321 L56.1747299,30.0590123 C57.4634799,36.6436235 56.3609799,41.5830123 52.8993133,44.7411111 C49.5959799,47.7523889 44.0626466,49.2160494 35.9830633,49.2160494 L27.3230633,49.2160494 L29.8826466,62.2872531 C30.0247299,63.0147407 29.8326466,63.7674568 29.3576466,64.3390247 C28.8826466,64.9110062 28.1751466,65.242284 27.4284799,65.242284 M27.4284799,62.7608025 L24.2905633,46.7345679 L35.9830633,46.7345679 C43.3401466,46.7345679 48.4147299,45.4599136 51.2076466,42.9139136 C54.0005633,40.3662593 54.8372299,36.2383148 53.7209799,30.5321481 L48.2293133,2.48148148 L34.8959799,2.48148148 L40.1172299,29.1524444 C40.7113966,32.1864691 40.4930633,34.2560247 39.4613966,35.3594568 C38.4293133,36.4628889 36.2338966,37.0154321 32.8759799,37.0154321 L22.3859799,37.0154321 L15.6251466,2.48148148 L2.50014659,2.48148148 L14.3034799,62.7608025 L27.4284799,62.7608025" id="path3498" fill="#FFFFFF" fill-rule="nonzero"></path>
                            </g>
                            <g id="g3500" transform="translate(104.5065, 1.2405)">
                                <path d="M27.5258566,28.0200617 C32.55294,28.0200617 36.3058566,28.9402778 38.68044,30.7542407 C41.0296066,32.549179 42.6521066,35.659716 43.50294,39.999 C44.2958566,44.0545679 43.9937733,46.8863519 42.6050233,48.4145309 C41.18544,49.9753827 38.1162733,50.7669753 33.48294,50.7669753 L25.44919,50.7669753 L20.99544,28.0200617 L27.5258566,28.0200617 Z M1.25002331,0 C0.877106647,0 0.522939981,0.165432099 0.285856647,0.45162963 C0.0483566475,0.73741358 -0.0483100192,1.1137716 0.0229399808,1.47730864 L11.8262733,61.7570432 C11.9408566,62.3397778 12.4550233,62.7608025 13.0537733,62.7608025 L38.4925233,62.7608025 C46.48794,62.7608025 52.4383566,60.6060494 56.17919,56.3556852 C59.9396066,52.0834012 61.10044,46.1108889 59.63044,38.6044074 C59.0312733,35.5463951 58.0025233,32.7063395 56.5712733,30.1636481 C55.1383566,27.6180617 53.2446066,25.2627222 50.94169,23.1617346 C48.1850233,20.6008457 45.0650233,18.7438704 41.67669,17.6511914 C38.3421066,16.5729877 34.0596066,16.0262346 28.9483566,16.0262346 L18.6471066,16.0262346 L15.70669,1.00417284 C15.5921066,0.421024691 15.07794,0 14.47919,0 L1.25002331,0 Z" id="path3502" fill="#000000" fill-rule="nonzero"></path>
                            </g>
                            <g id="g3504" transform="translate(103.2569, -0)">
                                <path d="M27.7293175,50.7669753 L34.7326508,50.7669753 C40.3247341,50.7669753 42.2672341,49.5489815 42.9272341,48.8231481 C44.0226508,47.6179753 44.2293175,45.0769383 43.5251508,41.4754815 C42.7343175,37.4426605 41.2680675,34.5835802 39.1676508,32.9780617 C37.0168175,31.3344938 33.5201508,30.5015432 28.7755675,30.5015432 L23.7618175,30.5015432 L27.7293175,50.7669753 Z M39.7422341,65.242284 L14.3030675,65.242284 C13.1064008,65.242284 12.0776508,64.4002346 11.8493175,63.2343519 L0.0459841417,2.95461728 C-0.0965158583,2.22712963 0.0959841417,1.47482716 0.570567475,0.902845679 C1.04556747,0.330864198 1.75306747,0 2.49973414,0 L15.7289008,0 C16.9255675,0 17.9547341,0.842049383 18.1830675,2.0079321 L20.9276508,16.0262346 L30.1980675,16.0262346 C35.4405675,16.0262346 39.8539008,16.5936667 43.3143175,17.7124012 C46.8730675,18.8600864 50.1480675,20.8063951 53.0459841,23.4967346 C55.4426508,25.6849877 57.4159841,28.1412407 58.9118175,30.7984938 C60.4080675,33.4565741 61.4830675,36.4207037 62.1068175,39.6085802 C63.6547341,47.5100309 62.3972341,53.8369815 58.3697341,58.4128333 C54.3814008,62.9444321 48.1143175,65.242284 39.7422341,65.242284 M20.7289008,28.0200617 L28.7755675,28.0200617 C34.1093175,28.0200617 38.0822341,29.0172037 40.6926508,31.0119012 C43.3039008,33.0070123 45.0643175,36.3367469 45.9793175,41.0027593 C46.8551508,45.4826605 46.4564008,48.6440679 44.7830675,50.4857407 C43.1080675,52.3274136 39.7584841,53.2484568 34.7326508,53.2484568 L25.6684841,53.2484568 L20.7289008,28.0200617 M39.7422341,62.7608025 C47.3951508,62.7608025 52.9780675,60.7673457 56.4872341,56.7800185 C59.9964008,52.7926914 61.0526508,47.227142 59.6526508,40.081716 C59.0764008,37.1382654 58.1018175,34.4470988 56.7297341,32.0090432 C55.3559841,29.5693333 53.5622341,27.3384815 51.3455675,25.3156605 C48.7039008,22.8618889 45.7693175,21.1132716 42.5401508,20.0718765 C39.3109841,19.0275864 35.1980675,18.507716 30.1980675,18.507716 L18.8664008,18.507716 L15.7289008,2.48148148 L2.49973414,2.48148148 L14.3030675,62.7608025 L39.7422341,62.7608025" id="path3506" fill="#FFFFFF" fill-rule="nonzero"></path>
                            </g>
                        </g>
                    </g>
                </g>
            </g>
        </g>
    </g>
</svg>