<?xml version="1.0" encoding="UTF-8"?>
<svg width="240px" height="241px" viewBox="0 0 240 241" version="1.1" xmlns="http://www.w3.org/2000/svg" xmlns:xlink="http://www.w3.org/1999/xlink">
    <title>pika</title>
    <g id="Page-1" stroke="none" stroke-width="1" fill="none" fill-rule="evenodd">
        <g id="pika" transform="translate(0, 0.75)">
            <rect id="box" fill="#000000" x="0" y="0" width="240" height="240" rx="32"></rect>
            <path d="M46.1986352,175.5 L102.603521,175.5 C101.692295,166.316508 95.1509947,156.253745 79.1654881,149.401948 L79.1654881,148.724584 C97.8000587,154.456125 104.504078,164.264877 107.231247,175.493487 L176.822874,175.493487 L165.627813,165.880129 C172.182131,145.246581 198.106509,135.496447 198.106509,135.496447 C197.188774,118.946622 188.72739,103.523566 160.440334,91.031411 L96.0882557,65.5 C98.2426541,92.7183078 107.875614,108.323731 132.036119,112.153443 L132.036119,112.817781 C115.250036,112.400941 103.60587,104.897833 97.7024273,89.448724 C46.4394592,98.8666884 34.0793301,138.160311 46.1921264,175.5 L46.1986352,175.5 Z" id="Path" fill="#FFFFFF"></path>
        </g>
    </g>
</svg>