<?xml version="1.0" encoding="UTF-8"?>
<svg width="235px" height="240px" viewBox="0 0 235 240" version="1.1" xmlns="http://www.w3.org/2000/svg" xmlns:xlink="http://www.w3.org/1999/xlink">
    <title>pixverse</title>
    <defs>
        <linearGradient x1="63.4869526%" y1="4.1781566%" x2="0.0141212565%" y2="100.275758%" id="linearGradient-1">
            <stop stop-color="#E8632A" stop-opacity="0.996" offset="0%"></stop>
            <stop stop-color="#B465E6" stop-opacity="0.996" offset="58.6%"></stop>
            <stop stop-color="#979FD9" stop-opacity="0.996" offset="100%"></stop>
        </linearGradient>
    </defs>
    <g id="Page-1" stroke="none" stroke-width="1" fill="none" fill-rule="evenodd">
        <g id="pixverse" transform="translate(0, -0)" fill="url(#linearGradient-1)">
            <path d="M176.433177,94.0987716 C181.251013,94.0987716 185.165505,98.0095262 185.165505,102.822763 L185.165505,141.599398 L227.773244,104.868388 C229.065381,103.74888 230.892819,103.486201 232.448459,104.196363 C234.0041,104.906526 235,106.45874 235,108.167461 L235,215.783404 C235,217.467562 234.030634,219.00166 232.509375,219.727314 C230.988116,220.452968 229.184902,220.241145 227.873616,219.182753 L185.165505,184.677864 L185.165505,223.695162 C185.16391,225.773007 184.420029,227.782057 183.067739,229.360742 L182.194506,230.243169 C180.307682,231.898254 177.799034,232.661821 175.309015,232.338932 L65.8337244,218.20005 L65.8337244,231.276009 C65.8337276,236.090223 61.9302449,239.994466 57.1114334,240 L8.73232814,240 C3.91351351,240 0.00553886738,236.100247 0,231.286037 L0,102.83279 C0,98.0195538 3.91449192,94.1087992 8.73232814,94.0987716 L176.433177,94.0987716 L176.433177,94.0987716 Z M114.624353,137.698671 L70.0392939,137.698671 C67.6318424,137.698671 65.6786642,139.645493 65.6731299,142.050639 L65.6731299,170.599148 C65.6731299,173.005766 67.6303758,174.951116 70.0392939,174.951116 L114.624353,174.951116 C117.033271,174.951116 118.98048,173.005766 118.990517,170.599148 L118.990517,142.050639 C118.984983,139.645493 117.031805,137.698671 114.624353,137.698671 L114.624353,137.698671 Z M128.736598,0 C152.87243,0 172.438388,19.547277 172.438388,43.6600652 C172.438388,67.7728534 152.87243,87.3201304 128.736598,87.3201304 C104.600767,87.3201304 85.0348092,67.7728534 85.0348092,43.6600652 C85.0348092,19.547277 104.600767,0 128.736598,0 Z M48.6400714,13.1662071 C68.7514168,13.1662071 85.0548835,29.4541081 85.0548835,49.5462522 C85.0548835,69.6383963 68.7514168,85.9262973 48.6400714,85.9262973 C28.5287261,85.9262973 12.2252594,69.6383963 12.2252594,49.5462522 C12.2252594,29.4541081 28.5287261,13.1662071 48.6400714,13.1662071 Z" id="Shape"></path>
        </g>
    </g>
</svg>