<?xml version="1.0" encoding="UTF-8"?>
<svg width="240px" height="240px" viewBox="0 0 240 240" version="1.1" xmlns="http://www.w3.org/2000/svg" xmlns:xlink="http://www.w3.org/1999/xlink">
    <title>pmi</title>
    <g id="Page-1" stroke="none" stroke-width="1" fill="none" fill-rule="evenodd">
        <g id="pmi" transform="translate(68, 74)">
            <circle id="Oval" fill="#FFFFFF" cx="52" cy="46" r="120"></circle>
            <g id="shape" transform="translate(-17.8519, -24.8518)" fill-rule="nonzero">
                <path d="M50.10185,106.351826 C50.10185,97.1018326 57.6018566,89.601826 66.85185,89.601826 L66.85185,72.851826 L-0.14815,72.851826 L-0.14815,89.601826 C9.10179937,89.601826 16.60185,97.1018326 16.60185,106.351826 C16.60185,115.601379 9.10179937,123.101826 -0.14815,123.101826 L-0.14815,139.851826 L66.85185,139.851826 L66.85185,123.101826 C57.6018566,123.101826 50.10185,115.601379 50.10185,106.351826 Z" id="Path" fill="#05BFE0"></path>
                <path d="M106.35185,33.3441158 C106.35185,14.8441928 91.3518368,-0.148174 72.85185,-0.148174 L72.85185,66.851826 C91.3518368,66.851826 106.348325,51.8557584 106.35185,33.3596683 C106.35185,51.8597236 121.352304,66.851826 139.85185,66.851826 L139.85185,-0.148174 C121.352304,-0.148174 106.355815,14.8441928 106.35185,33.3441158 Z" id="Path" fill="#FF610F"></path>
                <path d="M43.8214123,33.3555974 L12.4145758,33.3555974 L12.4145758,12.4191382 L43.8214123,12.4191382 C49.6023711,12.4191382 54.288992,17.1061967 54.288992,22.8873898 C54.288992,28.6685829 49.6023711,33.3555974 43.8214123,33.3555974 Z M45.9127255,-0.0472901585 C45.2219357,-0.109372184 44.5236565,-0.148174 43.8175354,-0.148174 L-0.14815,-0.148174 L-0.14815,66.851826 L12.4145758,66.851826 L12.4145758,45.9110932 L43.8214123,45.9110932 C44.5276215,45.9110932 45.2259007,45.8762875 45.9166904,45.8141658 C57.6526272,44.7550132 66.85185,34.8959506 66.85185,22.8796356 C66.85185,10.8632766 57.6491028,1.01194612 45.9127255,-0.0472901585 Z" id="Shape" fill="#000000"></path>
                <polygon id="Path" fill="#4F17A8" points="72.85185 139.851826 72.85185 120.851826 91.85185 139.851826"></polygon>
                <polygon id="Path" fill="#4F17A8" points="110.419369 139.851826 71.85185 101.284752 71.85185 81.851826 129.85185 139.851826"></polygon>
                <polygon id="Path" fill="#4F17A8" points="139.85185 71.851826 139.85185 90.851826 120.85185 71.851826"></polygon>
                <polygon id="Path" fill="#4F17A8" points="139.847903 129.851826 82.85185 72.851826 102.0179 72.851826 139.85185 110.684596"></polygon>
            </g>
        </g>
    </g>
</svg>