<?xml version="1.0" encoding="UTF-8"?>
<svg width="240px" height="240px" viewBox="0 0 240 240" version="1.1" xmlns="http://www.w3.org/2000/svg" xmlns:xlink="http://www.w3.org/1999/xlink">
    <title>posthog</title>
    <g id="Page-1" stroke="none" stroke-width="1" fill="none" fill-rule="evenodd">
        <g id="posthog" transform="translate(-0, -1.0001)">
            <rect id="ViewBox" x="0" y="1" width="240" height="240"></rect>
            <g id="shape" transform="translate(0, 54)" fill-rule="nonzero">
                <path d="M0,106.011322 C0,101.555384 5.386875,99.324134 8.5378125,102.475072 L31.4615625,125.398822 C34.6125,128.549759 32.3803125,133.936634 27.9253125,133.936634 L5.0015625,133.936634 C3.67506565,133.936634 2.40289866,133.409685 1.46492374,132.47171 C0.526948822,131.533735 0,130.261568 0,128.935072 L0,106.011322 Z M0,81.8650715 C0,83.191634 0.526875,84.4638215 1.4653125,85.402259 L48.5353125,132.472259 C49.4728125,133.409759 50.745,133.936634 52.0715625,133.936634 L77.925,133.936634 C82.3809375,133.936634 84.613125,128.549759 81.4621875,125.398822 L8.5378125,52.475384 C5.3878125,49.3244465 0,51.5556965 0,56.011634 L0,81.8650715 Z M0,31.865384 C0,33.1919465 0.526875,34.464134 1.4653125,35.401634 L98.535,132.472259 C99.4725,133.409759 100.745625,133.936634 102.07125,133.936634 L127.925625,133.936634 C132.381563,133.936634 134.612813,128.549759 131.461875,125.398822 L8.5378125,2.474759 C5.3878125,-0.675240998 0,1.556009 0,6.0119465 L0,31.865384 Z M49.9996875,31.865384 C49.9996875,33.1919465 50.5275,34.464134 51.465,35.401634 L141.462187,125.398822 C144.612188,128.549759 150,126.317572 150,121.862572 L150,96.0081965 C150,94.681881 149.472274,93.4100539 148.534688,92.4719465 L58.5384375,2.474759 C55.3875,-0.675240998 49.9996875,1.556009 49.9996875,6.0119465 L49.9996875,31.865384 Z M108.537188,2.474759 C105.387187,-0.675240998 100.000313,1.556009 100.000313,6.0119465 L100.000313,31.865384 C100.000313,33.1919465 100.527188,34.464134 101.464688,35.401634 L141.462187,75.399134 C144.612188,78.549134 150,76.317884 150,71.8619465 L150,46.0094465 C149.999279,44.683131 149.472274,43.4113039 148.534688,42.4731965 L108.537188,2.474759 Z" id="Shape" fill="#F9BD2B"></path>
                <path d="M212.687813,106.624447 L165.610313,59.5469465 C162.459375,56.396009 157.0725,58.6281965 157.0725,63.0831965 L157.0725,128.935072 C157.0725,130.261568 157.599449,131.533735 158.537424,132.47171 C159.475399,133.409685 160.747566,133.936634 162.074063,133.936634 L234.998438,133.936634 C237.760724,133.936634 240,131.697358 240,128.935072 L240,122.937884 C240,120.176009 237.750938,117.970072 235.0125,117.612884 C226.562681,116.513179 218.713674,112.650148 212.687813,106.625384 M181.071563,117.937259 C176.654314,117.93519 173.073944,114.35482 173.071875,109.937572 C173.071875,105.521947 176.655938,101.936947 181.071563,101.936947 C185.489543,101.938499 189.070635,105.519591 189.072188,109.937572 C189.070118,114.355185 185.489177,117.935707 181.071563,117.937259" id="Shape" fill="#FFFFFF"></path>
                <path d="M8.115,102.093509 L8.5378125,102.474134 L31.4615625,125.398822 C34.475625,128.411947 32.565,133.472572 28.4934375,133.906634 L27.9253125,133.936634 L5.0015625,133.936634 C2.46452,133.936634 0.329022662,132.037888 0.0328125,129.518197 L0,128.935072 L0,106.011322 C0,101.748509 4.929375,99.5219465 8.115,102.093509 M8.115,52.094759 L8.5378125,52.475384 L49.9996875,93.937259 L49.9996875,133.937572 L1.4653125,85.4031965 C0.687790308,84.6254619 0.187992032,83.6133457 0.043125,82.5231965 L0,81.866009 L0,56.011634 C0,51.749759 4.929375,49.5231965 8.115,52.094759 M0,6.0119465 C0,1.749134 4.929375,-0.477428498 8.115,2.094134 L8.5378125,2.474759 L49.9996875,43.9375715 L49.9996875,83.937884 L1.4653125,35.403509 C0.687790308,34.6257744 0.187992032,33.6136582 0.043125,32.523509 L0,31.865384 L0,6.0119465 Z" id="Shape" fill="#1D4AFF"></path>
                <path d="M49.9996875,43.9375715 L98.535,92.4719465 C99.3127542,93.2493999 99.8123179,94.2617085 99.95625,95.3519465 L100.000312,96.0081965 L100.000312,133.937572 L51.465,85.4031965 C50.6878215,84.6253306 50.1883597,83.6132286 50.04375,82.5231965 L49.9996875,81.866009 L49.9996875,43.9375715 Z M49.9996875,93.9363215 L81.4621875,125.398822 C84.47625,128.411947 82.5646875,133.472572 78.4940625,133.906634 L77.925,133.936634 L49.9996875,133.936634 L49.9996875,93.9363215 Z M58.115625,2.094134 L58.539375,2.474759 L98.5359375,42.472259 C99.3133245,43.2492198 99.8128598,44.2608116 99.9571875,45.350384 L100.00125,46.008509 L100.00125,83.9369465 L51.4659375,35.4025715 C50.688759,34.6247056 50.1892972,33.6126036 50.0446875,32.5225715 L50.000625,31.865384 L50.000625,6.0119465 C50.000625,1.749134 54.93,-0.477428498 58.115625,2.094134" id="Shape" fill="#F54E00"></path>
            </g>
        </g>
    </g>
</svg>