<?xml version="1.0" encoding="UTF-8"?>
<svg width="240px" height="240px" viewBox="0 0 240 240" version="1.1" xmlns="http://www.w3.org/2000/svg" xmlns:xlink="http://www.w3.org/1999/xlink">
    <title>postman</title>
    <g id="Page-1" stroke="none" stroke-width="1" fill="none" fill-rule="evenodd">
        <g id="postman" transform="translate(0.194, 0.1929)" fill-rule="nonzero">
            <path d="M214.776913,46.4651533 C174.271132,-5.98819764 98.9074479,-15.6714173 46.4523747,24.842261 C-5.99496426,65.3559392 -15.6684771,140.719927 24.8450378,193.167477 C65.366287,245.613094 140.735772,255.280845 193.175377,214.759433 C245.601447,174.245755 255.276893,98.9049695 214.776913,46.4651533 Z" id="Path" fill="#F37036"></path>
            <path d="M171.765575,42.8648498 C167.64287,43.1948866 163.733856,44.8383647 160.610709,47.5547233 C153.032139,54.1464046 151.741851,65.449075 157.639165,73.5848745 C163.52823,81.7241743 174.650475,84.0029626 183.256187,78.8334345 L183.260047,78.8334345 L183.260047,78.8353677 L183.56106,79.1350092 C184.928218,78.3496765 186.200482,77.4091052 187.352673,76.3319109 C194.738868,68.5037209 194.605754,56.2198582 187.051659,48.5541729 L187.051659,48.5503065 L169.986508,65.5409489 L169.685495,65.2413073 L186.750646,48.2429323 C182.75495,44.3831778 177.298465,42.426275 171.765575,42.8687162 L171.765575,42.8648498 Z M149.297618,70.6773849 C141.116225,70.6638527 127.757785,79.9546739 95.1402688,112.633001 L95.302353,112.799254 C95.1248322,112.737392 94.9453819,112.731593 94.9453819,112.731593 L82.665574,124.926037 C82.0175764,125.543542 81.858334,126.51736 82.2757818,127.309741 C82.6932296,128.102122 83.5855831,128.519864 84.4600777,128.332285 L105.519446,123.831862 C105.612397,123.744324 105.674658,123.629062 105.696967,123.503223 L106.163924,123.986516 L98.9859095,131.119918 L98.6385862,131.119918 L56.0220185,174.15231 L69.6949787,187.344271 C70.4797579,188.052915 71.6327177,188.169521 72.5430297,187.632314 C73.4589027,187.100312 73.9535449,186.058474 73.7876048,185.010934 L71.7904959,176.311663 C71.5352922,175.953047 71.5352922,175.471712 71.7904959,175.113097 C90.4574829,166.197605 107.816678,154.760856 123.383441,141.122146 L114.632824,132.351348 L114.798767,132.324284 L109.608213,127.125986 L109.9401,126.789614 L110.291283,127.149184 L110.109903,127.325103 L123.881271,141.423721 L123.881271,141.417921 C150.277841,116.375621 169.014003,96.2455082 164.141829,82.6978439 C163.919851,81.0777435 163.168763,79.5768469 162.005791,78.4294017 L162.005791,78.4371344 C161.71049,78.2166482 161.398937,78.0188985 161.073807,77.845584 C160.913652,77.6754649 160.772793,77.5014795 160.602991,77.3352268 L160.475639,77.4628161 C160.118079,77.2439556 159.74235,77.0563879 159.352627,76.9021964 L159.910274,76.3377104 C156.444759,73.2446364 153.581271,70.6851176 149.297618,70.6735186 L149.297618,70.6773849 Z M55.7248641,174.409422 L45.7470379,184.407784 L45.7470379,184.415517 C45.0124788,184.871341 44.6560392,185.750426 44.8652226,186.590334 C45.0671127,187.429631 45.7835656,188.044544 46.6423601,188.115607 L71.0939197,189.807131 L55.7248641,174.409422 Z" id="Shape" fill="#FFFFFF"></path>
            <path d="M173.540283,41.8071479 C167.944623,41.8001958 162.570999,44.0000826 158.581047,47.9312679 C152.783029,53.8769296 150.982074,62.6666431 153.973163,70.4204444 C144.832586,66.4986998 132.46649,73.3376041 94.0012615,111.873091 C93.9742241,111.932287 93.9504107,111.992909 93.929926,112.054689 C93.8513512,112.090443 93.7747627,112.130427 93.7004958,112.174466 L81.5368384,124.469039 C80.3396645,125.646528 80.0551817,127.471537 80.8369798,128.95876 C81.5281243,130.124127 82.7752614,130.844496 84.1280502,130.859744 L84.7315095,130.467569 L100.972855,126.995956 L93.2030757,134.852968 C93.1577664,134.956113 93.1228884,135.063548 93.0989645,135.173663 L55.0212606,173.423229 C54.8694436,173.551149 54.7437452,173.707279 54.6510875,173.88302 L44.8453557,183.71636 C43.8482721,184.770949 43.5384662,186.302874 44.0471699,187.663219 C44.5685197,189.014319 45.8018998,189.958394 47.2399131,190.107065 L71.5672279,191.807131 C71.9821834,191.661009 72.3355482,191.378425 72.5697801,191.005395 C72.9986692,190.408169 72.9986692,189.603112 72.5697801,189.005885 L72.5196525,188.957588 C73.0445954,188.681405 73.5072532,188.300007 73.8788819,187.83709 C74.6700652,186.808259 74.9575001,185.477419 74.6616439,184.212857 L72.7645066,176.124017 C90.9654695,167.407999 108.019114,156.466841 123.536064,143.550355 C123.686658,143.63616 123.847254,143.702994 124.014204,143.74934 C124.503912,143.712634 124.962773,143.502057 125.30981,143.154316 C151.434007,118.368118 166.790407,101.382907 166.790407,87.8982881 C166.847106,86.0277902 166.565585,84.1624457 165.959446,82.3923906 C168.313717,83.3705941 170.825215,83.913837 173.372548,83.9958625 L173.343628,84.0035901 C176.852032,83.8961086 180.281627,82.9346974 183.336375,81.202344 C183.338944,81.2029948 183.341514,81.2036388 183.344087,81.2042759 C183.739538,81.3229978 184.165394,81.2849597 184.533653,81.0980218 C186.007636,80.2282905 187.351284,79.1537945 188.524582,77.9065331 C192.540884,73.9578229 194.804379,68.5570261 194.805958,62.9189005 C194.805958,57.2810561 192.542103,51.8802997 188.52651,47.9312679 C188.455491,47.8666639 188.379413,47.8078745 188.299008,47.7554656 C184.330217,43.9369775 179.040464,41.8071479 173.538355,41.8090963 L173.540283,41.8071479 Z M173.372548,45.2304803 C177.268721,45.2537826 181.050567,46.5522303 184.142272,48.9281252 L168.587289,64.6093076 C168.533858,64.6687122 168.484883,64.7319932 168.440763,64.7986332 C168.160381,65.0828934 167.996049,65.4618287 167.979974,65.8611749 C167.980138,66.3499153 168.202214,66.8120306 168.583433,67.1169059 L168.587289,67.1169059 L180.347998,78.9014584 C173.759214,81.7804048 166.082539,80.3129882 161.014164,75.2057455 C156.028395,70.1828214 154.582406,62.6407078 157.24881,56.0973833 C159.915213,49.5482631 166.271779,45.2691182 173.372548,45.2304803 L173.372548,45.2304803 Z M187.099801,51.86074 C189.643156,54.9441557 191.029789,58.8220244 191.019453,62.8223058 C191.012211,67.5086828 189.148143,72.0004116 185.836971,75.3100677 C185.173053,75.9358886 184.465632,76.5136894 183.720044,77.0391127 L174.228574,67.6752232 L172.371924,65.8148094 L172.88284,65.3028575 L187.097873,51.8568762 L187.099801,51.86074 Z M186.394159,59.961171 C186.045258,59.8506981 185.66807,59.8720009 185.333767,60.0210597 C185.002954,60.1926914 184.753411,60.4885827 184.639693,60.8440465 C184.526928,61.2025124 184.561628,61.5912526 184.736092,61.9239752 C185.434987,63.3960535 185.243122,65.1375548 184.2406,66.4214241 C183.986362,66.6672536 183.849485,67.0104929 183.864643,67.3641883 C183.872355,67.7196568 183.999602,68.0596701 184.2406,68.3146801 C184.497602,68.4130689 184.781783,68.4130689 185.038785,68.3146801 C185.511258,68.4328288 186.010156,68.2788386 186.334391,67.914778 C188.008546,65.8575817 188.357102,63.0206716 187.230904,60.6180149 L187.230904,60.6257425 C187.042915,60.3087587 186.745066,60.0721971 186.394159,59.961171 L186.394159,59.961171 Z M149.228392,72.9492934 C151.555222,73.0266168 153.794343,73.8576524 155.610022,75.3177953 C153.653633,75.5999267 151.840593,76.5079461 150.441095,77.9065331 L106.46954,121.770183 L97.8398796,113.123026 C120.644086,90.3807718 134.587274,78.5015564 143.255494,74.6087903 C145.040849,73.480196 147.117928,72.9024331 149.228392,72.9473615 L149.228392,72.9492934 Z M156.872853,78.6676993 C158.349356,78.6676993 159.765678,79.2540653 160.811726,80.2982177 C161.93813,81.3564983 162.555547,82.8493261 162.506425,84.3957646 C162.455471,85.9352814 161.767446,87.3841135 160.607359,88.3947849 L113.853723,129.169337 L108.808186,124.11357 L152.933979,80.2982177 C153.980342,79.2547734 155.396625,78.66919 156.872853,78.6696312 L156.872853,78.6676993 Z M162.64524,91.6075244 C159.386945,104.555077 142.117983,122.098605 124.110603,139.145637 L116.828604,131.856601 L162.647168,91.6075244 L162.64524,91.6075244 Z M95.2968674,115.67699 L95.8251353,116.198601 L102.598147,122.985344 L84.031651,126.965046 L95.2968674,115.67699 L95.2968674,115.67699 Z M106.465685,126.95925 L106.473396,126.966978 L108.725283,129.275591 C108.73471,129.330121 108.746287,129.384257 108.759987,129.43787 L108.91037,129.461053 L109.38851,129.951754 L110.969457,131.574545 L100.587258,132.849595 L106.467613,126.957318 L106.465685,126.95925 Z M113.921203,134.83365 L120.819533,141.742102 C105.565859,154.451965 88.8271167,165.257061 70.9714806,173.919726 C69.7760963,174.490099 69.1489885,175.826922 69.4734362,177.113147 L71.4689007,185.806669 C71.6197667,186.015988 71.6197667,186.298628 71.4689007,186.507947 C71.241825,186.712053 70.8977906,186.712053 70.6707149,186.507947 L58.9061504,174.622936 L95.1676924,137.754673 L113.923131,134.83365 L113.921203,134.83365 Z M56.2108274,177.219401 L57.8862463,178.791962 L66.546755,187.47003 L47.2360571,186.218162 L56.2108274,177.217469 L56.2108274,177.219401 Z" id="Shape" fill="#F37036"></path>
        </g>
    </g>
</svg>