<?xml version="1.0" encoding="UTF-8"?>
<svg width="240px" height="241px" viewBox="0 0 240 241" version="1.1" xmlns="http://www.w3.org/2000/svg" xmlns:xlink="http://www.w3.org/1999/xlink">
    <title>postgres</title>
    <g id="Page-1" stroke="none" stroke-width="1" fill="none" fill-rule="evenodd">
        <g id="postgres" transform="translate(-0, 0.3)">
            <rect id="box" x="0" y="0" width="240" height="240"></rect>
            <g id="shape" transform="translate(4, 0)" fill-rule="nonzero">
                <path d="M167.570086,0 L168.316793,0.00678890991 C178.344763,0.126903801 188.038348,1.84971312 197.097068,5.52796532 C207.916004,9.92094552 217.388308,16.9420555 225.077285,26.7973329 C232.749228,36.630306 232.456629,55.6939435 226.370793,79.3299819 C221.403982,98.6199751 212.86554,119.218063 201.913228,137.754583 L201.844986,137.868987 L201.963454,137.865784 C205.05923,137.769917 208.874369,137.29574 213.44591,136.367298 L213.851245,136.284196 C216.018647,135.835367 217.976756,135.621648 219.805611,135.684444 C222.593098,135.780157 225.178474,136.483316 227.505793,138.257352 C230.767747,140.743828 232.318165,144.603821 231.945695,148.505974 C231.715805,150.914394 230.842896,152.988613 229.554175,154.938496 C226.464141,159.61383 220.082959,164.382435 212.823125,167.761477 C205.78732,171.040293 194.747031,172.869399 185.795513,172.460855 L185.584069,172.451205 L185.373217,172.432627 L183.742833,172.288563 L183.726824,172.42818 C183.714469,172.532557 183.701967,172.638307 183.689392,172.744799 L183.651518,173.065868 C183.55032,173.924613 183.449053,174.790357 183.384821,175.339451 L183.374334,175.423543 L183.368848,175.655979 C182.754142,198.598314 179.424526,213.582286 172.673728,223.428514 L172.466001,223.728327 C169.014202,228.658367 164.729107,232.237029 159.558776,234.761804 C155.668424,236.661541 151.810715,237.80663 146.079748,239.03858 C130.231547,242.445657 119.459072,236.57854 113.911038,224.90358 C113.147731,223.297321 112.534634,221.717062 111.902807,219.848319 C111.889925,219.810219 111.863148,219.729378 111.826302,219.61768 L111.763958,219.428478 C111.511177,218.660778 111.011647,217.139477 110.901843,216.842238 C108.594751,210.595716 107.69426,202.428917 107.138623,188.543465 C107.136535,188.491229 107.134469,188.43915 107.132423,188.387167 L107.114471,187.920236 C107.067695,186.673097 107.028437,185.374518 106.967175,183.172275 C106.915068,181.299181 106.90622,180.985856 106.882135,180.186924 C106.871518,179.834755 106.860779,179.49153 106.849882,179.156865 L106.838634,178.825249 L106.583724,178.936528 C103.968004,180.060628 101.228236,180.873403 98.3894734,181.385779 L98.0483483,181.445823 C91.3164192,182.600733 84.9514168,182.029247 78.6435826,180.446892 C73.836876,179.241136 69.2278282,176.945714 66.310943,173.36969 L66.2907579,173.344692 L66.2458743,173.382439 C56.7344178,181.239527 45.5817868,180.50254 36.3151169,171.701055 L35.9888468,171.387067 C28.8642615,164.440671 22.659342,152.739105 16.9073608,137.044237 C8.43713825,113.93237 0.792791261,79.7090188 0.148149535,66.7777296 C-0.947879085,44.7969287 4.04832005,28.3514099 14.7769897,17.4793234 C23.9981774,8.13487033 36.5086877,3.76056701 51.1137684,3.2752361 C61.6012852,2.92673298 72.5695659,4.58128547 83.4281206,7.53489184 C86.2115901,8.29201591 88.8275671,9.09379457 91.2403263,9.90670637 L91.5039904,9.99651863 L91.8400484,9.79806398 C100.138768,4.94779334 109.921073,2.45136923 121.081201,2.56245648 L121.553576,2.5687028 C127.480956,2.66483314 133.037845,3.16282413 138.246051,4.05353658 L138.785314,4.14793336 L138.857655,4.1253784 C140.844792,3.51517958 143.286991,2.87972631 145.808064,2.33181289 L146.078464,2.27344799 C153.082257,0.772129856 160.593913,-0.0857156359 168.316793,0.00678890991 L167.570086,0 Z M168.076945,20.1554908 C161.950489,20.0821082 155.90119,20.7729496 150.276301,21.9786889 C148.277749,22.4070941 146.475297,22.8718974 144.95697,23.3261969 C144.540632,23.4507697 144.172133,23.5668529 143.869803,23.6670087 L143.820763,23.6830918 L143.060603,24.096472 L141.49813,24.3858752 L141.239213,24.4338321 L139.302926,24.7924736 L137.37497,24.3912055 C132.526495,23.382086 127.160085,22.8124009 121.226196,22.7161647 C111.926965,22.5628883 104.672492,24.8621516 98.9193735,29.2394082 L94.3390727,32.7243269 L89.0237022,30.5276565 C88.9489656,30.4967703 88.7353214,30.4114326 88.3920684,30.2793746 C87.7770506,30.0427618 87.0504537,29.7746184 86.2216787,29.482654 C83.8130635,28.6341369 81.1037755,27.7804734 78.1709039,26.9827108 C69.0853043,24.5113612 60.0015341,23.141085 51.7788551,23.4143269 C41.8851007,23.7430991 34.2138191,26.4253648 29.0532216,31.6549473 C22.6978727,38.095252 19.3759866,49.0295922 20.2107751,65.7712363 C20.4019087,69.6053083 22.0215348,79.3138887 24.3826541,90.0433012 L24.5447804,90.776377 L24.6266902,91.1439944 C27.7014498,104.909536 31.55986,118.627207 35.7613671,130.091448 C40.5538893,143.168335 45.5706309,152.629171 49.989669,156.937687 C50.8386127,157.765398 51.5606873,158.293996 52.105147,158.556358 C52.1771775,158.591068 52.2372932,158.616952 52.2860983,158.635658 L52.2979698,158.639709 L52.30579,158.637244 C52.3756065,158.607665 52.4623378,158.564579 52.5669554,158.504654 L52.6487874,158.456501 C53.3701423,158.02128 54.2898864,157.194409 55.3517382,155.913934 C59.9775821,150.33309 64.8530123,144.739402 69.6831692,139.392412 C71.3735014,137.521213 72.938926,135.812872 74.3421027,134.300605 C74.8356256,133.768713 75.2744322,133.298468 75.6538414,132.894043 C75.8854088,132.647207 76.0481485,132.474609 76.1373735,132.380427 L81.9489637,126.24601 L88.9759483,130.928957 C91.3755563,132.528112 94.0179095,133.471794 96.7455061,133.701785 L96.7784802,133.704281 L113.45809,119.435254 L111.038318,144.278299 C110.975497,144.923264 111.002899,145.596608 111.16031,146.61562 L111.231087,147.074016 L137.048375,110.828771 L124.77104,160.214204 L124.773994,160.222178 C124.83281,160.396844 124.889897,160.573485 124.945426,160.752122 L125.027573,161.021577 C125.546474,162.756894 125.910589,164.709062 126.187263,166.981569 C126.588179,170.27455 126.790765,173.942407 126.960656,179.577848 C126.985423,180.399388 126.994411,180.717665 127.047059,182.610211 C127.116309,185.099601 127.156038,186.381054 127.21018,187.735798 C127.675729,199.369924 128.44397,206.337311 129.738116,209.841252 C129.997197,210.542585 130.726348,212.763588 130.892635,213.272994 L130.915927,213.344464 C130.924441,213.370658 130.9281,213.382046 130.926194,213.376409 L131.011009,213.625232 C131.375224,214.684768 131.698004,215.505045 132.043947,216.233027 C132.808714,217.842359 133.563307,218.745107 134.416435,219.209754 C135.751991,219.937151 138.03432,220.160498 141.870396,219.335811 C150.099447,217.566863 153.341323,215.98379 156.027551,212.14718 C160.210708,206.172576 162.821882,194.41884 163.305039,174.461966 L173.34265,174.706345 L163.373667,173.506345 C163.382547,173.432135 163.518524,172.264317 163.66798,170.994919 L163.705559,170.676027 C163.711847,170.622717 163.718142,170.569374 163.724436,170.51607 L163.762118,170.197288 C163.874724,169.245787 163.981598,168.3534 164.034808,167.938636 C164.381831,165.233643 164.710759,163.404191 165.251847,161.644847 C166.194425,158.580066 167.742807,156.007452 170.375329,154.054839 C173.06709,152.058288 176.075626,151.329061 179.345795,151.398338 C179.852522,151.409073 180.362571,151.438066 180.887825,151.485555 L181.000571,151.496287 L180.935562,151.430469 C178.90289,149.342494 177.700413,147.009359 177.206184,144.772996 L177.163202,144.569966 L176.326042,140.434053 L178.677407,136.93439 C191.495086,117.857154 201.562037,95.105317 206.92135,74.2909354 C209.354156,64.8424561 210.663977,56.3018946 210.767374,49.5652641 C210.814887,46.4697056 210.603949,43.8684046 210.177487,41.875564 C209.998738,41.0402766 209.79115,40.3558014 209.573126,39.8329508 C209.431296,39.4928231 209.316753,39.2911773 209.258304,39.2162649 C199.027195,26.1026331 184.876267,20.3567128 168.076945,20.1554908 Z" id="Path" fill="#000000"></path>
                <path d="M173.369712,174.749465 C174.892141,162.023188 174.435896,160.156926 183.882698,162.218388 L186.281076,162.429764 C193.544995,162.761388 203.047149,161.257487 208.62957,158.655181 C220.646715,153.06017 227.772524,143.718615 215.923045,146.173173 C188.893873,151.768184 187.035573,142.584623 187.035573,142.584623 C215.576965,100.091981 227.508128,46.151567 217.20956,32.9480745 C189.120115,-3.0663038 140.49802,13.9640771 139.68441,14.4062426 L139.425387,14.4542337 C134.084792,13.3423493 128.107926,12.6780226 121.393758,12.5690989 C109.162194,12.3674283 99.8809077,15.7866616 92.8405437,21.1449523 C92.8405437,21.1449523 6.10128142,-14.7125111 10.136553,66.2393604 C10.994767,83.4600882 34.7367166,196.546066 63.0534788,162.388783 C73.4030987,149.898687 83.4050264,139.337942 83.4050264,139.337942 C88.3715973,142.648791 94.3178325,144.337647 100.554259,143.731018 L101.036299,143.31851 C100.885292,144.869324 100.951929,146.386167 101.229223,148.181791 C93.9357473,156.360234 96.0788639,157.796194 81.4946002,160.808311 C66.739446,163.859792 75.4081058,169.292496 81.0662993,170.712279 C87.927712,172.434028 103.80064,174.872948 114.528584,159.806968 L114.101357,161.526021 C116.962966,163.823125 116.769506,178.036588 117.175236,188.191835 C117.581504,198.347621 118.259154,207.824521 120.3222,213.411983 C122.385245,218.998367 124.819628,233.390314 143.986765,229.268469 C160.005864,225.823892 172.25355,220.866246 173.369712,174.748926" id="Path" fill="#000000"></path>
                <path d="M215.92607,146.158313 C188.89451,151.752726 187.036231,142.570146 187.036231,142.570146 C215.577307,100.079351 227.508338,46.1436249 217.212034,32.9431612 C189.122898,-3.06521041 140.499192,13.9644283 139.68774,14.4065465 L139.426571,14.4534541 C134.086034,13.3411494 128.109234,12.6785113 121.391916,12.5685209 C109.160487,12.367411 99.8825278,15.7857396 92.8422415,21.1423792 C92.8422415,21.1423792 6.10232516,-14.7096336 10.1364774,66.2330451 C10.9946819,83.4530102 34.7358319,196.5269 63.0533561,162.373268 C73.4033991,149.884507 83.4036042,139.32489 83.4036042,139.32489 C88.3706575,142.635385 94.3168271,144.324061 100.550498,143.717497 L101.034682,143.305033 C100.884214,144.855681 100.952999,146.372363 101.228678,148.167794 C93.9336713,156.345363 96.0773017,157.781169 81.4942738,160.792965 C66.7382079,163.844119 75.4067719,169.276243 81.066515,170.695873 C87.9278519,172.417439 103.80168,174.856098 114.527355,159.791729 L114.099596,161.510598 C116.957949,163.807456 118.965084,176.451498 118.62868,187.913143 C118.292277,199.375327 118.06765,207.244492 120.319832,213.391013 C122.572015,219.537535 124.816673,233.367208 143.98736,229.245804 C160.006282,225.801595 168.307275,216.876199 169.462116,201.988138 C170.281629,191.40372 172.136146,192.968387 172.253296,183.50544 L173.740778,179.025488 C175.456113,164.677674 174.013233,160.048912 183.882316,162.201812 L186.280667,162.413166 C193.544506,162.744755 203.051391,161.241014 208.631064,158.638986 C220.645927,153.044573 227.771657,143.704017 215.924996,146.158313 L215.92607,146.158313 Z" id="Path" fill="#336791"></path>
                <path d="M115.555164,151 L115.67726,151.001344 C117.515705,151.053382 118.964373,152.60377 118.91295,154.464232 C118.146223,182.204247 119.231336,207.787035 121.450663,213.404347 C123.372982,218.266897 125.093425,221.253595 127.925283,223.667579 C131.829776,226.995917 137.20618,228.183767 144.857017,226.525117 C159.09989,223.435071 164.163452,218.108915 166.508103,204.34698 C167.259094,199.943631 168.441279,191.209022 169.551408,182.353177 L169.695758,181.197725 C170.942528,171.183848 172.069258,161.248953 172.34897,157.474682 C172.486517,155.618705 174.084782,154.226977 175.918795,154.366171 C177.752808,154.505365 179.128066,156.122771 178.990519,157.978749 C178.696962,161.939832 177.520628,172.300426 176.231287,182.621041 L176.084883,183.788896 C174.983849,192.541335 173.82229,201.089776 173.071368,205.492719 C170.264276,221.968955 163.153206,229.448801 146.252656,233.115441 C136.655075,235.196131 129.172024,233.542844 123.63448,228.822431 C119.74606,225.507794 117.565832,221.722905 115.266698,215.907195 C112.552594,209.037557 111.456202,183.188871 112.255353,154.275784 C112.306775,152.415322 113.838816,150.949305 115.67726,151.001344 L115.555164,151 Z" id="Path" fill="#FFFFFF"></path>
                <path d="M50.8779537,10.0502241 C60.6943582,9.69648307 71.1238847,11.2320432 81.4748636,14.0030929 C84.733414,14.875436 87.7474587,15.8104659 90.4473098,16.7472017 C91.3970445,17.0767201 92.2414723,17.3836812 92.9718052,17.6604885 C93.4186296,17.8298418 93.7335278,17.9537732 93.9076782,18.0246933 C95.6275909,18.7251016 96.4519993,20.6821113 95.7490457,22.3957966 C95.0460922,24.109482 93.081971,24.9309054 91.3620583,24.230497 C91.3369312,24.2202644 91.275764,24.1957669 91.1796847,24.1579539 C91.0119472,24.0919391 90.811532,24.0144983 90.5795688,23.9265807 C89.9076889,23.671928 89.1230221,23.3866908 88.2346339,23.0784571 C85.6827055,22.1930443 82.8231009,21.3059255 79.728961,20.4775965 C69.9736285,17.8660067 60.1770478,16.4236364 51.1211417,16.7499724 C39.5907028,17.1654799 30.251329,20.4357115 23.6974587,27.0487306 C15.8376175,34.979507 11.9349533,47.7427477 12.861343,66.1966949 C13.0836571,70.626602 14.8706553,81.1691509 17.4533222,92.654048 C20.603428,106.662297 24.5587556,120.630179 28.8930653,132.377433 C34.0304706,146.301312 39.469799,156.490261 44.8167477,161.668484 C50.1416582,166.825365 54.6337509,166.63534 60.068501,160.125415 C64.6502101,154.633331 69.3681222,149.260461 73.9612067,144.225566 C75.5692511,142.462843 77.0474343,140.867635 78.3630192,139.467473 C78.8244457,138.976383 79.2329019,138.544428 79.5842925,138.175057 C79.7078472,138.04518 79.8155957,137.932245 79.9070259,137.836685 C79.9999763,137.739642 79.9999763,137.739642 80.0214374,137.71733 C81.3071294,136.380829 83.4367737,136.335867 84.778131,137.616904 C86.1194884,138.897941 86.164614,141.019874 84.878922,142.356375 C84.809747,142.428284 84.6712755,142.573011 84.4676199,142.787088 C84.1256538,143.146552 83.726711,143.568446 83.2749054,144.049297 C81.981256,145.426113 80.5253884,146.997239 78.9402424,148.734861 C74.4099257,153.70095 69.7560001,159.000951 65.2420866,164.411768 C57.2782046,173.951172 48.240678,174.333479 40.1271033,166.475931 C33.8739089,160.420059 28.0365924,149.485599 22.5778088,134.69069 C18.1313074,122.639364 14.0979963,108.39609 10.8876232,94.1198376 C8.22760374,82.2909604 6.38726555,71.4337274 6.14125081,66.5315547 C5.12745633,46.3364773 9.59005592,31.7420282 18.9097909,22.3381825 C26.8181999,14.3583999 37.7731523,10.5224649 50.8779537,10.0502241 Z" id="Path" fill="#FFFFFF"></path>
                <path d="M166.12877,7.00385091 C175.640249,6.91548069 184.817561,8.34483112 193.344614,11.6235492 C203.535823,15.5421477 212.417315,21.9674262 219.625332,31.1794596 C231.881364,46.844806 217.284567,103.369141 189.55798,144.520294 C188.523174,146.056129 186.439488,146.462138 184.903938,145.42714 C183.368388,144.392141 182.962454,142.308069 183.997261,140.772234 C197.265965,121.079133 207.658585,97.658264 213.213809,76.1463311 C218.314117,56.3960043 218.556554,40.6964182 214.344547,35.3127384 C202.342023,19.9731995 185.585432,13.5301604 166.191056,13.7103517 C159.453525,13.7729494 152.920077,14.6513078 146.976177,16.040947 C144.957351,16.5129335 143.174973,17.0073877 141.76741,17.4585579 C141.469295,17.5541137 141.208159,17.641591 141.007542,17.7117738 L140.99621,17.7155225 L140.938867,17.744966 C140.828538,17.7983909 140.714247,17.8462533 140.596233,17.8880959 L140.476988,17.927915 C140.362547,17.9638035 140.264013,17.99228 140.149823,18.0195031 C140.007631,18.0577314 140.007631,18.0577314 139.467776,18.1127504 C139.218531,18.1195743 139.218531,18.1195743 138.729981,18.0570832 C138.402232,17.9882398 138.402232,17.9882398 137.913698,17.7921344 C137.317469,17.4751791 137.317469,17.4751791 136.628399,16.7225824 C136.058495,15.6877007 136.058495,15.6877007 136,14.5706829 C136.148956,13.6612715 136.148956,13.6612715 136.415164,13.1340502 C136.880453,12.4607154 136.880453,12.4607154 137.155032,12.2225023 C137.739189,11.802042 137.739189,11.802042 137.884898,11.7400987 C138.004273,11.6833279 138.004273,11.6833279 138.080459,11.6503847 C138.157159,11.6175027 138.238325,11.5850101 138.329081,11.5502458 C138.653217,11.4260855 139.14301,11.256986 139.72098,11.0717276 C141.298501,10.5660798 143.254324,10.0235101 145.449904,9.51019988 C151.847404,8.01451227 158.862818,7.07135817 166.12877,7.00385091 Z" id="Path" fill="#FFFFFF"></path>
                <path d="M88.6995408,19.6660866 C97.147718,12.5303233 107.907371,8.79223639 121.050489,9.00891525 C145.110489,9.40548141 163.966838,20.229351 177.522054,37.6510462 C182.37557,43.8889751 186.217582,50.6207231 188.816872,56.9001011 C189.856169,59.410839 190.634329,61.7184738 191.072183,63.5294443 C191.293734,64.4457827 191.428658,65.2341759 191.46409,65.8958759 C191.491028,66.3989381 191.467631,66.8608786 191.351777,67.3450964 C191.054132,68.5891116 190.253081,69.7106369 188.636048,70.04702 L187.427316,70.0745297 C173.799651,67.8808244 166.365966,69.8778812 163.611391,74.8088445 C161.23425,79.0641638 161.838049,86.1493665 165.114169,95.356271 C166.551081,99.3944345 168.443438,103.695661 170.759912,108.332013 C171.669301,110.152127 173.33091,113.252596 174.972796,116.296618 L175.212842,116.741526 C175.252796,116.815559 175.292716,116.889519 175.332591,116.963387 L175.571206,117.405341 C177.55364,121.076528 179.366737,124.421316 179.610448,125.015187 C180.490887,127.161118 181.532827,129.0898 182.773424,130.961266 C183.396932,131.90184 184.054622,132.806472 184.839963,133.820993 C185.265083,134.370172 186.645761,136.105405 186.820916,136.329297 C188.566917,138.561123 189.440791,139.976237 189.884468,141.725674 L189.898893,141.78501 L189.917126,141.81679 C190.060874,142.059196 190.32482,142.350613 190.766442,142.671829 C192.040469,143.598503 194.161315,144.316458 197.356026,144.605797 C201.704469,144.999628 207.500212,144.528272 214.896629,142.993458 C218.613633,142.221686 221.287038,142.313842 223.151595,143.740149 C224.504617,144.775153 225.1351,146.352088 224.975845,148.014494 C224.865461,149.166752 224.400975,150.272157 223.667246,151.38464 C221.365838,154.874046 215.929458,158.947518 209.685734,161.862611 C204.413431,164.322534 196.033725,165.914337 188.581323,165.996674 C184.73044,166.03922 181.349809,165.674244 178.763205,164.866046 C175.18235,163.747189 172.779495,161.676919 172.594499,158.42089 C172.117985,150.010489 174.786056,145.101064 179.930323,142.77648 C180.601672,142.473112 181.280944,142.226262 182.055211,141.988319 C182.164826,141.954632 182.330186,141.905896 182.513701,141.852537 L182.556151,141.839598 L182.55294,141.834782 C182.318115,141.496473 182.028198,141.105347 181.673922,140.648767 L181.553434,140.494133 C181.471913,140.389928 181.010607,139.809376 180.536326,139.21025 L180.358579,138.985601 C180.034221,138.575426 179.725401,138.183519 179.551316,137.958632 C178.67222,136.822996 177.920838,135.789493 177.196894,134.697409 C175.72161,132.471914 174.470754,130.156519 173.415425,127.584319 C173.247421,127.174929 171.135036,123.319459 168.944505,119.260898 L168.604226,118.62994 L168.377442,118.20882 C168.264159,117.99833 168.151098,117.788044 168.038516,117.578412 L167.814068,117.160152 C166.62124,114.935495 165.502568,112.819219 164.771478,111.355964 C162.341776,106.492987 160.343468,101.950942 158.804328,97.6254836 C154.931391,86.7413414 154.180679,77.9322162 157.768353,71.5099225 C161.75981,64.3648181 170.416338,61.431965 183.8368,62.8049257 L183.880296,62.8095696 L183.806453,62.5898568 C183.511144,61.7246776 183.157604,60.7809132 182.752777,59.787877 L182.629797,59.4885173 C180.255493,53.7526631 176.713754,47.5470359 172.243621,41.8018448 C159.859941,25.885855 142.82195,16.1057542 120.940621,15.7450977 C109.392403,15.5547125 100.20648,18.7460588 93.0103824,24.8242513 C86.8883815,29.9952068 82.2953575,37.1829602 79.0645091,45.9117891 C76.6863238,52.3369661 75.1676356,59.2537548 74.3506189,66.2327503 C74.0523612,68.780482 73.8664881,71.1886728 73.7716898,73.4041076 C73.708694,74.8763189 73.69362,76.0516019 73.7047742,76.8770763 C73.7058005,76.9530303 73.7067365,76.9999447 73.7071791,77.016846 C73.7558812,78.8765971 72.2957175,80.4239142 70.445812,80.4728756 C68.5959065,80.521837 67.0567809,79.0539019 67.0080787,77.1941508 C67.0068932,77.1488787 67.0053869,77.073373 67.0039709,76.9685872 C66.9911512,76.0198553 67.0078483,74.7180215 67.0764602,73.1145616 C67.1781455,70.7381773 67.3767755,68.1647066 67.695132,65.4452905 C68.5705203,57.9676827 70.2017794,50.5381952 72.7838157,43.5622712 C76.3907855,33.8172698 81.6034709,25.6597908 88.6995408,19.6660866 Z M186.330207,147.739435 L186.174559,147.792801 C185.977876,147.858043 185.768875,147.922706 185.544895,147.988846 C185.431311,148.022386 184.329952,148.33409 184.014263,148.431106 C183.488437,148.592699 183.062543,148.747471 182.677737,148.921357 C180.260143,150.013815 179.035434,152.165662 179.259762,157.525307 L179.27025,157.760401 L179.32521,157.800913 C179.586305,157.985091 180.016829,158.191073 180.602517,158.384461 L180.752164,158.432526 C182.572555,159.001317 185.297126,159.295464 188.50768,159.259993 C195.076216,159.187421 202.539023,157.769792 206.863826,155.751948 C210.684958,153.967924 214.114462,151.687258 216.270375,149.694612 L216.416203,149.557596 L216.251698,149.591378 C201.461696,152.660417 192.130566,151.859399 186.992652,148.240637 L186.83824,148.130116 C186.706239,148.034104 186.578413,147.937221 186.454683,147.839591 L186.330207,147.739435 Z" id="Path" fill="#FFFFFF"></path>
                <path d="M105.791276,142.040364 C107.688368,141.871297 109.039852,142.23327 111.155817,143.127656 C117.843402,145.956519 121.468147,155.937157 117.081235,162.204051 C111.730071,169.849804 104.777981,174.094883 96.8214219,175.483876 C91.1628045,176.471713 85.6920975,175.971865 80.2290293,174.57691 C76.1582201,173.538532 72.1823808,171.31878 70.6900686,168.495056 C69.3584845,165.975459 69.9858967,163.197765 72.2965675,161.274952 C74.0451651,159.819866 76.8206111,158.744853 80.791879,157.909564 C83.5156878,157.337276 85.5645825,156.838374 87.1648167,156.3573 C90.428424,155.37617 91.7443437,154.571435 93.2090448,152.888043 C93.4722034,152.585593 96.9073948,148.152871 98.6354152,146.183209 L98.8252772,145.969694 C101.00461,143.55588 103.31994,142.260607 105.791276,142.040364 Z M108.601633,149.417267 C107.419704,148.917684 106.892213,148.776404 106.371778,148.822785 C105.646654,148.887407 104.778409,149.385978 103.608572,150.721913 C103.07114,151.334501 102.312131,152.261161 101.529964,153.233401 L101.282428,153.541623 C99.8780116,155.29322 98.4670216,157.099471 98.1983708,157.408233 C95.8612748,160.094276 93.46126,161.561977 89.0503652,162.888012 C87.24505,163.430739 85.0278281,163.970629 82.1381437,164.577768 C79.9879485,165.030025 78.4152801,165.53043 77.4238061,166.002748 L77.4021746,166.012705 L77.450947,166.047548 C77.6497149,166.184503 77.877894,166.329281 78.1322228,166.475712 L78.2615513,166.549037 C79.3333915,167.147456 80.6547983,167.667781 81.8478821,167.972112 C86.4906639,169.157613 91.0878331,169.577647 95.6963141,168.773135 C101.964794,167.678833 107.353637,164.388303 111.651843,158.247018 C113.389878,155.76416 111.535551,150.658321 108.601633,149.417267 Z" id="Path" fill="#FFFFFF"></path>
                <path d="M102.9813,126.337472 C102.921433,126.473145 104.320122,123.360823 104.706246,122.471522 C107.033603,117.111274 108.331576,112.728284 108.933516,107.054798 C109.716812,99.6719846 109.091234,90.8773527 106.727223,79.9520523 C104.929398,71.6454912 98.7606412,69.2650688 88.9833505,71.5188803 C85.0426703,72.4272659 80.8764926,74.0880683 77.4116149,76.016083 C75.9495572,76.829638 74.7227633,77.6346739 73.9067438,78.2979115 C73.8427817,78.349898 73.7827929,78.3998752 73.7269829,78.4474924 L73.6757345,78.4912294 L73.6782755,78.539075 C73.6881173,78.7487496 73.7005179,78.9877512 73.7156324,79.2604744 L73.725028,79.4281901 C73.7299329,79.514867 73.8701706,81.8861173 73.9162042,82.7315501 C74.4332732,92.2278147 74.3111163,100.557022 73.0388424,109.64852 C70.698693,126.371504 82.763066,140.957845 97.5823773,141.0582 L97.7165083,141.0582 L97.7671565,140.850807 C97.824753,140.620092 97.8852967,140.386892 97.9487514,140.151084 L98.0461122,139.795401 C98.139443,139.460024 98.2222192,139.164392 98.3021838,138.886124 L98.3455685,138.73593 C98.3599682,138.686349 98.3743214,138.637208 98.3886748,138.588372 L98.431782,138.442645 C98.4677825,138.321745 98.5040747,138.20191 98.5413859,138.081039 L98.5866948,137.935362 C99.0150123,136.56856 99.6076295,134.966359 101.386197,130.176014 C101.814461,129.024393 102.29739,127.873276 102.987298,126.323963 L102.9813,126.337472 Z M109.034415,129.329022 C108.46024,130.625613 108.057147,131.593037 107.71126,132.523137 C104.477235,141.233576 103.539146,144.248103 103.683517,146.976793 L103.69533,147.16677 L103.710565,147.356229 C103.733117,147.608676 103.764548,147.860827 103.803881,148.117037 C104.08641,149.957405 102.822531,151.678201 100.980928,151.960541 C99.139325,152.242881 97.4173757,150.979849 97.1348465,149.13948 C97.0777095,148.767295 97.0343142,148.391828 97.0043713,148.012093 L96.9890333,147.793579 L96.9713706,147.7936 C78.4835787,147.332577 63.804903,129.587185 66.2712812,109.367777 L66.3568054,108.714698 C67.558252,100.129322 67.674581,92.1974811 67.1791109,83.0978915 C67.1341188,82.2715867 66.9944735,79.9103539 66.988731,79.8088757 C66.9256401,78.693966 66.8984067,78.0253997 66.9019102,77.4896391 C66.9199156,74.8041357 69.5233217,72.688161 74.1292662,70.1252052 C78.1260145,67.9012336 82.8794496,66.0063273 87.4668325,64.948867 C93.205615,63.625992 98.4657728,63.6284683 102.857377,65.3231165 C108.229161,67.3960001 111.877089,71.8516391 113.321832,78.5268454 C115.830311,90.1198057 116.506529,99.6263612 115.642969,107.765698 C114.960416,114.198987 113.474935,119.215152 110.895774,125.155342 C110.74887,125.493684 110.469244,126.123212 110.175708,126.780917 L110.071723,127.01379 C109.637658,127.9854 109.203738,128.95103 109.147825,129.074222 L109.144679,129.080732 L109.034415,129.329022 Z" id="Path" fill="#FFFFFF"></path>
                <path d="M92.0076589,76.4315337 C91.8561018,77.5551476 93.9721131,80.5534718 96.7311896,80.9540934 C99.4855301,81.3563681 101.843085,79.0132556 101.992538,77.8907439 C102.14199,76.76713 100.02861,75.5294464 97.2684807,75.1271717 C94.5125616,74.7243459 92.1539537,75.3106751 92.0081852,76.4315337 L92.0076589,76.4315337 Z" id="Path" fill="#FFFFFF"></path>
                <path d="M91.4456261,75.3429965 C92.4033977,74.1450923 94.7823848,73.762628 97.4121984,74.1393609 C100.674265,74.6053159 103.248375,76.0816607 102.980884,78.0526393 C102.699549,80.1235956 99.4781038,82.3640139 96.5870022,81.9501795 C93.6742209,81.5356684 90.7385818,78.3719176 91.0185592,76.3375874 L91.1493277,75.3874167 L91.412073,75.38727 L91.4456261,75.3429965 Z M97.1150209,76.3275411 C95.9201822,76.156375 94.785948,76.185186 93.9588688,76.386342 C93.6074941,76.4718007 93.3414384,76.582157 93.1855582,76.6928655 L93.1684438,76.7054257 C93.1909688,76.7716972 93.2289552,76.8752392 93.2896415,77.0031901 L93.3219016,77.0691199 C93.4971863,77.4166145 93.7736303,77.806544 94.1144416,78.1738378 C94.9085677,79.0296709 95.9036134,79.6224566 96.8835206,79.7619053 C97.8363949,79.8983003 98.8253315,79.6116096 99.6827511,79.0153 C100.280646,78.5994821 100.72004,78.0752442 100.825641,77.8243066 L100.827567,77.8183342 L100.823895,77.812204 L100.801123,77.7824608 C100.680389,77.6318501 100.45378,77.4509268 100.138468,77.2700839 C99.396467,76.8445196 98.3126659,76.4986133 97.1150209,76.3275411 Z" id="Path" fill="#FFFFFF"></path>
                <path d="M177.99254,74.4313631 C178.141945,75.5550189 176.029227,78.5534552 173.270488,78.9540917 C170.514906,79.3563814 168.158089,77.0131815 168.007105,75.8906278 C167.861383,74.7669719 169.974627,73.5292421 172.730735,73.1269524 C175.486844,72.7246627 177.843135,73.3104626 177.99254,74.4319142 L177.99254,74.4313631 Z" id="Path" fill="#FFFFFF"></path>
                <path d="M172.157761,72.1326503 C175.163792,71.6989446 177.777228,72.3400969 177.986077,73.8896515 C178.218499,75.6169491 175.500754,78.5731155 172.842471,78.9547083 C170.214644,79.3339197 167.255347,77.2584777 167.012307,75.4722986 C166.8089,73.9219436 169.152253,72.5662806 172.157761,72.1326503 Z M176.904383,74.0025828 C176.735518,73.3735939 174.710612,72.8971806 172.307305,73.2439261 C169.849659,73.5985117 168.000385,74.6683433 168.08568,75.3185101 C168.24132,76.4623324 170.634188,78.1405209 172.693284,77.8433811 C174.80593,77.5401137 177.054176,75.0946342 176.912855,74.0440448 L176.904383,74.0025828 Z" id="Path" fill="#FFFFFF"></path>
                <path d="M188.341459,64.0049486 C190.221711,63.9053652 191.828201,65.3207757 191.929655,67.1663564 C192.131392,70.8362114 191.897497,74.0315838 191.250156,78.3978422 C191.186946,78.8241881 191.119265,79.267528 191.037207,79.7951825 C191.005302,80.0003409 190.97256,80.2097399 190.928732,80.4892095 C190.874379,80.8355973 190.844954,81.0231384 190.820131,81.18165 C190.135409,85.5541323 189.851122,87.9602583 189.751217,91.0350448 C189.740766,91.3508195 189.733656,91.6599798 189.730167,91.9675379 L189.727896,92.2747475 C189.719204,94.8334716 189.968472,97.3969604 190.637602,102.865885 C191.571055,110.495165 191.826442,114.294243 191.422972,118.986624 C190.876808,125.338545 188.956244,131.071407 185.242822,136.515027 C184.195174,138.050807 182.077502,138.462177 180.51287,137.433847 C178.948238,136.405517 178.529141,134.326894 179.576789,132.791114 C182.619987,128.329995 184.175754,123.686049 184.628229,118.423732 C184.980478,114.327057 184.746942,110.853022 183.867351,103.663967 C183.214451,98.3276997 182.936817,95.573037 182.909702,92.8963514 L182.907591,92.5548775 C182.90631,91.9858174 182.91613,91.4154643 182.935848,90.8197039 C183.046589,87.411405 183.357,84.7841639 184.080386,80.1647838 C184.105386,80.0051385 184.134999,79.8164028 184.189212,79.4709095 C184.232643,79.1939701 184.264993,78.9870752 184.29639,78.7851861 C184.376245,78.2717023 184.44169,77.8430011 184.502334,77.4339656 C185.090226,73.4686859 185.294144,70.6828583 185.120661,67.5269796 C185.019206,65.6813989 186.461207,64.1045319 188.341459,64.0049486 Z" id="Path" fill="#FFFFFF"></path>
            </g>
        </g>
    </g>
</svg>