<?xml version="1.0" encoding="UTF-8"?>
<svg width="241px" height="240px" viewBox="0 0 241 240" version="1.1" xmlns="http://www.w3.org/2000/svg" xmlns:xlink="http://www.w3.org/1999/xlink">
    <title>powershell</title>
    <defs>
        <linearGradient x1="76.0652374%" y1="67.4532258%" x2="18.9001844%" y2="29.1747984%" id="linearGradient-1">
            <stop stop-color="#A9C8FF" offset="0%"></stop>
            <stop stop-color="#C7E6FF" offset="100%"></stop>
        </linearGradient>
        <linearGradient x1="18.0204262%" y1="28.6584464%" x2="75.284078%" y2="66.8799069%" id="linearGradient-2">
            <stop stop-color="#2D4664" offset="0%"></stop>
            <stop stop-color="#29405B" offset="16.9%"></stop>
            <stop stop-color="#1E2F43" offset="44.5%"></stop>
            <stop stop-color="#0C131B" offset="79%"></stop>
            <stop stop-color="#000000" offset="100%"></stop>
        </linearGradient>
    </defs>
    <g id="Page-1" stroke="none" stroke-width="1" fill="none" fill-rule="evenodd">
        <g id="powershell" transform="translate(-146.4103, 114.9992)">
            <rect id="box" x="147" y="-115" width="240" height="240"></rect>
            <g id="shape" transform="translate(147, -85)">
                <path d="M10.0138313,180 C6.7219917,180 4.01106501,178.645161 2.0746888,176.322581 C0.138312586,174 -0.442600277,170.709677 0.331950207,167.419355 L36.3485477,11.6129032 C37.8976487,5.03225806 44.0940526,0 50.6777317,0 L229.986169,0 C233.278008,0 235.988935,1.35483871 237.925311,3.67741935 C239.861687,6 240.4426,9.29032258 239.66805,12.5806452 L203.651452,168.387097 C202.102351,174.967742 195.905947,180 189.322268,180 L10.0138313,180 Z" id="Path" fill="url(#linearGradient-1)" opacity="0.8"></path>
                <path d="M228.965783,2 L51.2915581,2 C45.6787558,2 40.2594984,6.44835165 38.904684,12.0571429 L3.29242119,167.942857 C1.93760684,173.551648 5.42141517,178 11.0342175,178 L188.708442,178 C194.321244,178 199.740502,173.551648 201.095316,167.942857 L236.707579,12.2505495 C238.062393,6.64175824 234.578585,2 228.965783,2 Z" id="Path" fill="url(#linearGradient-2)"></path>
                <path d="M119.623628,136.722079 L162.882632,136.722079 C167.926282,136.722079 172,140.986544 172,146.220206 C172,151.453868 167.926282,155.718333 162.882632,155.718333 L119.623628,155.718333 C114.579978,155.718333 110.50626,151.453868 110.50626,146.220206 C110.50626,140.986544 114.579978,136.722079 119.623628,136.722079 Z M147.75168,94.4651054 C146.975734,96.01582 145.423841,97.5665346 142.708029,99.5049279 L62.2036064,157.269048 C57.7419154,160.370477 51.5343455,159.207441 48.0425874,154.555297 C44.7448158,149.903153 45.5207621,143.506455 49.7884664,140.405026 L122.33944,87.8745682 L122.33944,86.7115322 L76.7525984,38.2517002 C73.0668538,34.3749136 73.4548269,27.9782158 77.5285447,23.9075899 C81.796249,20.0308034 88.1978056,20.0308034 91.8835502,23.9075899 L146.58776,82.0593884 C149.885532,85.7423356 150.079519,90.7821581 147.75168,94.4651054 L147.75168,94.4651054 Z" id="Shape" fill="#2C5591"></path>
                <path d="M146.090782,92.4651054 C145.318404,94.01582 143.773646,95.5665346 141.07032,97.5049279 L61.1291104,155.269048 C56.6879321,158.370477 50.5089014,157.207441 47.0331966,152.555297 C43.7505865,147.903153 44.5229654,141.506455 48.771049,138.405026 L120.98847,85.8745682 L120.98847,84.7115322 L75.6112136,36.2517002 C71.9424141,32.3749136 72.3286035,25.9782158 76.3835924,21.9075899 C80.631676,18.0308034 87.0038014,18.0308034 90.6726009,21.9075899 L145.125309,80.0593884 C148.407919,83.5484963 148.601014,88.5883188 146.090782,92.4651054 Z M118.864428,135.691276 L161.924549,135.691276 C166.945011,135.691276 171,139.761901 171,144.607885 C171,149.647707 166.945011,153.524494 161.924549,153.524494 L118.864428,153.524494 C113.843966,153.524494 109.788977,149.453868 109.788977,144.607885 C109.788977,139.568062 113.843966,135.691276 118.864428,135.691276 Z" id="Shape" fill="#FFFFFF"></path>
            </g>
        </g>
    </g>
</svg>