<?xml version="1.0" encoding="UTF-8"?>
<svg width="240px" height="240px" viewBox="0 0 240 240" version="1.1" xmlns="http://www.w3.org/2000/svg" xmlns:xlink="http://www.w3.org/1999/xlink">
    <title>projectdiscovery</title>
    <g id="Page-1" stroke="none" stroke-width="1" fill="none" fill-rule="evenodd">
        <g id="projectdiscovery">
            <rect id="box" x="0" y="0" width="240" height="240"></rect>
            <g id="shape" opacity="0.9" fill="#FFFFFF" fill-rule="nonzero">
                <path d="M76.4355075,134.992228 C49.8567076,110.975187 50.1427076,67.8229134 74.4891075,41.8906692 C101.832407,12.7645195 150.196407,7.53184055 188.354407,26.550443 C190.919407,27.8322452 192.940407,25.0366404 190.446407,23.034537 C156.356407,-9.01378767 95.1007075,-7.51159511 58.4291075,26.8623435 C22.3087076,60.7174013 21.7756076,121.015204 57.8731075,153.69126 C63.8099075,159.077269 73.4399075,161.399273 78.7919075,154.901262 C84.3923075,148.513251 81.9203075,139.945236 76.4355075,134.992228 Z" id="Path"></path>
                <path d="M105.007407,76.4346281 C129.024407,49.8567827 172.177407,50.1423832 198.109407,74.4882248 C227.236407,101.831171 232.468407,150.195254 213.449407,188.353319 C212.167407,190.917323 214.963407,192.938327 216.966407,190.445323 C249.013407,156.355264 247.511407,95.0997599 213.138407,58.4291974 C179.282407,22.3084358 118.984407,21.7752348 86.3075075,57.8727964 C80.9223075,63.8091065 78.5995075,73.439423 85.0971075,78.7910321 C91.4851075,84.3914417 100.054407,81.9194374 105.007407,76.4346281 Z" id="Path"></path>
                <path d="M163.560407,105.008177 C190.139407,129.026218 189.854407,172.178291 165.508407,198.110336 C138.165407,227.236385 89.8007075,232.469394 51.6423076,213.450362 C49.0779076,212.16836 47.0567076,214.964364 49.5503076,216.966368 C83.6407075,249.013422 144.896407,247.51142 181.567407,213.138361 C217.687407,179.283304 218.221407,118.986201 182.123407,86.3091449 C176.187407,80.9243357 166.556407,78.6019318 161.205407,85.0991429 C155.604407,91.4878538 158.077407,100.055168 163.560407,105.008177 Z" id="Path"></path>
                <path d="M134.993407,163.559277 C110.975407,190.138322 67.8235075,189.852322 41.8911076,165.50628 C12.7647077,138.164233 7.53193767,89.8001509 26.5507076,51.6418858 C27.8325076,49.0775814 25.0368076,47.056378 23.0347076,49.5499822 C-9.01386229,83.6401404 -7.51166229,144.894245 26.8626076,181.566307 C60.7179075,217.685369 121.016407,218.21937 153.693407,182.122308 C159.078407,176.186298 161.400407,166.555282 154.902407,161.204273 C148.514407,155.603263 139.946407,158.075267 134.993407,163.559277 Z" id="Path"></path>
            </g>
        </g>
    </g>
</svg>