<?xml version="1.0" encoding="UTF-8"?>
<svg width="240px" height="240px" viewBox="0 0 240 240" version="1.1" xmlns="http://www.w3.org/2000/svg" xmlns:xlink="http://www.w3.org/1999/xlink">
    <title>projecteuler</title>
    <g id="Page-1" stroke="none" stroke-width="1" fill="none" fill-rule="evenodd">
        <g id="projecteuler">
            <rect id="box" fill="#FFFFFF" x="0" y="0" width="240" height="240" rx="32"></rect>
            <path d="M32,0 L208,0 C225.673112,0 240,14.326888 240,32 L240,50 L240,50 L5.68434189e-14,50 L5.68434189e-14,32 C5.68434189e-14,14.326888 14.326888,3.55271368e-15 32,0 Z" id="top" fill="#FF8833"></path>
            <path d="M32,190 L208,190 C225.673112,190 240,204.326888 240,222 L240,240 L240,240 L5.68434189e-14,240 L5.68434189e-14,222 C5.68434189e-14,204.326888 14.326888,190 32,190 Z" id="bottom" fill="#FF8833" transform="translate(120, 215) scale(1, -1) translate(-120, -215)"></path>
            <g id="PE" transform="translate(22, 15)" fill="#523524" fill-rule="nonzero">
                <path d="M10.8398438,57.6269531 L65.9912109,57.6269531 C78.0029297,57.6269531 86.9995117,60.4833984 92.980957,66.1962891 C98.9624023,71.9091797 101.953125,80.0390625 101.953125,90.5859375 C101.953125,101.425781 98.6938477,109.897461 92.175293,116.000977 C85.6567383,122.104492 75.7080078,125.15625 62.3291016,125.15625 L44.1650391,125.15625 L44.1650391,165 L10.8398438,165 L10.8398438,57.6269531 Z M44.1650391,103.40332 L52.2949219,103.40332 C58.6914062,103.40332 63.1835938,102.29248 65.7714844,100.070801 C68.359375,97.8491211 69.6533203,95.0048828 69.6533203,91.5380859 C69.6533203,88.1689453 68.5302734,85.3125 66.2841797,82.96875 C64.0380859,80.625 59.8144531,79.453125 53.6132812,79.453125 L44.1650391,79.453125 L44.1650391,103.40332 Z" id="Shape"></path>
                <polygon id="Path" points="109.238281 57.6269531 198.154297 57.6269531 198.154297 80.5517578 142.490234 80.5517578 142.490234 97.6171875 194.125977 97.6171875 194.125977 119.516602 142.490234 119.516602 142.490234 140.683594 199.765625 140.683594 199.765625 165 109.238281 165"></polygon>
            </g>
        </g>
    </g>
</svg>