<?xml version="1.0" encoding="UTF-8"?>
<svg width="240px" height="240px" viewBox="0 0 240 240" version="1.1" xmlns="http://www.w3.org/2000/svg" xmlns:xlink="http://www.w3.org/1999/xlink">
    <title>prometheus</title>
    <g id="Page-1" stroke="none" stroke-width="1" fill="none" fill-rule="evenodd">
        <g id="prometheus" transform="translate(-1, 0)">
            <rect id="ViewBox" x="1.00003098" y="0" width="240" height="240"></rect>
            <path d="M121.234406,0.956247568 C187.054406,0.969375 241.084406,54.624375 241.00013,119.908125 C240.915656,186.174375 187.108781,239.090625 119.860031,239.043781 C54.109406,238.99875 0.953155978,185.28375 1,118.93875 C1.04315598,54.06375 55.183781,0.943125 121.234406,0.956247568" id="Path" fill="#FFFFFF"></path>
            <path d="M121.234406,0.956247568 C187.054406,0.969375 241.084406,54.624375 241.00013,119.908125 C240.915656,186.174375 187.108781,239.090625 119.860031,239.043781 C54.109406,238.99875 0.953155978,185.28375 1,118.93875 C1.04315598,54.06375 55.183781,0.943125 121.234406,0.956247568 M84.850031,42.736875 C86.355656,50.161875 84.896906,57.09 82.661906,63.90375 C81.118781,68.619375 78.983156,73.16625 77.708156,77.95125 C75.604406,85.831875 73.225031,93.7575 72.347531,101.8125 C71.089406,113.401875 75.643781,123.609375 83.436281,133.7625 L47.612531,126.22125 C47.674406,127.35 47.612531,127.7775 47.734406,128.14125 C51.130031,138.11625 57.105656,146.52 63.803156,154.4475 C64.510031,155.28375 66.122531,155.71125 67.322531,155.71125 C103.041281,155.7825 138.761906,155.775 174.482531,155.728125 C175.588781,155.728125 177.071906,155.521875 177.746906,154.809375 C185.404406,146.758125 191.256281,137.5875 194.921906,126.043125 L156.994406,133.471875 C159.499406,128.563125 162.347531,124.254375 163.993781,119.51625 C169.607531,103.310625 167.278781,87.645 159.221906,72.86625 C152.755031,61.00875 146.788781,49.20375 150.015656,34.910625 C143.186906,41.660625 140.560031,50.24625 138.893156,59.094375 C137.258156,67.813125 136.288781,76.651875 135.021281,85.5 C134.837531,85.231875 134.608781,85.03125 134.567531,84.800625 C134.407674,83.8759429 134.297516,82.9433541 134.237531,82.006875 C133.463156,67.520625 130.637531,53.563125 124.663781,40.231875 C121.151906,32.390625 117.274406,24.365625 120.898781,15.001875 C118.448156,16.30125 116.230031,17.58375 114.640031,19.419375 C109.901906,24.894375 107.940656,31.471875 107.436281,38.67375 C107.003156,44.8275 106.412531,51.009375 105.268781,57.06 C104.068781,63.42 102.175031,69.64875 97.896281,75.493125 C96.175031,63.013125 95.983781,50.660625 84.853781,42.736875 L84.850031,42.736875 Z M176.953781,166.65 L64.915031,166.65 L64.915031,186.1125 L176.953781,186.1125 L176.953781,166.65 Z M87.1333992,196.17375 C87.041906,212.3775 103.545656,224.450625 123.945656,223.575 C140.858156,222.845625 155.818781,209.5425 154.536281,196.17375 L87.1333992,196.17375 Z" id="Shape" fill="#E75225" fill-rule="nonzero"></path>
        </g>
    </g>
</svg>