<?xml version="1.0" encoding="UTF-8"?>
<svg width="240px" height="240px" viewBox="0 0 240 240" version="1.1" xmlns="http://www.w3.org/2000/svg" xmlns:xlink="http://www.w3.org/1999/xlink">
    <title>publicwww</title>
    <g id="Page-1" stroke="none" stroke-width="1" fill="none" fill-rule="evenodd">
        <g id="publicwww">
            <rect id="box" fill="#FFFFFF" x="0" y="0" width="240" height="240" rx="32"></rect>
            <path d="M135.626892,143.445918 C129.983803,147.455699 123.231251,149.607806 116.30816,149.602995 C97.8776446,149.602995 83,134.728326 83,116.301498 C83,97.874669 97.8776446,83 116.30816,83 C134.738675,83 149.616319,97.874669 149.616319,116.301498 C149.616319,123.494621 147.336561,130.14012 143.458011,135.616366 L155.37493,147.530902 C156.776469,148.932161 157.323832,150.97454 156.810833,152.888695 C156.297835,154.80285 154.80241,156.297975 152.887872,156.810871 C150.973334,157.323767 148.930547,156.776514 147.529008,155.375255 L135.612089,143.460719 L135.626892,143.445918 Z M143.022222,116.3 C143.022222,130.582 131.404222,142.2 117.122222,142.2 C102.840222,142.2 91.2222222,130.582 91.2222222,116.3 C91.2222222,102.018 102.840222,90.4 117.122222,90.4 C131.404222,90.4 143.022222,102.018 143.022222,116.3 M73,95.3333333 L48.5,120 L73,144.666667 L60.75,157 L24,120 L60.75,83 M167,95.3333333 L191.5,120 L167,144.666667 L179.25,157 L216,120 L179.25,83" id="Combined-Shape" fill="#595959"></path>
        </g>
    </g>
</svg>