<?xml version="1.0" encoding="UTF-8"?>
<svg width="240px" height="240px" viewBox="0 0 240 240" version="1.1" xmlns="http://www.w3.org/2000/svg" xmlns:xlink="http://www.w3.org/1999/xlink">
    <title>pulumi</title>
    <g id="Page-1" stroke="none" stroke-width="1" fill="none" fill-rule="evenodd">
        <g id="pulumi">
            <rect id="ViewBox" x="0" y="0" width="240" height="240"></rect>
            <path d="M45.2925,203.5125 C54.16875,198.38625 54.18375,181.79625 45.33,166.45125 C36.466875,151.11375 22.089375,142.83 13.21125,147.950625 C4.3425,153.076875 4.32,169.666875 13.183125,185.011875 C22.03875,200.355 36.414375,208.640625 45.2925,203.5125" id="Path" fill="#F26E7E" fill-rule="nonzero"></path>
            <path d="M226.8375,185.0325 C235.693125,169.695 235.678125,153.099375 226.8,147.97875 C217.93125,142.8525 203.55375,151.13625 194.690625,166.471875 C185.836875,181.816875 185.851875,198.405 194.728125,203.533125 C203.604375,208.66125 217.981875,200.3775 226.8375,185.0325" id="Path" fill="#893390" fill-rule="nonzero"></path>
            <path d="M105.78375,238.48125 C114.66,233.355 114.675,216.765 105.81375,201.42 C96.958125,186.075 82.580625,177.79875 73.704375,182.919375 C64.82625,188.045625 64.81125,204.635625 73.674375,219.980625 C82.53,235.32375 96.9075,243.609375 105.78375,238.48125" id="Path" fill="#F26E7E" fill-rule="nonzero"></path>
            <path d="M166.363125,219.9375 C175.21875,204.5925 175.20375,188.004375 166.325625,182.87625 C157.449375,177.7575 143.079375,186.039375 134.21625,201.376875 C125.3625,216.721875 125.3775,233.31 134.25375,238.438125 C143.1225,243.56625 157.5,235.2825 166.363125,219.9375" id="Path" fill="#893390" fill-rule="nonzero"></path>
            <path d="M119.97,37.119375 C137.68875,37.119375 152.049375,28.805625 152.049375,18.560625 C152.049375,8.304375 137.686875,3.55271368e-15 119.97,3.55271368e-15 C102.253125,3.55271368e-15 87.890625,8.30625 87.890625,18.5625 C87.890625,28.8075 102.253125,37.12125 119.97,37.12125" id="Path" fill="#F6BF29" fill-rule="nonzero"></path>
            <path d="M45.271875,133.60125 C54.148125,128.475 54.163125,111.885 45.309375,96.54 C36.44625,81.2025 22.06875,72.91875 13.2,78.039375 C4.321875,83.165625 4.306875,99.755625 13.1625,115.100625 C22.018125,130.445625 36.395625,138.729375 45.271875,133.60125" id="Path" fill="#F26E7E" fill-rule="nonzero"></path>
            <path d="M59.49375,71.99625 C77.2125,71.99625 91.573125,63.6825 91.573125,53.4375 C91.573125,43.1925 77.210625,34.875 59.49375,34.875 C41.776875,34.875 27.414375,43.190625 27.414375,53.4375 C27.414375,63.684375 41.776875,71.99625 59.49375,71.99625" id="Path" fill="#F6BF29" fill-rule="nonzero"></path>
            <path d="M226.8,115.13625 C235.655625,99.79875 235.648125,83.203125 226.77,78.0825 C217.89375,72.95625 203.51625,81.24 194.653125,96.575625 C185.799375,111.920625 185.814375,128.51625 194.690625,133.636875 C203.566875,138.765 217.944375,130.48125 226.8,115.13625" id="Path" fill="#893390" fill-rule="nonzero"></path>
            <path d="M180.526875,71.99625 C198.245625,71.99625 212.60625,63.6825 212.60625,53.4375 C212.60625,43.1925 198.24375,34.875 180.526875,34.875 C162.81,34.875 148.4475,43.190625 148.4475,53.4375 C148.4475,63.684375 162.81,71.99625 180.526875,71.99625" id="Path" fill="#F6BF29" fill-rule="nonzero"></path>
            <path d="M105.76125,168.57375 C114.6375,163.4475 114.6525,146.8575 105.79875,131.5125 C96.935625,116.1675 82.558125,107.89125 73.689375,113.011875 C64.81125,118.138125 64.79625,134.728125 73.651875,150.073125 C82.5075,165.418125 96.885,173.701875 105.76125,168.57375" id="Path" fill="#F26E7E" fill-rule="nonzero"></path>
            <path d="M166.325625,150.050625 C175.18875,134.713125 175.16625,118.1175 166.295625,112.996875 C157.419375,107.870625 143.041875,116.154375 134.17875,131.49 C125.325,146.835 125.34,163.423125 134.21625,168.55125 C143.0925,173.679375 157.47,165.395625 166.325625,150.050625" id="Path" fill="#893390" fill-rule="nonzero"></path>
            <path d="M119.97,106.955625 C137.68875,106.955625 152.049375,98.641875 152.049375,88.396875 C152.049375,78.140625 137.686875,69.83625 119.97,69.83625 C102.253125,69.83625 87.890625,78.1425 87.890625,88.396875 C87.890625,98.641875 102.253125,106.955625 119.97,106.955625" id="Path" fill="#F6BF29" fill-rule="nonzero"></path>
        </g>
    </g>
</svg>