<?xml version="1.0" encoding="UTF-8"?>
<svg width="240px" height="240px" viewBox="0 0 240 240" version="1.1" xmlns="http://www.w3.org/2000/svg" xmlns:xlink="http://www.w3.org/1999/xlink">
    <title>pwa</title>
    <g id="Page-1" stroke="none" stroke-width="1" fill="none" fill-rule="evenodd">
        <g id="pwa">
            <rect id="ViewBox" x="0" y="0" width="240" height="240"></rect>
            <g id="shape" transform="translate(0, 75)" fill-rule="nonzero">
                <polygon id="Path" fill="#FFFFFF" points="176.633437 74.176875 183.566719 56.6442188 203.585625 56.6442188 194.085469 30.0478125 205.967344 0 240 90.3604687 214.902187 90.3604687 209.086406 74.176875"></polygon>
                <polygon id="Path" fill="#843CEF" points="155.221875 90.3609375 191.654531 0 167.500781 0.00046875 142.57875 58.393125 124.856719 0.00046875 106.290938 0.00046875 87.2620313 58.393125 73.8421875 31.785 61.6982813 69.1992188 74.0282813 90.3609375 97.7985938 90.3609375 114.99375 37.995 131.38875 90.3609375"></polygon>
                <path d="M22.9275,59.3414062 L37.8046875,59.3414062 C42.31125,59.3414062 46.3242188,58.8382813 49.8435938,57.8320313 L53.6910938,45.97875 L64.4442188,12.8503125 C63.6182392,11.5429344 62.6793392,10.3104125 61.6382812,9.166875 C56.1170313,3.055625 48.0389063,0 37.4039063,0 L0,0 L0,90.3609375 L22.9275,90.3609375 L22.9275,59.3414062 Z M42.6196875,20.788125 C44.77625,22.9584375 45.8545312,25.863125 45.8545312,29.5021875 C45.8545312,33.16875 44.90625,36.0767188 43.0096875,38.2260938 C40.930625,40.6142188 37.1025,41.8082813 31.5253125,41.8082813 L22.9275,41.8082813 L22.9275,17.533125 L31.588125,17.533125 C36.7865625,17.533125 40.46375,18.6182813 42.6196875,20.7885938" id="Shape" fill="#FFFFFF"></path>
            </g>
        </g>
    </g>
</svg>