<?xml version="1.0" encoding="UTF-8"?>
<!DOCTYPE svg PUBLIC "-//W3C//DTD SVG 1.1//EN" "http://www.w3.org/Graphics/SVG/1.1/DTD/svg11.dtd">
<svg xmlns="http://www.w3.org/2000/svg" version="1.1" width="512px" height="512px" style="shape-rendering:geometricPrecision; text-rendering:geometricPrecision; image-rendering:optimizeQuality; fill-rule:evenodd; clip-rule:evenodd" xmlns:xlink="http://www.w3.org/1999/xlink">
<g><path style="opacity:1" fill="#fefefe" d="M 87.5,-0.5 C 107.5,-0.5 127.5,-0.5 147.5,-0.5C 147.783,0.28913 148.283,0.955796 149,1.5C 149.5,10.8274 149.666,20.1607 149.5,29.5C 170.167,29.5 190.833,29.5 211.5,29.5C 211.334,20.1607 211.5,10.8274 212,1.5C 212.717,0.955796 213.217,0.28913 213.5,-0.5C 240.833,-0.5 268.167,-0.5 295.5,-0.5C 295.987,0.473444 296.487,1.47344 297,2.5C 297.5,11.4938 297.666,20.4938 297.5,29.5C 318.167,29.5 338.833,29.5 359.5,29.5C 359.193,19.4176 359.526,9.41756 360.5,-0.5C 381.167,-0.5 401.833,-0.5 422.5,-0.5C 422.987,0.473444 423.487,1.47344 424,2.5C 424.667,50.1667 424.667,97.8333 424,145.5C 410.881,153.64 397.714,161.64 384.5,169.5C 418.594,223.131 430.761,281.465 421,344.5C 419.236,357.222 416.07,369.556 411.5,381.5C 408.709,383.04 406.209,382.706 404,380.5C 400.121,392.09 395.288,403.256 389.5,414C 392.291,415.119 393.957,417.119 394.5,420C 368.684,470.908 327.684,501.408 271.5,511.5C 260.5,511.5 249.5,511.5 238.5,511.5C 182.586,501.371 141.586,471.038 115.5,420.5C 116.389,417.611 118.055,415.278 120.5,413.5C 114.93,403.621 110.43,393.288 107,382.5C 104.631,382.273 102.131,382.107 99.5,382C 98.2986,381.097 97.4652,379.931 97,378.5C 75.7931,304.474 85.2931,234.807 125.5,169.5C 112.785,161.722 99.9517,154.055 87,146.5C 86.1719,97.4293 86.3386,48.4293 87.5,-0.5 Z M 167.5,83.5 C 186.5,83.5 205.5,83.5 224.5,83.5C 224.828,88.8746 224.495,94.2079 223.5,99.5C 202.615,104.396 183.781,113.396 167,126.5C 167.391,112.197 167.557,97.8637 167.5,83.5 Z M 285.5,83.5 C 304.5,83.5 323.5,83.5 342.5,83.5C 342.862,97.8389 343.028,112.172 343,126.5C 325.982,113.076 306.815,104.076 285.5,99.5C 285.5,94.1667 285.5,88.8333 285.5,83.5 Z"/></g>
<g><path style="opacity:1" fill="#003b5b" d="M 168.5,228.5 C 192.47,240.905 215.97,254.238 239,268.5C 240.373,270.695 240.706,273.029 240,275.5C 232.462,289.416 224.295,302.916 215.5,316C 198.409,316.971 181.409,316.638 164.5,315C 157,302.167 149.5,289.333 142,276.5C 141.21,273.366 141.543,270.366 143,267.5C 149.586,256.663 155.919,245.663 162,234.5C 163.436,231.558 165.603,229.558 168.5,228.5 Z"/></g>
<g><path style="opacity:1" fill="#013b5b" d="M 339.5,228.5 C 342.559,228.797 345.059,230.13 347,232.5C 353.081,243.663 359.414,254.663 366,265.5C 368.788,269.67 369.121,274.003 367,278.5C 359.959,290.749 352.793,302.916 345.5,315C 328.591,316.638 311.591,316.971 294.5,316C 285.705,302.916 277.538,289.416 270,275.5C 269.294,273.029 269.627,270.695 271,268.5C 293.743,254.904 316.576,241.571 339.5,228.5 Z"/></g>
<g><path style="opacity:1" fill="#9dc4da" d="M 189.5,246.5 C 203.526,246.023 209.693,252.69 208,266.5C 203.936,274.61 197.436,277.443 188.5,275C 179.643,269.429 177.476,261.929 182,252.5C 184.114,249.879 186.614,247.879 189.5,246.5 Z"/></g>
<g><path style="opacity:1" fill="#9dc4d9" d="M 317.5,246.5 C 331.47,245.305 337.97,251.638 337,265.5C 332.957,274.413 326.124,277.58 316.5,275C 309.156,270.464 306.656,263.964 309,255.5C 311.362,251.973 314.196,248.973 317.5,246.5 Z"/></g>
<g><path style="opacity:1" fill="#97bfd5" d="M 174.5,281.5 C 181.655,281.153 184.821,284.486 184,291.5C 179.162,297.036 174.829,296.703 171,290.5C 170.333,288.833 170.333,287.167 171,285.5C 172.376,284.295 173.542,282.962 174.5,281.5 Z"/></g>
<g><path style="opacity:1" fill="#9cc3d8" d="M 303.5,281.5 C 311.587,281.251 314.253,284.918 311.5,292.5C 307.441,296.353 303.608,296.02 300,291.5C 298.756,287.191 299.923,283.858 303.5,281.5 Z"/></g>
<g><path style="opacity:1" fill="#003a5a" d="M 241.5,338.5 C 294.099,336.252 343.765,347.085 390.5,371C 392.717,372.268 394.717,373.768 396.5,375.5C 392.655,387.518 387.488,398.851 381,409.5C 341.575,389.078 299.575,379.078 255,379.5C 210.606,379.01 168.773,389.01 129.5,409.5C 126.939,407.393 125.106,404.726 124,401.5C 120.223,392.946 116.723,384.28 113.5,375.5C 131.101,364.016 150.101,355.516 170.5,350C 193.928,343.761 217.594,339.928 241.5,338.5 Z"/></g>
</svg>
