<?xml version="1.0" encoding="UTF-8"?>
<svg width="240px" height="240px" viewBox="0 0 240 240" version="1.1" xmlns="http://www.w3.org/2000/svg" xmlns:xlink="http://www.w3.org/1999/xlink">
    <title>pythagora</title>
    <g id="Page-1" stroke="none" stroke-width="1" fill="none" fill-rule="evenodd">
        <g id="pythagora">
            <rect id="box" fill="#FFD11A" x="0" y="0" width="240" height="240" rx="32"></rect>
            <path d="M108.371633,59.715516 C105.146837,62.1430413 102.344433,67.3620279 96.7396228,77.8000011 L59.9505167,146.3136 C54.8873409,155.7424 52.3557664,160.457067 52.0561539,164.272 C51.4458722,172.042667 55.8559425,179.345067 63.0448822,182.4672 C66.5741743,184 71.9531188,184 82.7109011,184 L156.289327,184 C167.047002,184 172.42584,184 175.955185,182.4672 C183.14404,179.345067 187.554121,172.042667 186.943848,164.272 C186.644045,160.457067 184.112796,155.7424 179.049764,146.3136 L142.260498,77.8000544 C136.655475,67.3620279 133.85323,62.1430413 130.628488,59.715516 C124.047774,54.7614947 114.952347,54.7614947 108.371633,59.715516 Z M119.041584,86.1895568 C116.786655,86.8004182 115.211877,89.7422202 112.06232,95.6258775 L79.9170474,155.678755 C77.2109196,160.734031 80.8095458,166.847956 86.5789073,166.996156 C95.6636052,167.230408 160.664371,156.765025 148.485519,133.413655 L128.82341,95.7146914 C125.737718,89.7979945 124.194871,86.8396726 121.946861,86.2049611 C120.997949,85.937032 119.993157,85.9316671 119.041584,86.1895568 Z" id="Shape" fill="#000000"></path>
        </g>
    </g>
</svg>