<?xml version="1.0" encoding="UTF-8"?>
<svg width="240px" height="240px" viewBox="0 0 240 240" version="1.1" xmlns="http://www.w3.org/2000/svg" xmlns:xlink="http://www.w3.org/1999/xlink">
    <title>python</title>
    <defs>
        <linearGradient x1="12.5954569%" y1="11.9741171%" x2="79.4032464%" y2="78.826497%" id="linearGradient-1">
            <stop stop-color="#387EB8" offset="0%"></stop>
            <stop stop-color="#366994" offset="100%"></stop>
        </linearGradient>
        <linearGradient x1="18.7930697%" y1="20.6417099%" x2="90.4197009%" y2="89.0813044%" id="linearGradient-2">
            <stop stop-color="#FFE052" offset="0%"></stop>
            <stop stop-color="#FFC331" offset="100%"></stop>
        </linearGradient>
    </defs>
    <g id="Page-1" stroke="none" stroke-width="1" fill="none" fill-rule="evenodd">
        <g id="python" transform="translate(0.21, -0.4507)" fill-rule="nonzero">
            <path d="M119.672295,0.450720558 C62.8707501,0.450720558 62.2605452,22.4401797 62.2605452,26.9663307 C62.2605452,33.8329925 62.2605452,54.4373404 62.2605452,54.4373404 L120.765852,54.4373404 L120.765852,62.6847509 C120.765852,62.6847509 59.8503452,62.6847509 39.022456,62.6847509 C21.6370845,62.6847509 -0.21,73.2268654 -0.21,119.943287 C-0.21,162.855561 16.8319945,179.450721 34.0314612,179.450721 C39.138373,179.450721 54.467857,179.450721 54.467857,179.450721 C54.467857,179.450721 54.467857,158.150545 54.467857,150.821452 C54.467857,138.844057 60.418995,116.671371 88.1625396,116.671371 C122.959528,116.671371 131.841399,116.671371 146.188869,116.671371 C154.722988,116.671371 178.79,112.971924 178.79,85.2478861 C178.79,55.9053402 178.79,46.2248304 178.79,32.4195246 C178.792181,25.5419565 177.613327,0.450720558 119.672295,0.450720558 Z M87.4123594,18.9239603 C93.2344576,18.9239603 97.9389404,23.6137071 97.9389404,29.4224493 C97.9389404,35.2268289 93.2344576,39.9209382 87.4123594,39.9209382 C81.5902612,39.9209382 76.8857784,35.2290101 76.8857784,29.4224493 C76.8857784,23.6137071 81.5902612,18.9239603 87.4123594,18.9239603 Z" id="Shape" fill="url(#linearGradient-1)"></path>
            <path d="M119.909166,240.450721 C176.683774,240.450721 177.390203,218.046819 177.390203,213.93511 C177.390203,207.068449 177.390203,186.464101 177.390203,186.464101 L118.815622,186.464101 L118.815622,178.21669 C118.815622,178.21669 180.124062,178.21669 200.558022,178.21669 C218.074407,178.21669 239.79,167.410641 239.79,120.958154 C239.79,70.0863985 216.742471,61.4507206 205.548956,61.4507206 C200.439919,61.4507206 185.112809,61.4507206 185.112809,61.4507206 C185.112809,61.4507206 185.112809,83.7346522 185.112809,90.0799887 C185.112809,102.057384 179.358582,124.23007 151.418537,124.23007 C116.621973,124.23007 108.822819,124.23007 93.3907282,124.23007 C84.8785832,124.23007 60.79,128.365773 60.79,155.653555 C60.79,187.227548 60.79,195.49459 60.79,208.481916 C60.79,219.889998 67.7799321,240.450721 119.909166,240.450721 Z M152.170895,221.977481 C146.348868,221.977481 141.644443,217.285553 141.644443,211.478992 C141.644443,205.672431 146.346681,200.980503 152.170895,200.980503 C157.990736,200.980503 162.697348,205.672431 162.697348,211.478992 C162.697348,217.285553 157.990736,221.977481 152.170895,221.977481 Z" id="Shape" fill="url(#linearGradient-2)"></path>
        </g>
    </g>
</svg>