<?xml version="1.0" encoding="UTF-8"?>
<svg width="240px" height="240px" viewBox="0 0 240 240" version="1.1" xmlns="http://www.w3.org/2000/svg" xmlns:xlink="http://www.w3.org/1999/xlink">
    <title>qarabug</title>
    <g id="Page-1" stroke="none" stroke-width="1" fill="none" fill-rule="evenodd">
        <g id="qarabug">
            <rect id="box" fill="#111827" x="0" y="0" width="240" height="240" rx="32"></rect>
            <path d="M198.813625,120.695694 L179.531325,102.818899 L163.307107,102.818899 L163.307107,91.3929114 L177.920371,91.3929114 L190.693324,71.8707611 C190.966367,71.4500779 191.157497,70.9801253 191.244871,70.4877641 C191.337706,69.9954029 191.326784,69.490275 191.223028,69.0012516 C191.113811,68.5122336 190.906298,68.0489075 190.616872,67.6377515 C190.327447,67.226601 189.956108,66.8756839 189.530161,66.6050543 C189.098753,66.3344258 188.623658,66.1493936 188.121259,66.0605327 C187.61886,65.9716717 187.105539,65.9807239 186.6086,66.0871718 C186.111662,66.1936198 185.642028,66.3953765 185.221542,66.6809115 C184.801055,66.9664437 184.446099,67.3301603 184.173056,67.7512695 L173.688203,83.7767151 L163.312568,83.7767151 L163.318028,73.0717141 L77.7408769,73.0717141 L77.7463377,83.7767151 L67.3750706,83.7767151 L56.8929481,67.7512695 C56.6177207,67.3301603 56.2605804,66.9664437 55.8428245,66.6809115 C55.4245226,66.3953765 54.9527042,66.1936198 54.4552198,66.0871718 C53.9577353,65.9807239 53.4438683,65.9716717 52.9425613,66.0605327 C52.4412543,66.1493936 51.9628828,66.3344258 51.5342053,66.6050543 C51.1060738,66.8756839 50.7363735,67.226601 50.4458557,67.6377515 C50.1553379,68.0489075 49.9505556,68.5122336 49.8429766,69.0012516 C49.7348516,69.490275 49.7261142,69.9954029 49.8167645,70.4877641 C49.9074148,70.9801253 50.0963606,71.4500779 50.3721341,71.8707611 L63.1423573,91.3942225 L77.7517986,91.3942225 L77.7517986,102.820211 L61.5281268,102.820211 L42.2474652,120.696787 C41.8706658,121.038215 41.5664958,121.450114 41.3529761,121.9079 C41.1389104,122.365687 41.0198636,122.860621 41.0023889,123.364296 C40.984368,123.867425 41.0684653,124.369461 41.2492198,124.840905 C41.4305204,125.312349 41.7046556,125.743367 42.0568811,126.109925 C42.4085606,126.476482 42.8306851,126.770383 43.299227,126.97524 C43.7672228,127.180643 44.2723524,127.292085 44.7851272,127.304104 C45.297356,127.316122 45.8074004,127.227624 46.2852257,127.044618 C46.762505,126.861613 47.1988278,126.587378 47.5674359,126.237755 L64.6075063,110.437773 L77.7572594,110.437773 L77.7627203,124.565031 L77.7627203,124.630585 C77.7572594,125.074715 77.7627203,125.535233 77.773642,126.005584 L61.6619179,126.005584 L61.6619179,142.201842 L47.3085911,156.30856 C46.9416212,156.660914 46.6494652,157.081007 46.4490516,157.544803 C46.248638,158.008599 46.1437894,158.506811 46.141059,159.010486 C46.1377825,159.514707 46.2366241,160.014011 46.4315768,160.479992 C46.6265295,160.94652 46.9137708,161.369891 47.276372,161.726068 C47.6389732,162.082246 48.0698351,162.364129 48.5443839,162.555875 C49.0189327,162.747075 49.5273389,162.844314 50.0401137,162.841036 C50.5528886,162.838305 51.0602025,162.735057 51.5320209,162.538394 C52.0043854,162.341185 52.4319708,162.054386 52.7902033,161.693838 L69.4130639,145.359916 L69.4130639,133.625714 L78.756597,133.625714 C80.9900891,143.204821 87.6632612,155.319238 105.154399,166.058109 L110.440512,169.088898 C112.761378,170.324594 117.878205,172.821117 120.532183,174 C123.180701,172.821117 128.297527,170.326233 130.618393,169.088898 L135.904507,166.058109 C153.395644,155.319238 160.068816,143.204821 162.302308,133.623529 L171.645841,133.623529 L171.645841,145.358277 L188.268702,161.691652 C188.629119,162.052201 189.055066,162.339546 189.530161,162.536209 C189.999795,162.733418 190.507655,162.83612 191.020976,162.839397 C191.534297,162.842129 192.042157,162.745436 192.517252,162.55369 C192.992347,162.36249 193.423755,162.080061 193.784172,161.723883 C194.144588,161.367705 194.434014,160.944335 194.630605,160.478353 C194.821735,160.012372 194.920031,159.512522 194.920031,159.008847 C194.91457,158.505172 194.810813,158.006414 194.614222,157.542618 C194.412171,157.078822 194.117284,156.658729 193.751406,156.306921 L179.400264,142.202935 L179.400264,126.008862 L163.290724,126.008862 C163.301646,125.535779 163.307107,125.075807 163.301646,124.633863 L163.301646,124.568308 L163.307107,110.44105 L176.45686,110.44105 L193.494746,126.239941 C194.248345,126.920065 195.236761,127.282252 196.257942,127.24729 C197.279123,127.212874 198.245695,126.78404 198.944685,126.05475 C199.643675,125.324913 200.025936,124.353618 200,123.350639 C199.976788,122.348206 199.550841,121.394939 198.813625,120.698972 L198.813625,120.695694 Z M84.7724012,82.82215 C85.0181377,82.6013 85.3075606,82.4262 85.6297484,82.3069 C85.9464754,82.1876 86.2905064,82.1264 86.6399983,82.1269 L109.318742,82.1269 C109.668234,82.1219 110.017726,82.1796 110.339914,82.2966 C110.667562,82.4136 110.962446,82.5876 111.213643,82.8085 C111.45938,83.02935 111.66143,83.29265 111.792489,83.58305 C111.929009,83.87345 112,84.18515 112,84.5 C112,84.81485 111.929009,85.12655 111.792489,85.41695 C111.66143,85.70735 111.45938,85.97065 111.213643,86.1915 C110.962446,86.41235 110.667562,86.5864 110.339914,86.7034 C110.017726,86.8204 109.668234,86.8781 109.318742,86.8731 L86.6399983,86.8731 C86.1157605,86.8732 85.6079052,86.73415 85.1710404,86.4734 C84.7396364,86.2127 84.4010662,85.84205 84.1990162,85.4084 C84.002427,84.97475 83.9478189,84.49755 84.0515743,84.0372 C84.1498689,83.57685 84.4010662,83.154 84.7724012,82.82215 Z M84,96.5009 C84,96.18915 84.0653358,95.88045 84.1960073,95.59245 C84.3321234,95.30445 84.522686,95.0427 84.7676951,94.82225 C85.0127042,94.6018 85.3012704,94.42695 85.6225045,94.3076 C85.9437387,94.1883 86.2813067,94.1269 86.6297641,94.1269 L120.326679,94.1269 C120.675136,94.1219 121.023593,94.1796 121.350272,94.2966 C121.671506,94.4136 121.965517,94.5876 122.215971,94.80845 C122.466425,95.02935 122.662432,95.29265 122.798548,95.58305 C122.92922,95.87345 123,96.18515 123,96.5 C123,96.81485 122.92922,97.12655 122.798548,97.41695 C122.662432,97.70735 122.466425,97.97065 122.215971,98.1915 C121.965517,98.41235 121.671506,98.58635 121.350272,98.7034 C121.023593,98.8204 120.675136,98.8781 120.326679,98.8731 L86.6297641,98.8731 C86.2867514,98.87315 85.9437387,98.81185 85.6225045,98.6927 C85.3012704,98.5735 85.0127042,98.3988 84.7676951,98.17855 C84.522686,97.95825 84.3321234,97.6967 84.2014519,97.40885 C84.0653358,97.121 84,96.8125 84,96.5009 Z M108,108.5 C108.005407,109.12265 107.741811,109.7231 107.269535,110.17815 C107.038888,110.3963 106.764309,110.5706 106.462271,110.6902 C106.154742,110.80975 105.825247,110.8721 105.495752,110.8734 L89.5042482,110.8734 C88.120368,110.8734 87,109.81075 87,108.5 C86.9945925,107.8769 87.2581887,107.27635 87.7359569,106.82185 C87.961112,106.60355 88.2356914,106.4292 88.5432203,106.3096 C88.8452576,106.19 89.1747529,106.1277 89.5097397,106.1266 L105.495752,106.1266 C106.879632,106.1266 108,107.18925 108,108.5 Z M85,121.4999 C84.9946425,120.8764 85.2558021,120.27565 85.7291539,119.8218 C85.9576686,119.6031 86.2297098,119.42865 86.534396,119.3091 C86.8390823,119.18955 87.1709726,119.12745 87.5028629,119.1266 L121.491698,119.1266 C122.879108,119.1266 124,120.1892 124,121.4999 C124.005359,122.1234 123.738759,122.7244 123.265407,123.1779 C123.042333,123.3969 122.764851,123.5714 122.460165,123.6909 C122.155479,123.8104 121.829029,123.8724 121.497139,123.8734 L87.5028629,123.8734 C86.1208933,123.8709 85,122.8084 85,121.4974 L85,121.4999 Z M89.2359264,135.873 C88.0006284,135.873 87.0003649,134.811 87.0003649,133.5005 C86.9894331,132.889 87.2244677,132.295 87.6562754,131.8225 C88.0607535,131.3925 88.6182774,131.127 89.2359264,131.127 L103.758877,131.127 C104.999641,131.127 106,132.1895 106,133.5005 C106.005371,134.1115 105.775802,134.706 105.343994,135.1785 C104.939516,135.6075 104.376526,135.873 103.758877,135.873 L89.2359264,135.873 Z M117.600817,159.80425 C117.511006,159.93775 117.409969,160.06275 117.292092,160.17825 C116.949688,160.51725 116.495021,160.74925 115.989835,160.83775 C115.849506,160.86125 115.709176,160.87325 115.568847,160.87325 L106.424984,160.87325 C105.089048,160.87325 104,159.81025 104,158.50025 C103.994478,157.88375 104.247071,157.28625 104.712965,156.82225 C104.926266,156.60675 105.190085,156.43325 105.48197,156.31325 C105.779468,156.19375 106.099419,156.12975 106.424984,156.12675 L115.57446,156.12675 C116.365918,156.12675 117.073178,156.50075 117.516619,157.07875 C117.814117,157.48175 117.982512,157.94925 117.999352,158.43025 C118.010578,158.91125 117.875862,159.38675 117.600817,159.80325 L117.600817,159.80425 Z M124.228074,148.177748 C123.983387,148.398748 123.695199,148.573748 123.374386,148.693248 C123.059011,148.812748 122.716449,148.873748 122.368449,148.873248 L94.5828134,148.873248 C93.8922507,148.863248 93.234313,148.608748 92.7558128,148.164748 C92.2718751,147.720748 92,147.122748 92,146.500248 C92,145.877248 92.2718751,145.279248 92.7558128,144.835248 C93.234313,144.391248 93.8922507,144.136748 94.5828134,144.126748 L122.373886,144.126748 C122.890449,144.126748 123.401574,144.265748 123.831137,144.526748 C124.266137,144.787248 124.603262,145.157748 124.799012,145.591748 C125,146.025248 125.049137,146.502248 124.951262,146.962748 C124.847949,147.423248 124.597824,147.846248 124.228074,148.177748 L124.228074,148.177748 Z M139.240904,160.178 C139.213112,160.202 139.190878,160.225 139.163085,160.2475 C138.690615,160.6485 138.056948,160.8725 137.401048,160.873 L127.595893,160.873 C126.161805,160.873 125,159.8105 125,158.5005 C124.994525,157.8745 125.26689,157.2725 125.761595,156.822 C125.995051,156.603 126.284092,156.428 126.600925,156.3085 C126.9122,156.189 127.256825,156.1275 127.595893,156.127 L137.401048,156.127 C137.817934,156.1285 138.229261,156.22 138.601679,156.393 C138.968538,156.5665 139.285372,156.816 139.518828,157.121 C139.87457,157.5815 140.041325,158.1365 139.991298,158.6935 C139.941272,159.25 139.674465,159.774 139.240904,160.178 L139.240904,160.178 Z M149.368258,148.178 C148.976379,148.608 148.437545,148.8735 147.83884,148.8735 L134.155717,148.8735 C132.96375,148.8735 132.00038,147.811 132.00038,146.5 C131.989495,145.892 132.212648,145.299 132.631742,144.822 C133.023621,144.392 133.562455,144.1265 134.16116,144.1265 L147.844283,144.1265 C149.03625,144.1265 149.99962,145.1895 149.99962,146.4995 C150.010505,147.108 149.787352,147.7005 149.368258,148.178 Z M152.32225,135.17825 C152.11632,135.39375 151.861616,135.56725 151.579816,135.68675 C151.298017,135.80675 150.989121,135.87025 150.674806,135.87325 L115.330614,135.87325 C114.040838,135.87325 113,134.81125 113,133.50025 C112.989508,132.88375 113.233373,132.28675 113.683169,131.82225 C113.88368,131.60675 114.138384,131.43325 114.425603,131.31325 C114.707403,131.19325 115.016298,131.12975 115.330614,131.12675 L150.669386,131.12675 C151.959162,131.12675 153,132.18975 153,133.50025 C153.010492,134.11625 152.766627,134.71325 152.32225,135.17825 Z M156.290853,123.17835 C156.074812,123.39435 155.814454,123.56835 155.51532,123.68785 C155.221725,123.80785 154.900433,123.87085 154.579141,123.87335 L133.418173,123.87335 C132.853142,123.87135 132.310269,123.68135 131.889265,123.34185 C131.357471,122.88935 131.036179,122.27035 131.002942,121.61485 C130.969705,120.95885 131.218983,120.31655 131.706461,119.82185 C131.922502,119.6056 132.18286,119.4318 132.476454,119.312 C132.775588,119.19215 133.091341,119.129 133.418173,119.12665 L154.579141,119.12665 C155.914166,119.12665 157,120.18925 157,121.49985 C157.005451,122.11785 156.750633,122.71585 156.290853,123.17835 L156.290853,123.17835 Z M157.225717,110.178149 C156.985736,110.398899 156.691214,110.573949 156.374875,110.693249 C156.053083,110.812549 155.709474,110.873799 155.365865,110.873399 L117.634335,110.873399 C116.936209,110.873399 116.265353,110.623299 115.769029,110.178249 C115.272705,109.733149 115,109.129449 115,108.5 C115,107.870549 115.272705,107.266849 115.769029,106.821749 C116.265353,106.376649 116.936209,106.126599 117.634335,106.126599 L155.365865,106.126599 C155.884006,106.126649 156.396692,106.265849 156.827567,106.526649 C157.263895,106.787449 157.60205,107.158099 157.798398,107.591749 C158,108.025399 158.049287,108.502599 157.951113,108.962949 C157.847485,109.423349 157.596596,109.846199 157.225717,110.178149 L157.225717,110.178149 Z M130,96.5003 C129.994693,95.87775 130.253368,95.2774 130.716827,94.82215 C130.937778,94.6039 131.207231,94.4296 131.503629,94.30995 C131.805417,94.19035 132.12876,94.12805 132.452103,94.1269 L152.547897,94.1269 C153.90055,94.1269 155,95.18955 155,96.5003 C155.005307,97.12285 154.746632,97.7232 154.283173,98.17845 C154.062222,98.3964 153.792769,98.57055 153.496371,98.69005 C153.194583,98.80955 152.87124,98.87185 152.547897,98.8731 L132.452103,98.8731 C131.09945,98.8731 130,97.81105 130,96.5003 Z M157.22217,86.1784493 C156.981089,86.3989493 156.685218,86.5738493 156.367431,86.6930493 C156.044164,86.8122493 155.698981,86.8734493 155.353798,86.8730993 L121.60257,86.8730993 C120.912204,86.8631993 120.249234,86.6087993 119.761594,86.1648493 C119.273955,85.7208993 119,85.1229493 119,84.5 C119,83.8770493 119.273955,83.2790993 119.761594,82.8351493 C120.249234,82.3911993 120.912204,82.1367993 121.60257,82.1268993 L155.353798,82.1268993 C155.874312,82.1269493 156.389347,82.2661493 156.822196,82.5269493 C157.260523,82.7877493 157.600227,83.1583993 157.797475,83.5920493 C158,84.0256993 158.049513,84.5028993 157.950889,84.9632493 C157.846786,85.4236493 157.594748,85.8465493 157.22217,86.1784493 Z" id="Shape" fill="#FFFFFF"></path>
        </g>
    </g>
</svg>