<?xml version="1.0" encoding="UTF-8"?>
<svg width="242px" height="240px" viewBox="0 0 242 240" version="1.1" xmlns="http://www.w3.org/2000/svg" xmlns:xlink="http://www.w3.org/1999/xlink">
    <title>qt</title>
    <g id="Page-1" stroke="none" stroke-width="1" fill="none" fill-rule="evenodd">
        <g id="qt" transform="translate(0.5463, 0)">
            <rect id="ViewBox" x="0.45375" y="0" width="240" height="240"></rect>
            <polygon id="Path" fill="#FFFFFF" points="33.40875 31.875 7.10542736e-14 65.04 7.10542736e-14 207.96375 207.435 207.96375 240.84 174.800625 240.84 31.875 217.69125 31.875"></polygon>
            <path d="M33.40875,31.875 L0,65.04 L0,207.96375 L207.435,207.96375 L240.84,174.800625 L240.84,31.875 L217.69125,31.875 L33.40875,31.875 Z M89.64,62.67375 C105.315,62.67375 116.3175,67.074375 122.555625,75.96 C128.874375,84.75375 131.9925,98.36625 131.9925,116.784375 C131.9925,128.92125 130.68,138.699375 128.14125,146.11875 C125.510625,153.61125 121.3275,159.316875 115.415625,163.228125 L128.221875,183.684375 L112.539375,190.935 L98.998125,168.853125 C97.029375,169.50375 93.9075,169.745625 89.641875,169.745625 C73.798125,169.745625 62.716875,165.511875 56.480625,157.03875 C50.244375,148.565625 47.124375,135.12 47.124375,116.865 C47.124375,98.533125 50.323125,84.924375 56.641875,76.040625 C62.960625,67.153125 74.041875,62.671875 89.641875,62.671875 L89.64,62.67375 Z M153.25125,68.62125 L169.760625,68.62125 L169.760625,90.541875 L190.77375,90.541875 L190.77375,104.56125 L169.760625,104.56125 L169.760625,137.885625 C169.760625,144.0825 170.244375,148.155 171.148125,150.19125 C172.051875,152.2275 174.429375,153.208125 178.12875,153.208125 L190.60125,152.716875 L191.345625,165.916875 C184.531875,167.218125 179.35875,167.870625 175.75125,167.870625 C167.12625,167.870625 161.214375,165.915 158.015625,162.00375 C154.815,158.0925 153.170625,150.680625 153.170625,139.760625 L153.170625,104.645625 L141.601875,104.645625 L141.601875,90.541875 L153.25125,90.541875 L153.25125,68.62125 Z M89.72625,77.424375 C80.20125,77.424375 73.636875,80.521875 70.02,86.791875 C66.495,93.069375 64.6875,103.010625 64.6875,116.784375 C64.6875,130.471875 66.4125,140.3325 69.85875,146.199375 C73.303125,152.06625 79.95375,155.083125 89.724375,155.083125 C99.4875,155.083125 106.0575,152.146875 109.505625,146.360625 C112.873125,140.574375 114.590625,130.715625 114.590625,116.945625 C114.590625,103.095 112.87125,93.069375 109.340625,86.791875 C105.815625,80.521875 99.324375,77.424375 89.724375,77.424375 L89.72625,77.424375 Z" id="Shape" fill="#41CD52" fill-rule="nonzero"></path>
        </g>
    </g>
</svg>