<?xml version="1.0" encoding="UTF-8"?>
<svg width="240px" height="240px" viewBox="0 0 240 240" version="1.1" xmlns="http://www.w3.org/2000/svg" xmlns:xlink="http://www.w3.org/1999/xlink">
    <title>qualys</title>
    <g id="Page-1" stroke="none" stroke-width="1" fill="none" fill-rule="evenodd">
        <g id="qualys">
            <rect id="box" x="0" y="0" width="240" height="240"></rect>
            <g id="shape" transform="translate(19, 0)" fill-rule="nonzero">
                <path d="M100.985402,0 C166.756519,0 199.827107,35.1167988 199.827107,35.1167988 C199.827107,35.1167988 203.608103,61.1105008 201.194928,113.449171 C197.549319,192.512734 101.008376,239.995087 101.000171,240 C100.991966,240.004094 4.45184335,192.512734 0.805413895,113.449171 C-1.60858148,61.1105008 2.17323521,35.1167988 2.17323521,35.1167988 C2.17323521,35.1167988 35.2134636,0 100.985402,0" fill="#ED2E26"></path>
                <path d="M52.3394474,103.211339 C52.3394474,75.1956119 74.3927565,52.4036007 101.499591,52.4036007 C128.629304,52.4036007 150.700589,74.5695209 150.700589,101.814738 C150.700589,123.566273 132.083023,141.461153 117.733788,150.657224 C123.300429,153.84676 135.585766,157.196306 147.348185,158.278631 C164.524453,144.92886 175,124.292473 175,101.814738 C175,61.1130768 142.028297,28 101.499591,28 C60.971703,28 28,61.1130768 28,101.814738 C28,126.397222 38.1920261,148.234916 57.4730453,164.969517 C75.4998749,180.613587 101.868903,191.056096 131.891831,196 C138.396458,192.390335 149.520752,181.732838 153.692668,175.494083 C128.617865,172.255313 104.887129,166.114205 88.9789398,157.732955 C64.6672725,144.925578 52.3394474,126.581028 52.3394474,103.211339" id="q" fill="#FFFFFF"></path>
            </g>
        </g>
    </g>
</svg>