<?xml version="1.0" encoding="UTF-8"?>
<svg width="240px" height="241px" viewBox="0 0 240 241" version="1.1" xmlns="http://www.w3.org/2000/svg" xmlns:xlink="http://www.w3.org/1999/xlink">
    <title>qwik</title>
    <g id="Page-1" stroke="none" stroke-width="1" fill="none" fill-rule="evenodd">
        <g id="qwik" transform="translate(-142, 158)">
            <rect id="box" x="142" y="-158" width="240" height="240"></rect>
            <g id="shape" transform="translate(149, -158)" fill-rule="nonzero">
                <path d="M199.080009,240.127597 L155.912274,197.238075 L155.294541,197.340893 L155.294541,196.900247 L63.502433,106.215347 L86.1673326,84.4033807 L72.8419601,8.12759727 L9.75970539,86.2687812 C-0.947657963,97.0792908 -3.0067663,114.749186 4.75901371,127.704172 L44.1762304,193.05194 C50.2064763,203.069288 59.6783746,209.502716 72.9007917,209.032694 C100.889957,208.048585 113.200483,208.048585 113.200483,208.048585 L199.050593,240.083533 L199.080009,240.112909 L199.080009,240.127597 Z" id="Path" fill="#18B6F6"></path>
                <path d="M220.137531,120.199108 C226.361486,107.418245 228.583277,96.234989 222.447604,85.0224196 L213.722296,69.0170263 L209.190432,60.8091324 L207.424771,57.5846026 L207.277633,57.7897999 L183.514777,16.7503301 C177.534511,6.36347035 166.386404,0.00654227075 154.366655,0.127597274 L133.531854,0.715623002 L71.3658695,0.87684949 C59.6246911,0.960973559 48.7934223,7.19076137 42.8504427,17.2779805 L5.080009,91.9991294 L72.6754015,8.23464015 L161.35573,105.366271 L145.46478,121.386321 L154.955209,197.367968 L155.087633,197.221399 L155.087633,197.426596 L154.940495,197.426596 L155.146489,197.617136 L162.532838,204.799044 L198.287475,239.594651 C199.803001,241.031033 202.230785,239.301512 201.230243,237.513364 L179.130052,194.172752" id="Path" fill="#AC7EF4"></path>
                <polygon id="Path" fill="#FFFFFF" points="162.080009 104.880218 73.0801578 8.12759727 85.7313033 83.9095679 63.080009 105.804746 155.30524 197.127597 146.998783 121.316277 162.080009 104.924243 162.080009 104.894893"></polygon>
            </g>
        </g>
    </g>
</svg>