<?xml version="1.0" encoding="UTF-8"?>
<svg width="240px" height="240px" viewBox="0 0 240 240" version="1.1" xmlns="http://www.w3.org/2000/svg" xmlns:xlink="http://www.w3.org/1999/xlink">
    <title>r</title>
    <defs>
        <linearGradient x1="0.000564765625%" y1="27.2077838%" x2="99.9980734%" y2="72.7828771%" id="linearGradient-1">
            <stop stop-color="#CBCED0" offset="0%"></stop>
            <stop stop-color="#84838B" offset="100%"></stop>
        </linearGradient>
        <linearGradient x1="2.91020638%" y1="-0.000646414204%" x2="97.08773%" y2="99.9990656%" id="linearGradient-2">
            <stop stop-color="#276DC3" offset="0%"></stop>
            <stop stop-color="#165CAA" offset="100%"></stop>
        </linearGradient>
    </defs>
    <g id="Page-1" stroke="none" stroke-width="1" fill="none" fill-rule="evenodd">
        <g id="r">
            <rect id="box" x="0" y="0" width="240" height="240"></rect>
            <g id="shape" transform="translate(0.0313, 26.5425)">
                <path d="M119.984339,162 C53.7192382,162 0,125.735856 0,81 C0,36.2660336 53.7192382,0 119.984339,0 C186.24944,0 239.968678,36.2641439 239.968678,81 C239.968678,125.733966 186.24944,162 119.984339,162 Z M138.349442,31.6701817 C87.982266,31.6701817 47.1500957,56.4617036 47.1500957,87.0452838 C47.1500957,117.626974 87.982266,142.420386 138.349442,142.420386 C188.716618,142.420386 225.887391,125.469403 225.887391,87.0452838 C225.887391,48.6325036 188.716618,31.6701817 138.349442,31.6701817 Z" id="Shape" fill="url(#linearGradient-1)"></path>
                <path d="M182.554249,126.032987 C182.554249,126.032987 189.791556,128.238341 193.994948,130.387099 C195.452124,131.132279 197.977896,132.618865 199.797497,134.573311 C200.866122,135.715997 201.760205,137.013075 202.450305,138.421834 L230.969852,186.981135 L184.874521,187 L163.321395,146.126425 C163.321395,146.126425 158.9069,138.467111 156.190574,136.246664 C153.924479,134.394091 152.958633,133.735691 150.718692,133.735691 L139.767455,133.735691 L139.774927,186.971702 L98.9870796,186.988681 L98.9870796,51 L180.89531,51 C180.89531,51 218.20275,51.6791511 218.20275,87.5213483 C218.20275,123.363546 182.554249,126.0311 182.554249,126.0311 L182.554249,126.032987 Z M164.812198,80.4977944 L140.118672,80.4808156 L140.107462,103.605909 L164.812198,103.596477 C164.812198,103.596477 176.252897,103.560633 176.252897,91.8339576 C176.252897,79.8733528 164.812198,80.4977944 164.812198,80.4977944 Z" id="Shape" fill="url(#linearGradient-2)"></path>
            </g>
        </g>
    </g>
</svg>