<?xml version="1.0" encoding="UTF-8"?>
<svg width="180px" height="180px" viewBox="0 0 180 180" version="1.1" xmlns="http://www.w3.org/2000/svg" xmlns:xlink="http://www.w3.org/1999/xlink">
    <title>devicon:rabbitmq</title>
    <g id="Page-1" stroke="none" stroke-width="1" fill="none" fill-rule="evenodd">
        <g id="devicon:rabbitmq">
            <rect id="ViewBox" x="0" y="0" width="180" height="180"></rect>
            <path d="M159.053711,73.9850588 L108.771242,73.9850588 C107.564075,73.985059 106.406386,73.5053425 105.553024,72.6515117 C104.699662,71.7976809 104.220582,70.639729 104.221245,69.4325616 L104.221245,17.0250936 C104.226246,15.1597697 103.487206,13.3694578 102.167866,12.0508218 C100.848526,10.7321859 99.0578201,9.99410089 97.1924992,10.0000486 L79.2325102,10.0000486 C77.3664262,9.99310172 75.5746263,10.7307053 74.2542754,12.0494137 C72.9339245,13.3681221 72.1940911,15.1590024 72.1987645,17.0250936 L72.1987645,69.0825618 C72.2027575,70.3839158 71.687992,71.6332116 70.7683781,72.5539985 C69.8487642,73.4747854 68.6001255,73.9911429 67.2987675,73.9888088 L50.8137776,74.0475587 C48.0937792,74.0475587 45.8487806,71.8600601 45.9062806,69.1400617 L46.0237805,17.0313436 C46.03012,15.1643883 45.2911942,13.3720879 43.9709325,12.0520608 C42.6506708,10.7320337 40.858239,9.99342659 38.9912848,10.0000486 L21.0325458,10.0000486 C19.1659998,9.99476775 17.3743482,10.7338057 16.0543781,12.0535411 C14.7344081,13.3732765 13.9950517,15.1647967 14.0000249,17.0313436 L14.0000249,163.737504 C14.0000249,167.158752 16.7750484,170 20.2625463,170 L159.053711,170 C162.510761,169.995864 165.311642,167.193305 165.313837,163.736254 L165.313837,80.2438049 C165.324444,78.5803971 164.668318,76.9820247 163.491969,75.8059106 C162.31562,74.6297966 160.717117,73.9739902 159.053711,73.9850588 M135.482476,129.052525 C135.468063,133.550909 131.824616,137.193797 127.326231,137.20752 L113.146239,137.20752 C108.64883,137.192426 105.006899,133.549937 104.992494,129.052525 L104.992494,114.875034 C105.006899,110.377622 108.64883,106.735133 113.146239,106.720039 L127.324981,106.720039 C131.822881,106.733758 135.466128,110.375888 135.481226,114.873784 L135.482476,129.052525 Z" id="Shape" fill="#FF6600" fill-rule="nonzero"></path>
        </g>
    </g>
</svg>