<svg width="240" height="240" viewBox="0 0 240 240" fill="none" xmlns="http://www.w3.org/2000/svg">
<rect width="240" height="240" rx="32" fill="white"/>
<path d="M99.9505 144.678H94.0927V97.0666H97.0216H99.9505V95.9515V94.8363L92.5551 94.6427C88.4875 94.5361 82.1281 94.2578 78.4231 94.0241C74.718 93.7904 70.7969 93.5955 69.7096 93.591L67.7326 93.5829L67.5081 104.615C67.3846 104.615 66.8485 103.894 66.3166 103.012C64.9937 100.82 61.8175 97.7288 59.5266 96.4041C54.8561 93.7033 48.5073 93.0463 43.4377 94.7391C37.5794 96.6952 34.2337 101.991 35.15 107.859C35.8495 112.338 38.8252 116.3 42.5178 117.669C47.7658 119.614 53.5876 118.689 56.9096 115.382C60.1929 112.113 60.7173 109.821 60.0295 101.75C59.9412 100.712 60.7962 100.297 61.7984 100.891C62.9993 101.602 64.9937 104.651 65.6626 106.797C66.7011 110.13 66.8539 112.986 66.8539 129.066V144.678H58.6529C58.6529 145.452 58.6529 146.226 58.6529 147H99.9505V144.678ZM149.01 93.0023C149.01 92.7143 94.6786 119.858 94.6832 120C94.691 120.242 148.936 147.052 148.937 146.788L149.01 93.0023ZM203.94 93.0507C203.082 93.3471 149.744 119.872 149.755 119.996C149.776 120.237 203.757 146.885 204 146.775L203.94 93.0507Z" fill="black"/>
</svg>
