<?xml version="1.0" encoding="UTF-8"?>
<svg width="240px" height="240px" viewBox="0 0 240 240" version="1.1" xmlns="http://www.w3.org/2000/svg" xmlns:xlink="http://www.w3.org/1999/xlink">
    <title>rancher</title>
    <g id="Page-1" stroke="none" stroke-width="1" fill="none" fill-rule="evenodd">
        <g id="rancher">
            <rect id="ViewBox" x="0" y="0" width="240" height="240"></rect>
            <path d="M148.4175,63.61125 C146.896875,63.61125 144.99375,67.7925 144.04125,72.73875 L141.37875,88.336875 C140.6175,93.28125 144.045,97.4625 149.17875,97.4625 L164.58375,97.4625 C166.104375,97.4625 167.623125,97.275 168.954375,96.894375 C168.384375,99.556875 166.295625,101.45625 163.441875,101.45625 L141.763125,101.45625 C138.339375,101.45625 135.676875,98.221875 136.246875,94.8 L138.52875,81.67875 C139.09875,78.256875 136.438125,75.0225 133.01625,75.0225 L25.561875,75.0225 C23.278125,75.0225 21.375,76.35375 20.424375,78.444375 L0.26625,109.44375 C-0.114375,110.01375 -0.11625,110.585625 0.45375,111.155625 L4.26,115.7175 C4.75825037,116.244281 5.56725092,116.326458 6.16125,115.910625 L19.85625,105.0675 L19.85625,170.68125 C19.85625,173.91375 22.3275,176.385 25.561875,176.385 L55.9875,176.385 C59.221875,176.385 61.693125,173.91375 61.693125,170.68125 L61.693125,147.85875 C61.693125,144.62625 64.16625,142.153125 67.39875,142.153125 L143.28,142.153125 C146.5125,142.153125 148.98375,144.62625 148.98375,147.85875 L148.98375,170.68125 C148.98375,173.91375 151.456875,176.386875 154.689375,176.386875 L185.11875,176.386875 C188.35125,176.386875 190.824375,173.91375 190.824375,170.68125 L190.824375,146.14875 L174.658125,146.14875 C169.71375,146.14875 165.343125,141.9675 165.343125,136.831875 L165.343125,121.044375 C165.343125,118.003125 166.861875,115.33875 168.9525,113.62875 L168.9525,132.4575 C168.9525,137.401875 173.1375,141.77625 178.27125,141.77625 L203.18625,141.77625 C208.130625,141.77625 212.505,137.59125 212.505,132.4575 L212.505,84.72 C212.315625,79.395 208.130625,75.21375 202.996875,75.21375 L152.0325,75.21375 C151.651875,75.21375 151.460625,75.211875 151.27125,75.40125 L151.27125,72.928125 C151.27125,67.98375 149.94,63.613125 148.4175,63.613125 L148.4175,63.61125 Z M232.86,63.800625 C231.3375,63.800625 230.00625,67.985625 230.00625,73.12125 L230.00625,77.3025 C230.00625,82.24875 225.82125,86.623125 220.6875,86.623125 L215.743125,86.623125 L215.743125,97.845 L231.9075,97.845 C237.2325,97.464375 240.654375,93.470625 239.895,88.52625 L237.2325,72.928125 C236.47125,67.98375 234.3825,63.8025 232.86,63.8025 L232.86,63.800625 Z" id="Shape" fill="#2453FF" fill-rule="nonzero"></path>
        </g>
    </g>
</svg>