<?xml version="1.0" encoding="UTF-8"?>
<svg width="240px" height="240px" viewBox="0 0 240 240" version="1.1" xmlns="http://www.w3.org/2000/svg" xmlns:xlink="http://www.w3.org/1999/xlink">
    <title>rapid7</title>
    <g id="Page-1" stroke="none" stroke-width="1" fill="none" fill-rule="evenodd">
        <g id="rapid7">
            <rect id="box" x="0" y="0" width="240" height="240"></rect>
            <path d="M158.210863,30 C147.603834,30 40,30 14.8242812,30 C16.9968051,32.1640593 19.1693291,34.4554162 21.086262,36.8740707 C37.1884984,56.096009 45.6230032,80.2825539 45.6230032,106.887753 C45.6230032,147.877582 28.115016,184.921185 0,209.871515 L87.7955272,209.871515 L135.207668,210 C135.207668,210 142.364217,210 156.549521,210 C206.389776,210.253408 240,169.518175 240,119.872109 C240,70.2260431 208.051118,30 158.210863,30 Z" id="Path" fill="#FFFFFF" fill-rule="nonzero"></path>
            <path d="M158.210863,30 C147.603834,30 40,30 14.8242812,30 C16.9968051,32.1640593 19.1693291,34.4554162 21.086262,36.8740707 C37.1884984,56.096009 45.6230032,80.2825539 45.6230032,106.887753 C45.6230032,147.877582 28.115016,184.921185 0,209.871515 L87.7955272,209.871515 L129.456869,107.396944 L77.1884984,107.396944 L86.0063898,67.680091 L189.648562,67.680091 L135.207668,210 C135.207668,210 142.364217,210 156.549521,210 C206.389776,210.253408 240,169.518175 240,119.872109 C240,70.2260431 208.051118,30 158.210863,30 Z" id="Path" fill="#E85E26" fill-rule="nonzero"></path>
        </g>
    </g>
</svg>