<svg version="1.1" id="Artwork" xmlns:x="ns_extend;" xmlns:i="ns_ai;" xmlns:graph="ns_graphs;" xmlns="http://www.w3.org/2000/svg" xmlns:xlink="http://www.w3.org/1999/xlink" x="0px" y="0px" viewBox="0 0 128.5 146.9" style="enable-background:new 0 0 128.5 146.9;" xml:space="preserve">
 <style type="text/css">
  .st0{fill:#0055D9;}
 </style>
 <metadata>
  <sfw xmlns="ns_sfw;">
   <slices>
   </slices>
   <sliceSourceBounds bottomLeftOrigin="true" height="146.9" width="128.5" x="69.8" y="71.2">
   </sliceSourceBounds>
  </sfw>
 </metadata>
 <path class="st0" d="M88.9,96.7c-1.3-0.4-1.4-2.2,0.1-2.8C114.8,81.7,113.1,54,113.1,54C113,25.9,92.4-0.1,59.1,0
	C22.1,0.2-0.2,29.3,0,63.7C0.3,124,46.3,147,60.7,146.9L60.6,123c0-3.8,0-6.8,2.3-6.8c0,0,14.8,14.9,31.3,14.8
	c25.6-0.1,34.3-21.6,34.3-21.6L88.9,96.7z M59.3,78.3c-13.1,0.1-23.8-10.5-23.8-23.6C35.4,41.6,46,30.9,59.1,30.9
	c13.1-0.1,23.8,10.5,23.8,23.6C82.9,67.6,72.4,78.3,59.3,78.3z">
 </path>
</svg>