<svg width="240" height="240" viewBox="0 0 240 240" fill="none" xmlns="http://www.w3.org/2000/svg">
<rect width="240" height="240" rx="32" fill="white"/>
<path d="M147.24 145.64C145.804 145.199 145.693 143.214 147.351 142.552C175.861 129.098 173.982 98.5508 173.982 98.5508C173.872 67.5625 151.108 38.89 114.31 39.0003C73.423 39.2209 48.7805 71.312 49.0015 109.248C49.333 175.746 100.165 201.11 116.078 201L115.967 174.643C115.967 170.452 115.967 167.144 118.509 167.144C118.509 167.144 134.864 183.576 153.097 183.465C181.386 183.355 191 159.645 191 159.645L147.24 145.64ZM114.531 125.348C100.055 125.459 88.2306 113.769 88.2306 99.3227C88.1201 84.8762 99.8336 73.0764 114.31 73.0764C128.786 72.9661 140.61 84.6557 140.61 99.1022C140.61 113.549 129.007 125.348 114.531 125.348Z" fill="#0055D9"/>
</svg>
