<?xml version="1.0" encoding="UTF-8"?>
<svg width="240px" height="240px" viewBox="0 0 240 240" version="1.1" xmlns="http://www.w3.org/2000/svg" xmlns:xlink="http://www.w3.org/1999/xlink">
    <title>react</title>
    <g id="Page-1" stroke="none" stroke-width="1" fill="none" fill-rule="evenodd">
        <g id="react" transform="translate(102, -41)">
            <rect id="box" x="-102" y="41" width="240" height="240"></rect>
            <g id="shape" transform="translate(-102, 54)" fill="#61DAFB" fill-rule="nonzero">
                <circle id="Oval" cx="121" cy="106" r="22"></circle>
                <path d="M203.003195,71.0143113 C198.785942,69.4830054 194.376997,67.9516995 189.776358,66.6118068 C190.926518,62.0178891 191.884984,57.4239714 192.651757,53.0214669 C196.677316,27.7549195 192.268371,9.95348837 180,3.06261181 C176.357827,0.95706619 172.332268,0 167.731629,0 C154.313099,0 137.252396,9.95348837 120,26.6064401 C102.747604,9.95348837 85.686901,0 72.2683706,0 C67.6677316,0 63.6421725,0.95706619 60,3.06261181 C47.7316294,10.1449016 43.3226837,27.9463327 47.3482428,53.0214669 C48.115016,57.4239714 49.0734824,62.0178891 50.2236422,66.6118068 C45.6230032,67.9516995 41.2140575,69.2915921 36.9968051,71.0143113 C13.0351438,80.2021467 0,92.8354204 0,107 C0,121.16458 13.2268371,133.797853 36.9968051,142.985689 C41.2140575,144.516995 45.6230032,146.048301 50.2236422,147.388193 C49.0734824,151.982111 48.115016,156.576029 47.3482428,160.978533 C43.3226837,186.245081 47.7316294,204.046512 60,210.937388 C63.6421725,213.042934 67.6677316,214 72.2683706,214 C85.8785942,214 102.939297,204.046512 120,187.39356 C137.252396,204.046512 154.313099,214 167.731629,214 C172.332268,214 176.357827,213.042934 180,210.937388 C192.268371,203.855098 196.677316,186.053667 192.651757,160.978533 C191.884984,156.576029 190.926518,151.982111 189.776358,147.388193 C194.376997,146.048301 198.785942,144.708408 203.003195,142.985689 C226.964856,133.797853 240,121.16458 240,107 C240,92.8354204 226.964856,80.2021467 203.003195,71.0143113 Z M174.632588,12.6332737 C182.492013,17.2271914 185.175719,31.391771 181.916933,51.490161 C181.341853,55.509839 180.383387,59.7209302 179.233227,64.1234347 C169.265176,61.8264758 158.722045,60.2951699 147.603834,59.3381038 C141.086262,50.1502683 134.376997,41.9194991 127.667732,34.4543828 C141.853035,20.4812165 156.230032,10.9105546 167.923323,10.9105546 C170.415335,10.9105546 172.715655,11.4847943 174.632588,12.6332737 L174.632588,12.6332737 Z M153.162939,126.141324 C149.71246,132.266547 145.686901,138.391771 141.469649,144.516995 C134.376997,145.091234 127.284345,145.282648 120,145.282648 C112.523962,145.282648 105.43131,145.091234 98.5303514,144.516995 C94.313099,138.391771 90.4792332,132.266547 87.028754,126.141324 C83.3865815,119.824687 79.9361022,113.316637 76.8690096,107 C79.9361022,100.683363 83.3865815,94.1753131 87.028754,87.8586762 C90.4792332,81.7334526 94.5047923,75.608229 98.7220447,69.4830054 C105.814696,68.9087657 112.907348,68.7173524 120.191693,68.7173524 C127.667732,68.7173524 134.760383,68.9087657 141.661342,69.4830054 C145.878594,75.608229 149.71246,81.7334526 153.162939,87.8586762 C156.805112,94.1753131 160.255591,100.683363 163.322684,107 C160.063898,113.316637 156.805112,119.633274 153.162939,126.141324 Z M169.073482,119.824687 C171.948882,126.52415 174.249201,133.0322 176.357827,139.54025 C169.840256,141.071556 162.939297,142.220036 155.654952,143.177102 C157.955272,139.54025 160.447284,135.711986 162.555911,131.692308 C164.85623,127.67263 166.964856,123.652952 169.073482,119.824687 Z M120,171.697674 C115.399361,166.72093 110.990415,161.36136 106.773163,155.810376 C111.182109,156.001789 115.591054,156.193202 120,156.193202 C124.408946,156.193202 128.817891,156.001789 133.226837,155.810376 C129.009585,161.36136 124.600639,166.72093 120,171.697674 Z M84.3450479,142.985689 C77.0607029,142.028623 70.1597444,140.880143 63.6421725,139.348837 C65.7507987,133.0322 68.0511182,126.332737 70.9265176,119.633274 C73.0351438,123.461538 75.14377,127.481216 77.4440895,131.309481 C79.7444089,135.520572 82.0447284,139.157424 84.3450479,142.985689 L84.3450479,142.985689 Z M70.9265176,94.1753131 C68.0511182,87.4758497 65.7507987,80.9677996 63.6421725,74.4597496 C70.1597444,72.9284436 77.0607029,71.7799642 84.3450479,70.822898 C82.0447284,74.4597496 79.5527157,78.2880143 77.4440895,82.3076923 C75.14377,86.3273703 73.0351438,90.3470483 70.9265176,94.1753131 L70.9265176,94.1753131 Z M120,42.3023256 C124.600639,47.2790698 129.009585,52.6386404 133.226837,58.1896243 C128.817891,57.9982111 124.408946,57.8067979 120,57.8067979 C115.591054,57.8067979 111.182109,57.9982111 106.773163,58.1896243 C110.990415,52.6386404 115.399361,47.2790698 120,42.3023256 Z M162.555911,82.4991055 L155.654952,71.0143113 C162.939297,71.9713775 169.840256,73.1198569 176.357827,74.6511628 C174.249201,80.9677996 171.948882,87.667263 169.073482,94.3667263 C166.964856,90.3470483 164.85623,86.3273703 162.555911,82.4991055 Z M58.0830671,51.490161 C54.8242812,31.391771 57.5079872,17.2271914 65.3674121,12.6332737 C67.284345,11.4847943 69.5846645,10.9105546 72.0766773,10.9105546 C83.5782748,10.9105546 97.9552716,20.2898032 112.332268,34.4543828 C105.623003,41.7280859 98.913738,50.1502683 92.3961661,59.3381038 C81.2779553,60.2951699 70.7348243,62.0178891 60.7667732,64.1234347 C59.6166134,59.7209302 58.8498403,55.509839 58.0830671,51.490161 Z M10.7348243,107 C10.7348243,98.0035778 21.6613419,88.4329159 40.8306709,81.3506261 C44.6645367,79.8193202 48.8817891,78.4794275 53.0990415,77.3309481 C56.1661342,86.90161 60,97.0465116 64.600639,107.191413 C60,117.336315 55.9744409,127.289803 53.0990415,136.860465 C26.6453674,129.203936 10.7348243,117.719141 10.7348243,107 Z M65.3674121,201.366726 C57.5079872,196.772809 54.8242812,182.608229 58.0830671,162.509839 C58.658147,158.490161 59.6166134,154.27907 60.7667732,149.876565 C70.7348243,152.173524 81.2779553,153.70483 92.3961661,154.661896 C98.913738,163.849732 105.623003,172.080501 112.332268,179.545617 C98.1469649,193.518784 83.7699681,203.089445 72.0766773,203.089445 C69.5846645,203.089445 67.284345,202.515206 65.3674121,201.366726 Z M181.916933,162.509839 C185.175719,182.608229 182.492013,196.772809 174.632588,201.366726 C172.715655,202.515206 170.415335,203.089445 167.923323,203.089445 C156.421725,203.089445 142.044728,193.710197 127.667732,179.545617 C134.376997,172.271914 141.086262,163.849732 147.603834,154.661896 C158.722045,153.70483 169.265176,151.982111 179.233227,149.876565 C180.383387,154.27907 181.15016,158.490161 181.916933,162.509839 L181.916933,162.509839 Z M199.169329,132.649374 C195.335463,134.18068 191.118211,135.520572 186.900958,136.669052 C183.833866,127.09839 180,116.953488 175.399361,106.808587 C180,96.6636852 184.025559,86.7101968 186.900958,77.1395349 C213.354633,84.7960644 229.265176,96.2808587 229.265176,107 C229.265176,115.996422 218.146965,125.567084 199.169329,132.649374 Z" id="Shape"></path>
            </g>
        </g>
    </g>
</svg>