<?xml version="1.0" encoding="UTF-8"?>
<svg width="240px" height="240px" viewBox="0 0 240 240" version="1.1" xmlns="http://www.w3.org/2000/svg" xmlns:xlink="http://www.w3.org/1999/xlink">
    <title>readyapi</title>
    <g id="Page-1" stroke="none" stroke-width="1" fill="none" fill-rule="evenodd">
        <g id="readyapi" transform="translate(0.1735, 0.1735)" fill-rule="nonzero">
            <rect id="box" fill="#FCDC00" x="0.826500077" y="0.826500077" width="225" height="225"></rect>
            <g id="shape" transform="translate(-0.1735, -0.1735)" fill="#05263A">
                <path d="M227.38,0 L12.62,0 L0,0 L0,12.6175 L0,227.3825 L0,240 L12.62,240 L227.38,240 L240,240 L240,227.3825 L240,12.6175 L240,0 L227.38,0 Z M124.125,113.17 L128.105,103.6475 L139.12,101.6825 L150.1525,90.74 L152.18,79.7225 L161.7375,75.8225 L170.9,82.225 L186.3725,82.3175 L195.6,75.9575 L205.1675,79.9375 L207.2975,92.2125 L221.66,98.9475 L173.6125,140.1575 L156.64,123.1875 L147.8025,132.025 L172.9625,157.1875 L225.3075,112.28 L225.26,157.625 L217.8925,158.9025 L206.845,169.8575 L204.8225,180.875 L195.2675,184.775 L186.09,178.355 L170.5525,178.355 L161.34,184.7025 L151.8225,180.7225 L149.855,169.6625 L138.97,158.6025 L127.9375,156.6375 L124,147.085 L130.4025,137.93 L130.4825,122.3975 L124.125,113.17 Z M218.495,83.6525 L216.305,71.0375 L194.115,61.7975 L182.5125,69.7925 L174.865,69.75 L163.3175,61.675 L141.12,70.7375 L138.5675,84.6225 L133.0825,90.06 L119.2,92.5375 L109.965,114.645 L117.9625,126.255 L117.92,133.9625 L109.84,145.5225 L118.99,167.7325 L132.855,170.21 L138.23,175.6675 L140.71,189.6325 L162.82,198.86 L174.445,190.8525 L182.1575,190.8525 L193.685,198.9225 L215.8875,189.86 L218.435,175.975 L223.91,170.55 L225.2525,170.3175 L225.1975,225.4425 L14.485,224.9075 L14.58,131.91 L21.83,134.9525 L28.07,144.69 L43.7675,144.69 L50.005,134.9525 L59.805,130.8375 L71.115,133.3075 L82.15,122.2025 L79.685,110.96 L83.7975,101.09 L93.5325,94.9225 L93.5325,79.225 L83.7975,72.99 L79.685,63.185 L82.15,51.805 L71.115,40.77 L59.805,43.2375 L50.005,39.195 L43.7675,29.46 L28.07,29.46 L21.83,39.195 L14.6725,42.1475 L14.7,14.6925 L225.405,14.6925 L225.3325,86.8625 L218.495,83.6525 Z M14.6525,62.5325 C20.35,57.5775 27.7725,54.5475 35.955,54.5475 C53.845,54.5475 68.3775,69.08 68.3775,87.04 C68.3775,105 53.845,119.53 35.955,119.53 C27.75,119.53 20.3075,116.4825 14.6025,111.5025 L14.6525,62.5325 Z" id="Shape"></path>
                <polygon id="Path" points="70.7675 172.8975 77.7175 177.865 84.5825 172.8575 81.915 164.74 73.395 164.74"></polygon>
                <path d="M100.335,155.57 L103.2025,146.6825 L92.42,138.8875 L84.8675,144.38 L70.3675,144.4225 L62.815,138.9275 L52.07,146.765 L54.98,155.6925 L50.4975,169.465 L42.94,175 L47.1,187.6425 L56.47,187.6025 L68.1875,196.085 L71.095,204.97 L84.3825,204.97 L87.2925,196.0425 L99.005,187.52 L108.335,187.4775 L112.415,174.835 L104.8225,169.3425 L100.335,155.57 Z M86.4425,182.6325 L68.9525,182.6725 L63.5375,166.0725 L77.6325,155.77 L91.81,165.99 L86.4425,182.6325 Z" id="Shape"></path>
                <path d="M54.7325,87.04 C54.7325,76.62 46.3025,68.19 35.9525,68.19 C25.535,68.19 17.0325,76.62 17.0325,87.04 C17.0325,97.4575 25.535,105.89 35.9525,105.89 C46.305,105.89 54.7325,97.4575 54.7325,87.04 Z" id="Path"></path>
            </g>
        </g>
    </g>
</svg>