<?xml version="1.0" encoding="UTF-8"?>
<svg width="240px" height="240px" viewBox="0 0 240 240" version="1.1" xmlns="http://www.w3.org/2000/svg" xmlns:xlink="http://www.w3.org/1999/xlink">
    <title>recaptcha</title>
    <g id="Page-1" stroke="none" stroke-width="1" fill="none" fill-rule="evenodd">
        <g id="recaptcha">
            <rect id="ViewBox" x="0" y="0" width="240" height="240"></rect>
            <g id="shape" transform="translate(0.0002, -0.2323)" fill-rule="nonzero">
                <path d="M239.999844,120.232344 C239.995037,118.511926 239.9543,116.7918 239.877661,115.073104 L239.877661,17.5347941 L213.064806,44.5004039 C191.118205,17.4867749 157.73415,0.23234375 120.339121,0.23234375 C81.4245286,0.23234375 46.8523488,18.9118155 24.9998438,47.8419758 L68.9506243,92.5054883 C73.2539003,84.5100386 79.3493829,77.6321081 86.7542366,72.4165115 C94.4278926,66.3957503 105.299373,61.4709568 120.339121,61.4709568 C122.156418,61.4709568 123.559417,61.6856309 124.588844,62.0867326 C143.223862,63.566854 159.375897,73.9079316 168.885107,88.918171 L137.773376,120.204097 C177.179509,120.048741 221.69486,119.958352 239.997035,120.225282" id="Path" fill="#1C3AA9"></path>
                <path d="M118.999844,0.23234375 C117.293763,0.237172937 115.587972,0.278098535 113.883597,0.355093469 L17.1581071,0.355093469 L43.8990034,27.2937186 C17.110488,49.3406969 -0.00015625,82.8809995 -0.00015625,120.448057 C-0.00015625,159.544548 18.5236533,194.277075 47.2127289,216.232344 L91.5040454,172.077718 C83.5750728,167.754081 76.7544454,161.629832 71.5824768,154.190121 C65.6118886,146.482285 60.7281351,135.558971 60.7281351,120.449468 C60.7281351,118.625153 60.9410202,117.215648 61.3387793,116.180035 C62.8065664,97.4599977 73.0614684,81.2330492 87.9466225,71.6797349 L118.971833,102.934353 C118.817771,63.3440413 118.726735,18.622227 118.992841,0.235165583" id="Path" fill="#4285F4"></path>
                <path d="M-0.00015625,120.232344 C0.00452503097,121.960094 0.0452521754,123.67984 0.122025183,125.391584 L0.122025183,222.929893 L26.9359345,195.964284 C48.8808434,222.977913 82.2658668,240.232344 119.659003,240.232344 C158.574492,240.232344 193.14622,221.552872 214.999844,192.622712 L171.049637,147.959199 C166.746017,155.954802 160.650122,162.832745 153.244853,168.048176 C145.572702,174.068937 134.699959,178.993731 119.660407,178.993731 C117.844538,178.993731 116.441559,178.779057 115.41074,178.376543 C96.7773697,176.897833 80.6255459,166.555344 71.1164599,151.546516 L102.226381,120.259178 C62.8193575,120.414534 18.3045886,120.506336 0.00265251858,120.239405" id="Path" fill="#ABABAB"></path>
            </g>
        </g>
    </g>
</svg>