<?xml version="1.0" encoding="UTF-8"?>
<svg width="240px" height="240px" viewBox="0 0 240 240" version="1.1" xmlns="http://www.w3.org/2000/svg" xmlns:xlink="http://www.w3.org/1999/xlink">
    <title>recraft</title>
    <g id="Page-1" stroke="none" stroke-width="1" fill="none" fill-rule="evenodd">
        <g id="recraft">
            <rect id="Rectangle" fill="#000000" fill-rule="nonzero" x="0" y="0" width="240" height="240" rx="8"></rect>
            <path d="M123.434323,36 L116.773169,36 C104.563458,36 94.6655121,61.7716004 94.6655121,93.5625458 C94.6655121,99.6598808 95.0302323,105.53599 95.7043636,111.051405 L70.539229,111.051405 L48,192 L111.401762,192 L111.458674,149.450909 C113.161236,150.544214 114.94075,151.125332 116.773169,151.125332 C116.773169,151.125332 91.6419413,151.125332 123.434323,151.125332 C155.226705,151.125332 181,125.353331 181,93.5625458 C181,61.7716004 155.226705,36 123.434323,36 Z M130.797664,93.5625458 C130.797664,108.72613 128.422573,122.090251 124.859537,131.367305 C123.068,136.033085 121.131375,139.254485 119.393543,141.167768 C118.547072,142.100763 117.871338,142.585696 117.427261,142.822152 C117.020056,143.03937 116.825272,143.042576 116.773169,143.042576 C116.721066,143.042576 116.526281,143.03937 116.119077,142.822152 C115.674199,142.585696 114.998464,142.100763 114.151993,141.167768 C112.414161,139.254485 110.478338,136.033085 108.6868,131.367305 C105.123764,122.090251 102.748674,108.72613 102.748674,93.5625458 C102.748674,78.3985609 105.123764,65.0348409 108.6868,55.7573854 C110.478338,51.0915254 112.414161,47.8706865 114.151993,45.9568431 C114.998464,45.0245688 115.674199,44.5393951 116.119077,44.3026995 C116.526281,44.0855616 116.721066,44.082676 116.773169,44.082676 C116.825272,44.082676 117.020056,44.0855616 117.427261,44.3026995 C117.871338,44.5393951 118.547072,45.0245688 119.393543,45.9568431 C121.131375,47.8706865 123.068,51.0915254 124.859537,55.7573854 C128.422573,65.0348409 130.797664,78.3985609 130.797664,93.5625458 Z" id="Shape" fill="#FFFFFF"></path>
            <polygon id="Path" fill="#FFFFFF" fill-rule="nonzero" points="122.643472 151.460254 122.643472 148 116 148.279809 116.756495 151.460254 134.693467 192 198 192 174.812633 157.515898 142.931211 157.515898"></polygon>
        </g>
    </g>
</svg>