<?xml version="1.0" encoding="UTF-8"?>
<svg width="240px" height="240px" viewBox="0 0 240 240" version="1.1" xmlns="http://www.w3.org/2000/svg" xmlns:xlink="http://www.w3.org/1999/xlink">
    <title>reddit</title>
    <g id="Page-1" stroke="none" stroke-width="1" fill="none" fill-rule="evenodd">
        <g id="reddit" transform="translate(0, 0)">
            <rect id="ViewBox" x="0" y="0" width="240" height="240"></rect>
            <circle id="Oval" fill="#FF4500" fill-rule="nonzero" cx="120" cy="120" r="120"></circle>
            <path d="M199.828125,121.14375 C199.828125,111.41625 191.961563,103.690313 182.374687,103.690313 C177.84607,103.684135 173.48998,105.426907 170.215312,108.555 C158.198438,99.9703125 141.745313,94.3921875 123.434062,93.676875 L131.444063,56.1946875 L157.48125,61.7728125 C157.769062,68.3540625 163.20375,73.648125 169.929375,73.648125 C176.795625,73.648125 182.374687,68.07 182.374687,61.2 C182.374687,54.33375 176.796563,48.7546875 169.929375,48.7546875 C165.065625,48.7546875 160.771875,51.6159375 158.769375,55.7653125 L129.729375,49.6134375 C128.870625,49.4690625 128.011875,49.6134375 127.439062,50.0428125 C126.72375,50.4721875 126.295312,51.1865625 126.15375,52.0453125 L117.28125,93.8184375 C98.6840625,94.3921875 81.945,99.9703125 69.785625,108.698438 C66.5105758,105.570463 62.1541236,103.828016 57.6253125,103.834688 C47.896875,103.834688 40.171875,111.70125 40.171875,121.288125 C40.171875,128.440313 44.4628125,134.447812 50.473125,137.168438 C50.1812641,138.917581 50.0376288,140.688247 50.04375,142.461562 C50.04375,169.354688 81.375,191.245313 120.000937,191.245313 C158.627812,191.245313 189.959062,169.499062 189.959062,142.461562 C189.959184,140.688484 189.815589,138.918314 189.529687,137.168438 C195.537187,134.447812 199.828125,128.295938 199.828125,121.14375 M79.9425,133.589063 C79.9425,126.722813 85.520625,121.14375 92.390625,121.14375 C99.256875,121.14375 104.835938,126.721875 104.835938,133.589063 C104.835938,140.45625 99.2578125,146.037188 92.390625,146.037188 C85.5215625,146.177813 79.9425,140.45625 79.9425,133.589063 M149.614688,166.636875 C141.030937,175.221563 124.72125,175.794375 120.000938,175.794375 C115.137188,175.794375 98.8284375,175.077188 90.3853125,166.636875 C89.1,165.349688 89.1,163.34625 90.3853125,162.059063 C91.6734375,160.77375 93.6759375,160.77375 94.9640625,162.059063 C100.401563,167.496563 111.846563,169.354688 120.000938,169.354688 C128.155313,169.354688 139.742813,167.495625 145.035938,162.059063 C146.324063,160.77375 148.326563,160.77375 149.614688,162.059063 C150.758438,163.34625 150.758438,165.349688 149.614688,166.636875 M147.324375,146.17875 C140.457188,146.17875 134.879063,140.600625 134.879063,133.733438 C134.879063,126.86625 140.457187,121.288125 147.324375,121.288125 C154.193438,121.288125 159.771562,126.86625 159.771562,133.733438 C159.771562,140.455312 154.193438,146.17875 147.324375,146.17875" id="Shape" fill="#FFFFFF" fill-rule="nonzero"></path>
        </g>
    </g>
</svg>