<?xml version="1.0" encoding="UTF-8"?>
<svg width="240px" height="240px" viewBox="0 0 240 240" version="1.1" xmlns="http://www.w3.org/2000/svg" xmlns:xlink="http://www.w3.org/1999/xlink">
    <title>redhat</title>
    <g id="Page-1" stroke="none" stroke-width="1" fill="none" fill-rule="evenodd">
        <g id="redhat" transform="translate(0, 0)">
            <rect id="ViewBox" x="0" y="0" width="240" height="240"></rect>
            <g id="shape" transform="translate(0, 29)" fill-rule="nonzero">
                <path d="M160.085625,104.634375 C175.858125,104.634375 198.67875,101.38125 198.67875,82.621875 C198.725625,81.1734375 198.594375,79.725 198.28875,78.309375 L188.895,37.509375 C186.726562,28.531875 184.8225,24.459375 169.062187,16.5796875 C156.8325,10.3265625 130.191563,0 122.311875,0 C114.974063,0 112.843125,9.4565625 104.0925,9.4565625 C95.6709375,9.4565625 89.416875,2.3953125 81.53625,2.3953125 C73.9715625,2.3953125 69.0421875,7.5515625 65.235,18.155625 C65.235,18.155625 54.631875,48.061875 53.2696875,52.3996875 C53.0539774,53.1962657 52.960412,54.0209687 52.9921875,54.845625 C52.9921875,66.470625 98.76,104.584687 160.085625,104.584687 M201.100313,90.23625 C203.280937,100.562812 203.280937,101.646562 203.280937,103.00875 C203.280937,120.66 183.435937,130.456875 157.35,130.456875 C98.394375,130.494375 46.75125,95.9475 46.75125,73.1146875 C46.7472644,69.9363645 47.3949762,66.7909742 48.654375,63.8728125 C27.448125,64.9321875 0,68.7140625 0,92.9475 C0,132.6375 94.044375,181.557187 168.508125,181.557187 C225.597188,181.557187 239.99625,155.735625 239.99625,135.347813 C239.99625,119.310938 226.126875,101.104687 201.125625,90.23625" id="Shape" fill="#EE0000"></path>
                <path d="M201.100312,90.23625 C203.280937,100.562813 203.280937,101.646563 203.280937,103.00875 C203.280937,120.66 183.435937,130.456906 157.35,130.456906 C98.394375,130.494375 46.7512317,95.9475 46.7512317,73.1146875 C46.7472644,69.9363645 47.3949762,66.7909742 48.654375,63.8728125 L53.2696875,52.4503125 C53.0590205,53.230591 52.9654987,54.0378485 52.9921875,54.845625 C52.9921875,66.470625 98.76,104.584688 160.085625,104.584688 C175.858125,104.584688 198.67875,101.331563 198.67875,82.5703125 C198.725625,81.1228125 198.594375,79.674375 198.28875,78.25875 L201.100312,90.23625 Z" id="Path" fill="#000000"></path>
            </g>
        </g>
    </g>
</svg>