<?xml version="1.0" encoding="UTF-8"?>
<svg width="241px" height="240px" viewBox="0 0 241 240" version="1.1" xmlns="http://www.w3.org/2000/svg" xmlns:xlink="http://www.w3.org/1999/xlink">
    <title>redis</title>
    <g id="Page-1" stroke="none" stroke-width="1" fill="none" fill-rule="evenodd">
        <g id="redis" transform="translate(189, -64)">
            <rect id="box" x="-188" y="64" width="240" height="240"></rect>
            <g id="shape" transform="translate(-189, 81)" fill-rule="nonzero">
                <path d="M230.858382,158.940103 C218.035415,165.669605 151.623932,192.972156 137.461253,200.470744 C123.298573,207.969332 115.451683,207.777061 104.351205,202.393459 C93.2507263,197.009858 22.6287167,168.553677 9.80575019,162.40099 C3.48996072,159.324646 0.2363722,156.825117 0.2363722,154.325587 L0.2363722,129.907108 C0.2363722,129.907108 92.1024009,109.718602 107.030631,104.527272 C121.95886,99.14367 126.934937,98.9513986 139.566516,103.565914 C152.198095,108.18043 227.796181,121.831706 240.236372,126.446221 L240.236372,150.480157 C240.236372,152.979687 237.365559,155.671488 230.858382,158.940103 L230.858382,158.940103 Z" id="Path" fill="#A41E11"></path>
                <path d="M230.815185,134.120115 C218.001457,140.824031 151.637819,168.022773 137.485343,175.49285 C123.332867,182.962928 115.49163,182.771387 104.399149,177.408255 C93.3066674,172.045123 22.7355366,143.505597 9.92180828,137.376303 C-2.70067039,131.247009 -3.08316974,127.033119 9.34805925,122.244608 C21.7792883,117.264557 91.9679197,89.6827331 106.885394,84.5111412 C121.802869,79.1480088 126.775361,78.9564684 139.39784,83.553439 C152.020318,88.1504095 218.001457,114.39145 230.432686,118.98842 C243.246414,123.585391 243.628913,127.4162 230.815185,134.120115 Z" id="Path" fill="#D82C20"></path>
                <path d="M230.858382,119.062673 C218.035415,125.784205 151.623932,153.054418 137.461253,160.544125 C123.298573,167.841787 115.451683,167.841787 104.351205,162.464562 C93.2507263,157.087337 22.6287167,128.472817 9.80575019,122.327417 C3.48996072,119.254717 0.2363722,116.758148 0.2363722,114.26158 L0.2363722,89.8720225 C0.2363722,89.8720225 92.1024009,69.7074282 107.030631,64.5222468 C121.95886,59.1450216 126.934937,58.9529779 139.566516,63.562028 C152.198095,68.1710782 227.796181,81.8061848 240.236372,86.4152349 L240.236372,110.420704 C240.236372,112.917273 237.365559,115.605886 230.858382,119.062673 Z" id="Path" fill="#A41E11"></path>
                <path d="M230.817951,95.1554883 C218.007984,101.863809 151.663826,129.080422 137.515504,136.555408 C123.367183,143.838727 115.528248,143.838727 104.439023,138.472071 C93.3497974,133.105415 22.7993822,104.547137 9.98941525,98.4138154 C-2.82055174,92.2804939 -3.01174528,88.0638355 9.41583463,83.2721781 C21.8434145,78.2888545 92.0114427,50.6889081 106.924539,45.5139181 C121.837634,40.1472619 126.808666,39.9555956 139.42744,44.5555867 C152.046213,49.1555777 218.007984,75.41386 230.435564,80.0138511 C243.245531,84.6138422 243.627918,88.447168 230.817951,95.1554883 Z" id="Path" fill="#D82C20"></path>
                <path d="M231.041159,77.9769642 C218.21867,84.7106954 151.809665,112.030405 137.647514,119.533705 C123.485363,126.844613 115.638765,126.844613 104.538701,121.457628 C93.4386367,116.263036 22.8192617,87.5965801 9.99677361,81.4400259 C3.68121976,78.3617488 0.2363722,75.8606487 0.2363722,73.3595485 L0.2363722,48.925724 C0.2363722,48.925724 92.0989737,28.7245305 107.026646,23.5299378 C121.954319,18.1429529 126.93021,17.9505606 139.561318,22.5679762 C152.192426,27.1853919 227.787691,40.8452466 240.227419,45.4626622 L240.227419,69.5117021 C240.418799,72.0128023 237.548093,74.5139024 231.041159,77.9769642 Z" id="Path" fill="#A41E11"></path>
                <path d="M230.817951,54.0658816 C218.007984,60.7869564 151.663826,88.055317 137.515504,95.5445146 C123.367183,102.841682 115.528248,102.841682 104.439023,97.4648217 C93.3497974,92.0879619 22.7993822,63.6674171 9.98941525,57.5224344 C-2.82055174,51.3774517 -3.01174528,47.1527761 9.41583463,42.3520084 C21.8434145,37.35921 92.0114427,9.70678804 106.924539,4.52195891 C121.837634,-0.854900919 126.808666,-1.04693163 139.42744,3.56180537 C152.046213,8.17054237 218.007984,34.4787494 230.435564,39.0874864 C243.245531,43.6962234 243.627918,47.5368376 230.817951,54.0658816 Z" id="Path" fill="#D82C20"></path>
                <path d="M151.236372,29.9018318 L130.710056,32.1997042 L125.958594,43.3060872 L118.546314,30.8592787 L94.7890038,28.7528957 L112.464442,22.2422574 L107.142805,12.2848106 L123.867951,18.7954489 L139.452746,13.6252361 L135.27146,23.9656616 L151.236372,29.9018318 Z M124.818244,84.2848106 L86.2363722,68.1997042 L141.54339,59.7741723 L124.818244,84.2848106 Z" id="Shape" fill="#FFFFFF"></path>
                <ellipse id="Oval" fill="#FFFFFF" cx="70.7363722" cy="47.7848106" rx="29.5" ry="11.5"></ellipse>
                <polygon id="Path" fill="#7A0C00" points="176.236372 33.2848106 209.236372 46.2848106 176.236372 59.2848106"></polygon>
                <polygon id="Path" fill="#AD2115" points="140.236372 48.0625883 176.236372 33.2848106 176.236372 59.729255 172.636372 61.2848106"></polygon>
            </g>
        </g>
    </g>
</svg>