<?xml version="1.0" encoding="UTF-8"?>
<svg width="182px" height="180px" viewBox="0 0 182 180" version="1.1" xmlns="http://www.w3.org/2000/svg" xmlns:xlink="http://www.w3.org/1999/xlink">
    <title>rekt</title>
    <g id="Page-1" stroke="none" stroke-width="1" fill="none" fill-rule="evenodd">
        <g id="rekt" transform="translate(1, 0)">
            <rect id="Box" x="0" y="0" width="180" height="180"></rect>
            <path d="M122.666735,13.6975671 C121.520597,16.1855254 115.398543,20.8259869 108.633532,24.5719017 C93.4262369,32.9582779 65.639377,45.5937514 62.6761907,45.5937514 C58.0357292,45.5937514 37.2095615,57.7260424 33.0722826,62.7299135 C23.0086311,75.1976596 18.3681696,84.2829005 10.5967943,107.457253 C7.46588047,116.738177 3.8317841,125.460008 2.4899639,127.081374 C-1.9548155,131.693881 -0.473222369,137.955708 7.13042542,145.978675 C14.0631631,153.274822 18.3681696,156.12619 33.0722826,162.8912 C45.9593474,168.957346 51.6061741,170.215302 70.2798385,171.277577 C92.5875993,172.703261 98.5419264,173.43008 102.511478,175.750311 C106.956257,178.238269 112.910584,178.042587 112.099901,175.191219 C111.596719,174.128945 109.947398,172.703261 108.13035,172.535533 C101.169658,171.109849 102.176023,168.593936 109.611943,168.593936 C115.230815,168.593936 117.383318,167.895072 117.383318,166.105978 C117.383318,162.723473 113.581494,161.465516 106.313302,162.723473 C99.6880645,163.785747 99.3526094,161.996654 105.810119,160.57097 C108.941033,159.872105 113.078312,156.12619 111.932174,155.063916 C111.764446,154.868234 104.496254,155.427326 96.0539681,156.12619 C87.3041823,157.020737 76.3739386,156.85301 71.258249,155.958463 C66.1425595,155.063916 61.502098,154.337097 60.8591425,154.337097 C60.0205049,154.337097 59.5173223,153.638232 59.5173223,152.743685 C59.5173223,151.849138 70.2798385,150.786864 83.3346308,150.423454 C103.993071,149.892317 107.627167,149.36118 110.618308,146.509812 C115.398543,141.869351 114.89536,134.377521 109.611943,127.612511 C109.332397,127.221147 107.906713,125.320235 105.306937,121.909775 L110.450581,116.374767 L115.733998,110.672031 C115.733998,115.703857 115.733998,118.499316 115.733998,119.058407 C115.733998,123.670914 116.544681,129.401605 117.551046,131.889563 C119.535822,136.334342 131.109021,145.615265 143.157448,152.212548 C150.285868,156.12619 171.112035,161.130061 175.724542,160.039832 C180.197276,158.977558 179.051138,156.12619 173.572039,154.868234 C165.968391,153.274822 165.968391,150.954592 173.572039,149.696635 C182.517507,148.103224 182.014325,145.419583 172.761356,145.419583 C164.151343,145.419583 163.005205,143.127307 170.273398,140.275939 C176.059997,138.123436 177.066363,133.846384 171.587263,135.272068 C169.462715,135.803205 166.136119,136.697752 164.151343,137.061162 C162.166567,137.592299 159.035654,139.017983 157.050878,140.080257 C152.270644,142.763897 149.279503,141.338213 140.026534,132.4207 C139.523352,131.889563 136.923575,129.289786 132.255159,124.565461 C134.239935,119.337953 135.358118,116.430676 135.5538,115.84363 C137.231075,111.035441 139.523352,103.711339 140.529717,99.629969 C141.508127,95.3529171 146.819499,85.9042666 153.416782,76.455616 C167.310212,56.6637681 174.913859,41.3166996 175.89227,30.8057747 C176.730908,20.8259869 174.913859,18.7014383 160.684974,13.6975671 C154.898375,11.740746 147.630182,8.35824094 144.666996,6.40141982 C138.041758,1.92868583 136.056983,1.92868583 129.767201,6.03801018 C127.139469,7.82710378 123.840828,11.3773364 122.666735,13.6975671 Z" id="Logo" stroke-opacity="0" stroke="#000000" fill="#FFFFFF" fill-rule="nonzero"></path>
        </g>
    </g>
</svg>