<?xml version="1.0" encoding="UTF-8"?>
<svg width="240px" height="240px" viewBox="0 0 240 240" version="1.1" xmlns="http://www.w3.org/2000/svg" xmlns:xlink="http://www.w3.org/1999/xlink">
    <title>remedy</title>
    <g id="Page-1" stroke="none" stroke-width="1" fill="none" fill-rule="evenodd">
        <g id="remedy">
            <rect id="box" x="0" y="0" width="240" height="240"></rect>
            <path d="M0,163.500182 L75.003042,236 L240,236 L240,76.5001092 L164.996958,4 L30.0012168,4 C13.4333807,4 0,16.9837373 0,33.0000243 L0,163.500182 Z M149.622453,18 L29.1223164,18 C21.4389298,18 15.1045346,23.5347504 14.175881,30.6875061 L14.0585774,30.6875061 L14.0585774,163 L44.1860555,163 L44.1860555,54.2499757 C44.1860555,50.2459073 47.5585344,47 51.7130373,47 L119.504751,47 L119.504751,83.2500728 C119.504751,87.2541412 116.132272,90.5000485 111.967993,90.5000485 L74.3135336,90.5000485 L74.3135336,119.50034 L119.504751,163 L164.686192,163 L119.504751,119.50034 C136.142313,119.50034 149.622453,106.516322 149.622453,90.5000485 L149.622453,18 Z" id="Shape" fill="#FAFAFA"></path>
        </g>
    </g>
</svg>