<?xml version="1.0" encoding="UTF-8"?>
<svg width="240px" height="240px" viewBox="0 0 240 240" version="1.1" xmlns="http://www.w3.org/2000/svg" xmlns:xlink="http://www.w3.org/1999/xlink">
    <title>remix</title>
    <g id="Page-1" stroke="none" stroke-width="1" fill="none" fill-rule="evenodd">
        <g id="remix" transform="translate(0, -0)">
            <rect id="ViewBox" x="0" y="0" width="240" height="240"></rect>
            <path d="M15.729375,0 L15.729375,48.91875 L119.68875,48.91875 C147.16875,48.91875 160.9125,60.7125 160.9125,80.175 C160.9125,102.3075 147.16875,110.668125 119.68875,110.668125 L15.729375,110.668125 L15.729375,160.66125 L116.638125,160.66125 C138.39375,160.66125 150.223125,166.764375 152.131875,194.2425 C153.575625,213.01125 153.395625,222.301875 153.223125,231.21375 C153.166875,234.0825 153.110625,236.91 153.110625,240 L217.269375,240 C217.269375,225.811875 217.269375,212.8125 215.113125,185.08125 C212.44125,157.224375 197.93625,143.1075 173.12625,138.14625 C202.515,134.32875 224.270625,111.43125 224.270625,76.321875 C224.270625,29.383125 193.35375,0 131.139375,0 L15.729375,0 Z M15.729375,202.734375 L15.729375,240 L97.3575,240 L97.3575,216.15 C97.3575,211.13625 94.8975,202.734375 83.565,202.734375 L15.729375,202.734375 Z" id="Shape" fill="#FFFFFF" fill-rule="nonzero"></path>
        </g>
    </g>
</svg>