<?xml version="1.0" encoding="UTF-8"?>
<svg width="240px" height="240px" viewBox="0 0 240 240" version="1.1" xmlns="http://www.w3.org/2000/svg" xmlns:xlink="http://www.w3.org/1999/xlink">
    <title>render</title>
    <g id="Page-1" stroke="none" stroke-width="1" fill="none" fill-rule="evenodd">
        <g id="render">
            <rect id="box" fill="#000000" x="0" y="0" width="240" height="240" rx="32"></rect>
            <path d="M161.403959,41.0446382 C140.774843,40.0777423 123.427982,54.9327442 120.468106,74.5050288 C120.351157,75.413258 120.174965,76.2922957 120.028779,77.1712568 C115.428237,101.548713 94.0081024,120.007662 68.2805668,120.007662 C59.1088736,120.007662 50.4939942,117.663919 42.9925655,113.561641 C42.0841904,113.063547 41,113.708134 41,114.733589 L41,119.978547 L41,199 L119.999542,199 L119.999542,139.755938 C119.999542,128.856269 128.848395,120.007662 139.749235,120.007662 L159.498928,120.007662 C181.856882,120.007662 199.8485,101.460832 198.969077,78.8999876 C198.178135,58.5952353 181.710697,42.0115334 161.403959,41.0446382 Z" id="Path" fill="#FFFFFF"></path>
        </g>
    </g>
</svg>