<?xml version="1.0" encoding="UTF-8"?>
<svg width="240px" height="240px" viewBox="0 0 240 240" version="1.1" xmlns="http://www.w3.org/2000/svg" xmlns:xlink="http://www.w3.org/1999/xlink">
    <title>rengine</title>
    <g id="Page-1" stroke="none" stroke-width="1" fill="none" fill-rule="evenodd">
        <g id="rengine" transform="translate(-140, 199)">
            <rect id="box" x="140" y="-199" width="240" height="240"></rect>
            <g id="shape" transform="translate(165.7191, -198.5893)">
                <path d="M156.154789,215.589252 C161.959276,214.497075 164.799031,214.977973 170.463494,210.820229 C175.263597,207.296695 181.803541,204.243577 184.662272,198.755171 C185.956803,196.073299 186.490958,193.086966 186.206471,190.121922 C185.771664,182.838193 184.403609,175.64064 182.135937,168.706198 C179.673725,161.397714 168.671961,136.02735 166.876502,130.679152 C164.921389,124.857917 162.754276,118.840129 158.370322,114.544798 C155.953257,112.177649 152.997032,110.473537 149.98519,108.905702 C147.615237,107.505592 134.859892,100.729111 133.81494,100.16697 C139.239266,96.497987 143.664443,92.6154165 147.50662,85.404554 C148.290672,83.9717241 148.918297,82.4584934 149.378634,80.8910494 C152.041723,71.4512797 150.47724,61.3976104 148.895745,51.716736 C148.009793,46.291227 141.17475,25.0111241 127.041403,15.1107659 C120.360125,10.4295364 99.4597839,2.13828944 91.8474063,1.58925231 C84.2297941,2.13501356 63.3261816,10.4288812 56.6449036,15.1107659 C42.5115568,25.0111241 35.6791305,46.291227 34.7905618,51.716736 C33.2110294,61.3969552 31.6472008,71.4506245 34.3102897,80.8903943 C34.7706859,82.4577168 35.3980797,83.9709184 36.1816495,85.4038988 C40.027752,92.621313 44.4581636,96.5058491 49.8674404,100.189246 C48.5031798,100.858836 39.9354926,106.456001 37.5766632,107.849559 C34.5667838,109.417394 31.6085958,111.121506 29.1915318,113.48931 C24.807577,117.783986 22.6404638,123.801774 20.6853508,129.623009 C18.8898923,134.971207 7.88812876,160.341571 5.42591654,167.650055 C3.15799124,174.584432 1.78992992,181.782018 1.35538179,189.065779 C1.07089508,192.030823 1.60505003,195.017156 2.8995808,197.699028 C5.75569463,203.187434 12.2956391,206.240552 17.0983598,209.764741 C21.4342259,212.458475 26.2998136,214.183096 31.3625709,214.820731" id="Path" fill="#085872" fill-rule="nonzero"></path>
                <path d="M58.0968306,79.6024242 C55.928056,74.8898169 54.8661853,68.9272472 55.4307324,61.3776318 C61.7393017,55.0983088 76.6811995,46.5892523 91.2791478,46.5892523 C105.877096,46.5892523 120.818341,55.0983088 127.126911,61.3776318 C128.651514,78.4403395 118.596049,91.9820357 108.521004,94.5219645 C104.259904,95.6591086 99.8906814,96.3383948 95.4868186,96.5483988 C90.8412159,96.74514 83.0021692,96.1673767 83.0021692,96.1673767 C73.0387285,94.3114514 62.8781857,89.9936381 58.0968306,79.6024242 Z" id="Path" fill="#C4A095" fill-rule="nonzero"></path>
                <path d="M31.1406612,213.433438 C31.0311187,213.420302 30.9211362,213.40651 30.8107138,213.392061 C31.0390374,213.422272 30.7546228,213.383522 30.7262473,213.379582 C30.4926446,213.345429 30.2590419,213.309963 30.0260991,213.271214 C29.4634289,213.178389 28.9031783,213.071334 28.3453474,212.950049 C27.1739563,212.693283 26.0174382,212.3734 24.8809004,211.991811 C22.0151022,211.064346 19.2963926,209.735959 16.8064293,208.04655 C12.5870628,205.101561 7.44582349,202.665574 4.52380992,198.260569 C2.93687182,195.72134 2.20392804,192.744982 2.43128395,189.763185 C2.880877,181.305173 4.64090447,172.96709 7.64907105,165.044058 C10.6344345,157.271756 13.9365474,149.618987 17.1310975,141.931409 C18.4819018,138.680362 19.8432645,135.432598 21.1148815,132.150025 C22.7349229,127.968325 23.9412104,123.651984 26.1670351,119.723143 C27.5784704,117.15469 29.4844579,114.888129 31.7761397,113.052913 C33.9537921,111.345292 36.4495137,110.212351 38.8000585,108.78386 C42.2123738,106.707787 45.5435221,104.501673 48.9531978,102.421002 C49.4613167,102.110347 49.9700955,101.797064 50.4947117,101.515306 C52.2889653,100.551157 50.6926801,97.8281587 48.8964469,98.7929646 C45.4986493,100.618805 42.3021195,102.874835 39.0376206,104.92201 C37.143063,106.11012 35.163379,107.122214 33.2450652,108.26829 C30.4287327,109.878308 27.9335993,111.989653 25.8839403,114.497166 C22.3125904,119.035497 20.5717882,124.440117 18.6382969,129.787598 C17.5719071,132.737184 16.3405437,135.632915 15.1408552,138.529303 C11.8011283,146.607664 8.34394013,154.646617 5.14741038,162.786058 C3.4211283,167.092702 2.05985812,171.53553 1.07783999,176.068065 C0.350099896,179.584557 -0.176900398,183.139257 -0.500628044,186.715081 C-0.818037377,190.119158 -0.953315783,193.565268 0.270788818,196.829451 C2.35737574,202.387101 7.45242244,205.701855 12.2359989,208.797904 C13.3954338,209.5486 14.5561885,210.299953 15.6793292,211.104505 C17.0682241,212.029039 18.5432884,212.818401 20.0841261,213.461679 C22.5795135,214.621638 25.1981935,215.498265 27.89068,216.074996 C28.9656484,216.29633 30.0511751,216.45527 31.1406612,216.589252 C32.0133908,216.584585 32.7197191,215.881594 32.7244084,215.012987 C32.7035346,214.151191 32.006547,213.457497 31.1406612,213.436721 L31.1406612,213.433438 Z" id="Path" fill="#211715" fill-rule="nonzero"></path>
                <path d="M156.267972,216.537151 C158.834264,216.058818 161.478421,215.872836 163.99475,215.151748 C166.945824,214.30341 169.355089,212.635445 171.846112,210.902224 C176.542005,207.639382 182.027576,204.845085 185.067546,199.762883 C186.781545,196.691222 187.528211,193.168729 187.208826,189.661126 C186.969036,185.941577 186.511654,182.239458 185.839056,178.573991 C184.899166,173.540633 183.486958,168.608211 181.621382,163.842915 C178.366636,155.418911 174.813408,147.113022 171.399688,138.753622 C170.23561,135.901246 169.01508,133.052786 168.019709,130.135153 C165.964728,124.111295 163.787111,117.838156 159.152212,113.277356 C155.643108,109.82527 151.061416,107.668532 146.784695,105.3356 C143.182153,103.370065 139.564687,101.43259 135.948518,99.4951144 L134.628711,98.7883829 C132.861181,97.8388961 131.286367,100.541834 133.057141,101.492626 C136.082186,103.117521 139.107231,104.742633 142.132277,106.367963 C143.864118,107.303746 145.59596,108.240834 147.318069,109.195542 C149.171899,110.223989 151.063363,111.199579 152.858794,112.32787 C155.502324,113.931587 157.782007,116.075084 159.55062,118.619933 C161.238529,121.2223 162.606389,124.020932 163.624244,126.954535 C164.831148,130.229123 165.942667,133.512194 167.24755,136.750238 C170.564588,144.983692 174.041249,153.151236 177.329737,161.396436 C178.810626,164.944444 180.101568,168.569647 181.197019,172.256478 C182.165227,175.745664 182.902234,179.295598 183.403187,182.8829 C183.649759,184.621341 183.834687,186.370224 183.980684,188.120413 C184.182867,189.865359 184.195052,191.627287 184.017021,193.374892 C183.619512,196.226404 182.296476,198.865981 180.253558,200.883343 C178.26134,202.789219 176.070884,204.473852 173.720057,205.908119 C172.535215,206.685328 171.342587,207.452095 170.179807,208.26389 C168.942722,209.186025 167.65694,210.04018 166.328097,210.82261 C164.192175,211.905771 161.881646,212.598061 159.50455,212.867107 C158.147108,213.072013 156.789017,213.265826 155.439362,213.519675 C154.614972,213.755863 154.131043,214.613079 154.351851,215.446057 C154.595361,216.268255 155.440503,216.750818 156.267323,216.539761 L156.267972,216.537151 Z" id="Path" fill="#211715" fill-rule="nonzero"></path>
                <path d="M50.5014642,98.5894549 C46.5052199,95.9772551 43.010214,92.6626834 40.1840423,88.8046832 C38.4776328,86.4818587 37.1024663,83.9309096 36.0984007,81.2257727 C35.1641708,78.3246639 34.6261039,75.3095633 34.4989322,72.2630243 C34.1373189,65.9240483 35.0299087,59.6014996 36.0336635,53.3597733 C36.4610072,50.7288582 37.1000126,48.1371088 37.944394,45.6100186 C40.4724174,37.9706556 44.1389014,30.4239426 49.1877552,24.0573687 C51.7413283,20.7026052 54.8282772,17.7942345 58.3242122,15.4494505 C61.3789502,13.5717549 64.5608253,11.9113792 67.8464772,10.4805134 C71.7394327,8.70504812 75.7064983,7.10612185 79.7476738,5.68373457 C83.1173141,4.42000325 86.5946098,3.46765624 90.1363721,2.83852194 C90.3770117,2.80172473 89.8748073,2.87071949 90.1089078,2.83852194 C90.174299,2.83063682 90.2351128,2.82143752 90.2985422,2.81486659 C90.4613663,2.79712508 90.6254982,2.77872648 90.7863605,2.76492752 C91.0825826,2.7393009 91.3801125,2.72155939 91.6776424,2.71827392 C92.3017514,2.71834391 92.9251817,2.75961058 93.543907,2.8418074 C93.7270023,2.86414856 93.4857088,2.83326519 93.4654376,2.83063682 C93.558293,2.84377868 93.6511485,2.85692054 93.7433501,2.87137659 C93.9349463,2.90160286 94.1258886,2.93248623 94.3168308,2.96599798 C94.7229101,3.03762111 95.1270277,3.11778646 95.5304913,3.20386564 C96.3648829,3.38259493 97.1933893,3.58892213 98.0153565,3.81101956 C102.054102,4.94103206 106.021387,6.31465723 109.895628,7.92442165 C113.709896,9.46924727 117.472505,11.1684897 121.116756,13.0845729 C124.326268,14.6983104 127.297241,16.7520625 129.944567,19.1869954 C136.181578,25.0929472 140.690301,32.9754347 143.852619,40.8106114 C145.036507,43.6842711 146.023811,46.6357838 146.807647,49.6445696 C147.14245,50.9712403 147.358894,52.3077674 147.574685,53.6587506 C148.074928,56.7812565 148.541167,59.9090191 148.831504,63.0591229 C149.39256,69.144461 149.448797,75.6634806 147.366087,81.4925524 C146.347092,84.1354853 144.979767,86.6290633 143.300717,88.9065326 C141.875459,90.912147 140.238336,92.7568383 138.417957,94.4083722 C136.7282,95.9224592 134.936595,97.3177078 133.055879,98.5841981 C131.399521,99.7235974 132.967601,102.461047 134.640308,101.307191 C138.932479,98.486433 142.703023,94.9361299 145.782967,90.8153877 C147.57877,88.3645875 149.059183,85.6955807 150.189025,82.8717906 C151.273465,79.848011 151.921313,76.6837381 152.112834,73.4753609 C152.65885,66.925458 151.785878,60.3499285 150.769045,53.8893903 C150.332104,50.8959608 149.653948,47.9431348 148.741264,45.0600318 C146.141497,36.8350948 142.148761,29.1226537 136.938808,22.2621906 C134.187277,18.6187977 130.858793,15.4543746 127.086318,12.8953301 C123.952906,10.9256147 120.677512,9.19374124 117.287448,7.7141519 C113.120721,5.80004003 108.867678,4.05480106 104.536166,2.55005812 C100.962084,1.20346675 97.2555523,0.242864664 93.4791697,-0.315524399 C90.4652898,-0.67889682 87.4317925,0.0590186036 84.5415019,0.86132914 C80.4068504,2.04681581 76.3436721,3.47091 72.3722015,5.12651972 C64.9025659,8.16754606 57.1452091,11.4543252 51.2344994,17.1158384 C44.6280275,23.4416725 39.9970235,31.7079023 36.6117216,40.1482617 C35.4127252,43.0673072 34.4219446,46.0683817 33.646885,49.1287516 C33.2545379,50.7484858 33.0223992,52.4004175 32.7647579,54.0464355 C32.2481675,57.3456994 31.7793126,60.657448 31.509247,63.9875953 C31.2180602,67.2456016 31.2053714,70.5226958 31.4713201,73.7828804 C31.6804294,76.9852342 32.3554643,80.1395049 33.4749062,83.1451413 C35.6243026,88.3624141 38.911406,93.0285118 43.0939502,96.7995336 C44.9342591,98.4306906 46.879499,99.9382593 48.9170356,101.312448 C50.5884345,102.462361 52.1604387,99.7301683 50.5014642,98.5894549 Z" id="Path" fill="#211715" fill-rule="nonzero"></path>
                <path d="M60.0076599,79.2770086 C57.5424273,73.8632484 57.1418677,67.7601787 57.5619668,61.8977788 L57.1060453,63.0095681 C60.2197379,60.0552584 63.7269195,57.549421 67.5271077,55.5638493 C72.2470872,52.9541625 77.3044625,51.0138384 82.554931,49.7982404 C87.9355152,48.5522031 93.5112909,48.4100613 98.9479134,49.3803384 C104.301444,50.3906402 109.481484,52.1724378 114.327448,54.6704939 C118.679544,56.8849167 122.949574,59.5577891 126.441933,63.0095681 L125.986011,61.8977788 C126.694659,69.1260294 125.122534,76.3950814 121.491928,82.6771221 C118.672379,87.4139988 114.316375,91.791833 109.064811,93.3032125 C103.556013,94.8494301 97.8488783,95.5646524 92.1305847,95.4254222 C89.4224111,95.3757187 86.7142375,95.239688 84.0119257,95.0559158 C83.8490966,95.0454519 83.6862675,95.0415279 83.5214845,95.0219081 C84.0510047,95.0873075 83.3137146,94.9565087 83.2642145,94.9499688 L82.8187141,94.8603716 C82.3723453,94.7688125 81.927062,94.6720214 81.4828642,94.5699984 C79.8446524,94.1983082 78.2260495,93.7443016 76.6331623,93.2096914 C73.1842184,92.1000027 69.9470926,90.4124312 67.0588112,88.2184111 C64.0387579,85.8386436 61.6228892,82.7745701 60.0089625,79.2770086 C59.5686881,78.5343979 58.6165385,78.2837369 57.8700395,78.71392 C57.1408085,79.1637607 56.8936337,80.1104029 57.309256,80.8616355 C60.2089166,87.080462 65.4181452,91.7467074 71.593276,94.5673824 C74.5724547,95.912348 77.6820702,96.9446001 80.8725807,97.647693 C82.921458,98.0713241 85.003029,98.3159601 87.0939549,98.378858 C90.1499315,98.5371245 93.2254475,98.6731552 96.2846806,98.5266606 C99.9431537,98.3394015 103.578772,97.8361472 107.151243,97.022475 C109.012641,96.6422505 110.830073,96.0704754 112.574755,95.3162053 C115.083305,94.1324573 117.365246,92.5154058 119.316531,90.5387809 C123.986714,85.7802091 127.163715,79.7502677 128.453849,73.1961747 C129.254755,69.4874339 129.47581,65.6761081 129.109073,61.8990867 C128.957316,60.5322398 127.180525,59.3955987 126.178149,58.5787605 C124.939346,57.5698661 123.656035,56.6187412 122.328218,55.7253858 C116.171625,51.5612747 109.316527,48.5481239 102.09312,46.8310708 C98.217059,45.897542 94.2343351,45.4871415 90.2502342,45.6107185 C86.2676646,45.7923809 82.3221967,46.4626918 78.501789,47.6067074 C71.573613,49.6237941 65.051811,52.8463022 59.2332447,57.1275484 C58.0360573,58.0072344 56.8839278,58.9471331 55.7812678,59.9436454 C55.1592606,60.511966 54.5294376,60.9985374 54.4362994,61.8977788 C54.322319,63.0030282 54.3021282,64.1278974 54.2897532,65.2383788 C54.2112075,68.9611827 54.6572133,72.6764422 55.6145308,76.2738693 C56.0590211,77.8449055 56.6252224,79.3786211 57.3079534,80.8609815 C57.7482278,81.6035922 58.7003774,81.8542532 59.4468765,81.4240701 C60.1751549,80.9738329 60.4221468,80.0281795 60.0076599,79.2770086 Z" id="Path" fill="#211715" fill-rule="nonzero"></path>
                <path d="M28.2504557,239.535639 C44.5132503,239.438912 60.7777448,239.521821 77.0371396,239.569778 C96.89094,239.628302 116.743041,239.538891 136.596841,239.511254 C144.501304,239.499875 152.405767,239.488495 160.310229,239.535639 C162.936551,239.551083 162.939101,235.649497 160.310229,235.634053 C144.047435,235.537326 127.78294,235.620235 111.523545,235.668192 C91.6705949,235.726716 71.8176443,235.637304 51.9646938,235.609668 C44.0602311,235.598288 36.1557684,235.586909 28.2513057,235.634053 C25.6266841,235.649497 25.6215844,239.551083 28.2513057,239.535639 L28.2504557,239.535639 Z" id="Path" fill="#4D4544" fill-rule="nonzero"></path>
                <rect id="Rectangle" stroke="#000000" stroke-width="6" fill="#68BEEB" x="14.2809266" y="120.589252" width="159" height="112" rx="10"></rect>
                <circle id="Oval" fill="#EBF4FF" cx="94.2809266" cy="176.589252" r="9"></circle>
            </g>
        </g>
    </g>
</svg>