<svg width="241" height="241" viewBox="0 0 241 241" fill="none" xmlns="http://www.w3.org/2000/svg">
<path d="M119.397 235.482V180.108C100.29 180.388 79.4104 178.864 57.7211 174.44L57.6188 174.341V207.336C57.6188 213.929 58.3289 219.254 59.7491 223.31C61.1693 227.368 63.1812 230.537 65.7849 232.819C68.6253 235.102 72.0574 236.623 76.0813 237.384C80.3419 238.398 85.1944 238.905 90.638 238.905C96.0824 238.905 101.527 238.525 106.97 237.764C112.651 237.003 116.793 236.243 119.397 235.482Z" fill="url(#paint0_linear_2_34)"/>
<path d="M119.397 162.455H122.028C146.319 161.966 172.813 158.356 195.393 148.026L195.377 148.002C205.792 141.916 214.786 133.295 222.361 122.138C229.935 110.981 233.723 97.5421 233.723 81.8212C233.723 56.7182 225.438 36.8133 208.869 22.1064C192.3 7.39967 167.684 0.0462646 135.019 0.0462646C122.948 0.0462646 111.586 0.806961 100.935 2.32835C90.283 3.59618 80.9336 5.75151 72.8859 8.79431C68.1519 10.5693 64.3648 12.9781 61.5244 16.0209C58.9207 18.8101 57.6188 22.8672 57.6188 28.192V91.9706C68.4929 93.6352 109.773 97.2016 119.042 96.8068V54.8165C121.646 54.3093 124.013 53.9289 126.143 53.6754C128.274 53.4218 131.114 53.295 134.664 53.295C147.209 53.295 156.322 55.8307 162.003 60.902C167.92 65.7198 170.879 72.9464 170.879 82.5819C170.879 92.2171 168.275 99.571 163.068 104.642C157.861 109.459 150.759 111.869 141.765 111.869H119.042V111.666C118.981 111.763 118.924 111.861 118.872 111.959C84.4269 110.302 63.5109 108.84 57.6053 108.011L57.6048 108.002L41.2407 106.376C39.7467 106.228 38.6547 104.896 38.8014 103.402L39.6874 94.3841C39.9434 91.7774 36.7286 90.3484 34.9693 92.2866L0.818094 129.904C-0.116336 130.933 -0.122491 132.503 0.803828 133.542L28.2376 164.3C29.8145 166.068 32.7385 165.116 32.97 162.76L33.6062 156.283C33.7605 154.713 35.2147 153.605 36.7696 153.873L57.6188 157.463V157.59L57.7211 157.487C70.4773 159.637 93.5452 162.783 119.397 162.496V162.455Z" fill="url(#paint1_linear_2_34)"/>
<path d="M168.039 213.802L147.464 178.38C174.191 175.472 195.319 169.51 207.117 164.743C211.641 171.046 216.13 177.13 220.585 182.994C228.87 193.897 235.379 203.786 240.113 212.661C237.746 221.536 233.368 228.382 226.976 233.2C220.823 237.764 213.84 240.046 206.029 240.046C200.821 240.046 196.324 239.413 192.537 238.144C188.75 236.876 185.436 235.102 182.596 232.819C179.755 230.537 177.151 227.749 174.784 224.452C172.418 221.155 170.169 217.606 168.039 213.802Z" fill="url(#paint2_linear_2_34)"/>
<path d="M0.113159 131.784C0.12573 132.413 0.355621 133.039 0.803287 133.541L28.237 164.299C29.814 166.067 32.7379 165.116 32.9694 162.76L33.6057 156.283C33.76 154.713 35.2141 153.605 36.7691 153.873L57.6182 157.463V157.589L57.7206 157.486C70.4768 159.636 93.5444 162.783 119.397 162.496V162.455H119.917V138.495L0.113159 131.784Z" fill="url(#paint3_linear_2_34)"/>
<path d="M119.918 138.495L0.113705 131.784C0.100261 131.111 0.335242 130.435 0.81809 129.903L34.9693 92.2857C36.7286 90.3483 39.9434 91.7774 39.6874 94.384L38.8014 103.402C38.6547 104.896 39.7467 106.228 41.2407 106.376L57.6048 108.002L57.6053 108.011C63.5109 108.839 84.4269 110.301 118.872 111.959C118.924 111.86 118.981 111.763 119.042 111.666V111.869H119.918V138.495Z" fill="url(#paint4_linear_2_34)"/>
<defs>
<linearGradient id="paint0_linear_2_34" x1="55.9278" y1="-23.022" x2="198.127" y2="289.864" gradientUnits="userSpaceOnUse">
<stop stop-color="#1EA0FF"/>
<stop offset="1" stop-color="#004EEB"/>
</linearGradient>
<linearGradient id="paint1_linear_2_34" x1="55.9278" y1="-23.0219" x2="198.127" y2="289.864" gradientUnits="userSpaceOnUse">
<stop stop-color="#1EA0FF"/>
<stop offset="1" stop-color="#004EEB"/>
</linearGradient>
<linearGradient id="paint2_linear_2_34" x1="55.9278" y1="-23.0219" x2="198.127" y2="289.864" gradientUnits="userSpaceOnUse">
<stop stop-color="#1EA0FF"/>
<stop offset="1" stop-color="#004EEB"/>
</linearGradient>
<linearGradient id="paint3_linear_2_34" x1="178.324" y1="147.75" x2="78.5305" y2="121.695" gradientUnits="userSpaceOnUse">
<stop stop-color="#1EA0FF"/>
<stop offset="1" stop-color="#004EEB"/>
</linearGradient>
<linearGradient id="paint4_linear_2_34" x1="38.8129" y1="74.753" x2="220.772" y2="98.0312" gradientUnits="userSpaceOnUse">
<stop stop-color="#1EA0FF"/>
<stop offset="1" stop-color="#004EEB"/>
</linearGradient>
</defs>
</svg>
