<?xml version="1.0" encoding="UTF-8"?>
<!DOCTYPE svg PUBLIC "-//W3C//DTD SVG 1.1//EN" "http://www.w3.org/Graphics/SVG/1.1/DTD/svg11.dtd">
<svg xmlns="http://www.w3.org/2000/svg" version="1.1" width="301px" height="302px" style="shape-rendering:geometricPrecision; text-rendering:geometricPrecision; image-rendering:optimizeQuality; fill-rule:evenodd; clip-rule:evenodd" xmlns:xlink="http://www.w3.org/1999/xlink">
<g><path style="opacity:0.688" fill="#6e6e6e" d="M 137.5,-0.5 C 145.833,-0.5 154.167,-0.5 162.5,-0.5C 215.07,5.59912 254.904,31.2658 282,76.5C 291.717,94.4812 297.884,113.481 300.5,133.5C 300.5,144.833 300.5,156.167 300.5,167.5C 289.918,232.587 253.251,275.421 190.5,296C 180.806,298.45 171.14,300.283 161.5,301.5C 153.833,301.5 146.167,301.5 138.5,301.5C 85.3738,295.833 45.2072,270.166 18,224.5C 8.28295,206.519 2.11629,187.519 -0.5,167.5C -0.5,156.167 -0.5,144.833 -0.5,133.5C 9.47901,70.0132 44.8123,27.5132 105.5,6C 116.164,3.10098 126.83,0.934317 137.5,-0.5 Z"/></g>
<g><path style="opacity:1" fill="#252525" d="M 134.5,1.5 C 205.769,-1.6305 256.936,28.7028 288,92.5C 308.609,148.728 300.609,200.395 264,247.5C 220.997,293.298 168.831,308.798 107.5,294C 43.7672,271.593 8.26724,226.76 1,159.5C -0.388762,97.429 25.4446,50.5957 78.5,19C 96.1986,9.59769 114.865,3.76435 134.5,1.5 Z"/></g>
<g><path style="opacity:1" fill="#0076d6" d="M 67.5,50.5 C 95.9971,49.3362 124.664,49.1696 153.5,50C 187.347,83.6804 221.014,117.514 254.5,151.5C 220.707,184.792 187.041,218.292 153.5,252C 124.833,252.667 96.1667,252.667 67.5,252C 101.167,218.333 134.833,184.667 168.5,151C 134.965,117.299 101.299,83.7985 67.5,50.5 Z"/></g>
</svg>
