<?xml version="1.0" encoding="UTF-8"?>
<svg width="240px" height="240px" viewBox="0 0 240 240" version="1.1" xmlns="http://www.w3.org/2000/svg" xmlns:xlink="http://www.w3.org/1999/xlink">
    <title>rethink</title>
    <g id="Page-1" stroke="none" stroke-width="1" fill="none" fill-rule="evenodd">
        <g id="rethink" transform="translate(-170, -370)">
            <rect id="box" x="170" y="370" width="240" height="240"></rect>
            <g id="shape" transform="translate(233.8628, 401.7287)">
                <path d="M56.6554967,0.354878963 C68.3992195,-0.420947324 77.2500798,4.20682829 83.2080774,14.2382131 C84.886091,17.1109672 86.1635347,20.1556189 87.0404086,23.3719856 C88.6282711,30.522268 90.6964526,37.524766 93.2451353,44.3796622 C95.5627832,49.9645987 98.9388846,54.8054981 103.373439,58.9023604 C109.342569,63.454998 112.26244,69.5137946 112.133053,77.0785676 C112.137171,78.5470956 112.046917,80.0084992 111.859316,81.4627784 C111.013465,85.0929049 110.283497,88.7464139 109.669412,92.4233054 C109.347861,95.4295952 109.134893,98.4437402 109.03069,101.46574 C109.384725,107.860477 109.749708,114.254118 110.125642,120.646662 C109.718685,137.516557 104.943418,153.013464 95.8000228,167.137564 C92.6246626,170.847337 88.7620378,171.791221 84.2117832,169.969034 C83.1918356,169.49426 82.2184234,168.946234 81.2919117,168.324955 C78.6072725,166.063432 75.869893,163.871327 73.0797734,161.748638 C71.0563025,160.328702 68.866399,159.963351 66.5100627,160.652586 C62.643788,162.283147 58.8722266,164.109901 55.195561,166.132849 C48.726221,170.116635 41.9435422,173.496131 34.8477072,176.271337 C33.9994845,175.977594 33.1175009,175.825243 32.2015737,175.814648 C25.9125357,170.665575 21.7455142,164.119766 19.7008743,156.177037 C16.4450351,143.335684 15.5630515,130.33522 17.0547408,117.175829 C17.0295569,113.987777 15.6608672,111.582489 12.9486716,109.960149 C12.361595,109.111073 12.0270872,108.167189 11.9449658,107.128679 C12.3811216,105.910599 12.6853357,104.662378 12.8574256,103.383832 C12.7499379,101.737744 12.0807398,100.367678 10.850014,99.2736347 C9.45084817,98.238413 8.05186478,97.2033739 6.6526989,96.1681521 C5.33912175,94.9142678 4.09197168,93.6052155 2.91161366,92.2406299 C0.0893754528,88.1307977 -0.579640083,83.685756 0.904202067,78.9053221 C1.84056833,76.5804117 2.631306,74.2056309 3.27659759,71.7809796 C3.98284148,67.7449482 4.77376165,63.7260884 5.6489931,59.7244 C8.89735004,49.6533198 15.0108308,41.8287823 23.9894354,36.2506047 C25.7517603,34.7623479 26.937958,32.9052692 27.5480287,30.6790035 C28.5354927,24.1176667 30.8471184,18.0893769 34.4827233,12.5941341 C40.0038351,5.15664929 47.3947596,1.07688541 56.6554967,0.354878963 Z" id="Path" fill="#032329" opacity="0.986"></path>
                <path d="M55.1600994,2.39546987 C61.2423211,1.87286128 66.9891722,3.00041371 72.4004712,5.77810888 C76.2399927,8.06193874 79.0528955,11.2617324 80.8391795,15.3774898 C82.9036687,22.4773749 85.0813998,29.5474561 87.372373,36.5875507 C91.4117014,47.6385409 95.343595,58.7312198 99.1684169,69.8654047 C106.232069,91.6368007 107.9258,113.821976 104.24979,136.421113 C102.12142,145.950098 98.4918684,154.84845 93.3611337,163.116534 C91.6176785,165.346882 89.3492085,166.230573 86.5557238,165.767792 C84.0264705,165.087973 81.8788647,163.777703 80.1132691,161.836617 C78.6010163,160.008163 77.088582,158.17971 75.5763292,156.351256 C75.4035625,155.77639 75.5547333,155.319277 76.0300232,154.979916 C78.72061,153.502708 81.503206,152.222791 84.3779927,151.140164 C85.9474109,150.379527 87.2781861,149.31299 88.3704998,147.94037 C87.3743693,147.168397 86.2855037,147.016087 85.103903,147.483257 C73.637967,152.040128 62.3863559,157.098728 51.3490699,162.659421 C47.3565627,164.853565 43.3640556,167.047709 39.3715485,169.241853 C37.4683929,170.157909 35.4721393,170.462529 33.3827877,170.15608 C31.9512924,169.630034 30.7716881,168.74616 29.8439746,167.504823 C25.1262829,160.133778 22.1620279,152.088582 20.9515723,143.369236 C20.0044407,134.119638 19.8833952,124.855596 20.5886171,115.576743 C20.7002258,114.610771 21.2145333,113.970812 22.1311767,113.656866 C26.8933303,112.952363 31.2487927,111.245868 35.1975637,108.537197 C38.5641546,105.562668 40.4090559,101.814339 40.7326304,97.2922075 C40.853676,95.7074868 40.853676,94.122949 40.7326304,92.5382283 C40.4475291,90.6518128 40.2660515,88.7624718 40.1881976,86.8700224 C43.4792939,79.9571882 44.6285915,72.7042616 43.636272,65.1114255 C41.8766652,57.2450528 37.8841581,50.7843952 31.6587506,45.7298183 C31.2001567,45.0494507 30.8372015,44.3180693 30.569885,43.535674 C29.2066253,33.0935588 31.1424468,23.3418677 36.3771681,14.2804177 C40.8299024,7.4203344 47.0908795,3.45867902 55.1600994,2.39546987 Z" id="Path" fill="#FEFEFE"></path>
                <path d="M75.527415,17.279195 C76.194976,17.2318881 76.8210492,17.3981608 77.4054638,17.7782127 C78.3800004,18.6155644 79.2905126,19.5471306 80.1371711,20.5727118 C77.8807809,20.7244132 75.6327565,20.9573546 73.3932687,21.2713366 C73.3079028,21.2048674 73.222537,21.1381987 73.1371711,21.0717295 C73.7313175,19.6088092 74.5279516,18.344498 75.527415,17.279195 Z" id="Path" fill="#07272E"></path>
                <path d="M54.3371711,22.2803052 C56.1709489,22.1936507 57.7709489,22.7349419 59.1371711,23.9040079 C56.4440156,24.3140356 53.7773489,24.7696979 51.1371711,25.2713366 C51.8369044,23.8860617 52.9035711,22.8891082 54.3371711,22.2803052 Z" id="Path" fill="#07272E"></path>
                <path d="M24.4536661,39.2713366 C24.6875748,39.3724507 24.8386182,39.5536587 24.9069775,39.8149607 C26.0059856,42.5546453 26.3686348,45.3936319 25.9949248,48.3317393 C25.5320033,50.2233701 24.6859429,51.9145849 23.4563811,53.4055648 C20.6714172,56.3719406 17.619181,58.9994574 14.299491,61.2881151 C11.9119906,62.9492493 9.52467153,64.6102023 7.13717111,66.2713366 C8.99157734,54.7015648 14.7636819,45.7015044 24.4536661,39.2713366 Z" id="Path" fill="#1D9FBB"></path>
                <path d="M31.1622567,51.3070791 C32.2521882,51.1493606 33.1023688,51.5136066 33.7127985,52.3998169 C34.6200357,54.4232031 35.7536099,56.3052619 37.113521,58.045629 C41.5682785,65.4285299 42.3239946,73.1383416 39.3806693,81.1752461 C38.944999,82.2581493 38.4097631,83.290058 37.7747726,84.2713366 C36.9321491,83.9145577 36.3969132,83.3073597 36.1688759,82.4501069 C36.9986522,76.352812 36.054007,70.524877 33.3349405,64.9663018 C31.9672833,62.2676037 30.455851,59.6572351 28.8006438,57.1350141 C27.8299265,55.5556438 27.924391,54.0684276 29.0840374,52.6730014 C29.7893094,52.2135051 30.4819232,51.7581977 31.1622567,51.3070791 Z" id="Path" fill="#1B9DBA"></path>
                <path d="M23.9750649,59.3435421 C25.3633821,59.0730772 26.3746051,59.5624462 27.0087338,60.8114657 C29.4055162,65.9075456 31.3665533,71.1674826 32.892213,76.5916435 C33.4527982,78.663067 32.6868428,79.7027239 30.5939789,79.7109809 C29.6044513,79.6944668 28.6546371,79.5109764 27.7441687,79.1605096 C28.0458809,80.3124626 28.5974571,81.3523029 29.3988972,82.2798471 C31.0269662,83.643548 32.6202859,85.0501858 34.1792241,86.5001272 C39.1298041,92.1747526 39.4362966,98.1075489 35.0985177,104.2987 C31.6042826,108.427785 27.1609689,110.751875 21.7687602,111.271337 C17.2998901,111.062891 15.1855147,108.738618 15.4256342,104.2987 C15.9099181,103.204363 16.7372824,102.501044 17.907727,102.18856 C18.9147212,101.334228 18.8534963,100.538981 17.7238683,99.8031841 C15.0272124,98.029382 12.3307403,96.2557634 9.63408443,94.4819613 C7.61899281,92.8997233 5.93355989,91.0343595 4.57796952,88.8855029 C2.05119908,83.3877624 2.84785893,78.4335205 6.96813293,74.0227773 C8.28014879,72.8970635 9.53645545,71.7043756 10.7372368,70.4447137 C15.1849632,66.7692167 19.5975725,63.068765 23.9750649,59.3435421 Z" id="Path" fill="#FEFEFE"></path>
                <path d="M100.137171,60.2713366 C108.818081,66.8358586 111.219227,75.1691307 107.340236,85.2713366 C104.837499,76.9470719 102.436352,68.6137998 100.137171,60.2713366 Z" id="Path" fill="#EDEFEF"></path>
            </g>
        </g>
    </g>
</svg>