<?xml version="1.0" encoding="UTF-8"?>
<svg width="241px" height="241px" viewBox="0 0 241 241" version="1.1" xmlns="http://www.w3.org/2000/svg" xmlns:xlink="http://www.w3.org/1999/xlink">
    <title>roocode</title>
    <g id="Page-1" stroke="none" stroke-width="1" fill="none" fill-rule="evenodd">
        <g id="roocode" transform="translate(0.1297, 0.4304)">
            <rect id="box" x="0" y="0" width="240" height="240"></rect>
            <path d="M201.129098,48.1249458 L196.709334,64.1203291 C196.475357,64.9671529 195.592065,65.4564526 194.750868,65.2052516 L120.611372,43.065491 C120.118261,42.918243 119.584351,43.0226519 119.182923,43.3448792 L45.7577872,102.277758 C45.5434356,102.449798 45.287648,102.562433 45.01606,102.604315 L1.32847052,109.342743 C0.519535099,109.467523 -0.0571993569,110.194329 0.00452206701,111.011166 L0.19435358,113.523746 C0.254982187,114.326272 0.912653442,114.952612 1.71648904,114.973416 L52.4614487,116.286343 L53.0402322,116.302567 L90.5357582,96.256156 C91.0606976,95.9755145 91.6991535,96.0166901 92.1837498,96.3624334 L118.747913,115.31483 C119.164481,115.612037 119.409887,116.094022 119.405311,116.605995 L119.181215,141.753652 C119.178324,142.079115 119.276655,142.397423 119.462593,142.664438 L156.830191,196.328338 C157.123225,196.749164 157.603359,197 158.115868,197 L169.944912,197 C171.125018,197 171.881681,195.743881 171.330787,194.699336 L144.697389,144.20113 C144.436934,143.707296 144.458449,143.112083 144.753897,142.638392 L158.640215,120.373943 C158.791389,120.13156 159.005831,119.935116 159.260412,119.805824 L208.906362,94.5910603 C209.410788,94.3348689 210.014001,94.3706213 210.484686,94.6846226 L224.671575,104.149074 C224.928979,104.320795 225.231394,104.412421 225.540752,104.412421 L238.430285,104.412421 C239.678487,104.412421 240.425724,103.02309 239.738387,101.980277 L203.947588,47.6793282 C203.20659,46.5550986 201.487747,46.8268533 201.129075,48.1249458 L201.129098,48.1249458 Z" id="Path" fill="#FFFFFF" fill-rule="nonzero"></path>
        </g>
    </g>
</svg>