<?xml version="1.0" encoding="UTF-8"?>
<svg width="240px" height="240px" viewBox="0 0 240 240" version="1.1" xmlns="http://www.w3.org/2000/svg" xmlns:xlink="http://www.w3.org/1999/xlink">
    <title>root-me</title>
    <g id="Page-1" stroke="none" stroke-width="1" fill="none" fill-rule="evenodd">
        <g id="root-me" transform="translate(111, 50)">
            <rect id="box" x="-111" y="-50" width="240" height="240"></rect>
            <g id="shape" transform="translate(-84, -50)" fill-rule="nonzero">
                <path d="M95.6317529,192.044304 C95.6317529,192.044304 95.6317529,192.044304 95.6317529,192.044304 C95.5370083,191.949367 95.4422637,191.85443 95.4422637,191.759494 C95.3475192,191.664557 95.3475192,191.664557 95.2527746,191.56962 C95.2527746,191.56962 95.2527746,191.56962 95.2527746,191.56962 C95.15803,191.56962 95.15803,191.474684 95.0632855,191.474684 C94.9685409,191.379747 94.8737963,191.379747 94.7790517,191.28481 C94.6843072,191.28481 94.5895626,191.189873 94.494818,191.189873 C94.4000734,191.189873 94.3053289,191.094937 94.3053289,191.094937 C94.2105843,191.094937 94.1158397,191.094937 94.0210952,191 C93.9263506,191 93.831606,191 93.7368614,191 C93.6421169,191 93.5473723,191 93.4526277,191 C93.3578831,191 93.2631386,191 93.168394,191 C93.0736494,191 92.9789048,191 92.8841603,191 C92.7894157,191 92.6946711,191 92.5999266,191.094937 C92.505182,191.094937 92.4104374,191.189873 92.4104374,191.189873 C92.3156928,191.189873 92.2209483,191.28481 92.1262037,191.28481 C92.0314591,191.28481 91.9367145,191.379747 91.84197,191.474684 C91.7472254,191.474684 91.7472254,191.56962 91.6524808,191.56962 C91.6524808,191.56962 91.6524808,191.56962 91.6524808,191.56962 C91.5577363,191.664557 91.5577363,191.664557 91.4629917,191.759494 C91.3682471,191.85443 91.2735025,191.949367 91.2735025,191.949367 C91.2735025,191.949367 91.2735025,191.949367 91.2735025,191.949367 L83.5991921,201.537975 C82.6517464,202.772152 82.8412356,204.481013 84.072915,205.43038 C84.5466379,205.810127 85.2098499,206 85.7783173,206 C86.6310185,206 87.3889751,205.620253 87.9574425,204.955696 L88.0521871,204.860759 C90.8945242,201.348101 96.2002203,201.348101 98.9478129,204.860759 L99.0425575,204.955696 C99.6110249,205.620253 100.368982,206 101.221683,206 C101.79015,206 102.453362,205.810127 102.927085,205.43038 C104.158764,204.481013 104.348254,202.677215 103.400808,201.537975 L95.6317529,192.044304 Z" id="path5" fill="#FFFFFF"></path>
                <path d="M82.7053208,29 C78.7711159,29 75.5086045,32.0877193 75.3166921,36.0438596 L60.6353907,41.4473684 C59.867741,41.7368421 59.2920037,42.4122807 59.2920037,43.2807018 L59.2920037,52.6403509 L47.4893889,52.6403509 C46.6257829,49.4561404 43.8430526,47.1403509 40.3886288,47.1403509 C36.3584676,47.1403509 33,50.4210526 33,54.5701754 C33,58.622807 36.2625114,62 40.3886288,62 C43.8430526,62 46.6257829,59.6842105 47.4893889,56.5 L61.211128,56.5 C62.2666464,56.5 63.1302524,55.6315789 63.1302524,54.5701754 L63.1302524,44.6315789 L76.0843418,39.8070175 C77.3317726,42.2192982 79.8266343,43.8596491 82.6093646,43.8596491 C86.6395258,43.8596491 89.9979934,40.5789474 89.9979934,36.4298246 C90.0939496,32.377193 86.735482,29 82.7053208,29 Z" id="path7" fill="#FFFFFF"></path>
                <path d="M66.5,165.296296 C64.1434426,164.37963 61.8811475,163.462963 59.7131148,162.444444 C58.1106557,161.62963 56.5081967,160.814815 55,160 C58.5819672,163.87037 67.2540984,170.796296 76.5860656,171 C77.1516393,170.287037 77.6229508,169.574074 78,168.657407 C76.5860656,168.351852 75.1721311,168.046296 73.7581967,167.638889 C71.2131148,166.925926 68.8565574,166.212963 66.5,165.296296 Z" id="path9" fill="#9D9D9C"></path>
                <path d="M186,98.9749702 C186,94.4934446 185.715886,90.011919 185.052953,85.7210965 C185.052953,85.4350417 184.958248,85.1489869 184.958248,84.8629321 C179.181263,47.0083433 150.675153,15.9237187 113.172098,7.62812872 C112.225051,3.33730632 108.436864,0.0953516091 103.891039,0.0953516091 C98.5875764,0.0953516091 94.3258656,4.38617402 94.3258656,9.72586412 C94.3258656,14.3027414 97.5458248,18.1168057 101.807536,19.0703218 L101.807536,54.2550656 C101.807536,54.8271752 102.09165,55.3992849 102.565173,55.7806913 C102.849287,55.9713945 103.228106,56.0667461 103.606925,56.0667461 C103.796334,56.0667461 104.080448,56.0667461 104.269857,55.9713945 L118.286151,50.6317044 C119.233198,52.0619785 120.653768,53.0154946 122.358452,53.4922527 L122.358452,70.0834327 C115.255601,78.8557807 106.448065,86.7699642 97.0723014,93.8259833 L86.3706721,68.8438617 C88.3594705,67.5089392 89.685336,65.3158522 89.685336,62.7413588 C89.685336,58.7365912 86.4653768,55.3992849 82.3930754,55.3992849 C78.4154786,55.3992849 75.1008147,58.6412396 75.1008147,62.7413588 C75.1008147,66.7461263 78.3207739,70.0834327 82.3930754,70.0834327 C82.48778,70.0834327 82.6771894,70.0834327 82.7718941,70.0834327 L93.9470468,96.1144219 C87.4124236,100.882002 80.688391,105.172825 74.0590631,109.082241 L42.2382892,99.4517282 C41.8594705,99.3563766 41.4806517,99.3563766 41.101833,99.5470799 L31.6313646,103.265793 C30.305499,101.454112 28.2219959,100.309893 25.7596741,100.309893 C21.7820774,100.309893 18.4674134,103.551847 18.4674134,107.651967 C18.4674134,111.656734 21.6873727,114.994041 25.7596741,114.994041 C29.7372709,114.994041 33.0519348,111.752086 33.0519348,107.651967 C33.0519348,107.365912 32.9572301,107.079857 32.9572301,106.793802 L41.8594705,103.265793 L69.607943,111.656734 C45.9317719,125.005959 24.7179226,132.72944 21.2138493,133.969011 L19.509165,134.54112 C17.99389,133.396901 16.0997963,132.72944 14.0162933,132.72944 C13.9215886,132.72944 13.8268839,132.72944 13.7321792,132.72944 C9.28105906,122.145411 7.00814664,110.607867 7.00814664,99.0703218 C7.00814664,93.3492253 7.57637475,87.7234803 8.61812627,82.2884386 L50.1934827,82.2884386 C51.0458248,85.4350417 53.7922607,87.7234803 57.2016293,87.7234803 C61.1792261,87.7234803 64.49389,84.4815256 64.49389,80.3814064 C64.49389,76.3766389 61.2739308,73.0393325 57.2016293,73.0393325 C53.7922607,73.0393325 51.0458248,75.3277712 50.1934827,78.4743743 L9.47046843,78.4743743 C17.1415479,47.1036949 41.7647658,22.0262217 73.5855397,14.5887962 C75.290224,17.3539928 78.3207739,19.261025 81.7301426,19.261025 C87.0336049,19.261025 91.2953157,14.9702026 91.2953157,9.63051251 C91.2953157,4.29082241 87.0336049,0 81.7301426,0 C77.089613,0 73.3014257,3.33730632 72.3543788,7.62812872 C30.589613,17.1632896 0,55.0178784 0,98.8796186 C0,111.370679 2.46232179,123.86174 7.29226069,135.303933 C5.49287169,137.020262 4.45112016,139.499404 4.45112016,142.169249 C4.45112016,146.460072 7.19755601,149.988081 10.9857434,151.323004 L10.9857434,188.891538 C10.9857434,189.558999 11.1751527,190.22646 11.5539715,190.79857 L13.6374745,192.228844 L41.9541752,212.348033 L41.9541752,236.376639 C41.9541752,238.379023 43.5641548,240 45.5529532,240 L140.257637,240 C142.246436,240 143.856415,238.379023 143.856415,236.376639 L143.856415,212.348033 L172.267821,192.228844 L174.351324,190.703218 C174.730143,190.131108 174.919552,189.463647 174.919552,188.796186 L174.919552,150.941597 C178.423625,149.511323 180.885947,146.078665 180.885947,142.073897 C180.885947,139.594756 179.9389,137.306317 178.423625,135.589988 C183.442974,124.243147 186,111.656734 186,98.9749702 L186,98.9749702 Z M78.4154786,6.57926103 C79.2678208,5.62574493 80.4989817,5.05363528 81.8248473,5.05363528 C84.3818737,5.05363528 86.4653768,7.15137068 86.4653768,9.72586412 C86.4653768,12.3003576 84.3818737,14.398093 81.8248473,14.398093 C80.8778004,14.398093 80.0254582,14.1120381 79.2678208,13.6352801 C78.0366599,12.7771156 77.1843177,11.3468415 77.1843177,9.82121573 C77.1843177,8.48629321 77.6578411,7.3420739 78.4154786,6.57926103 L78.4154786,6.57926103 Z M99.2505092,9.63051251 C99.2505092,7.05601907 101.334012,4.95828367 103.891039,4.95828367 C105.216904,4.95828367 106.35336,5.53039333 107.205703,6.38855781 C107.96334,7.24672229 108.436864,8.29558999 108.436864,9.53516091 C108.436864,11.0607867 107.679226,12.4910608 106.448065,13.3492253 C105.690428,13.9213349 104.838086,14.2073897 103.796334,14.2073897 C101.334012,14.3027414 99.2505092,12.205006 99.2505092,9.63051251 L99.2505092,9.63051251 Z M117.05499,46.340882 C117.05499,46.6269368 117.149695,46.81764 117.149695,47.0083433 L105.595723,51.3945173 L105.595723,18.9749702 C108.436864,18.4982122 110.804481,16.7818832 112.130346,14.398093 C122.263747,16.6865316 131.734216,20.7866508 140.162933,26.4123957 C140.068228,40.5244338 134.670061,53.4922527 126.14664,65.2205006 L126.14664,53.3969011 C129.271894,52.5387366 131.544807,49.7735399 131.544807,46.340882 C131.544807,42.3361144 128.324847,38.9988081 124.252546,38.9988081 C120.274949,39.0941597 117.05499,42.3361144 117.05499,46.340882 L117.05499,46.340882 Z M14.110998,146.841478 C12.9745418,146.841478 11.9327902,146.36472 11.0804481,145.697259 C10.1334012,144.839094 9.47046843,143.599523 9.47046843,142.264601 C9.47046843,141.692491 9.56517312,141.120381 9.75458248,140.643623 C10.4175153,138.927294 12.1221996,137.687723 14.0162933,137.687723 C14.8686354,137.687723 15.6262729,137.973778 16.2892057,138.355185 C17.6150713,139.117998 18.5621181,140.643623 18.5621181,142.359952 C18.5621181,143.218117 18.2780041,143.98093 17.8991853,144.648391 C17.2362525,145.983313 15.8156823,146.841478 14.110998,146.841478 L14.110998,146.841478 Z M175.108961,145.029797 C174.256619,146.078665 172.930754,146.841478 171.510183,146.841478 C170.184318,146.841478 169.047862,146.269368 168.195519,145.411204 C167.437882,144.553039 166.964358,143.504172 166.964358,142.264601 C166.964358,140.262217 168.195519,138.545888 169.994908,137.973778 C170.468432,137.783075 171.03666,137.687723 171.604888,137.687723 C173.783096,137.687723 175.677189,139.308701 176.150713,141.406436 C176.245418,141.692491 176.245418,141.978546 176.245418,142.359952 C176.056008,143.313468 175.677189,144.266985 175.108961,145.029797 L175.108961,145.029797 Z M172.267821,132.634088 C171.983707,132.634088 171.699593,132.634088 171.415479,132.634088 C166.112016,132.634088 161.850305,136.924911 161.850305,142.264601 C161.850305,146.36472 164.407332,149.892729 168.100815,151.227652 L168.100815,186.317044 L138.268839,207.485101 C137.321792,208.152563 136.753564,209.296782 136.753564,210.441001 L136.753564,230.655542 C136.753564,231.799762 135.806517,232.753278 134.670061,232.753278 L123.589613,232.753278 C122.453157,232.753278 121.50611,231.799762 121.50611,230.655542 L121.50611,223.40882 C121.50611,221.501788 120.180244,219.785459 118.286151,219.594756 C116.107943,219.404052 114.308554,221.120381 114.308554,223.218117 L114.308554,230.750894 C114.308554,231.895113 113.361507,232.848629 112.225051,232.848629 L98.6822811,232.848629 C97.5458248,232.848629 96.598778,231.895113 96.598778,230.750894 L96.598778,219.594756 C96.598778,217.687723 95.2729124,215.971395 93.3788187,215.780691 C91.200611,215.589988 89.401222,217.306317 89.401222,219.404052 L89.401222,230.846246 C89.401222,231.990465 88.4541752,232.943981 87.3177189,232.943981 L73.7749491,232.943981 C72.6384929,232.943981 71.691446,231.990465 71.691446,230.846246 L71.691446,223.40882 C71.691446,221.501788 70.3655804,219.785459 68.4714868,219.594756 C66.293279,219.404052 64.49389,221.120381 64.49389,223.218117 L64.49389,230.750894 C64.49389,231.895113 63.5468432,232.848629 62.410387,232.848629 L51.3299389,232.848629 C50.1934827,232.848629 49.2464358,231.895113 49.2464358,230.750894 L49.2464358,210.536353 C49.2464358,209.392133 48.6782077,208.247914 47.7311609,207.580453 L17.99389,186.412396 L17.99389,150.941597 C21.308554,149.415971 23.5814664,146.078665 23.5814664,142.169249 C23.5814664,141.597139 23.4867617,141.02503 23.392057,140.45292 C27.1802444,139.117998 56.0651731,128.724672 84.4765784,110.893921 C122.92668,86.7699642 144.235234,59.4040524 146.697556,31.2753278 C163.270876,44.7199046 174.730143,64.1716329 178.044807,86.0071514 C177.571283,133.778308 94.8940937,163.241955 94.0417515,163.52801 C93.8523422,163.623361 93.3788187,163.718713 93,163.909416 C91.9582485,163.718713 90.9164969,163.52801 89.7800407,163.337306 C89.0224033,163.146603 88.1700611,163.051251 87.4124236,162.860548 C86.1812627,162.669845 84.9501018,162.38379 83.7189409,162.097735 C83.5295316,162.002384 83.2454175,162.002384 83.0560081,162.002384 C82.5824847,161.907032 82.1089613,161.811681 81.6354379,161.716329 C81.0672098,161.620977 80.4989817,161.430274 79.9307536,161.334923 C78.604888,161.048868 77.2790224,160.762813 76.0478615,160.381406 C73.6802444,159.809297 71.407332,159.141836 69.1344196,158.569726 C66.9562118,157.902265 64.6832994,157.330155 62.5997963,156.662694 C62.5050916,156.662694 62.5050916,156.662694 62.410387,156.662694 C60.8004073,156.185936 59.2851324,155.709178 57.7698574,155.137068 C57.296334,154.946365 56.7281059,154.755662 56.2545825,154.66031 C55.496945,154.374255 54.8340122,154.183552 54.1710794,153.992849 C52.9399185,153.611442 51.8034623,153.230036 50.7617108,152.753278 C50.7617108,152.753278 50.6670061,152.753278 50.6670061,152.753278 C48.9623218,152.181168 47.4470468,151.609058 46.1211813,151.036949 C44.700611,150.464839 43.4694501,149.988081 42.5224033,149.606675 C41.5753564,149.129917 40.7230143,148.843862 40.2494908,148.557807 C39.6812627,148.271752 39.3971487,148.1764 39.3971487,148.1764 C39.3971487,148.1764 39.586558,148.462455 39.9653768,148.843862 C40.3441955,149.32062 40.9124236,149.988081 41.7647658,150.750894 C42.5224033,151.513707 43.5641548,152.467223 44.7953157,153.420739 C46.0264766,154.374255 47.4470468,155.423123 48.9623218,156.47199 C48.9623218,156.47199 48.9623218,156.47199 49.0570265,156.47199 C48.4887984,158.379023 48.1099796,160.476758 48.1099796,162.574493 C48.1099796,173.539928 57.01222,182.50298 67.9032587,182.50298 C76.3319756,182.50298 83.5295316,177.16329 86.3706721,169.630513 C87.3177189,169.725864 88.3594705,169.821216 89.3065173,169.916567 C91.0112016,170.011919 92.6211813,170.011919 94.1364562,170.011919 C94.2311609,170.011919 94.3258656,170.107271 94.4205703,170.107271 L110.425662,186.507747 C114.497963,190.607867 120.843177,191.275328 125.578411,188.128725 L150.580448,174.016687 C152.758656,172.586412 154.179226,170.107271 154.179226,167.437426 L154.179226,138.450536 C163.839104,130.727056 172.551935,121.573302 178.234216,111.179976 C177.192464,118.712753 175.203666,125.864124 172.267821,132.634088 L172.267821,132.634088 Z M78.6995927,168.676996 C78.3207739,169.439809 77.7525458,170.202622 77.2790224,170.870083 L77.2790224,170.870083 C75.00611,173.539928 71.5967413,175.256257 67.808554,175.256257 C64.0203666,175.256257 60.610998,173.539928 58.3380855,170.870083 C56.4439919,168.676996 55.4022403,165.816448 55.4022403,162.765197 C55.4022403,162.002384 55.496945,161.334923 55.5916497,160.57211 C55.5916497,160.57211 55.5916497,160.57211 55.5916497,160.57211 C57.1069246,161.334923 58.7169043,162.097735 60.3268839,162.860548 C62.5050916,163.814064 64.7780041,164.76758 67.1456212,165.530393 C69.5132383,166.388558 71.9755601,167.056019 74.4378819,167.72348 C75.8584521,168.104887 77.2790224,168.390942 78.6995927,168.676996 L78.6995927,168.676996 Z" id="path11" fill="#FFFFFF"></path>
            </g>
        </g>
    </g>
</svg>