<?xml version="1.0" encoding="UTF-8"?>
<!DOCTYPE svg PUBLIC "-//W3C//DTD SVG 1.1//EN" "http://www.w3.org/Graphics/SVG/1.1/DTD/svg11.dtd">
<svg xmlns="http://www.w3.org/2000/svg" version="1.1" width="470px" height="470px" style="shape-rendering:geometricPrecision; text-rendering:geometricPrecision; image-rendering:optimizeQuality; fill-rule:evenodd; clip-rule:evenodd" xmlns:xlink="http://www.w3.org/1999/xlink">
<g><path style="opacity:1" fill="#ffd0a0" d="M 132.5,-0.5 C 155.167,-0.5 177.833,-0.5 200.5,-0.5C 201.836,1.01027 203.003,2.67694 204,4.5C 204.604,2.3143 205.77,2.14763 207.5,4C 206.833,4.33333 206.167,4.66667 205.5,5C 207.298,6.50528 209.132,6.67194 211,5.5C 211.167,5.83333 211.333,6.16667 211.5,6.5C 207.639,7.59755 207.639,8.43089 211.5,9C 210.72,10.073 210.887,11.2396 212,12.5C 212.667,11.1667 213.667,10.1667 215,9.5C 215.456,10.7441 214.956,11.5774 213.5,12C 216.167,12.6667 216.167,13.3333 213.5,14C 216.299,15.4651 218.465,17.6318 220,20.5C 220.604,18.3143 221.77,18.1476 223.5,20C 222.833,20.3333 222.167,20.6667 221.5,21C 223.298,22.5053 225.132,22.6719 227,21.5C 227.167,21.8333 227.333,22.1667 227.5,22.5C 223.639,23.5976 223.639,24.4309 227.5,25C 226.72,26.073 226.887,27.2396 228,28.5C 228.667,27.1667 229.667,26.1667 231,25.5C 231.456,26.7441 230.956,27.5774 229.5,28C 232.167,28.6667 232.167,29.3333 229.5,30C 232.299,31.4651 234.465,33.6318 236,36.5C 236.604,34.3143 237.77,34.1476 239.5,36C 238.833,36.3333 238.167,36.6667 237.5,37C 239.298,38.5053 241.132,38.6719 243,37.5C 243.167,37.8333 243.333,38.1667 243.5,38.5C 239.639,39.5976 239.639,40.4309 243.5,41C 242.72,42.073 242.887,43.2396 244,44.5C 244.667,43.1667 245.667,42.1667 247,41.5C 247.456,42.7441 246.956,43.5774 245.5,44C 248.167,44.6667 248.167,45.3333 245.5,46C 248.299,47.4651 250.465,49.6318 252,52.5C 252.604,50.3143 253.77,50.1476 255.5,52C 254.833,52.3333 254.167,52.6667 253.5,53C 255.298,54.5053 257.132,54.6719 259,53.5C 259.167,53.8333 259.333,54.1667 259.5,54.5C 255.639,55.5976 255.639,56.4309 259.5,57C 258.72,58.073 258.887,59.2396 260,60.5C 260.667,59.1667 261.667,58.1667 263,57.5C 263.456,58.7441 262.956,59.5774 261.5,60C 264.167,60.6667 264.167,61.3333 261.5,62C 264.299,63.4651 266.465,65.6318 268,68.5C 268.604,66.3143 269.77,66.1476 271.5,68C 270.833,68.3333 270.167,68.6667 269.5,69C 271.298,70.5053 273.132,70.6719 275,69.5C 275.167,69.8333 275.333,70.1667 275.5,70.5C 271.639,71.5976 271.639,72.4309 275.5,73C 274.72,74.073 274.887,75.2396 276,76.5C 276.667,75.1667 277.667,74.1667 279,73.5C 279.456,74.7441 278.956,75.5774 277.5,76C 280.167,76.6667 280.167,77.3333 277.5,78C 280.299,79.4651 282.465,81.6318 284,84.5C 284.604,82.3143 285.77,82.1476 287.5,84C 286.833,84.3333 286.167,84.6667 285.5,85C 287.298,86.5053 289.132,86.6719 291,85.5C 291.167,85.8333 291.333,86.1667 291.5,86.5C 287.639,87.5976 287.639,88.4309 291.5,89C 290.72,90.073 290.887,91.2396 292,92.5C 292.667,91.1667 293.667,90.1667 295,89.5C 295.456,90.7441 294.956,91.5774 293.5,92C 296.167,92.6667 296.167,93.3333 293.5,94C 296.299,95.4651 298.465,97.6318 300,100.5C 300.604,98.3143 301.77,98.1476 303.5,100C 302.833,100.333 302.167,100.667 301.5,101C 303.298,102.505 305.132,102.672 307,101.5C 307.167,101.833 307.333,102.167 307.5,102.5C 303.639,103.598 303.639,104.431 307.5,105C 306.72,106.073 306.887,107.24 308,108.5C 308.667,107.167 309.667,106.167 311,105.5C 311.456,106.744 310.956,107.577 309.5,108C 312.167,108.667 312.167,109.333 309.5,110C 312.299,111.465 314.465,113.632 316,116.5C 316.604,114.314 317.77,114.148 319.5,116C 318.833,116.333 318.167,116.667 317.5,117C 319.298,118.505 321.132,118.672 323,117.5C 323.167,117.833 323.333,118.167 323.5,118.5C 319.639,119.598 319.639,120.431 323.5,121C 322.72,122.073 322.887,123.24 324,124.5C 324.667,123.167 325.667,122.167 327,121.5C 327.456,122.744 326.956,123.577 325.5,124C 328.167,124.667 328.167,125.333 325.5,126C 328.299,127.465 330.465,129.632 332,132.5C 332.604,130.314 333.77,130.148 335.5,132C 334.833,132.333 334.167,132.667 333.5,133C 335.298,134.505 337.132,134.672 339,133.5C 339.167,133.833 339.333,134.167 339.5,134.5C 335.639,135.598 335.639,136.431 339.5,137C 338.72,138.073 338.887,139.24 340,140.5C 340.667,139.167 341.667,138.167 343,137.5C 343.456,138.744 342.956,139.577 341.5,140C 344.167,140.667 344.167,141.333 341.5,142C 344.299,143.465 346.465,145.632 348,148.5C 348.604,146.314 349.77,146.148 351.5,148C 350.833,148.333 350.167,148.667 349.5,149C 351.298,150.505 353.132,150.672 355,149.5C 355.167,149.833 355.333,150.167 355.5,150.5C 351.639,151.598 351.639,152.431 355.5,153C 354.72,154.073 354.887,155.24 356,156.5C 356.667,155.167 357.667,154.167 359,153.5C 359.456,154.744 358.956,155.577 357.5,156C 360.167,156.667 360.167,157.333 357.5,158C 360.299,159.465 362.465,161.632 364,164.5C 364.604,162.314 365.77,162.148 367.5,164C 366.833,164.333 366.167,164.667 365.5,165C 367.298,166.505 369.132,166.672 371,165.5C 371.167,165.833 371.333,166.167 371.5,166.5C 367.639,167.598 367.639,168.431 371.5,169C 370.72,170.073 370.887,171.24 372,172.5C 372.667,171.167 373.667,170.167 375,169.5C 375.456,170.744 374.956,171.577 373.5,172C 376.167,172.667 376.167,173.333 373.5,174C 376.299,175.465 378.465,177.632 380,180.5C 380.604,178.314 381.77,178.148 383.5,180C 382.833,180.333 382.167,180.667 381.5,181C 383.298,182.505 385.132,182.672 387,181.5C 387.167,181.833 387.333,182.167 387.5,182.5C 383.639,183.598 383.639,184.431 387.5,185C 386.72,186.073 386.887,187.24 388,188.5C 388.667,187.167 389.667,186.167 391,185.5C 391.456,186.744 390.956,187.577 389.5,188C 392.167,188.667 392.167,189.333 389.5,190C 392.299,191.465 394.465,193.632 396,196.5C 396.604,194.314 397.77,194.148 399.5,196C 398.833,196.333 398.167,196.667 397.5,197C 399.298,198.505 401.132,198.672 403,197.5C 403.167,197.833 403.333,198.167 403.5,198.5C 399.639,199.598 399.639,200.431 403.5,201C 402.72,202.073 402.887,203.24 404,204.5C 404.667,203.167 405.667,202.167 407,201.5C 407.456,202.744 406.956,203.577 405.5,204C 408.167,204.667 408.167,205.333 405.5,206C 408.299,207.465 410.465,209.632 412,212.5C 412.604,210.314 413.77,210.148 415.5,212C 414.833,212.333 414.167,212.667 413.5,213C 415.298,214.505 417.132,214.672 419,213.5C 419.167,213.833 419.333,214.167 419.5,214.5C 415.639,215.598 415.639,216.431 419.5,217C 418.72,218.073 418.887,219.24 420,220.5C 420.667,219.167 421.667,218.167 423,217.5C 423.456,218.744 422.956,219.577 421.5,220C 424.167,220.667 424.167,221.333 421.5,222C 424.299,223.465 426.465,225.632 428,228.5C 428.604,226.314 429.77,226.148 431.5,228C 430.833,228.333 430.167,228.667 429.5,229C 431.298,230.505 433.132,230.672 435,229.5C 435.167,229.833 435.333,230.167 435.5,230.5C 431.639,231.598 431.639,232.431 435.5,233C 434.72,234.073 434.887,235.24 436,236.5C 436.667,235.167 437.667,234.167 439,233.5C 439.456,234.744 438.956,235.577 437.5,236C 440.167,236.667 440.167,237.333 437.5,238C 440.299,239.465 442.465,241.632 444,244.5C 444.604,242.314 445.77,242.148 447.5,244C 446.833,244.333 446.167,244.667 445.5,245C 447.298,246.505 449.132,246.672 451,245.5C 451.167,245.833 451.333,246.167 451.5,246.5C 447.639,247.598 447.639,248.431 451.5,249C 450.72,250.073 450.887,251.24 452,252.5C 452.667,251.167 453.667,250.167 455,249.5C 455.456,250.744 454.956,251.577 453.5,252C 456.167,252.667 456.167,253.333 453.5,254C 456.299,255.465 458.465,257.632 460,260.5C 460.604,258.314 461.77,258.148 463.5,260C 462.833,260.333 462.167,260.667 461.5,261C 463.298,262.505 465.132,262.672 467,261.5C 467.167,261.833 467.333,262.167 467.5,262.5C 463.639,263.598 463.639,264.431 467.5,265C 466.72,266.073 466.887,267.24 468,268.5C 468.278,267.584 468.778,266.918 469.5,266.5C 469.5,289.833 469.5,313.167 469.5,336.5C 468.833,339.167 468.167,341.833 467.5,344.5C 467.657,343.127 467.49,341.793 467,340.5C 465.167,339.333 463.667,337.833 462.5,336C 465.85,334.98 465.683,333.48 462,331.5C 461.667,331.833 461.333,332.167 461,332.5C 459.847,329.718 457.847,327.051 455,324.5C 454.086,325.654 453.253,325.487 452.5,324C 453.167,323.667 453.833,323.333 454.5,323C 452.913,322.138 451.246,321.471 449.5,321C 450.167,320.333 450.833,319.667 451.5,319C 449.468,318.834 447.635,317.667 446,315.5C 445.667,315.833 445.333,316.167 445,316.5C 444.5,315.333 443.667,314.5 442.5,314C 442.833,313.667 443.167,313.333 443.5,313C 441.448,312.07 439.948,310.57 439,308.5C 438.086,309.654 437.253,309.487 436.5,308C 437.167,307.667 437.833,307.333 438.5,307C 436.913,306.138 435.246,305.471 433.5,305C 434.167,304.333 434.833,303.667 435.5,303C 433.468,302.834 431.635,301.667 430,299.5C 429.667,299.833 429.333,300.167 429,300.5C 428.5,299.333 427.667,298.5 426.5,298C 426.833,297.667 427.167,297.333 427.5,297C 425.448,296.07 423.948,294.57 423,292.5C 422.086,293.654 421.253,293.487 420.5,292C 421.167,291.667 421.833,291.333 422.5,291C 420.913,290.138 419.246,289.471 417.5,289C 418.167,288.333 418.833,287.667 419.5,287C 417.468,286.834 415.635,285.667 414,283.5C 413.667,283.833 413.333,284.167 413,284.5C 412.5,283.333 411.667,282.5 410.5,282C 410.833,281.667 411.167,281.333 411.5,281C 409.448,280.07 407.948,278.57 407,276.5C 406.086,277.654 405.253,277.487 404.5,276C 405.167,275.667 405.833,275.333 406.5,275C 404.913,274.138 403.246,273.471 401.5,273C 402.167,272.333 402.833,271.667 403.5,271C 401.468,270.834 399.635,269.667 398,267.5C 397.667,267.833 397.333,268.167 397,268.5C 396.5,267.333 395.667,266.5 394.5,266C 394.833,265.667 395.167,265.333 395.5,265C 393.448,264.07 391.948,262.57 391,260.5C 390.086,261.654 389.253,261.487 388.5,260C 389.167,259.667 389.833,259.333 390.5,259C 388.913,258.138 387.246,257.471 385.5,257C 386.167,256.333 386.833,255.667 387.5,255C 385.468,254.834 383.635,253.667 382,251.5C 381.667,251.833 381.333,252.167 381,252.5C 380.5,251.333 379.667,250.5 378.5,250C 378.833,249.667 379.167,249.333 379.5,249C 377.448,248.07 375.948,246.57 375,244.5C 374.086,245.654 373.253,245.487 372.5,244C 373.167,243.667 373.833,243.333 374.5,243C 372.913,242.138 371.246,241.471 369.5,241C 370.167,240.333 370.833,239.667 371.5,239C 369.468,238.834 367.635,237.667 366,235.5C 365.667,235.833 365.333,236.167 365,236.5C 364.5,235.333 363.667,234.5 362.5,234C 362.833,233.667 363.167,233.333 363.5,233C 361.448,232.07 359.948,230.57 359,228.5C 358.086,229.654 357.253,229.487 356.5,228C 357.167,227.667 357.833,227.333 358.5,227C 356.913,226.138 355.246,225.471 353.5,225C 354.167,224.333 354.833,223.667 355.5,223C 353.468,222.834 351.635,221.667 350,219.5C 349.667,219.833 349.333,220.167 349,220.5C 348.5,219.333 347.667,218.5 346.5,218C 346.833,217.667 347.167,217.333 347.5,217C 345.448,216.07 343.948,214.57 343,212.5C 342.086,213.654 341.253,213.487 340.5,212C 341.167,211.667 341.833,211.333 342.5,211C 340.913,210.138 339.246,209.471 337.5,209C 338.167,208.333 338.833,207.667 339.5,207C 337.468,206.834 335.635,205.667 334,203.5C 333.667,203.833 333.333,204.167 333,204.5C 332.5,203.333 331.667,202.5 330.5,202C 330.833,201.667 331.167,201.333 331.5,201C 329.448,200.07 327.948,198.57 327,196.5C 326.086,197.654 325.253,197.487 324.5,196C 325.167,195.667 325.833,195.333 326.5,195C 324.913,194.138 323.246,193.471 321.5,193C 322.167,192.333 322.833,191.667 323.5,191C 321.468,190.834 319.635,189.667 318,187.5C 317.667,187.833 317.333,188.167 317,188.5C 316.5,187.333 315.667,186.5 314.5,186C 314.833,185.667 315.167,185.333 315.5,185C 313.448,184.07 311.948,182.57 311,180.5C 310.333,181.833 309.667,181.833 309,180.5C 308.517,179.552 308.351,178.552 308.5,177.5C 307.5,177.5 306.5,177.5 305.5,177.5C 305.617,175.516 304.95,173.85 303.5,172.5C 302.304,172.846 302.304,173.346 303.5,174C 302.906,174.464 302.239,174.631 301.5,174.5C 301.167,174.5 300.833,174.5 300.5,174.5C 298.167,171.5 295.5,168.833 292.5,166.5C 293.071,165.027 293.071,163.36 292.5,161.5C 289.001,161.741 288.668,160.908 291.5,159C 289.468,158.834 287.635,157.667 286,155.5C 285.667,155.833 285.333,156.167 285,156.5C 284.5,155.333 283.667,154.5 282.5,154C 282.833,153.667 283.167,153.333 283.5,153C 281.448,152.07 279.948,150.57 279,148.5C 278.086,149.654 277.253,149.487 276.5,148C 277.167,147.667 277.833,147.333 278.5,147C 276.913,146.138 275.246,145.471 273.5,145C 276.028,142.925 275.861,142.092 273,142.5C 272.082,140.368 270.749,139.701 269,140.5C 268.5,139.333 267.667,138.5 266.5,138C 266.833,137.667 267.167,137.333 267.5,137C 265.448,136.07 263.948,134.57 263,132.5C 262.086,133.654 261.253,133.487 260.5,132C 261.167,131.667 261.833,131.333 262.5,131C 260.913,130.138 259.246,129.471 257.5,129C 260.028,126.925 259.861,126.092 257,126.5C 256.082,124.368 254.749,123.701 253,124.5C 252.5,123.333 251.667,122.5 250.5,122C 250.833,121.667 251.167,121.333 251.5,121C 249.448,120.07 247.948,118.57 247,116.5C 246.086,117.654 245.253,117.487 244.5,116C 245.167,115.667 245.833,115.333 246.5,115C 244.913,114.138 243.246,113.471 241.5,113C 244.028,110.925 243.861,110.092 241,110.5C 240.082,108.368 238.749,107.701 237,108.5C 236.5,107.333 235.667,106.5 234.5,106C 234.833,105.667 235.167,105.333 235.5,105C 233.448,104.07 231.948,102.57 231,100.5C 230.086,101.654 229.253,101.487 228.5,100C 229.167,99.6667 229.833,99.3333 230.5,99C 228.913,98.1376 227.246,97.4709 225.5,97C 228.028,94.9251 227.861,94.0918 225,94.5C 224.082,92.3676 222.749,91.701 221,92.5C 220.5,91.3333 219.667,90.5 218.5,90C 218.833,89.6667 219.167,89.3333 219.5,89C 217.448,88.0701 215.948,86.5701 215,84.5C 214.086,85.6537 213.253,85.487 212.5,84C 213.167,83.6667 213.833,83.3333 214.5,83C 212.913,82.1376 211.246,81.4709 209.5,81C 212.028,78.9251 211.861,78.0918 209,78.5C 208.082,76.3676 206.749,75.701 205,76.5C 204.5,75.3333 203.667,74.5 202.5,74C 202.833,73.6667 203.167,73.3333 203.5,73C 201.448,72.0701 199.948,70.5701 199,68.5C 198.086,69.6537 197.253,69.487 196.5,68C 197.167,67.6667 197.833,67.3333 198.5,67C 196.913,66.1376 195.246,65.4709 193.5,65C 196.028,62.9251 195.861,62.0918 193,62.5C 192.082,60.3676 190.749,59.701 189,60.5C 188.5,59.3333 187.667,58.5 186.5,58C 186.833,57.6667 187.167,57.3333 187.5,57C 185.448,56.0701 183.948,54.5701 183,52.5C 182.086,53.6537 181.253,53.487 180.5,52C 181.167,51.6667 181.833,51.3333 182.5,51C 180.913,50.1376 179.246,49.4709 177.5,49C 180.028,46.9251 179.861,46.0918 177,46.5C 176.082,44.3676 174.749,43.701 173,44.5C 172.5,43.3333 171.667,42.5 170.5,42C 170.833,41.6667 171.167,41.3333 171.5,41C 169.448,40.0701 167.948,38.5701 167,36.5C 166.086,37.6537 165.253,37.487 164.5,36C 165.167,35.6667 165.833,35.3333 166.5,35C 164.913,34.1376 163.246,33.4709 161.5,33C 164.028,30.9251 163.861,30.0918 161,30.5C 160.082,28.3676 158.749,27.701 157,28.5C 156.5,27.3333 155.667,26.5 154.5,26C 154.833,25.6667 155.167,25.3333 155.5,25C 153.448,24.0701 151.948,22.5701 151,20.5C 150.086,21.6537 149.253,21.487 148.5,20C 149.167,19.6667 149.833,19.3333 150.5,19C 148.913,18.1376 147.246,17.4709 145.5,17C 148.028,14.9251 147.861,14.0918 145,14.5C 144.082,12.3676 142.749,11.701 141,12.5C 140.5,11.3333 139.667,10.5 138.5,10C 138.833,9.66667 139.167,9.33333 139.5,9C 137.448,8.0701 135.948,6.5701 135,4.5C 134.086,5.65367 133.253,5.48701 132.5,4C 133.167,3.66667 133.833,3.33333 134.5,3C 133.391,2.36229 132.225,1.86229 131,1.5C 129.989,1.89188 129.489,2.55855 129.5,3.5C 128.158,1.99512 126.492,1.32846 124.5,1.5C 127.167,0.833333 129.833,0.166667 132.5,-0.5 Z"/></g>
<g><path style="opacity:1" fill="#ffd3a3" d="M 200.5,-0.5 C 214.5,-0.5 228.5,-0.5 242.5,-0.5C 241.859,0.482236 241.193,1.48224 240.5,2.5C 242.292,5.66357 244.792,8.66357 248,11.5C 249.666,10.6598 249.833,11.1598 248.5,13C 249.715,15.0955 250.549,14.9288 251,12.5C 254.14,15.6396 257.306,18.8063 260.5,22C 260.167,22.3333 259.833,22.6667 259.5,23C 261.667,23.8333 263.167,25.3333 264,27.5C 265.666,26.6598 265.833,27.1598 264.5,29C 265.715,31.0955 266.549,30.9288 267,28.5C 270.14,31.6396 273.306,34.8063 276.5,38C 276.167,38.3333 275.833,38.6667 275.5,39C 277.667,39.8333 279.167,41.3333 280,43.5C 281.666,42.6598 281.833,43.1598 280.5,45C 281.715,47.0955 282.549,46.9288 283,44.5C 286.14,47.6396 289.306,50.8063 292.5,54C 292.167,54.3333 291.833,54.6667 291.5,55C 293.667,55.8333 295.167,57.3333 296,59.5C 297.666,58.6598 297.833,59.1598 296.5,61C 297.715,63.0955 298.549,62.9288 299,60.5C 302.14,63.6396 305.306,66.8063 308.5,70C 308.167,70.3333 307.833,70.6667 307.5,71C 309.667,71.8333 311.167,73.3333 312,75.5C 313.666,74.6598 313.833,75.1598 312.5,77C 313.715,79.0955 314.549,78.9288 315,76.5C 318.14,79.6396 321.306,82.8063 324.5,86C 324.167,86.3333 323.833,86.6667 323.5,87C 325.667,87.8333 327.167,89.3333 328,91.5C 329.666,90.6598 329.833,91.1598 328.5,93C 329.715,95.0955 330.549,94.9288 331,92.5C 334.14,95.6396 337.306,98.8063 340.5,102C 340.167,102.333 339.833,102.667 339.5,103C 341.667,103.833 343.167,105.333 344,107.5C 345.666,106.66 345.833,107.16 344.5,109C 345.715,111.096 346.549,110.929 347,108.5C 350.14,111.64 353.306,114.806 356.5,118C 356.167,118.333 355.833,118.667 355.5,119C 357.667,119.833 359.167,121.333 360,123.5C 361.666,122.66 361.833,123.16 360.5,125C 361.715,127.096 362.549,126.929 363,124.5C 366.14,127.64 369.306,130.806 372.5,134C 372.167,134.333 371.833,134.667 371.5,135C 373.667,135.833 375.167,137.333 376,139.5C 377.666,138.66 377.833,139.16 376.5,141C 377.715,143.096 378.549,142.929 379,140.5C 382.14,143.64 385.306,146.806 388.5,150C 388.167,150.333 387.833,150.667 387.5,151C 389.667,151.833 391.167,153.333 392,155.5C 393.666,154.66 393.833,155.16 392.5,157C 393.715,159.096 394.549,158.929 395,156.5C 398.14,159.64 401.306,162.806 404.5,166C 404.167,166.333 403.833,166.667 403.5,167C 405.667,167.833 407.167,169.333 408,171.5C 409.666,170.66 409.833,171.16 408.5,173C 409.715,175.096 410.549,174.929 411,172.5C 414.14,175.64 417.306,178.806 420.5,182C 420.167,182.333 419.833,182.667 419.5,183C 421.667,183.833 423.167,185.333 424,187.5C 425.666,186.66 425.833,187.16 424.5,189C 425.715,191.096 426.549,190.929 427,188.5C 430.14,191.64 433.306,194.806 436.5,198C 436.167,198.333 435.833,198.667 435.5,199C 437.667,199.833 439.167,201.333 440,203.5C 441.666,202.66 441.833,203.16 440.5,205C 441.715,207.096 442.549,206.929 443,204.5C 446.14,207.64 449.306,210.806 452.5,214C 452.167,214.333 451.833,214.667 451.5,215C 453.667,215.833 455.167,217.333 456,219.5C 457.666,218.66 457.833,219.16 456.5,221C 457.715,223.096 458.549,222.929 459,220.5C 461.888,223.38 464.721,226.38 467.5,229.5C 468.183,229.137 468.85,228.804 469.5,228.5C 469.5,241.167 469.5,253.833 469.5,266.5C 468.778,266.918 468.278,267.584 468,268.5C 466.887,267.24 466.72,266.073 467.5,265C 463.639,264.431 463.639,263.598 467.5,262.5C 467.333,262.167 467.167,261.833 467,261.5C 465.132,262.672 463.298,262.505 461.5,261C 462.167,260.667 462.833,260.333 463.5,260C 461.77,258.148 460.604,258.314 460,260.5C 458.465,257.632 456.299,255.465 453.5,254C 456.167,253.333 456.167,252.667 453.5,252C 454.956,251.577 455.456,250.744 455,249.5C 453.667,250.167 452.667,251.167 452,252.5C 450.887,251.24 450.72,250.073 451.5,249C 447.639,248.431 447.639,247.598 451.5,246.5C 451.333,246.167 451.167,245.833 451,245.5C 449.132,246.672 447.298,246.505 445.5,245C 446.167,244.667 446.833,244.333 447.5,244C 445.77,242.148 444.604,242.314 444,244.5C 442.465,241.632 440.299,239.465 437.5,238C 440.167,237.333 440.167,236.667 437.5,236C 438.956,235.577 439.456,234.744 439,233.5C 437.667,234.167 436.667,235.167 436,236.5C 434.887,235.24 434.72,234.073 435.5,233C 431.639,232.431 431.639,231.598 435.5,230.5C 435.333,230.167 435.167,229.833 435,229.5C 433.132,230.672 431.298,230.505 429.5,229C 430.167,228.667 430.833,228.333 431.5,228C 429.77,226.148 428.604,226.314 428,228.5C 426.465,225.632 424.299,223.465 421.5,222C 424.167,221.333 424.167,220.667 421.5,220C 422.956,219.577 423.456,218.744 423,217.5C 421.667,218.167 420.667,219.167 420,220.5C 418.887,219.24 418.72,218.073 419.5,217C 415.639,216.431 415.639,215.598 419.5,214.5C 419.333,214.167 419.167,213.833 419,213.5C 417.132,214.672 415.298,214.505 413.5,213C 414.167,212.667 414.833,212.333 415.5,212C 413.77,210.148 412.604,210.314 412,212.5C 410.465,209.632 408.299,207.465 405.5,206C 408.167,205.333 408.167,204.667 405.5,204C 406.956,203.577 407.456,202.744 407,201.5C 405.667,202.167 404.667,203.167 404,204.5C 402.887,203.24 402.72,202.073 403.5,201C 399.639,200.431 399.639,199.598 403.5,198.5C 403.333,198.167 403.167,197.833 403,197.5C 401.132,198.672 399.298,198.505 397.5,197C 398.167,196.667 398.833,196.333 399.5,196C 397.77,194.148 396.604,194.314 396,196.5C 394.465,193.632 392.299,191.465 389.5,190C 392.167,189.333 392.167,188.667 389.5,188C 390.956,187.577 391.456,186.744 391,185.5C 389.667,186.167 388.667,187.167 388,188.5C 386.887,187.24 386.72,186.073 387.5,185C 383.639,184.431 383.639,183.598 387.5,182.5C 387.333,182.167 387.167,181.833 387,181.5C 385.132,182.672 383.298,182.505 381.5,181C 382.167,180.667 382.833,180.333 383.5,180C 381.77,178.148 380.604,178.314 380,180.5C 378.465,177.632 376.299,175.465 373.5,174C 376.167,173.333 376.167,172.667 373.5,172C 374.956,171.577 375.456,170.744 375,169.5C 373.667,170.167 372.667,171.167 372,172.5C 370.887,171.24 370.72,170.073 371.5,169C 367.639,168.431 367.639,167.598 371.5,166.5C 371.333,166.167 371.167,165.833 371,165.5C 369.132,166.672 367.298,166.505 365.5,165C 366.167,164.667 366.833,164.333 367.5,164C 365.77,162.148 364.604,162.314 364,164.5C 362.465,161.632 360.299,159.465 357.5,158C 360.167,157.333 360.167,156.667 357.5,156C 358.956,155.577 359.456,154.744 359,153.5C 357.667,154.167 356.667,155.167 356,156.5C 354.887,155.24 354.72,154.073 355.5,153C 351.639,152.431 351.639,151.598 355.5,150.5C 355.333,150.167 355.167,149.833 355,149.5C 353.132,150.672 351.298,150.505 349.5,149C 350.167,148.667 350.833,148.333 351.5,148C 349.77,146.148 348.604,146.314 348,148.5C 346.465,145.632 344.299,143.465 341.5,142C 344.167,141.333 344.167,140.667 341.5,140C 342.956,139.577 343.456,138.744 343,137.5C 341.667,138.167 340.667,139.167 340,140.5C 338.887,139.24 338.72,138.073 339.5,137C 335.639,136.431 335.639,135.598 339.5,134.5C 339.333,134.167 339.167,133.833 339,133.5C 337.132,134.672 335.298,134.505 333.5,133C 334.167,132.667 334.833,132.333 335.5,132C 333.77,130.148 332.604,130.314 332,132.5C 330.465,129.632 328.299,127.465 325.5,126C 328.167,125.333 328.167,124.667 325.5,124C 326.956,123.577 327.456,122.744 327,121.5C 325.667,122.167 324.667,123.167 324,124.5C 322.887,123.24 322.72,122.073 323.5,121C 319.639,120.431 319.639,119.598 323.5,118.5C 323.333,118.167 323.167,117.833 323,117.5C 321.132,118.672 319.298,118.505 317.5,117C 318.167,116.667 318.833,116.333 319.5,116C 317.77,114.148 316.604,114.314 316,116.5C 314.465,113.632 312.299,111.465 309.5,110C 312.167,109.333 312.167,108.667 309.5,108C 310.956,107.577 311.456,106.744 311,105.5C 309.667,106.167 308.667,107.167 308,108.5C 306.887,107.24 306.72,106.073 307.5,105C 303.639,104.431 303.639,103.598 307.5,102.5C 307.333,102.167 307.167,101.833 307,101.5C 305.132,102.672 303.298,102.505 301.5,101C 302.167,100.667 302.833,100.333 303.5,100C 301.77,98.1476 300.604,98.3143 300,100.5C 298.465,97.6318 296.299,95.4651 293.5,94C 296.167,93.3333 296.167,92.6667 293.5,92C 294.956,91.5774 295.456,90.7441 295,89.5C 293.667,90.1667 292.667,91.1667 292,92.5C 290.887,91.2396 290.72,90.073 291.5,89C 287.639,88.4309 287.639,87.5976 291.5,86.5C 291.333,86.1667 291.167,85.8333 291,85.5C 289.132,86.6719 287.298,86.5053 285.5,85C 286.167,84.6667 286.833,84.3333 287.5,84C 285.77,82.1476 284.604,82.3143 284,84.5C 282.465,81.6318 280.299,79.4651 277.5,78C 280.167,77.3333 280.167,76.6667 277.5,76C 278.956,75.5774 279.456,74.7441 279,73.5C 277.667,74.1667 276.667,75.1667 276,76.5C 274.887,75.2396 274.72,74.073 275.5,73C 271.639,72.4309 271.639,71.5976 275.5,70.5C 275.333,70.1667 275.167,69.8333 275,69.5C 273.132,70.6719 271.298,70.5053 269.5,69C 270.167,68.6667 270.833,68.3333 271.5,68C 269.77,66.1476 268.604,66.3143 268,68.5C 266.465,65.6318 264.299,63.4651 261.5,62C 264.167,61.3333 264.167,60.6667 261.5,60C 262.956,59.5774 263.456,58.7441 263,57.5C 261.667,58.1667 260.667,59.1667 260,60.5C 258.887,59.2396 258.72,58.073 259.5,57C 255.639,56.4309 255.639,55.5976 259.5,54.5C 259.333,54.1667 259.167,53.8333 259,53.5C 257.132,54.6719 255.298,54.5053 253.5,53C 254.167,52.6667 254.833,52.3333 255.5,52C 253.77,50.1476 252.604,50.3143 252,52.5C 250.465,49.6318 248.299,47.4651 245.5,46C 248.167,45.3333 248.167,44.6667 245.5,44C 246.956,43.5774 247.456,42.7441 247,41.5C 245.667,42.1667 244.667,43.1667 244,44.5C 242.887,43.2396 242.72,42.073 243.5,41C 239.639,40.4309 239.639,39.5976 243.5,38.5C 243.333,38.1667 243.167,37.8333 243,37.5C 241.132,38.6719 239.298,38.5053 237.5,37C 238.167,36.6667 238.833,36.3333 239.5,36C 237.77,34.1476 236.604,34.3143 236,36.5C 234.465,33.6318 232.299,31.4651 229.5,30C 232.167,29.3333 232.167,28.6667 229.5,28C 230.956,27.5774 231.456,26.7441 231,25.5C 229.667,26.1667 228.667,27.1667 228,28.5C 226.887,27.2396 226.72,26.073 227.5,25C 223.639,24.4309 223.639,23.5976 227.5,22.5C 227.333,22.1667 227.167,21.8333 227,21.5C 225.132,22.6719 223.298,22.5053 221.5,21C 222.167,20.6667 222.833,20.3333 223.5,20C 221.77,18.1476 220.604,18.3143 220,20.5C 218.465,17.6318 216.299,15.4651 213.5,14C 216.167,13.3333 216.167,12.6667 213.5,12C 214.956,11.5774 215.456,10.7441 215,9.5C 213.667,10.1667 212.667,11.1667 212,12.5C 210.887,11.2396 210.72,10.073 211.5,9C 207.639,8.43089 207.639,7.59755 211.5,6.5C 211.333,6.16667 211.167,5.83333 211,5.5C 209.132,6.67194 207.298,6.50528 205.5,5C 206.167,4.66667 206.833,4.33333 207.5,4C 205.77,2.14763 204.604,2.3143 204,4.5C 203.003,2.67694 201.836,1.01027 200.5,-0.5 Z"/></g>
<g><path style="opacity:1" fill="#ffd6a6" d="M 242.5,-0.5 C 262.5,-0.5 282.5,-0.5 302.5,-0.5C 303.263,0.26791 304.263,0.76791 305.5,1C 305.167,1.33333 304.833,1.66667 304.5,2C 306.378,3.5429 307.878,5.37623 309,7.5C 309.333,6.83333 309.667,6.16667 310,5.5C 310.667,6.83333 311.333,6.83333 312,5.5C 312.5,7.33333 313.667,8.5 315.5,9C 315.167,9.33333 314.833,9.66667 314.5,10C 316.689,10.677 317.022,11.8437 315.5,13.5C 316.421,15.815 317.754,15.9817 319.5,14C 319.167,13.6667 318.833,13.3333 318.5,13C 319.932,12.7297 320.932,13.3964 321.5,15C 317.5,15.6667 317.5,16.3333 321.5,17C 321.167,17.3333 320.833,17.6667 320.5,18C 322.378,19.5429 323.878,21.3762 325,23.5C 325.333,22.8333 325.667,22.1667 326,21.5C 326.667,22.8333 327.333,22.8333 328,21.5C 328.5,23.3333 329.667,24.5 331.5,25C 331.167,25.3333 330.833,25.6667 330.5,26C 332.689,26.677 333.022,27.8437 331.5,29.5C 332.421,31.815 333.754,31.9817 335.5,30C 335.167,29.6667 334.833,29.3333 334.5,29C 335.932,28.7297 336.932,29.3964 337.5,31C 333.5,31.6667 333.5,32.3333 337.5,33C 337.167,33.3333 336.833,33.6667 336.5,34C 338.378,35.5429 339.878,37.3762 341,39.5C 341.333,38.8333 341.667,38.1667 342,37.5C 342.667,38.8333 343.333,38.8333 344,37.5C 344.5,39.3333 345.667,40.5 347.5,41C 347.167,41.3333 346.833,41.6667 346.5,42C 348.689,42.677 349.022,43.8437 347.5,45.5C 348.421,47.815 349.754,47.9817 351.5,46C 351.167,45.6667 350.833,45.3333 350.5,45C 351.932,44.7297 352.932,45.3964 353.5,47C 349.5,47.6667 349.5,48.3333 353.5,49C 353.167,49.3333 352.833,49.6667 352.5,50C 354.378,51.5429 355.878,53.3762 357,55.5C 357.333,54.8333 357.667,54.1667 358,53.5C 358.667,54.8333 359.333,54.8333 360,53.5C 360.5,55.3333 361.667,56.5 363.5,57C 363.167,57.3333 362.833,57.6667 362.5,58C 364.689,58.677 365.022,59.8437 363.5,61.5C 364.421,63.815 365.754,63.9817 367.5,62C 367.167,61.6667 366.833,61.3333 366.5,61C 367.932,60.7297 368.932,61.3964 369.5,63C 365.5,63.6667 365.5,64.3333 369.5,65C 369.167,65.3333 368.833,65.6667 368.5,66C 370.378,67.5429 371.878,69.3762 373,71.5C 373.333,70.8333 373.667,70.1667 374,69.5C 374.667,70.8333 375.333,70.8333 376,69.5C 376.5,71.3333 377.667,72.5 379.5,73C 379.167,73.3333 378.833,73.6667 378.5,74C 380.689,74.677 381.022,75.8437 379.5,77.5C 380.421,79.815 381.754,79.9817 383.5,78C 383.167,77.6667 382.833,77.3333 382.5,77C 383.932,76.7297 384.932,77.3964 385.5,79C 381.5,79.6667 381.5,80.3333 385.5,81C 385.167,81.3333 384.833,81.6667 384.5,82C 386.378,83.5429 387.878,85.3762 389,87.5C 389.333,86.8333 389.667,86.1667 390,85.5C 390.667,86.8333 391.333,86.8333 392,85.5C 392.5,87.3333 393.667,88.5 395.5,89C 395.167,89.3333 394.833,89.6667 394.5,90C 396.689,90.677 397.022,91.8437 395.5,93.5C 396.421,95.815 397.754,95.9817 399.5,94C 399.167,93.6667 398.833,93.3333 398.5,93C 399.932,92.7297 400.932,93.3964 401.5,95C 397.5,95.6667 397.5,96.3333 401.5,97C 401.167,97.3333 400.833,97.6667 400.5,98C 402.378,99.5429 403.878,101.376 405,103.5C 405.333,102.833 405.667,102.167 406,101.5C 406.667,102.833 407.333,102.833 408,101.5C 408.5,103.333 409.667,104.5 411.5,105C 411.167,105.333 410.833,105.667 410.5,106C 412.689,106.677 413.022,107.844 411.5,109.5C 412.421,111.815 413.754,111.982 415.5,110C 415.167,109.667 414.833,109.333 414.5,109C 415.932,108.73 416.932,109.396 417.5,111C 413.5,111.667 413.5,112.333 417.5,113C 417.167,113.333 416.833,113.667 416.5,114C 418.378,115.543 419.878,117.376 421,119.5C 421.333,118.833 421.667,118.167 422,117.5C 422.667,118.833 423.333,118.833 424,117.5C 424.5,119.333 425.667,120.5 427.5,121C 427.167,121.333 426.833,121.667 426.5,122C 428.689,122.677 429.022,123.844 427.5,125.5C 428.421,127.815 429.754,127.982 431.5,126C 431.167,125.667 430.833,125.333 430.5,125C 431.932,124.73 432.932,125.396 433.5,127C 429.5,127.667 429.5,128.333 433.5,129C 433.167,129.333 432.833,129.667 432.5,130C 434.378,131.543 435.878,133.376 437,135.5C 437.333,134.833 437.667,134.167 438,133.5C 438.667,134.833 439.333,134.833 440,133.5C 440.5,135.333 441.667,136.5 443.5,137C 443.167,137.333 442.833,137.667 442.5,138C 444.689,138.677 445.022,139.844 443.5,141.5C 444.421,143.815 445.754,143.982 447.5,142C 447.167,141.667 446.833,141.333 446.5,141C 447.932,140.73 448.932,141.396 449.5,143C 445.5,143.667 445.5,144.333 449.5,145C 449.167,145.333 448.833,145.667 448.5,146C 450.378,147.543 451.878,149.376 453,151.5C 453.333,150.833 453.667,150.167 454,149.5C 454.667,150.833 455.333,150.833 456,149.5C 456.5,151.333 457.667,152.5 459.5,153C 459.167,153.333 458.833,153.667 458.5,154C 460.689,154.677 461.022,155.844 459.5,157.5C 460.421,159.815 461.754,159.982 463.5,158C 463.167,157.667 462.833,157.333 462.5,157C 463.932,156.73 464.932,157.396 465.5,159C 461.5,159.667 461.5,160.333 465.5,161C 465.167,161.333 464.833,161.667 464.5,162C 466.402,163.73 468.069,165.563 469.5,167.5C 469.5,187.833 469.5,208.167 469.5,228.5C 468.85,228.804 468.183,229.137 467.5,229.5C 464.721,226.38 461.888,223.38 459,220.5C 458.549,222.929 457.715,223.096 456.5,221C 457.833,219.16 457.666,218.66 456,219.5C 455.167,217.333 453.667,215.833 451.5,215C 451.833,214.667 452.167,214.333 452.5,214C 449.306,210.806 446.14,207.64 443,204.5C 442.549,206.929 441.715,207.096 440.5,205C 441.833,203.16 441.666,202.66 440,203.5C 439.167,201.333 437.667,199.833 435.5,199C 435.833,198.667 436.167,198.333 436.5,198C 433.306,194.806 430.14,191.64 427,188.5C 426.549,190.929 425.715,191.096 424.5,189C 425.833,187.16 425.666,186.66 424,187.5C 423.167,185.333 421.667,183.833 419.5,183C 419.833,182.667 420.167,182.333 420.5,182C 417.306,178.806 414.14,175.64 411,172.5C 410.549,174.929 409.715,175.096 408.5,173C 409.833,171.16 409.666,170.66 408,171.5C 407.167,169.333 405.667,167.833 403.5,167C 403.833,166.667 404.167,166.333 404.5,166C 401.306,162.806 398.14,159.64 395,156.5C 394.549,158.929 393.715,159.096 392.5,157C 393.833,155.16 393.666,154.66 392,155.5C 391.167,153.333 389.667,151.833 387.5,151C 387.833,150.667 388.167,150.333 388.5,150C 385.306,146.806 382.14,143.64 379,140.5C 378.549,142.929 377.715,143.096 376.5,141C 377.833,139.16 377.666,138.66 376,139.5C 375.167,137.333 373.667,135.833 371.5,135C 371.833,134.667 372.167,134.333 372.5,134C 369.306,130.806 366.14,127.64 363,124.5C 362.549,126.929 361.715,127.096 360.5,125C 361.833,123.16 361.666,122.66 360,123.5C 359.167,121.333 357.667,119.833 355.5,119C 355.833,118.667 356.167,118.333 356.5,118C 353.306,114.806 350.14,111.64 347,108.5C 346.549,110.929 345.715,111.096 344.5,109C 345.833,107.16 345.666,106.66 344,107.5C 343.167,105.333 341.667,103.833 339.5,103C 339.833,102.667 340.167,102.333 340.5,102C 337.306,98.8063 334.14,95.6396 331,92.5C 330.549,94.9288 329.715,95.0955 328.5,93C 329.833,91.1598 329.666,90.6598 328,91.5C 327.167,89.3333 325.667,87.8333 323.5,87C 323.833,86.6667 324.167,86.3333 324.5,86C 321.306,82.8063 318.14,79.6396 315,76.5C 314.549,78.9288 313.715,79.0955 312.5,77C 313.833,75.1598 313.666,74.6598 312,75.5C 311.167,73.3333 309.667,71.8333 307.5,71C 307.833,70.6667 308.167,70.3333 308.5,70C 305.306,66.8063 302.14,63.6396 299,60.5C 298.549,62.9288 297.715,63.0955 296.5,61C 297.833,59.1598 297.666,58.6598 296,59.5C 295.167,57.3333 293.667,55.8333 291.5,55C 291.833,54.6667 292.167,54.3333 292.5,54C 289.306,50.8063 286.14,47.6396 283,44.5C 282.549,46.9288 281.715,47.0955 280.5,45C 281.833,43.1598 281.666,42.6598 280,43.5C 279.167,41.3333 277.667,39.8333 275.5,39C 275.833,38.6667 276.167,38.3333 276.5,38C 273.306,34.8063 270.14,31.6396 267,28.5C 266.549,30.9288 265.715,31.0955 264.5,29C 265.833,27.1598 265.666,26.6598 264,27.5C 263.167,25.3333 261.667,23.8333 259.5,23C 259.833,22.6667 260.167,22.3333 260.5,22C 257.306,18.8063 254.14,15.6396 251,12.5C 250.549,14.9288 249.715,15.0955 248.5,13C 249.833,11.1598 249.666,10.6598 248,11.5C 244.792,8.66357 242.292,5.66357 240.5,2.5C 241.193,1.48224 241.859,0.482236 242.5,-0.5 Z"/></g>
<g><path style="opacity:0.999" fill="#ffd9a9" d="M 302.5,-0.5 C 313.833,-0.5 325.167,-0.5 336.5,-0.5C 340.881,0.256807 345.214,1.25681 349.5,2.5C 349.918,3.22158 350.584,3.72158 351.5,4C 349.842,4.72535 349.342,5.89201 350,7.5C 350.604,5.3143 351.77,5.14763 353.5,7C 352.159,10.2617 352.492,10.7617 354.5,8.5C 356.481,9.10541 356.815,10.1054 355.5,11.5C 356.729,12.2811 358.062,12.7811 359.5,13C 358.833,13.3333 358.167,13.6667 357.5,14C 359.18,14.0343 360.68,14.201 362,14.5C 362.492,15.549 362.326,16.549 361.5,17.5C 362.863,18.8928 363.696,20.5595 364,22.5C 363.836,18.8503 365.003,18.017 367.5,20C 365.842,20.7253 365.342,21.892 366,23.5C 366.604,21.3143 367.77,21.1476 369.5,23C 368.159,26.2617 368.492,26.7617 370.5,24.5C 372.481,25.1054 372.815,26.1054 371.5,27.5C 372.729,28.2811 374.062,28.7811 375.5,29C 374.833,29.3333 374.167,29.6667 373.5,30C 375.18,30.0343 376.68,30.201 378,30.5C 378.492,31.549 378.326,32.549 377.5,33.5C 378.863,34.8928 379.696,36.5595 380,38.5C 379.836,34.8503 381.003,34.017 383.5,36C 381.842,36.7253 381.342,37.892 382,39.5C 382.604,37.3143 383.77,37.1476 385.5,39C 384.159,42.2617 384.492,42.7617 386.5,40.5C 388.481,41.1054 388.815,42.1054 387.5,43.5C 388.729,44.2811 390.062,44.7811 391.5,45C 390.833,45.3333 390.167,45.6667 389.5,46C 391.18,46.0343 392.68,46.201 394,46.5C 394.492,47.549 394.326,48.549 393.5,49.5C 394.863,50.8928 395.696,52.5595 396,54.5C 395.836,50.8503 397.003,50.017 399.5,52C 397.842,52.7253 397.342,53.892 398,55.5C 398.604,53.3143 399.77,53.1476 401.5,55C 400.159,58.2617 400.492,58.7617 402.5,56.5C 404.481,57.1054 404.815,58.1054 403.5,59.5C 404.729,60.2811 406.062,60.7811 407.5,61C 406.833,61.3333 406.167,61.6667 405.5,62C 407.18,62.0343 408.68,62.201 410,62.5C 410.492,63.549 410.326,64.549 409.5,65.5C 410.863,66.8928 411.696,68.5595 412,70.5C 411.836,66.8503 413.003,66.017 415.5,68C 413.842,68.7253 413.342,69.892 414,71.5C 414.604,69.3143 415.77,69.1476 417.5,71C 416.159,74.2617 416.492,74.7617 418.5,72.5C 420.481,73.1054 420.815,74.1054 419.5,75.5C 420.729,76.2811 422.062,76.7811 423.5,77C 422.833,77.3333 422.167,77.6667 421.5,78C 422.784,78.6838 423.951,78.5171 425,77.5C 425.187,80.5081 426.187,83.5081 428,86.5C 427.836,82.8503 429.003,82.017 431.5,84C 429.842,84.7253 429.342,85.892 430,87.5C 430.604,85.3143 431.77,85.1476 433.5,87C 432.159,90.2617 432.492,90.7617 434.5,88.5C 436.481,89.1054 436.815,90.1054 435.5,91.5C 436.729,92.2811 438.062,92.7811 439.5,93C 438.833,93.3333 438.167,93.6667 437.5,94C 438.784,94.6838 439.951,94.5171 441,93.5C 441.187,96.5081 442.187,99.5081 444,102.5C 443.836,98.8503 445.003,98.017 447.5,100C 445.842,100.725 445.342,101.892 446,103.5C 446.604,101.314 447.77,101.148 449.5,103C 448.159,106.262 448.492,106.762 450.5,104.5C 452.481,105.105 452.815,106.105 451.5,107.5C 452.729,108.281 454.062,108.781 455.5,109C 454.833,109.333 454.167,109.667 453.5,110C 454.784,110.684 455.951,110.517 457,109.5C 457.187,112.508 458.187,115.508 460,118.5C 459.836,114.85 461.003,114.017 463.5,116C 461.842,116.725 461.342,117.892 462,119.5C 462.604,117.314 463.77,117.148 465.5,119C 464.365,122.06 465.365,124.226 468.5,125.5C 468.198,128.059 468.532,130.393 469.5,132.5C 469.5,144.167 469.5,155.833 469.5,167.5C 468.069,165.563 466.402,163.73 464.5,162C 464.833,161.667 465.167,161.333 465.5,161C 461.5,160.333 461.5,159.667 465.5,159C 464.932,157.396 463.932,156.73 462.5,157C 462.833,157.333 463.167,157.667 463.5,158C 461.754,159.982 460.421,159.815 459.5,157.5C 461.022,155.844 460.689,154.677 458.5,154C 458.833,153.667 459.167,153.333 459.5,153C 457.667,152.5 456.5,151.333 456,149.5C 455.333,150.833 454.667,150.833 454,149.5C 453.667,150.167 453.333,150.833 453,151.5C 451.878,149.376 450.378,147.543 448.5,146C 448.833,145.667 449.167,145.333 449.5,145C 445.5,144.333 445.5,143.667 449.5,143C 448.932,141.396 447.932,140.73 446.5,141C 446.833,141.333 447.167,141.667 447.5,142C 445.754,143.982 444.421,143.815 443.5,141.5C 445.022,139.844 444.689,138.677 442.5,138C 442.833,137.667 443.167,137.333 443.5,137C 441.667,136.5 440.5,135.333 440,133.5C 439.333,134.833 438.667,134.833 438,133.5C 437.667,134.167 437.333,134.833 437,135.5C 435.878,133.376 434.378,131.543 432.5,130C 432.833,129.667 433.167,129.333 433.5,129C 429.5,128.333 429.5,127.667 433.5,127C 432.932,125.396 431.932,124.73 430.5,125C 430.833,125.333 431.167,125.667 431.5,126C 429.754,127.982 428.421,127.815 427.5,125.5C 429.022,123.844 428.689,122.677 426.5,122C 426.833,121.667 427.167,121.333 427.5,121C 425.667,120.5 424.5,119.333 424,117.5C 423.333,118.833 422.667,118.833 422,117.5C 421.667,118.167 421.333,118.833 421,119.5C 419.878,117.376 418.378,115.543 416.5,114C 416.833,113.667 417.167,113.333 417.5,113C 413.5,112.333 413.5,111.667 417.5,111C 416.932,109.396 415.932,108.73 414.5,109C 414.833,109.333 415.167,109.667 415.5,110C 413.754,111.982 412.421,111.815 411.5,109.5C 413.022,107.844 412.689,106.677 410.5,106C 410.833,105.667 411.167,105.333 411.5,105C 409.667,104.5 408.5,103.333 408,101.5C 407.333,102.833 406.667,102.833 406,101.5C 405.667,102.167 405.333,102.833 405,103.5C 403.878,101.376 402.378,99.5429 400.5,98C 400.833,97.6667 401.167,97.3333 401.5,97C 397.5,96.3333 397.5,95.6667 401.5,95C 400.932,93.3964 399.932,92.7297 398.5,93C 398.833,93.3333 399.167,93.6667 399.5,94C 397.754,95.9817 396.421,95.815 395.5,93.5C 397.022,91.8437 396.689,90.677 394.5,90C 394.833,89.6667 395.167,89.3333 395.5,89C 393.667,88.5 392.5,87.3333 392,85.5C 391.333,86.8333 390.667,86.8333 390,85.5C 389.667,86.1667 389.333,86.8333 389,87.5C 387.878,85.3762 386.378,83.5429 384.5,82C 384.833,81.6667 385.167,81.3333 385.5,81C 381.5,80.3333 381.5,79.6667 385.5,79C 384.932,77.3964 383.932,76.7297 382.5,77C 382.833,77.3333 383.167,77.6667 383.5,78C 381.754,79.9817 380.421,79.815 379.5,77.5C 381.022,75.8437 380.689,74.677 378.5,74C 378.833,73.6667 379.167,73.3333 379.5,73C 377.667,72.5 376.5,71.3333 376,69.5C 375.333,70.8333 374.667,70.8333 374,69.5C 373.667,70.1667 373.333,70.8333 373,71.5C 371.878,69.3762 370.378,67.5429 368.5,66C 368.833,65.6667 369.167,65.3333 369.5,65C 365.5,64.3333 365.5,63.6667 369.5,63C 368.932,61.3964 367.932,60.7297 366.5,61C 366.833,61.3333 367.167,61.6667 367.5,62C 365.754,63.9817 364.421,63.815 363.5,61.5C 365.022,59.8437 364.689,58.677 362.5,58C 362.833,57.6667 363.167,57.3333 363.5,57C 361.667,56.5 360.5,55.3333 360,53.5C 359.333,54.8333 358.667,54.8333 358,53.5C 357.667,54.1667 357.333,54.8333 357,55.5C 355.878,53.3762 354.378,51.5429 352.5,50C 352.833,49.6667 353.167,49.3333 353.5,49C 349.5,48.3333 349.5,47.6667 353.5,47C 352.932,45.3964 351.932,44.7297 350.5,45C 350.833,45.3333 351.167,45.6667 351.5,46C 349.754,47.9817 348.421,47.815 347.5,45.5C 349.022,43.8437 348.689,42.677 346.5,42C 346.833,41.6667 347.167,41.3333 347.5,41C 345.667,40.5 344.5,39.3333 344,37.5C 343.333,38.8333 342.667,38.8333 342,37.5C 341.667,38.1667 341.333,38.8333 341,39.5C 339.878,37.3762 338.378,35.5429 336.5,34C 336.833,33.6667 337.167,33.3333 337.5,33C 333.5,32.3333 333.5,31.6667 337.5,31C 336.932,29.3964 335.932,28.7297 334.5,29C 334.833,29.3333 335.167,29.6667 335.5,30C 333.754,31.9817 332.421,31.815 331.5,29.5C 333.022,27.8437 332.689,26.677 330.5,26C 330.833,25.6667 331.167,25.3333 331.5,25C 329.667,24.5 328.5,23.3333 328,21.5C 327.333,22.8333 326.667,22.8333 326,21.5C 325.667,22.1667 325.333,22.8333 325,23.5C 323.878,21.3762 322.378,19.5429 320.5,18C 320.833,17.6667 321.167,17.3333 321.5,17C 317.5,16.3333 317.5,15.6667 321.5,15C 320.932,13.3964 319.932,12.7297 318.5,13C 318.833,13.3333 319.167,13.6667 319.5,14C 317.754,15.9817 316.421,15.815 315.5,13.5C 317.022,11.8437 316.689,10.677 314.5,10C 314.833,9.66667 315.167,9.33333 315.5,9C 313.667,8.5 312.5,7.33333 312,5.5C 311.333,6.83333 310.667,6.83333 310,5.5C 309.667,6.16667 309.333,6.83333 309,7.5C 307.878,5.37623 306.378,3.5429 304.5,2C 304.833,1.66667 305.167,1.33333 305.5,1C 304.263,0.76791 303.263,0.26791 302.5,-0.5 Z"/></g>
<g><path style="opacity:0.998" fill="#ffcd9d" d="M 124.5,1.5 C 126.492,1.32846 128.158,1.99512 129.5,3.5C 129.489,2.55855 129.989,1.89188 131,1.5C 132.225,1.86229 133.391,2.36229 134.5,3C 133.833,3.33333 133.167,3.66667 132.5,4C 133.253,5.48701 134.086,5.65367 135,4.5C 135.948,6.5701 137.448,8.0701 139.5,9C 139.167,9.33333 138.833,9.66667 138.5,10C 139.667,10.5 140.5,11.3333 141,12.5C 142.749,11.701 144.082,12.3676 145,14.5C 147.861,14.0918 148.028,14.9251 145.5,17C 147.246,17.4709 148.913,18.1376 150.5,19C 149.833,19.3333 149.167,19.6667 148.5,20C 149.253,21.487 150.086,21.6537 151,20.5C 151.948,22.5701 153.448,24.0701 155.5,25C 155.167,25.3333 154.833,25.6667 154.5,26C 155.667,26.5 156.5,27.3333 157,28.5C 158.749,27.701 160.082,28.3676 161,30.5C 163.861,30.0918 164.028,30.9251 161.5,33C 163.246,33.4709 164.913,34.1376 166.5,35C 165.833,35.3333 165.167,35.6667 164.5,36C 165.253,37.487 166.086,37.6537 167,36.5C 167.948,38.5701 169.448,40.0701 171.5,41C 171.167,41.3333 170.833,41.6667 170.5,42C 171.667,42.5 172.5,43.3333 173,44.5C 174.749,43.701 176.082,44.3676 177,46.5C 179.861,46.0918 180.028,46.9251 177.5,49C 179.246,49.4709 180.913,50.1376 182.5,51C 181.833,51.3333 181.167,51.6667 180.5,52C 181.253,53.487 182.086,53.6537 183,52.5C 183.948,54.5701 185.448,56.0701 187.5,57C 187.167,57.3333 186.833,57.6667 186.5,58C 187.667,58.5 188.5,59.3333 189,60.5C 190.749,59.701 192.082,60.3676 193,62.5C 195.861,62.0918 196.028,62.9251 193.5,65C 195.246,65.4709 196.913,66.1376 198.5,67C 197.833,67.3333 197.167,67.6667 196.5,68C 197.253,69.487 198.086,69.6537 199,68.5C 199.948,70.5701 201.448,72.0701 203.5,73C 203.167,73.3333 202.833,73.6667 202.5,74C 203.667,74.5 204.5,75.3333 205,76.5C 206.749,75.701 208.082,76.3676 209,78.5C 211.861,78.0918 212.028,78.9251 209.5,81C 211.246,81.4709 212.913,82.1376 214.5,83C 213.833,83.3333 213.167,83.6667 212.5,84C 213.253,85.487 214.086,85.6537 215,84.5C 215.948,86.5701 217.448,88.0701 219.5,89C 219.167,89.3333 218.833,89.6667 218.5,90C 219.667,90.5 220.5,91.3333 221,92.5C 222.749,91.701 224.082,92.3676 225,94.5C 227.861,94.0918 228.028,94.9251 225.5,97C 227.246,97.4709 228.913,98.1376 230.5,99C 229.833,99.3333 229.167,99.6667 228.5,100C 229.253,101.487 230.086,101.654 231,100.5C 231.948,102.57 233.448,104.07 235.5,105C 235.167,105.333 234.833,105.667 234.5,106C 235.667,106.5 236.5,107.333 237,108.5C 238.749,107.701 240.082,108.368 241,110.5C 243.861,110.092 244.028,110.925 241.5,113C 243.246,113.471 244.913,114.138 246.5,115C 245.833,115.333 245.167,115.667 244.5,116C 245.253,117.487 246.086,117.654 247,116.5C 247.948,118.57 249.448,120.07 251.5,121C 251.167,121.333 250.833,121.667 250.5,122C 251.667,122.5 252.5,123.333 253,124.5C 254.749,123.701 256.082,124.368 257,126.5C 259.861,126.092 260.028,126.925 257.5,129C 259.246,129.471 260.913,130.138 262.5,131C 261.833,131.333 261.167,131.667 260.5,132C 261.253,133.487 262.086,133.654 263,132.5C 263.948,134.57 265.448,136.07 267.5,137C 267.167,137.333 266.833,137.667 266.5,138C 267.667,138.5 268.5,139.333 269,140.5C 270.749,139.701 272.082,140.368 273,142.5C 275.861,142.092 276.028,142.925 273.5,145C 275.246,145.471 276.913,146.138 278.5,147C 277.833,147.333 277.167,147.667 276.5,148C 277.253,149.487 278.086,149.654 279,148.5C 279.948,150.57 281.448,152.07 283.5,153C 283.167,153.333 282.833,153.667 282.5,154C 283.667,154.5 284.5,155.333 285,156.5C 285.333,156.167 285.667,155.833 286,155.5C 287.635,157.667 289.468,158.834 291.5,159C 288.668,160.908 289.001,161.741 292.5,161.5C 293.071,163.36 293.071,165.027 292.5,166.5C 276.238,151.041 258.238,138.041 238.5,127.5C 230.146,122.657 221.48,118.323 212.5,114.5C 212.579,113.07 212.246,111.736 211.5,110.5C 209.055,110.308 207.055,108.808 205.5,106C 206.451,105.282 206.617,104.449 206,103.5C 201.386,100.829 197.552,97.4954 194.5,93.5C 193.914,93.7093 193.414,94.0426 193,94.5C 190.502,92.5379 189.502,90.2046 190,87.5C 185.386,84.8287 181.552,81.4954 178.5,77.5C 177.914,77.7093 177.414,78.0426 177,78.5C 174.502,76.5379 173.502,74.2046 174,71.5C 169.386,68.8287 165.552,65.4954 162.5,61.5C 161.914,61.7093 161.414,62.0426 161,62.5C 158.502,60.5379 157.502,58.2046 158,55.5C 153.386,52.8287 149.552,49.4954 146.5,45.5C 145.914,45.7093 145.414,46.0426 145,46.5C 142.502,44.5379 141.502,42.2046 142,39.5C 137.386,36.8287 133.552,33.4954 130.5,29.5C 129.914,29.7093 129.414,30.0426 129,30.5C 126.502,28.5379 125.502,26.2046 126,23.5C 121.386,20.8287 117.552,17.4954 114.5,13.5C 113.914,13.7093 113.414,14.0426 113,14.5C 111.833,13 110.667,11.5 109.5,10C 110.833,9 110.833,8 109.5,7C 108.004,6.49256 106.837,6.99256 106,8.5C 105.292,7.61947 104.458,6.9528 103.5,6.5C 110.133,3.75966 117.133,2.09299 124.5,1.5 Z"/></g>
<g><path style="opacity:0.983" fill="#ffdbac" d="M 349.5,2.5 C 403.348,14.5098 440.515,46.1765 461,97.5C 464.134,106.704 466.634,116.037 468.5,125.5C 465.365,124.226 464.365,122.06 465.5,119C 463.77,117.148 462.604,117.314 462,119.5C 461.342,117.892 461.842,116.725 463.5,116C 461.003,114.017 459.836,114.85 460,118.5C 458.187,115.508 457.187,112.508 457,109.5C 455.951,110.517 454.784,110.684 453.5,110C 454.167,109.667 454.833,109.333 455.5,109C 454.062,108.781 452.729,108.281 451.5,107.5C 452.815,106.105 452.481,105.105 450.5,104.5C 448.492,106.762 448.159,106.262 449.5,103C 447.77,101.148 446.604,101.314 446,103.5C 445.342,101.892 445.842,100.725 447.5,100C 445.003,98.017 443.836,98.8503 444,102.5C 442.187,99.5081 441.187,96.5081 441,93.5C 439.951,94.5171 438.784,94.6838 437.5,94C 438.167,93.6667 438.833,93.3333 439.5,93C 438.062,92.7811 436.729,92.2811 435.5,91.5C 436.815,90.1054 436.481,89.1054 434.5,88.5C 432.492,90.7617 432.159,90.2617 433.5,87C 431.77,85.1476 430.604,85.3143 430,87.5C 429.342,85.892 429.842,84.7253 431.5,84C 429.003,82.017 427.836,82.8503 428,86.5C 426.187,83.5081 425.187,80.5081 425,77.5C 423.951,78.5171 422.784,78.6838 421.5,78C 422.167,77.6667 422.833,77.3333 423.5,77C 422.062,76.7811 420.729,76.2811 419.5,75.5C 420.815,74.1054 420.481,73.1054 418.5,72.5C 416.492,74.7617 416.159,74.2617 417.5,71C 415.77,69.1476 414.604,69.3143 414,71.5C 413.342,69.892 413.842,68.7253 415.5,68C 413.003,66.017 411.836,66.8503 412,70.5C 411.696,68.5595 410.863,66.8928 409.5,65.5C 410.326,64.549 410.492,63.549 410,62.5C 408.68,62.201 407.18,62.0343 405.5,62C 406.167,61.6667 406.833,61.3333 407.5,61C 406.062,60.7811 404.729,60.2811 403.5,59.5C 404.815,58.1054 404.481,57.1054 402.5,56.5C 400.492,58.7617 400.159,58.2617 401.5,55C 399.77,53.1476 398.604,53.3143 398,55.5C 397.342,53.892 397.842,52.7253 399.5,52C 397.003,50.017 395.836,50.8503 396,54.5C 395.696,52.5595 394.863,50.8928 393.5,49.5C 394.326,48.549 394.492,47.549 394,46.5C 392.68,46.201 391.18,46.0343 389.5,46C 390.167,45.6667 390.833,45.3333 391.5,45C 390.062,44.7811 388.729,44.2811 387.5,43.5C 388.815,42.1054 388.481,41.1054 386.5,40.5C 384.492,42.7617 384.159,42.2617 385.5,39C 383.77,37.1476 382.604,37.3143 382,39.5C 381.342,37.892 381.842,36.7253 383.5,36C 381.003,34.017 379.836,34.8503 380,38.5C 379.696,36.5595 378.863,34.8928 377.5,33.5C 378.326,32.549 378.492,31.549 378,30.5C 376.68,30.201 375.18,30.0343 373.5,30C 374.167,29.6667 374.833,29.3333 375.5,29C 374.062,28.7811 372.729,28.2811 371.5,27.5C 372.815,26.1054 372.481,25.1054 370.5,24.5C 368.492,26.7617 368.159,26.2617 369.5,23C 367.77,21.1476 366.604,21.3143 366,23.5C 365.342,21.892 365.842,20.7253 367.5,20C 365.003,18.017 363.836,18.8503 364,22.5C 363.696,20.5595 362.863,18.8928 361.5,17.5C 362.326,16.549 362.492,15.549 362,14.5C 360.68,14.201 359.18,14.0343 357.5,14C 358.167,13.6667 358.833,13.3333 359.5,13C 358.062,12.7811 356.729,12.2811 355.5,11.5C 356.815,10.1054 356.481,9.10541 354.5,8.5C 352.492,10.7617 352.159,10.2617 353.5,7C 351.77,5.14763 350.604,5.3143 350,7.5C 349.342,5.89201 349.842,4.72535 351.5,4C 350.584,3.72158 349.918,3.22158 349.5,2.5 Z"/></g>
<g><path style="opacity:0.997" fill="#ffca99" d="M 103.5,6.5 C 104.458,6.9528 105.292,7.61947 106,8.5C 106.837,6.99256 108.004,6.49256 109.5,7C 110.833,8 110.833,9 109.5,10C 110.667,11.5 111.833,13 113,14.5C 113.414,14.0426 113.914,13.7093 114.5,13.5C 117.552,17.4954 121.386,20.8287 126,23.5C 125.502,26.2046 126.502,28.5379 129,30.5C 129.414,30.0426 129.914,29.7093 130.5,29.5C 133.552,33.4954 137.386,36.8287 142,39.5C 141.502,42.2046 142.502,44.5379 145,46.5C 145.414,46.0426 145.914,45.7093 146.5,45.5C 149.552,49.4954 153.386,52.8287 158,55.5C 157.502,58.2046 158.502,60.5379 161,62.5C 161.414,62.0426 161.914,61.7093 162.5,61.5C 165.552,65.4954 169.386,68.8287 174,71.5C 173.502,74.2046 174.502,76.5379 177,78.5C 177.414,78.0426 177.914,77.7093 178.5,77.5C 181.552,81.4954 185.386,84.8287 190,87.5C 189.502,90.2046 190.502,92.5379 193,94.5C 193.414,94.0426 193.914,93.7093 194.5,93.5C 197.552,97.4954 201.386,100.829 206,103.5C 206.617,104.449 206.451,105.282 205.5,106C 207.055,108.808 209.055,110.308 211.5,110.5C 212.246,111.736 212.579,113.07 212.5,114.5C 212.167,114.5 211.833,114.5 211.5,114.5C 196.511,107.84 180.844,103.173 164.5,100.5C 142.233,95.6437 119.566,93.6437 96.5,94.5C 95.1889,92.6642 94.0222,90.6642 93,88.5C 92.5774,89.9561 91.7441,90.4561 90.5,90C 92.0139,88.561 92.3473,87.061 91.5,85.5C 90.0663,84.7702 88.8996,83.7702 88,82.5C 87.5814,83.6721 86.9147,84.6721 86,85.5C 85.3828,84.5509 85.5494,83.7175 86.5,83C 83.8333,82.3333 83.8333,81.6667 86.5,81C 84.6969,80.3632 83.3636,79.1965 82.5,77.5C 81.914,77.7093 81.414,78.0426 81,78.5C 79.2745,76.7721 77.9411,74.7721 77,72.5C 76.5774,73.9561 75.7441,74.4561 74.5,74C 76.0139,72.561 76.3473,71.061 75.5,69.5C 74.0663,68.7702 72.8996,67.7702 72,66.5C 71.5814,67.6721 70.9147,68.6721 70,69.5C 69.3828,68.5509 69.5494,67.7175 70.5,67C 67.8333,66.3333 67.8333,65.6667 70.5,65C 68.6969,64.3632 67.3636,63.1965 66.5,61.5C 65.914,61.7093 65.414,62.0426 65,62.5C 63.2745,60.7721 61.9411,58.7721 61,56.5C 60.5774,57.9561 59.7441,58.4561 58.5,58C 60.0139,56.561 60.3473,55.061 59.5,53.5C 58.0663,52.7702 56.8996,51.7702 56,50.5C 55.5814,51.6721 54.9147,52.6721 54,53.5C 53.3828,52.5509 53.5494,51.7175 54.5,51C 51.8333,50.3333 51.8333,49.6667 54.5,49C 52.6969,48.3632 51.3636,47.1965 50.5,45.5C 49.914,45.7093 49.414,46.0426 49,46.5C 47.6134,44.9535 46.4467,43.2868 45.5,41.5C 61.644,24.7523 80.9773,13.0856 103.5,6.5 Z"/></g>
<g><path style="opacity:0.99" fill="#ffc594" d="M 45.5,41.5 C 46.4467,43.2868 47.6134,44.9535 49,46.5C 49.414,46.0426 49.914,45.7093 50.5,45.5C 51.3636,47.1965 52.6969,48.3632 54.5,49C 51.8333,49.6667 51.8333,50.3333 54.5,51C 53.5494,51.7175 53.3828,52.5509 54,53.5C 54.9147,52.6721 55.5814,51.6721 56,50.5C 56.8996,51.7702 58.0663,52.7702 59.5,53.5C 60.3473,55.061 60.0139,56.561 58.5,58C 59.7441,58.4561 60.5774,57.9561 61,56.5C 61.9411,58.7721 63.2745,60.7721 65,62.5C 65.414,62.0426 65.914,61.7093 66.5,61.5C 67.3636,63.1965 68.6969,64.3632 70.5,65C 67.8333,65.6667 67.8333,66.3333 70.5,67C 69.5494,67.7175 69.3828,68.5509 70,69.5C 70.9147,68.6721 71.5814,67.6721 72,66.5C 72.8996,67.7702 74.0663,68.7702 75.5,69.5C 76.3473,71.061 76.0139,72.561 74.5,74C 75.7441,74.4561 76.5774,73.9561 77,72.5C 77.9411,74.7721 79.2745,76.7721 81,78.5C 81.414,78.0426 81.914,77.7093 82.5,77.5C 83.3636,79.1965 84.6969,80.3632 86.5,81C 83.8333,81.6667 83.8333,82.3333 86.5,83C 85.5494,83.7175 85.3828,84.5509 86,85.5C 86.9147,84.6721 87.5814,83.6721 88,82.5C 88.8996,83.7702 90.0663,84.7702 91.5,85.5C 92.3473,87.061 92.0139,88.561 90.5,90C 91.7441,90.4561 92.5774,89.9561 93,88.5C 94.0222,90.6642 95.1889,92.6642 96.5,94.5C 94.5853,94.2155 92.9187,94.5489 91.5,95.5C 85.6898,95.3136 80.0231,95.9803 74.5,97.5C 64.3623,98.5785 54.3623,100.412 44.5,103C 30.2138,107.15 16.2138,111.984 2.5,117.5C 9.10464,87.606 23.438,62.2727 45.5,41.5 Z"/></g>
<g><path style="opacity:1" fill="#ff9855" d="M 96.5,94.5 C 119.566,93.6437 142.233,95.6437 164.5,100.5C 164.5,106.833 164.5,113.167 164.5,119.5C 162.833,119.5 161.167,119.5 159.5,119.5C 159.5,127.833 159.5,136.167 159.5,144.5C 157.833,144.5 156.167,144.5 154.5,144.5C 154.5,152.833 154.5,161.167 154.5,169.5C 152.833,169.5 151.167,169.5 149.5,169.5C 149.5,177.833 149.5,186.167 149.5,194.5C 147.833,194.5 146.167,194.5 144.5,194.5C 144.5,202.833 144.5,211.167 144.5,219.5C 142.833,219.5 141.167,219.5 139.5,219.5C 139.5,227.833 139.5,236.167 139.5,244.5C 137.833,244.5 136.167,244.5 134.5,244.5C 134.822,250.358 134.489,256.025 133.5,261.5C 123.248,259.821 112.914,259.154 102.5,259.5C 102.372,231.978 101.706,204.312 100.5,176.5C 99.8333,191.833 99.1667,207.167 98.5,222.5C 97.4884,188.992 96.4884,155.325 95.5,121.5C 94.8333,138.5 94.1667,155.5 93.5,172.5C 92.4915,146.683 91.8249,121.016 91.5,95.5C 92.9187,94.5489 94.5853,94.2155 96.5,94.5 Z"/></g>
<g><path style="opacity:1" fill="#ff9b58" d="M 91.5,95.5 C 91.8249,121.016 92.4915,146.683 93.5,172.5C 94.1667,155.5 94.8333,138.5 95.5,121.5C 96.4884,155.325 97.4884,188.992 98.5,222.5C 99.1667,207.167 99.8333,191.833 100.5,176.5C 101.706,204.312 102.372,231.978 102.5,259.5C 101.167,259.833 99.8333,260.167 98.5,260.5C 99.4491,255.26 99.7825,249.927 99.5,244.5C 97.8333,244.5 96.1667,244.5 94.5,244.5C 94.5,232.833 94.5,221.167 94.5,209.5C 92.8333,209.5 91.1667,209.5 89.5,209.5C 89.5,199.5 89.5,189.5 89.5,179.5C 87.8333,179.5 86.1667,179.5 84.5,179.5C 84.5,167.833 84.5,156.167 84.5,144.5C 82.8333,144.5 81.1667,144.5 79.5,144.5C 79.5,134.5 79.5,124.5 79.5,114.5C 77.8333,114.5 76.1667,114.5 74.5,114.5C 74.5,108.833 74.5,103.167 74.5,97.5C 80.0231,95.9803 85.6898,95.3136 91.5,95.5 Z"/></g>
<g><path style="opacity:1" fill="#ff9f5a" d="M 74.5,97.5 C 74.5,103.167 74.5,108.833 74.5,114.5C 76.1667,114.5 77.8333,114.5 79.5,114.5C 79.5,124.5 79.5,134.5 79.5,144.5C 81.1667,144.5 82.8333,144.5 84.5,144.5C 84.5,156.167 84.5,167.833 84.5,179.5C 86.1667,179.5 87.8333,179.5 89.5,179.5C 89.5,189.5 89.5,199.5 89.5,209.5C 91.1667,209.5 92.8333,209.5 94.5,209.5C 94.5,221.167 94.5,232.833 94.5,244.5C 96.1667,244.5 97.8333,244.5 99.5,244.5C 99.7825,249.927 99.4491,255.26 98.5,260.5C 76.0347,263.565 57.0347,273.232 41.5,289.5C 39.744,288.448 39.0773,286.781 39.5,284.5C 37.8333,284.5 36.1667,284.5 34.5,284.5C 34.5,282.833 34.5,281.167 34.5,279.5C 32.8333,279.5 31.1667,279.5 29.5,279.5C 29.5,277.833 29.5,276.167 29.5,274.5C 27.8333,274.5 26.1667,274.5 24.5,274.5C 24.5,272.833 24.5,271.167 24.5,269.5C 22.8333,269.5 21.1667,269.5 19.5,269.5C 19.5,267.833 19.5,266.167 19.5,264.5C 17.8333,264.5 16.1667,264.5 14.5,264.5C 14.5,262.833 14.5,261.167 14.5,259.5C 12.8333,259.5 11.1667,259.5 9.5,259.5C 9.5,257.833 9.5,256.167 9.5,254.5C 7.83333,254.5 6.16667,254.5 4.5,254.5C 4.5,252.833 4.5,251.167 4.5,249.5C 2.83333,249.5 1.16667,249.5 -0.5,249.5C -0.5,210.5 -0.5,171.5 -0.5,132.5C 0.412357,127.605 1.41236,122.605 2.5,117.5C 16.2138,111.984 30.2138,107.15 44.5,103C 54.3623,100.412 64.3623,98.5785 74.5,97.5 Z"/></g>
<g><path style="opacity:1" fill="#ff9352" d="M 164.5,100.5 C 180.844,103.173 196.511,107.84 211.5,114.5C 209.167,114.5 206.833,114.5 204.5,114.5C 204.5,119.5 204.5,124.5 204.5,129.5C 202.833,129.5 201.167,129.5 199.5,129.5C 199.5,132.833 199.5,136.167 199.5,139.5C 197.833,139.5 196.167,139.5 194.5,139.5C 194.5,144.5 194.5,149.5 194.5,154.5C 192.833,154.5 191.167,154.5 189.5,154.5C 189.5,159.5 189.5,164.5 189.5,169.5C 187.833,169.5 186.167,169.5 184.5,169.5C 184.5,172.833 184.5,176.167 184.5,179.5C 182.833,179.5 181.167,179.5 179.5,179.5C 179.5,184.5 179.5,189.5 179.5,194.5C 177.833,194.5 176.167,194.5 174.5,194.5C 174.5,197.833 174.5,201.167 174.5,204.5C 172.833,204.5 171.167,204.5 169.5,204.5C 169.5,209.5 169.5,214.5 169.5,219.5C 167.833,219.5 166.167,219.5 164.5,219.5C 164.5,224.5 164.5,229.5 164.5,234.5C 162.833,234.5 161.167,234.5 159.5,234.5C 159.5,237.833 159.5,241.167 159.5,244.5C 157.833,244.5 156.167,244.5 154.5,244.5C 154.5,249.5 154.5,254.5 154.5,259.5C 152.833,259.5 151.167,259.5 149.5,259.5C 149.5,261.833 149.5,264.167 149.5,266.5C 144.078,264.802 138.745,263.135 133.5,261.5C 134.489,256.025 134.822,250.358 134.5,244.5C 136.167,244.5 137.833,244.5 139.5,244.5C 139.5,236.167 139.5,227.833 139.5,219.5C 141.167,219.5 142.833,219.5 144.5,219.5C 144.5,211.167 144.5,202.833 144.5,194.5C 146.167,194.5 147.833,194.5 149.5,194.5C 149.5,186.167 149.5,177.833 149.5,169.5C 151.167,169.5 152.833,169.5 154.5,169.5C 154.5,161.167 154.5,152.833 154.5,144.5C 156.167,144.5 157.833,144.5 159.5,144.5C 159.5,136.167 159.5,127.833 159.5,119.5C 161.167,119.5 162.833,119.5 164.5,119.5C 164.5,113.167 164.5,106.833 164.5,100.5 Z"/></g>
<g><path style="opacity:1" fill="#ff9050" d="M 211.5,114.5 C 211.833,114.5 212.167,114.5 212.5,114.5C 221.48,118.323 230.146,122.657 238.5,127.5C 236.242,127.775 235.908,128.775 237.5,130.5C 236.94,132.854 236.273,135.187 235.5,137.5C 234.833,135.5 234.167,133.5 233.5,131.5C 232.5,136.833 231.5,142.167 230.5,147.5C 229.833,145.5 229.167,143.5 228.5,141.5C 227.5,146.833 226.5,152.167 225.5,157.5C 224.833,155.5 224.167,153.5 223.5,151.5C 222.158,154.511 221.825,157.511 222.5,160.5C 222.167,161.5 221.5,162.167 220.5,162.5C 219.28,161.289 218.113,161.289 217,162.5C 217.288,165.791 216.788,169.125 215.5,172.5C 214.833,170.5 214.167,168.5 213.5,166.5C 212.5,171.833 211.5,177.167 210.5,182.5C 209.833,180.5 209.167,178.5 208.5,176.5C 207.5,181.833 206.5,187.167 205.5,192.5C 204.833,190.5 204.167,188.5 203.5,186.5C 202.5,191.833 201.5,197.167 200.5,202.5C 199.833,200.5 199.167,198.5 198.5,196.5C 197.5,201.833 196.5,207.167 195.5,212.5C 194.833,210.5 194.167,208.5 193.5,206.5C 192.5,211.833 191.5,217.167 190.5,222.5C 189.833,220.5 189.167,218.5 188.5,216.5C 187.5,221.833 186.5,227.167 185.5,232.5C 184.833,230.5 184.167,228.5 183.5,226.5C 182.158,229.511 181.825,232.511 182.5,235.5C 182.167,236.5 181.5,237.167 180.5,237.5C 179.28,236.289 178.113,236.289 177,237.5C 177.288,240.791 176.788,244.125 175.5,247.5C 174.833,245.5 174.167,243.5 173.5,241.5C 172.5,246.833 171.5,252.167 170.5,257.5C 169.833,255.5 169.167,253.5 168.5,251.5C 166.796,255.814 166.13,260.148 166.5,264.5C 166.167,265.5 165.833,266.5 165.5,267.5C 164.833,265.5 164.167,263.5 163.5,261.5C 162.262,265.28 161.595,268.947 161.5,272.5C 157.213,271.023 153.213,269.023 149.5,266.5C 149.5,264.167 149.5,261.833 149.5,259.5C 151.167,259.5 152.833,259.5 154.5,259.5C 154.5,254.5 154.5,249.5 154.5,244.5C 156.167,244.5 157.833,244.5 159.5,244.5C 159.5,241.167 159.5,237.833 159.5,234.5C 161.167,234.5 162.833,234.5 164.5,234.5C 164.5,229.5 164.5,224.5 164.5,219.5C 166.167,219.5 167.833,219.5 169.5,219.5C 169.5,214.5 169.5,209.5 169.5,204.5C 171.167,204.5 172.833,204.5 174.5,204.5C 174.5,201.167 174.5,197.833 174.5,194.5C 176.167,194.5 177.833,194.5 179.5,194.5C 179.5,189.5 179.5,184.5 179.5,179.5C 181.167,179.5 182.833,179.5 184.5,179.5C 184.5,176.167 184.5,172.833 184.5,169.5C 186.167,169.5 187.833,169.5 189.5,169.5C 189.5,164.5 189.5,159.5 189.5,154.5C 191.167,154.5 192.833,154.5 194.5,154.5C 194.5,149.5 194.5,144.5 194.5,139.5C 196.167,139.5 197.833,139.5 199.5,139.5C 199.5,136.167 199.5,132.833 199.5,129.5C 201.167,129.5 202.833,129.5 204.5,129.5C 204.5,124.5 204.5,119.5 204.5,114.5C 206.833,114.5 209.167,114.5 211.5,114.5 Z"/></g>
<g><path style="opacity:1" fill="#ff8c4d" d="M 238.5,127.5 C 258.238,138.041 276.238,151.041 292.5,166.5C 295.5,168.833 298.167,171.5 300.5,174.5C 298.5,174.5 296.5,174.5 294.5,174.5C 294.5,176.167 294.5,177.833 294.5,179.5C 292.833,179.5 291.167,179.5 289.5,179.5C 289.5,181.167 289.5,182.833 289.5,184.5C 287.833,184.5 286.167,184.5 284.5,184.5C 284.5,186.167 284.5,187.833 284.5,189.5C 282.833,189.5 281.167,189.5 279.5,189.5C 279.5,191.167 279.5,192.833 279.5,194.5C 277.833,194.5 276.167,194.5 274.5,194.5C 274.5,196.167 274.5,197.833 274.5,199.5C 272.833,199.5 271.167,199.5 269.5,199.5C 269.5,201.167 269.5,202.833 269.5,204.5C 267.833,204.5 266.167,204.5 264.5,204.5C 264.5,206.167 264.5,207.833 264.5,209.5C 262.833,209.5 261.167,209.5 259.5,209.5C 259.5,211.167 259.5,212.833 259.5,214.5C 257.833,214.5 256.167,214.5 254.5,214.5C 254.5,216.167 254.5,217.833 254.5,219.5C 252.833,219.5 251.167,219.5 249.5,219.5C 249.5,221.167 249.5,222.833 249.5,224.5C 247.833,224.5 246.167,224.5 244.5,224.5C 244.5,226.167 244.5,227.833 244.5,229.5C 242.833,229.5 241.167,229.5 239.5,229.5C 239.5,231.167 239.5,232.833 239.5,234.5C 237.833,234.5 236.167,234.5 234.5,234.5C 234.5,236.167 234.5,237.833 234.5,239.5C 232.833,239.5 231.167,239.5 229.5,239.5C 229.5,241.167 229.5,242.833 229.5,244.5C 227.833,244.5 226.167,244.5 224.5,244.5C 224.5,246.167 224.5,247.833 224.5,249.5C 222.833,249.5 221.167,249.5 219.5,249.5C 219.5,251.167 219.5,252.833 219.5,254.5C 217.833,254.5 216.167,254.5 214.5,254.5C 214.5,256.167 214.5,257.833 214.5,259.5C 212.833,259.5 211.167,259.5 209.5,259.5C 209.5,261.167 209.5,262.833 209.5,264.5C 207.833,264.5 206.167,264.5 204.5,264.5C 204.5,266.167 204.5,267.833 204.5,269.5C 202.833,269.5 201.167,269.5 199.5,269.5C 199.5,271.167 199.5,272.833 199.5,274.5C 197.833,274.5 196.167,274.5 194.5,274.5C 194.5,276.167 194.5,277.833 194.5,279.5C 192.833,279.5 191.167,279.5 189.5,279.5C 189.5,281.167 189.5,282.833 189.5,284.5C 187.833,284.5 186.167,284.5 184.5,284.5C 184.923,286.781 184.256,288.448 182.5,289.5C 176.01,283.103 169.01,277.437 161.5,272.5C 161.595,268.947 162.262,265.28 163.5,261.5C 164.167,263.5 164.833,265.5 165.5,267.5C 165.833,266.5 166.167,265.5 166.5,264.5C 166.13,260.148 166.796,255.814 168.5,251.5C 169.167,253.5 169.833,255.5 170.5,257.5C 171.5,252.167 172.5,246.833 173.5,241.5C 174.167,243.5 174.833,245.5 175.5,247.5C 176.788,244.125 177.288,240.791 177,237.5C 178.113,236.289 179.28,236.289 180.5,237.5C 181.5,237.167 182.167,236.5 182.5,235.5C 181.825,232.511 182.158,229.511 183.5,226.5C 184.167,228.5 184.833,230.5 185.5,232.5C 186.5,227.167 187.5,221.833 188.5,216.5C 189.167,218.5 189.833,220.5 190.5,222.5C 191.5,217.167 192.5,211.833 193.5,206.5C 194.167,208.5 194.833,210.5 195.5,212.5C 196.5,207.167 197.5,201.833 198.5,196.5C 199.167,198.5 199.833,200.5 200.5,202.5C 201.5,197.167 202.5,191.833 203.5,186.5C 204.167,188.5 204.833,190.5 205.5,192.5C 206.5,187.167 207.5,181.833 208.5,176.5C 209.167,178.5 209.833,180.5 210.5,182.5C 211.5,177.167 212.5,171.833 213.5,166.5C 214.167,168.5 214.833,170.5 215.5,172.5C 216.788,169.125 217.288,165.791 217,162.5C 218.113,161.289 219.28,161.289 220.5,162.5C 221.5,162.167 222.167,161.5 222.5,160.5C 221.825,157.511 222.158,154.511 223.5,151.5C 224.167,153.5 224.833,155.5 225.5,157.5C 226.5,152.167 227.5,146.833 228.5,141.5C 229.167,143.5 229.833,145.5 230.5,147.5C 231.5,142.167 232.5,136.833 233.5,131.5C 234.167,133.5 234.833,135.5 235.5,137.5C 236.273,135.187 236.94,132.854 237.5,130.5C 235.908,128.775 236.242,127.775 238.5,127.5 Z"/></g>
<g><path style="opacity:1" fill="#ff884b" d="M 300.5,174.5 C 300.833,174.5 301.167,174.5 301.5,174.5C 307.19,180.859 312.523,187.526 317.5,194.5C 316.5,194.5 315.5,194.5 314.5,194.5C 314.5,196.167 314.5,197.833 314.5,199.5C 312.833,199.5 311.167,199.5 309.5,199.5C 309.5,201.167 309.5,202.833 309.5,204.5C 307.833,204.5 306.167,204.5 304.5,204.5C 304.5,206.167 304.5,207.833 304.5,209.5C 301.167,209.5 297.833,209.5 294.5,209.5C 294.5,211.167 294.5,212.833 294.5,214.5C 292.833,214.5 291.167,214.5 289.5,214.5C 289.5,216.167 289.5,217.833 289.5,219.5C 287.833,219.5 286.167,219.5 284.5,219.5C 284.5,221.167 284.5,222.833 284.5,224.5C 282.833,224.5 281.167,224.5 279.5,224.5C 279.5,226.167 279.5,227.833 279.5,229.5C 276.167,229.5 272.833,229.5 269.5,229.5C 269.5,231.167 269.5,232.833 269.5,234.5C 267.833,234.5 266.167,234.5 264.5,234.5C 264.5,236.167 264.5,237.833 264.5,239.5C 262.833,239.5 261.167,239.5 259.5,239.5C 259.5,241.167 259.5,242.833 259.5,244.5C 257.833,244.5 256.167,244.5 254.5,244.5C 254.5,246.167 254.5,247.833 254.5,249.5C 252.833,249.5 251.167,249.5 249.5,249.5C 249.5,251.167 249.5,252.833 249.5,254.5C 246.167,254.5 242.833,254.5 239.5,254.5C 239.5,256.167 239.5,257.833 239.5,259.5C 237.833,259.5 236.167,259.5 234.5,259.5C 234.5,261.167 234.5,262.833 234.5,264.5C 232.833,264.5 231.167,264.5 229.5,264.5C 229.5,266.167 229.5,267.833 229.5,269.5C 227.833,269.5 226.167,269.5 224.5,269.5C 224.5,271.167 224.5,272.833 224.5,274.5C 221.167,274.5 217.833,274.5 214.5,274.5C 214.5,276.167 214.5,277.833 214.5,279.5C 212.833,279.5 211.167,279.5 209.5,279.5C 209.5,281.167 209.5,282.833 209.5,284.5C 207.833,284.5 206.167,284.5 204.5,284.5C 204.5,286.167 204.5,287.833 204.5,289.5C 202.833,289.5 201.167,289.5 199.5,289.5C 199.5,291.167 199.5,292.833 199.5,294.5C 195.498,294.036 191.831,294.702 188.5,296.5C 186.5,294.167 184.5,291.833 182.5,289.5C 184.256,288.448 184.923,286.781 184.5,284.5C 186.167,284.5 187.833,284.5 189.5,284.5C 189.5,282.833 189.5,281.167 189.5,279.5C 191.167,279.5 192.833,279.5 194.5,279.5C 194.5,277.833 194.5,276.167 194.5,274.5C 196.167,274.5 197.833,274.5 199.5,274.5C 199.5,272.833 199.5,271.167 199.5,269.5C 201.167,269.5 202.833,269.5 204.5,269.5C 204.5,267.833 204.5,266.167 204.5,264.5C 206.167,264.5 207.833,264.5 209.5,264.5C 209.5,262.833 209.5,261.167 209.5,259.5C 211.167,259.5 212.833,259.5 214.5,259.5C 214.5,257.833 214.5,256.167 214.5,254.5C 216.167,254.5 217.833,254.5 219.5,254.5C 219.5,252.833 219.5,251.167 219.5,249.5C 221.167,249.5 222.833,249.5 224.5,249.5C 224.5,247.833 224.5,246.167 224.5,244.5C 226.167,244.5 227.833,244.5 229.5,244.5C 229.5,242.833 229.5,241.167 229.5,239.5C 231.167,239.5 232.833,239.5 234.5,239.5C 234.5,237.833 234.5,236.167 234.5,234.5C 236.167,234.5 237.833,234.5 239.5,234.5C 239.5,232.833 239.5,231.167 239.5,229.5C 241.167,229.5 242.833,229.5 244.5,229.5C 244.5,227.833 244.5,226.167 244.5,224.5C 246.167,224.5 247.833,224.5 249.5,224.5C 249.5,222.833 249.5,221.167 249.5,219.5C 251.167,219.5 252.833,219.5 254.5,219.5C 254.5,217.833 254.5,216.167 254.5,214.5C 256.167,214.5 257.833,214.5 259.5,214.5C 259.5,212.833 259.5,211.167 259.5,209.5C 261.167,209.5 262.833,209.5 264.5,209.5C 264.5,207.833 264.5,206.167 264.5,204.5C 266.167,204.5 267.833,204.5 269.5,204.5C 269.5,202.833 269.5,201.167 269.5,199.5C 271.167,199.5 272.833,199.5 274.5,199.5C 274.5,197.833 274.5,196.167 274.5,194.5C 276.167,194.5 277.833,194.5 279.5,194.5C 279.5,192.833 279.5,191.167 279.5,189.5C 281.167,189.5 282.833,189.5 284.5,189.5C 284.5,187.833 284.5,186.167 284.5,184.5C 286.167,184.5 287.833,184.5 289.5,184.5C 289.5,182.833 289.5,181.167 289.5,179.5C 291.167,179.5 292.833,179.5 294.5,179.5C 294.5,177.833 294.5,176.167 294.5,174.5C 296.5,174.5 298.5,174.5 300.5,174.5 Z"/></g>
<g><path style="opacity:1" fill="#ff8549" d="M 317.5,194.5 C 328.226,206.931 337.226,220.597 344.5,235.5C 343.596,236.209 343.263,237.209 343.5,238.5C 332.854,238.671 332.854,239.171 343.5,240C 340.854,240.497 338.187,240.664 335.5,240.5C 335.307,244.449 334.807,244.449 334,240.5C 333.517,241.448 333.351,242.448 333.5,243.5C 322.854,243.671 322.854,244.171 333.5,245C 330.854,245.497 328.187,245.664 325.5,245.5C 325.307,249.449 324.807,249.449 324,245.5C 323.517,246.448 323.351,247.448 323.5,248.5C 312.854,248.671 312.854,249.171 323.5,250C 320.854,250.497 318.187,250.664 315.5,250.5C 315.307,254.449 314.807,254.449 314,250.5C 313.517,251.448 313.351,252.448 313.5,253.5C 302.854,253.671 302.854,254.171 313.5,255C 310.854,255.497 308.187,255.664 305.5,255.5C 305.307,259.449 304.807,259.449 304,255.5C 303.517,256.448 303.351,257.448 303.5,258.5C 292.854,258.671 292.854,259.171 303.5,260C 300.854,260.497 298.187,260.664 295.5,260.5C 295.307,264.449 294.807,264.449 294,260.5C 293.517,261.448 293.351,262.448 293.5,263.5C 289.551,263.693 289.551,264.193 293.5,265C 292.552,265.483 291.552,265.649 290.5,265.5C 290.307,269.449 289.807,269.449 289,265.5C 288.517,266.448 288.351,267.448 288.5,268.5C 277.854,268.671 277.854,269.171 288.5,270C 285.854,270.497 283.187,270.664 280.5,270.5C 280.307,274.449 279.807,274.449 279,270.5C 278.517,271.448 278.351,272.448 278.5,273.5C 267.854,273.671 267.854,274.171 278.5,275C 275.854,275.497 273.187,275.664 270.5,275.5C 270.307,279.449 269.807,279.449 269,275.5C 268.517,276.448 268.351,277.448 268.5,278.5C 257.854,278.671 257.854,279.171 268.5,280C 265.854,280.497 263.187,280.664 260.5,280.5C 260.307,284.449 259.807,284.449 259,280.5C 258.517,281.448 258.351,282.448 258.5,283.5C 247.854,283.671 247.854,284.171 258.5,285C 255.854,285.497 253.187,285.664 250.5,285.5C 250.307,289.449 249.807,289.449 249,285.5C 248.517,286.448 248.351,287.448 248.5,288.5C 237.854,288.671 237.854,289.171 248.5,290C 245.854,290.497 243.187,290.664 240.5,290.5C 240.307,294.449 239.807,294.449 239,290.5C 238.517,291.448 238.351,292.448 238.5,293.5C 227.854,293.671 227.854,294.171 238.5,295C 235.854,295.497 233.187,295.664 230.5,295.5C 230.307,299.449 229.807,299.449 229,295.5C 228.517,296.448 228.351,297.448 228.5,298.5C 217.854,298.671 217.854,299.171 228.5,300C 225.854,300.497 223.187,300.664 220.5,300.5C 220.307,304.449 219.807,304.449 219,300.5C 218.517,301.448 218.351,302.448 218.5,303.5C 214.551,303.693 214.551,304.193 218.5,305C 217.552,305.483 216.552,305.649 215.5,305.5C 215.307,309.449 214.807,309.449 214,305.5C 213.517,306.448 213.351,307.448 213.5,308.5C 202.854,308.671 202.854,309.171 213.5,310C 210.854,310.497 208.187,310.664 205.5,310.5C 205.307,314.449 204.807,314.449 204,310.5C 203.517,311.448 203.351,312.448 203.5,313.5C 202.167,313.5 200.833,313.5 199.5,313.5C 196.227,307.564 192.561,301.897 188.5,296.5C 191.831,294.702 195.498,294.036 199.5,294.5C 199.5,292.833 199.5,291.167 199.5,289.5C 201.167,289.5 202.833,289.5 204.5,289.5C 204.5,287.833 204.5,286.167 204.5,284.5C 206.167,284.5 207.833,284.5 209.5,284.5C 209.5,282.833 209.5,281.167 209.5,279.5C 211.167,279.5 212.833,279.5 214.5,279.5C 214.5,277.833 214.5,276.167 214.5,274.5C 217.833,274.5 221.167,274.5 224.5,274.5C 224.5,272.833 224.5,271.167 224.5,269.5C 226.167,269.5 227.833,269.5 229.5,269.5C 229.5,267.833 229.5,266.167 229.5,264.5C 231.167,264.5 232.833,264.5 234.5,264.5C 234.5,262.833 234.5,261.167 234.5,259.5C 236.167,259.5 237.833,259.5 239.5,259.5C 239.5,257.833 239.5,256.167 239.5,254.5C 242.833,254.5 246.167,254.5 249.5,254.5C 249.5,252.833 249.5,251.167 249.5,249.5C 251.167,249.5 252.833,249.5 254.5,249.5C 254.5,247.833 254.5,246.167 254.5,244.5C 256.167,244.5 257.833,244.5 259.5,244.5C 259.5,242.833 259.5,241.167 259.5,239.5C 261.167,239.5 262.833,239.5 264.5,239.5C 264.5,237.833 264.5,236.167 264.5,234.5C 266.167,234.5 267.833,234.5 269.5,234.5C 269.5,232.833 269.5,231.167 269.5,229.5C 272.833,229.5 276.167,229.5 279.5,229.5C 279.5,227.833 279.5,226.167 279.5,224.5C 281.167,224.5 282.833,224.5 284.5,224.5C 284.5,222.833 284.5,221.167 284.5,219.5C 286.167,219.5 287.833,219.5 289.5,219.5C 289.5,217.833 289.5,216.167 289.5,214.5C 291.167,214.5 292.833,214.5 294.5,214.5C 294.5,212.833 294.5,211.167 294.5,209.5C 297.833,209.5 301.167,209.5 304.5,209.5C 304.5,207.833 304.5,206.167 304.5,204.5C 306.167,204.5 307.833,204.5 309.5,204.5C 309.5,202.833 309.5,201.167 309.5,199.5C 311.167,199.5 312.833,199.5 314.5,199.5C 314.5,197.833 314.5,196.167 314.5,194.5C 315.5,194.5 316.5,194.5 317.5,194.5 Z"/></g>
<g><path style="opacity:0.998" fill="#ffcd9d" d="M 467.5,344.5 C 466.729,352.916 464.729,360.916 461.5,368.5C 462.533,365.308 462.699,362.308 462,359.5C 457.386,356.829 453.552,353.495 450.5,349.5C 449.914,349.709 449.414,350.043 449,350.5C 446.502,348.538 445.502,346.205 446,343.5C 441.386,340.829 437.552,337.495 434.5,333.5C 433.914,333.709 433.414,334.043 433,334.5C 430.502,332.538 429.502,330.205 430,327.5C 425.386,324.829 421.552,321.495 418.5,317.5C 417.914,317.709 417.414,318.043 417,318.5C 414.502,316.538 413.502,314.205 414,311.5C 409.386,308.829 405.552,305.495 402.5,301.5C 401.914,301.709 401.414,302.043 401,302.5C 398.502,300.538 397.502,298.205 398,295.5C 393.386,292.829 389.552,289.495 386.5,285.5C 385.914,285.709 385.414,286.043 385,286.5C 382.502,284.538 381.502,282.205 382,279.5C 377.386,276.829 373.552,273.495 370.5,269.5C 369.914,269.709 369.414,270.043 369,270.5C 366.502,268.538 365.502,266.205 366,263.5C 363.861,261.965 361.861,260.299 360,258.5C 359.667,258.833 359.333,259.167 359,259.5C 357.691,256.949 355.857,254.949 353.5,253.5C 350.877,247.29 347.877,241.29 344.5,235.5C 337.226,220.597 328.226,206.931 317.5,194.5C 312.523,187.526 307.19,180.859 301.5,174.5C 302.239,174.631 302.906,174.464 303.5,174C 302.304,173.346 302.304,172.846 303.5,172.5C 304.95,173.85 305.617,175.516 305.5,177.5C 306.5,177.5 307.5,177.5 308.5,177.5C 308.351,178.552 308.517,179.552 309,180.5C 309.667,181.833 310.333,181.833 311,180.5C 311.948,182.57 313.448,184.07 315.5,185C 315.167,185.333 314.833,185.667 314.5,186C 315.667,186.5 316.5,187.333 317,188.5C 317.333,188.167 317.667,187.833 318,187.5C 319.635,189.667 321.468,190.834 323.5,191C 322.833,191.667 322.167,192.333 321.5,193C 323.246,193.471 324.913,194.138 326.5,195C 325.833,195.333 325.167,195.667 324.5,196C 325.253,197.487 326.086,197.654 327,196.5C 327.948,198.57 329.448,200.07 331.5,201C 331.167,201.333 330.833,201.667 330.5,202C 331.667,202.5 332.5,203.333 333,204.5C 333.333,204.167 333.667,203.833 334,203.5C 335.635,205.667 337.468,206.834 339.5,207C 338.833,207.667 338.167,208.333 337.5,209C 339.246,209.471 340.913,210.138 342.5,211C 341.833,211.333 341.167,211.667 340.5,212C 341.253,213.487 342.086,213.654 343,212.5C 343.948,214.57 345.448,216.07 347.5,217C 347.167,217.333 346.833,217.667 346.5,218C 347.667,218.5 348.5,219.333 349,220.5C 349.333,220.167 349.667,219.833 350,219.5C 351.635,221.667 353.468,222.834 355.5,223C 354.833,223.667 354.167,224.333 353.5,225C 355.246,225.471 356.913,226.138 358.5,227C 357.833,227.333 357.167,227.667 356.5,228C 357.253,229.487 358.086,229.654 359,228.5C 359.948,230.57 361.448,232.07 363.5,233C 363.167,233.333 362.833,233.667 362.5,234C 363.667,234.5 364.5,235.333 365,236.5C 365.333,236.167 365.667,235.833 366,235.5C 367.635,237.667 369.468,238.834 371.5,239C 370.833,239.667 370.167,240.333 369.5,241C 371.246,241.471 372.913,242.138 374.5,243C 373.833,243.333 373.167,243.667 372.5,244C 373.253,245.487 374.086,245.654 375,244.5C 375.948,246.57 377.448,248.07 379.5,249C 379.167,249.333 378.833,249.667 378.5,250C 379.667,250.5 380.5,251.333 381,252.5C 381.333,252.167 381.667,251.833 382,251.5C 383.635,253.667 385.468,254.834 387.5,255C 386.833,255.667 386.167,256.333 385.5,257C 387.246,257.471 388.913,258.138 390.5,259C 389.833,259.333 389.167,259.667 388.5,260C 389.253,261.487 390.086,261.654 391,260.5C 391.948,262.57 393.448,264.07 395.5,265C 395.167,265.333 394.833,265.667 394.5,266C 395.667,266.5 396.5,267.333 397,268.5C 397.333,268.167 397.667,267.833 398,267.5C 399.635,269.667 401.468,270.834 403.5,271C 402.833,271.667 402.167,272.333 401.5,273C 403.246,273.471 404.913,274.138 406.5,275C 405.833,275.333 405.167,275.667 404.5,276C 405.253,277.487 406.086,277.654 407,276.5C 407.948,278.57 409.448,280.07 411.5,281C 411.167,281.333 410.833,281.667 410.5,282C 411.667,282.5 412.5,283.333 413,284.5C 413.333,284.167 413.667,283.833 414,283.5C 415.635,285.667 417.468,286.834 419.5,287C 418.833,287.667 418.167,288.333 417.5,289C 419.246,289.471 420.913,290.138 422.5,291C 421.833,291.333 421.167,291.667 420.5,292C 421.253,293.487 422.086,293.654 423,292.5C 423.948,294.57 425.448,296.07 427.5,297C 427.167,297.333 426.833,297.667 426.5,298C 427.667,298.5 428.5,299.333 429,300.5C 429.333,300.167 429.667,299.833 430,299.5C 431.635,301.667 433.468,302.834 435.5,303C 434.833,303.667 434.167,304.333 433.5,305C 435.246,305.471 436.913,306.138 438.5,307C 437.833,307.333 437.167,307.667 436.5,308C 437.253,309.487 438.086,309.654 439,308.5C 439.948,310.57 441.448,312.07 443.5,313C 443.167,313.333 442.833,313.667 442.5,314C 443.667,314.5 444.5,315.333 445,316.5C 445.333,316.167 445.667,315.833 446,315.5C 447.635,317.667 449.468,318.834 451.5,319C 450.833,319.667 450.167,320.333 449.5,321C 451.246,321.471 452.913,322.138 454.5,323C 453.833,323.333 453.167,323.667 452.5,324C 453.253,325.487 454.086,325.654 455,324.5C 457.847,327.051 459.847,329.718 461,332.5C 461.333,332.167 461.667,331.833 462,331.5C 465.683,333.48 465.85,334.98 462.5,336C 463.667,337.833 465.167,339.333 467,340.5C 467.49,341.793 467.657,343.127 467.5,344.5 Z"/></g>
<g><path style="opacity:1" fill="#ff8046" d="M 344.5,235.5 C 347.877,241.29 350.877,247.29 353.5,253.5C 359.981,268.278 364.648,283.611 367.5,299.5C 366.5,299.5 365.5,299.5 364.5,299.5C 364.5,301.167 364.5,302.833 364.5,304.5C 356.167,304.5 347.833,304.5 339.5,304.5C 339.5,306.167 339.5,307.833 339.5,309.5C 332.833,309.5 326.167,309.5 319.5,309.5C 319.5,311.167 319.5,312.833 319.5,314.5C 312.833,314.5 306.167,314.5 299.5,314.5C 299.5,316.167 299.5,317.833 299.5,319.5C 291.167,319.5 282.833,319.5 274.5,319.5C 274.5,321.167 274.5,322.833 274.5,324.5C 267.833,324.5 261.167,324.5 254.5,324.5C 254.5,326.167 254.5,327.833 254.5,329.5C 247.833,329.5 241.167,329.5 234.5,329.5C 234.5,331.167 234.5,332.833 234.5,334.5C 226.167,334.5 217.833,334.5 209.5,334.5C 209.784,336.415 209.451,338.081 208.5,339.5C 206.298,330.56 203.298,321.894 199.5,313.5C 200.833,313.5 202.167,313.5 203.5,313.5C 203.351,312.448 203.517,311.448 204,310.5C 204.807,314.449 205.307,314.449 205.5,310.5C 208.187,310.664 210.854,310.497 213.5,310C 202.854,309.171 202.854,308.671 213.5,308.5C 213.351,307.448 213.517,306.448 214,305.5C 214.807,309.449 215.307,309.449 215.5,305.5C 216.552,305.649 217.552,305.483 218.5,305C 214.551,304.193 214.551,303.693 218.5,303.5C 218.351,302.448 218.517,301.448 219,300.5C 219.807,304.449 220.307,304.449 220.5,300.5C 223.187,300.664 225.854,300.497 228.5,300C 217.854,299.171 217.854,298.671 228.5,298.5C 228.351,297.448 228.517,296.448 229,295.5C 229.807,299.449 230.307,299.449 230.5,295.5C 233.187,295.664 235.854,295.497 238.5,295C 227.854,294.171 227.854,293.671 238.5,293.5C 238.351,292.448 238.517,291.448 239,290.5C 239.807,294.449 240.307,294.449 240.5,290.5C 243.187,290.664 245.854,290.497 248.5,290C 237.854,289.171 237.854,288.671 248.5,288.5C 248.351,287.448 248.517,286.448 249,285.5C 249.807,289.449 250.307,289.449 250.5,285.5C 253.187,285.664 255.854,285.497 258.5,285C 247.854,284.171 247.854,283.671 258.5,283.5C 258.351,282.448 258.517,281.448 259,280.5C 259.807,284.449 260.307,284.449 260.5,280.5C 263.187,280.664 265.854,280.497 268.5,280C 257.854,279.171 257.854,278.671 268.5,278.5C 268.351,277.448 268.517,276.448 269,275.5C 269.807,279.449 270.307,279.449 270.5,275.5C 273.187,275.664 275.854,275.497 278.5,275C 267.854,274.171 267.854,273.671 278.5,273.5C 278.351,272.448 278.517,271.448 279,270.5C 279.807,274.449 280.307,274.449 280.5,270.5C 283.187,270.664 285.854,270.497 288.5,270C 277.854,269.171 277.854,268.671 288.5,268.5C 288.351,267.448 288.517,266.448 289,265.5C 289.807,269.449 290.307,269.449 290.5,265.5C 291.552,265.649 292.552,265.483 293.5,265C 289.551,264.193 289.551,263.693 293.5,263.5C 293.351,262.448 293.517,261.448 294,260.5C 294.807,264.449 295.307,264.449 295.5,260.5C 298.187,260.664 300.854,260.497 303.5,260C 292.854,259.171 292.854,258.671 303.5,258.5C 303.351,257.448 303.517,256.448 304,255.5C 304.807,259.449 305.307,259.449 305.5,255.5C 308.187,255.664 310.854,255.497 313.5,255C 302.854,254.171 302.854,253.671 313.5,253.5C 313.351,252.448 313.517,251.448 314,250.5C 314.807,254.449 315.307,254.449 315.5,250.5C 318.187,250.664 320.854,250.497 323.5,250C 312.854,249.171 312.854,248.671 323.5,248.5C 323.351,247.448 323.517,246.448 324,245.5C 324.807,249.449 325.307,249.449 325.5,245.5C 328.187,245.664 330.854,245.497 333.5,245C 322.854,244.171 322.854,243.671 333.5,243.5C 333.351,242.448 333.517,241.448 334,240.5C 334.807,244.449 335.307,244.449 335.5,240.5C 338.187,240.664 340.854,240.497 343.5,240C 332.854,239.171 332.854,238.671 343.5,238.5C 343.263,237.209 343.596,236.209 344.5,235.5 Z"/></g>
<g><path style="opacity:0.997" fill="#ffca99" d="M 353.5,253.5 C 355.857,254.949 357.691,256.949 359,259.5C 359.333,259.167 359.667,258.833 360,258.5C 361.861,260.299 363.861,261.965 366,263.5C 365.502,266.205 366.502,268.538 369,270.5C 369.414,270.043 369.914,269.709 370.5,269.5C 373.552,273.495 377.386,276.829 382,279.5C 381.502,282.205 382.502,284.538 385,286.5C 385.414,286.043 385.914,285.709 386.5,285.5C 389.552,289.495 393.386,292.829 398,295.5C 397.502,298.205 398.502,300.538 401,302.5C 401.414,302.043 401.914,301.709 402.5,301.5C 405.552,305.495 409.386,308.829 414,311.5C 413.502,314.205 414.502,316.538 417,318.5C 417.414,318.043 417.914,317.709 418.5,317.5C 421.552,321.495 425.386,324.829 430,327.5C 429.502,330.205 430.502,332.538 433,334.5C 433.414,334.043 433.914,333.709 434.5,333.5C 437.552,337.495 441.386,340.829 446,343.5C 445.502,346.205 446.502,348.538 449,350.5C 449.414,350.043 449.914,349.709 450.5,349.5C 453.552,353.495 457.386,356.829 462,359.5C 462.699,362.308 462.533,365.308 461.5,368.5C 454.093,391.671 441.426,411.338 423.5,427.5C 424.389,425.264 425.722,423.264 427.5,421.5C 426.066,420.77 424.9,419.77 424,418.5C 423.581,419.672 422.915,420.672 422,421.5C 421.383,420.551 421.549,419.718 422.5,419C 419.833,418.333 419.833,417.667 422.5,417C 420.697,416.363 419.364,415.197 418.5,413.5C 417.914,413.709 417.414,414.043 417,414.5C 415.274,412.772 413.941,410.772 413,408.5C 412.577,409.956 411.744,410.456 410.5,410C 412.014,408.561 412.347,407.061 411.5,405.5C 410.066,404.77 408.9,403.77 408,402.5C 407.581,403.672 406.915,404.672 406,405.5C 405.383,404.551 405.549,403.718 406.5,403C 403.833,402.333 403.833,401.667 406.5,401C 404.697,400.363 403.364,399.197 402.5,397.5C 401.914,397.709 401.414,398.043 401,398.5C 399.274,396.772 397.941,394.772 397,392.5C 396.577,393.956 395.744,394.456 394.5,394C 396.014,392.561 396.347,391.061 395.5,389.5C 394.066,388.77 392.9,387.77 392,386.5C 391.581,387.672 390.915,388.672 390,389.5C 389.383,388.551 389.549,387.718 390.5,387C 387.833,386.333 387.833,385.667 390.5,385C 388.697,384.363 387.364,383.197 386.5,381.5C 385.914,381.709 385.414,382.043 385,382.5C 383.274,380.772 381.941,378.772 381,376.5C 380.577,377.956 379.744,378.456 378.5,378C 379.167,377 379.833,376 380.5,375C 379.062,373.431 377.562,371.931 376,370.5C 375.667,371.167 375.333,371.833 375,372.5C 374.601,372.272 374.435,371.938 374.5,371.5C 375.08,354.041 374.08,336.707 371.5,319.5C 371.297,312.486 369.964,305.82 367.5,299.5C 364.648,283.611 359.981,268.278 353.5,253.5 Z"/></g>
<g><path style="opacity:1" fill="#ff2900" d="M 102.5,259.5 C 112.914,259.154 123.248,259.821 133.5,261.5C 138.745,263.135 144.078,264.802 149.5,266.5C 153.213,269.023 157.213,271.023 161.5,272.5C 169.01,277.437 176.01,283.103 182.5,289.5C 184.5,291.833 186.5,294.167 188.5,296.5C 192.561,301.897 196.227,307.564 199.5,313.5C 203.298,321.894 206.298,330.56 208.5,339.5C 208.216,341.415 208.549,343.081 209.5,344.5C 209.629,354.521 209.296,364.521 208.5,374.5C 207.566,375.568 207.232,376.901 207.5,378.5C 202.501,397.826 192.834,414.493 178.5,428.5C 164.225,440.817 147.892,449.151 129.5,453.5C 104.355,457.376 81.0221,452.709 59.5,439.5C 47.1879,431.188 36.8545,420.855 28.5,408.5C 16.3851,387.027 12.0517,364.027 15.5,339.5C 19.4452,320.273 28.1119,303.606 41.5,289.5C 57.0347,273.232 76.0347,263.565 98.5,260.5C 99.8333,260.167 101.167,259.833 102.5,259.5 Z"/></g>
<g><path style="opacity:0.996" fill="#ff9956" d="M -0.5,249.5 C 1.16667,249.5 2.83333,249.5 4.5,249.5C 4.5,251.167 4.5,252.833 4.5,254.5C 6.16667,254.5 7.83333,254.5 9.5,254.5C 9.5,256.167 9.5,257.833 9.5,259.5C 11.1667,259.5 12.8333,259.5 14.5,259.5C 14.5,261.167 14.5,262.833 14.5,264.5C 16.1667,264.5 17.8333,264.5 19.5,264.5C 19.5,266.167 19.5,267.833 19.5,269.5C 21.1667,269.5 22.8333,269.5 24.5,269.5C 24.5,271.167 24.5,272.833 24.5,274.5C 26.1667,274.5 27.8333,274.5 29.5,274.5C 29.5,276.167 29.5,277.833 29.5,279.5C 31.1667,279.5 32.8333,279.5 34.5,279.5C 34.5,281.167 34.5,282.833 34.5,284.5C 36.1667,284.5 37.8333,284.5 39.5,284.5C 39.0773,286.781 39.744,288.448 41.5,289.5C 28.1119,303.606 19.4452,320.273 15.5,339.5C 10.5,339.5 5.5,339.5 0.5,339.5C 0.737305,338.209 0.403972,337.209 -0.5,336.5C -0.5,307.5 -0.5,278.5 -0.5,249.5 Z"/></g>
<g><path style="opacity:1" fill="#ff7d44" d="M 367.5,299.5 C 369.964,305.82 371.297,312.486 371.5,319.5C 369.167,319.5 366.833,319.5 364.5,319.5C 364.5,321.167 364.5,322.833 364.5,324.5C 354.5,324.5 344.5,324.5 334.5,324.5C 334.5,326.167 334.5,327.833 334.5,329.5C 322.833,329.5 311.167,329.5 299.5,329.5C 299.5,331.167 299.5,332.833 299.5,334.5C 287.833,334.5 276.167,334.5 264.5,334.5C 264.5,336.167 264.5,337.833 264.5,339.5C 254.5,339.5 244.5,339.5 234.5,339.5C 234.5,341.167 234.5,342.833 234.5,344.5C 226.167,344.5 217.833,344.5 209.5,344.5C 208.549,343.081 208.216,341.415 208.5,339.5C 209.451,338.081 209.784,336.415 209.5,334.5C 217.833,334.5 226.167,334.5 234.5,334.5C 234.5,332.833 234.5,331.167 234.5,329.5C 241.167,329.5 247.833,329.5 254.5,329.5C 254.5,327.833 254.5,326.167 254.5,324.5C 261.167,324.5 267.833,324.5 274.5,324.5C 274.5,322.833 274.5,321.167 274.5,319.5C 282.833,319.5 291.167,319.5 299.5,319.5C 299.5,317.833 299.5,316.167 299.5,314.5C 306.167,314.5 312.833,314.5 319.5,314.5C 319.5,312.833 319.5,311.167 319.5,309.5C 326.167,309.5 332.833,309.5 339.5,309.5C 339.5,307.833 339.5,306.167 339.5,304.5C 347.833,304.5 356.167,304.5 364.5,304.5C 364.5,302.833 364.5,301.167 364.5,299.5C 365.5,299.5 366.5,299.5 367.5,299.5 Z"/></g>
<g><path style="opacity:1" fill="#ff7941" d="M 371.5,319.5 C 374.08,336.707 375.08,354.041 374.5,371.5C 373.656,379.048 372.656,386.714 371.5,394.5C 362.5,394.5 353.5,394.5 344.5,394.5C 344.5,392.833 344.5,391.167 344.5,389.5C 332.833,389.5 321.167,389.5 309.5,389.5C 309.5,387.833 309.5,386.167 309.5,384.5C 297.833,384.5 286.167,384.5 274.5,384.5C 274.5,382.833 274.5,381.167 274.5,379.5C 262.833,379.5 251.167,379.5 239.5,379.5C 239.5,377.833 239.5,376.167 239.5,374.5C 229.167,374.5 218.833,374.5 208.5,374.5C 209.296,364.521 209.629,354.521 209.5,344.5C 217.833,344.5 226.167,344.5 234.5,344.5C 234.5,342.833 234.5,341.167 234.5,339.5C 244.5,339.5 254.5,339.5 264.5,339.5C 264.5,337.833 264.5,336.167 264.5,334.5C 276.167,334.5 287.833,334.5 299.5,334.5C 299.5,332.833 299.5,331.167 299.5,329.5C 311.167,329.5 322.833,329.5 334.5,329.5C 334.5,327.833 334.5,326.167 334.5,324.5C 344.5,324.5 354.5,324.5 364.5,324.5C 364.5,322.833 364.5,321.167 364.5,319.5C 366.833,319.5 369.167,319.5 371.5,319.5 Z"/></g>
<g><path style="opacity:0.981" fill="#ff9352" d="M 0.5,339.5 C 5.5,339.5 10.5,339.5 15.5,339.5C 12.0517,364.027 16.3851,387.027 28.5,408.5C 12.9414,388.187 3.60807,365.187 0.5,339.5 Z"/></g>
<g><path style="opacity:1" fill="#ff753f" d="M 208.5,374.5 C 218.833,374.5 229.167,374.5 239.5,374.5C 239.5,376.167 239.5,377.833 239.5,379.5C 251.167,379.5 262.833,379.5 274.5,379.5C 274.5,381.167 274.5,382.833 274.5,384.5C 286.167,384.5 297.833,384.5 309.5,384.5C 309.5,386.167 309.5,387.833 309.5,389.5C 321.167,389.5 332.833,389.5 344.5,389.5C 344.5,391.167 344.5,392.833 344.5,394.5C 353.5,394.5 362.5,394.5 371.5,394.5C 370.366,402.975 368.7,411.308 366.5,419.5C 364.744,418.448 364.077,416.781 364.5,414.5C 357.833,414.5 351.167,414.5 344.5,414.5C 344.5,412.833 344.5,411.167 344.5,409.5C 336.167,409.5 327.833,409.5 319.5,409.5C 319.5,407.833 319.5,406.167 319.5,404.5C 312.833,404.5 306.167,404.5 299.5,404.5C 299.5,402.833 299.5,401.167 299.5,399.5C 292.833,399.5 286.167,399.5 279.5,399.5C 279.5,397.833 279.5,396.167 279.5,394.5C 271.167,394.5 262.833,394.5 254.5,394.5C 254.5,392.833 254.5,391.167 254.5,389.5C 247.833,389.5 241.167,389.5 234.5,389.5C 234.5,387.833 234.5,386.167 234.5,384.5C 227.833,384.5 221.167,384.5 214.5,384.5C 214.5,382.833 214.5,381.167 214.5,379.5C 211.941,379.802 209.607,379.468 207.5,378.5C 207.232,376.901 207.566,375.568 208.5,374.5 Z"/></g>
<g><path style="opacity:0.999" fill="#ff733d" d="M 207.5,378.5 C 209.607,379.468 211.941,379.802 214.5,379.5C 214.5,381.167 214.5,382.833 214.5,384.5C 221.167,384.5 227.833,384.5 234.5,384.5C 234.5,386.167 234.5,387.833 234.5,389.5C 241.167,389.5 247.833,389.5 254.5,389.5C 254.5,391.167 254.5,392.833 254.5,394.5C 262.833,394.5 271.167,394.5 279.5,394.5C 279.5,396.167 279.5,397.833 279.5,399.5C 286.167,399.5 292.833,399.5 299.5,399.5C 299.5,401.167 299.5,402.833 299.5,404.5C 306.167,404.5 312.833,404.5 319.5,404.5C 319.5,406.167 319.5,407.833 319.5,409.5C 327.833,409.5 336.167,409.5 344.5,409.5C 344.5,411.167 344.5,412.833 344.5,414.5C 351.167,414.5 357.833,414.5 364.5,414.5C 364.077,416.781 364.744,418.448 366.5,419.5C 362.756,435.733 357.422,451.4 350.5,466.5C 345.769,467.666 341.103,468.666 336.5,469.5C 297.5,469.5 258.5,469.5 219.5,469.5C 219.5,467.833 219.5,466.167 219.5,464.5C 217.833,464.5 216.167,464.5 214.5,464.5C 214.5,462.833 214.5,461.167 214.5,459.5C 212.833,459.5 211.167,459.5 209.5,459.5C 209.5,457.833 209.5,456.167 209.5,454.5C 207.833,454.5 206.167,454.5 204.5,454.5C 204.5,452.833 204.5,451.167 204.5,449.5C 202.833,449.5 201.167,449.5 199.5,449.5C 199.5,447.833 199.5,446.167 199.5,444.5C 197.833,444.5 196.167,444.5 194.5,444.5C 194.5,442.833 194.5,441.167 194.5,439.5C 192.833,439.5 191.167,439.5 189.5,439.5C 189.5,437.833 189.5,436.167 189.5,434.5C 187.833,434.5 186.167,434.5 184.5,434.5C 184.5,432.833 184.5,431.167 184.5,429.5C 182.379,429.675 180.379,429.341 178.5,428.5C 192.834,414.493 202.501,397.826 207.5,378.5 Z"/></g>
<g><path style="opacity:0.99" fill="#ffc493" d="M 423.5,427.5 C 403.388,448.061 379.055,461.061 350.5,466.5C 357.422,451.4 362.756,435.733 366.5,419.5C 368.7,411.308 370.366,402.975 371.5,394.5C 372.656,386.714 373.656,379.048 374.5,371.5C 374.435,371.938 374.601,372.272 375,372.5C 375.333,371.833 375.667,371.167 376,370.5C 377.562,371.931 379.062,373.431 380.5,375C 379.833,376 379.167,377 378.5,378C 379.744,378.456 380.577,377.956 381,376.5C 381.941,378.772 383.274,380.772 385,382.5C 385.414,382.043 385.914,381.709 386.5,381.5C 387.364,383.197 388.697,384.363 390.5,385C 387.833,385.667 387.833,386.333 390.5,387C 389.549,387.718 389.383,388.551 390,389.5C 390.915,388.672 391.581,387.672 392,386.5C 392.9,387.77 394.066,388.77 395.5,389.5C 396.347,391.061 396.014,392.561 394.5,394C 395.744,394.456 396.577,393.956 397,392.5C 397.941,394.772 399.274,396.772 401,398.5C 401.414,398.043 401.914,397.709 402.5,397.5C 403.364,399.197 404.697,400.363 406.5,401C 403.833,401.667 403.833,402.333 406.5,403C 405.549,403.718 405.383,404.551 406,405.5C 406.915,404.672 407.581,403.672 408,402.5C 408.9,403.77 410.066,404.77 411.5,405.5C 412.347,407.061 412.014,408.561 410.5,410C 411.744,410.456 412.577,409.956 413,408.5C 413.941,410.772 415.274,412.772 417,414.5C 417.414,414.043 417.914,413.709 418.5,413.5C 419.364,415.197 420.697,416.363 422.5,417C 419.833,417.667 419.833,418.333 422.5,419C 421.549,419.718 421.383,420.551 422,421.5C 422.915,420.672 423.581,419.672 424,418.5C 424.9,419.77 426.066,420.77 427.5,421.5C 425.722,423.264 424.389,425.264 423.5,427.5 Z"/></g>
<g><path style="opacity:1" fill="#ff7941" d="M 178.5,428.5 C 180.379,429.341 182.379,429.675 184.5,429.5C 184.5,431.167 184.5,432.833 184.5,434.5C 186.167,434.5 187.833,434.5 189.5,434.5C 189.5,436.167 189.5,437.833 189.5,439.5C 191.167,439.5 192.833,439.5 194.5,439.5C 194.5,441.167 194.5,442.833 194.5,444.5C 196.167,444.5 197.833,444.5 199.5,444.5C 199.5,446.167 199.5,447.833 199.5,449.5C 201.167,449.5 202.833,449.5 204.5,449.5C 204.5,451.167 204.5,452.833 204.5,454.5C 206.167,454.5 207.833,454.5 209.5,454.5C 209.5,456.167 209.5,457.833 209.5,459.5C 211.167,459.5 212.833,459.5 214.5,459.5C 214.5,461.167 214.5,462.833 214.5,464.5C 216.167,464.5 217.833,464.5 219.5,464.5C 219.5,466.167 219.5,467.833 219.5,469.5C 193.167,469.5 166.833,469.5 140.5,469.5C 138.735,468.539 136.735,468.205 134.5,468.5C 134.5,465.5 134.5,462.5 134.5,459.5C 132.833,459.5 131.167,459.5 129.5,459.5C 129.5,457.5 129.5,455.5 129.5,453.5C 147.892,449.151 164.225,440.817 178.5,428.5 Z"/></g>
<g><path style="opacity:0.961" fill="#ff8146" d="M 59.5,439.5 C 81.0221,452.709 104.355,457.376 129.5,453.5C 129.5,455.5 129.5,457.5 129.5,459.5C 131.167,459.5 132.833,459.5 134.5,459.5C 134.5,462.5 134.5,465.5 134.5,468.5C 136.735,468.205 138.735,468.539 140.5,469.5C 137.833,469.5 135.167,469.5 132.5,469.5C 110.447,466.648 89.7808,459.481 70.5,448C 66.4031,445.63 62.7365,442.797 59.5,439.5 Z"/></g>
</svg>
