<?xml version="1.0" encoding="UTF-8"?>
<svg width="240px" height="240px" viewBox="0 0 240 240" version="1.1" xmlns="http://www.w3.org/2000/svg" xmlns:xlink="http://www.w3.org/1999/xlink">
    <title>runway</title>
    <g id="Page-1" stroke="none" stroke-width="1" fill="none" fill-rule="evenodd">
        <g id="runway">
            <rect id="box" fill="#FFFFFF" x="0" y="0" width="240" height="240" rx="32"></rect>
            <path d="M158.889426,192.90963 C141.176918,194.535101 126.45742,173.828579 115.109204,163.359213 C109.368732,204.632931 47,200.771606 47,158.860968 L47,81.1700439 C47,75.0595963 48.6192776,68.8230917 51.8644691,63.5884086 C57.850487,53.4839442 69.4508854,46.8692686 81.1773751,47.0019602 L158.889426,47.0019602 C200.804824,47.0019602 204.799927,109.353737 163.382258,114.959957 L183.092317,134.5386 C204.673836,154.866951 188.454515,193.778759 158.896062,192.902995 L158.889426,192.90963 Z M148.923094,167.933776 C161.09892,180.479768 180.479768,161.09892 167.933776,148.923094 L134.010682,115 L115,115 L115,134.010682 L144.322456,163.333138 L148.923094,167.933776 L148.923094,167.933776 Z M68.1285941,158.943947 C67.8837528,176.352018 95.3721483,176.352018 94.9949604,158.943947 L94.9949604,81.4939055 C95.246419,72.7898701 86.0417107,65.9509851 77.7104902,68.5635186 C77.3333023,68.6891847 76.9627318,68.8082369 76.7178905,68.933903 C71.4901986,70.9247196 67.8837528,76.1431725 68.0028648,81.7386238 L68.0028648,158.943947 L68.1352114,158.943947 L68.1285941,158.943947 Z M158.982676,94.9983587 C176.339108,95.2443871 176.339108,67.7490532 158.982676,68.001731 L113,68.001731 C116.468649,75.375933 115.604784,86.9991116 115.723483,94.9983587 L158.982676,94.9983587 Z" id="Shape" fill="#000000"></path>
        </g>
    </g>
</svg>