<?xml version="1.0" encoding="UTF-8"?>
<svg width="240px" height="240px" viewBox="0 0 240 240" version="1.1" xmlns="http://www.w3.org/2000/svg" xmlns:xlink="http://www.w3.org/1999/xlink">
    <title>rust</title>
    <g id="Page-1" stroke="none" stroke-width="1" fill="none" fill-rule="evenodd">
        <g id="rust" transform="translate(0, -0.3737)" fill="#FFFFFF" fill-rule="nonzero">
            <path d="M238.512196,117.444605 L228.286894,111.117716 C228.193084,110.180399 228.146179,109.289948 228.005464,108.352631 L236.776709,100.151108 C237.667905,99.3543884 238.043145,98.1358764 237.80862,96.9642302 C237.574095,95.7925841 236.776709,94.8084013 235.650988,94.4334745 L224.393775,90.2155483 C224.15925,89.3250972 223.877819,88.4346462 223.596389,87.5910609 L230.632147,77.8429648 C231.335723,76.8587821 231.476438,75.5934042 231.007387,74.5154897 C230.538337,73.3907094 229.553331,72.6408559 228.380704,72.4533925 L216.466821,70.5318928 L215.200385,68.1417346 L220.219225,57.1751265 C220.735181,56.0972121 220.594466,54.8318342 219.937795,53.8476514 C219.281124,52.8634687 218.155403,52.3010785 216.935871,52.3010785 L204.834368,52.7228711 C204.271507,52.0198834 203.708646,51.3168957 203.145786,50.6607739 L205.913184,38.8505805 C206.194614,37.6789344 205.819374,36.4604224 204.975083,35.6168371 C204.130792,34.7732519 202.911261,34.445191 201.738634,34.6795202 L189.965466,37.3508735 C189.26189,36.7884833 188.605219,36.2260931 187.901644,35.663703 L188.323789,23.5723146 C188.370694,22.4006684 187.807833,21.2290223 186.775922,20.5729004 C185.790916,19.9167786 184.52448,19.8230469 183.445663,20.2917053 L172.469881,25.3063509 L170.077723,24.040973 L168.154616,12.137048 C167.966996,10.9654019 167.16961,9.98121909 166.090794,9.51256063 C165.011977,9.04390216 163.745541,9.1844997 162.760535,9.8874874 L153.004284,16.9173644 C152.113088,16.6361693 151.221892,16.4018401 150.377601,16.120645 L146.156146,4.87284182 C145.734001,3.74806151 144.748994,2.95134212 143.623273,2.71701288 C142.450647,2.48268365 141.231115,2.85761042 140.43373,3.74806151 L132.225345,12.5119748 C131.334149,12.4182431 130.396048,12.3245114 129.457947,12.2307797 L122.98505,2.01402519 C122.375284,0.982976563 121.249563,0.373720558 120.076936,0.373720558 C118.90431,0.373720558 117.778589,0.982976563 117.168823,2.01402519 L110.836641,12.2307797 C109.89854,12.3245114 109.007344,12.3713773 108.069243,12.5119748 L99.8608585,3.70119566 C99.0634726,2.81074458 97.8439412,2.43581781 96.6713148,2.67014704 C95.4986885,2.90447627 94.5136824,3.70119566 94.138442,4.82597598 L89.9169872,16.0737791 C89.0257912,16.3081084 88.1345951,16.5893035 87.2433991,16.8704985 L77.487148,9.84062155 C76.5021419,9.13763386 75.2357055,8.99703632 74.1568893,9.46569478 C73.031168,9.93435325 72.2806871,10.918536 72.0930669,12.0901822 L70.1699597,23.9941072 C69.3725738,24.4158998 68.5282829,24.8376924 67.730897,25.2594851 L56.7551145,20.2448395 C55.6762983,19.7293152 54.4098618,19.8699127 53.4248557,20.5260346 C52.4398496,21.1821564 51.8300839,22.3069367 51.8769889,23.5254487 L52.2991344,35.6168371 C51.5955586,36.1792273 50.8919828,36.7416175 50.2353121,37.3040076 L38.3683336,34.5857885 C37.1957073,34.3045934 35.9761759,34.6795202 35.1318849,35.5231054 C34.287594,36.3666907 33.9592586,37.5852027 34.1937839,38.7568489 L36.961182,50.5201763 C36.3983214,51.223164 35.8354607,51.8792859 35.2726001,52.5822736 L23.1710963,52.160481 C21.9515649,52.160481 20.8258437,52.6760053 20.1691729,53.7070539 C19.5125022,54.6912367 19.4186921,55.9566145 19.8877426,57.034529 L24.9065833,68.0011371 C24.4844378,68.7978565 24.0622923,69.5945759 23.6401469,70.4381611 L11.7262633,72.3596608 C10.553637,72.5471242 9.56863087,73.3438436 9.09958034,74.4217581 C8.63052981,75.4996725 8.77124497,76.7650504 9.47482077,77.7492332 L16.5105788,87.4973292 C16.2291484,88.3877803 15.9946232,89.2782314 15.7131929,90.1686825 L4.45598006,94.3866087 C3.33025878,94.8084013 2.53287288,95.7925841 2.29834761,96.9173644 C2.06382235,98.0890105 2.43906277,99.3075226 3.33025878,100.104242 L12.1015038,108.305765 C12.0076936,109.196216 11.9138835,110.133533 11.8200734,111.07085 L1.64167687,117.444605 C0.609765693,118.053861 0,119.178641 0,120.350288 C0,121.521934 0.609765693,122.646714 1.64167687,123.25597 L11.8669785,129.582859 C11.9607886,130.520176 12.0076936,131.410627 12.1484088,132.347944 L3.33025878,140.549467 C2.43906277,141.346187 2.06382235,142.564699 2.29834761,143.736345 C2.53287288,144.907991 3.33025878,145.892174 4.45598006,146.267101 L15.7131929,150.485027 C15.9477181,151.375478 16.2291484,152.265929 16.5105788,153.109514 L9.47482077,162.85761 C8.77124497,163.841793 8.63052981,165.107171 9.09958034,166.185086 C9.56863087,167.263 10.553637,168.059719 11.7262633,168.247183 L23.6401469,170.168682 L24.9065833,172.558841 L19.8877426,183.525449 C19.371787,184.603363 19.5125022,185.868741 20.1691729,186.852924 C20.8258437,187.837107 21.9046599,188.446363 23.1710963,188.399497 L35.2726001,187.977704 C35.8354607,188.680692 36.3983214,189.38368 36.961182,190.039801 L34.2406889,201.990592 C33.9592586,203.162238 34.334499,204.38075 35.17879,205.224336 C36.0230809,206.067921 37.2426123,206.442848 38.4152386,206.161653 L50.2353121,203.396568 C50.9388879,203.958958 51.5955586,204.521348 52.2991344,205.083738 L51.8769889,217.175127 C51.8300839,218.346773 52.3929445,219.518419 53.4248557,220.174541 C54.4567669,220.830663 55.6762983,220.924394 56.7551145,220.455736 L67.730897,215.44109 L70.1230547,216.706468 L72.0461619,228.610393 C72.2337821,229.782039 73.031168,230.766222 74.1099842,231.23488 C75.2357055,231.703539 76.4552369,231.562941 77.440243,230.859954 L87.1964941,223.830077 C88.0876901,224.111272 88.9788861,224.345601 89.8231771,224.626796 L94.0446319,235.874599 C94.4667773,236.99938 95.4517835,237.796099 96.5775047,238.030428 C97.7501311,238.264757 98.9696625,237.889831 99.7670484,236.99938 L107.975433,228.235466 C108.866629,228.329198 109.80473,228.42293 110.742831,228.516661 L117.075013,238.733416 C117.684779,239.764465 118.8105,240.373721 119.983126,240.373721 C121.155753,240.373721 122.281474,239.764465 122.89124,238.733416 L129.223422,228.516661 C130.161523,228.42293 131.052719,228.376064 131.99082,228.235466 L140.199204,236.99938 C140.99659,237.889831 142.216122,238.264757 143.388748,238.030428 C144.561374,237.796099 145.54638,236.99938 145.921621,235.874599 L150.143076,224.626796 C151.034272,224.392467 151.925468,224.111272 152.769759,223.830077 L162.52601,230.859954 C163.511016,231.562941 164.777452,231.703539 165.856268,231.23488 C166.935085,230.766222 167.732471,229.782039 167.920091,228.610393 L169.843198,216.706468 L172.235356,215.44109 L183.211138,220.455736 C184.289954,220.924394 185.556391,220.830663 186.541397,220.174541 C187.526403,219.518419 188.089264,218.393639 188.089264,217.175127 L187.667118,205.083738 C188.370694,204.521348 189.07427,203.958958 189.730941,203.396568 L201.551014,206.161653 C202.72364,206.442848 203.943172,206.067921 204.787463,205.224336 C205.631754,204.38075 205.960089,203.162238 205.725564,201.990592 L202.958166,190.180399 C203.521026,189.524277 204.083887,188.821289 204.646748,188.118302 L216.748251,188.540094 C217.920878,188.58696 219.093504,188.02457 219.750175,186.993521 C220.406845,186.009339 220.500656,184.743961 220.031605,183.666046 L215.012764,172.699438 L216.279201,170.30928 L228.193084,168.38778 C229.365711,168.200317 230.350717,167.403598 230.819767,166.325683 C231.288818,165.247769 231.148103,163.982391 230.444527,162.998208 L223.408769,153.250112 C223.690199,152.359661 223.924724,151.46921 224.206155,150.625624 L235.463368,146.407698 C236.589089,145.985906 237.386475,145.001723 237.621,143.876943 C237.855525,142.705296 237.480285,141.486784 236.589089,140.690065 L227.817844,132.488542 C227.911654,131.598091 228.005464,130.660774 228.099274,129.723457 L238.324576,123.396568 C239.356487,122.787312 239.966253,121.662531 239.966253,120.490885 C240.153873,119.178641 239.544107,118.053861 238.512196,117.444605 M167.685566,177.901547 C164.167687,177.151694 160.696713,179.401254 159.946232,182.916193 L156.381448,199.6473 C133.069636,210.192115 106.286851,210.098384 83.0688494,199.319239 L79.5040653,182.588132 C78.7535845,179.073193 75.2826105,176.823633 71.7647315,177.573486 L56.9896398,180.760364 C54.2691467,177.948413 51.6893687,174.948999 49.3441161,171.762121 L121.202658,171.762121 C122.000044,171.762121 122.562904,171.621524 122.562904,170.87167 L122.562904,145.470381 C122.562904,144.720528 122.000044,144.57993 121.202658,144.57993 L100.189194,144.57993 L100.189194,128.504945 L122.89124,128.504945 C124.955062,128.504945 134.007737,129.114201 136.868946,140.643199 C137.760142,144.158138 139.777059,155.687136 141.137305,159.389538 C142.497552,163.513732 147.985443,171.808987 153.848575,171.808987 L190.903567,171.808987 C188.417599,175.136462 185.697106,178.276474 182.788993,181.229022 L167.685566,177.901547 Z M179.740164,194.070264 C179.740164,198.006995 176.550621,201.193873 172.610596,201.193873 C168.670572,201.193873 165.481028,198.006995 165.481028,194.070264 C165.481028,190.133533 168.670572,186.946656 172.610596,186.946656 L172.798216,186.946656 C176.691336,187.040387 179.740164,190.227265 179.740164,194.070264 M66.7927959,200.912678 C62.8527714,200.912678 59.6632278,197.7258 59.6632278,193.789069 C59.6632278,189.852338 62.8527714,186.66546 66.7927959,186.66546 L66.9804161,186.66546 C70.8266305,186.759192 73.922364,189.94607 73.922364,193.789069 C73.922364,197.7258 70.7328204,200.912678 66.7927959,200.912678 M34.4752142,86.044488 L34.6628344,86.044488 C38.5090488,86.1382197 41.6047823,89.3250972 41.6047823,93.1680967 C41.6047823,97.1048278 38.4152386,100.291705 34.4752142,100.291705 C30.5351897,100.291705 27.3456461,97.1048278 27.3456461,93.1680967 C27.3456461,89.2782314 30.5351897,86.044488 34.4752142,86.044488 M32.6459171,110.086667 L48.0307746,103.244254 C51.3141283,101.791412 52.81509,97.948413 51.3610334,94.6678037 L48.1714897,87.5441951 L60.6482339,87.5441951 L60.6482339,143.642613 L35.4602203,143.642613 C32.3644868,132.769737 31.4263857,121.381336 32.6459171,110.086667 M100.142289,104.697095 L100.142289,88.1534511 L129.833188,88.1534511 C131.381054,88.1534511 140.668255,89.9343532 140.668255,96.8704985 C140.668255,102.634998 133.538687,104.697095 127.675555,104.697095 L100.142289,104.697095 Z M197.470274,127.567628 L197.470274,131.691822 C197.470274,141.439919 191.982383,143.548882 187.151163,144.111272 C182.554467,144.626796 177.488722,142.189772 176.832051,139.377821 C174.111558,124.146421 169.608673,120.912678 162.479105,115.288776 C171.34416,109.664875 180.53755,101.416486 180.53755,90.30928 C180.53755,78.3584892 172.329166,70.8130879 166.747464,67.110686 C158.867416,61.9554429 150.189981,60.9243943 147.844728,60.9243943 L54.550577,60.9243943 C67.4494666,46.5365794 84.7574313,36.7884833 103.753978,33.1798131 L114.776665,44.7088114 C117.262633,47.2864329 121.390278,47.4270305 123.970056,44.8962747 L136.306085,33.1798131 C161.681719,37.9132636 183.727094,53.6133222 196.532173,76.0151968 L188.089264,95.0427305 C186.635207,98.3233398 188.136169,102.166339 191.419522,103.666046 L207.648671,110.836521 C208.164627,115.898032 208.211532,121.006409 207.836291,126.067921 L198.783616,126.067921 C197.845515,126.114787 197.470274,126.724043 197.470274,127.567628 M112.572128,28.5869602 C112.572128,24.6502291 115.761672,21.4633515 119.701696,21.4633515 L119.889316,21.4633515 C123.735531,21.5570832 126.831264,24.7439607 126.831264,28.5869602 C126.831264,32.5236913 123.64172,35.7105688 119.701696,35.7105688 C115.761672,35.7105688 112.572128,32.5236913 112.572128,28.5869602 M204.881273,100.666632 C200.941248,100.666632 197.751705,97.4797545 197.751705,93.5430234 C197.751705,89.6062923 200.941248,86.4194148 204.881273,86.4194148 L205.068893,86.4194148 C208.915107,86.5131465 212.010841,89.700024 212.010841,93.5430234 C212.057746,97.4797545 208.868202,100.666632 204.881273,100.666632" id="Shape"></path>
        </g>
    </g>
</svg>