<?xml version="1.0" encoding="UTF-8"?>
<svg width="240px" height="240px" viewBox="0 0 240 240" version="1.1" xmlns="http://www.w3.org/2000/svg" xmlns:xlink="http://www.w3.org/1999/xlink">
    <title>ryot</title>
    <g id="Page-1" stroke="none" stroke-width="1" fill="none" fill-rule="evenodd">
        <g id="ryot" fill="#FFFFFF" fill-rule="nonzero">
            <path d="M120,0 C152.845337,0 182.608586,13.1959904 204.277318,34.5755431 C207.902858,37.6470375 211.107642,41.2009453 213.790035,45.1391786 C230.193266,65.6606979 240,91.6851062 240,120 C240,186.27417 186.27417,240 120,240 C97.3330601,240 76.1339763,233.715361 58.0501736,222.793509 L58.0044518,222.804625 L57.9889842,222.756528 C23.2328273,201.737001 0,163.581659 0,120 C0,53.72583 53.72583,0 120,0 Z M55.4692278,162.066338 L54.7975761,162.192349 L69.1815956,214.061247 C84.2960912,222.244377 101.605436,226.890756 120,226.890756 C122.745529,226.890756 125.466881,226.787245 128.160368,226.583912 L106.571,145.577 L106.418991,145.576818 L104.492572,142.677807 L92.5033839,124.634665 C89.034636,143.484278 74.2638232,158.382287 55.4692278,162.066338 Z M120.167,145.686 L141.245066,224.77948 C150.811159,222.850382 159.914628,219.644067 168.369895,215.346112 L166.937,146.058 L120.167,145.686 Z M180.051,146.163 L181.321351,207.562977 C201.915133,193.114202 217.179012,171.584958 223.577568,146.510666 L180.051,146.163 Z M46.3865546,82.3973906 C30.2096975,82.3973906 16.6293237,94.0672507 13.6490075,110.085763 L13.5644162,110.069556 C13.2631988,113.339284 13.1092437,116.651663 13.1092437,120 C13.1092437,153.421866 28.4482432,183.261118 52.4704268,202.861938 L40.0703562,158.141349 L37.7666117,149.834956 L46.3865546,149.834956 C65.0458506,149.834956 80.1680672,134.736257 80.1680672,116.116173 C80.1680672,110.01461 78.54426,104.291169 75.7042882,99.3532174 L73.2922521,95.7238856 C67.1224523,87.6259732 57.3669374,82.3973906 46.3865546,82.3973906 Z M221.519112,86.4486206 L221.333185,87.223061 C215.690718,110.096811 195.036288,127.058824 170.420168,127.058824 C151.655775,127.058824 135.193408,117.202675 125.927675,102.384986 L120.974,132.582 L226.056376,133.420526 C226.607049,129.024442 226.890756,124.545353 226.890756,120 C226.890756,108.279988 225.004539,97.0005256 221.519112,86.4486206 Z M120,13.1092437 C93.6740687,13.1092437 69.5709675,22.6263106 50.9435191,38.4076216 L83.9956535,88.1434237 C85.0254153,89.5219674 85.9809709,90.9590463 86.8564083,92.4487611 L108.845,125.541 L127.250601,13.351281 C124.854498,13.1907827 122.436771,13.1092437 120,13.1092437 Z M170.420168,35.2941176 C148.700062,35.2941176 131.092437,52.9017426 131.092437,74.6218487 C131.092437,96.3419549 148.700062,113.94958 170.420168,113.94958 C192.140274,113.94958 209.747899,96.3419549 209.747899,74.6218487 C209.747899,66.5931208 207.342039,59.1263115 203.211922,52.9030247 C200.785706,49.8964414 198.198745,47.0240984 195.465043,44.2988685 C188.662793,38.6738807 179.936174,35.2941176 170.420168,35.2941176 Z M22.5996958,75.9043766 L22.8380666,75.762326 C29.7511303,71.636055 37.8043744,69.2881469 46.3865546,69.2881469 C49.8384799,69.2881469 53.2033516,69.6606751 56.443037,70.3676821 L41.3335025,47.6305379 C33.6795638,55.9461736 27.3272388,65.4785092 22.5996958,75.9043766 Z M140.260118,15.0267282 L137.128526,34.1069014 C144.633176,27.9330733 153.883197,23.803736 164.026762,22.570714 C156.527583,19.1742925 148.564653,16.620004 140.260118,15.0267282 Z" id="Combined-Shape"></path>
        </g>
    </g>
</svg>