<?xml version="1.0" encoding="UTF-8"?>
<svg width="242px" height="242px" viewBox="0 0 242 242" version="1.1" xmlns="http://www.w3.org/2000/svg" xmlns:xlink="http://www.w3.org/1999/xlink">
    <title>safari</title>
    <defs>
        <linearGradient x1="49.9981964%" y1="99.9989553%" x2="49.9981964%" y2="-0.000261304241%" id="linearGradient-1">
            <stop stop-color="#BDBDBD" offset="0%"></stop>
            <stop stop-color="#FFFFFF" offset="100%"></stop>
        </linearGradient>
        <radialGradient cx="50.2254095%" cy="42.7093442%" fx="50.2254095%" fy="42.7093442%" r="54.2508732%" id="radialGradient-2">
            <stop stop-color="#06C2E7" offset="0%"></stop>
            <stop stop-color="#0DB8EC" offset="25.000015%"></stop>
            <stop stop-color="#12AEF1" offset="50.00003%"></stop>
            <stop stop-color="#1F86F9" offset="75.000012%"></stop>
            <stop stop-color="#107DDD" offset="100%"></stop>
        </radialGradient>
    </defs>
    <g id="Page-1" stroke="none" stroke-width="1" fill="none" fill-rule="evenodd">
        <g id="safari" transform="translate(0.7577, 0.6828)" fill-rule="nonzero">
            <path d="M235.24226,129.317211 C235.24226,158.756239 223.073547,186.989525 201.413093,207.806064 C179.75264,228.622603 150.37476,240.317211 119.74226,240.317211 C89.1097489,240.317211 59.7318727,228.622598 38.0714222,207.80606 C16.4109717,186.989521 4.24226,158.756237 4.24226,129.317211 C4.24226,68.0136044 55.9533674,18.3172106 119.74226,18.3172106 C150.374759,18.3172106 179.752638,30.0118171 201.413091,50.8283547 C223.073544,71.6448923 235.24226,99.8781768 235.24226,129.317211 Z" id="Path" fill="#000000" opacity="0.52999998"></path>
            <path d="M240.24226,120.317211 C240.24226,152.14319 227.59944,182.665661 205.09507,205.170027 C182.590701,227.674392 152.068225,240.317211 120.242241,240.317211 C53.9680735,240.317211 0.24226,186.591367 0.24226,120.317211 C0.24226,54.0430538 53.9680735,0.317210558 120.242241,0.317210558 C152.068225,0.317210558 182.590701,12.9600287 205.09507,35.4643946 C227.59944,57.9687604 240.24226,88.4912312 240.24226,120.317211 L240.24226,120.317211 Z" id="Path" stroke="#CDCDCD" stroke-width="0.09301235" fill="url(#linearGradient-1)" stroke-linecap="round" stroke-linejoin="round"></path>
            <path d="M230.24226,119.817211 C230.24226,180.844675 180.769724,230.317211 119.74226,230.317211 C58.714796,230.317211 9.24226,180.844675 9.24226,119.817211 C9.24226,58.7897466 58.714796,9.31721056 119.74226,9.31721056 C180.769724,9.31721056 230.24226,58.7897466 230.24226,119.817211 L230.24226,119.817211 Z" id="Path" fill="url(#radialGradient-2)"></path>
            <path d="M119.742241,15.3172106 C118.850886,15.3172106 118.133299,16.037491 118.133299,16.9322779 L118.133299,35.5615339 C118.133299,36.4563208 118.850886,37.1766012 119.742241,37.1766012 C120.633634,37.1766012 121.351183,36.4563208 121.351183,35.5615339 L121.351183,16.9322779 C121.351183,16.037491 120.633634,15.3172106 119.742241,15.3172106 L119.742241,15.3172106 Z M109.216497,15.9850009 C109.109851,15.9734899 109.000147,15.9734899 108.889296,15.9863439 C108.002719,16.0791991 107.363492,16.8703872 107.456072,17.7603395 L108.267117,25.5540024 C108.35962,26.4439547 109.147846,27.0856535 110.034347,26.9927215 C110.920962,26.8998663 111.560228,26.1086782 111.46761,25.2187259 L110.657252,17.4251013 C110.576216,16.6463835 109.962447,16.0577119 109.216383,15.9850009 L109.216497,15.9850009 Z M130.341605,15.9926749 C129.595502,16.0648104 128.981656,16.6534436 128.900009,17.4320463 L128.083421,25.2250569 C127.990153,26.1149325 128.629457,26.9068496 129.515995,27.0004339 C130.402458,27.0940565 131.190646,26.4529716 131.283913,25.5630961 L132.10054,17.7694331 C132.193807,16.8795576 131.554466,16.0882928 130.667965,15.9947469 C130.557114,15.9832359 130.448174,15.9832359 130.341528,15.9927516 L130.341605,15.9926749 Z M98.4039559,17.5589357 C98.2969275,17.5597798 98.1879879,17.5704467 98.0790483,17.5934686 C97.2069964,17.7787954 96.6535068,18.6328718 96.8381308,19.5082435 L100.681673,37.7332338 C100.866297,38.6086056 101.717096,39.1641638 102.589148,38.9788754 C103.461199,38.7935486 104.014689,37.9401245 103.830103,37.0647528 L99.9865615,18.8391102 C99.8248722,18.0731312 99.153575,17.5520675 98.4040323,17.557889 L98.4039559,17.5589357 Z M141.153458,17.5742001 C140.403915,17.5666097 139.732274,18.0882106 139.570241,18.8540361 L135.713512,37.0768777 C135.528123,37.9521343 136.081231,38.8064409 136.953015,38.9923816 C137.824952,39.1784758 138.676019,38.6232629 138.861216,37.7481214 L142.717945,19.5252414 C142.903334,18.6500232 142.350226,17.7956782 141.478442,17.6097758 C141.369503,17.5867539 141.260563,17.5752429 141.153535,17.5752429 L141.153458,17.5742001 Z M88.0850828,20.4795401 C87.8767598,20.4603551 87.6616709,20.483377 87.4497165,20.5539777 C86.6019754,20.830625 86.1409889,21.7376902 86.4164723,22.5886587 L88.8288154,30.0414815 C89.1044134,30.8924883 90.0087267,31.3551913 90.8564679,31.0786976 C91.7042473,30.8020503 92.1645075,29.8942944 91.8890241,29.043326 L89.4767193,21.5905032 C89.2703074,20.9522577 88.7099756,20.5327208 88.0850828,20.4793866 L88.0850828,20.4795401 Z M151.413962,20.483377 C150.78907,20.5367113 150.229044,20.9562481 150.022364,21.5944553 L147.608607,29.0465874 C147.333009,29.8975175 147.793613,30.8053501 148.641201,31.081959 C149.488942,31.3586062 150.393294,30.8962485 150.668892,30.0454719 L153.082611,22.5926491 C153.358209,21.7416807 152.897605,20.8338864 152.050017,20.5572775 C151.838253,20.4882117 151.622247,20.4655734 151.413962,20.4832236 L151.413962,20.483377 Z M77.8808448,24.2278991 C77.6717573,24.231736 77.4602233,24.27778 77.2566018,24.3687167 C76.4424982,24.73208 76.0779137,25.6826568 76.4399754,26.5002817 L83.9777161,43.5235641 C84.3397014,44.3411507 85.2866731,44.7067394 86.1011973,44.3432994 C86.9153009,43.9799361 87.2805735,43.0293593 86.9185118,42.2117343 L79.3800448,25.188452 C79.1086514,24.5751853 78.5078782,24.2157358 77.8808448,24.2279374 L77.8808448,24.2278991 Z M161.733485,24.2850703 C161.10649,24.2735593 160.505258,24.6307834 160.232909,25.2435129 L152.672196,42.2563586 C152.309064,43.0734847 152.672043,44.0247522 153.48607,44.3893049 C154.300135,44.7538193 155.247757,44.3894968 155.610965,43.5723706 L163.171603,26.5595633 C163.534735,25.7423988 163.171794,24.7911313 162.357767,24.4265786 C162.154413,24.3356418 161.942496,24.2895979 161.733485,24.2848003 L161.733485,24.2850703 Z M68.4091778,29.2585046 C68.1003245,29.2354826 67.782068,29.3045485 67.4925945,29.4726088 C66.7206141,29.9200022 66.4580506,30.9038841 66.9037091,31.678765 L70.8069956,38.4652171 C71.2526923,39.2401363 72.2327664,39.5036994 73.0047468,39.056306 C73.776689,38.6089125 74.0392907,37.625069 73.5936322,36.8501498 L69.6903457,30.063736 C69.4116896,29.5793923 68.9240607,29.2947641 68.4091778,29.2586197 L68.4091778,29.2585046 Z M171.075266,29.2585046 C170.560459,29.2930375 170.073365,29.5792772 169.794824,30.0636209 L165.89085,36.8500347 C165.445153,37.6249539 165.708519,38.6087974 166.480423,39.0561908 C167.252403,39.5035843 168.232516,39.2399828 168.678212,38.465102 L172.581461,31.6786499 C173.027157,30.903769 172.764556,29.9198871 171.992575,29.4724937 C171.703216,29.3048171 171.384195,29.2369023 171.075266,29.2583894 L171.075266,29.2585046 Z M59.2118474,35.0167959 C58.9022297,35.0283069 58.5921914,35.1280687 58.3216007,35.3249065 C57.6001148,35.850306 57.4406043,36.856289 57.9642024,37.5805599 L68.8614491,52.6597527 C69.3848561,53.3840236 70.387712,53.5441413 71.1092361,53.0188953 C71.8307602,52.4934957 71.9902707,51.4875128 71.4666344,50.7632419 L60.5686996,35.6840491 C60.2414986,35.2313606 59.7276095,34.9992608 59.2118474,35.0169494 L59.2118474,35.0167959 Z M180.387919,35.0989076 C179.872157,35.0797226 179.358115,35.3118607 179.030341,35.7638969 L168.1123,50.8284708 C167.587861,51.5520126 167.74611,52.5584177 168.467023,53.0848148 C169.187859,53.6111736 170.190447,53.4527825 170.714848,52.7295092 L181.632239,37.6649354 C182.156601,36.9413551 181.998046,35.9349884 181.277516,35.4085913 C181.007269,35.2113698 180.697422,35.1100732 180.387957,35.0989459 L180.387919,35.0989076 Z M50.9907687,41.9376195 C50.5800856,41.9145976 50.1609931,42.0523456 49.8297402,42.3516695 C49.1672346,42.9503172 49.113988,43.9673891 49.7104801,44.6324168 L54.9337705,50.4569347 C55.5301096,51.1219624 56.5433625,51.1754501 57.2058682,50.5766489 C57.8683738,49.9780011 57.9216586,48.9602386 57.3251283,48.2952109 L52.102526,42.4713837 C51.8043755,42.1387164 51.4015284,41.9591067 50.9907687,41.9374277 L50.9907687,41.9376195 Z M188.505486,41.9491305 C188.094765,41.9721525 187.691994,42.1505727 187.393767,42.4830482 L182.170477,48.3061847 C181.573946,48.9711357 181.626773,49.9888982 182.289355,50.5876227 C182.951746,51.1863472 183.964999,51.1326676 184.561452,50.4679085 L189.785431,44.6448103 C190.381923,43.979821 190.328409,42.9620584 189.666171,42.3633723 C189.334765,42.0640868 188.916552,41.9277201 188.505792,41.9493224 L188.505486,41.9491305 Z M43.1114164,49.5350586 C42.700695,49.5580806 42.2985359,49.7365008 42.0003472,50.0690146 C41.4039698,50.7340424 41.4572928,51.7511142 42.1196073,52.349762 L55.9125449,64.8136216 C56.5750506,65.4123077 57.5882652,65.3587433 58.1846044,64.6939074 C58.78102,64.028918 58.728385,63.0118078 58.0657265,62.4131601 L44.2721391,49.9493004 C43.9407333,49.6500149 43.5217937,49.5135714 43.1110341,49.5352505 L43.1114164,49.5350586 Z M196.423101,49.5895439 C196.01238,49.566522 195.59279,49.7038863 195.261346,50.0029032 L181.460076,62.4570553 C180.797188,63.0552042 180.74268,64.0723144 181.338522,64.7377642 C181.934441,65.4031757 182.94842,65.4572389 183.611308,64.8590132 L197.413267,52.4048996 C198.076154,51.8067123 198.129974,50.789602 197.534056,50.1241522 C197.235905,49.7914849 196.833708,49.6114915 196.423025,49.5895439 L196.423101,49.5895439 Z M36.5590247,57.9924831 C36.0432244,57.9732981 35.5289148,58.2065873 35.2014844,58.6588537 C34.6775423,59.3827409 34.8364412,60.3885704 35.557736,60.9145071 L41.8733274,65.5205877 C42.5944693,66.0465627 43.596446,65.8877879 44.1203881,65.1637473 C44.6443685,64.4398601 44.4858136,63.4333399 43.764901,62.9074032 L37.4493096,58.3013227 C37.179063,58.1041012 36.868566,58.003572 36.5591011,57.9924447 L36.5590247,57.9924831 Z M202.969224,58.0511891 C202.659606,58.0627 202.349568,58.1620782 202.079016,58.3592996 L195.760634,62.9612362 C195.039148,63.4866741 194.879561,64.4933094 195.402853,65.2175803 C195.926337,65.9418128 196.928466,66.1012783 197.649952,65.5759555 L203.96906,60.9740573 C204.690546,60.4486194 204.849407,59.4426364 204.326076,58.7184039 C203.998875,58.2657537 203.484986,58.0336156 202.969224,58.0513425 L202.969224,58.0511891 Z M30.4357785,67.0138304 C29.9209338,67.0483634 29.4338783,67.3346031 29.1552987,67.8189084 C28.709602,68.5937893 28.9722037,69.5776712 29.7441459,70.0250646 L45.8160998,79.3396734 C46.5880419,79.7870669 47.5681925,79.5234654 48.0138892,78.7485846 C48.4595859,77.9737037 48.1969842,76.9898218 47.425042,76.5424284 L31.3530881,67.2277812 C31.0637293,67.0601046 30.7446701,66.9921898 30.4357785,67.013677 L30.4357785,67.0138304 Z M209.048703,67.0138304 C208.73985,66.9908085 208.420867,67.0598744 208.131394,67.2279347 L192.05944,76.5425819 C191.287498,76.9899753 191.024896,77.9738572 191.470593,78.748738 C191.916289,79.5236189 192.89644,79.7872203 193.668382,79.3398269 L209.741062,70.0252181 C210.513004,69.5778246 210.775568,68.5939428 210.329871,67.8190619 C210.051215,67.3347566 209.563548,67.05009 209.048703,67.0139839 L209.048703,67.0138304 Z M25.8061898,76.6295665 C25.1791946,76.6142185 24.5779245,76.9745122 24.3055755,77.5872801 C23.9424436,78.404483 24.3053462,79.3557888 25.1194499,79.7202648 L32.2495272,82.9127202 C33.0636309,83.2772346 34.0113289,82.9129888 34.3744227,82.0958243 C34.7375546,81.2786214 34.373964,80.3273156 33.5598985,79.9628395 L26.430471,76.7703842 C26.2271171,76.6790637 26.0151627,76.6337872 25.8061898,76.6295665 Z M213.70956,76.6959465 C213.500472,76.6997835 213.288174,76.7458274 213.084552,76.8367642 L205.95306,80.0236559 C205.138727,80.3877866 204.774602,81.3384785 205.137122,82.1559116 C205.499872,82.9733447 206.447684,83.3388567 207.262017,82.9749562 L214.393547,79.7873355 C215.207842,79.4235885 215.57128,78.4725129 215.208759,77.6550798 C214.936984,77.0420049 214.336555,76.6834379 213.70956,76.6959465 Z M21.6800549,86.6797653 C21.0551239,86.7323321 20.4948685,87.1513702 20.2877686,87.7894622 C20.0117883,88.6402005 20.4712459,89.5483017 21.3189488,89.8255245 L38.9644491,95.5970535 C39.8119227,95.8740844 40.7166183,95.4124941 40.9927897,94.5619477 C41.26877,93.7112095 40.8093125,92.8030699 39.9616095,92.5258855 L22.3161474,86.7543181 C22.1043842,86.6848685 21.8883397,86.6622303 21.6800549,86.6798804 L21.6800549,86.6797653 Z M217.82805,86.7488312 C217.619727,86.7296463 217.404599,86.7526682 217.192645,86.8232689 L199.543055,92.5822893 C198.695314,92.8589365 198.2349,93.7667308 198.51046,94.6176609 C198.786058,95.4685909 199.690372,95.9307952 200.538113,95.6541863 L218.187053,89.8951659 C219.034794,89.6185187 219.495857,88.7107244 219.220336,87.8597943 C219.013542,87.2215872 218.452904,86.8019352 217.82805,86.7487161 L217.82805,86.7488312 Z M19.1093862,97.2296558 C18.3598054,97.2219819 17.6875908,97.7442734 17.5254428,98.510099 C17.3400543,99.3853172 17.8931617,100.239547 18.764946,100.425603 L26.4013058,102.054598 C27.2732048,102.240693 28.1241568,101.68548 28.309507,100.810377 C28.4948954,99.93512 27.9417881,99.0808901 27.0700038,98.8948727 L19.434332,97.2658771 C19.3253924,97.2428551 19.2164528,97.2313441 19.1094245,97.2313441 L19.1093862,97.2296558 Z M220.378612,97.2450038 C220.271584,97.2458863 220.163409,97.2603518 220.054469,97.2795368 L212.418071,98.9078417 C211.546172,99.0939359 210.993409,99.9473984 211.178606,100.822655 C211.363995,101.697873 212.21487,102.25347 213.086807,102.067568 L220.722479,100.439263 C221.594378,100.253168 222.147868,99.3990153 221.96267,98.5237587 C221.800599,97.7579331 221.128269,97.2369461 220.378765,97.2433155 L220.378612,97.2450038 Z M17.1636486,107.841514 C16.417508,107.913266 15.8033562,108.500901 15.7214031,109.279504 C15.6277533,110.169303 16.265413,110.961565 17.1518373,111.055571 L35.6076953,113.01428 C36.4941196,113.108286 37.2833774,112.467508 37.3770272,111.577671 C37.4706771,110.687872 36.8323293,109.89561 35.9458668,109.801604 L17.490047,107.842895 C17.3791961,107.831384 17.2702566,107.831384 17.1636104,107.841552 L17.1636486,107.841514 Z M222.338187,107.980797 C222.231541,107.969286 222.121837,107.969286 222.010986,107.98214 L203.553064,109.915754 C202.666487,110.008609 202.027374,110.799797 202.119801,111.689711 C202.212304,112.579664 203.000492,113.221362 203.887069,113.12843 L222.344991,111.194816 C223.23153,111.101961 223.87068,110.310773 223.778254,109.42082 C223.697218,108.642141 223.084098,108.053546 222.338034,107.98072 L222.338187,107.980797 Z M16.851164,118.704158 C15.9597706,118.704158 15.24226,119.424438 15.24226,120.319225 C15.24226,121.213974 15.9597706,121.934254 16.851164,121.934254 L24.6576607,121.934254 C25.5490159,121.934254 26.267291,121.213974 26.267291,120.319225 C26.267291,119.424438 25.5490159,118.704158 24.6576607,118.704158 L16.851164,118.704158 Z M214.826821,118.704158 C213.935466,118.704158 213.217879,119.424438 213.217879,120.319225 C213.217879,121.213974 213.935466,121.934254 214.826821,121.934254 L222.633318,121.934254 C223.524673,121.934254 224.24226,121.213974 224.24226,120.319225 C224.24226,119.424438 223.524673,118.704158 222.633318,118.704158 L214.826821,118.704158 Z M35.9243464,127.508561 C35.8177003,127.49705 35.7087607,127.49705 35.5979099,127.509904 L17.1392615,129.443519 C16.2526843,129.536374 15.6136102,130.327562 15.7060369,131.217476 C15.79854,132.107428 16.5867275,132.749127 17.4732664,132.656195 L35.9319148,130.722581 C36.818492,130.629725 37.4575661,129.838537 37.3651394,128.948585 C37.2841037,128.169906 36.6703342,127.581311 35.92427,127.508523 L35.9243464,127.508561 Z M203.550426,127.622904 C202.804247,127.694656 202.190096,128.28233 202.108143,129.060932 C202.014493,129.950731 202.652191,130.742994 203.538615,130.837 L221.994473,132.795708 C222.880936,132.889715 223.670117,132.248898 223.763805,131.3591 C223.857455,130.469301 223.219069,129.677038 222.332644,129.583032 L203.877513,127.624324 C203.766662,127.612813 203.656958,127.612813 203.550312,127.622981 L203.550426,127.622904 Z M26.7234994,138.533779 C26.616471,138.5347 26.5075314,138.54529 26.3985918,138.568312 L18.7622321,140.196578 C17.8902949,140.382672 17.3375698,141.236826 17.5227288,142.112082 C17.7081173,142.987339 18.5590311,143.542206 19.4309683,143.356304 L27.067328,141.72869 C27.939227,141.542596 28.4919904,140.688442 28.3067931,139.813224 C28.1447215,139.04736 27.4731185,138.526412 26.7235758,138.532743 L26.7234994,138.533779 Z M212.75888,138.549127 C212.009337,138.541453 211.337811,139.063054 211.175663,139.828879 C210.990274,140.704097 211.542617,141.558366 212.414478,141.744383 L220.050838,143.373379 C220.922699,143.559473 221.773727,143.005027 221.959039,142.129847 C222.144427,141.254629 221.59132,140.39967 220.719574,140.213653 L213.083864,138.584657 C212.974924,138.561635 212.865985,138.550124 212.758956,138.550124 L212.75888,138.549127 Z M39.5824233,144.910363 C39.3741002,144.891178 39.1590114,144.9142 38.947057,144.984801 L21.2974667,150.743783 C20.4497255,151.02043 19.9893124,151.928224 20.2648722,152.779154 C20.5404703,153.630123 21.4447836,154.09225 22.2925247,153.81568 L39.9414653,148.05666 C40.7892064,147.780012 41.2503076,146.872218 40.9747478,146.021288 C40.7679537,145.383081 40.2073161,144.963429 39.5824233,144.91021 L39.5824233,144.910363 Z M199.884666,144.967534 C199.259735,145.020101 198.699518,145.439178 198.492418,146.077231 C198.216438,146.928008 198.675896,147.836109 199.523598,148.113332 L217.169061,153.884861 C218.016572,154.161892 218.921268,153.700301 219.197401,152.849755 C219.473764,151.999017 219.013924,151.090877 218.166221,150.813654 L200.520759,145.042126 C200.308996,144.972676 200.092989,144.950038 199.884666,144.967688 L199.884666,144.967534 Z M32.8474336,157.524134 C32.638346,157.527971 32.4267356,157.573248 32.2231524,157.664184 L25.0909727,160.851767 C24.2766397,161.215514 23.9132019,162.166589 24.2757223,162.984022 C24.638472,163.801456 25.5855967,164.166277 26.3998915,163.802376 L33.5321476,160.615446 C34.3464424,160.251699 34.7098802,159.300624 34.3473598,158.483191 C34.0755842,157.870116 33.4744287,157.511549 32.8474336,157.524057 L32.8474336,157.524134 Z M206.611361,157.585526 C205.984366,157.570178 205.383096,157.930472 205.110747,158.543278 C204.747615,159.360443 205.110518,160.311748 205.924583,160.676224 L213.054011,163.86868 C213.868076,164.233194 214.815812,163.86891 215.178906,163.051745 C215.542038,162.234581 215.179136,161.283275 214.36507,160.918799 L207.235643,157.726305 C207.032289,157.634985 206.820373,157.589708 206.611361,157.585488 L206.611361,157.585526 Z M46.7334094,161.085401 C46.4245561,161.062379 46.1056115,161.131445 45.8160998,161.299506 L29.7441459,170.614114 C28.9722037,171.061508 28.709602,172.04539 29.1552987,172.820271 C29.6009954,173.595151 30.581146,173.858753 31.3530881,173.411359 L47.425042,164.097441 C48.1969842,163.650048 48.4595477,162.665475 48.0138892,161.890594 C47.7352332,161.406289 47.2482541,161.121623 46.7334094,161.085516 L46.7334094,161.085401 Z M192.75176,161.085401 C192.236916,161.119934 191.749172,161.406174 191.470593,161.890479 C191.024896,162.66536 191.287498,163.649933 192.05944,164.097326 L208.131394,173.411244 C208.903374,173.858638 209.884174,173.595036 210.329871,172.820155 C210.775568,172.045275 210.512966,171.061393 209.741062,170.613999 L193.668382,161.29939 C193.379023,161.131714 193.060652,161.063799 192.75176,161.085286 L192.75176,161.085401 Z M42.7246235,174.754461 C42.4150057,174.765972 42.1049674,174.866117 41.8343767,175.063339 L35.5160332,179.665237 C34.7945473,180.190675 34.6349603,181.196658 35.1582526,181.92089 C35.681736,182.645123 36.6838656,182.805317 37.4053515,182.279649 L43.7243831,177.677751 C44.4459455,177.152351 44.6054942,176.146368 44.0821637,175.422136 C43.7549627,174.969486 43.2403855,174.736619 42.7245852,174.754346 L42.7246235,174.754461 Z M196.721672,174.808946 C196.205872,174.789761 195.6916,175.02305 195.364132,175.475317 C194.840152,176.199165 194.999089,177.205724 195.720383,177.731661 L202.035975,182.337741 C202.757117,182.863678 203.759132,182.704174 204.283074,181.980133 C204.807016,181.256246 204.648499,180.250417 203.927587,179.72448 L197.611995,175.118399 C197.341749,174.921178 197.031252,174.819881 196.721787,174.808754 L196.721672,174.808946 Z M57.0348521,175.366576 C56.6242072,175.343554 56.2053058,175.480919 55.8738236,175.779936 L42.0719033,188.234049 C41.4090154,188.832198 41.3551572,189.849347 41.9511141,190.514797 C42.5469946,191.180208 43.5602475,191.234233 44.2231736,190.636046 L58.0251321,178.181932 C58.68802,177.583783 58.7418782,176.566634 58.1459213,175.901185 C57.8481531,175.568517 57.4455735,175.388524 57.0348521,175.366576 L57.0348521,175.366576 Z M182.411405,175.411085 C182.000684,175.434107 181.597875,175.612528 181.299686,175.945003 C180.703271,176.610031 180.756632,177.627103 181.418946,178.22575 L195.211884,190.68961 C195.87439,191.288334 196.888292,191.23477 197.48467,190.569896 C198.081085,189.904906 198.027724,188.887796 197.36541,188.289187 L183.571746,175.825289 C183.24034,175.526003 182.822127,175.389598 182.411405,175.411239 L182.411405,175.411085 Z M70.1285504,187.242762 C69.6127883,187.223577 69.0980201,187.455331 68.7702839,187.907713 L57.8528929,202.972287 C57.3284921,203.695867 57.4863207,204.702272 58.206851,205.228631 C58.9276489,205.755028 59.9302754,205.596599 60.454638,204.872942 L71.372029,189.808368 C71.8963916,189.084826 71.7386012,188.078421 71.0180709,187.552024 C70.7478242,187.354802 70.4380153,187.253506 70.1285504,187.242762 Z M169.266372,187.310293 C168.956754,187.321804 168.646716,187.421182 168.376125,187.618404 C167.654639,188.143841 167.495128,189.149786 168.018344,189.874057 L178.915591,204.95325 C179.438998,205.677521 180.441166,205.837677 181.16269,205.312392 C181.884214,204.786993 182.043725,203.781048 181.52047,203.056777 L170.623224,187.977546 C170.296023,187.524896 169.782134,187.292796 169.266333,187.310485 L169.266372,187.310293 Z M56.0349395,189.637046 C55.6242181,189.660068 55.2214474,189.838488 54.9232205,190.170964 L49.6998919,195.9941 C49.1033998,196.659051 49.156226,197.676814 49.8187698,198.275538 C50.481199,198.874263 51.4944137,198.820583 52.0908293,198.15544 L57.3148078,192.332342 C57.911338,191.667391 57.8578238,190.64959 57.1955476,190.050904 C56.8641419,189.751619 56.4459285,189.615252 56.0351689,189.636854 L56.0349395,189.637046 Z M183.439833,189.64472 C183.029112,189.621698 182.610707,189.759446 182.279493,190.05877 C181.616949,190.657341 181.563702,191.674451 182.15985,192.339479 L187.382453,198.163997 C187.97883,198.829063 188.992045,198.882512 189.654589,198.283711 C190.317094,197.685102 190.370379,196.667339 189.773849,196.002273 L184.551208,190.178484 C184.253058,189.845817 183.850211,189.666207 183.439489,189.644528 L183.439833,189.64472 Z M85.3741688,196.104912 C84.7471737,196.089564 84.1466298,196.449858 83.8742808,197.062664 L76.3128792,214.075472 C75.9497472,214.892636 76.312688,215.843904 77.1267535,216.208456 C77.9407807,216.572971 78.8884787,216.208648 79.2516107,215.391522 L86.8129742,198.378676 C87.1761062,197.56155 86.8131653,196.610244 85.9990998,196.24573 C85.7957459,196.15441 85.5831799,196.109133 85.3741688,196.104912 L85.3741688,196.104912 Z M154.008254,196.151724 C153.799166,196.155561 153.586906,196.200837 153.383285,196.291774 C152.569219,196.655137 152.204596,197.605714 152.566696,198.423339 L160.104399,215.446621 C160.466384,216.263786 161.414044,216.629797 162.228568,216.266357 C163.042672,215.902993 163.407256,214.952417 163.045194,214.134792 L155.507454,197.111509 C155.23606,196.498626 154.635249,196.139637 154.008254,196.151685 L154.008254,196.151724 Z M72.0874372,201.364932 C71.5726307,201.399465 71.0854987,201.685704 70.8069956,202.17001 L66.9037091,208.956462 C66.4580506,209.731343 66.7206141,210.715225 67.4925945,211.162618 C68.2645366,211.610012 69.2446872,211.34641 69.6903457,210.571529 L73.5936322,203.785077 C74.0392907,203.010196 73.7767272,202.026314 73.0047468,201.578921 C72.715388,201.411244 72.396367,201.34333 72.0874372,201.364817 L72.0874372,201.364932 Z M167.397006,201.364932 C167.088153,201.34191 166.769897,201.411359 166.480423,201.579036 C165.708481,202.026429 165.445879,203.010311 165.891576,203.785192 L169.794824,210.571644 C170.240521,211.346525 171.220671,211.610088 171.992575,211.162733 C172.764556,210.71534 173.027157,209.731458 172.581461,208.956577 L168.678212,202.170125 C168.399556,201.68582 167.911851,201.401153 167.397006,201.365047 L167.397006,201.364932 Z M102.207171,201.608114 C101.457628,201.600523 100.785987,202.122124 100.623954,202.887988 L96.7672245,221.110868 C96.581836,221.986086 97.1349434,222.840431 98.0067277,223.026334 C98.8786649,223.212428 99.7297316,222.657215 99.9149672,221.782112 L103.771658,203.559232 C103.957047,202.684013 103.403939,201.829668 102.532155,201.643766 C102.423215,201.620744 102.314276,201.609233 102.207247,201.609233 L102.207171,201.608114 Z M137.220356,201.619708 C137.113328,201.620552 137.005153,201.631219 136.896213,201.654241 C136.024162,201.839568 135.470672,202.692954 135.655258,203.568325 L139.498838,221.794006 C139.683462,222.669378 140.534261,223.224936 141.406351,223.039648 C142.278403,222.854321 142.831854,222.000245 142.647268,221.124873 L138.803039,202.900497 C138.641349,202.134518 137.970014,201.613454 137.220471,201.619238 L137.220356,201.619708 Z M119.742241,203.45782 C118.850886,203.45782 118.133299,204.1781 118.133299,205.072887 L118.133299,223.702143 C118.133299,224.59693 118.850886,225.317211 119.742241,225.317211 C120.633634,225.317211 121.351183,224.59693 121.351183,223.702143 L121.351183,205.072887 C121.351183,204.1781 120.633634,203.45782 119.742241,203.45782 Z M90.2078759,209.477526 C89.5830214,209.53086 89.0222691,209.950397 88.8156279,210.588604 L86.4025586,218.041427 C86.1269605,218.892395 86.5875648,219.800189 87.435153,220.076837 C88.282856,220.353484 89.1872075,219.890359 89.4628056,219.039621 L91.8758367,211.587488 C92.1514348,210.736558 91.6908305,209.828764 90.8432805,209.552117 C90.6315172,209.483051 90.416199,209.460029 90.2078759,209.477679 L90.2078759,209.477526 Z M149.264106,209.481363 C149.055783,209.462178 148.840656,209.4852 148.62874,209.555417 C147.780999,209.832064 147.320012,210.73982 147.595419,211.590827 L150.007801,219.043611 C150.283399,219.894618 151.187712,220.35663 152.035453,220.080136 C152.883194,219.803489 153.344181,218.896424 153.068736,218.045455 L150.655705,210.592633 C150.448911,209.954387 149.888999,209.53485 149.264106,209.481554 L149.264106,209.481363 Z M109.642852,213.632261 C108.896712,213.704396 108.282063,214.292339 108.200569,215.07098 L107.38463,222.864643 C107.291363,223.754518 107.930016,224.545706 108.816517,224.639329 C109.703018,224.732952 110.491893,224.091867 110.585161,223.201991 L111.401061,215.409019 C111.494329,214.519143 110.855675,213.727265 109.969251,213.633642 C109.8584,213.622131 109.74946,213.622131 109.642814,213.632299 L109.642852,213.632261 Z M129.77703,213.639935 C129.670384,213.628424 129.56068,213.628424 129.449829,213.641278 C128.56329,213.734133 127.924025,214.525321 128.016604,215.415235 L128.82765,223.209627 C128.920153,224.099541 129.708341,224.740587 130.594918,224.647655 C131.481457,224.5548 132.12076,223.763573 132.028181,222.87366 L131.217823,215.079997 C131.136787,214.301279 130.52298,213.712607 129.776877,213.639858 L129.77703,213.639935 Z" id="Shape" fill="#F4F2F3"></path>
            <polygon id="Path" fill="#000000" opacity="0.40900005" points="195.24226 55.3172106 107.021616 106.548218 51.24226 194.317211 132.84297 133.906474"></polygon>
            <polygon id="Path" fill="#FF5150" points="132.613105 133.317211 107.24226 106.782271 197.24226 46.3172106"></polygon>
            <polygon id="Path" fill="#F1F1F1" points="133.24226 132.852153 107.871418 106.317211 43.24226 193.317211"></polygon>
            <polygon id="Path" fill="#000000" opacity="0.243" points="43.24226 193.317211 132.876046 133.042807 197.24226 46.3172106"></polygon>
        </g>
    </g>
</svg>