<?xml version="1.0" encoding="UTF-8"?>
<svg width="240px" height="240px" viewBox="0 0 240 240" version="1.1" xmlns="http://www.w3.org/2000/svg" xmlns:xlink="http://www.w3.org/1999/xlink">
    <title>Group</title>
    <g id="Page-1" stroke="none" stroke-width="1" fill="none" fill-rule="evenodd">
        <g id="Group">
            <rect id="ViewBox" x="0" y="0" width="240" height="240"></rect>
            <path d="M99.39375,58.95 C106.85625,51.1875 117.225,46.36875 128.71875,46.36875 C143.98125,46.36875 157.29375,54.88125 164.38125,67.51875 C170.722603,64.6838664 177.591328,63.2206683 184.5375,63.225 C212.0625,63.225 234.375,85.74375 234.375,113.49375 C234.375,141.2625 212.0625,163.78125 184.5375,163.78125 C181.18125,163.78125 177.9,163.44375 174.7125,162.80625 C168.46875,173.94375 156.5625,181.4625 142.9125,181.4625 C137.19375,181.4625 131.79375,180.15 126.975,177.7875 C120.6375,192.675 105.9,203.11875 88.70625,203.11875 C70.8,203.11875 55.55625,191.79375 49.70625,175.9125 C47.15625,176.45625 44.49375,176.7375 41.775,176.7375 C20.45625,176.7375 3.1875,159.28125 3.1875,137.75625 C3.1875,123.31875 10.95,110.71875 22.48125,103.9875 C20.0323147,98.3624543 18.774663,92.2912527 18.7875,86.15625 C18.7875,61.3875 38.8875,41.3062121 63.69375,41.3062121 C78.24375,41.2875 91.2,48.225 99.39375,58.95" id="Path" fill="#00A1E0" fill-rule="nonzero"></path>
            <path d="M36.675,125.2125 C36.525,125.5875 36.73125,125.6625 36.76875,125.7375 C37.2,126.05625 37.65,126.28125 38.08125,126.54375 C40.44375,127.8 42.65625,128.15625 45,128.15625 C49.74375,128.15625 52.6875,125.625 52.6875,121.575 L52.6875,121.5 C52.6875,117.75 49.36875,116.38125 46.2375,115.40625 L45.825,115.275 C43.48125,114.50625 41.4375,113.85 41.4375,112.3125 L41.4375,112.2375 C41.4375,110.90625 42.61875,109.93125 44.45625,109.93125 C46.5,109.93125 48.91875,110.60625 50.475,111.46875 C50.475,111.46875 50.925,111.76875 51.09375,111.31875 C51.1875,111.075 51.975,108.95625 52.05,108.73125 C52.14375,108.4875 51.975,108.3 51.825,108.20625 C50.04375,107.11875 47.5875,106.3875 45.0375,106.3875 L44.56875,106.3875 C40.2375,106.3875 37.2,109.0125 37.2,112.7625 L37.2,112.8375 C37.2,116.79375 40.5375,118.0875 43.66875,118.9875 L44.175,119.1375 C46.4625,119.83125 48.43125,120.45 48.43125,122.04375 L48.43125,122.11875 C48.43125,123.58125 47.15625,124.6875 45.09375,124.6875 C44.2875,124.6875 41.7375,124.66875 38.98125,122.925 C38.64375,122.7375 38.45625,122.5875 38.19375,122.4375 C38.0625,122.34375 37.725,122.2125 37.575,122.64375 L36.675,125.2125 Z M106.10625,125.2125 C105.95625,125.5875 106.1625,125.6625 106.2,125.7375 C106.63125,126.05625 107.08125,126.28125 107.5125,126.54375 C109.875,127.8 112.0875,128.15625 114.43125,128.15625 C119.175,128.15625 122.11875,125.625 122.11875,121.575 L122.11875,121.5 C122.11875,117.75 118.8,116.38125 115.66875,115.40625 L115.25625,115.275 C112.9125,114.50625 110.86875,113.85 110.86875,112.3125 L110.86875,112.2375 C110.86875,110.90625 112.05,109.93125 113.8875,109.93125 C115.93125,109.93125 118.35,110.60625 119.90625,111.46875 C119.90625,111.46875 120.35625,111.76875 120.525,111.31875 C120.61875,111.075 121.40625,108.95625 121.48125,108.73125 C121.575,108.4875 121.40625,108.3 121.25625,108.20625 C119.475,107.11875 117.01875,106.3875 114.46875,106.3875 L114,106.3875 C109.66875,106.3875 106.63125,109.0125 106.63125,112.7625 L106.63125,112.8375 C106.63125,116.79375 109.96875,118.0875 113.1,118.9875 L113.60625,119.1375 C115.89375,119.83125 117.8625,120.45 117.8625,122.04375 L117.8625,122.11875 C117.8625,123.58125 116.5875,124.6875 114.525,124.6875 C113.71875,124.6875 111.16875,124.66875 108.4125,122.925 C108.075,122.7375 107.8875,122.5875 107.625,122.4375 C107.53125,122.38125 107.1375,122.23125 107.00625,122.64375 L106.10625,125.2125 Z M153.4875,117.2625 C153.4875,119.55 153.05625,121.36875 152.2125,122.64375 C151.3875,123.9 150.1125,124.51875 148.36875,124.51875 C146.60625,124.51875 145.35,123.9 144.525,122.64375 C143.7,121.36875 143.26875,119.55 143.26875,117.2625 C143.26875,114.975 143.68125,113.175 144.525,111.9 C145.35,110.64375 146.60625,110.04375 148.36875,110.04375 C150.13125,110.04375 151.3875,110.64375 152.23125,111.9 C153.05625,113.15625 153.4875,114.95625 153.4875,117.2625 M157.44375,113.00625 C157.05,111.69375 156.45,110.53125 155.64375,109.575 C154.820538,108.584497 153.781497,107.795596 152.60625,107.26875 C151.40625,106.70625 149.9625,106.425 148.36875,106.425 C146.75625,106.425 145.33125,106.70625 144.13125,107.26875 C142.9125,107.83125 141.9,108.61875 141.09375,109.575 C140.2875,110.55 139.6875,111.69375 139.29375,113.00625 C138.9,114.31875 138.7125,115.74375 138.7125,117.2625 C138.7125,118.78125 138.9,120.20625 139.29375,121.51875 C139.6875,122.83125 140.2875,123.99375 141.09375,124.95 C141.9,125.925 142.93125,126.69375 144.13125,127.2375 C145.35,127.78125 146.775,128.0625 148.36875,128.0625 C149.98125,128.0625 151.40625,127.78125 152.60625,127.2375 C153.80625,126.69375 154.8375,125.90625 155.64375,124.95 C156.45,123.99375 157.05,122.83125 157.44375,121.51875 C157.8375,120.20625 158.025,118.78125 158.025,117.2625 C158.025,115.74375 157.8375,114.3 157.44375,113.00625 M189.95625,123.9 C189.825,123.50625 189.45,123.65625 189.45,123.65625 C188.86875,123.88125 188.26875,124.0875 187.6125,124.18125 C186.95625,124.275 186.225,124.33125 185.4375,124.33125 C183.525,124.33125 182.00625,123.76875 180.9,122.64375 C179.8125,121.51875 179.19375,119.7 179.19375,117.225 C179.19375,114.975 179.7375,113.2875 180.7125,112.0125 C181.66875,110.7375 183.15,110.08125 185.1,110.08125 C186.73125,110.08125 187.9875,110.26875 189.28125,110.68125 C189.28125,110.68125 189.6,110.8125 189.75,110.4 C190.0875,109.44375 190.35,108.75 190.725,107.7 C190.8375,107.4 190.575,107.26875 190.48125,107.23125 C189.975,107.025 188.75625,106.70625 187.8375,106.575 C186.975,106.44375 185.98125,106.36875 184.875,106.36875 C183.20625,106.36875 181.725,106.65 180.46875,107.2125 C179.2125,107.775 178.125,108.54375 177.28125,109.51875 C176.415089,110.522243 175.758452,111.688889 175.35,112.95 C174.91875,114.2625 174.7125,115.6875 174.7125,117.20625 C174.7125,120.4875 175.59375,123.15 177.35625,125.08125 C179.1,127.03125 181.74375,128.025 185.175,128.025 C187.2,128.025 189.28125,127.6125 190.78125,127.03125 C190.78125,127.03125 191.0625,126.9 190.95,126.5625 L189.95625,123.9 Z M196.89375,115.05 C197.08125,113.775 197.4375,112.70625 197.98125,111.88125 C198.80625,110.625 200.04375,109.93125 201.80625,109.93125 C203.56875,109.93125 204.73125,110.625 205.55625,111.88125 C206.11875,112.70625 206.34375,113.8125 206.4375,115.05 L196.89375,115.05 Z M210.20625,112.25625 C209.86875,110.98125 209.04375,109.70625 208.48125,109.125 C207.61875,108.1875 206.775,107.55 205.93125,107.19375 C204.715254,106.679931 203.407581,106.418396 202.0875,106.424878 C200.41875,106.424878 198.9,106.70625 197.6625,107.2875 C196.425,107.86875 195.39375,108.65625 194.56875,109.65 C193.7625,110.625 193.14375,111.80625 192.75,113.11875 C192.35625,114.43125 192.16875,115.875 192.16875,117.39375 C192.16875,118.93125 192.375,120.375 192.76875,121.66875 C193.18125,122.98125 193.8375,124.125 194.71875,125.08125 C195.6,126.0375 196.725,126.7875 198.09375,127.3125 C199.44375,127.8375 201.075,128.1 202.95,128.1 C206.8125,128.08125 208.85625,127.21875 209.7,126.76875 C209.85,126.69375 209.98125,126.54375 209.8125,126.13125 L208.93125,123.675 C208.8,123.31875 208.425,123.45 208.425,123.45 C207.46875,123.80625 206.1,124.44375 202.93125,124.44375 C200.85,124.44375 199.3125,123.825 198.35625,122.86875 C197.3625,121.89375 196.875,120.45 196.8,118.40625 L210.20625,118.425 C210.20625,118.425 210.5625,118.425 210.6,118.06875 C210.61875,117.88125 211.06875,115.275 210.20625,112.25625 M89.56875,115.05 C89.75625,113.775 90.1125,112.70625 90.65625,111.88125 C91.48125,110.625 92.71875,109.93125 94.48125,109.93125 C96.24375,109.93125 97.40625,110.625 98.23125,111.88125 C98.775,112.70625 99.01875,113.8125 99.1125,115.05 L89.56875,115.05 Z M102.9,112.25625 C102.5625,110.98125 101.7375,109.70625 101.19375,109.125 C100.33125,108.1875 99.4875,107.55 98.64375,107.19375 C97.427754,106.679931 96.1200806,106.418396 94.8,106.424878 C93.13125,106.424878 91.6125,106.70625 90.375,107.2875 C89.1375,107.86875 88.10625,108.65625 87.28125,109.65 C86.475,110.625 85.85625,111.80625 85.4625,113.11875 C85.06875,114.43125 84.88125,115.875 84.88125,117.39375 C84.88125,118.93125 85.0875,120.375 85.48125,121.66875 C85.89375,122.98125 86.55,124.125 87.43125,125.08125 C88.3125,126.0375 89.4375,126.7875 90.80625,127.3125 C92.15625,127.8375 93.7875,128.1 95.6625,128.1 C99.525,128.08125 101.56875,127.21875 102.4125,126.76875 C102.5625,126.69375 102.69375,126.54375 102.525,126.13125 L101.64375,123.675 C101.5125,123.31875 101.1375,123.45 101.1375,123.45 C100.18125,123.80625 98.8125,124.44375 95.64375,124.44375 C93.5625,124.44375 92.025,123.825 91.06875,122.86875 C90.075,121.89375 89.5875,120.45 89.5125,118.40625 L102.91875,118.425 C102.91875,118.425 103.275,118.425 103.3125,118.06875 C103.3125,117.88125 103.7625,115.275 102.9,112.25625 M60.6,123.825 C60.075,123.4125 60,123.3 59.83125,123.0375 C59.56875,122.625 59.4375,122.04375 59.4375,121.29375 C59.4375,120.1125 59.83125,119.26875 60.6375,118.70625 C60.61875,118.70625 61.78125,117.69375 64.51875,117.73125 C66.43125,117.75 68.15625,118.05 68.15625,118.05 L68.15625,124.14375 C68.15625,124.14375 66.45,124.5 64.5375,124.63125 C61.8,124.78125 60.6,123.825 60.6,123.825 M65.94375,114.4125 C65.4,114.375 64.6875,114.35625 63.84375,114.35625 C62.7,114.35625 61.59375,114.50625 60.54375,114.7875 C59.49375,115.06875 58.55625,115.5 57.75,116.08125 C56.94375,116.6625 56.2875,117.4125 55.8,118.29375 C55.33125,119.175 55.0875,120.225 55.0875,121.3875 C55.0875,122.56875 55.29375,123.6 55.70625,124.44375 C56.11875,125.2875 56.7,126 57.45,126.54375 C58.2,127.0875 59.11875,127.48125 60.1875,127.725 C61.2375,127.96875 62.4375,128.08125 63.73125,128.08125 C65.1,128.08125 66.46875,127.96875 67.8,127.74375 C69.1125,127.51875 70.725,127.2 71.175,127.0875 C71.625,126.975 72.1125,126.84375 72.1125,126.84375 C72.45,126.76875 72.4125,126.4125 72.4125,126.4125 L72.4125,114.15 C72.4125,111.46875 71.7,109.4625 70.275,108.24375 C68.86875,107.00625 66.80625,106.3875 64.125,106.3875 C63.1125,106.3875 61.5,106.51875 60.54375,106.725 C60.54375,106.725 57.61875,107.2875 56.41875,108.225 C56.41875,108.225 56.15625,108.39375 56.30625,108.75 L57.2625,111.3 C57.375,111.6375 57.69375,111.525 57.69375,111.525 C57.69375,111.525 57.7875,111.4875 57.91875,111.4125 C60.50625,110.00625 63.75,110.04375 63.75,110.04375 C65.19375,110.04375 66.31875,110.325 67.06875,110.90625 C67.8,111.46875 68.175,112.3125 68.175,114.09375 L68.175,114.65625 C66.99375,114.50625 65.94375,114.4125 65.94375,114.4125 M174.01875,107.5125 C174.095996,107.32093 174.003779,107.102964 173.8125,107.025 C173.5875,106.93125 172.44375,106.6875 171.5625,106.63125 C169.875,106.5375 168.9375,106.81875 168.1125,107.19375 C167.2875,107.56875 166.36875,108.16875 165.84375,108.8625 L165.84375,107.23125 C165.84375,107.00625 165.675,106.81875 165.45,106.81875 L162.01875,106.81875 C161.79375,106.81875 161.625,107.00625 161.625,107.23125 L161.625,127.21875 C161.625,127.44375 161.8125,127.63125 162.0375,127.63125 L165.5625,127.63125 C165.7875,127.63125 165.975,127.44375 165.975,127.21875 L165.975,117.225 C165.975,115.89375 166.125,114.54375 166.425,113.7 C166.70625,112.875 167.11875,112.2 167.60625,111.73125 C168.09375,111.2625 168.65625,110.925 169.25625,110.7375 C169.875,110.55 170.56875,110.475 171.05625,110.475 C171.75,110.475 172.5375,110.6625 172.5375,110.6625 C172.8,110.7 172.93125,110.53125 173.025,110.30625 C173.23125,109.70625 173.8875,107.86875 174.01875,107.5125" id="Shape" fill="#FFFFFF" fill-rule="nonzero"></path>
            <path d="M140.9625,98.25 C140.53125,98.11875 140.1375,98.025 139.63125,97.93125 C139.125,97.8375 138.50625,97.8 137.8125,97.8 C135.39375,97.8 133.48125,98.49375 132.13125,99.84375 C130.8,101.19375 129.9,103.2375 129.43125,105.91875 L129.2625,106.81875 L126.225,106.81875 C126.225,106.81875 125.85,106.8 125.775,107.2125 L125.26875,110.00625 C125.23125,110.26875 125.34375,110.4375 125.7,110.4375 L128.6625,110.4375 L125.6625,127.2 C125.4375,128.55 125.15625,129.65625 124.85625,130.5 C124.55625,131.325 124.275,131.94375 123.91875,132.4125 C123.58125,132.84375 123.2625,133.1625 122.7,133.35 C122.23125,133.5 121.70625,133.575 121.125,133.575 C120.80625,133.575 120.375,133.51875 120.05625,133.4625 C119.7375,133.40625 119.56875,133.33125 119.325,133.2375 C119.325,133.2375 118.9875,133.10625 118.8375,133.44375 C118.725,133.725 117.9375,135.9 117.84375,136.1625 C117.75,136.425 117.88125,136.63125 118.05,136.70625 C118.44375,136.8375 118.74375,136.93125 119.26875,137.0625 C120.01875,137.23125 120.6375,137.25 121.2375,137.25 C122.475,137.25 123.6,137.08125 124.51875,136.74375 C125.45625,136.40625 126.2625,135.80625 126.99375,135.01875 C127.78125,134.15625 128.26875,133.25625 128.7375,132.01875 C129.20625,130.8 129.6,129.28125 129.91875,127.51875 L132.9375,110.4375 L137.34375,110.4375 C137.34375,110.4375 137.71875,110.45625 137.79375,110.04375 L138.3,107.25 C138.3375,106.9875 138.225,106.81875 137.86875,106.81875 L133.575,106.81875 C133.59375,106.725 133.8,105.20625 134.2875,103.8 C134.49375,103.2 134.8875,102.7125 135.225,102.375 C135.5625,102.0375 135.9375,101.8125 136.35,101.68125 C136.78125,101.55 137.25,101.475 137.79375,101.475 C138.1875,101.475 138.6,101.5125 138.9,101.5875 C139.3125,101.68125 139.48125,101.71875 139.59375,101.75625 C140.025,101.8875 140.1,101.75625 140.175,101.55 L141.20625,98.7375 C141.31875,98.41875 141.05625,98.2875 140.9625,98.25 M81.1125,127.21875 C81.1125,127.44375 80.94375,127.63125 80.71875,127.63125 L77.15625,127.63125 C76.93125,127.63125 76.78125,127.44375 76.78125,127.21875 L76.78125,98.625 C76.78125,98.4 76.93125,98.2125 77.15625,98.2125 L80.71875,98.2125 C80.94375,98.2125 81.1125,98.4 81.1125,98.625 L81.1125,127.21875 Z" id="Shape" fill="#FFFFFF" fill-rule="nonzero"></path>
        </g>
    </g>
</svg>