<?xml version="1.0" encoding="UTF-8"?>
<svg width="240px" height="240px" viewBox="0 0 240 240" version="1.1" xmlns="http://www.w3.org/2000/svg" xmlns:xlink="http://www.w3.org/1999/xlink">
    <title>samsung</title>
    <g id="Page-1" stroke="none" stroke-width="1" fill="none" fill-rule="evenodd">
        <g id="samsung">
            <rect id="box" fill="#FFFFFF" x="0" y="0" width="240" height="240" rx="32"></rect>
            <path d="M22,127.572895 L22,125.365368 L29.4209287,125.365368 L29.4209287,128.168421 C29.3971709,128.90409 29.6892634,129.614076 30.2216749,130.114786 C30.7540865,130.615497 31.4745387,130.857766 32.1967327,130.778947 C33.4593197,130.93923 34.6300679,130.085215 34.8807614,128.821053 C35.0795249,128.113565 35.0626882,127.361728 34.8324585,126.664105 C33.3930335,122.908211 23.5795034,121.203211 22.3348998,115.332789 C22.0807496,114.041657 22.064918,112.713978 22.288207,111.417 C23.0530022,106.705 27.0267171,105 31.9568286,105 C35.8822406,105 41.2953806,105.954474 41.2953806,112.273579 L41.2953806,114.331 L34.3977328,114.331 L34.3977328,112.524842 C34.4506863,111.815944 34.1951816,111.119013 33.6983272,110.617098 C33.2014729,110.115182 32.5129248,109.858444 31.8135301,109.914316 C30.5920837,109.791133 29.4846299,110.646166 29.2776302,111.872211 C29.2002863,112.372269 29.2166735,112.882621 29.325933,113.376526 C30.1309806,116.735947 40.6239709,118.543737 41.7719687,124.613211 C42.0594318,126.187131 42.0752303,127.799659 41.8186615,129.379053 C41.1472518,134.193842 37.0318485,136 32.0534343,136 C26.8302855,136 22,134.042105 22,127.572895 Z M113,127.587857 L113,125.359562 L120.394066,125.359562 L120.394066,128.146579 C120.358042,128.884586 120.642434,129.601598 121.172356,130.108811 C121.702278,130.616025 122.424616,130.862602 123.149165,130.783614 C124.410075,130.96305 125.592695,130.121844 125.8555,128.858578 C126.055838,128.160713 126.03938,127.417221 125.808363,126.729172 C124.40562,122.981286 114.592918,121.258972 113.339714,115.328938 C113.083218,114.043061 113.066679,112.719829 113.290951,111.427774 C114.064655,106.715721 118.076208,105 122.955739,105 C126.871392,105 132.284063,106.013611 132.284063,112.296347 L132.284063,114.323569 L125.372749,114.323569 L125.372749,112.540273 C125.42841,111.83238 125.178104,111.134875 124.686796,110.628792 C124.195489,110.12271 123.511626,109.857953 122.812701,109.903238 C121.6017,109.758598 120.493487,110.607555 120.299792,111.828274 C120.220982,112.333294 120.236975,112.848865 120.346929,113.347865 C121.119007,116.744697 131.60626,118.518103 132.770066,124.598118 C133.059905,126.170867 133.075858,127.782934 132.817203,129.361263 C132.141026,134.226594 128.033572,136 123.056515,136 C117.834019,136 113,134.023872 113,127.587857 L113,127.587857 Z M140.068598,128.786948 C139.999029,128.149868 139.982339,127.508253 140.018695,126.868496 L140.018695,106 L147.239711,106 L147.239711,127.524377 C147.230423,127.895052 147.24654,128.265922 147.287951,128.634456 C147.590013,129.874314 148.714942,130.748419 150.008516,130.748419 C151.302089,130.748419 152.427018,129.874314 152.72908,128.634456 C152.771941,128.266028 152.788616,127.895097 152.778984,127.524377 L152.778984,106 L160,106 L160,126.868496 C160,127.424355 159.950097,128.481963 159.950097,128.785308 C159.451063,134.227481 155.250864,136 150.009347,136 C144.767831,136 140.564305,134.229121 140.068598,128.785308 L140.068598,128.786948 Z M198.097716,127.935844 C198.026292,127.308164 197.993967,126.67675 198.000924,126.045163 L198.000924,113.958075 C198.000924,113.459505 198.0485,112.564345 198.097716,112.065775 C198.730963,106.693196 202.975029,105 208,105 C212.975735,105 217.364169,106.691577 217.853048,112.065775 C217.911502,112.694798 217.927395,113.326966 217.900624,113.958075 L217.900624,114.903416 L210.780698,114.903416 L210.780698,113.310581 C210.781748,112.943164 210.749354,112.576397 210.683907,112.214698 C210.329037,110.975926 209.183237,110.120626 207.87859,110.120626 C206.573944,110.120626 205.428144,110.975926 205.073274,112.214698 C204.991014,112.657125 204.958553,113.107166 204.976483,113.556629 L204.976483,126.695894 C204.968246,127.061861 204.984688,127.427963 205.025699,127.791777 C205.357315,129.118034 206.621338,130.006157 208,129.881563 C209.358624,130.009916 210.597863,129.109918 210.87749,127.791777 C210.943156,127.430261 210.959707,127.061724 210.926706,126.695894 L210.926706,122.509847 L208.049206,122.509847 L208.049206,118.328657 L217.999056,118.328657 L217.999056,126.041925 C218.006148,126.673559 217.973273,127.305014 217.900624,127.932607 C217.408463,133.157881 212.979016,135 207.99835,135 C203.017683,135 198.584955,133.159499 198.097716,127.935844 Z M99.0446007,135 L98.8429006,108.114242 L94.0069787,135 L86.9458495,135 L82.1570994,108.114242 L81.965159,135 L75,135 L75.5790744,106 L86.9458495,106 L90.4739742,128.655636 L94.0069787,106 L105.372127,106 L106,135 L99.0446007,135 Z M62.4059094,135 L58.5742255,108.114242 L54.6485227,135 L47,135 L52.1957831,106 L64.800918,106 L70,135 L62.4059094,135 Z M180.813441,135 L173.63125,110.630336 L174.027394,135 L167,135 L167,106 L177.591026,106 L184.322144,129.606768 L183.924336,106 L191,106 L191,135 L180.813441,135 Z" id="Shape" fill="#1428A0" fill-rule="nonzero"></path>
        </g>
    </g>
</svg>