<?xml version="1.0" encoding="UTF-8"?>
<svg width="240px" height="240px" viewBox="0 0 240 240" version="1.1" xmlns="http://www.w3.org/2000/svg" xmlns:xlink="http://www.w3.org/1999/xlink">
    <title>sans</title>
    <g id="Page-1" stroke="none" stroke-width="1" fill="none" fill-rule="evenodd">
        <g id="sans">
            <circle id="Oval" fill="#004F6E" cx="120" cy="120" r="120"></circle>
            <path d="M42.4025175,109.873561 C34.3629938,97.5590909 27.000934,89.844829 27.000934,81.3187656 C27.000934,75.0949541 30.1352763,71.2678899 35.0447454,71.2678899 C42.2653096,71.2678899 48.2595784,82.2379483 49.8932097,101.682527 L52.1742905,101.682527 L52.1742905,70.3530025 L49.8932097,70.3530025 L46.8960752,76.3105088 C43.6288128,71.8434529 39.2638874,69 35.0447454,69 C26.730806,69.0042952 20.0547855,77.1910342 20.0547855,91.6703086 C20.0547855,106.961384 26.730806,117.278565 34.6331218,129.189283 C43.2171892,142.040659 48.2595784,151.601877 48.2595784,159.316138 C48.2595784,165.402502 44.5806924,168.830108 39.675511,168.830108 C30.6841077,168.830108 22.6445841,156.781943 21.8256246,133.553253 L19,133.553253 L19,171.364304 L21.8256246,171.364304 L25.5045106,164.165471 C30.1352763,169.577481 34.4959139,172 40.2200548,172 C50.0304175,172 56.9808537,162.249791 56.9808537,146.417515 C56.9808537,133.694996 51.119505,122.999833 42.4025175,109.873561 M203.69037,169.293995 C195.783766,169.293995 188.610367,159.483653 186.445055,142.195288 L206.687504,142.195288 C210.289211,148.681109 212.278725,154.449625 212.278725,159.290367 C212.278725,165.381026 208.599839,169.29829 203.69037,169.29829 L203.69037,169.293995 Z M131.115981,138.956672 L131.115981,87.4094245 L153.58377,138.952377 L131.115981,138.952377 L131.115981,138.956672 Z M127.308463,153.311384 C127.308463,162.915555 127.265586,167.584487 120.448069,167.584487 L116.134597,167.584487 L111.692492,142.199583 L127.308463,142.199583 L127.308463,153.311384 Z M79.1270616,138.956672 L87.6553883,88.8225605 L95.9092993,138.956672 L79.1270616,138.956672 Z M206.417376,109.873561 C198.38214,97.5590909 191.024368,89.844829 191.024368,81.3187656 C191.024368,75.0949541 194.154423,71.2678899 199.059604,71.2678899 C206.284456,71.2678899 212.278725,82.2379483 213.912356,101.682527 L215.961898,101.682527 L215.961898,70.3530025 L213.912356,70.3530025 L210.915221,76.3105088 C207.647959,71.8434529 203.287321,69 199.059604,69 C190.749952,69 184.073932,77.1867389 184.073932,91.6660133 C184.073932,106.957089 190.749952,117.574937 198.652268,129.485655 C200.851882,132.780108 202.819957,136.250667 204.52648,138.952377 L186.063446,138.952377 C185.964828,136.791868 185.891936,136.250667 185.844771,133.548957 L182.787608,133.548957 L182.787608,138.952377 L169.731422,138.952377 L169.731422,84.7034195 C169.731422,76.1773561 170.275965,73.0633028 177.346458,73.2007506 L177.346458,70.3530025 L156.134979,70.3530025 L156.134979,73.2007506 C162.660928,73.2007506 165.383647,77.1266055 165.383647,86.056422 L165.383647,130.851543 L141.157882,70.3530025 L121.32277,70.3530025 L121.32277,73.0590075 L127.304175,73.0590075 L127.304175,138.956672 L111.023604,138.956672 L99.0950946,70.3530025 L87.1022691,70.3530025 L70.495829,153.646414 C68.85791,162.035029 69.1194625,166.300209 60.959882,167.520058 L60.959882,170.286197 L83.256161,170.286197 L83.256161,167.520058 C77.2790431,167.382611 75.6496996,165.759008 75.6496996,161.429399 C75.6496996,159.535196 75.795483,157.903003 75.9284031,156.687448 L78.3938571,142.195288 L96.6510794,142.195288 L100.741589,167.584487 L93.0493728,167.584487 L93.0493728,170.286197 L142.542824,170.286197 L142.542824,167.520058 C134.927788,166.978857 131.120269,162.644954 131.120269,152.499583 L131.120269,142.190992 L155.161661,142.190992 L166.91866,170.281902 L169.735709,170.281902 L169.735709,142.190992 L182.791896,142.190992 L182.791896,171.360008 L185.849059,171.360008 L189.527945,164.161176 C194.154423,169.577481 198.51506,172 204.239201,172 C214.049564,172 221,162.249791 221,146.417515 C221,133.694996 215.138651,122.999833 206.421664,109.873561 L206.417376,109.873561 Z" id="Shape" fill="#FFFFFF"></path>
        </g>
    </g>
</svg>