<?xml version="1.0" encoding="UTF-8"?>
<svg width="240px" height="240px" viewBox="0 0 240 240" version="1.1" xmlns="http://www.w3.org/2000/svg" xmlns:xlink="http://www.w3.org/1999/xlink">
    <title>sass</title>
    <g id="Page-1" stroke="none" stroke-width="1" fill="none" fill-rule="evenodd">
        <g id="sass">
            <rect id="ViewBox" x="0" y="0" width="240" height="240"></rect>
            <path d="M2.285625,105.2925 C2.285625,106.610625 2.67375,107.480625 2.89125,108.32625 C4.30875,113.825625 7.355625,118.545 10.970625,122.85 C16.119375,128.985 22.425,133.92375 28.884375,138.568125 C34.486875,142.595625 40.20375,146.533125 45.82875,150.530625 C46.794375,151.216875 47.7075,152.00625 48.755625,152.848125 C47.85375,153.335625 47.10375,153.765 46.32375,154.160625 C38.900625,157.925625 31.75875,162.14625 25.175625,167.259375 C21.208125,170.341875 17.371875,173.6175 14.6625,177.898125 C10.303125,184.783125 8.76,192.118125 12.009375,199.95 C12.958125,202.2375 14.405625,204.21375 16.4475,205.674375 C17.109375,206.146875 17.851875,206.615625 18.62625,206.799375 C20.61,207.26625 22.63125,207.571875 24.639375,207.94125 L30.32625,207.9375 C36.615,207.376875 42.339375,205.2225 47.5125,201.6525 C55.5975,196.0725 61.044375,188.59125 63.38625,178.989375 C65.08875,172.010625 65.158125,165.024375 63.151875,158.0775 C62.9591108,157.434162 62.7376391,156.799776 62.488125,156.17625 C62.244375,155.551875 61.9575,154.944375 61.62,154.16625 L74.5125,146.7525 L74.705625,146.9175 C74.47125,147.684375 74.221875,148.449375 74.01,149.22375 C72.478125,154.81875 71.46,160.51125 71.825625,166.318125 C72.215625,172.505625 73.9425,178.2975 77.565,183.466875 C80.49375,187.648125 87.4725,187.80375 90.585,183.6075 C91.689375,182.116875 92.76,180.55875 93.564375,178.895625 C95.66625,174.555 97.6125,170.1375 99.620625,165.75 L99.97125,164.9475 C99.826875,167.025 99.658125,168.849375 99.58125,170.675625 C99.46125,173.5275 99.628125,176.3625 100.603125,179.075625 C101.4375,181.396875 102.856875,183.13125 105.515625,183.436875 C107.334375,183.645 108.78375,182.8125 110.120625,181.756875 C112.191135,180.11961 113.90768,178.079019 115.16625,175.75875 C118.730625,169.213125 122.390625,162.706875 125.62125,155.99625 C129.11625,148.738125 132.1725,141.268125 135.418125,133.88625 L135.954375,132.5775 C136.72125,135.590625 137.255625,138.541875 138.24,141.335625 C139.38375,144.5775 140.799375,147.7425 142.340625,150.819375 C143.07,152.2725 142.985625,153.215625 141.975,154.434375 C137.745,159.534375 133.588125,164.69625 129.4275,169.8525 C128.506875,170.990625 127.59,172.149375 126.823125,173.3925 C126.357841,174.177511 126.052002,175.046605 125.923125,175.95 C125.654977,177.678319 126.799785,179.309858 128.51625,179.645625 C130.183418,180.003676 131.892655,180.125494 133.59375,180.0075 C139.400625,179.58 144.673125,177.541875 149.334375,174.088125 C155.37375,169.614375 157.3125,163.509375 155.85,156.27375 C155.454375,154.310625 154.755,152.401875 154.074375,150.51 C153.76875,149.656875 153.748125,149.05875 154.305,148.26375 C159.133125,141.369375 163.258125,134.055 167.094375,126.571875 C167.24625,126.2775 167.401875,125.983125 167.668125,125.668125 C168.91125,132.136875 170.7825,138.37125 174.135,144.028125 C172.425,145.67625 170.731875,147.170625 169.2,148.816875 C165.826875,152.443125 162.901875,156.380625 161.375625,161.1825 C160.719375,163.2525 160.215,165.35625 160.5075,167.566875 C160.96125,171 163.77375,173.23125 167.150625,172.449375 C174.376875,170.776875 180.615,167.371875 185.173125,161.34 C188.240625,157.27875 188.52,152.74875 187.235625,148.003125 C186.883125,146.713125 186.465,145.44375 186.015,143.964375 C187.798125,143.41125 189.53625,142.7475 191.334375,142.336875 C200.67,140.206875 209.904375,140.578125 218.900625,143.949375 C224.1525,145.918125 228.395625,149.2125 230.911875,154.395 C233.985,160.730625 232.28625,166.741875 226.314375,170.746875 C225.7575,171.12 225.12,171.414375 224.65875,171.88125 C224.360213,172.227618 224.220762,172.683385 224.274375,173.1375 C224.31375,173.368125 224.923125,173.656875 225.27375,173.653125 C227.236875,173.638125 228.82875,172.60875 230.356875,171.55125 C234.185625,168.901875 236.979375,165.3375 237.58125,160.644375 L237.699375,160.291875 L237.555,157.235625 C237.496875,157.059375 237.598125,156.885 237.585,156.751875 C236.77125,149.9175 233.120625,144.616875 227.810625,140.461875 C221.660625,135.6525 214.39875,133.6725 206.71875,133.359375 C200.489998,133.091268 194.26921,134.048753 188.409375,136.1775 C186.7275,136.786875 185.060625,137.50875 183.369375,138.189375 C183.1425,137.77875 182.89875,137.385 182.698125,136.978125 C180.961875,133.423125 178.858125,130.025625 178.393125,125.949375 C178.063125,123.054375 177.658125,120.163125 178.34625,117.3 C179.008125,114.545625 179.870625,111.838125 180.6825,109.12125 C181.100625,107.7225 180.80625,106.93875 179.47125,106.30875 C179.004696,106.080217 178.508732,105.917419 177.9975,105.825 C174.71625,105.34875 171.48,105.620625 168.301875,106.545 C167.176875,106.873125 166.359375,107.503125 166.11,108.748125 C165.9675,109.4625 165.676875,110.146875 165.474375,110.851875 C164.64375,113.7825 164.055,116.769375 162.7125,119.56125 C159.34875,126.564375 155.50875,133.303125 151.57875,139.993125 C151.153125,140.715 150.705,141.42375 150.16875,142.299375 C148.78875,139.411875 147.316875,136.820625 146.870625,133.783125 C146.36625,130.348125 145.96875,126.91875 146.82375,123.51 C147.459375,120.9675 148.29,118.471875 149.055,115.963125 C149.416875,114.770625 149.25,114.144375 148.17,113.51625 C147.624375,113.199375 147.0075,112.918125 146.3925,112.82625 C143.027988,112.313543 139.590197,112.594782 136.35375,113.6475 C135.335625,113.9775 134.80125,114.635625 134.49,115.685625 C133.575,118.783125 132.795,121.955625 131.510625,124.90125 C126.309375,136.82625 120.958125,148.689375 115.6125,160.550625 C114.496875,163.0275 113.19,165.418125 111.931875,167.829375 C111.613125,168.440625 111.148125,168.97875 110.750625,169.5525 C110.431875,169.175625 110.308125,168.916875 110.31,168.658125 C110.319375,167.13375 110.1375,165.564375 110.428125,164.090625 C111.320457,159.633394 112.306928,155.195527 113.386875,150.78 C114.268125,147.13125 115.29375,143.51625 116.270625,139.891875 C116.59875,138.67875 116.604375,137.544375 115.7325,136.524375 C114.268125,134.81625 111.208125,134.44125 109.393125,135.7575 L108.590625,136.21125 L108.74625,134.9175 C109.12875,132.144375 109.205625,129.380625 108.444375,126.64875 C107.495625,123.24375 105.065625,121.284375 101.533125,121.393125 C99.886875,121.44375 98.158125,121.725 96.63375,122.325 C90.223125,124.8375 85.29375,129.286875 81.0975,134.64 C80.7082128,135.136775 80.2261666,135.553232 79.678125,135.86625 C74.25375,138.87375 68.8125,141.84375 63.373125,144.825 L57.31875,148.141875 C55.695,146.593125 54.219375,144.98625 52.545,143.623125 C47.431875,139.453125 42.23625,135.38625 37.0875,131.263125 C32.52375,127.60875 28.1025,123.8025 24.72,118.963125 C22.20375,115.363125 20.581875,111.42375 20.42625,106.9725 C20.229375,101.300625 21.838125,96.118125 24.725625,91.29375 C28.419375,85.12125 33.4575,80.1675 38.99625,75.680625 C44.855625,70.936875 51.193125,66.909375 57.76125,63.2325 C66.950625,58.089375 76.4025,53.536875 86.536875,50.53125 C96.928125,47.44875 107.47125,45.684375 118.34625,46.914375 C122.62125,47.398125 126.7725,48.376875 130.584375,50.4675 C133.50375,52.066875 135.898125,54.16125 137.011875,57.435 C138.110625,60.65625 138.076875,63.920625 137.315625,67.1925 C135.76875,73.81875 132.140625,79.280625 127.575,84.16125 C120.08625,92.161875 110.95125,97.60875 100.666875,101.206875 C94.753524,103.277979 88.6012599,104.590336 82.3575,105.1125 C77.240625,105.541875 72.230625,105.088125 67.385625,103.30875 C64.1775,102.129375 61.38375,100.325625 59.1375,97.708125 C58.73625,97.239375 58.2225,96.73125 57.474375,97.17 C56.74125,97.60125 56.611875,98.29875 56.8575,99.005625 C57.268125,100.179375 57.646875,101.401875 58.28625,102.451875 C59.893125,105.08625 62.236875,106.996875 64.816875,108.635625 C69.7725,111.7875 75.31125,112.846875 81.054375,113.0925 C89.769375,113.469375 98.2725,112.168125 106.655625,109.83 C118.62375,106.4925 129.03,100.5975 137.375625,91.2975 C144.324375,83.55375 149.2875,74.814375 150.350625,64.261875 C150.87,59.11125 150.316875,54.065625 147.905625,49.366875 C145.29,44.27625 141.13125,40.490625 136.15875,37.8825 C128.9175,34.085625 121.1025,31.875 113.03625,31.875 L104.955,31.875 C95.18625,31.875 85.741875,34.674375 76.561875,38.01375 C69.613125,40.543125 62.799375,43.528125 56.184375,46.831875 C41.77875,54.03 28.363125,62.709375 17.34375,74.64375 C11.85375,80.589375 7.205625,87.15 4.531875,94.875 C3.7262712,97.1818139 3.03110702,99.5257249 2.44875,101.89875 M54.646875,169.423125 C54.0225,177.78375 50.233125,184.561875 44.04,190.051875 C40.55625,193.138125 36.560625,195.335625 31.906875,196.108125 C30.219375,196.3875 28.4925,196.455 26.855625,195.755625 C24.52125,194.758125 23.998125,192.68625 23.953125,190.479375 C23.88375,186.961875 25.115625,183.781875 26.805,180.755625 C29.01,176.810625 32.2425,173.803125 35.694375,170.994375 C41.131875,166.5675 47.030625,162.82125 53.071875,159.285 L53.5275,159.0975 C54.46125,162.5475 54.905625,165.954375 54.646875,169.423125 M101.818125,133.0875 C101.3775,135.7575 100.82625,138.429375 100.04625,141.016875 C97.35,149.97375 93.886875,158.653125 90.1425,167.21625 C89.450625,168.800625 88.44375,170.24625 87.568125,171.748125 C87.4189795,171.978872 87.2406261,172.189366 87.0375,172.374375 C85.95375,173.445 84.92625,173.38875 84.37875,171.988125 C83.74125,170.360625 83.349375,168.61875 83.011875,166.895625 C82.785,165.73875 82.839375,164.52375 82.768125,163.33875 C82.84125,154.9125 85.411875,147.255 89.773125,140.12625 C91.57125,137.18625 93.52875,134.385 96.519375,132.525 C97.4500483,131.947216 98.4565679,131.501697 99.51,131.20125 C101.10375,130.753125 102.0825,131.49 101.818125,133.0875 M134.000625,174.09 L145.5675,160.584375 C146.049375,165.6 137.52375,175.6125 134.000625,174.09 M170.94375,165.001875 C170.12625,165.470625 169.235625,165.808125 168.3975,166.24125 C167.630625,166.63875 167.3775,166.2375 167.355,165.5775 C167.344143,165.120635 167.402943,164.664782 167.529375,164.225625 C169.09125,158.716875 171.965625,154.014375 176.2425,150.189375 L176.5425,150.035625 C178.576875,155.72625 176.225625,161.975625 170.94375,165.001875" id="Shape" fill="#CB6699"></path>
        </g>
    </g>
</svg>