<?xml version="1.0" encoding="UTF-8"?>
<svg width="242px" height="243px" viewBox="0 0 242 243" version="1.1" xmlns="http://www.w3.org/2000/svg" xmlns:xlink="http://www.w3.org/1999/xlink">
    <title>scaleway</title>
    <g id="Page-1" stroke="none" stroke-width="1" fill="none" fill-rule="evenodd">
        <g id="scaleway" transform="translate(0, 0.0136)">
            <rect id="box" fill="#110B1E" x="0" y="0" width="242" height="242" rx="32"></rect>
            <g id="logo" transform="translate(60, 47.9864)" fill="#FFFFFF" fill-rule="nonzero">
                <path d="M55.8766553,111.999607 L79.5695011,111.999607 C84.7521235,111.364164 88.7317647,107.051971 89,101.780664 L89,67.4044858 C89,62.844573 85.3248105,59.1523169 80.791455,59.1523169 C76.2627634,59.1523169 72.5875739,62.844573 72.5875739,67.4044858 L72.5875739,89.2279361 C72.5569679,92.6317363 69.8258332,95.3783647 66.4591488,95.3911275 L55.7647206,95.3911275 C51.2460961,95.3962536 47.5792531,99.0889033 47.5561756,103.657443 L47.5561756,103.770616 C47.6125217,108.36328 51.33409,112.043749 55.8766553,111.999607 L55.8766553,111.999607 Z M41.6749396,86.7994726 C39.3803848,86.8057023 37.1773497,85.8901143 35.5504812,84.2540973 C33.9236126,82.6180804 33.0061764,80.3956498 33,78.0757192 L33,43.7042565 C33.2928318,38.1893946 37.4526877,33.6795682 42.8735737,33.0000072 L66.6223869,33.0000072 C71.4079169,32.9938901 75.3173543,36.8626861 75.4139252,41.7001584 C75.4372449,44.0343433 74.5371034,46.2836488 72.9093862,47.9435136 C71.2770051,49.608094 69.0569668,50.5464835 66.7343216,50.5559146 L55.983926,50.5559146 C52.8590822,50.5559146 50.3265595,53.1022981 50.3265595,56.2475534 L50.3265595,78.0710037 C50.3265595,82.8808393 46.4554843,86.7852941 41.6702757,86.7947252 L41.6749396,86.7994726 Z" id="Shape"></path>
                <path d="M66.5697083,33 L42.564169,33 C37.30679,33.6233003 33.269244,37.9234153 33.0092083,43.1763375 L33.0092083,77.3947416 C32.8652714,80.4252711 34.4176157,83.2871017 37.0447852,84.8345455 C39.6761528,86.3884848 42.9523958,86.3884848 45.5837634,84.8345455 C48.2158668,83.2761765 49.7658308,80.4222959 49.6193403,77.3947416 L49.6193403,55.6526774 C49.6146148,54.0239001 50.2667338,52.4608372 51.4339322,51.3155299 C52.6019851,50.1644662 54.1833147,49.5226546 55.8286471,49.5318545 L66.6831203,49.5318545 C71.252228,49.5268462 74.9636988,45.8653441 75,41.3269477 L75,41.2096007 C74.902421,36.6523277 71.158711,33.0066218 66.5697083,33 L66.5697083,33 Z" id="Path"></path>
                <path d="M70.8854286,17.5435256 C80.0563733,17.5295845 88.8579664,21.1437862 95.3572742,27.5924092 C101.833472,34.0191745 105.460751,42.7610177 105.430777,51.8693852 L105.430777,117.722443 C104.603915,122.302451 100.911596,125.8307 96.2854516,126.461234 L52.1098598,126.461234 C42.9564195,126.470642 34.1715345,122.867866 27.6757067,116.440506 C21.2055666,110.032401 17.5693649,101.315551 17.574116,92.224575 L17.574116,28.1934639 C17.5685725,22.3190522 22.3095781,17.5353213 28.2034015,17.4683937 L70.8854286,17.5435256 Z M71.0361986,0.0001199065 L27.5343599,0.0001199065 C12.3254424,0.0331109771 0.00942312112,12.2561223 0,27.324752 L0,92.5485811 C0.00239715795,106.221146 5.48246244,119.326774 15.2230522,128.954654 C24.9980708,138.616819 38.2153737,144.026462 51.9826477,143.999903 L97.9816134,143.999903 C111.089175,142.952655 121.595955,132.809856 123,119.849614 L123,51.3622453 C122.982469,37.7041456 117.495958,24.6179193 107.758102,15.0078259 C97.9896844,5.3662779 84.7889275,-0.0293277013 71.0409101,0.0001199065 L71.0361986,0.0001199065 Z" id="Shape"></path>
            </g>
        </g>
    </g>
</svg>