<?xml version="1.0" encoding="UTF-8"?>
<svg width="240px" height="241px" viewBox="0 0 240 241" version="1.1" xmlns="http://www.w3.org/2000/svg" xmlns:xlink="http://www.w3.org/1999/xlink">
    <title>scala</title>
    <g id="Page-1" stroke="none" stroke-width="1" fill="none" fill-rule="evenodd">
        <g id="scala" transform="translate(0, 0.6263)">
            <rect id="box" x="0" y="0" width="240" height="240"></rect>
            <g id="shape" transform="translate(43.8581, 0.3283)">
                <path d="M1,88.6682026 C3.09172595,91.5683166 20.7300636,97.0387279 47.0405841,102.736599 C73.3511045,107.808955 100.713141,127.836802 121.992213,121.661265 C136.385548,117.476002 152,80.1839473 152,74.645298 L152,74.0766482 C152,70.2098294 149.11681,67.1050014 144.221041,64.5233312 C124.151778,54.2080235 120.352752,50.4094427 112.912991,52.4679551 C74.2895545,63.1926907 6.09928866,57.7109064 1,88.6682026 Z" id="Path" fill="#380D09"></path>
                <path d="M1,163.938344 C3.09172595,166.850625 20.7300636,172.214171 47.0405841,177.858825 C76.4378136,183.188638 102.002097,200.561129 123.292475,194.444213 C137.685811,190.306299 152,155.561317 152,150.074084 L152,149.534356 C152,145.722528 149.11681,142.641581 144.221041,140.100362 C128.911868,132.004444 108.684313,123.08769 101.255859,125.122914 C62.5645826,135.703829 10.8480719,138.031405 1,163.938344 Z" id="Path" fill="#380D09"></path>
                <path d="M0.503864594,105.116026 L0.503864594,105.595369 L0.503864594,105.595369 C0.49355901,105.435754 0.49355901,105.275641 0.503864594,105.116026 L0.503864594,105.116026 Z" id="Path" fill="#555555"></path>
                <path d="M123.231643,14.4939595 C87.7115298,24.7309519 31.360326,30.5082645 1,30.5082645 L1,30.5082645 L1,88.3376989 C1.00965483,88.5365824 1.08509106,88.7266729 1.21452071,88.8782662 C21.9327052,88.8782662 85.8937491,82.1211755 124.484896,71.5350668 C131.215272,69.8264219 137.814508,67.6398044 144.232092,64.9919506 C148.951548,62.8747289 152,60.6448889 152,58.3249545 L152,0 C151.954838,5.49576709 137.604531,10.3608724 123.231643,14.4939595 Z" id="Path" fill="#DE3423"></path>
                <path d="M123.231643,89.3932116 C101.971512,95.5091537 73.2821893,100.059505 47.1445342,102.71763 C29.5989981,104.508486 13.2050994,105.443336 1,105.443336 L1,105.443336 L1,163.235046 C1.00965483,163.433954 1.08509106,163.624069 1.21452071,163.775682 C21.9327052,163.775682 85.8937491,157.017735 124.484896,146.441547 C131.21379,144.727644 137.812671,142.540867 144.232092,139.897602 C148.951548,137.768849 152,135.54999 152,133.229761 L152,74.8974153 C151.954838,80.3826156 137.604531,85.2483375 123.231643,89.3932116 Z" id="Path" fill="#DE3423"></path>
                <path d="M123.276806,165.343731 C102.016674,171.458899 73.3273516,175.997411 47.1896964,178.666462 C29.6215792,180.457091 13.2050994,181.391822 1,181.391822 L1,239.671729 C21.5036638,239.671729 85.792134,232.970947 124.484896,222.339791 C138.744878,218.420679 152,213.960999 152,209.118417 L152,150.793463 C152,156.334277 137.649693,161.154335 123.276806,165.343731 Z" id="Path" fill="#DE3423"></path>
            </g>
        </g>
    </g>
</svg>