<?xml version="1.0" encoding="UTF-8"?>
<svg width="512px" height="512px" viewBox="0 0 512 512" version="1.1" xmlns="http://www.w3.org/2000/svg" xmlns:xlink="http://www.w3.org/1999/xlink">
    <title>Group</title>
    <g id="Page-1" stroke="none" stroke-width="1" fill="none" fill-rule="evenodd">
        <g id="Group">
            <rect id="Box" fill="#FFFFFF" x="0" y="0" width="512" height="512" rx="39"></rect>
            <path d="M286.5,143.25 C274.832738,143.25 263.165476,146.667262 251.498214,153.501786 C258.332738,141.834524 261.75,130.167262 261.75,118.5 C261.75,106.832738 258.332738,95.1654762 251.498214,83.4982143 C263.165476,90.3327381 274.832738,93.75 286.5,93.75 C298.167262,93.75 309.834524,90.3327381 321.501786,83.4982143 C314.667262,95.1654762 311.25,106.832738 311.25,118.5 C311.25,130.167262 314.667262,141.834524 321.501786,153.501786 C309.834524,146.667262 298.167262,143.25 286.5,143.25 Z" id="Star" fill="#000000" transform="translate(286.5, 118.5) rotate(45) translate(-286.5, -118.5)"></path>
            <path d="M338.06745,201.064766 C350.217883,204.808685 362.365611,206.65938 374.5,206.65938 C386.635783,206.65938 398.784907,204.80826 410.935234,201.06745 C407.191315,213.217883 405.34062,225.365611 405.34062,237.5 C405.34062,249.635783 407.19174,261.784907 410.93255,273.935234 C398.782117,270.191315 386.634389,268.34062 374.5,268.34062 C362.364217,268.34062 350.215093,270.19174 338.064766,273.93255 C341.808685,261.782117 343.65938,249.634389 343.65938,237.5 C343.65938,225.364217 341.80826,213.215093 338.06745,201.064766 Z" id="Star" stroke="#000000" stroke-width="26" transform="translate(374.5, 237.5) rotate(45) translate(-374.5, -237.5)"></path>
            <path d="M431.5,117.763456 C423.833333,117.763456 416.166667,120.008971 408.5,124.5 C412.991029,116.833333 415.236544,109.166667 415.236544,101.5 C415.236544,93.8333333 412.991029,86.1666667 408.5,78.5 C416.166667,82.9910294 423.833333,85.236544 431.5,85.236544 C439.166667,85.236544 446.833333,82.9910294 454.5,78.5 C450.008971,86.1666667 447.763456,93.8333333 447.763456,101.5 C447.763456,109.166667 450.008971,116.833333 454.5,124.5 C446.833333,120.008971 439.166667,117.763456 431.5,117.763456 Z" id="Star" fill="#000000" transform="translate(431.5, 101.5) rotate(45) translate(-431.5, -101.5)"></path>
            <path d="M174.927737,96.6119264 C86.5369744,136.778354 50.7383042,205.100348 67.5317266,301.577909 C92.7218603,446.294249 296.716356,496.359145 386.698704,375.323596" id="Path" stroke="#000000" stroke-width="25" stroke-linecap="round" stroke-linejoin="round"></path>
        </g>
    </g>
</svg>