<?xml version="1.0" encoding="UTF-8"?>
<svg width="180px" height="180px" viewBox="0 0 180 180" version="1.1" xmlns="http://www.w3.org/2000/svg" xmlns:xlink="http://www.w3.org/1999/xlink">
    <title>noto-v1:owl</title>
    <g id="Page-1" stroke="none" stroke-width="1" fill="none" fill-rule="evenodd">
        <g id="noto-v1:owl">
            <rect id="ViewBox" x="0" y="0" width="180" height="180"></rect>
            <path d="M141.75,69.609375 C147.65625,55.265625 143.015625,47.109375 140.34375,39.796875 C137.953125,33.328125 144.5625,30.09375 144.5625,30.09375 C142.03125,30.09375 139.21875,28.96875 139.21875,28.96875 C144.28125,25.453125 147.375,16.171875 147.375,16.171875 C143.859375,19.40625 139.078125,19.546875 139.078125,19.546875 C146.953125,11.953125 144.5625,1.40625 144.5625,1.40625 C144.5625,1.40625 136.40625,12.375 121.21875,18.984375 C108.84375,24.328125 95.203125,25.59375 90.140625,25.59375 C85.078125,25.59375 71.4375,24.328125 59.0625,18.984375 C43.734375,12.515625 35.578125,1.40625 35.578125,1.40625 C35.578125,1.40625 33.046875,11.953125 41.0625,19.546875 C41.0625,19.546875 36.28125,19.40625 32.765625,16.171875 C32.765625,16.171875 35.71875,25.453125 40.921875,28.96875 C40.921875,28.96875 38.109375,30.09375 35.578125,30.09375 C35.578125,30.09375 42.1875,33.328125 39.796875,39.796875 C37.125,47.109375 32.484375,55.125 38.390625,69.609375 C38.390625,69.609375 -1.96875,136.96875 85.640625,176.90625 C87.046875,177.609375 88.59375,177.890625 90.140625,177.890625 C91.6875,177.890625 93.234375,177.46875 94.640625,176.90625 C182.109375,136.96875 141.75,69.609375 141.75,69.609375" id="Path" fill="#9BADBB" fill-rule="nonzero"></path>
            <circle id="Oval" fill="#BB917A" fill-rule="nonzero" cx="115.875" cy="58.5" r="20.671875"></circle>
            <circle id="Oval" fill="#3ACDF1" fill-rule="nonzero" cx="115.875" cy="58.5" r="15.890625"></circle>
            <circle id="Oval" fill="#2F2F2F" fill-rule="nonzero" cx="115.875" cy="58.5" r="9.140625"></circle>
            <circle id="Oval" fill="#BB917A" fill-rule="nonzero" cx="64.265625" cy="58.5" r="20.671875"></circle>
            <circle id="Oval" fill="#3ACDF1" fill-rule="nonzero" cx="64.265625" cy="58.5" r="15.890625"></circle>
            <circle id="Oval" fill="#2F2F2F" fill-rule="nonzero" cx="64.265625" cy="58.5" r="9.140625"></circle>
            <path d="M54,114.890625 C54,95.765625 63.84375,84.375 90,84.375 L90,162.84375 C90,162.84375 78.046875,162.140625 69.046875,152.15625 C62.015625,144.28125 54,130.078125 54,114.890625" id="Path" fill="#FEF6E0" fill-rule="nonzero"></path>
            <path d="M126,114.890625 C126,95.765625 116.15625,84.375 90,84.375 L90,162.84375 C90,162.84375 101.953125,162.140625 110.953125,152.15625 C117.984375,144.28125 126,130.078125 126,114.890625" id="Path" fill="#FEF6E0" fill-rule="nonzero"></path>
            <path d="M52.171875,170.15625 C49.921875,170.15625 47.953125,168.328125 47.953125,165.9375 L47.953125,152.578125 C47.953125,150.328125 49.78125,148.359375 52.171875,148.359375 C54.421875,148.359375 56.390625,150.1875 56.390625,152.578125 L56.390625,165.9375 C56.25,168.328125 54.421875,170.15625 52.171875,170.15625" id="Path" fill="#10212F" fill-rule="nonzero"></path>
            <path d="M52.171875,149.0625 C54.140625,149.0625 55.6875,150.609375 55.6875,152.578125 L55.6875,165.9375 C55.6875,167.90625 54.140625,169.453125 52.171875,169.453125 C50.203125,169.453125 48.65625,167.90625 48.65625,165.9375 L48.65625,152.578125 C48.65625,150.609375 50.203125,149.0625 52.171875,149.0625 M52.171875,147.65625 C49.5,147.65625 47.25,149.90625 47.25,152.578125 L47.25,165.9375 C47.25,168.609375 49.5,170.859375 52.171875,170.859375 C54.84375,170.859375 57.09375,168.609375 57.09375,165.9375 L57.09375,152.578125 C56.953125,149.90625 54.84375,147.65625 52.171875,147.65625" id="Shape" fill="#885C52" fill-rule="nonzero"></path>
            <path d="M60.609375,170.15625 C58.359375,170.15625 56.390625,168.328125 56.390625,165.9375 L56.390625,152.578125 C56.390625,150.328125 58.21875,148.359375 60.609375,148.359375 C62.859375,148.359375 64.828125,150.1875 64.828125,152.578125 L64.828125,165.9375 C64.828125,168.328125 62.859375,170.15625 60.609375,170.15625" id="Path" fill="#10212F" fill-rule="nonzero"></path>
            <path d="M60.609375,149.0625 C62.578125,149.0625 64.125,150.609375 64.125,152.578125 L64.125,165.9375 C64.125,167.90625 62.578125,169.453125 60.609375,169.453125 C58.640625,169.453125 57.09375,167.90625 57.09375,165.9375 L57.09375,152.578125 C57.09375,150.609375 58.640625,149.0625 60.609375,149.0625 M60.609375,147.65625 C57.9375,147.65625 55.6875,149.90625 55.6875,152.578125 L55.6875,165.9375 C55.6875,168.609375 57.9375,170.859375 60.609375,170.859375 C63.28125,170.859375 65.53125,168.609375 65.53125,165.9375 L65.53125,152.578125 C65.53125,149.90625 63.28125,147.65625 60.609375,147.65625" id="Shape" fill="#885C52" fill-rule="nonzero"></path>
            <path d="M69.328125,170.15625 C67.078125,170.15625 65.109375,168.328125 65.109375,165.9375 L65.109375,152.578125 C65.109375,150.328125 66.9375,148.359375 69.328125,148.359375 C71.71875,148.359375 73.546875,150.1875 73.546875,152.578125 L73.546875,165.9375 C73.546875,168.328125 71.578125,170.15625 69.328125,170.15625" id="Path" fill="#10212F" fill-rule="nonzero"></path>
            <path d="M69.328125,149.0625 C71.296875,149.0625 72.84375,150.609375 72.84375,152.578125 L72.84375,165.9375 C72.84375,167.90625 71.296875,169.453125 69.328125,169.453125 C67.359375,169.453125 65.8125,167.90625 65.8125,165.9375 L65.8125,152.578125 C65.8125,150.609375 67.359375,149.0625 69.328125,149.0625 M69.328125,147.65625 C66.65625,147.65625 64.40625,149.90625 64.40625,152.578125 L64.40625,165.9375 C64.40625,168.609375 66.65625,170.859375 69.328125,170.859375 C72,170.859375 74.25,168.609375 74.25,165.9375 L74.25,152.578125 C74.25,149.90625 72,147.65625 69.328125,147.65625" id="Shape" fill="#885C52" fill-rule="nonzero"></path>
            <path d="M110.25,170.15625 C108,170.15625 106.03125,168.328125 106.03125,165.9375 L106.03125,152.578125 C106.03125,150.328125 107.859375,148.359375 110.25,148.359375 C112.5,148.359375 114.46875,150.1875 114.46875,152.578125 L114.46875,165.9375 C114.46875,168.328125 112.5,170.15625 110.25,170.15625" id="Path" fill="#10212F" fill-rule="nonzero"></path>
            <path d="M110.25,149.0625 C112.21875,149.0625 113.765625,150.609375 113.765625,152.578125 L113.765625,165.9375 C113.765625,167.90625 112.21875,169.453125 110.25,169.453125 C108.28125,169.453125 106.734375,167.90625 106.734375,165.9375 L106.734375,152.578125 C106.734375,150.609375 108.28125,149.0625 110.25,149.0625 M110.25,147.65625 C107.578125,147.65625 105.328125,149.90625 105.328125,152.578125 L105.328125,165.9375 C105.328125,168.609375 107.578125,170.859375 110.25,170.859375 C112.921875,170.859375 115.171875,168.609375 115.171875,165.9375 L115.171875,152.578125 C115.171875,149.90625 112.921875,147.65625 110.25,147.65625" id="Shape" fill="#885C52" fill-rule="nonzero"></path>
            <path d="M118.6875,170.15625 C116.4375,170.15625 114.46875,168.328125 114.46875,165.9375 L114.46875,152.578125 C114.46875,150.328125 116.296875,148.359375 118.6875,148.359375 C121.078125,148.359375 122.90625,150.1875 122.90625,152.578125 L122.90625,165.9375 C122.90625,168.328125 121.078125,170.15625 118.6875,170.15625" id="Path" fill="#10212F" fill-rule="nonzero"></path>
            <path d="M118.6875,149.0625 C120.65625,149.0625 122.203125,150.609375 122.203125,152.578125 L122.203125,165.9375 C122.203125,167.90625 120.65625,169.453125 118.6875,169.453125 C116.71875,169.453125 115.171875,167.90625 115.171875,165.9375 L115.171875,152.578125 C115.171875,150.609375 116.71875,149.0625 118.6875,149.0625 M118.6875,147.65625 C116.015625,147.65625 113.765625,149.90625 113.765625,152.578125 L113.765625,165.9375 C113.765625,168.609375 116.015625,170.859375 118.6875,170.859375 C121.359375,170.859375 123.609375,168.609375 123.609375,165.9375 L123.609375,152.578125 C123.609375,149.90625 121.359375,147.65625 118.6875,147.65625" id="Shape" fill="#885C52" fill-rule="nonzero"></path>
            <path d="M127.40625,170.15625 C125.15625,170.15625 123.1875,168.328125 123.1875,165.9375 L123.1875,152.578125 C123.1875,150.328125 125.015625,148.359375 127.40625,148.359375 C129.65625,148.359375 131.625,150.1875 131.625,152.578125 L131.625,165.9375 C131.625,168.328125 129.65625,170.15625 127.40625,170.15625" id="Path" fill="#10212F" fill-rule="nonzero"></path>
            <path d="M127.40625,149.0625 C129.375,149.0625 130.921875,150.609375 130.921875,152.578125 L130.921875,165.9375 C130.921875,167.90625 129.375,169.453125 127.40625,169.453125 C125.4375,169.453125 123.890625,167.90625 123.890625,165.9375 L123.890625,152.578125 C123.890625,150.609375 125.4375,149.0625 127.40625,149.0625 M127.40625,147.65625 C124.734375,147.65625 122.484375,149.90625 122.484375,152.578125 L122.484375,165.9375 C122.484375,168.609375 124.734375,170.859375 127.40625,170.859375 C130.078125,170.859375 132.328125,168.609375 132.328125,165.9375 L132.328125,152.578125 C132.328125,149.90625 130.078125,147.65625 127.40625,147.65625" id="Shape" fill="#885C52" fill-rule="nonzero"></path>
            <path d="M94.640625,69.75 C92.25,66.796875 87.890625,66.796875 85.5,69.75 C83.671875,72 81.984375,75.09375 82.265625,79.171875 C82.546875,85.078125 85.921875,89.296875 88.171875,91.40625 C89.296875,92.390625 90.84375,92.390625 91.96875,91.40625 C94.21875,89.296875 97.59375,85.078125 97.875,79.171875 C98.015625,74.953125 96.46875,71.859375 94.640625,69.75" id="Path" fill="#10212F" fill-rule="nonzero"></path>
            <ellipse id="Oval" fill="#FFFFFF" fill-rule="nonzero" cx="117.5625" cy="55.265625" rx="3.09375" ry="3.234375"></ellipse>
            <ellipse id="Oval" fill="#FFFFFF" fill-rule="nonzero" cx="66.65625" cy="55.265625" rx="3.09375" ry="3.234375"></ellipse>
            <path d="M65.53125,107.859375 C69.046875,114.46875 78.46875,114.46875 81.84375,107.859375 M81.84375,107.859375 C85.359375,114.46875 94.78125,114.46875 98.15625,107.859375 M98.15625,107.859375 C101.671875,114.46875 111.09375,114.46875 114.46875,107.859375 M73.6875,130.21875 C77.203125,136.828125 86.625,136.828125 90,130.21875 M90,130.21875 C93.515625,136.828125 102.9375,136.828125 106.3125,130.21875" id="Shape" stroke="#BB917A" stroke-width="4.21875" stroke-linecap="round" stroke-linejoin="round"></path>
        </g>
    </g>
</svg>