<?xml version="1.0" encoding="UTF-8"?>
<svg width="240px" height="240px" viewBox="0 0 240 240" version="1.1" xmlns="http://www.w3.org/2000/svg" xmlns:xlink="http://www.w3.org/1999/xlink">
    <title>search1api</title>
    <g id="Page-1" stroke="none" stroke-width="1" fill="none" fill-rule="evenodd">
        <g id="search1api">
            <path d="M120,0 C53.73,0 0,53.72 0,120 C0,186.28 53.73,240 120,240 C186.27,240 240,186.27 240,120 C240,53.72 186.27,0 120,0 Z" id="Path" fill="#0066FF"></path>
            <path d="M155.81,170.71 C147.61,177.72 136.04,181.22 121.08,181.22 C105.8,181.22 93.78,177.77 85.02,170.87 C76.26,163.96 71.89,154.47 71.89,142.4 L95.04,142.4 C95.79,147.7 97.26,151.66 99.46,154.3 C103.48,159.07 110.36,161.46 120.12,161.46 C125.96,161.46 130.7,160.83 134.35,159.56 C141.27,157.15 144.72,152.66 144.72,146.1 C144.72,142.28 143.02,139.3 139.64,137.2 C136.25,135.16 130.88,133.34 123.53,131.78 L110.96,129.02 C98.61,126.28 90.13,123.32 85.51,120.12 C77.68,114.77 73.78,106.4 73.78,95 C73.78,84.6 77.6,75.98 85.25,69.1 C92.9,62.22 104.15,58.78 118.97,58.78 C131.36,58.78 141.91,62.02 150.66,68.51 C159.4,74.99 163.98,84.41 164.41,96.74 L141.1,96.74 C140.67,89.76 137.55,84.8 131.74,81.86 C127.86,79.92 123.04,78.94 117.29,78.94 C110.88,78.94 105.77,80.2 101.95,82.72 C98.13,85.24 96.22,88.76 96.22,93.27 C96.22,97.42 98.1,100.52 101.87,102.56 C104.29,103.93 109.43,105.53 117.29,107.36 L137.66,112.16 C146.58,114.26 153.28,117.08 157.73,120.59 C164.65,126.05 168.11,133.95 168.11,144.29 C168.11,154.89 164.01,163.7 155.81,170.71 L155.81,170.71 Z" id="Path" fill="#FFFFFF"></path>
        </g>
    </g>
</svg>