<?xml version="1.0" encoding="UTF-8"?>
<svg width="240px" height="240px" viewBox="0 0 240 240" version="1.1" xmlns="http://www.w3.org/2000/svg" xmlns:xlink="http://www.w3.org/1999/xlink">
    <title>securitytrails</title>
    <g id="Page-1" stroke="none" stroke-width="1" fill="none" fill-rule="evenodd">
        <g id="securitytrails" fill-rule="nonzero">
            <rect id="box" fill="#222224" x="0" y="0" width="240" height="240" rx="32"></rect>
            <path d="M171.795366,83.9722326 L171.795366,176 L145.210657,176 L145.210657,83.9722326 L116,83.9722326 L116,63 L201,63 L201,83.9722326 L171.795366,83.9722326 Z M94.4678523,110.8541 C90.8654811,109.384759 82.5259918,106.446076 77.620763,104.484955 C72.5534276,102.523834 66.1712266,99.9150036 66.1712266,93.0480819 C66.1712266,86.1871575 72.3853169,82.9126254 80.8929169,82.9126254 C92.8287734,82.9126254 105.731266,90.3372971 113.146147,98.1218075 L113.584435,97.9119016 L113.584435,72.6752146 C105.359021,66.5579568 92.7387141,62 81.5473476,62 C68.4587323,62 58.1559508,65.5983869 51.7797538,70.9959673 C45.2354461,76.3755558 40,84.8737463 40,95.6569124 C40,106.278151 43.9265846,112.809223 48.8378173,117.385172 C53.7430461,122.123048 59.4648123,124.252094 62.244642,125.55351 C66.0091199,127.190777 74.5107159,130.135457 79.4159447,131.928653 C84.3271774,133.727846 92.6726706,136.666529 92.6726706,144.343088 C92.6726706,151.863716 86.128363,155.941888 77.620763,155.941888 C65.5227998,155.941888 50.2007144,146.646055 41.8372093,137.91397 L41.6751026,137.997932 L41.6751026,166.605108 C49.9065207,172.686382 62.7309622,178 75.1651467,178 C97.0855753,178 119,166.077345 119,141.72826 C119,125.391583 108.865329,116.083756 94.4678523,110.8541" id="Shape" fill="#FFFFFF"></path>
        </g>
    </g>
</svg>