<?xml version="1.0" encoding="UTF-8"?>
<svg width="240px" height="240px" viewBox="0 0 240 240" version="1.1" xmlns="http://www.w3.org/2000/svg" xmlns:xlink="http://www.w3.org/1999/xlink">
    <title>selenium</title>
    <g id="Page-1" stroke="none" stroke-width="1" fill="none" fill-rule="evenodd">
        <g id="selenium" transform="translate(-0.0003, -0.0005)">
            <rect id="ViewBox" x="0" y="0" width="240" height="240"></rect>
            <g id="shape" transform="translate(5, 0)" fill-rule="nonzero">
                <path d="M228.997051,1.00300439 L228.997051,238.290014 C229.02494,238.750879 228.854004,239.201597 228.527545,239.527989 C228.201087,239.854382 227.750424,240.025137 227.289721,239.996999 L2.71033367,239.996999 C2.24962995,240.025137 1.79896763,239.854382 1.47250912,239.527989 C1.14605061,239.201597 0.975114818,238.750879 1.00300343,238.290014 L1.00300343,2.71088072 C0.97484876,2.2498652 1.14566683,1.79890329 1.47215734,1.47230836 C1.79864784,1.14571342 2.24946556,0.974840715 2.71033367,1.00300439 L228.997051,1.00300439 Z" id="Shape" fill="#FFFFFF"></path>
                <path d="M209.543105,1.00316434 C210.126931,0.965651259 210.681137,1.26404468 210.971372,1.77216575 C211.261608,2.28028683 211.237186,2.90939953 210.908435,3.39347686 L151.861706,83.6261922 C151.428973,84.1146934 150.807752,84.3943301 150.155266,84.3943301 C149.50278,84.3943301 148.881559,84.1146934 148.448826,83.6261922 L127.62866,60.4099589 C127.120087,59.8820779 126.399486,59.6136266 125.669619,59.6801411 C124.939752,59.7466555 124.279511,60.1409461 123.874671,60.7520684 L111.245593,76.7982552 C110.846027,77.7019974 110.977559,78.7525315 111.587593,79.5297864 L149.131046,118.450988 C149.56379,118.939792 150.18521,119.219629 150.837931,119.219629 C151.490651,119.219629 152.112072,118.939792 152.544816,118.450988 L226.266391,35.4876321 C226.701494,35.0190681 227.376418,34.8597744 227.975013,35.0843681 C228.573608,35.3089617 228.977324,35.8729625 228.997051,36.512179 L228.997051,238.290015 C229.02494,238.75088 228.854004,239.201597 228.527545,239.527989 C228.201087,239.854382 227.750424,240.025137 227.289721,239.996999 L2.71033367,239.996999 C2.24962995,240.025137 1.79896763,239.854382 1.47250912,239.527989 C1.14605061,239.201597 0.975114818,238.75088 1.00300343,238.290015 L1.00300343,2.71103952 C0.97484876,2.25002431 1.14566683,1.7990627 1.47215734,1.47246798 C1.79864784,1.14587327 2.24946556,0.975000677 2.71033367,1.00316434 L209.543105,1.00316434 Z M151.520596,137.229597 C141.359554,137.05074 131.566752,141.033235 124.412892,148.253643 C117.259031,155.474051 113.365512,165.305189 113.635143,175.46747 C113.635143,199.025813 130.700429,214.048343 152.885035,214.048343 C163.155171,214.304072 173.226103,211.185944 181.55607,205.171312 C182.329032,204.470274 182.47399,203.309485 181.89718,202.439781 L175.753641,193.221532 C175.062547,192.429824 173.887535,192.282997 173.022982,192.880313 C167.683338,196.528069 161.398872,198.54463 154.934366,198.684594 C142.987507,198.684594 135.478638,191.173329 134.114199,182.296298 C134.139166,181.930242 134.430479,181.638835 134.796419,181.61386 L186.334279,181.61386 C187.43342,181.540015 188.308485,180.66429 188.381829,179.564767 L188.381829,177.515673 C188.381829,153.617002 173.364092,137.228706 151.520596,137.228706 M100.665845,124.254378 C90.2989822,115.7778 77.1815283,111.404025 63.8037217,111.963378 C40.5948961,111.963378 26.260269,125.620144 26.260269,142.00844 C26.260269,179.222657 82.9174485,167.272876 82.9174485,184.685719 C82.9174485,190.147891 77.4561292,195.610953 65.8521617,195.610953 C54.8309672,195.701346 44.1979263,191.544395 36.1586875,184.002391 C35.6787349,183.553287 35.0283942,183.333196 34.3744439,183.39856 C33.7204937,183.463925 33.1265461,183.808387 32.7449177,184.34361 L23.8716098,196.6355 C23.2950187,197.505416 23.4403581,198.666231 24.2136103,199.367031 C33.4289185,207.901953 46.3991064,213.707125 64.4877226,213.707125 C91.1094274,213.707125 104.079615,200.049469 104.761835,182.296298 C104.761835,145.423299 48.1046554,156.007315 48.1046554,140.302346 C48.1046554,134.498065 53.2248649,130.400769 62.0981727,130.400769 C71.8805906,130.266458 81.4078918,133.523616 89.0618779,139.619018 C89.5118498,139.987747 90.0914392,140.159414 90.6695632,140.095195 C91.2476872,140.030976 91.7755067,139.736295 92.1336474,139.2778 L101.007846,127.328019 C101.376457,126.877903 101.54807,126.298129 101.483871,125.71982 C101.419672,125.141512 101.125085,124.613524 100.666736,124.255269 M151.862596,152.251236 C161.145592,151.731836 169.160336,158.689846 169.952103,167.957095 C169.927136,168.323152 169.635823,168.614558 169.269883,168.639533 L134.455309,168.639533 C134.08937,168.614558 133.798057,168.323152 133.773089,167.957095 C134.914872,158.871591 142.710522,152.103345 151.862596,152.251236" id="Shape" fill="#2CB134"></path>
            </g>
        </g>
    </g>
</svg>