<?xml version="1.0" encoding="UTF-8"?>
<svg width="240px" height="240px" viewBox="0 0 240 240" version="1.1" xmlns="http://www.w3.org/2000/svg" xmlns:xlink="http://www.w3.org/1999/xlink">
    <title>sentient</title>
    <defs>
        <polygon id="path-1" points="240 0 0 0 0 240 240 240"></polygon>
    </defs>
    <g id="Page-1" stroke="none" stroke-width="1" fill="none" fill-rule="evenodd">
        <g id="sentient">
            <mask id="mask-2" fill="white">
                <use xlink:href="#path-1"></use>
            </mask>
            <g id="Path"></g>
            <path d="M164.872776,103.456532 C166.944778,101.410494 167.768112,98.4162486 167.033602,95.6007007 L144.566985,9.38294783 C144.015248,7.26611412 142.635052,5.45913603 140.737282,4.36771579 L134.747608,0.923402137 C129.53771,-2.07183463 123.292665,2.68659517 124.809514,8.49596048 L149.755531,104.0995 C151.072524,109.144914 157.366252,110.870324 161.078091,107.204896 L164.872776,103.456532 Z M101.227466,3.79776614 C105.552535,1.28608882 111.082714,3.58640767 112.342484,8.42106161 C113.808942,14.0409567 108.638332,19.1405782 103.031286,17.6062628 C96.566742,15.8375892 95.4338881,7.16334193 101.227466,3.79776614 Z M114.581886,32.9399263 C117.402918,33.7094353 119.597908,35.9273312 120.33498,38.7547637 L121.700657,43.9958039 C123.01338,49.0355747 118.375717,53.6068856 113.347738,52.2272414 L63.9173359,38.6624226 C58.1143636,37.0699665 57.114234,29.27561 62.3275483,26.2729005 L68.3130379,22.8254147 C70.1998751,21.7386971 72.4431205,21.4496182 74.5443322,22.0225604 L114.581886,32.9399263 Z M123.522413,67.0473859 C126.329779,67.820657 128.51452,70.0297463 129.252447,72.8448666 L130.605312,78.0016883 C131.928284,83.0457342 127.284642,87.6260227 122.251539,86.2426165 L26.8856369,60.0197169 C21.0906929,58.4262348 20.087147,50.6452165 25.2887604,47.6370349 L31.2702358,44.17775 C33.165443,43.0816272 35.4220975,42.7916933 37.5333873,43.3730146 L123.522413,67.0473859 Z M11.0000388,78.2125338 C10.98432,73.2163685 15.7438685,69.5830035 20.5662868,70.9095515 C26.1718809,72.451733 28.008498,79.4735025 23.8743158,83.5570302 C19.108489,88.2647151 11.0211933,84.9070909 11.0000388,78.2125338 Z M42.9446778,81.233113 C45.0227439,79.176814 48.0431182,78.3876398 50.8629542,79.1639889 L56.0902755,80.6029707 C61.1168022,81.9863768 62.7609948,88.2843803 59.0509495,91.9438231 L22.5743181,127.919223 C18.2921236,132.142117 11.0338918,129.110252 11.0370662,123.099532 L11.0407133,116.197891 C11.0418629,114.022746 11.9128938,111.938231 13.4602506,110.406909 L42.9446778,81.233113 Z M76.9871765,90.5535768 C79.0620825,88.510103 82.0692185,87.7260588 84.8791471,88.4955678 L90.0267826,89.9037692 C95.0614231,91.2811903 96.7110818,97.5885989 92.995058,101.249752 L22.5757701,170.629537 C18.2966929,174.845591 11.0484641,171.82313 11.0409593,165.820105 L11.0323224,158.916755 C11.0295932,156.728784 11.9064882,154.6323 13.4661523,153.096702 L76.9871765,90.5535768 Z M74.157604,142.399672 C73.4237771,139.583269 74.2472826,136.589879 76.318943,134.54384 L80.1139694,130.795477 C83.8257228,127.129194 90.1191943,128.855459 91.4357611,133.900873 L116.38229,229.503814 C117.898285,235.313607 111.65324,240.071737 106.444196,237.076637 L100.453668,233.631802 C98.5558982,232.540809 97.1765563,230.734173 96.6248196,228.616313 L74.157604,142.399672 Z M112.019641,164.883869 C112.757568,167.699417 114.9406,169.907908 117.749675,170.681692 L203.738615,194.356063 C205.849051,194.93747 208.106389,194.646767 210.001596,193.551499 L215.983584,190.092129 C221.184941,187.084204 220.180541,179.302758 214.386451,177.709019 L119.020548,151.485863 C113.987445,150.102457 109.343803,154.6836 110.666776,159.727304 L112.019641,164.883869 Z M126.690202,204.788895 C123.868316,204.020241 121.67418,201.80149 120.937108,198.974827 L119.571431,193.733616 C118.256999,188.693332 122.896371,184.121594 127.923496,185.502435 L177.354325,199.067168 C183.15781,200.659197 184.157939,208.453468 178.944625,211.456263 L172.959221,214.903663 C171.0717,215.990381 168.828882,216.279374 166.727841,215.706518 L126.690202,204.788895 Z M140.042914,233.93191 C135.718699,236.443075 130.18852,234.142243 128.927896,229.308016 C127.462291,223.688036 132.632048,218.587901 138.239948,220.123499 C144.705346,221.89166 145.837004,230.564881 140.042914,233.93191 Z M51.2204728,159.302364 C49.1373676,161.353533 48.3115561,164.360603 49.0553758,167.186411 L59.608067,207.277829 C60.1618535,209.381154 61.5341065,211.176675 63.4197479,212.265958 L69.4016504,215.719343 C74.6118046,218.728123 80.8698317,213.964862 79.3491393,208.14994 L66.3951976,158.609806 C65.0776912,153.571232 58.794725,151.844112 55.0816905,155.50099 L51.2204728,159.302364 Z M28.9153619,181.381287 C25.3539269,184.890248 26.1244793,190.823162 30.464239,193.308676 C36.2794247,196.63723 43.2340407,191.320778 41.5353577,184.844077 C40.0618107,179.225807 33.0551811,177.303744 28.9153619,181.381287 Z M192.135916,70.8132774 C192.879821,73.6389144 192.053924,76.64607 189.970819,78.6971534 L186.109516,82.4993828 C182.396823,86.1554055 176.114198,84.4291403 174.79635,79.3897115 L161.842494,29.8500912 C160.321375,24.0342279 166.579231,19.2718223 171.789983,22.2800894 L177.771971,25.7338167 C179.657783,26.8225864 181.030292,28.6185349 181.583737,30.7224579 L192.135916,70.8132774 Z M210.727565,44.6916965 C215.067154,47.176099 215.837536,53.1098683 212.276869,56.6178887 C208.136281,60.6956878 201.13025,58.7735399 199.656105,53.1556968 C197.95819,46.6794237 204.912123,41.3626296 210.727565,44.6916965 Z M164.012715,147.36899 C161.937297,149.411609 158.93093,150.195653 156.120147,149.427854 L150.972597,148.018798 C145.93864,146.641377 144.288554,140.333968 148.004663,136.672815 L218.424549,67.2920898 C222.702644,63.0762066 229.951235,66.0986669 229.958922,72.1021194 L229.966618,79.005812 C229.970025,81.1937826 229.093737,83.290267 227.53333,84.825865 L164.012715,147.36899 Z M198.055556,156.689454 C195.977575,158.744898 192.957542,159.534072 190.137365,158.758578 L184.910385,157.319596 C179.884115,155.935335 178.239153,149.637331 181.949284,145.977889 L218.426257,110.003344 C222.707768,105.78045 229.965754,108.812315 229.963193,114.823035 L229.959776,121.724676 C229.958067,123.899821 229.087758,125.984335 227.540162,127.515658 L198.055556,156.689454 Z M229.999959,159.710204 C230.016145,164.706027 225.256348,168.33982 220.434203,167.012844 C214.828865,165.471261 212.991736,158.449064 217.125491,154.365537 C221.891266,149.658707 229.979419,153.015476 229.999959,159.710204 Z" id="Shape" fill="#FFFFFF" mask="url(#mask-2)"></path>
        </g>
    </g>
</svg>