<?xml version="1.0" encoding="UTF-8"?>
<svg width="241px" height="241px" viewBox="0 0 241 241" version="1.1" xmlns="http://www.w3.org/2000/svg" xmlns:xlink="http://www.w3.org/1999/xlink">
    <title>sentry</title>
    <g id="Page-1" stroke="none" stroke-width="1" fill="none" fill-rule="evenodd">
        <g id="sentry" transform="translate(0.4006, 0.7783)">
            <rect id="box" fill="#362D59" x="0" y="0" width="240" height="240" rx="32"></rect>
            <path d="M133.45286,53.5943676 C130.61317,48.8815143 125.51277,46 120.010514,46 C114.508258,46 109.407858,48.8815143 106.568168,53.5943676 L84.4555094,91.4681768 C118.830151,108.629967 141.531754,142.727135 144.105919,181.061411 L128.580009,181.061411 C126.010751,148.203781 106.246772,119.158658 76.625343,104.708887 L56.1593715,140.095863 C72.7905938,147.554718 84.4801211,162.96767 87.1775844,180.9942 L51.5217622,180.9942 C50.6627176,180.933435 49.8921397,180.443843 49.4721841,179.691987 C49.0522285,178.940131 49.0394511,178.027264 49.4381987,177.263949 L59.3183228,160.461016 C55.9709645,157.668188 52.1453334,155.504884 48.0267523,154.075902 L38.2474458,170.878834 C36.1909928,174.406166 35.6341718,178.610592 36.7015369,182.551632 C37.768902,186.492672 40.3713832,189.841453 43.9268369,191.848894 C46.2459666,193.155573 48.8598971,193.849537 51.5217622,193.865246 L100.351083,193.865246 C102.1956,171.104458 91.997177,149.037621 73.4663917,135.693494 L81.2293464,122.251149 C104.623285,138.318673 117.786034,165.551506 115.843387,193.865246 L157.212206,193.865246 C159.172733,150.964062 138.166925,110.258109 102.064982,86.9985968 L117.758921,60.1139053 C118.486807,58.8943413 120.061636,58.4893853 121.287537,59.206547 C123.068648,60.181117 189.473836,176.054137 190.717253,177.398372 C191.163138,178.197886 191.147022,179.174892 190.67501,179.959265 C190.202998,180.743638 189.347288,181.215402 188.432054,181.195835 L172.435662,181.195835 C172.637298,185.474981 172.637298,189.742926 172.435662,194 L188.499266,194 C192.61937,194.026638 196.579024,192.404163 199.495595,189.493905 C202.412165,186.583647 204.043216,182.627519 204.025323,178.507366 C204.027175,175.813106 203.307743,173.167452 201.941611,170.845229 L133.45286,53.5943676 Z" id="Path" fill="#FFFFFF" fill-rule="nonzero"></path>
        </g>
    </g>
</svg>