<?xml version="1.0" encoding="UTF-8"?>
<svg width="214px" height="214px" viewBox="0 0 214 214" version="1.1" xmlns="http://www.w3.org/2000/svg" xmlns:xlink="http://www.w3.org/1999/xlink">
    <title>serper</title>
    <g id="Page-1" stroke="none" stroke-width="1" fill="none" fill-rule="evenodd">
        <g id="serper" transform="translate(7, 7)" fill-rule="nonzero">
            <path d="M102.500391,35 C109.477171,35 116.059229,36.1818831 122.24731,38.545277 C128.495774,40.9090432 133.955538,44.1817497 138.626976,48.3633966 C143.298415,52.5454159 146.847187,57.3939666 149.273666,62.9090487 C149.819717,64.1210933 150.092929,65.3636717 150.092929,66.6364116 C150.092929,69.1211961 149.18272,71.2727149 147.363047,73.090968 C145.603384,74.8485257 143.480307,75.7273046 140.993073,75.7273046 C139.35492,75.7273046 137.71714,75.2119529 136.078987,74.1816219 C134.441207,73.090968 133.288349,71.7876942 132.621161,70.2725454 C130.315819,65.0605675 126.463644,60.9090821 121.064262,57.8180891 C115.725635,54.7270961 109.537554,53.1817858 102.500391,53.1817858 C99.0425654,53.1817858 95.3722827,53.6059084 91.4895433,54.4545258 C87.667559,55.3027708 84.0580315,56.6060445 80.6605879,58.3636023 C77.2635171,60.0604647 74.5030709,62.2119834 72.3799948,64.8181586 C70.2565459,67.4239613 69.1950079,70.4546313 69.1950079,73.9090515 C69.1950079,76.6969402 70.1048444,79.1210294 71.9248901,81.1816914 C73.7449359,83.181658 75.7770656,84.7575022 78.021652,85.9088514 C83.2998965,88.5150266 89.1238193,90.3332796 95.4934203,91.3636106 C101.924149,92.3939416 108.415261,93.3937387 114.967127,94.3637468 C121.519366,95.3333824 127.616128,97.0302448 133.258158,99.454334 C136.837495,100.969483 140.265129,103.060679 143.541063,105.727177 C146.816996,108.394047 149.486123,111.63622 151.548817,115.45444 C153.61151,119.272659 154.642857,123.75741 154.642857,128.909065 C154.642857,135.575869 153.035268,141.424217 149.819717,146.454481 C146.604539,151.484746 142.388205,155.666765 137.171089,158.999794 C131.9536,162.333196 126.281378,164.848515 120.154052,166.545377 C114.087482,168.181916 108.142421,169 102.318499,169 C94.4318823,169 87.0305617,167.757422 80.1149096,165.272637 C73.1988849,162.727157 67.1625054,159.151346 62.006144,154.545577 C56.8494098,149.87874 52.906288,144.424353 50.176033,138.181672 C49.629982,136.969627 49.3571429,135.757583 49.3571429,134.545538 C49.3571429,132.060381 50.2367882,129.939396 51.9960787,128.181839 C53.8161245,126.363586 55.9697645,125.454645 58.4569989,125.454645 C60.1555343,125.454645 61.8238785,125.999786 63.4620315,127.090812 C65.0998118,128.121143 66.222105,129.424045 66.8289111,130.999889 C69.498411,137.121179 74.017775,141.96973 80.3877488,145.545541 C86.7577225,149.060656 94.067724,150.818214 102.318499,150.818214 C107.475233,150.818214 112.662158,150.060454 117.879275,148.545305 C123.096391,146.969833 127.464427,144.575905 130.983008,141.363522 C134.562344,138.090815 136.351826,133.93933 136.351826,128.909065 C136.351826,125.697054 135.260097,123.060718 133.075893,121.000056 C130.952817,118.878698 128.617284,117.272693 126.069294,116.181666 C120.305754,113.696882 114.148237,112.000019 107.59637,111.090707 C101.044504,110.121071 94.5228286,109.121274 88.0317173,108.090943 C81.5402332,106.999917 75.4736625,105.030111 69.8320053,102.1819 C65.0394293,99.7574382 60.6713941,96.2423228 56.7278995,91.636181 C52.8455328,86.9697163 50.9039767,81.0606731 50.9039767,73.9090515 C50.9039767,67.6060473 52.4206194,62.0604313 55.4539047,57.272576 C58.5479453,52.4240253 62.6125774,48.3633966 67.6478013,45.0906901 C72.7437803,41.7572882 78.3250551,39.2423422 84.3916258,37.5454798 C90.4581965,35.848245 96.4945759,35 102.500391,35 Z" id="Path" fill="#90CDF4"></path>
            <circle id="Oval" stroke="#90CDF4" stroke-width="14" cx="100" cy="100" r="100"></circle>
        </g>
    </g>
</svg>