<?xml version="1.0" encoding="UTF-8"?>
<svg width="240px" height="240px" viewBox="0 0 240 240" version="1.1" xmlns="http://www.w3.org/2000/svg" xmlns:xlink="http://www.w3.org/1999/xlink">
    <title>sherlock</title>
    <g id="Page-1" stroke="none" stroke-width="1" fill="none" fill-rule="evenodd">
        <g id="sherlock" transform="translate(0, 0)">
            <rect id="box" fill="#6601CD" x="0" y="0" width="240" height="240" rx="32"></rect>
            <path d="M95.6625995,123.945376 L156.920101,77.44075 C163.203226,72.4802499 169.171976,69.9999998 174.826351,69.9999998 C183.308226,69.9999998 193.675101,69.9999998 196.501976,69.9999998 C199.329477,69.9999998 200.743227,71.8601874 200.743227,73.7203749 C200.743227,75.5805562 199.329477,77.44075 196.501976,77.44075 C193.675101,77.44075 186.135726,77.44075 179.538851,77.44075 C172.941351,77.44075 169.171976,80.231 163.517601,85.8115627 L95.6625995,156.498752 C87.4949119,165.799377 78.3847867,170.295002 68.332224,169.985002 C53.2533487,169.520002 39.1169734,161.149377 39.1169734,146.267501 C39.1169734,132.314626 39.1169734,118.361563 39.1169734,104.408563 C39.1169734,102.356563 40.8089172,100.693063 42.8960298,100.693063 L91.883537,100.693063 C93.970662,100.693063 95.6625995,102.356563 95.6625995,104.408563 L95.6625995,123.945376 Z" id="Path" fill="#FFFFFF"></path>
        </g>
    </g>
</svg>