<?xml version="1.0" encoding="UTF-8"?>
<svg width="240px" height="240px" viewBox="0 0 240 240" version="1.1" xmlns="http://www.w3.org/2000/svg" xmlns:xlink="http://www.w3.org/1999/xlink">
    <title>shibainu</title>
    <g id="Page-1" stroke="none" stroke-width="1" fill="none" fill-rule="evenodd">
        <g id="shibainu">
            <rect id="box" x="0" y="0" width="240" height="240"></rect>
            <g id="shape" transform="translate(2, 0)">
                <g id="Group_931" transform="translate(0, 8)" fill-rule="nonzero">
                    <path d="M173.497911,13.2676623 C167.329658,19.4387651 161.678503,26.1272059 156.655254,33.2590792 L155.067021,32.7417413 C145.90698,29.7485716 136.414517,27.900936 126.848183,27.27274 C123.967202,27.0510237 113.218928,27.0510237 109.710041,27.27274 C99.1095086,27.9748415 90.9836652,29.5638081 81.7497523,32.778694 C81.3803957,32.9265048 81.0479749,33.037363 80.715554,33.1482211 C75.5076271,26.0533005 69.7087298,19.4018124 63.318862,13.304615 C93.975453,-2.40028741 129.839971,-4.28487569 161.937052,8.09428267 C165.372068,9.38762757 168.733212,10.9026887 172.020485,12.5286081 L173.497911,13.2676623 Z" id="Path_8573" fill="#F00500"></path>
                    <path d="M230.6743,153.429297 C226.020408,166.695321 219.03957,179.000573 209.990335,189.71686 C205.077894,195.481483 199.648353,200.765721 193.81252,205.569573 C180.146329,216.581481 164.190127,224.452409 147.162792,228.591112 C128.325609,233.136296 108.675842,233.136296 89.83866,228.591112 C72.7743889,224.452409 56.8551229,216.581481 43.1889317,205.569573 C37.3530987,200.765721 31.9235579,195.481483 27.0111162,189.71686 C0.971481675,158.935251 -6.93274782,116.661349 6.32715119,78.5631036 C8.83877552,71.5051357 11.9783059,64.7058367 15.7457424,58.2391122 C17.481718,55.2828953 19.6239859,51.9571513 20.6581841,50.5899009 C24.2040067,65.8513708 28.5624136,79.2652051 30.1875823,84.1060103 C30.0767753,84.3646793 29.9290327,84.660301 29.7812901,84.9189699 C21.1752832,102.36065 16.5213911,119.174134 15.4133215,137.059246 C15.4133215,137.280962 15.3763859,137.539631 15.3763859,137.761347 C15.0809007,143.119491 15.2286433,145.669228 16.1150989,149.031924 C18.8852728,159.563447 27.4174084,171.166599 40.7881144,182.548034 C62.6909559,201.1722 92.38722,214.622987 114.881032,216.175001 C138.335171,217.763968 172.943877,204.054512 195.991723,184.026142 C199.611417,180.811256 203.009497,177.411607 206.185963,173.790241 C208.475974,171.129646 211.874054,166.54751 211.615504,166.54751 C211.541633,166.54751 211.615504,166.473604 211.763247,166.399699 C211.874054,166.325793 211.984861,166.214935 211.910989,166.14103 C211.874054,166.104077 211.947925,165.993219 212.058732,165.956266 C212.169539,165.919314 212.24341,165.845408 212.206475,165.771503 C212.169539,165.697597 212.206475,165.623692 212.354217,165.586739 C212.465024,165.549786 212.50196,165.438928 212.465024,165.365023 C212.428088,165.291118 212.465024,165.217212 212.538895,165.217212 C212.612767,165.217212 212.686638,165.106354 212.686638,165.032449 C212.686638,164.958543 212.760509,164.847685 212.834381,164.847685 C212.908252,164.847685 212.982123,164.77378 212.982123,164.699874 C213.09293,164.404252 213.277608,164.108631 213.462287,163.849962 C214.016322,163.000049 216.232461,159.046109 216.527946,158.38096 C218.633278,153.614061 219.962961,149.364499 220.590868,145.114937 C220.886353,143.082538 221.071031,139.350314 220.923288,138.463449 C220.886353,138.315638 220.886353,138.056969 220.849417,137.650489 C220.775546,136.911435 220.73861,135.802854 220.664739,134.694272 C220.590868,133.0314 220.443125,130.70338 220.332318,129.557845 C218.744085,112.781314 214.459549,99.0718585 206.333706,84.5494428 C206.001285,83.9951521 205.7058,83.4408615 205.521122,82.9974289 C205.44725,82.8865708 205.410315,82.7757127 205.373379,82.7018072 L205.373379,82.7018072 C206.518384,79.2652051 211.209212,64.8906003 214.939713,48.4466437 L215.013584,48.5205491 L215.567619,49.2596033 C216.527946,50.5529482 219.076506,54.3960302 220.221511,56.2436658 C225.429438,64.7427894 229.49236,73.8701092 232.37334,83.4039088 C239.058693,106.351543 238.504659,130.814238 230.6743,153.429297 Z" id="Path_8574" fill="#F00500"></path>
                    <path d="M182.731824,109.270807 C182.621017,109.86205 180.885042,111.63578 179.149066,112.929125 C174.051946,116.661349 164.92884,120.134904 155.657992,121.797776 C150.376193,122.758547 145.094395,122.906357 143.506162,122.13035 C142.471964,121.613012 142.324221,121.206533 142.693578,119.876235 C143.469226,117.104782 145.980851,114.074659 149.89603,111.229301 C151.890555,109.788145 159.979463,104.873434 163.746899,102.804082 C169.952089,99.4044329 174.975338,97.3720337 178.373417,96.8916485 C179.444551,96.7438376 180.737299,96.7068849 181.143591,96.8916485 C181.808433,97.1503175 182.547146,99.1088112 182.842631,101.473785 C182.990374,102.730177 182.916503,108.273084 182.731824,109.270807 Z" id="Path_8575" fill="#000000"></path>
                    <path d="M95.7114287,121.502154 C95.4898147,121.945587 94.3817452,122.425972 93.125933,122.610736 C91.8701209,122.795499 88.0288131,122.684641 85.8496096,122.425972 C78.0192514,121.391296 69.7087298,118.98937 63.6512829,116.033153 C60.2532029,114.370281 57.8154499,112.707409 56.0056029,110.896726 L54.9714047,109.825098 L54.8605977,108.420894 C54.6759195,105.982016 54.7128551,102.138934 55.0083403,100.771683 C55.1930186,99.6261491 55.5993107,98.5175678 56.1533455,97.5198446 C56.4488307,97.1503175 56.4488307,97.1503175 57.7785142,97.1503175 C59.4036829,97.1503175 60.770302,97.4089864 62.9864411,98.111088 C67.5295263,99.515291 74.2887506,102.91494 82.5254009,107.866604 C89.3215609,111.931402 91.8701209,113.926848 93.8277104,116.661349 C95.1573939,118.361174 96.0438495,120.7631 95.7114287,121.502154 Z" id="Path_8576" fill="#000000"></path>
                    <path d="M148.012312,172.940329 C148.012312,173.051187 147.569084,174.824917 147.015049,176.931222 C146.461014,179.037526 146.017786,180.737351 146.017786,180.811256 C145.611494,180.848209 145.242138,180.885162 144.835846,180.848209 L143.653905,180.848209 L142.028736,184.691291 C141.14228,186.797596 140.329696,188.756089 140.218889,189.051711 L139.997275,189.569049 L139.221627,188.312657 L138.445978,187.056265 L138.445978,176.820364 L138.150493,176.894269 C137.522587,177.04208 133.053373,177.633323 131.095783,177.818087 C123.006875,178.631046 114.881032,178.446283 106.82906,177.300749 C105.536312,177.115985 104.428242,176.968174 104.391307,177.005127 C104.354371,177.04208 104.391307,179.407053 104.465178,182.326318 L104.575985,187.573603 L103.948079,188.534373 C103.615658,189.051711 103.283237,189.495144 103.283237,189.532096 C103.17243,189.642954 102.803074,189.051711 101.953554,187.351886 C101.030163,185.578156 100.365321,183.693568 99.8851573,181.735074 L99.6266077,180.663446 L98.4816025,180.737351 L97.3365973,180.848209 L97.0411121,179.480959 C96.8933695,178.741905 96.7086913,177.59637 96.6348199,176.968174 L96.524013,175.785688 L95.563686,174.935775 C95.0096513,174.45539 94.4556165,173.975005 94.3448095,173.901099 C94.1601313,173.753288 94.08626,173.494619 94.08626,173.272903 L94.08626,172.829471 L98.7032164,172.866423 L103.320173,172.903376 L103.467916,173.383761 L103.615658,173.864147 L105.203891,173.938052 C106.090347,173.975005 108.897456,174.04891 111.409081,174.122816 L116.026037,174.233674 L117.207978,172.386038 L118.426855,170.538403 L119.978152,170.538403 L119.941216,166.695321 L119.904281,162.852239 L117.87282,161.965373 C111.335209,159.083062 107.493902,155.794271 106.053411,151.803378 C105.757926,150.990418 105.757926,150.694796 105.684055,146.999525 C105.647119,143.341207 105.647119,143.008632 105.905669,142.195673 C106.422768,140.348037 107.863258,138.906881 109.710041,138.426496 C110.337947,138.241733 112.000051,138.241733 120.716865,138.241733 L130.984976,138.278685 L132.129981,138.832976 C133.4966,139.498125 134.124507,139.97851 134.900155,141.013186 C135.786611,142.195673 136.04516,143.119491 136.04516,145.373606 C136.04516,148.588492 135.823547,151.359945 135.491126,152.468527 C135.010962,153.983588 134.272249,155.424744 133.348858,156.718088 C131.502075,159.083062 128.140931,161.448036 125.075272,162.519664 L124.188816,162.852239 L124.225752,166.732273 L124.262688,170.612308 L125.075272,170.686213 L125.887856,170.760119 L126.995926,172.422991 L128.06706,174.085863 L133.016437,174.085863 C135.749675,174.085863 138.150493,174.122816 138.372107,174.159768 C138.741463,174.233674 138.815334,174.196721 139.184691,173.568525 L139.627919,172.903376 L143.875519,172.903376 C147.051985,172.755565 148.012312,172.829471 148.012312,172.940329 Z" id="Path_8577" fill="#000000"></path>
                    <path d="M128.510287,183.545757 C127.80851,183.952237 127.328347,184.137 127.21754,184.063095 C127.106733,184.026142 126.589634,183.58271 126.035599,183.17623 L125.038336,182.36327 L124.004138,183.471852 C121.751063,185.910731 121.677192,186.021589 121.01235,186.058541 C119.978152,186.1694 119.756538,185.984636 118.500726,184.100048 C117.835884,183.139277 117.318785,182.326318 117.318785,182.326318 C117.318785,182.326318 116.838622,182.252412 116.284587,182.215459 L115.250388,182.104601 L114.770225,183.102324 L114.290062,184.100048 L113.440542,183.841379 C112.7757,183.619662 112.110858,183.360993 111.482952,183.065372 L110.374882,182.511081 L110.374882,180.404777 L120.199766,180.441729 L130.024649,180.478682 L130.061585,181.476405 C130.098521,182.658892 130.135456,182.621939 128.510287,183.545757 Z" id="Path_8578" fill="#000000"></path>
                </g>
                <path d="M220.947077,145.786136 C220.91026,145.637609 220.91026,145.377686 220.873444,144.969236 C212.037526,144.003809 186.818342,143.4097 163.403158,162.9039 C163.403158,162.9039 155.855811,128 120.512138,128 C85.1684647,128 72.0618524,162.9039 72.0618524,162.9039 C52.2546688,141.404583 25.7469138,142.964119 16.1746689,144.375127 C16.1746689,144.597918 16.1378526,144.857841 16.1378526,145.080632 C15.843322,150.464744 15.9905873,153.026839 16.8741791,156.405833 C19.6354036,166.988398 28.139975,178.647786 41.4674852,190.084383 C63.2995668,208.798814 92.8998932,222.314792 115.321036,223.874328 C138.699403,225.470996 173.196301,211.695095 196.169689,191.569655 C199.777689,188.339188 203.164791,184.923062 206.330995,181.284145 C208.613607,178.610654 212.000709,174.00631 211.742995,174.00631 C211.669362,174.00631 211.742995,173.932047 211.89026,173.857783 C212.000709,173.783519 212.111158,173.672124 212.037526,173.59786 C212.000709,173.560728 212.074342,173.449333 212.184791,173.412201 C212.29524,173.375069 212.368872,173.300806 212.332056,173.226542 C212.29524,173.152279 212.332056,173.078015 212.479321,173.040883 C212.58977,173.003751 212.626587,172.892356 212.58977,172.818092 C212.552954,172.743829 212.58977,172.669565 212.663403,172.669565 C212.737036,172.669565 212.810668,172.55817 212.810668,172.483906 C212.810668,172.409642 212.884301,172.298247 212.957934,172.298247 C213.031566,172.298247 213.105199,172.223983 213.105199,172.14972 C213.215648,171.852665 213.39973,171.555611 213.583811,171.295688 C214.136056,170.441657 216.345036,166.468553 216.639566,165.800181 C218.738097,161.010177 220.063485,156.740019 220.689362,152.469861 C220.91026,150.427612 221.094342,146.677299 220.947077,145.786136 Z M128.90626,191.086942 C128.20675,191.495392 127.728138,191.681051 127.617689,191.606787 C127.50724,191.569655 126.991811,191.124074 126.439567,190.715624 L125.445526,189.898724 L124.414669,191.012678 C122.168873,193.463378 122.09524,193.574773 121.432546,193.611905 C120.401689,193.7233 120.180791,193.537641 118.929036,191.643919 C118.266342,190.678492 117.750914,189.861592 117.750914,189.861592 C117.750914,189.861592 117.272301,189.787329 116.720056,189.750197 L115.689199,189.638801 L115.210587,190.64136 L114.731975,191.643919 L113.885199,191.383996 C113.222505,191.161205 112.559812,190.901283 111.933934,190.604228 L110.829444,190.047251 L110.829444,187.930738 L120.622587,187.96787 L130.41573,188.005002 L130.452546,189.007561 C130.489362,190.195778 130.526179,190.158647 128.90626,191.086942 Z M147.314424,184.403216 C146.762179,186.519729 146.320383,188.227793 146.320383,188.302056 C145.915403,188.339188 145.54724,188.37632 145.14226,188.339188 L143.964138,188.339188 L142.381036,192.238028 C141.497444,194.354541 140.687485,196.322527 140.577036,196.619581 L140.356138,197.139427 L139.582995,195.876945 L138.809852,194.614464 L138.809852,184.328953 L138.515322,184.403216 C137.889444,184.551744 133.434669,185.145853 131.483403,185.331512 C123.420628,186.148411 115.321036,185.962752 107.295077,184.811666 C106.006505,184.626007 104.902016,184.47748 104.865199,184.514612 C104.828383,184.551744 104.865199,186.928179 104.938832,189.861592 L105.049281,195.134309 L104.423403,196.099736 C104.092056,196.619581 103.760709,197.065163 103.760709,197.102295 C103.650261,197.21369 103.282097,196.619581 102.435322,194.911518 C101.514914,193.129191 100.85222,191.235469 100.373607,189.267483 L100.115893,188.190661 L98.9745871,188.264924 L97.8332809,188.37632 L97.5387503,187.002443 C97.391485,186.259807 97.2074034,185.108721 97.1337707,184.47748 L97.0233218,183.289262 L96.0660973,182.435231 C95.5138524,181.952517 94.9616075,181.469804 94.8511585,181.39554 C94.6670769,181.247013 94.5934442,180.98709 94.5934442,180.764299 L94.5934442,180.318718 L99.195485,180.355849 L103.797526,180.392981 L103.944791,180.875695 L104.092056,181.358408 L105.675158,181.432672 C106.55875,181.469804 109.356791,181.544067 111.860301,181.618331 L116.462342,181.729726 L117.640465,179.873136 L118.855403,178.016545 L120.401689,178.016545 L120.364873,174.154837 L120.328056,170.293129 L118.303158,169.401966 C111.786669,166.505685 107.957771,163.200954 106.521934,159.190719 C106.227403,158.373819 106.227403,158.076765 106.153771,154.363584 C106.116954,150.687535 106.116954,150.353348 106.374669,149.536449 C106.890097,147.679858 108.325934,146.231718 110.16675,145.749004 C110.792628,145.563345 112.449363,145.563345 121.138016,145.563345 L131.372954,145.600477 L132.51426,146.157454 C133.876465,146.825827 134.502342,147.30854 135.275485,148.348231 C136.159077,149.536449 136.416791,150.464744 136.416791,152.729784 C136.416791,155.960251 136.195893,158.745137 135.864546,159.859091 C135.385934,161.381495 134.649607,162.829636 133.729199,164.129249 C131.888383,166.505685 128.538097,168.882121 125.482342,169.958943 L124.59875,170.293129 L124.635567,174.191969 L124.672383,178.090809 L125.482342,178.165073 L126.292301,178.239336 L127.396791,179.910268 L128.464465,181.581199 L133.397852,181.581199 C136.12226,181.581199 138.515322,181.618331 138.73622,181.655463 C139.104383,181.729726 139.178016,181.692594 139.546179,181.061354 L139.987975,180.392981 L144.221852,180.392981 C147.498505,180.392981 148.45573,180.430113 148.45573,180.541508 C148.345281,180.504377 147.866669,182.323835 147.314424,184.403216 Z" id="Path_8579" fill="#FFFFFF" fill-rule="nonzero"></path>
                <path d="M16,145 C13.48,145.473684 12,146 12,146" id="Path_8580"></path>
                <path d="M224,146.05 C224,146.05 222.921348,145.996154 221,145.95" id="Path_8581"></path>
                <path d="M220.815681,142.23954 C220.741953,140.580179 220.594497,138.257072 220.483906,137.113956 C218.898759,120.372839 214.62255,106.692323 206.512498,92.2005638 C206.180723,91.6474432 205.885812,91.0943226 205.701493,90.6518262 C205.627765,90.541202 205.590901,90.4305779 205.554037,90.3568285 L205.554037,90.3568285 C206.696817,86.9274808 211.378529,72.5832201 215.10178,56.1739757 C220.152131,33.9016531 223.359288,7.86811043 213.553498,0.0506726815 C213.553498,0.0506726815 196.596116,-1.20306733 173.88797,21.0692553 C167.731703,27.2273313 162.09153,33.9016531 157.078044,41.0184714 L155.492897,40.5022255 C146.350656,37.5153743 136.876641,35.671639 127.328898,35.044769 C124.453516,34.8235208 113.726128,34.8235208 110.22406,35.044769 C99.6441288,35.7453884 91.5340766,37.3310008 82.3181083,40.5391002 C81.9494695,40.6865991 81.6176947,40.7972232 81.2859198,40.9078473 C76.0881136,33.8279037 70.3004855,27.1904565 63.9230354,21.10613 C40.2932926,-1.27681675 22.709225,0.0137979751 22.709225,0.0137979751 C12.3136127,8.08935866 15.8525445,35.3028919 21.23467,58.3127087 C24.7736019,73.5419624 29.1235389,86.9274808 30.7455494,91.7580674 C30.6349577,92.0161903 30.4875022,92.3111879 30.3400468,92.5693109 C21.7507643,109.974172 17.1059162,126.752164 16,144.599522 C25.621471,143.198283 52.1265959,141.61267 71.9962237,163 C71.9962237,163 85.1197626,128.337776 120.509081,128.337776 C155.8984,128.337776 163.455494,163 163.455494,163 C186.900917,143.640779 212.15267,144.267649 221,145.189517 C220.963136,144.452023 220.889408,143.345782 220.815681,142.23954 Z M37.7128214,77.8563031 C37.7128214,77.8563031 23.9257328,43.3784526 27.4646646,23.6873594 C27.4646646,23.6873594 27.4646646,23.6873594 27.4646646,23.6873594 C28.0544866,20.3686359 29.1604028,17.4555341 30.8930049,15.2430517 C30.8930049,15.2430517 46.5232872,16.7917894 71.7381766,44.8165662 C71.7381766,44.8165662 66.945873,47.1396727 60.5315591,52.0808833 C60.5315591,52.0808833 60.4946952,52.117758 60.4578313,52.117758 C53.4905593,57.4645905 44.5695019,65.9457729 37.7128214,77.8563031 L37.7128214,77.8563031 Z M96.2157885,129.07527 C95.9946053,129.517767 94.8886891,129.997138 93.6353174,130.181511 C92.3819457,130.365885 88.5481029,130.255261 86.3731343,129.997138 C78.5579932,128.964646 70.2636217,126.56779 64.2179464,123.617814 C60.8264701,121.958452 58.3934544,120.29909 56.5871246,118.492229 L55.5549362,117.422863 L55.4443445,116.021624 C55.2600252,113.587894 55.296889,109.752924 55.5918,108.38856 C55.7761194,107.245444 56.181622,106.139203 56.7345801,105.143586 C57.0294911,104.774839 57.0294911,104.774839 58.3565905,104.774839 C59.978601,104.774839 61.3425643,105.032962 63.5543967,105.733581 C68.0886531,107.13482 74.834742,110.527293 83.0553857,115.468504 C89.8383384,119.524721 92.3819457,121.515955 94.335731,124.244684 C95.6628304,125.94092 96.5475634,128.337776 96.2157885,129.07527 Z M183.067074,116.869742 C182.956483,117.459738 181.223881,119.229724 179.491279,120.520338 C174.404064,124.244684 165.298687,127.710906 156.045855,129.370268 C150.774321,130.32901 145.502787,130.476509 143.917641,129.70214 C142.885452,129.185894 142.737997,128.780273 143.106635,127.452783 C143.880777,124.68718 146.38752,121.663454 150.295091,118.824102 C152.28574,117.385988 160.358928,112.481652 164.119043,110.416669 C170.312174,107.024196 175.325661,104.996087 178.717137,104.516716 C179.78619,104.369217 181.076425,104.332342 181.481928,104.516716 C182.145477,104.774839 182.882755,106.729198 183.177666,109.089179 C183.325121,110.342919 183.251394,115.874125 183.067074,116.869742 Z M176.947671,52.0808833 L176.873944,52.0440086 C170.680813,47.102798 166.035965,44.7796915 166.035965,44.7796915 C190.402985,16.7549147 205.480309,15.206177 205.480309,15.206177 C207.139184,17.4555341 208.208236,20.3317612 208.798058,23.6504847 C208.798058,23.6504847 208.798058,23.6504847 208.798058,23.6504847 C212.226398,43.3415779 198.91854,77.8563031 198.91854,77.8563031 C193.352095,67.9370071 185.868729,59.1608269 176.947671,52.0808833 L176.947671,52.0808833 Z" id="Path_8582" fill="#FFA409" fill-rule="nonzero"></path>
                <path d="M157.025,40.965 C157.005,40.985 156.995,41.015 156.975,41.035" id="Path_8583"></path>
                <path d="M205.035,91 C204.985,91.6666667 204.965,92 204.965,92" id="Path_8584"></path>
                <g id="Group_934" transform="translate(166, 15)" fill-rule="nonzero">
                    <g id="Group_933">
                        <g id="Group_932" fill="#FF9300">
                            <path d="M42.4402378,8.49146557 C39.5889556,8.12065921 26.1001979,8.04649794 10.8202501,37.0806357 L10.7471403,37.043555 C4.60591728,32.0747499 0,29.7386698 0,29.7386698 C24.1627883,1.5573867 39.113742,0 39.113742,0 C40.7952673,2.26191878 41.8553594,5.15420836 42.4402378,8.49146557 Z" id="Path_8585"></path>
                        </g>
                        <path d="M32.6435248,63 C27.0871802,52.9882284 19.7030906,44.2001177 10.8202501,37.0806357 C26.1001979,8.04649794 39.5524007,8.12065921 42.4402378,8.49146557 C42.4402378,8.49146557 42.4402378,8.49146557 42.4402378,8.49146557 C45.8398434,28.3296057 32.6435248,63 32.6435248,63 Z" id="Path_8586" fill="#FF8300"></path>
                        <path d="M42.9885613,8.60270747 C42.8057868,8.56562684 42.6230123,8.5285462 42.4402378,8.49146557 L42.9885613,8.60270747 Z" id="Path_8587" fill="#FF8300"></path>
                    </g>
                </g>
                <path d="M82,42 C81.6774194,41.3333333 81.3225806,40.6666667 81,40" id="Path_8588"></path>
                <path d="M30,92 C30.6111111,93.3076923 31,94 31,94" id="Path_8589"></path>
                <g id="Group_937" transform="translate(26, 15)" fill-rule="nonzero">
                    <g id="Group_936">
                        <g id="Group_935" transform="translate(0.5546, 0)" fill="#FF9300">
                            <path d="M44.4453574,29.7386698 C44.4453574,29.7386698 39.6384552,32.0747499 33.2046015,37.043555 C33.2046015,37.043555 33.1676253,37.0806357 33.1306491,37.0806357 C17.1199671,8.0094173 3.03204601,8.12065921 0,8.49146557 C0.591618735,5.15420836 1.70090386,2.22483814 3.43878389,0 C3.47576007,0 19.1536565,1.5573867 44.4453574,29.7386698 Z" id="Path_8590"></path>
                        </g>
                        <path d="M33.7222679,37.0806357 C26.6967954,42.4944085 17.748562,50.985874 10.8709942,63 C10.8709942,63 -2.95809367,28.3296057 0.591618735,8.49146557 C0.591618735,8.49146557 0.591618735,8.49146557 0.591618735,8.49146557 C3.58668858,8.12065921 17.7115859,8.04649794 33.7222679,37.0806357 Z" id="Path_8591" fill="#FF8300"></path>
                        <path d="M0.591618735,8.49146557 C0.40673788,8.5285462 0.184880855,8.56562684 0,8.60270747 L0.591618735,8.49146557 Z" id="Path_8592" fill="#FF8300"></path>
                    </g>
                </g>
                <path d="M161.586325,97.8331352 C161.586325,97.8331352 149.635357,98.5840269 151.129228,89.1978801 C152.623099,79.8117334 161.959793,78.6853957 164.574067,79.0608416 C167.188342,79.4362875 177.645439,83.1907462 175.7781,91.0751095 C173.910761,98.9594728 171.296487,97.4576893 169.802616,97.8331352 C168.308745,98.208581 161.586325,97.8331352 161.586325,97.8331352 Z" id="Path_8593" fill="#FFFFFF" fill-rule="nonzero"></path>
                <path d="M74.5863251,97.8331352 C74.5863251,97.8331352 62.6353565,98.5840269 64.1292276,89.1978801 C65.6230987,79.8117334 74.9597928,78.6853957 77.5740672,79.0608416 C80.1883415,79.4362875 90.645439,83.1907462 88.7781002,91.0751095 C86.9107613,98.9594728 84.296487,97.4576893 82.8026159,97.8331352 C81.3087448,98.208581 74.5863251,97.8331352 74.5863251,97.8331352 Z" id="Path_8594" fill="#FFFFFF" fill-rule="nonzero"></path>
            </g>
        </g>
    </g>
</svg>