<?xml version="1.0" encoding="UTF-8"?>
<svg width="240px" height="240px" viewBox="0 0 240 240" version="1.1" xmlns="http://www.w3.org/2000/svg" xmlns:xlink="http://www.w3.org/1999/xlink">
    <title>shodan</title>
    <defs>
        <linearGradient x1="43.2806497%" y1="33.5354856%" x2="61.6753028%" y2="60.815365%" id="linearGradient-1">
            <stop stop-color="#E8A8A9" offset="0%"></stop>
            <stop stop-color="#D66468" offset="100%"></stop>
        </linearGradient>
        <linearGradient x1="24.1548384%" y1="9.05178178%" x2="78.5795928%" y2="90.2054342%" id="linearGradient-2">
            <stop stop-color="#E8A8A9" offset="0%"></stop>
            <stop stop-color="#D66468" offset="100%"></stop>
        </linearGradient>
    </defs>
    <g id="Page-1" stroke="none" stroke-width="1" fill="none" fill-rule="evenodd">
        <g id="shodan">
            <rect id="box" x="0" y="0" width="240" height="240"></rect>
            <g id="shape">
                <path d="M169.205021,99 C208.304008,99 240,130.563925 240,169.5 C240,208.436075 208.304008,240 169.205021,240 C130.106034,240 98.4100418,208.436075 98.4100418,169.5 C98.4100418,130.563925 130.106034,99 169.205021,99 Z M169.205021,109 C135.651989,109 108.451883,136.086773 108.451883,169.5 C108.451883,202.913227 135.651989,230 169.205021,230 C202.758053,230 229.958159,202.913227 229.958159,169.5 C229.958159,136.086773 202.758053,109 169.205021,109 Z" id="inner3" fill="#C83237" fill-rule="nonzero"></path>
                <path d="M133.718451,0 C166.350138,0 192.803347,26.290051 192.803347,58.7204724 C192.803347,91.1508939 166.350138,117.440945 133.718451,117.440945 C129.962307,117.440945 126.288027,117.09261 122.72653,116.426672 C113.619035,140.149096 90.5088606,157 63.4385207,157 C28.4023932,157 0,128.772787 0,93.9527559 C0,59.1327245 28.4023932,30.9055118 63.4385207,30.9055118 C69.3451255,30.9055118 75.063191,31.7077653 80.4884142,33.2086125 C90.0390495,13.5568023 110.285744,0 133.718451,0 Z M133.679299,10 C114.647701,10 97.5889001,20.851281 89.4563945,37.5757451 L85.8430685,45.0065353 L77.8393722,42.7936086 C73.2061291,41.5125721 68.3885019,40.8558559 63.4731044,40.8558559 C33.9638324,40.8558559 10.041841,64.6170319 10.041841,93.9279279 C10.041841,123.238824 33.9638324,147 63.4731044,147 C85.8244302,147 105.576314,133.24237 113.411301,112.845858 L116.372762,105.136403 L124.536938,106.662111 C127.526389,107.220775 130.581968,107.504505 133.679299,107.504505 C160.786654,107.504505 182.761506,85.6773777 182.761506,58.7522523 C182.761506,31.8271268 160.786654,10 133.679299,10 Z" id="Combined-Shape" fill="#C83237" fill-rule="nonzero"></path>
                <path d="M133.509863,9 C161.26539,9 183.76569,31.5036875 183.76569,59.2633929 C183.76569,87.0230982 161.26539,109.526786 133.509863,109.526786 C127.548979,109.526786 121.830485,108.488837 116.525205,106.583789 C110.864203,130.336869 89.5046752,148 64.0203228,148 C34.2088305,148 10.041841,123.829373 10.041841,94.0133929 C10.041841,64.197413 34.2088305,40.0267857 64.0203228,40.0267857 C71.6427197,40.0267857 78.896104,41.606955 85.4708598,44.4576314 C91.7878448,23.9249884 110.906157,9 133.509863,9 Z M64.2677824,57 C43.7477465,57 27.1129707,73.5654643 27.1129707,94 C27.1129707,114.434536 43.7477465,131 64.2677824,131 C84.7878183,131 101.422594,114.434536 101.422594,94 C101.422594,73.5654643 84.7878183,57 64.2677824,57 Z M133.509863,25.7544643 C115.006178,25.7544643 100.005977,40.7569226 100.005977,59.2633929 C100.005977,77.7698631 115.006178,92.7723214 133.509863,92.7723214 C152.013547,92.7723214 167.013748,77.7698631 167.013748,59.2633929 C167.013748,40.7569226 152.013547,25.7544643 133.509863,25.7544643 Z" id="Combined-Shape" fill="url(#linearGradient-1)"></path>
                <path d="M169.205021,109 C202.758053,109 229.958159,136.086773 229.958159,169.5 C229.958159,202.913227 202.758053,230 169.205021,230 C135.651989,230 108.451883,202.913227 108.451883,169.5 C108.451883,136.086773 135.651989,109 169.205021,109 Z M169.205021,126 C145.080114,126 125.523013,145.475613 125.523013,169.5 C125.523013,193.524387 145.080114,213 169.205021,213 C193.329928,213 212.887029,193.524387 212.887029,169.5 C212.887029,145.475613 193.329928,126 169.205021,126 Z" id="ext3" fill="url(#linearGradient-2)" fill-rule="nonzero"></path>
            </g>
        </g>
    </g>
</svg>