<?xml version="1.0" encoding="UTF-8"?>
<svg width="240px" height="240px" viewBox="0 0 240 240" version="1.1" xmlns="http://www.w3.org/2000/svg" xmlns:xlink="http://www.w3.org/1999/xlink">
    <title>sieve</title>
    <g id="Page-1" stroke="none" stroke-width="1" fill="none" fill-rule="evenodd">
        <g id="sieve" fill="#FFFFFF">
            <path d="M120,240 C186,240 240,186 240,120 C240,54 186,0 120,0 C54,0 0,54 0,120 C0,186 54,240 120,240 Z M120,224.25 C177.75,224.25 224.25,177.75 224.25,120 C224.25,62.25 177.75,15.75 120,15.75 C62.25,15.75 15.75,62.25 15.75,120 C15.75,177.75 62.25,224.25 120,224.25 Z" id="Shape"></path>
            <path d="M119.5,36 C72.25,36 34,74.2034524 34,121.395952 C34,168.588452 34,123.643214 34,124.392302 L205,124.392302 C205,123.643214 205,122.14504 205,121.395952 C205,74.2034524 166.75,36 119.5,36 Z" id="Path" fill-rule="nonzero"></path>
            <path d="M36,137 C36.7488789,141.666667 38.2466368,146.333333 39.7443946,151 L199.255605,151 C200.753363,146.333333 202.251121,141.666667 203,137 L36,137 Z" id="Path" fill-rule="nonzero"></path>
            <path d="M55.75,178 C52,173.333333 49,168.666667 46,164 L193,164 C190,168.666667 187,173.333333 183.25,178 L55.75,178 Z" id="Path" fill-rule="nonzero"></path>
            <path d="M71,191 C84.5692308,200.75 101.907692,206 120,206 C138.092308,206 155.430769,200 169,191 L71,191 Z" id="Path" fill-rule="nonzero"></path>
        </g>
    </g>
</svg>