<?xml version="1.0" encoding="UTF-8"?>
<svg width="240px" height="240px" viewBox="0 0 240 240" version="1.1" xmlns="http://www.w3.org/2000/svg" xmlns:xlink="http://www.w3.org/1999/xlink">
    <title>sigma</title>
    <g id="Page-1" stroke="none" stroke-width="1" fill="none" fill-rule="evenodd">
        <g id="sigma" transform="translate(170, 109)">
            <rect id="box" x="-170" y="-109" width="240" height="240"></rect>
            <g id="shape" transform="translate(-170, -109)" fill-rule="nonzero">
                <path d="M109.708886,240 C175.734992,240 233.867217,186.27417 239.550843,120 C245.234468,53.7258301 196.317222,0 130.291114,0 C64.2650069,0 6.13278225,53.7258301 0.449156639,120 C-5.23446895,186.27417 43.6827777,240 109.708886,240 Z" id="a" fill="#21283A"></path>
                <path d="M226.846094,42.1757322 C227.613519,48.7158966 225.510974,55.0130816 220.538457,61.0672865 C215.56594,67.1214916 208.871348,70.1485939 200.454676,70.1485939 L184.449386,70.2414711 C194.460918,83.7308309 199.692372,101.076686 198.072496,120 C194.393218,162.981156 156.761503,197.824268 114.019707,197.824268 C71.2779109,197.824268 39.6114827,162.981156 43.2907602,120 C46.9700374,77.0188438 84.601753,42.1757322 127.343549,42.1757322 L226.846094,42.1757322 Z M124.911419,70.5877666 C97.7737709,70.5877666 73.8806184,92.7103771 71.5445691,120 C69.2085198,147.289623 89.3141887,169.412234 116.451837,169.412234 C143.589485,169.412234 167.482638,147.289623 169.818687,120 C172.154737,92.7103771 152.049068,70.5877666 124.911419,70.5877666 Z" id="d" fill="#26D2FF"></path>
            </g>
        </g>
    </g>
</svg>