<?xml version="1.0" encoding="UTF-8"?>
<svg width="240px" height="240px" viewBox="0 0 240 240" version="1.1" xmlns="http://www.w3.org/2000/svg" xmlns:xlink="http://www.w3.org/1999/xlink">
    <title>slack</title>
    <g id="Page-1" stroke="none" stroke-width="1" fill="none" fill-rule="evenodd">
        <g id="slack">
            <rect id="ViewBox" x="0" y="0" width="240" height="240"></rect>
            <path d="M51.103125,151.348125 C51.103125,165.091875 39.894375,176.3175 26.14875,176.3175 C12.403125,176.3175 1.18125,165.091875 1.18125,151.348125 C1.18125,137.604375 12.406875,126.37875 26.150625,126.37875 L51.105,126.37875 L51.103125,151.348125 Z M63.6825,151.348125 C63.6825,137.604375 74.908125,126.37875 88.651875,126.37875 C102.395625,126.37875 113.62125,137.6025 113.62125,151.348125 L113.62125,213.85125 C113.62125,227.595 102.3975,238.820625 88.651875,238.820625 C74.908125,238.820625 63.6825,227.595 63.6825,213.85125 L63.6825,151.348125 Z" id="Shape" fill="#DE1C59" fill-rule="nonzero"></path>
            <path d="M88.651875,51.103125 C74.908125,51.103125 63.6825,39.894375 63.6825,26.14875 C63.6825,12.403125 74.908125,1.18125 88.651875,1.18125 C102.395625,1.18125 113.62125,12.406875 113.62125,26.150625 L113.62125,51.105 L88.651875,51.103125 Z M88.651875,63.6825 C102.395625,63.6825 113.62125,74.908125 113.62125,88.651875 C113.62125,102.395625 102.3975,113.62125 88.651875,113.62125 L26.14875,113.62125 C12.405,113.62125 1.18125,102.3975 1.18125,88.651875 C1.18125,74.908125 12.406875,63.6825 26.150625,63.6825 L88.651875,63.6825 Z" id="Shape" fill="#35C5F0" fill-rule="nonzero"></path>
            <path d="M188.896875,88.651875 C188.896875,74.908125 200.105625,63.6825 213.85125,63.6825 C227.596875,63.6825 238.820625,74.908125 238.820625,88.651875 C238.820625,102.395625 227.595,113.62125 213.85125,113.62125 L188.896875,113.62125 L188.896875,88.651875 Z M176.3175,88.651875 C176.3175,102.395625 165.091875,113.62125 151.348125,113.62125 C137.604375,113.62125 126.37875,102.3975 126.37875,88.651875 L126.37875,26.14875 C126.37875,12.405 137.6025,1.18125 151.348125,1.18125 C165.091875,1.18125 176.3175,12.406875 176.3175,26.150625 L176.3175,88.651875 Z" id="Shape" fill="#2EB57D" fill-rule="nonzero"></path>
            <path d="M151.348125,188.896875 C165.091875,188.896875 176.3175,200.105625 176.3175,213.85125 C176.3175,227.596875 165.091875,238.820625 151.348125,238.820625 C137.604375,238.820625 126.37875,227.595 126.37875,213.85125 L126.37875,188.896875 L151.348125,188.896875 Z M151.348125,176.3175 C137.604375,176.3175 126.37875,165.091875 126.37875,151.348125 C126.37875,137.604375 137.6025,126.37875 151.348125,126.37875 L213.85125,126.37875 C227.595,126.37875 238.820625,137.6025 238.820625,151.348125 C238.820625,165.091875 227.595,176.3175 213.85125,176.3175 L151.348125,176.3175 Z" id="Shape" fill="#EBB02E" fill-rule="nonzero"></path>
        </g>
    </g>
</svg>