<?xml version="1.0" encoding="UTF-8"?>
<svg width="1024px" height="1024px" viewBox="0 0 1024 1024" version="1.1" xmlns="http://www.w3.org/2000/svg" xmlns:xlink="http://www.w3.org/1999/xlink">
    <title>sliver-c2</title>
    <g id="Page-1" stroke="none" stroke-width="1" fill="none" fill-rule="evenodd">
        <g id="sliver-c2">
            <path d="M61.414631,709.602647 C61.414631,709.602647 22.999631,460.432647 203.866631,268.656647 C384.617631,76.8806472 642.129631,64.1586472 817.336631,133.469647 C817.336631,133.469647 784.489631,162.740647 784.489631,199.275647 C784.489631,235.719647 806.425631,257.653647 830.147631,281.376647 C853.870631,305.191647 965.242631,440.285647 965.242631,593.670647 C965.242631,747.123647 839.270631,929.685647 640.250631,929.685647 C441.208631,929.685647 327.957631,785.446647 311.568631,619.271647 C311.568631,619.271647 408.339631,783.565647 567.179631,783.565647 C726.019631,783.565647 780.799631,657.594647 780.799631,564.398647 C780.799631,471.364647 729.686631,292.378647 505.133631,292.378647 C280.488631,292.378647 125.338631,491.420647 61.413631,709.602647 L61.414631,709.602647 Z" id="Path" fill="#FFFFFF" fill-rule="nonzero"></path>
            <rect id="Rectangle" x="0" y="0" width="1024" height="1024"></rect>
        </g>
    </g>
</svg>