<?xml version="1.0" encoding="UTF-8"?>
<svg width="240px" height="240px" viewBox="0 0 240 240" version="1.1" xmlns="http://www.w3.org/2000/svg" xmlns:xlink="http://www.w3.org/1999/xlink">
    <title>snort</title>
    <g id="Page-1" stroke="none" stroke-width="1" fill="none" fill-rule="evenodd">
        <g id="snort">
            <rect id="box" x="5.68434189e-14" y="0" width="240" height="240"></rect>
            <g id="shape" transform="translate(0.2695, 18)">
                <path d="M79.6971878,0 L81.4957926,0 C83.9616006,5.54814158 86.4723521,11.0764521 89.0276127,16.5843921 C106.794154,7.65504526 131.249012,6.13916737 141.517604,26.4158684 C141.706279,26.7887526 141.892132,27.1629316 142.075162,27.5386211 C146.836558,24.9368474 151.716934,22.9328105 155.892763,19.6229668 C160.91622,28.9615368 161.935372,33.9633211 165.797465,42.6887684 C160.511295,42.7023632 155.247272,42.6531632 149.968267,42.3473895 C144.696427,42.0420474 147.593431,44.8803263 145.441576,48.0917053 C149.055069,56.9444684 195.94103,61.1111474 205.937572,59.2096105 C212.042928,58.0482316 219.099911,57.0996211 225.261717,57.6390947 C261.628967,63.3234211 219.09774,117.734737 209.822246,131.729763 C206.855981,136.205237 204.843383,139.82896 198.916686,147.082507 C192.989989,154.336055 172.276823,167.321753 167.887659,169.898821 C109.589113,203.548384 120.198145,146.384458 100.879645,135.3205 L99.8774288,135.955568 C96.9836813,141.680895 104.684853,145.994958 100.283005,150.904816 C94.6822315,157.152137 90.3353139,154.630421 85.1878826,150.000442 C82.3937922,151.382142 79.881738,151.916437 76.7556744,153.547158 C76.0137825,154.9021 76.5791576,154.893253 77.6764715,156.892326 C80.2282582,161.540432 79.8932453,164.479916 79.8289784,169.633184 C83.262481,174.794221 83.7718396,176.060905 85.1385968,182.122863 C82.9435348,189.249742 83.9609493,191.208463 78.2366357,196.595863 C71.1479531,203.536084 65.6047158,201.851416 62.0155397,205 L61.340303,205 C61.1716024,201.459758 69.1834703,197.622805 71.208529,193.920937 C73.8762567,192.8148 72.4358965,180.394821 69.1569819,180.791442 C59.7240773,181.932537 32.4523313,179.507926 39.1117717,163.315732 C41.3980233,157.756995 52.1913887,158.392926 57.4367402,157.410221 C56.9792727,156.695958 56.5433,155.714979 55.602311,155.652832 C43.9875885,154.883542 34.9042438,155.549037 24.5798531,148.806479 C15.8543838,152.5815 8.87219756,158.704526 -0.269508488,151.086295 L-0.269508488,141.860432 C2.72977999,139.006832 4.24960534,137.555863 7.67670294,135.258784 C-2.79476344,122.771047 2.56335911,104.412111 9.53414663,91.3974158 C10.6370622,89.3383526 13.1187633,86.9471895 14.0566692,84.9224368 C15.4402531,81.9356947 5.86118471,79.7154368 5.38207063,76.4289632 C0.768794937,62.2405895 20.0752427,59.2913947 29.7511674,62.7403579 C34.1747276,54.6057421 43.9967075,42.7088368 51.5858468,37.5926842 C49.5501493,27.0433842 48.3590405,20.3496811 47.4621264,9.65783053 C51.9445256,10.3510111 61.3552842,9.80007895 66.2725705,9.63976895 C68.9411667,8.19374211 77.5294826,2.06723511 79.6971878,0 Z" id="Shape" fill="#2E2D2C" fill-rule="nonzero"></path>
                <path d="M76.3171784,194 C75.8246562,193.384363 76.5088722,174.478864 69.911993,171.064579 C67.6112322,169.873985 63.534908,165.009146 59.5193595,165.432261 C56.9637332,165.701575 52.2247586,165.740949 52.2724642,168.729509 C54.8962725,171.940611 63.6987191,171.124185 63.9612088,175.099287 L63.068308,175.962701 C59.205461,177.197892 48.6296293,175.33771 46.4630542,171.988688 C40.5349247,162.825483 51.200504,160.523044 57.7039325,161.077335 C69.3573881,164.105704 78.0408974,171.651936 80.7304915,183.722993 C79.7081974,187.527326 78.7131326,190.782154 76.3171784,194 Z" id="Path" fill="#E3A6A7" fill-rule="nonzero"></path>
                <path d="M78.1828972,8 C81.0006757,11.5810294 84.6845462,17.4915938 87.2949567,21.4445022 C103.800543,14.6150394 118.931476,9.92328076 133.061539,24.1711677 C134.830126,26.258109 137.009549,28.710854 138.531765,30.9199461 C142.071323,36.95398 142.520512,44.5664619 141.110973,51.292972 C162.322752,62.240063 180.99996,65.9067494 204.730492,65.2700518 C197.227755,68.414192 190.700537,71.2671162 183.696828,75.3858686 C167.798611,84.7352702 146.71056,105.557984 137.340428,121.249067 C130.947555,131.544326 122.023578,143.864695 122.212528,156 C114.114124,138.717065 103.288732,122.612183 86.7216068,112.242985 C85.9008021,111.729303 85.2375277,112.137913 84.5293994,112.479287 C84.1944036,117.082751 103.934888,128.481043 87.4212844,143.416953 C77.3911283,152.489191 60.4604051,152.494164 47.7197299,151.494689 C43.7036805,151.179691 36.1547903,150.980358 33.5487135,147.831894 C30.4455602,144.083269 32.3086223,141.011122 31.692802,138.538055 C10.4907306,160.992833 -5.16846027,147.048615 27.0050275,125.879339 C21.9634055,122.915723 18.4564803,130.369733 13.2454969,130.462049 C-0.705958489,126.764014 10.5776431,91.3975701 20.7684498,87.2308221 C23.8448859,85.972993 27.4396987,84.3506573 30.2984307,82.6941625 C27.8815204,82.3534374 25.4802115,81.9111002 23.1005711,81.3688803 C16.6391172,79.8585341 5.50754865,74.4164452 15.7588106,67.8650539 C24.4964592,62.2809241 29.2147864,67.565406 36.9368083,69.6588332 L37.5758139,69.143854 C37.3595618,67.5146 35.7517552,65.9013444 34.6618271,64.586872 C39.6284759,54.6312565 44.2835309,49.2765108 52.9028476,42.4561715 C56.309794,51.4611726 60.5743817,53.6058382 68.5321575,46.9191082 C71.6467951,44.302054 80.0713115,24.4727613 78.0793215,21.2464665 C77.4617678,21.3355393 76.7129026,21.3394308 76.4283945,21.9393751 C73.7622959,27.560042 68.9533941,42.4492532 62.8432958,45.1793779 C61.6142555,45.1984032 61.0404723,45.2176446 60.0573701,44.3993423 C56.8974451,41.7693164 55.4025317,20.7771263 54.9301573,15.7963567 L67.4643312,15.7503069 C69.2556704,14.7507241 75.7430182,9.66570469 78.1828972,8 Z" id="Path" fill="#E3A6A7" fill-rule="nonzero"></path>
                <path d="M40.5653733,130.033431 C43.2200249,129.930768 49.1341304,129.089322 50.7096164,131.46573 C56.6761149,141.612681 65.4435741,146.412064 75.805433,141.75563 C105.217912,128.538105 83.9933082,121.041763 75.0967143,111.112917 C70.8265754,106.347322 80.9356,97.6844348 93.2705666,107.449107 C98.6035662,111.670848 114.567346,124.017471 121.311479,127.593779 C126.394036,125.9215 133.978196,120.387233 137.730492,121.186011 C131.316587,131.499951 122.363252,143.842676 122.552824,156 C114.427777,138.685705 103.566771,122.551601 86.9451433,112.163587 C86.1216383,111.648973 85.4561819,112.058325 84.745724,112.400318 C84.4096261,117.012135 104.215053,128.43111 87.6471227,143.394121 C77.5839692,152.482821 60.5975469,152.487802 47.814957,151.486514 C43.7856955,151.170945 36.2119708,150.97125 33.5973205,147.817073 C30.4839583,144.061646 32.3531496,140.983925 31.7353034,138.50637 C34.6810514,134.533489 36.2771903,132.497774 40.5653733,130.033431 Z" id="Path" fill="#DE9295" fill-rule="nonzero"></path>
                <path d="M30.1566935,83 C40.6964301,83.1260031 50.8424478,84.0651604 36.999607,95.5894445 C33.5239816,98.4829529 22.1403768,103.970169 28.2845899,110.279664 C35.9550025,116.535282 39.6811176,121.01165 26.8830967,126.395022 C21.871795,123.417005 18.3859604,130.907236 13.2063158,131 C-0.661235793,127.283996 10.5545064,91.7456992 20.6840258,87.5587041 C23.7419602,86.294763 27.3151538,84.664544 30.1566935,83 Z" id="Path" fill="#DE9295" fill-rule="nonzero"></path>
                <path d="M78.9702632,125 C80.2684135,125.184408 79.8603822,124.955554 80.7304915,125.816055 C80.293374,127.665052 78.1319218,129.574949 76.7731237,131 C75.3903966,130.97735 75.8943504,131.135902 74.7304915,130.333523 L74.8338402,128.967876 C76.0593783,126.799423 76.9728074,126.319919 78.9702632,125 Z" id="Path" fill="#070A07" fill-rule="nonzero"></path>
                <path d="M131.314517,169.577343 C129.130538,166.91116 127.878068,163.613137 127.74624,160.179751 C127.057905,144.284282 149.105783,114.047429 160.048991,102.773561 C177.084592,85.2228106 196.428807,68.0547966 222.000947,67 C230.634014,68.2202167 232.745433,73.3819733 231.322568,81.4938302 C227.104088,105.529266 210.421262,125.747065 193.905564,142.89605 C189.151929,147.550519 187.876501,148.898974 182.158949,152.977494 C176.441397,157.056014 172.225277,159.691707 169.987696,161.381155 C160.994009,168.171381 141.383088,178.39629 131.314517,169.577343 Z" id="Path" fill="#EEC8C7" fill-rule="nonzero"></path>
                <path d="M167.730492,157.817845 C168.106044,140.586288 207.422501,89.5704768 225.730492,89 C224.053916,92.052927 220.471452,92.3043088 218.528788,95.2058009 C216.683256,97.9619155 214.874934,100.75762 213.179105,103.618657 C207.478531,113.237583 200.192242,121.899658 193.161873,130.566708 C186.850161,138.348297 178.897351,144.645175 171.819389,151.653365 C170.059958,153.342729 169.527781,156.219991 168.257693,158 L167.730492,157.817845 Z" id="Path" fill="#2E2D2C" fill-rule="nonzero"></path>
                <path d="M210.819423,78 L212.217523,78.2777225 L212.730492,79.1450912 C212.001547,81.5530296 207.018514,83.0048493 204.826699,83.7940747 C195.04758,104.570228 175.869087,123.684808 161.069458,141.109243 C155.933921,147.155714 146.126208,151.239511 143.700004,159.500835 L143.026949,160 C141.574909,155.852129 145.814484,144.848647 148.001317,141.184356 C161.122315,119.197739 185.495701,85.9697479 210.819423,78 Z" id="Path" fill="#2E2D2C" fill-rule="nonzero"></path>
                <path d="M152.799834,25 C154.480944,26.496768 158.671973,34.92056 157.538865,37.588992 L156.277319,37.98752 C153.752471,37.752688 151.29722,35.894832 149.132218,34.533888 C148.246545,36.086608 147.48931,37.791792 145.602261,38 C144.610544,36.559184 146.497155,34.778288 146.309657,34.207536 C145.770438,32.566624 144.410093,31.814496 144.799579,29.760496 C146.605174,27.878512 150.318238,26.245088 152.799834,25 Z" id="Path" fill="#E3A6A7" fill-rule="nonzero"></path>
                <path d="M67.5640241,157 C73.4716974,157.118034 79.5452592,161.244965 75.3244212,167 C73.2871749,164.776586 67.0534058,160.306955 66.7304915,158.080187 L67.5640241,157 Z" id="Path" fill="#E3A6A7" fill-rule="nonzero"></path>
                <path d="M138.529806,42.581966 C139.681437,46.1513212 135.650992,51.2509357 132.196627,49.721145 C130.159451,45.7085487 135.264823,37.5718431 138.529806,42.581966" id="Path" fill="#2E2D2C"></path>
                <path d="M117.972667,50.0241605 C116.136788,44.9783832 121.41921,37.0048664 125.550254,38.3810641 C124.632103,35.6286686 124.632103,31.0414834 122.336938,28.74768 C116.82888,23.2428892 109.025656,42.0510652 106.730492,35.1700766 C111.320821,30.5824698 116.370016,22.7842971 123.255089,24.1604948 C131.976462,25.5366925 125.090967,35.2762946 129.681297,38.4872821 C131.058312,39.8634798 132.435327,35.6286686 134.730492,37.922472 C132.894191,43.4272629 127.586042,43.5612999 127.586042,43.5612999 C127.1567,45.4833402 125.958508,50.8680036 121.18556,51.8593718 C119.566883,52.3765523 118.431531,51.4003582 117.972667,50.0241605" id="Path" fill="#2E2D2C"></path>
            </g>
        </g>
    </g>
</svg>