<?xml version="1.0" encoding="UTF-8"?>
<svg width="240px" height="240px" viewBox="0 0 240 240" version="1.1" xmlns="http://www.w3.org/2000/svg" xmlns:xlink="http://www.w3.org/1999/xlink">
    <title>snyk</title>
    <g id="Page-1" stroke="none" stroke-width="1" fill="none" fill-rule="evenodd">
        <g id="snyk">
            <rect id="ViewBox" x="0" y="0" width="240" height="240"></rect>
            <g id="shape" transform="translate(47, 0)" fill-rule="nonzero">
                <path d="M124.96091,57.0334123 C120.063398,41.854948 108.928148,20.5261535 107.341582,17.5238514 L105.960012,14.899634 C105.05783,13.100008 104.137886,11.3093255 103.200316,9.52784836 L98.182793,0 L90.9952969,51.0316768 L90.7449375,52.8876766 C85.03547,52.5645849 79.3179571,52.4038769 73.5993398,52.4057478 C67.5137695,52.4057478 61.7589492,52.5836025 56.3532539,52.8934139 L56.1316055,51.0305293 L53.6090625,33.1423626 C53.6125078,33.112529 48.9331992,0 48.9331992,0 L43.8100195,9.52784836 C42.5549184,11.904978 41.3275385,14.2966162 40.1281289,16.7022774 L39.6859805,17.5238514 C38.0953945,20.5290221 26.8539141,41.8956825 21.9253945,57.0764417 C7.70773828,59.8205676 0,62.7557438 0,62.7557438 L0,186.804233 L73.4994258,240 L147,186.804807 L147,62.7557438 C147,62.7557438 139.268145,59.7895864 124.96091,57.0334123" id="Path" fill="#FFFFFF"></path>
                <polygon id="Path" fill="#3B3B63" points="105.171239 153.300323 73.3306197 153.300323 73.3306197 99 41.0231227 151.712756 36 205.841791 72.8331551 232.637308 73.3306197 233 111 205.648662"></polygon>
                <path d="M72.998855,232 L5,182.658581 L5,67.5996562 C5,67.5996562 30.1433286,58 73.091601,58 C116.041018,58 141,67.5996562 141,67.5996562 L141,182.658581 L72.998855,232 Z" id="Path" fill="#DBDBDB"></path>
                <path d="M74.0933162,58 L74,58 L74,232 L74.001145,232 L142,182.657768 L142,67.5998143 C142,67.5998143 117.040504,58 74.0933162,58" id="Path" fill="#C6C6C6"></path>
                <polygon id="Path" fill="#3B3B63" points="111 205.857159 105.284663 154 74 154 74 233"></polygon>
                <polygon id="Path" fill="#53537A" points="36 205.841791 73 233 73 99 40.9785583 151.712756"></polygon>
                <path d="M90,191 C90,199.691582 81.6988928,204 74.0837939,204 C66.4686951,204 58,199.691582 58,191" id="Path" fill="#BC9375"></path>
                <path d="M85,185 C85,195.251672 79.5537478,198 74.0005628,198 C68.4479406,198 63,195.251111 63,185" id="Path" fill="#073251"></path>
                <path d="M74.0002872,195 C67.9443788,195 65,190.418394 65,181 L67.8875132,181 C67.8875132,192.026384 72.0151578,192.026384 74.0002872,192.026384 C75.9854166,192.026384 80.1130612,192.026384 80.1130612,181 L83,181 C83,190.418394 80.0550467,195 74.0002872,195" id="Path" fill="#FFFFFF"></path>
                <path d="M122,74.75996 C122,63.4825612 103.203575,28 103.203575,28 L96.8453707,72.9997614 L91.1387601,82.4998 L74.0349888,83.2051379 L73.9673056,83.3447182 L73.9673056,83.2051379 L56.8612399,82.4998 L51.1563501,72.9997614 L44.7981454,28 C44.7981454,28 26,63.4825612 26,74.75996 L33.941303,96.4292237 C33.941303,96.4292237 29.9336552,132.826493 31.7633956,137.591672 C33.5874002,142.357995 46.2579227,158.297031 46.2579227,158.297031 C46.2579227,158.297031 46.220066,171.696736 49.6891162,181.330062 C52.1641413,188.209539 57.6172267,191 62.8385832,191 C70.8366713,191 73.9661584,183.559914 73.9661584,183.559914 C73.9661584,183.559914 77.1696382,191 85.1682998,191 C90.3879356,191 95.8358587,188.214115 98.3166197,181.330062 C101.781655,171.700741 101.746666,158.297031 101.746666,158.297031 C101.746666,158.297031 114.414321,142.357995 116.241767,137.591672 C118.07036,132.825349 114.062139,96.4286516 114.062139,96.4286516 L122,74.75996 Z" id="Path" fill="#C49A7E"></path>
                <path d="M73.9988529,83.2760722 L73.9661596,83.3435741 L73.9661596,83.2045659 L56.8601336,82.4998 L51.1560218,72.9991893 L44.7957508,28 C44.7957508,28 26,63.4825612 26,74.75996 L33.9392976,96.4286516 C33.9392976,96.4286516 29.9329406,132.825921 31.7597476,137.591672 C33.5877018,142.357995 46.2526079,158.297031 46.2526079,158.297031 C46.2526079,158.297031 46.2199147,171.696736 49.6848256,181.330062 C52.1632034,188.209539 57.6172404,191 62.8332477,191 C70.835064,191 73.9638654,183.559914 73.9638654,183.559914 C73.9638654,183.559914 73.9782045,183.586229 74,183.634853 L74,83.2760722 L73.9988529,83.2760722 Z" id="Path" fill="#D8B7A0"></path>
                <path d="M114.233876,98.598569 C112.765816,95.499352 114.852888,88.1645955 114.852888,88.1645955 C102.892249,75.7946869 99.9012224,50 99.9012224,50 C97.6679224,58.1280596 92.8140784,82.0929293 92.8140784,82.0929293 C92.8140784,82.0929293 83.8872362,78.7384555 73.7321946,78.7223945 L73.6564797,78.7223945 C73.0987327,78.7252625 72.5490774,78.7396028 72,78.7568111 L72,179.879739 L72.7583048,181 L72.7583048,180.446466 L73.2270434,180.446466 L73.2270434,181 L73.2316673,180.446466 L74.1575851,180.446466 L74.1575851,181 L74.1575851,180.446466 L74.6315256,180.446466 L74.6315256,181 L82.8988969,168.818809 L84.6964029,134.612699 L94.9901587,146.460049 L108.251244,150.36863 C108.251244,150.36863 113.212592,146.8002 113.212592,146.813393 C115.319315,143.837502 116.018088,141.302144 116.527285,139.986855 C118.369295,135.20065 114.233876,98.5991426 114.233876,98.5991426" id="Path" fill="#3B3B63"></path>
                <path d="M74,78.7238485 L73.9649941,78.7227012 L73.9649941,78.7238485 C63.8781326,78.7410573 55.013608,82.0933393 55.013608,82.0933393 C55.013608,82.0933393 50.1931246,58.1288824 47.9774238,50 C47.9774238,50 45.0093833,75.7954775 33.1314827,88.1657654 C33.1314827,88.1657654 35.2037167,95.5013202 33.7466682,98.6000587 C33.7466682,98.6000587 29.6400754,135.204982 31.4695636,139.983877 C31.9745667,141.300353 32.6735367,143.834068 34.7624129,146.81005 C34.7624129,146.796857 39.6907833,150.366544 39.6907833,150.366544 L52.8552939,146.457269 L63.0741448,134.611277 L64.8628885,168.818436 L73.0680399,181 L73.0680399,180.446449 L73.538037,180.446449 L73.538037,181 L73.538037,180.446449 L73.9982784,180.446449 L73.9982784,78.7238485 L74,78.7238485 Z" id="Path" fill="#53537A"></path>
                <path d="M97.2390699,121 L82,121 L82,121.164047 C82,126.598171 86.6017397,131 91.9994315,131 C97.3982603,131 102,126.597028 102,121.164047 L102,121 L97.2390699,121 Z" id="Path" fill="#333152"></path>
                <path d="M86,121 L86,121.163626 C86,124.387685 88.6752885,127 92.0011938,127 C95.3259053,127 98,124.387685 98,121.163626 L98,121 L86,121 Z" id="Path" fill="#FFFFFF"></path>
                <path d="M93.7892536,121 L91.071559,121 C91.0450167,121 91.0225135,121.013147 90.9988563,121.018291 C91.3358274,121.089168 91.522777,121.858531 91.4500744,122.370106 C91.3447165,123.129891 90.6939829,123.698924 89.9198565,123.708202 C90.1408495,124.731352 90.969429,125.552729 92.070355,125.708774 C93.4765167,125.908831 94.7759325,124.93884 94.9755763,123.525293 C95.1186736,122.484996 94.6212951,121 93.7898306,121 M60.464894,121 L45,121 L45,121.164047 C45,126.598171 49.6708573,131 55.1483678,131 C60.6281864,131 65.2990437,126.597028 65.2990437,121.164047 L65.2990437,121 L60.464894,121 Z" id="Shape" fill="#333152"></path>
                <path d="M49,121 L49,121.163626 C49,124.387685 51.6773455,127 54.9988061,127 C58.3256392,127 61,124.387685 61,121.163626 L61,121 L49,121 Z" id="Path" fill="#FFFFFF"></path>
                <path d="M56.8106592,121 L54.1333744,121 C54.1100937,121 54.0851095,121.013883 54.0635322,121.019315 C54.3945729,121.094161 54.5774119,121.906599 54.5075697,122.446815 C54.3996833,123.272532 53.7517975,123.845947 53,123.85983 C53.2203153,124.940263 54.0357089,125.807628 55.1168436,125.97241 C56.5000601,126.183668 57.7816363,125.159368 57.9752639,123.666679 C58.1183552,122.568138 57.6288919,121 56.811227,121" id="Path" fill="#333152"></path>
                <path d="M96.4939384,116 C97.1223819,115.285155 102.459962,109 95.3208439,109 C88.8710587,109 84.2300734,114.401305 83,116 L96.4939384,116 Z" id="Path" fill="#C49A7E"></path>
                <path d="M64,116 C62.770922,114.401305 58.1294766,109 51.6762586,109 C44.5409022,109 49.8790114,115.285155 50.5041651,116 L64,116 Z" id="Path" fill="#D8B7A0"></path>
                <polygon id="Path" fill="#53537A" points="41 121 69 121 69 118 41 118"></polygon>
                <path d="M113.970341,82.7051128 C105.800416,71.0931583 103.23729,52.2157191 103.014835,50.4906387 L104.505345,39.9678773 C110.572002,52.4486679 116.936991,67.2606638 117.37328,73.4421065 L113.970341,82.7051128 Z M111.883743,135.529547 C110.76859,138.427957 103.06312,148.783591 97.9449167,155.212863 L97.091308,156.290609 L97.0953318,157.666553 C97.0953318,157.790754 97.091308,170.483888 93.8895571,179.366851 C91.5747543,185.786966 86.4329837,186.481233 84.332589,186.481233 C79.0143484,186.481233 76.7190896,181.552105 76.6386147,181.374102 L76.3345346,176.75748 L69.8695268,176.75748 L69.5775179,181.347774 C69.4855466,181.556684 67.2466202,186.468069 61.9553961,186.468069 C59.8498281,186.468069 54.7097819,185.781814 52.3932547,179.361699 C49.2018505,170.510217 49.1869051,157.790754 49.1869051,157.661401 L49.1915037,156.28603 L48.3378951,155.212863 C43.2225661,148.788169 35.5170954,138.432536 34.4289599,135.604526 C33.5592563,132.545856 34.9951582,112.764667 36.8230879,96.1886709 L36.9236815,95.2688951 L35.4814565,91.343679 C40.4364105,86.0917421 43.9140754,78.864033 46.3122271,71.9837439 L46.5456043,73.658457 L54.4154737,86.7327806 L57.4907642,85.3980469 C57.5677901,85.3648503 65.4526049,81.9730698 73.1092159,81.9730698 C80.717542,81.9730698 88.7328411,85.3677121 88.8075677,85.401481 L91.8776848,86.7241953 L99.7383571,73.6555952 L100.046461,71.4732025 C102.42047,78.421602 105.893537,85.7780912 110.872058,91.1467886 L109.362004,95.2660333 L109.462598,96.1852368 C111.289378,112.764667 112.72528,132.545856 111.883743,135.529547 M68.3468269,192.905355 C69.3283357,192.466534 70.2593854,191.923464 71.1237854,191.285588 C71.8722019,191.50709 72.5901529,191.50709 73.1414059,191.50709 C73.6897848,191.50709 74.4002631,191.512813 75.1435062,191.289594 C76.0110921,191.923392 76.9429817,192.464935 77.9239136,192.905355 C76.6334413,193.880649 75.044637,194.428966 73.1454296,194.428966 C71.2353006,194.428966 69.6390237,193.885228 68.3468269,192.905355 M73.2253297,201.210237 C68.996949,201.210237 62.9843251,199.304293 61.4886418,194.251536 C61.6415441,194.256114 61.7921471,194.269279 61.9484983,194.269279 C62.7653184,194.269279 63.5315543,194.193728 64.2719233,194.08727 C66.4165792,197.105874 69.7574367,198.031946 73.1425555,198.031946 C76.5328477,198.031946 79.8806031,197.114459 82.0292827,194.090704 C82.7650531,194.192583 83.5220919,194.269279 84.332589,194.269279 C84.4918143,194.269279 84.6447166,194.256114 84.8039419,194.252108 C83.3226291,199.30372 77.3904801,201.209665 73.2253297,201.209665 M28.9141306,73.4403894 C29.3509943,67.2589467 35.7113848,52.4480956 41.7791915,39.9661602 L43.3967368,51.3789349 C42.7799542,55.6458475 39.9610338,72.3803865 32.3992682,82.928904 L28.9141306,73.4403894 Z M125,74.0745597 C125,62.1569671 107.72664,29.1732468 105.75328,25.4506446 L100.230978,15 L92.3202967,70.9729636 L88.669036,77.0525269 C85.1442358,75.8563033 79.1454075,74.1855967 73.1046174,74.1855967 C67.070725,74.1855967 61.1121342,75.8500074 57.6022794,77.0485204 L53.9492942,70.9718189 L51.1729105,51.3514619 C51.1763594,51.3188376 51.180958,51.2753385 51.180958,51.2553061 L51.1596896,51.2524443 L46.0265412,15 L40.3875507,25.451217 C38.4113173,29.1726744 21,62.1569671 21,74.0745597 L21,74.7739785 L28.9727623,96.2436171 C27.6978102,107.949438 25.2640195,133.376917 27.175873,138.346682 C28.3669014,141.454574 32.9516708,147.870683 36.8294109,153.012728 L31.6065905,202.227886 L38.7975968,207.357339 L42.5983109,171.556483 C43.1443905,175.038124 43.9502891,178.714937 45.1464908,182.036318 C46.7962261,186.613447 49.7105668,190.077917 53.4417276,192.133819 C53.6636083,203.090999 63.7356157,209 73.2253297,209 C82.6362933,209 92.6255265,203.08642 92.8439583,192.125234 C96.5664968,190.073338 99.4779634,186.608296 101.125399,182.036318 C102.371036,178.582151 103.187856,174.734775 103.731636,171.13294 L107.554768,207.062576 L114.746349,201.751114 L109.536175,152.864487 C113.38345,147.744765 117.882571,141.423095 119.062103,138.349544 C120.973381,133.381496 118.441296,107.949438 117.168069,96.2453341 L124.99885,74.7728338 L124.99885,74.0745597 L125,74.0745597 Z" id="Shape" fill="#333152"></path>
                <path d="M82.6165444,164 L64.4441401,164 C64.4441401,164 62,168.185708 62,169.544399 C62,173.577402 73.1850186,180 73.1850186,180 C73.1850186,180 85,173.386659 85,169.544399 C85,167.711369 82.6165444,164 82.6165444,164" id="Path" fill="#333152"></path>
                <path d="M79.0140784,176.55475 C78.0643609,174.804909 76.8390411,174.485647 76.2764662,175.834195 C75.7155155,177.185513 76.0360587,179.69859 76.9857763,181.444552 C77.9360353,183.195502 79.1624379,183.514763 79.7217642,182.164553 C80.2848806,180.814897 79.9654203,178.300712 79.0146199,176.55475" id="Path" fill="#C49A7E"></path>
                <path d="M67.9848507,176.554716 C67.0331287,178.300762 66.7167908,180.815069 67.2768822,182.164236 C67.8375152,183.515067 69.0622411,183.195235 70.0166715,181.444754 C70.9662268,179.698708 71.2841897,177.18551 70.7219316,175.834679 C70.1618402,174.485512 68.9365727,174.804789 67.9848507,176.554716" id="Path" fill="#D8B7A0"></path>
            </g>
        </g>
    </g>
</svg>