<?xml version="1.0" encoding="UTF-8"?>
<svg width="240px" height="240px" viewBox="0 0 240 240" version="1.1" xmlns="http://www.w3.org/2000/svg" xmlns:xlink="http://www.w3.org/1999/xlink">
    <title>socket-io</title>
    <g id="Page-1" stroke="none" stroke-width="1" fill="none" fill-rule="evenodd">
        <g id="socket-io" transform="translate(-1, -0.4352)">
            <rect id="box" x="1" y="0.435163877" width="240" height="240"></rect>
            <path d="M120.379054,0.443537833 C110.337904,0.481078542 100.341748,1.7349382 90.6155565,4.23514938 C43.8218498,15.8877853 6.67934508,58.3162939 1.91748551,106.443482 C-3.98422078,151.965345 19.022685,199.401784 58.3473963,222.902268 C96.9822003,247.108517 149.272668,246.139966 187.082583,220.679858 C221.068012,198.583397 242.192671,158.339757 240.947838,117.705695 C240.370416,77.5146122 217.828448,38.4422429 183.333087,17.7948533 C164.548113,6.17975808 142.448586,0.353440133 120.379054,0.435163877 L120.379054,0.443537833 Z M120.091391,16.4351639 C169.464863,16.3526025 217.834841,54.6854485 222.784919,105.903664 C232.22826,162.639884 185.303616,220.315819 128.044466,221.999788 C73.5936064,227.442616 20.9325629,181.080847 19.3748983,126.186468 C15.3234728,81.7492346 44.5371717,37.6202278 86.2646083,22.9306061 C97.0259734,18.6304712 108.498772,16.4351639 120.083902,16.472886 L120.091391,16.4351639 Z M171,49.4426989 C144.08849,70.3900877 118.318316,92.7239224 92,114.311789 C104.044102,114.46249 116.170801,114.46249 128.252447,114.379604 C142.368976,92.641037 156.883471,71.1812661 171,49.4351639 L171,49.4426989 Z M113.727626,125.435164 C99.632533,147.197179 85.1100883,168.673149 71,190.435164 C97.9531176,169.538812 123.564202,147.076739 150,125.630879 C137.891715,125.480329 125.790927,125.442691 113.720129,125.442691 L113.727626,125.435164 Z" id="Shape" fill="#FFFFFF" fill-rule="nonzero"></path>
        </g>
    </g>
</svg>