<?xml version="1.0" encoding="UTF-8"?>
<svg width="240px" height="240px" viewBox="0 0 240 240" version="1.1" xmlns="http://www.w3.org/2000/svg" xmlns:xlink="http://www.w3.org/1999/xlink">
    <title>solidjs</title>
    <defs>
        <linearGradient x1="-5.859375%" y1="38.1675946%" x2="91.40625%" y2="61.0196995%" id="linearGradient-1">
            <stop stop-color="#76B3E1" offset="10%"></stop>
            <stop stop-color="#DCF2FD" offset="30%"></stop>
            <stop stop-color="#76B3E1" offset="100%"></stop>
        </linearGradient>
        <linearGradient x1="56.9960525%" y1="38.2315263%" x2="37.9414579%" y2="68.7057173%" id="linearGradient-2">
            <stop stop-color="#76B3E1" offset="0%"></stop>
            <stop stop-color="#4377BB" offset="50%"></stop>
            <stop stop-color="#1F3B77" offset="100%"></stop>
        </linearGradient>
        <linearGradient x1="10.7088533%" y1="34.4346626%" x2="104.336952%" y2="70.582748%" id="linearGradient-3">
            <stop stop-color="#315AA9" offset="0%"></stop>
            <stop stop-color="#518AC8" offset="50%"></stop>
            <stop stop-color="#315AA9" offset="100%"></stop>
        </linearGradient>
        <linearGradient x1="61.992557%" y1="29.4249412%" x2="17.7619124%" y2="105.536921%" id="linearGradient-4">
            <stop stop-color="#4377BB" offset="0%"></stop>
            <stop stop-color="#1A336B" offset="50%"></stop>
            <stop stop-color="#1A336B" offset="100%"></stop>
        </linearGradient>
    </defs>
    <g id="Page-1" stroke="none" stroke-width="1" fill="none" fill-rule="evenodd">
        <g id="solidjs" transform="translate(-171, 39)">
            <rect id="box" x="171" y="-39" width="240" height="240"></rect>
            <g id="shape" transform="translate(171, -31)" fill-rule="nonzero">
                <path d="M240,47.5220374 C240,47.5220374 160.005187,-11.5993139 98.1224066,2.04407489 L93.5943983,3.56000698 C84.5383817,6.59187115 76.9917012,11.1396674 72.4636929,17.2033957 L69.4450207,21.751192 L46.8049793,61.1654262 L86.0477178,68.7450866 C102.650415,79.3566112 123.78112,83.9044075 143.40249,79.3566112 L212.83195,93 L240,47.5220374 Z" id="Path" fill="#76B3E1"></path>
                <path d="M240,47.5220374 C240,47.5220374 160.005187,-11.5993139 98.1224066,2.04407489 L93.5943983,3.56000698 C84.5383817,6.59187115 76.9917012,11.1396674 72.4636929,17.2033957 L69.4450207,21.751192 L46.8049793,61.1654262 L86.0477178,68.7450866 C102.650415,79.3566112 123.78112,83.9044075 143.40249,79.3566112 L212.83195,93 L240,47.5220374 Z" id="Path" fill="url(#linearGradient-1)" opacity="0.3"></path>
                <path d="M73.0673998,47.0487048 L67.0439747,48.5680704 C41.444418,56.1648989 33.9151367,80.4747501 47.4678431,101.74587 C62.5264059,121.497624 94.1493876,132.133184 119.748944,124.536355 L213.112033,92.6296756 C213.112033,92.6296756 133.301651,33.3744135 73.0673998,47.0487048 Z" id="Path" fill="#518AC8"></path>
                <path d="M73.0673998,47.0487048 L67.0439747,48.5680704 C41.444418,56.1648989 33.9151367,80.4747501 47.4678431,101.74587 C62.5264059,121.497624 94.1493876,132.133184 119.748944,124.536355 L213.112033,92.6296756 C213.112033,92.6296756 133.301651,33.3744135 73.0673998,47.0487048 Z" id="Path" fill="url(#linearGradient-2)" opacity="0.3"></path>
                <path d="M196.403035,115.584164 C179.100399,93.9001782 150.417085,84.908579 123.884991,92.8513248 L30.2158515,123.161778 L0,176.20507 L169.208769,205 L199.42462,150.441185 C205.46779,139.832527 203.956998,127.708345 196.403035,115.584164 Z" id="Path" fill="url(#linearGradient-3)"></path>
                <path d="M165.957043,168.565298 C148.678369,146.897302 120.034776,137.912334 93.5394244,145.849222 L0,176.137323 C0,176.137323 79.9611209,236.713524 141.817837,221.569473 L146.343938,220.055068 C171.991845,212.483043 181.044047,188.252563 165.957043,168.565298 Z" id="Path" fill="url(#linearGradient-4)"></path>
            </g>
        </g>
    </g>
</svg>