<?xml version="1.0" encoding="UTF-8"?>
<svg width="240px" height="223px" viewBox="0 0 240 223" version="1.1" xmlns="http://www.w3.org/2000/svg" xmlns:xlink="http://www.w3.org/1999/xlink">
    <title>sonarqube</title>
    <g id="Page-1" stroke="none" stroke-width="1" fill="none" fill-rule="evenodd">
        <g id="sonarqube" fill-rule="nonzero">
            <path d="M188.781633,97.2023374 C188.781633,79.1058808 185.503299,61.7327811 179.00221,45.5291667 C177.724639,46.0859914 176.668681,46.5871894 176.002455,46.9212286 C173.057582,48.4246833 171.39028,51.6543087 171.779317,54.9395608 C172.557392,61.6771544 173.057582,69.5283278 173.057582,76.600239 C173.057582,109.675546 162.388932,141.41414 143.053088,165.970683 C124.773202,189.189816 100.214534,204.057274 73.4883721,208.344504 C73.5439488,208.344504 73.6551023,208.455897 73.7106791,208.455897 C89.3242706,217.365232 108.437807,217.922196 124.550895,210.015396 C162.277778,191.416976 188.837209,147.817834 188.837209,97.146641 L188.781633,97.146641 L188.781633,97.2023374 Z" id="Path" fill="#D3121D"></path>
            <path d="M196.300847,41.8230731 C193.804775,41.7672954 191.475153,41.934559 189.311983,42.2691558 C196.023429,59.4443855 199.462724,77.8467261 199.462724,96.9178421 C199.462724,153.796524 167.900828,204.374409 121.860465,222.776889 C124.190086,222.944222 126.519708,223 128.905506,223 L129.237715,223 C151.425641,223 172.504587,212.738982 186.427525,195.39628 C204.066483,173.425417 214.883721,143.926648 214.883721,111.472353 C214.883721,86.3786329 208.504484,62.3441322 196.356331,41.8230731 L196.300847,41.8230731 Z" id="Path" fill="#D3121D"></path>
            <path d="M239.943821,111.872053 C239.943821,96.7331395 236.911553,82.3179436 231.406702,69.1832401 C228.879344,63.1166799 225.341464,57.5510156 220.62312,52.9314724 C217.983404,50.3713225 215.17515,48.2006577 212.14218,46.6422995 C211.356375,46.2526752 210.569867,45.8631204 209.783359,45.5291667 C219.949673,65.6212289 225.341464,88.4403135 225.341464,111.872053 C225.341464,144.765004 214.55718,176.433898 195.348837,200.7 C222.477031,180.385116 240,148.160212 240,111.872053 L239.943821,111.872053 Z" id="Path" fill="#D3121D"></path>
            <path d="M208.091185,33.799116 C187.837891,12.973922 159.572466,0 128.24675,0 C66.7088218,0 16.298622,51.0048982 16.9662648,112.533994 C17.1332277,127.567768 20.249103,141.933883 25.8131412,154.963293 C23.9769668,154.740508 22.1408621,154.629116 20.3046877,154.740508 C15.2970534,154.963293 8.28642091,153.181713 5.05925094,152.290575 C1.94338956,151.400134 -1.00555068,153.961459 0.329818487,156.968353 L0.329818487,157.079745 C11.4022266,182.414514 35.8839946,198.897082 59.252955,198.841527 C60.8109274,198.841527 62.3688303,198.729994 63.9268027,198.618602 C118.676994,194.442089 162.131868,141.209834 162.131868,76.3962683 C162.131868,72.3311484 161.964905,68.2663765 161.630979,64.201535 C161.464712,61.9742475 158.627039,61.1947107 157.291335,62.9765686 C142.156846,83.0220171 119.734426,118.324998 91.6359633,99.9494579 C80.8967713,92.8781403 75.0551573,77.7322788 78.3373694,62.2526584 C84.179679,34.5229566 116.507172,16.3148533 130.695539,21.9944643 C131.807929,22.4398939 135.814343,24.0547331 137.14935,27.6740753 C139.208559,33.2422941 132.97667,37.8638879 129.749416,47.719663 C126.299545,58.4106013 128.24675,69.7698234 130.695539,70.2153923 C133.36625,70.7723534 137.92851,60.8606037 149.112241,51.7844349 C157.235681,45.269591 163.356262,43.3764106 167.195017,36.4718332 C170.923159,29.7899706 164.302385,22.5512862 166.527861,21.9387682 C168.808992,21.2706237 170.867505,29.1217565 177.544629,32.9638832 C183.108667,36.1934222 188.116163,34.1888495 195.460443,33.9104386 C195.460443,33.9104386 198.576387,33.799116 203.639537,34.5229566 C203.639537,34.5229566 205.086549,34.7456714 207.367679,35.1911707 C208.146839,35.3581894 208.703382,34.3559379 208.146839,33.799116 L208.091185,33.799116 Z M125.131501,119.661008 C125.96562,118.714174 127.52394,116.876899 130.19465,116.598418 C130.695539,116.598418 133.36625,116.319938 135.146491,117.990821 C137.761548,120.49645 137.038042,125.340619 134.701257,128.124729 C132.531435,130.686054 128.302404,132.411937 125.298464,130.463269 C122.794021,128.848778 122.682712,125.396315 122.682712,125.117835 C122.682712,122.445118 124.241032,120.607842 125.075847,119.661008 L125.131501,119.661008 Z" id="Shape" fill="#FFFFFF"></path>
        </g>
    </g>
</svg>