<?xml version="1.0" encoding="UTF-8"?>
<!DOCTYPE svg PUBLIC "-//W3C//DTD SVG 1.1//EN" "http://www.w3.org/Graphics/SVG/1.1/DTD/svg11.dtd">
<svg xmlns="http://www.w3.org/2000/svg" version="1.1" width="220px" height="234px" style="shape-rendering:geometricPrecision; text-rendering:geometricPrecision; image-rendering:optimizeQuality; fill-rule:evenodd; clip-rule:evenodd" xmlns:xlink="http://www.w3.org/1999/xlink">
<g><path style="opacity:0.716" fill="#20568c" d="M 156.5,25.5 C 157.52,26.9538 158.687,27.2871 160,26.5C 161.012,28.8642 162.345,30.1976 164,30.5C 164.333,30.1667 164.667,29.8333 165,29.5C 165.508,31.9042 166.675,32.5709 168.5,31.5C 168.109,32.8905 168.942,33.8905 171,34.5C 171.333,34.1667 171.667,33.8333 172,33.5C 172.708,36.2676 174.208,37.1009 176.5,36C 177.211,37.2547 178.044,38.4214 179,39.5C 181.777,38.5533 183.777,39.5533 185,42.5C 185.333,42.1667 185.667,41.8333 186,41.5C 187.667,43.1667 189.333,44.8333 191,46.5C 192.84,45.1669 193.34,45.3335 192.5,47C 193.381,47.7083 194.047,48.5416 194.5,49.5C 193.167,49.8333 193.167,50.1667 194.5,50.5C 194.5,51.1667 194.833,51.5 195.5,51.5C 195.5,52.1667 195.833,52.5 196.5,52.5C 196.5,53.1667 196.833,53.5 197.5,53.5C 197.5,54.1667 197.833,54.5 198.5,54.5C 198.5,55.1667 198.833,55.5 199.5,55.5C 199.783,56.2891 200.283,56.9558 201,57.5C 202,57.1667 203,56.8333 204,56.5C 204.507,57.9961 204.007,59.1627 202.5,60C 203.066,60.9947 203.733,61.828 204.5,62.5C 204.328,63.4916 204.662,64.1583 205.5,64.5C 205.328,65.4916 205.662,66.1583 206.5,66.5C 206.263,67.791 206.596,68.791 207.5,69.5C 207.263,70.791 207.596,71.791 208.5,72.5C 208.216,74.4147 208.549,76.0813 209.5,77.5C 209.5,103.833 209.5,130.167 209.5,156.5C 208.549,157.919 208.216,159.585 208.5,161.5C 207.596,162.209 207.263,163.209 207.5,164.5C 206.167,165.5 206.167,166.5 207.5,167.5C 207.611,168.117 207.944,168.617 208.5,169C 206.191,170.866 204.858,173.033 204.5,175.5C 203.5,171.5 202.5,171.5 201.5,175.5C 200.833,175.5 200.5,175.833 200.5,176.5C 199.069,178.437 197.402,180.27 195.5,182C 196.056,182.383 196.389,182.883 196.5,183.5C 195.833,183.5 195.5,183.833 195.5,184.5C 194.833,184.5 194.5,184.833 194.5,185.5C 193.833,186.167 193.167,186.833 192.5,187.5C 192.167,186.167 191.833,186.167 191.5,187.5C 190.833,188.167 190.167,188.833 189.5,189.5C 189.167,188.167 188.833,188.167 188.5,189.5C 187.167,190.5 185.833,191.5 184.5,192.5C 184.167,191.167 183.833,191.167 183.5,192.5C 182.778,193.551 181.778,194.218 180.5,194.5C 180.167,193.167 179.833,193.167 179.5,194.5C 178.764,196.229 177.43,197.229 175.5,197.5C 175.167,196.167 174.833,196.167 174.5,197.5C 173.833,198.167 173.167,198.833 172.5,199.5C 172.167,198.167 171.833,198.167 171.5,199.5C 169.697,201.467 167.03,203.134 163.5,204.5C 163.167,203.167 162.833,203.167 162.5,204.5C 161.833,205.167 161.167,205.833 160.5,206.5C 160.167,205.167 159.833,205.167 159.5,206.5C 157.122,208.528 154.455,210.195 151.5,211.5C 151.167,210.167 150.833,210.167 150.5,211.5C 149.764,213.229 148.43,214.229 146.5,214.5C 146.167,213.167 145.833,213.167 145.5,214.5C 144.778,215.551 143.778,216.218 142.5,216.5C 142.167,215.167 141.833,215.167 141.5,216.5C 139.302,219.036 136.969,220.703 134.5,221.5C 134.167,220.167 133.833,220.167 133.5,221.5C 132.778,222.551 131.778,223.218 130.5,223.5C 130.167,222.167 129.833,222.167 129.5,223.5C 126.896,223.774 124.396,225.107 122,227.5C 114,227.5 106,227.5 98,227.5C 95.0458,225.53 92.2125,224.197 89.5,223.5C 89.1667,222.167 88.8333,222.167 88.5,223.5C 87.8333,222.833 87.1667,222.167 86.5,221.5C 86.1667,220.167 85.8333,220.167 85.5,221.5C 82.1774,219.967 79.5107,218.3 77.5,216.5C 77.1667,215.167 76.8333,215.167 76.5,216.5C 75.8333,215.833 75.1667,215.167 74.5,214.5C 74.1667,213.167 73.8333,213.167 73.5,214.5C 70.1774,212.967 67.5107,211.3 65.5,209.5C 65.1667,208.167 64.8333,208.167 64.5,209.5C 63.1667,208.5 61.8333,207.5 60.5,206.5C 60.1667,205.167 59.8333,205.167 59.5,206.5C 57.2453,205.785 55.4119,204.452 54,202.5C 52.927,203.28 51.7604,203.113 50.5,202C 49.9341,201.005 49.2674,200.172 48.5,199.5C 48.1667,198.167 47.8333,198.167 47.5,199.5C 44.9074,198.496 42.2408,196.83 39.5,194.5C 39.1667,193.167 38.8333,193.167 38.5,194.5C 37.8333,193.833 37.1667,193.167 36.5,192.5C 36.1667,191.167 35.8333,191.167 35.5,192.5C 33.5695,192.229 32.2362,191.229 31.5,189.5C 31.1667,188.167 30.8333,188.167 30.5,189.5C 28.6214,189.607 28.2881,189.107 29.5,188C 28.4281,186.716 27.0948,186.383 25.5,187C 25.8333,186 26.1667,185 26.5,184C 25.9558,183.283 25.2891,182.783 24.5,182.5C 24.5,181.833 24.1667,181.5 23.5,181.5C 23.5,180.833 23.1667,180.5 22.5,180.5C 22.5,179.833 22.1667,179.5 21.5,179.5C 20.1224,176.335 18.2891,175.668 16,177.5C 15.4867,176.473 14.9867,175.473 14.5,174.5C 15.1667,174.5 15.5,174.167 15.5,173.5C 16.8333,172.833 16.8333,172.167 15.5,171.5C 15.6716,170.508 15.3382,169.842 14.5,169.5C 14.6716,168.508 14.3382,167.842 13.5,167.5C 13.6716,166.508 13.3382,165.842 12.5,165.5C 12.7373,164.209 12.404,163.209 11.5,162.5C 11.7678,160.901 11.4345,159.568 10.5,158.5C 10.5,130.5 10.5,102.5 10.5,74.5C 11.404,73.791 11.7373,72.791 11.5,71.5C 12.404,70.791 12.7373,69.791 12.5,68.5C 13.404,67.791 13.7373,66.791 13.5,65.5C 14.8333,64.8333 14.8333,64.1667 13.5,63.5C 12.5573,61.9988 12.8906,60.6654 14.5,59.5C 14.5,60.1667 14.8333,60.5 15.5,60.5C 15.8333,61.8333 16.1667,61.8333 16.5,60.5C 17.4884,59.205 18.4884,57.8717 19.5,56.5C 20.1667,56.5 20.5,56.1667 20.5,55.5C 21.1667,55.5 21.5,55.1667 21.5,54.5C 22.1667,54.5 22.5,54.1667 22.5,53.5C 23.1667,53.5 23.5,53.1667 23.5,52.5C 24.1667,52.5 24.5,52.1667 24.5,51.5C 25.1667,51.5 25.5,51.1667 25.5,50.5C 26.1667,50.5 26.5,50.1667 26.5,49.5C 27.8333,49.1667 27.8333,48.8333 26.5,48.5C 26.9528,47.5416 27.6195,46.7083 28.5,46C 28.1667,45.6667 27.8333,45.3333 27.5,45C 28.9931,43.6319 30.4931,43.4652 32,44.5C 32.956,43.4214 33.7894,42.2547 34.5,41C 36.7924,42.1009 38.2924,41.2676 39,38.5C 39.3333,38.8333 39.6667,39.1667 40,39.5C 42.8227,35.9355 45.8227,34.2688 49,34.5C 49.9147,33.6721 50.5814,32.6721 51,31.5C 52.313,32.2871 53.4797,31.9538 54.5,30.5C 55.2389,30.631 55.9056,30.4643 56.5,30C 55.6598,28.3335 56.1598,28.1669 58,29.5C 58.9147,28.6721 59.5814,27.6721 60,26.5C 60.3333,26.8333 60.6667,27.1667 61,27.5C 61.956,26.4214 62.7894,25.2547 63.5,24C 64.4491,23.3828 65.2825,23.5494 66,24.5C 66.8333,23.5 67.6667,22.5 68.5,21.5C 69.086,21.7093 69.586,22.0426 70,22.5C 70.956,21.4214 71.7894,20.2547 72.5,19C 73.4491,18.3828 74.2825,18.5494 75,19.5C 76.6667,17.8333 78.3333,16.1667 80,14.5C 80.9772,15.7736 81.8106,15.7736 82.5,14.5C 83.265,13.3398 84.265,12.3398 85.5,11.5C 87.3255,12.5709 88.4921,11.9042 89,9.5C 90.016,10.6341 90.6827,10.3008 91,8.5C 92.1475,9.45805 93.1475,9.12472 94,7.5C 94.3333,7.83333 94.6667,8.16667 95,8.5C 96.9124,7.30808 98.9124,6.30808 101,5.5C 107,5.5 113,5.5 119,5.5C 121.088,6.30808 123.088,7.30808 125,8.5C 126.566,7.9394 127.899,8.60607 129,10.5C 130.566,9.9394 131.899,10.6061 133,12.5C 134.016,11.3659 134.683,11.6992 135,13.5C 137.33,12.8438 138.997,13.8438 140,16.5C 140.718,15.5494 141.551,15.3828 142.5,16C 143.211,17.2547 144.044,18.4214 145,19.5C 145.718,18.5494 146.551,18.3828 147.5,19C 148.211,20.2547 149.044,21.4214 150,22.5C 151.06,22.7455 152.227,22.7455 153.5,22.5C 155.271,23.0354 155.604,23.8687 154.5,25C 155.094,25.4643 155.761,25.631 156.5,25.5 Z"/></g>
<g><path style="opacity:0.004" fill="#1d558e" d="M 82.5,14.5 C 81.8333,13.1667 81.8333,13.1667 82.5,14.5 Z"/></g>
<g><path style="opacity:1" fill="#fdfdfe" d="M 121.5,16.5 C 124.378,18.1054 127.378,19.4388 130.5,20.5C 139.797,26.1522 149.131,31.8189 158.5,37.5C 163.368,40.4338 168.368,43.1005 173.5,45.5C 176.678,48.2583 180.345,50.2583 184.5,51.5C 192.769,57.2743 198.602,64.941 202,74.5C 202.497,77.146 202.664,79.8127 202.5,82.5C 202.5,105.167 202.5,127.833 202.5,150.5C 201.976,162.048 197.309,171.548 188.5,179C 168.569,190.034 148.902,201.534 129.5,213.5C 121.445,217.895 112.779,219.561 103.5,218.5C 97.8578,217.182 92.5245,215.015 87.5,212C 68.8657,201.013 50.199,190.013 31.5,179C 24.9757,174.319 20.6423,168.152 18.5,160.5C 17.517,132.878 17.1837,105.211 17.5,77.5C 19.4391,67.1231 24.7724,58.9564 33.5,53C 52.2435,42.7338 70.5768,31.9004 88.5,20.5C 98.9799,14.4894 109.98,13.156 121.5,16.5 Z"/></g>
<g><path style="opacity:1" fill="#2a5c7a" d="M 121.5,16.5 C 109.98,13.156 98.9799,14.4894 88.5,20.5C 91.9901,17.5849 95.9901,15.4182 100.5,14C 106.5,13.3333 112.5,13.3333 118.5,14C 120.119,14.2355 121.119,15.0689 121.5,16.5 Z"/></g>
<g><path style="opacity:1" fill="#376383" d="M 130.5,20.5 C 138.813,23.958 146.813,28.1247 154.5,33C 156.635,33.8763 157.969,35.3763 158.5,37.5C 149.131,31.8189 139.797,26.1522 130.5,20.5 Z"/></g>
<g><path style="opacity:0.004" fill="#1d558e" d="M 156.5,24.5 C 157.833,25.1667 157.833,25.1667 156.5,24.5 Z"/></g>
<g><path style="opacity:0.004" fill="#1d558e" d="M 54.5,30.5 C 53.8333,29.1667 53.8333,29.1667 54.5,30.5 Z"/></g>
<g><path style="opacity:0.007" fill="#1c558e" d="M 26.5,48.5 C 26.5,48.8333 26.5,49.1667 26.5,49.5C 25.8333,49.5 25.5,49.8333 25.5,50.5C 24.8333,50.5 24.5,50.8333 24.5,51.5C 23.8333,51.5 23.5,51.8333 23.5,52.5C 22.8333,52.5 22.5,52.8333 22.5,53.5C 21.8333,53.5 21.5,53.8333 21.5,54.5C 20.8333,54.5 20.5,54.8333 20.5,55.5C 19.8333,55.5 19.5,55.8333 19.5,56.5C 18.9569,56.44 18.6236,56.1067 18.5,55.5C 20.316,53.1831 22.316,51.0165 24.5,49C 24.1667,48.6667 23.8333,48.3333 23.5,48C 24.5768,47.5304 25.5768,47.6971 26.5,48.5 Z"/></g>
<g><path style="opacity:1" fill="#386b88" d="M 173.5,45.5 C 175.308,45.4914 176.975,45.9914 178.5,47C 180.747,48.2775 182.747,49.7775 184.5,51.5C 180.345,50.2583 176.678,48.2583 173.5,45.5 Z"/></g>
<g><path style="opacity:0.008" fill="#1c558e" d="M 196.5,51.5 C 196.167,51.5 195.833,51.5 195.5,51.5C 194.833,51.5 194.5,51.1667 194.5,50.5C 194.5,50.1667 194.5,49.8333 194.5,49.5C 196.203,48.3398 196.869,49.0065 196.5,51.5 Z"/></g>
<g><path style="opacity:0.009" fill="#1c558e" d="M 198.5,53.5 C 198.167,53.5 197.833,53.5 197.5,53.5C 196.833,53.5 196.5,53.1667 196.5,52.5C 196.5,52.1667 196.5,51.8333 196.5,51.5C 197.222,51.0825 197.722,50.4158 198,49.5C 198.49,50.7932 198.657,52.1266 198.5,53.5 Z"/></g>
<g><path style="opacity:0.007" fill="#1c558e" d="M 199.5,55.5 C 198.833,55.5 198.5,55.1667 198.5,54.5C 198.5,54.1667 198.5,53.8333 198.5,53.5C 199.281,51.3719 200.281,51.2053 201.5,53C 200.934,53.9947 200.267,54.828 199.5,55.5 Z"/></g>
<g><path style="opacity:0.007" fill="#1c558e" d="M 16.5,60.5 C 16.1667,60.5 15.8333,60.5 15.5,60.5C 14.8333,60.5 14.5,60.1667 14.5,59.5C 15.3013,57.2071 15.968,57.5404 16.5,60.5 Z"/></g>
<g><path style="opacity:0.007" fill="#1c558e" d="M 206.5,61.5 C 205.833,61.5 205.5,61.8333 205.5,62.5C 205.167,62.5 204.833,62.5 204.5,62.5C 205.032,59.5404 205.699,59.2071 206.5,61.5 Z"/></g>
<g><path style="opacity:0.012" fill="#1c558e" d="M 206.5,61.5 C 207.748,63.2994 208.748,65.1327 209.5,67C 208.366,68.016 208.699,68.6827 210.5,69C 210.167,69.3333 209.833,69.6667 209.5,70C 210.26,71.4411 210.926,72.9411 211.5,74.5C 211.497,102.696 211.497,130.863 211.5,159C 210.237,160.705 209.903,162.372 210.5,164C 209.906,164.464 209.239,164.631 208.5,164.5C 208.5,163.5 208.5,162.5 208.5,161.5C 209.451,160.081 209.784,158.415 209.5,156.5C 210.833,130.167 210.833,103.833 209.5,77.5C 209.784,75.5853 209.451,73.9187 208.5,72.5C 208.737,71.209 208.404,70.209 207.5,69.5C 207.737,68.209 207.404,67.209 206.5,66.5C 206.672,65.5084 206.338,64.8417 205.5,64.5C 205.5,63.8333 205.5,63.1667 205.5,62.5C 206.167,62.5 206.5,62.1667 206.5,61.5 Z"/></g>
<g><path style="opacity:0.013" fill="#1c558e" d="M 13.5,63.5 C 13.5,64.1667 13.5,64.8333 13.5,65.5C 12.596,66.209 12.2627,67.209 12.5,68.5C 11.596,69.209 11.2627,70.209 11.5,71.5C 10.596,72.209 10.2627,73.209 10.5,74.5C 9.16667,102.5 9.16667,130.5 10.5,158.5C 10.5,159.833 10.5,161.167 10.5,162.5C 9.76109,162.631 9.09442,162.464 8.5,162C 8.5,132 8.5,102 8.5,72C 9.16667,71.3333 9.83333,70.6667 10.5,70C 10.5,68.6667 10.5,67.3333 10.5,66C 11.0779,64.583 12.0779,63.7496 13.5,63.5 Z"/></g>
<g><path style="opacity:1" fill="#3a6683" d="M 17.5,77.5 C 17.1837,105.211 17.517,132.878 18.5,160.5C 16.955,159.77 16.1216,158.437 16,156.5C 15.8333,143.333 15.6667,130.167 15.5,117C 15.5008,103.483 16.1675,90.316 17.5,77.5 Z"/></g>
<g><path style="opacity:1" fill="#2f6783" d="M 202.5,150.5 C 202.5,127.833 202.5,105.167 202.5,82.5C 203.222,82.0825 203.722,81.4158 204,80.5C 204.667,104.833 204.667,129.167 204,153.5C 203.768,152.263 203.268,151.263 202.5,150.5 Z"/></g>
<g><path style="opacity:1" fill="#8ec1e7" d="M 165.5,100.5 C 168.407,101.734 170.741,103.734 172.5,106.5C 172.167,106.833 171.833,107.167 171.5,107.5C 169.109,105.447 167.109,103.114 165.5,100.5 Z"/></g>
<g><path style="opacity:1" fill="#6ab0dd" d="M 146.5,104.5 C 156.658,103.842 164.491,108.175 170,117.5C 170.392,120.188 170.892,122.855 171.5,125.5C 171.167,126.167 170.833,126.833 170.5,127.5C 168.363,113.696 160.363,106.029 146.5,104.5 Z"/></g>
<g><path style="opacity:1" fill="#adadad" d="M 133.5,109.5 C 134.167,111.5 134.833,113.5 135.5,115.5C 135.44,116.043 135.107,116.376 134.5,116.5C 133.526,114.257 133.192,111.924 133.5,109.5 Z"/></g>
<g><path style="opacity:1" fill="#81b9e5" d="M 156.5,101.5 C 159.226,101.264 161.559,102.097 163.5,104C 166.333,106.833 169.167,109.667 172,112.5C 173.373,114.695 173.706,117.029 173,119.5C 171.964,116.705 170.631,114.038 169,111.5C 165.296,107.276 161.129,103.943 156.5,101.5 Z"/></g>
<g><path style="opacity:1" fill="#333333" d="M 45.5,127.5 C 46.6782,126.001 48.3449,125.001 50.5,124.5C 50.3764,123.893 50.0431,123.56 49.5,123.5C 45.8523,122.5 44.6856,120.166 46,116.5C 48.3806,115.565 50.8806,115.232 53.5,115.5C 53.5,116.5 53.5,117.5 53.5,118.5C 52.0222,118.238 50.6888,118.571 49.5,119.5C 56.2946,122.98 56.1279,125.98 49,128.5C 47.7441,128.352 46.5774,128.018 45.5,127.5 Z"/></g>
<g><path style="opacity:1" fill="#292929" d="M 58.5,115.5 C 65.8269,114.329 68.9936,117.329 68,124.5C 63.9619,128.425 59.9619,128.425 56,124.5C 54.9271,120.9 55.7605,117.9 58.5,115.5 Z"/></g>
<g><path style="opacity:1" fill="#252525" d="M 93.5,118.5 C 93.5,121.5 93.5,124.5 93.5,127.5C 90.5,127.5 87.5,127.5 84.5,127.5C 82.1451,125.754 81.9784,123.754 84,121.5C 85.7803,120.406 87.6136,119.406 89.5,118.5C 87.9936,117.253 86.4936,117.253 85,118.5C 84.5172,117.552 84.3505,116.552 84.5,115.5C 86.8568,115.337 89.1902,115.503 91.5,116C 92.3805,116.708 93.0472,117.542 93.5,118.5 Z"/></g>
<g><path style="opacity:1" fill="#7d7d7d" d="M 96.5,115.5 C 96.5,119.5 96.5,123.5 96.5,127.5C 97.5,127.5 98.5,127.5 99.5,127.5C 98.4324,128.434 97.099,128.768 95.5,128.5C 95.1818,123.968 95.5151,119.634 96.5,115.5 Z"/></g>
<g><path style="opacity:1" fill="#212121" d="M 96.5,115.5 C 98.7849,116.546 101.118,116.546 103.5,115.5C 103.5,116.5 103.5,117.5 103.5,118.5C 101.876,118.36 100.71,119.027 100,120.5C 99.5034,122.81 99.3367,125.143 99.5,127.5C 98.5,127.5 97.5,127.5 96.5,127.5C 96.5,123.5 96.5,119.5 96.5,115.5 Z"/></g>
<g><path style="opacity:1" fill="#3d3d3b" d="M 127.5,115.5 C 128.794,117.048 129.461,119.048 129.5,121.5C 129.461,123.952 128.794,125.952 127.5,127.5C 127.565,127.062 127.399,126.728 127,126.5C 124.667,129.167 122.333,129.167 120,126.5C 118.663,122.974 118.163,119.308 118.5,115.5C 119.5,115.5 120.5,115.5 121.5,115.5C 121.335,118.518 121.502,121.518 122,124.5C 123.667,125.833 125.333,125.833 127,124.5C 127.498,121.518 127.665,118.518 127.5,115.5 Z"/></g>
<g><path style="opacity:1" fill="#cbcbcb" d="M 131.5,110.5 C 130.883,116.598 131.55,122.265 133.5,127.5C 131.5,128.833 129.5,128.833 127.5,127.5C 128.794,125.952 129.461,123.952 129.5,121.5C 129.461,119.048 128.794,117.048 127.5,115.5C 128.209,114.596 129.209,114.263 130.5,114.5C 130.232,112.901 130.566,111.568 131.5,110.5 Z"/></g>
<g><path style="opacity:1" fill="#2c2c2c" d="M 69.5,115.5 C 72.758,116.068 76.0913,116.234 79.5,116C 80,116.5 80.5,117 81,117.5C 81.4983,120.817 81.665,124.15 81.5,127.5C 80.1667,127.5 78.8333,127.5 77.5,127.5C 77.5,124.5 77.5,121.5 77.5,118.5C 76.1779,118.33 75.0113,118.663 74,119.5C 73.5026,122.146 73.3359,124.813 73.5,127.5C 72.1667,127.5 70.8333,127.5 69.5,127.5C 69.5,123.5 69.5,119.5 69.5,115.5 Z"/></g>
<g><path style="opacity:1" fill="#373736" d="M 133.5,109.5 C 133.192,111.924 133.526,114.257 134.5,116.5C 135.107,116.376 135.44,116.043 135.5,115.5C 142.314,115.49 144.814,118.823 143,125.5C 140.294,128.978 137.294,129.311 134,126.5C 133.601,126.728 133.435,127.062 133.5,127.5C 131.55,122.265 130.883,116.598 131.5,110.5C 131.842,109.662 132.508,109.328 133.5,109.5 Z"/></g>
<g><path style="opacity:1" fill="#e5e5e5" d="M 135.5,117.5 C 141.661,117.943 142.995,120.777 139.5,126C 135.663,127 133.663,125.5 133.5,121.5C 133.803,119.886 134.47,118.552 135.5,117.5 Z"/></g>
<g><path style="opacity:1" fill="#e0e0e0" d="M 59.5,118.5 C 64.3276,118.385 65.6609,120.552 63.5,125C 62.2161,125.684 61.0495,125.517 60,124.5C 59.5045,122.527 59.3379,120.527 59.5,118.5 Z"/></g>
<g><path style="opacity:1" fill="#343434" d="M 155.5,118.5 C 155.5,119.5 155.5,120.5 155.5,121.5C 152.5,121.5 149.5,121.5 146.5,121.5C 146.263,122.791 146.596,123.791 147.5,124.5C 149.476,126.011 151.809,126.844 154.5,127C 150.614,129.352 147.448,128.519 145,124.5C 143.833,117.667 146.667,114.833 153.5,116C 154.381,116.708 155.047,117.542 155.5,118.5 Z"/></g>
<g><path style="opacity:1" fill="#d0d0d0" d="M 148.5,116.5 C 151.95,115.756 153.616,117.09 153.5,120.5C 151.5,120.5 149.5,120.5 147.5,120.5C 147.433,119.041 147.766,117.708 148.5,116.5 Z"/></g>
<g><path style="opacity:1" fill="#8d8d8d" d="M 155.5,118.5 C 156.434,119.568 156.768,120.901 156.5,122.5C 152.988,121.945 149.988,122.612 147.5,124.5C 146.596,123.791 146.263,122.791 146.5,121.5C 149.5,121.5 152.5,121.5 155.5,121.5C 155.5,120.5 155.5,119.5 155.5,118.5 Z"/></g>
<g><path style="opacity:1" fill="#373737" d="M 107.5,115.5 C 111.287,114.814 114.454,115.814 117,118.5C 116.941,122.963 116.775,127.296 116.5,131.5C 115.713,130.758 115.047,129.925 114.5,129C 104.542,128.249 102.209,123.749 107.5,115.5 Z"/></g>
<g><path style="opacity:1" fill="#ececec" d="M 108.5,117.5 C 115.225,117.204 116.891,119.871 113.5,125.5C 109.227,127.518 106.893,126.185 106.5,121.5C 106.803,119.886 107.47,118.552 108.5,117.5 Z"/></g>
<g><path style="opacity:1" fill="#b2b2b2" d="M 87.5,121.5 C 88.5,121.5 89.5,121.5 90.5,121.5C 90.8333,124.5 89.5,125.833 86.5,125.5C 86.4326,124.041 86.7659,122.708 87.5,121.5 Z"/></g>
<g><path style="opacity:1" fill="#a2a29c" d="M 49.5,123.5 C 50.0431,123.56 50.3764,123.893 50.5,124.5C 48.3449,125.001 46.6782,126.001 45.5,127.5C 44.596,126.791 44.2627,125.791 44.5,124.5C 46.4147,124.784 48.0813,124.451 49.5,123.5 Z"/></g>
<g><path style="opacity:1" fill="#a3a3a3" d="M 93.5,118.5 C 94.4794,121.625 94.8128,124.958 94.5,128.5C 90.9581,128.813 87.6248,128.479 84.5,127.5C 87.5,127.5 90.5,127.5 93.5,127.5C 93.5,124.5 93.5,121.5 93.5,118.5 Z"/></g>
<g><path style="opacity:0.005" fill="#1c558e" d="M 10.5,162.5 C 10.8333,162.5 11.1667,162.5 11.5,162.5C 11.2627,163.791 11.596,164.791 12.5,165.5C 12.3284,166.492 12.6618,167.158 13.5,167.5C 13.3284,168.492 13.6618,169.158 14.5,169.5C 14.3284,170.492 14.6618,171.158 15.5,171.5C 15.5,172.167 15.5,172.833 15.5,173.5C 14.8333,173.5 14.5,173.833 14.5,174.5C 14.0827,172.078 12.7493,169.912 10.5,168C 10.3509,166.184 10.3509,164.351 10.5,162.5 Z"/></g>
<g><path style="opacity:0.006" fill="#1c558e" d="M 207.5,164.5 C 207.833,164.5 208.167,164.5 208.5,164.5C 209.815,165.895 209.481,166.895 207.5,167.5C 207.5,166.5 207.5,165.5 207.5,164.5 Z"/></g>
<g><path style="opacity:0.008" fill="#1c558e" d="M 201.5,175.5 C 202.167,175.833 202.833,176.167 203.5,176.5C 203.672,177.492 203.338,178.158 202.5,178.5C 202.167,177.167 201.833,177.167 201.5,178.5C 200.662,178.158 200.328,177.492 200.5,176.5C 201.167,176.5 201.5,176.167 201.5,175.5 Z"/></g>
<g><path style="opacity:0.004" fill="#1d558e" d="M 204.5,175.5 C 203.833,176.167 203.833,176.167 204.5,175.5 Z"/></g>
<g><path style="opacity:0.004" fill="#1d558e" d="M 17.5,178.5 C 19.0847,179.002 19.5847,180.002 19,181.5C 17.9614,180.756 17.4614,179.756 17.5,178.5 Z"/></g>
<g><path style="opacity:0.004" fill="#1d558e" d="M 201.5,178.5 C 201.833,178.5 202.167,178.5 202.5,178.5C 202.315,179.17 201.981,179.17 201.5,178.5 Z"/></g>
<g><path style="opacity:0.009" fill="#1c558e" d="M 21.5,179.5 C 22.1667,179.5 22.5,179.833 22.5,180.5C 22.5,180.833 22.5,181.167 22.5,181.5C 21.7784,181.918 21.2784,182.584 21,183.5C 20.235,181.934 20.4017,180.601 21.5,179.5 Z"/></g>
<g><path style="opacity:0.004" fill="#1d558e" d="M 201.5,179.5 C 200.833,180.167 200.833,180.167 201.5,179.5 Z"/></g>
<g><path style="opacity:0.004" fill="#1d558e" d="M 200.5,180.5 C 199.833,181.167 199.833,181.167 200.5,180.5 Z"/></g>
<g><path style="opacity:0.007" fill="#1c558e" d="M 22.5,181.5 C 22.8333,181.5 23.1667,181.5 23.5,181.5C 24.1667,181.5 24.5,181.833 24.5,182.5C 23.8506,183.606 23.5173,184.606 23.5,185.5C 22.5713,184.311 22.238,182.978 22.5,181.5 Z"/></g>
<g><path style="opacity:0.004" fill="#1d558e" d="M 199.5,181.5 C 198.833,182.167 198.833,182.167 199.5,181.5 Z"/></g>
<g><path style="opacity:0.004" fill="#1d558e" d="M 198.5,182.5 C 197.833,183.167 197.833,183.167 198.5,182.5 Z"/></g>
<g><path style="opacity:0.004" fill="#1d558e" d="M 196.5,183.5 C 196.833,183.5 197.167,183.5 197.5,183.5C 197.315,184.17 196.981,184.17 196.5,183.5 Z"/></g>
<g><path style="opacity:0.004" fill="#1d558e" d="M 195.5,184.5 C 195.833,184.5 196.167,184.5 196.5,184.5C 196.315,185.17 195.981,185.17 195.5,184.5 Z"/></g>
<g><path style="opacity:0.004" fill="#1d558e" d="M 194.5,185.5 C 194.833,185.5 195.167,185.5 195.5,185.5C 195.315,186.17 194.981,186.17 194.5,185.5 Z"/></g>
<g><path style="opacity:0.004" fill="#1d558e" d="M 191.5,187.5 C 191.833,187.5 192.167,187.5 192.5,187.5C 192.315,188.17 191.981,188.17 191.5,187.5 Z"/></g>
<g><path style="opacity:0.004" fill="#1d558e" d="M 30.5,189.5 C 30.8333,189.5 31.1667,189.5 31.5,189.5C 31.3147,190.17 30.9813,190.17 30.5,189.5 Z"/></g>
<g><path style="opacity:0.004" fill="#1d558e" d="M 188.5,189.5 C 188.833,189.5 189.167,189.5 189.5,189.5C 189.315,190.17 188.981,190.17 188.5,189.5 Z"/></g>
<g><path style="opacity:0.004" fill="#1d558e" d="M 35.5,192.5 C 35.8333,192.5 36.1667,192.5 36.5,192.5C 36.3147,193.17 35.9813,193.17 35.5,192.5 Z"/></g>
<g><path style="opacity:0.004" fill="#1d558e" d="M 183.5,192.5 C 183.833,192.5 184.167,192.5 184.5,192.5C 184.315,193.17 183.981,193.17 183.5,192.5 Z"/></g>
<g><path style="opacity:0.004" fill="#1d558e" d="M 38.5,194.5 C 38.8333,194.5 39.1667,194.5 39.5,194.5C 39.3147,195.17 38.9813,195.17 38.5,194.5 Z"/></g>
<g><path style="opacity:0.004" fill="#1d558e" d="M 179.5,194.5 C 179.833,194.5 180.167,194.5 180.5,194.5C 180.315,195.17 179.981,195.17 179.5,194.5 Z"/></g>
<g><path style="opacity:0.004" fill="#1d558e" d="M 174.5,197.5 C 174.833,197.5 175.167,197.5 175.5,197.5C 175.315,198.17 174.981,198.17 174.5,197.5 Z"/></g>
<g><path style="opacity:0.004" fill="#1d558e" d="M 47.5,199.5 C 47.8333,199.5 48.1667,199.5 48.5,199.5C 48.3147,200.17 47.9813,200.17 47.5,199.5 Z"/></g>
<g><path style="opacity:0.004" fill="#1d558e" d="M 171.5,199.5 C 171.833,199.5 172.167,199.5 172.5,199.5C 172.315,200.17 171.981,200.17 171.5,199.5 Z"/></g>
<g><path style="opacity:0.004" fill="#1d558e" d="M 162.5,204.5 C 162.833,204.5 163.167,204.5 163.5,204.5C 163.315,205.17 162.981,205.17 162.5,204.5 Z"/></g>
<g><path style="opacity:0.004" fill="#1d558e" d="M 59.5,206.5 C 59.8333,206.5 60.1667,206.5 60.5,206.5C 60.3147,207.17 59.9813,207.17 59.5,206.5 Z"/></g>
<g><path style="opacity:0.004" fill="#1d558e" d="M 159.5,206.5 C 159.833,206.5 160.167,206.5 160.5,206.5C 160.315,207.17 159.981,207.17 159.5,206.5 Z"/></g>
<g><path style="opacity:0.004" fill="#1d558e" d="M 64.5,209.5 C 64.8333,209.5 65.1667,209.5 65.5,209.5C 65.3147,210.17 64.9813,210.17 64.5,209.5 Z"/></g>
<g><path style="opacity:0.004" fill="#1d558e" d="M 150.5,211.5 C 150.833,211.5 151.167,211.5 151.5,211.5C 151.315,212.17 150.981,212.17 150.5,211.5 Z"/></g>
<g><path style="opacity:0.004" fill="#1d558e" d="M 73.5,214.5 C 73.8333,214.5 74.1667,214.5 74.5,214.5C 74.3147,215.17 73.9813,215.17 73.5,214.5 Z"/></g>
<g><path style="opacity:0.004" fill="#1d558e" d="M 145.5,214.5 C 145.833,214.5 146.167,214.5 146.5,214.5C 146.315,215.17 145.981,215.17 145.5,214.5 Z"/></g>
<g><path style="opacity:0.004" fill="#1d558e" d="M 76.5,216.5 C 76.8333,216.5 77.1667,216.5 77.5,216.5C 77.3147,217.17 76.9813,217.17 76.5,216.5 Z"/></g>
<g><path style="opacity:0.004" fill="#1d558e" d="M 141.5,216.5 C 141.833,216.5 142.167,216.5 142.5,216.5C 142.315,217.17 141.981,217.17 141.5,216.5 Z"/></g>
<g><path style="opacity:1" fill="#3a6984" d="M 129.5,213.5 C 126.119,217.191 121.786,219.357 116.5,220C 114.333,220.167 112.167,220.333 110,220.5C 107.39,220.467 105.223,219.8 103.5,218.5C 112.779,219.561 121.445,217.895 129.5,213.5 Z"/></g>
<g><path style="opacity:0.004" fill="#1d558e" d="M 85.5,221.5 C 85.8333,221.5 86.1667,221.5 86.5,221.5C 86.3147,222.17 85.9813,222.17 85.5,221.5 Z"/></g>
<g><path style="opacity:0.004" fill="#1d558e" d="M 133.5,221.5 C 133.833,221.5 134.167,221.5 134.5,221.5C 134.315,222.17 133.981,222.17 133.5,221.5 Z"/></g>
<g><path style="opacity:0.004" fill="#1d558e" d="M 88.5,223.5 C 88.8333,223.5 89.1667,223.5 89.5,223.5C 89.3147,224.17 88.9813,224.17 88.5,223.5 Z"/></g>
<g><path style="opacity:0.004" fill="#1d558e" d="M 129.5,223.5 C 129.833,223.5 130.167,223.5 130.5,223.5C 130.315,224.17 129.981,224.17 129.5,223.5 Z"/></g>
</svg>
