<?xml version="1.0" encoding="UTF-8"?>
<svg width="240px" height="240px" viewBox="0 0 240 240" version="1.1" xmlns="http://www.w3.org/2000/svg" xmlns:xlink="http://www.w3.org/1999/xlink">
    <title>sourcegraph</title>
    <g id="Page-1" stroke="none" stroke-width="1" fill="none" fill-rule="evenodd">
        <g id="sourcegraph">
            <rect id="ViewBox" x="0" y="0" width="240" height="239.3691"></rect>
            <g id="shape" transform="translate(1.9495, 0.6309)" fill-rule="nonzero">
                <path d="M68.8662223,30.4877849 L121.407833,221.615793 C124.938469,234.459928 138.262996,242.023565 151.164069,238.507516 C164.073445,234.988713 171.667032,221.725956 168.133629,208.882739 L115.582792,17.7492226 C112.049389,4.90875911 98.7276296,-2.65671306 85.8265569,0.863007885 C72.9291745,4.37446658 65.3328192,17.6418132 68.8662223,30.4859488 L68.8662223,30.4877849 Z" id="Path" fill="#F96316"></path>
                <path d="M165.657831,30.079267 L34.0955753,178.228867 C25.2202705,188.219271 26.1473759,203.493734 36.155502,212.346189 C46.1645507,221.195884 61.4668639,220.273198 70.3421687,210.287393 L201.904425,62.1405533 C210.77973,52.150149 209.852624,36.8802853 199.844498,28.0269105 C189.831759,19.1680161 174.525756,20.0934624 165.657831,30.0783471 L165.657831,30.079267 Z" id="Path" fill="#B200F8"></path>
                <path d="M16.6102109,111.714322 L204.177909,173.318615 C216.872277,177.485805 230.567254,170.645461 234.765203,158.034035 C238.972374,145.424439 232.080619,131.824311 219.38164,127.650713 L31.8185522,66.051913 C19.1195734,61.8819763 5.43012951,68.7214049 1.22941428,81.3328316 C-2.96668983,93.9433428 3.92598757,107.547132 16.6138998,111.714322 L16.6102109,111.714322 Z" id="Path" fill="#00B4F2"></path>
            </g>
        </g>
    </g>
</svg>