<?xml version="1.0" encoding="UTF-8"?>
<svg width="240px" height="240px" viewBox="0 0 240 240" version="1.1" xmlns="http://www.w3.org/2000/svg" xmlns:xlink="http://www.w3.org/1999/xlink">
    <title>sploitus</title>
    <g id="Page-1" stroke="none" stroke-width="1" fill="none" fill-rule="evenodd">
        <g id="sploitus">
            <rect id="box" x="0" y="0" width="240" height="240"></rect>
            <g id="shape" transform="translate(0, 13)">
                <path d="M146.405688,83.9536469 C144.036619,84.4601671 142.202516,85.735316 140.902901,87.7800504 C138.79653,92.0240101 137.36102,96.4879881 136.596372,101.172463 C135.948957,103.042617 134.752699,103.680192 133.007598,103.085664 C132.279316,101.583801 131.880723,99.9896255 131.81134,98.3026599 C131.697456,100.082894 131.458204,101.836822 131.093585,103.563965 C129.797798,104.489954 128.362288,104.729105 126.787056,104.281415 C125.964509,102.602581 125.565916,100.768777 125.590798,98.7809603 C125.431456,100.534888 125.271636,102.288337 125.112295,104.042265 C123.562901,105.121789 121.88814,105.281063 120.088011,104.520566 C119.692288,102.626974 119.453037,100.713772 119.370256,98.7809603 C119.400401,100.924703 119.001808,102.917302 118.173998,104.759716 C116.502586,105.239929 114.987645,105.000142 113.628217,104.042265 C113.468875,102.288337 113.309055,100.534888 113.149714,98.7809603 C113.174596,100.768777 112.776003,102.602581 111.953456,104.281415 C107.765595,105.197361 106.090834,103.523309 106.929172,99.2592608 C106.923908,100.770212 106.524837,102.125715 105.732914,103.324814 C104.389277,103.764851 103.35236,103.366427 102.622643,102.129063 C101.600081,97.1499559 100.00523,92.3669515 97.8376104,87.7800504 C96.8605068,85.8998514 95.3450871,84.7839764 93.2918298,84.4319473 C90.7816018,83.6834072 88.5484272,84.2415838 86.5927845,86.1059988 C83.0198009,87.625081 80.2286916,86.7483563 78.218978,83.4753465 C78.5323976,80.3023014 78.6917392,77.1139507 78.6974812,73.9093378 C76.6183847,66.8864525 74.5450302,59.8712201 72.4769393,52.8641187 C69.5815162,27.8804304 79.8693357,11.0601825 103.340398,2.403423 C119.977476,-2.39745064 135.448921,-0.0059676076 149.755211,9.5779295 C163.627498,20.7141985 169.130285,35.1428963 166.263572,52.8641187 C164.195481,59.8712201 162.122127,66.8864525 160.04303,73.9093378 C160.048772,77.1139507 160.208114,80.3023014 160.521534,83.4753465 C158.51182,86.7483563 155.720711,87.625081 152.147727,86.1059988 C150.479186,84.713188 148.565173,83.9957373 146.405688,83.9536469 Z M99.5123717,49.5160157 C108.863282,49.3749171 112.452056,53.838895 110.278694,62.9084278 C107.17895,70.6353713 101.676163,73.4257761 93.770333,71.2786854 C87.993842,66.80275 86.7975839,61.302295 90.1815588,54.7773205 C92.6075701,51.7185892 95.7178411,49.9651398 99.5123717,49.5160157 Z M134.921611,49.5160157 C143.853352,48.7870858 149.116888,52.7732416 150.712217,61.4735265 C148.798204,71.4475255 143.215507,74.3972042 133.964604,70.3220845 C128.64317,66.1479567 126.809067,60.8067757 128.461817,54.29902 C129.926516,51.7013704 132.07978,50.1067167 134.921611,49.5160157 Z M118.652501,65.29993 C119.806172,65.1263069 120.523927,65.6046074 120.805765,66.7348313 C122.337933,70.8687819 123.534191,75.0936097 124.39454,79.4097928 C124.390712,82.7612439 122.71595,84.2760214 119.370256,83.9536469 C115.91929,84.2310611 114.244529,82.6368858 114.345972,79.1706426 C115.118276,74.3264158 116.553786,69.7026855 118.652501,65.29993 Z" id="Shape" fill="#FE5400"></path>
                <path d="M182.88,33 C199.81536,36.2559725 209.97504,46.3384593 213.36,63.2470281 C215.15904,84.5836658 208.35888,102.587849 192.96,117.259578 C185.58576,122.812549 177.26592,125.693218 168,125.901586 C178.91136,128.342473 189.95136,129.142339 201.12,128.302144 C206.57712,127.870044 211.53696,126.109955 216,123.020917 C219.16992,120.121043 221.00976,116.520206 221.52,112.218407 C221.86224,107.489788 221.78208,102.768851 221.28,98.055116 C222.1272,88.5897167 226.76688,86.0292817 235.2,90.3733311 C236.73744,91.9917871 238.33728,93.5123004 240,94.9343909 L240,97.8150602 C239.05536,98.4483274 238.09536,98.4483274 237.12,97.8150602 C234.78144,94.3289702 231.58176,92.4887026 227.52,92.2937773 C226.21488,93.6251267 225.57456,95.2253385 225.6,97.0948929 C231.09552,118.605811 223.25568,132.208812 202.08,137.904375 C190.24896,141.206102 178.24896,142.166326 166.08,140.785045 C172.32,145.106049 178.56,149.427053 184.8,153.748057 C191.66304,159.665432 194.1432,167.107161 192.24,176.073244 C190.82928,182.824093 187.22928,188.025621 181.44,191.67687 C175.03632,195.640671 168.15648,197.081005 160.8,195.997874 C159.45312,195.371328 159.0528,194.330926 159.6,192.877149 C168.49152,191.174673 175.05168,186.373557 179.28,178.473802 C180.36768,174.822553 180.04752,171.301895 178.32,167.911348 C170.90112,162.252273 163.62144,156.410755 156.48,150.387276 C151.92,145.826216 147.36,141.265156 142.8,136.704096 C139.06848,132.33172 135.70848,127.690482 132.72,122.780861 C136.49808,132.406138 142.09824,140.888269 149.52,148.226774 C154.55808,153.979951 158.23776,160.541155 160.56,167.911348 C161.87616,173.071587 161.39616,178.033059 159.12,182.794806 C158.0592,184.134317 156.69888,184.53425 155.04,183.995085 C155.6304,179.344244 154.75056,174.943542 152.4,170.792017 C146.89104,162.876418 140.4912,155.674744 133.2,149.186997 C131.96016,147.508047 130.84032,145.747478 129.84,143.90577 C130.23264,147.012572 131.0328,150.053598 132.24,153.027889 C135.948,161.914274 139.46832,170.876036 142.8,179.914137 C144.30576,186.119578 143.82576,192.201151 141.36,198.158376 C138.92208,203.520742 135.88224,208.481734 132.24,213.041834 C130.87056,214.394788 129.67056,214.31509 128.64,212.801778 C133.092,206.854156 136.05216,200.212293 137.52,192.877149 C138.216,188.951756 137.57616,185.270741 135.6,181.834583 C128.88432,173.100393 123.68448,163.498162 120,153.027889 C116.31552,163.498162 111.11568,173.100393 104.4,181.834583 C101.8776,186.788854 101.55792,191.910204 103.44,197.198153 C105.12048,202.641177 107.6808,207.60265 111.12,212.081611 C111.44016,212.561722 111.44016,213.041834 111.12,213.521946 C110.29152,214.038546 109.41168,214.118724 108.48,213.762001 C101.46432,205.96691 97.30416,196.84479 96,186.395643 C96.33792,184.893854 96.57792,183.37382 96.72,181.834583 C100.1304,172.131048 103.81056,162.528817 107.76,153.027889 C108.9672,150.053598 109.76736,147.012572 110.16,143.90577 C105.432,150.559156 99.99168,156.640729 93.84,162.150009 C90.10608,166.258804 87.22608,170.900042 85.2,176.073244 C85.04256,178.485805 85.04256,180.886362 85.2,183.274917 C83.31504,184.690286 81.71472,184.370532 80.4,182.314694 C77.55312,175.876878 77.71296,169.475551 80.88,163.110232 C84.54624,155.295936 89.50608,148.414497 95.76,142.465435 C97.79808,139.829142 99.71808,137.10835 101.52,134.303539 C103.37424,131.397423 104.81424,128.356877 105.84,125.181419 C99.4704,134.43941 92.0304,142.841362 83.52,150.387276 C76.37856,156.410755 69.09888,162.252273 61.68,167.911348 C59.24592,172.887704 59.5656,177.688819 62.64,182.314694 C67.16352,187.953124 73.00368,191.394084 80.16,192.637093 C80.9856,194.118717 80.66544,195.238817 79.2,195.997874 C67.37088,197.406041 57.85104,193.325093 50.64,183.755029 C47.685552,178.014335 46.725552,171.932762 47.76,165.51079 C48.86256,160.725518 51.34272,156.804447 55.2,153.748057 C61.44,149.427053 67.68,145.106049 73.92,140.785045 C57.57744,142.725175 41.897424,140.324618 26.88,133.583371 C19.75368,129.813535 15.353664,123.972498 13.68,116.059299 C13.287072,109.714145 13.527072,103.392516 14.4,97.0948929 C14.425296,95.2253385 13.785264,93.6251267 12.48,92.2937773 C8.418384,92.4887026 5.218416,94.3289702 2.88,97.8150602 C1.9048176,98.4483274 0.9448176,98.4483274 0,97.8150602 L0,94.9343909 C1.6627872,93.5123004 3.2627856,91.9917871 4.8,90.3733311 C9.123936,87.2622082 13.203936,87.502264 17.04,91.0934984 C18.085824,93.2837673 18.64584,95.6041465 18.72,98.055116 C18.21792,102.768851 18.137904,107.489788 18.48,112.218407 C19.310784,118.766648 22.750752,123.327708 28.8,125.901586 C34.932864,128.081293 41.25288,128.961337 47.76,128.5422 C55.95648,128.699196 64.03632,127.818672 72,125.901586 C54.92208,124.820375 42.362256,116.738177 34.32,101.655953 C26.286912,87.024553 24.366912,71.6609831 28.56,55.5652432 C34.04376,42.9613546 43.563744,35.4393988 57.12,33 C59.43312,33.3979645 60.07296,34.678278 59.04,36.8408925 C46.233984,38.6848569 37.674,45.726317 33.36,57.965801 C30.92136,71.5745631 33.641376,84.0574636 41.52,95.4145024 C51.00864,106.741774 63.0888,111.142477 77.76,108.61757 C82.42896,107.442257 86.02896,104.801644 88.56,100.69573 C91.15008,96.4462622 92.98992,91.8852024 94.08,87.0125502 C93.80304,85.9865518 93.6432,84.94615 93.6,83.8918251 C95.65968,84.2451872 97.17984,85.3652874 98.16,87.252606 C100.3344,91.8568758 101.93424,96.6579914 102.96,101.655953 C103.692,102.898001 104.73216,103.297934 106.08,102.856232 C106.507754,102.208118 106.821248,101.514485 107.020332,100.775481 L107.07,100.57 L107.069898,100.764056 C107.096095,103.559273 108.846129,104.576739 112.32,103.816455 C113.14512,102.131263 113.54496,100.290515 113.52,98.2951718 C113.67984,100.055741 113.84016,101.81583 114,103.576399 C115.36368,104.538542 116.88336,104.778598 118.56,104.296566 C119.3904,102.447177 119.79024,100.447032 119.76,98.2951718 C119.84304,100.235303 120.08304,102.155749 120.48,104.05651 C122.28576,104.819888 123.96576,104.660011 125.52,103.576399 C125.67984,101.81583 125.84016,100.055741 126,98.2951718 C125.97504,100.290515 126.37488,102.131263 127.2,103.816455 C128.78016,104.265839 130.22016,104.025783 131.52,103.096287 C131.88576,101.362605 132.12576,99.6020354 132.24,97.8150602 C132.3096,99.5084137 132.70944,101.108626 133.44,102.616176 C135.19056,103.212954 136.39056,102.572966 137.04,100.69573 C137.80704,95.993517 139.24704,91.5126358 141.36,87.252606 C142.66368,85.2001291 144.50352,83.9201516 146.88,83.4117135 C145.75536,85.6034228 145.6752,87.8441034 146.64,90.1332753 C148.37808,96.1860417 151.49808,101.38757 156,105.736901 C161.62704,109.111605 167.7072,110.231705 174.24,109.097682 C187.52016,107.222846 197.04,100.261229 202.8,88.2128291 C207.26784,78.8655372 208.62768,69.1029488 206.88,58.9260241 C202.7904,46.1920253 194.1504,38.8301867 180.96,36.8408925 C179.92704,34.678278 180.56688,33.3979645 182.88,33 Z M107.28,98.7752833 C107.277969,99.3586189 107.217501,99.9188721 107.098649,100.455988 L107.07,100.57 C107.079655,100.09766 107.134126,99.5820527 107.23428,99.0193332 Z" id="Shape" fill="#5754DE"></path>
            </g>
        </g>
    </g>
</svg>