<?xml version="1.0" encoding="UTF-8"?>
<svg width="241px" height="242px" viewBox="0 0 241 242" version="1.1" xmlns="http://www.w3.org/2000/svg" xmlns:xlink="http://www.w3.org/1999/xlink">
    <title>spring</title>
    <g id="Page-1" stroke="none" stroke-width="1" fill="none" fill-rule="evenodd">
        <g id="spring" transform="translate(0, 0.9513)">
            <rect id="ViewBox" x="0" y="0.04875" width="240" height="240"></rect>
            <path d="M54.500625,208.4925 C52.543066,210.90441 49.6025901,212.305424 46.49625,212.30625 C40.8375,212.30625 36.208125,207.64875 36.208125,201.99 C36.208125,196.33125 40.8675,191.675625 46.49625,191.675625 C48.84,191.675625 51.155625,192.4875 52.96875,193.989375 C57.376875,197.551875 58.065,204.084375 54.500625,208.4925" id="Path" fill="#FFFFFF"></path>
            <path d="M217.84875,172.42125 C188.143125,212.025 124.69875,198.676875 84.01875,200.58375 C84.01875,200.58375 76.79625,201.0225 69.541875,202.209375 C69.541875,202.209375 72.260625,201.0525 75.795,199.708125 C104.34375,189.76875 117.85125,187.83 135.204375,178.921875 C167.88,162.2925 200.180625,125.908125 206.904375,88.05375 C194.46,124.47 156.748125,155.76 122.385,168.481875 C98.840625,177.1725 56.31375,185.611875 56.31375,185.611875 L54.594375,184.704375 C25.640625,170.608125 24.763125,107.8725 77.38875,87.616875 C100.434375,78.73875 122.47875,83.615625 147.369375,77.675625 C173.9475,71.3625 204.684375,51.418125 217.190625,25.411875 C231.19875,67.018125 248.053125,132.159375 217.846875,172.42125 L217.84875,172.42125 Z" id="Path" fill="#FFFFFF"></path>
            <path d="M218.3475,12.504375 C214.987881,20.568958 210.684775,28.2071769 205.528125,35.259375 C182.941673,12.6862338 152.317031,0.0040843786 120.384375,0 C54.345,0 -7.10542736e-14,54.39 -7.10542736e-14,120.5025 C-7.10542736e-14,153.49389 13.5145625,185.045166 37.396875,207.80625 L41.836875,211.74375 C63.5361433,230.038884 91.0005619,240.080881 119.383125,240.0975 C182.17125,240.0975 234.9525,190.8975 239.4225,128.191875 C242.705625,97.49625 233.701875,58.6725 218.3475,12.504375 M54.500625,208.4925 C52.543066,210.90441 49.6025901,212.305424 46.49625,212.30625 C40.8375,212.30625 36.208125,207.64875 36.208125,201.99 C36.208125,196.33125 40.8675,191.675625 46.49625,191.675625 C48.84,191.675625 51.155625,192.4875 52.96875,193.989375 C57.376875,197.551875 58.065,204.084375 54.500625,208.4925 M217.84875,172.42125 C188.143125,212.025 124.69875,198.676875 84.01875,200.58375 C84.01875,200.58375 76.79625,201.0225 69.541875,202.209375 C69.541875,202.209375 72.260625,201.0525 75.795,199.708125 C104.34375,189.76875 117.85125,187.83 135.204375,178.921875 C167.88,162.2925 200.180625,125.908125 206.904375,88.05375 C194.46,124.47 156.748125,155.76 122.385,168.481875 C98.840625,177.1725 56.31375,185.611875 56.31375,185.611875 L54.594375,184.704375 C25.640625,170.608125 24.763125,107.8725 77.38875,87.616875 C100.434375,78.73875 122.47875,83.615625 147.369375,77.675625 C173.9475,71.3625 204.684375,51.418125 217.190625,25.411875 C231.19875,67.018125 248.053125,132.159375 217.846875,172.42125 L217.84875,172.42125 Z" id="Shape" fill="#77BC1F" fill-rule="nonzero"></path>
        </g>
    </g>
</svg>