<?xml version="1.0" encoding="UTF-8"?>
<svg width="240px" height="241px" viewBox="0 0 240 241" version="1.1" xmlns="http://www.w3.org/2000/svg" xmlns:xlink="http://www.w3.org/1999/xlink">
    <title>sqlite</title>
    <defs>
        <linearGradient x1="57.6615627%" y1="2.04644676%" x2="57.6615584%" y2="94.4387516%" id="linearGradient-1">
            <stop stop-color="#97D9F6" offset="0%"></stop>
            <stop stop-color="#0F80CC" offset="92.024499%"></stop>
            <stop stop-color="#0F80CC" offset="100%"></stop>
        </linearGradient>
    </defs>
    <g id="Page-1" stroke="none" stroke-width="1" fill="none" fill-rule="evenodd">
        <g id="sqlite" transform="translate(-181, 13.6263)">
            <rect id="box" x="181" y="-13" width="240" height="240"></rect>
            <g id="shape" transform="translate(193, -14)" fill-rule="nonzero">
                <path d="M169,10.3737181 L18.3569109,10.3737181 C8.26064776,10.3737181 0,18.6421792 0,28.7457615 L0,195.003569 C0,205.106575 8.26064776,213.373718 18.3569109,213.373718 L117.574383,213.373718 C116.448237,163.968682 133.306552,68.0888221 169,10.3737181 Z" id="solid-background" fill="#0F80CC"></path>
                <path d="M164,16.3737181 L18.9885516,16.3737181 C11.8274668,16.3737181 6,22.2056075 6,29.3753118 L6,183.373718 C38.8419755,170.75625 88.1338002,159.869198 122.216012,160.363649 C129.0649,124.515655 149.193713,54.2612226 164,16.3737181 Z" id="gradient-background" fill="url(#linearGradient-1)"></path>
                <path d="M204.493649,5.58737498 C194.192796,-3.61036252 181.721055,0.0842449141 169.4118,11.0224017 C167.584777,12.6474236 165.761534,14.4502709 163.947737,16.3760827 C142.890693,38.7423621 123.345145,80.1719078 117.272705,111.811595 C119.638198,116.614774 121.486003,122.744077 122.702759,127.426183 C123.014505,128.62745 123.296021,129.754939 123.520856,130.714062 C124.055549,132.983985 124.342733,134.455963 124.342733,134.455963 C124.342733,134.455963 124.153796,133.740689 123.379154,131.491575 C123.231783,131.060254 123.067407,130.589206 122.872802,130.03492 C122.78967,129.806017 122.674418,129.527928 122.54783,129.230922 C121.174257,126.033847 117.374731,119.285939 115.702637,116.348036 C114.272383,120.572336 113.008394,124.524223 111.950346,128.099649 C116.77769,136.943249 119.719441,152.098896 119.719441,152.098896 C119.719441,152.098896 119.464376,151.116694 118.251399,147.688643 C117.174458,144.656712 111.810532,135.246719 110.53993,133.046791 C108.366397,141.080725 107.502765,146.50478 108.281564,147.82541 C109.793628,150.384401 111.233707,154.799769 112.498263,159.682781 C115.354993,170.683169 117.340722,184.074757 117.340722,184.074757 C117.340722,184.074757 117.404961,184.962174 117.512655,186.327843 C117.115887,195.565686 117.353948,205.14347 118.06813,213.800543 C119.014706,225.260447 120.796383,235.104985 123.067407,240.373718 L124.609134,239.532082 C121.274394,229.151797 119.919714,215.548151 120.512977,199.859784 C121.410429,175.879652 126.921725,146.960694 137.105437,116.819084 C154.310054,71.3184706 178.180373,34.8112846 200.027175,17.3768238 C180.115089,35.3825962 153.165095,93.6658324 145.097478,115.248923 C136.064394,139.41805 129.663203,162.098558 125.805107,183.828631 C132.461362,163.456842 153.983192,154.700066 153.983192,154.700066 C153.983192,154.700066 164.539111,141.665279 176.874817,123.042975 C169.485485,124.730425 157.351942,127.619142 153.287904,129.329293 C147.292928,131.847226 145.677515,132.706085 145.677515,132.706085 C145.677515,132.706085 165.096475,120.865559 181.756953,115.504311 C204.66936,79.3716933 229.631736,28.0406753 204.493649,5.58737498" id="feather" fill="#003B57"></path>
            </g>
        </g>
    </g>
</svg>