<?xml version="1.0" encoding="UTF-8"?>
<svg width="240px" height="240px" viewBox="0 0 240 240" version="1.1" xmlns="http://www.w3.org/2000/svg" xmlns:xlink="http://www.w3.org/1999/xlink">
    <title>standoff365</title>
    <g id="Page-1" stroke="none" stroke-width="1" fill="none" fill-rule="evenodd">
        <g id="standoff365">
            <rect id="box" fill="#000000" x="0" y="0" width="240" height="240" rx="32"></rect>
            <g id="shape" transform="translate(50, 46)" fill-rule="nonzero">
                <g id="Group-625379" transform="translate(0, 76)">
                    <path d="M103.679425,73 L35.3205747,73 C19.024161,73 0,63.4407119 0,36.5004949 C0,14.3272522 13.8639637,0 35.3205747,0 L103.679425,0 C119.970834,0 139,9.55928814 139,36.5004949 C139,58.6726983 125.136036,73 103.679425,73 Z" id="Vector" fill="#FFFFFF"></path>
                    <path d="M48.3478261,41.6719197 C48.3478261,46.9091136 42.9800608,48.6666667 33.618514,48.6666667 C24.369757,48.6666667 18.1304348,46.9091136 18.1304348,39.3734085 L24.9798469,39.3734085 C24.9798469,43.1583203 28.137959,43.5632533 33.9978976,43.5632533 C39.442565,43.5632533 41.4932872,43.1583203 41.4932872,40.8943765 C41.4932872,38.528526 39.442565,38.3238148 30.193808,38.3238148 L30.193808,34.6744792 C39.2477464,34.6744792 41.4932872,34.4720127 41.4932872,32.1064765 C41.4932872,30.0443258 39.8988507,29.4369262 33.9978976,29.4369262 C27.4919815,29.4369262 24.9798469,30.0443258 24.9798469,33.6275792 L18.1304348,33.6275792 C18.1304348,26.0912904 24.369757,24.3333333 33.618514,24.3333333 C42.9800608,24.3333333 48.3478261,26.0912904 48.3478261,31.3283047 C48.3478261,33.7950293 46.7841504,35.4174551 44.2361281,36.4989226 C46.7841504,37.5803901 48.3478261,39.2028158 48.3478261,41.6719197 Z" id="Vector_2" fill="#000000"></path>
                    <path d="M77.810037,39.8789014 C77.810037,37.412491 75.9577079,35.9584133 69.5,35.9584133 C63.6834829,35.9584133 61.1848741,37.3779236 61.1848741,39.8789014 C61.1848741,42.3462096 63.4901079,43.8353037 69.5,43.8353037 C75.9169974,43.8353037 77.810037,42.3462096 77.810037,39.8789014 Z M84.6086957,40.3852921 C84.6086957,45.8940874 79.5809451,48.6666667 70.2531448,48.6666667 C58.9203509,48.6666667 54.3913043,44.7111622 54.3913043,37.0739993 C54.3913043,27.2742157 60.884634,24.3333333 68.6654341,24.3333333 C75.2401848,24.3333333 79.6216557,25.1433341 82.8326988,25.7532477 L82.8326988,30.5850147 C79.0924188,29.9432721 75.2401848,29.1655942 70.3294771,29.1655942 C64.9658647,29.1655942 62.01944,30.1458733 61.3375386,34.9456317 C63.378154,33.5256725 66.8894372,32.3778086 71.8764772,32.3778086 C79.5809451,32.3778086 84.6086957,34.6744792 84.6086957,40.3852921 Z" id="Vector_3" fill="#000000"></path>
                    <path d="M120.869565,40.2012319 C120.869565,46.1659604 115.235206,48.6666667 106.329945,48.6666667 C97.501586,48.6666667 90.6521739,47.0896693 90.6521739,39.9954574 L97.501586,39.9954574 C97.501586,42.7028487 100.659698,43.4913474 106.519637,43.4913474 C112.189884,43.4913474 114.020153,41.9489493 114.020153,39.5151652 C114.020153,37.2539222 112.646169,35.6764696 107.432208,35.6764696 C104.807284,35.6764696 102.182359,36.157217 97.6143757,37.8025024 L91.9851433,36.8082292 L95.4098494,24.3333333 L118.962394,24.3333333 L118.962394,29.2336341 L100.505894,29.2336341 L98.7986678,34.341667 C102.715547,32.8320471 105.566051,32.1483022 109.908455,32.1483022 C116.793755,32.1483022 120.869565,35.0605119 120.869565,40.2012319 Z" id="Vector_4" fill="#000000"></path>
                </g>
                <polygon id="Vector_8" fill="#FFFFFF" points="74 20.4058707 74 0 140 0 140 10.9016984 140 16.5698442 140 67 115.988863 67 113.649002 67 112.252436 67 112.252436 46.5122073 74 46.5122073 74 26.9157945 112.252436 26.9157945 112.252436 20.4058707"></polygon>
                <polygon id="Vector_11" fill="#FFFFFF" points="28.7477588 20.4058707 66.9938749 20.4058707 66.9938749 0 1 0 1 10.9016984 1 16.5698442 1 67 25.0108581 67 27.353082 67 28.7477588 67 28.7477588 46.5122073 67 46.5122073 67 26.9157945 28.7477588 26.9157945"></polygon>
            </g>
        </g>
    </g>
</svg>