<?xml version="1.0" encoding="UTF-8"?>
<svg width="240px" height="240px" viewBox="0 0 240 240" version="1.1" xmlns="http://www.w3.org/2000/svg" xmlns:xlink="http://www.w3.org/1999/xlink">
    <title>steeldev</title>
    <g id="Page-1" stroke="none" stroke-width="1" fill="none" fill-rule="evenodd">
        <g id="steeldev">
            <rect id="box" x="0" y="0" width="240" height="240"></rect>
            <path d="M56.8418182,33 C25.4509091,33 0,58.0396753 0,88.9273789 C0,119.815083 25.4481818,144.854758 56.8418182,144.854758 L120,144.854758 C123.488182,144.854758 126.313636,147.638756 126.313636,151.069817 C126.313636,154.503597 123.488182,157.284877 120,157.284877 L4.41818182,157.284877 C3.25363358,157.277644 2.13390229,157.731888 1.30532757,158.547675 C0.476752857,159.363463 0.00721075635,160.473966 0,161.634875 L0,202.649917 C0,205.050572 1.98,207 4.42090909,207 L120,207 C151.390909,207 176.841818,181.96024 176.841818,151.069817 C176.841818,120.182114 151.390909,95.1424384 120,95.1424384 L56.8418182,95.1424384 C53.3536364,95.1424384 50.5254545,92.3611585 50.5254545,88.9273789 C50.5254545,85.4963181 53.3536364,82.7150382 56.8418182,82.7150382 L183.158182,82.7150382 C186.646364,82.7150382 189.474545,85.4963181 189.474545,88.9300977 L189.474545,202.649917 C189.474545,205.053291 191.454545,207 193.892727,207 L235.581818,207 C236.746366,207.007148 237.866098,206.552904 238.694672,205.737116 C239.523247,204.921329 239.992789,203.810826 240,202.649917 L240,88.9300977 C240,58.0396753 214.551818,33 183.158182,33 L56.8418182,33 Z" id="Path" fill="#EDEDED" fill-rule="nonzero"></path>
        </g>
    </g>
</svg>