<?xml version="1.0" encoding="UTF-8"?>
<svg width="241px" height="241px" viewBox="0 0 241 241" version="1.1" xmlns="http://www.w3.org/2000/svg" xmlns:xlink="http://www.w3.org/1999/xlink">
    <title>stellar</title>
    <g id="Page-1" stroke="none" stroke-width="1" fill="none" fill-rule="evenodd">
        <g id="stellar" transform="translate(0.8702, 0.0297)">
            <rect id="box" fill="#FFFFFF" x="0" y="0" width="240" height="240" rx="32"></rect>
            <g id="shape" transform="translate(0, 19)" fill="#000000" fill-rule="nonzero">
                <path d="M206.126248,26.5177957 L177.227957,41.2100757 L37.6815028,112.138324 C37.2096315,108.546921 36.9722043,104.928708 36.9707226,101.306567 C37.0095471,71.9000565 52.6464473,44.7117153 78.0711724,29.843999 C103.495898,14.9762826 134.908277,14.6514315 160.636317,28.9901518 L177.177187,20.580088 L179.64461,19.3236448 C148.748747,-3.0537962 107.885796,-6.24729433 73.8755873,11.0576441 C39.8653785,28.3625825 18.4560347,63.2412203 18.4599763,101.336965 C18.4599763,103.917403 18.5581317,106.487707 18.7544424,109.047879 C19.3166365,116.461214 15.3604814,123.485775 8.72228804,126.861002 L0,131.299084 L0,152 L25.679472,138.93907 L25.679472,138.93907 L33.9955999,134.70364 L42.1898798,130.539139 L42.1898798,130.539139 L189.301066,55.7402341 L205.831782,47.3403029 L240,29.962882 L240,9.27209868 L206.126248,26.5177957 Z" id="Path"></path>
                <path d="M240,51 L50.5466238,146.653728 L34.0159079,155.020912 L0,172.208377 L0,192.758825 L33.7823659,175.692186 L62.6806566,161.092407 L202.369267,90.5100241 C202.841481,94.1024013 203.078903,97.7213016 203.080047,101.344067 C203.061761,130.600421 187.40681,157.655266 161.944351,172.434669 C136.481891,187.214072 105.027238,187.503476 79.2926045,173.195121 L78.2772043,173.728768 L60.3452361,182.7907 C91.2338365,205.02781 132.089453,208.208768 166.099494,191.024569 C200.109535,173.84037 221.527652,139.194463 221.540024,101.344067 C221.540024,98.7563824 221.438484,96.1686973 221.245558,93.6112187 C220.684296,86.2474678 224.635284,79.2691871 231.267558,75.9102446 L240,71.5001043 L240,51 Z" id="Path"></path>
            </g>
        </g>
    </g>
</svg>