<?xml version="1.0" encoding="UTF-8"?>
<svg width="240px" height="240px" viewBox="0 0 240 240" version="1.1" xmlns="http://www.w3.org/2000/svg" xmlns:xlink="http://www.w3.org/1999/xlink">
    <title>strapi</title>
    <g id="Page-1" stroke="none" stroke-width="1" fill="none" fill-rule="evenodd">
        <g id="strapi" transform="translate(0, 0)">
            <rect id="ViewBox" x="0" y="0" width="240" height="240"></rect>
            <path d="M0,83.2003125 C0,43.9790625 0,24.3684375 12.1846875,12.1846875 C24.369375,0 43.978125,0 83.2003125,0 L156.800625,0 C196.020938,0 215.630625,0 227.81625,12.1846875 C240,24.3684375 240,43.978125 240,83.2003125 L240,156.800625 C240,196.020938 240,215.630625 227.815312,227.81625 C215.630625,240 196.021875,240 156.799687,240 L83.20125,240 C43.98,240 24.369375,240 12.185625,227.815312 C0,215.630625 0,196.021875 0,156.799687 L0,83.2003125 Z" id="Path" fill="#4945FF" fill-rule="nonzero"></path>
            <path d="M165.6,72.7996875 L84.7996875,72.7996875 L84.7996875,114 L126,114 L126,155.199375 L167.199375,155.199375 L167.199375,74.4 C167.199375,73.5159375 166.483125,72.7996875 165.6,72.7996875" id="Path" fill="#FFFFFF" fill-rule="nonzero"></path>
            <polygon id="Path" fill="#FFFFFF" fill-rule="nonzero" points="124.399688 114 126 114 126 115.600313 124.399688 115.600313"></polygon>
            <path d="M84.7996875,114 L124.399687,114 C125.28375,114 126,114.71625 126,115.599375 L126,155.199375 L86.4,155.199375 C85.975657,155.199375 85.5686088,155.031228 85.268465,154.73126 C84.9683212,154.431293 84.7996875,154.024343 84.7996875,153.6 L84.7996875,114 Z M126,155.199375 L167.199375,155.199375 L127.365,195.03375 C126.861562,195.538125 126,195.180938 126,194.469375 L126,155.199375 Z M84.7996875,114 L45.530625,114 C44.818125,114 44.461875,113.1375 44.9653125,112.634063 L84.7996875,72.7996875 L84.7996875,114 Z" id="Shape" fill="#9593FF" fill-rule="nonzero"></path>
        </g>
    </g>
</svg>