<?xml version="1.0" encoding="UTF-8"?>
<svg width="241px" height="241px" viewBox="0 0 241 241" version="1.1" xmlns="http://www.w3.org/2000/svg" xmlns:xlink="http://www.w3.org/1999/xlink">
    <title>sui</title>
    <g id="Page-1" stroke="none" stroke-width="1" fill="none" fill-rule="evenodd">
        <g id="sui" transform="translate(0.8702, 0)">
            <rect id="box" x="0" y="0.0904185356" width="240" height="240"></rect>
            <path d="M176.413637,100.108549 C186.220523,112.343936 192.1298,127.887873 192.1298,144.742744 C192.1298,161.597614 186.094793,177.578529 175.973584,189.938767 L175.093479,191 L174.84202,189.62664 C174.653426,188.502982 174.401968,187.316899 174.150509,186.130815 C169.121337,164.094632 152.650797,145.179722 125.493267,129.823062 C107.199652,119.522863 96.7012552,107.100199 93.9352105,92.9920477 C92.1750002,83.8779324 93.4951579,74.7013917 96.0097441,66.8357853 C98.5871949,58.9701789 102.359074,52.415507 105.565171,48.4827038 L116.126433,35.6854871 C117.949508,33.438171 121.469929,33.438171 123.293004,35.6854871 L176.413637,100.108549 L176.413637,100.108549 Z M193.199133,87.2186726 L122.7618,1.22049811 C121.4458,-0.406832703 118.876467,-0.406832703 117.560467,1.22049811 L47.0604667,87.2186726 L46.8098,87.5316208 C33.9004667,103.61716 26.1298,124.021385 26.1298,146.240709 C26.1298,198.002347 68.2418,240 120.1298,240 C172.0178,240 214.1298,198.002347 214.1298,146.240709 C214.1298,124.021385 206.359133,103.61716 193.387133,87.5316208 L193.199133,87.2186726 L193.199133,87.2186726 Z M63.984685,99.7261307 L70.2267657,92 L70.4140281,93.4447236 C70.5388697,94.5753769 70.7261321,95.7060302 70.9758153,96.8366834 C75.0331678,118.256281 89.5772158,136.158291 113.796489,149.977387 C134.894722,162.037688 147.1292,175.919598 150.687186,191.183417 C152.185285,197.527638 152.434968,203.809045 151.81076,209.273869 L151.74834,209.58794 L151.436235,209.713568 C141.948273,214.361809 131.211894,217 119.913728,217 C80.2765156,217 48.1298,184.713568 48.1298,144.889447 C48.1298,127.80402 54.0597767,112.037688 63.984685,99.7261307 L63.984685,99.7261307 Z" id="Shape" fill="#4DA2FF"></path>
        </g>
    </g>
</svg>