<?xml version="1.0" encoding="UTF-8"?>
<svg width="240px" height="240px" viewBox="0 0 240 240" version="1.1" xmlns="http://www.w3.org/2000/svg" xmlns:xlink="http://www.w3.org/1999/xlink">
    <title>suricata</title>
    <defs>
        <linearGradient x1="74.8965207%" y1="99.7356079%" x2="74.8965207%" y2="5.17787709e-15%" id="linearGradient-1">
            <stop stop-color="#BF1723" offset="0%"></stop>
            <stop stop-color="#BF1723" offset="0%"></stop>
            <stop stop-color="#F9B133" offset="100%"></stop>
        </linearGradient>
    </defs>
    <g id="Page-1" stroke="none" stroke-width="1" fill="none" fill-rule="evenodd">
        <g id="suricata" transform="translate(0, 0)">
            <rect id="box" x="0.315267078" y="0" width="239.684733" height="240"></rect>
            <path d="M129.345881,20.0127102 C148.556225,21.6183876 167.107995,27.8035962 183.458724,38.0543809 C185.88959,39.5634028 191.64294,43.4185673 193.699455,45.3355142 C207.177693,54.9548378 223.159543,75.7600154 229.290141,91.0593853 C241.710669,117.385564 242.850459,153.788806 233.511968,181.299418 C229.696036,192.54055 219.586955,209.024031 211.265939,218.138095 C204.63803,216.237958 198.808072,215.197376 191.83768,215.516113 C188.086768,215.711363 184.352273,216.147121 180.656726,216.821124 C173.703071,218.067301 163.3632,221.286672 156.840547,218.635273 C154.829418,217.818065 150.9681,214.346872 149.119522,212.801354 C147.023093,211.050241 144.895763,209.337272 142.738499,207.662449 C137.416473,203.499151 131.806683,199.720535 125.951617,196.355048 C124.875238,193.574344 124.199926,193.006048 121.130765,193.527794 C120.660814,191.336074 118.573076,182.801943 119.89119,181.55318 C126.692916,175.110234 130.923756,165.031877 131.697242,155.736786 C131.977925,152.363218 130.841675,147.129597 130.707772,143.609268 C130.604769,135.421674 129.737936,132.362641 125.39669,125.415729 C133.601828,131.709004 131.245961,142.270638 132.988318,143.926389 C133.798499,143.668102 134.167056,142.965006 134.544948,142.240251 C135.600083,140.217598 135.799651,129.736456 135.053846,127.456162 C134.142271,124.670609 131.188022,121.990762 130.7229,119.739238 C130.353056,117.948041 130.57934,116.012345 130.783736,114.211449 C130.81293,113.954048 130.843117,113.696356 130.873857,113.43845 L130.967294,112.664164 C130.998698,112.405904 131.030215,112.147506 131.061403,111.889045 L131.153538,111.113548 C131.725227,106.20183 132.019028,101.294707 129.011122,96.9117304 C127.692365,94.9905811 125.612996,93.6855702 124.151322,91.8478226 C117.724913,84.6781826 119.035623,80.1605885 127.269409,76.7705341 C129.321096,75.9261723 132.530921,73.663981 134.124889,72.1808525 C136.036879,70.4022619 134.273278,68.3543937 132.158502,68.1213214 C130.117437,67.6580862 127.038297,67.4906362 125.309459,66.5774195 C121.831184,64.6536841 118.701508,64.420935 114.819912,64.9391249 C101.272559,66.7472717 104.834353,82.1232202 106.570467,91.9288792 C107.435114,95.9711488 108.744205,101.787646 109.206391,105.791266 C110.409934,114.374976 109.592615,123.231242 109.480113,131.777772 C109.346137,141.972888 106.250901,149.280148 101.920071,158.300981 C100.405306,161.455897 98.838617,164.436868 97.3921222,167.707531 C93.8757264,175.549555 93.5311703,185.282976 87.4663411,191.616733 C83.7108394,195.538553 74.7466104,193.408225 72.6741453,194.85765 L72.7635696,195.132468 C74.1914744,195.827921 76.6790095,195.6543 78.2918527,195.632315 C72.9898549,197.073656 67.0519506,196.761333 61.6598873,196.086897 C59.9887099,187.13008 60.6124366,190.566926 64.6890967,183.743023 C69.3404444,175.957903 68.2372237,165.731101 67.041694,157.188452 C66.8443573,155.778369 65.2154326,152.749211 64.3825469,151.211624 L64.27,151.002926 L64.5583546,151.271527 C68.8736742,155.378873 67.8114266,158.653334 68.9250539,163.484057 L69.1779421,163.532877 C70.3715487,162.794747 70.4295623,160.102497 70.4529601,158.797594 C70.4894991,156.754885 70.8170678,153.917143 70.0324413,151.991151 C69.7853225,151.38461 69.4357449,150.828435 69.0785342,150.275589 L68.772696,149.801439 C68.1661277,148.850382 67.6167479,147.869614 67.6022788,146.622169 C67.5242729,145.058543 67.6844543,143.576674 67.8512789,142.121248 L67.9415413,141.329669 C68.2206444,138.8292 68.3939667,136.377615 67.2682998,133.689861 C65.5615449,129.990159 62.475604,129.031851 61.2768691,124.770225 C59.7226805,119.247022 71.0157885,117.997406 70.1285965,114.200063 C69.9034331,113.981824 68.0235989,113.248463 66.0967688,112.555759 L65.5189176,112.349724 C63.7907804,111.73861 62.1547981,111.205447 61.782966,111.155398 C50.4683192,109.633683 51.2562824,119.326536 52.8829392,127.947337 L53.0221479,128.673029 C53.6553053,131.924686 54.3638645,134.971258 54.5283764,137.137054 C55.0508197,144.017537 55.7860865,158.125421 53.3809244,164.460147 C50.2196618,172.787792 47.3077618,179.152263 44.7131739,187.865623 C41.2881256,183.997796 40.7397204,181.331411 36.1502326,177.539887 C34.0216769,175.781372 29.5562293,173.464168 28.2555699,172.271133 C27.4700887,170.442459 28.3975947,169.112553 29.4979901,167.807603 L29.7757995,167.481611 L30.0554651,167.155014 C30.4272134,166.718416 30.7896512,166.275817 31.085738,165.809667 C36.6547268,157.040373 35.5902888,147.562371 34.1966793,137.775926 C33.987702,136.309689 32.2924858,133.255648 31.518757,131.837585 C34.9662415,134.885159 35.2245785,137.882943 35.8255485,142.30073 C35.9072804,142.900481 35.9284346,143.772464 36.2672214,144.236422 C38.3416096,143.444621 37.9714121,133.606769 36.869794,131.828209 C36.0890137,130.567601 34.8729709,129.242006 34.7780978,127.701406 C34.5149531,123.420059 36.2896576,119.082454 34.6454036,114.858657 C34.0137164,113.277607 33.0081434,112.076721 31.99193,110.959518 L31.6532965,110.58981 C29.6814482,108.446514 27.8219682,106.495065 28.7453204,102.555845 C29.3957286,101.765153 30.6813877,100.953368 32.0609786,100.10811 L32.5509119,99.8083738 C35.0112652,98.3025402 37.5658137,96.6879273 37.239671,94.896494 C36.4566471,93.8790192 33.6796849,93.5841552 32.3594739,93.1127608 C31.1113794,92.6669084 29.9757865,92.2165295 28.7456409,91.709247 L28.535,91.1369259 L28.3979885,91.1518383 C26.2584272,91.1356752 24.0486953,91.1715574 22.1151396,92.226363 C18.3217397,94.2955666 18.6124007,99.6798276 18.9851421,103.384416 C19.4570237,108.075926 20.6901603,112.610006 21.3358591,117.26628 C22.2606311,123.93551 22.3137419,138.114775 20.2511109,144.514727 C18.7228068,149.256988 16.4789552,153.556057 14.6503337,158.149618 C13.8102171,160.260199 13.1744967,162.441574 12.5574456,164.626183 C9.00738973,163.066764 5.16248838,161.362524 1.56060926,159.974435 C-1.10651947,141.18286 -0.548051166,124.629231 4.74114255,106.321257 C10.7751753,85.5513147 22.283163,66.8024102 38.0503164,52.0535565 C39.8126299,50.391987 44.8272568,45.755109 46.6668224,44.7378018 C50.0169884,41.8895678 55.5936243,38.2771735 59.3735052,36.06748 C80.5389709,23.7228591 104.940334,18.1241134 129.345881,20.0127102 Z M54.4619991,174.653926 C57.5008103,175.758563 58.4868852,181.471361 58.001145,184.272925 C57.7213129,185.887598 57.4820914,186.282678 56.5569323,187.533323 L58.9224968,195.653926 C57.5055694,195.174611 56.0531077,194.603463 54.647602,194.074929 C51.6624093,192.701069 49.7381672,191.69322 46.9382602,189.95302 C47.6356195,188.443723 48.6861002,185.665613 49.0896675,184.062502 C50.3619199,179.00806 50.1607708,177.550295 54.4619991,174.653926 Z M110.241221,161.653926 C110.91999,161.777048 111.70175,162.328348 112.209845,162.79369 C115.521946,165.862037 116.375637,170.689958 116.209215,174.985643 C116.104588,177.692704 115.297652,178.514485 113.605963,180.43305 C114.956306,184.694482 116.611375,189.026684 117.844994,193.310413 C112.214423,191.566997 106.08393,191.587679 100.280071,192.069825 C98.6544276,192.023614 91.4734141,193.265172 89.8817748,193.653926 C96.0554258,188.19844 99.3083468,181.42998 101.754658,173.723727 C102.657067,170.881588 102.320952,168.699329 104.330119,166.269211 C106.165343,164.049143 107.667723,162.932646 110.241221,161.653926 Z M22.1956264,155.653926 C24.5128811,156.680604 25.6816355,159.992822 25.8821831,162.277067 C26.1033167,164.795443 25.9811288,166.271576 24.3292672,168.26429 C24.5361234,169.038352 24.80839,169.87954 25.042805,170.653926 L22.2059194,169.2874 C20.156947,168.328498 18.0804158,167.426669 15.9789822,166.582562 C18.1126229,160.950752 16.3910345,159.216491 22.1956264,155.653926 Z" id="shape" fill="url(#linearGradient-1)" fill-rule="nonzero"></path>
        </g>
    </g>
</svg>