<?xml version="1.0" encoding="UTF-8"?>
<svg width="241px" height="241px" viewBox="0 0 241 241" version="1.1" xmlns="http://www.w3.org/2000/svg" xmlns:xlink="http://www.w3.org/1999/xlink">
    <title>svetle</title>
    <g id="Page-1" stroke="none" stroke-width="1" fill="none" fill-rule="evenodd">
        <g id="svetle" transform="translate(-118.2179, 1.6265)">
            <rect id="box" x="119" y="-1" width="240" height="240"></rect>
            <g id="shape" transform="translate(139, -1)" fill-rule="nonzero">
                <path d="M187.246826,31.7550877 C164.926411,-0.142277603 120.837166,-9.59598955 88.9714097,10.6801748 L32.9883655,46.3050262 C25.4148967,51.0468812 18.9164346,57.3131047 13.907041,64.7061985 C8.89764563,72.0992923 5.48981851,80.454257 3.90074977,89.2367199 C3.19273843,93.1778648 2.83241875,97.1974959 2.82574679,101.229169 C2.86013372,112.162248 5.544505,122.924703 10.6492142,132.597777 C5.86325678,139.857766 2.59605715,148.010212 1.04605046,156.563945 C-0.541625794,165.50403 -0.319259675,174.770672 1.69449019,183.586312 C3.71012593,192.460646 7.47888989,200.843735 12.7820361,208.246204 C35.1008765,240.141694 79.2885584,249.595405 111.055874,229.321115 L166.981114,193.694391 C174.549895,188.946911 181.040531,182.673191 186.037458,175.272597 C191.032789,167.872003 194.423396,159.509558 195.990614,150.723326 C196.709357,146.772718 197.070288,142.765859 197.065628,138.749626 C197.052474,127.837191 194.401524,117.091602 189.339017,107.420393 C194.123422,100.166049 197.390612,92.0210832 198.943736,83.4748693 C199.637507,79.520511 199.990621,75.5155279 200,71.5011698 C200.003756,57.260605 195.543753,43.3762886 187.246826,31.7925875 L187.246826,31.7550877 Z" id="out" fill="#FF3E00"></path>
                <path d="M83.4708437,210.577556 C79.787327,211.521501 76.0308248,212 72.2636669,212 C65.0713497,212.00187 57.9854726,210.268737 51.6133449,206.946585 C45.2427815,203.626305 39.7753671,198.818076 35.6806784,192.933657 C30.6812744,185.978663 27.9953096,177.640531 28,169.089033 C28.0029682,166.678397 28.2127663,164.274485 28.6261051,161.915057 C28.9625607,160.139669 29.4152698,158.398672 29.9800447,156.70817 L31.0381519,153.511418 L33.8978589,155.675028 C40.5392081,160.524433 47.96005,164.217168 55.8426472,166.594144 L57.9212953,167.217398 L57.7256405,169.283683 L57.7256405,170.356129 C57.7209345,172.940857 58.5301781,175.465692 60.0375116,177.569409 C61.2552754,179.362435 62.8956563,180.83354 64.8146497,181.851709 C66.780116,182.882688 68.9027695,183.416062 71.0490354,183.418267 C72.182073,183.422806 73.3121243,183.279082 74.4190138,182.989663 C75.6201002,182.676808 76.7804694,182.171918 77.8688214,181.488612 L133.889055,145.751621 C135.568569,144.692276 136.952248,143.226786 137.908613,141.491781 C138.863416,139.756776 139.361162,137.808404 139.354903,135.828215 C139.339092,133.243487 138.509671,130.728011 136.983551,128.633651 C135.747004,126.863085 134.097233,125.418183 132.176676,124.41873 C130.210196,123.409747 128.091542,122.893774 125.951681,122.902706 C124.818582,122.898692 123.688522,123.043045 122.581703,123.333182 C121.386018,123.638586 120.232121,124.143239 119.153808,124.832362 L97.7959954,138.401712 C94.2018222,140.653327 90.3737541,142.324925 86.4119441,143.372774 C82.7492637,144.312334 78.9848415,144.791473 75.2032012,144.795216 C68.0124501,144.795216 60.9297035,143.062082 54.5591419,139.745546 C48.1885784,136.429009 42.7195998,131.626395 38.6202165,125.749463 C33.6270733,118.790725 30.9411066,110.454465 30.9395405,101.904838 C30.9425523,99.4997877 31.1524152,97.1003522 31.5656432,94.7308628 C32.5251371,89.4603399 34.5724833,84.4462308 37.5824539,80.0067136 C40.590862,75.5653248 44.4945905,71.7958528 49.0447682,68.9378668 L105.124489,33.3955263 C108.643166,31.1682812 112.481155,29.48381 116.50854,28.4038769 C120.17122,27.4699312 123.935644,27 127.715717,27 C134.923686,26.9814346 142.028347,28.7033384 148.420821,32.0180032 C154.813295,35.3307964 160.30106,40.1408973 164.416099,46.0290596 C169.379493,53.0046417 172.031048,61.346517 172,69.8924004 C171.996231,72.3099065 171.785917,74.7206434 171.37207,77.0869637 C171.036172,78.8617066 170.583981,80.6020856 170.019685,82.2919795 L168.961589,85.4887313 L166.101871,83.4037304 C159.46522,78.5468387 152.042805,74.8541037 144.157085,72.4846143 L142.078436,71.8426436 L142.274091,69.7744874 L142.274091,68.7039125 C142.274091,66.1116986 141.466421,63.5849919 139.96222,61.4700449 C138.727238,59.7013502 137.082161,58.2583199 135.163168,57.2588671 C133.200485,56.2494571 131.085654,55.7315956 128.949132,55.7372282 C127.827275,55.7614816 126.710951,55.9315525 125.619849,56.2444411 C124.416241,56.5447183 123.254961,57.0502341 122.171607,57.7454921 L66.0918924,93.2878326 C64.7615351,94.1131264 63.5852146,95.2529055 62.634258,96.6380584 C61.7474452,97.9311331 61.126635,99.4548976 60.8217028,101.086934 C60.6836617,101.76484 60.5982534,102.456536 60.5665652,103.153218 C60.565001,105.732331 61.372669,108.247808 62.8784364,110.347782 C64.111852,112.116476 65.7584937,113.561378 67.6759229,114.558959 C69.6385591,115.568337 71.7534928,116.085587 73.8899583,116.078727 C75.0230566,116.082726 76.1531153,115.938374 77.2599367,115.648251 C78.4631247,115.345057 79.6245111,114.840355 80.7097443,114.149071 L102.106689,100.501112 C105.69944,98.2456525 109.527946,96.5738626 113.49074,95.5300508 C117.174395,94.5871359 120.930806,94.110363 124.697917,94.1076085 C131.891801,94.1076085 138.977678,95.8388705 145.351368,99.1554069 C151.72506,102.471943 157.198739,107.276429 161.301254,113.155234 C166.294397,120.112099 168.980356,128.44836 168.981938,136.999858 C168.987585,139.431111 168.770623,141.858621 168.335477,144.25057 C167.382242,149.522965 165.334902,154.538946 162.326492,158.980334 C159.316521,163.419852 155.411221,167.187452 150.856348,170.043566 L94.8752433,205.585907 C91.2766361,207.848148 87.4419323,209.526809 83.4724079,210.577556 L83.4708437,210.577556 Z" id="s" fill="#FFFFFF"></path>
            </g>
        </g>
    </g>
</svg>