<?xml version="1.0" encoding="UTF-8"?>
<svg width="240px" height="240px" viewBox="0 0 240 240" version="1.1" xmlns="http://www.w3.org/2000/svg" xmlns:xlink="http://www.w3.org/1999/xlink">
    <title>swagger</title>
    <g id="Page-1" stroke="none" stroke-width="1" fill="none" fill-rule="evenodd">
        <g id="swagger" transform="translate(0, -0.3727)" fill-rule="nonzero">
            <path d="M119.499061,234.372721 C56.3658379,234.372721 5,183.010833 5,119.871781 C5,56.7346081 56.3658379,5.37272056 119.500939,5.37272056 C182.636041,5.37272056 234,56.7383653 234,119.875539 C234,183.010833 182.634162,234.372721 119.500939,234.372721 L119.499061,234.372721 Z" id="Path" fill="#85EA2D"></path>
            <path d="M75.5625,81.5808739 C75.19125,85.6872201 75.6975,89.9323196 75.425625,94.0836669 C75.10125,98.2406393 74.593125,102.346986 73.760625,106.451457 C72.6075,112.312844 68.960625,116.743573 63.935625,120.435535 C73.719375,126.803184 74.82375,136.677165 75.470625,146.691775 C75.793125,152.091901 75.654375,157.538904 76.209375,162.888405 C76.62375,167.041627 78.238125,168.104777 82.531875,168.23978 C84.285,168.286656 86.083125,168.23978 88.115625,168.23978 L88.115625,181.068831 C75.425625,183.236381 64.951875,179.640047 62.364375,168.888545 C61.5139786,164.938155 60.9897137,160.924549 60.796875,156.888264 C60.519375,152.600038 60.97875,148.306188 60.658125,144.017962 C59.735625,132.248311 58.21125,128.280718 46.955625,127.725705 L46.955625,113.100363 C47.7825,112.912858 48.568125,112.774105 49.396875,112.682228 C55.580625,112.35972 58.21125,110.465926 59.548125,104.375783 C60.1898361,100.949108 60.5759002,97.479464 60.703125,93.9955398 C61.16625,87.303508 60.980625,80.476473 62.13375,73.8313172 C63.74625,64.2798434 69.6525,59.6634852 79.485,59.1084722 C82.2525,58.9697189 85.06875,59.1084722 88.2525,59.1084722 L88.2525,72.2150294 C86.91375,72.3087816 85.75875,72.4906608 84.560625,72.4906608 C76.576875,72.2131543 76.160625,74.9357181 75.560625,81.5808739 L75.5625,81.5808739 Z M90.928125,111.94346 L90.7425,111.94346 C86.12625,111.71283 82.15875,115.311039 81.92625,119.927398 C81.6975,124.586882 85.295625,128.558225 89.911875,128.785105 L90.465,128.785105 C95.0325,129.062612 98.953125,125.552529 99.2325,120.984922 L99.2325,120.525537 C99.32625,115.864177 95.5875,112.037213 90.92625,111.94346 L90.928125,111.94346 Z M119.859375,111.94346 C115.385625,111.804707 111.646875,115.311039 111.508125,119.741768 C111.508125,120.02115 111.508125,120.249905 111.553125,120.525537 C111.553125,125.558155 114.9675,128.78698 120.136875,128.78698 C125.2125,128.78698 128.398125,125.464402 128.398125,120.249905 C128.35125,115.221037 124.98,111.896584 119.859375,111.94346 L119.859375,111.94346 Z M149.48625,111.94346 C144.770916,111.85914 140.863706,115.580936 140.718715,120.294906 C140.712252,122.548633 141.604644,124.711926 143.198239,126.305558 C144.791834,127.89919 146.955076,128.791604 149.20875,128.785105 L149.3025,128.785105 C153.5475,129.523873 157.839375,125.417526 158.116875,120.480536 C158.345625,115.911053 154.194375,111.94346 149.484375,111.94346 L149.48625,111.94346 Z M190.14,112.635352 C184.786875,112.404721 182.1075,110.604679 180.7725,105.528935 C179.943451,102.278822 179.434154,98.9554353 179.251875,95.6062026 C178.880625,89.4223077 178.925625,83.1934117 178.51125,77.0095167 C177.54375,62.3354228 166.929375,57.2146778 151.516875,59.7497372 L151.516875,72.4850357 C153.961875,72.4850357 155.85375,72.4850357 157.745625,72.5319118 C161.023125,72.5769128 163.515,73.8256921 163.8375,77.4707775 C164.16,80.7933554 164.16,84.1609343 164.4825,87.5303883 C165.13125,94.2242952 165.49875,101.006329 166.651875,107.604609 C167.668125,113.049736 171.406875,117.111082 176.064375,120.431784 C167.89875,125.923788 165.496875,133.768972 165.0825,142.583554 C164.85375,148.62682 164.715,154.718838 164.3925,160.810856 C164.115,166.347861 162.178125,168.147903 156.5925,168.286656 C155.026875,168.331657 153.5025,168.47041 151.749375,168.564163 L151.749375,181.621969 C155.026875,181.621969 158.025,181.809473 161.023125,181.621969 C170.34375,181.068831 175.974375,176.5481 177.823125,167.501013 C178.605,162.517146 179.064375,157.488278 179.205,152.457535 C179.525625,147.844927 179.4825,143.183568 179.94375,138.615961 C180.635625,131.462668 183.91125,128.511349 191.0625,128.048213 C191.739334,127.965537 192.405535,127.811553 193.05,127.588827 L193.05,112.961609 C191.85,112.822856 191.0175,112.684103 190.14,112.637227 L190.14,112.635352 Z M120,11.8086136 C179.956875,11.8086136 228.5625,60.4097527 228.5625,120.369908 C228.5625,180.328188 179.956875,228.933077 120,228.933077 C60.045,228.933077 11.44125,180.328188 11.44125,120.368033 C11.44125,60.4153778 60.045,11.8086136 120,11.8086136 M120,0.372720558 C53.83125,0.372720558 0,54.2033572 0,120.373658 C0,186.540209 53.83125,240.372721 120,240.372721 C186.166875,240.372721 240,186.540209 240,120.369908 C240,54.1996071 186.166875,0.372720558 120,0.372720558 L120,0.372720558 Z" id="Shape" fill="#173647"></path>
        </g>
    </g>
</svg>