<?xml version="1.0" encoding="UTF-8"?>
<svg width="240px" height="240px" viewBox="0 0 240 240" version="1.1" xmlns="http://www.w3.org/2000/svg" xmlns:xlink="http://www.w3.org/1999/xlink">
    <title>swift</title>
    <g id="Page-1" stroke="none" stroke-width="1" fill="none" fill-rule="evenodd">
        <g id="swift" transform="translate(-0, -0.3737)" fill-rule="nonzero">
            <g id="shape" transform="translate(0, 0.3737)">
                <path d="M239.983252,66.4751981 C239.969109,64.0614963 239.942438,61.6490068 239.875761,59.2324763 C239.735134,53.9759163 239.424379,48.6716723 238.490094,43.4712824 C237.54207,38.1900722 235.992337,33.2794236 233.549942,28.4819236 C231.152402,23.7704973 228.018184,19.4591321 224.279428,15.7203795 C220.54148,11.981627 216.230112,8.84781528 211.516661,6.44906527 C206.723198,4.00950095 201.811737,2.46017353 196.535371,1.51215002 C191.332148,0.575037276 186.0279,0.266303278 180.767294,0.124059342 C178.351974,0.0585948032 175.939079,0.031115861 173.524567,0.0161640836 C170.658672,0 167.790757,0 164.925671,0 L101.394303,0 L75.0747078,0 C72.2067928,0 69.3421107,0 66.4770244,0.0165681857 C64.0617042,0.0315199631 61.6459799,0.0589989053 59.2342966,0.124463444 C57.9193472,0.160024428 56.6015692,0.206092066 55.282983,0.269536095 C51.3276284,0.460272282 47.3662123,0.80982059 43.4658156,1.51255413 C39.5084405,2.22377381 35.7559453,3.27282284 32.105284,4.78214415 C30.8885315,5.28484715 29.6826899,5.83927522 28.4841221,6.44906527 C24.949034,8.24812778 21.6394351,10.4605867 18.6292761,13.0314842 C17.6258897,13.8885848 16.6556398,14.7852873 15.721355,15.7199754 C11.9817911,19.458728 8.84757263,23.7700932 6.45003291,28.4815195 C4.00763782,33.2790195 2.45992551,38.1896681 1.511093,43.4708783 C0.577616382,48.6712681 0.267265715,53.9755122 0.125829864,59.2320722 C0.0595570653,61.6486027 0.0316739975,64.0610922 0.0159140027,66.474794 C-4.59411275e-13,69.3414942 -4.59411275e-13,72.2085985 -4.59411275e-13,75.0744906 L-4.59411275e-13,114.199251 L-4.59411275e-13,164.924166 C-4.59411275e-13,167.792887 -0.00267470909,170.657162 0.0159140027,173.525883 C0.0316739975,175.939585 0.0595570653,178.352074 0.125829864,180.764564 C0.267265715,186.023952 0.577212279,191.329409 1.511093,196.527374 C2.45992551,201.806968 4.00763782,206.722062 6.45003291,211.518349 C8.84757263,216.230988 11.9817911,220.541141 15.721355,224.278277 C19.4580902,228.018646 23.7706713,231.152053 28.4845262,233.55242 C33.2783933,235.992388 38.1894502,237.539695 43.4670279,238.487719 C48.667018,239.423619 53.9753075,239.734778 59.2347007,239.875405 C61.646384,239.939658 64.0621083,239.968349 66.4774285,239.982088 C69.3425148,240.002697 72.2071969,240 75.0751119,240 L164.925671,240 C167.790757,240 170.658672,240.002697 173.524163,239.982088 C175.938675,239.968349 178.35157,239.939658 180.76689,239.875405 C186.027496,239.734778 191.331744,239.423215 196.534967,238.487719 C201.811333,237.539695 206.722794,235.991984 211.516257,233.55242 C216.229707,231.152458 220.541076,228.018646 224.279024,224.278277 C228.017779,220.540737 231.152402,216.230988 233.549538,211.518349 C235.991933,206.722062 237.541666,201.807372 238.48969,196.527374 C239.423975,191.329409 239.734729,186.023952 239.875357,180.764564 C239.94163,178.352074 239.968301,175.939989 239.982848,173.525883 C240,170.657162 240,167.792887 240,164.924166 L240,75.0744906 C240,72.2085985 240,69.3414942 239.983252,66.4751981 Z" id="Path" fill="#F05138"></path>
                <path d="M190.173183,148.146655 C190.167525,148.139381 190.162272,148.134128 190.15621,148.127258 C190.421706,147.223686 190.695687,146.325771 190.928046,145.399569 C200.889171,105.713107 176.577965,58.7928132 135.438317,34.0880319 C153.466538,58.5277223 161.437863,88.1298168 154.355564,114.017405 C153.723952,116.326444 152.964643,118.54254 152.125322,120.696404 C151.214476,120.097929 150.066825,119.418634 148.525578,118.568807 C148.525578,118.568807 107.602529,93.3015154 63.2486501,48.6098446 C62.0848351,47.4367363 86.8999572,84.0778852 115.06226,113.831518 C101.79396,106.385129 64.8169716,79.4812239 41.408126,58.0561351 C44.284123,62.8524228 47.7048501,67.4709056 51.4650232,71.9172409 C71.0134783,96.7085001 96.5070884,127.297008 127.049554,150.785442 C105.590099,163.917952 75.2674646,164.939118 45.0765679,150.799181 C37.6091591,147.299657 30.5890916,143.077195 24.0907204,138.279695 C36.8704598,158.721199 56.5530769,176.35783 80.5086731,186.653948 C109.076695,198.930973 137.4855,198.098523 158.644303,186.85519 L158.627735,186.879437 C158.724315,186.818417 158.847162,186.75174 158.94738,186.689913 C159.8162,186.222771 160.678554,185.747143 161.521916,185.244844 C171.687921,179.968079 191.767771,174.614534 202.545587,195.585008 C205.185184,200.717105 210.794126,173.519417 190.173183,148.146655 Z" id="Path" fill="#FFFFFF"></path>
            </g>
        </g>
    </g>
</svg>