<?xml version="1.0" encoding="UTF-8"?>
<svg width="240px" height="240px" viewBox="0 0 240 240" version="1.1" xmlns="http://www.w3.org/2000/svg" xmlns:xlink="http://www.w3.org/1999/xlink">
    <title>symfony</title>
    <g id="Page-1" stroke="none" stroke-width="1" fill="none" fill-rule="evenodd">
        <g id="symfony">
            <rect id="ViewBox" x="0" y="0" width="240" height="240"></rect>
            <path d="M120,4.3125 C56.0625,4.3125 4.3125,56.0625 4.3125,120 C4.3125,183.9375 56.0625,235.6875 120,235.6875 C183.9375,235.6875 235.6875,183.9375 235.6875,120 C235.6875,56.0625 183.9375,4.3125 120,4.3125 M182.4375,71.25 C177,71.4375 173.4375,68.25 173.25,63.375 C173.25,61.5 173.625,60 174.9375,58.125 C176.0625,55.875 176.4375,55.5 176.4375,54.5625 C176.25,51.5625 171.75,51.375 170.4375,51.375 C153,51.9375 148.5,75.375 144.75,94.5 L142.875,104.625 C152.8125,106.125 159.9375,104.25 163.875,101.8125 C169.5,98.25 162.375,94.5 163.125,90.375 C164.0625,86.25 167.8125,84.1875 170.8125,84 C175.125,83.8125 178.125,88.3125 177.9375,92.8125 C177.75,100.125 168,110.4375 148.3125,109.875 C145.875,109.875 143.8125,109.6875 141.75,109.5 L138,129.9375 C134.625,145.3125 130.3125,166.5 114.5625,184.875 C101.0625,201 87.375,203.4375 81.1875,203.625 C69.75,204 62.0625,197.8125 61.875,189.75 C61.6875,181.875 68.625,177.5625 73.125,177.375 C79.3125,177.1875 83.4375,181.6875 83.625,186.75 C83.8125,191.0625 81.5625,192.375 80.0625,193.3125 C79.125,194.0625 77.625,195 77.625,196.6875 C77.625,197.4375 78.5625,199.125 81,199.125 C85.875,198.9375 89.0625,196.5 91.3125,195 C102.5625,185.625 106.875,169.3125 112.5,139.875 L113.625,132.75 C115.5,123.1875 117.75,112.3125 120.9375,101.625 C113.0625,95.625 108.375,88.3125 97.6875,85.5 C90.375,83.4375 86.0625,85.125 82.875,89.0625 C79.125,93.75 80.4375,99.75 84,103.3125 L89.8125,109.875 C97.125,118.3125 101.0625,124.6875 99.5625,133.5 C97.5,147.1875 80.8125,157.875 61.125,151.875 C44.25,146.625 41.25,134.8125 43.3125,128.25 C45,122.4375 49.6875,121.3125 54.1875,122.8125 C59.0625,124.3125 60.9375,130.125 59.4375,134.625 C59.25,135.1875 59.0625,135.9375 58.5,136.875 C57.9375,138.1875 57,139.125 56.4375,140.625 C55.3125,144.1875 60.1875,146.625 63.5625,147.75 C71.0625,150 78.375,146.0625 80.25,140.0625 C81.9375,134.4375 78.375,130.5 77.0625,129 L69.9375,121.3125 C66.75,117.75 59.4375,107.625 63,96.1875 C64.3125,91.875 67.125,87.1875 71.25,84.1875 C79.875,77.625 89.4375,76.6875 98.4375,79.3125 C110.0625,82.6875 115.6875,90.375 123,96.375 C127.125,84.5625 132.75,72.75 141.1875,63 C148.875,54 159,47.625 170.8125,47.0625 C182.625,46.6875 191.4375,51.9375 191.8125,60.375 C191.625,64.125 189.5625,71.0625 182.4375,71.25" id="Shape" fill="#FFFFFF" fill-rule="nonzero"></path>
        </g>
    </g>
</svg>