<?xml version="1.0" encoding="UTF-8"?>
<svg width="240px" height="240px" viewBox="0 0 240 240" version="1.1" xmlns="http://www.w3.org/2000/svg" xmlns:xlink="http://www.w3.org/1999/xlink">
    <title>tabbyml</title>
    <defs>
        <linearGradient x1="61.6072337%" y1="46.2004053%" x2="45.7697609%" y2="51.7904875%" id="linearGradient-1">
            <stop stop-color="#EEE4D7" stop-opacity="0" offset="0%"></stop>
            <stop stop-color="#E4E1D0" stop-opacity="0.062745102" offset="100%"></stop>
        </linearGradient>
        <linearGradient x1="37.2453166%" y1="19.9634225%" x2="38.1689187%" y2="65.2160058%" id="linearGradient-2">
            <stop stop-color="#1D2023" offset="0%"></stop>
            <stop stop-color="#383129" offset="100%"></stop>
        </linearGradient>
        <linearGradient x1="43.589549%" y1="60.0403326%" x2="52.9145173%" y2="59.860833%" id="linearGradient-3">
            <stop stop-color="#A6682B" offset="0%"></stop>
            <stop stop-color="#B0814D" offset="100%"></stop>
        </linearGradient>
        <linearGradient x1="39.9219931%" y1="52.7202488%" x2="68.9526195%" y2="44.6052012%" id="linearGradient-4">
            <stop stop-color="#4D4433" offset="0%"></stop>
            <stop stop-color="#2D2F2C" offset="100%"></stop>
        </linearGradient>
        <linearGradient x1="50.8585545%" y1="50.2053214%" x2="40.0467836%" y2="41.1347982%" id="linearGradient-5">
            <stop stop-color="#C19669" offset="0%"></stop>
            <stop stop-color="#DAC6A8" offset="100%"></stop>
        </linearGradient>
        <linearGradient x1="44.1413487%" y1="31.9867702%" x2="60.535304%" y2="72.4154366%" id="linearGradient-6">
            <stop stop-color="#332D24" offset="0%"></stop>
            <stop stop-color="#232527" offset="100%"></stop>
        </linearGradient>
        <linearGradient x1="55.493099%" y1="61.3079256%" x2="48.3157118%" y2="37.0887702%" id="linearGradient-7">
            <stop stop-color="#975C29" offset="0%"></stop>
            <stop stop-color="#BB8144" offset="100%"></stop>
        </linearGradient>
        <linearGradient x1="70.0994302%" y1="54.8227191%" x2="44.7832674%" y2="31.2023106%" id="linearGradient-8">
            <stop stop-color="#905F2F" offset="0%"></stop>
            <stop stop-color="#BC773A" offset="100%"></stop>
        </linearGradient>
        <linearGradient x1="69.5972441%" y1="42.9509548%" x2="37.7077478%" y2="61.8404024%" id="linearGradient-9">
            <stop stop-color="#E5CBA2" offset="0%"></stop>
            <stop stop-color="#D8BAAA" offset="100%"></stop>
        </linearGradient>
    </defs>
    <g id="Page-1" stroke="none" stroke-width="1" fill="none" fill-rule="evenodd">
        <g id="tabbyml" transform="translate(0, -0)">
            <rect id="box" x="0" y="0" width="240" height="240"></rect>
            <g id="shape" transform="translate(19.1921, 0.4318)" fill-rule="nonzero">
                <path d="M16.7884539,1.02743764 C32.7585373,4.19964763 52.137447,21.021981 70.1745094,22.2608935 C76.4934863,22.6949086 91.8888852,19.5481277 99.2206308,19.5561415 C103.05448,18.9663461 116.439563,19.777889 118.875982,17.5951084 C128.260271,9.18805613 132.049929,-1.71945998 147.194811,0.228570262 C154.343015,1.14808428 162.710902,9.59011385 164.654341,16.1943565 C171.668989,27.9410093 175.981087,40.8991126 179.483992,54.0766179 C180.829375,59.1372287 181.879166,66.8658452 183.588882,71.4970341 C185.448849,74.9788305 186.877704,79.1304625 188.26826,82.8616637 C190.596656,88.535134 193.709694,93.6499844 195.913372,99.2887609 C197.509172,103.373839 197.44043,108.487028 198.253552,112.898522 C199.452611,119.402397 201.383285,126.547375 202,133.091319 C201.312578,133.889766 199.723652,134.066656 198.614939,134.300228 C198.812327,135.657686 199.27781,139.792607 199.825783,140.780648 C200.651671,143.960755 201.075909,147.847443 199.892561,150.989435 C199.583222,155.561205 199.108901,158.448124 198.302653,162.954415 C197.555327,163.704975 196.469201,164.591378 196.276723,165.581374 L196.604721,166.37689 C195.347722,174.679958 192.590179,188.226196 190.293208,196.104142 C187.072146,207.148513 173.050707,217.751149 164.60524,224.500324 C158.191595,229.480601 143.946253,236.747741 136.069382,239.568204 L135.941718,238.551821 C137.613135,235.823223 139.457389,236.222935 141.970406,233.340903 C158.409606,223.953041 164.769239,216.838358 175.886812,202.230783 L173.439591,201.262287 C167.364747,210.499646 151.210336,221.745339 141.392972,226.523317 C132.9259,231.269045 117.117165,235.424488 107.499153,237.847194 C105.78158,237.687895 105.594012,236.315778 105.029344,234.968093 C113.204753,232.931417 120.589626,228.761315 127.828177,225.008515 L126.958098,223.405757 C112.92291,228.572697 97.424496,233.70641 82.2676325,232.647026 L81.5273775,232.448635 L81.1467422,231.717621 C82.2302171,231.131247 86.0299898,230.816559 87.805502,230.473529 C96.8097446,228.730041 107.215346,226.435361 115.047043,221.45997 C89.2035213,227.279741 73.6363652,229.328144 47.1184827,227.375515 L47.6706788,225.30268 C58.6084423,225.550912 78.6068172,223.821106 89.2065656,221.500039 C94.8466645,221.512744 107.771175,216.257847 112.955317,214.132238 C108.879888,214.583747 104.106235,215.88159 100.000363,216.710333 C94.8741614,217.744308 90.2386803,218.393229 85.0770269,219.058765 C73.4638224,220.164081 61.779617,220.329244 50.1395048,219.553274 C48.6553613,219.245427 47.474469,218.955172 46.0173313,218.538846 L46.0294103,218.134247 C47.3870682,217.816627 48.7420746,217.488257 50.0944296,217.14816 C50.8550126,216.849109 73.837387,213.687571 76.2140985,213.39927 C68.3492083,212.315453 62.9884972,212.620368 55.0219668,212.795304 C53.0092941,212.611573 50.8632617,212.578345 49.1533492,211.517006 C49.8705265,211.487688 50.5857397,211.422209 51.296141,211.319593 C54.1427544,210.905222 66.9384225,207.63325 68.6634582,205.314137 C68.1528021,204.722876 67.5680026,204.545986 66.7318031,204.606578 C60.1503293,205.10402 53.7900088,206.533797 47.3024171,204.341732 C36.8879779,200.823483 35.8508549,188.328811 28.7619656,181.406656 C25.605325,178.324278 22.5781161,174.669208 20.6858405,170.75711 C21.3570587,169.779819 20.5216449,168.840642 20.0999608,167.636618 C18.2845782,162.454042 16.3469327,156.473995 18.4100817,151.114529 L19.0560618,153.10918 C20.3040268,143.295219 26.7483109,134.448777 31.4325008,125.520242 L30.5056599,124.363129 C28.6836977,123.46793 28.2522915,123.163992 26.706771,121.849535 C27.5409082,120.890812 27.4408392,119.56365 27.5094832,118.267762 C28.7180688,116.949395 29.3098407,114.40746 29.862626,112.621949 C30.1069553,111.227354 30.5694919,109.811258 30.9742851,108.447937 C29.7536205,105.398787 29.1270847,104.55343 27.2204715,101.994881 C27.1713699,100.23087 26.8418985,99.3454438 26.3364471,97.6723208 C23.9458889,96.9139426 22.2830158,93.8093807 20.9052262,91.721202 C24.0905421,86.4409938 21.5961833,83.6761384 22.1180346,77.6655026 L24.2570946,80.5043389 C25.1182376,81.9236593 25.1366998,82.5351506 26.4600848,83.0484241 C27.7560712,81.9584509 27.6273269,81.3874195 28.2625046,79.5859781 C25.7956426,77.7412427 25.1889438,70.9792651 24.8049697,67.9646141 C24.0988894,66.801344 22.321315,63.8666354 22.4723514,62.7112814 C23.758812,60.5631947 25.0556822,57.5189317 27.0348676,56.3862509 C28.001579,50.3580238 21.7260078,35.1592843 20.2700485,28.4080569 C17.6921188,21.8404627 14.2015877,16.6132237 11.8117169,9.06618788 C10.9044185,6.34532042 10.7717461,5.21084137 11.3434845,2.44061091 C13.4033929,1.12908573 14.3663725,1.12838208 16.7884539,1.02743764 Z M93.3981688,100.117504 C95.0754778,99.3415346 97.0601625,98.2078765 98.718813,97.3165866 C90.7708429,95.1590202 89.4106317,96.1066998 81.7328184,98.001668 C85.8945677,98.3036511 89.5203246,98.3574021 93.3981688,100.117504 Z M139.403377,216.021343 L138.448843,216.860836 C137.126047,217.623124 131.993953,220.489519 131.229933,221.177533 L134.166206,221.556722 C134.658203,221.107168 137.07891,219.711595 137.781062,219.292337 L140.36675,217.550804 C143.215622,215.675382 145.658915,213.895734 148.390925,211.854172 L147.251769,210.640376 C145.178702,212.155178 140.786077,214.615998 139.403377,216.021343 Z" id="Shape" fill="#242525"></path>
                <g id="Path">
                    <path d="M81.6858706,97.9148325 C89.366681,96.0215434 90.7274232,95.0747035 98.6784958,97.2303582 C97.0191979,98.1208583 95.0337384,99.2535119 93.3557747,100.028794 C89.4764167,98.2702514 85.8492445,98.216548 81.6858706,97.9148325 Z" fill="url(#linearGradient-1)"></path>
                    <path d="M147.230398,210.453736 L148.369998,211.666456 C145.636921,213.706209 143.192674,215.48428 140.34269,217.358041 L137.755993,219.098031 C137.053567,219.516918 134.631915,220.911253 134.139726,221.360409 L131.202307,220.981556 C131.966625,220.294152 137.100723,217.430296 138.424035,216.668684 L139.378942,215.829935 C140.762181,214.425835 145.156521,211.967195 147.230398,210.453736 Z" fill-opacity="0.011764706" fill="#AB9676"></path>
                    <path d="M16.7161542,1.02652727 C32.6924718,4.19592649 52.0789462,21.0033543 70.1230496,22.2411689 C76.4444933,22.6747995 91.845902,19.5308069 99.1805096,19.5388136 C103.015855,18.9495408 116.406164,19.7603646 118.843534,17.5795181 C128.231486,9.17991495 132.022623,-1.71793643 147.173418,0.228367735 C154.324412,1.14706701 162.695565,9.58161642 164.639763,16.1800074 L164.047367,16.4761572 C163.091478,15.0412022 160.934096,10.8520437 159.850493,10.4266151 C159.317042,12.5485831 162.151307,14.4226366 162.340913,16.6635333 L161.945983,17.3994652 C159.878983,13.5532273 157.372844,8.30279188 153.821416,5.75770939 C139.707068,-4.35979734 129.396629,7.08443737 122.110062,17.1489144 L112.444086,30.1073508 C108.38082,35.1541039 105.92282,38.2641169 99.7699582,40.9990849 C94.2301235,42.7930715 87.2249194,47.6182737 84.7470738,53.0738562 C84.2563578,54.2977079 84.1562498,54.6558608 83.2393624,55.5874684 C83.0181227,54.1548569 83.9236141,51.7015877 84.4413465,50.2809862 C88.9343204,37.9531254 102.06979,36.2266097 110.707178,27.150246 L109.978226,26.2907963 C109.524351,26.1254874 108.450572,25.8634148 108.015362,25.978926 C98.1568338,28.5971134 92.0028918,31.5342015 85.6242716,38.9080696 L83.5927369,37.9594722 C81.5557989,40.1302614 79.4433132,42.229674 77.2590131,44.2539018 C73.6889192,46.1612515 65.5369428,52.7604236 63.8217455,56.5885976 C59.9132098,62.5339551 57.6665263,67.0976705 54.939737,73.6901052 C53.932271,76.1257987 52.1617638,81.2078008 51.0879848,83.3254725 C50.3073584,85.1582233 49.3328033,87.2849758 48.6317524,89.1141137 L47.9343364,90.5579542 L46.8021038,90.746209 L46.1011511,90.982797 C46.0849413,92.7377266 46.1479141,98.5670848 45.749938,99.9057642 C45.251068,102.370262 44.9654801,104.074125 46.6950206,106.152935 C49.3276947,109.316554 45.7245917,110.311531 45.6004145,112.548522 L45.7001296,112.688151 C44.7952277,114.943694 43.1283652,118.88943 41.6076859,120.73585 L40.786977,120.934065 L40.0503626,120.396054 C39.3386034,117.719672 38.2732733,113.04357 36.5331226,111.056544 L35.4687749,111.160045 C34.5023738,110.253922 34.746995,106.337479 32.9458365,105.144287 L32.1964508,105.874654 C32.1739535,107.281683 32.3160106,109.288237 31.6468882,110.444325 C31.3358558,109.74911 30.992109,109.104669 30.9075231,108.351845 C29.686382,105.305397 29.0596016,104.460789 27.1522441,101.904507 C27.1031234,100.142059 26.7735233,99.2574176 26.2678746,97.5857771 C23.8763833,96.8280709 22.212861,93.7262598 20.8345336,91.6399314 C24.0210929,86.3644018 21.5257604,83.6019962 22.0478154,77.5966862 L24.1877104,80.4330071 C25.0491896,81.8510699 25.067659,82.4620194 26.3915606,82.9748381 C27.6880529,81.8858307 27.5592584,81.3153052 28.194684,79.51546 C25.726859,77.6723592 25.1199234,70.9163731 24.7357994,67.9043933 C24.0294434,66.7421539 22.2511752,63.8100456 22.4022705,62.6557154 C23.6892333,60.509532 24.9866098,57.4679664 26.9665678,56.3362892 C27.9336565,50.3134035 21.6556355,35.128131 20.199108,28.3828857 C17.6201719,21.8211107 14.1282782,16.5985033 11.7374746,9.05815468 C10.8298219,6.33969808 10.6970977,5.20622424 11.2690594,2.43844838 C13.3297718,1.12808529 14.2931274,1.12738227 16.7161542,1.02652727 Z" fill="url(#linearGradient-2)"></path>
                    <path d="M63.8779396,37.3828929 L64.4945029,38.7825989 C52.9539827,50.6712634 46.1778777,60.8204259 43.503844,77.1711599 L43.9637121,79.4659553 C45.3031359,76.8446432 44.2600083,73.0027016 45.9364985,71.6124669 L46.4014752,71.957731 C46.3600173,74.7455236 45.2619728,78.6910639 46.0537988,80.5923598 C46.0570407,83.721706 45.8751958,87.9849752 46.1011511,90.982797 C46.0849413,92.7377266 46.1479141,98.5670848 45.749938,99.9057642 C45.251068,102.370262 44.9654801,104.074125 46.6950206,106.152935 C49.3276947,109.316554 45.7245917,110.311531 45.6004145,112.548522 L45.7001296,112.688151 C44.7952277,114.943694 43.1283652,118.88943 41.6076859,120.73585 L40.786977,120.934065 L40.0503626,120.396054 C39.3386034,117.719672 38.2732733,113.04357 36.5331226,111.056544 L35.4687749,111.160045 C34.5023738,110.253922 34.746995,106.337479 32.9458365,105.144287 L32.1964508,105.874654 C32.1739535,107.281683 32.3160106,109.288237 31.6468882,110.444325 C31.3358558,109.74911 30.992109,109.104669 30.9075231,108.351845 C29.686382,105.305397 29.0596016,104.460789 27.1522441,101.904507 C27.1031234,100.142059 26.7735233,99.2574176 26.2678746,97.5857771 C23.8763833,96.8280709 22.212861,93.7262598 20.8345336,91.6399314 C24.0210929,86.3644018 21.5257604,83.6019962 22.0478154,77.5966862 L24.1877104,80.4330071 C25.0491896,81.8510699 25.067659,82.4620194 26.3915606,82.9748381 C27.6880529,81.8858307 27.5592584,81.3153052 28.194684,79.51546 L28.6859894,78.2696387 C29.124441,76.9795852 29.1905575,74.0274602 29.5809689,72.084764 C30.5538539,71.0309079 30.0785618,71.2397653 31.4637661,71.1744424 L32.8982876,74.6320629 C33.7503356,76.1723742 34.4817431,77.4702391 35.1738541,79.0920819 C36.3003887,77.2241798 35.5841103,71.5066224 38.1147116,67.4052445 L38.9050639,67.522025 C39.3161061,67.0476775 39.1916342,67.1811548 39.3379157,66.5043943 L37.6101435,66.4264755 C37.3705327,64.4156248 39.0435844,64.9280529 39.0542927,62.043106 L37.7422783,61.0031151 L38.0684399,60.6471104 L38.1131397,60.562259 C40.2314216,56.6099813 41.9607657,54.4783467 44.619965,50.9044339 C46.7889395,48.7382338 49.0066417,46.620855 51.2715981,44.5539574 C51.1968364,47.3957463 49.6273311,48.3598689 48.5970731,50.9881135 L50.6904017,50.7816972 C53.7078875,46.0809893 59.4097224,40.7969648 63.8779396,37.3828929 Z" fill="url(#linearGradient-3)"></path>
                    <path d="M28.6859894,78.2696387 C29.124441,76.9795852 29.1905575,74.0274602 29.5809689,72.084764 C30.5538539,71.0309079 30.0785618,71.2397653 31.4637661,71.1744424 L32.8982876,74.6320629 C32.4010877,76.0120452 32.1806339,76.7610612 31.8445499,78.1889859 C32.566821,80.0597196 33.5345974,82.3606664 34.1582341,84.2201712 C32.6145663,93.4188811 31.7705741,96.543931 32.1964508,105.874654 C32.1739535,107.281683 32.3160106,109.288237 31.6468882,110.444325 C31.3358558,109.74911 30.992109,109.104669 30.9075231,108.351845 C29.686382,105.305397 29.0596016,104.460789 27.1522441,101.904507 C27.1031234,100.142059 26.7735233,99.2574176 26.2678746,97.5857771 C23.8763833,96.8280709 22.212861,93.7262598 20.8345336,91.6399314 C24.0210929,86.3644018 21.5257604,83.6019962 22.0478154,77.5966862 L24.1877104,80.4330071 C25.0491896,81.8510699 25.067659,82.4620194 26.3915606,82.9748381 C27.6880529,81.8858307 27.5592584,81.3153052 28.194684,79.51546 L28.6859894,78.2696387 Z" fill="#DEC7A9"></path>
                    <path d="M28.6859894,78.2696387 C29.124441,76.9795852 29.1905575,74.0274602 29.5809689,72.084764 C30.5538539,71.0309079 30.0785618,71.2397653 31.4637661,71.1744424 L32.8982876,74.6320629 C32.4010877,76.0120452 32.1806339,76.7610612 31.8445499,78.1889859 C30.0556716,82.6672641 25.3810492,93.6190483 26.2678746,97.5857771 C23.8763833,96.8280709 22.212861,93.7262598 20.8345336,91.6399314 C24.0210929,86.3644018 21.5257604,83.6019962 22.0478154,77.5966862 L24.1877104,80.4330071 C25.0491896,81.8510699 25.067659,82.4620194 26.3915606,82.9748381 C27.6880529,81.8858307 27.5592584,81.3153052 28.194684,79.51546 L28.6859894,78.2696387 Z" fill="#42372B"></path>
                    <path d="M63.8779396,37.3828929 L64.4945029,38.7825989 C52.9539827,50.6712634 46.1778777,60.8204259 43.503844,77.1711599 C42.8994626,80.3682701 42.9926938,94.6049452 42.9471097,98.6881615 C42.4639583,96.7851081 42.0130301,94.8746339 41.5946198,92.9568365 C38.4209301,77.9096306 42.3792742,63.4193778 50.6904017,50.7816972 C53.7078875,46.0809893 59.4097224,40.7969648 63.8779396,37.3828929 Z" fill="#242525"></path>
                    <path d="M32.8982876,74.6320629 C33.7503356,76.1723742 34.4817431,77.4702391 35.1738541,79.0920819 L34.5911841,79.7662061 L33.8129154,79.7890545 C33.5849953,81.2635547 34.8554536,83.7706249 35.7436544,84.9781704 C35.8447449,85.1153582 35.9480949,85.2508861 36.0536062,85.3846564 L36.6148595,85.3893432 C36.7516116,84.1362963 36.8232296,83.6415415 36.6725272,82.3968918 C36.9980011,82.3807808 36.9935803,82.3133098 37.1572505,82.4451272 C38.0804253,84.905622 36.8932758,84.2852012 37.7972935,87.471766 C38.043683,93.361272 39.2734693,100.108861 38.4583601,105.813139 C37.4009875,98.7418649 36.3712207,90.9724468 34.1582341,84.2201712 C33.5345974,82.3606664 32.566821,80.0597196 31.8445499,78.1889859 C32.1806339,76.7610612 32.4010877,76.0120452 32.8982876,74.6320629 Z" fill="#352715"></path>
                    <path d="M51.2715981,44.5539574 C51.1968364,47.3957463 49.6273311,48.3598689 48.5970731,50.9881135 C47.5890177,52.5345763 40.0187289,60.4369836 38.5436337,60.8546984 L38.0684399,60.6471104 L38.1131397,60.562259 C40.2314216,56.6099813 41.9607657,54.4783467 44.619965,50.9044339 C46.7889395,48.7382338 49.0066417,46.620855 51.2715981,44.5539574 Z" fill="#DAC1A9"></path>
                    <path d="M35.1738541,79.0920819 C36.3003887,77.2241798 35.5841103,71.5066224 38.1147116,67.4052445 L38.9050639,67.522025 C37.3108019,73.956767 37.754362,80.8049276 37.7972935,87.471766 C36.8932758,84.2852012 38.0804253,84.905622 37.1572505,82.4451272 C36.9935803,82.3133098 36.9980011,82.3807808 36.6725272,82.3968918 C36.8232296,83.6415415 36.7516116,84.1362963 36.6148595,85.3893432 L36.0536062,85.3846564 C35.9480949,85.2508861 35.8447449,85.1153582 35.7436544,84.9781704 C34.8554536,83.7706249 33.5849953,81.2635547 33.8129154,79.7890545 L34.5911841,79.7662061 L35.1738541,79.0920819 Z" fill="#4E452F"></path>
                    <path d="M11.7374746,9.05815468 C11.7852199,7.69252591 11.6348123,6.15831727 12.524585,5.19188055 C14.0320016,5.41876279 15.4668178,7.92911382 16.6243967,8.49631942 L17.3835083,7.7432024 C20.239387,7.87443399 23.7957271,9.93039563 26.1192353,11.5170871 C34.5845037,18.6920574 47.2488076,31.2544556 39.1119604,43.0514337 C35.6953196,47.8772217 31.978846,50.6925495 28.4471645,55.9801868 L26.9665678,56.3362892 C27.9336565,50.3134035 21.6556355,35.128131 20.199108,28.3828857 C17.6201719,21.8211107 14.1282782,16.5985033 11.7374746,9.05815468 Z" fill="#DEC7A9"></path>
                    <path d="M16.6243967,8.49631942 L17.3835083,7.7432024 C20.239387,7.87443399 23.7957271,9.93039563 26.1192353,11.5170871 C34.5845037,18.6920574 47.2488076,31.2544556 39.1119604,43.0514337 C36.1178561,41.9888875 38.3275025,41.3607529 34.9953494,40.58137 L32.9762913,40.4164518 L32.6980716,39.9267743 C33.972263,39.0082508 34.5314533,38.6237345 35.6151546,37.4419666 C34.6815662,35.7964943 33.3448932,37.6764064 31.6381447,36.2017109 C32.3389991,35.645246 33.665455,35.092882 34.5159312,34.6975273 L34.753086,33.9926457 C32.8074143,32.768501 32.0388715,33.8377846 30.1317104,32.6411751 C31.3504937,31.9412733 31.6474776,31.7203082 32.6531752,30.7415392 L32.3902811,30.2609426 C29.9288419,30.3618073 27.7237145,31.2624622 25.4048236,32.0701615 C27.4509963,30.5662708 29.0767939,29.4984518 30.6691894,27.482426 L30.5750741,26.7823289 C28.742773,26.5742526 26.3865503,27.7121789 24.6031735,28.4106161 C26.2679729,26.9237153 27.4837107,25.7631359 29.0139194,24.1410978 L28.9688265,23.3904218 L27.1631489,23.2877019 C25.9551721,20.3419236 24.9567444,21.1640739 24.1193344,19.6174159 C24.723028,19.0814559 24.9092938,18.963699 25.1724826,18.1661546 C23.69277,15.5378123 19.9818961,16.227364 20.0445742,11.8450685 C20.0639277,10.4972107 17.8237282,9.26330169 16.6243967,8.49631942 Z" fill="url(#linearGradient-4)"></path>
                    <path d="M20.199108,28.3828857 C23.111279,33.4378407 25.7465073,43.5981344 27.8748099,49.3153989 C28.2423311,49.0402422 28.7516147,48.5052587 29.0975228,48.1672201 C29.9965302,44.7693569 28.6879543,41.7110944 30.3671952,40.0622046 L30.3365439,39.3874945 L28.1267992,38.5745226 L27.818714,37.8549946 C28.5957055,37.102854 29.3615958,36.7686236 30.3137518,36.2798249 L30.1865292,35.7263869 L27.5925622,34.9401691 L27.3611054,34.3514821 C28.4310529,33.2567138 28.6613308,33.0636745 30.1317104,32.6411751 C32.0388715,33.8377846 32.8074143,32.768501 34.753086,33.9926457 L34.5159312,34.6975273 C33.665455,35.092882 32.3389991,35.645246 31.6381447,36.2017109 C33.3448932,37.6764064 34.6815662,35.7964943 35.6151546,37.4419666 C34.5314533,38.6237345 33.972263,39.0082508 32.6980716,39.9267743 L32.9762913,40.4164518 L34.9953494,40.58137 C38.3275025,41.3607529 36.1178561,41.9888875 39.1119604,43.0514337 C35.6953196,47.8772217 31.978846,50.6925495 28.4471645,55.9801868 L26.9665678,56.3362892 C27.9336565,50.3134035 21.6556355,35.128131 20.199108,28.3828857 Z" fill="#AB9676"></path>
                    <path d="M20.199108,28.3828857 C23.111279,33.4378407 25.7465073,43.5981344 27.8748099,49.3153989 C28.2759297,50.6527114 27.9876893,50.2366564 28.9860188,51.1602574 C30.843175,50.3243395 34.199108,43.6808377 35.8132094,41.3086118 L34.9953494,40.58137 C38.3275025,41.3607529 36.1178561,41.9888875 39.1119604,43.0514337 C35.6953196,47.8772217 31.978846,50.6925495 28.4471645,55.9801868 L26.9665678,56.3362892 C27.9336565,50.3134035 21.6556355,35.128131 20.199108,28.3828857 Z" fill="#5A3E27"></path>
                    <path d="M31.8146845,57.4629866 C32.891509,57.010804 42.1500769,49.3485974 43.3953854,47.2696898 C42.8639975,51.2050753 34.6601496,59.0152103 34.6897203,63.0026394 L35.2003793,63.4608759 C37.5363642,61.4620351 37.0454517,59.046163 38.6478679,57.0138309 C40.0889715,55.1860599 42.4886169,51.7538265 44.619965,50.9044339 C41.9607657,54.4783467 40.2314216,56.6099813 38.1131397,60.562259 L38.0684399,60.6471104 L37.7422783,61.0031151 L39.0542927,62.043106 C39.0435844,64.9280529 37.3705327,64.4156248 37.6101435,66.4264755 L39.3379157,66.5043943 C39.1916342,67.1811548 39.3161061,67.0476775 38.9050639,67.522025 L38.1147116,67.4052445 C35.5841103,71.5066224 36.3003887,77.2241798 35.1738541,79.0920819 C34.4817431,77.4702391 33.7503356,76.1723742 32.8982876,74.6320629 L31.4637661,71.1744424 C30.0785618,71.2397653 30.5538539,71.0309079 29.5809689,72.084764 C29.1905575,74.0274602 29.124441,76.9795852 28.6859894,78.2696387 L28.194684,79.51546 C25.726859,77.6723592 25.1199234,70.9163731 24.7357994,67.9043933 C24.0294434,66.7421539 22.2511752,63.8100456 22.4022705,62.6557154 C23.6892333,60.509532 24.9866098,57.4679664 26.9665678,56.3362892 L28.4471645,55.9801868 C27.2248445,57.739608 26.2560857,59.4854569 27.4533541,61.563681 C28.3974543,61.9226151 28.1692395,61.9829582 29.0725695,61.8331745 C29.8621359,60.2941325 30.8495606,58.8999921 31.8146845,57.4629866 Z" fill="#946232"></path>
                    <path d="M26.9665678,56.3362892 L28.4471645,55.9801868 C27.2248445,57.739608 26.2560857,59.4854569 27.4533541,61.563681 C28.3974543,61.9226151 28.1692395,61.9829582 29.0725695,61.8331745 L28.9668617,62.0247492 C28.1107858,63.5593972 27.5191759,63.5595925 27.3433237,65.0013825 C26.7785336,66.5279262 26.3475484,66.983331 24.7357994,67.9043933 C24.0294434,66.7421539 22.2511752,63.8100456 22.4022705,62.6557154 C23.6892333,60.509532 24.9866098,57.4679664 26.9665678,56.3362892 Z" fill="#D0A67B"></path>
                    <path d="M27.3433237,65.0013825 C28.7587863,69.4608156 28.5736012,73.6806339 28.6859894,78.2696387 L28.194684,79.51546 C25.726859,77.6723592 25.1199234,70.9163731 24.7357994,67.9043933 C26.3475484,66.983331 26.7785336,66.5279262 27.3433237,65.0013825 Z" fill="#C09258"></path>
                    <path d="M27.4141558,9.80248388 C33.5343027,15.1536865 39.919505,20.902099 43.9493689,28.0742375 C48.5763442,33.2950873 47.0593981,41.9432884 43.3953854,47.2696898 C42.1500769,49.3485974 32.891509,57.010804 31.8146845,57.4629866 C30.8495606,58.8999921 29.8621359,60.2941325 29.0725695,61.8331745 C28.1692395,61.9829582 28.3974543,61.9226151 27.4533541,61.563681 C26.2560857,59.4854569 27.2248445,57.739608 28.4471645,55.9801868 C31.978846,50.6925495 35.6953196,47.8772217 39.1119604,43.0514337 C47.2488076,31.2544556 34.5845037,18.6920574 26.1192353,11.5170871 L27.4141558,9.80248388 Z" fill="#DEC7A9"></path>
                    <path d="M43.9493689,28.0742375 C48.5763442,33.2950873 47.0593981,41.9432884 43.3953854,47.2696898 C42.1500769,49.3485974 32.891509,57.010804 31.8146845,57.4629866 C38.1892768,45.2287651 44.8000415,47.5272708 43.9493689,28.0742375 Z" fill="#C09258"></path>
                    <path d="M49.4917579,77.3829466 C51.9620389,67.9948103 57.7104403,58.8199252 64.487233,51.8926742 C67.9694008,48.3332125 78.6300706,38.6531249 83.5927369,37.9594722 C81.5557989,40.1302614 79.4433132,42.229674 77.2590131,44.2539018 C73.6889192,46.1612515 65.5369428,52.7604236 63.8217455,56.5885976 C59.9132098,62.5339551 57.6665263,67.0976705 54.939737,73.6901052 C53.932271,76.1257987 52.1617638,81.2078008 51.0879848,83.3254725 C49.3646335,81.9156117 49.6126931,79.4862649 49.4917579,77.3829466 Z" fill="url(#linearGradient-5)"></path>
                    <path d="M68.6584663,34.947004 C68.7416768,34.8783613 68.8252802,34.8102068 68.9092767,34.7425405 C71.438699,32.7111848 72.3359381,31.8109205 75.6564987,32.161262 C58.8641877,46.6616696 49.3168882,58.0624143 46.0537988,80.5923598 C45.2619728,78.6910639 46.3600173,74.7455236 46.4014752,71.957731 L45.9364985,71.6124669 C44.2600083,73.0027016 45.3031359,76.8446432 43.9637121,79.4659553 L43.503844,77.1711599 C46.1778777,60.8204259 52.9539827,50.6712634 64.4945029,38.7825989 L63.8779396,37.3828929 C64.8993558,36.2486769 66.5204378,35.410318 67.8569144,34.6132618 L68.6584663,34.947004 Z" fill="#DEC7A9"></path>
                    <path d="M67.8569144,34.6132618 L68.6584663,34.947004 L64.4945029,38.7825989 L63.8779396,37.3828929 C64.8993558,36.2486769 66.5204378,35.410318 67.8569144,34.6132618 Z" fill="#42372B"></path>
                    <path d="M65.8793142,32.9867321 L67.3335822,33.3814033 C67.4619838,33.6628092 67.8032745,34.3548996 67.8569144,34.6132618 C66.5204378,35.410318 64.8993558,36.2486769 63.8779396,37.3828929 C59.4097224,40.7969648 53.7078875,46.0809893 50.6904017,50.7816972 L48.5970731,50.9881135 C49.6273311,48.3598689 51.1968364,47.3957463 51.2715981,44.5539574 C53.0303163,42.1120147 62.9333481,34.7571869 65.8793142,32.9867321 Z" fill="#DEC7A9"></path>
                    <path d="M11.2690594,2.43844838 C13.3297718,1.12808529 14.2931274,1.12738227 16.7161542,1.02652727 L17.261296,2.55247536 C16.7599699,2.86126017 16.1891871,3.23426449 15.6735178,3.50151217 C20.4864642,5.46393224 23.2879171,6.65108018 27.4141558,9.80248388 L26.1192353,11.5170871 C23.7957271,9.93039563 20.239387,7.87443399 17.3835083,7.7432024 L16.6243967,8.49631942 C15.4668178,7.92911382 14.0320016,5.41876279 12.524585,5.19188055 C11.6348123,6.15831727 11.7852199,7.69252591 11.7374746,9.05815468 C10.8298219,6.33969808 10.6970977,5.20622424 11.2690594,2.43844838 Z" fill="#D0A67B"></path>
                    <path d="M11.2690594,2.43844838 C13.3297718,1.12808529 14.2931274,1.12738227 16.7161542,1.02652727 L17.261296,2.55247536 C16.7599699,2.86126017 16.1891871,3.23426449 15.6735178,3.50151217 L11.2690594,2.43844838 Z" fill="#000000"></path>
                    <path d="M65.8793142,32.9867321 C69.0979985,30.6938896 81.4827073,26.3603178 85.5858592,25.1590214 C83.3262079,26.9036009 78.008104,30.9144642 75.6564987,32.161262 C72.3359381,31.8109205 71.438699,32.7111848 68.9092767,34.7425405 C68.8252802,34.8102068 68.7416768,34.8783613 68.6584663,34.947004 L67.8569144,34.6132618 C67.8032745,34.3548996 67.4619838,33.6628092 67.3335822,33.3814033 L65.8793142,32.9867321 Z" fill="#C09258"></path>
                    <path d="M46.8021038,90.746209 C47.9363995,86.1500763 47.7207595,82.4177873 49.4917579,77.3829466 C49.6126931,79.4862649 49.3646335,81.9156117 51.0879848,83.3254725 C50.3073584,85.1582233 49.3328033,87.2849758 48.6317524,89.1141137 L47.9343364,90.5579542 L46.8021038,90.746209 Z" fill="#C09258"></path>
                    <path d="M79.9590808,32.6449832 C87.777331,25.9938653 95.4994029,24.020021 105.411964,21.8735447 C109.757183,20.9325634 110.530343,19.6386043 115.053379,21.0257144 C114.370601,23.6467335 104.797955,24.6550882 101.936182,25.3303841 C94.7144538,27.0340514 86.5314331,30.2722691 80.6494234,34.8105974 L79.9590808,32.6449832 Z" fill="#946232"></path>
                    <path d="M79.9590808,32.6449832 L80.6494234,34.8105974 C78.946801,36.173004 76.3050887,37.4741887 74.3293551,38.5316575 C76.1185282,36.4135952 77.9956274,34.5945144 79.9590808,32.6449832 Z" fill="#796041"></path>
                    <path d="M85.6242716,38.9080696 C92.0028918,31.5342015 98.1568338,28.5971134 108.015362,25.978926 C108.450572,25.8634148 109.524351,26.1254874 109.978226,26.2907963 L110.707178,27.150246 C102.06979,36.2266097 88.9343204,37.9531254 84.4413465,50.2809862 C83.9236141,51.7015877 83.0181227,54.1548569 83.2393624,55.5874684 C84.1562498,54.6558608 84.2563578,54.2977079 84.7470738,53.0738562 C87.2249194,47.6182737 94.2301235,42.7930715 99.7699582,40.9990849 C105.92282,38.2641169 108.38082,35.1541039 112.444086,30.1073508 L114.024791,31.6742209 L107.152802,40.1675609 L106.279436,45.4140907 C107.72555,44.5253481 108.41324,42.9734173 109.244363,41.4914963 C109.861319,42.9502761 110.046013,43.6086798 111.384061,44.5463413 L111.394868,44.9604433 C110.97243,46.8706246 110.744509,47.6057754 110.988148,49.5538421 L110.397717,50.5606344 C108.786558,50.7843335 108.817012,50.4278406 107.188169,49.4755327 L107.053579,49.9855198 L107.409213,49.9118973 L107.031965,49.7575244 L107.222554,50.7048525 L107.901402,50.3346896 L107.627309,51.3371857 L108.229529,52.1937062 C108.966339,52.8282851 110.458627,54.2050452 111.24947,54.591612 L113.350855,56.0715802 L113.454008,56.8086839 C112.409702,57.4465827 111.776045,57.7606988 110.656092,58.2586758 C111.744607,58.5705461 116.996595,59.7783845 117.497626,59.9608785 C121.918491,61.3523825 131.072628,64.4355438 133.898052,68.0348437 L134.029695,69.4557382 C135.007198,69.9873042 135.49644,70.2817942 136.38749,70.9438107 C135.907089,72.1137638 135.972911,71.7995501 134.689878,72.5956298 C134.957095,73.1411588 135.009163,73.3999115 135.507247,73.7032869 C136.856102,74.0373221 136.954343,73.8418417 137.845393,74.7296078 C136.796174,75.4963948 135.29308,75.7660836 134.0071,76.0958225 L133.969768,76.6626375 C134.433468,76.7995324 135.115263,77.0269419 135.569139,77.1056418 C137.523161,79.0110386 134.807768,81.5557989 139.010536,83.1222784 C142.343868,86.1113123 142.621892,86.7460865 147.271659,87.8707334 C149.801376,88.4823664 152.217133,89.5004853 154.898142,89.8445777 L156.111424,89.4340884 C154.366656,92.2239315 149.358307,91.4164275 147.360076,93.5299983 L145.24985,93.8820973 C133.351829,94.0639078 130.366272,93.3092285 119.227658,89.3705231 C116.975964,88.5743457 114.090613,88.1369071 111.841866,89.3755029 C110.201234,89.6819052 107.09091,89.2485675 105.31274,89.0759355 C108.761997,90.1447309 119.155941,98.5817312 120.829976,101.713128 C121.052001,102.125179 121.228836,102.559689 121.358515,103.009821 C120.361364,105.780917 116.752956,103.633757 114.411862,103.772409 C113.976653,103.797796 112.358616,103.614228 111.991193,103.48827 L107.901402,103.593723 C102.601277,103.493152 98.0861,102.372215 93.3557747,100.028794 C95.0337384,99.2535119 97.0191979,98.1208583 98.6784958,97.2303582 C90.7274232,95.0747035 89.366681,96.0215434 81.6858706,97.9148325 C55.4995167,100.18014 62.4824199,122.0882 54.449021,128.758163 C52.4919532,128.555066 52.5420564,128.262139 50.9724529,129.01301 C50.4391001,130.138828 50.3790746,130.350713 50.1796445,131.580033 C49.4270168,127.697765 49.5624918,126.492855 50.2659005,122.696513 C48.8502413,121.659549 49.4988313,121.879245 47.5181857,122.027661 L47.1580325,122.190725 C45.5038432,120.447805 42.3907685,122.737523 40.2566697,121.54726 L40.0503626,120.396054 L40.786977,120.934065 L41.6076859,120.73585 C43.1283652,118.88943 44.7952277,114.943694 45.7001296,112.688151 L45.6004145,112.548522 C45.7245917,110.311531 49.3276947,109.316554 46.6950206,106.152935 C44.9654801,104.074125 45.251068,102.370262 45.749938,99.9057642 C46.1479141,98.5670848 46.0849413,92.7377266 46.1011511,90.982797 L46.8021038,90.746209 L47.9343364,90.5579542 L48.6317524,89.1141137 C49.3328033,87.2849758 50.3073584,85.1582233 51.0879848,83.3254725 C52.1617638,81.2078008 53.932271,76.1257987 54.939737,73.6901052 C57.6665263,67.0976705 59.9132098,62.5339551 63.8217455,56.5885976 C65.5369428,52.7604236 73.6889192,46.1612515 77.2590131,44.2539018 C79.4433132,42.229674 81.5557989,40.1302614 83.5927369,37.9594722 L85.6242716,38.9080696 Z" fill="#A66A36"></path>
                    <path d="M51.8647799,89.8432107 C54.7891328,84.2759251 59.917336,77.4253235 65.2134337,73.9641879 C61.96567,81.2179556 55.9707809,93.4024771 65.8754828,98.3073556 C66.8076958,97.4090441 66.4010745,95.4845093 67.0577203,93.6143615 C70.7710502,86.9917552 72.0183235,80.7471232 78.0254928,76.6231899 L79.2806254,75.6511583 C80.1726577,77.9075801 78.3605943,79.6111497 79.5903807,81.5002402 L81.3346574,81.0672932 C82.2514465,81.884659 82.8708588,82.7912701 83.5990244,83.7692579 C82.1408267,84.9891064 79.8979746,86.6097775 79.1549746,88.2508559 L79.202327,88.9106267 C79.6650442,88.7528363 80.5319266,88.4333499 80.9684133,88.3683199 C83.7567019,87.9524603 84.2171595,84.9650863 86.7896116,84.4760924 L86.9886487,84.6253879 C90.4665922,87.1990503 100.949838,88.8835797 105.31274,89.0759355 C108.761997,90.1447309 119.155941,98.5817312 120.829976,101.713128 C121.052001,102.125179 121.228836,102.559689 121.358515,103.009821 C120.361364,105.780917 116.752956,103.633757 114.411862,103.772409 C113.976653,103.797796 112.358616,103.614228 111.991193,103.48827 L107.901402,103.593723 C102.601277,103.493152 98.0861,102.372215 93.3557747,100.028794 C95.0337384,99.2535119 97.0191979,98.1208583 98.6784958,97.2303582 C90.7274232,95.0747035 89.366681,96.0215434 81.6858706,97.9148325 C55.4995167,100.18014 62.4824199,122.0882 54.449021,128.758163 C52.4919532,128.555066 52.5420564,128.262139 50.9724529,129.01301 C50.4391001,130.138828 50.3790746,130.350713 50.1796445,131.580033 C49.4270168,127.697765 49.5624918,126.492855 50.2659005,122.696513 C48.8502413,121.659549 49.4988313,121.879245 47.5181857,122.027661 L47.1580325,122.190725 C45.5038432,120.447805 42.3907685,122.737523 40.2566697,121.54726 L40.0503626,120.396054 L40.786977,120.934065 L41.6076859,120.73585 C43.1283652,118.88943 44.7952277,114.943694 45.7001296,112.688151 L45.6004145,112.548522 C45.7245917,110.311531 49.3276947,109.316554 46.6950206,106.152935 C44.9654801,104.074125 45.251068,102.370262 45.749938,99.9057642 C46.1479141,98.5670848 46.0849413,92.7377266 46.1011511,90.982797 L46.8021038,90.746209 L47.9343364,90.5579542 L48.6317524,89.1141137 C49.8080954,90.1748048 50.1653012,90.0276575 51.8647799,89.8432107 Z" fill="#E6DDCC"></path>
                    <path d="M78.0254928,76.6231899 L79.2806254,75.6511583 C80.1726577,77.9075801 78.3605943,79.6111497 79.5903807,81.5002402 L81.3346574,81.0672932 C82.2514465,81.884659 82.8708588,82.7912701 83.5990244,83.7692579 C82.1408267,84.9891064 79.8979746,86.6097775 79.1549746,88.2508559 L79.202327,88.9106267 C79.6650442,88.7528363 80.5319266,88.4333499 80.9684133,88.3683199 C83.7567019,87.9524603 84.2171595,84.9650863 86.7896116,84.4760924 L86.9886487,84.6253879 C90.4665922,87.1990503 100.949838,88.8835797 105.31274,89.0759355 C108.761997,90.1447309 119.155941,98.5817312 120.829976,101.713128 C121.052001,102.125179 121.228836,102.559689 121.358515,103.009821 C120.361364,105.780917 116.752956,103.633757 114.411862,103.772409 C113.976653,103.797796 112.358616,103.614228 111.991193,103.48827 C112.844911,102.823324 116.729378,103.788032 118.574352,102.641709 L118.694207,101.884002 C117.794315,100.643942 117.516292,100.469162 116.184138,99.6929034 C114.180013,99.0220991 110.996008,96.8749393 108.895606,96.3925851 C104.124019,95.2979144 83.0808008,92.3634627 79.3470366,93.0976371 C75.4272032,93.0557484 70.9494566,93.0401256 67.0577203,93.6143615 C70.7710502,86.9917552 72.0183235,80.7471232 78.0254928,76.6231899 Z" fill="#C18246"></path>
                    <path d="M81.0682266,91.7607152 C82.6159223,90.1155358 84.0648853,89.441021 86.3678611,89.5370036 C93.8872608,89.8505339 113.822414,90.9837734 116.184138,99.6929034 C114.180013,99.0220991 110.996008,96.8749393 108.895606,96.3925851 C104.124019,95.2979144 83.0808008,92.3634627 79.3470366,93.0976371 C79.8246865,92.784888 80.5917557,92.1392754 81.0682266,91.7607152 Z" fill="#DAC1A9"></path>
                    <path d="M78.0254928,76.6231899 C79.1550728,79.0564424 77.4260235,81.8787028 76.3700263,84.3116623 C75.2607822,86.22448 75.0866001,85.8387919 75.3089205,87.7242696 L76.7626973,89.0965381 C75.8774437,90.2623902 75.3722862,90.4535743 75.5220062,91.6342681 C77.6091456,91.2696708 79.0870898,90.140337 80.4395797,90.7345896 L81.0682266,91.7607152 C80.5917557,92.1392754 79.8246865,92.784888 79.3470366,93.0976371 C75.4272032,93.0557484 70.9494566,93.0401256 67.0577203,93.6143615 C70.7710502,86.9917552 72.0183235,80.7471232 78.0254928,76.6231899 Z" fill="#DEC7A9"></path>
                    <path d="M76.3700263,84.3116623 L77.3291575,84.6189434 C78.3348551,83.3650178 78.1072297,83.1992207 79.4107953,83.0337166 C80.1558584,85.1890783 78.6657322,88.087207 76.7626973,89.0965381 L75.3089205,87.7242696 C75.0866001,85.8387919 75.2607822,86.22448 76.3700263,84.3116623 Z" fill="#D0A67B"></path>
                    <path d="M47.9343364,90.5579542 L48.6317524,89.1141137 C49.8080954,90.1748048 50.1653012,90.0276575 51.8647799,89.8432107 L51.3807443,91.3959226 C50.9410156,97.2342639 51.4852732,101.96114 52.2640331,107.757202 L51.2402591,107.457439 C51.3916491,112.480172 51.602377,117.814385 50.2659005,122.696513 C48.8502413,121.659549 49.4988313,121.879245 47.5181857,122.027661 L47.1580325,122.190725 C45.5038432,120.447805 42.3907685,122.737523 40.2566697,121.54726 L40.0503626,120.396054 L40.786977,120.934065 L41.6076859,120.73585 C43.1283652,118.88943 44.7952277,114.943694 45.7001296,112.688151 L45.6004145,112.548522 C45.7245917,110.311531 49.3276947,109.316554 46.6950206,106.152935 C44.9654801,104.074125 45.251068,102.370262 45.749938,99.9057642 C46.1479141,98.5670848 46.0849413,92.7377266 46.1011511,90.982797 L46.8021038,90.746209 L47.9343364,90.5579542 Z" fill="#A66A36"></path>
                    <path d="M47.9343364,90.5579542 L48.6317524,89.1141137 C49.8080954,90.1748048 50.1653012,90.0276575 51.8647799,89.8432107 L51.3807443,91.3959226 C50.9410156,97.2342639 51.4852732,101.96114 52.2640331,107.757202 L51.2402591,107.457439 L50.8246978,101.012054 C50.2191375,102.67686 49.5849891,105.073008 48.2468424,106.104114 L47.3638484,105.899064 C46.3011707,104.236212 46.0751172,101.883026 45.749938,99.9057642 C46.1479141,98.5670848 46.0849413,92.7377266 46.1011511,90.982797 L46.8021038,90.746209 L47.9343364,90.5579542 Z" fill="#7D562D"></path>
                    <path d="M47.9343364,90.5579542 L48.6317524,89.1141137 C49.8080954,90.1748048 50.1653012,90.0276575 51.8647799,89.8432107 L51.3807443,91.3959226 C49.0242269,93.5034395 48.449711,96.0371662 47.0962387,98.8805174 L47.2609896,98.767252 L46.6202589,98.9693721 C46.3109949,95.830164 46.7852063,93.4409483 47.9343364,90.5579542 Z" fill="#5A3E27"></path>
                    <path d="M45.7001296,112.688151 L46.6826422,112.325897 C47.8813843,114.194776 47.5574822,119.633466 47.5181857,122.027661 L47.1580325,122.190725 C45.5038432,120.447805 42.3907685,122.737523 40.2566697,121.54726 L40.0503626,120.396054 L40.786977,120.934065 L41.6076859,120.73585 C43.1283652,118.88943 44.7952277,114.943694 45.7001296,112.688151 Z" fill="#D0A67B"></path>
                    <path d="M52.2640331,107.757202 C52.9296189,113.439022 51.6851945,125.669729 54.449021,128.758163 C52.4919532,128.555066 52.5420564,128.262139 50.9724529,129.01301 C50.4391001,130.138828 50.3790746,130.350713 50.1796445,131.580033 C49.4270168,127.697765 49.5624918,126.492855 50.2659005,122.696513 C51.602377,117.814385 51.3916491,112.480172 51.2402591,107.457439 L52.2640331,107.757202 Z" fill="#5A3E27"></path>
                    <path d="M63.8217455,56.5885976 C64.4462663,58.9682443 61.5675957,66.8233925 61.2274838,71.0257328 C63.6442232,70.0363208 70.5681816,66.168211 71.5802649,65.8285125 L74.0680329,66.5201147 C72.1111616,69.5007514 68.6293868,74.161914 68.3032252,77.6416994 C68.4999046,77.9618693 68.8172244,78.6276939 69.0547722,78.5961554 C77.5306506,77.4704344 79.7946246,70.6461962 90.8838236,72.474846 L91.0732331,72.9982101 L91.5670928,72.608128 L91.8123034,72.9092577 C87.6377299,73.3566559 82.6840036,73.3199423 79.2806254,75.6511583 L78.0254928,76.6231899 C72.0183235,80.7471232 70.7710502,86.9917552 67.0577203,93.6143615 C66.4010745,95.4845093 66.8076958,97.4090441 65.8754828,98.3073556 C55.9707809,93.4024771 61.96567,81.2179556 65.2134337,73.9641879 C59.917336,77.4253235 54.7891328,84.2759251 51.8647799,89.8432107 C50.1653012,90.0276575 49.8080954,90.1748048 48.6317524,89.1141137 C49.3328033,87.2849758 50.3073584,85.1582233 51.0879848,83.3254725 C52.1617638,81.2078008 53.932271,76.1257987 54.939737,73.6901052 C57.6665263,67.0976705 59.9132098,62.5339551 63.8217455,56.5885976 Z" fill="#242525"></path>
                    <path d="M112.444086,30.1073508 L114.024791,31.6742209 L107.152802,40.1675609 C104.020865,43.6497873 100.224816,46.7639013 96.5938125,49.7246189 C95.2213796,50.843212 94.4177646,51.5427233 92.9294068,50.4664094 L92.6061925,49.1228478 C94.745891,46.3801661 97.9456147,44.1474714 99.7699582,40.9990849 C105.92282,38.2641169 108.38082,35.1541039 112.444086,30.1073508 Z" fill="#DEC7A9"></path>
                    <path d="M92.6061925,49.1228478 L92.9294068,50.4664094 C94.4177646,51.5427233 95.2213796,50.843212 96.5938125,49.7246189 C100.224816,46.7639013 104.020865,43.6497873 107.152802,40.1675609 L106.279436,45.4140907 C104.724274,46.5513335 101.70335,49.5664379 100.349583,51.071305 C99.4477263,51.9351487 95.1673468,56.4293426 94.620142,57.3786235 C93.5139434,58.3261468 93.8361753,58.3397191 92.600298,58.4637252 C91.3256153,57.4974545 91.0066254,55.4338767 90.5742648,53.8207241 C91.2549797,51.888085 91.6569837,50.9386088 92.6061925,49.1228478 Z" fill="#D0A67B"></path>
                    <path d="M83.5927369,37.9594722 L85.6242716,38.9080696 C79.1655847,45.3426163 78.5044198,46.9738328 74.5522649,55.2044167 C75.3609885,51.1425841 75.9221436,48.1550148 77.2590131,44.2539018 C79.4433132,42.229674 81.5557989,40.1302614 83.5927369,37.9594722 Z" fill="#352715"></path>
                    <path d="M32.1964508,105.874654 L32.9458365,105.144287 C34.746995,106.337479 34.5023738,110.253922 35.4687749,111.160045 L36.5331226,111.056544 C38.2732733,113.04357 39.3386034,117.719672 40.0503626,120.396054 L40.2566697,121.54726 C42.3907685,122.737523 45.5038432,120.447805 47.1580325,122.190725 L47.5181857,122.027661 C49.4988313,121.879245 48.8502413,121.659549 50.2659005,122.696513 C49.5624918,126.492855 49.4270168,127.697765 50.1796445,131.580033 C54.4623818,143.822456 55.8017073,137.608484 63.5188671,140.16086 L64.6242798,141.559102 C59.1204996,145.348609 53.7636887,137.806698 48.3210147,143.864442 C47.3357513,145.917865 46.0277648,148.839331 44.6460972,150.588109 C40.8157617,155.437038 32.4445104,158.509849 35.1065587,165.852569 C37.010576,171.104762 42.8376688,173.975454 47.5815514,176.209515 C50.1119561,177.387084 52.6498272,178.549031 55.1951647,179.694378 C63.887076,182.423487 69.795218,180.302691 77.8906073,176.48682 C78.2150988,176.333521 81.4582452,175.540664 81.6961859,175.660764 C100.374143,185.102799 119.825948,199.187738 125.900216,220.24826 C126.17824,221.212969 126.497524,222.296801 126.928804,223.207806 C112.888138,228.370168 97.3836737,233.499331 82.2208934,232.440886 L81.4803495,232.242672 L81.0995657,231.512305 C82.1834635,230.92645 85.9847195,230.612041 87.7609247,230.269316 C96.7686823,228.527373 107.178345,226.234725 115.0131,221.263743 C89.1594898,227.078357 73.5862569,229.124945 47.0580228,227.174047 L47.6104344,225.103048 C58.5524676,225.35106 78.5586491,223.622787 89.1625353,221.303776 C94.8048359,221.31647 107.734392,216.06623 112.920557,213.942504 C108.843538,214.393613 104.068021,215.690306 99.9605466,216.518315 C94.8323435,217.551373 90.1950528,218.199719 85.0313845,218.864665 C73.4136467,219.969003 61.7248802,220.134018 50.0802242,219.358737 C48.5955013,219.051163 47.414148,218.761164 45.9564415,218.345207 L45.9685252,217.940967 C47.3267131,217.623628 48.6822485,217.295549 50.0351313,216.955753 C50.7960113,216.656967 73.7873571,213.49823 76.1649964,213.210185 C68.297036,212.127329 62.9342323,212.431974 54.964592,212.606754 C52.9511337,212.423186 50.8042636,212.389987 49.0936836,211.329589 C49.8111409,211.300297 50.5266333,211.234876 51.2373118,211.132351 C54.0850364,210.718347 66.8856995,207.449274 68.6114086,205.132216 C68.1005531,204.541479 67.5155254,204.364746 66.6789995,204.425284 C60.0949565,204.922285 53.7321532,206.350795 47.242029,204.160673 C36.8235243,200.645541 35.7859965,188.16194 28.69434,181.245918 C25.5364671,178.166272 22.5080765,174.51444 20.6150622,170.605809 C21.2865425,169.629383 20.4508025,168.691038 20.0289538,167.488082 C18.2128625,162.310097 16.2744607,156.33535 18.3384151,150.980632 L18.9846473,152.973516 C20.2330995,143.168251 26.6798992,134.329647 31.3659177,125.409023 L30.4387149,124.252935 C28.6160415,123.358529 28.1844669,123.054861 26.6383431,121.741569 C27.4728059,120.783695 27.3726979,119.457709 27.4413686,118.162969 C28.650426,116.845771 29.2424289,114.306088 29.79543,112.522159 C30.0398547,111.128799 30.5025719,109.713959 30.9075231,108.351845 C30.992109,109.104669 31.3358558,109.74911 31.6468882,110.444325 C32.3160106,109.288237 32.1739535,107.281683 32.1964508,105.874654 Z" fill="#242525"></path>
                    <path d="M32.1964508,105.874654 L32.9458365,105.144287 C34.746995,106.337479 34.5023738,110.253922 35.4687749,111.160045 L36.5331226,111.056544 C38.2732733,113.04357 39.3386034,117.719672 40.0503626,120.396054 L40.2566697,121.54726 C42.3907685,122.737523 45.5038432,120.447805 47.1580325,122.190725 L47.5181857,122.027661 C49.4988313,121.879245 48.8502413,121.659549 50.2659005,122.696513 C49.5624918,126.492855 49.4270168,127.697765 50.1796445,131.580033 C54.4623818,143.822456 55.8017073,137.608484 63.5188671,140.16086 L64.6242798,141.559102 C59.1204996,145.348609 53.7636887,137.806698 48.3210147,143.864442 L47.7099529,143.28054 C43.2677698,145.025412 36.2007718,144.115384 30.6912937,144.309692 C27.8225454,144.286258 26.6772467,143.718955 24.074438,144.75006 C21.543935,147.628563 25.3446998,150.07158 25.9444638,152.463822 C27.0670687,154.669568 27.6369673,155.741683 29.4364558,157.483626 L31.3896921,160.121928 C32.8551596,164.810723 34.4286928,169.886183 34.4404817,174.85326 C27.3573722,180.839725 22.3804609,169.459485 20.5202592,164.047159 C19.0908463,159.887586 18.9645078,157.290294 18.9846473,152.973516 C20.2330995,143.168251 26.6798992,134.329647 31.3659177,125.409023 L30.4387149,124.252935 C28.6160415,123.358529 28.1844669,123.054861 26.6383431,121.741569 C27.4728059,120.783695 27.3726979,119.457709 27.4413686,118.162969 C28.650426,116.845771 29.2424289,114.306088 29.79543,112.522159 C30.0398547,111.128799 30.5025719,109.713959 30.9075231,108.351845 C30.992109,109.104669 31.3358558,109.74911 31.6468882,110.444325 C32.3160106,109.288237 32.1739535,107.281683 32.1964508,105.874654 Z" fill="#E6DDCC"></path>
                    <path d="M47.5181857,122.027661 C49.4988313,121.879245 48.8502413,121.659549 50.2659005,122.696513 C49.5624918,126.492855 49.4270168,127.697765 50.1796445,131.580033 C54.4623818,143.822456 55.8017073,137.608484 63.5188671,140.16086 L64.6242798,141.559102 C59.1204996,145.348609 53.7636887,137.806698 48.3210147,143.864442 L47.7099529,143.28054 C43.2677698,145.025412 36.2007718,144.115384 30.6912937,144.309692 C37.7660527,142.382228 45.4261342,128.928061 47.1580325,122.190725 L47.5181857,122.027661 Z" fill="#A66A36"></path>
                    <path d="M32.1964508,105.874654 L32.9458365,105.144287 C34.746995,106.337479 34.5023738,110.253922 35.4687749,111.160045 C35.1905551,113.618685 34.4822343,118.053609 33.3687659,120.244708 C32.7894361,121.773791 32.0303245,123.976607 31.3659177,125.409023 L30.4387149,124.252935 C28.6160415,123.358529 28.1844669,123.054861 26.6383431,121.741569 C27.4728059,120.783695 27.3726979,119.457709 27.4413686,118.162969 C28.650426,116.845771 29.2424289,114.306088 29.79543,112.522159 C30.0398547,111.128799 30.5025719,109.713959 30.9075231,108.351845 C30.992109,109.104669 31.3358558,109.74911 31.6468882,110.444325 C32.3160106,109.288237 32.1739535,107.281683 32.1964508,105.874654 Z" fill="#A66A36"></path>
                    <path d="M32.1964508,105.874654 L32.9458365,105.144287 C34.746995,106.337479 34.5023738,110.253922 35.4687749,111.160045 C35.1905551,113.618685 34.4822343,118.053609 33.3687659,120.244708 L32.3660155,119.040776 C31.8857131,117.510717 31.3008818,114.580464 30.8875801,112.8932 L29.79543,112.522159 C30.0398547,111.128799 30.5025719,109.713959 30.9075231,108.351845 C30.992109,109.104669 31.3358558,109.74911 31.6468882,110.444325 C32.3160106,109.288237 32.1739535,107.281683 32.1964508,105.874654 Z" fill="#4E452F"></path>
                    <path d="M32.3660155,119.040776 L33.3687659,120.244708 C32.7894361,121.773791 32.0303245,123.976607 31.3659177,125.409023 L30.4387149,124.252935 C30.9580192,122.512945 31.6966966,120.739756 32.3660155,119.040776 Z" fill="#5A3E27"></path>
                    <path d="M31.3896921,160.121928 C32.8551596,164.810723 34.4286928,169.886183 34.4404817,174.85326 L30.5870595,170.173252 C30.3470557,166.306607 30.7466036,163.854803 31.3896921,160.121928 Z" fill="#A66A36"></path>
                    <path d="M27.0045872,149.454479 C29.1340686,148.357953 30.1688457,148.309132 32.5233,148.253475 C29.3882192,152.45894 31.9401389,153.459776 31.6626068,157.746284 L31.0512503,157.944499 L30.1296474,157.302011 L29.4364558,157.483626 C27.6369673,155.741683 27.0670687,154.669568 25.9444638,152.463822 L27.5860783,150.106731 L27.0045872,149.454479 Z" fill="#946232"></path>
                    <path d="M25.9444638,152.463822 L27.5860783,150.106731 C28.2298544,152.124026 29.2022482,155.521987 30.1296474,157.302011 L29.4364558,157.483626 C27.6369673,155.741683 27.0670687,154.669568 25.9444638,152.463822 Z" fill="#000000"></path>
                    <path d="M27.0045872,149.454479 C25.5918753,148.244687 25.2166912,148.325731 24.7952355,146.733181 L25.4952057,146.055541 C28.1987119,145.746014 34.8382613,146.11608 37.1217853,147.601223 C36.044568,148.450713 33.9946621,148.241758 32.5233,148.253475 C30.1688457,148.309132 29.1340686,148.357953 27.0045872,149.454479 Z" fill="#DEC7A9"></path>
                    <path d="M40.8669455,176.905707 C43.6216354,177.129308 48.1419206,180.875853 50.4038315,182.00753 C62.1470237,187.884635 74.4883098,186.088012 85.8466902,180.347607 C86.6496175,179.94239 87.6324249,180.638581 88.3462472,181.094572 C89.8650598,184.861622 87.1610625,185.128186 87.8502262,187.963726 C84.6159215,189.343415 83.0436655,190.376473 79.5057948,190.193882 C68.2226672,190.857851 50.8150701,205.071678 43.2549002,196.478157 C38.8876752,191.507174 33.6395193,183.404795 38.6773403,177.398801 L40.8669455,176.905707 Z" fill="#A66A36"></path>
                    <path d="M38.6773403,177.398801 C39.9493704,179.325289 40.5170095,180.25387 41.4676919,182.34635 C42.8733304,182.35709 48.7246888,185.102799 49.4366445,186.011851 C54.0294318,189.429341 65.2564635,186.361412 68.7152498,189.650013 C67.4290729,193.268646 63.5406767,192.397674 60.8232203,193.365312 C57.154099,194.671769 53.4441093,196.465463 49.8853131,198.084377 C47.4335015,197.188995 45.913903,196.508426 43.2549002,196.478157 C38.8876752,191.507174 33.6395193,183.404795 38.6773403,177.398801 Z" fill="#DEC7A9"></path>
                    <path d="M41.4676919,182.34635 C42.8733304,182.35709 48.7246888,185.102799 49.4366445,186.011851 C48.8479818,187.746959 49.0495732,187.171845 49.7221341,189.194999 C47.0522265,190.064994 42.5491337,184.678054 41.4676919,182.34635 Z" fill="#946232"></path>
                    <path d="M40.8669455,176.905707 C43.6216354,177.129308 48.1419206,180.875853 50.4038315,182.00753 C62.1470237,187.884635 74.4883098,186.088012 85.8466902,180.347607 C86.6496175,179.94239 87.6324249,180.638581 88.3462472,181.094572 C89.8650598,184.861622 87.1610625,185.128186 87.8502262,187.963726 C87.364717,187.090801 86.4934136,186.269628 85.7887278,185.536332 C75.8557323,185.320542 69.3478264,188.480255 58.5933361,186.242288 C53.197425,185.119398 43.8221462,181.139488 40.8669455,176.905707 Z" fill="#42372B"></path>
                    <path d="M85.7887278,185.536332 C86.4934136,186.269628 87.364717,187.090801 87.8502262,187.963726 C84.6159215,189.343415 83.0436655,190.376473 79.5057948,190.193882 C81.4261202,189.020218 81.6994279,188.498807 82.911236,186.670938 C84.3700232,186.529357 84.6162162,186.414139 85.7887278,185.536332 Z" fill="#42372B"></path>
                    <path d="M48.3210147,143.864442 C53.7636887,137.806698 59.1204996,145.348609 64.6242798,141.559102 C67.8963092,143.820503 70.0778586,145.235344 73.8611364,146.703888 C76.855339,147.49284 78.7345012,147.985935 81.8299908,148.390175 L82.3366219,148.040614 L85.3208038,148.190984 C87.0473971,148.646975 87.6432314,149.86946 88.6445082,151.344839 L88.7260486,151.946317 C87.3972349,152.168942 85.4984243,152.345675 84.4353537,153.066277 L84.3210007,153.449036 L87.5115879,154.136439 L87.9356962,154.042702 C90.7510011,154.801385 91.0877728,154.75354 93.0315779,156.97979 C93.4569633,156.986625 94.7154362,156.581409 95.2027137,156.438851 C95.1987841,158.055811 95.113314,158.819376 95.8206524,160.309402 C97.8237953,161.725219 116.756886,163.663423 122.800699,166.39058 L121.180698,167.731212 C126.279428,169.796352 131.960731,171.96304 136.921923,174.237136 L136.480819,175.463526 C130.396727,174.135587 129.574446,174.878647 123.548316,175.655882 L123.029601,177.425165 C128.342498,179.140745 131.487207,180.84656 136.312826,183.66843 L138.499681,182.279953 C139.887832,183.647925 141.777015,185.702324 143.452032,186.553767 L142.541334,186.7305 C142.223031,188.864967 143.67111,189.562135 145.298971,190.884215 C147.302114,189.647084 152.004932,186.850601 154.291992,188.536888 C153.746752,190.162636 153.99825,189.638296 152.406739,190.792431 C150.16094,193.577196 137.890584,201.867049 133.766408,203.081723 C133.307621,203.217446 132.609124,202.730209 132.094339,202.466575 L130.030286,202.337686 C131.483277,204.566866 133.114085,206.954226 134.394171,209.267379 C135.672292,211.619588 137.087951,214.392636 138.424035,216.668684 C137.100723,217.430296 131.966625,220.294152 131.202307,220.981556 L134.139726,221.360409 C132.647438,222.485251 129.594094,224.462513 127.799223,224.809144 L126.928804,223.207806 C126.497524,222.296801 126.17824,221.212969 125.900216,220.24826 C119.825948,199.187738 100.374143,185.102799 81.6961859,175.660764 C81.4582452,175.540664 78.2150988,176.333521 77.8906073,176.48682 C69.795218,180.302691 63.887076,182.423487 55.1951647,179.694378 C52.6498272,178.549031 50.1119561,177.387084 47.5815514,176.209515 C42.8376688,173.975454 37.010576,171.104762 35.1065587,165.852569 C32.4445104,158.509849 40.8157617,155.437038 44.6460972,150.588109 C46.0277648,148.839331 47.3357513,145.917865 48.3210147,143.864442 Z" fill="#7D562D"></path>
                    <path d="M48.3210147,143.864442 C53.7636887,137.806698 59.1204996,145.348609 64.6242798,141.559102 C67.8963092,143.820503 70.0778586,145.235344 73.8611364,146.703888 C76.855339,147.49284 78.7345012,147.985935 81.8299908,148.390175 L82.3366219,148.040614 L85.3208038,148.190984 C87.0473971,148.646975 87.6432314,149.86946 88.6445082,151.344839 L88.7260486,151.946317 C87.3972349,152.168942 85.4984243,152.345675 84.4353537,153.066277 L84.3210007,153.449036 L87.5115879,154.136439 L87.9356962,154.042702 C90.7510011,154.801385 91.0877728,154.75354 93.0315779,156.97979 C91.5338872,157.162382 86.79305,157.529518 85.8502269,158.267696 L85.686262,158.739309 L90.6735869,159.947148 C91.1686255,160.036979 92.8400071,160.304519 93.1995708,160.460747 L93.3567571,161.669562 C91.0032852,162.833462 88.078441,162.249559 86.9254795,163.618508 C87.1891595,163.884095 87.6473576,164.38012 87.9285246,164.57931 L90.1904355,165.200317 L90.0456276,166.447213 C90.368449,169.297399 88.7778218,168.588514 87.0975003,170.11369 L88.7165192,172.220817 C87.3702185,172.275497 80.8304824,172.21984 80.383975,172.387786 C69.9798136,176.307158 67.040528,180.520434 55.1951647,179.694378 C52.6498272,178.549031 50.1119561,177.387084 47.5815514,176.209515 C42.8376688,173.975454 37.010576,171.104762 35.1065587,165.852569 C32.4445104,158.509849 40.8157617,155.437038 44.6460972,150.588109 C46.0277648,148.839331 47.3357513,145.917865 48.3210147,143.864442 Z" fill="#E6DDCC"></path>
                    <path d="M82.3366219,148.040614 L85.3208038,148.190984 C87.0473971,148.646975 87.6432314,149.86946 88.6445082,151.344839 L88.7260486,151.946317 C87.3972349,152.168942 85.4984243,152.345675 84.4353537,153.066277 L84.3210007,153.449036 C81.8823534,153.305501 78.174525,151.886755 75.7547401,151.079251 C77.7051274,150.828309 81.2338617,150.633024 82.4334879,149.231854 L81.8299908,148.390175 L82.3366219,148.040614 Z" fill="#C18246"></path>
                    <path d="M87.5115879,154.136439 L87.9356962,154.042702 C90.7510011,154.801385 91.0877728,154.75354 93.0315779,156.97979 C91.5338872,157.162382 86.79305,157.529518 85.8502269,158.267696 L85.686262,158.739309 C82.903082,158.485439 81.3058727,157.903489 78.7016886,156.903629 C81.7036523,155.624512 86.015862,156.340232 87.5115879,154.136439 Z" fill="#C18246"></path>
                    <path d="M90.6735869,159.947148 C91.1686255,160.036979 92.8400071,160.304519 93.1995708,160.460747 L93.3567571,161.669562 C91.0032852,162.833462 88.078441,162.249559 86.9254795,163.618508 C87.1891595,163.884095 87.6473576,164.38012 87.9285246,164.57931 L77.9383526,162.08552 C82.4084364,160.871823 88.4776942,162.170469 90.6735869,159.947148 Z" fill="#C09258"></path>
                    <path d="M80.7233992,166.935425 C83.7813605,166.548761 86.9587833,166.530209 90.0456276,166.447213 C90.368449,169.297399 88.7778218,168.588514 87.0975003,170.11369 C86.3189368,170.077563 81.7491381,167.486129 80.7233992,166.935425 Z" fill="#C18246"></path>
                    <path d="M95.7017802,174.166833 L95.2361158,173.26071 C96.2126357,171.834152 96.4680635,172.50398 97.5595258,171.732604 C98.7541418,170.887996 97.5958752,169.823692 98.5026437,169.568845 L98.9113281,169.454603 C104.51109,170.587257 117.692144,175.131541 123.029601,177.425165 C128.342498,179.140745 131.487207,180.84656 136.312826,183.66843 L138.499681,182.279953 C139.887832,183.647925 141.777015,185.702324 143.452032,186.553767 L142.541334,186.7305 C142.223031,188.864967 143.67111,189.562135 145.298971,190.884215 C147.302114,189.647084 152.004932,186.850601 154.291992,188.536888 C153.746752,190.162636 153.99825,189.638296 152.406739,190.792431 C150.16094,193.577196 137.890584,201.867049 133.766408,203.081723 C133.307621,203.217446 132.609124,202.730209 132.094339,202.466575 L130.030286,202.337686 L126.136978,197.257344 C119.141205,188.456821 105.34909,181.030128 95.5318225,175.789652 C95.2420103,175.109084 95.4100032,175.352214 94.6555089,174.8806 C93.8911905,175.752548 93.5994134,176.218303 92.5059862,176.559076 L91.4853559,175.900965 L91.5977441,175.291675 C93.2575332,174.329896 93.7978611,173.903198 95.7017802,174.166833 Z" fill="#242525"></path>
                    <path d="M95.5318225,175.789652 C95.2420103,175.109084 95.4100032,175.352214 94.6555089,174.8806 C93.8911905,175.752548 93.5994134,176.218303 92.5059862,176.559076 L91.4853559,175.900965 L91.5977441,175.291675 C93.2575332,174.329896 93.7978611,173.903198 95.7017802,174.166833 C104.910933,177.069746 120.9459,187.948103 127.003468,195.833716 L126.136978,197.257344 C119.141205,188.456821 105.34909,181.030128 95.5318225,175.789652 Z" fill="#946232"></path>
                    <path d="M141.853644,187.397399 L142.541334,186.7305 C142.223031,188.864967 143.67111,189.562135 145.298971,190.884215 C147.302114,189.647084 152.004932,186.850601 154.291992,188.536888 C153.746752,190.162636 153.99825,189.638296 152.406739,190.792431 C148.301229,189.479138 139.936953,193.714872 135.797059,194.855337 C133.721217,195.427523 131.514715,195.742908 129.383858,196.067082 C133.444176,192.922015 137.846375,190.461422 141.853644,187.397399 Z" fill="#946232"></path>
                    <path d="M136.312826,183.66843 L138.499681,182.279953 C139.887832,183.647925 141.777015,185.702324 143.452032,186.553767 L142.541334,186.7305 L141.853644,187.397399 L136.312826,183.66843 Z" fill="#7D562D"></path>
                    <path d="M126.136978,197.257344 L127.003468,195.833716 C128.801286,198.066801 130.454689,200.106554 132.094339,202.466575 L130.030286,202.337686 L126.136978,197.257344 Z" fill="#A66A36"></path>
                    <path d="M131.202307,220.981556 C130.49988,220.703275 130.167824,221.050882 129.261056,221.415089 C128.494773,221.297918 127.95641,221.211992 127.769751,220.349809 C124.151519,203.627545 111.332976,192.299055 97.827725,182.812105 C95.2194148,180.98033 91.2100834,179.34677 88.5571716,177.063888 L88.9564248,176.687964 C91.7870554,176.997491 93.2987946,177.719069 95.5318225,175.789652 C105.34909,181.030128 119.141205,188.456821 126.136978,197.257344 L130.030286,202.337686 C131.483277,204.566866 133.114085,206.954226 134.394171,209.267379 C135.672292,211.619588 137.087951,214.392636 138.424035,216.668684 C137.100723,217.430296 131.966625,220.294152 131.202307,220.981556 Z" fill="#242525"></path>
                    <path d="M123.548316,175.655882 C118.859252,173.345659 94.7282076,166.576101 93.7850898,165.799842 L93.9363816,165.195435 C100.145241,162.697738 99.8456041,162.696762 106.599703,164.102815 C111.592333,165.142708 116.263713,166.324183 121.180698,167.731212 C126.279428,169.796352 131.960731,171.96304 136.921923,174.237136 L136.480819,175.463526 C130.396727,174.135587 129.574446,174.878647 123.548316,175.655882 Z" fill="#242525"></path>
                    <path d="M90.1904355,165.200317 C91.9929694,165.859404 93.2329729,167.070172 93.6593407,168.990801 C92.5757376,171.003214 91.0951409,171.389879 88.7165192,172.220817 L87.0975003,170.11369 C88.7778218,168.588514 90.368449,169.297399 90.0456276,166.447213 L90.1904355,165.200317 Z" fill="#A66A36"></path>
                    <path d="M108.116551,114.72888 C111.259295,114.147907 117.82477,116.487423 120.388872,118.179568 C134.86573,127.735845 155.971921,138.782147 169.092065,119.724274 C169.861296,118.588691 170.567651,117.411121 171.209168,116.199377 C170.788695,119.791647 170.084304,124.515594 169.837718,128.027796 C169.63927,128.880216 169.351422,130.053879 169.311143,130.91704 C168.831725,141.310113 158.211826,149.455455 148.424031,149.202561 C147.307026,149.214278 146.481798,148.753405 145.471876,148.300344 C137.343379,150.077438 119.652061,152.250961 111.465602,151.667059 C110.170779,150.620331 108.536042,150.312757 106.915058,149.864577 L106.537811,148.974077 C104.523861,148.336471 88.5070684,148.295462 85.3208038,148.190984 L82.3366219,148.040614 L81.8299908,148.390175 C78.7345012,147.985935 76.855339,147.49284 73.8611364,146.703888 C70.0778586,145.235344 67.8963092,143.820503 64.6242798,141.559102 L63.5188671,140.16086 L64.1814074,138.849521 C61.9395377,136.409433 61.6432416,135.405668 61.2495881,132.134642 C64.6011931,133.797495 64.8179137,134.527861 68.78451,134.272038 C85.1623404,133.218475 94.6191596,121.117633 108.116551,114.72888 Z" fill="#A66A36"></path>
                    <path d="M86.9327494,143.017881 C99.6913651,143.500236 113.791959,130.631923 126.626221,126.370802 C124.82742,128.142038 122.799716,129.956237 120.938041,131.686463 C130.917407,132.515448 134.425608,135.766945 143.772299,136.499265 C148.535044,135.808932 154.08765,134.003521 158.775732,132.623831 C143.778193,145.02346 131.685655,141.921356 114.227168,144.897501 C110.714055,145.49605 109.413338,147.94883 106.537811,148.974077 C104.523861,148.336471 88.5070684,148.295462 85.3208038,148.190984 L82.3366219,148.040614 C82.3380955,147.084694 82.1186241,145.526319 82.0100673,144.527435 L81.8691891,144.153464 L82.0928848,143.690639 C83.7106266,143.499259 85.3242423,143.274681 86.9327494,143.017881 Z" fill="#242525"></path>
                    <path d="M143.772299,136.499265 C140.251326,137.925822 121.24259,135.58533 120.099059,132.173699 L120.938041,131.686463 C130.917407,132.515448 134.425608,135.766945 143.772299,136.499265 Z" fill="#42372B"></path>
                    <path d="M164.929575,136.58519 C165.535725,134.568871 166.309868,132.95484 167.400347,131.151382 C167.318807,131.286128 166.701851,129.363547 166.848231,128.494528 L167.687212,128.050254 L168.870039,128.80796 L169.837718,128.027796 C169.63927,128.880216 169.351422,130.053879 169.311143,130.91704 C168.831725,141.310113 158.211826,149.455455 148.424031,149.202561 C149.001691,148.835425 152.400845,147.300484 153.270281,146.87281 C158.980074,144.065586 161.5707,141.571795 165.549479,136.736536 L164.929575,136.58519 Z" fill="#7D562D"></path>
                    <path d="M64.1814074,138.849521 C66.6890201,140.752574 70.5340918,144.06461 73.9951377,143.137982 L73.522007,142.91438 C78.5699468,142.765964 81.9550521,142.831384 86.9327494,143.017881 C85.3242423,143.274681 83.7106266,143.499259 82.0928848,143.690639 L81.8691891,144.153464 L82.0100673,144.527435 C82.1186241,145.526319 82.3380955,147.084694 82.3366219,148.040614 L81.8299908,148.390175 C78.7345012,147.985935 76.855339,147.49284 73.8611364,146.703888 C70.0778586,145.235344 67.8963092,143.820503 64.6242798,141.559102 L63.5188671,140.16086 L64.1814074,138.849521 Z" fill="#7D562D"></path>
                    <path d="M73.8611364,146.703888 C77.2914327,144.473732 78.1483928,145.194334 82.0100673,144.527435 C82.1186241,145.526319 82.3380955,147.084694 82.3366292,148.040614 L81.8299908,148.390175 C78.7345012,147.985935 76.855339,147.49284 73.8611364,146.703888 Z" fill="#796041"></path>
                    <path d="M164.929575,136.58519 L165.549479,136.736536 C161.5707,141.571795 158.980074,144.065586 153.270281,146.87281 C152.400845,147.300484 149.001691,148.835425 148.424031,149.202561 C147.307026,149.214278 146.481798,148.753405 145.471876,148.300344 C154.763551,145.61615 158.052675,143.265894 164.929575,136.58519 Z" fill="#352715"></path>
                    <path d="M176.339336,137.301886 C176.855104,138.452116 177.060428,138.794841 177.084989,140.041736 C176.647814,144.868208 177.507427,164.302006 179.398574,168.682251 C175.170263,183.554188 167.695072,197.016167 155.329422,206.794093 C154.677099,206.248271 153.788996,205.151745 153.203477,204.474106 C152.055035,205.528645 147.643994,209.351351 147.230398,210.453736 C145.156521,211.967195 140.762181,214.425835 139.378942,215.829935 L138.424035,216.668684 C137.087951,214.392636 135.672292,211.619588 134.394171,209.267379 C133.114085,206.954226 131.483277,204.566866 130.030286,202.337686 L132.094339,202.466575 C132.609124,202.730209 133.307621,203.217446 133.766408,203.081723 C137.890584,201.867049 150.16094,193.577196 152.406739,190.792431 C153.99825,189.638296 153.746752,190.162636 154.291992,188.536888 C152.004932,186.850601 147.302114,189.647084 145.298971,190.884215 C143.67111,189.562135 142.223031,188.864967 142.541334,186.7305 L143.452032,186.553767 C145.930663,185.612493 146.597723,185.259027 148.805208,183.792436 L150.325003,182.594362 C153.475606,180.579996 154.942351,179.307713 157.755985,176.817828 L159.319989,175.587532 C173.141577,164.703316 175.010129,153.646274 176.339336,137.301886 Z" fill="#A66A36"></path>
                    <path d="M135.259678,207.441463 C137.822797,205.529622 142.887144,203.111015 145.990591,200.82325 C160.786734,189.914624 168.751167,180.716695 174.677091,163.750325 C173.156313,181.653088 164.284129,191.710271 153.203477,204.474106 C152.055035,205.528645 147.643994,209.351351 147.230398,210.453736 C145.156521,211.967195 140.762181,214.425835 139.378942,215.829935 L138.424035,216.668684 C137.087951,214.392636 135.672292,211.619588 134.394171,209.267379 L135.259678,207.441463 Z" fill="url(#linearGradient-6)"></path>
                    <path d="M134.394171,209.267379 L135.259678,207.441463 C136.61541,210.362928 137.854235,212.990489 139.378942,215.829935 L138.424035,216.668684 C137.087951,214.392636 135.672292,211.619588 134.394171,209.267379 Z" fill="#796041"></path>
                    <path d="M165.546532,154.086641 C163.475602,161.809191 158.550759,166.383745 152.534453,171.26392 C151.913567,171.964993 151.82122,172.16809 151.406641,173.001957 C153.206424,174.793698 155.429628,175.832615 157.755985,176.817828 C154.942351,179.307713 153.475606,180.579996 150.325003,182.594362 L148.805208,183.792436 C146.597723,185.259027 145.930663,185.612493 143.452032,186.553767 C141.777015,185.702324 139.887832,183.647925 138.499681,182.279953 L136.312826,183.66843 C131.487207,180.84656 128.342498,179.140745 123.029601,177.425165 L123.548316,175.655882 C129.574446,174.878647 130.396727,174.135587 136.480819,175.463526 L136.921923,174.237136 C131.960731,171.96304 126.279428,169.796352 121.180698,167.731212 L122.800699,166.39058 C131.074593,166.666908 134.757664,166.144521 142.708344,168.40104 C138.702058,165.854522 136.406156,164.779478 132.019676,163.126389 C132.703436,161.619765 133.506069,161.799427 134.991479,161.450843 C148.559604,163.836251 154.25859,160.981182 165.546532,154.086641 Z" fill="#A66A36"></path>
                    <path d="M145.947364,178.490445 C147.364988,177.380249 148.844504,176.340356 149.908459,174.895246 C149.397604,173.047849 148.473152,174.338684 147.14984,172.776403 L147.709816,171.927889 C149.158877,171.628126 150.101012,172.312601 151.406641,173.001957 C153.206424,174.793698 155.429628,175.832615 157.755985,176.817828 C154.942351,179.307713 153.475606,180.579996 150.325003,182.594362 C149.096985,181.817127 147.053563,179.611382 145.947364,178.490445 Z" fill="#242525"></path>
                    <path d="M143.859734,180.149392 L145.947364,178.490445 C147.053563,179.611382 149.096985,181.817127 150.325003,182.594362 L148.805208,183.792436 C146.597723,185.259027 145.930663,185.612493 143.452032,186.553767 C141.777015,185.702324 139.887832,183.647925 138.499681,182.279953 C140.484158,181.822986 142.036373,181.013529 143.859734,180.149392 Z" fill="#242525"></path>
                    <path d="M143.859734,180.149392 L145.947364,178.490445 C147.053563,179.611382 149.096985,181.817127 150.325003,182.594362 L148.805208,183.792436 C148.698125,183.616679 148.589077,183.442876 148.476099,183.270048 C147.129209,181.190262 146.227352,180.663969 143.859734,180.149392 Z" fill="#5A3E27"></path>
                    <path d="M136.921923,174.237136 C139.53711,175.792581 140.430125,176.400895 142.781043,178.355699 C140.6885,177.39099 138.584168,176.402847 136.480819,175.463526 L136.921923,174.237136 Z" fill="#5A3E27"></path>
                    <path d="M105.31274,89.0759355 C107.09091,89.2485675 110.201234,89.6819052 111.841866,89.3755029 C119.222746,91.6682477 122.668073,96.0791525 128.948648,99.8774479 C140.912491,107.112761 155.753825,110.785098 166.526981,99.5640153 C163.464795,108.690665 160.761191,116.258939 149.950703,117.609336 C149.385815,117.675733 148.987937,117.508764 148.437785,117.353512 C148.60676,116.497187 148.579253,116.152509 148.224601,115.352816 C146.035782,115.557866 144.465883,115.817595 142.314396,115.227834 C138.899524,113.621614 134.26744,113.878414 132.040306,112.622731 L132.860622,111.835732 C135.292098,111.337755 138.502628,111.812297 141.952867,111.1122 C138.363125,110.202172 132.062902,110.645469 127.917113,109.678808 C121.458721,108.172183 114.256641,104.736141 107.901402,103.593723 L111.991193,103.48827 C112.358616,103.614228 113.976653,103.797796 114.411862,103.772409 C116.752956,103.633757 120.361364,105.780917 121.358515,103.009821 C121.228836,102.559689 121.052001,102.125179 120.829976,101.713128 C119.155941,98.5817312 108.761997,90.1447309 105.31274,89.0759355 Z" fill="url(#linearGradient-7)"></path>
                    <path d="M132.860622,111.835732 C135.176173,111.866977 141.322157,111.65314 142.912686,112.904918 L142.534457,113.512254 L142.97949,112.946904 L141.810417,113.780771 L141.984305,113.644072 L141.798628,114.050265 L142.464705,114.522855 L142.314396,115.227834 C138.899524,113.621614 134.26744,113.878414 132.040306,112.622731 L132.860622,111.835732 Z" fill="#946232"></path>
                    <path d="M141.952867,111.1122 C145.094629,112.064215 146.57218,112.301487 149.799411,112.753572 C147.360076,113.33845 144.894216,113.910636 142.464705,114.522855 L141.798628,114.050265 L141.984305,113.644072 L141.810417,113.780771 L142.97949,112.946904 L142.534457,113.512254 L142.912686,112.904918 C141.322157,111.65314 135.176173,111.866977 132.860622,111.835732 C135.292098,111.337755 138.502628,111.812297 141.952867,111.1122 Z" fill="#5A3E27"></path>
                    <path d="M148.224601,115.352816 C152.022615,113.9204 153.264387,113.465386 156.61442,110.986241 L156.878689,111.951926 C155.348088,114.536525 149.980175,115.197565 149.780745,117.240247 L149.950703,117.609336 C149.385815,117.675733 148.987937,117.508764 148.437785,117.353512 C148.60676,116.497187 148.579253,116.152509 148.224601,115.352816 Z" fill="#5A3E27"></path>
                    <path d="M123.836164,18.6119905 C127.650879,13.4090093 131.833017,7.63520973 138.164678,5.27967097 C141.749508,3.95701469 145.710603,4.07369754 149.209963,5.6050062 C146.2303,6.23211551 138.25113,8.24498749 136.605586,10.7357514 C138.451543,11.6961636 142.448987,10.119334 144.507145,9.80502259 C137.974089,14.0401708 137.263804,12.8656285 130.41441,14.8010015 C134.722298,15.1424576 139.032149,15.4516915 143.343966,15.7287035 C138.208886,18.4739239 133.980575,19.3405016 128.160752,19.9375858 C133.007002,20.4613405 138.585151,20.6545751 143.045312,21.1903398 C139.743417,22.37035 136.35507,23.5106198 132.851781,23.9560651 C128.021249,20.7949851 124.769457,24.2381545 121.892948,27.907757 L122.355665,28.7094024 L123.306642,28.8720749 C126.045614,30.0020921 127.633195,30.611577 130.155053,32.2441605 L130.569632,33.3603125 C126.437597,33.2384546 123.602349,32.4330012 119.60294,31.5034441 C123.549299,34.2064829 124.57101,35.1653328 129.400559,35.7938579 L128.878897,36.8650944 C127.917113,37.0736589 126.948452,37.2483414 125.973897,37.3888491 C122.27216,36.869293 120.23758,35.9685405 116.755903,34.6529047 L115.958183,34.7684158 L116.209681,36.0613985 L115.429644,36.017557 C114.598521,34.9715123 114.514033,34.7551364 114.121068,33.4717227 C113.009957,34.2922131 112.835087,34.4896463 112.14445,35.6824478 C112.584572,36.8275997 113.273244,35.9606314 114.038545,37.3925595 L113.447131,37.3886538 L113.187774,37.7803957 L113.875464,37.954883 L113.176967,37.5675349 L112.467664,38.649805 C111.775062,38.1351311 111.539283,37.7497359 111.160071,36.9889052 L110.298493,37.3439335 C109.877038,38.5177923 109.286606,39.6679239 109.768972,40.8214731 L109.244363,41.4914963 C108.41324,42.9734173 107.72555,44.5253481 106.279436,45.4140907 L107.152802,40.1675609 L114.024791,31.6742209 L112.444086,30.1073508 L122.110062,17.1489144 L123.836164,18.6119905 Z" fill="url(#linearGradient-8)"></path>
                    <path d="M122.110062,17.1489144 L123.836164,18.6119905 C120.644299,22.9218352 117.363035,27.5021498 114.024791,31.6742209 L112.444086,30.1073508 L122.110062,17.1489144 Z" fill="#DAC1A9"></path>
                    <path d="M122.110062,17.1489144 C129.396629,7.08443737 139.707068,-4.35979734 153.821416,5.75770939 C157.372844,8.30279188 159.878983,13.5532273 161.945983,17.3994652 C168.02811,31.2720312 171.891946,46.005121 173.396023,61.0647276 C173.766393,64.4595639 175.183034,71.9933705 172.496131,74.2595566 C171.265166,73.265653 171.382073,70.5277558 171.334917,69.0032626 C170.796554,51.5217301 165.143742,15.642778 149.209963,5.6050062 C145.710603,4.07369754 141.749508,3.95701469 138.164678,5.27967097 C131.833017,7.63520973 127.650879,13.4090093 123.836164,18.6119905 L122.110062,17.1489144 Z" fill="url(#linearGradient-9)"></path>
                    <path d="M102.050142,112.730137 C104.618173,113.905754 105.351054,114.173294 108.116551,114.72888 C94.6191596,121.117633 85.1623404,133.218475 68.78451,134.272038 C64.8179137,134.527861 64.6011931,133.797495 61.2495881,132.134642 C68.8526896,119.561211 75.7345024,129.412368 86.2134255,125.028217 C91.4712091,122.829307 96.7608229,116.292138 102.050142,112.730137 Z" fill="#E6DDCC"></path>
                    <path d="M95.2027137,156.438851 C100.027351,157.846856 107.186204,157.518777 112.413631,158.406348 C119.216851,159.56146 125.361853,161.512358 132.019676,163.126389 C136.406156,164.779478 138.702058,165.854522 142.708344,168.40104 C134.757664,166.144521 131.074593,166.666908 122.800699,166.39058 C116.756886,163.663423 97.8237953,161.725219 95.8206524,160.309402 C95.113314,158.819376 95.1987841,158.055811 95.2027137,156.438851 Z" fill="#242525"></path>
                    <path d="M185.889386,84.3694667 L188.2629,82.7882432 C190.592204,88.4566864 193.706458,93.5670048 195.910996,99.200785 C197.507419,103.282244 197.43865,108.390902 198.252089,112.798487 C199.451617,119.296599 201.383044,126.435246 202,132.973392 C201.31231,133.771132 199.722763,133.947865 198.613618,134.18123 C195.716478,113.60892 193.620988,103.573219 185.889386,84.3694667 Z" fill="#D0A67B"></path>
                    <path d="M112.467664,38.649805 L113.176967,37.5675349 L113.875464,37.954883 L113.187774,37.7803957 L113.447131,37.3886538 L114.038545,37.3925595 C113.273244,35.9606314 112.584572,36.8275997 112.14445,35.6824478 C112.835087,34.4896463 113.009957,34.2922131 114.121068,33.4717227 C114.514033,34.7551364 114.598521,34.9715123 115.429644,36.017557 L116.209681,36.0613985 L115.958183,34.7684158 L116.755903,34.6529047 C117.071258,37.2728497 122.026556,39.8751214 124.348002,40.5525655 C125.607457,41.2531508 126.862982,41.961157 128.113596,42.6766816 C126.272551,42.9633602 124.865734,42.6934761 122.843925,42.9600403 C120.601073,42.0170085 114.926647,38.6760709 113.147495,38.9316991 C116.29908,43.8234934 119.227658,46.0749355 125.11625,47.5585164 C127.882729,48.2553914 130.983228,48.0641096 133.606275,49.1122048 C132.721119,49.8706921 127.983917,49.6028586 126.704814,49.5838183 C121.366374,49.5043373 117.082065,46.6636224 112.506961,44.2683529 C112.065857,44.3774196 111.691557,44.4700824 111.384061,44.5463413 C110.046013,43.6086798 109.861319,42.9502761 109.244363,41.4914963 L109.768972,40.8214731 C109.286606,39.6679239 109.877038,38.5177923 110.298493,37.3439335 L111.160071,36.9889052 C111.539283,37.7497359 111.775062,38.1351311 112.467664,38.649805 Z" fill="#946232"></path>
                    <path d="M176.339336,137.301886 C176.617359,135.30412 176.632096,134.352105 178.736427,133.748674 C179.865221,134.827624 179.5312,134.429242 179.891746,136.200478 C181.793701,144.347773 181.263197,160.555461 179.398574,168.682251 C177.507427,164.302006 176.647814,144.868208 177.084989,140.041736 C177.060428,138.794841 176.855104,138.452116 176.339336,137.301886 Z" fill="#946232"></path>
                    <path d="M176.339336,137.301886 C176.617359,135.30412 176.632096,134.352105 178.736427,133.748674 C179.865221,134.827624 179.5312,134.429242 179.891746,136.200478 C179.358295,141.28082 179.082237,145.127937 178.888701,150.23269 C177.868955,146.603316 177.725523,142.13324 177.084989,140.041736 C177.060428,138.794841 176.855104,138.452116 176.339336,137.301886 Z" fill="#42372B"></path>
                    <path d="M144.756678,82.8412631 C146.613441,82.9669291 147.447511,83.0246358 149.245329,83.485411 C151.977424,84.1341482 157.132152,85.2168088 159.301323,86.862867 C160.715018,86.0456965 163.260453,84.3632176 164.749793,84.2454607 C164.726216,85.2541083 163.852849,85.9787137 163.143546,86.7405209 C158.154846,90.5486782 153.77819,92.8802847 147.360076,93.5299983 C149.358307,91.4164275 154.366656,92.2239315 156.111424,89.4340884 L154.898142,89.8445777 C152.217133,89.5004853 149.801376,88.4823664 147.271659,87.8707334 C142.621892,86.7460865 142.343868,86.1113123 139.010536,83.1222784 C140.100034,82.8665525 143.464803,82.8692865 144.756678,82.8412631 Z" fill="#946232"></path>
                    <path d="M149.245329,83.485411 C151.977424,84.1341482 157.132152,85.2168088 159.301323,86.862867 C157.289339,88.127631 156.605578,88.3258454 154.316553,89.0221345 L142.011812,85.5070025 C144.064076,85.0685874 147.554594,84.4996242 149.245329,83.485411 Z" fill="#42372B"></path>
                    <path d="M196.274489,165.434659 C196.099619,164.490456 196.058358,163.274806 196.073094,162.303262 C196.254841,150.024711 194.77336,138.842686 192.720114,126.771137 C196.371748,134.550319 197.901367,142.524787 199.891739,150.855649 C199.582278,155.423368 199.107772,158.307729 198.30121,162.810027 C197.553592,163.559922 196.467042,164.44554 196.274489,165.434659 Z" fill="#AB9676"></path>
                    <path d="M87.9356962,154.042702 C99.043954,154.203813 110.381999,156.248448 121.338866,158.196417 C125.641841,158.960958 130.609911,160.67849 134.991479,161.450843 C133.506069,161.799427 132.703436,161.619765 132.019676,163.126389 C125.361853,161.512358 119.216851,159.56146 112.413631,158.406348 C107.186204,157.518777 100.027351,157.846856 95.2027137,156.438851 C94.7154362,156.581409 93.4569633,156.986625 93.0315779,156.97979 C91.0877728,154.75354 90.7510011,154.801385 87.9356962,154.042702 Z" fill="#7D562D"></path>
                    <path d="M147.360076,93.5299983 C153.77819,92.8802847 158.154846,90.5486782 163.143546,86.7405209 L167.100711,90.4922408 C164.469805,92.0347002 156.562352,97.2733209 153.932429,96.4560527 C149.597034,95.1083902 150.463523,93.9977061 145.24985,93.8820973 L147.360076,93.5299983 Z" fill="#42372B"></path>
                    <path d="M189.26398,144.114407 C190.150118,152.985233 191.326068,168.390299 187.568333,176.677223 C187.028987,176.39406 185.638871,176.326686 184.956093,176.260289 C187.192068,166.134756 188.130274,154.538727 189.26398,144.114407 Z" fill="#946232"></path>
                    <path d="M111.394868,44.9604433 C121.105052,55.304305 126.646851,51.761052 136.114379,54.9061187 C129.53122,55.0906631 123.605296,55.5537818 117.59292,52.5358457 C116.760815,52.1179355 115.640863,51.4753499 114.771426,51.6177127 L113.710418,54.0375882 C112.209289,54.1067191 112.377282,53.8870234 111.24947,54.591612 C110.458627,54.2050452 108.966339,52.8282851 108.229529,52.1937062 L107.627309,51.3371857 L107.901402,50.3346896 L107.222554,50.7048525 L107.031965,49.7575244 L107.409213,49.9118973 L107.053579,49.9855198 L107.188169,49.4755327 C108.817012,50.4278406 108.786558,50.7843335 110.397717,50.5606344 L110.988148,49.5538421 C110.744509,47.6057754 110.97243,46.8706246 111.394868,44.9604433 Z" fill="#7D562D"></path>
                    <path d="M85.3208038,148.190984 C88.5070684,148.295462 104.523861,148.336471 106.537811,148.974077 L106.915058,149.864577 C108.536042,150.312757 110.170779,150.620331 111.465602,151.667059 C104.576912,152.127932 98.7030562,151.924835 91.8506176,151.089991 C91.148486,151.004066 89.4911529,151.858438 88.7260486,151.946317 L88.6445082,151.344839 C87.6432314,149.86946 87.0473971,148.646975 85.3208038,148.190984 Z" fill="#42372B"></path>
                    <path d="M184.956093,176.260289 C185.638871,176.326686 187.028987,176.39406 187.568333,176.677223 C186.695949,179.555726 183.879367,189.373684 182.206315,191.220105 C181.298564,191.286502 181.14236,191.638015 180.274888,192.286362 L180.57256,191.868452 L180.672766,192.661309 L179.93399,192.395721 L180.421268,192.276598 L179.804312,191.91532 L180.249345,192.433802 L179.843608,191.798149 L180.167805,191.247445 L179.757156,190.223175 C181.791736,185.530473 183.752635,181.242012 184.956093,176.260289 Z" fill="#D0A67B"></path>
                    <path d="M123.306642,28.8720749 L122.355665,28.7094024 L121.892948,27.907757 C124.769457,24.2381545 128.021249,20.7949851 132.851781,23.9560651 C130.276872,24.3400933 128.417162,24.5671122 125.916917,25.4041042 C127.704912,25.6240929 135.670327,26.3885365 136.685161,27.3061812 L135.303887,27.5218736 C132.544285,27.8207575 124.845103,27.9391002 123.306642,28.8720749 Z" fill="#946232"></path>
                    <path d="M123.306642,28.8720749 C124.845103,27.9391002 132.544285,27.8207575 135.303887,27.5218736 L133.068894,28.5363797 L132.933321,29.1655884 C134.32442,29.8924396 136.644882,30.1727713 138.264884,30.4504668 C135.998454,31.7623921 133.062017,33.9482184 130.569632,33.3603125 L130.155053,32.2441605 C127.633195,30.611577 126.045614,30.0020921 123.306642,28.8720749 Z" fill="#5A3E27"></path>
                    <path d="M179.757156,190.223175 L180.167805,191.247445 L179.843608,191.798149 L180.249345,192.433802 L179.804312,191.91532 L180.421268,192.276598 L179.93399,192.395721 L180.672766,192.661309 L180.57256,191.868452 L180.274888,192.286362 C181.14236,191.638015 181.298564,191.286502 182.206315,191.220105 C181.22783,193.859383 178.254062,200.723655 175.876619,202.051594 L173.428442,201.083956 C173.530613,200.14854 178.868071,191.682931 179.757156,190.223175 Z" fill="#DEC7A9"></path>
                    <path d="M124.348002,40.5525655 C132.170967,42.0007022 134.280211,40.4431082 140.851581,40.8137593 C134.152497,43.3679909 129.974289,45.3087343 122.843925,42.9600403 C124.865734,42.6934761 126.272551,42.9633602 128.113596,42.6766816 C126.862982,41.961157 125.607457,41.2531508 124.348002,40.5525655 Z" fill="#5A3E27"></path>
                    <path d="M135.569139,77.1056418 C137.16065,77.1852205 138.62543,77.0841604 139.888815,78.0216266 C141.546148,81.2726354 141.00582,82.438097 144.756678,82.8412631 C143.464803,82.8692865 140.100034,82.8665525 139.010536,83.1222784 C134.807768,81.5557989 137.523161,79.0110386 135.569139,77.1056418 Z" fill="#7D562D"></path>
                    <path d="M153.203477,204.474106 C153.788996,205.151745 154.677099,206.248271 155.329422,206.794093 C153.430415,208.276307 150.486119,210.779862 148.369998,211.666456 L147.230398,210.453736 C147.643994,209.351351 152.055035,205.528645 153.203477,204.474106 Z" fill="#C09258"></path>
                    <path d="M151.406641,173.001957 C151.82122,172.16809 151.913567,171.964993 152.534453,171.26392 C153.696649,172.932631 157.407228,174.661881 159.319989,175.587532 L157.755985,176.817828 C155.429628,175.832615 153.206424,174.793698 151.406641,173.001957 Z" fill="#5A3E27"></path>
                    <path d="M129.400559,35.7938579 C132.549197,35.5883203 133.471684,35.225383 136.518151,35.9919747 C134.123025,37.6294403 128.832723,37.7038439 125.973897,37.3888491 C126.948452,37.2483414 127.917113,37.0736589 128.878897,36.8650944 L129.400559,35.7938579 Z" fill="#7D562D"></path>
                    <path d="M140.34269,217.358041 C140.560786,220.228732 142.133632,223.793661 141.168901,225.215337 C140.659028,223.870799 138.574344,220.496272 137.755993,219.098031 L140.34269,217.358041 Z" fill="#42372B"></path>
                    <path d="M72.6565981,106.477108 L74.1280584,106.123642 L74.9657632,106.69778 C74.8455156,111.141493 76.8161407,115.948436 78.8625098,119.816058 L81.0275547,121.473052 C79.9251875,123.768628 79.2957546,123.389775 76.8042534,123.388799 C69.7503216,120.45464 66.0482895,111.807415 72.6565981,106.477108 Z" fill="#DEC7A9"></path>
                    <path d="M72.6565981,106.477108 L74.1280584,106.123642 L74.9657632,106.69778 C74.8455156,111.141493 76.8161407,115.948436 78.8625098,119.816058 C71.5353686,118.820104 73.8391303,109.932678 72.6565981,106.477108 Z" fill="#C18246"></path>
                    <path d="M163.498198,68.589844 C163.115056,61.7313333 161.609015,54.0257734 152.632694,55.6350204 C153.033519,54.7886547 154.243854,53.8287307 155.138833,53.6152841 C161.499967,52.0978212 165.73319,60.5511277 167.007382,64.9607631 C167.939693,68.1002642 168.247189,71.3902325 167.915133,74.6469046 C167.477958,75.4049037 167.345332,75.7350332 166.643888,76.2753871 C165.313699,76.1628053 165.774452,76.2874948 164.620115,75.3805908 C163.557142,73.3960058 163.616087,70.8580805 163.498198,68.589844 Z" fill="#DEC7A9"></path>
                    <path d="M163.498198,68.589844 C166.419898,70.4693655 166.195907,72.9973313 166.643888,76.2753871 C165.313699,76.1628053 165.774452,76.2874948 164.620115,75.3805908 C163.557142,73.3960058 163.616087,70.8580805 163.498198,68.589844 Z" fill="#DAC1A9"></path>
                    <path d="M86.868303,103.82416 C95.9375597,108.960158 94.0739196,114.738645 87.473372,121.647832 C87.1823809,121.00925 86.4599133,120.124608 86.0133077,119.534847 C85.6282995,119.554376 84.9020006,119.167711 84.5112944,118.991954 L84.8112255,114.078581 C85.8573003,114.202587 86.7459924,113.714374 87.7161266,113.298417 C87.6146432,109.770592 87.3376023,107.330504 86.868303,103.82416 Z" fill="#D0A67B"></path>
                    <path d="M84.8112255,114.078581 C85.8573003,114.202587 86.7459924,113.714374 87.7161266,113.298417 C87.1941698,115.267867 86.633113,117.628864 86.0133077,119.534847 C85.6282995,119.554376 84.9020006,119.167711 84.5112944,118.991954 L84.8112255,114.078581 Z" fill="#5A3E27"></path>
                    <path d="M169.271847,106.910641 L169.617657,107.849962 C168.756079,113.571816 163.454971,119.554376 157.940679,121.376386 L157.458314,120.701676 C163.125862,115.572512 165.561268,114.20454 169.271847,106.910641 Z" fill="#946232"></path>
                    <path d="M84.5112944,118.991954 C84.9020006,119.167711 85.6282995,119.554376 86.0133077,119.534847 C86.4599133,120.124608 87.1823809,121.00925 87.473372,121.647832 C84.9946422,123.434691 83.1916171,124.537075 79.9831499,124.020546 C78.9177215,123.839907 77.8575982,123.629976 76.8042534,123.388799 C79.2957546,123.389775 79.9251875,123.768628 81.0275547,121.473052 L81.5943095,119.521177 L84.5112944,118.991954 Z" fill="#A66A36"></path>
                    <path d="M81.5943095,119.521177 C81.7245777,115.772679 81.6509949,112.892224 83.1934837,109.397597 L83.8004193,109.310695 C84.6195564,110.743111 84.6435273,112.421587 84.8112255,114.078581 L84.5112944,118.991954 L81.5943095,119.521177 Z" fill="#C18246"></path>
                    <path d="M15.8081086,101.756091 C16.4293875,103.740187 17.1010642,105.722331 17.4516879,107.769896 C19.0934988,112.385459 20.6543588,117.097689 24.691689,120.271072 L26.6383431,121.741569 C28.1844669,123.054861 28.6160415,123.358529 30.4387149,124.252935 L31.3659177,125.409023 C26.6798992,134.329647 20.2330995,143.168251 18.9846473,152.973516 L18.3384151,150.980632 C16.2744607,156.33535 18.2128625,162.310097 20.0289538,167.488082 C20.4508025,168.691038 21.2865425,169.629383 20.6150622,170.605809 C20.5013969,170.45251 20.3932331,170.296282 20.2908655,170.136148 C13.8867025,160.068224 17.7554504,151.278442 19.8707851,142.115664 C14.6466001,130.245259 12.7173347,122.47877 15.5584771,109.821366 L15.8081086,101.756091 Z" fill="#000000"></path>
                    <path d="M15.5584771,109.821366 C16.7451354,111.849402 17.4161245,113.27303 18.370933,115.425072 C19.3207313,117.056679 20.2152196,118.609196 21.3680829,120.123632 C23.3983404,122.791226 27.8519196,124.996972 28.1987119,128.305101 C27.7088801,129.050114 27.2151186,129.822467 26.7126136,130.555762 C24.9746243,133.709617 23.9433839,135.97883 22.5324404,139.298677 C15.590602,126.795547 16.2583491,124.132835 15.5584771,109.821366 Z" fill="#C09258"></path>
                    <path d="M26.7126136,130.555762 C22.2272042,128.884122 13.3537427,118.404146 18.370933,115.425072 C19.3207313,117.056679 20.2152196,118.609196 21.3680829,120.123632 C23.3983404,122.791226 27.8519196,124.996972 28.1987119,128.305101 C27.7088801,129.050114 27.2151186,129.822467 26.7126136,130.555762 Z" fill="#E6DDCC"></path>
                    <path d="M16.7610506,80.9223916 C17.4692731,82.1024995 17.3766314,81.6051083 17.2121752,82.9091247 C18.9867104,82.5183592 18.4339058,82.3701378 19.7517165,83.1591872 C21.5649587,85.9465893 20.5232065,89.418075 20.8345336,91.6399314 C22.212861,93.7262598 23.8763833,96.8280709 26.2678746,97.5857771 C26.7735233,99.2574176 27.1031234,100.142059 27.1522441,101.904507 C29.0596016,104.460789 29.686382,105.305397 30.9075231,108.351845 C30.5025719,109.713959 30.0398547,111.128799 29.79543,112.522159 C29.2424289,114.306088 28.650426,116.845771 27.4413686,118.162969 C27.3726979,119.457709 27.4728059,120.783695 26.6383431,121.741569 L24.691689,120.271072 C20.6543588,117.097689 19.0934988,112.385459 17.4516879,107.769896 C17.1010642,105.722331 16.4293875,103.740187 15.8081086,101.756091 C17.1523462,97.5096159 14.0644213,95.2049587 14.5706594,90.2568246 C14.8904353,87.1314817 15.9219704,83.9298799 16.7610506,80.9223916 Z" fill="#242525"></path>
                    <path d="M17.4516879,107.769896 C17.452965,106.141218 17.3967709,104.945096 17.7457245,103.3379 C19.1511665,102.261879 19.3014759,102.614369 21.4163194,102.574335 C23.638639,104.532068 24.7986739,112.965456 27.4413686,118.162969 C27.3726979,119.457709 27.4728059,120.783695 26.6383431,121.741569 L24.691689,120.271072 C20.6543588,117.097689 19.0934988,112.385459 17.4516879,107.769896 Z" fill="#C18246"></path>
                    <path d="M17.4516879,107.769896 C17.452965,106.141218 17.3967709,104.945096 17.7457245,103.3379 C19.1511665,102.261879 19.3014759,102.614369 21.4163194,102.574335 C15.020507,110.902269 27.7453276,115.96113 24.691689,120.271072 C20.6543588,117.097689 19.0934988,112.385459 17.4516879,107.769896 Z" fill="#DEC7A9"></path>
                    <path d="M17.2121752,82.9091247 C18.9867104,82.5183592 18.4339058,82.3701378 19.7517165,83.1591872 C21.5649587,85.9465893 20.5232065,89.418075 20.8345336,91.6399314 C22.212861,93.7262598 23.8763833,96.8280709 26.2678746,97.5857771 C26.7735233,99.2574176 27.1031234,100.142059 27.1522441,101.904507 C17.2659133,93.4874261 13.8400378,99.6352943 17.2121752,82.9091247 Z" fill="#DAC1A9"></path>
                    <path d="M16.4777222,79.4433022 C17.6571107,78.9958063 18.2672883,77.4849831 18.9119486,76.3271377 C18.161777,73.0805227 2.71385099,72.1976387 0.131771243,72.7814436 C2.44978783,72.5188828 4.08171567,72.3050456 6.34166174,71.7208502 C10.0213931,70.7696164 16.4579757,72.7798813 20.0314098,74.1037191 L21.1217916,72.6725721 C24.5247768,73.7239872 24.8625309,75.8374603 24.8337461,79.2258522 L24.1877104,80.4330071 L22.0478154,77.5966862 C21.5257604,83.6019962 24.0210929,86.3644018 20.8345336,91.6399314 C20.5232065,89.418075 21.5649587,85.9465893 19.7517165,83.1591872 C18.4339058,82.3701378 18.9867104,82.5183592 17.2121752,82.9091247 C17.3766314,81.6051083 17.4692731,82.1024995 16.7610506,80.9223916 L16.5202608,80.616868 L16.4777222,79.4433022 Z" fill="#D0A67B"></path>
                    <path d="M21.1217916,72.6725721 C24.5247768,73.7239872 24.8625309,75.8374603 24.8337461,79.2258522 L24.1877104,80.4330071 L22.0478154,77.5966862 C22.1024376,76.3654136 20.8157695,75.0601279 20.0314098,74.1037191 L21.1217916,72.6725721 Z" fill="#C09258"></path>
                    <path d="M14.0157918,58.2994904 C16.8946589,59.3120437 20.4162215,60.3495935 22.4022705,62.6557154 C22.2511752,63.8100456 24.0294434,66.7421539 24.7357994,67.9043933 C25.1199234,70.9163731 25.726859,77.6723592 28.194684,79.51546 C27.5592584,81.3153052 27.6880529,81.8858307 26.3915606,82.9748381 C25.067659,82.4620194 25.0491896,81.8510699 24.1877104,80.4330071 L24.8337461,79.2258522 C24.8625309,75.8374603 24.5247768,73.7239872 21.1217916,72.6725721 C16.2767203,64.2139929 3.01049102,66.8146047 0,65.0729544 L0.313891223,64.6429366 C11.4343997,63.9201864 13.4843056,65.3774039 22.1556845,70.5419139 L22.7059348,70.3220229 C24.1149135,64.1215254 17.9792444,61.5437619 14.0157918,58.2994904 Z" fill-opacity="0.94509804" fill="#946232"></path>
                </g>
            </g>
        </g>
    </g>
</svg>