<?xml version="1.0" encoding="UTF-8"?>
<svg width="241px" height="241px" viewBox="0 0 241 241" version="1.1" xmlns="http://www.w3.org/2000/svg" xmlns:xlink="http://www.w3.org/1999/xlink">
    <title>tabby</title>
    <defs>
        <linearGradient x1="-6.25104688%" y1="78.2186769%" x2="106.251218%" y2="21.7814716%" id="linearGradient-1">
            <stop stop-color="#669ABD" offset="0%"></stop>
            <stop stop-color="#77DBDB" offset="100%"></stop>
        </linearGradient>
        <linearGradient x1="43.7494659%" y1="40.5930318%" x2="56.250876%" y2="59.4071167%" id="linearGradient-2">
            <stop stop-color="#000000" stop-opacity="0" offset="55.9%"></stop>
            <stop stop-color="#000000" offset="100%"></stop>
        </linearGradient>
        <linearGradient x1="24.4845155%" y1="25.0051314%" x2="75.5140892%" y2="75.0114471%" id="linearGradient-3">
            <stop stop-color="#6A8FAD" offset="0%"></stop>
            <stop stop-color="#669ABD" offset="100%"></stop>
        </linearGradient>
        <linearGradient x1="58.5041538%" y1="25.0051314%" x2="41.4944509%" y2="75.0110523%" id="linearGradient-4">
            <stop stop-color="#000000" stop-opacity="0" offset="55.9%"></stop>
            <stop stop-color="#000000" offset="100%"></stop>
        </linearGradient>
        <linearGradient x1="-8.32752296%" y1="31.5683055%" x2="91.6656413%" y2="75.8049309%" id="linearGradient-5">
            <stop stop-color="#6A8FAD" offset="0%"></stop>
            <stop stop-color="#669ABD" offset="100%"></stop>
        </linearGradient>
        <linearGradient x1="50.0025064%" y1="42.6264143%" x2="33.3353841%" y2="64.7468222%" id="linearGradient-6">
            <stop stop-color="#000000" stop-opacity="0" offset="55.9%"></stop>
            <stop stop-color="#000000" offset="100%"></stop>
        </linearGradient>
        <linearGradient x1="-10.0001367%" y1="65.9757639%" x2="80.0004102%" y2="18.0478417%" id="linearGradient-7">
            <stop stop-color="#CCECFF" offset="0%"></stop>
            <stop stop-color="#9FECED" offset="100%"></stop>
        </linearGradient>
    </defs>
    <g id="Page-1" stroke="none" stroke-width="1" fill="none" fill-rule="evenodd">
        <g id="tabby" transform="translate(-67.09, 108.26)">
            <rect id="box" x="68" y="-108" width="240" height="240"></rect>
            <g id="shape" transform="translate(84, -108)" fill-rule="nonzero">
                <g id="Group" transform="translate(42, 96)">
                    <polygon id="Path" fill="url(#linearGradient-1)" points="-1.61279976e-14 144 165.997163 48 166 1.61544352e-14 -1.61279976e-14 96.0085258"></polygon>
                    <polygon id="Path" fill="url(#linearGradient-2)" opacity="0.16" points="-1.61279976e-14 144 165.997163 48 166 1.61544352e-14 -1.61279976e-14 96.0085258"></polygon>
                </g>
                <g id="Group" transform="translate(0, 168)">
                    <polygon id="Path" fill="url(#linearGradient-3)" points="0.002870421 3.23101457e-14 8.15822715e-15 48.0047367 42 72 42 24.0066314"></polygon>
                    <polygon id="Path" fill="url(#linearGradient-4)" opacity="0.16" points="0.002870421 3.23101457e-14 8.15822715e-15 48.0047367 42 72 42 24.0066314"></polygon>
                </g>
                <g id="Group" transform="translate(0, 24)">
                    <polygon id="Path" fill="url(#linearGradient-5)" points="0.0056964477 -1.61534788e-14 0 48 83.3333333 96 125 71.9985791"></polygon>
                    <polygon id="Path" fill="url(#linearGradient-6)" opacity="0.15" points="0.0056964477 -1.61534788e-14 0 48 83.3333333 96 125 71.9985791"></polygon>
                </g>
                <polygon id="Path" fill="url(#linearGradient-7)" points="41.6011376 192 0 167.998579 124.806257 95.9971582 0 23.9985791 41.5982936 0 208 96"></polygon>
            </g>
        </g>
    </g>
</svg>