<?xml version="1.0" encoding="UTF-8"?>
<svg width="240px" height="240px" viewBox="0 0 240 240" version="1.1" xmlns="http://www.w3.org/2000/svg" xmlns:xlink="http://www.w3.org/1999/xlink">
    <title>tails</title>
    <g id="Page-1" stroke="none" stroke-width="1" fill="none" fill-rule="evenodd">
        <g id="tails" transform="translate(-46, 144)">
            <rect id="box" x="46" y="-144" width="240" height="240"></rect>
            <g id="shape" transform="translate(72, -144)" fill="#FFFFFF" fill-rule="nonzero">
                <path d="M187.262551,111.079144 L187.262551,150.746686 C187.262551,151.961478 186.460632,152.279751 185.474056,151.452749 L165.479722,134.69238 C164.494094,133.866171 163.692178,132.216285 163.692178,131.001494 L163.692178,126.00776 L157.443625,120.863818 C150.742479,115.347291 145.376636,104.147994 145.376636,95.9514556 C145.376636,87.7566787 150.779063,85.620985 157.443625,91.1837356 L163.692178,96.3276824 L163.692178,91.3339536 C163.692178,90.1197406 164.494094,89.8014765 165.479722,90.6276858 L185.473584,107.387653 C186.462351,108.212374 187.262551,109.864931 187.262551,111.079144 L187.262551,111.079144 Z M157.800854,98.4671303 C154.273611,95.5230294 151.414402,96.6538906 151.414402,100.99103 C151.414402,105.329348 154.273611,111.232081 157.800854,114.176181 L163.692178,119.021959 L163.692178,103.312329 L157.800854,98.4665518 L157.800854,98.4671303 Z" id="path5189-4"></path>
                <polygon id="polygon3506" transform="translate(66.4699, 80.7304) rotate(63.4) translate(-66.4699, -80.7304)" points="51.8191655 80.7087506 66.8552735 73.6205613 81.1206666 80.7521055 66.0845585 87.8402947"></polygon>
                <polygon id="polygon3508" transform="translate(66.4681, 52.1325) rotate(63.4) translate(-66.4681, -52.1325)" points="66.0839105 59.2435816 51.8185139 52.1096506 66.854622 45.0214614 81.1176229 52.153002"></polygon>
                <path d="M84.5423302,57.1711371 C89.4749286,63.6340896 94.5151671,76.256799 94.5151671,87.9206432 C94.5151671,99.579779 89.4749286,103.556466 84.5423302,101.553396 C84.5423302,96.7779277 84.5423302,61.4121621 84.5423302,57.1711371 Z" id="path4818-2-4-3"></path>
                <path d="M185.768824,199.24876 C185.810983,199.216575 185.853142,199.184391 185.894192,199.149993 C186.02733,199.039032 186.153815,198.92033 186.266995,198.791681 C186.28142,198.776153 186.296953,198.762839 186.309158,198.748422 C186.428998,198.605366 186.534425,198.45015 186.62987,198.291628 C186.657615,198.247284 186.678706,198.200736 186.703124,198.155291 C186.775268,198.022278 186.836323,197.883745 186.887397,197.741906 C186.90183,197.704229 186.917371,197.668765 186.930696,197.628874 C186.987328,197.453802 187.029544,197.272108 187.056234,197.087117 C187.064015,197.041698 187.062924,196.995185 187.067378,196.948664 C187.075176,196.858946 187.089628,196.771432 187.091881,196.681723 L187.117972,195.160006 L134.844453,152.392694 L135.191195,23.2639257 L133.720919,22.1565855 C133.707613,22.1466395 133.694306,22.1422309 133.681,22.1322849 C133.575663,22.05493 133.459228,21.9942051 133.346122,21.9290449 C133.271827,21.8859721 133.199753,21.8362509 133.123237,21.7998266 C133.025651,21.7545762 132.922514,21.7259468 132.819378,21.6917801 C132.718461,21.6565023 132.616438,21.6134739 132.51219,21.5881687 C132.430123,21.5683655 132.344722,21.5640722 132.259325,21.5487042 C132.129565,21.5278698 131.998697,21.5048222 131.868931,21.5006 C131.854513,21.4995156 131.838987,21.496218 131.824569,21.4951336 C131.745821,21.4930446 131.673722,21.5097722 131.597191,21.5121096 C131.472967,21.5189533 131.352071,21.5213618 131.228951,21.5414934 C131.123578,21.5582742 131.024854,21.5883341 130.923914,21.6139677 C130.818536,21.6418233 130.714269,21.6663547 130.613325,21.703063 C130.512381,21.7397714 130.420305,21.7886478 130.326012,21.8330978 C130.227282,21.8797699 130.129662,21.9231178 130.038693,21.9797448 C129.98988,22.0097248 129.942175,22.041918 129.895579,22.0763244 C129.775777,22.1197078 129.657087,22.1542296 129.541716,22.2120031 L95.0258033,39.5073565 L102.228767,45.20995 L102.409645,145.894294 L49.9018828,102.750439 L49.9208036,50.3146377 L49.9355817,3.2773102 C49.9355944,3.24408583 49.9278428,3.21198137 49.9245285,3.17765485 C49.9223543,3.0624806 49.9068701,2.94843512 49.8902776,2.83217646 C49.8770079,2.72809475 49.8637382,2.62401303 49.8404854,2.52216225 C49.8183389,2.42806205 49.7851011,2.33397959 49.7529716,2.24211032 C49.7141966,2.12588717 49.6754216,2.00966401 49.6222263,1.89789384 C49.6078187,1.86912247 49.6045023,1.84033334 49.5900947,1.81156197 C49.5623877,1.7562324 49.522477,1.70978219 49.4925513,1.65556365 C49.4282627,1.54934863 49.367301,1.44423576 49.2930272,1.34578907 C49.2331653,1.26503897 49.1677557,1.18983513 49.1023461,1.11463129 C49.0302846,1.03168576 48.9548941,0.95317546 48.8750663,0.876887221 C48.7985633,0.807238531 48.7187312,0.742025081 48.6355701,0.681246872 C48.5501924,0.616042298 48.4637043,0.554161935 48.3705602,0.495614659 C48.2829596,0.442595903 48.1953569,0.395114541 48.1044251,0.352068419 C48.0057311,0.304604808 47.9070372,0.257141197 47.8016851,0.218548067 C47.7029869,0.182159244 47.6053948,0.153520999 47.5055841,0.125993783 C47.4035547,0.0995775959 47.3015254,0.0731614087 47.1950565,0.0545046741 C47.0797151,0.0347546611 46.9621508,0.0271904661 46.8445864,0.019626271 C46.7791493,0.0164085634 46.7181538,-0.000105991264 46.6516062,5.12829575e-07 C46.6183325,5.37648764e-05 46.5872731,0.0100707768 46.5539994,0.0101240289 C46.4364308,0.0136346228 46.3166394,0.0293310347 46.1979562,0.0472406293 C46.0970203,0.0617993861 45.9949761,0.0741449602 45.8984733,0.0975564479 C45.7997518,0.122078965 45.7032448,0.156565241 45.6056295,0.188838335 C45.4913752,0.22667545 45.3804479,0.265614718 45.2750619,0.315619899 C45.2451088,0.333387489 45.2140515,0.337867106 45.1852088,0.352310483 L1.85229054,22.0518185 C1.79460502,22.0807052 1.74578785,22.12176 1.69031889,22.1550732 C1.58714739,22.2150421 1.48397588,22.275011 1.38856445,22.3449349 C1.3031381,22.4070904 1.22547394,22.4736634 1.14891806,22.5424495 C1.06792483,22.6134578 0.990258558,22.6855681 0.918135795,22.763207 C0.846013032,22.8408459 0.77943378,22.9240134 0.716181482,23.0082829 C0.652929184,23.0925525 0.589676885,23.1768221 0.535295052,23.2677223 C0.482023613,23.3552984 0.433187406,23.4461898 0.387678153,23.5381833 C0.33994811,23.6368252 0.294436742,23.7343561 0.254468885,23.8374156 C0.216721817,23.9338266 0.188955608,24.0335441 0.161189399,24.1332616 C0.132312796,24.2363032 0.107873541,24.3371229 0.0900860762,24.4456842 C0.0722964964,24.5597829 0.0622712174,24.6727618 0.054462497,24.7901669 C0.0488914874,24.8566246 0.0333396184,24.9197757 0.0344225151,24.9884376 L9.75171972e-05,126.100635 C-0.00101922299,126.120572 0.00784701137,126.138277 0.00673027118,126.158214 C0.00782162868,126.204726 0.00447775379,126.247923 0.00556911129,126.294435 C0.00777720899,126.321011 0.0122039805,126.346476 0.0144120782,126.373052 C0.0276648948,126.521433 0.0486820122,126.668694 0.0819007779,126.812613 C0.088544108,126.842504 0.0951874381,126.872395 0.101830768,126.902287 C0.112907215,126.941031 0.126202337,126.978664 0.137278784,127.017408 C0.191554856,127.203377 0.254705624,127.384903 0.341151409,127.557531 C0.342259688,127.559744 0.343367967,127.561957 0.344476247,127.56417 L0.345584526,127.566384 L0.346692805,127.568597 C0.347801084,127.57081 0.348909364,127.573023 0.350017643,127.575236 C0.436463428,127.747865 0.545095951,127.909382 0.660386611,128.06203 C0.684775101,128.094108 0.706944918,128.127297 0.731333408,128.159375 C0.751288781,128.1826 0.771244154,128.205825 0.791199527,128.22905 C0.886541159,128.34186 0.991867881,128.446902 1.10163407,128.544184 C1.12159155,128.561872 1.14043865,128.582884 1.16039614,128.600572 C1.1947676,128.630419 1.23357853,128.652506 1.26794999,128.682353 C1.28236397,128.694512 1.29344888,128.711107 1.31008153,128.722155 L48.3447673,167.774884 L47.2476101,194.516702 C47.2453723,194.567649 47.2508989,194.617477 47.2519882,194.669527 C47.2508587,194.722688 47.2497293,194.775848 47.2519268,194.830111 C47.254137,194.85115 47.2541286,194.873299 47.2563388,194.894338 C47.2618527,194.97739 47.2751309,195.059322 47.2884091,195.141254 C47.2961544,195.189971 47.3016809,195.239799 47.3105345,195.290728 C47.3204963,195.343871 47.3337851,195.398117 47.3481843,195.449037 C47.3581524,195.485568 47.3670123,195.519886 47.3791992,195.555306 C47.3847384,195.571909 47.3891673,195.591837 47.3947066,195.60844 C47.4057852,195.641647 47.4124264,195.677075 47.4235049,195.710282 C47.471144,195.849748 47.5243309,195.983668 47.5897193,196.114245 L47.5908276,196.116459 L47.5919359,196.118672 C47.5930442,196.120885 47.5941525,196.123098 47.5952607,196.125311 C47.6817065,196.29794 47.7892308,196.457244 47.9056297,196.612105 C47.9244747,196.638654 47.941101,196.666315 47.9621646,196.691753 C47.9776848,196.711663 47.996534,196.727137 48.0120541,196.747047 C48.1273511,196.883082 48.2493042,197.015784 48.3856817,197.132959 C48.4000957,197.145118 48.4167284,197.156166 48.4311423,197.168325 C48.4400128,197.174956 48.4488833,197.181587 48.4577537,197.188217 C48.4710594,197.198163 48.4777091,197.211443 48.4910148,197.221389 L101.712928,239.297907 C102.714167,240.083721 104.079447,240.222186 105.219845,239.651117 L185.276253,199.561857 C185.289565,199.555191 185.298441,199.545209 185.311753,199.538543 C185.474827,199.454113 185.625705,199.356414 185.768824,199.24876 Z M28.3111495,109.897219 L11.7390528,97.1190777 L11.734852,108.116343 L20.1763831,113.968038 L6.22092478,120.95641 L6.25577618,27.1768251 L28.0631211,16.2565208 L28.2701265,40.1737781 L12.7947867,27.834659 L12.7905859,38.8319244 L28.3413479,51.1664929 L28.5708565,62.9906705 L12.6054327,50.2602878 L12.6012319,61.2575532 L28.6420737,73.9944601 L28.5628609,86.8258295 L12.8236297,74.2756037 L12.8194289,85.2728691 L28.6340801,97.8240816 L28.7193855,109.692789 L28.3111495,109.897219 Z M62.6382188,170.256017 L9.50508842,126.6447 L46.2685135,108.234949 L99.3994252,151.847377 L62.6382188,170.256017 Z M34.8988551,12.8334403 L42.2426654,9.15593422 L42.945522,102.568871 L35.6017117,106.246377 L34.8988551,12.8334403 Z"></path>
            </g>
        </g>
    </g>
</svg>