<?xml version="1.0" encoding="UTF-8"?>
<svg width="240px" height="240px" viewBox="0 0 240 240" version="1.1" xmlns="http://www.w3.org/2000/svg" xmlns:xlink="http://www.w3.org/1999/xlink">
    <title>tailwind</title>
    <g id="Page-1" stroke="none" stroke-width="1" fill="none" fill-rule="evenodd">
        <g id="tailwind" transform="translate(63, 55)">
            <rect id="box" x="-63" y="-55" width="240" height="240"></rect>
            <path d="M57,-7 C25,-7 5,9 -3,41 C9,25 23,19 39,23 C48.1288889,25.28 54.6533333,31.9066667 61.8755556,39.2355556 C73.64,51.1777778 87.2577778,65 117,65 C149,65 169,49 177,17 C165,33 151,39 135,35 C125.871111,32.72 119.346667,26.0933333 112.124444,18.7644444 C100.36,6.82222222 86.7422222,-7 57,-7 Z M-3,65 C-35,65 -55,81 -63,113 C-51,97 -37,91 -21,95 C-11.8711111,97.2844444 -5.34666667,103.906667 1.87555556,111.235556 C13.64,123.177778 27.2577778,137 57,137 C89,137 109,121 117,89 C105,105 91,111 75,107 C65.8711111,104.72 59.3466667,98.0933333 52.1244444,90.7644444 C40.36,78.8222222 26.7422222,65 -3,65 Z" id="Shape" fill="#38BDF8"></path>
        </g>
    </g>
</svg>