<?xml version="1.0" encoding="UTF-8"?>
<svg width="198px" height="200px" viewBox="0 0 198 200" version="1.1" xmlns="http://www.w3.org/2000/svg" xmlns:xlink="http://www.w3.org/1999/xlink">
    <title>tavily</title>
    <g id="Page-1" stroke="none" stroke-width="1" fill="none" fill-rule="evenodd">
        <g id="tavily" fill-rule="nonzero">
            <path d="M76.7111835,4.18904015 L100.577054,41.4408926 C104.408397,47.4279683 100.053275,55.2274255 92.8755701,55.2274255 L83.1129208,55.2274255 L83.1129208,111 L69,111 L69,0 C71.9583786,0 74.9167572,1.39634672 76.7111835,4.18904015 Z" id="Path" fill="#8FBCFA"></path>
            <path d="M37.4288037,41.4465543 L61.2902469,4.18923065 C62.9504998,1.56963893 65.867666,-0.015412117 69,0 L69,111.002166 C68.5930115,110.982206 68.1855674,110.972639 67.7780769,110.973474 C62.9776646,110.973474 58.5312221,112.460706 54.8896972,115 L54.8896972,55.2285601 L45.1288589,55.2285601 C37.952485,55.2285601 33.5884739,47.4289586 37.4239548,41.4465543 L37.4288037,41.4465543 Z" id="Path" fill="#468BFF"></path>
            <path d="M142.671962,148.114114 L84,148.114114 C87.5306222,144.254428 89.5992143,139.254959 89.8398891,134 L198,134 C198,136.958629 196.601109,139.917257 193.808119,141.711835 L156.47882,165.574873 C150.485628,169.41139 142.667171,165.051051 142.667171,157.872738 L142.667171,148.114114 L142.671962,148.114114 Z" id="Path" fill="#FDBB11"></path>
            <path d="M156.58189,102.424373 L193.813263,126.292831 C196.6092,128.082601 198,131.041301 198,134 L90.1007084,134 C90.3387306,128.960818 88.8938503,123.987606 86,119.885549 L142.812495,119.885549 L142.812495,110.131542 C142.812495,102.953059 150.607664,98.587765 156.586669,102.424373 L156.58189,102.424373 Z" id="Path" fill="#F6D785"></path>
            <path d="M36.8013153,163.270414 L3,197.35497 C5.1606826,199.55202 8.2946343,200.466212 11.2850557,199.77177 L54.0372751,190.037436 C60.900269,188.478983 63.3639079,179.900301 58.3890696,174.884482 L51.6211968,168.060857 L77.0946518,142.377559 C82.3017827,137.125233 82.3017827,128.611969 77.0946518,123.359643 L76.7427034,123 L36.8013153,163.270414 Z" id="Path" fill="#FF9A9D"></path>
            <path d="M31.9411319,148.380285 L57.6212339,122.907607 C60.1439017,120.405617 63.5654733,119 67.1331821,119 C70.7008908,119 74.1224625,120.405617 76.6451302,122.907607 L77,123.259544 L36.7318736,163.194959 L2.64519471,197 C0.44800804,194.839383 -0.466241332,191.705527 0.22824393,188.715197 L9.95838904,145.964281 C11.5169387,139.09674 20.1009504,136.637932 25.1170823,141.612619 L31.9411319,148.380285 L31.9411319,148.380285 Z" id="Path" fill="#FE363B"></path>
        </g>
    </g>
</svg>