<?xml version="1.0" encoding="UTF-8"?>
<svg width="542px" height="390px" viewBox="0 0 542 390" version="1.1" xmlns="http://www.w3.org/2000/svg" xmlns:xlink="http://www.w3.org/1999/xlink">
    <title>tencentcloud</title>
    <g id="Page-1" stroke="none" stroke-width="1" fill="none" fill-rule="evenodd">
        <g id="tencentcloud" transform="translate(0.9402, 0)" fill-rule="nonzero">
            <path d="M468.459795,318.5 C459.759795,327.2 442.359795,340.2 411.959795,340.2 L224.959795,340.2 C281.459795,286.1 329.359795,240.6 333.759795,236.2 C342.059795,227.8 350.759795,219.9 359.859795,212.4 C381.659795,192.9 398.959795,190.7 414.259795,190.7 C435.959795,190.7 453.359795,199.4 468.659795,212.3 C498.959795,240.5 498.959795,290.4 468.459795,318.5 Z M505.459795,177.6 C482.459795,152.8 450.159795,138.6 416.259795,138.6 C385.859795,138.6 359.759795,149.5 335.759795,166.8 C326.959795,175.5 313.959795,184.1 303.059795,197.1 C294.359795,205.8 107.359795,387.8 107.359795,387.8 C118.259795,390 131.259795,390 142.159795,390 L379.259795,390 C396.659795,390 409.759795,390 422.759795,387.8 C452.759795,385.6 481.059795,373.4 503.259795,353.1 C553.259795,305.5 553.259795,225.4 505.459795,177.6 L505.459795,177.6 Z" id="Shape" fill="#00A3FF"></path>
            <path d="M200.959795,164.6 C177.059795,147.3 153.059795,138.6 124.859795,138.6 C90.9597955,138.6 58.6597955,152.8 35.6597955,177.6 C-12.7402045,227.3 -11.7402045,306.8 37.8597955,355.3 C59.5597955,374.8 81.3597955,385.6 107.459795,387.8 L157.459795,340.1 L129.159795,340.1 C100.859795,338 83.4597955,329.3 72.6597955,318.5 C42.6597955,288.9 41.7597955,240.9 70.4597955,210.2 C85.6597955,195 103.059795,188.5 124.859795,188.5 C137.959795,188.5 157.459795,190.6 177.059795,210.1 C185.759795,218.8 209.659795,236.1 218.359795,244.8 L220.459795,244.8 L253.059795,212.3 L253.059795,210.1 C237.959795,195 214.059795,175.5 200.959795,164.6" id="Path" fill="#00C8DC"></path>
            <path d="M429.359795,110.5 C404.659795,44.2 341.359795,0.1 270.559795,0 C185.759795,0 118.359795,62.8 105.259795,140.8 C111.759795,140.8 118.359795,138.7 127.059795,138.7 C135.759795,138.7 146.659795,140.8 155.359795,140.8 C166.259795,86.6 214.059795,47.6 270.659795,47.6 C318.459795,47.6 359.859795,75.8 379.359795,116.9 C379.359795,116.9 381.559795,119.1 381.559795,116.9 C396.659795,114.8 414.059795,110.5 429.359795,110.5 L429.359795,110.5" id="Path" fill="#006EFF"></path>
        </g>
    </g>
</svg>