<?xml version="1.0" encoding="UTF-8"?>
<svg width="240px" height="240px" viewBox="0 0 240 240" version="1.1" xmlns="http://www.w3.org/2000/svg" xmlns:xlink="http://www.w3.org/1999/xlink">
    <title>tether</title>
    <g id="Page-1" stroke="none" stroke-width="1" fill="none" fill-rule="evenodd">
        <g id="tether">
            <rect id="box" x="0" y="0" width="240" height="240"></rect>
            <g id="shape" transform="translate(0, 15)">
                <path d="M43.9418093,1.03139886 L0.179977565,93.489231 C-0.161833154,94.1951035 -0.00707784075,95.0425738 0.56180644,95.5802004 L118.751985,209.495362 C119.449533,210.168213 120.550467,210.168213 121.248015,209.495362 L239.438194,95.5873125 C240.007078,95.049686 240.161833,94.2022157 239.820022,93.4963431 L196.058191,1.038511 C195.769762,0.404329488 195.139367,0 194.446024,0 L45.5681174,0 C44.8713132,-0.00858110499 44.2344357,0.395270136 43.9418093,1.03139886 L43.9418093,1.03139886 Z" id="Path" fill="#50AF95"></path>
                <path d="M135.694561,102.182183 L135.694561,102.182183 C134.845785,102.246029 130.46044,102.508508 120.67829,102.508508 C112.897839,102.508508 107.373718,102.274405 105.435679,102.182183 L105.435679,102.182183 C75.3677707,100.855601 52.9247051,95.6060248 52.9247051,89.3207217 C52.9247051,83.0354187 75.3677707,77.7929368 105.435679,76.4450727 L105.435679,96.9538889 C107.402011,97.0957693 113.032229,97.4291883 120.81268,97.4291883 C130.149222,97.4291883 134.824566,97.0390171 135.666269,96.9609829 L135.666269,76.4592608 C165.670519,77.8000308 188.064072,83.0496067 188.064072,89.3207217 C188.064072,95.5918367 165.677592,100.841413 135.666269,102.175089 L135.666269,102.175089 L135.694561,102.182183 Z M135.694561,74.3381484 L135.694561,55.9859148 L177.567536,55.9859148 L177.567536,28 L63.5627041,28 L63.5627041,55.9859148 L105.428606,55.9859148 L105.428606,74.3310543 C71.3997405,75.8988331 45.8091286,82.6594356 45.8091286,90.7608081 C45.8091286,98.8621806 71.3997405,105.615689 105.428606,107.190562 L105.428606,166 L135.687488,166 L135.687488,107.16928 C169.638549,105.601501 195.186722,98.8479926 195.186722,90.7537141 C195.186722,82.6594356 169.659768,75.9059271 135.687488,74.3310543 L135.687488,74.3310543 L135.694561,74.3381484 Z" id="Shape" fill="#FFFFFF"></path>
            </g>
        </g>
    </g>
</svg>