<?xml version="1.0" encoding="UTF-8"?>
<svg width="240px" height="240px" viewBox="0 0 240 240" version="1.1" xmlns="http://www.w3.org/2000/svg" xmlns:xlink="http://www.w3.org/1999/xlink">
    <title>togetherai</title>
    <g id="Page-1" stroke="none" stroke-width="1" fill="none" fill-rule="evenodd">
        <g id="togetherai">
            <path d="M184.62,110.76 C215.205529,110.76 240,85.9655294 240,55.38 C240,24.7944706 215.205529,0 184.62,0 C154.034471,0 129.24,24.7944706 129.24,55.38 C129.24,85.9655294 154.034471,110.76 184.62,110.76 L184.62,110.76 Z M184.62,240 C215.205529,240 240,215.205529 240,184.62 C240,154.034471 215.205529,129.24 184.62,129.24 C154.034471,129.24 129.24,154.034471 129.24,184.62 C129.24,215.205529 154.034471,240 184.62,240 L184.62,240 Z M55.38,240 C85.9655294,240 110.76,215.205529 110.76,184.62 C110.76,154.034471 85.9655294,129.24 55.38,129.24 C24.7944706,129.24 0,154.034471 0,184.62 C0,215.205529 24.7944706,240 55.38,240 Z" id="Shape" fill="#FFFFFF"></path>
            <circle id="Oval" fill="#0F6FFF" cx="55.5" cy="55.5" r="55.5"></circle>
        </g>
    </g>
</svg>