<?xml version="1.0" encoding="UTF-8"?>
<svg width="240px" height="240px" viewBox="0 0 240 240" version="1.1" xmlns="http://www.w3.org/2000/svg" xmlns:xlink="http://www.w3.org/1999/xlink">
    <title>toggl</title>
    <g id="Page-1" stroke="none" stroke-width="1" fill="none" fill-rule="evenodd">
        <g id="toggl" fill-rule="nonzero">
            <path d="M119.993182,0 C96.2595455,0 73.0595455,7.04040643 53.3268182,20.2269924 C33.5936365,33.4135783 18.2140001,52.1554348 9.13254558,74.0826993 C0.0510751426,96.0099637 -2.32434531,120.137682 2.30665923,143.414946 C6.93768195,166.69221 18.367091,188.073565 35.1496819,204.854923 C51.9322728,221.636734 73.3140909,233.064912 96.5918182,237.694456 C119.869091,242.324454 143.996818,239.947637 165.923636,230.864913 C187.850454,221.782189 206.591363,206.401286 219.776818,186.667657 C232.962273,166.934028 240,143.733582 240,119.999955 C240,104.240415 236.897273,88.635421 230.866818,74.0754265 C224.835909,59.515432 215.996363,46.2858916 204.852273,35.142714 C193.708636,23.9994 180.478636,15.1604943 165.918182,9.13063291 C151.358182,3.10079883 135.752727,0 119.993182,0 Z" id="Shape" fill="#FFDE91"></path>
            <path d="M94.8337981,148.795074 C94.8337981,161.549765 97.1527083,171.378381 101.782543,178.070497 C108.905493,188.29236 116.859365,195 136.217873,195 C147.440405,195 156.834699,192.436988 163,189.023664 L163,150.902746 C160.07784,151.938472 156.992846,152.447279 153.890579,152.405023 C146.41948,152.405023 143.35662,150.124011 140.594516,146.640833 C138.805858,144.360684 137.911573,141.018938 137.911573,136.677686 L137.911573,116.382894 L163,116.382894 L163,80.007359 L137.911573,80.007359 L137.911573,45 L105.85843,45 L105.85843,58.0844679 C105.85843,72.5843701 94.7388405,84.316444 81.0232804,84.316444 C80.0126762,84.3198073 79.0028878,84.2594403 78,84.1356016 L78,116.375046 L94.8337981,116.375046 L94.8337981,148.795074 Z" id="Path" fill="#2C1138"></path>
        </g>
    </g>
</svg>