<?xml version="1.0" encoding="UTF-8"?>
<svg width="240px" height="240px" viewBox="0 0 240 240" version="1.1" xmlns="http://www.w3.org/2000/svg" xmlns:xlink="http://www.w3.org/1999/xlink">
    <title>tomcat</title>
    <g id="Page-1" stroke="none" stroke-width="1" fill="none" fill-rule="evenodd">
        <g id="tomcat" transform="translate(-1.0056, 0)">
            <rect id="ViewBox" x="1.005625" y="0" width="240" height="240"></rect>
            <path d="M42.533125,146.82375 C45.4138104,150.362579 48.4525182,153.769786 51.64,157.035 C41.91625,159.96 35.54125,165.39375 31.56625,170.191875 C25.27375,177.785625 21.94375,187.813125 22.710625,196.419375 L5.966875,196.419375 C9.323125,189.13125 22.729375,168.07875 42.535,146.825625 L42.533125,146.82375 Z M236.5,200.985 L216.143125,200.985 C169.436875,176.611875 128.430625,159.425625 84.870625,155.671875 C84.960625,149.606875 86.0425,142.749375 88.11625,135.099375 L84.10375,134.019375 C81.97375,141.879375 80.85625,148.99125 80.72875,155.356875 C76.189375,155.053125 71.621875,154.906875 67.009375,154.906875 C63.1075,154.906875 59.546875,155.265 56.299375,155.893125 C52.065625,151.666875 48.458125,147.628125 45.39625,143.799375 C65.485,122.87625 98.576875,103.94625 127.376875,96.825 C135.48625,123.78 152.89375,142.24875 174.019375,154.674375 C175.568494,153.791679 177.091041,152.863144 178.585,151.89 L215.44,191.565 L217.0525,191.428125 C227.1175,190.561875 232.838125,196.021875 234.35125,197.720625 C235.466875,198.95625 236.1325,200.090625 236.5,200.985" id="Shape" fill="#D1A41A" fill-rule="nonzero"></path>
            <path d="M218.520625,68.2725 C219.26875,104.8875 200.588125,134.02875 174.43375,148.9725 C130.043125,126.8625 121.684375,70.83 129.25,40.775625 C131.35375,52.269375 135.1825,59.475 143.4475,63.0075 C161.47375,57.85125 186.28,57.444375 204.55375,62.4825 C212.16625,56.9475 215.1175,48.4875 216.731875,41.098125 C218.741875,49.695 218.513125,68.274375 218.520625,68.274375 L218.520625,68.2725 Z" id="Path" fill="#FFDC76" fill-rule="nonzero"></path>
            <path d="M93.060625,109.21125 L106.860625,102.939375 L113.63125,123.005625 L93.060625,109.21125 Z M79.013125,116.48625 L87.045625,111.72 L94.315,124.26 L79.013125,116.48625 Z M63.46,126.76875 L70.48375,121.5 L73.995625,134.0475 L63.46,126.76875 Z M187.635625,159.886875 L182.61625,155.11875 L176.095,165.155625 L187.635625,159.886875 Z M196.924375,170.92125 L192.9025,166.6575 L182.36875,174.6825 L196.924375,170.92125 Z M180.116875,57.5325 L167.321875,57.78375 L175.099375,74.8425 L180.116875,57.5325 Z M129.184375,89.893125 L127.93,82.618125 L140.228125,89.14125 L129.184375,89.893125 Z M132.191875,100.68 L130.9375,95.915625 L138.465625,98.925 L132.191875,100.68 Z M216.98875,92.90625 L218.75125,87.38625 L208.714375,91.65 L216.98875,92.90625 Z M213.225625,104.19375 L214.729375,99.67875 L206.951875,101.93625 L213.225625,104.19375 Z" id="Shape" fill="#000000" fill-rule="nonzero"></path>
            <path d="M123.889375,118.505625 L148.10125,118.505625 L148.10125,121.494375 L123.889375,121.494375 L123.889375,118.505625 Z M123.889375,111.331875 L148.10125,111.331875 L148.10125,114.320625 L123.889375,114.320625 L123.889375,111.331875 Z M197.820625,118.505625 L222.030625,118.505625 L222.030625,121.494375 L197.820625,121.494375 L197.820625,118.505625 Z M197.820625,111.331875 L222.030625,111.331875 L222.030625,114.320625 L197.820625,114.320625 L197.820625,111.331875 Z M189.2875,93.61125 L149.831875,93.61125 L149.831875,90.91875 L162.109375,90.91875 C163.6225,84.444375 163.920625,78.256875 162.098125,75.12 C161.318125,73.78875 160.241875,73.164375 158.708125,73.164375 C151.688125,73.164375 148.789375,80.5875 148.6675,80.9025 L148.669375,80.900625 L146.15125,79.955625 C146.295625,79.5675 149.8075,70.47375 158.708125,70.47375 C161.1925,70.47375 163.166875,71.61375 164.419375,73.768125 C166.643125,77.5875 166.3825,84.196875 164.875,90.91875 L186.41875,90.91875 C189.281875,82.509375 195.2575,78.54375 205.24375,78.54375 L205.24375,81.234375 C194.42125,81.234375 191.3875,85.8225 189.22375,90.91875 L200.98,90.91875 L200.951875,93.59625 L189.285625,93.609375 L189.2875,93.61125 Z" id="Shape" fill="#000000" fill-rule="nonzero"></path>
            <path d="M191.0575,106.895625 L191.07625,106.89375 C187.885,102.1875 186.8725,98.17125 188.2075,93.598125 L185.46625,93.61125 C184.511875,96.65625 184.894375,101.2425 187.2475,105.18 L159.8725,105.18 C161.5375,101.8425 163.080625,97.775625 164.209375,93.61125 L161.423125,93.61125 C160.178125,98.026875 158.4325,102.3975 156.465625,105.85875 L155.83,106.978125 L171.191875,116.6475 L162.544375,122.3475 L164.025625,124.59375 L173.69125,118.220625 L184.1275,125.030625 L185.56,122.754375 L175.885,116.769375 C175.885,116.769375 190.3525,107.371875 191.070625,106.9125 C191.065625,106.9075 191.061875,106.90125 191.059375,106.89375 L191.0575,106.895625 Z M173.659375,115.021875 L162.296875,107.86875 L184.5025,107.874375 L173.659375,115.021875 Z" id="Shape" fill="#000000" fill-rule="nonzero"></path>
            <path d="M223.031875,65.02875 C223.015,60.350625 221.558125,40.5825 218.880625,35.139375 C211.620625,37.8975 198.41125,46.8375 195.420625,55.97625 C181.091875,53.83875 164.93875,54.09 150.788125,56.53875 C148.425625,46.704375 136.560625,39.18 127.609375,34.93875 C123.833125,41.31 122.160625,56.083125 122.584375,66.5625 L122.535625,66.59625 C124.196875,110.59875 145.78375,137.99625 174.01,154.60125 C203.05375,138.0075 223.800625,105.65625 222.99625,65.008125 L223.03375,65.026875 L223.031875,65.02875 Z M198.866875,56.544375 L199.18375,56.6025 L198.865,56.54625 L198.866875,56.544375 Z M197.059375,56.233125 C197.314375,56.274375 197.57,56.318125 197.82625,56.364375 L197.059375,56.233125 Z M218.515,68.203125 C219.26125,104.818125 200.580625,133.959375 174.428125,148.903125 C130.039375,126.7875 121.676875,70.760625 129.24625,40.70625 C131.351875,52.194375 135.17125,59.401875 143.4475,62.93625 C161.46625,57.78 186.2725,57.373125 204.54625,62.41125 C212.160625,56.874375 215.11375,48.418125 216.72625,41.02875 C218.741875,49.6275 218.5075,68.20125 218.515,68.205 L218.515,68.203125 Z" id="Shape" fill="#000000" fill-rule="nonzero"></path>
            <path d="M237.450625,194.878125 C232.8925,189.778125 223.961875,187.365 216.503125,187.543125 C211.21,181.243125 180.521875,148.925625 180.521875,148.925625 L178.395625,151.605 L215.445625,191.491875 L217.0525,191.353125 C227.119375,190.490625 232.84,195.950625 234.356875,197.64375 C235.466875,198.886875 236.138125,200.019375 236.501875,200.91 L216.139375,200.91 C169.43125,176.535 128.426875,159.350625 84.865,155.604375 C84.95875,149.5425 86.03875,142.68 88.10875,135.035625 L84.10375,133.948125 C81.9775,141.810625 80.851875,148.924375 80.726875,155.289375 C76.190625,154.986875 71.61875,154.834375 67.01125,154.831875 C63.101875,154.831875 59.543125,155.195625 56.2975,155.825625 C52.061875,151.59375 48.45625,147.560625 45.390625,143.731875 C65.621875,122.655 99.034375,103.603125 127.980625,96.598125 L127.04125,92.5425 C95.869375,100.06125 61.748125,120.523125 42.735625,140.293125 C33.911875,128.383125 30.41125,118.610625 29.370625,111.204375 C28.058125,101.85 30.289375,93.27 35.828125,86.38875 C44.49625,75.620625 56.813125,74.86125 69.476875,76.99125 C69.23125,78.991875 69.49375,80.904375 70.294375,82.085625 C73.643125,87.03375 91.645,88.771875 102.38875,83.9775 C94.459375,72.86625 78.398125,67.44 73.94875,69.615 C72.475,70.335 71.36125,71.65875 70.6,73.2 C66.221875,72.41625 61.87375,71.833125 58.6975,71.8575 C47.528125,71.94 38.989375,75.841875 32.59375,83.788125 C26.318125,91.5825 23.78125,101.263125 25.25875,111.781875 C26.6575,121.745625 31.590625,132.343125 39.8575,143.330625 C38.48375,144.805625 37.1575,146.258125 35.87875,147.688125 C15.73,170.235 1,194.413125 1,198.42 L1,200.495625 L27.581875,200.495625 L27.116875,198.03375 C25.616875,190.09875 28.613125,180.18375 34.75375,172.77 C38.610625,168.118125 44.995,162.80625 55.020625,160.3575 C63.934375,169.0575 75.293125,178.295625 87.934375,187.209375 L107.689375,187.209375 L107.689375,185.13375 C107.689375,182.791875 106.526875,180.7425 104.419375,179.3625 C101.2975,177.3225 96.480625,177.04125 92.055625,178.550625 C87.836875,173.851875 85.470625,167.57625 84.960625,159.78 C127.8325,163.575 168.840625,180.88875 215.108125,205.06125 L240.566875,205.06125 L240.900625,203.3925 C241.376875,201.016875 240.08125,197.833125 237.439375,194.878125 L237.450625,194.878125 Z M31.568125,170.116875 C25.279375,177.706875 21.945625,187.7325 22.710625,196.33875 L5.96125,196.33875 C9.326875,189.058125 22.729375,168.0075 42.533125,146.745 C45.4123728,150.286816 48.4517857,153.695363 51.641875,156.96 C41.918125,159.883125 35.543125,165.316875 31.56625,170.116875 L31.568125,170.116875 Z" id="Shape" fill="#000000" fill-rule="nonzero"></path>
        </g>
    </g>
</svg>