<?xml version="1.0" encoding="UTF-8"?>
<svg width="240px" height="240px" viewBox="0 0 240 240" version="1.1" xmlns="http://www.w3.org/2000/svg" xmlns:xlink="http://www.w3.org/1999/xlink">
    <title>toncoin</title>
    <g id="Page-1" stroke="none" stroke-width="1" fill="none" fill-rule="evenodd">
        <g id="toncoin" fill-rule="nonzero">
            <path d="M120,240 C186.428571,240 240,186.428571 240,120 C240,53.5714286 186.428571,0 120,0 C53.5714286,0 0,53.5714286 0,120 C0,186.428571 53.5714286,240 120,240 Z" id="Path" fill="#0098EA"></path>
            <path d="M160.597968,67 L78.5888083,67 C63.639222,67 54.2423391,83.338326 61.5035668,96.6669604 L111.905029,184.80793 C115.322078,190.397357 123.437567,190.397357 126.854616,184.80793 L177.256078,96.6669604 C184.944437,83.338326 175.547554,67 160.597968,67 L160.597968,67 Z M112.33216,158.150661 L101.226753,136.652863 L74.744629,88.9277533 C73.0361048,85.9180617 75.17176,82.0484581 79.0159394,82.0484581 L112.33216,82.0484581 L112.33216,158.150661 L112.33216,158.150661 Z M164.442147,88.9277533 L137.960023,136.652863 L126.854616,158.150661 L126.854616,82.0484581 L160.170837,82.0484581 C164.015016,82.0484581 166.150671,85.9180617 164.442147,88.9277533 Z" id="Shape" fill="#FFFFFF"></path>
        </g>
    </g>
</svg>