<?xml version="1.0" encoding="UTF-8"?>
<svg width="240px" height="240px" viewBox="0 0 240 240" version="1.1" xmlns="http://www.w3.org/2000/svg" xmlns:xlink="http://www.w3.org/1999/xlink">
    <title>toolify</title>
    <g id="Page-1" stroke="none" stroke-width="1" fill="none" fill-rule="evenodd">
        <g id="toolify" transform="translate(120, 120) rotate(-90) translate(-120, -120)translate(0, 0)">
            <path d="M152.882922,201.333328 C167.302734,195.507346 181.097956,199.940417 194.268589,214.63254 C189.198209,224.094595 142.120804,242.788399 132.350973,239.648881 C131.619128,219.931161 138.463111,207.159311 152.882922,201.333328 Z M156.992479,38.6666716 C171.412291,44.4926537 185.207513,40.0595831 198.378146,25.3674598 C193.307766,15.9054048 146.230361,-2.78839888 136.46053,0.351119132 C135.728685,20.0688386 142.572668,32.8406895 156.992479,38.6666716 Z M83.0075208,201.333328 C68.587709,195.507346 54.7924866,199.940417 41.6218536,214.63254 C46.6922341,224.094595 93.7696388,242.788399 103.53947,239.648881 C104.271315,219.931161 97.4273325,207.159311 83.0075208,201.333328 Z M87.1170777,38.6666716 C72.697266,44.4926537 58.9020436,40.0595831 45.7314105,25.3674598 C50.801791,15.9054048 97.8791958,-2.78839888 107.649027,0.351119132 C108.380872,20.0688386 101.536889,32.8406895 87.1170777,38.6666716 Z M38.6666716,152.882922 C44.4926537,167.302734 40.0595831,181.097956 25.3674598,194.268589 C15.9054048,189.198209 -2.78839888,142.120804 0.351119132,132.350973 C20.0688386,131.619128 32.8406895,138.463111 38.6666716,152.882922 Z M201.333328,156.992479 C195.507346,171.412291 199.940417,185.207513 214.63254,198.378146 C224.094595,193.307766 242.788399,146.230361 239.648881,136.46053 C219.931161,135.728685 207.159311,142.572668 201.333328,156.992479 Z M38.6666716,83.0075208 C44.4926537,68.587709 40.0595831,54.7924866 25.3674598,41.6218536 C15.9054048,46.6922341 -2.78839888,93.7696388 0.351119132,103.53947 C20.0688386,104.271315 32.8406895,97.4273325 38.6666716,83.0075208 Z M201.333328,87.1170777 C195.507346,72.697266 199.940417,58.9020436 214.63254,45.7314105 C224.094595,50.801791 242.788399,97.8791958 239.648881,107.649027 C219.931161,108.380872 207.159311,101.536889 201.333328,87.1170777 Z" id="Combined-Shape" fill="#7150E6"></path>
            <path d="M120.305094,45.5142807 C161.726126,45.5142807 195.304508,79.322651 195.304508,121.027389 C195.304508,162.732127 161.726126,196.540498 120.305094,196.540498 C78.8840613,196.540498 45.3056799,162.732127 45.3056799,121.027389 C45.3056799,79.322651 78.8840613,45.5142807 120.305094,45.5142807 Z M120.305094,79.4181254 C97.6606389,79.4181254 79.2095246,97.9956172 79.2095246,121.027389 C79.2095246,144.059161 97.6606389,162.636653 120.305094,162.636653 C142.949549,162.636653 161.400663,144.059161 161.400663,121.027389 C161.400663,97.9956172 142.949549,79.4181254 120.305094,79.4181254 Z" id="Oval" fill="#704EE4" fill-rule="nonzero" transform="translate(120.3051, 121.0274) rotate(90) translate(-120.3051, -121.0274)"></path>
        </g>
    </g>
</svg>