<?xml version="1.0" encoding="UTF-8"?>
<svg width="240px" height="240px" viewBox="0 0 240 240" version="1.1" xmlns="http://www.w3.org/2000/svg" xmlns:xlink="http://www.w3.org/1999/xlink">
    <title>tor</title>
    <g id="Page-1" stroke="none" stroke-width="1" fill="none" fill-rule="evenodd">
        <g id="tor" transform="translate(-33, 27)">
            <rect id="box" x="33" y="-27" width="240" height="240"></rect>
            <g id="shape" transform="translate(32.8596, 19.5753)" fill-rule="nonzero">
                <path d="M135.276594,11.3205984 L131.399008,26.7465411 C136.891663,15.8514603 145.615246,7.65309628 155.632145,0.4247285 C148.308342,8.94695121 141.631198,17.4699646 137.538322,25.9921873 C144.431545,16.2827453 153.693747,10.8893134 164.140438,7.3292376 C150.246741,19.7353956 139.218625,33.0477852 130.817583,46.4247285 L124.140438,43.5123701 C125.324139,32.8321427 129.35257,21.8934002 135.276594,11.3205984 L135.276594,11.3205984 Z" id="path2554" fill="#ABCD03"></path>
                <path d="M117.728213,40.4247285 L130.360775,45.7246902 C130.360775,48.9731852 130.09965,58.8811981 132.108279,61.8038924 C153.117783,89.1672709 149.58308,144.017681 127.852346,145.424729 C94.760803,145.424729 82.140438,122.690812 82.140438,101.795958 C82.140438,82.7417667 104.727922,70.0751727 118.217235,58.8164185 C121.642669,55.7851239 121.047827,49.0857965 117.728213,40.4247285 Z" id="path2534" fill="#FFFCDB"></path>
                <path d="M130.140438,45.4247285 L134.718938,47.7632777 C134.288524,50.7807656 134.934146,57.465334 137.947837,59.1891618 C151.298574,67.4894241 163.894114,76.5442557 168.847036,85.5990873 C186.503496,117.507274 156.465914,147.042821 130.519636,144.240022 C144.623205,133.783396 148.714509,112.332625 143.439171,88.9401875 C141.286309,79.777222 137.947837,71.4769597 132.026088,62.0985158 C129.460777,57.4949643 130.356434,51.7856846 130.140438,45.4247285 Z" id="path2536" fill="#FFFFFF"></path>
                <path d="M128.336347,44.7787012 L137.810604,46.0764145 C135.011212,55.3757694 143.302173,61.8635442 145.993562,63.3782029 C152.022786,66.7305629 157.836785,70.1906039 162.4667,74.4075783 C171.188093,82.40922 176.140438,93.6555408 176.140438,105.550322 C176.140438,117.336631 170.756872,128.690633 161.713048,136.259967 C153.207659,143.396995 141.472438,146.424729 130.059656,146.424729 C122.953569,146.424729 116.601134,146.100894 109.711052,143.829302 C93.992362,138.530768 82.2563606,125.014438 81.287492,108.793418 C80.4258376,96.1417029 83.2252291,86.5177217 93.0234934,76.4614333 C98.0830526,71.1628991 108.31175,65.1074316 115.310623,60.2412046 C118.756452,57.8619316 122.41671,51.1572115 115.417837,38.5062882 L116.817927,37.4247285 L127.189779,44.4018417 L118.433233,40.7770886 C119.186885,41.8586483 121.232625,46.7248752 121.663846,48.1302694 C122.632715,52.1310903 122.202282,56.025022 121.340627,57.7542507 C116.926718,65.7566841 109.390198,67.9190118 103.899417,72.4606125 C94.2091552,80.4622541 83.6580272,86.842348 84.8421122,108.793418 C85.3805477,119.60664 93.7787221,132.799135 106.374801,138.963075 C113.480888,142.423908 121.663846,143.829302 129.954018,144.261609 C137.382536,144.586235 151.594718,140.152316 159.346454,133.664541 C167.636626,126.744459 172.266541,116.255072 172.266541,105.550322 C172.266541,94.7363087 167.959845,84.4638667 159.88489,77.2183667 C155.254975,73.0013923 147.611233,67.9190118 142.874105,65.2151125 C138.136976,62.512005 132.214974,54.9426705 134.152711,47.6979623 L128.336347,44.7787012 Z" id="path2538" fill="#000000"></path>
                <path d="M124.924653,60.4247285 C123.956771,65.360083 122.880997,74.26383 118.578686,77.5896761 C116.750027,78.8763402 114.921368,80.1645753 112.985604,81.4512394 C105.24176,86.7086527 97.4971286,91.6424361 93.9484903,104.301703 C93.1956057,106.984217 93.8413854,109.880389 94.4871651,112.562118 C96.4229292,120.28603 101.908119,128.65406 106.21043,133.589414 C106.21043,133.803858 107.071207,134.340361 107.071207,134.554805 C110.620632,138.739213 111.696407,139.919048 125.140438,142.922049 L124.817548,144.424729 C116.750815,142.279503 110.082745,140.348721 105.88754,135.520196 C105.88754,135.413367 105.134655,134.661634 105.134655,134.661634 C100.617347,129.511836 95.1313698,120.930148 93.0885008,112.884177 C92.3356161,109.66516 91.690624,107.198661 92.5506135,103.872029 C96.2071443,90.78466 104.166773,85.6348616 112.233507,80.1637898 C114.062166,78.983955 116.212927,77.9101638 117.933694,76.515885 C121.267335,74.049386 123.095206,66.5391323 124.924653,60.4247285 L124.924653,60.4247285 Z" id="path2540" fill="#000000"></path>
                <path d="M128.487866,81.4247285 C128.596516,87.0241153 128.046725,89.8330727 129.454413,93.8177672 C130.320439,96.1861927 133.246845,99.4167598 134.113664,102.539707 C135.304846,106.739641 136.602299,111.369275 136.492856,114.168968 C136.492856,117.399921 136.289633,123.427028 134.881945,129.888162 C133.808437,135.226644 131.334387,139.807742 127.174354,142.404392 C122.913007,141.532048 117.90959,140.042897 114.956212,137.526019 C109.216015,132.57314 104.13188,124.291141 103.481568,117.076273 C102.940698,111.154429 108.45626,102.420655 116.145808,98.0062694 C122.644175,94.237603 124.155754,89.9424665 125.563443,83.0508529 C123.614092,89.0807191 121.783304,94.1355021 115.501444,97.3656749 C106.403414,102.103314 101.735043,110.056352 102.168056,117.593676 C102.817575,127.284195 106.721432,133.850584 114.410981,139.127505 C117.660164,141.388705 123.730474,143.778221 127.52132,144.424729 L127.52132,143.931964 C130.396121,143.396718 134.118169,138.702608 135.972408,132.351987 C137.597396,126.645375 138.237993,119.341415 138.12855,114.711009 C138.019901,112.01933 136.825546,106.189716 134.658896,100.913583 C133.467713,98.0066636 131.637718,95.0999416 130.445743,93.0539815 C129.147497,91.0064446 129.138179,86.5928474 128.487866,81.4247285 Z" id="path2542" fill="#000000"></path>
                <path d="M127.835495,102.424729 C127.939163,106.220302 129.402712,111.083436 130.027007,116.072419 C130.548396,119.759954 130.322004,123.463577 130.217573,126.717572 C130.114706,130.483909 128.910137,137.232455 127.263797,140.514098 C125.711269,139.772437 125.104346,138.926628 124.095633,137.561245 C122.847043,135.717473 121.998833,133.873701 121.165677,131.705165 C120.541382,130.078168 119.811513,128.216133 119.498222,126.047597 C119.082026,122.794396 119.198652,117.704967 122.737849,112.499218 C125.444651,108.378118 126.064945,108.064669 127.001768,103.293255 C125.751654,107.522336 124.819785,107.953503 121.904121,111.531476 C118.677454,115.435794 118.140438,121.186456 118.140438,125.849086 C118.140438,127.801642 118.887839,129.967994 119.617326,132.027746 C120.44972,134.197076 121.164153,136.356877 122.309075,137.983081 C124.030238,140.61996 126.233199,142.119434 127.311438,142.399954 C127.318299,142.401542 127.328208,142.398366 127.335221,142.399954 C127.358318,142.405513 127.384692,142.420202 127.406645,142.424729 L127.406645,142.300659 C129.42651,139.954757 130.642033,137.62426 131.051225,135.278327 C131.571851,132.458674 131.691527,129.632867 132.004056,126.270882 C132.315822,123.45123 132.08962,119.653314 131.360895,115.749798 C130.320403,110.8696 128.564145,105.89391 127.835419,102.424729 L127.835495,102.424729 Z" id="path2544" fill="#000000"></path>
                <path d="M128.460749,55.4247285 C128.56778,61.0474565 128.99434,71.538306 130.488083,75.6470703 C130.914643,77.0525544 134.86228,83.2168886 137.635704,90.6782272 C139.556788,95.8694122 139.983349,100.627471 140.30366,102.032955 C141.584122,108.197289 139.983349,118.578867 137.848984,128.419631 C136.782583,133.718503 133.154476,140.315172 128.993559,142.910765 L128.140438,144.424729 C130.488083,144.316249 136.248992,138.585041 138.276326,131.447558 C141.691153,119.335849 143.077865,113.712329 141.477873,100.302824 C141.264592,99.0042354 140.731001,94.5716159 138.703667,89.8127658 C135.716182,82.5668027 131.448234,75.6462785 130.915424,74.2400027 C129.954492,71.969849 128.674029,62.1290853 128.460749,55.4247285 L128.460749,55.4247285 Z" id="path2550" fill="#000000"></path>
                <path d="M130.27773,48.4247285 C129.954179,54.1623034 129.867643,56.275234 130.957727,60.4623842 C132.157218,65.0795702 138.265678,71.7360854 140.774068,79.3595917 C145.572831,93.9619437 144.37334,113.073776 140.882677,127.997672 C139.574577,133.257947 133.356709,140.882239 127.140438,143.350818 L131.721184,144.424729 C134.229574,144.317023 140.663862,138.412088 143.17305,131.647867 C147.207557,121.01804 147.971813,108.348885 146.33549,95.0350679 C146.226082,93.7465326 144.044318,82.2582065 141.97276,77.4263957 C139.027539,70.2329252 133.791944,63.7902487 133.247301,62.3955802 C132.266625,60.0331344 130.111606,55.1285084 130.27773,48.4247285 Z" id="path2552" fill="#000000"></path>
                <rect id="rect2556" fill="#000000" x="127.090438" y="44.4247285" width="1" height="100"></rect>
                <path d="M6.13824552,14.4247285 L92.1434149,14.4247285 C95.3556297,14.4247285 98.140438,17.1177572 98.140438,20.4576176 L98.140438,45.9893279 C98.140438,49.3291883 95.3556297,52.0230058 92.1434149,52.0230058 L74.471528,52.0230058 C70.5080188,52.0230058 68.7944716,54.2845504 68.7944716,56.8702997 L68.7944716,140.469366 C68.7944716,143.270463 66.5452939,145.424729 63.8679254,145.424729 L34.6286145,145.424729 C31.9504618,145.424729 29.8087238,143.270463 29.8087238,140.469366 L29.8087238,56.1169773 C29.8087238,53.5312281 27.4521063,52.0237946 25.6319035,52.0237946 L6.13824552,52.0237946 C2.81780667,52.0237946 0.140438022,49.3299771 0.140438022,45.9901167 L0.140438022,20.4576176 C0.140438022,17.1177572 2.81702244,14.4247285 6.13824552,14.4247285 Z" id="path2528" fill="#FFFFFF"></path>
                <path d="M227.431228,48.4247285 L235.076978,48.4247285 C237.877108,48.4247285 240.138661,50.6880669 240.138661,53.3822918 L240.138661,80.7585869 C240.138661,84.3153742 240.353934,85.7161502 236.046102,85.7161502 C227.53847,85.7161502 223.661973,90.2428269 223.661973,95.2003902 L223.661973,141.437055 C223.661973,143.593066 221.615694,145.424729 219.138868,145.424729 L191.676146,145.424729 C189.19932,145.424729 187.153041,143.593066 187.153041,141.437055 L187.153041,88.7331455 C187.123234,87.8063369 187.141371,86.4381614 187.261072,85.7161502 C188.768774,66.2078758 204.063058,50.5997903 223.445912,48.6401718 C224.095666,48.5745129 226.394627,48.4247285 227.431228,48.4247285 Z" id="path2532" fill="#FFFFFF"></path>
            </g>
        </g>
    </g>
</svg>