<?xml version="1.0" encoding="UTF-8"?>
<svg width="240px" height="240px" viewBox="0 0 240 240" version="1.1" xmlns="http://www.w3.org/2000/svg" xmlns:xlink="http://www.w3.org/1999/xlink">
    <title>tor</title>
    <defs>
        <linearGradient x1="50%" y1="100%" x2="50%" y2="0%" id="linearGradient-1">
            <stop stop-color="#420C5D" offset="0%"></stop>
            <stop stop-color="#951AD1" offset="100%"></stop>
        </linearGradient>
        <linearGradient x1="50%" y1="100%" x2="50%" y2="0%" id="linearGradient-2">
            <stop stop-color="#420C5D" offset="0%"></stop>
            <stop stop-color="#951AD1" offset="100%"></stop>
        </linearGradient>
    </defs>
    <g id="Page-1" stroke="none" stroke-width="1" fill="none" fill-rule="evenodd">
        <g id="tor" transform="translate(0, -0.3737)">
            <circle id="background" fill="#F2E4FF" fill-rule="nonzero" cx="120.5" cy="119.873721" r="115.5"></circle>
            <path d="M120.246161,218.548583 L120.246161,204.001819 C166.324777,203.868759 203.634751,166.482275 203.634751,120.370394 C203.634751,74.2618395 166.324777,36.8753561 120.246161,36.7422962 L120.246161,22.1955313 C174.358264,22.3319176 218.178189,66.2283527 218.178189,120.370394 C218.178189,174.515762 174.358264,218.415523 120.246161,218.548583 Z M120.246161,167.633243 C146.23607,167.496856 167.272828,146.396895 167.272828,120.370394 C167.272828,94.3472196 146.23607,73.2472582 120.246161,73.1108721 L120.246161,58.5674337 C154.272884,58.7004935 181.819593,86.3137329 181.819593,120.370394 C181.819593,154.430382 154.272884,182.043621 120.246161,182.176681 L120.246161,167.633243 Z M120.246161,94.929356 C134.187503,95.0624159 145.454344,106.395786 145.454344,120.370394 C145.454344,134.348329 134.187503,145.681699 120.246161,145.814758 L120.246161,94.929356 Z M0,120.370394 C0,186.647491 53.7229031,240.373721 120,240.373721 C186.273771,240.373721 240,186.647491 240,120.370394 C240,54.0966237 186.273771,0.373720558 120,0.373720558 C53.7229031,0.373720558 0,54.0966237 0,120.370394 Z" id="center" fill="url(#linearGradient-1)" fill-rule="nonzero"></path>
            <g id="half" transform="translate(66, 121.3737) scale(-1, 1) translate(-66, -121.3737)translate(12, 13.3737)">
                <g id="path-2-link" fill="#000000" fill-rule="nonzero">
                    <path d="M0,0 C59.6467529,0 108,48.3532472 108,108 C108,167.646753 59.6467529,216 0,216 L0,0 Z" id="path-2"></path>
                </g>
                <g id="path-2-link" fill="url(#linearGradient-2)">
                    <path d="M0,0 C59.6467529,0 108,48.3532472 108,108 C108,167.646753 59.6467529,216 0,216 L0,0 Z" id="path-2"></path>
                </g>
            </g>
        </g>
    </g>
</svg>