<?xml version="1.0" encoding="UTF-8"?>
<svg width="240px" height="240px" viewBox="0 0 240 240" version="1.1" xmlns="http://www.w3.org/2000/svg" xmlns:xlink="http://www.w3.org/1999/xlink">
    <title>tron</title>
    <g id="Page-1" stroke="none" stroke-width="1" fill="none" fill-rule="evenodd">
        <g id="tron">
            <rect id="box" x="0" y="0" width="240" height="240"></rect>
            <path d="M230.898739,72.3022253 C219.653802,61.9148631 204.098306,46.0525736 191.42901,34.8027229 L190.679348,34.2777299 C189.432029,33.2756615 188.025679,32.4897892 186.518721,31.9527607 L186.518721,31.9527607 C155.969976,26.2528364 13.7964896,-0.334310818 11.0227385,0.00318470394 C10.2455187,0.112083472 9.50261062,0.393999336 8.84871736,0.828173757 L8.13653802,1.39066629 C7.25959896,2.2816574 6.59354878,3.35805476 6.18741562,4.54062449 L6,5.02811802 L6,7.69058269 L6,8.10307722 C22.0052936,52.6899856 85.2018392,198.750547 97.6462361,233.025093 C98.3958986,235.350062 99.8202573,239.775003 102.481559,240 L103.081289,240 C104.505648,240 110.577914,231.975106 110.577914,231.975106 C110.577914,231.975106 219.129038,100.276854 230.111593,86.2520402 C231.533198,84.5244758 232.788229,82.6662194 233.859906,80.7021138 C234.416322,77.5761529 233.292199,74.3873734 230.898739,72.3022253 Z M138.427874,87.6395218 L184.757014,49.2025318 L211.932279,74.2521994 L138.427874,87.6395218 Z M120.435975,85.1270551 L40.6718889,19.727923 L169.726282,43.540107 L120.435975,85.1270551 Z M127.632735,102.264328 L209.270977,89.1020024 L115.938,201.60051 L127.632735,102.264328 Z M29.8392663,26.2528364 L113.763979,97.5018909 L101.619447,201.675509 L29.8392663,26.2528364 Z" id="Shape" fill="#FF060A" fill-rule="nonzero"></path>
        </g>
    </g>
</svg>