<?xml version="1.0" encoding="UTF-8"?>
<svg width="240px" height="240px" viewBox="0 0 240 240" version="1.1" xmlns="http://www.w3.org/2000/svg" xmlns:xlink="http://www.w3.org/1999/xlink">
    <title>tryhackme</title>
    <g id="Page-1" stroke="none" stroke-width="1" fill="none" fill-rule="evenodd">
        <g id="tryhackme" transform="translate(0, -0)" fill="#FFFFFF" fill-rule="nonzero">
            <g id="shape" transform="translate(120, 120) scale(-1, 1) rotate(-180) translate(-120, -120)translate(0, -0)">
                <polyline id="path32" points="138.832024 107.447699 138.832024 125.882741 133.946477 122.271823 130.723404 126.48956 139.350657 132.552301 145.021277 132.552301 145.021277 107.447699 138.832024 107.447699"></polyline>
                <path d="M163.188115,120.073392 C163.188115,120.871753 163.138477,121.756367 163.044873,122.728072 C162.945596,123.694046 162.762642,124.601307 162.49034,125.435875 C162.219455,126.27184 161.830857,126.9764 161.327381,127.543962 C160.822486,128.111524 160.168676,128.396703 159.354605,128.396703 C158.546207,128.396703 157.881051,128.111524 157.366229,127.543962 C156.845734,126.9764 156.447207,126.27184 156.163559,125.435875 C155.881329,124.601307 155.692702,123.694046 155.593425,122.728072 C155.494148,121.756367 155.443092,120.871753 155.443092,120.073392 C155.443092,119.249867 155.494148,118.348338 155.593425,117.36545 C155.692702,116.38298 155.881329,115.47544 156.163559,114.641012 C156.447207,113.805046 156.845734,113.100626 157.366229,112.532645 C157.881051,111.95991 158.546207,111.675989 159.354605,111.675989 C160.168676,111.675989 160.822486,111.95991 161.327381,112.532645 C161.830857,113.100626 162.219455,113.805046 162.49034,114.641012 C162.762642,115.47544 162.945596,116.38298 163.044873,117.36545 C163.138477,118.348338 163.188115,119.249867 163.188115,120.073392 Z M169.531915,120.073392 C169.531915,118.256075 169.348962,116.523892 168.977382,114.875865 C168.612894,113.226161 168.020068,111.779716 167.210252,110.534155 C166.39618,109.284121 165.349517,108.290328 164.058916,107.552078 C162.768315,106.815366 161.199739,106.443515 159.354605,106.443515 C157.510889,106.443515 155.93664,106.815366 154.634693,107.552078 C153.332746,108.290328 152.269064,109.284121 151.443647,110.534155 C150.623903,111.779716 150.025404,113.226161 149.653825,114.875865 C149.289336,116.523892 149.106383,118.256075 149.106383,120.073392 C149.106383,121.892107 149.289336,123.618558 149.653825,125.251347 C150.025404,126.88833 150.623903,128.319817 151.443647,129.543011 C152.269064,130.766205 153.332746,131.73777 154.634693,132.470289 C155.93664,133.195818 157.510889,133.556485 159.354605,133.556485 C161.199739,133.556485 162.768315,133.195818 164.058916,132.470289 C165.349517,131.73777 166.39618,130.766205 167.210252,129.543011 C168.020068,128.319817 168.612894,126.88833 168.977382,125.251347 C169.348962,123.618558 169.531915,121.892107 169.531915,120.073392" id="path34"></path>
                <polyline id="path36" points="204.196112 107.447699 204.196112 125.882741 199.312418 122.271823 196.085106 126.48956 204.714532 132.552301 210.382979 132.552301 210.382979 107.447699 204.196112 107.447699"></polyline>
                <path d="M229.571094,120.073392 C229.571094,120.871753 229.521455,121.756367 229.427851,122.728072 C229.327156,123.694046 229.145621,124.601307 228.873318,125.435875 C228.602434,126.27184 228.213836,126.9764 227.710359,127.543962 C227.205465,128.111524 226.5474,128.396703 225.737584,128.396703 C224.929185,128.396703 224.26403,128.111524 223.749207,127.543962 C223.228712,126.9764 222.828768,126.27184 222.546538,125.435875 C222.264307,124.601307 222.075681,123.694046 221.976404,122.728072 C221.877127,121.756367 221.82607,120.871753 221.82607,120.073392 C221.82607,119.249867 221.877127,118.348338 221.976404,117.36545 C222.075681,116.38298 222.264307,115.47544 222.546538,114.641012 C222.828768,113.805046 223.228712,113.100626 223.749207,112.532645 C224.26403,111.95991 224.929185,111.675989 225.737584,111.675989 C226.5474,111.675989 227.205465,111.95991 227.710359,112.532645 C228.213836,113.100626 228.602434,113.805046 228.873318,114.641012 C229.145621,115.47544 229.327156,116.38298 229.427851,117.36545 C229.521455,118.348338 229.571094,119.249867 229.571094,120.073392 Z M235.914894,120.073392 C235.914894,118.256075 235.73194,116.523892 235.360361,114.875865 C234.995872,113.226161 234.403047,111.779716 233.59323,110.534155 C232.779159,109.284121 231.732496,108.290328 230.441895,107.552078 C229.149876,106.815366 227.582718,106.443515 225.737584,106.443515 C223.89245,106.443515 222.319619,106.815366 221.017672,107.552078 C219.715725,108.290328 218.652043,109.284121 217.826626,110.534155 C217.001208,111.779716 216.408383,113.226161 216.036803,114.875865 C215.672315,116.523892 215.489362,118.256075 215.489362,120.073392 C215.489362,121.892107 215.672315,123.618558 216.036803,125.251347 C216.408383,126.88833 217.001208,128.319817 217.826626,129.543011 C218.652043,130.766205 219.715725,131.73777 221.017672,132.470289 C222.319619,133.195818 223.89245,133.556485 225.737584,133.556485 C227.582718,133.556485 229.149876,133.195818 230.441895,132.470289 C231.732496,131.73777 232.779159,130.766205 233.59323,129.543011 C234.403047,128.319817 234.995872,126.88833 235.360361,125.251347 C235.73194,123.618558 235.914894,121.892107 235.914894,120.073392" id="path38"></path>
                <polyline id="path40" points="137.813399 67.2803347 137.813399 85.7164036 132.92382 82.0991165 129.702128 86.3177621 138.330242 92.3849372 144 92.3849372 144 67.2803347 137.813399 67.2803347"></polyline>
                <polyline id="path42" points="159.260558 67.2803347 159.260558 85.7164036 154.37023 82.0991165 151.148936 86.3177621 159.777503 92.3849372 165.446809 92.3849372 165.446809 67.2803347 159.260558 67.2803347"></polyline>
                <polyline id="path44" points="180.704284 67.2803347 180.704284 85.7164036 175.811519 82.0991165 172.595745 86.3177621 181.221486 92.3849372 186.893617 92.3849372 186.893617 67.2803347 180.704284 67.2803347"></polyline>
                <path d="M207.10477,79.906871 C207.10477,80.7036041 207.055145,81.5882728 206.955896,82.5544462 C206.8609,83.5274699 206.672326,84.4280761 206.407188,85.2635344 C206.136379,86.0996917 205.747889,86.8030369 205.244552,87.3720321 C204.739798,87.9455009 204.080498,88.2288801 203.272324,88.2288801 C202.458479,88.2288801 201.799179,87.9455009 201.278829,87.3720321 C200.762732,86.8030369 200.364316,86.0996917 200.082164,85.2635344 C199.800012,84.4280761 199.611438,83.5274699 199.512189,82.5544462 C199.411522,81.5882728 199.361897,80.7036041 199.361897,79.906871 C199.361897,79.081758 199.411522,78.1800335 199.512189,77.1970838 C199.611438,76.2146933 199.800012,75.3086348 200.082164,74.4726173 C200.364316,73.63646 200.762732,72.9331148 201.278829,72.3641196 C201.799179,71.79121 202.458479,71.5072716 203.272324,71.5072716 C204.080498,71.5072716 204.739798,71.79121 205.244552,72.3641196 C205.747889,72.9331148 206.136379,73.63646 206.407188,74.4726173 C206.672326,75.3086348 206.8609,76.2146933 206.955896,77.1970838 C207.055145,78.1800335 207.10477,79.081758 207.10477,79.906871 L207.10477,79.906871 Z M213.446809,79.906871 C213.446809,78.087764 213.263906,76.3571518 212.89243,74.7074851 C212.520953,73.0576787 211.933964,71.6104457 211.120118,70.3610329 C210.311944,69.1153947 209.259901,68.1214007 207.96824,67.3847825 C206.677998,66.6420131 205.116946,66.2761506 203.272324,66.2761506 C201.427703,66.2761506 199.855309,66.6420131 198.553723,67.3847825 C197.252138,68.1214007 196.188751,69.1153947 195.363563,70.3610329 C194.538375,71.6104457 193.945714,73.0576787 193.574238,74.7074851 C193.208433,76.3571518 193.021277,78.087764 193.021277,79.906871 C193.021277,81.7199665 193.208433,83.4505787 193.574238,85.0833293 C193.945714,86.7222312 194.538375,88.1465366 195.363563,89.3698064 C196.188751,90.5985284 197.252138,91.571692 198.553723,92.3028578 C199.855309,93.0242374 201.427703,93.3891213 203.272324,93.3891213 C205.116946,93.3891213 206.677998,93.0242374 207.96824,92.3028578 C209.259901,91.571692 210.311944,90.5985284 211.120118,89.3698064 C211.933964,88.1465366 212.520953,86.7222312 212.89243,85.0833293 C213.263906,83.4505787 213.446809,81.7199665 213.446809,79.906871" id="path46"></path>
                <polyline id="path48" points="149.79401 38.1589958 149.79401 51.4317547 146.300501 48.8317909 144 51.8644283 150.166912 56.2343096 154.212766 56.2343096 154.212766 38.1589958 149.79401 38.1589958"></polyline>
                <polyline id="path50" points="181.456009 38.1589958 181.456009 51.4317547 177.963016 48.8317909 175.659574 51.8644283 181.821702 56.2343096 185.87234 56.2343096 185.87234 38.1589958 181.456009 38.1589958"></polyline>
                <path d="M138.223444,47.749011 C138.223444,48.3100691 138.189603,48.9345359 138.115183,49.6172627 C138.040323,50.2947054 137.902323,50.9304177 137.697521,51.5226382 C137.496674,52.1106585 137.205293,52.6023464 136.827038,53.0044765 C136.44937,53.4014579 135.957288,53.6021165 135.350646,53.6021165 C134.738436,53.6021165 134.239909,53.4014579 133.857699,53.0044765 C133.468018,52.6023464 133.170923,52.1106585 132.958063,51.5226382 C132.741834,50.9304177 132.603835,50.2947054 132.528975,49.6172627 C132.454555,48.9345359 132.415,48.3100691 132.415,47.749011 C132.415,47.1664102 132.454555,46.5323238 132.528975,45.844313 C132.603835,45.1557601 132.741834,44.5094797 132.958063,43.9225433 C133.170923,43.334523 133.468018,42.8428351 133.857699,42.440705 C134.239909,42.0384395 134.738436,41.843065 135.350646,41.843065 C135.957288,41.843065 136.44937,42.0384395 136.827038,42.440705 C137.205293,42.8428351 137.496674,43.334523 137.697521,43.9225433 C137.902323,44.5094797 138.040323,45.1557601 138.115183,45.844313 C138.189603,46.5323238 138.223444,47.1664102 138.223444,47.749011 Z M142.978723,47.749011 C142.978723,46.4687797 142.841017,45.2504666 142.567068,44.091904 C142.291508,42.932393 141.846305,41.9108093 141.239809,41.0381275 C140.627453,40.1548777 139.842231,39.4556213 138.875207,38.9369711 C137.908623,38.417779 136.729179,38.1589958 135.350646,38.1589958 C133.966399,38.1589958 132.786955,38.417779 131.808505,38.9369711 C130.829907,39.4556213 130.034431,40.1548777 129.415922,41.0381275 C128.797853,41.9108093 128.35265,42.932393 128.077383,44.091904 C127.797574,45.2504666 127.659574,46.4687797 127.659574,47.749011 C127.659574,49.0239583 127.797574,50.2418649 128.077383,51.3908078 C128.35265,52.5440864 128.797853,53.5491404 129.415922,54.412338 C130.034431,55.2697096 130.829907,55.9582624 131.808505,56.4716285 C132.786955,56.9797106 133.966399,57.2384937 135.350646,57.2384937 C136.729179,57.2384937 137.908623,56.9797106 138.875207,56.4716285 C139.842231,55.9582624 140.627453,55.2697096 141.239809,54.412338 C141.846305,53.5491404 142.291508,52.5440864 142.567068,51.3908078 C142.841017,50.2418649 142.978723,49.0239583 142.978723,47.749011" id="path52"></path>
                <path d="M168.861742,47.749011 C168.861742,48.3100691 168.826583,48.9345359 168.751869,49.6172627 C168.678621,50.2947054 168.540914,50.9304177 168.334354,51.5226382 C168.135119,52.1106585 167.842126,52.6023464 167.465629,53.0044765 C167.087668,53.4014579 166.595439,53.6021165 165.988944,53.6021165 C165.376588,53.6021165 164.878499,53.4014579 164.494678,53.0044765 C164.106462,52.6023464 163.803214,52.1106585 163.596654,51.5226382 C163.378374,50.9304177 163.236273,50.2947054 163.167419,49.6172627 C163.092706,48.9345359 163.053152,48.3100691 163.053152,47.749011 C163.053152,47.1664102 163.092706,46.5323238 163.167419,45.844313 C163.236273,45.1557601 163.378374,44.5094797 163.596654,43.9225433 C163.803214,43.334523 164.106462,42.8428351 164.494678,42.440705 C164.878499,42.0384395 165.376588,41.843065 165.988944,41.843065 C166.595439,41.843065 167.087668,42.0384395 167.465629,42.440705 C167.842126,42.8428351 168.135119,43.334523 168.334354,43.9225433 C168.540914,44.5094797 168.678621,45.1557601 168.751869,45.844313 C168.826583,46.5323238 168.861742,47.1664102 168.861742,47.749011 Z M173.617021,47.749011 C173.617021,46.4687797 173.479314,45.2504666 173.203901,44.091904 C172.924092,42.932393 172.483138,41.9108093 171.876642,41.0381275 C171.264286,40.1548777 170.480529,39.4556213 169.513652,38.9369711 C168.546774,38.417779 167.367477,38.1589958 165.988944,38.1589958 C164.603086,38.1589958 163.425253,38.417779 162.446656,38.9369711 C161.468059,39.4556213 160.672582,40.1548777 160.054367,41.0381275 C159.436151,41.9108093 158.989336,42.932393 158.715388,44.091904 C158.434114,45.2504666 158.297872,46.4687797 158.297872,47.749011 C158.297872,49.0239583 158.434114,50.2418649 158.715388,51.3908078 C158.989336,52.5440864 159.436151,53.5491404 160.054367,54.412338 C160.672582,55.2697096 161.468059,55.9582624 162.446656,56.4716285 C163.425253,56.9797106 164.603086,57.2384937 165.988944,57.2384937 C167.367477,57.2384937 168.546774,56.9797106 169.513652,56.4716285 C170.480529,55.9582624 171.264286,55.2697096 171.876642,54.412338 C172.483138,53.5491404 172.924092,52.5440864 173.203901,51.3908078 C173.479314,50.2418649 173.617021,49.0239583 173.617021,47.749011" id="path54"></path>
                <polyline id="path56" points="233.541116 38.1589958 233.541116 51.4317547 230.049524 48.8317909 227.744681 51.8644283 233.908209 56.2343096 237.957447 56.2343096 237.957447 38.1589958 233.541116 38.1589958"></polyline>
                <path d="M220.946848,47.749011 C220.946848,48.3100691 220.911689,48.9345359 220.838441,49.6172627 C220.763727,50.2947054 220.626021,50.9304177 220.41946,51.5226382 C220.220225,52.1106585 219.927232,52.6023464 219.550736,53.0044765 C219.172774,53.4014579 218.680546,53.6021165 218.07405,53.6021165 C217.461694,53.6021165 216.963606,53.4014579 216.579785,53.0044765 C216.191569,52.6023464 215.894181,52.1106585 215.675901,51.5226382 C215.470805,50.9304177 215.327239,50.2947054 215.252526,49.6172627 C215.177812,48.9345359 215.138258,48.3100691 215.138258,47.749011 C215.138258,47.1664102 215.177812,46.5323238 215.252526,45.844313 C215.327239,45.1557601 215.470805,44.5094797 215.675901,43.9225433 C215.894181,43.334523 216.191569,42.8428351 216.579785,42.440705 C216.963606,42.0384395 217.461694,41.843065 218.07405,41.843065 C218.680546,41.843065 219.172774,42.0384395 219.550736,42.440705 C219.927232,42.8428351 220.220225,43.334523 220.41946,43.9225433 C220.626021,44.5094797 220.763727,45.1557601 220.838441,45.844313 C220.911689,46.5323238 220.946848,47.1664102 220.946848,47.749011 Z M225.702128,47.749011 C225.702128,46.4687797 225.564421,45.2504666 225.290472,44.091904 C225.009199,42.932393 224.568244,41.9108093 223.961748,41.0381275 C223.349392,40.1548777 222.565636,39.4556213 221.598758,38.9369711 C220.631881,38.417779 219.452583,38.1589958 218.07405,38.1589958 C216.689657,38.1589958 215.51036,38.417779 214.531762,38.9369711 C213.553165,39.4556213 212.757689,40.1548777 212.139473,41.0381275 C211.521257,41.9108093 211.075908,42.932393 210.800494,44.091904 C210.520686,45.2504666 210.382979,46.4687797 210.382979,47.749011 C210.382979,49.0239583 210.520686,50.2418649 210.800494,51.3908078 C211.075908,52.5440864 211.521257,53.5491404 212.139473,54.412338 C212.757689,55.2697096 213.553165,55.9582624 214.531762,56.4716285 C215.51036,56.9797106 216.689657,57.2384937 218.07405,57.2384937 C219.452583,57.2384937 220.631881,56.9797106 221.598758,56.4716285 C222.565636,55.9582624 223.349392,55.2697096 223.961748,54.412338 C224.568244,53.5491404 225.009199,52.5440864 225.290472,51.3908078 C225.564421,50.2418649 225.702128,49.0239583 225.702128,47.749011" id="path58"></path>
                <polyline id="path60" points="216.179413 16.0669456 216.179413 29.3403553 212.687822 26.7348828 210.382979 29.7783431 216.546507 34.1422594 220.595745 34.1422594 220.595745 16.0669456 216.179413 16.0669456"></polyline>
                <path d="M204.606423,25.6569608 C204.606423,26.2180189 204.571263,26.8424856 204.498015,27.5252125 C204.423302,28.2026552 204.285595,28.8383675 204.0805,29.430588 C203.8798,30.0186083 203.588271,30.5102962 203.21031,30.9124263 C202.832349,31.3094077 202.34012,31.5100663 201.733624,31.5100663 C201.121269,31.5100663 200.62318,31.3094077 200.239359,30.9124263 C199.851143,30.5102962 199.553755,30.0186083 199.341335,29.430588 C199.13038,28.8383675 198.986813,28.2026552 198.9121,27.5252125 C198.837387,26.8424856 198.797833,26.2180189 198.797833,25.6569608 C198.797833,25.07436 198.837387,24.4402736 198.9121,23.7522627 C198.986813,23.0637099 199.13038,22.4174295 199.341335,21.8310351 C199.553755,21.2430148 199.851143,20.7507849 200.239359,20.3486548 C200.62318,19.9463893 201.121269,19.7511503 201.733624,19.7511503 C202.34012,19.7511503 202.832349,19.9463893 203.21031,20.3486548 C203.588271,20.7507849 203.8798,21.2430148 204.0805,21.8310351 C204.285595,22.4174295 204.423302,23.0637099 204.498015,23.7522627 C204.571263,24.4402736 204.606423,25.07436 204.606423,25.6569608 Z M209.361702,25.6569608 C209.361702,24.3767295 209.223995,23.1589584 208.950047,22.0003958 C208.674633,20.8403428 208.229283,19.8188946 207.621323,18.9407933 C207.014827,18.0617436 206.22521,17.3635711 205.258333,16.8449209 C204.291455,16.3257287 203.112157,16.0669456 201.733624,16.0669456 C200.349232,16.0669456 199.169934,16.3257287 198.191337,16.8449209 C197.21274,17.3635711 196.417263,18.0617436 195.799047,18.9407933 C195.180832,19.8188946 194.735482,20.8403428 194.460068,22.0003958 C194.18612,23.1589584 194.042553,24.3767295 194.042553,25.6569608 C194.042553,26.9320436 194.18612,28.1503566 194.460068,29.2976737 C194.735482,30.4520362 195.180832,31.4576322 195.799047,32.3202878 C196.417263,33.1782013 197.21274,33.8662122 198.191337,34.3784944 C199.169934,34.8865765 200.349232,35.1464435 201.733624,35.1464435 C203.112157,35.1464435 204.291455,34.8865765 205.258333,34.3784944 C206.22521,33.8662122 207.014827,33.1782013 207.621323,32.3202878 C208.229283,31.4576322 208.674633,30.4520362 208.950047,29.2976737 C209.223995,28.1503566 209.361702,26.9320436 209.361702,25.6569608" id="path62"></path>
                <polyline id="path64" points="143.967845 16.0669456 143.967845 25.6523935 141.522909 23.7747734 139.914894 25.9722374 144.226905 29.1213389 147.06383 29.1213389 147.06383 16.0669456 143.967845 16.0669456"></polyline>
                <path d="M135.722782,22.6280458 C135.722782,23.014693 135.694738,23.4373168 135.650628,23.9080876 C135.59609,24.3735087 135.507024,24.8070992 135.370467,25.2093943 C135.237715,25.6106194 135.045069,25.9501895 134.791261,26.2219527 C134.539145,26.498798 134.207828,26.6350808 133.805907,26.6350808 C133.399194,26.6350808 133.069427,26.498798 132.810124,26.2219527 C132.551947,25.9501895 132.353242,25.6106194 132.209497,25.2093943 C132.06688,24.8070992 131.972741,24.3735087 131.923276,23.9080876 C131.874234,23.4373168 131.851686,23.014693 131.851686,22.6280458 C131.851686,22.2363163 131.874234,21.7979111 131.923276,21.327274 C131.972741,20.8523573 132.06688,20.4176968 132.209497,20.0164717 C132.353242,19.6136417 132.551947,19.2740715 132.810124,19.0024421 C133.069427,18.7255968 133.399194,18.5891803 133.805907,18.5891803 C134.207828,18.5891803 134.539145,18.7255968 134.791261,19.0024421 C135.045069,19.2740715 135.237715,19.6136417 135.370467,20.0164717 C135.507024,20.4176968 135.59609,20.8523573 135.650628,21.327274 C135.694738,21.7979111 135.722782,22.2363163 135.722782,22.6280458 Z M138.893617,22.6280458 C138.893617,21.7551137 138.799478,20.9202981 138.617261,20.1261399 C138.430111,19.3367964 138.138254,18.6362573 137.730978,18.0354896 C137.323561,17.4351232 136.800584,16.9603401 136.151056,16.6044535 C135.507024,16.2487006 134.726435,16.0669456 133.805907,16.0669456 C132.881714,16.0669456 132.093938,16.2487006 131.444269,16.6044535 C130.794741,16.9603401 130.2619,17.4351232 129.848987,18.0354896 C129.436073,18.6362573 129.138861,19.3367964 128.956643,20.1261399 C128.769494,20.9202981 128.680851,21.7551137 128.680851,22.6280458 C128.680851,23.5057925 128.769494,24.3364622 128.956643,25.1200548 C129.138861,25.9089971 129.436073,26.5991042 129.848987,27.1889051 C130.2619,27.7734901 130.794741,28.2494768 131.444269,28.5947979 C132.093938,28.9447999 132.881714,29.1213389 133.805907,29.1213389 C134.726435,29.1213389 135.507024,28.9447999 136.151056,28.5947979 C136.800584,28.2494768 137.323561,27.7734901 137.730978,27.1889051 C138.138254,26.5991042 138.430111,25.9089971 138.617261,25.1200548 C138.799478,24.3364622 138.893617,23.5057925 138.893617,22.6280458" id="path66"></path>
                <polyline id="path68" points="182.778765 -2.27373675e-13 182.778765 9.58519262 180.333933 7.70781579 178.723404 9.89963914 183.039396 13.0543933 185.87234 13.0543933 185.87234 -2.233678e-13 182.778765 -2.233678e-13"></polyline>
                <path d="M173.511372,6.56058915 C173.511372,6.94751388 173.484607,7.372047 173.433896,7.84154957 C173.384593,8.30730469 173.297256,8.7406711 173.159208,9.14379018 C173.021159,9.54690927 172.829582,9.88672314 172.581658,10.1580121 C172.3281,10.4350561 171.998474,10.5704998 171.591372,10.5704998 C171.189905,10.5704998 170.853236,10.4350561 170.601086,10.1580121 C170.341893,9.88672314 170.139046,9.54690927 170.000998,9.14379018 C169.857315,8.7406711 169.764343,8.30730469 169.71504,7.84154957 C169.665737,7.372047 169.637564,6.94751388 169.637564,6.56058915 C169.637564,6.16322509 169.665737,5.72932333 169.71504,5.25982076 C169.764343,4.7836263 169.857315,4.34972455 170.000998,3.94138579 C170.139046,3.53880205 170.341893,3.20420786 170.601086,2.92716386 C170.853236,2.65533954 171.189905,2.52043116 171.591372,2.52043116 C171.998474,2.52043116 172.3281,2.65533954 172.581658,2.92716386 C172.829582,3.20420786 173.021159,3.53880205 173.159208,3.94138579 C173.297256,4.34972455 173.384593,4.7836263 173.433896,5.25982076 C173.484607,5.72932333 173.511372,6.16322509 173.511372,6.56058915 Z M176.680851,6.56058915 C176.680851,5.68810133 176.58788,4.85161584 176.400528,4.05635235 C176.218811,3.26175806 175.921585,2.56687283 175.520117,1.96620933 C175.113015,1.36501048 174.590404,0.883462515 173.941012,0.52745429 C173.297256,0.172516767 172.515451,-2.27373675e-13 171.591372,-2.27373675e-13 C170.671519,-2.27373675e-13 169.885488,0.172516767 169.236097,0.52745429 C168.581071,0.883462515 168.052825,1.36501048 167.640088,1.96620933 C167.227351,2.56687283 166.930125,3.26175806 166.748408,4.05635235 C166.561056,4.85161584 166.468085,5.68810133 166.468085,6.56058915 C166.468085,7.43468303 166.561056,8.27116852 166.748408,9.05545731 C166.930125,9.84376124 167.227351,10.5344975 167.640088,11.1205727 C168.052825,11.7107969 168.581071,12.1817716 169.236097,12.531088 C169.885488,12.8818765 170.671519,13.0543933 171.591372,13.0543933 C172.515451,13.0543933 173.297256,12.8818765 173.941012,12.531088 C174.590404,12.1817716 175.113015,11.7107969 175.520117,11.1205727 C175.921585,10.5344975 176.218811,9.84376124 176.400528,9.05545731 C176.58788,8.27116852 176.680851,7.43468303 176.680851,6.56058915" id="path70"></path>
                <path d="M235.240681,25.6569608 C235.240681,26.2180189 235.205535,26.8424856 235.130851,27.5252125 C235.05763,28.2026552 234.919976,28.8383675 234.713495,29.430588 C234.512872,30.0186083 234.221455,30.5102962 233.843638,30.9124263 C233.467286,31.3094077 232.975245,31.5100663 232.368981,31.5100663 C231.762717,31.5100663 231.258962,31.3094077 230.875288,30.9124263 C230.485756,30.5102962 230.188481,30.0186083 229.977607,29.430588 C229.765268,28.8383675 229.623221,28.2026552 229.548536,27.5252125 C229.473851,26.8424856 229.44017,26.2180189 229.44017,25.6569608 C229.44017,25.07436 229.473851,24.4402736 229.548536,23.7522627 C229.623221,23.0637099 229.765268,22.4174295 229.977607,21.8310351 C230.188481,21.2430148 230.485756,20.7507849 230.875288,20.3486548 C231.258962,19.9463893 231.762717,19.7511503 232.368981,19.7511503 C232.975245,19.7511503 233.467286,19.9463893 233.843638,20.3486548 C234.221455,20.7507849 234.512872,21.2430148 234.713495,21.8310351 C234.919976,22.4174295 235.05763,23.0637099 235.130851,23.7522627 C235.205535,24.4402736 235.240681,25.07436 235.240681,25.6569608 Z M240,25.6569608 C240,24.3767295 239.856488,23.1589584 239.58118,22.0003958 C239.307336,20.8403428 238.860692,19.8188946 238.254428,18.9407933 C237.648164,18.0617436 236.85885,17.3635711 235.892342,16.8449209 C234.925834,16.3257287 233.752845,16.0669456 232.368981,16.0669456 C230.983654,16.0669456 229.806271,16.3257287 228.828048,16.8449209 C227.855683,17.3635711 227.054653,18.0617436 226.436674,18.9407933 C225.818694,19.8188946 225.372051,20.8403428 225.098207,22.0003958 C224.822898,23.1589584 224.680851,24.3767295 224.680851,25.6569608 C224.680851,26.9320436 224.822898,28.1503566 225.098207,29.2976737 C225.372051,30.4520362 225.818694,31.4576322 226.436674,32.3202878 C227.054653,33.1782013 227.855683,33.8662122 228.828048,34.3784944 C229.806271,34.8865765 230.983654,35.1464435 232.368981,35.1464435 C233.752845,35.1464435 234.925834,34.8865765 235.892342,34.3784944 C236.85885,33.8662122 237.648164,33.1782013 238.254428,32.3202878 C238.860692,31.4576322 239.307336,30.4520362 239.58118,29.2976737 C239.856488,28.1503566 240,26.9320436 240,25.6569608" id="path72"></path>
                <path d="M226.593884,150.887138 C222.229556,171.869133 203.238639,187.099123 181.439655,187.099123 C178.120386,187.099123 174.856345,186.728475 171.675851,186.054064 C166.376916,216.638059 139.267669,240 106.698055,240 C74.4316219,240 47.5262887,217.068623 41.878576,186.902652 C18.4315693,184.80278 0,165.360506 0,141.747751 C0,116.742838 20.6774566,96.4016736 46.0886942,96.4016736 L115.044656,96.4016736 C118.563307,96.4016736 121.416972,99.2053574 121.416972,102.672027 C121.416972,106.134933 118.563307,108.942379 115.044656,108.942379 L46.0886942,108.942379 C27.7013063,108.942379 12.7446315,123.661266 12.7446315,141.747751 C12.7446315,159.841202 27.7013063,174.558417 46.0886942,174.558417 C52.771271,174.558417 59.2143902,172.625755 64.7243193,168.962476 C67.6455304,167.025633 71.6050042,167.776682 73.5747578,170.644324 C75.5445114,173.513358 74.7757269,177.416305 71.8600385,179.353147 C66.6542813,182.815775 60.8411716,185.128839 54.7394669,186.271436 C59.9450824,209.790833 81.2580714,227.459294 106.698055,227.459294 C133.801497,227.459294 156.215197,207.406706 159.462246,181.590966 C157.753049,180.676888 156.083502,179.675025 154.484759,178.538001 C151.629962,176.511981 150.988482,172.593707 153.046032,169.784589 C155.109246,166.976864 159.092651,166.345648 161.946033,168.370276 C167.644299,172.41953 174.386209,174.558417 181.439655,174.558417 C197.216093,174.558417 210.950557,163.547678 214.102729,148.366457 C214.722968,145.399883 217.3781,143.354355 220.343351,143.354355 C220.762507,143.354355 221.194409,143.39755 221.62631,143.483942 C225.071609,144.175074 227.296255,147.490001 226.593884,150.887138" id="path74"></path>
            </g>
        </g>
    </g>
</svg>