<?xml version="1.0" encoding="UTF-8"?>
<svg width="240px" height="240px" viewBox="0 0 240 240" version="1.1" xmlns="http://www.w3.org/2000/svg" xmlns:xlink="http://www.w3.org/1999/xlink">
    <title>twilio</title>
    <g id="Page-1" stroke="none" stroke-width="1" fill="none" fill-rule="evenodd">
        <g id="twilio">
            <rect id="ViewBox" x="0" y="0" width="240" height="240"></rect>
            <path d="M90,173.079375 C120.76875,173.079375 120.76875,126.920625 90,126.920625 C59.23125,126.920625 59.23125,173.08125 90,173.08125 L90,173.079375 Z M90,113.079375 C120.76875,113.079375 120.76875,66.920625 90,66.920625 C59.23125,66.920625 59.23125,113.08125 90,113.08125 L90,113.079375 Z M150,173.079375 C180.76875,173.079375 180.76875,126.920625 150,126.920625 C119.23125,126.920625 119.23125,173.08125 150,173.08125 L150,173.079375 Z M150,113.079375 C180.76875,113.079375 180.76875,66.920625 150,66.920625 C119.23125,66.920625 119.23125,113.08125 150,113.08125 L150,113.079375 Z M120,0 C184.995,0 240,55.005 240,120 C240,184.995 184.995,240 120,240 C55.005,240 0,184.995 0,120 C0,55.005 55.005,0 120,0 M120,32.30625 C71.70375,32.30625 32.30625,70.3425 32.30625,118.3875 C32.30625,166.43625 71.70375,207.69375 120,207.69375 C168.29625,207.69375 207.69375,166.43625 207.69375,118.3875 C207.69375,70.3425 168.29625,32.30625 120,32.30625" id="Shape" fill="#F22F46" fill-rule="nonzero"></path>
        </g>
    </g>
</svg>