<?xml version="1.0" encoding="UTF-8"?>
<svg width="240px" height="240px" viewBox="0 0 240 240" version="1.1" xmlns="http://www.w3.org/2000/svg" xmlns:xlink="http://www.w3.org/1999/xlink">
    <title>typescript</title>
    <g id="Page-1" stroke="none" stroke-width="1" fill="none" fill-rule="evenodd">
        <g id="typescript" transform="translate(0, -0.3737)">
            <rect id="box" fill="#3178C6" fill-rule="nonzero" x="0" y="0.373720558" width="240" height="240" rx="32"></rect>
            <path d="M148.252656,190.97379 L148.252656,214.493828 C152.067344,216.453949 156.579063,217.92357 161.787813,218.90363 C166.996563,219.88369 172.486094,220.373721 178.257344,220.373721 C183.881875,220.373721 189.224688,219.834828 194.286719,218.756574 C199.34875,217.67879 203.787344,215.902371 207.602031,213.42779 C211.416719,210.953677 214.436875,207.719384 216.662031,203.72585 C218.887188,199.732315 220,194.795837 220,188.915945 C220,184.652729 219.364375,180.91666 218.092656,177.707268 C216.820938,174.497876 214.987188,171.643673 212.590469,169.14466 C210.194219,166.645647 207.320781,164.40363 203.970625,162.419078 C200.620469,160.434527 196.842344,158.560384 192.63625,156.796652 C189.555156,155.522479 186.791875,154.285423 184.346406,153.085014 C181.900938,151.884134 179.8225,150.659294 178.110625,149.410022 C176.39875,148.160281 175.078281,146.837246 174.149219,145.440919 C173.220156,144.044121 172.755156,142.464091 172.755156,140.699889 C172.755156,139.083212 173.170938,137.625337 174.0025,136.326733 C174.834063,135.02813 176.007813,133.913699 177.52375,132.982501 C179.040156,132.051772 180.898281,131.328708 183.099063,130.814246 C185.300313,130.299785 187.745313,130.04279 190.435469,130.04279 C192.391563,130.04279 194.457813,130.189846 196.634219,130.483488 C198.810625,130.7776 200.999219,131.230983 203.200469,131.843169 C205.40125,132.455824 207.540625,133.227751 209.619531,134.158479 C211.697969,135.089677 213.6175,136.167462 215.378125,137.392772 L215.378125,115.416117 C211.808125,114.044221 207.907656,113.027514 203.677188,112.365996 C199.446719,111.704479 194.592344,111.373721 189.115,111.373721 C183.539219,111.373721 178.257344,111.97416 173.268906,113.17457 C168.280469,114.374979 163.891094,116.249121 160.100313,118.796996 C156.31,121.345341 153.314688,124.59138 151.113906,128.536052 C148.913125,132.480255 147.8125,137.196384 147.8125,142.68444 C147.8125,149.691449 149.83,155.669535 153.865,160.618699 C157.899531,165.567393 164.025156,169.756846 172.241875,173.187057 C175.469688,174.510091 178.477656,175.808225 181.265313,177.082397 C184.052969,178.35657 186.461875,179.679604 188.491094,181.051501 C190.520781,182.423397 192.1225,183.917919 193.296719,185.535065 C194.470469,187.151742 195.057344,188.989238 195.057344,191.047552 C195.057344,192.566505 194.690313,193.975048 193.956719,195.273652 C193.223125,196.572255 192.110313,197.698902 190.61875,198.654531 C189.127188,199.61016 187.268594,200.357186 185.043438,200.896078 C182.817813,201.43544 180.213906,201.704652 177.230313,201.704652 C172.143906,201.704652 167.106719,200.81057 162.117813,199.021936 C157.129375,197.233772 152.5075,194.551057 148.252656,190.97379 L148.252656,190.97379 Z M108.803125,133.024315 L138.90625,133.024315 L138.90625,113.722858 L55,113.722858 L55,133.024315 L84.9559375,133.024315 L84.9559375,218.964238 L108.803125,218.964238 L108.803125,133.024315 Z" id="Shape" fill="#FFFFFF"></path>
        </g>
    </g>
</svg>