<?xml version="1.0" encoding="UTF-8"?>
<svg width="328px" height="328px" viewBox="0 0 328 328" version="1.1" xmlns="http://www.w3.org/2000/svg" xmlns:xlink="http://www.w3.org/1999/xlink">
    <title>typebotio</title>
    <g id="Page-1" stroke="none" stroke-width="1" fill="none" fill-rule="evenodd">
        <g id="typebotio" transform="translate(0, 0)">
            <rect id="Rectangle" fill="#1D1D1D" x="0" y="0" width="328" height="328" rx="24"></rect>
            <path d="M250.977,65.679928 C246.176,53.564268 234.355,45 220.528,45 L99.7578,45 C81.6675,45 67,59.667528 67,77.757728 L67,237.904328 C67,247.089328 70.77858,255.388328 76.86671,261.333328 C81.6751,273.448328 93.503,282.013328 107.3301,282.013328 L228.101,282.013328 C246.191,282.013328 260.851,267.353328 260.851,249.262328 L260.851,89.116228 C260.851,79.931028 257.072,71.624228 250.977,65.679928 Z M234.348,237.904328 C234.348,245.522328 228.146,251.723328 220.528,251.723328 L99.7578,251.723328 C97.5239,251.723328 95.4113,251.193328 93.5409,250.239328 C89.0278,247.968328 85.9308,243.288328 85.9308,237.904328 L85.9308,77.757728 C85.9308,70.132428 92.1325,63.930728 99.7578,63.930728 L220.528,63.930728 C227.813,63.930728 233.803,69.602428 234.31,76.773328 C234.333,77.099028 234.348,77.424628 234.348,77.757728 L234.348,237.904328 Z" id="Shape" fill="#F1F1F1" fill-rule="nonzero"></path>
            <path d="M155.285189,89.0719859 L145.874089,90.7313859 C143.324689,91.1809859 141.622489,93.6120859 142.071989,96.1613859 L166.610989,235.329186 C167.060489,237.878186 169.491589,239.580186 172.040589,239.131186 L181.451589,237.471186 C184.001589,237.022186 185.703589,234.591186 185.254589,232.041186 L160.715189,92.8740859 C160.265589,90.3247859 157.834489,88.6224859 155.285189,89.0719859 Z" id="Path" fill="#F1F1F1" fill-rule="nonzero"></path>
        </g>
    </g>
</svg>