<?xml version="1.0" encoding="UTF-8"?>
<svg width="240px" height="240px" viewBox="0 0 240 240" version="1.1" xmlns="http://www.w3.org/2000/svg" xmlns:xlink="http://www.w3.org/1999/xlink">
    <title>uniswap</title>
    <g id="Page-1" stroke="none" stroke-width="1" fill="none" fill-rule="evenodd">
        <g id="uniswap">
            <rect id="box" x="0" y="0" width="240" height="240"></rect>
            <g id="shape" fill="#FF007A">
                <path d="M81.2486296,54.7383753 C78.6464741,54.3696655 78.5225619,54.2467623 79.7616836,54.123859 C82.1160148,53.7551493 87.5681502,54.2467623 91.4094274,55.107085 C100.331104,57.1964402 108.385394,62.6041831 116.935334,72.0677332 L119.165753,74.6487015 L122.387469,74.1570885 C136.14172,71.94483 150.267707,73.6654755 162.039363,79.0732184 C165.26108,80.5480574 170.341479,83.4977353 170.961039,84.2351548 C171.208864,84.4809613 171.5806,86.0787035 171.828425,87.6764458 C172.69581,93.4528984 172.324073,97.7545121 170.465391,101.0729 C169.474093,102.916449 169.474093,103.408062 170.093654,105.005804 C170.589303,106.234836 172.076249,107.095159 173.439283,107.095159 C176.413175,107.095159 179.510979,102.424836 180.997925,95.9109634 L181.617486,93.3299952 L182.732695,94.5590276 C189.052216,101.564513 194.008703,111.273869 194.752176,118.156451 L195,120 L193.88479,118.402258 C192.026108,115.575483 190.291338,113.731934 187.937006,112.134192 C183.723993,109.307417 179.263155,108.447095 167.491499,107.832578 C156.835052,107.218062 150.763356,106.357739 144.815572,104.391287 C134.654774,101.0729 129.450463,96.7712861 117.430983,80.9167671 C112.10276,73.911282 108.757131,70.1012813 105.411502,66.9057968 C98.1006845,59.9003117 90.7898666,56.2132142 81.2486296,54.7383753 Z" id="Path" fill-rule="nonzero"></path>
                <path d="M173.937665,69.8149642 C174.188485,65.0871133 174.815535,61.9766851 176.195046,59.1150912 C176.696687,57.995337 177.198327,57 177.323737,57 C177.449147,57 177.198327,57.8709199 176.822097,58.8662569 C175.818816,61.6034337 175.693406,65.4603647 176.320456,69.8149642 C177.198327,75.413735 177.574557,76.1602378 183.594242,82.256677 C186.353265,85.118271 189.613927,88.7263677 190.868028,90.2193733 L193,92.9565501 L190.868028,90.965876 C188.234416,88.4775335 182.214731,83.7496826 180.83522,83.1275969 C179.957349,82.6299284 179.831939,82.6299284 179.204889,83.2520141 C178.703248,83.7496826 178.577838,84.4961854 178.577838,88.1042821 C178.452428,93.7030529 177.699968,97.1867324 175.818816,100.794829 C174.815535,102.661086 174.690125,102.287835 175.567996,100.172744 C176.195046,98.5553209 176.320456,97.8088181 176.320456,92.4588816 C176.320456,81.6345914 175.066355,79.0218317 167.416339,74.6672322 C165.535188,73.5474781 162.274525,71.9300554 160.393373,71.0591355 C158.386812,70.1882156 156.881891,69.4417128 157.007301,69.4417128 C157.258121,69.1928786 164.657317,71.3079698 167.541749,72.552141 C171.931103,74.2939808 172.683563,74.418398 173.185204,74.2939808 C173.561434,73.9207295 173.812254,72.9253924 173.937665,69.8149642 Z" id="Path" fill-rule="nonzero"></path>
                <path d="M86.8331408,88.4721828 C81.6791318,81.2290192 78.3658403,69.9896275 79.1021273,61.6225247 L79.3475563,59 L80.5747013,59.2497643 C82.7835623,59.6244107 86.5877118,61.1229962 88.4284293,62.2469354 C93.3370093,65.2441065 95.5458704,69.3652168 97.6320169,79.6055515 C98.2455894,82.6027227 99.1045909,86.0994223 99.4727344,87.2233615 C100.086307,89.0965935 102.417882,93.467468 104.381314,96.2148749 C105.731174,98.212989 104.872172,99.212046 101.80431,98.9622818 C97.1411589,98.4627533 90.8827193,94.0918787 86.8331408,88.4721828 Z" id="Path" fill-rule="nonzero"></path>
                <path d="M167.194718,142.918367 C142.670262,132.974026 134,124.397032 134,109.853432 C134,107.74026 134.123861,106 134.123861,106 C134.247722,106 135.114748,106.745826 136.229496,107.615955 C141.183932,111.593692 146.757672,113.333952 162.240283,115.571429 C171.282128,116.938776 176.484285,117.93321 181.190999,119.549165 C196.178166,124.521336 205.467733,134.714286 207.697229,148.512059 C208.316533,152.489796 207.944951,160.072356 206.954064,164.050093 C206.087037,167.157699 203.60982,172.875696 202.990515,173 C202.866654,173 202.618932,172.378479 202.618932,171.384045 C202.371211,166.163265 199.770132,161.191095 195.435001,157.337662 C190.232844,152.862709 183.544356,149.506494 167.194718,142.918367 Z" id="Path" fill-rule="nonzero"></path>
                <path d="M149.893838,147.017574 C149.64498,145.170844 149.022834,142.831653 148.649547,141.84673 L148.027401,140 L149.147263,141.354269 C150.764842,143.200999 152.009134,145.417075 153.128996,148.494958 C154,150.83415 154,151.572842 154,155.389417 C154,159.082877 153.875571,159.944685 153.128996,162.037646 C151.884704,165.36176 150.391555,167.700951 147.902972,170.286373 C143.423522,174.841641 137.575353,177.303947 129.2386,178.411985 C127.74545,178.535101 123.514859,178.904447 119.781984,179.150678 C110.449798,179.643139 104.228341,180.628062 98.6290295,182.597907 C97.8824546,182.844138 97.1358797,183.090368 97.0114505,182.967253 C96.7625922,182.721022 100.619896,180.504946 103.730624,179.027562 C108.085645,176.934601 112.565094,175.826563 122.394997,174.102949 C127.247733,173.364257 132.224899,172.379334 133.469191,171.886873 C145.787676,168.070297 151.884704,158.590416 149.893838,147.017574 Z" id="Path" fill-rule="nonzero"></path>
                <path d="M161.105595,166.258427 C157.920369,159.213483 157.185317,152.539326 158.900439,146.235955 C159.145456,145.617978 159.390473,145 159.635491,145 C159.880508,145 160.61556,145.370787 161.350612,145.865169 C162.820716,146.853933 165.883433,148.58427 173.723988,152.910112 C183.647191,158.348315 189.282589,162.550562 193.202867,167.370787 C196.63311,171.573034 198.715757,176.393258 199.695827,182.325843 C200.30837,185.662921 199.940844,193.696629 199.083283,197.033708 C196.388092,207.539326 190.262659,215.94382 181.319526,220.764045 C179.97193,221.505618 178.869352,222 178.746844,222 C178.624335,222 179.11437,220.764045 179.849422,219.280899 C182.78963,212.977528 183.157156,206.921348 180.952,200.123596 C179.604404,195.921348 176.786705,190.853933 171.151306,182.325843 C164.413329,172.438202 162.820716,169.842697 161.105595,166.258427 Z" id="Path" fill-rule="nonzero"></path>
                <path d="M68.6111867,204.337374 C77.8125115,196.633253 89.1276541,191.165812 99.5724011,189.426172 C104.048721,188.680612 111.509255,188.929132 115.612548,190.047472 C122.202686,191.787113 128.171113,195.514913 131.279669,200.112534 C134.263882,204.585894 135.631647,208.437955 136.999411,217.011896 C137.49678,220.366917 138.118491,223.846197 138.242833,224.591758 C139.237571,229.065118 141.227047,232.544399 143.713891,234.408299 C147.5685,237.26628 154.282981,237.39054 160.873119,234.905339 C161.992199,234.532559 162.986936,234.159779 162.986936,234.284039 C163.235621,234.532559 159.878381,236.769239 157.640221,237.88758 C154.531665,239.50296 152.04482,240 148.68758,240 C142.719154,240 137.621122,236.8935 133.517829,230.680499 C132.647433,229.437898 130.906642,225.834358 129.414535,222.479337 C125.062557,212.414276 122.824397,209.432035 117.726366,206.077015 C113.250046,203.219034 107.530304,202.597734 103.178326,204.710155 C97.4585832,207.443875 95.9664765,214.775216 99.9454277,219.248577 C101.561877,221.112477 104.54609,222.603597 107.032935,222.976377 C111.633597,223.597677 115.612548,219.994137 115.612548,215.396516 C115.612548,212.414276 114.493468,210.674635 111.509255,209.307775 C107.530304,207.568135 103.178326,209.556295 103.302668,213.408356 C103.302668,215.023736 104.048721,216.017816 105.66517,216.763376 C106.659908,217.260416 106.659908,217.260416 105.913855,217.136156 C102.30793,216.390596 101.437534,211.917236 104.297406,209.059255 C107.778988,205.579975 115.115179,207.071095 117.602024,211.917236 C118.596762,213.905396 118.721104,217.881717 117.850708,220.366917 C115.73689,225.834358 109.768464,228.692338 103.675695,227.076958 C99.5724011,225.958618 97.8316099,224.840278 92.8579208,219.745617 C84.153965,210.798895 80.7967249,209.059255 68.3625023,207.195355 L66,206.822575 L68.6111867,204.337374 Z" id="Path" fill-rule="nonzero"></path>
                <path d="M4.195697,5.33372711 C32.9109949,40.4370939 77.1547373,95.0147667 79.3730865,97.9917307 C81.2217108,100.472534 80.4822611,102.829297 77.4012205,104.565859 C75.6758378,105.558181 72.1018308,106.550502 70.376448,106.550502 C68.4045821,106.550502 66.0629913,105.558181 64.4608502,103.945659 C63.3516756,102.829297 58.5452523,95.7590077 47.6999896,78.765505 C39.4428009,65.7412877 32.4180284,54.9497933 32.2947868,54.8257531 C31.8018203,54.5776728 31.8018203,54.5776728 46.8372982,81.6184288 C56.3269031,98.6119315 59.4079437,104.6899 59.4079437,105.434141 C59.4079437,107.046663 58.9149772,107.914944 56.9431112,110.147667 C53.6155874,113.868872 52.136688,118.086237 51.0275134,126.893089 C49.7950972,136.692262 46.4675734,143.638512 36.9779685,155.422327 C31.4320955,162.368576 30.5694041,163.608978 29.2137463,166.461902 C27.4883636,169.935027 26.9953971,171.919669 26.7489138,176.385115 C26.5024306,181.098641 26.9953971,184.075605 28.3510549,188.541051 C29.5834711,192.510337 30.939129,195.11518 34.2666528,200.200827 C37.1012101,204.666273 38.8265928,208.015357 38.8265928,209.255759 C38.8265928,210.24808 39.073076,210.24808 43.5097744,209.255759 C54.1085539,206.774956 62.8587091,202.55759 67.6651324,197.347903 C70.6229313,194.122859 71.362381,192.386297 71.362381,187.920851 C71.362381,185.067927 71.2391394,184.447726 70.4996897,182.711164 C69.2672734,179.98228 66.9256826,177.749557 61.8727761,174.276432 C55.2177285,169.686946 52.3831712,165.965741 51.6437215,161.004135 C51.0275134,156.786769 51.7669631,153.933845 55.4642118,146.119315 C59.2847021,138.056704 60.270635,134.70762 60.8868431,126.520969 C61.256568,121.311282 61.8727761,119.202599 63.3516756,117.590077 C64.9538167,115.853514 66.3094745,115.233314 70.1299648,114.737153 C76.4152875,113.868872 80.4822611,112.25635 83.6865432,109.155346 C86.5211005,106.550502 87.7535168,103.945659 87.8767584,100.100413 L88,97.2474897 L86.3978589,95.5109273 C80.6055027,88.8127584 0.375206712,0 0.00548184613,0 C-0.117759776,0 1.85410618,2.35676314 4.195697,5.33372711 Z M42.030875,181.718842 C43.3865328,179.362079 42.6470831,176.385115 40.4287339,174.896633 C38.3336263,173.532191 35.1293441,174.152392 35.1293441,176.012995 C35.1293441,176.509155 35.3758274,177.005316 36.1152771,177.253396 C37.2244517,177.873597 37.3476933,178.493798 36.485002,179.85824 C35.6223106,181.222682 35.6223106,182.463083 36.7314852,183.331364 C38.4568679,184.695806 40.7984587,183.951565 42.030875,181.718842 Z" id="Shape"></path>
                <path d="M91.8433028,116.311407 C88.9124827,117.203164 86.1037801,120.515404 85.2489575,123.827644 C84.7604875,125.865945 85.0047225,129.560366 85.8595451,130.706911 C87.2028376,132.490425 88.4240127,133 91.8433028,133 C98.5597655,133 104.299288,129.942548 104.909876,126.248127 C105.520463,123.190674 102.955996,118.986678 99.4145881,117.07577 C97.5828255,116.056619 93.7971829,115.674438 91.8433028,116.311407 Z M99.6588231,122.681099 C100.635763,121.152373 100.269411,119.496253 98.437648,118.349709 C95.1404754,116.184013 90.1336577,117.967527 90.1336577,121.279767 C90.1336577,122.935887 92.6981253,124.7194 95.1404754,124.7194 C96.728003,124.7194 98.926118,123.70025 99.6588231,122.681099 Z" id="Shape"></path>
            </g>
        </g>
    </g>
</svg>