<?xml version="1.0" encoding="UTF-8"?>
<svg width="240px" height="240px" viewBox="0 0 240 240" version="1.1" xmlns="http://www.w3.org/2000/svg" xmlns:xlink="http://www.w3.org/1999/xlink">
    <title>unity</title>
    <g id="Page-1" stroke="none" stroke-width="1" fill="none" fill-rule="evenodd">
        <g id="unity">
            <rect id="ViewBox" x="0" y="0" width="240" height="240"></rect>
            <path d="M119.983125,240 L216.924375,184.021875 L179.7675,162.5325 L141.78,184.4775 C141.121932,184.839667 140.322815,184.833274 139.670625,184.460625 C139.020516,184.079264 138.61672,183.386127 138.605625,182.6325 L138.605625,130.515 C138.605625,128.979375 139.400625,127.59 140.73,126.825 L185.86875,100.756875 C186.523419,100.384056 187.327635,100.390496 187.97625,100.77375 C188.63625,101.139375 189.04875,101.83125 189.05625,102.585 L189.05625,146.45625 L226.2375,167.9325 L226.2375,55.978125 L119.98125,117.31125 L119.983125,240 Z" id="Path" fill="#FFFFFF" fill-rule="nonzero"></path>
            <path d="M98.244375,184.501875 L60.238125,162.530625 L23.053125,184.018125 L119.983125,240 L119.983125,117.31125 L13.7625,55.97625 L13.7625,167.925 L50.934375,146.45625 L50.934375,102.58875 C50.95125,101.836875 51.35625,101.145 52.006875,100.7775 C52.6594003,100.393787 53.4670706,100.387354 54.125625,100.760625 L99.286875,126.825 C100.601885,127.590457 101.41093,128.99718 101.41125,130.51875 L101.41125,182.64375 C101.400939,183.398592 100.999956,184.094102 100.351875,184.48125 C99.7031979,184.862406 98.9010419,184.87097 98.244375,184.50375" id="Path" fill="#FFFFFF" fill-rule="nonzero"></path>
            <path d="M129.298125,0 L129.298125,42.9375 L167.2875,64.869375 C167.94,65.25 168.328125,65.949375 168.328125,66.714375 C168.328125,67.47 167.930625,68.161875 167.2875,68.5425 L122.131875,94.6275 C120.811951,95.3763907 119.195549,95.3763907 117.875625,94.6275 L72.733125,68.5425 C72.0804431,68.1656841 71.6797302,67.4680144 71.683125,66.714375 C71.6775678,65.9557435 72.0780509,65.2520374 72.733125,64.869375 L110.715,42.9375 L110.715,0 L13.760625,55.978125 L119.983125,117.31125 L226.23,55.98 L129.298125,0 Z" id="Path" fill="#FFFFFF" fill-rule="nonzero"></path>
        </g>
    </g>
</svg>