<?xml version="1.0" encoding="UTF-8"?>
<svg width="586px" height="586px" viewBox="0 0 586 586" version="1.1" xmlns="http://www.w3.org/2000/svg" xmlns:xlink="http://www.w3.org/1999/xlink">
    <title>upstash</title>
    <g id="Page-1" stroke="none" stroke-width="1" fill="none" fill-rule="evenodd">
        <g id="upstash">
            <rect id="box" x="0" y="0" width="586" height="586"></rect>
            <path d="M116,469.132375 C194.105025,547.236375 320.738125,547.236375 398.843125,469.132375 C476.947125,391.027375 476.947125,264.394375 398.843125,186.289375 L363.487125,221.644375 C422.066125,280.223375 422.066125,375.198375 363.487125,433.776375 C304.909125,492.355375 209.934025,492.355375 151.355025,433.776375 L116,469.132375 Z" id="Path" fill="#34D399" fill-rule="nonzero"></path>
            <path d="M186.710925,398.421375 C225.763125,437.473375 289.079125,437.473375 328.132125,398.421375 C367.184125,359.369375 367.184125,296.052375 328.132125,257.000375 L292.777125,292.355375 C312.303125,311.881375 312.303125,343.539375 292.777125,363.066375 C273.250125,382.592375 241.592125,382.592375 222.066125,363.066375 L186.710925,398.421375 Z" id="Path" fill="#34D399" fill-rule="nonzero"></path>
            <path d="M469.552125,115.578375 C391.447125,37.473875 264.814125,37.473875 186.709625,115.578375 C108.604605,193.683375 108.604605,320.316375 186.709625,398.421375 L222.064125,363.066375 C163.486625,304.487375 163.486625,209.512375 222.064125,150.934375 C280.643125,92.355375 375.618125,92.355375 434.196125,150.934375 L469.552125,115.578375 Z" id="Path" fill="#6EE7B7" fill-rule="nonzero"></path>
            <path d="M398.842125,186.289375 C359.790125,147.237375 296.472125,147.237375 257.420125,186.289375 C218.367125,225.342375 218.367125,288.658375 257.420125,327.710375 L292.775125,292.355375 C273.249125,272.829375 273.249125,241.171375 292.775125,221.644375 C312.301125,202.118375 343.959125,202.118375 363.486125,221.644375 L398.842125,186.289375 Z" id="Path" fill="#6EE7B7" fill-rule="nonzero"></path>
        </g>
    </g>
</svg>