<?xml version="1.0" encoding="UTF-8"?>
<svg width="240px" height="240px" viewBox="0 0 240 240" version="1.1" xmlns="http://www.w3.org/2000/svg" xmlns:xlink="http://www.w3.org/1999/xlink">
    <title>urlscan</title>
    <g id="Page-1" stroke="none" stroke-width="1" fill="none" fill-rule="evenodd">
        <g id="urlscan">
            <circle id="Oval" fill="#DF5844" cx="120" cy="120" r="120"></circle>
            <path d="M99,55 C129.099519,55 153.5,79.4004811 153.5,109.5 C153.5,139.599519 129.099519,164 99,164 C68.9004811,164 44.5,139.599519 44.5,109.5 C44.5,79.4004811 68.9004811,55 99,55 Z M99,72 C78.2893219,72 61.5,88.7893219 61.5,109.5 C61.5,130.210678 78.2893219,147 99,147 C119.710678,147 136.5,130.210678 136.5,109.5 C136.5,88.7893219 119.710678,72 99,72 Z" id="Oval-Copy-9" fill="#B54837" fill-rule="nonzero"></path>
            <path d="M99,62 C78.2893219,62 61.5,78.7893219 61.5,99.5 C61.5,120.210678 78.2893219,137 99,137 C119.710678,137 136.5,120.210678 136.5,99.5 C136.5,78.7893219 119.710678,62 99,62 Z" id="Path-Copy" fill="#2D4F64" fill-rule="nonzero"></path>
            <path d="M99,67 C78.2893219,67 61.5,83.7893219 61.5,104.5 C61.5,125.210678 78.2893219,142 99,142 C119.710678,142 136.5,125.210678 136.5,104.5 C136.5,83.7893219 119.710678,67 99,67 Z" id="Path-Copy-3" fill="#3D647D" fill-rule="nonzero"></path>
            <path d="M129.807612,135.807612 C134.884428,130.730796 143.115572,130.730796 148.192388,135.807612 L187.192388,174.807612 C192.269204,179.884428 192.269204,188.115572 187.192388,193.192388 C182.115572,198.269204 173.884428,198.269204 168.807612,193.192388 L129.807612,154.192388 C124.730796,149.115572 124.730796,140.884428 129.807612,135.807612 Z" id="Line-3-Copy" fill="#B54837" fill-rule="nonzero"></path>
            <path d="M129.807612,124.807612 C134.884428,119.730796 143.115572,119.730796 148.192388,124.807612 L187.192388,163.807612 C192.269204,168.884428 192.269204,177.115572 187.192388,182.192388 C182.115572,187.269204 173.884428,187.269204 168.807612,182.192388 L129.807612,143.192388 C124.730796,138.115572 124.730796,129.884428 129.807612,124.807612 Z" id="Line-3" fill="#314758" fill-rule="nonzero"></path>
            <path d="M99,45 C129.099519,45 153.5,69.4004811 153.5,99.5 C153.5,129.599519 129.099519,154 99,154 C68.9004811,154 44.5,129.599519 44.5,99.5 C44.5,69.4004811 68.9004811,45 99,45 Z M99,62 C78.2893219,62 61.5,78.7893219 61.5,99.5 C61.5,120.210678 78.2893219,137 99,137 C119.710678,137 136.5,120.210678 136.5,99.5 C136.5,78.7893219 119.710678,62 99,62 Z" id="Oval-Copy-8" fill="#E2E2E5" fill-rule="nonzero"></path>
            <path d="M93.5,76 C87.9771525,76 83.5,80.4771525 83.5,86 C83.5,91.5228475 87.9771525,96 93.5,96 C99.0228475,96 103.5,91.5228475 103.5,86 C103.5,80.4771525 99.0228475,76 93.5,76 Z" id="Path-Copy-2" fill="#99AEBB" fill-rule="nonzero"></path>
        </g>
    </g>
</svg>