<?xml version="1.0" encoding="UTF-8"?>
<svg width="240px" height="241px" viewBox="0 0 240 241" version="1.1" xmlns="http://www.w3.org/2000/svg" xmlns:xlink="http://www.w3.org/1999/xlink">
    <title>urlvoid</title>
    <g id="Page-1" stroke="none" stroke-width="1" fill="none" fill-rule="evenodd">
        <g id="urlvoid" transform="translate(0, 0.4974)">
            <rect id="box" fill="#596275" x="0" y="0" width="240" height="240" rx="32"></rect>
            <path d="M111.5,154.502602 C126.683787,154.502602 140.714186,146.402148 148.30608,133.252602 C155.897973,120.103056 155.897973,103.902147 148.30608,90.7526014 C140.714186,77.6030555 126.683787,69.5026016 111.5,69.5026016 C88.0278977,69.5026016 69,88.5304999 69,112.002602 C69,135.474703 88.0278977,154.502602 111.5,154.502602 M157.259571,146.665033 L182.823535,172.228972 C184.678514,174.023158 185.421071,176.678624 184.765809,179.174756 C184.110547,181.670888 182.159437,183.619237 179.662378,184.270968 C177.16532,184.922698 174.510904,184.176386 172.719342,182.318873 L147.155379,156.754934 C123.330039,175.249291 89.2319241,172.03523 69.2820519,149.414657 C49.3321797,126.794083 50.4049376,92.5616636 71.732018,71.2346036 C93.0590985,49.9075436 127.291551,48.8347867 149.912146,68.7846398 C172.532741,88.7344929 175.746805,122.832575 157.25243,146.657892 L157.259571,146.665033 Z" id="Shape" fill="#FFC312" fill-rule="nonzero"></path>
        </g>
    </g>
</svg>