<?xml version="1.0" encoding="UTF-8"?>
<svg width="240px" height="240px" viewBox="0 0 240 240" version="1.1" xmlns="http://www.w3.org/2000/svg" xmlns:xlink="http://www.w3.org/1999/xlink">
    <title>usdt</title>
    <g id="Page-1" stroke="none" stroke-width="1" fill="none" fill-rule="evenodd">
        <g id="usdt" fill-rule="nonzero">
            <path d="M120,240 C186.5004,240 240,186.5004 240,120 C240,53.4996 186.5004,0 120,0 C53.4996,0 0,53.4996 0,120 C0,186.5004 53.4996,240 120,240 Z" id="Path" fill="#2775CA"></path>
            <path d="M153,139.323391 C153,121.751237 142.499937,115.726361 121.499812,113.216398 C106.499722,111.207704 103.499704,107.191521 103.499704,100.161696 C103.499704,93.1318701 108.500134,88.6144179 118.499794,88.6144179 C127.499848,88.6144179 132.500278,91.626856 134.999893,99.1579513 C135.500296,100.66417 137.000304,101.667915 138.500313,101.667915 L146.499561,101.667915 C148.499973,101.667915 149.999982,100.161696 149.999982,98.154207 L149.999982,97.6517323 C147.99957,86.6057241 138.999516,78.0708844 127.499848,77.06714 L127.499848,65.0173875 C127.499848,63.0086937 125.999839,61.5024747 123.500224,61 L116.000179,61 C113.999767,61 112.499758,62.5062191 111.999355,65.0173875 L111.999355,76.5646653 C96.9992657,78.5733591 87.5,88.6144179 87.5,101.166645 C87.5,117.735055 97.4996687,124.261201 118.499794,126.772369 C132.500278,129.282333 137.000304,132.294771 137.000304,140.328341 C137.000304,148.361911 129.999463,153.884312 120.500206,153.884312 C107.499328,153.884312 102.999301,148.360706 101.499293,140.829611 C101.00009,138.822122 99.5000806,137.817172 98.0000716,137.817172 L89.4992209,137.817172 C87.5,137.817172 86,139.323391 86,141.332085 L86,141.83456 C87.9992119,154.385582 95.9996597,163.422897 112.499758,165.934065 L112.499758,177.983817 C112.499758,179.991306 113.999767,181.497525 116.499382,182 L123.999427,182 C125.999839,182 127.499848,180.493781 128.000251,177.983817 L128.000251,165.934065 C143.00034,163.422897 153,152.879363 153,139.323391 L153,139.323391 Z" id="Path" fill="#FFFFFF"></path>
            <path d="M94.5689813,191.499924 C55.6744822,177.500659 35.7281863,134.000458 50.1897594,95.4994798 C57.6694708,74.4993827 74.1248358,58.4997087 94.5689813,50.999674 C96.5639699,50.0000694 97.5608659,48.5000624 97.5608659,45.9992509 L97.5608659,38.9996185 C97.5608659,36.9992092 96.5639699,35.4992023 94.5689813,35 C94.069935,35 93.0730391,35 92.5739927,35.4992023 C45.2028863,50.4992717 19.2728213,101.000305 34.232244,148.500125 C43.2078977,176.499854 64.6501358,198.000354 92.5739927,207.000395 C94.5689813,208 96.5639699,207.000395 97.0618195,204.999986 C97.5608659,204.500784 97.5608659,204.000382 97.5608659,203.000777 L97.5608659,195.999945 C97.5608659,194.499938 96.0649236,192.500728 94.5689813,191.499924 Z M147.426007,35.4992023 C145.431019,34.4995977 143.43603,35.4992023 142.93818,37.4996116 C142.439134,38.0000139 142.439134,38.4992162 142.439134,39.5000208 L142.439134,46.4996532 C142.439134,48.5000624 143.935076,50.4992717 145.431019,51.5000763 C184.325518,65.499341 204.271814,108.999542 189.810241,147.50052 C182.330529,168.500617 165.875164,184.500291 145.431019,192.000326 C143.43603,192.999931 142.439134,194.499938 142.439134,197.000749 L142.439134,204.000382 C142.439134,206.000791 143.43603,207.500798 145.431019,208 C145.930065,208 146.926961,208 147.426007,207.500798 C194.797114,192.500728 220.727179,141.999695 205.767756,94.4998751 C196.792102,65.9997434 174.850818,44.4992439 147.426007,35.4992023 Z" id="Shape" fill="#FFFFFF"></path>
        </g>
    </g>
</svg>