<?xml version="1.0" encoding="UTF-8"?>
<svg width="240px" height="241px" viewBox="0 0 240 241" version="1.1" xmlns="http://www.w3.org/2000/svg" xmlns:xlink="http://www.w3.org/1999/xlink">
    <title>v0</title>
    <g id="Page-1" stroke="none" stroke-width="1" fill="none" fill-rule="evenodd">
        <g id="v0" transform="translate(0, 0.3031)">
            <rect id="box" fill="#FFFFFF" x="0" y="0" width="240" height="240" rx="32"></rect>
            <path d="M135.532534,92.1996977 L176.764892,92.1996977 C177.410064,92.1996977 178.055236,92.243705 178.671083,92.3317197 L135.635175,135.385562 C135.543201,134.741749 135.496653,134.092258 135.495877,133.441904 L135.495877,92.1996977 L119,92.1996977 L119,133.441904 C118.998056,141.466637 122.183679,149.163256 127.855658,154.837599 C133.527637,160.511942 141.22105,163.698893 149.24244,163.696947 L190.474798,163.696947 L190.474798,147.194196 L149.24244,147.194196 C148.582605,147.194196 147.930101,147.150189 147.299592,147.062174 L190.364826,103.97166 C190.460711,104.627441 190.509712,105.289231 190.511456,105.95199 L190.511456,147.194196 L207,147.194196 L207,105.944655 C207,89.2393074 193.463281,75.6969474 176.764892,75.6969474 L135.532534,75.6969474 L135.532534,92.1996977 Z M31,86.6969474 L31,86.7407975 L87.3693685,158.274991 C94.1460139,166.869619 108,162.097262 108,151.16396 L108,86.6969474 L91.5057625,86.6969474 L91.5057625,136.905357 L51.9459949,86.6969474 L31,86.6969474 Z" id="Shape" fill="#000000"></path>
        </g>
    </g>
</svg>