<?xml version="1.0" encoding="UTF-8"?>
<svg width="240px" height="240px" viewBox="0 0 240 240" version="1.1" xmlns="http://www.w3.org/2000/svg" xmlns:xlink="http://www.w3.org/1999/xlink">
    <title>v8</title>
    <defs>
        <radialGradient cx="1.23272974%" cy="11.379%" fx="1.23272974%" fy="11.379%" r="105.364223%" gradientTransform="translate(0.0123, 0.1138), scale(0.8863, 1), translate(-0.0123, -0.1138)" id="radialGradient-1">
            <stop stop-color="#FFFFFF" stop-opacity="0.1" offset="0%"></stop>
            <stop stop-color="#FFFFFF" stop-opacity="0" offset="100%"></stop>
        </radialGradient>
    </defs>
    <g id="Page-1" stroke="none" stroke-width="1" fill="none" fill-rule="evenodd">
        <g id="v8" transform="translate(0, 0)">
            <rect id="ViewBox" x="0" y="0" width="240" height="240"></rect>
            <g id="shape" transform="translate(0, 14)">
                <path d="M201.09375,58.59375 L195.28125,70.875 L211.875,70.875 L212.71875,69.46875 L218.8125,58.59375 L200.90625,58.59375 L201.09375,58.59375 Z M38.625,58.59375 L21.09375,58.59375 L28.125,70.875 L44.53125,70.875 L38.625,58.59375 Z" id="Shape" fill="#9E9E9E" fill-rule="nonzero"></path>
                <polyline id="Path" fill="#424242" fill-rule="nonzero" points="240 21.84375 218.15625 60 202.875 60 178.40625 106.40625 120 212.71875 61.5 106.40625 37.125 60 21.84375 60 0 21.84375 62.71875 21.84375 72.9375 42.09375 106.21875 102.75 119.8125 127.6875 132.9375 102.75 165.65625 42.09375 177.1875 21.75"></polyline>
                <polygon id="Path" points="63.46875 23.15625 0.75 23.15625 0 21.84375 62.71875 21.84375"></polygon>
                <polygon id="Path" points="177.28125 21.84375 176.53125 23.25 239.25 23.25 240 21.84375"></polygon>
                <polyline id="Path" fill-opacity="0.2" fill="#263238" fill-rule="nonzero" points="212.8125 69.5625 212.0625 70.96875 197.25 70.96875 178.5 106.5 120 212.71875 61.5 106.40625 42.84375 70.875 28.03125 70.875 27.28125 69.46875 42.84375 69.46875 43.59375 70.875 61.5 105 120 211.40625 178.5 105.09375 196.5 70.96875 197.25 69.5625"></polyline>
                <path d="M143.15625,120 C143.15625,132.84375 132.75,143.15625 120,143.15625 C107.25,143.15625 96.84375,132.75 96.84375,120 C96.84375,107.25 107.25,96.84375 120,96.84375 C132.84375,96.84375 143.15625,107.15625 143.15625,120 M140.4375,49.125 C140.4375,60.375 131.25,69.5625 120,69.5625 C108.75,69.5625 99.5625,60.375 99.5625,49.125 C99.5625,37.875 108.75,28.59375 120,28.59375 C131.25,28.59375 140.4375,37.78125 140.4375,49.125" id="Shape" fill="#FFFFFF" fill-rule="nonzero"></path>
                <path d="M178.5,106.40625 C175.40625,93.1875 168,81.5625 157.78125,73.3125 C163.21875,65.71875 166.40625,56.4375 166.40625,46.3125 C166.40625,44.90625 166.3125,43.5 166.21875,42.09375 C164.0625,18.46875 144.1875,0 120,0 C95.8125,0 75.9375,18.46875 73.875,42.09375 C73.78125,43.5 73.6875,44.90625 73.6875,46.40625 C73.6875,56.4375 76.875,65.8125 82.3125,73.40625 C72.09375,81.65625 64.59375,93.1875 61.59375,106.5 C60.5625,110.8125 60,115.3125 60,120 C60,145.40625 75.84375,167.15625 98.15625,175.875 C104.90625,178.5 112.3125,180 120,180 C127.6875,180 135.09375,178.5 141.84375,175.875 C164.15625,167.15625 180,145.40625 180,120 C180,115.3125 179.4375,110.8125 178.5,106.40625 M120,30 C130.5,30 139.125,38.53125 139.125,49.125 C139.125,59.71875 130.59375,68.25 120,68.25 C109.5,68.25 100.875,59.71875 100.875,49.125 C100.875,38.53125 109.5,30 120,30 M120,141.84375 C108,141.84375 98.15625,132.09375 98.15625,120 C98.15625,112.96875 101.4375,106.78125 106.59375,102.75 C110.25,99.84375 114.9375,98.15625 120,98.15625 C125.0625,98.15625 129.75,99.84375 133.40625,102.75 C138.5625,106.78125 141.84375,112.96875 141.84375,120 C141.84375,132.09375 132.09375,141.84375 120,141.84375" id="Shape" fill="#4285F4" fill-rule="nonzero"></path>
                <path d="M166.40625,46.40625 L166.40625,47.0625 C165.9375,21.75 145.40625,1.40625 120,1.40625 C94.59375,1.40625 73.96875,21.75 73.59375,47.0625 L73.59375,46.40625 C73.59375,20.71875 94.40625,0 120,0 C145.59375,0 166.40625,20.71875 166.40625,46.40625 M81.65625,73.875 C68.4375,84.84375 60,101.4375 60,120 L60,120.65625 C60.1875,102.09375 68.90625,85.5 82.3125,74.71875 L82.96875,74.25 L82.3125,73.40625 L81.65625,73.875 Z M158.34375,73.875 L157.78125,73.40625 L157.125,74.25 L157.78125,74.8125 C171.1875,85.6875 179.90625,102.1875 180.09375,120.75 L180.09375,120 C180,101.4375 171.5625,84.84375 158.34375,73.875" id="Shape" fill-opacity="0.2" fill="#FFFFFF" fill-rule="nonzero"></path>
                <path d="M180,119.34375 L180,120 C180,153.09375 153.09375,180 120,180 C86.90625,180 60,153.09375 60,120 L60,119.34375 C60.375,152.15625 87.09375,178.6875 120,178.6875 C152.90625,178.6875 179.625,152.15625 180,119.34375 M73.59375,45.65625 L73.59375,46.3125 C73.59375,56.71875 77.0625,66.375 82.875,74.15625 C83.0625,74.0625 83.34375,73.875 83.53125,73.6875 C77.4375,66 73.78125,56.25 73.59375,45.65625 M166.40625,45.65625 C166.21875,56.25 162.5625,65.90625 156.46875,73.6875 C156.75,73.875 156.9375,74.0625 157.125,74.15625 C162.9375,66.5625 166.40625,56.8125 166.40625,46.3125 L166.40625,45.65625 Z" id="Shape" fill-opacity="0.2" fill="#263238" fill-rule="nonzero"></path>
                <path d="M240,21.84375 L218.15625,60 L211.96875,70.875 L197.15625,70.875 L178.40625,106.40625 C179.4375,110.8125 179.90625,115.3125 179.90625,120 C179.90625,145.40625 164.0625,167.15625 141.75,175.875 C141.09375,176.15625 140.34375,176.4375 139.6875,176.625 L120,212.71875 L100.125,176.625 C99.46875,176.4375 98.71875,176.15625 98.0625,175.875 C75.84375,167.0625 60,145.40625 60,120 C60,115.3125 60.5625,110.8125 61.5,106.40625 L42.84375,70.875 L28.125,70.875 L21.84375,60 L0,21.84375 L62.71875,21.84375 L72.9375,42.09375 L73.5,42.46875 C73.5,42.375 73.6875,42.28125 73.6875,42.09375 C75.84375,18.46875 95.71875,0 119.90625,0 C144.09375,0 163.96875,18.46875 166.125,42.09375 C166.125,42.1875 165.84375,42.28125 165.84375,42.375 L165.75,42.09375 L177.28125,21.75 L240,21.75 L240,21.84375 Z" id="Path" fill="url(#radialGradient-1)" fill-rule="nonzero"></path>
            </g>
        </g>
    </g>
</svg>