<?xml version="1.0" encoding="UTF-8"?>
<svg width="240px" height="240px" viewBox="0 0 240 240" version="1.1" xmlns="http://www.w3.org/2000/svg" xmlns:xlink="http://www.w3.org/1999/xlink">
    <title>vargant</title>
    <g id="Page-1" stroke="none" stroke-width="1" fill="none" fill-rule="evenodd">
        <g id="vargant">
            <rect id="ViewBox" x="0" y="0" width="240" height="240"></rect>
            <path d="M229.6875,44.8125 L229.6875,24.0375 L179.83125,53.0625 L179.83125,70.575 L139.93125,156.6375 L119.98125,170.38125 L119.98125,233.4 L162.75,208.74375 L229.6875,44.8125 Z M119.98125,125.5125 L90.075,55.70625 L90.075,35.98125 L89.86875,35.86875 L60.16875,53.0625 L60.16875,70.575 L100.05,160.40625 L119.98125,150.5625 L119.98125,125.5125 Z" id="Shape" fill="#1159CC" fill-rule="nonzero"></path>
            <polygon id="Path" fill="#127EFF" fill-rule="nonzero" points="199.78125 6.6 149.94375 35.79375 149.90625 35.775 149.90625 55.70625 119.98125 125.5125 119.98125 148.85625 100.05 160.40625 60.16875 70.575 60.16875 53.025 90.09375 35.79375 40.21875 6.6 10.3125 24.0375 10.3125 45.45 77.625 208.95 119.98125 233.4 119.98125 171.975 139.93125 160.40625 139.6875 160.25625 179.83125 70.575 179.83125 53.025 229.6875 24.0375"></polygon>
        </g>
    </g>
</svg>