<?xml version="1.0" encoding="UTF-8"?>
<svg width="240px" height="240px" viewBox="0 0 240 240" version="1.1" xmlns="http://www.w3.org/2000/svg" xmlns:xlink="http://www.w3.org/1999/xlink">
    <title>vault</title>
    <g id="Page-1" stroke="none" stroke-width="1" fill="none" fill-rule="evenodd">
        <g id="vault">
            <rect id="ViewBox" x="0.454761663" y="0" width="239.545238" height="240"></rect>
            <path d="M0,4 L119.323739,237 L239.545238,4 L0,4 Z M100.808621,96 L81.8446231,96 L81.8446231,77 L100.808621,77 L100.808621,96 Z M100.808621,68 L81.8446231,68 L81.8446231,49 L100.808621,49 L100.808621,68 Z M129.753671,125 L110.789673,125 L110.789673,106 L129.753671,106 L129.753671,125 Z M129.753671,96 L110.789673,96 L110.789673,77 L129.753671,77 L129.753671,96 Z M129.753671,68 L110.789673,68 L110.789673,49 L129.753671,49 L129.753671,68 Z M157.700615,96 L138.736617,96 L138.736617,77 L157.622796,77 L157.700615,96 Z M138.736617,68 L138.736617,49 L157.700615,49 L157.700615,68 L138.736617,68 Z" id="Shape" fill="#FFD814" fill-rule="nonzero"></path>
        </g>
    </g>
</svg>