<?xml version="1.0" encoding="UTF-8"?>
<svg width="240px" height="240px" viewBox="0 0 240 240" version="1.1" xmlns="http://www.w3.org/2000/svg" xmlns:xlink="http://www.w3.org/1999/xlink">
    <title>venacus</title>
    <g id="Page-1" stroke="none" stroke-width="1" fill="none" fill-rule="evenodd">
        <g id="venacus">
            <rect id="box" fill="#000000" x="0" y="0" width="240" height="240" rx="32"></rect>
            <path d="M119.5,168 C122.537566,168 125,170.370257 125,173.294118 L125,198.705882 C125,201.629743 122.537566,204 119.5,204 C116.462434,204 114,201.629743 114,198.705882 L114,173.294118 C114,170.370257 116.462434,168 119.5,168 Z M140.293501,120.00008 C143.232994,119.984221 145.628946,122.335952 145.645008,125.252899 L145.999923,189.689382 C146.015905,192.606329 143.645996,194.983903 140.706503,194.999924 C137.767009,195.015783 135.371058,192.664051 135.354995,189.747104 L135.00008,125.310622 C134.984099,122.393674 137.354007,120.0161 140.293501,120.00008 Z M119.5,78 C134.135546,78 146,89.7065625 146,104.147339 C146,107.035494 143.627109,109.376807 140.7,109.376807 C137.772891,109.376807 135.4,107.035494 135.4,104.147339 C135.4,95.4828731 128.281328,88.4589357 119.5,88.4589357 C110.718672,88.4589357 103.6,95.4828731 103.6,104.147339 L103.6,114.999617 L103.328,114.999 L103.999776,189.667704 C104.026021,192.585507 101.738866,194.972653 98.8912707,194.999775 C96.0436758,195.026438 93.7139682,192.682892 93.687723,189.76509 L93.015,115 L93,115 L93,104.147339 C93,89.7065625 104.864454,78 119.5,78 Z M77.5,131 C80.5375661,131 83,133.355517 83,136.261194 L83,172.738806 C83,175.644483 80.5375661,178 77.5,178 C74.4624339,178 72,175.644483 72,172.738806 L72,136.261194 C72,133.355517 74.4624339,131 77.5,131 Z M163.095302,86.0433145 C166.335229,92.9972589 168,99.093862 168,104.416286 L167.999437,104.709848 C167.98103,109.861924 167.511628,132.519837 166.588054,172.887231 C166.521972,175.77553 164.100718,178.063984 161.180032,177.998635 C158.259346,177.933285 155.945233,175.53888 156.011315,172.65058 C156.930915,132.456907 157.401532,109.739695 157.419989,104.702588 L157.420554,104.416286 C157.420554,100.807056 156.139141,96.1143556 153.486699,90.4213484 C152.264183,87.7974276 153.424096,84.6902633 156.077439,83.4813026 C158.730781,82.272342 161.872786,83.4193937 163.095302,86.0433145 Z M182.5,120 C185.537566,120 188,122.344169 188,125.235849 L188,151.764151 C188,154.655831 185.537566,157 182.5,157 C179.462434,157 177,154.655831 177,151.764151 L177,125.235849 C177,122.344169 179.462434,120 182.5,120 Z M76.779846,58.9077353 C78.6508815,61.1471034 78.3348234,64.46479 76.0739104,66.3179958 C70.256358,71.0864776 66.1962195,79.2708622 64.0824565,91.0724676 C61.8448645,103.565438 61.1259046,123.786249 61.9720984,151.578184 C62.060561,154.483604 59.7543057,156.909942 56.820933,156.997561 C53.8875603,157.085181 51.4378787,154.800903 51.349416,151.895483 C51.1251578,144.530067 51.0085687,137.675266 51.0004551,131.328363 L51.0009324,129.60998 C51.0331403,112.267734 51.8998743,98.828318 53.6183288,89.2338073 C56.1367255,75.1730424 61.3003926,64.7641763 69.2982916,58.2085268 C71.5592045,56.3553209 74.9088106,56.6683672 76.779846,58.9077353 Z M119.5,99 C122.537566,99 125,101.334125 125,104.213415 L125,150.786585 C125,153.665875 122.537566,156 119.5,156 C116.462434,156 114,153.665875 114,150.786585 L114,104.213415 C114,101.334125 116.462434,99 119.5,99 Z M119.126024,57 C130.06694,57 139.02275,60.4531705 148.846419,67.5819198 C151.180307,69.2755535 151.697705,72.5382616 150.002061,74.8693824 C148.306418,77.2005031 145.039837,77.7172884 142.70595,76.0236547 C134.538697,70.0969182 127.633721,67.4345058 119.126024,67.4345058 C94.6586358,67.4345058 81.0493989,83.8494598 82.5556403,114.527081 C82.6969449,117.405032 80.4756861,119.852486 77.59432,119.993623 C74.7129538,120.13476 72.2625951,117.916134 72.1212905,115.038184 C70.3374981,78.7076791 88.3348039,57 119.126024,57 Z M157.725339,46.6530418 C176.47368,59.3605324 188,80.5703081 188,103.730766 C188,106.640883 185.645179,109 182.740361,109 C179.835543,109 177.480722,106.640883 177.480722,103.730766 C177.480722,84.111008 167.720857,66.1517152 151.830764,55.3815242 C135.517194,44.3243036 114.977132,42.259641 95.3649938,50.8355111 C92.7027244,51.9996512 89.6025251,50.78124 88.440505,48.1141137 C87.2784848,45.4469873 88.4946772,42.3411322 91.1569466,41.1769921 C114.104122,31.1427986 138.452879,33.5903067 157.725339,46.6530418 Z" id="Combined-Shape" fill="#DEDEDE" fill-rule="nonzero"></path>
        </g>
    </g>
</svg>