<?xml version="1.0" encoding="UTF-8"?>
<svg width="229px" height="240px" viewBox="0 0 229 240" version="1.1" xmlns="http://www.w3.org/2000/svg" xmlns:xlink="http://www.w3.org/1999/xlink">
    <title>vertexai</title>
    <g id="Page-1" stroke="none" stroke-width="1" fill="none" fill-rule="evenodd">
        <g id="vertexai">
            <path d="M100.5,222 C96.9101491,222 94,224.910149 94,228.5 C94,232.089851 96.9101491,235 100.5,235 C104.089851,235 107,232.089851 107,228.5 C107,224.910149 104.089851,222 100.5,222 L100.5,222 Z M101.43752,233.512314 C99.765318,233.51215 98.2589541,232.501666 97.6245646,230.954546 C96.990175,229.407426 97.3535138,227.630352 98.5442594,226.456362 C99.7350049,225.282371 101.517117,224.944182 103.055199,225.600327 C104.59328,226.256471 105.582438,227.776882 105.558988,229.44884 C105.559098,230.536629 105.123038,231.579046 104.348405,232.342779 C103.573773,233.106511 102.525252,233.527786 101.43752,233.512314 L101.43752,233.512314 Z" id="Shape" fill="#4285F4" fill-rule="nonzero"></path>
            <path d="M220.486393,155.137441 C223.090865,155.554834 225.453571,156.894885 227.134939,158.915945 C230.242899,163.476979 229.387787,169.649803 225.156859,173.195174 L134.604764,240 C133.670875,232.622222 128.864017,226.305536 122,223.436094 L212.991669,156.653236 C215.224486,155.259128 217.88697,154.720646 220.486393,155.137441 L220.486393,155.137441 Z" id="Path" fill="#669DF6"></path>
            <path d="M93.5381318,239 L4.02836718,172.945406 C-0.302897488,169.598298 -1.28541452,163.462163 1.78435945,158.930856 C5.20555561,154.725624 11.240645,153.759982 15.8039611,156.687657 L106,222.894701 C99.2985542,225.694588 94.5648257,231.812299 93.5381318,239 Z" id="Path" fill="#AECBFA"></path>
            <path d="M21.516988,48.8114599 C20.1802286,48.7351191 19.1008608,44.0675706 19.083207,38.2869746 L19.083207,11.8939648 C18.9739359,7.81594646 19.4155864,3.828667 20.2188911,1.64085729 C21.0221959,-0.546952428 22.0445669,-0.546952428 22.8478716,1.64085729 C23.6511763,3.828667 24.0928268,7.81594646 23.9835557,11.8939648 L23.9835557,38.2869746 C23.965617,44.1223475 22.8665338,48.8119755 21.516988,48.8114599 L21.516988,48.8114599 Z M21.4666186,147 C22.8288945,147 23.9332373,141.140552 23.9332373,133.912557 C23.9332373,126.684562 22.8288945,120.825114 21.4666186,120.825114 C20.1043428,120.825114 19,126.684562 19,133.912557 C19,141.140552 20.1043428,147 21.4666186,147 Z M21.4666186,115.98276 C22.3478566,115.98276 23.162154,113.488308 23.602773,109.439039 C24.043392,105.38977 24.043392,100.400865 23.602773,96.3515959 C23.162154,92.3023269 22.3478566,89.8078747 21.4666186,89.8078747 C20.1043428,89.8078747 19,95.6673224 19,102.895318 C19,110.123313 20.1043428,115.98276 21.4666186,115.98276 L21.4666186,115.98276 Z M21.4666186,84.812834 C22.8288945,84.812834 23.9332373,78.9533862 23.9332373,71.7253911 C23.9332373,64.497396 22.8288945,58.6379482 21.4666186,58.6379482 C20.1043428,58.6379482 19,64.497396 19,71.7253911 C19,78.9533862 20.1043428,84.812834 21.4666186,84.812834 L21.4666186,84.812834 Z" id="Shape" fill="#AECBFA" fill-rule="nonzero"></path>
            <path d="M190.487412,79.5163386 C189.107247,79.4386598 187.99847,74.6764467 188.000002,68.8328724 L188.000002,42.4243217 C188.000002,36.6083864 189.113654,31.8936393 190.487412,31.8936393 C191.861171,31.8936393 192.974822,36.6083864 192.974822,42.4243217 L192.974822,68.8328724 C192.985189,71.6530348 192.727624,74.3726994 192.25994,76.3814077 C191.792256,78.390116 191.153632,79.5195989 190.487412,79.5163386 L190.487412,79.5163386 Z M190.512439,147 C191.401159,147 192.22237,144.504079 192.66673,140.452426 C193.11109,136.400772 193.11109,131.408929 192.66673,127.357276 C192.22237,123.305623 191.401159,120.809702 190.512439,120.809702 C189.138597,120.809702 188.024879,126.6726 188.024879,133.904851 C188.024879,141.137102 189.138597,147 190.512439,147 L190.512439,147 Z M190.512439,115.39704 C191.886281,115.39704 193,109.534142 193,102.301891 C193,95.0696399 191.886281,89.2067419 190.512439,89.2067419 C189.138597,89.2067419 188.024878,95.0696399 188.024878,102.301891 C188.024878,109.534142 189.138597,115.39704 190.512439,115.39704 Z M190.512439,27.1902982 C191.401159,27.1902982 192.22237,24.694377 192.66673,20.6427237 C193.11109,16.5910705 193.11109,11.5992278 192.66673,7.5475745 C192.22237,3.49592124 191.401159,1 190.512439,1 C189.138597,1 188.024878,6.86289796 188.024878,14.0951491 C188.024878,21.3274003 189.138597,27.1902982 190.512439,27.1902982 Z" id="Shape" fill="#4285F4" fill-rule="nonzero"></path>
            <path d="M106.496685,174.108404 C105.140171,174.031993 104.044852,169.361696 104.026937,163.577696 L104.026937,136.743553 C104.173222,131.360534 105.242401,127.299429 106.513321,127.299429 C107.784241,127.299429 108.85342,131.360534 108.999704,136.743553 L108.999704,163.293968 C109.010004,166.150758 108.750683,168.905405 108.280004,170.938993 C107.809326,172.972581 107.166762,174.114571 106.496685,174.108404 L106.496685,174.108404 Z M106.486531,210 C107.859805,210 108.973063,204.137102 108.973063,196.904851 C108.973063,189.6726 107.859805,183.809702 106.486531,183.809702 C105.113258,183.809702 104,189.6726 104,196.904851 C104,204.137102 105.113258,210 106.486531,210 Z M106.486531,121.367666 C107.859805,121.367666 108.973063,115.504768 108.973063,108.272517 C108.973063,101.040265 107.859805,95.1773675 106.486531,95.1773675 C105.113258,95.1773675 104,101.040265 104,108.272517 C104,115.504768 105.113258,121.367666 106.486531,121.367666 Z M106.486531,90.1902982 C107.859805,90.1902982 108.973063,84.3274003 108.973063,77.0951491 C108.973063,69.862898 107.859805,64 106.486531,64 C105.113258,64 104,69.862898 104,77.0951491 C104,84.3274003 105.113258,90.1902982 106.486531,90.1902982 L106.486531,90.1902982 Z" id="Shape" fill="#669DF6" fill-rule="nonzero"></path>
            <path d="M148.476814,112.01949 C147.126109,111.942881 146.035481,107.258931 146.017643,101.458021 L146.017643,74.9722639 C145.888546,70.3273717 146.477451,65.861285 147.471359,63.9477045 C148.465267,62.0341241 149.633423,63.1173239 150.354958,66.6215892 C150.827289,68.9023793 151.050698,71.9400739 150.969114,74.9722639 L150.969114,101.458021 C150.950988,107.3139 149.840439,112.020008 148.476814,112.01949 L148.476814,112.01949 Z M148.507191,59.2668666 C149.397786,59.2668666 150.220729,56.7636484 150.666027,52.70015 C151.111324,48.6366516 151.111324,43.630215 150.666027,39.5667166 C150.220729,35.5032181 149.397786,33 148.507191,33 C147.130451,33 146.014382,38.8800384 146.014382,46.1334333 C146.014382,53.3868282 147.130451,59.2668666 148.507191,59.2668666 Z M148.507191,179 C149.883931,179 151,173.119962 151,165.866567 C151,158.613172 149.883931,152.733133 148.507191,152.733133 C147.130451,152.733133 146.014382,158.613172 146.014382,165.866567 C146.014382,173.119962 147.130451,179 148.507191,179 Z M148.507191,147.731484 C149.883931,147.731484 151,141.851446 151,134.598051 C151,127.344656 149.883931,121.464618 148.507191,121.464618 C147.130451,121.464618 146.014382,127.344656 146.014382,134.598051 C146.014382,141.851446 147.130451,147.731484 148.507191,147.731484 Z" id="Shape" fill="#4285F4" fill-rule="nonzero"></path>
            <path d="M63.487052,179 C64.8600408,179 65.9730682,173.120402 65.9730682,165.867551 C65.9730682,158.6147 64.8600408,152.735102 63.487052,152.735102 C62.1140632,152.735102 61.0010358,158.6147 61.0010358,165.867551 C61.0010358,173.120402 62.1140632,179 63.487052,179 L63.487052,179 Z M63.487052,90.6842815 C64.8600408,90.6842815 65.9730682,84.8046839 65.9730682,77.5518327 C65.9730682,70.2989815 64.8600408,64.4193839 63.487052,64.4193839 C62.1140632,64.4193839 61.0010358,70.2989815 61.0010358,77.5518327 C61.0010358,84.8046839 62.1140632,90.6842815 63.487052,90.6842815 L63.487052,90.6842815 Z M63.4860162,59.2648977 C64.859005,59.2648977 65.9720323,53.3853001 65.9720323,46.1324488 C65.9720323,38.8795976 64.859005,33 63.4860162,33 C62.1130273,33 61,38.8795976 61,46.1324488 C61,53.3853001 62.1130273,59.2648977 63.4860162,59.2648977 L63.4860162,59.2648977 Z M63.5474742,142.874825 C62.19334,142.879166 61.0805819,138.335801 61.0279677,132.587737 L61.0279677,105.830373 C61.0279677,99.9978715 62.1409951,95.2696952 63.5139838,95.2696952 C64.8869726,95.2696952 66,99.9978715 66,105.830373 L66,132.587737 C65.9642076,138.255882 64.8821197,142.794684 63.5474742,142.874825 L63.5474742,142.874825 Z" id="Shape" fill="#AECBFA" fill-rule="nonzero"></path>
        </g>
    </g>
</svg>