<?xml version="1.0" encoding="UTF-8"?>
<svg width="240px" height="240px" viewBox="0 0 240 240" version="1.1" xmlns="http://www.w3.org/2000/svg" xmlns:xlink="http://www.w3.org/1999/xlink">
    <title>vidu</title>
    <defs>
        <linearGradient x1="3.16312663%" y1="29.8461622%" x2="108.979547%" y2="68.9407082%" id="linearGradient-1">
            <stop stop-color="#40EDD8" offset="0%"></stop>
            <stop stop-color="#38E7E2" offset="2.4%"></stop>
            <stop stop-color="#28DAF7" offset="8.4%"></stop>
            <stop stop-color="#22D5FF" offset="12.4%"></stop>
            <stop stop-color="#1ABFFF" offset="36%"></stop>
            <stop stop-color="#0786FE" offset="85%"></stop>
            <stop stop-color="#047FFE" offset="90.9%"></stop>
        </linearGradient>
    </defs>
    <g id="Page-1" stroke="none" stroke-width="1" fill="none" fill-rule="evenodd">
        <g id="vidu">
            <rect id="box" fill="#000000" x="0" y="0" width="240" height="240" rx="32"></rect>
            <path d="M174.853565,59.5743732 C156.263401,53.4213779 140.273438,66.4789767 136.545209,78.4282721 C136.545209,78.4282721 123.129955,121.486501 117.413336,139.448661 C114.685674,148.022089 107.923877,162.047861 95.1905384,162.047861 C84.8215988,162.047861 79.4937356,152.321543 77.2440517,146.525243 L61.7830515,105.333295 C59.9922267,100.995625 61.8659011,92.339392 69.0483195,89.746981 C76.7214623,86.9953309 81.6541969,93.4094782 82.9288053,96.817193 L102.188139,146.117591 C106.776729,140.206639 109.695582,130.588602 111.594749,123.779542 L98.9506332,90.5941325 C92.9536006,75.1097311 77.0910987,68.0649973 62.4012366,73.4791236 C50.5027669,77.8613812 39.0504102,92.8680656 45.2768724,111.728334 L61.2349699,152.748303 C63.6567259,158.964994 73.2226621,179.264783 94.8527671,179.264783 C120.810168,179.264783 130.548176,157.1433 135.952516,139.658856 C138.654686,130.91345 153.472009,83.6258334 153.472009,83.6258334 C155.626097,76.5619909 164.369911,74.5301011 169.837981,76.313578 C173.693671,77.5620119 180.659406,82.8805948 178.409723,91.122806 C177.989102,92.6260223 166.173482,130.671407 161.814321,142.244898 C159.539145,148.283241 153.771542,161.391797 140.630329,159.570102 C136.628058,168.423791 133.30133,173.576766 128.266627,178.201067 C144.658091,185.959191 168.544253,178.14374 178.600914,147.780046 C182.335517,136.486815 195.451237,95.7662156 195.451237,95.7662156 C199.262316,83.2627684 192.46228,65.3961515 174.853565,59.5743732 Z" id="Path" fill="url(#linearGradient-1)" fill-rule="nonzero"></path>
        </g>
    </g>
</svg>