<?xml version="1.0" encoding="UTF-8"?>
<svg width="240px" height="240px" viewBox="0 0 240 240" version="1.1" xmlns="http://www.w3.org/2000/svg" xmlns:xlink="http://www.w3.org/1999/xlink">
    <title>vim</title>
    <g id="Page-1" stroke="none" stroke-width="1" fill="none" fill-rule="evenodd">
        <g id="vim">
            <rect id="ViewBox" x="0" y="0" width="240" height="240"></rect>
            <g id="shape" fill-rule="nonzero">
                <polygon id="Path" fill="#019833" points="120.268125 1.8275585 1.8234375 119.732233 120.268125 238.181804 238.169062 119.732233"></polygon>
                <polygon id="Path" fill="#66FE98" points="120.2475 12.6543446 120.2475 2.70107903 2.600625 119.753766 12.6815625 119.753766"></polygon>
                <polygon id="Path" fill="#45FE02" points="120.2475 12.6543446 120.2475 2.70107903 238.26 119.753766 227.35125 119.753766"></polygon>
                <polygon id="Path" fill="#017D17" points="120.2475 227.355018 120.2475 238.373735 2.600625 119.753766 12.6815625 119.753766"></polygon>
                <polygon id="Path" fill="#005D04" points="120.2475 227.355018 120.2475 238.373735 238.26 119.753766 227.35125 119.753766"></polygon>
                <polygon id="Path" fill="#000000" points="61.149375 215.890646 38.34375 215.890646 29.4375 207.222851 29.4375 41.7099032 22.36875 41.7099032 16.3171875 35.6579882 16.3171875 17.1567671 22.58625 10.3661515 102.344062 10.3661515 109.515 17.5359481 109.515 35.0962386 103.55625 42.3493614 97.53 42.3493614 97.53 98.2977429 154.236562 42.3493614 151.070625 42.3493614 144.475312 35.2460385 144.475312 16.6259138 150.955312 10.6854125 231.460312 10.6854125 237.831562 17.0565885 237.831562 34.6674365"></polygon>
                <path d="M120.2475,240 L0,119.753766 L120.2475,0 L240,119.753766 L120.2475,240 Z M3.6834375,119.753766 L120.2475,236.318668 L236.314688,119.753766 L120.2475,3.68414072 L3.6834375,119.753766 Z" id="Shape" fill="#000000"></path>
                <polygon id="Path" fill="#FEFEFE" points="101.320313 21.29218 104.863125 19.0067956 101.243438 15.2543087 24.52125 15.2543087 20.623125 19.1528505 20.623125 33.8987759 24.945 38.2205023 27.0065625 33.8987759 24.2953125 31.1864618 24.2953125 20.7912866 26.32875 18.9833894 98.76375 19.0723331"></polygon>
                <polygon id="Path" fill="#FEFEFE" points="38.866875 33.5486186 38.866875 206.131184 41.296875 208.441847 39.3496875 212.116625 34.239375 207.089903 34.239375 38.0229537"></polygon>
                <polygon id="Path" fill="#808080" points="26.47125 33.5486186 24.945 38.2205023 34.213125 38.2205023 39.5746875 33.5486186"></polygon>
                <path d="M156.122812,33.6085386 L152.881875,31.322218 L152.881875,22.0570956 L156.271875,18.6669371 L227.005312,18.6669371 L229.7175,22.2827317 L233.577187,19.2408579 L229.604062,15.6157009 L153.559687,15.6157009 L149.774062,19.4009565 L149.774062,34.2601681 L153.760312,37.8628551 M92.24625,109.308034 L84.8596875,127.231589 L168.248437,43.6161066 L167.840625,33.5008699 L92.24625,109.308034 Z" id="Shape" fill="#FEFEFE"></path>
                <path d="M101.153438,21.2257063 L104.863125,19.0067956 L104.863125,33.5486186 L100.628438,37.7832739 L92.3990625,37.7832739 L92.24625,109.308034 L84.8878125,127.190394 L84.8878125,33.5486186 L98.630625,33.5486186 L101.187188,31.4710816 L101.153438,21.2257063 Z M229.46625,21.273455 L233.577188,19.2408579 L233.577188,32.5196807 L58.5075,212.116625 L39.3496875,212.116625 L41.2190625,208.586966 L55.933125,208.587902 L229.491563,29.3785646 L229.46625,21.273455 Z M167.840625,33.5008699 L163.576875,37.7785927 L153.760313,37.8628551 L156.1575,33.5654711 L167.840625,33.5008699 Z" id="Shape" fill="#808080"></path>
                <polygon id="Path" fill="#CCCCCC" points="155.599687 18.5283723 152.890312 21.2369413 152.890312 31.1836531 155.263125 33.5561086 167.799375 33.5561086 167.799375 43.166707 84.868125 127.225972 84.868125 33.6750123 98.6503125 33.6750123 101.477812 30.8475396 101.477812 20.7819241 98.8678125 18.7652433 26.3371875 18.7652433 23.964375 21.1386351 23.964375 31.4205241 26.3765625 33.8332384 38.9925 33.8332384 38.9925 206.104969 41.3653125 208.477425 55.7015625 208.477425 229.494375 29.1463748 229.494375 21.2369413 226.785 18.5283723"></polygon>
                <path d="M55.7990625,208.706806 L41.270625,208.706806 L38.76375,206.19953 L38.76375,34.0616832 L26.281875,34.0616832 L23.735625,31.5150853 L23.735625,21.0431377 L26.2425,18.5367985 L98.9465625,18.5367985 L101.7075,20.6695742 L101.7075,30.9421008 L98.7459375,33.9034571 L85.096875,33.9034571 L85.096875,126.667967 L167.570625,43.0721458 L167.570625,33.7854897 L155.168437,33.7854897 L152.661562,31.2782143 L152.661562,21.1423801 L155.504062,18.2989912 L226.879687,18.2989912 L229.723125,21.1423801 L229.723125,29.2390634 L229.659375,29.3055371 L55.7990625,208.706806 Z M41.4609375,208.24898 L55.605,208.24898 L229.265625,29.0546223 L229.265625,21.3315024 L226.690312,18.7568171 L155.694375,18.7568171 L153.119062,21.3315024 L153.119062,31.0890919 L155.357812,33.3276638 L168.029062,33.3276638 L168.029062,43.2603319 L167.963437,43.3268056 L84.639375,127.783976 L84.639375,33.4465675 L98.555625,33.4465675 L101.249062,30.7520422 L101.249062,20.8942741 L98.79,18.9936881 L26.431875,18.9936881 L24.193125,21.2331963 L24.193125,31.325963 L26.4721875,33.6047936 L39.22125,33.6047936 L39.22125,206.009472 L41.4609375,208.24898 Z" id="Shape" fill="#808080"></path>
                <path d="M126.155625,134.650428 C126.023433,134.677854 125.90066,134.739158 125.799375,134.828315 L122.438438,137.714772 C122.338129,137.806206 122.263203,137.921992 122.220938,138.050885 L118.859063,147.463935 C118.759155,147.746033 118.828199,148.06031 119.037188,148.274727 L121.607813,150.844731 C121.756784,150.987076 121.955714,151.065399 122.161875,151.062976 L132.542813,151.062976 C132.748837,151.066167 132.947756,150.987715 133.095938,150.844731 L135.805313,148.116501 C135.899063,148.022876 135.966563,147.906781 136.003125,147.780387 L138.890625,137.872998 C138.969202,137.59933 138.893543,137.30462 138.692813,137.102465 L136.457813,134.867638 C136.30948,134.724995 136.110579,134.646888 135.904688,134.650428 L126.314063,134.650428 C126.261345,134.645963 126.208343,134.645963 126.155625,134.650428 M107.13375,161.18654 C106.842187,161.248533 106.611714,161.471426 106.540313,161.760461 L105.255,166.862083 C105.196961,167.093933 105.248569,167.339559 105.395031,167.528557 C105.541494,167.717554 105.766641,167.829055 106.005938,167.831101 L112.116563,167.831101 L96.969375,211.076453 C96.8894983,211.313139 96.9279675,211.573712 97.0728437,211.777306 C97.21772,211.9809 97.4514745,212.10288 97.7015625,212.105493 L119.74875,212.105493 C120.089572,212.11089 120.394303,211.89422 120.500625,211.570792 L121.944375,206.924187 C122.016761,206.686857 121.971905,206.429297 121.823531,206.230312 C121.675157,206.031327 121.440924,205.914601 121.1925,205.915847 L116.209688,205.915847 L131.198438,162.215478 C131.278314,161.978792 131.239845,161.718218 131.094969,161.514624 C130.950092,161.311031 130.716338,161.189051 130.46625,161.18654 L107.29125,161.18654 C107.238843,161.182128 107.186157,161.182128 107.13375,161.18654 M177.291562,161.344766 C177.121826,161.380309 176.968585,161.470815 176.855625,161.602235 L172.268438,166.782502 L164.971875,166.782502 L160.107188,161.740799 C159.962245,161.590605 159.762924,161.50491 159.554063,161.502992 L142.133438,161.502992 C141.805259,161.502987 141.512356,161.708606 141.40125,162.016993 L139.8,166.803099 C139.720982,167.039498 139.759708,167.299365 139.904233,167.50254 C140.048758,167.705715 140.281717,167.827787 140.53125,167.831101 L145.198125,167.831101 L130.68375,210.601774 C130.604751,210.83843 130.643566,211.098527 130.788286,211.30187 C130.932984,211.505213 131.166167,211.627383 131.415938,211.630732 L149.963438,211.630732 C150.291616,211.630732 150.584519,211.425098 150.695625,211.116711 L152.11875,206.943848 C152.198206,206.707434 152.159663,206.447329 152.01505,206.244029 C151.870436,206.040729 151.637192,205.918752 151.3875,205.915847 L148.144688,205.915847 L157.39875,176.788197 L174.147188,176.788197 L163.588125,210.622372 C163.514924,210.859594 163.55932,211.117455 163.707656,211.316637 C163.855993,211.515819 164.090506,211.632471 164.339063,211.630732 L182.234063,211.630732 C182.545238,211.628998 182.825469,211.442304 182.946563,211.156034 L184.547813,207.319284 C184.642754,207.081461 184.614611,206.81223 184.472533,206.599117 C184.330454,206.386003 184.092584,206.256221 183.83625,206.25196 L180.593438,206.25196 L190.005938,176.629971 L205.943438,176.629971 L195.225938,210.622372 C195.153119,210.859727 195.1978,211.117525 195.346265,211.316631 C195.494729,211.515737 195.72924,211.632364 195.977813,211.630732 L215.6325,211.630732 C215.955274,211.632442 216.246018,211.436144 216.364688,211.136373 L217.965938,206.96351 C218.053351,206.72471 218.018715,206.458348 217.873128,206.249766 C217.727541,206.041183 217.489282,205.916568 217.234688,205.915847 L213.338438,205.915847 L225.18375,167.455665 C225.262083,167.212938 225.2177,166.947349 225.064688,166.743179 L221.386875,161.799783 C221.234819,161.60646 221.000133,161.496392 220.754063,161.502992 L206.695313,161.502992 C206.479298,161.499279 206.271462,161.585423 206.121563,161.740799 L201.691875,166.604614 L193.940625,166.604614 L189.353438,161.582573 C189.203538,161.427197 188.995702,161.341457 188.779688,161.344766 L177.449063,161.344766 C177.396655,161.340354 177.34397,161.340354 177.291563,161.344766" id="Shape" fill="#CCCCCC"></path>
                <path d="M120.336562,152.16297 C120.826875,152.634839 121.468125,152.893244 122.11875,152.893244 L122.161875,152.892308 L132.510937,152.892308 C133.206562,152.913842 133.864687,152.646074 134.398125,152.133946 L137.100937,149.410397 C137.414062,149.09769 137.64375,148.707274 137.762812,148.291579 L140.649375,138.386062 C140.916175,137.471107 140.662875,136.483658 139.988437,135.809504 L137.73,133.550335 C137.244968,133.071204 136.586808,132.807886 135.904687,132.820061 L126.379687,132.820061 C126.24339,132.813274 126.10678,132.816576 125.970937,132.829423 L125.77875,132.859383 C125.338125,132.952072 124.926562,133.15711 124.605,133.439858 L121.243125,136.32725 L121.204687,136.361892 C120.8775,136.659619 120.630937,137.035991 120.488437,137.454494 L117.134062,146.84601 C116.798649,147.794439 117.034085,148.850852 117.740625,149.567687 L120.336562,152.16297 Z M135.480937,136.479859 L136.9575,137.956324 L134.3175,147.015472 L132.118125,149.23251 L122.585625,149.233446 L120.807187,147.454572 L123.860625,138.906617 L126.68625,136.479859 L135.480937,136.479859 Z M226.535625,165.651512 L222.857812,160.708117 L222.825,160.665985 C222.320699,160.030929 221.550612,159.664546 220.739062,159.673561 L206.725312,159.673561 C206.002017,159.658385 205.305392,159.946306 204.804375,160.4675 L200.881875,164.775183 L194.749687,164.775183 L190.707187,160.349533 L190.669687,160.309274 C190.172286,159.801493 189.490982,159.515295 188.779687,159.515335 L177.514687,159.515335 C177.37839,159.508548 177.24178,159.51185 177.105937,159.524697 L176.916562,159.553721 C176.360274,159.668936 175.856919,159.962524 175.483125,160.389792 L171.4425,164.953071 L165.750937,164.953071 L161.424375,160.468437 C160.933124,159.963395 160.259091,159.676934 159.554062,159.673561 L142.127812,159.673561 C141.032129,159.680286 140.055886,160.365955 139.679062,161.393451 L138.062812,166.219816 C137.797517,167.014506 137.929663,167.888032 138.418194,168.568988 C138.906725,169.249943 139.692453,169.655828 140.53125,169.660532 L142.6425,169.660532 L128.945625,210.022236 C128.491083,211.388334 129.227208,212.864478 130.592812,213.325323 C130.8525,213.411458 131.1225,213.457334 131.415937,213.460143 L149.969062,213.460143 C151.077016,213.450609 152.060578,212.74975 152.43,211.706548 L153.856875,207.525259 C154.121407,206.730547 153.988787,205.857381 153.500174,205.176755 C153.011561,204.496128 152.226076,204.090396 151.3875,204.08548 L150.647812,204.08548 L158.739375,178.618564 L171.65625,178.618564 L161.835,210.086837 C161.414558,211.463848 162.188971,212.921002 163.566562,213.344984 C163.817446,213.419065 164.077453,213.457825 164.339062,213.460143 L182.25,213.460143 C183.294441,213.450753 184.233164,212.821724 184.637812,211.860093 L186.252187,207.993384 C186.569249,207.191833 186.470012,206.285685 185.986959,205.571525 C185.503905,204.857365 184.699209,204.427113 183.83625,204.421593 L183.0975,204.421593 L191.346562,178.460338 L203.445,178.460338 L193.472812,210.08871 C193.233443,210.878276 193.381338,211.734356 193.871792,212.398175 C194.362246,213.061995 195.137699,213.455648 195.96375,213.460143 L215.620312,213.460143 C216.703986,213.458834 217.677126,212.797211 218.075625,211.790811 L219.687187,207.591733 C219.979035,206.79169 219.862103,205.8998 219.373848,205.20176 C218.885594,204.50372 218.087303,204.087147 217.234687,204.08548 L215.819062,204.08548 L226.925625,168.023032 C227.189102,167.216192 227.043664,166.331814 226.535625,165.651512 M210.857812,207.745278 L215.70375,207.745278 L214.914375,209.800345 L197.405625,209.800345 L208.441875,174.80054 L188.664375,174.80054 L178.089375,208.082328 L182.244375,208.082328 L181.527187,209.800345 L165.763125,209.800345 L176.637187,174.958766 L156.057187,174.958766 L145.640625,207.745278 L149.91,207.745278 L149.20875,209.800345 L132.890625,209.800345 L147.75375,166.000733 L142.000312,166.000733 L142.892812,163.333359 L159.099375,163.333359 L164.192812,168.612869 L173.094375,168.612869 L177.908437,163.175133 L188.327812,163.174197 L193.131562,168.434981 L202.502812,168.434981 L207.148125,163.333359 L220.245,163.333359 L223.27875,167.411661 L210.857812,207.745278 Z M121.965,204.200638 C121.714117,204.126558 121.45411,204.087798 121.1925,204.08548 L118.77375,204.08548 L132.935625,162.797825 C133.200971,162.002979 133.068717,161.129277 132.579968,160.448276 C132.091219,159.767275 131.305213,159.361514 130.46625,159.357109 L107.356875,159.357109 C107.220266,159.350277 107.08334,159.353593 106.947187,159.366471 L106.7475,159.398304 C105.772791,159.603804 105.001705,160.348035 104.762812,161.31387 L103.476562,166.420173 C103.130644,167.819516 103.983369,169.234641 105.383437,169.584695 C105.580937,169.634005 105.788437,169.659283 106.005937,169.660532 L109.53375,169.660532 L95.2321875,210.495042 C94.9672135,211.289771 95.0996496,212.163177 95.5883532,212.84393 C96.0770568,213.524682 96.8628292,213.930317 97.7015625,213.934821 L119.760937,213.934821 C120.889687,213.934821 121.8825,213.220463 122.250937,212.11288 L123.696562,207.458786 C124.117005,206.081775 123.342591,204.624621 121.965,204.200638 M99.19125,210.275023 L114.698437,166.000733 L107.361562,166.000733 L108.113437,163.016907 L128.985937,163.016907 L113.644687,207.745278 L119.770312,207.745278 L118.984687,210.275023 L99.19125,210.275023 Z" id="Shape" fill="#000000"></path>
            </g>
        </g>
    </g>
</svg>