<?xml version="1.0" encoding="UTF-8"?>
<svg width="240px" height="240px" viewBox="0 0 240 240" version="1.1" xmlns="http://www.w3.org/2000/svg" xmlns:xlink="http://www.w3.org/1999/xlink">
    <title>visa</title>
    <g id="Page-1" stroke="none" stroke-width="1" fill="none" fill-rule="evenodd">
        <g id="visa" transform="translate(0, 0)" fill-rule="nonzero">
            <path d="M240,25.7142857 L240,214.285714 L240,214.285714 C240,228.482143 231.041667,240 220,240 L20,240 C8.95833333,240 0,228.482143 0,214.285714 L0,25.7142857 C0,11.5178571 8.95833333,0 20,0 L220,0 C231.041667,0 240,11.5178571 240,25.7142857" id="Shape-Copy" fill="#FFFFFF"></path>
            <path d="M195.875,113.041667 C195.875,113.041667 199.041667,128.541667 199.75,131.791667 L185.833333,131.791667 C187.208333,128.083333 192.5,113.666667 192.5,113.666667 C192.416667,113.791667 193.875,109.875 194.708333,107.458333 L195.875,113.041667 Z M240,25.7142857 L240,214.285714 L240,214.285714 C240,228.482143 231.041667,240 220,240 L20,240 C8.95833333,240 0,228.482143 0,214.285714 L0,25.7142857 C0,11.5178571 8.95833333,2.84217094e-14 20,2.84217094e-14 L220,2.84217094e-14 C231.041667,2.84217094e-14 240,11.5178571 240,25.7142857 M66.8809735,146.466344 L86.5356932,98.200323 C87.7759822,95.15455 86.3123482,91.6800102 83.2665752,90.4397212 C82.5534647,90.1493308 81.790803,90 81.0208333,90 C75.6987734,90 70.938796,93.311814 69.0886817,98.3019441 L57.3796016,129.883687 C57.1310043,130.554204 56.3859152,130.896237 55.7153985,130.64764 C55.2941358,130.491455 54.9839452,130.128059 54.8958333,129.6875 L54.0118409,125.267538 C54.003947,125.228068 53.9961275,125.188584 53.9883826,125.149084 L48.1666667,95.4583333 L48.1666667,95.4583333 C47.2083333,91.3333333 44.25,90.1666667 40.5833333,90 L14.9491874,90 C14.1748876,90 13.5038813,90.5363829 13.3333333,91.2916667 L13.3333333,91.2916667 L13.3333333,91.2916667 C19.9166667,92.9583333 25.7916667,95.375 30.9166667,98.4166667 L43.5637847,146.108313 C44.9017316,151.153643 49.4677816,154.666667 54.6875,154.666667 C60.0412369,154.666667 64.8618371,151.424729 66.8809735,146.466344 Z M104.212261,146.503556 L112.034404,98.2670084 C112.664403,94.3820143 110.025708,90.7218892 106.140714,90.0918902 C105.763554,90.0307291 105.382087,90 105,90 C100.172997,90 96.0592644,93.5026023 95.2895884,98.2678474 L87.4987564,146.502719 C86.872357,150.380905 89.5084509,154.032593 93.3866369,154.658993 C93.7616656,154.719567 94.1409442,154.75 94.5208333,154.75 C99.3365588,154.75 103.441402,151.257185 104.212261,146.503556 Z M161.166667,133.583333 C161.25,126.208333 156.75,120.583333 147.125,115.958333 C141.25,113 137.666667,111 137.666667,107.958333 C137.75,105.208333 140.708333,102.375 147.291667,102.375 C152.75,102.25 156.75,103.541667 159.75,104.833333 C160.374476,105.128225 161.11977,104.861044 161.414661,104.236568 C161.464386,104.131268 161.499158,104.019539 161.517969,103.904618 L163.541667,91.5416667 L163.541667,91.5416667 C160.25,90.25 155,88.7916667 148.541667,88.7916667 C132,88.7916667 120.375,97.625 120.291667,110.208333 C120.166667,119.5 128.625,124.666667 134.958333,127.791667 C141.416667,130.958333 143.625,133.041667 143.625,135.833333 C143.541667,140.166667 138.375,142.166667 133.583333,142.166667 C126.916667,142.166667 123.333333,141.125 117.875,138.708333 C116.958232,138.275896 115.864486,138.668523 115.432048,139.58529 C115.358416,139.74139 115.307171,139.907095 115.279827,140.077509 L113.333333,152.208333 L113.333333,152.208333 C117.25,154 124.5,155.583333 132,155.666816 C149.583333,155.708333 161.041667,147 161.166667,133.583333 M216.83637,139.576291 L209.144863,102.685547 C207.604101,95.2955947 201.09053,90 193.541667,90 L193.541667,90 L193.541667,90 C189.541667,90 186.5,91.1666667 184.791667,95.375 L166.71099,138.532393 C164.214648,144.490998 167.021367,151.345088 172.979973,153.84143 C174.411455,154.441145 175.947969,154.75 177.5,154.75 L177.5,154.75 L177.5,154.75 C177.5,154.75 180.375,146.75 181,145.041667 L202.5,145.041667 C203,147.333333 204.5,154.75 204.5,154.75 C211.459698,154.75 217.101647,149.10805 217.101647,142.148353 C217.101647,141.284171 217.012754,140.422281 216.83637,139.576291 Z" id="Shape" fill="#243880"></path>
        </g>
    </g>
</svg>