<?xml version="1.0" encoding="UTF-8"?>
<svg width="240px" height="241px" viewBox="0 0 240 241" version="1.1" xmlns="http://www.w3.org/2000/svg" xmlns:xlink="http://www.w3.org/1999/xlink">
    <title>visualstudio</title>
    <g id="Page-1" stroke="none" stroke-width="1" fill="none" fill-rule="evenodd">
        <g id="visualstudio" transform="translate(173, -143.8734)">
            <rect id="box" x="-173" y="144" width="240" height="240"></rect>
            <g id="shape" transform="translate(-173, 145)" fill-rule="nonzero">
                <path d="M34.003871,187.970227 C31.1918926,190.426117 27.2672131,191.055936 23.8541935,189.599011 L6.03096774,181.956257 C2.39640497,180.406623 0.0213551632,176.785012 0,172.759894 L0,65.8615705 C0.0213551632,61.8364526 2.39640497,58.2148414 6.03096774,56.6652075 L23.8541935,49.1477445 C27.2672131,47.6908197 31.1918926,48.3206381 34.003871,50.7765281 L38,54.1593865 C36.3476926,52.9452868 34.1691284,52.779889 32.3594611,53.7311536 C30.5497938,54.6824182 29.4142267,56.5899129 29.4193548,58.6698643 L29.4193548,179.9516 C29.4142267,182.031551 30.5497938,183.939046 32.3594611,184.890311 C34.1691284,185.841575 36.3476926,185.676178 38,184.462078 L34.003871,187.970227 Z" id="Path" fill="#52218A"></path>
                <path d="M6.14999996,181.987506 C2.44370242,180.443626 0.0217766466,176.83546 0,172.825286 L0,172.001435 C0.0252125668,174.359743 1.48586453,176.465064 3.68804173,177.317219 C5.89021893,178.169374 8.39007517,177.596613 10,175.871038 L165,4.73474044 C169.497906,0.265403427 176.325348,-0.89424494 182.049999,1.83877975 L231.5,25.6056295 C236.697913,28.101421 240.002495,33.3522715 240,39.111791 L240,39.6859901 C239.996838,36.0315081 237.886478,32.7055651 234.578741,31.1420484 C231.271005,29.5785316 227.357334,30.0570068 224.524999,32.3711928 L38.7499998,184.484024 L34.6749998,187.979149 C31.8075218,190.425921 27.8053816,191.053402 24.3249999,189.601886 L6.14999996,181.987506 Z" id="Path" fill="#6C33AF"></path>
                <path d="M6.14999996,56.6797926 C2.44370242,58.2243488 0.0217766466,61.8340929 0,65.8460215 L0,66.6702328 C0.0252125668,64.3108926 1.48586453,62.2046509 3.68804173,61.352123 C5.89021893,60.4995951 8.39007517,61.072607 10,62.7989372 L165,234.010107 C169.497906,238.481399 176.325348,239.641555 182.049999,236.907334 L231.5,213.130087 C236.697913,210.633203 240.002495,205.380056 240,199.618016 L240,199.043566 C239.996838,202.699647 237.886478,206.027045 234.578741,207.591246 C231.271005,209.155446 227.357334,208.676762 224.524999,206.361563 L38.7499998,54.1821825 L34.6749998,50.6855284 C31.7822048,48.2798898 27.7823698,47.7007577 24.3249999,49.1869624 L6.14999996,56.6797926 Z" id="Path" fill="#854CC7"></path>
                <path d="M182.05,236.910449 C176.325349,239.638861 169.497907,238.48117 165,234.019376 C167.519173,236.512716 171.294372,237.252963 174.573092,235.896482 C177.851812,234.540002 179.991942,231.352451 180,227.813538 L180,10.9830633 C180.012154,7.43507987 177.879439,4.22909196 174.596192,2.85982811 C171.312945,1.49056426 167.525627,2.22762863 165,4.7273795 C169.497907,0.265585661 176.325349,-0.892105497 182.05,1.83630651 L231.5,25.5381205 C236.697913,28.0296996 240.002495,33.271688 240,39.0214868 L240,199.725269 C240.002495,205.475067 236.697913,210.717056 231.5,213.208635 L182.05,236.910449 Z" id="Path" fill="#B179F1"></path>
            </g>
        </g>
    </g>
</svg>