<?xml version="1.0" encoding="UTF-8"?>
<svg width="240px" height="240px" viewBox="0 0 240 240" version="1.1" xmlns="http://www.w3.org/2000/svg" xmlns:xlink="http://www.w3.org/1999/xlink">
    <title>vitejs</title>
    <defs>
        <linearGradient x1="-0.828509097%" y1="7.60617799%" x2="57.6366491%" y2="78.4433102%" id="linearGradient-1">
            <stop stop-color="#41D1FF" offset="0%"></stop>
            <stop stop-color="#BD34FE" offset="100%"></stop>
        </linearGradient>
        <linearGradient x1="43.3411717%" y1="2.24032553%" x2="50.3179966%" y2="89.0303181%" id="linearGradient-2">
            <stop stop-color="#FFEA83" offset="0%"></stop>
            <stop stop-color="#FFDD35" offset="8.3%"></stop>
            <stop stop-color="#FFA800" offset="100%"></stop>
        </linearGradient>
    </defs>
    <g id="Page-1" stroke="none" stroke-width="1" fill="none" fill-rule="evenodd">
        <g id="vitejs" transform="translate(-0.1137, 0.0262)" fill-rule="nonzero">
            <path d="M239.319201,35.1273718 L126.581404,236.83529 C124.251754,241.00031 118.271599,241.023874 115.910547,236.882419 L0.935344042,35.1509363 C-1.64159839,30.6304858 2.21498339,25.1615656 7.33550342,26.0746887 L120.194984,46.2556918 C120.915206,46.3872623 121.653288,46.3872623 122.373511,46.2556918 L232.869976,26.106108 C237.968907,25.1772752 241.84904,30.6010303 239.319201,35.1273718 Z" id="Path" fill="url(#linearGradient-1)"></path>
            <path d="M174.103832,0.0327675762 L90.7203651,16.3267675 C89.3514852,16.5935404 88.3366476,17.7497323 88.2525629,19.1383042 L83.1188281,105.554417 C83.0628889,106.515241 83.4637327,107.446271 84.2007938,108.06747 C84.937855,108.688669 85.925124,108.927549 86.8656502,108.71226 L110.084177,103.361144 C111.100284,103.128263 112.165395,103.426667 112.911294,104.153194 C113.657193,104.879722 113.981518,105.934671 113.772149,106.953337 L106.872896,140.642865 C106.658389,141.697701 107.016034,142.787308 107.814449,143.511415 C108.612863,144.235521 109.734319,144.487356 110.766844,144.174405 L125.102853,139.825034 C127.325444,139.151987 129.463683,141.100693 128.996801,143.370271 L118.030971,196.288596 C117.348304,199.599049 121.7621,201.402971 123.602162,198.566 L124.828217,196.672077 L192.781054,61.4170078 C193.922755,59.1474305 191.955183,56.564808 189.465803,57.0461149 L165.562647,61.6478786 C164.516643,61.850562 163.440309,61.4952627 162.72208,60.7102039 C162.003852,59.9251452 161.747425,58.8236719 162.045342,57.8032929 L177.640753,3.87735329 C177.938947,2.85330555 177.679661,1.74828829 176.956815,0.962564287 C176.233968,0.176840289 175.152382,-0.175652264 174.103832,0.0327675762 L174.103832,0.0327675762 Z" id="Path" fill="url(#linearGradient-2)"></path>
        </g>
    </g>
</svg>