<?xml version="1.0" encoding="UTF-8"?>
<svg width="180px" height="180px" viewBox="0 0 180 180" version="1.1" xmlns="http://www.w3.org/2000/svg" xmlns:xlink="http://www.w3.org/1999/xlink">
    <title>Group 2</title>
    <g id="Page-1" stroke="none" stroke-width="1" fill="none" fill-rule="evenodd">
        <g id="Group-2" transform="translate(-0.0007, 0.0007)" fill="#FFFFFF" fill-rule="nonzero">
            <path d="M162.85707,144.078718 L130.274566,111.604355 C129.900055,111.231086 129.355311,110.993552 128.844613,110.993552 C128.299869,110.993552 127.789171,111.197153 127.41466,111.604355 L125.201637,113.810033 L121.76294,110.382749 L122.750289,109.398677 C124.350475,107.803802 124.350475,105.224856 122.750289,103.629981 L121.86508,102.74771 C121.933173,102.544109 122.001266,102.306575 122.001266,102.035107 L122.001266,88.5295719 C129.797915,93.653531 137.969076,96.5039454 145.050749,96.5039454 C146.684981,96.5039454 148.285166,96.3342779 149.783213,96.0288763 C151.247212,95.7234748 152.43884,94.6376026 152.881444,93.2123955 C153.324049,91.7871883 152.915491,90.2262471 151.860049,89.1743085 L133.781356,71.1556177 L133.781356,62.9097762 C134.189914,62.9776432 134.632519,63.0455102 135.075123,63.0455102 C136.811495,63.0455102 138.445727,62.3668401 139.671401,61.145234 C140.897075,59.9236278 141.578005,58.2948196 141.578005,56.5642109 C141.578005,54.8336022 140.897075,53.204794 139.671401,51.9831878 C138.445727,50.7615817 136.811495,50.0829116 135.075123,50.0829116 C133.338751,50.0829116 131.704519,50.7615817 130.478845,51.9831878 C129.253171,53.204794 128.572241,54.8336022 128.572241,56.5642109 C128.572241,57.0053465 128.606288,57.4125485 128.708427,57.8536841 L120.435127,57.8536841 L102.356433,39.8349933 C101.573364,39.0545227 100.551969,38.6473207 99.4624806,38.6473207 C99.0879691,38.6473207 98.679411,38.7151877 98.3048995,38.8169882 C96.8749464,39.2581238 95.7854582,40.4118629 95.4790397,41.9049371 C93.810761,49.8793106 96.6366208,59.9575613 103.037363,69.5946765 L89.4868551,69.5946765 C89.3166226,69.5946765 89.1463901,69.62861 88.9761576,69.6625435 C90.0996922,67.8640678 89.8954132,65.454789 88.329274,63.8938478 C87.6823904,63.2491112 86.8993209,62.8419092 86.0481583,62.6383082 L76.9577419,25.073919 C77.0939279,24.9721185 77.2301139,24.8363845 77.3662999,24.7006504 C79.2388576,22.8343077 79.2388576,19.7802923 77.3662999,17.9139496 C75.4937422,16.0476069 72.4295569,16.0476069 70.5569992,17.9139496 C68.6844416,19.7802923 68.6844416,22.8343077 70.5569992,24.7006504 C71.2379293,25.3793205 72.0890919,25.8204561 72.974301,25.9901236 L81.8944849,63.5205793 C81.7923454,63.6223798 81.6561593,63.7241803 81.5540198,63.8259808 C79.7495552,65.6244565 79.7495552,68.5766714 81.5540198,70.3751471 C81.6561593,70.4769476 81.7923454,70.5787482 81.8944849,70.6805487 L70.8634178,81.675004 C70.7612783,81.53927 70.6591387,81.4374695 70.5569992,81.335669 C68.7525346,79.5371933 65.7904888,79.5371933 63.9860241,81.335669 C63.8838846,81.4374695 63.7817451,81.5732035 63.6796056,81.675004 L26.0241728,72.8183594 C25.8539403,71.9360883 25.4113357,71.0877507 24.7304057,70.4090806 C22.857848,68.5427379 19.7936627,68.5427379 17.921105,70.4090806 C16.0485473,72.2754234 16.0485473,75.3294387 17.921105,77.1957815 C18.8744071,78.1459196 20.1000812,78.5870552 21.3257553,78.5870552 C22.5514295,78.5870552 23.7771036,78.1119861 24.7304057,77.1957815 C24.8665917,77.0600475 24.9687312,76.9243134 25.1049172,76.7885794 L62.7943965,85.6791575 C62.964629,86.4935616 63.4072335,87.3079657 64.0541171,87.9527023 C64.9733727,88.8689069 66.1650003,89.3100425 67.3566279,89.3100425 C68.0716045,89.3100425 68.7865811,89.140375 69.4334646,88.8010399 L69.5356041,88.9028404 L103.548061,122.802411 C104.331131,123.582882 105.386572,123.990084 106.442014,123.990084 C107.497455,123.990084 108.518851,123.582882 109.335967,122.802411 L110.493548,121.648672 L113.932245,125.075956 L111.412803,127.587035 C111.038292,127.960304 110.799966,128.50324 110.799966,129.012242 C110.799966,129.555178 111.004245,130.064181 111.412803,130.43745 L143.995307,162.911813 C144.097447,163.013614 144.199586,163.081481 144.301726,163.183281 L144.335772,163.183281 C144.437912,163.251148 144.540051,163.319015 144.676237,163.352949 L144.710284,163.352949 C144.812423,163.386882 144.948609,163.420816 145.050749,163.454749 L145.084795,163.454749 C145.220981,163.488683 145.323121,163.488683 145.459307,163.488683 C145.595493,163.488683 145.697632,163.488683 145.833818,163.454749 L145.867865,163.454749 C146.004051,163.420816 146.10619,163.386882 146.20833,163.352949 L146.242376,163.352949 C146.344516,163.319015 146.480702,163.251148 146.582841,163.183281 L146.616888,163.183281 C146.855213,163.047547 147.025446,162.843946 147.195678,162.606412 L147.195678,162.572478 C147.263771,162.470678 147.331864,162.368877 147.365911,162.233143 L147.365911,162.19921 C147.399957,162.097409 147.434004,161.961675 147.46805,161.859875 L147.46805,161.825941 C147.502097,161.690207 147.502097,161.588406 147.502097,161.452672 L147.502097,147.573869 L161.427117,147.573869 C162.005907,147.573869 162.550651,147.336335 162.925163,146.929133 C162.925163,146.929133 162.959209,146.929133 162.959209,146.895199 C163.674186,146.182596 163.674186,144.893122 162.85707,144.078718 L162.85707,144.078718 Z M143.314377,143.569716 L131.432147,143.569716 L131.432147,131.726923 L143.314377,131.726923 L143.314377,143.569716 Z M127.346567,117.406984 L127.346567,127.688836 L117.030476,127.688836 L127.346567,117.406984 Z M127.346567,131.726923 L127.346567,140.685368 L118.35829,131.726923 L127.346567,131.726923 Z M131.432147,127.654902 L131.432147,118.52679 L140.590657,127.654902 L131.432147,127.654902 Z M107.871967,88.8689069 L117.847592,88.8689069 L117.847592,98.8114237 L107.871967,88.8689069 Z M106.680339,74.5829017 L116.928337,84.7968864 L106.680339,84.7968864 L106.680339,74.5829017 Z M128.436055,65.9637916 L129.593636,64.8100524 L129.593636,67.1175307 L128.436055,65.9637916 Z M133.270658,54.8675357 C133.713263,54.4264001 134.3261,54.1549321 134.972984,54.1549321 C135.619867,54.1549321 136.232704,54.3924666 136.675309,54.8675357 C137.117913,55.3086713 137.390285,55.9194743 137.390285,56.5642109 C137.390285,57.2089475 137.15196,57.8197506 136.675309,58.2608861 C136.232704,58.7020217 135.619867,58.9734897 134.972984,58.9734897 C134.3261,58.9734897 133.713263,58.7359552 133.270658,58.2608861 C132.828054,57.8197506 132.555682,57.2089475 132.555682,56.5642109 C132.555682,55.9194743 132.794007,55.3086713 133.270658,54.8675357 Z M126.73373,61.9257046 L125.576149,63.0794437 L124.418568,61.9257046 L126.73373,61.9257046 L126.73373,61.9257046 Z M99.3262946,42.6854077 L148.898004,92.0925898 C147.672329,92.3301244 146.344516,92.4658584 144.982656,92.4658584 C137.594564,92.4658584 128.470101,88.8010399 119.992522,82.1161396 L109.30192,71.4610193 C101.403131,61.484569 97.6920624,50.5919142 99.3262946,42.6854077 Z M102.594759,83.5752803 L92.6191334,73.6327635 L102.594759,73.6327635 L102.594759,83.5752803 Z M72.3614639,86.0524261 L85.8098328,72.6486919 L119.82229,106.548263 L117.983778,108.380672 C117.711406,108.482472 117.473081,108.618206 117.268802,108.821807 C117.064523,109.025408 116.928337,109.262943 116.826197,109.534411 L109.574292,116.762247 C109.30192,116.864048 109.063595,116.999782 108.859316,117.203383 C108.655037,117.406984 108.518851,117.644519 108.416711,117.915987 L106.373921,119.951997 L72.3614639,86.0524261 L72.3614639,86.0524261 Z M113.319407,118.764324 L118.868988,113.233163 L122.307684,116.660447 L116.758104,122.191608 L113.319407,118.764324 Z M143.314377,156.600181 L134.3261,147.641736 L143.314377,147.641736 L143.314377,156.600181 Z M147.399957,134.441603 L156.558467,143.569716 L147.399957,143.569716 L147.399957,134.441603 Z" id="Shape" transform="translate(90, 90.0014) rotate(15) translate(-90, -90.0014)"></path>
            <path d="M90.9930177,82.0568706 C89.1947799,82.0568706 87.465705,82.5744944 85.9787006,83.609742 C81.8980839,86.3704024 80.8260575,91.9262314 83.5925773,95.9982054 C85.2524892,98.4482915 88.019009,99.9321464 90.9930177,99.9321464 C92.7912556,99.9321464 94.5203305,99.4145226 96.0073349,98.379275 C100.087952,95.6186146 101.159978,90.0627856 98.3934582,85.9908116 C96.7335463,83.5062173 93.9670265,82.0568706 90.9930177,82.0568706 Z M93.6557931,94.9284495 C92.8258371,95.4805816 91.8921367,95.7566476 90.9584362,95.7566476 C89.4368504,95.7566476 87.9152645,95.0319743 86.981564,93.6516441 C85.4945597,91.4776241 86.0824451,88.5099142 88.2610794,87.0260592 C89.0910354,86.4739272 90.0247358,86.1978611 90.9584362,86.1978611 C92.4800221,86.1978611 94.001608,86.9225345 94.9353085,88.3028647 C96.4223128,90.4768847 95.8690089,93.4445946 93.6557931,94.9284495 Z" id="Shape" transform="translate(90.993, 90.9945) rotate(15) translate(-90.993, -90.9945)"></path>
        </g>
    </g>
</svg>