<?xml version="1.0" encoding="UTF-8"?>
<svg width="240px" height="240px" viewBox="0 0 240 240" version="1.1" xmlns="http://www.w3.org/2000/svg" xmlns:xlink="http://www.w3.org/1999/xlink">
    <title>voyageai</title>
    <g id="Page-1" stroke="none" stroke-width="1" fill="none" fill-rule="evenodd">
        <g id="voyageai">
            <rect id="box" fill="#012E33" x="0" y="0" width="240" height="240" rx="32"></rect>
            <path d="M77.442,48 L77.442,48.396 C77.2833385,48.8716168 77.1865436,49.3656744 77.154,49.866 C77.088,50.526 77.058,51.114 77.058,51.636 C77.058,53.67 77.316,55.926 77.826,58.416 C78.408,60.846 79.47,63.888 81.012,67.56 L123.762,165.756 L165.066,68.34 C166.032,65.916 167.064,63.264 168.156,60.378 C169.248,57.498 169.794,54.582 169.794,51.63 C169.816553,50.5226599 169.62083,49.4217166 169.218,48.39 L169.218,48 L189,48 L189,48.396 C187.776,49.638 186.3,51.864 184.56,55.08 C182.82,58.29 180.924,62.25 178.866,66.972 L123.57,192 L115.848,192 L63.45,71.79 C62.226,68.97 60.942,66.252 59.586,63.63 C58.302,61.008 57.078,58.65 55.926,56.55 C54.762,54.39 53.736,52.59 52.836,51.15 C52.2694111,50.1986499 51.6566807,49.2755495 51,48.384 L51,48 L77.442,48 Z" id="Path" fill="#FFFFFF" fill-rule="nonzero"></path>
        </g>
    </g>
</svg>