<?xml version="1.0" encoding="UTF-8"?>
<svg width="240px" height="240px" viewBox="0 0 240 240" version="1.1" xmlns="http://www.w3.org/2000/svg" xmlns:xlink="http://www.w3.org/1999/xlink">
    <title>vscode</title>
    <defs>
        <path d="M170.188561,238.974165 C173.968561,240.454436 178.278721,240.359628 182.094001,238.514113 L231.505921,214.614821 C236.698081,212.103474 240,206.821443 240,201.026768 L240,38.9739508 C240,33.1792765 236.698321,27.8972452 231.506161,25.385898 L182.094001,1.48577619 C177.086881,-0.936033368 171.227041,-0.342841589 166.832401,2.86857074 C166.204801,3.3273198 165.606721,3.83952847 165.045601,4.40399054 L70.4522412,91.1506258 L29.2492812,59.711985 C25.4136012,56.7854574 20.0487132,57.0252536 16.4863932,60.2825264 L3.27127319,72.365942 C-1.08612361,76.3500821 -1.09111801,83.2407266 3.26047319,87.2316215 L38.9930412,120 L3.26047319,152.768374 C-1.09111801,156.759028 -1.08612361,163.649913 3.27127319,167.634053 L16.4863932,179.717469 C20.0487132,182.974742 25.4136012,183.214538 29.2492812,180.287769 L70.4522412,148.84937 L165.045601,235.595788 C166.542001,237.100907 168.299041,238.23427 170.188561,238.974165 Z M180.036481,65.2347775 L108.261841,119.999998 L180.036481,174.764977 L180.036481,65.2347775 Z" id="path-1"></path>
        <linearGradient x1="49.999991%" y1="-5.69966671e-07%" x2="49.999991%" y2="100.000047%" id="linearGradient-3">
            <stop stop-color="#FFFFFF" offset="0%"></stop>
            <stop stop-color="#FFFFFF" stop-opacity="0" offset="100%"></stop>
        </linearGradient>
    </defs>
    <g id="Page-1" stroke="none" stroke-width="1" fill="none" fill-rule="evenodd">
        <g id="vscode">
            <mask id="mask-2" fill="white">
                <use xlink:href="#path-1"></use>
            </mask>
            <g id="Shape"></g>
            <g id="Group" mask="url(#mask-2)">
                <g transform="translate(0, 0)">
                    <path d="M231.512519,25.4233096 L182.091758,1.49037972 C176.371235,-1.2798541 169.53491,-0.111309809 165.045559,4.40408822 L3.260487,152.768448 C-1.09112321,156.758855 -1.08611985,163.649731 3.27128044,167.633865 L16.486384,179.717263 C20.0487228,182.974531 25.4137098,183.214327 29.2492185,180.287804 L224.075839,31.6321903 C230.612106,26.6449661 240.000002,31.3337722 240.000002,39.5855018 L240.000002,39.0084476 C240.000002,33.2161943 236.701045,27.9361006 231.512519,25.4233096 Z" id="Path" fill="#0065A9" fill-rule="nonzero"></path>
                    <path d="M231.512519,214.576448 L182.091758,238.509479 C176.371235,241.280159 169.53491,240.111094 165.045559,235.595742 L3.260487,87.2315503 C-1.09112321,83.2409024 -1.08611985,76.3500267 3.27128044,72.3658924 L16.486384,60.2824944 C20.0487228,57.0252264 25.4137098,56.7854305 29.2492185,59.7119538 L224.075839,208.367567 C230.612106,213.354791 240.000002,208.665985 240.000002,200.414497 L240.000002,200.991551 C240.000002,206.783563 236.701045,212.063657 231.512519,214.576448 Z" id="Path" fill="#007ACC" fill-rule="nonzero"></path>
                    <path d="M182.093916,238.513821 C176.371715,241.282572 169.53539,240.111335 165.045559,235.5955 C170.577556,241.159538 180.036447,237.218827 180.036447,229.350192 L180.036447,10.6493966 C180.036447,2.78066507 170.577556,-1.16003576 165.045559,4.40399173 C169.53539,-0.111814008 176.371715,-1.28200841 182.093916,1.48577439 L231.506043,25.3859169 C236.698167,27.8972604 240,33.179284 240,38.9739498 L240,201.026531 C240,206.821197 236.698167,212.103221 231.505803,214.614564 L182.093916,238.513821 Z" id="Path" fill="#1F9CF0" fill-rule="nonzero"></path>
                    <g id="Group" opacity="0.25" style="mix-blend-mode: overlay;" stroke-width="1" fill="none" fill-rule="evenodd" transform="translate(0, 0.0001)">
                        <path d="M170.085136,238.973965 C173.862839,240.453993 178.170621,240.359185 181.983344,238.513914 L231.365248,214.614657 C236.554254,212.103314 239.854169,206.82129 239.854169,201.026383 L239.854169,38.9740427 C239.854169,33.1791356 236.554494,27.897112 231.365488,25.3857685 L181.983344,1.48577555 C176.979505,-0.936030477 171.122985,-0.342839561 166.731014,2.86854637 C166.103796,3.32731889 165.506079,3.83952682 164.9453,4.40398806 L70.4094005,91.1504004 L29.2314693,59.7120467 C25.3983592,56.7852821 20.0365382,57.0253192 16.4763821,60.282346 L3.26928965,72.365744 C-1.08546505,76.3501195 -1.09045641,83.240754 3.25849621,87.2314018 L38.9693105,119.99973 L3.25849621,152.7683 C-1.09045641,156.758948 -1.08546505,163.649582 3.26928965,167.633717 L16.4763821,179.717115 C20.0365382,182.974383 25.3983592,183.214179 29.2314693,180.287655 L70.4094005,148.84906 L164.9453,235.595593 C166.440791,237.100469 168.196763,238.234072 170.085136,238.973965 Z M179.927074,65.2348312 L108.196033,119.99973 L179.927074,174.764871 L179.927074,65.2348312 Z" id="Shape" fill="url(#linearGradient-3)"></path>
                    </g>
                </g>
            </g>
        </g>
    </g>
</svg>