<?xml version="1.0" encoding="UTF-8"?>
<svg width="241px" height="240px" viewBox="0 0 241 240" version="1.1" xmlns="http://www.w3.org/2000/svg" xmlns:xlink="http://www.w3.org/1999/xlink">
    <title>vscodium</title>
    <defs>
        <linearGradient x1="0.000124999987%" y1="2.52629816%" x2="96.6681147%" y2="93.4102391%" id="linearGradient-1">
            <stop stop-color="#62A0EA" offset="0%"></stop>
            <stop stop-color="#1A5FB4" offset="100%"></stop>
        </linearGradient>
    </defs>
    <g id="Page-1" stroke="none" stroke-width="1" fill="none" fill-rule="evenodd">
        <g id="vscodium" transform="translate(-0.0075, 0)">
            <rect id="ViewBox" x="1.00002558" y="0" width="240" height="240"></rect>
            <path d="M115.831875,5.45625 C108.984375,9.85125 107.00625,18.95625 111.42375,25.78125 C135.680625,63.35625 141.40875,91.69125 138.92625,116.5275 C128.88375,164.085 107.05875,173.73 87.97875,173.73 C69.3525,173.73 74.341875,143.085 88.344375,134.113125 C96.70125,128.89125 107.401875,125.50125 115.62,125.50125 C123.7575,125.50125 130.3575,118.92375 130.3575,110.80875 C130.3575,102.68625 123.7575,96.10875 115.62,96.10875 C106.025625,96.10875 96.6075,98.13 87.825,101.5575 C89.619375,93.09 90.279375,83.93625 87.95625,74.20875 C84.433125,59.428125 74.296875,45.3225 56.68125,31.640625 C53.5970451,29.2391964 49.6851568,28.1614038 45.80625,28.644375 C41.9277267,29.1205113 38.3970718,31.1175063 35.990625,34.19625 C33.5922953,37.27198 32.5171378,41.1759792 33.0026386,45.0459133 C33.4881394,48.9158473 35.4943487,52.4332751 38.578125,54.82125 C52.925625,65.97 57.66375,74.21625 59.281875,81.005625 C60.9075,87.795 59.604375,95.075625 56.345625,105.088125 C52.185,118.57125 47.35875,130.6125 45.241875,142.1625 C44.20125,147.8475 44.113125,154.0275 43.843125,158.971875 C33.508125,148.903125 29.465625,135.609375 29.465625,116.176875 C29.465625,108.061875 22.865625,101.476875 14.728125,101.484375 C6.590625,101.491875 0,108.061875 0,116.176875 C0,142.711875 7.756875,167.95875 28.55625,184.805625 C47.38125,202.734375 95.25,196.10625 95.25,224.904375 C95.25,233.026875 107.146875,236.983125 115.2825,236.983125 C123.63375,236.983125 134.135625,231.40125 134.135625,224.904375 C134.135625,192.230625 168.56625,172.37625 225.241875,172.4625 C233.386875,172.4775 239.985,165.9 240.000026,157.785 C240.015,149.6625 233.43,143.071875 225.285,143.056875 C221.41125,143.056875 217.63125,143.188125 213.91125,143.4075 C220.246875,128.503125 223.059375,112.096875 222.4725,94.38 C222.21,86.265 215.398125,79.899375 207.260625,80.16375 C199.115625,80.43375 192.736875,87.2325 193.00875,95.3475 C193.7775,118.550625 192.905625,139.269375 175.62,150.196875 C170.7075,153.29625 164.985,155.990625 159.56625,155.990625 C163.7775,144.55125 166.955625,132.465 168.25125,119.450625 C169.0875,111.136875 169.175625,101.263125 168.223125,93.60375 C166.75875,81.72375 164.979375,68.24625 169.490625,58.095 C173.540625,49.3575 182.615625,45.695625 195.945,45.695625 C204.075,45.688125 210.6675,39.110625 210.6675,31.003125 C210.673125,22.880625 204.0825,16.295625 195.945,16.288125 C176.139375,16.288125 161.12625,26.713125 152.61375,39.301875 C148.17,29.803125 142.749375,20.008125 136.201875,9.864375 C134.080521,6.59019096 130.74888,4.28932326 126.935625,3.465 C125.044995,3.05299053 123.091956,3.0154076 121.186875,3.354375 C119.281669,3.69831684 117.462365,4.41240644 115.831875,5.45625" id="Path" fill="url(#linearGradient-1)" fill-rule="nonzero"></path>
        </g>
    </g>
</svg>