<?xml version="1.0" encoding="UTF-8"?>
<svg width="240px" height="241px" viewBox="0 0 240 241" version="1.1" xmlns="http://www.w3.org/2000/svg" xmlns:xlink="http://www.w3.org/1999/xlink">
    <title>vue</title>
    <g id="Page-1" stroke="none" stroke-width="1" fill="none" fill-rule="evenodd">
        <g id="vue" transform="translate(102, 125.5603)">
            <rect id="box" x="-102" y="-125" width="240" height="240"></rect>
            <g id="shape" transform="translate(-102, -109)">
                <path d="M0,0 L93.47625,0.296946641 L120.039375,46.2860878 L147.099375,0.296946641 L240,0 L120.31125,207 L0,0 Z M238.0875,1.19718361 L192.4125,1.23477179 L120.27,125.375382 L48.170625,1.2366512 L1.76625,1.19718361 L120.286875,203.968513 L238.0875,1.19718361 Z M190.933125,1.18214834 L148.28625,1.49788907 L120.061875,47.8196857 L92.28,1.49600966 L49.54125,1.18026893 L120.286875,122.357051 L190.933125,1.18214834 Z M48.744375,0.862648787 L91.873125,0.879563469 M48.744375,0.860769377 L91.873125,0.879563469" id="Shape"></path>
                <polygon id="Path" fill="#35495E" fill-rule="nonzero" points="48 1 91.2783706 1.01685958 119.568675 47.7703472 147.75926 1.02060615 191 1.00936643 119.785048 124"></polygon>
                <polygon id="Path" fill="#41B883" fill-rule="nonzero" points="2 1.32302711 49.0825725 1 120.73854 124.311842 191.836662 1.00751226 239 1.05634194 120.732905 204"></polygon>
            </g>
        </g>
    </g>
</svg>