<?xml version="1.0" encoding="UTF-8"?>
<svg width="180px" height="180px" viewBox="0 0 180 180" version="1.1" xmlns="http://www.w3.org/2000/svg" xmlns:xlink="http://www.w3.org/1999/xlink">
    <title>simple-icons:vultr</title>
    <g id="Page-1" stroke="none" stroke-width="1" fill="none" fill-rule="evenodd">
        <g id="simple-icons:vultr" transform="translate(0, 0)">
            <rect id="ViewBox" x="0.000132712453" y="0" width="180" height="180"></rect>
            <path d="M62.7001327,16.29 C61.0778529,13.6482198 58.2101403,12.0273388 55.1101327,12 L9.00013271,12 C4.02956996,12 6.5677905e-05,16.0294373 6.5677905e-05,21 C-0.00641463293,22.6966796 0.466777559,24.3606521 1.36513271,25.8 L88.3651327,163.8 C90.0253537,166.409312 92.9036743,167.989483 95.9963827,167.989483 C99.0890911,167.989483 101.967412,166.409312 103.627633,163.8 L126.690133,127.245 C127.577475,125.80079 128.049756,124.140019 128.05527,122.445 C128.064515,120.743227 127.591213,119.073667 126.690133,117.63 L62.7001327,16.29 Z M140.317633,81.39 C141.977854,83.9993124 144.856174,85.5794827 147.948883,85.5794827 C151.041591,85.5794827 153.919912,83.9993124 155.580133,81.39 L163.500133,68.835 L178.627633,44.835 C179.528624,43.396442 180.004432,41.7324146 180.000162,40.035 C179.9925,38.3392638 179.517609,36.6784412 178.627633,35.235 L166.627633,16.29 C164.997901,13.6420828 162.116853,12.0229113 159.007633,12.0074969 L112.897633,12.0074969 C110.509385,12.0055098 108.218273,12.9528427 106.528823,14.6408859 C104.839373,16.328929 103.889597,18.6192516 103.889597,21.0074969 C103.871052,22.7122939 104.362076,24.3838651 105.300133,25.8075 L140.317633,81.39 Z" id="Shape" fill="#007BFC" fill-rule="nonzero"></path>
        </g>
    </g>
</svg>