<svg width="240" height="240" viewBox="0 0 240 240" fill="none" xmlns="http://www.w3.org/2000/svg">
<path d="M136.799 199.03L64.6197 126.869C61.6796 123.809 60.0596 119.67 60.0596 115.051V12.0575C60.0596 6.05905 54.0597 0.0605469 48.0597 0.0605469H23.9999C17.9999 0.0605469 12 6.05905 12 12.0575V132.027C12 138.386 14.34 144.504 18.84 149.003L102.839 232.982C107.519 237.661 113.639 240 119.819 240H131.819C138.479 240 143.819 234.601 143.819 228.003V216.066C143.819 209.888 141.479 203.769 136.799 199.09V199.03Z" fill="#9F4CF2"/>
<path d="M228 11.9969C228 5.93852 222.06 0 216 0H191.941C185.94 0 179.94 5.9985 179.94 11.9969V114.931C179.94 119.55 178.141 123.689 175.141 126.808L150.961 150.982C146.281 155.661 143.941 161.779 143.941 167.957V179.954C143.941 186.613 149.341 191.951 155.941 191.951H167.941C174.061 191.951 180.241 189.612 184.921 184.933L220.92 148.943C225.42 144.443 227.94 138.325 227.94 131.966V11.9969H228Z" fill="#9F4CF2"/>
</svg>
