<?xml version="1.0" encoding="UTF-8"?>
<svg width="240px" height="240px" viewBox="0 0 240 240" version="1.1" xmlns="http://www.w3.org/2000/svg" xmlns:xlink="http://www.w3.org/1999/xlink">
    <title>waildworld</title>
    <defs>
        <linearGradient x1="49.999952%" y1="0%" x2="49.999952%" y2="99.9999764%" id="linearGradient-1">
            <stop stop-color="#933FFF" offset="0%"></stop>
            <stop stop-color="#9669FF" offset="100%"></stop>
        </linearGradient>
    </defs>
    <g id="Page-1" stroke="none" stroke-width="1" fill="none" fill-rule="evenodd">
        <g id="waildworld" fill="url(#linearGradient-1)">
            <path d="M120.750126,0 C153.052457,0 182.393802,12.6406577 204.060836,33.2163491 C204.631179,33.75859 204.827068,34.532964 204.57721,35.2776743 C204.331349,36.0260345 203.714366,36.5311129 202.928812,36.6277354 C201.275084,36.8319966 199.588042,36.6592572 198.060909,35.9443433 C183.855639,29.9015852 168.467707,24.1244728 151.922431,18.5905758 C151.702556,18.5181089 151.486013,18.5348321 151.280796,18.642537 C150.717782,18.9377799 150.168094,19.2330892 149.62307,19.5283322 C149.395866,19.6527602 149.250615,19.851447 149.207306,20.1077356 C149.164664,20.3621661 149.231959,20.5998072 149.405194,20.7911278 C158.757219,31.1978271 167.604197,42.8802626 176.063395,55.5896445 C177.23473,57.4299191 177.568541,59.5636448 177.184092,61.6729495 C176.852281,63.8310299 175.758235,65.9147854 174.023886,67.5837806 C161.992715,79.1121243 149.934893,90.6630311 137.903056,102.191375 C136.171372,103.859043 133.952632,104.817305 131.558657,105.086733 C129.18667,105.331608 126.740725,104.841195 124.573955,103.565724 C108.537724,94.275095 92.4541872,84.9340309 76.518566,75.4058269 C76.1980813,75.2147053 75.8029722,75.2571768 75.5304602,75.5113419 C75.0813818,75.9334019 74.6502932,76.3620981 74.2218697,76.7854853 C73.9420285,77.0582316 73.8933895,77.4783008 74.1039366,77.8087818 C83.9483487,93.1734918 93.6681648,108.607218 103.341341,123.996482 C104.665256,126.081565 105.149648,128.460629 104.894459,130.740815 C104.638604,133.022992 103.619183,135.181072 101.886833,136.850731 C89.9076327,148.425528 77.9264336,160.002316 65.9451011,171.57844 C64.1850335,173.271989 62.0464475,174.302585 59.803454,174.620458 C57.6108319,174.988101 55.3920913,174.670229 53.4809761,173.541417 C40.2319633,165.416762 28.0773292,156.897255 17.2558718,147.884681 C17.0619152,147.723422 16.8288475,147.662369 16.5827872,147.706832 C16.332929,147.751294 16.1390391,147.888662 16.01411,148.107656 C15.715746,148.631249 15.4137174,149.149534 15.1079577,149.665827 C14.981163,149.88283 14.9587757,150.119077 15.0445936,150.356652 C20.7666789,166.284109 26.764741,181.123898 33.0387796,194.734006 C33.6820145,196.009477 33.902023,197.396435 33.8125404,198.776094 C33.7584378,199.59566 33.2457288,200.263922 32.4663712,200.529368 C31.6888792,200.792824 30.8722094,200.577812 30.3259195,199.964631 C11.4591621,178.746824 0,150.841092 0,120.267621 C0,106.917651 2.18517963,94.0746829 6.21620485,82.077826 C6.45486272,81.3743926 7.01421854,80.889289 7.74693597,80.7539113 C8.47972002,80.6185335 9.1769909,80.8726986 9.65245434,81.4447359 C17.9923204,91.5303777 32.4942887,104.101926 42.1840552,111.835048 C42.5345896,112.115094 43.0510298,112.061341 43.3344689,111.71427 C43.6998615,111.266329 44.0765143,110.823033 44.4662265,110.382392 C44.6955629,110.126236 44.7384053,109.773856 44.5818275,109.467265 C36.1319572,93.0699677 27.7267949,76.3136541 19.2731934,59.3185049 C19.0047457,58.7818383 18.76235,58.2395974 18.5554008,57.6954983 C18.3186019,57.0882893 18.3819659,56.4642909 18.7306347,55.9164755 C27.3315526,42.4178547 38.5595126,30.7409936 51.69479,21.604456 C52.1683878,21.2757668 52.6978873,21.16992 53.2628333,21.2924899 C54.6183305,21.5877329 56.0074087,22.0464245 57.3554435,22.6741392 C75.010089,30.8394079 92.4135436,38.9582234 109.518501,47.0510916 C109.814999,47.1903847 110.140814,47.1495059 110.392672,46.9433866 C110.834421,46.5831093 111.284165,46.2284727 111.742572,45.8812023 C111.929133,45.7400511 112.037071,45.5487968 112.061058,45.3166638 C112.085711,45.0845308 112.020414,44.8746953 111.867168,44.6983061 C101.249195,32.3770071 89.8629914,21.1494806 77.4413756,11.3426241 C76.7964083,10.8839324 76.4685944,10.2488516 76.5632074,9.45218011 C76.6531563,8.69824554 77.1228897,8.09654456 77.835152,7.8273154 C91.1695831,2.77626567 105.634706,0 120.750126,0 Z M209.594362,38.8189967 C225.297449,55.8013381 236.150621,77.299788 239.974451,101.134898 C240.121701,102.061306 239.621984,102.945243 238.745815,103.294305 C237.867647,103.645358 236.892867,103.350049 236.357837,102.575609 C233.502791,98.4386242 230.299942,94.4701983 226.796598,90.6610402 C226.614035,90.4626189 226.367508,90.3697126 226.098994,90.4009026 C225.830479,90.4307653 225.610604,90.5741065 225.47668,90.8076994 C225.19484,91.2981119 224.905671,91.7865336 224.611171,92.2802642 C224.482578,92.4919578 224.458591,92.7242236 224.536547,92.9584801 C229.695619,108.293327 234.564188,124.46035 239.066966,141.554444 C239.28884,142.39591 239.310827,143.159069 239.140924,144.011152 C235.434361,162.438452 227.502863,179.344743 216.394502,193.680847 C215.768191,194.490459 214.640165,194.696844 213.767327,194.159978 C213.336904,193.895859 212.911812,193.597232 212.488053,193.260778 C198.028927,182.694678 182.924834,172.629608 167.444288,162.926873 C167.115807,162.722479 166.704041,162.766942 166.430196,163.03637 C166.005104,163.454448 165.574016,163.855273 165.146925,164.256097 C164.852425,164.532825 164.803786,164.974793 165.031657,165.307265 C175.107271,180.193508 185.557339,194.715425 196.530444,208.61487 C197.100787,209.277823 197.574518,209.955375 197.950971,210.627619 C198.422703,211.474393 198.228813,212.512953 197.47724,213.129452 C184.87506,223.469259 170.130763,231.316523 154.008581,235.907421 C153.268334,236.119115 152.599381,236.170877 151.834481,236.076643 C150.645156,235.931311 149.472489,235.738199 148.355789,235.496643 C128.493064,230.817484 109.840985,225.677111 92.2436401,220.194976 C92.0290952,220.128614 91.8165492,220.147196 91.6173289,220.25072 C91.0936262,220.525457 90.5825829,220.800858 90.0788688,221.073604 C89.8330084,221.205664 89.6837598,221.429966 89.6537768,221.706694 C89.6257927,221.983422 89.7250697,222.232278 89.9356168,222.412118 C96.2933413,227.849791 103.078157,232.520323 110.346031,236.243211 C111.205543,236.683852 111.619309,237.647423 111.347463,238.571841 C111.074951,239.49294 110.206111,240.082232 109.24399,239.990653 C80.7861436,237.312961 55.2056638,224.793174 35.9641191,205.890725 C35.5651456,205.498528 35.3656588,205.016079 35.3711411,204.458641 C35.3749203,203.901867 35.5838017,203.422736 35.9865064,203.036511 C46.4705554,193.067666 56.9694626,183.049049 67.4497138,173.051005 C69.1820638,171.383337 71.3748191,170.352741 73.6941692,170.009651 C76.0395046,169.689788 78.4108253,170.059422 80.4749869,171.186906 C96.2153856,179.500692 112.583428,187.649238 129.4272,195.721468 C129.710373,195.856845 130.024195,195.827646 130.275386,195.639843 C130.765774,195.276181 131.248833,194.902565 131.737222,194.520322 C132.089689,194.245585 132.154985,193.736591 131.884472,193.381556 C121.584985,179.888908 111.675277,165.779096 102.041412,151.075348 C100.738152,149.063927 100.255759,146.78175 100.510947,144.503555 C100.790788,142.243278 101.784225,140.109751 103.54256,138.41952 C115.549744,126.91573 127.555596,115.362833 139.558783,103.762155 C141.294464,102.09316 143.537857,101.112335 145.857208,100.86746 C148.227196,100.623913 150.598516,101.090435 152.714648,102.315471 C167.96266,111.645254 182.665647,121.168149 196.729664,131.067978 C197.080132,131.314843 197.559193,131.2518 197.833704,130.926628 C198.219485,130.468069 198.601935,130.007519 198.978388,129.54166 C199.184937,129.283514 199.218918,128.949051 199.067671,128.653742 C190.683097,112.458847 182.223898,96.7225122 173.615451,81.5635233 C172.416798,79.6025369 172.034349,77.322351 172.368159,75.0640644 C172.724624,72.8336498 173.794683,70.7226861 175.553018,69.0304643 C185.945786,58.9471452 196.337887,48.8598444 206.730654,38.7428136 C207.13176,38.3528726 207.61815,38.1634765 208.177833,38.1774706 C208.736849,38.1931401 209.214578,38.4066919 209.594362,38.8189967 Z" id="Shape"></path>
        </g>
    </g>
</svg>