<?xml version="1.0" encoding="UTF-8"?>
<svg width="240px" height="240px" viewBox="0 0 240 240" version="1.1" xmlns="http://www.w3.org/2000/svg" xmlns:xlink="http://www.w3.org/1999/xlink">
    <title>wappalyzer</title>
    <g id="Page-1" stroke="none" stroke-width="1" fill="none" fill-rule="evenodd">
        <g id="wappalyzer">
            <rect id="box" x="0" y="0" width="240" height="240"></rect>
            <g id="shape" transform="translate(0, 18)">
                <polygon id="Path" fill="#B39FDB" points="119.998514 157.174127 13.7591582 102 0.00420834115 111.866918 0 117.902387 119.998514 204 239.991207 117.906386 240 111.873315 226.238589 102"></polygon>
                <path d="M119.999795,0 L0.00631257126,85.9824356 L0,92.0109798 L119.999795,178 L239.993605,92.0149733 L240,85.9872278 L119.999795,0 Z M135.698949,84.8602702 L121.068521,64.7015469 L133.542314,55.5810176 L159.548233,94.0372671 L149.076003,101.696745 L121.108488,90.1372431 L120.988586,90.2235021 L136.915553,110.586212 L126.442523,118.243294 L73.8402875,99.2287797 L86.3537279,90.0781397 L113.851227,100.778247 L114.007099,100.662436 L98.747586,81.0169535 L108.593129,73.8199995 L135.541478,84.9760809 L135.698949,84.8602702 Z" id="Shape" fill="#4608AD"></path>
                <path d="M119.999795,0 L0.00631257126,85.9824356 L0,92.0109798 L119.999795,178 L239.993605,92.0149733 L240,85.9872278 L119.999795,0 Z M135.698949,84.8602702 L121.068521,64.7015469 L133.542314,55.5810176 L159.548233,94.0372671 L149.076003,101.696745 L121.108488,90.1372431 L120.988586,90.2235021 L136.915553,110.586212 L126.442523,118.243294 L73.8402875,99.2287797 L86.3537279,90.0781397 L113.851227,100.778247 L114.007099,100.662436 L98.747586,81.0169535 L108.593129,73.8199995 L135.541478,84.9760809 L135.698949,84.8602702 Z" id="Shape" fill="#FFFFFF"></path>
                <polygon id="Path" fill="#4608AD" points="136.069448 85.4370557 121.389166 65.1696851 133.905464 56 160 94.6635129 149.492085 102.364272 121.42927 90.7424693 121.308959 90.8291932 137.290198 111.30165 126.781481 119 74 99.8830056 86.5560805 90.6830474 114.147279 101.440823 114.303682 101.324389 98.9921714 81.5730251 108.871264 74.3372825 135.91144 85.5534906"></polygon>
            </g>
        </g>
    </g>
</svg>