<?xml version="1.0" encoding="UTF-8"?>
<svg width="240px" height="240px" viewBox="0 0 240 240" version="1.1" xmlns="http://www.w3.org/2000/svg" xmlns:xlink="http://www.w3.org/1999/xlink">
    <title>wasm</title>
    <g id="Page-1" stroke="none" stroke-width="1" fill="none" fill-rule="evenodd">
        <g id="wasm" fill-rule="nonzero">
            <path d="M147.45098,0 C147.45098,0.423529412 147.45098,0.847058824 147.45098,1.29411765 C147.45098,16.4941176 135.129412,28.8117647 119.933333,28.8117647 C104.733333,28.8117647 92.4156863,16.4901961 92.4156863,1.29411765 L92.4156863,1.29411765 C92.4156863,0.847058824 92.4156863,0.423529412 92.4156863,0 L0,0 L0,240 L240,240 L240,0 L147.45098,0 Z" id="Path" fill="#654FF0"></path>
            <path d="M56,128 L71.9258064,128 L82.7982319,185.847386 L82.9945559,185.847386 L96.0618842,128 L110.958953,128 L122.761954,186.557386 L122.993616,186.557386 L135.38559,128 L151.005131,128 L130.709151,213 L114.905066,213 L103.200226,155.152614 L102.893961,155.152614 L90.3645605,213 L74.265989,213 L56,128 Z M168.960928,128 L194.066847,128 L219,213 L202.571604,213 L197.149134,194.08496 L168.548647,194.08496 L164.363019,213 L148.362609,213 L168.960928,128 Z M178.517982,148.950898 L171.572038,180.136001 L193.191241,180.136001 L185.216559,148.950898 L178.517982,148.950898 Z" id="Shape" fill="#FFFFFF"></path>
        </g>
    </g>
</svg>