<?xml version="1.0" encoding="UTF-8"?>
<!DOCTYPE svg PUBLIC "-//W3C//DTD SVG 1.1//EN" "http://www.w3.org/Graphics/SVG/1.1/DTD/svg11.dtd">
<svg xmlns="http://www.w3.org/2000/svg" version="1.1" width="512px" height="512px" style="shape-rendering:geometricPrecision; text-rendering:geometricPrecision; image-rendering:optimizeQuality; fill-rule:evenodd; clip-rule:evenodd" xmlns:xlink="http://www.w3.org/1999/xlink">
<g><path style="opacity:1" fill="#9eee0b" d="M 333.5,-0.5 C 337.5,-0.5 341.5,-0.5 345.5,-0.5C 348.4,3.93054 348.067,8.09721 344.5,12C 331.248,17.8615 317.915,23.5282 304.5,29C 386.906,55.7389 441.739,110.239 469,192.5C 471.803,202.376 473.969,212.376 475.5,222.5C 468.829,219.836 462.829,216.169 457.5,211.5C 439.973,140.815 398.64,89.3152 333.5,57C 325.38,53.0929 317.047,50.0929 308.5,48C 315.713,56.211 322.546,64.711 329,73.5C 330.833,82.3333 327.333,85.8333 318.5,84C 304.881,67.9258 291.381,51.7591 278,35.5C 274.547,31.3253 274.714,27.3253 278.5,23.5C 296.934,15.476 315.268,7.47595 333.5,-0.5 Z"/></g>
<g><path style="opacity:1" fill="#9eee0a" d="M 136.5,511.5 C 131.833,511.5 127.167,511.5 122.5,511.5C 119.6,507.069 119.933,502.903 123.5,499C 135.511,494.996 147.511,490.996 159.5,487C 80.1207,457.111 28.954,401.277 6,319.5C 3.27253,307.457 1.10586,295.457 -0.5,283.5C -0.5,268.167 -0.5,252.833 -0.5,237.5C 9.72699,156.168 49.727,94.3351 119.5,52C 140.559,40.1363 162.893,31.6363 186.5,26.5C 192.631,27.129 195.131,30.4624 194,36.5C 193.215,38.286 192.049,39.786 190.5,41C 104.394,63.1065 48.2277,116.606 22,201.5C 3.28417,279.624 19.6175,349.291 71,410.5C 97.7212,440.24 129.888,460.907 167.5,472.5C 159.489,461.14 151.989,449.473 145,437.5C 145.041,429.81 148.874,426.977 156.5,429C 169.783,446.954 182.283,465.454 194,484.5C 195.035,489.922 192.869,493.422 187.5,495C 170.232,500.035 153.232,505.535 136.5,511.5 Z"/></g>
<g><path style="opacity:1" fill="#9eee07" d="M 231.5,80.5 C 217.95,88.5472 206.783,99.2139 198,112.5C 185.857,129.453 176.357,147.786 169.5,167.5C 192.464,161.713 215.797,158.713 239.5,158.5C 239.5,132.5 239.5,106.5 239.5,80.5C 243.167,80.5 246.833,80.5 250.5,80.5C 250.5,106.5 250.5,132.5 250.5,158.5C 259.528,158.46 268.528,158.96 277.5,160C 292.302,161.912 306.969,164.245 321.5,167C 310.198,138.047 293.865,112.38 272.5,90C 267.985,86.9701 263.651,83.8034 259.5,80.5C 266.539,81.2548 273.539,82.2548 280.5,83.5C 304.498,108.468 322.164,137.468 333.5,170.5C 352.251,177.209 369.918,186.042 386.5,197C 387.252,197.671 387.586,198.504 387.5,199.5C 384.833,201.167 382.167,202.833 379.5,204.5C 366.947,196.141 353.447,189.474 339,184.5C 338.5,184.833 338,185.167 337.5,185.5C 341.019,198.283 343.353,211.283 344.5,224.5C 341.167,226.167 337.833,227.833 334.5,229.5C 333.365,212.514 330.032,196.014 324.5,180C 300.363,172.909 275.696,169.409 250.5,169.5C 250.5,197.833 250.5,226.167 250.5,254.5C 271.167,254.5 291.833,254.5 312.5,254.5C 312.5,254.833 312.5,255.167 312.5,255.5C 312.5,258.833 312.5,262.167 312.5,265.5C 291.833,265.5 271.167,265.5 250.5,265.5C 250.5,294.167 250.5,322.833 250.5,351.5C 272.388,350.556 294.055,347.889 315.5,343.5C 315.756,346.598 316.422,349.598 317.5,352.5C 295.736,358.68 273.403,361.68 250.5,361.5C 250.5,387.5 250.5,413.5 250.5,439.5C 246.833,440.833 243.167,440.833 239.5,439.5C 239.5,413.5 239.5,387.5 239.5,361.5C 215.462,361.203 191.795,358.37 168.5,353C 179.802,381.953 196.135,407.62 217.5,430C 222.015,433.03 226.349,436.197 230.5,439.5C 223.421,438.965 216.421,437.965 209.5,436.5C 185.42,411.046 167.42,381.713 155.5,348.5C 123.361,337.443 94.6941,320.776 69.5,298.5C 67.8828,293.067 66.8828,287.4 66.5,281.5C 83.4954,298.834 102.829,313 124.5,324C 133.516,328.558 142.682,332.725 152,336.5C 149.167,322.322 146.834,307.988 145,293.5C 143.933,284.196 143.433,274.862 143.5,265.5C 117.5,265.5 91.5,265.5 65.5,265.5C 65.5,261.833 65.5,258.167 65.5,254.5C 91.5,254.5 117.5,254.5 143.5,254.5C 143.713,230.798 146.713,207.465 152.5,184.5C 125.76,194.2 101.427,208.034 79.5,226C 74.9357,230.395 70.6023,234.895 66.5,239.5C 66.8569,233.359 67.8569,227.359 69.5,221.5C 94.881,199.511 123.548,182.844 155.5,171.5C 167.42,138.287 185.42,108.954 209.5,83.5C 216.783,82.1728 224.117,81.1728 231.5,80.5 Z"/></g>
<g><path style="opacity:1" fill="#313d51" d="M 231.5,80.5 C 234.167,80.5 236.833,80.5 239.5,80.5C 239.5,106.5 239.5,132.5 239.5,158.5C 215.797,158.713 192.464,161.713 169.5,167.5C 176.357,147.786 185.857,129.453 198,112.5C 206.783,99.2139 217.95,88.5472 231.5,80.5 Z"/></g>
<g><path style="opacity:1" fill="#313d51" d="M 250.5,80.5 C 253.5,80.5 256.5,80.5 259.5,80.5C 263.651,83.8034 267.985,86.9701 272.5,90C 293.865,112.38 310.198,138.047 321.5,167C 306.969,164.245 292.302,161.912 277.5,160C 268.528,158.96 259.528,158.46 250.5,158.5C 250.5,132.5 250.5,106.5 250.5,80.5 Z"/></g>
<g><path style="opacity:1" fill="#313d51" d="M 209.5,83.5 C 185.42,108.954 167.42,138.287 155.5,171.5C 123.548,182.844 94.881,199.511 69.5,221.5C 85.3754,157.595 124.042,113.762 185.5,90C 193.38,87.3168 201.38,85.1501 209.5,83.5 Z"/></g>
<g><path style="opacity:1" fill="#313d51" d="M 280.5,83.5 C 338.453,96.6234 380.786,129.623 407.5,182.5C 407.141,184.371 406.141,185.871 404.5,187C 398.956,191.384 393.289,195.551 387.5,199.5C 387.586,198.504 387.252,197.671 386.5,197C 369.918,186.042 352.251,177.209 333.5,170.5C 322.164,137.468 304.498,108.468 280.5,83.5 Z"/></g>
<g><path style="opacity:1" fill="#313d51" d="M 219.5,169.5 C 226.167,169.5 232.833,169.5 239.5,169.5C 239.5,197.833 239.5,226.167 239.5,254.5C 210.833,254.5 182.167,254.5 153.5,254.5C 154.215,229.328 158.048,204.662 165,180.5C 169.642,178.463 174.475,176.963 179.5,176C 192.889,173.268 206.223,171.101 219.5,169.5 Z"/></g>
<g><path style="opacity:1" fill="#313d51" d="M 334.5,229.5 C 328.131,232.914 321.631,236.247 315,239.5C 313.94,244.572 313.107,249.572 312.5,254.5C 291.833,254.5 271.167,254.5 250.5,254.5C 250.5,226.167 250.5,197.833 250.5,169.5C 275.696,169.409 300.363,172.909 324.5,180C 330.032,196.014 333.365,212.514 334.5,229.5 Z"/></g>
<g><path style="opacity:1" fill="#628e0b" d="M 457.5,211.5 C 462.829,216.169 468.829,219.836 475.5,222.5C 487.209,227.771 498.709,233.438 510,239.5C 510.667,271.833 510.667,304.167 510,336.5C 504.003,368.667 488.17,394.834 462.5,415C 447.552,427.058 430.719,435.558 412,440.5C 408.455,439.596 404.955,438.596 401.5,437.5C 396.217,434.363 390.551,432.029 384.5,430.5C 372.244,423.867 361.244,415.533 351.5,405.5C 341.652,394.996 332.986,383.663 325.5,371.5C 323.284,367.734 321.617,363.734 320.5,359.5C 320.065,356.843 319.065,354.509 317.5,352.5C 316.422,349.598 315.756,346.598 315.5,343.5C 315.048,339.837 314.548,336.17 314,332.5C 313.832,306.663 313.332,280.997 312.5,255.5C 312.5,255.167 312.5,254.833 312.5,254.5C 313.107,249.572 313.94,244.572 315,239.5C 321.631,236.247 328.131,232.914 334.5,229.5C 337.833,227.833 341.167,226.167 344.5,224.5C 356.989,219.094 368.656,212.428 379.5,204.5C 382.167,202.833 384.833,201.167 387.5,199.5C 393.289,195.551 398.956,191.384 404.5,187C 406.141,185.871 407.141,184.371 407.5,182.5C 410.546,181.115 413.546,181.281 416.5,183C 428.961,194.305 442.628,203.805 457.5,211.5 Z"/></g>
<g><path style="opacity:1" fill="#313d51" d="M 65.5,254.5 C 65.2743,249.438 65.6076,244.438 66.5,239.5C 70.6023,234.895 74.9357,230.395 79.5,226C 101.427,208.034 125.76,194.2 152.5,184.5C 146.713,207.465 143.713,230.798 143.5,254.5C 117.5,254.5 91.5,254.5 65.5,254.5 Z"/></g>
<g><path style="opacity:1" fill="#324054" d="M 379.5,204.5 C 368.656,212.428 356.989,219.094 344.5,224.5C 343.353,211.283 341.019,198.283 337.5,185.5C 338,185.167 338.5,184.833 339,184.5C 353.447,189.474 366.947,196.141 379.5,204.5 Z"/></g>
<g><path style="opacity:1" fill="#9eee00" d="M 408.5,217.5 C 410.857,217.337 413.19,217.503 415.5,218C 435.851,233.52 457.851,246.52 481.5,257C 482.701,257.903 483.535,259.069 484,260.5C 484.667,282.833 484.667,305.167 484,327.5C 480.297,352.745 468.464,373.245 448.5,389C 437.52,397.629 425.353,404.129 412,408.5C 381.102,398.552 358.768,378.886 345,349.5C 342.551,343.37 340.884,337.037 340,330.5C 339.333,306.833 339.333,283.167 340,259.5C 341.167,258.333 342.333,257.167 343.5,256C 367.143,246.123 388.81,233.29 408.5,217.5 Z"/></g>
<g><path style="opacity:1" fill="#313d51" d="M 65.5,265.5 C 91.5,265.5 117.5,265.5 143.5,265.5C 143.433,274.862 143.933,284.196 145,293.5C 146.834,307.988 149.167,322.322 152,336.5C 142.682,332.725 133.516,328.558 124.5,324C 102.829,313 83.4954,298.834 66.5,281.5C 65.5998,276.228 65.2665,270.895 65.5,265.5 Z"/></g>
<g><path style="opacity:1" fill="#313d51" d="M 153.5,265.5 C 182.167,265.5 210.833,265.5 239.5,265.5C 239.5,294.167 239.5,322.833 239.5,351.5C 214.064,350.723 189.064,347.057 164.5,340.5C 158.134,315.907 154.467,290.907 153.5,265.5 Z"/></g>
<g><path style="opacity:1" fill="#313d51" d="M 312.5,255.5 C 313.332,280.997 313.832,306.663 314,332.5C 314.548,336.17 315.048,339.837 315.5,343.5C 294.055,347.889 272.388,350.556 250.5,351.5C 250.5,322.833 250.5,294.167 250.5,265.5C 271.167,265.5 291.833,265.5 312.5,265.5C 312.5,262.167 312.5,258.833 312.5,255.5 Z"/></g>
<g><path style="opacity:1" fill="#18212f" d="M 443.5,285.5 C 451.885,284.716 455.051,288.383 453,296.5C 432.833,312.667 412.667,328.833 392.5,345C 388.526,347.364 385.026,346.864 382,343.5C 378.263,332.79 374.43,322.123 370.5,311.5C 373.238,303.371 378.071,301.704 385,306.5C 386.947,313.01 389.28,319.343 392,325.5C 409.507,312.509 426.674,299.176 443.5,285.5 Z"/></g>
<g><path style="opacity:1" fill="#313d51" d="M 69.5,298.5 C 94.6941,320.776 123.361,337.443 155.5,348.5C 167.42,381.713 185.42,411.046 209.5,436.5C 145.339,421.506 100.839,383.506 76,322.5C 73.2045,314.65 71.0378,306.65 69.5,298.5 Z"/></g>
<g><path style="opacity:1" fill="#313d51" d="M 239.5,439.5 C 236.5,439.5 233.5,439.5 230.5,439.5C 226.349,436.197 222.015,433.03 217.5,430C 196.135,407.62 179.802,381.953 168.5,353C 191.795,358.37 215.462,361.203 239.5,361.5C 239.5,387.5 239.5,413.5 239.5,439.5 Z"/></g>
<g><path style="opacity:1" fill="#313d51" d="M 317.5,352.5 C 319.065,354.509 320.065,356.843 320.5,359.5C 319.883,359.389 319.383,359.056 319,358.5C 308.289,386.106 292.456,410.273 271.5,431C 267.32,433.696 263.32,436.53 259.5,439.5C 256.5,439.5 253.5,439.5 250.5,439.5C 250.5,413.5 250.5,387.5 250.5,361.5C 273.403,361.68 295.736,358.68 317.5,352.5 Z"/></g>
<g><path style="opacity:1" fill="#9eee0b" d="M 320.5,359.5 C 321.617,363.734 323.284,367.734 325.5,371.5C 314.053,395.41 299.386,417.077 281.5,436.5C 274.248,437.99 266.914,438.99 259.5,439.5C 263.32,436.53 267.32,433.696 271.5,431C 292.456,410.273 308.289,386.106 319,358.5C 319.383,359.056 319.883,359.389 320.5,359.5 Z"/></g>
<g><path style="opacity:1" fill="#313f53" d="M 325.5,371.5 C 332.986,383.663 341.652,394.996 351.5,405.5C 330.492,420.846 307.159,431.179 281.5,436.5C 299.386,417.077 314.053,395.41 325.5,371.5 Z"/></g>
<g><path style="opacity:1" fill="#9eee07" d="M 384.5,430.5 C 390.551,432.029 396.217,434.363 401.5,437.5C 370.768,465.205 335.102,484.038 294.5,494C 283.619,495.119 280.619,490.786 285.5,481C 317.196,473.316 346.196,459.982 372.5,441C 376.693,437.635 380.693,434.135 384.5,430.5 Z"/></g>
</svg>
