<?xml version="1.0" encoding="UTF-8"?>
<svg width="240px" height="240px" viewBox="0 0 240 240" version="1.1" xmlns="http://www.w3.org/2000/svg" xmlns:xlink="http://www.w3.org/1999/xlink">
    <title>webflow</title>
    <g id="Page-1" stroke="none" stroke-width="1" fill="none" fill-rule="evenodd">
        <g id="webflow">
            <rect id="ViewBox" fill="#FFFFFF" x="0" y="0" width="240" height="240"></rect>
            <path d="M0,0 L0,240 L240,240 L240,0 L0,0 Z M136.684976,79 C136.684976,79 144.296816,136.39529 144.296816,139.043921 L155.338565,104.441757 L155.262217,104.441757 C160.133184,91.3418205 169.728149,79 188,79 L162.112491,141.539784 C157.501385,156.082203 143.949405,165.978578 128.61696,166 C128.61696,166 121.001303,112.238701 121.001303,111.026098 L109.583543,140.558243 C104.481625,153.65818 94.5869967,166 76.3151453,166 L62,79.0782941 C76.41844,79.4377594 88.2894268,90.4622389 89.6358651,104.743475 C89.6358651,104.743475 91.5407338,136.620624 91.5407338,139.118396 L105.016057,104.439847 C109.888933,91.3399109 119.17469,79 136.684976,79" id="Shape" fill="#4353FF" fill-rule="nonzero"></path>
        </g>
    </g>
</svg>