<?xml version="1.0" encoding="UTF-8"?>
<svg width="240px" height="240px" viewBox="0 0 240 240" version="1.1" xmlns="http://www.w3.org/2000/svg" xmlns:xlink="http://www.w3.org/1999/xlink">
    <title>webhooks</title>
    <g id="Page-1" stroke="none" stroke-width="1" fill="none" fill-rule="evenodd">
        <g id="webhooks" transform="translate(0, 0)">
            <rect id="ViewBox" x="0" y="0" width="240" height="240"></rect>
            <g id="shape" transform="translate(0, 9)" fill-rule="nonzero">
                <path d="M112.067779,93.3094687 C102.120904,110.030719 92.5912164,126.223219 82.8627789,142.293844 C80.3643414,146.419781 79.1277789,149.780719 81.1237164,155.025094 C86.6343414,169.513219 78.8605914,183.612281 64.2505914,187.439156 C50.4721539,191.049469 37.0480914,181.994156 34.3143414,167.242594 C31.8918414,154.186031 42.0243414,141.386344 56.4205914,139.345406 C57.6262164,139.172906 58.8580914,139.153219 60.8849664,139.001344 L82.7830914,102.281344 C69.0102789,88.5863437 60.8127789,72.5785312 62.6268414,52.7410312 C63.9093414,38.7188437 69.4237164,26.6007187 79.5018414,16.6688437 C98.8049664,-2.35115626 128.253716,-5.43084376 150.982466,9.16790624 C172.811216,23.1910312 182.808716,50.5060312 174.286841,73.8844687 C167.861216,72.1425937 161.390591,70.3857187 154.277779,68.4563437 C156.953404,55.4579062 154.974341,43.7860312 146.207779,33.7866562 C140.415904,27.1847812 132.983404,23.7244687 124.532779,22.4494687 C107.590279,19.8900937 90.9562164,30.7744687 86.0202789,47.4038437 C80.4177789,66.2757187 88.8974664,81.6929062 112.067779,93.3104062" id="Path" fill="#C73A63"></path>
                <path d="M140.474966,73.5347812 C147.482779,85.8975937 154.598404,98.4469687 161.650279,110.881031 C197.294029,99.8532187 224.168404,119.584781 233.809654,140.709469 C245.455279,166.227281 237.494029,196.450406 214.623716,212.193844 C191.148716,228.354469 161.460904,225.593531 140.662466,204.833531 C145.963091,200.396344 151.289966,195.939469 156.981529,191.177906 C177.524029,204.482906 195.491216,203.856656 208.829966,188.101031 C220.204654,174.660094 219.958091,154.619156 208.253404,141.460406 C194.745904,126.275719 176.653091,125.812594 154.783091,140.388844 C145.710904,124.293844 136.481216,108.327281 127.695904,92.1160312 C124.733404,86.6522812 121.463404,83.4816562 114.786529,82.3257187 C103.636841,80.3925937 96.4387164,70.8179062 96.0065289,60.0910312 C95.5818414,49.4822812 101.832154,39.8925937 111.600904,36.1566562 C121.277779,32.4544687 132.633716,35.4422812 139.142779,43.6697812 C144.462154,50.3916562 146.152466,57.9572812 143.353091,66.2475937 C142.574966,68.5594687 141.567154,70.7963437 140.474966,73.5357187" id="Path" fill="#4B4B4B"></path>
                <path d="M157.224341,174.597281 L114.314966,174.597281 C110.202154,191.513531 101.318404,205.171031 86.0118414,213.856031 C74.1121539,220.606031 61.2871539,222.894469 47.6371539,220.690406 C22.5046539,216.637594 1.95465394,194.012906 0.145278939,168.537281 C-1.90222106,139.677281 17.9343414,114.024469 44.3746539,108.262594 C46.1999664,114.891656 48.0449664,121.584469 49.8702789,128.197594 C25.6115289,140.574469 17.2152789,156.168844 24.0046539,175.668844 C29.9812164,192.828844 46.9584039,202.234781 65.3924664,198.597281 C84.2174664,194.882906 93.7087164,179.237906 92.5499664,154.129781 C110.396216,154.129781 128.257466,153.945094 146.105591,154.220719 C153.074966,154.330406 158.455279,153.607594 163.705279,147.463219 C172.349029,137.353219 188.259341,138.265406 197.568716,147.813844 C207.082466,157.572281 206.626841,173.273531 196.559029,182.620406 C186.845591,191.639156 171.499654,191.157281 162.411529,181.439156 C160.544029,179.436656 159.072154,177.058219 157.224341,174.597281" id="Path" fill="#4A4A4A"></path>
            </g>
        </g>
    </g>
</svg>