<?xml version="1.0" encoding="UTF-8"?>
<svg width="241px" height="240px" viewBox="0 0 241 240" version="1.1" xmlns="http://www.w3.org/2000/svg" xmlns:xlink="http://www.w3.org/1999/xlink">
    <title>weblate</title>
    <defs>
        <linearGradient x1="0.00229590684%" y1="50.0023767%" x2="68.1991201%" y2="50.0023767%" id="linearGradient-1">
            <stop stop-color="#00D2E6" offset="0%"></stop>
            <stop stop-color="#2ECCAA" offset="100%"></stop>
        </linearGradient>
        <linearGradient x1="21.0948214%" y1="59.7991211%" x2="82.8489947%" y2="43.8997877%" id="linearGradient-2">
            <stop stop-color="#000000" stop-opacity="0" offset="0%"></stop>
            <stop stop-color="#000000" offset="51.4%"></stop>
            <stop stop-color="#000000" stop-opacity="0" offset="100%"></stop>
        </linearGradient>
        <linearGradient x1="99.9689024%" y1="50.0588026%" x2="31.8321648%" y2="50.0588026%" id="linearGradient-3">
            <stop stop-color="#1FA385" offset="0%"></stop>
            <stop stop-color="#2ECCAA" offset="100%"></stop>
        </linearGradient>
    </defs>
    <g id="Page-1" stroke="none" stroke-width="1" fill="none" fill-rule="evenodd">
        <g id="weblate" transform="translate(-1, 0)">
            <rect id="ViewBox" x="1" y="1.42108547e-14" width="240" height="240"></rect>
            <g id="Group" transform="translate(94.75, 142.5)">
                <path d="M60,23.4375 C56.4375,23.4375 53.0625,22.6875 49.6875,21.1875 C42.1875,18 35.8125,11.8125 30.375,3.5625 C31.875,0.9375 33.1875,-1.875 34.5,-4.6875 C39.75,-17.0625 42.375,-30.75 42.5625,-44.25 L42.5625,-45.75 C42.5625,-51 41.8125,-56.4375 39.9375,-61.3125 C37.875,-67.125 34.5,-72.75 29.25,-75 C28.3125,-75.375 27.1875,-75.5625 26.25,-75.5625 C19.5,-88.125 19.3125,-99.9375 26.25,-111.375 L26.625,-111.375 C34.6875,-111.375 42.75,-108.75 49.6875,-104.4375 C68.4375,-92.4375 77.8125,-69.375 78,-46.5 L78,-45.75 L78.1875,-45.75 C78,-21.5625 72.1875,3 60,23.4375 M18.375,61.3125 C0.9375,68.4375 -19.5,68.0625 -36.75,60 C-56.625,50.8125 -72,32.625 -81.375,12.1875 C-97.5,-23.0625 -97.875,-65.0625 -82.5,-100.6875 C-71.0625,-96.1875 -60.9375,-103.3125 -60.9375,-103.3125 C-60.9375,-103.3125 -60.9375,-92.0625 -50.0625,-86.4375 C-61.125,-60.375 -60.9375,-29.25 -49.6875,-3.75 C-44.25,8.4375 -36,19.875 -24.75,26.4375 C-20.625,28.6875 -16.125,30.1875 -11.625,30.75 C-3.5625,43.125 6.75,53.8125 18.375,61.3125" id="Shape" fill="url(#linearGradient-1)" fill-rule="nonzero"></path>
                <path d="M60,23.4375 C56.4375,23.4375 53.0625,22.6875 49.6875,21.1875 C42.1875,18 35.8125,11.8125 30.375,3.5625 C31.875,0.9375 33.1875,-1.875 34.5,-4.6875 C36.1875,-8.4375 37.5,-12.1875 38.625,-16.125 C41.25,-25.125 75.375,-13.6875 70.3125,1.3125 C67.5,9 64.125,16.5 60,23.4375 M18.375,61.3125 C0.9375,68.4375 -19.5,68.0625 -36.75,60 C-56.625,50.8125 -36.1875,19.6875 -24.75,26.0625 C-20.625,28.3125 -16.3125,29.8125 -11.625,30.375 C-3.5625,43.125 6.75,53.8125 18.375,61.3125" id="Shape" fill="url(#linearGradient-2)" opacity="0.3"></path>
                <path d="M-25.5,-45.5625 L-25.5,-46.3125 C-25.3125,-69.1875 -15.9375,-92.4375 2.8125,-104.25 C9.75,-108.5625 17.8125,-111.1875 25.875,-111.1875 L26.25,-111.1875 L26.25,-75.375 C25.3125,-75.375 24.1875,-75.1875 23.25,-74.8125 C18,-72.5625 14.625,-66.75 12.5625,-61.125 C10.6875,-56.0625 9.9375,-50.8125 9.9375,-45.5625 L9.9375,-44.0625 C10.125,-30.5625 12.5625,-17.0625 18,-4.6875 C23.8125,9.375 33.375,22.125 46.875,27.9375 C57,32.4375 68.25,31.3125 77.4375,26.0625 C88.875,19.6875 97.125,8.25 102.375,-4.125 C113.625,-29.625 113.8125,-60.5625 102.75,-86.8125 C113.625,-92.4375 113.625,-103.6875 113.625,-103.6875 C113.625,-103.6875 123.75,-96.375 135.1875,-101.0625 C150.375,-65.4375 150,-23.25 134.0625,11.8125 C124.6875,32.4375 109.5,50.4375 89.4375,59.625 C71.625,67.875 50.8125,68.0625 33,60.375 C16.875,53.8125 3.75,41.25 -5.625,26.625 C-19.125,5.4375 -25.5,-20.25 -25.5,-45.5625" id="Path" fill="url(#linearGradient-3)" fill-rule="nonzero"></path>
            </g>
        </g>
    </g>
</svg>