<?xml version="1.0" encoding="UTF-8"?>
<svg width="240px" height="240px" viewBox="0 0 240 240" version="1.1" xmlns="http://www.w3.org/2000/svg" xmlns:xlink="http://www.w3.org/1999/xlink">
    <title>webpack</title>
    <g id="Page-1" stroke="none" stroke-width="1" fill="none" fill-rule="evenodd">
        <g id="webpack">
            <rect id="ViewBox" x="0" y="0" width="240" height="240"></rect>
            <path d="M219.91875,183.9375 L124.2,238.125 L124.2,195.91875 L183.75,163.125 L219.91875,183.9375 Z M226.48125,178.0125 L226.48125,64.78125 L191.45625,85.03125 L191.45625,157.8 L226.4625,177.99375 L226.48125,178.0125 Z M20.08125,183.9375 L115.70625,238.0875 L115.70625,195.91875 L56.1375,163.125 L20.08125,183.9375 Z M13.51875,178.0125 L13.51875,64.78125 L48.54375,85.03125 L48.54375,157.8 L13.51875,178.0125 Z M17.625,57.45 L115.8,1.875 L115.8,42.675 L52.89375,77.26875 L52.3875,77.55 L17.625,57.45 Z M222.3375,57.45 L124.2,1.875 L124.2,42.675 L187.10625,77.25 L187.6125,77.53125 L222.375,57.45 L222.3375,57.45 Z" id="Shape" fill="#8ED6FB" fill-rule="nonzero"></path>
            <path d="M115.8,186.31875 L56.94375,153.9375 L56.94375,89.85 L115.8,123.75 L115.8,186.31875 Z M124.2,186.31875 L183.05625,153.975 L183.05625,89.85 L124.2,123.75 L124.2,186.31875 Z M60.9375,82.5 L120,49.9875 L179.0625,82.5 L120,116.55 L60.9375,82.5 Z" id="Shape" fill="#1C78C0" fill-rule="nonzero"></path>
        </g>
    </g>
</svg>