<?xml version="1.0" encoding="UTF-8"?>
<svg width="241px" height="240px" viewBox="0 0 241 240" version="1.1" xmlns="http://www.w3.org/2000/svg" xmlns:xlink="http://www.w3.org/1999/xlink">
    <title>webrtc</title>
    <g id="Page-1" stroke="none" stroke-width="1" fill="none" fill-rule="evenodd">
        <g id="webrtc" transform="translate(-79, -5)">
            <rect id="box" x="80" y="5" width="240" height="240"></rect>
            <g id="shape" transform="translate(80, 9)" fill-rule="nonzero">
                <circle id="Oval" fill="#FF6600" cx="79.6" cy="178.82" r="54"></circle>
                <circle id="Oval" fill="#FFCC00" cx="185.6" cy="103.82" r="54"></circle>
                <circle id="Oval" fill="#0089CC" cx="53.6" cy="101.82" r="54"></circle>
                <circle id="Oval" fill="#009939" cx="161.6" cy="178.82" r="54"></circle>
                <circle id="Oval" fill="#BF0000" cx="119.6" cy="53.82" r="54"></circle>
                <path d="M131.6,103.44963 C131.6,104.616296 131.72943,105.718148 131.794145,106.82 C155.738675,101.310741 173.6,79.857037 173.6,54.1903704 C173.6,53.0237037 173.47057,51.9218519 173.405855,50.82 C149.461325,56.3292593 131.6,77.782963 131.6,103.44963 Z" id="Path" fill="#FC0007"></path>
                <path d="M138.6,129.876 C147.959331,145.94 165.508078,156.82 185.656639,156.82 C193.911049,156.82 201.645497,154.964 208.6,151.764 C199.240669,135.7 181.691922,124.82 161.543361,124.82 C153.353946,124.82 145.554503,126.612 138.6,129.876 Z" id="Path" fill="#1CD306"></path>
                <path d="M108.6,179.32 C108.6,192.47514 113.279487,204.469533 121.1,213.82 C128.85641,204.469533 133.6,192.410654 133.6,179.32 C133.6,166.16486 128.920513,154.170467 121.1,144.82 C113.279487,154.170467 108.6,166.16486 108.6,179.32 Z" id="Path" fill="#0F7504"></path>
                <path d="M32.6,151.446556 C39.1409524,154.276432 46.3942857,155.82 53.9714286,155.82 C73.8533333,155.82 91.2095238,145.079336 100.6,129.193444 C94.0590476,126.363568 86.8057143,124.82 79.2285714,124.82 C59.2819048,124.884315 41.9904762,135.560664 32.6,151.446556 Z" id="Path" fill="#0C5E87"></path>
                <path d="M65.8584615,49.82 C65.7292308,51.3063946 65.6,52.857415 65.6,54.3438095 C65.6,79.9356463 83.4338462,101.262177 107.341538,106.82 C107.470769,105.333605 107.6,103.782585 107.6,102.29619 C107.6,76.7043537 89.7661538,55.3778231 65.8584615,49.82 Z" id="Path" fill="#6B0001"></path>
                <path d="M71.6048662,172.37338 L63.1265207,172.37338 C55.6836983,172.37338 49.6,166.346807 49.6,158.894592 L49.6,82.2987879 C49.6,74.8465734 55.6836983,68.82 63.1265207,68.82 L169.073479,68.82 C176.516302,68.82 182.6,74.9113753 182.6,82.2987879 L182.6,158.82979 C182.6,166.282005 176.516302,172.308578 169.073479,172.308578 L132.959611,172.308578 L60.5377129,207.82 L71.6048662,172.37338 Z" id="Path" fill="#FFFFFF"></path>
            </g>
        </g>
    </g>
</svg>