<?xml version="1.0" encoding="UTF-8"?>
<svg width="240px" height="240px" viewBox="0 0 240 240" version="1.1" xmlns="http://www.w3.org/2000/svg" xmlns:xlink="http://www.w3.org/1999/xlink">
    <title>webscraper</title>
    <g id="Page-1" stroke="none" stroke-width="1" fill="none" fill-rule="evenodd">
        <g id="webscraper">
            <rect id="box" x="0" y="0" width="240" height="240"></rect>
            <path d="M202.753673,115 L180.977471,76.9456368 C179.586402,74.5174762 176.514828,73.6817288 174.106729,75.0854249 C171.705754,76.4855264 170.879305,79.5912714 172.266812,82.0158374 L191.137086,115 L167.801498,115 L148.381743,81.0542786 L177.422318,30 L226.058091,115 L202.753673,115 Z M177.050404,210 L165.311203,189.639546 L202.576101,125 L226.058091,125 L177.050404,210 Z M80.9201319,194.521298 L156.591612,194.657751 L168.298755,215 L64.7290976,215 L12.9460581,125 L36.3567657,125 L74.2354481,190.619823 L74.6702388,191.284133 C76.5919065,193.898283 77.6028397,194.174779 80.9201319,194.521298 Z M71.986244,125 L91.6182573,159.540637 L80.0571041,180 L48.7966805,125 L71.986244,125 Z M79.9576043,60 L91.6182573,80.2048205 L72.114427,114 L48.7966805,114 L79.9576043,60 Z M139.727727,75 L100.342004,75 L88.6307054,55 L151.369295,55 L139.727727,75 Z M128.46473,115 L141.868973,91 L155.352697,115 L128.46473,115 Z M148.381743,158.794957 L167.885978,125 L191.20332,125 L160.040858,179 L148.381743,158.794957 Z M128.46473,125 L156.348548,125 L142.40845,149 L128.46473,125 Z M101.210323,163.681721 L106.97286,153.56843 L120.406329,130 L151.369295,184 L89.626556,184 L101.210323,163.681721 Z M111.53527,125 L97.6326843,149 L83.6514523,125 L111.53527,125 Z M105.560166,86 L133.443983,86 L119.543381,110 L105.560166,86 Z M111.53527,115 L83.6514523,115 L97.5897397,91 L111.53527,115 Z M70.7053942,25 L168.298755,25 L156.681434,45 L82.3923769,45 L70.7053942,25 Z M239.958945,119.397833 C239.955375,119.344076 239.948235,119.293903 239.939309,119.24373 C239.914319,119.087835 239.885759,118.935523 239.848274,118.785004 C239.837563,118.73483 239.823283,118.684657 239.812573,118.636276 C239.759023,118.453502 239.700117,118.277896 239.632287,118.104082 C239.626931,118.091539 239.623361,118.077203 239.616221,118.062868 C239.537681,117.872927 239.446645,117.690153 239.344899,117.512755 C239.335974,117.500212 239.332404,117.482293 239.323479,117.469749 L181.844147,17.5265602 C181.835221,17.5140169 181.824511,17.4978898 181.817371,17.4853466 C181.71384,17.3079485 181.603169,17.1359262 181.474648,16.9764471 C181.471078,16.9674876 181.465723,16.9585281 181.460368,16.9531524 C181.342557,16.8026329 181.212251,16.657489 181.078374,16.5230966 C181.044459,16.4854667 181.005189,16.4478368 180.969488,16.4119988 C180.857032,16.3080686 180.742791,16.2059304 180.62498,16.1109597 C180.583925,16.0751217 180.542869,16.0410756 180.496459,16.0088214 C180.344732,15.8977237 180.189436,15.7902097 180.021644,15.6898634 C180.012719,15.6862796 180.003794,15.679112 179.994869,15.6755282 L179.985944,15.6701525 C179.814582,15.5680142 179.636081,15.4855868 179.455794,15.4067432 C179.414738,15.3852405 179.364758,15.3709053 179.323703,15.3529863 C179.175546,15.2956455 179.022035,15.2418885 178.872093,15.2006748 C178.822113,15.1845477 178.777487,15.1720044 178.727507,15.1594611 C178.54722,15.1146816 178.368718,15.0770517 178.188432,15.0519651 C178.172367,15.0483813 178.154516,15.0447975 178.140236,15.0447975 C177.929604,15.0161271 177.724327,15.0035838 177.51905,15.0035838 C177.50834,15.0035838 177.492275,15 177.481565,15 L62.5202235,15 C62.5059434,15 62.4898782,15.0035838 62.4791681,15.0035838 C62.2721062,15.0035838 62.0686142,15.0161271 61.8633373,15.0447975 C61.8472721,15.0447975 61.832992,15.0483813 61.8187119,15.0483813 C61.6384251,15.0770517 61.4527834,15.1146816 61.2724967,15.1594611 C61.2225162,15.1720044 61.1743207,15.1899234 61.1243403,15.2006748 C60.9761838,15.2454723 60.8298124,15.2956455 60.6870111,15.3529863 C60.6370306,15.3744891 60.5870501,15.3906162 60.5388547,15.4121189 C60.358568,15.4891706 60.1782812,15.5751818 60.0015646,15.679112 C59.9926395,15.679112 59.9890694,15.6862796 59.9854994,15.6862796 C59.7962876,15.7973773 59.6160009,15.9174346 59.4464243,16.0500351 C59.3482484,16.123503 59.2625675,16.2095142 59.1679616,16.2919416 C59.098346,16.3582418 59.0215902,16.4155826 58.9519746,16.4854667 C58.8502286,16.5929807 58.7538377,16.7040784 58.6610168,16.81876 C58.6146064,16.872517 58.5610559,16.9262739 58.5164304,16.9871985 C58.4182545,17.1108396 58.3361437,17.2470239 58.2504629,17.3832083 C58.2219026,17.4333815 58.1844173,17.478179 58.155857,17.5265602 L58.1397919,17.5552306 C58.1362218,17.5641901 58.1362218,17.5695658 58.1308668,17.5713577 L17.6466815,87.9607501 C16.2561533,90.38519 17.0808311,93.4780083 19.490604,94.873898 C21.902162,96.2697876 24.9831013,95.4419301 26.3771996,93.021074 L62.5202235,30.1737862 L74.1995897,50.4813822 L37.1265719,114.943171 L4.98734103,114.943171 C4.87488496,114.943171 4.76956896,114.950339 4.66246794,114.959298 C4.60177736,114.964674 4.53930177,114.966466 4.48218122,114.975425 C4.38400529,114.984385 4.28582936,115.000512 4.1858684,115.020223 C4.11625274,115.029182 4.04663708,115.041726 3.98237647,115.054269 C3.90026569,115.07398 3.8181549,115.095483 3.73604412,115.120569 C3.65393334,115.14028 3.57182256,115.161783 3.49328181,115.185078 C3.4290212,115.20658 3.36297557,115.235251 3.29692994,115.260337 C3.20232404,115.292592 3.1130732,115.324846 3.01846729,115.36606 C2.96491679,115.391146 2.91136628,115.419817 2.85424573,115.444903 C2.75963983,115.495076 2.6614639,115.539874 2.57042803,115.593631 C2.55436288,115.600798 2.53472769,115.609758 2.52044756,115.618717 C2.4936723,115.634844 2.4722521,115.650972 2.44369183,115.667099 C2.3044605,115.754902 2.16879921,115.844497 2.03670795,115.943051 C1.98851249,115.980681 1.94388707,116.012935 1.89926164,116.046981 C1.75110523,116.170622 1.60294882,116.292472 1.46728753,116.434032 C1.43158719,116.46987 1.39767187,116.511083 1.36018651,116.548713 C1.26201058,116.656227 1.1691897,116.765533 1.07815383,116.882006 C1.03174339,116.935763 0.990687998,116.993104 0.949632607,117.050445 C0.865736809,117.165127 0.787196061,117.29056 0.714010365,117.412409 C0.689020127,117.458998 0.660459855,117.500212 0.635469617,117.541425 C0.540863717,117.713448 0.455179332,117.89443 0.376638584,118.077203 C0.367713499,118.104082 0.360573431,118.129168 0.348078312,118.154255 C0.285602718,118.313734 0.233837225,118.480381 0.189211801,118.643444 C0.176716682,118.693617 0.158866512,118.747374 0.14815641,118.795755 C0.114241087,118.939107 0.0856808154,119.09321 0.0606905776,119.240146 C0.0535505096,119.299279 0.0446254247,119.34766 0.0357003397,119.405001 C0.0160651529,119.585983 0.00357003397,119.77234 0,119.96049 L0,120.001703 C0,120.02679 0.00357003397,120.057252 0.00357003397,120.080547 C0.00892508493,120.248985 0.0160651529,120.417424 0.0357003397,120.582279 C0.0446254247,120.648579 0.0571205436,120.714879 0.0642606115,120.779388 C0.0856808154,120.915572 0.110671053,121.051756 0.142801359,121.184357 C0.158866512,121.245281 0.176716682,121.307998 0.192781835,121.368923 C0.237407259,121.533777 0.290957769,121.695048 0.353433363,121.854527 C0.364143465,121.879614 0.37306855,121.9047 0.380208618,121.933371 C0.4623194,122.123312 0.553358836,122.307878 0.655104804,122.483484 C0.660459855,122.497819 0.667599923,122.513946 0.672954974,122.524698 L58.155857,222.470037 C59.0537205,224.034365 60.7191414,225 62.5202235,225 L177.481565,225 C177.49763,225 177.51191,225 177.527975,225 C177.733252,225 177.938529,224.984072 178.143806,224.957194 C178.154516,224.957194 178.170582,224.95361 178.183077,224.948234 C178.366933,224.923147 178.549005,224.885518 178.734647,224.835344 C178.782842,224.824593 178.832823,224.81205 178.882803,224.795923 C179.029175,224.754709 179.175546,224.704536 179.318348,224.648987 C179.366543,224.627484 179.418308,224.611357 179.462934,224.589854 C179.648576,224.511011 179.828862,224.426791 180.005579,224.322861 C180.182296,224.218931 180.344732,224.107833 180.501814,223.987776 C180.546439,223.957314 180.583925,223.921476 180.62498,223.891013 C180.748146,223.790667 180.862387,223.692113 180.973058,223.58639 C181.010544,223.548761 181.044459,223.511131 181.085514,223.473501 C181.212251,223.342692 181.331847,223.206508 181.447873,223.063156 C181.455013,223.045237 181.467508,223.034485 181.480003,223.018358 C181.606739,222.857087 181.71741,222.686857 181.819156,222.509459 C181.828081,222.498708 181.840577,222.486164 181.849502,222.470037 L239.323479,122.530073 C239.332404,122.519322 239.335974,122.501403 239.344899,122.48886 C239.446645,122.307878 239.537681,122.126896 239.616221,121.933371 C239.623361,121.920828 239.626931,121.908284 239.632287,121.895741 C239.700117,121.723719 239.759023,121.546321 239.812573,121.365339 C239.823283,121.315166 239.837563,121.266784 239.848274,121.213027 C239.885759,121.066092 239.914319,120.908404 239.939309,120.752509 C239.948235,120.702336 239.955375,120.653955 239.958945,120.603781 C239.98572,120.406673 240,120.204188 240,119.99812 C240,119.797427 239.98572,119.594942 239.958945,119.397833 Z" id="Shape" fill="#FFFFFF"></path>
        </g>
    </g>
</svg>