<?xml version="1.0" encoding="UTF-8"?>
<svg width="240px" height="240px" viewBox="0 0 240 240" version="1.1" xmlns="http://www.w3.org/2000/svg" xmlns:xlink="http://www.w3.org/1999/xlink">
    <title>websocket</title>
    <g id="Page-1" stroke="none" stroke-width="1" fill="none" fill-rule="evenodd">
        <g id="websocket" transform="translate(0, -0.3737)" fill-rule="nonzero">
            <circle id="Oval" stroke="#3C790A" stroke-width="16" fill="#FFFFFF" cx="120" cy="120.373721" r="112"></circle>
            <path d="M157.510902,148.040387 L176.375,148.040387 L176.375,102.664081 L155.126084,81.3737206 L141.785714,94.7353875 L157.510902,110.491246 L157.510902,148.040387 Z M176.54919,158.987146 L149.610174,158.987146 L112.031439,158.987146 L96.6080031,143.542702 L103.148057,136.989461 L115.888453,149.751035 L142.094889,149.751035 L116.276696,123.841313 L122.865281,117.241776 L148.683474,143.102887 L148.683474,116.850572 L135.996231,104.142239 L142.485444,97.6399243 L110.42069,65.3737206 L78.7950213,65.3737206 L78.7950213,65.3737206 L46,65.3737206 L64.4484994,83.8528872 L64.4484994,83.9014983 L64.5455603,83.9014983 L102.713594,83.9014983 L116.230477,97.4408502 L96.4624118,117.241776 L82.9478402,103.700109 L82.9478402,93.1908502 L64.4484994,93.1908502 L64.4484994,111.373721 L96.4624118,143.44548 L83.4331446,156.498721 L104.27119,177.373721 L135.894548,177.373721 L195,177.373721 L195,177.373721 L176.54919,158.987146 Z" id="Shape" fill="#3C790A"></path>
        </g>
    </g>
</svg>