<?xml version="1.0" encoding="UTF-8"?>
<svg width="240px" height="240px" viewBox="0 0 240 240" version="1.1" xmlns="http://www.w3.org/2000/svg" xmlns:xlink="http://www.w3.org/1999/xlink">
    <title>wezterm</title>
    <defs>
        <linearGradient x1="51.7072727%" y1="0.854056364%" x2="51.7072727%" y2="99.82852%" id="linearGradient-1">
            <stop stop-color="#2B383F" offset="0%"></stop>
            <stop stop-color="#172024" offset="100%"></stop>
        </linearGradient>
    </defs>
    <g id="Page-1" stroke="none" stroke-width="1" fill="none" fill-rule="evenodd">
        <g id="wezterm" fill-rule="nonzero">
            <path d="M48,0 L192,0 C204.730392,0 216.939379,5.05712834 225.941125,14.0588745 C234.942872,23.0606207 240,35.2696085 240,48 L240,192 C240,218.509668 218.509668,240 192,240 L48,240 C21.490332,240 0,218.509668 0,192 L0,48 C0,21.490332 21.490332,0 48,0 L48,0 Z" id="box" fill="url(#linearGradient-1)"></path>
            <g id="shape" transform="translate(35, 51)" fill="#4E49EE">
                <path d="M24.1096181,43.2802142 C24.1096181,38.6683884 28.6851665,35.8303415 39.772069,35.8303415 L36.0764336,56.2287982 C29.2131128,51.6169725 24.1096181,47.359904 24.1096181,43.2802142 Z M53.6746939,93.6555289 C53.6746939,98.4447333 48.9231622,101.637534 38.012243,102.16967 L41.883858,80.5295662 C48.7471825,85.1413919 53.6746939,89.2210818 53.6746939,93.6555289 L53.6746939,93.6555289 Z M34.3166076,138 L37.6602763,117.956301 C64.2336501,115.473007 74.6166229,104.652959 74.6166229,92.7686395 C74.6166229,80.5295662 59.834085,70.9511612 46.2834231,62.6144028 L51.2109382,36.3624737 C56.8423793,36.8946096 63.5297204,37.9588776 71.4489375,39.5552778 L73.7367099,21.2853572 C67.7533021,20.3984678 62.1218574,20.0437106 56.8423793,19.6889533 L60.8899814,0.177386018 L43.4677044,0 L40.124032,19.8663208 C13.5506619,21.9948569 3.16768905,33.1696622 3.16768905,45.0539782 C3.16768905,57.1156766 17.950227,66.3393243 31.5008852,74.3213291 L26.5733738,101.814901 C20.2379993,101.460129 12.4947655,100.39588 3.51965206,98.7994757 L0,117.0694 C7.56725413,117.956289 14.6065582,118.488422 20.941929,118.6658 L17.070314,137.82261 L34.3166076,138 Z" id="$"></path>
                <path d="M149.018767,123.987148 L168.728816,123.987148 C171.192572,103.233934 174.712224,61.3727561 177,14.0128632 L158.16986,14.0128632 C157.641914,25.1876685 155.706104,91.7043714 155.002175,97.2030866 L154.474225,97.2030866 C149.722697,79.2879232 145.851078,64.7429352 141.09955,47.0051468 L130.36461,47.0051468 C125.789062,64.7429352 122.621376,78.0462765 117.869845,97.2030866 L117.165915,97.2030866 C116.637969,91.7043714 113.646263,25.1876685 113.2943,14.0128632 L93.7602303,14.0128632 C96.0480026,61.3727561 99.391675,103.233934 101.855431,123.987148 L121.213517,123.987148 L134.764175,71.3059184 L149.018767,123.987148 Z" id="w"></path>
            </g>
        </g>
    </g>
</svg>