<?xml version="1.0" encoding="UTF-8"?>
<svg width="224px" height="240px" viewBox="0 0 224 240" version="1.1" xmlns="http://www.w3.org/2000/svg" xmlns:xlink="http://www.w3.org/1999/xlink">
    <title>whodb</title>
    <g id="Page-1" stroke="none" stroke-width="1" fill="none" fill-rule="evenodd">
        <g id="whodb" fill-rule="nonzero">
            <path d="M112.026081,17 C50.1663857,17 0,33.7863838 0,54.599408 L0,85.400592 C0,106.318204 50.1663857,123 112.026081,123 C173.885776,123 224,106.213616 224,85.400592 L224,54.599408 C224.052162,33.7863838 173.885776,17 112.026081,17 Z" id="Path-Copy" fill="#FFFFFF"></path>
            <path d="M112.026081,83 C50.1663857,83 0,99.7863838 0,120.599408 L0,151.400592 C0,172.318204 50.1663857,189 112.026081,189 C173.885776,189 224,172.213616 224,151.400592 L224,120.599408 C224.052162,99.7863838 173.885776,83 112.026081,83 Z" id="Path-Copy-2" fill="#FFFFFF"></path>
            <path d="M112.026081,0 C50.1663857,0 0,16.7863838 0,37.599408 L0,68.400592 C0,89.3182042 50.1663857,106 112.026081,106 C173.885776,106 224,89.2136162 224,68.400592 L224,37.599408 C224.052162,16.7863838 173.885776,0 112.026081,0 Z" id="Path" fill="#A4A2A2"></path>
            <path d="M112.026101,119.011223 C52.9331158,119.011223 4.28058728,103.608387 0,84 C0,84.9462493 0,135.255168 0,135.255168 C0,156.28293 50.1663948,173 112.026101,173 C173.885808,173 224,156.125222 224,135.255168 C224,135.255168 224,84.9462493 224,84 C219.719413,103.608387 171.119086,119.011223 112.026101,119.011223 Z" id="Path" fill="#6B6B6B"></path>
            <path d="M223.895595,151 C219.615008,170.555818 171.066884,186.011223 112.026101,186.011223 C52.9853181,186.011223 4.28058728,170.555818 0,151 L0,202.255168 C0,223.28293 50.1663948,240 112.026101,240 C173.885808,240 224,223.125222 224,202.255168 L223.895595,151 Z" id="Path" fill="#C9822B"></path>
        </g>
    </g>
</svg>