<?xml version="1.0" encoding="UTF-8"?>
<svg width="240px" height="240px" viewBox="0 0 240 240" version="1.1" xmlns="http://www.w3.org/2000/svg" xmlns:xlink="http://www.w3.org/1999/xlink">
    <title>whoisxmlapi</title>
    <g id="Page-1" stroke="none" stroke-width="1" fill="none" fill-rule="evenodd">
        <g id="whoisxmlapi">
            <rect id="box" fill="#FFFFFF" x="0" y="0" width="240" height="240" rx="32"></rect>
            <g id="shape" transform="translate(30, 63)" fill-rule="nonzero">
                <path d="M33.6928076,113 C33.1189394,113 32.5506146,112.886786 32.0224252,112.664381 C31.4940141,112.441754 31.0166036,112.115932 30.6185767,111.705818 C30.4263264,111.483413 8.40155987,85.8523959 0.0672241679,39.5766725 C-0.0608409197,38.8689811 -0.00531927675,38.1406061 0.228569401,37.460048 C0.462456195,36.7792676 0.867026663,36.1689894 1.40424097,35.6859266 C13.9737807,24.5221057 28.309134,15.4845395 43.8366164,8.93536923 C70.7130755,-2.18095938 96.8047896,-2.919396 121.399524,6.68828219 C123.000722,7.23615366 138.644619,12.9690101 153.480045,27.9522518 C167.59481,42.244638 183.534954,67.867871 179.307665,109.093453 C179.250899,109.647686 179.084592,110.18546 178.81828,110.675862 C178.551968,111.166264 178.190972,111.599953 177.755693,111.95202 C177.320413,112.304086 176.819498,112.567635 176.28133,112.727767 C175.743384,112.887898 175.178829,112.941275 174.620039,112.885007 C174.061249,112.828738 173.51909,112.663714 173.024606,112.39972 C172.530121,112.135503 172.092846,111.777432 171.737837,111.345745 C171.382828,110.914057 171.116959,110.417205 170.955753,109.883657 C170.794325,109.350108 170.740441,108.790093 170.797207,108.235861 C173.903591,77.9201138 166.113573,52.995676 147.635592,34.1693497 C133.704873,20.0119853 118.645488,14.7238046 118.493373,14.6761655 L118.31731,14.6046847 C95.8442033,5.79897519 71.8818775,6.52948532 47.1030976,16.7644334 C33.2131797,22.628553 20.3311234,30.6064281 8.92196613,40.4104674 C17.0401398,82.4460472 36.3027108,105.266315 36.8872226,105.941313 C37.4358123,106.552481 37.7941474,107.308212 37.9194316,108.117097 C38.0444941,108.925983 37.9309622,109.75355 37.5923622,110.499718 C37.2537621,111.246107 36.704729,111.879293 36.0113418,112.32299 C35.3179546,112.766465 34.5099268,113.001769 33.6848249,113 L33.6928076,113 Z" id="Path" fill="#3498FB"></path>
                <path d="M88.7992629,113.945718 C76.4864939,113.235876 64.962897,107.715773 56.763832,98.5993609 C48.5645455,89.4831706 44.3613843,77.5178377 45.0788136,65.335442 C45.7962428,53.1530464 51.3755839,41.7515877 60.5892357,33.6391737 C69.8031088,25.5267598 81.8964419,21.3681756 94.2092109,22.0779729 C95.2897834,22.1417365 96.3781059,22.2374929 97.4343212,22.3732405 C98.094179,22.4567774 98.6931438,22.7962573 99.0999085,23.3168079 C99.5066732,23.8373586 99.6878019,24.496545 99.6032162,25.1492883 C99.5188518,25.8020317 99.1758586,26.3947885 98.6495224,26.7971433 C98.1234076,27.1997202 97.4571284,27.3787914 96.797492,27.2952545 C95.8460125,27.1755034 94.8703973,27.0797469 93.9109464,27.0319798 C84.6297589,26.4992097 75.4369214,29.0677483 67.8082569,34.325243 C60.1795924,39.5827378 54.5579584,47.2241457 51.8461201,56.0224068 C49.1340603,64.8206679 49.4887893,74.2654515 52.8536211,82.8402069 C56.2184529,91.4149623 62.3980874,98.6222447 70.4003023,103.304756 C78.4022957,107.987268 87.7625333,109.873292 96.9781779,108.660229 C106.193823,107.446944 114.730124,103.205001 121.216437,96.6151365 C127.702529,90.0254942 131.762426,81.47029 132.744241,72.3232178 C133.726056,63.1763677 131.57244,53.9684202 126.629706,46.1777123 C126.454556,45.9017738 126.335871,45.5942867 126.280735,45.2728028 C126.225599,44.9513189 126.23512,44.6225034 126.308413,44.3045742 C126.381706,43.9868673 126.517664,43.6864898 126.708314,43.4207712 C126.899185,43.1548305 127.140764,42.9288809 127.419764,42.755364 C127.698765,42.5820693 128.009651,42.4647621 128.334487,42.4101076 C128.659323,42.3556753 128.991687,42.3650065 129.312981,42.4374348 C129.634052,42.5100853 129.937853,42.6444998 130.206446,42.8333466 C130.475039,43.0219712 130.703553,43.2612512 130.878703,43.5371897 C135.419765,50.6904841 137.882274,58.9428669 137.995867,67.3894286 C138.109682,75.8357682 135.870594,84.1501371 131.523726,91.4207388 C127.177078,98.6911182 120.890937,104.637126 113.354387,108.606241 C105.817836,112.575135 97.3222782,114.41428 88.7992629,113.921723 L88.7992629,113.945718 Z" id="Path" fill="#28283D"></path>
                <path d="M89.1332873,98.9460684 C80.6634683,98.4613116 72.73583,94.6831063 67.0949248,88.4427823 C61.4540196,82.2026811 58.5616474,74.0115176 59.0539518,65.6712496 C59.546479,57.3312045 63.3833811,49.5251718 69.7207713,43.9708622 C76.0581616,38.4163298 84.3767934,35.5681888 92.846835,36.0531684 C93.1948548,36.0734502 93.5355268,36.1612636 93.8492568,36.3112596 C94.1627641,36.4612556 94.4433176,36.6707597 94.6748855,36.9275136 C94.9064534,37.1842675 95.0841372,37.4835909 95.1981399,37.8078765 C95.3123652,38.1323849 95.3602374,38.4758378 95.3395299,38.8186222 C95.3188224,39.1614065 95.2297578,39.4968359 95.0774574,39.8055201 C94.9249343,40.1144272 94.7122926,40.3907942 94.451556,40.6185742 C94.1908195,40.846577 93.8868866,41.0217581 93.5573477,41.1340879 C93.2278087,41.2461949 92.8791209,41.2936676 92.5308784,41.273163 C86.6615225,40.9473173 80.847164,42.5406626 75.9926991,45.8058059 C71.1382341,49.0707263 67.515755,53.82424 65.6892631,59.3263965 C63.8625485,64.8285529 63.9340229,70.7708908 65.892553,76.2289177 C67.8510831,81.6869445 71.5868969,86.3544278 76.5184028,89.5052354 C81.4501313,92.6562658 87.3012289,94.1136564 93.1612329,93.6509644 C99.021237,93.1880495 104.561499,90.8311287 108.92032,86.9466112 C113.278918,83.0620936 116.211369,77.8679527 117.26144,72.1723393 C118.311734,66.4767259 117.420421,60.5992451 114.726662,55.4539142 C114.553209,55.1481274 114.443882,54.8111379 114.405139,54.4630045 C114.366396,54.1148712 114.399127,53.762726 114.501329,53.4270738 C114.603753,53.0916444 114.773421,52.7798399 115.000313,52.510382 C115.227428,52.2407012 115.507091,52.0187161 115.822825,51.8575762 C116.138781,51.6964364 116.484129,51.599485 116.838829,51.5722941 C117.193529,51.545326 117.55001,51.5885641 117.887342,51.6997795 C118.224674,51.810995 118.535732,51.9877362 118.802258,52.2197508 C119.068783,52.4515426 119.28521,52.7339273 119.438847,53.0497436 C122.027954,57.9911423 123.242795,63.5193753 122.959792,69.0725705 C122.677012,74.6259886 120.906631,80.0064544 117.828559,84.6681429 C114.750487,89.3296086 110.474497,93.1060309 105.434555,95.6138393 C100.394613,98.1216476 94.7704072,99.2712455 89.1332873,98.9460684 L89.1332873,98.9460684 Z" id="Path" fill="#28283D"></path>
                <path d="M61.012777,103.062126 C61.0994969,101.581285 61.6233649,100.159289 62.5180657,98.9760583 C63.4127666,97.7930532 64.6381563,96.9017975 66.0394255,96.4150226 C67.4406947,95.9284732 68.9548549,95.8682745 70.3902798,96.2420924 C71.8257046,96.6159103 73.1180749,97.4070604 74.1039315,98.5154371 C75.089788,99.6238138 75.7247727,100.99959 75.9288195,102.468708 C76.1326445,103.938051 75.8964382,105.4349 75.2496986,106.769868 C74.6029589,108.104835 73.5749623,109.217946 72.2956776,109.968738 C71.0161712,110.719305 69.543042,111.073959 68.0621502,110.987155 C67.0789552,110.929662 66.1166084,110.679173 65.2303356,110.249665 C64.343841,109.820384 63.5507199,109.220652 62.8962177,108.484515 C62.2414936,107.748603 61.7382521,106.890941 61.4151041,105.96068 C61.0919561,105.030194 60.9553334,104.045371 61.012777,103.062126 Z" id="Path" fill="#3498FB"></path>
                <path d="M61.012777,49.0620363 C61.0994969,47.5812096 61.6233649,46.1594536 62.5180657,44.9762352 C63.4127666,43.7930168 64.6381563,42.9017701 66.0394255,42.4152256 C67.4406947,41.9284557 68.9548549,41.8682577 70.3902798,42.2420717 C71.8257046,42.6158858 73.1180749,43.4070278 74.1039315,44.5153933 C75.089788,45.6237587 75.7247727,46.9995207 75.9288195,48.4688489 C76.1326445,49.9381771 75.8964382,51.4347861 75.2496986,52.7697397 C74.6029589,54.1046932 73.5749623,55.2180188 72.2956776,55.9685779 C71.0161712,56.7193625 69.543042,57.0737869 68.0621502,56.9872099 C67.0789552,56.9297174 66.1166084,56.6792304 65.2303356,56.2497276 C64.343841,55.8202247 63.5507199,55.2204989 62.8962177,54.4845947 C62.2414936,53.7486906 61.7382521,52.8910376 61.4151041,51.9605608 C61.0919561,51.0303094 60.9553334,50.045271 61.012777,49.0620363 L61.012777,49.0620363 Z" id="Path" fill="#3498FB"></path>
                <path d="M107.012777,81.0620362 C107.099497,79.5812095 107.623365,78.1594536 108.518066,76.9762351 C109.412767,75.7930167 110.638156,74.9017701 112.039425,74.4152256 C113.440695,73.9284557 114.954855,73.8682577 116.39028,74.2420717 C117.825705,74.6161112 119.118075,75.4070278 120.103931,76.5153932 C121.089788,77.6237586 121.724773,78.9995206 121.92882,80.4688488 C122.132645,81.938177 121.896438,83.434786 121.249699,84.7697395 C120.602959,86.1046931 119.574962,87.2180186 118.295678,87.9688032 C117.016171,88.7193623 115.543042,89.0737867 114.06215,88.9872097 C113.078955,88.9297172 112.116608,88.6792302 111.230336,88.2497274 C110.343841,87.8202245 109.55072,87.2204987 108.896218,86.4845946 C108.241494,85.7486904 107.738252,84.8910374 107.415104,83.9605606 C107.091956,83.0303092 106.955333,82.0452709 107.012777,81.0620362 Z" id="Path" fill="#3498FB"></path>
                <path d="M97.7060298,79.9790032 C97.005069,80.0076792 96.315474,79.7902382 95.750465,79.36213 C95.2997693,79.0162114 94.9469939,78.5526533 94.7286404,78.0190987 C94.5786999,77.6198923 94.3673407,76.9486024 94.0853826,75.9959714 L91.5396731,66.6324596 L88.8969176,76.0050032 C88.6237025,76.9122493 88.4123432,77.6018287 88.2538785,78.0100668 C88.0366178,78.5467826 87.6873395,79.0157598 87.2407967,79.3711619 C86.6757878,79.8071729 85.9816027,80.0284524 85.2762705,79.9970669 C84.7208787,80.0167111 84.1694213,79.8918462 83.673044,79.6342136 C83.238304,79.3874191 82.8739443,79.027727 82.6160292,78.5908128 C82.3585512,78.1590918 82.1627106,77.6916953 82.0346274,77.2026223 C81.9023912,76.7309356 81.7791166,76.2953762 81.6822891,75.8961698 L78.3258956,62.5313368 C78.1394536,61.8943678 78.0301675,61.236174 78,60.571658 C77.9993489,60.2293521 78.0688548,59.8908847 78.2039324,59.578158 C78.33901,59.2654313 78.5365992,58.9856707 78.7840228,58.7569399 C79.2882687,58.2750924 79.9549136,58.0147503 80.6427601,58.0312333 C81.05149,57.9957835 81.4619684,58.0759408 81.8298253,58.2628995 C82.1976822,58.4500839 82.5091474,58.7368441 82.730561,59.0926978 C83.0853035,59.8010181 83.3375358,60.5592393 83.4791705,61.3427495 L85.4965912,70.0984199 L87.7076667,62.0323288 C87.8779344,61.3648774 88.0838293,60.7075869 88.3242587,60.0636182 C88.5611909,59.5034197 88.9342935,59.0159273 89.4077207,58.6481065 C90.0061711,58.2041927 90.7322677,57.9804294 91.4690743,58.0129439 C92.2148424,57.9759135 92.9488076,58.2139019 93.5393895,58.6844596 C93.9809051,59.0466355 94.3262491,59.5178706 94.5435098,60.0543606 C94.7021931,60.4718564 94.9048095,61.1160509 95.1601017,62.0415864 L97.3976245,70.1164835 L99.4679396,61.3246859 C99.5713243,60.818904 99.700719,60.3192187 99.855468,59.827662 C100.016774,59.3625233 100.285837,58.9452533 100.639486,58.6117535 C101.112913,58.1856774 101.729505,57.967559 102.357244,58.0039121 C103.03766,57.989687 103.697092,58.2466422 104.198496,58.7208127 C104.449417,58.9472855 104.650722,59.2263687 104.788859,59.5390954 C104.926997,59.8520479 104.999126,60.1916443 105,60.5353049 C104.965466,61.1993694 104.85618,61.8571115 104.674109,62.4952095 L101.30023,75.8234637 C101.062423,76.7309356 100.86855,77.4295467 100.701124,77.8831698 C100.503097,78.4510454 100.159065,78.9527629 99.7057461,79.3348088 C99.1354915,79.7891092 98.4260063,80.0176142 97.7060298,79.9790032 Z" id="Path" fill="#28283D"></path>
                <path d="M103.834404,25.0139225 C104.52956,22.7039982 107.002138,21.380957 109.256619,22.2883182 C115.625624,24.852044 121.315685,28.6514277 125.924591,33.4161033 C127.649599,35.1992027 127.222733,38.0361733 125.191901,39.4691634 L102.930035,55.1773572 C99.536653,57.5716531 95.0041482,54.3613212 96.1941306,50.406481 L103.834404,25.0139225 Z" id="Path" fill="#3498FB"></path>
            </g>
        </g>
    </g>
</svg>