<?xml version="1.0" encoding="UTF-8"?>
<svg width="240px" height="240px" viewBox="0 0 240 240" version="1.1" xmlns="http://www.w3.org/2000/svg" xmlns:xlink="http://www.w3.org/1999/xlink">
    <title>whonix</title>
    <defs>
        <radialGradient cx="50.1819367%" cy="63.5123938%" fx="50.1819367%" fy="63.5123938%" r="44.4711784%" gradientTransform="translate(0.5018, 0.6351), scale(1, 0.7491), rotate(-0.6551), translate(-0.5018, -0.6351)" id="radialGradient-1">
            <stop stop-color="#7ECFF3" stop-opacity="0.98" offset="0%"></stop>
            <stop stop-color="#87D0EF" stop-opacity="0.988" offset="66.9%"></stop>
            <stop stop-color="#0C84CE" offset="100%"></stop>
        </radialGradient>
    </defs>
    <g id="Page-1" stroke="none" stroke-width="1" fill="none" fill-rule="evenodd">
        <g id="whonix" transform="translate(-0, 0)">
            <rect id="box" x="0" y="0" width="240" height="240"></rect>
            <g id="shape" transform="translate(28.0605, 0.0605)" fill-rule="nonzero">
                <path d="M88.7315653,6.00083463 C57.7075243,6.00083463 31.7176087,30.521592 31.7176087,61.2762652 L31.7176087,88.3437194 C15.2781208,104.199532 6.00314535,125.967636 6,148.702218 C6,171.044619 14.955732,192.471866 30.8969044,208.269889 C46.8380768,224.067912 68.4587737,232.941279 91.0023679,232.941279 C113.545142,232.941279 135.164622,224.066118 151.10477,208.26823 C167.044918,192.470341 176,171.043806 176,148.702218 C175.959912,125.451313 166.225052,103.250768 149.100816,87.3580829 L149.100816,61.2739184 C149.100816,30.5220613 124.445441,5.99848788 93.4223473,5.99848788 L88.7315653,6.00083463 Z M88.3659637,25.8834685 L89.9335042,25.8834685 C109.03524,25.8834685 124.022537,41.3847137 124.022537,60.316443 L124.022537,71.0861639 C113.572246,66.7179406 102.345532,64.4666883 91.0037886,64.4650338 C78.1046398,64.4859627 65.3794863,67.4162807 53.7924618,73.0339693 L53.7924618,60.3159737 C53.7924618,41.3842443 69.2632811,25.8834685 88.3654902,25.8834685 L88.3659637,25.8834685 Z" id="Shape" fill="url(#radialGradient-1)"></path>
                <path d="M93.9179012,0 C128.5321,0 156.150188,27.4439383 156.150188,61.8600158 L156.150177,85.0610183 L156.19427,85.1038737 C173.110162,101.882396 182.756238,124.600558 182.995571,148.406654 L183,149.158781 C183,173.249661 173.348949,196.349604 156.176941,213.374391 C139.018035,230.386188 115.754822,239.939515 91.5023635,239.939515 C67.248134,239.939515 43.9840613,230.387319 26.8248618,213.376179 C9.65175137,196.351247 0,173.250538 0,149.157858 C0.00325478859,125.623914 9.21541482,103.054519 25.6206631,86.1692787 L25.6695488,86.1185155 L25.670406,61.8623591 C25.670406,27.9837506 53.8385437,0.555785421 88.1928193,0.0106139786 L89.2357288,0 L93.9179012,0 Z M93.9212271,13.3329622 L89.2390547,13.3353055 C61.644215,13.3353063 38.9824279,35.1290512 38.9824279,61.8623591 L38.9824279,91.7242882 L36.9441965,93.69085 C21.8351223,108.26865 13.3149105,128.272434 13.3120218,149.158781 C13.3120218,169.685622 21.5388593,189.375912 36.189576,203.900214 C50.8526298,218.436747 70.7499324,226.606552 91.5023635,226.606552 C112.252702,226.606552 132.149087,218.435855 146.811963,203.898688 C161.461738,189.37451 169.687988,169.684875 169.687988,149.170289 C169.65117,127.808461 160.708314,107.406867 144.969333,92.7946338 L142.838166,90.8160361 L142.838166,61.8600158 C142.838166,34.8312042 121.203505,13.3329622 93.9212271,13.3329622 Z M90.4354616,19.8555189 C113.078782,19.8555189 131.117937,38.2165184 131.117937,60.903959 L131.117937,81.6650619 L121.897606,77.8095954 C112.278897,73.7875486 101.944069,71.7144083 91.5145679,71.7128759 C79.6397309,71.7321497 67.9258635,74.4305473 57.261623,79.6026791 L47.7047423,84.2377439 L47.7047423,60.9034903 C47.7047423,38.2808655 66.1643446,19.8555189 88.8703256,19.8555189 L90.4354616,19.8555189 Z M90.4354616,33.188482 L88.8703256,33.188482 C73.5061714,33.188482 61.0164974,45.6547124 61.0164974,60.9034903 L61.0164974,63.6164849 L61.6218237,63.4053525 C70.9388409,60.194807 80.7409073,58.4925174 90.6547302,58.3852113 L91.5047514,58.3799217 C100.134441,58.3811811 108.70249,59.5936169 116.957416,61.9669267 L117.805915,62.215301 L117.805915,60.903959 C117.805915,45.6861685 105.919656,33.4356641 90.8918037,33.1921758 L90.4354616,33.188482 Z" id="Shape" fill="#000000"></path>
                <path d="M52,136.419252 C52.4828653,111.077447 60.4506145,92.9765622 66.7283354,92.9765622 C74.454652,92.9765622 85.5610254,103.595666 93.2873421,103.595666 C98.1159947,103.595666 108.981408,95.8730248 117.432022,95.8730248 C121.77781,95.8730248 128.758567,109.632757 129,132.80257 C98.532714,134.547626 78.2896983,146.410702 52.0014174,136.419724 L52,136.419252 Z M81.9782786,162.545505 C86.6599928,159.678796 94.3055169,159.868651 98.4505041,162.218691 L98.5180674,165.63135 C94.1590509,163.243056 86.5201414,163.394656 82.0463144,165.958165 L81.9782786,162.545505 Z" id="Shape" fill="#000000"></path>
                <path d="M99.1802175,190.846909 C100.513137,187.944062 103.797261,186.331737 107.007293,187.177442 C110.590584,188.121485 112.724631,191.770937 111.77382,195.328722 C111.200394,197.474394 109.638791,199.869724 106.786709,201.876377 C103.368135,204.281598 98.6347334,205.676671 92.5632455,205.889485 C85.3441171,206.22691 79.9621095,205.099522 76.1865432,202.703793 C73.5285711,201.017217 71.9690465,198.915847 71.3266184,196.940612 C70.1873647,193.437818 72.1237497,189.681269 75.6516552,188.550125 C78.6650745,187.583939 81.8649612,188.845768 83.4441575,191.417293 L83.5101215,191.528499 L83.5222133,191.535611 C83.8964047,191.749044 84.4784953,191.970968 85.3161094,192.16349 L85.575107,192.220327 C87.1808378,192.556685 89.2854011,192.6982 92.0102619,192.571293 C95.6920859,192.441965 97.9010982,191.790904 99.0245764,191.000453 C99.0745824,190.96527 99.1136382,190.936662 99.14325,190.91477 L99.1534734,190.90737 L99.1802175,190.846909 Z" id="Path" fill="#000000"></path>
                <path d="M29,140.072294 C29.2322179,130.86978 67.4724966,147.067937 79.2801374,145.539125 C97.6873064,144.215002 148.311751,128.56974 150.856215,140.302393 C152.705918,150.654927 136.638427,142.523381 106.743331,147.049585 C106.743331,147.049585 29,155.486517 29,140.072294 L29,140.072294 Z M50.2127015,163.397376 C54.0327093,157.874079 71.3549336,156.172106 83.9278057,161.651642 C83.9278057,161.651642 85.8148716,167.235639 83.4383036,170.80616 C81.4831331,176.697425 63.4770248,182.726561 53.0347873,175.976074 C49.0705301,172.693529 48.4973161,168.274139 50.2127015,163.397376 L50.2127015,163.397376 Z M130.122138,159.557701 C125.641894,154.549655 108.24116,155.002793 96.4505451,161.994671 C96.4505451,161.994671 95.2757402,167.7683 98.0798539,171.016965 C100.755326,176.621196 119.375321,180.377113 128.893417,172.387673 C132.416886,168.640226 132.433439,164.184133 130.122138,159.557701 L130.122138,159.557701 Z" id="Shape" fill="#000000"></path>
            </g>
        </g>
    </g>
</svg>