<?xml version="1.0" encoding="UTF-8"?>
<svg width="240px" height="240px" viewBox="0 0 240 240" version="1.1" xmlns="http://www.w3.org/2000/svg" xmlns:xlink="http://www.w3.org/1999/xlink">
    <title>wifi</title>
    <g id="Page-1" stroke="none" stroke-width="1" fill="none" fill-rule="evenodd">
        <g id="wifi" transform="translate(-274, 7)">
            <rect id="box" x="274" y="-7" width="240" height="240"></rect>
            <g id="shape" transform="translate(273.8281, 29.6562)">
                <path d="M120.479701,0.34375 C93.8916276,0.34375 70.2096947,12.8261521 54.9881956,32.2356041 L40.7352553,32.2356041 C18.3705805,32.2356004 0.171875,50.3928173 0.171875,72.7208633 L0.171875,97.132628 C0.171875,119.460685 18.3705808,137.629484 40.7352553,137.629484 L57.6018155,137.629484 C72.8495762,155.215232 95.3704764,166.34375 120.479701,166.34375 C145.588923,166.34375 168.109827,155.215229 183.357587,137.629484 L199.596879,137.629484 C221.970227,137.629477 240.171875,119.460678 240.171875,97.132628 L240.171875,72.7208633 C240.171875,50.3928284 221.970227,32.2356041 199.596879,32.2356041 L185.971207,32.2356041 C170.749708,12.8261521 147.067775,0.34375 120.479701,0.34375 Z" id="path112" fill="#000000"></path>
                <path d="M125.807527,96.572314 L125.807527,72.1151823 C125.807527,54.0475639 140.464147,39.34375 158.473842,39.34375 L199.496911,39.34375 C217.506606,39.34375 232.171875,54.0475639 232.171875,72.1151823 L232.171875,96.572314 C232.171875,114.639958 217.506606,129.34375 199.496911,129.34375 C199.496911,129.34375 139.228382,129.34375 109.171875,129.34375 C119.248336,121.957175 125.807527,110.019008 125.807527,96.572314 Z" id="path118" fill="#FFFFFF" fill-rule="nonzero"></path>
                <path d="M71.5933011,109.34375 L58.1150833,109.34375 L55.7014744,97.8356443 C53.9799116,89.6677294 52.3967943,79.7427051 52.0940073,75.8893223 C51.7825622,79.7427051 50.2081029,89.6677294 48.4865401,97.8356443 L46.0642696,109.34375 L32.7417613,109.34375 L20.171875,56.34375 L35.2245818,56.34375 L36.6519896,65.207542 C37.8631341,72.7056702 39.2991998,81.9434446 39.8182501,88.2238019 C40.4238205,82.0130364 42.0761494,72.844824 43.7371326,65.2684246 L45.536565,56.34375 L58.9455749,56.34375 L60.7536096,65.2684246 C62.4059905,72.844824 64.0583194,82.0130364 64.6725218,88.2238019 C65.1915721,81.9434446 66.6276897,72.7056702 67.8301541,65.207542 L69.2575618,56.34375 L84.171875,56.34375 L71.5933011,109.34375 Z" id="path120" fill="#FFFFFF" fill-rule="nonzero"></path>
                <path d="M98.1011663,66.6820712 C93.5574897,66.6820712 90.171875,64.0962232 90.171875,59.9432159 C90.171875,56.068853 93.5574897,53.34375 98.1011663,53.34375 C102.865799,53.34375 106.171875,56.068853 106.171875,59.9432159 C106.171875,64.0962232 102.865799,66.6820712 98.1011663,66.6820712 Z M91.1707765,109.34375 L91.1707765,70.808912 L105.022683,70.808912 L105.022683,109.34375 L91.1707765,109.34375 Z" id="path122" fill="#FFFFFF" fill-rule="nonzero"></path>
                <polygon id="path124" fill="#000000" fill-rule="nonzero" points="158.844338 68.8347943 158.844338 80.6821722 187.158761 80.6821722 187.158761 93.1123303 158.844338 93.1123303 158.844338 109.34375 144.171875 109.34375 144.171875 56.34375 190.171875 56.34375 190.171875 68.8347943"></polygon>
                <path d="M205.10117,66.6820712 C200.566363,66.6820712 197.171875,64.0962232 197.171875,59.9432159 C197.171875,56.068853 200.566363,53.34375 205.10117,53.34375 C209.865829,53.34375 213.171875,56.068853 213.171875,59.9432159 C213.171875,64.0962232 209.865829,66.6820712 205.10117,66.6820712 Z M198.179654,109.34375 L198.179654,70.808912 L212.022713,70.808912 L212.022713,109.34375 L198.179654,109.34375 Z" id="path126" fill="#000000" fill-rule="nonzero"></path>
            </g>
        </g>
    </g>
</svg>