<?xml version="1.0" encoding="UTF-8"?>
<svg width="180px" height="180px" viewBox="0 0 180 180" version="1.1" xmlns="http://www.w3.org/2000/svg" xmlns:xlink="http://www.w3.org/1999/xlink">
    <title>simple-icons:wireguard</title>
    <g id="Page-1" stroke="none" stroke-width="1" fill="none" fill-rule="evenodd">
        <g id="simple-icons:wireguard" transform="translate(-0, 0)">
            <rect id="ViewBox" x="0.00252949587" y="0" width="180" height="180"></rect>
            <path d="M179.852529,87.3375 C179.852529,87.3375 184.000029,0 88.0150295,0 C3.1375295,0 0.482529496,83.775 0.482529496,83.775 C0.482529496,83.775 -11.9974705,180 89.9800295,180 C187.802529,180 179.852529,87.3375 179.852529,87.3375" id="Path" fill="#88171A" fill-rule="nonzero"></path>
            <path d="M61.1650295,56.82 C79.1650295,45.795 102.182529,52.5375 110.800029,69.105 C112.435029,72.2475 112.645029,77.0775 111.610029,80.3775 C108.032529,91.7475 99.6025295,98.1225 88.0225295,100.8375 C91.4350295,97.9125 94.1500295,94.5975 95.0200295,90.0225 C95.9427031,85.6325303 94.9496552,81.0574164 92.2900295,77.445 C88.0732086,71.6545786 80.5297962,69.3594227 73.8025295,71.82 C66.6775295,74.52 62.7775295,81.03 63.4750295,89.025 C64.1275295,96.45 69.7675295,101.265 80.3125295,103.095 C78.7375295,103.9275 77.5225295,104.5425 76.3375295,105.2025 C71.502916,107.847535 67.296938,111.50602 64.0075295,115.9275 C62.9350295,117.3675 62.2075295,117.4875 60.5725295,116.49 C39.3700295,103.5225 38.0050295,70.9875 61.1575295,56.82 L61.1650295,56.82 Z" id="Path" fill="#FFFFFF" fill-rule="nonzero"></path>
            <path d="M45.3025295,136.935 C41.8900295,137.805 38.5900295,139.08 35.1100295,140.22 C36.8125295,128.73 50.2675295,118.1475 61.6525295,119.355 C58.3494444,123.894995 56.4227638,129.289701 56.1025295,134.895 C52.3225295,135.5925 48.7525295,136.0575 45.3025295,136.935" id="Path" fill="#FFFFFF" fill-rule="nonzero"></path>
            <path d="M117.775029,24.75 C121.135029,24.8775 124.510029,24.825 127.877529,24.9 C128.720966,24.9467554 129.558945,25.0646746 130.382529,25.2525 C129.63424,26.4134696 128.780636,27.5030695 127.832529,28.5075 C126.632529,29.6325 125.275029,30.7275 123.535029,29.025 C123.122529,28.6125 122.132529,28.71 121.412529,28.695 C118.060029,28.6575 114.707529,28.545 111.362529,28.6725 C108.459915,28.7576701 105.567312,29.0534475 102.707529,29.5575 C102.167529,29.655 101.372529,31.4325 101.612529,32.0925 C102.197529,33.645 103.045029,35.355 104.305029,36.345 C108.947529,40.02 113.882529,43.305 118.555029,46.9425 C123.085029,50.4825 127.307529,54.3675 129.880029,59.6925 C133.225029,66.6525 133.330029,73.9425 131.882529,81.27 C129.467529,93.495 123.280029,103.62 113.260029,110.985 C109.225029,113.9475 104.222529,115.635 99.6025295,117.7575 C95.5300295,119.6325 91.3525295,121.245 87.2725295,123.0975 C79.9225295,126.4425 75.7975295,134.4225 77.0050295,142.71 C78.1225295,150.3225 84.8050295,156.675 92.4475295,157.9875 C101.620029,159.5625 111.092529,153.5925 113.335029,144.2625 C115.855029,133.785 110.162529,124.4175 99.4975295,121.5825 L97.5775295,121.0875 C100.427529,119.8125 102.887529,118.905 105.167529,117.6525 C109.132529,115.4675 113.027529,113.155 116.852529,110.715 C117.977529,109.995 118.585029,109.995 119.552529,110.82 C126.880029,117.165 131.252529,125.055 132.482529,134.7225 C134.507529,150.735 126.932529,165.4425 112.637529,172.98 C90.5275295,184.6425 63.4600295,171.3675 58.5775295,146.85 C54.3925295,125.85 69.2125295,106.8 87.0550295,103.125 C94.7275295,101.5425 101.740029,98.3475 107.192529,92.4375 C110.717529,88.6275 112.420029,85.3575 113.005029,83.88 C114.080379,81.1106789 114.63223,78.1657769 114.632529,75.195 C114.51807,72.624597 113.914809,70.0995551 112.855029,67.755 C110.995029,63.51 103.855029,56.76 102.092529,55.335 L85.2925295,42.18 C84.7000295,41.6925 84.0325295,41.73 82.5925295,41.8275 C80.8675295,41.9475 76.4800295,42.1875 74.5900295,41.6925 C76.1200295,40.53 80.2900295,38.8425 82.0900295,37.4925 C76.6450295,33.8175 70.4350295,35.1375 64.7275295,34.0425 C66.0475295,31.5825 72.5725295,27.81 76.2850295,27.3825 C76.0702114,25.3092227 75.7321129,23.2505786 75.2725295,21.2175 C75.0475295,20.385 74.1175295,19.5675 73.3000295,19.095 C71.3350295,17.94 69.2425295,16.9875 66.9775295,15.84 C69.0077411,14.5315053 71.3580576,13.8051382 73.7725295,13.74 C76.061871,13.6530865 78.3524842,13.8750842 80.5825295,14.4 C84.6325295,15.3225 87.8575295,14.715 91.0750295,11.97 C88.5400295,10.95 86.0050295,10.02 83.5525295,8.9175 C81.1336291,7.81115342 78.7752967,6.57690941 76.4875295,5.22 C82.8625295,6.105 89.0200295,8.4975 95.5375295,7.62 L95.7025295,6.735 L80.5675295,3.21 C89.5900295,2.385 97.9900295,2.25 105.947529,6.12 C108.190029,7.215 110.522529,8.115 112.675029,9.36 C113.725029,9.96 114.422529,11.16 115.285029,12.0975 C115.960029,12.8325 116.515029,13.8225 117.355029,14.2725 C120.535029,15.96 124.030029,16.0275 127.600029,15.945 L127.675029,14.745 C131.267529,15.87 135.302529,20.01 135.302529,23.0325 C129.482529,23.0325 123.677529,23.01 117.865029,23.0625 C117.242529,23.0625 116.627529,23.52 116.012529,23.7675 C116.597529,24.1125 117.175029,24.7275 117.775029,24.75" id="Path" fill="#FFFFFF" fill-rule="nonzero"></path>
            <path d="M110.275029,16.1475 C110.033437,16.2943436 109.876542,16.5477761 109.852818,16.829498 C109.829094,17.1112198 109.941397,17.3873216 110.155029,17.5725 C110.530115,18.21631 111.355878,18.4344994 112.000029,18.06 C112.562529,17.775 113.110029,17.475 113.785029,17.1225 C113.245029,16.6575 112.810029,16.2675 112.360029,15.9 C111.565029,15.2475 110.912529,15.66 110.275029,16.1475" id="Path" fill="#88171A" fill-rule="nonzero"></path>
        </g>
    </g>
</svg>