<svg width="240" height="240" viewBox="0 0 240 240" fill="none" xmlns="http://www.w3.org/2000/svg">
<rect width="240" height="240" rx="32" fill="white"/>
<path opacity="0.975" fill-rule="evenodd" clip-rule="evenodd" d="M118.125 46.2373C128.474 46.2987 134.932 51.2987 137.5 61.2373C155.662 67.9061 160.557 79.9894 152.187 97.4873C145.919 103.12 138.523 105.933 130 105.925C119.486 106.729 109.07 106.104 98.7499 104.05C88.4767 100.914 83.4767 93.9347 83.7499 83.1123C83.8132 76.6324 86.3132 71.3199 91.2499 67.1748C94.7286 64.706 98.4786 62.7268 102.5 61.2373C104.481 52.7962 109.69 47.7962 118.125 46.2373Z" fill="black"/>
<path opacity="0.962" fill-rule="evenodd" clip-rule="evenodd" d="M200 128.737C200 130.82 200 132.904 200 134.987C198.85 136.03 197.6 136.967 196.25 137.8C186.461 138.112 176.669 138.217 166.875 138.112C166.447 141.074 165.822 143.991 165 146.862C185.446 154.005 194.926 168.38 193.438 189.987C189.992 194.714 186.242 194.922 182.188 190.612C182.338 179.587 178.276 170.525 170 163.425C166.981 161.447 163.752 159.884 160.312 158.737C155.902 164.196 151.214 169.509 146.25 174.675C140.216 179.775 133.341 183.213 125.625 184.987C125.729 167.278 125.625 149.569 125.312 131.862C121.759 121.866 118.217 121.866 114.688 131.862C114.375 149.569 114.271 167.278 114.375 184.987C106.659 183.213 99.7843 179.775 93.75 174.675C88.7858 169.509 84.0983 164.196 79.6875 158.737C70.016 161.379 63.5577 167.42 60.3125 176.862C59.3969 181.453 58.5635 186.037 57.8125 190.612C53.7578 194.922 50.0078 194.714 46.5625 189.987C45.0757 168.377 54.5548 154.002 75 146.862C74.1781 143.991 73.5531 141.074 73.125 138.112C63.3311 138.217 53.5394 138.112 43.75 137.8C42.4 136.967 41.15 136.03 40 134.987C40 132.904 40 130.82 40 128.737C40.7338 127.524 41.7755 126.587 43.125 125.925C52.7061 125.612 62.2894 125.508 71.875 125.612C71.9788 122.065 71.8746 118.523 71.5625 114.987C59.1434 105.149 52.6851 92.2327 52.1875 76.2373C51.7708 73.7373 51.7708 71.2373 52.1875 68.7373C53.9957 64.0318 57.2248 62.6777 61.875 64.6748C63.0489 65.6391 63.9864 66.7849 64.6875 68.1123C64.3567 78.6651 66.8568 88.4568 72.1875 97.4873C73.3202 99.2249 74.6744 100.787 76.25 102.175C102.374 116.67 129.249 118.129 156.875 106.55C166.514 101.152 172.243 92.9231 174.062 81.8623C174.55 76.8169 175.175 71.8169 175.938 66.8623C179.688 62.6956 183.438 62.6956 187.188 66.8623C188.883 81.1226 185.758 94.2476 177.812 106.237C174.876 109.384 171.751 112.3 168.438 114.987C168.126 118.523 168.021 122.065 168.125 125.612C177.711 125.508 187.294 125.612 196.875 125.925C198.039 126.779 199.08 127.716 200 128.737Z" fill="black"/>
</svg>
