<?xml version="1.0" encoding="UTF-8"?>
<svg width="240px" height="240px" viewBox="0 0 240 240" version="1.1" xmlns="http://www.w3.org/2000/svg" xmlns:xlink="http://www.w3.org/1999/xlink">
    <title>xamarin</title>
    <g id="Page-1" stroke="none" stroke-width="1" fill="none" fill-rule="evenodd">
        <g id="xamarin" transform="translate(-0.0002, 0)">
            <rect id="ViewBox" x="0" y="0" width="240" height="240"></rect>
            <g id="shape" transform="translate(0, 13)">
                <path d="M69.2496094,0 C62.7677344,0.0140625 56.4227344,3.69375 53.1602344,9.3065625 L2.40960938,97.4653125 C-0.803203125,103.093125 -0.803203125,110.449687 2.40960938,116.0775 L53.1602344,204.237188 C56.4227344,209.85 62.7677344,213.530625 69.2496094,213.54375 L170.750859,213.54375 C177.232734,213.529687 183.577734,209.85 186.840234,204.237188 L237.590859,116.0775 C240.803672,110.449687 240.802734,103.093125 237.590859,97.4653125 L186.840234,9.3065625 C183.577734,3.6928125 177.232734,0.013125 170.750859,0 L69.2496094,0 Z" id="Path" fill="#FFFFFF"></path>
                <path d="M69.2496094,0 C62.7677344,0.0140625 56.4227344,3.69375 53.1602344,9.3065625 L2.40960938,97.4653125 C-0.803203125,103.093125 -0.803203125,110.449687 2.40960938,116.0775 L53.1602344,204.237188 C56.4227344,209.85 62.7677344,213.530625 69.2496094,213.54375 L170.750859,213.54375 C177.232734,213.529688 183.577734,209.85 186.840234,204.237188 L237.590859,116.0775 C240.803672,110.449687 240.802734,103.093125 237.590859,97.4653125 L186.840234,9.3065625 C183.577734,3.6928125 177.232734,0.013125 170.750859,0 L69.2496094,0 Z M70.1711719,51.5746875 C70.3108594,51.560625 70.4571094,51.560625 70.5967969,51.5746875 L88.1036719,51.5746875 C88.8944542,51.5999889 89.6170689,52.0288866 90.0180469,52.7109375 L119.717109,105.634687 C119.867109,105.897187 119.962734,106.187812 119.998359,106.487812 C120.035859,106.187812 120.131484,105.897187 120.281484,105.634687 L149.909297,52.7109375 C150.324631,52.0091377 151.078498,51.5775423 151.893984,51.5746875 L169.401797,51.5746875 C170.951484,51.5878125 172.113047,53.540625 171.386484,54.913125 L142.396172,106.771875 L171.386484,158.559375 C172.181484,159.939375 170.992734,161.982187 169.401797,161.969135 L151.893984,161.969135 C151.063768,161.95154 150.306494,161.490809 149.909297,160.761562 L120.281484,107.836875 C120.131135,107.574651 120.035162,107.284821 119.999297,106.984687 C119.963554,107.285144 119.867578,107.575304 119.717109,107.837812 L90.0171094,160.761562 C89.6329103,161.469202 88.9086912,161.926454 88.1046094,161.969135 L70.5958594,161.969135 C69.0049219,161.983125 67.8161719,159.939375 68.6111719,158.559375 L97.6014844,106.771875 L68.6111719,54.913125 C67.9164844,53.660625 68.7639844,51.841875 70.1702344,51.5746875" id="Shape" fill="#3498DB" fill-rule="nonzero"></path>
            </g>
        </g>
    </g>
</svg>