<?xml version="1.0" encoding="UTF-8"?>
<svg width="240px" height="240px" viewBox="0 0 240 240" version="1.1" xmlns="http://www.w3.org/2000/svg" xmlns:xlink="http://www.w3.org/1999/xlink">
    <title>xcode</title>
    <defs>
        <linearGradient x1="49.997%" y1="100.065%" x2="49.997%" y2="-0.016%" id="linearGradient-1">
            <stop stop-color="#1578E4" offset="0%"></stop>
            <stop stop-color="#00C3F2" offset="100%"></stop>
        </linearGradient>
        <linearGradient x1="49.948%" y1="99.943%" x2="49.948%" y2="0.038%" id="linearGradient-2">
            <stop stop-color="#1285E7" offset="0%"></stop>
            <stop stop-color="#00B5EF" offset="100%"></stop>
        </linearGradient>
        <linearGradient x1="66.1268787%" y1="100.135%" x2="33.6247908%" y2="0.097%" id="linearGradient-3">
            <stop stop-color="#2B90E7" offset="0%"></stop>
            <stop stop-color="#00B6EF" offset="100%"></stop>
        </linearGradient>
        <linearGradient x1="66.7337885%" y1="100.213%" x2="33.2232992%" y2="0.149%" id="linearGradient-4">
            <stop stop-color="#3795EA" offset="0%"></stop>
            <stop stop-color="#49C4F2" offset="100%"></stop>
        </linearGradient>
        <linearGradient x1="66.3567446%" y1="99.893%" x2="33.6413015%" y2="0.153%" id="linearGradient-5">
            <stop stop-color="#3696EA" offset="0%"></stop>
            <stop stop-color="#90D9F6" offset="100%"></stop>
        </linearGradient>
        <linearGradient x1="66.5716934%" y1="99.886%" x2="33.5692123%" y2="-0.089%" id="linearGradient-6">
            <stop stop-color="#3097EA" offset="0%"></stop>
            <stop stop-color="#B5E5F9" offset="100%"></stop>
        </linearGradient>
        <linearGradient x1="66.6128788%" y1="99.976%" x2="33.6091262%" y2="-0.111%" id="linearGradient-7">
            <stop stop-color="#3A98EA" offset="0%"></stop>
            <stop stop-color="#BCE7FA" offset="100%"></stop>
        </linearGradient>
        <linearGradient x1="50.041%" y1="100.188%" x2="50.041%" y2="-0.034%" id="linearGradient-8">
            <stop stop-color="#1285E7" offset="0%"></stop>
            <stop stop-color="#00B5EF" offset="100%"></stop>
        </linearGradient>
        <linearGradient x1="33.1703108%" y1="100.227%" x2="67.0790254%" y2="0.019%" id="linearGradient-9">
            <stop stop-color="#3194E9" offset="0%"></stop>
            <stop stop-color="#71CFF4" offset="100%"></stop>
        </linearGradient>
        <linearGradient x1="33.3018087%" y1="100.305%" x2="66.8149479%" y2="0.228%" id="linearGradient-10">
            <stop stop-color="#5AA6EC" offset="0%"></stop>
            <stop stop-color="#A2DEF8" offset="100%"></stop>
        </linearGradient>
        <linearGradient x1="33.5904825%" y1="99.811%" x2="66.3996927%" y2="0.071%" id="linearGradient-11">
            <stop stop-color="#66ABEE" offset="0%"></stop>
            <stop stop-color="#BEE8FA" offset="100%"></stop>
        </linearGradient>
        <linearGradient x1="33.208755%" y1="99.97%" x2="66.74534%" y2="-0.173%" id="linearGradient-12">
            <stop stop-color="#7BB6F0" offset="0%"></stop>
            <stop stop-color="#B1E3F9" offset="100%"></stop>
        </linearGradient>
        <linearGradient x1="33.3252289%" y1="99.951%" x2="66.447451%" y2="-0.187%" id="linearGradient-13">
            <stop stop-color="#5AA6EC" offset="0%"></stop>
            <stop stop-color="#AFE3F9" offset="100%"></stop>
        </linearGradient>
        <linearGradient x1="45.6294894%" y1="48.14%" x2="53.2148945%" y2="54.535%" id="linearGradient-14">
            <stop stop-color="#000000" offset="0.1%"></stop>
            <stop stop-color="#000000" stop-opacity="0" offset="100%"></stop>
        </linearGradient>
        <radialGradient cx="64.4916738%" cy="29.6735596%" fx="64.4916738%" fy="29.6735596%" r="42.264438%" gradientTransform="translate(0.6449, 0.2967), scale(0.7273, 1), rotate(116.456), translate(-0.6449, -0.2967)" id="radialGradient-15">
            <stop stop-color="#000000" offset="0%"></stop>
            <stop stop-color="#000000" stop-opacity="0" offset="100%"></stop>
        </radialGradient>
        <radialGradient cx="48.3253197%" cy="48.5174334%" fx="48.3253197%" fy="48.5174334%" r="74.5376862%" gradientTransform="translate(0.4833, 0.4852), scale(0.6875, 1), rotate(25.6902), translate(-0.4833, -0.4852)" id="radialGradient-16">
            <stop stop-color="#0C0C12" offset="41.7%"></stop>
            <stop stop-color="#3D4651" offset="100%"></stop>
        </radialGradient>
        <linearGradient x1="40.3281962%" y1="40.676%" x2="60.715538%" y2="55.055%" id="linearGradient-17">
            <stop stop-color="#344351" offset="0%"></stop>
            <stop stop-color="#9697A0" offset="10%"></stop>
            <stop stop-color="#8B8C95" offset="18.1%"></stop>
            <stop stop-color="#787A83" offset="35.1%"></stop>
            <stop stop-color="#71747D" offset="47%"></stop>
            <stop stop-color="#777982" offset="59.1%"></stop>
            <stop stop-color="#87898F" offset="74.9%"></stop>
            <stop stop-color="#8E8F94" offset="80%"></stop>
            <stop stop-color="#3D3B42" offset="84.9%"></stop>
            <stop stop-color="#606E84" offset="90%"></stop>
        </linearGradient>
        <linearGradient x1="72.8980462%" y1="89.046%" x2="20.1185051%" y2="4.378%" id="linearGradient-18">
            <stop stop-color="#262B33" offset="27%"></stop>
            <stop stop-color="#74747E" offset="45%"></stop>
            <stop stop-color="#B0B0BC" offset="54%"></stop>
            <stop stop-color="#74747E" offset="73%"></stop>
        </linearGradient>
        <linearGradient x1="-1.75%" y1="55.3095339%" x2="97.917%" y2="48.1285089%" id="linearGradient-19">
            <stop stop-color="#606E84" offset="14%"></stop>
            <stop stop-color="#9899A5" offset="40%"></stop>
            <stop stop-color="#475768" offset="73%"></stop>
            <stop stop-color="#262B33" offset="92%"></stop>
        </linearGradient>
        <linearGradient x1="52.156%" y1="70.9438738%" x2="41.552%" y2="26.801581%" id="linearGradient-20">
            <stop stop-color="#101215" stop-opacity="0.1" offset="0%"></stop>
            <stop stop-color="#101215" stop-opacity="0.7" offset="46%"></stop>
            <stop stop-color="#474951" offset="70%"></stop>
            <stop stop-color="#7B7D88" offset="91%"></stop>
        </linearGradient>
        <linearGradient x1="42.6792869%" y1="42.616%" x2="57.7834712%" y2="54.013%" id="linearGradient-21">
            <stop stop-color="#2C3952" offset="11.5%"></stop>
            <stop stop-color="#3D414E" offset="37.4%"></stop>
            <stop stop-color="#474A54" offset="55%"></stop>
            <stop stop-color="#4E5057" offset="75.4%"></stop>
            <stop stop-color="#323945" offset="89.2%"></stop>
            <stop stop-color="#143052" offset="100%"></stop>
        </linearGradient>
        <linearGradient x1="29.79%" y1="69.6785048%" x2="58.065%" y2="23.299801%" id="linearGradient-22">
            <stop stop-color="#6D7078" stop-opacity="0" offset="11.8%"></stop>
            <stop stop-color="#6D7078" stop-opacity="0.7" offset="20%"></stop>
            <stop stop-color="#35363A" offset="34%"></stop>
            <stop stop-color="#1D1F22" offset="37.4%"></stop>
            <stop stop-color="#101215" offset="40%"></stop>
            <stop stop-color="#16171A" offset="50%"></stop>
            <stop stop-color="#292A2E" offset="56%"></stop>
            <stop stop-color="#4B4D51" offset="68.8%"></stop>
            <stop stop-color="#63666B" offset="80.7%"></stop>
            <stop stop-color="#72757B" offset="91.5%"></stop>
            <stop stop-color="#777A80" offset="100%"></stop>
        </linearGradient>
        <linearGradient x1="-0.164%" y1="50.004%" x2="99.957%" y2="50.004%" id="linearGradient-23">
            <stop stop-color="#4A4D56" offset="0%"></stop>
            <stop stop-color="#29292D" offset="100%"></stop>
        </linearGradient>
        <linearGradient x1="-0.19%" y1="49.584%" x2="99.936%" y2="49.584%" id="linearGradient-24">
            <stop stop-color="#767880" offset="0%"></stop>
            <stop stop-color="#0C0A0B" offset="41%"></stop>
        </linearGradient>
        <linearGradient x1="31.8906228%" y1="89.031%" x2="66.8716289%" y2="8.692%" id="linearGradient-25">
            <stop stop-color="#858997" offset="0%"></stop>
            <stop stop-color="#244668" offset="23%"></stop>
            <stop stop-color="#1A3249" offset="28.2%"></stop>
            <stop stop-color="#040506" offset="40%"></stop>
            <stop stop-color="#313236" offset="46.4%"></stop>
            <stop stop-color="#65656E" offset="54.6%"></stop>
            <stop stop-color="#868691" offset="60.7%"></stop>
            <stop stop-color="#92929E" offset="64%"></stop>
        </linearGradient>
    </defs>
    <g id="Page-1" stroke="none" stroke-width="1" fill="none" fill-rule="evenodd">
        <g id="xcode" transform="translate(0, 0)">
            <rect id="ViewBox" x="0" y="0" width="240" height="240"></rect>
            <g id="shape" transform="translate(3, 1)" fill-rule="nonzero">
                <path d="M45.6342392,17 L163.365761,17 C188.579165,17 209,37.4208345 209,62.6342392 L209,180.365761 C209,205.57825 188.579165,226 163.365761,226 L45.6342392,226 C20.4208345,226 0,205.579165 0,180.365761 L0,62.6342392 C0,37.4208345 20.4208345,17 45.6342392,17" id="Path" fill="url(#linearGradient-1)"></path>
                <path d="M159.849501,28 L49.1504986,28 C28.0955047,28 11,45.0946725 11,66.1506855 L11,176.849315 C11,197.905328 28.0955047,215 49.1504986,215 L159.849501,215 C180.905411,215 198,197.905328 198,176.849315 L198,65.9418564 C198,44.8858435 180.905411,28 159.849501,28 M194.872159,177.266973 C194.894851,186.452015 191.256169,195.2674 184.761375,201.762226 C178.266581,208.257051 169.451239,211.895752 160.266242,211.873165 L48.7337585,211.873165 C29.7624652,211.873165 14.1277376,196.446272 14.1277376,177.266057 L14.1277376,65.5241983 C14.1053938,56.3394732 17.7440587,47.5244643 24.2386277,41.0298635 C30.7331967,34.5352627 39.5481625,30.89658 48.7328426,30.9189238 L160.474154,30.9189238 C179.444531,30.9189238 195.080071,46.3467309 195.080071,65.5260302 L195.080071,177.267889 L194.872159,177.266973 Z" id="Shape" fill="#FFFFFF"></path>
                <path d="M39.5791978,137 L169.427962,137 C174.837489,137 179,141.337154 179,146.5 C179,151.869723 174.629958,156 169.427962,156 L39.5782835,156 C34.1687564,156 30.0071597,151.662846 30.0071597,146.5 C29.7987142,141.337154 34.1687564,137 39.5791978,137" id="Path" fill="#FFFFFF"></path>
                <path d="M38.7174885,139 L169.282512,139 C173.454647,139 177,142.412771 177,146.893146 L177,147.106854 C177,151.373521 173.662658,155 169.282512,155 L38.7174885,155 C34.545353,155 31,151.587229 31,147.106854 L31,146.680375 C31.2089275,142.412771 34.5462693,139 38.7174885,139" id="Path" fill="#0A93E9"></path>
                <polygon id="Path" fill="#1694EA" points="36.0428411 153.8415 172.958075 153.8415 174 153.1585 35 153.1585"></polygon>
                <polygon id="Path" fill="#319DEC" points="32.4171867 150.8415 175.582813 150.8415 176 150.1585 32 150.1585"></polygon>
                <polygon id="Path" fill="#65B1EE" points="32 146.955 177 146.955 177 146.045 32 146.045"></polygon>
                <polygon id="Path" fill="#8EC6F3" points="32.4171893 142.045 175.582811 142.045 175.791864 142.5 176 142.955 32 142.955 32.2081362 142.5"></polygon>
                <polygon id="Path" fill="#95CAF3" points="36.2488013 139.1585 172.751199 139.1585 173.375599 139.3865 174 139.8415 35 139.8415 35.6244007 139.3865"></polygon>
                <path d="M99.9116327,58.8548852 L164.699839,171.546192 C167.399386,176.136912 165.738056,181.980063 161.169171,184.69397 C156.601199,187.406043 150.787002,185.73644 148.086543,181.145721 L83.300161,68.4544132 C80.6006144,63.8627765 82.261944,58.0205422 86.8308286,55.3066355 C91.3988008,52.5936457 97.2129984,54.2632484 99.912545,58.8548852" id="Path" fill="#FFFFFF"></path>
                <path d="M98.5937665,59.9366195 L163.985905,173.316218 C166.075935,176.872973 164.821183,181.684242 161.270794,183.775099 L160.852237,183.984645 C157.300013,186.07734 152.49579,184.820987 150.406678,181.265152 L85.0136215,67.6769265 C82.9245096,64.1201718 84.1783439,59.3089028 87.7305684,57.2171266 L87.9389288,57.0075814 C91.6995137,54.9158052 96.5046546,56.1712385 98.5937665,59.9366195" id="Path" fill="url(#linearGradient-2)"></path>
                <polygon id="Path" fill="url(#linearGradient-3)" points="84 64.2554443 151.761082 183.371818 152.174055 183.581519 152.587027 183.790299 153 184 84 63"></polygon>
                <polygon id="Path" fill="url(#linearGradient-4)" points="85 60.6232669 156.170433 184 157 184 85.4147833 60 85.2078475 60.4152071"></polygon>
                <polygon id="Path" fill="url(#linearGradient-5)" points="88 57.4191662 160.379454 184 161 183.581753 88.6205459 57"></polygon>
                <polygon id="Path" fill="url(#linearGradient-6)" points="93.0374141 56.2093864 164 180.163373 163.792153 180.582146 163.585217 181 92 56 92.4147833 56"></polygon>
                <polygon id="Path" fill="url(#linearGradient-7)" points="97.239809 57.624072 165 175.75277 165 177 96 57 96.4138747 57.2074149 96.8268419 57.4157434"></polygon>
                <path d="M86.8679442,137.068175 C104.934162,105.766496 125.699868,69.4550816 125.699868,69.4550816 C128.399355,64.8634352 126.738062,59.0211886 122.169278,56.3072762 C117.600495,53.5933638 111.787338,55.26297 109.086939,59.8546164 C109.086939,59.8546164 83.7542744,104.095973 64.6507744,137.069092 L86.8679442,137.068175 Z M75.6558136,156.267272 C66.9342539,171.293728 60.9121811,182.14571 60.9121811,182.14571 C58.2126941,186.73644 52.3986251,188.406046 47.8298415,185.693967 C43.2619702,182.980055 41.6006773,177.136891 44.3001643,172.546162 C44.3001643,172.546162 47.8307538,166.076782 53.4368191,156.477233 C60.4970859,156.268189 73.3705095,156.268189 75.6549013,156.268189" id="Shape" fill="#FFFFFF"></path>
                <path d="M84.6900819,137.137184 C102.895318,105.487148 123.996305,68.6307189 123.996305,68.6307189 C126.064958,65.0902622 124.823403,60.3010397 121.305966,58.2188486 L121.099646,58.0102636 C117.582209,55.9280725 112.825034,57.1777531 110.756381,60.7182098 C110.756381,60.7182098 85.9307283,104.028882 66.8983943,137.138099 L84.6900819,137.137184 Z M73.7251307,156.294074 C65.4505191,170.871241 59.4508803,181.282197 59.4508803,181.282197 C57.3822274,184.822653 52.8313727,186.071419 49.1076157,183.990143 L48.693158,183.990143 C45.1766298,181.907037 43.9350745,177.3264 46.0037274,173.578273 C46.0037274,173.578273 49.9347133,166.705944 55.9343521,156.294989 L73.7251307,156.294074 Z" id="Shape" fill="url(#linearGradient-8)"></path>
                <path d="M83.4177049,136.789821 L125,65.2472303 L125,64 C125,64 102.014295,103.722229 82.7906885,136.789821 L83.4177049,136.789821 Z M72.1341639,155.923156 L56.2531148,183.376842 L55.6270164,183.792585 L55,184 C55,184 62.1046557,171.72963 71.2978361,155.92407 L72.1341639,155.923156 Z" id="Shape" fill="url(#linearGradient-9)"></path>
                <path d="M80.4273379,137.227107 L124,61.8313328 L123.792155,61.4161227 L123.585222,61 C123.585222,61 99.724089,102.333029 79.804715,137.019958 L80.4273379,137.227107 Z M69.4288825,156.335899 L52.8295561,185 L52,185 C52,185 59.0548733,172.745369 68.5993264,156.12875 C69.0141045,156.336812 69.4288825,156.336812 69.4288825,156.336812" id="Shape" fill="url(#linearGradient-10)"></path>
                <path d="M75.7895657,136.504954 C96.3210434,100.729012 121,57.4191632 121,57.4191632 L120.377696,57 L74.752696,136.505874 L75.7895657,136.504954 Z M64.5917374,155.963868 C55.4658263,172.074073 48.622304,184 48.622304,184 L48,183.580837 C48,183.580837 54.636695,171.864491 63.761695,155.963868 C64.1762606,155.754287 63.9685222,155.754287 64.5908263,155.963868" id="Shape" fill="url(#linearGradient-11)"></path>
                <path d="M70.9368464,136.966148 C91.4779317,101.449972 117,57 117,57 L116.169532,57 C116.169532,57 90.6483756,101.241912 70.1063787,136.966148 L70.9368464,136.966148 Z M58.9019017,156.074799 C50.6026943,170.4072 45,180.169586 45,180.169586 L45.2078448,180.584793 L45.4147781,181 C45.4147781,181 51.4322504,170.61526 59.9393026,156.075712 L58.9019017,156.074799 Z" id="Shape" fill="url(#linearGradient-12)"></path>
                <path d="M68.4142094,137.236749 L114,58 L113.585791,58.2083254 L113.170671,58.4166508 L112.964021,58.6249762 C112.964021,58.6249762 87.6845043,102.506712 67.7924401,137.236749 L68.4142094,137.236749 Z M57.4326539,156.369793 C53.3074266,163.590841 49.1631942,170.800936 45,178 L45,176.337052 C45,176.337052 49.5590342,168.433478 56.6042351,156.163295 C57.0184445,156.37162 57.0184445,156.37162 57.4326539,156.37162" id="Shape" fill="url(#linearGradient-13)"></path>
                <path d="M114.155142,226 L203,38.6293484 L180.581306,28 L88,222.873829 C88,222.873829 90.9065323,224.333441 94.6429812,226 L114.155142,226 Z" id="Path" fill="url(#linearGradient-14)"></path>
                <path d="M166.568426,17 L208,36.8953385 L208,97 C193.706189,90.0891233 98,44.0159983 98,44.0159983 C98,44.0159983 104.628579,29.9844618 110.843952,17 L166.568426,17 Z" id="Path" fill="url(#radialGradient-15)"></path>
                <path d="M63.485048,217.947527 C62.8599861,219.174233 61.8185214,220.604792 62.0271804,222.853455 C62.2349243,231.233853 76.1912834,239 84.3152571,239 C89.9398986,239 91.814169,236.752236 93.8970984,232.664412 C95.9800278,228.576588 65.7766364,213.042497 63.485048,217.947527" id="Path" fill="url(#radialGradient-16)"></path>
                <path d="M159.519118,41 C159.519118,41 180.960359,46.2020875 182.624881,47.6584892 C184.290318,49.1158051 179.919575,57.4391452 179.0864,58.6880119 C172.217045,67.0113519 150.775804,113 150.775804,113 L131,101.763857 C131,101.763857 148.694237,68.884652 154.938939,57.230696 C158.894465,49.3233401 159.519118,41 159.519118,41" id="Path" fill="url(#linearGradient-17)"></path>
                <path d="M209.657885,29.2645603 C213.345855,31.9991982 218.263449,31.3679857 222.155756,30.7367732 C224.82024,30.316273 220.721795,34.3133358 216.214676,43.5689621 C211.706657,52.8236643 211.911895,53.4548767 211.297083,52.8236643 C210.682271,52.1924518 190.398886,40.4128998 191.013697,39.3611871 C191.832846,38.3094744 195.111242,15.3815829 196.75044,16.0127953 C202.691519,17.4850083 203.715905,24.8479214 209.658785,29.2645603" id="Path" fill="url(#linearGradient-18)"></path>
                <path d="M177.358822,55.4222354 C178.816254,53.135306 185.480365,39 196.100493,39 C200.889981,39 210.052677,51.0566114 210.885233,52.7197497 C211.510108,54.1755666 209.427802,59.9960942 208.387564,57.2936085 C207.136899,54.1755666 201.931134,47.5230132 196.30909,47.5230132 C190.686131,47.5230132 182.980866,53.9673318 181.107156,56.2542612 C179.232532,58.3329558 175.901391,57.7091648 177.358822,55.4231487" id="Path" fill="url(#linearGradient-19)"></path>
                <path d="M176.912286,54.2346624 C177.953187,52.5866523 182.741518,45.3764948 185.031867,43.1112727 C187.321302,40.8451456 193.150534,34.871222 198.148325,34.0476694 C203.144287,33.2241168 208.348795,43.3167083 206.68317,45.3764948 C205.434637,46.8190693 203.351919,45.1710591 200.853938,43.1112727 C198.355957,41.2569219 196.690331,37.5491253 188.779296,43.523049 C186.071854,45.5828354 183.366242,47.2308456 177.119917,56.0881082 C175.455206,58.3542353 175.871384,55.8826726 176.912286,54.2346624" id="Path" fill="url(#linearGradient-20)"></path>
                <path d="M151.027962,115.750198 C151.858731,114.082849 152.89765,111.579993 150.612577,109.703767 C148.118443,107.826625 136.482191,101.571317 134.404354,101.153564 C132.326517,100.735811 130.664065,101.153564 129.833296,102.613869 C129.002526,104.073257 65.2094662,213.754596 63.9623989,216.88225 C62.7153316,220.009904 62.5080957,222.304799 64.3777837,222.929597 C66.2474717,223.554395 87.6511995,233.772863 89.7290364,236.066842 C91.8068732,238.360821 92.8457916,235.857965 93.6765612,234.607453 C97.6249989,229.602658 149.989043,117.418463 151.027962,115.750198" id="Path" fill="url(#linearGradient-21)"></path>
                <path d="M178.069998,54.5770987 C179.110724,53.1126939 181.609198,48.9307801 184.731376,45.1668739 C186.812827,42.6579094 198.053215,37.2201353 200.550774,28.4383 C202.007608,23.6289154 199.718559,18.8195308 196.595467,16.7285739 C185.979698,10.24624 167.661825,0 140.809635,0 C122.701188,0 115,6.06340753 115,6.06340753 L124.158936,6.06340753 L156.006245,18.6100676 L159.961552,35.3395602 C159.961552,35.3395602 160.377659,40.9849601 158.504718,47.4663753 C157.255481,52.6946862 156.839374,55.8311216 154.965519,61.0585138 C156.422352,61.6859847 159.753041,59.3864833 163.499837,60.4319617 C166.830525,61.267977 168.911977,65.8688172 171.201939,63.1503894 C175.156332,57.9229972 176.405569,56.8766 178.070913,54.5770987" id="Path" fill="url(#linearGradient-22)"></path>
                <path d="M159.877408,40.6743347 C158.200574,25.4022221 154.424935,10.9570013 115,11.1628176 C117.517093,8.68667541 123.597918,6.21053318 123.597918,6.21053318 L115,5.59036428 C115,5.59036428 116.258546,4.5585628 118.774718,4.35183983 C141.842234,2.49495983 162.393579,7.24142799 160.925889,36.7520384 C160.715824,41.4985066 160.296616,43.5621095 159.877408,40.6734281" id="Path" fill="url(#linearGradient-23)"></path>
                <path d="M115,11.1637168 C117.674121,10.0903002 121.374527,9.44700491 128.36609,9.87618288 C137.002779,10.3053608 147.900727,13.7406711 152.424147,18.0343373 C154.686309,20.1811704 154.481233,18.4635153 152.013092,15.6724436 C145.639468,7.94346714 135.974687,6.22581201 123.43071,6.01169465 C121.991562,5.79663404 117.262162,8.58676247 115,11.1637168" id="Path" fill="url(#linearGradient-24)"></path>
                <path d="M222.636941,31.0009119 L234,36.8112462 C234,36.8112462 229.661014,42.6234043 226.148978,49.2644377 C222.429977,56.3212766 219.950946,64 219.950946,64 L209,57.3589666 C209,57.3589666 211.686903,49.887234 215.61196,42.6234043 C218.710976,36.6042553 222.636941,31 222.636941,31" id="Path" fill="url(#linearGradient-25)"></path>
                <path d="M233.853958,37.0207305 C234.659941,37.4330139 232.040052,43.8125566 228.209418,51.2209996 C224.379669,58.6294425 220.750973,64.3914643 220.146042,63.9791809 C219.340059,63.5678017 221.959948,57.1891631 225.790582,49.779816 C229.419278,42.3713731 233.047974,36.6093513 233.853958,37.0207305" id="Path" fill="#BFC0D0"></path>
            </g>
        </g>
    </g>
</svg>