<svg width="240" height="240" viewBox="0 0 240 240" fill="none" xmlns="http://www.w3.org/2000/svg">
<rect width="239.954" height="239.984" rx="51" fill="url(#paint0_linear_2_64)"/>
<path opacity="0.999" d="M197.945 25.981C211.079 24.5384 220.35 24.2656 233.456 25.9976C240.955 39.4967 239.58 47.6278 239.955 50.9966C240.148 104.64 239.669 143.544 239.475 197.188C236.71 215.677 226.821 228.751 209.81 236.408C205.702 238.002 201.457 239.063 197.077 239.591C194.963 239.985 185.351 240.032 179.466 239.984C179.169 238.122 178.693 236.041 178.121 234.237C174.828 222.286 168.508 212.3 159.164 204.279C152.204 199.158 144.584 195.251 136.302 192.557C136.061 198.15 135.915 203.746 135.867 209.344C135.721 210.702 135.528 212.053 135.288 213.397C135.011 215.065 134.191 216.367 132.828 217.304C130.786 217.532 128.76 217.436 126.751 217.015C110.912 212.536 97.0686 204.672 85.2206 193.425C81.6745 189.808 79.1667 185.561 77.6962 180.689C76.9553 174.627 76.3766 168.549 75.9598 162.455C75.5118 148.824 74.6919 135.22 73.4999 121.643C67.0309 121.788 60.7603 120.774 54.6884 118.604C48.1062 115.521 45.2599 110.359 46.1503 103.119C46.7256 100.138 47.5937 97.2432 48.7548 94.4351C51.9654 87.7177 55.9692 81.5429 60.7655 75.9107C62.4351 81.335 63.8819 86.8344 65.1063 92.4087H73.4999C73.6119 86.9458 74.2387 81.5425 75.3807 76.1997C75.7581 73.7496 76.964 71.8685 78.9979 70.5562C80.9095 69.359 82.9359 68.3942 85.0761 67.6616C90.8163 65.7415 96.7006 64.4874 102.729 63.899C108.329 63.6162 113.924 63.2781 119.516 62.8853C123.797 57.7093 128.813 53.4161 134.564 50.0054C154.282 38.3639 175.409 30.3554 197.945 25.981ZM141.366 139.299C139.078 132.628 134.398 129.733 127.329 130.616C120.708 133.051 117.958 137.778 119.081 144.798C121.359 151.366 125.942 154.115 132.828 153.047C139.456 150.841 142.302 146.258 141.366 139.299ZM165.242 67.2271C164.55 67.8742 164.019 68.6461 163.65 69.5425C163.402 71.3639 163.691 73.1006 164.518 74.7525C166.923 79.5164 169.865 83.9066 173.346 87.9224C166.4 88.0671 159.454 88.1153 152.508 88.0669C152.46 88.8445 152.508 89.6166 152.652 90.3824C154.728 95.5963 157.333 100.517 160.467 105.144C165.323 110.209 171.256 113.249 178.266 114.262C186.164 115.122 194.074 115.218 201.997 114.551C205.068 114.373 208.058 113.794 210.969 112.815C214.867 109.61 216.362 105.509 215.454 100.513C213.551 95.7027 210.609 91.602 206.628 88.2115C196.767 80.2379 185.866 73.9668 173.925 69.398C171.138 68.2275 168.243 67.5038 165.242 67.2271Z" fill="white"/>
<defs>
<linearGradient id="paint0_linear_2_64" x1="-0.142495" y1="-0.141153" x2="237.816" y2="242.346" gradientUnits="userSpaceOnUse">
<stop offset="0.0640972" stop-color="#4CC48C"/>
<stop offset="0.289829" stop-color="#418895"/>
<stop offset="0.498535" stop-color="#3D539F"/>
<stop offset="0.707242" stop-color="#6446AC"/>
<stop offset="0.929493" stop-color="#BA1AB7"/>
</linearGradient>
</defs>
</svg>
