<?xml version="1.0" encoding="UTF-8"?>
<svg width="120px" height="120px" viewBox="0 0 120 120" version="1.1" xmlns="http://www.w3.org/2000/svg" xmlns:xlink="http://www.w3.org/1999/xlink">
    <title>yandexcloud</title>
    <defs>
        <linearGradient x1="24.81196%" y1="100%" x2="80.6654784%" y2="5.60479829%" id="linearGradient-1">
            <stop stop-color="#D2DFFF" offset="0%"></stop>
            <stop stop-color="#4E7FFF" offset="100%"></stop>
        </linearGradient>
        <linearGradient x1="74.7138141%" y1="-2.37801667e-06%" x2="18.5220701%" y2="91.6058333%" id="linearGradient-2">
            <stop stop-color="#D2DFFF" offset="0%"></stop>
            <stop stop-color="#4E7FFF" offset="100%"></stop>
        </linearGradient>
    </defs>
    <g id="Page-1" stroke="none" stroke-width="1" fill="none" fill-rule="evenodd">
        <g id="yandexcloud" transform="translate(-0.0002, 0)" fill-rule="nonzero">
            <path d="M60.0000112,120.000002 C45.0901112,119.64 39.1879112,109.673 37.3863112,100.047 C36.4084112,94.8144 36.8373112,86.1138 37.3863112,83.0083 C38.2785112,77.9468 39.7198112,70.672 41.3154112,62.2305 C43.5974112,50.1344 49.6540112,43.2542 62.7281112,40.8007 L84.1134112,36.7167 C84.6796112,33.5425 85.7535112,25.1358 84.7755112,19.9542 C82.9568112,10.2259 75.4590112,0.154419 60.2402112,2.17953e-06 C27.0918112,2.17953e-06 0,26.8516 0,60.0000022 C0,93.1484 26.8516112,120.000002 60.0000112,120.000002 Z" id="Path" fill="url(#linearGradient-1)"></path>
            <path d="M60.0000112,0 C74.9099112,0.360309 82.2876112,10.346 84.0892112,19.9714 C85.0672112,25.2045 83.1627112,33.8862 82.6136112,36.9917 C81.7214112,42.0532 80.2802112,49.328 78.6845112,57.7695 C76.4026112,69.8656 70.3460112,76.7458 57.2719112,79.1993 L37.3711112,83.1066 C36.8049112,86.2807 34.9347112,94.8595 35.9127112,100.041 C37.7314112,109.769 44.5410112,119.846 59.7598112,120 C92.9082112,120 120.000211,93.1484 120.000211,60 C120.000211,26.8516 93.1484112,0 60.0000112,0 Z" id="Path" fill="url(#linearGradient-2)"></path>
        </g>
    </g>
</svg>