<?xml version="1.0" encoding="UTF-8"?>
<svg width="240px" height="241px" viewBox="0 0 240 241" version="1.1" xmlns="http://www.w3.org/2000/svg" xmlns:xlink="http://www.w3.org/1999/xlink">
    <title>yara</title>
    <g id="Page-1" stroke="none" stroke-width="1" fill="none" fill-rule="evenodd">
        <g id="yara" transform="translate(102, 137.2964)">
            <rect id="box" fill="#C61817" x="-102" y="-137" width="240" height="240" rx="32"></rect>
            <path d="M21.3629572,5.42767073 C28.1250864,11.6770184 32.9338289,13.8813877 44.0818477,13.8709198 L70.214037,13.8709198 C70.214037,13.8709198 70.5161585,19.0426533 69.3296504,21.1615346 C67.6212428,24.212933 64.5651565,26.3629273 60.6534013,26.3629273 L14.44376,26.3629273 L14.44376,44.7035937 L58.900159,44.7035937 C68.1015309,44.5826311 74.4082802,43.7373467 82.109594,38.260008 C86.5244943,35.1202139 92.6519047,34.1940938 93.0000331,17.6658312 L93.0000331,-69.2964063 L70.214037,-69.2964063 L70.214037,-4.4700375 L49.3398164,-4.4700375 C40.5214443,-4.4700375 36.114456,-8.63336152 36.114456,-16.9617542 L36.114456,-69.2964063 L13.0096353,-69.2964063 L13.0096353,-15.2214627 C12.8179889,-6.70319356 15.4913684,0.00092703232 21.3629572,5.42767073 M-7.47777261,-64.1644588 C-20.8278004,-65.3129605 -20.9892715,-60.3732371 -19.3924048,-49.5557501 C-17.2988391,-38.4391862 -11.7196052,-30.127415 -13.268206,-25.5494405 C-13.9608934,-23.3553358 -18.108827,-22.6292146 -22.8716377,-21.1393688 C-29.1096267,-19.1877904 -35.4391745,-17.5973778 -35.1691786,-17.0986249 C-28.952836,-14.8255243 -21.2180221,-12.4512739 -19.1259191,-11.5496709 C-15.2377432,-9.93069157 -16.2162226,-6.08845776 -18.0301391,-3.3352601 C-22.2359917,3.4100013 -25.8790358,7.65129574 -28.9581014,12.328088 C-30.4245041,14.555132 -31.0136394,16.5524756 -32.9729384,19.623406 C-34.5382129,22.1474863 -34.3161902,24.6593237 -33.0033605,26.7779304 C-31.3792894,29.399371 -30.327095,29.4451362 -22.349782,29.1102051 C-21.1036468,29.0239217 -18.9624004,30.6635974 -20.8842568,34.1356289 C-24.4989265,40.9957405 -23.1931172,44.535108 -25.1562189,44.7035937 L-44.513145,44.7035937 C-49.9803438,44.5336505 -54.9803882,38.3547695 -56.3619602,33.3783174 C-58.8764621,24.3197286 -53.7035384,12.2966063 -45.3234254,2.8544063 C-41.8307366,-1.71365728 -38.6896568,-4.84405323 -40.0718138,-5.63284654 C-50.9146527,-10.5507076 -52.2219246,-9.07456224 -52.0095551,-13.335387 C-51.804206,-16.11103 -51.3651335,-18.9263168 -50.7069635,-21.7789152 C-49.3534734,-25.6500073 -47.5711491,-24.5402748 -42.7249702,-26.5769706 C-37.4242153,-28.7381361 -35.0545107,-28.0924682 -35.6825512,-30.892597 C-39.0286875,-42.2464402 -43.263207,-53.867587 -41.5042842,-63.1515036 C-40.2405978,-69.82185 -35.5766589,-75.8491521 -26.4617357,-79.2964063 L-3.53577307,-79.2964063 C-2.66874378,-79.1354994 -3.11220411,-76.2129415 -3.12185727,-73.0531042 C-3.40443159,-67.2942717 -1.3687849,-63.5960379 -7.47777261,-64.1644588" id="Shape" fill="#FFFFFF" fill-rule="nonzero"></path>
        </g>
    </g>
</svg>