<?xml version="1.0" encoding="UTF-8"?>
<svg width="240px" height="240px" viewBox="0 0 240 240" version="1.1" xmlns="http://www.w3.org/2000/svg" xmlns:xlink="http://www.w3.org/1999/xlink">
    <title>yarn</title>
    <g id="Page-1" stroke="none" stroke-width="1" fill="none" fill-rule="evenodd">
        <g id="yarn">
            <rect id="ViewBox" x="0" y="0" width="240" height="240"></rect>
            <path d="M128.784375,41.1525 C130.264856,41.3200788 131.684733,41.8353466 132.928125,42.65625 C134.18625,43.48875 135.793125,44.59125 140.476875,54.27 C142.250972,53.6344371 144.178924,53.5669391 145.993125,54.076875 C147.995993,54.6217282 149.676183,55.9860312 150.620625,57.834375 C155.401875,67.00875 156.0375,83.360625 153.946875,93.871875 C152.091725,103.17725 148.235111,111.967873 142.644375,119.634375 C147.643841,124.837868 151.454644,131.064248 153.81375,137.88375 C156.118931,144.336121 157.048847,151.199358 156.54375,158.0325 C158.62339,157.034847 160.639696,155.910224 162.58125,154.665 C168.5025,151.006875 177.444375,145.48875 188.109375,145.35375 C194.821358,144.905779 200.737053,149.724307 201.65625,156.388125 C202.493607,162.687032 198.391504,168.585736 192.195,169.993125 C185.71125,171.560625 182.690625,172.779375 173.98125,178.430625 C164.578384,184.332443 154.456956,189.003096 143.865,192.328125 C141.817709,194.007656 139.403892,195.181806 136.81875,195.755625 C129.444375,197.555625 104.146875,198.909375 102.15375,198.909375 L101.68875,198.909375 C93.945,198.909375 89.5575,196.509375 87.195,193.995 C80.61375,197.285625 72.0975,195.92625 65.904375,192.65625 C62.8992122,191.183004 60.7522692,188.393434 60.0975,185.11125 C59.8677668,183.7918 59.8677668,182.442575 60.0975,181.123125 C59.5278836,180.527588 59.0156217,179.879727 58.5675,179.188125 C55.0497485,173.33755 53.515487,166.507357 54.193125,159.714375 C54.755625,152.495625 59.750625,146.05125 63.001875,142.625625 C62.7318613,134.888014 64.0892607,127.179902 66.98625,120 C70.1009856,113.323233 74.6005925,107.385542 80.18625,102.58125 C76.993125,97.2 73.74375,88.91625 76.8975,80.476875 C79.1625,74.458125 81.020625,71.109375 85.104375,69.676875 C86.8861213,69.1603048 88.5402349,68.2770465 89.960625,67.08375 C95.9170475,60.6131909 104.139435,56.6890375 112.91625,56.128125 C113.28375,55.2 113.709375,54.19125 114.174375,53.300625 C117.271875,46.719375 120.560625,43.025625 124.411875,41.68875 C125.806777,41.1680344 127.304982,40.9842924 128.784375,41.1525" id="Path" fill="#FFFFFF"></path>
            <path d="M120,0 C53.72583,0 0,53.72583 0,120 C0,186.27417 53.72583,240 120,240 C186.27417,240 240,186.27417 240,120 C240,88.1740212 227.357179,57.6515517 204.852814,35.1471863 C182.348448,12.6428208 151.825979,0 120,0 M128.784375,41.1525 C130.264856,41.3200788 131.684733,41.8353466 132.928125,42.65625 C134.18625,43.48875 135.793125,44.59125 140.476875,54.27 C142.250972,53.6344371 144.178924,53.5669391 145.993125,54.076875 C147.995993,54.6217282 149.676183,55.9860312 150.620625,57.834375 C155.401875,67.00875 156.0375,83.360625 153.946875,93.871875 C152.091725,103.17725 148.235111,111.967873 142.644375,119.634375 C147.643841,124.837868 151.454644,131.064248 153.81375,137.88375 C156.118931,144.336121 157.048847,151.199358 156.54375,158.0325 C158.62339,157.034847 160.639696,155.910224 162.58125,154.665 C168.5025,151.006875 177.444375,145.48875 188.109375,145.35375 C194.821358,144.905779 200.737053,149.724307 201.65625,156.388125 C202.493607,162.687032 198.391504,168.585736 192.195,169.993125 C185.71125,171.560625 182.690625,172.779375 173.98125,178.430625 C164.578384,184.332443 154.456956,189.003096 143.865,192.328125 C141.817709,194.007656 139.403892,195.181806 136.81875,195.755625 C129.444375,197.555625 104.146875,198.909375 102.15375,198.909375 L101.68875,198.909375 C93.945,198.909375 89.5575,196.509375 87.195,193.995 C80.61375,197.285625 72.0975,195.92625 65.904375,192.65625 C62.8992122,191.183004 60.7522692,188.393434 60.0975,185.11125 C59.8677668,183.7918 59.8677668,182.442575 60.0975,181.123125 C59.5278836,180.527588 59.0156217,179.879727 58.5675,179.188125 C55.0497485,173.33755 53.515487,166.507357 54.193125,159.714375 C54.755625,152.495625 59.750625,146.05125 63.001875,142.625625 C62.7318613,134.888014 64.0892607,127.179902 66.98625,120 C70.1009856,113.323233 74.6005925,107.385542 80.18625,102.58125 C76.993125,97.2 73.74375,88.91625 76.8975,80.476875 C79.1625,74.458125 81.020625,71.109375 85.104375,69.676875 C86.8861213,69.1603048 88.5402349,68.2770465 89.960625,67.08375 C95.9170475,60.6131909 104.139435,56.6890375 112.91625,56.128125 C113.28375,55.2 113.709375,54.19125 114.174375,53.300625 C117.271875,46.719375 120.560625,43.025625 124.411875,41.68875 C125.806777,41.1680344 127.304982,40.9842924 128.784375,41.1525 M127.738125,48.0835152 C122.67,48.25125 117.6975,63.27 117.6975,63.27 C109.19107,62.4352344 100.7895,65.6633996 95.030625,71.979375 C92.9262614,74.0083743 90.3745522,75.51448 87.58125,76.37625 C86.78625,76.64625 85.81875,76.605 83.41875,83.08875 C79.741875,92.9025 89.690625,104.01375 89.690625,104.01375 C89.690625,104.01375 77.825625,112.395 73.430625,122.8275 C70.4978146,129.980475 69.3361245,137.736011 70.044375,145.434375 C70.044375,145.434375 61.606875,152.74875 61.066875,160.2975 C60.5650374,165.585073 61.7645292,170.894762 64.490625,175.453125 C64.9207751,176.371748 65.7042183,177.077313 66.6627022,177.409286 C67.6211861,177.741259 68.6731964,177.671408 69.579375,177.215625 C69.579375,177.215625 63.9675,183.75375 69.211875,186.52125 C73.993125,189.016875 82.044375,190.393125 86.3025,186.15375 C89.4,183.058125 90.01875,176.150625 91.160625,173.325 C91.430625,172.666875 92.360625,174.4275 93.25125,175.26 C94.0719215,175.978114 94.9519418,176.625427 95.881875,177.195 C95.881875,177.195 88.336875,180.44625 91.4325,187.86 C92.458125,190.31625 96.11625,191.881875 102.0975,191.845034 C104.323125,191.845034 128.728125,190.45125 135.230625,188.881875 C137.197315,188.571534 138.989291,187.571191 140.285625,186.06 C150.845827,182.919631 160.931452,178.361862 170.266875,172.51125 C179.439375,166.53 183.195,164.900625 190.606875,163.14 C196.723125,161.68875 196.31625,152.20875 188.206875,152.34375 C179.806875,152.44125 172.453125,156.774375 166.239375,160.644375 C154.6275,167.825625 148.820625,167.3625 148.820625,167.3625 L148.62375,167.034375 C147.830625,165.736875 152.341875,154.104375 147.28875,140.24625 C141.8325,125.0925 133.1625,121.434375 133.858125,120.271875 C136.820625,115.26 144.234375,107.3025 147.195,92.476875 C148.9575,83.495625 148.490625,68.709375 144.504375,60.9675 C143.7675,59.535 137.188125,63.3675 137.188125,63.3675 C137.188125,63.3675 131.0325,49.644375 129.31125,48.541875 C128.846914,48.2301264 128.297227,48.0702651 127.738125,48.0835152" id="Shape" fill="#2C8EBB" fill-rule="nonzero"></path>
        </g>
    </g>
</svg>