<?xml version="1.0" encoding="UTF-8"?>
<svg width="240px" height="240px" viewBox="0 0 240 240" version="1.1" xmlns="http://www.w3.org/2000/svg" xmlns:xlink="http://www.w3.org/1999/xlink">
    <title>yeswehack</title>
    <g id="Page-1" stroke="none" stroke-width="1" fill="none" fill-rule="evenodd">
        <g id="yeswehack">
            <rect id="box" fill="#000000" x="0" y="0" width="240" height="240" rx="32"></rect>
            <g id="shape" transform="translate(63, 45)" fill="#FFFFFF">
                <path d="M46.0681434,62.971187 L0.909989819,24.3428058 C0.341244819,23.8856874 0,23.0856677 0,22.2856792 L0,2.74285427 C0,1.25714128 1.25123682,0 2.72996759,0 L20.2472575,0 C21.8397497,0 22.9772397,1.25714128 22.9772397,2.74285427 L22.9772397,12.9142516 L57.5567862,42.3999209 L92.0227145,12.9142516 L92.0227145,2.74285427 C92.0227145,1.25714128 93.2738849,0 94.7525409,0 L112.383605,0 C113.862572,0 115,1.25714128 115,2.74285427 L115,22.2856792 C115,23.0856677 114.772514,23.8856874 114.090058,24.3428058 L69.0454289,62.971187 L69.0454289,73.2569767 C69.0454289,74.7426114 67.7942585,76 66.3156025,76 L48.6845387,76 C47.2055711,76 46.0681434,74.7426114 46.0681434,73.2569767 L46.0681434,62.971187 Z" id="Path"></path>
                <path d="M22.9772397,120.116207 L46.0681434,100.572518 L46.0681434,90.3460345 C46.0681434,88.8689657 47.2055711,87.6191384 48.6845387,87.6191384 L66.3156025,87.6191384 C67.7942585,87.6191384 69.0454289,88.8689657 69.0454289,90.3460345 L69.0454289,100.572518 L92.0227145,120.116207 L92.0227145,62.7349661 C92.0227145,61.8260007 92.3639428,61.1439654 93.0463994,60.6894827 L110.56372,45.6909315 C111.35992,45.0092074 112.497347,44.7819661 113.521344,45.2364488 C114.431286,45.6909315 115,46.7135175 115,47.7361036 L115,147.273104 C115,148.750173 113.862572,150 112.383605,150 L92.5914283,150 C91.9089717,150 91.3402579,149.772759 90.8852868,149.318276 L57.5567862,121.025172 L24.2284725,149.318276 C23.6597275,149.772759 23.0909825,150 22.4084947,150 L2.72996759,150 C1.25123682,150 0,148.750173 0,147.273104 L0,47.7361036 C0,46.7135175 0.568742819,45.6909315 1.5924807,45.2364488 C2.6162217,44.7819661 3.63997205,45.0092074 4.43620259,45.6909315 L22.0672353,60.575862 C22.6359803,61.1439654 22.9772397,61.8260007 22.9772397,62.7349661 L22.9772397,120.116207 Z" id="Path"></path>
            </g>
        </g>
    </g>
</svg>