<?xml version="1.0" encoding="UTF-8"?>
<svg width="240px" height="240px" viewBox="0 0 240 240" version="1.1" xmlns="http://www.w3.org/2000/svg" xmlns:xlink="http://www.w3.org/1999/xlink">
    <title>zaproxy</title>
    <defs>
        <radialGradient cx="50%" cy="50%" fx="50%" fy="50%" r="50%" id="radialGradient-1">
            <stop stop-color="#4386FF" offset="0%"></stop>
            <stop stop-color="#00549B" offset="100%"></stop>
        </radialGradient>
    </defs>
    <g id="Page-1" stroke="none" stroke-width="1" fill="none" fill-rule="evenodd">
        <g id="zaproxy" transform="translate(-0.0004, 0)" fill-rule="nonzero">
            <circle id="Oval" fill="url(#radialGradient-1)" cx="127.500354" cy="127.5" r="112.5"></circle>
            <path d="M8.97133673,46.7326299 L98.5418293,8.11616689 C99.1972232,7.84325902 99.9618493,8.06158531 100.37147,8.66198262 L148.815999,77.4893463 C149.444085,78.3626515 149.034464,79.6453184 148.024065,79.9728079 L135.052728,84.175589 C134.015021,84.5030785 133.632708,85.840327 134.31541,86.7136322 L172.574026,134.85458 C173.311344,135.782466 172.847107,137.147006 171.754784,137.419914 L155.178781,141.486241 C154.05915,141.759149 153.622221,143.150979 154.332231,144.051575 L210.641485,215.3624 C211.7065,216.726939 210.204556,218.637294 208.702612,217.79128 L81.9658266,144.679263 C80.8188873,144.024284 80.9281197,142.277674 82.1569831,141.786439 L97.4221982,135.755176 C98.5691374,135.291232 98.7602939,133.681076 97.7498951,132.944225 L46.301478,95.8287549 C45.2910792,95.1191944 45.4549276,93.5363288 46.5745588,93.0450946 L58.3170319,87.887136 C59.436663,87.3959018 59.6005115,85.8130362 58.5901127,85.1034758 L8.67094788,49.5162901 C7.66054903,48.8067296 7.8243975,47.1965732 8.94402865,46.7053391 L8.97133673,46.7326299 Z" id="Path" fill="#FFFFFF"></path>
            <path d="M99.6023479,8.51352326 C100.0938,8.51352326 100.55795,8.75910566 100.830979,9.16840966 L149.266347,77.986056 C149.894314,78.8592379 149.484771,80.1417238 148.474563,80.469167 L135.505679,84.6713547 C134.468168,84.9987979 134.085928,86.3358577 134.7685,87.2090395 L173.019882,135.34319 C173.757061,136.270946 173.292911,137.635293 172.200795,137.908162 L155.627926,141.973915 C154.508507,142.246784 154.07166,143.638418 154.781536,144.538887 L211.080143,215.839644 C211.98114,216.958408 211.080143,218.45919 209.906118,218.45919 C209.660392,218.45919 209.414666,218.404616 209.141637,218.240894 L82.4288153,145.139199 C81.2820929,144.484313 81.3913046,142.737949 82.6199357,142.246784 L97.8822643,136.216372 C99.0289867,135.752494 99.2201071,134.142565 98.2098993,133.405818 L46.7712104,96.2955884 C45.7610026,95.5861281 45.92482,94.003486 47.0442395,93.5123212 L58.7844923,88.3550908 C59.9039117,87.863926 60.0677292,86.2812838 59.0575214,85.5718235 L9.17509856,50.0169492 C8.16489076,49.3074889 8.32870824,47.6975598 9.44812769,47.206395 L99.0289867,8.62267099 C99.2201071,8.54081019 99.4112275,8.51352326 99.6296508,8.51352326 M99.6023479,0 C98.2372022,0 96.8993594,0.272869335 95.6434254,0.818608006 L6.08986934,39.402332 C2.7589139,40.8485395 0.438166257,43.9865368 0.0559254687,47.615699 C-0.326315319,51.2448612 1.28455657,54.8194495 4.23327122,56.9478303 L44.2593423,85.4353889 L43.6586782,85.7082582 C40.3550257,87.1544657 38.061581,90.292463 37.6793402,93.8943383 C37.2970994,97.4962135 38.8806684,101.070802 41.829383,103.199183 L83.0567823,132.94194 L79.5074036,134.333574 C75.8761161,135.779781 73.4461568,139.0815 73.1731276,143.010819 C72.8727956,146.940137 74.8113025,150.569299 78.1968637,152.533958 L204.909685,225.635653 C206.438648,226.508835 208.186035,227 209.933421,227 C213.728526,227 217.277905,224.762471 218.970685,221.297031 C220.690769,217.777016 220.226619,213.683976 217.79666,210.600553 L168.132661,147.676884 L174.275816,146.176103 C177.606772,145.357495 180.282457,142.901671 181.401877,139.627239 C182.521296,136.32552 181.920632,132.750932 179.736399,130.022238 L147.655475,89.6648636 L151.122946,88.5460993 C154.153569,87.5637697 156.556225,85.1625195 157.566433,82.1336699 C158.576641,79.0775334 158.085188,75.6939536 156.255893,73.074408 L107.820525,4.25676163 C105.936624,1.58264214 102.878697,0 99.6023479,0 L99.6023479,0 Z" id="Shape" fill="#000000"></path>
        </g>
    </g>
</svg>