<?xml version="1.0" encoding="UTF-8"?>
<svg width="240px" height="240px" viewBox="0 0 240 240" version="1.1" xmlns="http://www.w3.org/2000/svg" xmlns:xlink="http://www.w3.org/1999/xlink">
    <title>zed</title>
    <g id="Page-1" stroke="none" stroke-width="1" fill="none" fill-rule="evenodd">
        <g id="zed">
            <rect id="box" x="0" y="0" width="240" height="240"></rect>
            <path d="M46.875,41.25 C43.7684,41.25 41.25,43.7684 41.25,46.875 L41.25,170.625 L30,170.625 L30,46.875 C30,37.5552 37.5552,30 46.875,30 L197.585,30 C205.102,30 208.8666,39.0884 203.5512,44.40372 L110.7284,137.2266 L136.875,137.2266 L136.875,125.625 L148.125,125.625 L148.125,140.039 C148.125,144.699 144.3474,148.4766 139.6876,148.4766 L99.4784,148.4766 L80.1424,167.8124 L167.8124,167.8124 L167.8124,97.5 L179.0624,97.5 L179.0624,167.8124 C179.0624,174.0256 174.0256,179.0624 167.8124,179.0624 L68.8924,179.0624 L49.20496,198.75 L193.125,198.75 C196.2316,198.75 198.75,196.2316 198.75,193.125 L198.75,69.375 L210,69.375 L210,193.125 C210,202.4448 202.4448,210 193.125,210 L42.41498,210 C34.89796,210 31.133446,200.9116 36.44876,195.5962 L128.92,103.125 L103.125,103.125 L103.125,114.375 L91.875,114.375 L91.875,100.3124 C91.875,95.6526 95.6526,91.875 100.3124,91.875 L140.17,91.875 L159.8576,72.1876 L72.1876,72.1876 L72.1876,142.5 L60.9376,142.5 L60.9376,72.1876 C60.9376,65.9742 65.9742,60.9376 72.1876,60.9376 L171.1076,60.9376 L190.795,41.25 L46.875,41.25 Z" id="Path" fill="#FFFFFF"></path>
        </g>
    </g>
</svg>