<?xml version="1.0" encoding="UTF-8"?>
<svg width="240px" height="240px" viewBox="0 0 240 240" version="1.1" xmlns="http://www.w3.org/2000/svg" xmlns:xlink="http://www.w3.org/1999/xlink">
    <title>zencoder</title>
    <g id="Page-1" stroke="none" stroke-width="1" fill="none" fill-rule="evenodd">
        <g id="zencoder" transform="translate(0, 0.0001)">
            <rect id="box" x="0.0319968923" y="0" width="239.968003" height="240"></rect>
            <g id="shape" transform="translate(0, 1.4999)" fill="#F24A07" fill-rule="nonzero">
                <path d="M99.067449,162.504507 C96.0829324,152.244411 91.0356702,140.024805 80.7066083,135.53212 C70.2527849,131.374219 58.3297039,136.328735 49.7668179,142.621679 C43.3443919,147.433222 37.7499916,153.837642 34.7811573,161.516788 C33.7810794,164.129588 33.0779198,166.853864 32.7341289,169.625916 C32.3278527,172.397968 31.9528365,175.185945 31.9997092,177.990201 C32.31224,196.215743 41.9535459,213.740575 55.2200775,225.593901 C62.4395129,231.870919 71.799757,237.669827 81.7378068,236.937266 C97.5828576,235.280334 100.630103,215.349731 102.333201,202.39721 C103.052148,197.044209 103.098846,191.643432 102.848975,186.258581 C102.442629,178.213154 101.239274,170.263279 99.067449,162.488581 L99.067449,162.504507 Z" id="Path"></path>
                <path d="M192.625082,168.037315 C187.831637,165.720982 182.802713,164.03075 177.695878,162.653743 C170.050823,160.603355 162.233874,159.320211 154.29115,159.038274 C143.764089,158.756685 130.777068,159.852102 123.382865,168.334548 C116.254887,177.036008 117.195059,189.900472 120.437622,199.963642 C122.944398,207.538049 127.205393,214.799927 133.471459,219.980129 C135.601957,221.717292 137.936141,223.219797 140.427195,224.393434 C142.886805,225.614002 145.377509,226.819274 148.025084,227.633103 C165.163396,232.87588 184.541909,229.010109 199.737338,219.964485 C207.836583,215.003297 216.170958,207.83563 218.551958,198.14826 C221.919947,182.545079 204.217742,173.608613 192.625082,168.037315 Z" id="Path"></path>
                <path d="M238.142386,79.2374518 C235.883647,69.9209299 231.572992,59.7043592 222.967292,54.3987717 C208.953318,46.314117 194.74813,60.4939187 185.729138,69.8577932 C181.990706,73.72667 178.77767,78.0213688 175.834959,82.490395 C171.460448,89.1853407 167.769909,96.2752416 165.002093,103.791666 C161.438912,113.803042 158.416735,126.593135 164.302158,136.320046 C170.474223,145.857546 183.199719,148.984216 193.937155,149 C202.049388,148.968432 210.416692,147.136766 217.367804,142.747011 C219.722328,141.246813 221.901247,139.478284 223.810195,137.457208 C225.766681,135.483134 227.707558,133.462058 229.329863,131.188084 C239.78101,116.392699 242.119214,96.6070601 238.142386,79.2216676 L238.142386,79.2374518 Z" id="Path"></path>
                <path d="M149.255103,87.4391169 C160.307862,84.5696854 167.20985,73.5328984 170.565437,63.410561 C173.030433,55.7482367 173.873497,47.3129555 171.821698,39.3823553 C171.106318,36.7020478 170.088398,34.1004369 168.752335,31.6723647 C167.464508,29.2285323 166.144405,26.7689395 164.442671,24.5458217 C153.48532,10.1350974 135.26031,1.84182386 117.384655,0.217856945 C107.763368,-0.523175412 96.6467677,0.37552438 88.9020693,6.87137732 C76.8154313,17.5927475 86.0075611,35.3617189 92.2097748,46.7452333 C94.7545729,51.4596746 97.8874232,55.811278 101.25897,59.9576469 C106.315936,66.1542601 111.961664,71.8143215 118.323127,76.7494075 C126.799521,83.1978358 138.122897,89.9933417 149.271064,87.4548772 L149.255103,87.4391169 Z" id="Path"></path>
                <path d="M56.6963949,124.426406 C64.2117737,121.514894 71.3926464,117.863354 78.0959069,113.310989 C86.9169957,107.182091 96.9322926,98.4311167 97.9514354,86.9133478 C98.6041129,75.3794992 90.1491342,65.2453063 81.4715065,58.8426946 C74.8797481,54.0491331 67.0298632,50.5905507 58.7822641,50.0595606 C55.9957786,49.8987628 53.177334,50.0595606 50.4387874,50.5905507 C47.6842612,51.0572217 44.9137553,51.5556949 42.2547515,52.4725998 C25.0265517,58.4567798 11.4128997,73.3688119 4.32740743,90.066057 C0.633412681,99.0907451 -1.93009744,110.077524 1.89130116,119.568525 C8.45131352,134.577036 28.3543547,131.327491 41.2036496,128.962691 C46.5220123,127.997547 51.6649546,126.356695 56.6963949,124.426406 Z" id="Path"></path>
            </g>
        </g>
    </g>
</svg>