<?xml version="1.0" encoding="UTF-8"?>
<svg width="240px" height="240px" viewBox="0 0 240 240" version="1.1" xmlns="http://www.w3.org/2000/svg" xmlns:xlink="http://www.w3.org/1999/xlink">
    <title>zipline</title>
    <defs>
        <linearGradient x1="0%" y1="0%" x2="100%" y2="100%" id="linearGradient-1">
            <stop stop-color="#424E5F" offset="0%"></stop>
            <stop stop-color="#1B2129" offset="49.0640807%"></stop>
            <stop stop-color="#111519" offset="100%"></stop>
        </linearGradient>
    </defs>
    <g id="Page-1" stroke="none" stroke-width="1" fill="none" fill-rule="evenodd">
        <g id="zipline">
            <circle id="Oval" fill="url(#linearGradient-1)" cx="120" cy="120" r="120"></circle>
            <g id="zip" transform="translate(51, 73)" fill="#91B2E4" fill-rule="nonzero">
                <path d="M0,73.6919786 L0,62.6834225 L20.0892465,39.7112299 C23.3869788,35.9579323 25.8266277,33.2937611 27.4081931,31.7187166 C25.759327,31.8192513 23.5888808,31.8862745 20.8968544,31.9197861 L1.96854426,32.0203209 L1.96854426,20.3080214 L46.2860278,20.3080214 L46.2860278,30.3112299 L25.7929773,53.8363636 L18.5749817,61.6278075 C22.5120702,61.3932264 24.9517191,61.2759358 25.8939283,61.2759358 L47.8507681,61.2759358 L47.8507681,73.6919786 L0,73.6919786 Z" id="Path"></path>
                <path d="M57.3906364,13.0695187 L57.3906364,0 L71.5742502,0 L71.5742502,13.0695187 L57.3906364,13.0695187 Z M57.3906364,73.6919786 L57.3906364,20.3080214 L71.5742502,20.3080214 L71.5742502,73.6919786 L57.3906364,73.6919786 Z" id="Shape"></path>
                <path d="M85.7073884,20.3080214 L98.9319678,20.3080214 L98.9319678,28.1497326 C100.648135,25.4688057 102.970007,23.2905526 105.897586,21.6149733 C108.825165,19.9393939 112.072421,19.1016043 115.639356,19.1016043 C121.864667,19.1016043 127.147769,21.5311943 131.488661,26.3903743 C135.829554,31.2495544 138,38.0188948 138,46.6983957 C138,55.6124777 135.812729,62.5409982 131.438186,67.4839572 C127.063643,72.4269162 121.763716,74.8983957 115.538405,74.8983957 C112.577176,74.8983957 109.893563,74.311943 107.487564,73.1390374 C105.081565,71.9661319 102.549378,69.9554367 99.8910022,67.1069519 L99.8910022,94 L85.7073884,94 L85.7073884,20.3080214 Z M99.7395757,46.0951872 C99.7395757,52.0937611 100.934162,56.5256684 103.323336,59.3909091 C105.712509,62.2561497 108.623263,63.6887701 112.055596,63.6887701 C115.353328,63.6887701 118.09583,62.3734403 120.283102,59.7427807 C122.470373,57.1121212 123.564009,52.7975045 123.564009,46.7989305 C123.564009,41.2024955 122.436723,37.0470588 120.182151,34.3326203 C117.927579,31.6181818 115.134601,30.2609626 111.803219,30.2609626 C108.337235,30.2609626 105.460132,31.5930481 103.171909,34.2572193 C100.883687,36.9213904 99.7395757,40.8673797 99.7395757,46.0951872 Z" id="Shape"></path>
            </g>
        </g>
    </g>
</svg>