<?xml version="1.0" encoding="UTF-8"?>
<svg width="240px" height="240px" viewBox="0 0 240 240" version="1.1" xmlns="http://www.w3.org/2000/svg" xmlns:xlink="http://www.w3.org/1999/xlink">
    <title>zoomeye</title>
    <g id="Page-1" stroke="none" stroke-width="1" fill="none" fill-rule="evenodd">
        <g id="zoomeye">
            <rect id="box" fill="#FFFFFF" x="0" y="0" width="240" height="240" rx="32"></rect>
            <g id="shape" transform="translate(30, 69)" fill="#000000" fill-rule="nonzero">
                <path d="M0,11.7945471 C0,11.7945471 9.58756746,15.2511636 20.83698,35.734817 C36.3049221,62.619612 36.9440933,95.6495031 80.0242298,102.434713 C142.53517,105.763307 137.677469,46.488735 137.677469,46.488735 C137.677469,46.488735 140.234153,93.6011378 82.0695775,93.9852063 C40.2677833,90.2725441 40.5234518,43.8002555 22.3709907,22.5484651 C44.7419815,19.0918486 61.3604318,6.03351955 61.3604318,6.03351955 C61.3604318,6.03351955 42.6966338,12.4346612 26.0781835,13.9709352 C12.3999206,15.2511636 0,11.7945471 0,11.7945471 L0,11.7945471 Z" id="Path"></path>
                <path d="M180,90.6466672 C180,90.6466672 170.412023,87.1897012 159.162129,66.7039771 C143.693526,39.9444999 143.054327,6.91126968 99.9723491,0.125373556 C37.5865764,-3.07552084 42.3166453,56.0770076 42.3166453,56.0770076 C42.3166453,56.0770076 39.887691,8.9598421 97.9269139,8.70377054 C139.730495,12.416808 139.474816,58.7657589 157.628053,80.0196978 C135.256106,83.4766637 118.636945,96.5363128 118.636945,96.5363128 C118.636945,96.5363128 137.173701,90.1345241 153.920702,88.5980947 C167.599549,87.1897012 180,90.6466672 180,90.6466672 Z" id="Path"></path>
                <path d="M90,29.1620112 C78.0317239,29.1620112 68.3798883,38.8138468 68.3798883,50.7821229 C68.3798883,62.750399 78.0317239,72.4022346 90,72.4022346 C101.968276,72.4022346 111.620112,62.750399 111.620112,50.7821229 C111.491421,38.8138468 101.839585,29.1620112 90,29.1620112 Z M90,63.5225459 C82.9219872,63.5225459 77.259577,57.8601357 77.259577,50.7821229 C77.259577,43.7041101 82.9219872,38.0416999 90,38.0416999 C97.0780128,38.0416999 102.740423,43.7041101 102.740423,50.7821229 C102.611732,57.8601357 96.9493216,63.5225459 90,63.5225459 L90,63.5225459 Z" id="Shape"></path>
            </g>
        </g>
    </g>
</svg>