<?xml version="1.0" encoding="UTF-8"?>
<svg width="240px" height="240px" viewBox="0 0 240 240" version="1.1" xmlns="http://www.w3.org/2000/svg" xmlns:xlink="http://www.w3.org/1999/xlink">
    <title>zoomeye</title>
    <g id="Page-1" stroke="none" stroke-width="1" fill="none" fill-rule="evenodd">
        <g id="zoomeye" fill-rule="nonzero">
            <rect id="box" x="0" y="0" width="240" height="240" rx="32"></rect>
            <g id="shape" transform="translate(0, 52)" fill="#FFFFFF">
                <path d="M0,15.6386958 C0,15.6386958 12.7888891,20.2219133 27.794519,47.3817204 C48.42726,83.0289673 49.2798527,126.824156 106.744594,135.820842 C190.128152,140.234311 183.648448,61.6406192 183.648448,61.6406192 C183.648448,61.6406192 187.058817,124.108176 109.472891,124.617422 C53.7133342,119.694707 54.0543712,58.0758945 29.8407412,29.8975945 C59.6814825,25.3143771 81.8488903,8 81.8488903,8 C81.8488903,8 56.9531862,16.4874397 34.7857783,18.5244252 C16.5402966,20.2219133 0,15.6386958 0,15.6386958 L0,15.6386958 Z" id="Path"></path>
                <path d="M240,120.190766 C240,120.190766 227.210565,115.607085 212.204292,88.4445326 C191.57067,52.963448 190.71804,9.16383165 133.250842,0.166236048 C50.0342458,-4.07791282 56.3437009,74.3539583 56.3437009,74.3539583 C56.3437009,74.3539583 53.1037104,11.8800869 130.522429,11.540555 C186.284369,16.4637677 185.943318,77.9190433 210.157983,106.100192 C180.315966,110.683873 158.14761,128 158.14761,128 C158.14761,128 182.873853,119.511702 205.212735,117.474511 C223.458996,115.607085 240,120.190766 240,120.190766 Z" id="Path"></path>
                <path d="M120,39 C104.157203,39 91.3807531,51.7232143 91.3807531,67.5 C91.3807531,83.2767857 104.157203,96 120,96 C135.842797,96 148.619247,83.2767857 148.619247,67.5 C148.448894,51.7232143 135.672444,39 120,39 Z M120,84.2946429 C110.630604,84.2946429 103.135087,76.8303572 103.135087,67.5 C103.135087,58.1696428 110.630604,50.7053571 120,50.7053571 C129.369396,50.7053571 136.864913,58.1696428 136.864913,67.5 C136.694561,76.8303572 129.199043,84.2946429 120,84.2946429 L120,84.2946429 Z" id="Shape"></path>
            </g>
        </g>
    </g>
</svg>