<?xml version="1.0" encoding="UTF-8"?>
<!DOCTYPE svg PUBLIC "-//W3C//DTD SVG 1.1//EN" "http://www.w3.org/Graphics/SVG/1.1/DTD/svg11.dtd">
<svg xmlns="http://www.w3.org/2000/svg" version="1.1" width="768px" height="768px" style="shape-rendering:geometricPrecision; text-rendering:geometricPrecision; image-rendering:optimizeQuality; fill-rule:evenodd; clip-rule:evenodd" xmlns:xlink="http://www.w3.org/1999/xlink">
<g><path style="opacity:0.991" fill="#10003c" d="M 155.5,-0.5 C 307.833,-0.5 460.167,-0.5 612.5,-0.5C 668.708,7.89522 712.208,35.8952 743,83.5C 744.009,85.0249 744.509,86.6916 744.5,88.5C 503.833,88.5 263.167,88.5 22.5,88.5C 46.6856,47.1559 81.6856,19.3226 127.5,5C 136.861,2.67179 146.194,0.838456 155.5,-0.5 Z"/></g>
<g><path style="opacity:0.996" fill="#11013f" d="M 22.5,88.5 C 263.167,88.5 503.833,88.5 744.5,88.5C 753.899,102.312 760.232,117.645 763.5,134.5C 510.5,135.833 257.5,135.833 4.5,134.5C 7.23691,117.806 13.2369,102.473 22.5,88.5 Z"/></g>
<g><path style="opacity:0.998" fill="#130242" d="M 4.5,134.5 C 257.5,135.833 510.5,135.833 763.5,134.5C 765.109,139.763 766.442,145.096 767.5,150.5C 767.5,164.167 767.5,177.833 767.5,191.5C 703.5,191.5 639.5,191.5 575.5,191.5C 575.5,219.833 575.5,248.167 575.5,276.5C 575.802,279.059 575.468,281.393 574.5,283.5C 574.5,249.833 574.5,216.167 574.5,182.5C 451.334,181.5 328.001,181.167 204.5,181.5C 204.5,215.167 204.5,248.833 204.5,282.5C 203.532,280.393 203.198,278.059 203.5,275.5C 203.5,247.5 203.5,219.5 203.5,191.5C 135.5,191.5 67.5,191.5 -0.5,191.5C -0.5,179.5 -0.5,167.5 -0.5,155.5C 0.729975,150.706 1.56331,145.706 2,140.5C 2.56619,138.277 3.39953,136.277 4.5,134.5 Z"/></g>
<g><path style="opacity:1" fill="#7bf500" d="M 574.5,182.5 C 574.5,216.167 574.5,249.833 574.5,283.5C 552.201,303.465 530.534,324.131 509.5,345.5C 501.528,352.137 493.861,359.137 486.5,366.5C 462.838,388.162 439.505,410.162 416.5,432.5C 401.167,446.833 385.833,461.167 370.5,475.5C 369.957,475.56 369.624,475.893 369.5,476.5C 437.83,477.5 506.163,477.833 574.5,477.5C 574.5,510.833 574.5,544.167 574.5,577.5C 451.167,577.5 327.833,577.5 204.5,577.5C 204.333,543.832 204.5,510.165 205,476.5C 220.366,461.966 235.533,447.3 250.5,432.5C 273.828,411.171 296.828,389.505 319.5,367.5C 326.526,360.806 333.526,354.139 340.5,347.5C 363.161,326.838 385.495,305.838 407.5,284.5C 407.833,284.5 408.167,284.5 408.5,284.5C 410.549,284.294 410.883,283.461 409.5,282C 341.501,281.5 273.501,281.333 205.5,281.5C 205.5,248.5 205.5,215.5 205.5,182.5C 328.5,182.5 451.5,182.5 574.5,182.5 Z"/></g>
<g><path style="opacity:1" fill="#150347" d="M -0.5,191.5 C 67.5,191.5 135.5,191.5 203.5,191.5C 203.5,219.5 203.5,247.5 203.5,275.5C 135.571,276.496 67.5711,276.83 -0.5,276.5C -0.5,248.167 -0.5,219.833 -0.5,191.5 Z"/></g>
<g><path style="opacity:1" fill="#150347" d="M 767.5,191.5 C 767.5,219.833 767.5,248.167 767.5,276.5C 703.5,276.5 639.5,276.5 575.5,276.5C 575.5,248.167 575.5,219.833 575.5,191.5C 639.5,191.5 703.5,191.5 767.5,191.5 Z"/></g>
<g><path style="opacity:1" fill="#17054c" d="M 203.5,275.5 C 203.198,278.059 203.532,280.393 204.5,282.5C 272.167,283.167 339.833,283.833 407.5,284.5C 385.495,305.838 363.161,326.838 340.5,347.5C 340.351,346.448 340.517,345.448 341,344.5C 342.733,342.853 344.566,341.353 346.5,340C 230.834,339.5 115.167,339.333 -0.5,339.5C -0.5,318.5 -0.5,297.5 -0.5,276.5C 67.5711,276.83 135.571,276.496 203.5,275.5 Z"/></g>
<g><path style="opacity:1" fill="#17054d" d="M 575.5,276.5 C 639.5,276.5 703.5,276.5 767.5,276.5C 767.5,297.5 767.5,318.5 767.5,339.5C 683.831,339.167 600.164,339.5 516.5,340.5C 515.01,341.826 513.676,343.326 512.5,345C 511.552,345.483 510.552,345.649 509.5,345.5C 530.534,324.131 552.201,303.465 574.5,283.5C 575.468,281.393 575.802,279.059 575.5,276.5 Z"/></g>
<g><path style="opacity:1" fill="#6bcf0b" d="M 574.5,182.5 C 451.5,182.5 328.5,182.5 205.5,182.5C 205.5,215.5 205.5,248.5 205.5,281.5C 273.501,281.333 341.501,281.5 409.5,282C 410.883,283.461 410.549,284.294 408.5,284.5C 340.842,282.503 272.842,281.837 204.5,282.5C 204.5,248.833 204.5,215.167 204.5,181.5C 328.001,181.167 451.334,181.5 574.5,182.5 Z"/></g>
<g><path style="opacity:1" fill="#385a36" d="M 204.5,282.5 C 272.842,281.837 340.842,282.503 408.5,284.5C 408.167,284.5 407.833,284.5 407.5,284.5C 339.833,283.833 272.167,283.167 204.5,282.5 Z"/></g>
<g><path style="opacity:1" fill="#190650" d="M -0.5,339.5 C 115.167,339.333 230.834,339.5 346.5,340C 344.566,341.353 342.733,342.853 341,344.5C 340.517,345.448 340.351,346.448 340.5,347.5C 333.526,354.139 326.526,360.806 319.5,367.5C 213.001,366.501 106.335,366.167 -0.5,366.5C -0.5,357.5 -0.5,348.5 -0.5,339.5 Z"/></g>
<g><path style="opacity:1" fill="#190650" d="M 767.5,339.5 C 767.5,348.5 767.5,357.5 767.5,366.5C 673.833,366.5 580.167,366.5 486.5,366.5C 493.861,359.137 501.528,352.137 509.5,345.5C 510.552,345.649 511.552,345.483 512.5,345C 513.676,343.326 515.01,341.826 516.5,340.5C 600.164,339.5 683.831,339.167 767.5,339.5 Z"/></g>
<g><path style="opacity:1" fill="#1a0754" d="M -0.5,366.5 C 106.335,366.167 213.001,366.501 319.5,367.5C 296.828,389.505 273.828,411.171 250.5,432.5C 167.002,431.501 83.335,431.167 -0.5,431.5C -0.5,409.833 -0.5,388.167 -0.5,366.5 Z"/></g>
<g><path style="opacity:1" fill="#1a0755" d="M 486.5,366.5 C 580.167,366.5 673.833,366.5 767.5,366.5C 767.5,388.167 767.5,409.833 767.5,431.5C 650.459,431.171 533.459,431.504 416.5,432.5C 439.505,410.162 462.838,388.162 486.5,366.5 Z"/></g>
<g><path style="opacity:1" fill="#1e0a5a" d="M -0.5,431.5 C 83.335,431.167 167.002,431.501 250.5,432.5C 235.533,447.3 220.366,461.966 205,476.5C 204.5,510.165 204.333,543.832 204.5,577.5C 203.668,555.004 203.168,532.337 203,509.5C 135.238,510.498 67.4044,510.831 -0.5,510.5C -0.5,484.167 -0.5,457.833 -0.5,431.5 Z"/></g>
<g><path style="opacity:1" fill="#1d095a" d="M 767.5,431.5 C 767.5,457.833 767.5,484.167 767.5,510.5C 703.5,510.5 639.5,510.5 575.5,510.5C 575.831,533.006 575.497,555.34 574.5,577.5C 574.5,544.167 574.5,510.833 574.5,477.5C 506.5,476.833 438.5,476.167 370.5,475.5C 385.833,461.167 401.167,446.833 416.5,432.5C 533.459,431.504 650.459,431.171 767.5,431.5 Z"/></g>
<g><path style="opacity:1" fill="#538e28" d="M 370.5,475.5 C 438.5,476.167 506.5,476.833 574.5,477.5C 506.163,477.833 437.83,477.5 369.5,476.5C 369.624,475.893 369.957,475.56 370.5,475.5 Z"/></g>
<g><path style="opacity:1" fill="#210c60" d="M 204.5,577.5 C 327.833,577.5 451.167,577.5 574.5,577.5C 575.497,555.34 575.831,533.006 575.5,510.5C 639.5,510.5 703.5,510.5 767.5,510.5C 767.5,539.167 767.5,567.833 767.5,596.5C 511.5,596.5 255.5,596.5 -0.5,596.5C -0.5,567.833 -0.5,539.167 -0.5,510.5C 67.4044,510.831 135.238,510.498 203,509.5C 203.168,532.337 203.668,555.004 204.5,577.5 Z"/></g>
<g><path style="opacity:0.996" fill="#220d67" d="M -0.5,596.5 C 255.5,596.5 511.5,596.5 767.5,596.5C 767.5,603.5 767.5,610.5 767.5,617.5C 759.965,661.999 738.965,698.665 704.5,727.5C 490.5,727.5 276.5,727.5 62.5,727.5C 26.7004,697.461 5.70043,659.128 -0.5,612.5C -0.5,607.167 -0.5,601.833 -0.5,596.5 Z"/></g>
<g><path style="opacity:0.988" fill="#240f6b" d="M 62.5,727.5 C 276.5,727.5 490.5,727.5 704.5,727.5C 679.065,749.103 649.731,762.436 616.5,767.5C 461.5,767.5 306.5,767.5 151.5,767.5C 118.192,762.285 88.5252,748.952 62.5,727.5 Z"/></g>
</svg>
